<?xml version="1.0" encoding="UTF-8" standalone="no"?>
<!DOCTYPE svg PUBLIC "-//W3C//DTD SVG 1.1//EN"
 "http://www.w3.org/Graphics/SVG/1.1/DTD/svg11.dtd">
<!-- Generated by graphviz version 2.43.0 (0)
 -->
<!-- Title: Source/LatteLibrary/Character/Public/AGameCharacter.h Pages: 1 -->
<svg width="718pt" height="148pt"
 viewBox="0.00 0.00 717.50 148.00" xmlns="http://www.w3.org/2000/svg" xmlns:xlink="http://www.w3.org/1999/xlink">
<g id="graph0" class="graph" transform="scale(1 1) rotate(0) translate(4 144)">
<title>Source/LatteLibrary/Character/Public/AGameCharacter.h</title>
<!-- Node1 -->
<g id="Node000001" class="node">
<title>Node1</title>
<g id="a_Node000001"><a xlink:title="LatteLibrary 전반에서 사용하는 기반 캐릭터 클래스를 선언합니다.">
<polygon fill="#999999" stroke="#666666" points="361,-140 167,-140 167,-110 361,-110 361,-140"/>
<text text-anchor="start" x="175" y="-128" font-family="Malgun Gothic" font-size="10.00">Source/LatteLibrary</text>
<text text-anchor="middle" x="264" y="-117" font-family="Malgun Gothic" font-size="10.00">/Character/Public/AGameCharacter.h</text>
</a>
</g>
</g>
<!-- Node2 -->
<g id="Node000002" class="node">
<title>Node2</title>
<g id="a_Node000002"><a xlink:title=" ">
<polygon fill="#e0e0e0" stroke="#999999" points="88,-19 0,-19 0,0 88,0 88,-19"/>
<text text-anchor="middle" x="44" y="-7" font-family="Malgun Gothic" font-size="10.00">CoreMinimal.h</text>
</a>
</g>
</g>
<!-- Node1&#45;&gt;Node2 -->
<g id="edge1_Node000001_Node000002" class="edge">
<title>Node1&#45;&gt;Node2</title>
<g id="a_edge1_Node000001_Node000002"><a xlink:title=" ">
<path fill="none" stroke="#63b8ff" d="M218.1,-109.94C192.11,-101.17 159.41,-88.75 132,-74 106.14,-60.09 79.16,-39.58 62,-25.67"/>
<polygon fill="#63b8ff" stroke="#63b8ff" points="63.92,-22.72 53.98,-19.06 59.47,-28.12 63.92,-22.72"/>
</a>
</g>
</g>
<!-- Node3 -->
<g id="Node000003" class="node">
<title>Node3</title>
<g id="a_Node000003"><a xlink:title=" ">
<polygon fill="#e0e0e0" stroke="#999999" points="414.5,-74 255.5,-74 255.5,-55 414.5,-55 414.5,-74"/>
<text text-anchor="middle" x="335" y="-62" font-family="Malgun Gothic" font-size="10.00">GameFramework/Character.h</text>
</a>
</g>
</g>
<!-- Node1&#45;&gt;Node3 -->
<g id="edge2_Node000001_Node000003" class="edge">
<title>Node1&#45;&gt;Node3</title>
<g id="a_edge2_Node000001_Node000003"><a xlink:title=" ">
<path fill="none" stroke="#63b8ff" d="M281.19,-109.84C291.81,-101.09 305.44,-89.85 316.33,-80.88"/>
<polygon fill="#63b8ff" stroke="#63b8ff" points="318.87,-83.33 324.36,-74.27 314.42,-77.92 318.87,-83.33"/>
</a>
</g>
</g>
<!-- Node4 -->
<g id="Node000004" class="node">
<title>Node4</title>
<g id="a_Node000004"><a xlink:href="EBodyPartType_8h.html" target="_top" xlink:title="EBodyPartType 열거형에 대한 Doxygen 주석을 제공합니다.">
<polygon fill="white" stroke="#666666" points="530,-74 432,-74 432,-55 530,-55 530,-74"/>
<text text-anchor="middle" x="481" y="-62" font-family="Malgun Gothic" font-size="10.00">EBodyPartType.h</text>
</a>
</g>
</g>
<!-- Node1&#45;&gt;Node4 -->
<g id="edge3_Node000001_Node000004" class="edge">
<title>Node1&#45;&gt;Node4</title>
<g id="a_edge3_Node000001_Node000004"><a xlink:title=" ">
<path fill="none" stroke="#63b8ff" d="M315.98,-109.99C353.75,-99.8 404.21,-86.2 439.34,-76.73"/>
<polygon fill="#63b8ff" stroke="#63b8ff" points="440.53,-80.04 449.27,-74.05 438.7,-73.28 440.53,-80.04"/>
</a>
</g>
</g>
<!-- Node5 -->
<g id="Node000005" class="node">
<title>Node5</title>
<g id="a_Node000005"><a xlink:href="ECharacterType_8h.html" target="_top" xlink:title="ECharacterType 열거형에 대한 Doxygen 주석을 제공합니다.">
<polygon fill="white" stroke="#666666" points="207.5,-19 106.5,-19 106.5,0 207.5,0 207.5,-19"/>
<text text-anchor="middle" x="157" y="-7" font-family="Malgun Gothic" font-size="10.00">ECharacterType.h</text>
</a>
</g>
</g>
<!-- Node1&#45;&gt;Node5 -->
<g id="edge4_Node000001_Node000005" class="edge">
<title>Node1&#45;&gt;Node5</title>
<g id="a_edge4_Node000001_Node000005"><a xlink:title=" ">
<path fill="none" stroke="#63b8ff" d="M189.62,-109.91C170.28,-102.51 151.62,-91.22 140,-74 130.65,-60.15 137.56,-41.36 145.19,-27.82"/>
<polygon fill="#63b8ff" stroke="#63b8ff" points="148.34,-29.38 150.65,-19.03 142.4,-25.68 148.34,-29.38"/>
</a>
</g>
</g>
<!-- Node6 -->
<g id="Node000006" class="node">
<title>Node6</title>
<g id="a_Node000006"><a xlink:href="UStatSystem_8h.html" target="_top" xlink:title="UStatSystem 선언에 대한 Doxygen 주석을 제공합니다.">
<polygon fill="white" stroke="#666666" points="237.5,-74 148.5,-74 148.5,-55 237.5,-55 237.5,-74"/>
<text text-anchor="middle" x="193" y="-62" font-family="Malgun Gothic" font-size="10.00">UStatSystem.h</text>
</a>
</g>
</g>
<!-- Node1&#45;&gt;Node6 -->
<g id="edge5_Node000001_Node000006" class="edge">
<title>Node1&#45;&gt;Node6</title>
<g id="a_edge5_Node000001_Node000006"><a xlink:title=" ">
<path fill="none" stroke="#63b8ff" d="M246.81,-109.84C236.19,-101.09 222.56,-89.85 211.67,-80.88"/>
<polygon fill="#63b8ff" stroke="#63b8ff" points="213.58,-77.92 203.64,-74.27 209.13,-83.33 213.58,-77.92"/>
</a>
</g>
</g>
<!-- Node9 -->
<g id="Node000009" class="node">
<title>Node9</title>
<g id="a_Node000009"><a xlink:title=" ">
<polygon fill="#e0e0e0" stroke="#999999" points="709.5,-74 548.5,-74 548.5,-55 709.5,-55 709.5,-74"/>
<text text-anchor="middle" x="629" y="-62" font-family="Malgun Gothic" font-size="10.00">AGameCharacter.generated.h</text>
</a>
</g>
</g>
<!-- Node1&#45;&gt;Node9 -->
<g id="edge10_Node000001_Node000009" class="edge">
<title>Node1&#45;&gt;Node9</title>
<g id="a_edge10_Node000001_Node000009"><a xlink:title=" ">
<path fill="none" stroke="#63b8ff" d="M351.43,-109.99C417.52,-99.4 506.69,-85.1 565.93,-75.61"/>
<polygon fill="#63b8ff" stroke="#63b8ff" points="566.58,-79.05 575.9,-74.01 565.47,-72.14 566.58,-79.05"/>
</a>
</g>
</g>
<!-- Node6&#45;&gt;Node2 -->
<g id="edge6_Node000006_Node000002" class="edge">
<title>Node6&#45;&gt;Node2</title>
<g id="a_edge6_Node000006_Node000002"><a xlink:title=" ">
<path fill="none" stroke="#63b8ff" d="M169.06,-54.98C144.44,-46.23 105.88,-32.51 78.08,-22.62"/>
<polygon fill="#63b8ff" stroke="#63b8ff" points="78.97,-19.22 68.38,-19.17 76.62,-25.82 78.97,-19.22"/>
</a>
</g>
</g>
<!-- Node6&#45;&gt;Node5 -->
<g id="edge7_Node000006_Node000005" class="edge">
<title>Node6&#45;&gt;Node5</title>
<g id="a_edge7_Node000006_Node000005"><a xlink:title=" ">
<path fill="none" stroke="#63b8ff" d="M187.06,-54.75C182.02,-47.34 174.66,-36.5 168.49,-27.41"/>
<polygon fill="#63b8ff" stroke="#63b8ff" points="171.35,-25.39 162.83,-19.09 165.56,-29.33 171.35,-25.39"/>
</a>
</g>
</g>
<!-- Node7 -->
<g id="Node000007" class="node">
<title>Node7</title>
<g id="a_Node000007"><a xlink:title=" ">
<polygon fill="#e0e0e0" stroke="#999999" points="398,-19 226,-19 226,0 398,0 398,-19"/>
<text text-anchor="middle" x="312" y="-7" font-family="Malgun Gothic" font-size="10.00">Components/ActorComponent.h</text>
</a>
</g>
</g>
<!-- Node6&#45;&gt;Node7 -->
<g id="edge8_Node000006_Node000007" class="edge">
<title>Node6&#45;&gt;Node7</title>
<g id="a_edge8_Node000006_Node000007"><a xlink:title=" ">
<path fill="none" stroke="#63b8ff" d="M212.12,-54.98C231.35,-46.42 261.23,-33.11 283.31,-23.28"/>
<polygon fill="#63b8ff" stroke="#63b8ff" points="284.82,-26.44 292.53,-19.17 281.97,-20.04 284.82,-26.44"/>
</a>
</g>
</g>
<!-- Node8 -->
<g id="Node000008" class="node">
<title>Node8</title>
<g id="a_Node000008"><a xlink:title=" ">
<polygon fill="#e0e0e0" stroke="#999999" points="558,-19 416,-19 416,0 558,0 558,-19"/>
<text text-anchor="middle" x="487" y="-7" font-family="Malgun Gothic" font-size="10.00">UStatSystem.generated.h</text>
</a>
</g>
</g>
<!-- Node6&#45;&gt;Node8 -->
<g id="edge9_Node000006_Node000008" class="edge">
<title>Node6&#45;&gt;Node8</title>
<g id="a_edge9_Node000006_Node000008"><a xlink:title=" ">
<path fill="none" stroke="#63b8ff" d="M237.65,-55.45C288.92,-46.21 373.15,-31.02 429.34,-20.9"/>
<polygon fill="#63b8ff" stroke="#63b8ff" points="430.27,-24.28 439.49,-19.07 429.02,-17.4 430.27,-24.28"/>
</a>
</g>
</g>
</g>
</svg>
