<?xml version="1.0" encoding="UTF-8" standalone="no"?>
<!DOCTYPE svg PUBLIC "-//W3C//DTD SVG 1.1//EN"
 "http://www.w3.org/Graphics/SVG/1.1/DTD/svg11.dtd">
<!-- Generated by graphviz version 2.43.0 (0)
 -->
<!-- Title: Source/YiSan/Environment/Private/AGate.cpp Pages: 1 -->
<svg width="1332pt" height="148pt"
 viewBox="0.00 0.00 1332.00 148.00" xmlns="http://www.w3.org/2000/svg" xmlns:xlink="http://www.w3.org/1999/xlink">
<g id="graph0" class="graph" transform="scale(1 1) rotate(0) translate(4 144)">
<title>Source/YiSan/Environment/Private/AGate.cpp</title>
<!-- Node1 -->
<g id="Node000001" class="node">
<title>Node1</title>
<g id="a_Node000001"><a xlink:title=" ">
<polygon fill="#999999" stroke="#666666" points="874.5,-140 729.5,-140 729.5,-110 874.5,-110 874.5,-140"/>
<text text-anchor="start" x="737.5" y="-128" font-family="Malgun Gothic" font-size="10.00">Source/YiSan/Environment</text>
<text text-anchor="middle" x="802" y="-117" font-family="Malgun Gothic" font-size="10.00">/Private/AGate.cpp</text>
</a>
</g>
</g>
<!-- Node2 -->
<g id="Node000002" class="node">
<title>Node2</title>
<g id="a_Node000002"><a xlink:href="AGate_8h.html" target="_top" xlink:title=" ">
<polygon fill="white" stroke="#666666" points="766,-74 710,-74 710,-55 766,-55 766,-74"/>
<text text-anchor="middle" x="738" y="-62" font-family="Malgun Gothic" font-size="10.00">AGate.h</text>
</a>
</g>
</g>
<!-- Node1&#45;&gt;Node2 -->
<g id="edge1_Node000001_Node000002" class="edge">
<title>Node1&#45;&gt;Node2</title>
<g id="a_edge1_Node000001_Node000002"><a xlink:title=" ">
<path fill="none" stroke="#63b8ff" d="M786.51,-109.84C777.03,-101.17 764.89,-90.08 755.12,-81.15"/>
<polygon fill="#63b8ff" stroke="#63b8ff" points="757.33,-78.43 747.59,-74.27 752.61,-83.6 757.33,-78.43"/>
</a>
</g>
</g>
<!-- Node6 -->
<g id="Node000006" class="node">
<title>Node6</title>
<g id="a_Node000006"><a xlink:href="UBroadcastManger_8h.html" target="_top" xlink:title="UBroadcastManger 선언에 대한 Doxygen 주석을 제공합니다.">
<polygon fill="white" stroke="#666666" points="458,-74 340,-74 340,-55 458,-55 458,-74"/>
<text text-anchor="middle" x="399" y="-62" font-family="Malgun Gothic" font-size="10.00">UBroadcastManger.h</text>
</a>
</g>
</g>
<!-- Node1&#45;&gt;Node6 -->
<g id="edge5_Node000001_Node000006" class="edge">
<title>Node1&#45;&gt;Node6</title>
<g id="a_edge5_Node000001_Node000006"><a xlink:title=" ">
<path fill="none" stroke="#63b8ff" d="M729.49,-113.47C655.25,-102.7 540.72,-86.07 467.84,-75.49"/>
<polygon fill="#63b8ff" stroke="#63b8ff" points="468.24,-72.01 457.84,-74.04 467.24,-78.94 468.24,-72.01"/>
</a>
</g>
</g>
<!-- Node11 -->
<g id="Node000011" class="node">
<title>Node11</title>
<g id="a_Node000011"><a xlink:title=" ">
<polygon fill="#e0e0e0" stroke="#999999" points="949.5,-74 784.5,-74 784.5,-55 949.5,-55 949.5,-74"/>
<text text-anchor="middle" x="867" y="-62" font-family="Malgun Gothic" font-size="10.00">Components/BoxComponent.h</text>
</a>
</g>
</g>
<!-- Node1&#45;&gt;Node11 -->
<g id="edge11_Node000001_Node000011" class="edge">
<title>Node1&#45;&gt;Node11</title>
<g id="a_edge11_Node000001_Node000011"><a xlink:title=" ">
<path fill="none" stroke="#63b8ff" d="M817.73,-109.84C827.36,-101.17 839.69,-90.08 849.61,-81.15"/>
<polygon fill="#63b8ff" stroke="#63b8ff" points="852.17,-83.56 857.26,-74.27 847.49,-78.35 852.17,-83.56"/>
</a>
</g>
</g>
<!-- Node12 -->
<g id="Node000012" class="node">
<title>Node12</title>
<g id="a_Node000012"><a xlink:title=" ">
<polygon fill="#e0e0e0" stroke="#999999" points="1168,-74 968,-74 968,-55 1168,-55 1168,-74"/>
<text text-anchor="middle" x="1068" y="-62" font-family="Malgun Gothic" font-size="10.00">Components/StaticMeshComponent.h</text>
</a>
</g>
</g>
<!-- Node1&#45;&gt;Node12 -->
<g id="edge12_Node000001_Node000012" class="edge">
<title>Node1&#45;&gt;Node12</title>
<g id="a_edge12_Node000001_Node000012"><a xlink:title=" ">
<path fill="none" stroke="#63b8ff" d="M865.71,-109.99C912.81,-99.63 975.99,-85.73 1019.14,-76.25"/>
<polygon fill="#63b8ff" stroke="#63b8ff" points="1020.09,-79.62 1029.11,-74.05 1018.59,-72.78 1020.09,-79.62"/>
</a>
</g>
</g>
<!-- Node13 -->
<g id="Node000013" class="node">
<title>Node13</title>
<g id="a_Node000013"><a xlink:title=" ">
<polygon fill="#e0e0e0" stroke="#999999" points="1324,-74 1186,-74 1186,-55 1324,-55 1324,-74"/>
<text text-anchor="middle" x="1255" y="-62" font-family="Malgun Gothic" font-size="10.00">GameFramework/Pawn.h</text>
</a>
</g>
</g>
<!-- Node1&#45;&gt;Node13 -->
<g id="edge13_Node000001_Node000013" class="edge">
<title>Node1&#45;&gt;Node13</title>
<g id="a_edge13_Node000001_Node000013"><a xlink:title=" ">
<path fill="none" stroke="#63b8ff" d="M874.53,-114.63C957.88,-103.87 1094.03,-86.29 1178.87,-75.33"/>
<polygon fill="#63b8ff" stroke="#63b8ff" points="1179.48,-78.78 1188.95,-74.03 1178.58,-71.84 1179.48,-78.78"/>
</a>
</g>
</g>
<!-- Node14 -->
<g id="Node000014" class="node">
<title>Node14</title>
<g id="a_Node000014"><a xlink:href="YiSan_8h.html" target="_top" xlink:title=" ">
<polygon fill="white" stroke="#666666" points="691.5,-74 608.5,-74 608.5,-55 691.5,-55 691.5,-74"/>
<text text-anchor="middle" x="650" y="-62" font-family="Malgun Gothic" font-size="10.00">YiSan/YiSan.h</text>
</a>
</g>
</g>
<!-- Node1&#45;&gt;Node14 -->
<g id="edge14_Node000001_Node000014" class="edge">
<title>Node1&#45;&gt;Node14</title>
<g id="a_edge14_Node000001_Node000014"><a xlink:title=" ">
<path fill="none" stroke="#63b8ff" d="M765.59,-109.99C740.12,-100.18 706.41,-87.21 681.97,-77.81"/>
<polygon fill="#63b8ff" stroke="#63b8ff" points="683.04,-74.46 672.45,-74.14 680.52,-81 683.04,-74.46"/>
</a>
</g>
</g>
<!-- Node3 -->
<g id="Node000003" class="node">
<title>Node3</title>
<g id="a_Node000003"><a xlink:title=" ">
<polygon fill="#e0e0e0" stroke="#999999" points="694,-19 606,-19 606,0 694,0 694,-19"/>
<text text-anchor="middle" x="650" y="-7" font-family="Malgun Gothic" font-size="10.00">CoreMinimal.h</text>
</a>
</g>
</g>
<!-- Node2&#45;&gt;Node3 -->
<g id="edge2_Node000002_Node000003" class="edge">
<title>Node2&#45;&gt;Node3</title>
<g id="a_edge2_Node000002_Node000003"><a xlink:title=" ">
<path fill="none" stroke="#63b8ff" d="M723.86,-54.98C710.21,-46.77 689.31,-34.18 673.22,-24.49"/>
<polygon fill="#63b8ff" stroke="#63b8ff" points="674.77,-21.33 664.4,-19.17 671.16,-27.33 674.77,-21.33"/>
</a>
</g>
</g>
<!-- Node4 -->
<g id="Node000004" class="node">
<title>Node4</title>
<g id="a_Node000004"><a xlink:title=" ">
<polygon fill="#e0e0e0" stroke="#999999" points="849.5,-19 712.5,-19 712.5,0 849.5,0 849.5,-19"/>
<text text-anchor="middle" x="781" y="-7" font-family="Malgun Gothic" font-size="10.00">GameFramework/Actor.h</text>
</a>
</g>
</g>
<!-- Node2&#45;&gt;Node4 -->
<g id="edge3_Node000002_Node000004" class="edge">
<title>Node2&#45;&gt;Node4</title>
<g id="a_edge3_Node000002_Node000004"><a xlink:title=" ">
<path fill="none" stroke="#63b8ff" d="M745.1,-54.75C751.17,-47.26 760.09,-36.28 767.51,-27.13"/>
<polygon fill="#63b8ff" stroke="#63b8ff" points="770.45,-29.06 774.03,-19.09 765.01,-24.65 770.45,-29.06"/>
</a>
</g>
</g>
<!-- Node5 -->
<g id="Node000005" class="node">
<title>Node5</title>
<g id="a_Node000005"><a xlink:title=" ">
<polygon fill="#e0e0e0" stroke="#999999" points="976,-19 868,-19 868,0 976,0 976,-19"/>
<text text-anchor="middle" x="922" y="-7" font-family="Malgun Gothic" font-size="10.00">AGate.generated.h</text>
</a>
</g>
</g>
<!-- Node2&#45;&gt;Node5 -->
<g id="edge4_Node000002_Node000005" class="edge">
<title>Node2&#45;&gt;Node5</title>
<g id="a_edge4_Node000002_Node000005"><a xlink:title=" ">
<path fill="none" stroke="#63b8ff" d="M766.35,-55.33C797.45,-46.38 847.59,-31.93 882.53,-21.87"/>
<polygon fill="#63b8ff" stroke="#63b8ff" points="883.76,-25.16 892.4,-19.03 881.82,-18.43 883.76,-25.16"/>
</a>
</g>
</g>
<!-- Node6&#45;&gt;Node3 -->
<g id="edge6_Node000006_Node000003" class="edge">
<title>Node6&#45;&gt;Node3</title>
<g id="a_edge6_Node000006_Node000003"><a xlink:title=" ">
<path fill="none" stroke="#63b8ff" d="M439.33,-54.98C482.84,-45.8 552.2,-31.15 599.35,-21.19"/>
<polygon fill="#63b8ff" stroke="#63b8ff" points="600.3,-24.57 609.36,-19.08 598.85,-17.72 600.3,-24.57"/>
</a>
</g>
</g>
<!-- Node7 -->
<g id="Node000007" class="node">
<title>Node7</title>
<g id="a_Node000007"><a xlink:href="Macro_8h.html" target="_top" xlink:title="Manager 모듈에서 공통으로 사용하는 매크로 정의에 대한 Doxygen 주석을 제공합니다.">
<polygon fill="white" stroke="#666666" points="56,-19 0,-19 0,0 56,0 56,-19"/>
<text text-anchor="middle" x="28" y="-7" font-family="Malgun Gothic" font-size="10.00">Macro.h</text>
</a>
</g>
</g>
<!-- Node6&#45;&gt;Node7 -->
<g id="edge7_Node000006_Node000007" class="edge">
<title>Node6&#45;&gt;Node7</title>
<g id="a_edge7_Node000006_Node000007"><a xlink:title=" ">
<path fill="none" stroke="#63b8ff" d="M339.91,-57.32C275.12,-50.16 167.89,-37.2 66.35,-19.1"/>
<polygon fill="#63b8ff" stroke="#63b8ff" points="66.69,-15.6 56.23,-17.27 65.45,-22.49 66.69,-15.6"/>
</a>
</g>
</g>
<!-- Node8 -->
<g id="Node000008" class="node">
<title>Node8</title>
<g id="a_Node000008"><a xlink:href="EDamageType_8h.html" target="_top" xlink:title="EDamageType 열거형에 대한 Doxygen 주석을 제공합니다.">
<polygon fill="white" stroke="#666666" points="169.5,-19 74.5,-19 74.5,0 169.5,0 169.5,-19"/>
<text text-anchor="middle" x="122" y="-7" font-family="Malgun Gothic" font-size="10.00">EDamageType.h</text>
</a>
</g>
</g>
<!-- Node6&#45;&gt;Node8 -->
<g id="edge8_Node000006_Node000008" class="edge">
<title>Node6&#45;&gt;Node8</title>
<g id="a_edge8_Node000006_Node000008"><a xlink:title=" ">
<path fill="none" stroke="#63b8ff" d="M354.5,-54.98C306.18,-45.74 228.96,-30.97 176.91,-21.01"/>
<polygon fill="#63b8ff" stroke="#63b8ff" points="177.33,-17.52 166.85,-19.08 176.02,-24.4 177.33,-17.52"/>
</a>
</g>
</g>
<!-- Node9 -->
<g id="Node000009" class="node">
<title>Node9</title>
<g id="a_Node000009"><a xlink:title=" ">
<polygon fill="#e0e0e0" stroke="#999999" points="400,-19 188,-19 188,0 400,0 400,-19"/>
<text text-anchor="middle" x="294" y="-7" font-family="Malgun Gothic" font-size="10.00">Subsystems/GameInstanceSubsystem.h</text>
</a>
</g>
</g>
<!-- Node6&#45;&gt;Node9 -->
<g id="edge9_Node000006_Node000009" class="edge">
<title>Node6&#45;&gt;Node9</title>
<g id="a_edge9_Node000006_Node000009"><a xlink:title=" ">
<path fill="none" stroke="#63b8ff" d="M382.13,-54.98C365.39,-46.54 339.5,-33.47 320.11,-23.68"/>
<polygon fill="#63b8ff" stroke="#63b8ff" points="321.68,-20.55 311.18,-19.17 318.53,-26.8 321.68,-20.55"/>
</a>
</g>
</g>
<!-- Node10 -->
<g id="Node000010" class="node">
<title>Node10</title>
<g id="a_Node000010"><a xlink:title=" ">
<polygon fill="#e0e0e0" stroke="#999999" points="588,-19 418,-19 418,0 588,0 588,-19"/>
<text text-anchor="middle" x="503" y="-7" font-family="Malgun Gothic" font-size="10.00">UBroadcastManger.generated.h</text>
</a>
</g>
</g>
<!-- Node6&#45;&gt;Node10 -->
<g id="edge10_Node000006_Node000010" class="edge">
<title>Node6&#45;&gt;Node10</title>
<g id="a_edge10_Node000006_Node000010"><a xlink:title=" ">
<path fill="none" stroke="#63b8ff" d="M415.71,-54.98C432.21,-46.57 457.7,-33.59 476.88,-23.81"/>
<polygon fill="#63b8ff" stroke="#63b8ff" points="478.67,-26.83 485.99,-19.17 475.49,-20.59 478.67,-26.83"/>
</a>
</g>
</g>
<!-- Node14&#45;&gt;Node3 -->
<g id="edge15_Node000014_Node000003" class="edge">
<title>Node14&#45;&gt;Node3</title>
<g id="a_edge15_Node000014_Node000003"><a xlink:title=" ">
<path fill="none" stroke="#63b8ff" d="M650,-54.75C650,-47.8 650,-37.85 650,-29.13"/>
<polygon fill="#63b8ff" stroke="#63b8ff" points="653.5,-29.09 650,-19.09 646.5,-29.09 653.5,-29.09"/>
</a>
</g>
</g>
</g>
</svg>
