<?xml version="1.0" encoding="UTF-8" standalone="no"?>
<!DOCTYPE svg PUBLIC "-//W3C//DTD SVG 1.1//EN"
 "http://www.w3.org/Graphics/SVG/1.1/DTD/svg11.dtd">
<!-- Generated by graphviz version 2.43.0 (0)
 -->
<!-- Title: Source/LatteLibrary/Character/Public/ALatteGameCharacter.h Pages: 1 -->
<svg width="742pt" height="159pt"
 viewBox="0.00 0.00 741.50 159.00" xmlns="http://www.w3.org/2000/svg" xmlns:xlink="http://www.w3.org/1999/xlink">
<g id="graph0" class="graph" transform="scale(1 1) rotate(0) translate(4 155)">
<title>Source/LatteLibrary/Character/Public/ALatteGameCharacter.h</title>
<!-- Node1 -->
<g id="Node000001" class="node">
<title>Node1</title>
<g id="a_Node000001"><a xlink:title=" ">
<polygon fill="#999999" stroke="#666666" points="345.5,-151 182.5,-151 182.5,-110 345.5,-110 345.5,-151"/>
<text text-anchor="start" x="190.5" y="-139" font-family="Malgun Gothic" font-size="10.00">Source/LatteLibrary</text>
<text text-anchor="start" x="190.5" y="-128" font-family="Malgun Gothic" font-size="10.00">/Character/Public/ALatteGame</text>
<text text-anchor="middle" x="264" y="-117" font-family="Malgun Gothic" font-size="10.00">Character.h</text>
</a>
</g>
</g>
<!-- Node2 -->
<g id="Node000002" class="node">
<title>Node2</title>
<g id="a_Node000002"><a xlink:title=" ">
<polygon fill="#e0e0e0" stroke="#999999" points="88,-19 0,-19 0,0 88,0 88,-19"/>
<text text-anchor="middle" x="44" y="-7" font-family="Malgun Gothic" font-size="10.00">CoreMinimal.h</text>
</a>
</g>
</g>
<!-- Node1&#45;&gt;Node2 -->
<g id="edge1_Node000001_Node000002" class="edge">
<title>Node1&#45;&gt;Node2</title>
<g id="a_edge1_Node000001_Node000002"><a xlink:title=" ">
<path fill="none" stroke="#63b8ff" d="M209.7,-109.89C185.34,-100.29 156.6,-87.81 132,-74 106.54,-59.71 79.65,-39.45 62.4,-25.68"/>
<polygon fill="#63b8ff" stroke="#63b8ff" points="64.29,-22.71 54.31,-19.14 59.89,-28.15 64.29,-22.71"/>
</a>
</g>
</g>
<!-- Node3 -->
<g id="Node000003" class="node">
<title>Node3</title>
<g id="a_Node000003"><a xlink:title=" ">
<polygon fill="#e0e0e0" stroke="#999999" points="414.5,-74 255.5,-74 255.5,-55 414.5,-55 414.5,-74"/>
<text text-anchor="middle" x="335" y="-62" font-family="Malgun Gothic" font-size="10.00">GameFramework/Character.h</text>
</a>
</g>
</g>
<!-- Node1&#45;&gt;Node3 -->
<g id="edge2_Node000001_Node000003" class="edge">
<title>Node1&#45;&gt;Node3</title>
<g id="a_edge2_Node000001_Node000003"><a xlink:title=" ">
<path fill="none" stroke="#63b8ff" d="M285.69,-109.95C296.01,-100.65 308.18,-89.68 317.85,-80.96"/>
<polygon fill="#63b8ff" stroke="#63b8ff" points="320.2,-83.56 325.28,-74.26 315.51,-78.36 320.2,-83.56"/>
</a>
</g>
</g>
<!-- Node4 -->
<g id="Node000004" class="node">
<title>Node4</title>
<g id="a_Node000004"><a xlink:href="EBodyPartType_8h.html" target="_top" xlink:title="EBodyPartType 열거형에 대한 Doxygen 주석을 제공합니다.">
<polygon fill="white" stroke="#666666" points="530,-74 432,-74 432,-55 530,-55 530,-74"/>
<text text-anchor="middle" x="481" y="-62" font-family="Malgun Gothic" font-size="10.00">EBodyPartType.h</text>
</a>
</g>
</g>
<!-- Node1&#45;&gt;Node4 -->
<g id="edge3_Node000001_Node000004" class="edge">
<title>Node1&#45;&gt;Node4</title>
<g id="a_edge3_Node000001_Node000004"><a xlink:title=" ">
<path fill="none" stroke="#63b8ff" d="M330.29,-109.95C366.9,-99.15 411.12,-86.11 442.16,-76.95"/>
<polygon fill="#63b8ff" stroke="#63b8ff" points="443.55,-80.19 452.15,-74.01 441.57,-73.48 443.55,-80.19"/>
</a>
</g>
</g>
<!-- Node5 -->
<g id="Node000005" class="node">
<title>Node5</title>
<g id="a_Node000005"><a xlink:href="ECharacterType_8h.html" target="_top" xlink:title="ECharacterType 열거형에 대한 Doxygen 주석을 제공합니다.">
<polygon fill="white" stroke="#666666" points="207.5,-19 106.5,-19 106.5,0 207.5,0 207.5,-19"/>
<text text-anchor="middle" x="157" y="-7" font-family="Malgun Gothic" font-size="10.00">ECharacterType.h</text>
</a>
</g>
</g>
<!-- Node1&#45;&gt;Node5 -->
<g id="edge4_Node000001_Node000005" class="edge">
<title>Node1&#45;&gt;Node5</title>
<g id="a_edge4_Node000001_Node000005"><a xlink:title=" ">
<path fill="none" stroke="#63b8ff" d="M184.59,-109.93C167.02,-101.76 150.52,-90.23 140,-74 131.01,-60.13 137.64,-41.63 145.08,-28.17"/>
<polygon fill="#63b8ff" stroke="#63b8ff" points="148.21,-29.77 150.44,-19.41 142.24,-26.12 148.21,-29.77"/>
</a>
</g>
</g>
<!-- Node6 -->
<g id="Node000006" class="node">
<title>Node6</title>
<g id="a_Node000006"><a xlink:href="UStatSystem_8h.html" target="_top" xlink:title="UStatSystem 선언에 대한 Doxygen 주석을 제공합니다.">
<polygon fill="white" stroke="#666666" points="237.5,-74 148.5,-74 148.5,-55 237.5,-55 237.5,-74"/>
<text text-anchor="middle" x="193" y="-62" font-family="Malgun Gothic" font-size="10.00">UStatSystem.h</text>
</a>
</g>
</g>
<!-- Node1&#45;&gt;Node6 -->
<g id="edge5_Node000001_Node000006" class="edge">
<title>Node1&#45;&gt;Node6</title>
<g id="a_edge5_Node000001_Node000006"><a xlink:title=" ">
<path fill="none" stroke="#63b8ff" d="M242.31,-109.95C231.99,-100.65 219.82,-89.68 210.15,-80.96"/>
<polygon fill="#63b8ff" stroke="#63b8ff" points="212.49,-78.36 202.72,-74.26 207.8,-83.56 212.49,-78.36"/>
</a>
</g>
</g>
<!-- Node9 -->
<g id="Node000009" class="node">
<title>Node9</title>
<g id="a_Node000009"><a xlink:title=" ">
<polygon fill="#e0e0e0" stroke="#999999" points="733.5,-74 548.5,-74 548.5,-55 733.5,-55 733.5,-74"/>
<text text-anchor="middle" x="641" y="-62" font-family="Malgun Gothic" font-size="10.00">ALatteGameCharacter.generated.h</text>
</a>
</g>
</g>
<!-- Node1&#45;&gt;Node9 -->
<g id="edge10_Node000001_Node000009" class="edge">
<title>Node1&#45;&gt;Node9</title>
<g id="a_edge10_Node000001_Node000009"><a xlink:title=" ">
<path fill="none" stroke="#63b8ff" d="M345.8,-115.61C416.62,-103.59 517.39,-86.48 580.97,-75.69"/>
<polygon fill="#63b8ff" stroke="#63b8ff" points="581.57,-79.14 590.84,-74.01 580.4,-72.24 581.57,-79.14"/>
</a>
</g>
</g>
<!-- Node6&#45;&gt;Node2 -->
<g id="edge6_Node000006_Node000002" class="edge">
<title>Node6&#45;&gt;Node2</title>
<g id="a_edge6_Node000006_Node000002"><a xlink:title=" ">
<path fill="none" stroke="#63b8ff" d="M169.06,-54.98C144.44,-46.23 105.88,-32.51 78.08,-22.62"/>
<polygon fill="#63b8ff" stroke="#63b8ff" points="78.97,-19.22 68.38,-19.17 76.62,-25.82 78.97,-19.22"/>
</a>
</g>
</g>
<!-- Node6&#45;&gt;Node5 -->
<g id="edge7_Node000006_Node000005" class="edge">
<title>Node6&#45;&gt;Node5</title>
<g id="a_edge7_Node000006_Node000005"><a xlink:title=" ">
<path fill="none" stroke="#63b8ff" d="M187.06,-54.75C182.02,-47.34 174.66,-36.5 168.49,-27.41"/>
<polygon fill="#63b8ff" stroke="#63b8ff" points="171.35,-25.39 162.83,-19.09 165.56,-29.33 171.35,-25.39"/>
</a>
</g>
</g>
<!-- Node7 -->
<g id="Node000007" class="node">
<title>Node7</title>
<g id="a_Node000007"><a xlink:title=" ">
<polygon fill="#e0e0e0" stroke="#999999" points="398,-19 226,-19 226,0 398,0 398,-19"/>
<text text-anchor="middle" x="312" y="-7" font-family="Malgun Gothic" font-size="10.00">Components/ActorComponent.h</text>
</a>
</g>
</g>
<!-- Node6&#45;&gt;Node7 -->
<g id="edge8_Node000006_Node000007" class="edge">
<title>Node6&#45;&gt;Node7</title>
<g id="a_edge8_Node000006_Node000007"><a xlink:title=" ">
<path fill="none" stroke="#63b8ff" d="M212.12,-54.98C231.35,-46.42 261.23,-33.11 283.31,-23.28"/>
<polygon fill="#63b8ff" stroke="#63b8ff" points="284.82,-26.44 292.53,-19.17 281.97,-20.04 284.82,-26.44"/>
</a>
</g>
</g>
<!-- Node8 -->
<g id="Node000008" class="node">
<title>Node8</title>
<g id="a_Node000008"><a xlink:title=" ">
<polygon fill="#e0e0e0" stroke="#999999" points="558,-19 416,-19 416,0 558,0 558,-19"/>
<text text-anchor="middle" x="487" y="-7" font-family="Malgun Gothic" font-size="10.00">UStatSystem.generated.h</text>
</a>
</g>
</g>
<!-- Node6&#45;&gt;Node8 -->
<g id="edge9_Node000006_Node000008" class="edge">
<title>Node6&#45;&gt;Node8</title>
<g id="a_edge9_Node000006_Node000008"><a xlink:title=" ">
<path fill="none" stroke="#63b8ff" d="M237.65,-55.45C288.92,-46.21 373.15,-31.02 429.34,-20.9"/>
<polygon fill="#63b8ff" stroke="#63b8ff" points="430.27,-24.28 439.49,-19.07 429.02,-17.4 430.27,-24.28"/>
</a>
</g>
</g>
</g>
</svg>
