<?xml version="1.0" encoding="UTF-8" standalone="no"?>
<!DOCTYPE svg PUBLIC "-//W3C//DTD SVG 1.1//EN"
 "http://www.w3.org/Graphics/SVG/1.1/DTD/svg11.dtd">
<!-- Generated by graphviz version 2.43.0 (0)
 -->
<!-- Title: Source/LatteLibrary/Character/Public/ALattePlayerCharacter.h Pages: 1 -->
<svg width="1065pt" height="214pt"
 viewBox="0.00 0.00 1064.50 214.00" xmlns="http://www.w3.org/2000/svg" xmlns:xlink="http://www.w3.org/1999/xlink">
<g id="graph0" class="graph" transform="scale(1 1) rotate(0) translate(4 210)">
<title>Source/LatteLibrary/Character/Public/ALattePlayerCharacter.h</title>
<!-- Node1 -->
<g id="Node000001" class="node">
<title>Node1</title>
<g id="a_Node000001"><a xlink:title=" ">
<polygon fill="#999999" stroke="#666666" points="838.5,-206 674.5,-206 674.5,-165 838.5,-165 838.5,-206"/>
<text text-anchor="start" x="682.5" y="-194" font-family="Malgun Gothic" font-size="10.00">Source/LatteLibrary</text>
<text text-anchor="start" x="682.5" y="-183" font-family="Malgun Gothic" font-size="10.00">/Character/Public/ALattePlayer</text>
<text text-anchor="middle" x="756.5" y="-172" font-family="Malgun Gothic" font-size="10.00">Character.h</text>
</a>
</g>
</g>
<!-- Node2 -->
<g id="Node000002" class="node">
<title>Node2</title>
<g id="a_Node000002"><a xlink:title=" ">
<polygon fill="#e0e0e0" stroke="#999999" points="745.5,-19 657.5,-19 657.5,0 745.5,0 745.5,-19"/>
<text text-anchor="middle" x="701.5" y="-7" font-family="Malgun Gothic" font-size="10.00">CoreMinimal.h</text>
</a>
</g>
</g>
<!-- Node1&#45;&gt;Node2 -->
<g id="edge1_Node000001_Node000002" class="edge">
<title>Node1&#45;&gt;Node2</title>
<g id="a_edge1_Node000001_Node000002"><a xlink:title=" ">
<path fill="none" stroke="#63b8ff" d="M750.3,-164.88C739.6,-131.02 717.81,-62.09 707.35,-29.01"/>
<polygon fill="#63b8ff" stroke="#63b8ff" points="710.62,-27.75 704.27,-19.27 703.95,-29.86 710.62,-27.75"/>
</a>
</g>
</g>
<!-- Node3 -->
<g id="Node000003" class="node">
<title>Node3</title>
<g id="a_Node000003"><a xlink:href="ALatteGameCharacter_8h.html" target="_top" xlink:title=" ">
<polygon fill="white" stroke="#666666" points="452,-129 319,-129 319,-110 452,-110 452,-129"/>
<text text-anchor="middle" x="385.5" y="-117" font-family="Malgun Gothic" font-size="10.00">ALatteGameCharacter.h</text>
</a>
</g>
</g>
<!-- Node1&#45;&gt;Node3 -->
<g id="edge2_Node000001_Node000003" class="edge">
<title>Node1&#45;&gt;Node3</title>
<g id="a_edge2_Node000001_Node000003"><a xlink:title=" ">
<path fill="none" stroke="#63b8ff" d="M674.16,-170.3C604.7,-158.31 506.94,-141.45 444.91,-130.75"/>
<polygon fill="#63b8ff" stroke="#63b8ff" points="445.34,-127.27 434.89,-129.02 444.15,-134.17 445.34,-127.27"/>
</a>
</g>
</g>
<!-- Node11 -->
<g id="Node000011" class="node">
<title>Node11</title>
<g id="a_Node000011"><a xlink:href="IControllable_8h.html" target="_top" xlink:title="IControllable 인터페이스 선언에 대한 Doxygen 주석을 제공합니다.">
<polygon fill="white" stroke="#666666" points="836.5,-129 748.5,-129 748.5,-110 836.5,-110 836.5,-129"/>
<text text-anchor="middle" x="792.5" y="-117" font-family="Malgun Gothic" font-size="10.00">IControllable.h</text>
</a>
</g>
</g>
<!-- Node1&#45;&gt;Node11 -->
<g id="edge13_Node000001_Node000011" class="edge">
<title>Node1&#45;&gt;Node11</title>
<g id="a_edge13_Node000001_Node000011"><a xlink:title=" ">
<path fill="none" stroke="#63b8ff" d="M767.5,-164.95C772.31,-156.39 777.92,-146.42 782.6,-138.1"/>
<polygon fill="#63b8ff" stroke="#63b8ff" points="785.72,-139.69 787.57,-129.26 779.62,-136.26 785.72,-139.69"/>
</a>
</g>
</g>
<!-- Node14 -->
<g id="Node000014" class="node">
<title>Node14</title>
<g id="a_Node000014"><a xlink:title=" ">
<polygon fill="#e0e0e0" stroke="#999999" points="1041,-129 854,-129 854,-110 1041,-110 1041,-129"/>
<text text-anchor="middle" x="947.5" y="-117" font-family="Malgun Gothic" font-size="10.00">ALattePlayerCharacter.generated.h</text>
</a>
</g>
</g>
<!-- Node1&#45;&gt;Node14 -->
<g id="edge17_Node000001_Node000014" class="edge">
<title>Node1&#45;&gt;Node14</title>
<g id="a_edge17_Node000001_Node000014"><a xlink:title=" ">
<path fill="none" stroke="#63b8ff" d="M814.84,-164.95C846.79,-154.24 885.32,-141.34 912.6,-132.19"/>
<polygon fill="#63b8ff" stroke="#63b8ff" points="913.74,-135.5 922.11,-129.01 911.52,-128.87 913.74,-135.5"/>
</a>
</g>
</g>
<!-- Node3&#45;&gt;Node2 -->
<g id="edge3_Node000003_Node000002" class="edge">
<title>Node3&#45;&gt;Node2</title>
<g id="a_edge3_Node000003_Node000002"><a xlink:title=" ">
<path fill="none" stroke="#63b8ff" d="M452.28,-114.27C523.31,-108.67 629.96,-96.71 663.5,-74 679.42,-63.22 689.72,-43.34 695.52,-28.68"/>
<polygon fill="#63b8ff" stroke="#63b8ff" points="698.86,-29.74 698.97,-19.14 692.28,-27.36 698.86,-29.74"/>
</a>
</g>
</g>
<!-- Node4 -->
<g id="Node000004" class="node">
<title>Node4</title>
<g id="a_Node000004"><a xlink:title=" ">
<polygon fill="#e0e0e0" stroke="#999999" points="655,-74 496,-74 496,-55 655,-55 655,-74"/>
<text text-anchor="middle" x="575.5" y="-62" font-family="Malgun Gothic" font-size="10.00">GameFramework/Character.h</text>
</a>
</g>
</g>
<!-- Node3&#45;&gt;Node4 -->
<g id="edge4_Node000003_Node000004" class="edge">
<title>Node3&#45;&gt;Node4</title>
<g id="a_edge4_Node000003_Node000004"><a xlink:title=" ">
<path fill="none" stroke="#63b8ff" d="M416.03,-109.98C448.2,-101.01 499.06,-86.82 534.67,-76.89"/>
<polygon fill="#63b8ff" stroke="#63b8ff" points="536.04,-80.14 544.73,-74.08 534.16,-73.4 536.04,-80.14"/>
</a>
</g>
</g>
<!-- Node5 -->
<g id="Node000005" class="node">
<title>Node5</title>
<g id="a_Node000005"><a xlink:href="EBodyPartType_8h.html" target="_top" xlink:title="EBodyPartType 열거형에 대한 Doxygen 주석을 제공합니다.">
<polygon fill="white" stroke="#666666" points="167.5,-74 69.5,-74 69.5,-55 167.5,-55 167.5,-74"/>
<text text-anchor="middle" x="118.5" y="-62" font-family="Malgun Gothic" font-size="10.00">EBodyPartType.h</text>
</a>
</g>
</g>
<!-- Node3&#45;&gt;Node5 -->
<g id="edge5_Node000003_Node000005" class="edge">
<title>Node3&#45;&gt;Node5</title>
<g id="a_edge5_Node000003_Node000005"><a xlink:title=" ">
<path fill="none" stroke="#63b8ff" d="M342.6,-109.98C296.13,-100.76 221.91,-86.03 171.74,-76.07"/>
<polygon fill="#63b8ff" stroke="#63b8ff" points="172.22,-72.6 161.73,-74.08 170.86,-79.46 172.22,-72.6"/>
</a>
</g>
</g>
<!-- Node6 -->
<g id="Node000006" class="node">
<title>Node6</title>
<g id="a_Node000006"><a xlink:href="ECharacterType_8h.html" target="_top" xlink:title="ECharacterType 열거형에 대한 Doxygen 주석을 제공합니다.">
<polygon fill="white" stroke="#666666" points="101,-19 0,-19 0,0 101,0 101,-19"/>
<text text-anchor="middle" x="50.5" y="-7" font-family="Malgun Gothic" font-size="10.00">ECharacterType.h</text>
</a>
</g>
</g>
<!-- Node3&#45;&gt;Node6 -->
<g id="edge6_Node000003_Node000006" class="edge">
<title>Node3&#45;&gt;Node6</title>
<g id="a_edge6_Node000003_Node000006"><a xlink:title=" ">
<path fill="none" stroke="#63b8ff" d="M318.81,-118.42C234.5,-116.84 96.04,-108.83 60.5,-74 48.93,-62.66 47.27,-43.76 47.99,-29.52"/>
<polygon fill="#63b8ff" stroke="#63b8ff" points="51.5,-29.62 48.95,-19.33 44.53,-28.96 51.5,-29.62"/>
</a>
</g>
</g>
<!-- Node7 -->
<g id="Node000007" class="node">
<title>Node7</title>
<g id="a_Node000007"><a xlink:href="UStatSystem_8h.html" target="_top" xlink:title="UStatSystem 선언에 대한 Doxygen 주석을 제공합니다.">
<polygon fill="white" stroke="#666666" points="275,-74 186,-74 186,-55 275,-55 275,-74"/>
<text text-anchor="middle" x="230.5" y="-62" font-family="Malgun Gothic" font-size="10.00">UStatSystem.h</text>
</a>
</g>
</g>
<!-- Node3&#45;&gt;Node7 -->
<g id="edge7_Node000003_Node000007" class="edge">
<title>Node3&#45;&gt;Node7</title>
<g id="a_edge7_Node000003_Node000007"><a xlink:title=" ">
<path fill="none" stroke="#63b8ff" d="M360.6,-109.98C334.8,-101.16 294.28,-87.31 265.32,-77.41"/>
<polygon fill="#63b8ff" stroke="#63b8ff" points="266.19,-74.01 255.6,-74.08 263.93,-80.63 266.19,-74.01"/>
</a>
</g>
</g>
<!-- Node10 -->
<g id="Node000010" class="node">
<title>Node10</title>
<g id="a_Node000010"><a xlink:title=" ">
<polygon fill="#e0e0e0" stroke="#999999" points="478,-74 293,-74 293,-55 478,-55 478,-74"/>
<text text-anchor="middle" x="385.5" y="-62" font-family="Malgun Gothic" font-size="10.00">ALatteGameCharacter.generated.h</text>
</a>
</g>
</g>
<!-- Node3&#45;&gt;Node10 -->
<g id="edge12_Node000003_Node000010" class="edge">
<title>Node3&#45;&gt;Node10</title>
<g id="a_edge12_Node000003_Node000010"><a xlink:title=" ">
<path fill="none" stroke="#63b8ff" d="M385.5,-109.75C385.5,-102.8 385.5,-92.85 385.5,-84.13"/>
<polygon fill="#63b8ff" stroke="#63b8ff" points="389,-84.09 385.5,-74.09 382,-84.09 389,-84.09"/>
</a>
</g>
</g>
<!-- Node7&#45;&gt;Node2 -->
<g id="edge8_Node000007_Node000002" class="edge">
<title>Node7&#45;&gt;Node2</title>
<g id="a_edge8_Node000007_Node000002"><a xlink:title=" ">
<path fill="none" stroke="#63b8ff" d="M275.01,-56.19C277.88,-55.77 280.73,-55.37 283.5,-55 413.65,-37.65 567.33,-22.71 647.18,-15.36"/>
<polygon fill="#63b8ff" stroke="#63b8ff" points="647.84,-18.81 657.48,-14.41 647.2,-11.84 647.84,-18.81"/>
</a>
</g>
</g>
<!-- Node7&#45;&gt;Node6 -->
<g id="edge9_Node000007_Node000006" class="edge">
<title>Node7&#45;&gt;Node6</title>
<g id="a_edge9_Node000007_Node000006"><a xlink:title=" ">
<path fill="none" stroke="#63b8ff" d="M201.58,-54.98C171.23,-46.05 123.33,-31.94 89.62,-22.02"/>
<polygon fill="#63b8ff" stroke="#63b8ff" points="90.23,-18.55 79.65,-19.08 88.25,-25.26 90.23,-18.55"/>
</a>
</g>
</g>
<!-- Node8 -->
<g id="Node000008" class="node">
<title>Node8</title>
<g id="a_Node000008"><a xlink:title=" ">
<polygon fill="#e0e0e0" stroke="#999999" points="299.5,-19 127.5,-19 127.5,0 299.5,0 299.5,-19"/>
<text text-anchor="middle" x="213.5" y="-7" font-family="Malgun Gothic" font-size="10.00">Components/ActorComponent.h</text>
</a>
</g>
</g>
<!-- Node7&#45;&gt;Node8 -->
<g id="edge10_Node000007_Node000008" class="edge">
<title>Node7&#45;&gt;Node8</title>
<g id="a_edge10_Node000007_Node000008"><a xlink:title=" ">
<path fill="none" stroke="#63b8ff" d="M227.69,-54.75C225.44,-47.72 222.2,-37.62 219.38,-28.84"/>
<polygon fill="#63b8ff" stroke="#63b8ff" points="222.64,-27.54 216.25,-19.09 215.98,-29.68 222.64,-27.54"/>
</a>
</g>
</g>
<!-- Node9 -->
<g id="Node000009" class="node">
<title>Node9</title>
<g id="a_Node000009"><a xlink:title=" ">
<polygon fill="#e0e0e0" stroke="#999999" points="459.5,-19 317.5,-19 317.5,0 459.5,0 459.5,-19"/>
<text text-anchor="middle" x="388.5" y="-7" font-family="Malgun Gothic" font-size="10.00">UStatSystem.generated.h</text>
</a>
</g>
</g>
<!-- Node7&#45;&gt;Node9 -->
<g id="edge11_Node000007_Node000009" class="edge">
<title>Node7&#45;&gt;Node9</title>
<g id="a_edge11_Node000007_Node000009"><a xlink:title=" ">
<path fill="none" stroke="#63b8ff" d="M255.89,-54.98C282.3,-46.13 323.85,-32.19 353.39,-22.28"/>
<polygon fill="#63b8ff" stroke="#63b8ff" points="354.55,-25.58 362.92,-19.08 352.32,-18.94 354.55,-25.58"/>
</a>
</g>
</g>
<!-- Node11&#45;&gt;Node2 -->
<g id="edge14_Node000011_Node000002" class="edge">
<title>Node11&#45;&gt;Node2</title>
<g id="a_edge14_Node000011_Node000002"><a xlink:title=" ">
<path fill="none" stroke="#63b8ff" d="M785.05,-109.66C769.85,-91.61 735.02,-50.28 715.47,-27.08"/>
<polygon fill="#63b8ff" stroke="#63b8ff" points="717.92,-24.55 708.8,-19.16 712.56,-29.06 717.92,-24.55"/>
</a>
</g>
</g>
<!-- Node12 -->
<g id="Node000012" class="node">
<title>Node12</title>
<g id="a_Node000012"><a xlink:title=" ">
<polygon fill="#e0e0e0" stroke="#999999" points="898,-74 787,-74 787,-55 898,-55 898,-74"/>
<text text-anchor="middle" x="842.5" y="-62" font-family="Malgun Gothic" font-size="10.00">UObject/Interface.h</text>
</a>
</g>
</g>
<!-- Node11&#45;&gt;Node12 -->
<g id="edge15_Node000011_Node000012" class="edge">
<title>Node11&#45;&gt;Node12</title>
<g id="a_edge15_Node000011_Node000012"><a xlink:title=" ">
<path fill="none" stroke="#63b8ff" d="M800.76,-109.75C807.96,-102.11 818.61,-90.82 827.35,-81.56"/>
<polygon fill="#63b8ff" stroke="#63b8ff" points="830.08,-83.76 834.4,-74.09 824.99,-78.96 830.08,-83.76"/>
</a>
</g>
</g>
<!-- Node13 -->
<g id="Node000013" class="node">
<title>Node13</title>
<g id="a_Node000013"><a xlink:title=" ">
<polygon fill="#e0e0e0" stroke="#999999" points="1056.5,-74 916.5,-74 916.5,-55 1056.5,-55 1056.5,-74"/>
<text text-anchor="middle" x="986.5" y="-62" font-family="Malgun Gothic" font-size="10.00">IControllable.generated.h</text>
</a>
</g>
</g>
<!-- Node11&#45;&gt;Node13 -->
<g id="edge16_Node000011_Node000013" class="edge">
<title>Node11&#45;&gt;Node13</title>
<g id="a_edge16_Node000011_Node000013"><a xlink:title=" ">
<path fill="none" stroke="#63b8ff" d="M823.67,-109.98C856.66,-100.97 908.9,-86.7 945.27,-76.76"/>
<polygon fill="#63b8ff" stroke="#63b8ff" points="946.36,-80.09 955.09,-74.08 944.52,-73.34 946.36,-80.09"/>
</a>
</g>
</g>
</g>
</svg>
