<?xml version="1.0" encoding="UTF-8" standalone="no"?>
<!DOCTYPE svg PUBLIC "-//W3C//DTD SVG 1.1//EN"
 "http://www.w3.org/Graphics/SVG/1.1/DTD/svg11.dtd">
<!-- Generated by graphviz version 2.43.0 (0)
 -->
<!-- Title: Source/LatteLibrary/Character/Private/ALatteGameCharacter.cpp Pages: 1 -->
<svg width="3240pt" height="225pt"
 viewBox="0.00 0.00 3239.50 225.00" xmlns="http://www.w3.org/2000/svg" xmlns:xlink="http://www.w3.org/1999/xlink">
<g id="graph0" class="graph" transform="scale(1 1) rotate(0) translate(4 221)">
<title>Source/LatteLibrary/Character/Private/ALatteGameCharacter.cpp</title>
<!-- Node1 -->
<g id="Node000001" class="node">
<title>Node1</title>
<g id="a_Node000001"><a xlink:title=" ">
<polygon fill="#999999" stroke="#666666" points="2065.5,-217 1897.5,-217 1897.5,-176 2065.5,-176 2065.5,-217"/>
<text text-anchor="start" x="1905.5" y="-205" font-family="Malgun Gothic" font-size="10.00">Source/LatteLibrary</text>
<text text-anchor="start" x="1905.5" y="-194" font-family="Malgun Gothic" font-size="10.00">/Character/Private/ALatteGame</text>
<text text-anchor="middle" x="1981.5" y="-183" font-family="Malgun Gothic" font-size="10.00">Character.cpp</text>
</a>
</g>
</g>
<!-- Node2 -->
<g id="Node000002" class="node">
<title>Node2</title>
<g id="a_Node000002"><a xlink:href="ALatteGameCharacter_8h.html" target="_top" xlink:title=" ">
<polygon fill="white" stroke="#666666" points="701,-134.5 568,-134.5 568,-115.5 701,-115.5 701,-134.5"/>
<text text-anchor="middle" x="634.5" y="-122.5" font-family="Malgun Gothic" font-size="10.00">ALatteGameCharacter.h</text>
</a>
</g>
</g>
<!-- Node1&#45;&gt;Node2 -->
<g id="edge1_Node000001_Node000002" class="edge">
<title>Node1&#45;&gt;Node2</title>
<g id="a_edge1_Node000001_Node000002"><a xlink:title=" ">
<path fill="none" stroke="#63b8ff" d="M1897.41,-192.17C1706.79,-184.48 1227.27,-164.24 826.5,-140 788.55,-137.7 746.41,-134.68 711.3,-132.04"/>
<polygon fill="#63b8ff" stroke="#63b8ff" points="711.35,-128.53 701.12,-131.26 710.82,-135.51 711.35,-128.53"/>
</a>
</g>
</g>
<!-- Node7 -->
<g id="Node000007" class="node">
<title>Node7</title>
<g id="a_Node000007"><a xlink:href="UStatSystem_8h.html" target="_top" xlink:title="UStatSystem 선언에 대한 Doxygen 주석을 제공합니다.">
<polygon fill="white" stroke="#666666" points="752,-74 663,-74 663,-55 752,-55 752,-74"/>
<text text-anchor="middle" x="707.5" y="-62" font-family="Malgun Gothic" font-size="10.00">UStatSystem.h</text>
</a>
</g>
</g>
<!-- Node1&#45;&gt;Node7 -->
<g id="edge12_Node000001_Node000007" class="edge">
<title>Node1&#45;&gt;Node7</title>
<g id="a_edge12_Node000001_Node000007"><a xlink:title=" ">
<path fill="none" stroke="#63b8ff" d="M1897.12,-193.27C1687.64,-187.35 1147.89,-169.62 970.5,-140 885.98,-125.89 789.85,-94.62 740.54,-77.42"/>
<polygon fill="#63b8ff" stroke="#63b8ff" points="741.63,-74.09 731.03,-74.07 739.3,-80.7 741.63,-74.09"/>
</a>
</g>
</g>
<!-- Node11 -->
<g id="Node000011" class="node">
<title>Node11</title>
<g id="a_Node000011"><a xlink:href="UHitStopSystem_8h.html" target="_top" xlink:title="UHitStopSystem 선언에 대한 Doxygen 주석을 제공합니다.">
<polygon fill="white" stroke="#666666" points="1085.5,-134.5 979.5,-134.5 979.5,-115.5 1085.5,-115.5 1085.5,-134.5"/>
<text text-anchor="middle" x="1032.5" y="-122.5" font-family="Malgun Gothic" font-size="10.00">UHitStopSystem.h</text>
</a>
</g>
</g>
<!-- Node1&#45;&gt;Node11 -->
<g id="edge13_Node000001_Node000011" class="edge">
<title>Node1&#45;&gt;Node11</title>
<g id="a_edge13_Node000001_Node000011"><a xlink:title=" ">
<path fill="none" stroke="#63b8ff" d="M1897.28,-189.33C1709.78,-175.6 1261.39,-142.76 1095.56,-130.62"/>
<polygon fill="#63b8ff" stroke="#63b8ff" points="1095.75,-127.12 1085.52,-129.88 1095.24,-134.1 1095.75,-127.12"/>
</a>
</g>
</g>
<!-- Node17 -->
<g id="Node000017" class="node">
<title>Node17</title>
<g id="a_Node000017"><a xlink:href="UFlySystem_8h.html" target="_top" xlink:title="UFlySystem 선언에 대한 Doxygen 주석을 제공합니다.">
<polygon fill="white" stroke="#666666" points="111,-74 26,-74 26,-55 111,-55 111,-74"/>
<text text-anchor="middle" x="68.5" y="-62" font-family="Malgun Gothic" font-size="10.00">UFlySystem.h</text>
</a>
</g>
</g>
<!-- Node1&#45;&gt;Node17 -->
<g id="edge22_Node000001_Node000017" class="edge">
<title>Node1&#45;&gt;Node17</title>
<g id="a_edge22_Node000001_Node000017"><a xlink:title=" ">
<path fill="none" stroke="#63b8ff" d="M1897.48,-195.45C1677.25,-194.62 1065.25,-187.83 558.5,-140 398.27,-124.88 210.6,-92.08 121.13,-75.51"/>
<polygon fill="#63b8ff" stroke="#63b8ff" points="121.7,-72.06 111.23,-73.67 120.42,-78.94 121.7,-72.06"/>
</a>
</g>
</g>
<!-- Node19 -->
<g id="Node000019" class="node">
<title>Node19</title>
<g id="a_Node000019"><a xlink:href="UKnockbackSystem_8h.html" target="_top" xlink:title="UKnockbackSystem 선언에 대한 Doxygen 주석을 제공합니다.">
<polygon fill="white" stroke="#666666" points="2107,-134.5 1984,-134.5 1984,-115.5 2107,-115.5 2107,-134.5"/>
<text text-anchor="middle" x="2045.5" y="-122.5" font-family="Malgun Gothic" font-size="10.00">UKnockbackSystem.h</text>
</a>
</g>
</g>
<!-- Node1&#45;&gt;Node19 -->
<g id="edge26_Node000001_Node000019" class="edge">
<title>Node1&#45;&gt;Node19</title>
<g id="a_edge26_Node000001_Node000019"><a xlink:title=" ">
<path fill="none" stroke="#63b8ff" d="M1999.67,-175.77C2009.37,-165.24 2021.17,-152.42 2030.37,-142.43"/>
<polygon fill="#63b8ff" stroke="#63b8ff" points="2033.18,-144.55 2037.38,-134.82 2028.03,-139.81 2033.18,-144.55"/>
</a>
</g>
</g>
<!-- Node23 -->
<g id="Node000023" class="node">
<title>Node23</title>
<g id="a_Node000023"><a xlink:href="UCharacterData_8h.html" target="_top" xlink:title="UCharacterData 데이터 자산에 대한 Doxygen 주석을 제공합니다.">
<polygon fill="white" stroke="#666666" points="1836.5,-134.5 1732.5,-134.5 1732.5,-115.5 1836.5,-115.5 1836.5,-134.5"/>
<text text-anchor="middle" x="1784.5" y="-122.5" font-family="Malgun Gothic" font-size="10.00">UCharacterData.h</text>
</a>
</g>
</g>
<!-- Node1&#45;&gt;Node23 -->
<g id="edge35_Node000001_Node000023" class="edge">
<title>Node1&#45;&gt;Node23</title>
<g id="a_edge35_Node000001_Node000023"><a xlink:title=" ">
<path fill="none" stroke="#63b8ff" d="M1926.1,-175.96C1891.34,-163.69 1847.65,-148.28 1818.06,-137.84"/>
<polygon fill="#63b8ff" stroke="#63b8ff" points="1819.2,-134.53 1808.6,-134.5 1816.87,-141.13 1819.2,-134.53"/>
</a>
</g>
</g>
<!-- Node26 -->
<g id="Node000026" class="node">
<title>Node26</title>
<g id="a_Node000026"><a xlink:href="EMontageType_8h.html" target="_top" xlink:title="EMontageType 열거형에 대한 Doxygen 주석을 제공합니다.">
<polygon fill="white" stroke="#666666" points="1966,-134.5 1869,-134.5 1869,-115.5 1966,-115.5 1966,-134.5"/>
<text text-anchor="middle" x="1917.5" y="-122.5" font-family="Malgun Gothic" font-size="10.00">EMontageType.h</text>
</a>
</g>
</g>
<!-- Node1&#45;&gt;Node26 -->
<g id="edge39_Node000001_Node000026" class="edge">
<title>Node1&#45;&gt;Node26</title>
<g id="a_edge39_Node000001_Node000026"><a xlink:title=" ">
<path fill="none" stroke="#63b8ff" d="M1963.33,-175.77C1953.63,-165.24 1941.83,-152.42 1932.63,-142.43"/>
<polygon fill="#63b8ff" stroke="#63b8ff" points="1934.97,-139.81 1925.62,-134.82 1929.82,-144.55 1934.97,-139.81"/>
</a>
</g>
</g>
<!-- Node27 -->
<g id="Node000027" class="node">
<title>Node27</title>
<g id="a_Node000027"><a xlink:href="GameLogging_8h.html" target="_top" xlink:title="GameLogging 선언에 대한 Doxygen 주석을 제공합니다.">
<polygon fill="white" stroke="#666666" points="1427,-134.5 1334,-134.5 1334,-115.5 1427,-115.5 1427,-134.5"/>
<text text-anchor="middle" x="1380.5" y="-122.5" font-family="Malgun Gothic" font-size="10.00">GameLogging.h</text>
</a>
</g>
</g>
<!-- Node1&#45;&gt;Node27 -->
<g id="edge40_Node000001_Node000027" class="edge">
<title>Node1&#45;&gt;Node27</title>
<g id="a_edge40_Node000001_Node000027"><a xlink:title=" ">
<path fill="none" stroke="#63b8ff" d="M1897.3,-185.76C1773.03,-171.39 1543.75,-144.88 1437.42,-132.58"/>
<polygon fill="#63b8ff" stroke="#63b8ff" points="1437.55,-129.07 1427.21,-131.4 1436.74,-136.03 1437.55,-129.07"/>
</a>
</g>
</g>
<!-- Node32 -->
<g id="Node000032" class="node">
<title>Node32</title>
<g id="a_Node000032"><a xlink:href="FCharacterAssetData_8h.html" target="_top" xlink:title="FCharacterAssetData 구조체에 대한 Doxygen 주석을 제공합니다.">
<polygon fill="white" stroke="#666666" points="3205,-74 3076,-74 3076,-55 3205,-55 3205,-74"/>
<text text-anchor="middle" x="3140.5" y="-62" font-family="Malgun Gothic" font-size="10.00">FCharacterAssetData.h</text>
</a>
</g>
</g>
<!-- Node1&#45;&gt;Node32 -->
<g id="edge48_Node000001_Node000032" class="edge">
<title>Node1&#45;&gt;Node32</title>
<g id="a_edge48_Node000001_Node000032"><a xlink:title=" ">
<path fill="none" stroke="#63b8ff" d="M2065.58,-192.89C2135.33,-188.11 2235.8,-175.07 2316.5,-140 2336.56,-131.28 2334.98,-117.56 2355.5,-110 2501.04,-56.35 2893.12,-85.83 3065.89,-73.92"/>
<polygon fill="#63b8ff" stroke="#63b8ff" points="3066.24,-77.4 3075.95,-73.16 3065.71,-70.42 3066.24,-77.4"/>
</a>
</g>
</g>
<!-- Node34 -->
<g id="Node000034" class="node">
<title>Node34</title>
<g id="a_Node000034"><a xlink:href="UGameDataManager_8h.html" target="_top" xlink:title="UGameDataManager 선언에 대한 Doxygen 주석을 제공합니다.">
<polygon fill="white" stroke="#666666" points="2307.5,-134.5 2179.5,-134.5 2179.5,-115.5 2307.5,-115.5 2307.5,-134.5"/>
<text text-anchor="middle" x="2243.5" y="-122.5" font-family="Malgun Gothic" font-size="10.00">UGameDataManager.h</text>
</a>
</g>
</g>
<!-- Node1&#45;&gt;Node34 -->
<g id="edge53_Node000001_Node000034" class="edge">
<title>Node1&#45;&gt;Node34</title>
<g id="a_edge53_Node000001_Node000034"><a xlink:title=" ">
<path fill="none" stroke="#63b8ff" d="M2055.18,-175.96C2102.52,-163.4 2162.3,-147.54 2201.65,-137.1"/>
<polygon fill="#63b8ff" stroke="#63b8ff" points="2202.68,-140.45 2211.44,-134.5 2200.88,-133.68 2202.68,-140.45"/>
</a>
</g>
</g>
<!-- Node40 -->
<g id="Node000040" class="node">
<title>Node40</title>
<g id="a_Node000040"><a xlink:title=" ">
<polygon fill="#e0e0e0" stroke="#999999" points="2539,-134.5 2364,-134.5 2364,-115.5 2539,-115.5 2539,-134.5"/>
<text text-anchor="middle" x="2451.5" y="-122.5" font-family="Malgun Gothic" font-size="10.00">Components/ArrowComponent.h</text>
</a>
</g>
</g>
<!-- Node1&#45;&gt;Node40 -->
<g id="edge66_Node000001_Node000040" class="edge">
<title>Node1&#45;&gt;Node40</title>
<g id="a_edge66_Node000001_Node000040"><a xlink:title=" ">
<path fill="none" stroke="#63b8ff" d="M2065.53,-183.07C2156.49,-169.62 2299.78,-148.44 2383.8,-136.01"/>
<polygon fill="#63b8ff" stroke="#63b8ff" points="2384.37,-139.46 2393.75,-134.54 2383.34,-132.54 2384.37,-139.46"/>
</a>
</g>
</g>
<!-- Node41 -->
<g id="Node000041" class="node">
<title>Node41</title>
<g id="a_Node000041"><a xlink:title=" ">
<polygon fill="#e0e0e0" stroke="#999999" points="2712,-134.5 2557,-134.5 2557,-115.5 2712,-115.5 2712,-134.5"/>
<text text-anchor="middle" x="2634.5" y="-122.5" font-family="Malgun Gothic" font-size="10.00">Kismet/KismetMathLibrary.h</text>
</a>
</g>
</g>
<!-- Node1&#45;&gt;Node41 -->
<g id="edge67_Node000001_Node000041" class="edge">
<title>Node1&#45;&gt;Node41</title>
<g id="a_edge67_Node000001_Node000041"><a xlink:title=" ">
<path fill="none" stroke="#63b8ff" d="M2065.75,-188.94C2176.65,-179.93 2377.6,-162.25 2548.5,-140 2557.22,-138.86 2566.41,-137.52 2575.41,-136.13"/>
<polygon fill="#63b8ff" stroke="#63b8ff" points="2576.13,-139.56 2585.46,-134.54 2575.04,-132.64 2576.13,-139.56"/>
</a>
</g>
</g>
<!-- Node42 -->
<g id="Node000042" class="node">
<title>Node42</title>
<g id="a_Node000042"><a xlink:title=" ">
<polygon fill="#e0e0e0" stroke="#999999" points="2933,-140 2730,-140 2730,-110 2933,-110 2933,-140"/>
<text text-anchor="start" x="2738" y="-128" font-family="Malgun Gothic" font-size="10.00">GameFramework/CharacterMovement</text>
<text text-anchor="middle" x="2831.5" y="-117" font-family="Malgun Gothic" font-size="10.00">Component.h</text>
</a>
</g>
</g>
<!-- Node1&#45;&gt;Node42 -->
<g id="edge68_Node000001_Node000042" class="edge">
<title>Node1&#45;&gt;Node42</title>
<g id="a_edge68_Node000001_Node000042"><a xlink:title=" ">
<path fill="none" stroke="#63b8ff" d="M2065.69,-190.61C2201.25,-182.42 2476.55,-164.48 2719.84,-140.14"/>
<polygon fill="#63b8ff" stroke="#63b8ff" points="2720.33,-143.6 2729.93,-139.12 2719.63,-136.64 2720.33,-143.6"/>
</a>
</g>
</g>
<!-- Node43 -->
<g id="Node000043" class="node">
<title>Node43</title>
<g id="a_Node000043"><a xlink:title=" ">
<polygon fill="#e0e0e0" stroke="#999999" points="3098,-140 2951,-140 2951,-110 3098,-110 3098,-140"/>
<text text-anchor="start" x="2959" y="-128" font-family="Malgun Gothic" font-size="10.00">Materials/MaterialInstance</text>
<text text-anchor="middle" x="3024.5" y="-117" font-family="Malgun Gothic" font-size="10.00">Constant.h</text>
</a>
</g>
</g>
<!-- Node1&#45;&gt;Node43 -->
<g id="edge69_Node000001_Node000043" class="edge">
<title>Node1&#45;&gt;Node43</title>
<g id="a_edge69_Node000001_Node000043"><a xlink:title=" ">
<path fill="none" stroke="#63b8ff" d="M2065.64,-193.79C2231.38,-189.73 2611.84,-177.02 2940.6,-140.14"/>
<polygon fill="#63b8ff" stroke="#63b8ff" points="2941.26,-143.58 2950.8,-138.98 2940.47,-136.63 2941.26,-143.58"/>
</a>
</g>
</g>
<!-- Node3 -->
<g id="Node000003" class="node">
<title>Node3</title>
<g id="a_Node000003"><a xlink:title=" ">
<polygon fill="#e0e0e0" stroke="#999999" points="1639.5,-19 1551.5,-19 1551.5,0 1639.5,0 1639.5,-19"/>
<text text-anchor="middle" x="1595.5" y="-7" font-family="Malgun Gothic" font-size="10.00">CoreMinimal.h</text>
</a>
</g>
</g>
<!-- Node2&#45;&gt;Node3 -->
<g id="edge2_Node000002_Node000003" class="edge">
<title>Node2&#45;&gt;Node3</title>
<g id="a_edge2_Node000002_Node000003"><a xlink:title=" ">
<path fill="none" stroke="#63b8ff" d="M633.95,-115.07C633.56,-99.96 635.26,-69.59 653.5,-55 688.32,-27.15 1346.05,-14.47 1541.3,-11.31"/>
<polygon fill="#63b8ff" stroke="#63b8ff" points="1541.39,-14.81 1551.33,-11.15 1541.28,-7.81 1541.39,-14.81"/>
</a>
</g>
</g>
<!-- Node4 -->
<g id="Node000004" class="node">
<title>Node4</title>
<g id="a_Node000004"><a xlink:title=" ">
<polygon fill="#e0e0e0" stroke="#999999" points="491,-74 332,-74 332,-55 491,-55 491,-74"/>
<text text-anchor="middle" x="411.5" y="-62" font-family="Malgun Gothic" font-size="10.00">GameFramework/Character.h</text>
</a>
</g>
</g>
<!-- Node2&#45;&gt;Node4 -->
<g id="edge3_Node000002_Node000004" class="edge">
<title>Node2&#45;&gt;Node4</title>
<g id="a_edge3_Node000002_Node000004"><a xlink:title=" ">
<path fill="none" stroke="#63b8ff" d="M602.07,-115.49C562.93,-105.23 497.01,-87.93 453.87,-76.62"/>
<polygon fill="#63b8ff" stroke="#63b8ff" points="454.53,-73.17 443.97,-74.02 452.75,-79.94 454.53,-73.17"/>
</a>
</g>
</g>
<!-- Node5 -->
<g id="Node000005" class="node">
<title>Node5</title>
<g id="a_Node000005"><a xlink:href="EBodyPartType_8h.html" target="_top" xlink:title="EBodyPartType 열거형에 대한 Doxygen 주석을 제공합니다.">
<polygon fill="white" stroke="#666666" points="606.5,-74 508.5,-74 508.5,-55 606.5,-55 606.5,-74"/>
<text text-anchor="middle" x="557.5" y="-62" font-family="Malgun Gothic" font-size="10.00">EBodyPartType.h</text>
</a>
</g>
</g>
<!-- Node2&#45;&gt;Node5 -->
<g id="edge4_Node000002_Node000005" class="edge">
<title>Node2&#45;&gt;Node5</title>
<g id="a_edge4_Node000002_Node000005"><a xlink:title=" ">
<path fill="none" stroke="#63b8ff" d="M623.14,-115.37C611.08,-106.21 591.8,-91.56 577.25,-80.51"/>
<polygon fill="#63b8ff" stroke="#63b8ff" points="578.99,-77.43 568.91,-74.17 574.75,-83 578.99,-77.43"/>
</a>
</g>
</g>
<!-- Node6 -->
<g id="Node000006" class="node">
<title>Node6</title>
<g id="a_Node000006"><a xlink:href="ECharacterType_8h.html" target="_top" xlink:title="ECharacterType 열거형에 대한 Doxygen 주석을 제공합니다.">
<polygon fill="white" stroke="#666666" points="1836,-19 1735,-19 1735,0 1836,0 1836,-19"/>
<text text-anchor="middle" x="1785.5" y="-7" font-family="Malgun Gothic" font-size="10.00">ECharacterType.h</text>
</a>
</g>
</g>
<!-- Node2&#45;&gt;Node6 -->
<g id="edge5_Node000002_Node000006" class="edge">
<title>Node2&#45;&gt;Node6</title>
<g id="a_edge5_Node000002_Node000006"><a xlink:title=" ">
<path fill="none" stroke="#63b8ff" d="M653.6,-115.46C689.02,-100.09 767.63,-68.15 837.5,-55 1014.79,-21.64 1468.36,-28.59 1648.5,-19 1673.38,-17.68 1700.78,-16.02 1724.5,-14.52"/>
<polygon fill="#63b8ff" stroke="#63b8ff" points="1725.01,-17.99 1734.76,-13.86 1724.56,-11 1725.01,-17.99"/>
</a>
</g>
</g>
<!-- Node2&#45;&gt;Node7 -->
<g id="edge6_Node000002_Node000007" class="edge">
<title>Node2&#45;&gt;Node7</title>
<g id="a_edge6_Node000002_Node000007"><a xlink:title=" ">
<path fill="none" stroke="#63b8ff" d="M645.27,-115.37C656.7,-106.21 674.98,-91.56 688.78,-80.51"/>
<polygon fill="#63b8ff" stroke="#63b8ff" points="691.07,-83.15 696.68,-74.17 686.69,-77.69 691.07,-83.15"/>
</a>
</g>
</g>
<!-- Node10 -->
<g id="Node000010" class="node">
<title>Node10</title>
<g id="a_Node000010"><a xlink:title=" ">
<polygon fill="#e0e0e0" stroke="#999999" points="314,-74 129,-74 129,-55 314,-55 314,-74"/>
<text text-anchor="middle" x="221.5" y="-62" font-family="Malgun Gothic" font-size="10.00">ALatteGameCharacter.generated.h</text>
</a>
</g>
</g>
<!-- Node2&#45;&gt;Node10 -->
<g id="edge11_Node000002_Node000010" class="edge">
<title>Node2&#45;&gt;Node10</title>
<g id="a_edge11_Node000002_Node000010"><a xlink:title=" ">
<path fill="none" stroke="#63b8ff" d="M574.45,-115.49C499.36,-104.86 371.04,-86.68 291.55,-75.42"/>
<polygon fill="#63b8ff" stroke="#63b8ff" points="292.02,-71.95 281.63,-74.02 291.04,-78.88 292.02,-71.95"/>
</a>
</g>
</g>
<!-- Node7&#45;&gt;Node3 -->
<g id="edge7_Node000007_Node000003" class="edge">
<title>Node7&#45;&gt;Node3</title>
<g id="a_edge7_Node000007_Node000003"><a xlink:title=" ">
<path fill="none" stroke="#63b8ff" d="M752.39,-59.27C768.78,-57.81 787.47,-56.22 804.5,-55 1081.05,-35.11 1412.53,-18.95 1540.96,-12.98"/>
<polygon fill="#63b8ff" stroke="#63b8ff" points="1541.48,-16.46 1551.3,-12.5 1541.15,-9.47 1541.48,-16.46"/>
</a>
</g>
</g>
<!-- Node7&#45;&gt;Node6 -->
<g id="edge8_Node000007_Node000006" class="edge">
<title>Node7&#45;&gt;Node6</title>
<g id="a_edge8_Node000007_Node000006"><a xlink:title=" ">
<path fill="none" stroke="#63b8ff" d="M752.38,-59.15C768.77,-57.67 787.46,-56.11 804.5,-55 1179.16,-30.61 1273.56,-38.63 1648.5,-19 1673.38,-17.7 1700.78,-16.04 1724.5,-14.54"/>
<polygon fill="#63b8ff" stroke="#63b8ff" points="1725.01,-18.01 1734.77,-13.88 1724.56,-11.03 1725.01,-18.01"/>
</a>
</g>
</g>
<!-- Node8 -->
<g id="Node000008" class="node">
<title>Node8</title>
<g id="a_Node000008"><a xlink:title=" ">
<polygon fill="#e0e0e0" stroke="#999999" points="866.5,-19 694.5,-19 694.5,0 866.5,0 866.5,-19"/>
<text text-anchor="middle" x="780.5" y="-7" font-family="Malgun Gothic" font-size="10.00">Components/ActorComponent.h</text>
</a>
</g>
</g>
<!-- Node7&#45;&gt;Node8 -->
<g id="edge9_Node000007_Node000008" class="edge">
<title>Node7&#45;&gt;Node8</title>
<g id="a_edge9_Node000007_Node000008"><a xlink:title=" ">
<path fill="none" stroke="#63b8ff" d="M719.23,-54.98C730.23,-47 746.92,-34.88 760.1,-25.31"/>
<polygon fill="#63b8ff" stroke="#63b8ff" points="762.52,-27.88 768.56,-19.17 758.41,-22.21 762.52,-27.88"/>
</a>
</g>
</g>
<!-- Node9 -->
<g id="Node000009" class="node">
<title>Node9</title>
<g id="a_Node000009"><a xlink:title=" ">
<polygon fill="#e0e0e0" stroke="#999999" points="676.5,-19 534.5,-19 534.5,0 676.5,0 676.5,-19"/>
<text text-anchor="middle" x="605.5" y="-7" font-family="Malgun Gothic" font-size="10.00">UStatSystem.generated.h</text>
</a>
</g>
</g>
<!-- Node7&#45;&gt;Node9 -->
<g id="edge10_Node000007_Node000009" class="edge">
<title>Node7&#45;&gt;Node9</title>
<g id="a_edge10_Node000007_Node000009"><a xlink:title=" ">
<path fill="none" stroke="#63b8ff" d="M691.11,-54.98C674.93,-46.57 649.93,-33.59 631.12,-23.81"/>
<polygon fill="#63b8ff" stroke="#63b8ff" points="632.67,-20.68 622.19,-19.17 629.45,-26.89 632.67,-20.68"/>
</a>
</g>
</g>
<!-- Node11&#45;&gt;Node3 -->
<g id="edge14_Node000011_Node000003" class="edge">
<title>Node11&#45;&gt;Node3</title>
<g id="a_edge14_Node000011_Node000003"><a xlink:title=" ">
<path fill="none" stroke="#63b8ff" d="M1032,-115.14C1031.7,-100.13 1033.51,-69.9 1051.5,-55 1088.62,-24.25 1410.45,-14.27 1540.91,-11.47"/>
<polygon fill="#63b8ff" stroke="#63b8ff" points="1541.15,-14.96 1551.08,-11.25 1541.01,-7.96 1541.15,-14.96"/>
</a>
</g>
</g>
<!-- Node11&#45;&gt;Node8 -->
<g id="edge15_Node000011_Node000008" class="edge">
<title>Node11&#45;&gt;Node8</title>
<g id="a_edge15_Node000011_Node000008"><a xlink:title=" ">
<path fill="none" stroke="#63b8ff" d="M979.17,-118.83C938.03,-112.92 880.98,-100.37 837.5,-74 818.38,-62.41 801.99,-42.41 791.76,-27.95"/>
<polygon fill="#63b8ff" stroke="#63b8ff" points="794.47,-25.7 785.96,-19.39 788.67,-29.63 794.47,-25.7"/>
</a>
</g>
</g>
<!-- Node12 -->
<g id="Node000012" class="node">
<title>Node12</title>
<g id="a_Node000012"><a xlink:href="FHitStopData_8h.html" target="_top" xlink:title="FHitStopData 구조체에 대한 Doxygen 주석을 제공합니다.">
<polygon fill="white" stroke="#666666" points="2289,-74 2198,-74 2198,-55 2289,-55 2289,-74"/>
<text text-anchor="middle" x="2243.5" y="-62" font-family="Malgun Gothic" font-size="10.00">FHitStopData.h</text>
</a>
</g>
</g>
<!-- Node11&#45;&gt;Node12 -->
<g id="edge16_Node000011_Node000012" class="edge">
<title>Node11&#45;&gt;Node12</title>
<g id="a_edge16_Node000011_Node000012"><a xlink:title=" ">
<path fill="none" stroke="#63b8ff" d="M1085.7,-121.39C1144.4,-118.53 1241.69,-113.83 1325.5,-110 1692.13,-93.24 1784.32,-98.71 2150.5,-74 2162.51,-73.19 2175.37,-72.14 2187.58,-71.05"/>
<polygon fill="#63b8ff" stroke="#63b8ff" points="2188.01,-74.52 2197.65,-70.13 2187.37,-67.55 2188.01,-74.52"/>
</a>
</g>
</g>
<!-- Node16 -->
<g id="Node000016" class="node">
<title>Node16</title>
<g id="a_Node000016"><a xlink:title=" ">
<polygon fill="#e0e0e0" stroke="#999999" points="1004.5,-74 846.5,-74 846.5,-55 1004.5,-55 1004.5,-74"/>
<text text-anchor="middle" x="925.5" y="-62" font-family="Malgun Gothic" font-size="10.00">UHitStopSystem.generated.h</text>
</a>
</g>
</g>
<!-- Node11&#45;&gt;Node16 -->
<g id="edge21_Node000011_Node000016" class="edge">
<title>Node11&#45;&gt;Node16</title>
<g id="a_edge21_Node000011_Node000016"><a xlink:title=" ">
<path fill="none" stroke="#63b8ff" d="M1016.71,-115.37C999.17,-105.78 970.62,-90.17 950.13,-78.97"/>
<polygon fill="#63b8ff" stroke="#63b8ff" points="951.81,-75.89 941.35,-74.17 948.45,-82.04 951.81,-75.89"/>
</a>
</g>
</g>
<!-- Node12&#45;&gt;Node3 -->
<g id="edge17_Node000012_Node000003" class="edge">
<title>Node12&#45;&gt;Node3</title>
<g id="a_edge17_Node000012_Node000003"><a xlink:title=" ">
<path fill="none" stroke="#63b8ff" d="M2197.68,-56.69C2192.89,-56.08 2188.1,-55.5 2183.5,-55 2080.92,-43.86 1775.3,-22.67 1650,-14.17"/>
<polygon fill="#63b8ff" stroke="#63b8ff" points="1650.09,-10.67 1639.87,-13.48 1649.61,-17.65 1650.09,-10.67"/>
</a>
</g>
</g>
<!-- Node13 -->
<g id="Node000013" class="node">
<title>Node13</title>
<g id="a_Node000013"><a xlink:href="EDamageType_8h.html" target="_top" xlink:title="EDamageType 열거형에 대한 Doxygen 주석을 제공합니다.">
<polygon fill="white" stroke="#666666" points="2263,-19 2168,-19 2168,0 2263,0 2263,-19"/>
<text text-anchor="middle" x="2215.5" y="-7" font-family="Malgun Gothic" font-size="10.00">EDamageType.h</text>
</a>
</g>
</g>
<!-- Node12&#45;&gt;Node13 -->
<g id="edge18_Node000012_Node000013" class="edge">
<title>Node12&#45;&gt;Node13</title>
<g id="a_edge18_Node000012_Node000013"><a xlink:title=" ">
<path fill="none" stroke="#63b8ff" d="M2238.88,-54.75C2235.04,-47.49 2229.48,-36.95 2224.74,-27.98"/>
<polygon fill="#63b8ff" stroke="#63b8ff" points="2227.8,-26.3 2220.04,-19.09 2221.61,-29.57 2227.8,-26.3"/>
</a>
</g>
</g>
<!-- Node14 -->
<g id="Node000014" class="node">
<title>Node14</title>
<g id="a_Node000014"><a xlink:title=" ">
<polygon fill="#e0e0e0" stroke="#999999" points="2570.5,-19 2460.5,-19 2460.5,0 2570.5,0 2570.5,-19"/>
<text text-anchor="middle" x="2515.5" y="-7" font-family="Malgun Gothic" font-size="10.00">Engine/DataTable.h</text>
</a>
</g>
</g>
<!-- Node12&#45;&gt;Node14 -->
<g id="edge19_Node000012_Node000014" class="edge">
<title>Node12&#45;&gt;Node14</title>
<g id="a_edge19_Node000012_Node000014"><a xlink:title=" ">
<path fill="none" stroke="#63b8ff" d="M2287.2,-54.98C2334.65,-45.74 2410.47,-30.97 2461.58,-21.01"/>
<polygon fill="#63b8ff" stroke="#63b8ff" points="2462.31,-24.43 2471.46,-19.08 2460.97,-17.56 2462.31,-24.43"/>
</a>
</g>
</g>
<!-- Node15 -->
<g id="Node000015" class="node">
<title>Node15</title>
<g id="a_Node000015"><a xlink:title=" ">
<polygon fill="#e0e0e0" stroke="#999999" points="2150,-19 2007,-19 2007,0 2150,0 2150,-19"/>
<text text-anchor="middle" x="2078.5" y="-7" font-family="Malgun Gothic" font-size="10.00">FHitStopData.generated.h</text>
</a>
</g>
</g>
<!-- Node12&#45;&gt;Node15 -->
<g id="edge20_Node000012_Node000015" class="edge">
<title>Node12&#45;&gt;Node15</title>
<g id="a_edge20_Node000012_Node000015"><a xlink:title=" ">
<path fill="none" stroke="#63b8ff" d="M2216.99,-54.98C2189.29,-46.09 2145.64,-32.07 2114.76,-22.15"/>
<polygon fill="#63b8ff" stroke="#63b8ff" points="2115.81,-18.81 2105.22,-19.08 2113.67,-25.47 2115.81,-18.81"/>
</a>
</g>
</g>
<!-- Node17&#45;&gt;Node3 -->
<g id="edge23_Node000017_Node000003" class="edge">
<title>Node17&#45;&gt;Node3</title>
<g id="a_edge23_Node000017_Node000003"><a xlink:title=" ">
<path fill="none" stroke="#63b8ff" d="M111.02,-55.97C113.88,-55.6 116.73,-55.27 119.5,-55 403.45,-27.19 1309.41,-14.1 1541.12,-11.16"/>
<polygon fill="#63b8ff" stroke="#63b8ff" points="1541.36,-14.65 1551.32,-11.03 1541.28,-7.65 1541.36,-14.65"/>
</a>
</g>
</g>
<!-- Node17&#45;&gt;Node8 -->
<g id="edge24_Node000017_Node000008" class="edge">
<title>Node17&#45;&gt;Node8</title>
<g id="a_edge24_Node000017_Node000008"><a xlink:title=" ">
<path fill="none" stroke="#63b8ff" d="M111.03,-56.08C113.89,-55.68 116.74,-55.32 119.5,-55 366.62,-26.62 432.44,-37.92 684.11,-19.08"/>
<polygon fill="#63b8ff" stroke="#63b8ff" points="684.59,-22.56 694.29,-18.31 684.06,-15.58 684.59,-22.56"/>
</a>
</g>
</g>
<!-- Node18 -->
<g id="Node000018" class="node">
<title>Node18</title>
<g id="a_Node000018"><a xlink:title=" ">
<polygon fill="#e0e0e0" stroke="#999999" points="137,-19 0,-19 0,0 137,0 137,-19"/>
<text text-anchor="middle" x="68.5" y="-7" font-family="Malgun Gothic" font-size="10.00">UFlySystem.generated.h</text>
</a>
</g>
</g>
<!-- Node17&#45;&gt;Node18 -->
<g id="edge25_Node000017_Node000018" class="edge">
<title>Node17&#45;&gt;Node18</title>
<g id="a_edge25_Node000017_Node000018"><a xlink:title=" ">
<path fill="none" stroke="#63b8ff" d="M68.5,-54.75C68.5,-47.8 68.5,-37.85 68.5,-29.13"/>
<polygon fill="#63b8ff" stroke="#63b8ff" points="72,-29.09 68.5,-19.09 65,-29.09 72,-29.09"/>
</a>
</g>
</g>
<!-- Node19&#45;&gt;Node3 -->
<g id="edge27_Node000019_Node000003" class="edge">
<title>Node19&#45;&gt;Node3</title>
<g id="a_edge27_Node000019_Node000003"><a xlink:title=" ">
<path fill="none" stroke="#63b8ff" d="M2025.96,-115.41C1992.37,-100.96 1921.19,-71.71 1858.5,-55 1787.46,-36.06 1703.38,-23.5 1649.75,-16.69"/>
<polygon fill="#63b8ff" stroke="#63b8ff" points="1650.13,-13.21 1639.78,-15.44 1649.27,-20.15 1650.13,-13.21"/>
</a>
</g>
</g>
<!-- Node19&#45;&gt;Node8 -->
<g id="edge28_Node000019_Node000008" class="edge">
<title>Node19&#45;&gt;Node8</title>
<g id="a_edge28_Node000019_Node000008"><a xlink:title=" ">
<path fill="none" stroke="#63b8ff" d="M2007.13,-115.47C1972.07,-107.04 1919.2,-92.69 1875.5,-74 1859.94,-67.34 1858.75,-59.71 1842.5,-55 1751.37,-28.58 1121.19,-15.89 876.93,-11.92"/>
<polygon fill="#63b8ff" stroke="#63b8ff" points="876.71,-8.42 866.65,-11.75 876.59,-15.42 876.71,-8.42"/>
</a>
</g>
</g>
<!-- Node20 -->
<g id="Node000020" class="node">
<title>Node20</title>
<g id="a_Node000020"><a xlink:href="FKnockbackData_8h.html" target="_top" xlink:title="FKnockbackData 구조체에 대한 Doxygen 주석을 제공합니다.">
<polygon fill="white" stroke="#666666" points="2415.5,-74 2307.5,-74 2307.5,-55 2415.5,-55 2415.5,-74"/>
<text text-anchor="middle" x="2361.5" y="-62" font-family="Malgun Gothic" font-size="10.00">FKnockbackData.h</text>
</a>
</g>
</g>
<!-- Node19&#45;&gt;Node20 -->
<g id="edge29_Node000019_Node000020" class="edge">
<title>Node19&#45;&gt;Node20</title>
<g id="a_edge29_Node000019_Node000020"><a xlink:title=" ">
<path fill="none" stroke="#63b8ff" d="M2091.45,-115.49C2148.2,-104.99 2244.69,-87.12 2305.66,-75.84"/>
<polygon fill="#63b8ff" stroke="#63b8ff" points="2306.3,-79.28 2315.5,-74.02 2305.03,-72.4 2306.3,-79.28"/>
</a>
</g>
</g>
<!-- Node22 -->
<g id="Node000022" class="node">
<title>Node22</title>
<g id="a_Node000022"><a xlink:title=" ">
<polygon fill="#e0e0e0" stroke="#999999" points="2141.5,-74 1965.5,-74 1965.5,-55 2141.5,-55 2141.5,-74"/>
<text text-anchor="middle" x="2053.5" y="-62" font-family="Malgun Gothic" font-size="10.00">UKnockbackSystem.generated.h</text>
</a>
</g>
</g>
<!-- Node19&#45;&gt;Node22 -->
<g id="edge34_Node000019_Node000022" class="edge">
<title>Node19&#45;&gt;Node22</title>
<g id="a_edge34_Node000019_Node000022"><a xlink:title=" ">
<path fill="none" stroke="#63b8ff" d="M2046.68,-115.37C2047.79,-107.25 2049.49,-94.81 2050.92,-84.39"/>
<polygon fill="#63b8ff" stroke="#63b8ff" points="2054.43,-84.55 2052.31,-74.17 2047.49,-83.6 2054.43,-84.55"/>
</a>
</g>
</g>
<!-- Node20&#45;&gt;Node3 -->
<g id="edge30_Node000020_Node000003" class="edge">
<title>Node20&#45;&gt;Node3</title>
<g id="a_edge30_Node000020_Node000003"><a xlink:title=" ">
<path fill="none" stroke="#63b8ff" d="M2307.23,-55.93C2304.28,-55.59 2301.36,-55.28 2298.5,-55 2045.01,-29.95 1980.71,-35.25 1726.5,-19 1701.34,-17.39 1673.46,-15.59 1649.91,-14.05"/>
<polygon fill="#63b8ff" stroke="#63b8ff" points="1649.97,-10.55 1639.76,-13.39 1649.52,-17.54 1649.97,-10.55"/>
</a>
</g>
</g>
<!-- Node20&#45;&gt;Node13 -->
<g id="edge31_Node000020_Node000013" class="edge">
<title>Node20&#45;&gt;Node13</title>
<g id="a_edge31_Node000020_Node000013"><a xlink:title=" ">
<path fill="none" stroke="#63b8ff" d="M2338.04,-54.98C2313.92,-46.23 2276.13,-32.51 2248.9,-22.62"/>
<polygon fill="#63b8ff" stroke="#63b8ff" points="2249.98,-19.29 2239.38,-19.17 2247.59,-25.87 2249.98,-19.29"/>
</a>
</g>
</g>
<!-- Node20&#45;&gt;Node14 -->
<g id="edge32_Node000020_Node000014" class="edge">
<title>Node20&#45;&gt;Node14</title>
<g id="a_edge32_Node000020_Node000014"><a xlink:title=" ">
<path fill="none" stroke="#63b8ff" d="M2386.24,-54.98C2411.87,-46.16 2452.13,-32.31 2480.91,-22.41"/>
<polygon fill="#63b8ff" stroke="#63b8ff" points="2482.25,-25.65 2490.56,-19.08 2479.97,-19.03 2482.25,-25.65"/>
</a>
</g>
</g>
<!-- Node21 -->
<g id="Node000021" class="node">
<title>Node21</title>
<g id="a_Node000021"><a xlink:title=" ">
<polygon fill="#e0e0e0" stroke="#999999" points="2442,-19 2281,-19 2281,0 2442,0 2442,-19"/>
<text text-anchor="middle" x="2361.5" y="-7" font-family="Malgun Gothic" font-size="10.00">FKnockbackData.generated.h</text>
</a>
</g>
</g>
<!-- Node20&#45;&gt;Node21 -->
<g id="edge33_Node000020_Node000021" class="edge">
<title>Node20&#45;&gt;Node21</title>
<g id="a_edge33_Node000020_Node000021"><a xlink:title=" ">
<path fill="none" stroke="#63b8ff" d="M2361.5,-54.75C2361.5,-47.8 2361.5,-37.85 2361.5,-29.13"/>
<polygon fill="#63b8ff" stroke="#63b8ff" points="2365,-29.09 2361.5,-19.09 2358,-29.09 2365,-29.09"/>
</a>
</g>
</g>
<!-- Node23&#45;&gt;Node3 -->
<g id="edge36_Node000023_Node000003" class="edge">
<title>Node23&#45;&gt;Node3</title>
<g id="a_edge36_Node000023_Node000003"><a xlink:title=" ">
<path fill="none" stroke="#63b8ff" d="M1801.2,-115.3C1824.15,-102.23 1860.67,-76.73 1842.5,-55 1818.43,-26.2 1714.89,-16.01 1649.74,-12.43"/>
<polygon fill="#63b8ff" stroke="#63b8ff" points="1649.8,-8.92 1639.64,-11.9 1649.44,-15.91 1649.8,-8.92"/>
</a>
</g>
</g>
<!-- Node24 -->
<g id="Node000024" class="node">
<title>Node24</title>
<g id="a_Node000024"><a xlink:title=" ">
<polygon fill="#e0e0e0" stroke="#999999" points="1833.5,-74 1721.5,-74 1721.5,-55 1833.5,-55 1833.5,-74"/>
<text text-anchor="middle" x="1777.5" y="-62" font-family="Malgun Gothic" font-size="10.00">Engine/DataAsset.h</text>
</a>
</g>
</g>
<!-- Node23&#45;&gt;Node24 -->
<g id="edge37_Node000023_Node000024" class="edge">
<title>Node23&#45;&gt;Node24</title>
<g id="a_edge37_Node000023_Node000024"><a xlink:title=" ">
<path fill="none" stroke="#63b8ff" d="M1783.47,-115.37C1782.5,-107.25 1781.01,-94.81 1779.76,-84.39"/>
<polygon fill="#63b8ff" stroke="#63b8ff" points="1783.2,-83.68 1778.54,-74.17 1776.25,-84.51 1783.2,-83.68"/>
</a>
</g>
</g>
<!-- Node25 -->
<g id="Node000025" class="node">
<title>Node25</title>
<g id="a_Node000025"><a xlink:title=" ">
<polygon fill="#e0e0e0" stroke="#999999" points="1703.5,-74 1547.5,-74 1547.5,-55 1703.5,-55 1703.5,-74"/>
<text text-anchor="middle" x="1625.5" y="-62" font-family="Malgun Gothic" font-size="10.00">UCharacterData.generated.h</text>
</a>
</g>
</g>
<!-- Node23&#45;&gt;Node25 -->
<g id="edge38_Node000023_Node000025" class="edge">
<title>Node23&#45;&gt;Node25</title>
<g id="a_edge38_Node000023_Node000025"><a xlink:title=" ">
<path fill="none" stroke="#63b8ff" d="M1761.38,-115.49C1734.18,-105.49 1688.83,-88.8 1658.08,-77.49"/>
<polygon fill="#63b8ff" stroke="#63b8ff" points="1659.24,-74.18 1648.65,-74.02 1656.82,-80.75 1659.24,-74.18"/>
</a>
</g>
</g>
<!-- Node27&#45;&gt;Node3 -->
<g id="edge41_Node000027_Node000003" class="edge">
<title>Node27&#45;&gt;Node3</title>
<g id="a_edge41_Node000027_Node000003"><a xlink:title=" ">
<path fill="none" stroke="#63b8ff" d="M1405.04,-115.38C1429.75,-106.33 1468.67,-91.06 1500.5,-74 1527.85,-59.34 1557.24,-38.89 1575.97,-25.2"/>
<polygon fill="#63b8ff" stroke="#63b8ff" points="1578.29,-27.83 1584.25,-19.07 1574.13,-22.21 1578.29,-27.83"/>
</a>
</g>
</g>
<!-- Node28 -->
<g id="Node000028" class="node">
<title>Node28</title>
<g id="a_Node000028"><a xlink:title=" ">
<polygon fill="#e0e0e0" stroke="#999999" points="1378,-74 1259,-74 1259,-55 1378,-55 1378,-74"/>
<text text-anchor="middle" x="1318.5" y="-62" font-family="Malgun Gothic" font-size="10.00">Logging/LogMacros.h</text>
</a>
</g>
</g>
<!-- Node27&#45;&gt;Node28 -->
<g id="edge42_Node000027_Node000028" class="edge">
<title>Node27&#45;&gt;Node28</title>
<g id="a_edge42_Node000027_Node000028"><a xlink:title=" ">
<path fill="none" stroke="#63b8ff" d="M1371.35,-115.37C1361.83,-106.38 1346.7,-92.11 1335.07,-81.14"/>
<polygon fill="#63b8ff" stroke="#63b8ff" points="1337.36,-78.48 1327.69,-74.17 1332.56,-83.58 1337.36,-78.48"/>
</a>
</g>
</g>
<!-- Node29 -->
<g id="Node000029" class="node">
<title>Node29</title>
<g id="a_Node000029"><a xlink:title=" ">
<polygon fill="#e0e0e0" stroke="#999999" points="1491,-74 1396,-74 1396,-55 1491,-55 1491,-74"/>
<text text-anchor="middle" x="1443.5" y="-62" font-family="Malgun Gothic" font-size="10.00">Engine/Engine.h</text>
</a>
</g>
</g>
<!-- Node27&#45;&gt;Node29 -->
<g id="edge43_Node000027_Node000029" class="edge">
<title>Node27&#45;&gt;Node29</title>
<g id="a_edge43_Node000027_Node000029"><a xlink:title=" ">
<path fill="none" stroke="#63b8ff" d="M1389.8,-115.37C1399.47,-106.38 1414.84,-92.11 1426.66,-81.14"/>
<polygon fill="#63b8ff" stroke="#63b8ff" points="1429.22,-83.54 1434.17,-74.17 1424.46,-78.41 1429.22,-83.54"/>
</a>
</g>
</g>
<!-- Node30 -->
<g id="Node000030" class="node">
<title>Node30</title>
<g id="a_Node000030"><a xlink:href="FLogWriter_8h.html" target="_top" xlink:title="FLogWriter 선언에 대한 Doxygen 주석을 제공합니다.">
<polygon fill="white" stroke="#666666" points="1138.5,-74 1060.5,-74 1060.5,-55 1138.5,-55 1138.5,-74"/>
<text text-anchor="middle" x="1099.5" y="-62" font-family="Malgun Gothic" font-size="10.00">FLogWriter.h</text>
</a>
</g>
</g>
<!-- Node27&#45;&gt;Node30 -->
<g id="edge44_Node000027_Node000030" class="edge">
<title>Node27&#45;&gt;Node30</title>
<g id="a_edge44_Node000027_Node000030"><a xlink:title=" ">
<path fill="none" stroke="#63b8ff" d="M1339.64,-115.49C1289.02,-104.95 1202.84,-87.01 1148.66,-75.73"/>
<polygon fill="#63b8ff" stroke="#63b8ff" points="1149.1,-72.25 1138.6,-73.64 1147.67,-79.1 1149.1,-72.25"/>
</a>
</g>
</g>
<!-- Node31 -->
<g id="Node000031" class="node">
<title>Node31</title>
<g id="a_Node000031"><a xlink:href="NetworkLog_8h.html" target="_top" xlink:title="NetworkLog 선언에 대한 Doxygen 주석을 제공합니다.">
<polygon fill="white" stroke="#666666" points="1240.5,-74 1156.5,-74 1156.5,-55 1240.5,-55 1240.5,-74"/>
<text text-anchor="middle" x="1198.5" y="-62" font-family="Malgun Gothic" font-size="10.00">NetworkLog.h</text>
</a>
</g>
</g>
<!-- Node27&#45;&gt;Node31 -->
<g id="edge46_Node000027_Node000031" class="edge">
<title>Node27&#45;&gt;Node31</title>
<g id="a_edge46_Node000027_Node000031"><a xlink:title=" ">
<path fill="none" stroke="#63b8ff" d="M1354.04,-115.49C1322.63,-105.4 1270.1,-88.51 1234.88,-77.19"/>
<polygon fill="#63b8ff" stroke="#63b8ff" points="1235.59,-73.74 1225,-74.02 1233.45,-80.41 1235.59,-73.74"/>
</a>
</g>
</g>
<!-- Node30&#45;&gt;Node3 -->
<g id="edge45_Node000030_Node000003" class="edge">
<title>Node30&#45;&gt;Node3</title>
<g id="a_edge45_Node000030_Node000003"><a xlink:title=" ">
<path fill="none" stroke="#63b8ff" d="M1138.75,-56.3C1141.71,-55.83 1144.65,-55.39 1147.5,-55 1289.09,-35.46 1457,-21.13 1541.38,-14.54"/>
<polygon fill="#63b8ff" stroke="#63b8ff" points="1541.79,-18.01 1551.49,-13.75 1541.25,-11.04 1541.79,-18.01"/>
</a>
</g>
</g>
<!-- Node31&#45;&gt;Node3 -->
<g id="edge47_Node000031_Node000003" class="edge">
<title>Node31&#45;&gt;Node3</title>
<g id="a_edge47_Node000031_Node000003"><a xlink:title=" ">
<path fill="none" stroke="#63b8ff" d="M1240.77,-56.47C1244.06,-55.96 1247.33,-55.46 1250.5,-55 1353.09,-40 1473.25,-25.11 1541.27,-16.92"/>
<polygon fill="#63b8ff" stroke="#63b8ff" points="1541.81,-20.38 1551.32,-15.71 1540.98,-13.43 1541.81,-20.38"/>
</a>
</g>
</g>
<!-- Node32&#45;&gt;Node3 -->
<g id="edge49_Node000032_Node000003" class="edge">
<title>Node32&#45;&gt;Node3</title>
<g id="a_edge49_Node000032_Node000003"><a xlink:title=" ">
<path fill="none" stroke="#63b8ff" d="M3075.96,-55.75C3072.76,-55.47 3069.6,-55.22 3066.5,-55 2472.21,-12.97 2321.64,-46.29 1726.5,-19 1701.31,-17.84 1673.43,-16.1 1649.89,-14.49"/>
<polygon fill="#63b8ff" stroke="#63b8ff" points="1649.96,-10.99 1639.74,-13.79 1649.48,-17.97 1649.96,-10.99"/>
</a>
</g>
</g>
<!-- Node32&#45;&gt;Node6 -->
<g id="edge50_Node000032_Node000006" class="edge">
<title>Node32&#45;&gt;Node6</title>
<g id="a_edge50_Node000032_Node000006"><a xlink:title=" ">
<path fill="none" stroke="#63b8ff" d="M3075.96,-55.78C3072.76,-55.49 3069.6,-55.23 3066.5,-55 2592.86,-19.87 2473.11,-36.47 1998.5,-19 1947.25,-17.11 1889.07,-14.78 1846.48,-13.03"/>
<polygon fill="#63b8ff" stroke="#63b8ff" points="1846.42,-9.53 1836.28,-12.61 1846.13,-16.52 1846.42,-9.53"/>
</a>
</g>
</g>
<!-- Node32&#45;&gt;Node14 -->
<g id="edge51_Node000032_Node000014" class="edge">
<title>Node32&#45;&gt;Node14</title>
<g id="a_edge51_Node000032_Node000014"><a xlink:title=" ">
<path fill="none" stroke="#63b8ff" d="M3075.94,-55.93C3072.75,-55.6 3069.59,-55.29 3066.5,-55 2854.13,-34.95 2797.67,-40.86 2580.9,-18.97"/>
<polygon fill="#63b8ff" stroke="#63b8ff" points="2581.1,-15.48 2570.79,-17.95 2580.39,-22.44 2581.1,-15.48"/>
</a>
</g>
</g>
<!-- Node33 -->
<g id="Node000033" class="node">
<title>Node33</title>
<g id="a_Node000033"><a xlink:title=" ">
<polygon fill="#e0e0e0" stroke="#999999" points="3231.5,-19 3049.5,-19 3049.5,0 3231.5,0 3231.5,-19"/>
<text text-anchor="middle" x="3140.5" y="-7" font-family="Malgun Gothic" font-size="10.00">FCharacterAssetData.generated.h</text>
</a>
</g>
</g>
<!-- Node32&#45;&gt;Node33 -->
<g id="edge52_Node000032_Node000033" class="edge">
<title>Node32&#45;&gt;Node33</title>
<g id="a_edge52_Node000032_Node000033"><a xlink:title=" ">
<path fill="none" stroke="#63b8ff" d="M3140.5,-54.75C3140.5,-47.8 3140.5,-37.85 3140.5,-29.13"/>
<polygon fill="#63b8ff" stroke="#63b8ff" points="3144,-29.09 3140.5,-19.09 3137,-29.09 3144,-29.09"/>
</a>
</g>
</g>
<!-- Node34&#45;&gt;Node3 -->
<g id="edge54_Node000034_Node000003" class="edge">
<title>Node34&#45;&gt;Node3</title>
<g id="a_edge54_Node000034_Node000003"><a xlink:title=" ">
<path fill="none" stroke="#63b8ff" d="M2235.27,-115.28C2220.17,-99.93 2186.26,-68.43 2150.5,-55 2127.29,-46.29 1784.85,-22.96 1649.74,-14.04"/>
<polygon fill="#63b8ff" stroke="#63b8ff" points="1649.82,-10.54 1639.61,-13.37 1649.36,-17.52 1649.82,-10.54"/>
</a>
</g>
</g>
<!-- Node34&#45;&gt;Node12 -->
<g id="edge56_Node000034_Node000012" class="edge">
<title>Node34&#45;&gt;Node12</title>
<g id="a_edge56_Node000034_Node000012"><a xlink:title=" ">
<path fill="none" stroke="#63b8ff" d="M2243.5,-115.37C2243.5,-107.25 2243.5,-94.81 2243.5,-84.39"/>
<polygon fill="#63b8ff" stroke="#63b8ff" points="2247,-84.17 2243.5,-74.17 2240,-84.17 2247,-84.17"/>
</a>
</g>
</g>
<!-- Node34&#45;&gt;Node20 -->
<g id="edge57_Node000034_Node000020" class="edge">
<title>Node34&#45;&gt;Node20</title>
<g id="a_edge57_Node000034_Node000020"><a xlink:title=" ">
<path fill="none" stroke="#63b8ff" d="M2260.66,-115.49C2280.23,-105.79 2312.47,-89.81 2335.22,-78.53"/>
<polygon fill="#63b8ff" stroke="#63b8ff" points="2336.92,-81.59 2344.32,-74.02 2333.81,-75.32 2336.92,-81.59"/>
</a>
</g>
</g>
<!-- Node34&#45;&gt;Node32 -->
<g id="edge63_Node000034_Node000032" class="edge">
<title>Node34&#45;&gt;Node32</title>
<g id="a_edge63_Node000034_Node000032"><a xlink:title=" ">
<path fill="none" stroke="#63b8ff" d="M2285.45,-115.44C2297.08,-113.35 2309.74,-111.33 2321.5,-110 2647.51,-73.02 2734.32,-100.36 3065.58,-74.01"/>
<polygon fill="#63b8ff" stroke="#63b8ff" points="3066.26,-77.46 3075.95,-73.17 3065.7,-70.48 3066.26,-77.46"/>
</a>
</g>
</g>
<!-- Node35 -->
<g id="Node000035" class="node">
<title>Node35</title>
<g id="a_Node000035"><a xlink:href="Macro_8h.html" target="_top" xlink:title="Manager 모듈에서 공통으로 사용하는 매크로 정의에 대한 Doxygen 주석을 제공합니다.">
<polygon fill="white" stroke="#666666" points="2629.5,-74 2573.5,-74 2573.5,-55 2629.5,-55 2629.5,-74"/>
<text text-anchor="middle" x="2601.5" y="-62" font-family="Malgun Gothic" font-size="10.00">Macro.h</text>
</a>
</g>
</g>
<!-- Node34&#45;&gt;Node35 -->
<g id="edge55_Node000034_Node000035" class="edge">
<title>Node34&#45;&gt;Node35</title>
<g id="a_edge55_Node000034_Node000035"><a xlink:title=" ">
<path fill="none" stroke="#63b8ff" d="M2289.65,-115.48C2300.11,-113.61 2311.18,-111.69 2321.5,-110 2426.09,-92.87 2455.51,-94.14 2563.29,-74.1"/>
<polygon fill="#63b8ff" stroke="#63b8ff" points="2564.08,-77.51 2573.27,-72.23 2562.79,-70.63 2564.08,-77.51"/>
</a>
</g>
</g>
<!-- Node36 -->
<g id="Node000036" class="node">
<title>Node36</title>
<g id="a_Node000036"><a xlink:href="FCharacterInfoData_8h.html" target="_top" xlink:title="FCharacterInfoData 구조체에 대한 Doxygen 주석을 제공합니다.">
<polygon fill="white" stroke="#666666" points="2555,-74 2434,-74 2434,-55 2555,-55 2555,-74"/>
<text text-anchor="middle" x="2494.5" y="-62" font-family="Malgun Gothic" font-size="10.00">FCharacterInfoData.h</text>
</a>
</g>
</g>
<!-- Node34&#45;&gt;Node36 -->
<g id="edge58_Node000034_Node000036" class="edge">
<title>Node34&#45;&gt;Node36</title>
<g id="a_edge58_Node000034_Node000036"><a xlink:title=" ">
<path fill="none" stroke="#63b8ff" d="M2280,-115.49C2324.43,-105.14 2399.51,-87.64 2448.03,-76.33"/>
<polygon fill="#63b8ff" stroke="#63b8ff" points="2449.01,-79.7 2457.96,-74.02 2447.42,-72.88 2449.01,-79.7"/>
</a>
</g>
</g>
<!-- Node38 -->
<g id="Node000038" class="node">
<title>Node38</title>
<g id="a_Node000038"><a xlink:title=" ">
<polygon fill="#e0e0e0" stroke="#999999" points="2859.5,-74 2647.5,-74 2647.5,-55 2859.5,-55 2859.5,-74"/>
<text text-anchor="middle" x="2753.5" y="-62" font-family="Malgun Gothic" font-size="10.00">Subsystems/GameInstanceSubsystem.h</text>
</a>
</g>
</g>
<!-- Node34&#45;&gt;Node38 -->
<g id="edge64_Node000034_Node000038" class="edge">
<title>Node34&#45;&gt;Node38</title>
<g id="a_edge64_Node000034_Node000038"><a xlink:title=" ">
<path fill="none" stroke="#63b8ff" d="M2287.55,-115.5C2298.6,-113.53 2310.47,-111.56 2321.5,-110 2428.86,-94.86 2551.92,-82.68 2639.17,-74.92"/>
<polygon fill="#63b8ff" stroke="#63b8ff" points="2639.71,-78.39 2649.36,-74.02 2639.09,-71.42 2639.71,-78.39"/>
</a>
</g>
</g>
<!-- Node39 -->
<g id="Node000039" class="node">
<title>Node39</title>
<g id="a_Node000039"><a xlink:title=" ">
<polygon fill="#e0e0e0" stroke="#999999" points="3057.5,-74 2877.5,-74 2877.5,-55 3057.5,-55 3057.5,-74"/>
<text text-anchor="middle" x="2967.5" y="-62" font-family="Malgun Gothic" font-size="10.00">UGameDataManager.generated.h</text>
</a>
</g>
</g>
<!-- Node34&#45;&gt;Node39 -->
<g id="edge65_Node000034_Node000039" class="edge">
<title>Node34&#45;&gt;Node39</title>
<g id="a_edge65_Node000034_Node000039"><a xlink:title=" ">
<path fill="none" stroke="#63b8ff" d="M2286.28,-115.43C2297.69,-113.39 2310.03,-111.4 2321.5,-110 2560.03,-80.84 2623.83,-92.1 2867.17,-74.08"/>
<polygon fill="#63b8ff" stroke="#63b8ff" points="2867.69,-77.55 2877.4,-73.31 2867.16,-70.57 2867.69,-77.55"/>
</a>
</g>
</g>
<!-- Node36&#45;&gt;Node3 -->
<g id="edge59_Node000036_Node000003" class="edge">
<title>Node36&#45;&gt;Node3</title>
<g id="a_edge59_Node000036_Node000003"><a xlink:title=" ">
<path fill="none" stroke="#63b8ff" d="M2433.82,-55.87C2430.67,-55.56 2427.55,-55.26 2424.5,-55 2115.02,-28.26 2036.61,-37.06 1726.5,-19 1701.33,-17.53 1673.45,-15.75 1649.9,-14.19"/>
<polygon fill="#63b8ff" stroke="#63b8ff" points="1649.97,-10.69 1639.76,-13.52 1649.5,-17.67 1649.97,-10.69"/>
</a>
</g>
</g>
<!-- Node36&#45;&gt;Node6 -->
<g id="edge60_Node000036_Node000006" class="edge">
<title>Node36&#45;&gt;Node6</title>
<g id="a_edge60_Node000036_Node000006"><a xlink:title=" ">
<path fill="none" stroke="#63b8ff" d="M2433.81,-55.94C2430.67,-55.61 2427.55,-55.29 2424.5,-55 2212.48,-34.76 1960.05,-19.9 1846.34,-13.69"/>
<polygon fill="#63b8ff" stroke="#63b8ff" points="1846.28,-10.19 1836.1,-13.14 1845.9,-17.18 1846.28,-10.19"/>
</a>
</g>
</g>
<!-- Node36&#45;&gt;Node14 -->
<g id="edge61_Node000036_Node000014" class="edge">
<title>Node36&#45;&gt;Node14</title>
<g id="a_edge61_Node000036_Node000014"><a xlink:title=" ">
<path fill="none" stroke="#63b8ff" d="M2497.97,-54.75C2500.78,-47.65 2504.84,-37.4 2508.35,-28.56"/>
<polygon fill="#63b8ff" stroke="#63b8ff" points="2511.67,-29.68 2512.1,-19.09 2505.16,-27.1 2511.67,-29.68"/>
</a>
</g>
</g>
<!-- Node37 -->
<g id="Node000037" class="node">
<title>Node37</title>
<g id="a_Node000037"><a xlink:title=" ">
<polygon fill="#e0e0e0" stroke="#999999" points="2762,-19 2589,-19 2589,0 2762,0 2762,-19"/>
<text text-anchor="middle" x="2675.5" y="-7" font-family="Malgun Gothic" font-size="10.00">FCharacterInfoData.generated.h</text>
</a>
</g>
</g>
<!-- Node36&#45;&gt;Node37 -->
<g id="edge62_Node000036_Node000037" class="edge">
<title>Node36&#45;&gt;Node37</title>
<g id="a_edge62_Node000036_Node000037"><a xlink:title=" ">
<path fill="none" stroke="#63b8ff" d="M2523.58,-54.98C2554.1,-46.05 2602.26,-31.94 2636.16,-22.02"/>
<polygon fill="#63b8ff" stroke="#63b8ff" points="2637.58,-25.25 2646.19,-19.08 2635.61,-18.53 2637.58,-25.25"/>
</a>
</g>
</g>
</g>
</svg>
