<?xml version="1.0" encoding="UTF-8" standalone="no"?>
<!DOCTYPE svg PUBLIC "-//W3C//DTD SVG 1.1//EN"
 "http://www.w3.org/Graphics/SVG/1.1/DTD/svg11.dtd">
<!-- Generated by graphviz version 2.43.0 (0)
 -->
<!-- Title: Source/LatteLibrary/Character/Private/ALattePlayerCharacter.cpp Pages: 1 -->
<!--zoomable 280 -->

<svg id="main" version="1.1" xmlns="http://www.w3.org/2000/svg" xmlns:xlink="http://www.w3.org/1999/xlink" xml:space="preserve" onload="init(evt)">
<style type="text/css"><![CDATA[
.node, .edge {opacity: 0.7;}
.node.selected, .edge.selected {opacity: 1;}
.edge:hover path { stroke: red; }
.edge:hover polygon { stroke: red; fill: red; }
]]></style>

<defs>
  <circle id="rim" cx="0" cy="0" r="7"/>
  <circle id="rim2" cx="0" cy="0" r="3.5"/>
  <g id="zoomPlus">
    <use xlink:href="#rim" fill="#404040"><set attributeName="fill" to="#808080" begin="zoomplus.mouseover" end="zoomplus.mouseout"/></use>
    <path d="M-4,0h8M0,-4v8" fill="none" stroke="white" stroke-width="1.5" pointer-events="none"/>
  </g>
  <g id="zoomMin">
    <use xlink:href="#rim" fill="#404040"><set attributeName="fill" to="#808080" begin="zoomminus.mouseover" end="zoomminus.mouseout"/></use>
    <path d="M-4,0h8" fill="none" stroke="white" stroke-width="1.5" pointer-events="none"/>
  </g>
  <g id="arrowUp" transform="translate(30 24)">
    <use xlink:href="#rim"/>
    <path pointer-events="none" fill="none" stroke="white" stroke-width="1.5" d="M0,-3.0v7 M-2.5,-0.5L0,-3.0L2.5,-0.5"/>
  </g>
  <g id="arrowRight" transform="rotate(90) translate(36 -43)">
    <use xlink:href="#rim"/>
    <path pointer-events="none" fill="none" stroke="white" stroke-width="1.5" d="M0,-3.0v7 M-2.5,-0.5L0,-3.0L2.5,-0.5"/>
  </g>
  <g id="arrowDown" transform="rotate(180) translate(-30 -48)">
    <use xlink:href="#rim"/>
    <path pointer-events="none" fill="none" stroke="white" stroke-width="1.5" d="M0,-3.0v7 M-2.5,-0.5L0,-3.0L2.5,-0.5"/>
  </g>
  <g id="arrowLeft" transform="rotate(270) translate(-36 17)">
    <use xlink:href="#rim"/>
    <path pointer-events="none" fill="none" stroke="white" stroke-width="1.5" d="M0,-3.0v7 M-2.5,-0.5L0,-3.0L2.5,-0.5"/>
  </g>
  <g id="resetDef">
    <use xlink:href="#rim2" fill="#404040"><set attributeName="fill" to="#808080" begin="reset.mouseover" end="reset.mouseout"/></use>
  </g>
</defs>
<script type="application/ecmascript">
var viewWidth = 2877;
var viewHeight = 280;
var sectionId = 'dynsection-0';
</script>
<script type="application/ecmascript" xlink:href="svg.min.js"/>
<svg id="graph" class="graph">
<g id="viewport">
<title>Source/LatteLibrary/Character/Private/ALattePlayerCharacter.cpp</title>
<!-- Node1 -->
<g id="Node000001" class="node">
<title>Node1</title>
<g id="a_Node000001"><a xlink:title=" ">
<polygon fill="#999999" stroke="#666666" points="1775.5,-272 1605.5,-272 1605.5,-231 1775.5,-231 1775.5,-272"/>
<text text-anchor="start" x="1613.5" y="-260" font-family="Malgun Gothic" font-size="10.00">Source/LatteLibrary</text>
<text text-anchor="start" x="1613.5" y="-249" font-family="Malgun Gothic" font-size="10.00">/Character/Private/ALattePlayer</text>
<text text-anchor="middle" x="1690.5" y="-238" font-family="Malgun Gothic" font-size="10.00">Character.cpp</text>
</a>
</g>
</g>
<!-- Node2 -->
<g id="Node000002" class="node">
<title>Node2</title>
<g id="a_Node000002"><a xlink:href="ALattePlayerCharacter_8h.html" target="_top" xlink:title=" ">
<polygon fill="white" stroke="#666666" points="1122.5,-189.5 988.5,-189.5 988.5,-170.5 1122.5,-170.5 1122.5,-189.5"/>
<text text-anchor="middle" x="1055.5" y="-177.5" font-family="Malgun Gothic" font-size="10.00">ALattePlayerCharacter.h</text>
</a>
</g>
</g>
<!-- Node1&#45;&gt;Node2 -->
<g id="edge1_Node000001_Node000002" class="edge">
<title>Node1&#45;&gt;Node2</title>
<g id="a_edge1_Node000001_Node000002"><a xlink:title=" ">
<path fill="none" stroke="#63b8ff" d="M1605.19,-241.16C1481.12,-227.58 1252.69,-202.58 1133.11,-189.49"/>
<polygon fill="#63b8ff" stroke="#63b8ff" points="1133.26,-185.99 1122.94,-188.38 1132.5,-192.95 1133.26,-185.99"/>
</a>
</g>
</g>
<!-- Node8 -->
<g id="Node000008" class="node">
<title>Node8</title>
<g id="a_Node000008"><a xlink:href="UStatSystem_8h.html" target="_top" xlink:title="UStatSystem 선언에 대한 Doxygen 주석을 제공합니다.">
<polygon fill="white" stroke="#666666" points="168,-74 79,-74 79,-55 168,-55 168,-74"/>
<text text-anchor="middle" x="123.5" y="-62" font-family="Malgun Gothic" font-size="10.00">UStatSystem.h</text>
</a>
</g>
</g>
<!-- Node1&#45;&gt;Node8 -->
<g id="edge19_Node000001_Node000008" class="edge">
<title>Node1&#45;&gt;Node8</title>
<g id="a_edge19_Node000001_Node000008"><a xlink:title=" ">
<path fill="none" stroke="#63b8ff" d="M1605.17,-249.17C1390.04,-244.46 808.91,-223.28 335.5,-129 270.75,-116.11 197.41,-91.91 156.18,-77.4"/>
<polygon fill="#63b8ff" stroke="#63b8ff" points="157.26,-74.06 146.66,-74.02 154.92,-80.66 157.26,-74.06"/>
</a>
</g>
</g>
<!-- Node16 -->
<g id="Node000016" class="node">
<title>Node16</title>
<g id="a_Node000016"><a xlink:href="UHitStopSystem_8h.html" target="_top" xlink:title="UHitStopSystem 선언에 대한 Doxygen 주석을 제공합니다.">
<polygon fill="white" stroke="#666666" points="1426.5,-129 1320.5,-129 1320.5,-110 1426.5,-110 1426.5,-129"/>
<text text-anchor="middle" x="1373.5" y="-117" font-family="Malgun Gothic" font-size="10.00">UHitStopSystem.h</text>
</a>
</g>
</g>
<!-- Node1&#45;&gt;Node16 -->
<g id="edge20_Node000001_Node000016" class="edge">
<title>Node1&#45;&gt;Node16</title>
<g id="a_edge20_Node000001_Node000016"><a xlink:title=" ">
<path fill="none" stroke="#63b8ff" d="M1637.21,-230.94C1609.45,-220.57 1575.01,-207.44 1544.5,-195 1493.74,-174.31 1435.33,-148.4 1401.59,-133.23"/>
<polygon fill="#63b8ff" stroke="#63b8ff" points="1402.91,-129.98 1392.35,-129.06 1400.03,-136.36 1402.91,-129.98"/>
</a>
</g>
</g>
<!-- Node22 -->
<g id="Node000022" class="node">
<title>Node22</title>
<g id="a_Node000022"><a xlink:href="UKnockbackSystem_8h.html" target="_top" xlink:title="UKnockbackSystem 선언에 대한 Doxygen 주석을 제공합니다.">
<polygon fill="white" stroke="#666666" points="1568,-129 1445,-129 1445,-110 1568,-110 1568,-129"/>
<text text-anchor="middle" x="1506.5" y="-117" font-family="Malgun Gothic" font-size="10.00">UKnockbackSystem.h</text>
</a>
</g>
</g>
<!-- Node1&#45;&gt;Node22 -->
<g id="edge29_Node000001_Node000022" class="edge">
<title>Node1&#45;&gt;Node22</title>
<g id="a_edge29_Node000001_Node000022"><a xlink:title=" ">
<path fill="none" stroke="#63b8ff" d="M1645.13,-230.94C1625.12,-221.39 1601.82,-208.94 1582.5,-195 1558.51,-177.69 1534.81,-152.9 1520.41,-136.75"/>
<polygon fill="#63b8ff" stroke="#63b8ff" points="1523,-134.39 1513.78,-129.17 1517.73,-139 1523,-134.39"/>
</a>
</g>
</g>
<!-- Node26 -->
<g id="Node000026" class="node">
<title>Node26</title>
<g id="a_Node000026"><a xlink:href="UFlySystem_8h.html" target="_top" xlink:title="UFlySystem 선언에 대한 Doxygen 주석을 제공합니다.">
<polygon fill="white" stroke="#666666" points="1927,-74 1842,-74 1842,-55 1927,-55 1927,-74"/>
<text text-anchor="middle" x="1884.5" y="-62" font-family="Malgun Gothic" font-size="10.00">UFlySystem.h</text>
</a>
</g>
</g>
<!-- Node1&#45;&gt;Node26 -->
<g id="edge38_Node000001_Node000026" class="edge">
<title>Node1&#45;&gt;Node26</title>
<g id="a_edge38_Node000001_Node000026"><a xlink:title=" ">
<path fill="none" stroke="#63b8ff" d="M1653.93,-230.91C1640.88,-221.86 1627.65,-209.8 1620.5,-195 1604.06,-160.99 1596.11,-138.85 1620.5,-110 1627.29,-101.97 1756.43,-83.05 1831.53,-72.65"/>
<polygon fill="#63b8ff" stroke="#63b8ff" points="1832.32,-76.08 1841.75,-71.25 1831.37,-69.14 1832.32,-76.08"/>
</a>
</g>
</g>
<!-- Node28 -->
<g id="Node000028" class="node">
<title>Node28</title>
<g id="a_Node000028"><a xlink:href="UCameraShakeSystem_8h.html" target="_top" xlink:title="UCameraShakeSystem 선언에 대한 Doxygen 주석을 제공합니다.">
<polygon fill="white" stroke="#666666" points="2082,-74 1945,-74 1945,-55 2082,-55 2082,-74"/>
<text text-anchor="middle" x="2013.5" y="-62" font-family="Malgun Gothic" font-size="10.00">UCameraShakeSystem.h</text>
</a>
</g>
</g>
<!-- Node1&#45;&gt;Node28 -->
<g id="edge42_Node000001_Node000028" class="edge">
<title>Node1&#45;&gt;Node28</title>
<g id="a_edge42_Node000001_Node000028"><a xlink:title=" ">
<path fill="none" stroke="#63b8ff" d="M1670.98,-230.74C1655.3,-212.44 1638.22,-185.08 1653.5,-165 1687.84,-119.88 1843.26,-89.97 1938.31,-75.55"/>
<polygon fill="#63b8ff" stroke="#63b8ff" points="1939.07,-78.97 1948.45,-74.04 1938.04,-72.05 1939.07,-78.97"/>
</a>
</g>
</g>
<!-- Node30 -->
<g id="Node000030" class="node">
<title>Node30</title>
<g id="a_Node000030"><a xlink:href="Macro_8h.html" target="_top" xlink:title="Manager 모듈에서 공통으로 사용하는 매크로 정의에 대한 Doxygen 주석을 제공합니다.">
<polygon fill="white" stroke="#666666" points="1718.5,-189.5 1662.5,-189.5 1662.5,-170.5 1718.5,-170.5 1718.5,-189.5"/>
<text text-anchor="middle" x="1690.5" y="-177.5" font-family="Malgun Gothic" font-size="10.00">Macro.h</text>
</a>
</g>
</g>
<!-- Node1&#45;&gt;Node30 -->
<g id="edge46_Node000001_Node000030" class="edge">
<title>Node1&#45;&gt;Node30</title>
<g id="a_edge46_Node000001_Node000030"><a xlink:title=" ">
<path fill="none" stroke="#63b8ff" d="M1690.5,-230.77C1690.5,-221.08 1690.5,-209.46 1690.5,-199.88"/>
<polygon fill="#63b8ff" stroke="#63b8ff" points="1694,-199.82 1690.5,-189.82 1687,-199.82 1694,-199.82"/>
</a>
</g>
</g>
<!-- Node31 -->
<g id="Node000031" class="node">
<title>Node31</title>
<g id="a_Node000031"><a xlink:title=" ">
<polygon fill="#e0e0e0" stroke="#999999" points="1908,-189.5 1737,-189.5 1737,-170.5 1908,-170.5 1908,-189.5"/>
<text text-anchor="middle" x="1822.5" y="-177.5" font-family="Malgun Gothic" font-size="10.00">Components/InputComponent.h</text>
</a>
</g>
</g>
<!-- Node1&#45;&gt;Node31 -->
<g id="edge47_Node000001_Node000031" class="edge">
<title>Node1&#45;&gt;Node31</title>
<g id="a_edge47_Node000001_Node000031"><a xlink:title=" ">
<path fill="none" stroke="#63b8ff" d="M1727.62,-230.96C1749.9,-219.22 1777.65,-204.61 1797.37,-194.23"/>
<polygon fill="#63b8ff" stroke="#63b8ff" points="1799.13,-197.26 1806.35,-189.5 1795.87,-191.07 1799.13,-197.26"/>
</a>
</g>
</g>
<!-- Node32 -->
<g id="Node000032" class="node">
<title>Node32</title>
<g id="a_Node000032"><a xlink:title=" ">
<polygon fill="#e0e0e0" stroke="#999999" points="2027,-189.5 1926,-189.5 1926,-170.5 2027,-170.5 2027,-189.5"/>
<text text-anchor="middle" x="1976.5" y="-177.5" font-family="Malgun Gothic" font-size="10.00">InputCoreTypes.h</text>
</a>
</g>
</g>
<!-- Node1&#45;&gt;Node32 -->
<g id="edge48_Node000001_Node000032" class="edge">
<title>Node1&#45;&gt;Node32</title>
<g id="a_edge48_Node000001_Node000032"><a xlink:title=" ">
<path fill="none" stroke="#63b8ff" d="M1770.93,-230.96C1822.93,-218.32 1888.69,-202.34 1931.64,-191.9"/>
<polygon fill="#63b8ff" stroke="#63b8ff" points="1932.62,-195.27 1941.51,-189.5 1930.96,-188.46 1932.62,-195.27"/>
</a>
</g>
</g>
<!-- Node33 -->
<g id="Node000033" class="node">
<title>Node33</title>
<g id="a_Node000033"><a xlink:title=" ">
<polygon fill="#e0e0e0" stroke="#999999" points="2248,-195 2045,-195 2045,-165 2248,-165 2248,-195"/>
<text text-anchor="start" x="2053" y="-183" font-family="Malgun Gothic" font-size="10.00">GameFramework/CharacterMovement</text>
<text text-anchor="middle" x="2146.5" y="-172" font-family="Malgun Gothic" font-size="10.00">Component.h</text>
</a>
</g>
</g>
<!-- Node1&#45;&gt;Node33 -->
<g id="edge49_Node000001_Node000033" class="edge">
<title>Node1&#45;&gt;Node33</title>
<g id="a_edge49_Node000001_Node000033"><a xlink:title=" ">
<path fill="none" stroke="#63b8ff" d="M1775.74,-237.51C1851.87,-225.9 1963.56,-208.88 2044.43,-196.56"/>
<polygon fill="#63b8ff" stroke="#63b8ff" points="2045.28,-199.97 2054.64,-195 2044.22,-193.05 2045.28,-199.97"/>
</a>
</g>
</g>
<!-- Node34 -->
<g id="Node000034" class="node">
<title>Node34</title>
<g id="a_Node000034"><a xlink:title=" ">
<polygon fill="#e0e0e0" stroke="#999999" points="2486.5,-189.5 2266.5,-189.5 2266.5,-170.5 2486.5,-170.5 2486.5,-189.5"/>
<text text-anchor="middle" x="2376.5" y="-177.5" font-family="Malgun Gothic" font-size="10.00">GameFramework/SpringArmComponent.h</text>
</a>
</g>
</g>
<!-- Node1&#45;&gt;Node34 -->
<g id="edge50_Node000001_Node000034" class="edge">
<title>Node1&#45;&gt;Node34</title>
<g id="a_edge50_Node000001_Node000034"><a xlink:title=" ">
<path fill="none" stroke="#63b8ff" d="M1775.57,-242.7C1886.52,-232.4 2086.64,-213.41 2257.5,-195 2269.9,-193.66 2283.03,-192.18 2295.85,-190.7"/>
<polygon fill="#63b8ff" stroke="#63b8ff" points="2296.52,-194.15 2306.05,-189.52 2295.71,-187.2 2296.52,-194.15"/>
</a>
</g>
</g>
<!-- Node35 -->
<g id="Node000035" class="node">
<title>Node35</title>
<g id="a_Node000035"><a xlink:title=" ">
<polygon fill="#e0e0e0" stroke="#999999" points="2666,-189.5 2505,-189.5 2505,-170.5 2666,-170.5 2666,-189.5"/>
<text text-anchor="middle" x="2585.5" y="-177.5" font-family="Malgun Gothic" font-size="10.00">Camera/CameraComponent.h</text>
</a>
</g>
</g>
<!-- Node1&#45;&gt;Node35 -->
<g id="edge51_Node000001_Node000035" class="edge">
<title>Node1&#45;&gt;Node35</title>
<g id="a_edge51_Node000001_Node000035"><a xlink:title=" ">
<path fill="none" stroke="#63b8ff" d="M1775.61,-247.03C1922.73,-240.49 2233.94,-224.31 2495.5,-195 2505.28,-193.9 2515.63,-192.51 2525.69,-191.04"/>
<polygon fill="#63b8ff" stroke="#63b8ff" points="2526.25,-194.49 2535.62,-189.54 2525.21,-187.57 2526.25,-194.49"/>
</a>
</g>
</g>
<!-- Node36 -->
<g id="Node000036" class="node">
<title>Node36</title>
<g id="a_Node000036"><a xlink:title=" ">
<polygon fill="#e0e0e0" stroke="#999999" points="2869,-189.5 2684,-189.5 2684,-170.5 2869,-170.5 2869,-189.5"/>
<text text-anchor="middle" x="2776.5" y="-177.5" font-family="Malgun Gothic" font-size="10.00">Components/CapsuleComponent.h</text>
</a>
</g>
</g>
<!-- Node1&#45;&gt;Node36 -->
<g id="edge52_Node000001_Node000036" class="edge">
<title>Node1&#45;&gt;Node36</title>
<g id="a_edge52_Node000001_Node000036"><a xlink:title=" ">
<path fill="none" stroke="#63b8ff" d="M1775.66,-248.04C1946.59,-242.58 2343.5,-227.31 2675.5,-195 2686.95,-193.89 2699.09,-192.44 2710.84,-190.89"/>
<polygon fill="#63b8ff" stroke="#63b8ff" points="2711.59,-194.32 2721.03,-189.52 2710.65,-187.38 2711.59,-194.32"/>
</a>
</g>
</g>
<!-- Node3 -->
<g id="Node000003" class="node">
<title>Node3</title>
<g id="a_Node000003"><a xlink:title=" ">
<polygon fill="#e0e0e0" stroke="#999999" points="1143.5,-19 1055.5,-19 1055.5,0 1143.5,0 1143.5,-19"/>
<text text-anchor="middle" x="1099.5" y="-7" font-family="Malgun Gothic" font-size="10.00">CoreMinimal.h</text>
</a>
</g>
</g>
<!-- Node2&#45;&gt;Node3 -->
<g id="edge2_Node000002_Node000003" class="edge">
<title>Node2&#45;&gt;Node3</title>
<g id="a_edge2_Node000002_Node000003"><a xlink:title=" ">
<path fill="none" stroke="#63b8ff" d="M1055.77,-170.33C1056.62,-149.75 1060.16,-96.59 1074.5,-55 1077.74,-45.59 1082.95,-35.87 1087.78,-27.92"/>
<polygon fill="#63b8ff" stroke="#63b8ff" points="1090.89,-29.56 1093.32,-19.25 1084.99,-25.8 1090.89,-29.56"/>
</a>
</g>
</g>
<!-- Node4 -->
<g id="Node000004" class="node">
<title>Node4</title>
<g id="a_Node000004"><a xlink:href="ALatteGameCharacter_8h.html" target="_top" xlink:title=" ">
<polygon fill="white" stroke="#666666" points="478,-129 345,-129 345,-110 478,-110 478,-129"/>
<text text-anchor="middle" x="411.5" y="-117" font-family="Malgun Gothic" font-size="10.00">ALatteGameCharacter.h</text>
</a>
</g>
</g>
<!-- Node2&#45;&gt;Node4 -->
<g id="edge3_Node000002_Node000004" class="edge">
<title>Node2&#45;&gt;Node4</title>
<g id="a_edge3_Node000002_Node000004"><a xlink:title=" ">
<path fill="none" stroke="#63b8ff" d="M988.4,-172.91C867.96,-161.96 615.8,-139.06 488.51,-127.5"/>
<polygon fill="#63b8ff" stroke="#63b8ff" points="488.72,-124 478.45,-126.58 488.09,-130.97 488.72,-124"/>
</a>
</g>
</g>
<!-- Node12 -->
<g id="Node000012" class="node">
<title>Node12</title>
<g id="a_Node000012"><a xlink:href="IControllable_8h.html" target="_top" xlink:title="IControllable 인터페이스 선언에 대한 Doxygen 주석을 제공합니다.">
<polygon fill="white" stroke="#666666" points="929.5,-129 841.5,-129 841.5,-110 929.5,-110 929.5,-129"/>
<text text-anchor="middle" x="885.5" y="-117" font-family="Malgun Gothic" font-size="10.00">IControllable.h</text>
</a>
</g>
</g>
<!-- Node2&#45;&gt;Node12 -->
<g id="edge14_Node000002_Node000012" class="edge">
<title>Node2&#45;&gt;Node12</title>
<g id="a_edge14_Node000002_Node000012"><a xlink:title=" ">
<path fill="none" stroke="#63b8ff" d="M1030.78,-170.49C1001.57,-160.44 952.8,-143.66 919.91,-132.34"/>
<polygon fill="#63b8ff" stroke="#63b8ff" points="920.84,-128.96 910.25,-129.02 918.57,-135.58 920.84,-128.96"/>
</a>
</g>
</g>
<!-- Node15 -->
<g id="Node000015" class="node">
<title>Node15</title>
<g id="a_Node000015"><a xlink:title=" ">
<polygon fill="#e0e0e0" stroke="#999999" points="1270,-129 1083,-129 1083,-110 1270,-110 1270,-129"/>
<text text-anchor="middle" x="1176.5" y="-117" font-family="Malgun Gothic" font-size="10.00">ALattePlayerCharacter.generated.h</text>
</a>
</g>
</g>
<!-- Node2&#45;&gt;Node15 -->
<g id="edge18_Node000002_Node000015" class="edge">
<title>Node2&#45;&gt;Node15</title>
<g id="a_edge18_Node000002_Node000015"><a xlink:title=" ">
<path fill="none" stroke="#63b8ff" d="M1073.09,-170.49C1093.26,-160.75 1126.52,-144.66 1149.86,-133.38"/>
<polygon fill="#63b8ff" stroke="#63b8ff" points="1151.4,-136.52 1158.88,-129.02 1148.36,-130.22 1151.4,-136.52"/>
</a>
</g>
</g>
<!-- Node4&#45;&gt;Node3 -->
<g id="edge4_Node000004_Node000003" class="edge">
<title>Node4&#45;&gt;Node3</title>
<g id="a_edge4_Node000004_Node000003"><a xlink:title=" ">
<path fill="none" stroke="#63b8ff" d="M473.05,-109.98C526.19,-102.16 604.83,-89.46 672.5,-74 702.26,-67.2 708.59,-61.11 738.5,-55 846.12,-33.02 974.16,-20.36 1045.18,-14.51"/>
<polygon fill="#63b8ff" stroke="#63b8ff" points="1045.55,-17.99 1055.24,-13.7 1044.99,-11.01 1045.55,-17.99"/>
</a>
</g>
</g>
<!-- Node5 -->
<g id="Node000005" class="node">
<title>Node5</title>
<g id="a_Node000005"><a xlink:title=" ">
<polygon fill="#e0e0e0" stroke="#999999" points="345,-74 186,-74 186,-55 345,-55 345,-74"/>
<text text-anchor="middle" x="265.5" y="-62" font-family="Malgun Gothic" font-size="10.00">GameFramework/Character.h</text>
</a>
</g>
</g>
<!-- Node4&#45;&gt;Node5 -->
<g id="edge5_Node000004_Node000005" class="edge">
<title>Node4&#45;&gt;Node5</title>
<g id="a_edge5_Node000004_Node000005"><a xlink:title=" ">
<path fill="none" stroke="#63b8ff" d="M388.04,-109.98C363.92,-101.23 326.13,-87.51 298.9,-77.62"/>
<polygon fill="#63b8ff" stroke="#63b8ff" points="299.98,-74.29 289.38,-74.17 297.59,-80.87 299.98,-74.29"/>
</a>
</g>
</g>
<!-- Node6 -->
<g id="Node000006" class="node">
<title>Node6</title>
<g id="a_Node000006"><a xlink:href="EBodyPartType_8h.html" target="_top" xlink:title="EBodyPartType 열거형에 대한 Doxygen 주석을 제공합니다.">
<polygon fill="white" stroke="#666666" points="460.5,-74 362.5,-74 362.5,-55 460.5,-55 460.5,-74"/>
<text text-anchor="middle" x="411.5" y="-62" font-family="Malgun Gothic" font-size="10.00">EBodyPartType.h</text>
</a>
</g>
</g>
<!-- Node4&#45;&gt;Node6 -->
<g id="edge6_Node000004_Node000006" class="edge">
<title>Node4&#45;&gt;Node6</title>
<g id="a_edge6_Node000004_Node000006"><a xlink:title=" ">
<path fill="none" stroke="#63b8ff" d="M411.5,-109.75C411.5,-102.8 411.5,-92.85 411.5,-84.13"/>
<polygon fill="#63b8ff" stroke="#63b8ff" points="415,-84.09 411.5,-74.09 408,-84.09 415,-84.09"/>
</a>
</g>
</g>
<!-- Node7 -->
<g id="Node000007" class="node">
<title>Node7</title>
<g id="a_Node000007"><a xlink:href="ECharacterType_8h.html" target="_top" xlink:title="ECharacterType 열거형에 대한 Doxygen 주석을 제공합니다.">
<polygon fill="white" stroke="#666666" points="101,-19 0,-19 0,0 101,0 101,-19"/>
<text text-anchor="middle" x="50.5" y="-7" font-family="Malgun Gothic" font-size="10.00">ECharacterType.h</text>
</a>
</g>
</g>
<!-- Node4&#45;&gt;Node7 -->
<g id="edge7_Node000004_Node000007" class="edge">
<title>Node4&#45;&gt;Node7</title>
<g id="a_edge7_Node000004_Node000007"><a xlink:title=" ">
<path fill="none" stroke="#63b8ff" d="M344.68,-118.19C257.07,-116.41 109.75,-108.23 69.5,-74 56.63,-63.06 52.28,-43.79 50.9,-29.34"/>
<polygon fill="#63b8ff" stroke="#63b8ff" points="54.38,-28.83 50.33,-19.04 47.39,-29.22 54.38,-28.83"/>
</a>
</g>
</g>
<!-- Node4&#45;&gt;Node8 -->
<g id="edge8_Node000004_Node000008" class="edge">
<title>Node4&#45;&gt;Node8</title>
<g id="a_edge8_Node000004_Node000008"><a xlink:title=" ">
<path fill="none" stroke="#63b8ff" d="M365.23,-109.98C314.29,-100.61 232.46,-85.55 178.34,-75.59"/>
<polygon fill="#63b8ff" stroke="#63b8ff" points="178.7,-72.1 168.24,-73.73 177.44,-78.98 178.7,-72.1"/>
</a>
</g>
</g>
<!-- Node11 -->
<g id="Node000011" class="node">
<title>Node11</title>
<g id="a_Node000011"><a xlink:title=" ">
<polygon fill="#e0e0e0" stroke="#999999" points="664,-74 479,-74 479,-55 664,-55 664,-74"/>
<text text-anchor="middle" x="571.5" y="-62" font-family="Malgun Gothic" font-size="10.00">ALatteGameCharacter.generated.h</text>
</a>
</g>
</g>
<!-- Node4&#45;&gt;Node11 -->
<g id="edge13_Node000004_Node000011" class="edge">
<title>Node4&#45;&gt;Node11</title>
<g id="a_edge13_Node000004_Node000011"><a xlink:title=" ">
<path fill="none" stroke="#63b8ff" d="M437.21,-109.98C463.95,-101.13 506.03,-87.19 535.95,-77.28"/>
<polygon fill="#63b8ff" stroke="#63b8ff" points="537.2,-80.55 545.59,-74.08 535,-73.9 537.2,-80.55"/>
</a>
</g>
</g>
<!-- Node8&#45;&gt;Node3 -->
<g id="edge9_Node000008_Node000003" class="edge">
<title>Node8&#45;&gt;Node3</title>
<g id="a_edge9_Node000008_Node000003"><a xlink:title=" ">
<path fill="none" stroke="#63b8ff" d="M168.27,-55.96C171.05,-55.6 173.81,-55.28 176.5,-55 504.97,-20.85 901.98,-12.85 1044.93,-11.02"/>
<polygon fill="#63b8ff" stroke="#63b8ff" points="1045.22,-14.52 1055.18,-10.9 1045.14,-7.52 1045.22,-14.52"/>
</a>
</g>
</g>
<!-- Node8&#45;&gt;Node7 -->
<g id="edge10_Node000008_Node000007" class="edge">
<title>Node8&#45;&gt;Node7</title>
<g id="a_edge10_Node000008_Node000007"><a xlink:title=" ">
<path fill="none" stroke="#63b8ff" d="M111.77,-54.98C100.77,-47 84.08,-34.88 70.9,-25.31"/>
<polygon fill="#63b8ff" stroke="#63b8ff" points="72.59,-22.21 62.44,-19.17 68.48,-27.88 72.59,-22.21"/>
</a>
</g>
</g>
<!-- Node9 -->
<g id="Node000009" class="node">
<title>Node9</title>
<g id="a_Node000009"><a xlink:title=" ">
<polygon fill="#e0e0e0" stroke="#999999" points="1916.5,-19 1744.5,-19 1744.5,0 1916.5,0 1916.5,-19"/>
<text text-anchor="middle" x="1830.5" y="-7" font-family="Malgun Gothic" font-size="10.00">Components/ActorComponent.h</text>
</a>
</g>
</g>
<!-- Node8&#45;&gt;Node9 -->
<g id="edge11_Node000008_Node000009" class="edge">
<title>Node8&#45;&gt;Node9</title>
<g id="a_edge11_Node000008_Node000009"><a xlink:title=" ">
<path fill="none" stroke="#63b8ff" d="M168.27,-55.88C171.05,-55.54 173.81,-55.25 176.5,-55 863.33,7.71 1041.78,-57.26 1734.08,-19.03"/>
<polygon fill="#63b8ff" stroke="#63b8ff" points="1734.52,-22.51 1744.3,-18.46 1734.13,-15.52 1734.52,-22.51"/>
</a>
</g>
</g>
<!-- Node10 -->
<g id="Node000010" class="node">
<title>Node10</title>
<g id="a_Node000010"><a xlink:title=" ">
<polygon fill="#e0e0e0" stroke="#999999" points="261.5,-19 119.5,-19 119.5,0 261.5,0 261.5,-19"/>
<text text-anchor="middle" x="190.5" y="-7" font-family="Malgun Gothic" font-size="10.00">UStatSystem.generated.h</text>
</a>
</g>
</g>
<!-- Node8&#45;&gt;Node10 -->
<g id="edge12_Node000008_Node000010" class="edge">
<title>Node8&#45;&gt;Node10</title>
<g id="a_edge12_Node000008_Node000010"><a xlink:title=" ">
<path fill="none" stroke="#63b8ff" d="M134.26,-54.98C144.27,-47.07 159.39,-35.11 171.43,-25.58"/>
<polygon fill="#63b8ff" stroke="#63b8ff" points="173.87,-28.12 179.54,-19.17 169.53,-22.63 173.87,-28.12"/>
</a>
</g>
</g>
<!-- Node12&#45;&gt;Node3 -->
<g id="edge15_Node000012_Node000003" class="edge">
<title>Node12&#45;&gt;Node3</title>
<g id="a_edge15_Node000012_Node000003"><a xlink:title=" ">
<path fill="none" stroke="#63b8ff" d="M841.3,-113.4C790.78,-105.87 718.69,-88.83 748.5,-55 767.78,-33.12 951.56,-19.22 1045.21,-13.49"/>
<polygon fill="#63b8ff" stroke="#63b8ff" points="1045.58,-16.98 1055.35,-12.88 1045.16,-9.99 1045.58,-16.98"/>
</a>
</g>
</g>
<!-- Node13 -->
<g id="Node000013" class="node">
<title>Node13</title>
<g id="a_Node000013"><a xlink:title=" ">
<polygon fill="#e0e0e0" stroke="#999999" points="869,-74 758,-74 758,-55 869,-55 869,-74"/>
<text text-anchor="middle" x="813.5" y="-62" font-family="Malgun Gothic" font-size="10.00">UObject/Interface.h</text>
</a>
</g>
</g>
<!-- Node12&#45;&gt;Node13 -->
<g id="edge16_Node000012_Node000013" class="edge">
<title>Node12&#45;&gt;Node13</title>
<g id="a_edge16_Node000012_Node000013"><a xlink:title=" ">
<path fill="none" stroke="#63b8ff" d="M873.93,-109.98C863.08,-102 846.62,-89.88 833.62,-80.31"/>
<polygon fill="#63b8ff" stroke="#63b8ff" points="835.41,-77.28 825.28,-74.17 831.26,-82.92 835.41,-77.28"/>
</a>
</g>
</g>
<!-- Node14 -->
<g id="Node000014" class="node">
<title>Node14</title>
<g id="a_Node000014"><a xlink:title=" ">
<polygon fill="#e0e0e0" stroke="#999999" points="1027.5,-74 887.5,-74 887.5,-55 1027.5,-55 1027.5,-74"/>
<text text-anchor="middle" x="957.5" y="-62" font-family="Malgun Gothic" font-size="10.00">IControllable.generated.h</text>
</a>
</g>
</g>
<!-- Node12&#45;&gt;Node14 -->
<g id="edge17_Node000012_Node000014" class="edge">
<title>Node12&#45;&gt;Node14</title>
<g id="a_edge17_Node000012_Node000014"><a xlink:title=" ">
<path fill="none" stroke="#63b8ff" d="M897.07,-109.98C907.92,-102 924.38,-89.88 937.38,-80.31"/>
<polygon fill="#63b8ff" stroke="#63b8ff" points="939.74,-82.92 945.72,-74.17 935.59,-77.28 939.74,-82.92"/>
</a>
</g>
</g>
<!-- Node16&#45;&gt;Node3 -->
<g id="edge21_Node000016_Node000003" class="edge">
<title>Node16&#45;&gt;Node3</title>
<g id="a_edge21_Node000016_Node000003"><a xlink:title=" ">
<path fill="none" stroke="#63b8ff" d="M1359.16,-109.95C1336.63,-96.79 1291.32,-71.38 1250.5,-55 1216.09,-41.19 1175.74,-29.52 1145.42,-21.6"/>
<polygon fill="#63b8ff" stroke="#63b8ff" points="1146.1,-18.16 1135.54,-19.06 1144.35,-24.94 1146.1,-18.16"/>
</a>
</g>
</g>
<!-- Node16&#45;&gt;Node9 -->
<g id="edge22_Node000016_Node000009" class="edge">
<title>Node16&#45;&gt;Node9</title>
<g id="a_edge22_Node000016_Node000009"><a xlink:title=" ">
<path fill="none" stroke="#63b8ff" d="M1423.76,-109.97C1462.39,-102.63 1516.7,-90.59 1562.5,-74 1580.25,-67.57 1582.62,-61.07 1600.5,-55 1649.01,-38.52 1705.47,-27.49 1750.31,-20.53"/>
<polygon fill="#63b8ff" stroke="#63b8ff" points="1750.92,-23.98 1760.28,-19.02 1749.87,-17.06 1750.92,-23.98"/>
</a>
</g>
</g>
<!-- Node17 -->
<g id="Node000017" class="node">
<title>Node17</title>
<g id="a_Node000017"><a xlink:href="FHitStopData_8h.html" target="_top" xlink:title="FHitStopData 구조체에 대한 Doxygen 주석을 제공합니다.">
<polygon fill="white" stroke="#666666" points="1427,-74 1336,-74 1336,-55 1427,-55 1427,-74"/>
<text text-anchor="middle" x="1381.5" y="-62" font-family="Malgun Gothic" font-size="10.00">FHitStopData.h</text>
</a>
</g>
</g>
<!-- Node16&#45;&gt;Node17 -->
<g id="edge23_Node000016_Node000017" class="edge">
<title>Node16&#45;&gt;Node17</title>
<g id="a_edge23_Node000016_Node000017"><a xlink:title=" ">
<path fill="none" stroke="#63b8ff" d="M1374.82,-109.75C1375.87,-102.8 1377.37,-92.85 1378.69,-84.13"/>
<polygon fill="#63b8ff" stroke="#63b8ff" points="1382.17,-84.5 1380.2,-74.09 1375.25,-83.45 1382.17,-84.5"/>
</a>
</g>
</g>
<!-- Node21 -->
<g id="Node000021" class="node">
<title>Node21</title>
<g id="a_Node000021"><a xlink:title=" ">
<polygon fill="#e0e0e0" stroke="#999999" points="1241.5,-74 1083.5,-74 1083.5,-55 1241.5,-55 1241.5,-74"/>
<text text-anchor="middle" x="1162.5" y="-62" font-family="Malgun Gothic" font-size="10.00">UHitStopSystem.generated.h</text>
</a>
</g>
</g>
<!-- Node16&#45;&gt;Node21 -->
<g id="edge28_Node000016_Node000021" class="edge">
<title>Node16&#45;&gt;Node21</title>
<g id="a_edge28_Node000016_Node000021"><a xlink:title=" ">
<path fill="none" stroke="#63b8ff" d="M1339.6,-109.98C1303.48,-100.91 1246.18,-86.52 1206.58,-76.57"/>
<polygon fill="#63b8ff" stroke="#63b8ff" points="1207.22,-73.12 1196.67,-74.08 1205.51,-79.91 1207.22,-73.12"/>
</a>
</g>
</g>
<!-- Node17&#45;&gt;Node3 -->
<g id="edge24_Node000017_Node000003" class="edge">
<title>Node17&#45;&gt;Node3</title>
<g id="a_edge24_Node000017_Node000003"><a xlink:title=" ">
<path fill="none" stroke="#63b8ff" d="M1336.19,-54.98C1286.46,-45.64 1206.66,-30.64 1153.66,-20.68"/>
<polygon fill="#63b8ff" stroke="#63b8ff" points="1154.24,-17.23 1143.77,-18.82 1152.95,-24.11 1154.24,-17.23"/>
</a>
</g>
</g>
<!-- Node18 -->
<g id="Node000018" class="node">
<title>Node18</title>
<g id="a_Node000018"><a xlink:href="EDamageType_8h.html" target="_top" xlink:title="EDamageType 열거형에 대한 Doxygen 주석을 제공합니다.">
<polygon fill="white" stroke="#666666" points="1547,-19 1452,-19 1452,0 1547,0 1547,-19"/>
<text text-anchor="middle" x="1499.5" y="-7" font-family="Malgun Gothic" font-size="10.00">EDamageType.h</text>
</a>
</g>
</g>
<!-- Node17&#45;&gt;Node18 -->
<g id="edge25_Node000017_Node000018" class="edge">
<title>Node17&#45;&gt;Node18</title>
<g id="a_edge25_Node000017_Node000018"><a xlink:title=" ">
<path fill="none" stroke="#63b8ff" d="M1400.46,-54.98C1419.53,-46.42 1449.16,-33.11 1471.05,-23.28"/>
<polygon fill="#63b8ff" stroke="#63b8ff" points="1472.51,-26.46 1480.2,-19.17 1469.64,-20.07 1472.51,-26.46"/>
</a>
</g>
</g>
<!-- Node19 -->
<g id="Node000019" class="node">
<title>Node19</title>
<g id="a_Node000019"><a xlink:title=" ">
<polygon fill="#e0e0e0" stroke="#999999" points="1433.5,-19 1323.5,-19 1323.5,0 1433.5,0 1433.5,-19"/>
<text text-anchor="middle" x="1378.5" y="-7" font-family="Malgun Gothic" font-size="10.00">Engine/DataTable.h</text>
</a>
</g>
</g>
<!-- Node17&#45;&gt;Node19 -->
<g id="edge26_Node000017_Node000019" class="edge">
<title>Node17&#45;&gt;Node19</title>
<g id="a_edge26_Node000017_Node000019"><a xlink:title=" ">
<path fill="none" stroke="#63b8ff" d="M1381,-54.75C1380.61,-47.8 1380.05,-37.85 1379.55,-29.13"/>
<polygon fill="#63b8ff" stroke="#63b8ff" points="1383.05,-28.88 1378.99,-19.09 1376.06,-29.27 1383.05,-28.88"/>
</a>
</g>
</g>
<!-- Node20 -->
<g id="Node000020" class="node">
<title>Node20</title>
<g id="a_Node000020"><a xlink:title=" ">
<polygon fill="#e0e0e0" stroke="#999999" points="1305,-19 1162,-19 1162,0 1305,0 1305,-19"/>
<text text-anchor="middle" x="1233.5" y="-7" font-family="Malgun Gothic" font-size="10.00">FHitStopData.generated.h</text>
</a>
</g>
</g>
<!-- Node17&#45;&gt;Node20 -->
<g id="edge27_Node000017_Node000020" class="edge">
<title>Node17&#45;&gt;Node20</title>
<g id="a_edge27_Node000017_Node000020"><a xlink:title=" ">
<path fill="none" stroke="#63b8ff" d="M1357.72,-54.98C1333.27,-46.23 1294.97,-32.51 1267.35,-22.62"/>
<polygon fill="#63b8ff" stroke="#63b8ff" points="1268.31,-19.25 1257.71,-19.17 1265.95,-25.84 1268.31,-19.25"/>
</a>
</g>
</g>
<!-- Node22&#45;&gt;Node3 -->
<g id="edge30_Node000022_Node000003" class="edge">
<title>Node22&#45;&gt;Node3</title>
<g id="a_edge30_Node000022_Node000003"><a xlink:title=" ">
<path fill="none" stroke="#63b8ff" d="M1463.22,-109.93C1426.59,-102.16 1372.94,-89.56 1327.5,-74 1307.73,-67.23 1304.29,-61.69 1284.5,-55 1241.45,-40.44 1191.25,-28.68 1154.01,-20.91"/>
<polygon fill="#63b8ff" stroke="#63b8ff" points="1154.37,-17.41 1143.87,-18.83 1152.96,-24.27 1154.37,-17.41"/>
</a>
</g>
</g>
<!-- Node22&#45;&gt;Node9 -->
<g id="edge31_Node000022_Node000009" class="edge">
<title>Node22&#45;&gt;Node9</title>
<g id="a_edge31_Node000022_Node000009"><a xlink:title=" ">
<path fill="none" stroke="#63b8ff" d="M1568.18,-110.36C1650,-99.36 1785.25,-80.39 1794.5,-74 1810.11,-63.22 1819.77,-43.34 1825.11,-28.69"/>
<polygon fill="#63b8ff" stroke="#63b8ff" points="1828.45,-29.74 1828.25,-19.14 1821.8,-27.55 1828.45,-29.74"/>
</a>
</g>
</g>
<!-- Node23 -->
<g id="Node000023" class="node">
<title>Node23</title>
<g id="a_Node000023"><a xlink:href="FKnockbackData_8h.html" target="_top" xlink:title="FKnockbackData 구조체에 대한 Doxygen 주석을 제공합니다.">
<polygon fill="white" stroke="#666666" points="1553.5,-74 1445.5,-74 1445.5,-55 1553.5,-55 1553.5,-74"/>
<text text-anchor="middle" x="1499.5" y="-62" font-family="Malgun Gothic" font-size="10.00">FKnockbackData.h</text>
</a>
</g>
</g>
<!-- Node22&#45;&gt;Node23 -->
<g id="edge32_Node000022_Node000023" class="edge">
<title>Node22&#45;&gt;Node23</title>
<g id="a_edge32_Node000022_Node000023"><a xlink:title=" ">
<path fill="none" stroke="#63b8ff" d="M1505.34,-109.75C1504.43,-102.8 1503.11,-92.85 1501.96,-84.13"/>
<polygon fill="#63b8ff" stroke="#63b8ff" points="1505.41,-83.54 1500.63,-74.09 1498.47,-84.46 1505.41,-83.54"/>
</a>
</g>
</g>
<!-- Node25 -->
<g id="Node000025" class="node">
<title>Node25</title>
<g id="a_Node000025"><a xlink:title=" ">
<polygon fill="#e0e0e0" stroke="#999999" points="1785.5,-74 1609.5,-74 1609.5,-55 1785.5,-55 1785.5,-74"/>
<text text-anchor="middle" x="1697.5" y="-62" font-family="Malgun Gothic" font-size="10.00">UKnockbackSystem.generated.h</text>
</a>
</g>
</g>
<!-- Node22&#45;&gt;Node25 -->
<g id="edge37_Node000022_Node000025" class="edge">
<title>Node22&#45;&gt;Node25</title>
<g id="a_edge37_Node000022_Node000025"><a xlink:title=" ">
<path fill="none" stroke="#63b8ff" d="M1537.19,-109.98C1569.67,-100.97 1621.1,-86.7 1656.91,-76.76"/>
<polygon fill="#63b8ff" stroke="#63b8ff" points="1657.87,-80.13 1666.57,-74.08 1656,-73.38 1657.87,-80.13"/>
</a>
</g>
</g>
<!-- Node23&#45;&gt;Node3 -->
<g id="edge33_Node000023_Node000003" class="edge">
<title>Node23&#45;&gt;Node3</title>
<g id="a_edge33_Node000023_Node000003"><a xlink:title=" ">
<path fill="none" stroke="#63b8ff" d="M1445.21,-56.15C1442.26,-55.76 1439.35,-55.37 1436.5,-55 1313.98,-38.94 1280.7,-36.95 1153.8,-19"/>
<polygon fill="#63b8ff" stroke="#63b8ff" points="1154.08,-15.51 1143.69,-17.56 1153.1,-22.44 1154.08,-15.51"/>
</a>
</g>
</g>
<!-- Node23&#45;&gt;Node18 -->
<g id="edge34_Node000023_Node000018" class="edge">
<title>Node23&#45;&gt;Node18</title>
<g id="a_edge34_Node000023_Node000018"><a xlink:title=" ">
<path fill="none" stroke="#63b8ff" d="M1499.5,-54.75C1499.5,-47.8 1499.5,-37.85 1499.5,-29.13"/>
<polygon fill="#63b8ff" stroke="#63b8ff" points="1503,-29.09 1499.5,-19.09 1496,-29.09 1503,-29.09"/>
</a>
</g>
</g>
<!-- Node23&#45;&gt;Node19 -->
<g id="edge35_Node000023_Node000019" class="edge">
<title>Node23&#45;&gt;Node19</title>
<g id="a_edge35_Node000023_Node000019"><a xlink:title=" ">
<path fill="none" stroke="#63b8ff" d="M1480.06,-54.98C1460.51,-46.42 1430.12,-33.11 1407.68,-23.28"/>
<polygon fill="#63b8ff" stroke="#63b8ff" points="1408.86,-19.98 1398.29,-19.17 1406.05,-26.39 1408.86,-19.98"/>
</a>
</g>
</g>
<!-- Node24 -->
<g id="Node000024" class="node">
<title>Node24</title>
<g id="a_Node000024"><a xlink:title=" ">
<polygon fill="#e0e0e0" stroke="#999999" points="1726,-19 1565,-19 1565,0 1726,0 1726,-19"/>
<text text-anchor="middle" x="1645.5" y="-7" font-family="Malgun Gothic" font-size="10.00">FKnockbackData.generated.h</text>
</a>
</g>
</g>
<!-- Node23&#45;&gt;Node24 -->
<g id="edge36_Node000023_Node000024" class="edge">
<title>Node23&#45;&gt;Node24</title>
<g id="a_edge36_Node000023_Node000024"><a xlink:title=" ">
<path fill="none" stroke="#63b8ff" d="M1522.96,-54.98C1547.08,-46.23 1584.87,-32.51 1612.1,-22.62"/>
<polygon fill="#63b8ff" stroke="#63b8ff" points="1613.41,-25.87 1621.62,-19.17 1611.02,-19.29 1613.41,-25.87"/>
</a>
</g>
</g>
<!-- Node26&#45;&gt;Node3 -->
<g id="edge39_Node000026_Node000003" class="edge">
<title>Node26&#45;&gt;Node3</title>
<g id="a_edge39_Node000026_Node000003"><a xlink:title=" ">
<path fill="none" stroke="#63b8ff" d="M1841.95,-59.15C1826.96,-57.7 1809.99,-56.17 1794.5,-55 1513.3,-33.83 1438.97,-48.86 1153.89,-18.9"/>
<polygon fill="#63b8ff" stroke="#63b8ff" points="1153.97,-15.39 1143.66,-17.82 1153.23,-22.35 1153.97,-15.39"/>
</a>
</g>
</g>
<!-- Node26&#45;&gt;Node9 -->
<g id="edge40_Node000026_Node000009" class="edge">
<title>Node26&#45;&gt;Node9</title>
<g id="a_edge40_Node000026_Node000009"><a xlink:title=" ">
<path fill="none" stroke="#63b8ff" d="M1875.58,-54.75C1867.72,-47.03 1856.07,-35.6 1846.58,-26.28"/>
<polygon fill="#63b8ff" stroke="#63b8ff" points="1848.84,-23.6 1839.25,-19.09 1843.94,-28.59 1848.84,-23.6"/>
</a>
</g>
</g>
<!-- Node27 -->
<g id="Node000027" class="node">
<title>Node27</title>
<g id="a_Node000027"><a xlink:title=" ">
<polygon fill="#e0e0e0" stroke="#999999" points="2072,-19 1935,-19 1935,0 2072,0 2072,-19"/>
<text text-anchor="middle" x="2003.5" y="-7" font-family="Malgun Gothic" font-size="10.00">UFlySystem.generated.h</text>
</a>
</g>
</g>
<!-- Node26&#45;&gt;Node27 -->
<g id="edge41_Node000026_Node000027" class="edge">
<title>Node26&#45;&gt;Node27</title>
<g id="a_edge41_Node000026_Node000027"><a xlink:title=" ">
<path fill="none" stroke="#63b8ff" d="M1903.62,-54.98C1922.85,-46.42 1952.73,-33.11 1974.81,-23.28"/>
<polygon fill="#63b8ff" stroke="#63b8ff" points="1976.32,-26.44 1984.03,-19.17 1973.47,-20.04 1976.32,-26.44"/>
</a>
</g>
</g>
<!-- Node28&#45;&gt;Node3 -->
<g id="edge43_Node000028_Node000003" class="edge">
<title>Node28&#45;&gt;Node3</title>
<g id="a_edge43_Node000028_Node000003"><a xlink:title=" ">
<path fill="none" stroke="#63b8ff" d="M1944.67,-55.68C1941.91,-55.44 1939.18,-55.21 1936.5,-55 1592.5,-28.13 1501.81,-53.64 1153.76,-18.88"/>
<polygon fill="#63b8ff" stroke="#63b8ff" points="1153.95,-15.38 1143.65,-17.86 1153.25,-22.34 1153.95,-15.38"/>
</a>
</g>
</g>
<!-- Node28&#45;&gt;Node9 -->
<g id="edge44_Node000028_Node000009" class="edge">
<title>Node28&#45;&gt;Node9</title>
<g id="a_edge44_Node000028_Node000009"><a xlink:title=" ">
<path fill="none" stroke="#63b8ff" d="M1984.1,-54.98C1953.11,-46.01 1904.12,-31.82 1869.83,-21.89"/>
<polygon fill="#63b8ff" stroke="#63b8ff" points="1870.71,-18.5 1860.13,-19.08 1868.76,-25.23 1870.71,-18.5"/>
</a>
</g>
</g>
<!-- Node29 -->
<g id="Node000029" class="node">
<title>Node29</title>
<g id="a_Node000029"><a xlink:title=" ">
<polygon fill="#e0e0e0" stroke="#999999" points="2280.5,-19 2090.5,-19 2090.5,0 2280.5,0 2280.5,-19"/>
<text text-anchor="middle" x="2185.5" y="-7" font-family="Malgun Gothic" font-size="10.00">UCameraShakeSystem.generated.h</text>
</a>
</g>
</g>
<!-- Node28&#45;&gt;Node29 -->
<g id="edge45_Node000028_Node000029" class="edge">
<title>Node28&#45;&gt;Node29</title>
<g id="a_edge45_Node000028_Node000029"><a xlink:title=" ">
<path fill="none" stroke="#63b8ff" d="M2041.13,-54.98C2070.01,-46.09 2115.51,-32.07 2147.7,-22.15"/>
<polygon fill="#63b8ff" stroke="#63b8ff" points="2149.12,-25.37 2157.65,-19.08 2147.06,-18.68 2149.12,-25.37"/>
</a>
</g>
</g>
</g>
</svg>

<g id="navigator" transform="translate(0 0)" fill="#404254">
  <rect fill="#f2f5e9" fill-opacity="0.5" stroke="#606060" stroke-width=".5" x="0" y="0" width="60" height="60"/>
  <use id="zoomplus" xlink:href="#zoomPlus" x="17" y="9" onmousedown="handleZoom(evt,'in')"/>
  <use id="zoomminus" xlink:href="#zoomMin" x="42" y="9" onmousedown="handleZoom(evt,'out')"/>
  <use id="reset" xlink:href="#resetDef" x="30" y="36" onmousedown="handleReset()"/>
   <use id="arrowup" xlink:href="#arrowUp" x="0" y="0" onmousedown="handlePan(0,-1)"/>
  <use id="arrowright" xlink:href="#arrowRight" x="0" y="0" onmousedown="handlePan(1,0)"/>
  <use id="arrowdown" xlink:href="#arrowDown" x="0" y="0" onmousedown="handlePan(0,1)"/>
  <use id="arrowleft" xlink:href="#arrowLeft" x="0" y="0" onmousedown="handlePan(-1,0)"/>
</g>
<svg viewBox="0 0 15 15" width="100%" height="30px" preserveAspectRatio="xMaxYMin meet">
 <g id="arrow_out" transform="scale(0.3 0.3)">
  <a xlink:href="ALattePlayerCharacter_8cpp__incl_org.svg" target="_base">
   <rect id="button" ry="5" rx="5" y="6" x="6" height="38" width="38"
        fill="#f2f5e9" fill-opacity="0.5" stroke="#606060" stroke-width="1.0"/>
   <path id="arrow"
     d="M 11.500037,31.436501 C 11.940474,20.09759 22.043105,11.32322 32.158766,21.979434 L 37.068811,17.246167 C 37.068811,17.246167 37.088388,32 37.088388,32 L 22.160133,31.978069 C 22.160133,31.978069 26.997745,27.140456 26.997745,27.140456 C 18.528582,18.264221 13.291696,25.230495 11.500037,31.436501 z"
     style="fill:#404040;"/>
  </a>
 </g>
</svg>

<style type='text/css'>
<![CDATA[
[data-mouse-over-selected='false'] { opacity: 0.7; }
[data-mouse-over-selected='true']  { opacity: 1.0; }
]]>
</style>
<script type="application/ecmascript"><![CDATA[
document.addEventListener('DOMContentLoaded', (event) => {
  highlightEdges();
  highlightAdjacentNodes();
});
]]></script>
</svg>
