<?xml version="1.0" encoding="UTF-8" standalone="no"?>
<!DOCTYPE svg PUBLIC "-//W3C//DTD SVG 1.1//EN"
 "http://www.w3.org/Graphics/SVG/1.1/DTD/svg11.dtd">
<!-- Generated by graphviz version 2.43.0 (0)
 -->
<!-- Title: Source/LatteLibrary/Network/Private/ANetworkTesterActor.cpp Pages: 1 -->
<!--zoomable 280 -->

<svg id="main" version="1.1" xmlns="http://www.w3.org/2000/svg" xmlns:xlink="http://www.w3.org/1999/xlink" xml:space="preserve" onload="init(evt)">
<style type="text/css"><![CDATA[
.node, .edge {opacity: 0.7;}
.node.selected, .edge.selected {opacity: 1;}
.edge:hover path { stroke: red; }
.edge:hover polygon { stroke: red; fill: red; }
]]></style>

<defs>
  <circle id="rim" cx="0" cy="0" r="7"/>
  <circle id="rim2" cx="0" cy="0" r="3.5"/>
  <g id="zoomPlus">
    <use xlink:href="#rim" fill="#404040"><set attributeName="fill" to="#808080" begin="zoomplus.mouseover" end="zoomplus.mouseout"/></use>
    <path d="M-4,0h8M0,-4v8" fill="none" stroke="white" stroke-width="1.5" pointer-events="none"/>
  </g>
  <g id="zoomMin">
    <use xlink:href="#rim" fill="#404040"><set attributeName="fill" to="#808080" begin="zoomminus.mouseover" end="zoomminus.mouseout"/></use>
    <path d="M-4,0h8" fill="none" stroke="white" stroke-width="1.5" pointer-events="none"/>
  </g>
  <g id="arrowUp" transform="translate(30 24)">
    <use xlink:href="#rim"/>
    <path pointer-events="none" fill="none" stroke="white" stroke-width="1.5" d="M0,-3.0v7 M-2.5,-0.5L0,-3.0L2.5,-0.5"/>
  </g>
  <g id="arrowRight" transform="rotate(90) translate(36 -43)">
    <use xlink:href="#rim"/>
    <path pointer-events="none" fill="none" stroke="white" stroke-width="1.5" d="M0,-3.0v7 M-2.5,-0.5L0,-3.0L2.5,-0.5"/>
  </g>
  <g id="arrowDown" transform="rotate(180) translate(-30 -48)">
    <use xlink:href="#rim"/>
    <path pointer-events="none" fill="none" stroke="white" stroke-width="1.5" d="M0,-3.0v7 M-2.5,-0.5L0,-3.0L2.5,-0.5"/>
  </g>
  <g id="arrowLeft" transform="rotate(270) translate(-36 17)">
    <use xlink:href="#rim"/>
    <path pointer-events="none" fill="none" stroke="white" stroke-width="1.5" d="M0,-3.0v7 M-2.5,-0.5L0,-3.0L2.5,-0.5"/>
  </g>
  <g id="resetDef">
    <use xlink:href="#rim2" fill="#404040"><set attributeName="fill" to="#808080" begin="reset.mouseover" end="reset.mouseout"/></use>
  </g>
</defs>
<script type="application/ecmascript">
var viewWidth = 2992;
var viewHeight = 280;
var sectionId = 'dynsection-0';
</script>
<script type="application/ecmascript" xlink:href="svg.min.js"/>
<svg id="graph" class="graph">
<g id="viewport">
<title>Source/LatteLibrary/Network/Private/ANetworkTesterActor.cpp</title>
<!-- Node1 -->
<g id="Node000001" class="node">
<title>Node1</title>
<g id="a_Node000001"><a xlink:title="ANetworkTesterActor 구현에 대한 Doxygen 주석을 제공합니다.">
<polygon fill="#999999" stroke="#666666" points="1138,-272 959,-272 959,-231 1138,-231 1138,-272"/>
<text text-anchor="start" x="967" y="-260" font-family="Malgun Gothic" font-size="10.00">Source/LatteLibrary</text>
<text text-anchor="start" x="967" y="-249" font-family="Malgun Gothic" font-size="10.00">/Network/Private/ANetworkTester</text>
<text text-anchor="middle" x="1048.5" y="-238" font-family="Malgun Gothic" font-size="10.00">Actor.cpp</text>
</a>
</g>
</g>
<!-- Node2 -->
<g id="Node000002" class="node">
<title>Node2</title>
<g id="a_Node000002"><a xlink:href="ANetworkTesterActor_8h.html" target="_top" xlink:title="ANetworkTesterActor 선언에 대한 Doxygen 주석을 제공합니다.">
<polygon fill="white" stroke="#666666" points="427.5,-195 299.5,-195 299.5,-176 427.5,-176 427.5,-195"/>
<text text-anchor="middle" x="363.5" y="-183" font-family="Malgun Gothic" font-size="10.00">ANetworkTesterActor.h</text>
</a>
</g>
</g>
<!-- Node1&#45;&gt;Node2 -->
<g id="edge1_Node000001_Node000002" class="edge">
<title>Node1&#45;&gt;Node2</title>
<g id="a_edge1_Node000001_Node000002"><a xlink:title=" ">
<path fill="none" stroke="#63b8ff" d="M958.95,-242.13C822.3,-229.37 564.29,-205.26 437.55,-193.42"/>
<polygon fill="#63b8ff" stroke="#63b8ff" points="437.83,-189.93 427.55,-192.48 437.18,-196.9 437.83,-189.93"/>
</a>
</g>
</g>
<!-- Node5 -->
<g id="Node000005" class="node">
<title>Node5</title>
<g id="a_Node000005"><a xlink:href="NetworkData_8h.html" target="_top" xlink:title="NetworkData 구조체 선언에 대한 Doxygen 주석을 제공합니다.">
<polygon fill="white" stroke="#666666" points="672.5,-140 582.5,-140 582.5,-121 672.5,-121 672.5,-140"/>
<text text-anchor="middle" x="627.5" y="-128" font-family="Malgun Gothic" font-size="10.00">NetworkData.h</text>
</a>
</g>
</g>
<!-- Node1&#45;&gt;Node5 -->
<g id="edge29_Node000001_Node000005" class="edge">
<title>Node1&#45;&gt;Node5</title>
<g id="a_edge29_Node000001_Node000005"><a xlink:title=" ">
<path fill="none" stroke="#63b8ff" d="M979.45,-230.98C890.74,-205.91 739.64,-163.2 667.77,-142.88"/>
<polygon fill="#63b8ff" stroke="#63b8ff" points="668.34,-139.41 657.76,-140.05 666.43,-146.14 668.34,-139.41"/>
</a>
</g>
</g>
<!-- Node12 -->
<g id="Node000012" class="node">
<title>Node12</title>
<g id="a_Node000012"><a xlink:href="UHttpNetworkSystem_8h.html" target="_top" xlink:title="UHttpNetworkSystem 선언에 대한 Doxygen 주석을 제공합니다.">
<polygon fill="white" stroke="#666666" points="1356.5,-195 1224.5,-195 1224.5,-176 1356.5,-176 1356.5,-195"/>
<text text-anchor="middle" x="1290.5" y="-183" font-family="Malgun Gothic" font-size="10.00">UHttpNetworkSystem.h</text>
</a>
</g>
</g>
<!-- Node1&#45;&gt;Node12 -->
<g id="edge13_Node000001_Node000012" class="edge">
<title>Node1&#45;&gt;Node12</title>
<g id="a_edge13_Node000001_Node000012"><a xlink:title=" ">
<path fill="none" stroke="#63b8ff" d="M1122.42,-230.95C1163.79,-220.01 1213.86,-206.77 1248.53,-197.6"/>
<polygon fill="#63b8ff" stroke="#63b8ff" points="1249.56,-200.95 1258.33,-195.01 1247.77,-194.18 1249.56,-200.95"/>
</a>
</g>
</g>
<!-- Node17 -->
<g id="Node000017" class="node">
<title>Node17</title>
<g id="a_Node000017"><a xlink:href="GameLogging_8h.html" target="_top" xlink:title="GameLogging 선언에 대한 Doxygen 주석을 제공합니다.">
<polygon fill="white" stroke="#666666" points="1095,-140 1002,-140 1002,-121 1095,-121 1095,-140"/>
<text text-anchor="middle" x="1048.5" y="-128" font-family="Malgun Gothic" font-size="10.00">GameLogging.h</text>
</a>
</g>
</g>
<!-- Node1&#45;&gt;Node17 -->
<g id="edge21_Node000001_Node000017" class="edge">
<title>Node1&#45;&gt;Node17</title>
<g id="a_edge21_Node000001_Node000017"><a xlink:title=" ">
<path fill="none" stroke="#63b8ff" d="M1048.5,-230.85C1048.5,-208.48 1048.5,-172.19 1048.5,-150.21"/>
<polygon fill="#63b8ff" stroke="#63b8ff" points="1052,-150.18 1048.5,-140.18 1045,-150.18 1052,-150.18"/>
</a>
</g>
</g>
<!-- Node19 -->
<g id="Node000019" class="node">
<title>Node19</title>
<g id="a_Node000019"><a xlink:title=" ">
<polygon fill="#e0e0e0" stroke="#999999" points="851,-79.5 756,-79.5 756,-60.5 851,-60.5 851,-79.5"/>
<text text-anchor="middle" x="803.5" y="-67.5" font-family="Malgun Gothic" font-size="10.00">Engine/Engine.h</text>
</a>
</g>
</g>
<!-- Node1&#45;&gt;Node19 -->
<g id="edge64_Node000001_Node000019" class="edge">
<title>Node1&#45;&gt;Node19</title>
<g id="a_edge64_Node000001_Node000019"><a xlink:title=" ">
<path fill="none" stroke="#63b8ff" d="M1021.81,-230.95C972.27,-194.65 867.14,-117.62 823.32,-85.52"/>
<polygon fill="#63b8ff" stroke="#63b8ff" points="825.31,-82.64 815.17,-79.55 821.17,-88.29 825.31,-82.64"/>
</a>
</g>
</g>
<!-- Node22 -->
<g id="Node000022" class="node">
<title>Node22</title>
<g id="a_Node000022"><a xlink:href="UGameDataManager_8h.html" target="_top" xlink:title="UGameDataManager 선언에 대한 Doxygen 주석을 제공합니다.">
<polygon fill="white" stroke="#666666" points="1814.5,-140 1686.5,-140 1686.5,-121 1814.5,-121 1814.5,-140"/>
<text text-anchor="middle" x="1750.5" y="-128" font-family="Malgun Gothic" font-size="10.00">UGameDataManager.h</text>
</a>
</g>
</g>
<!-- Node1&#45;&gt;Node22 -->
<g id="edge30_Node000001_Node000022" class="edge">
<title>Node1&#45;&gt;Node22</title>
<g id="a_edge30_Node000001_Node000022"><a xlink:title=" ">
<path fill="none" stroke="#63b8ff" d="M1138.12,-235.31C1283.37,-210.69 1566.38,-162.71 1690.13,-141.73"/>
<polygon fill="#63b8ff" stroke="#63b8ff" points="1690.91,-145.15 1700.19,-140.03 1689.74,-138.25 1690.91,-145.15"/>
</a>
</g>
</g>
<!-- Node35 -->
<g id="Node000035" class="node">
<title>Node35</title>
<g id="a_Node000035"><a xlink:href="UGameFunctionLibrary_8h.html" target="_top" xlink:title="UGameFunctionLibrary 선언에 대한 Doxygen 주석을 제공합니다.">
<polygon fill="white" stroke="#666666" points="2581.5,-140 2445.5,-140 2445.5,-121 2581.5,-121 2581.5,-140"/>
<text text-anchor="middle" x="2513.5" y="-128" font-family="Malgun Gothic" font-size="10.00">UGameFunctionLibrary.h</text>
</a>
</g>
</g>
<!-- Node1&#45;&gt;Node35 -->
<g id="edge55_Node000001_Node000035" class="edge">
<title>Node1&#45;&gt;Node35</title>
<g id="a_edge55_Node000001_Node000035"><a xlink:title=" ">
<path fill="none" stroke="#63b8ff" d="M1138.21,-243.21C1404.11,-221.61 2185.03,-158.18 2435.34,-137.85"/>
<polygon fill="#63b8ff" stroke="#63b8ff" points="2435.75,-141.33 2445.44,-137.03 2435.19,-134.35 2435.75,-141.33"/>
</a>
</g>
</g>
<!-- Node3 -->
<g id="Node000003" class="node">
<title>Node3</title>
<g id="a_Node000003"><a xlink:title=" ">
<polygon fill="#e0e0e0" stroke="#999999" points="1334.5,-19 1246.5,-19 1246.5,0 1334.5,0 1334.5,-19"/>
<text text-anchor="middle" x="1290.5" y="-7" font-family="Malgun Gothic" font-size="10.00">CoreMinimal.h</text>
</a>
</g>
</g>
<!-- Node2&#45;&gt;Node3 -->
<g id="edge2_Node000002_Node000003" class="edge">
<title>Node2&#45;&gt;Node3</title>
<g id="a_edge2_Node000002_Node000003"><a xlink:title=" ">
<path fill="none" stroke="#63b8ff" d="M361.56,-175.9C356.83,-152.4 347.5,-86.77 382.5,-55 414.22,-26.21 1045.33,-14.24 1236.25,-11.27"/>
<polygon fill="#63b8ff" stroke="#63b8ff" points="1236.39,-14.77 1246.34,-11.12 1236.28,-7.77 1236.39,-14.77"/>
</a>
</g>
</g>
<!-- Node4 -->
<g id="Node000004" class="node">
<title>Node4</title>
<g id="a_Node000004"><a xlink:title=" ">
<polygon fill="#e0e0e0" stroke="#999999" points="137,-140 0,-140 0,-121 137,-121 137,-140"/>
<text text-anchor="middle" x="68.5" y="-128" font-family="Malgun Gothic" font-size="10.00">GameFramework/Actor.h</text>
</a>
</g>
</g>
<!-- Node2&#45;&gt;Node4 -->
<g id="edge3_Node000002_Node000004" class="edge">
<title>Node2&#45;&gt;Node4</title>
<g id="a_edge3_Node000002_Node000004"><a xlink:title=" ">
<path fill="none" stroke="#63b8ff" d="M316.1,-175.98C264.43,-166.7 181.73,-151.84 126.29,-141.88"/>
<polygon fill="#63b8ff" stroke="#63b8ff" points="126.73,-138.41 116.27,-140.08 125.49,-145.3 126.73,-138.41"/>
</a>
</g>
</g>
<!-- Node2&#45;&gt;Node5 -->
<g id="edge4_Node000002_Node000005" class="edge">
<title>Node2&#45;&gt;Node5</title>
<g id="a_edge4_Node000002_Node000005"><a xlink:title=" ">
<path fill="none" stroke="#63b8ff" d="M405.92,-175.98C451.87,-166.76 525.25,-152.03 574.85,-142.07"/>
<polygon fill="#63b8ff" stroke="#63b8ff" points="575.64,-145.48 584.75,-140.08 574.26,-138.62 575.64,-145.48"/>
</a>
</g>
</g>
<!-- Node11 -->
<g id="Node000011" class="node">
<title>Node11</title>
<g id="a_Node000011"><a xlink:title=" ">
<polygon fill="#e0e0e0" stroke="#999999" points="335.5,-140 155.5,-140 155.5,-121 335.5,-121 335.5,-140"/>
<text text-anchor="middle" x="245.5" y="-128" font-family="Malgun Gothic" font-size="10.00">ANetworkTesterActor.generated.h</text>
</a>
</g>
</g>
<!-- Node2&#45;&gt;Node11 -->
<g id="edge12_Node000002_Node000011" class="edge">
<title>Node2&#45;&gt;Node11</title>
<g id="a_edge12_Node000002_Node000011"><a xlink:title=" ">
<path fill="none" stroke="#63b8ff" d="M344.54,-175.98C325.47,-167.42 295.84,-154.11 273.95,-144.28"/>
<polygon fill="#63b8ff" stroke="#63b8ff" points="275.36,-141.07 264.8,-140.17 272.49,-147.46 275.36,-141.07"/>
</a>
</g>
</g>
<!-- Node5&#45;&gt;Node3 -->
<g id="edge5_Node000005_Node000003" class="edge">
<title>Node5&#45;&gt;Node3</title>
<g id="a_edge5_Node000005_Node000003"><a xlink:title=" ">
<path fill="none" stroke="#63b8ff" d="M644.47,-120.99C660.96,-112.51 686.52,-98.8 707.5,-85 725.77,-72.99 726.1,-62.88 746.5,-55 834.86,-20.87 1116.99,-12.91 1236.35,-11.06"/>
<polygon fill="#63b8ff" stroke="#63b8ff" points="1236.41,-14.56 1246.36,-10.91 1236.31,-7.56 1236.41,-14.56"/>
</a>
</g>
</g>
<!-- Node6 -->
<g id="Node000006" class="node">
<title>Node6</title>
<g id="a_Node000006"><a xlink:href="UCustomNetworkSettings_8h.html" target="_top" xlink:title="UCustomNetworkSettings 선언에 대한 Doxygen 주석을 제공합니다.">
<polygon fill="white" stroke="#666666" points="335.5,-79.5 183.5,-79.5 183.5,-60.5 335.5,-60.5 335.5,-79.5"/>
<text text-anchor="middle" x="259.5" y="-67.5" font-family="Malgun Gothic" font-size="10.00">UCustomNetworkSettings.h</text>
</a>
</g>
</g>
<!-- Node5&#45;&gt;Node6 -->
<g id="edge6_Node000005_Node000006" class="edge">
<title>Node5&#45;&gt;Node6</title>
<g id="a_edge6_Node000005_Node000006"><a xlink:title=" ">
<path fill="none" stroke="#63b8ff" d="M582.38,-122.33C517.39,-112 397.16,-92.88 323.17,-81.12"/>
<polygon fill="#63b8ff" stroke="#63b8ff" points="323.47,-77.63 313.05,-79.51 322.37,-84.54 323.47,-77.63"/>
</a>
</g>
</g>
<!-- Node9 -->
<g id="Node000009" class="node">
<title>Node9</title>
<g id="a_Node000009"><a xlink:title=" ">
<polygon fill="#e0e0e0" stroke="#999999" points="537.5,-79.5 391.5,-79.5 391.5,-60.5 537.5,-60.5 537.5,-79.5"/>
<text text-anchor="middle" x="464.5" y="-67.5" font-family="Malgun Gothic" font-size="10.00">Templates/SharedPointer.h</text>
</a>
</g>
</g>
<!-- Node5&#45;&gt;Node9 -->
<g id="edge10_Node000005_Node000009" class="edge">
<title>Node5&#45;&gt;Node9</title>
<g id="a_edge10_Node000005_Node000009"><a xlink:title=" ">
<path fill="none" stroke="#63b8ff" d="M603.8,-120.99C575.91,-110.99 529.43,-94.3 497.9,-82.99"/>
<polygon fill="#63b8ff" stroke="#63b8ff" points="498.82,-79.6 488.23,-79.52 496.46,-86.19 498.82,-79.6"/>
</a>
</g>
</g>
<!-- Node10 -->
<g id="Node000010" class="node">
<title>Node10</title>
<g id="a_Node000010"><a xlink:title=" ">
<polygon fill="#e0e0e0" stroke="#999999" points="699,-79.5 556,-79.5 556,-60.5 699,-60.5 699,-79.5"/>
<text text-anchor="middle" x="627.5" y="-67.5" font-family="Malgun Gothic" font-size="10.00">NetworkData.generated.h</text>
</a>
</g>
</g>
<!-- Node5&#45;&gt;Node10 -->
<g id="edge11_Node000005_Node000010" class="edge">
<title>Node5&#45;&gt;Node10</title>
<g id="a_edge11_Node000005_Node000010"><a xlink:title=" ">
<path fill="none" stroke="#63b8ff" d="M627.5,-120.87C627.5,-112.75 627.5,-100.31 627.5,-89.89"/>
<polygon fill="#63b8ff" stroke="#63b8ff" points="631,-89.67 627.5,-79.67 624,-89.67 631,-89.67"/>
</a>
</g>
</g>
<!-- Node6&#45;&gt;Node3 -->
<g id="edge7_Node000006_Node000003" class="edge">
<title>Node6&#45;&gt;Node3</title>
<g id="a_edge7_Node000006_Node000003"><a xlink:title=" ">
<path fill="none" stroke="#63b8ff" d="M307.95,-60.49C321.37,-58.4 335.97,-56.37 349.5,-55 685.25,-21.05 1091.08,-12.92 1235.9,-11.04"/>
<polygon fill="#63b8ff" stroke="#63b8ff" points="1236.33,-14.54 1246.28,-10.91 1236.24,-7.54 1236.33,-14.54"/>
</a>
</g>
</g>
<!-- Node7 -->
<g id="Node000007" class="node">
<title>Node7</title>
<g id="a_Node000007"><a xlink:title=" ">
<polygon fill="#e0e0e0" stroke="#999999" points="237.5,-19 85.5,-19 85.5,0 237.5,0 237.5,-19"/>
<text text-anchor="middle" x="161.5" y="-7" font-family="Malgun Gothic" font-size="10.00">Engine/DeveloperSettings.h</text>
</a>
</g>
</g>
<!-- Node6&#45;&gt;Node7 -->
<g id="edge8_Node000006_Node000007" class="edge">
<title>Node6&#45;&gt;Node7</title>
<g id="a_edge8_Node000006_Node000007"><a xlink:title=" ">
<path fill="none" stroke="#63b8ff" d="M245.04,-60.37C229.19,-50.91 203.53,-35.59 184.82,-24.42"/>
<polygon fill="#63b8ff" stroke="#63b8ff" points="186.4,-21.29 176.02,-19.17 182.81,-27.3 186.4,-21.29"/>
</a>
</g>
</g>
<!-- Node8 -->
<g id="Node000008" class="node">
<title>Node8</title>
<g id="a_Node000008"><a xlink:title=" ">
<polygon fill="#e0e0e0" stroke="#999999" points="459.5,-19 255.5,-19 255.5,0 459.5,0 459.5,-19"/>
<text text-anchor="middle" x="357.5" y="-7" font-family="Malgun Gothic" font-size="10.00">UCustomNetworkSettings.generated.h</text>
</a>
</g>
</g>
<!-- Node6&#45;&gt;Node8 -->
<g id="edge9_Node000006_Node000008" class="edge">
<title>Node6&#45;&gt;Node8</title>
<g id="a_edge9_Node000006_Node000008"><a xlink:title=" ">
<path fill="none" stroke="#63b8ff" d="M273.96,-60.37C289.81,-50.91 315.47,-35.59 334.18,-24.42"/>
<polygon fill="#63b8ff" stroke="#63b8ff" points="336.19,-27.3 342.98,-19.17 332.6,-21.29 336.19,-27.3"/>
</a>
</g>
</g>
<!-- Node12&#45;&gt;Node3 -->
<g id="edge14_Node000012_Node000003" class="edge">
<title>Node12&#45;&gt;Node3</title>
<g id="a_edge14_Node000012_Node000003"><a xlink:title=" ">
<path fill="none" stroke="#63b8ff" d="M1290.5,-175.63C1290.5,-148.64 1290.5,-67.03 1290.5,-29.61"/>
<polygon fill="#63b8ff" stroke="#63b8ff" points="1294,-29.14 1290.5,-19.14 1287,-29.14 1294,-29.14"/>
</a>
</g>
</g>
<!-- Node12&#45;&gt;Node5 -->
<g id="edge15_Node000012_Node000005" class="edge">
<title>Node12&#45;&gt;Node5</title>
<g id="a_edge15_Node000012_Node000005"><a xlink:title=" ">
<path fill="none" stroke="#63b8ff" d="M1224.2,-179.2C1093.39,-168.74 804.24,-145.63 682.86,-135.93"/>
<polygon fill="#63b8ff" stroke="#63b8ff" points="682.93,-132.42 672.68,-135.11 682.37,-139.4 682.93,-132.42"/>
</a>
</g>
</g>
<!-- Node13 -->
<g id="Node000013" class="node">
<title>Node13</title>
<g id="a_Node000013"><a xlink:href="ENetworkLogType_8h.html" target="_top" xlink:title="ENetworkLogType 열거형에 대한 Doxygen 주석을 제공합니다.">
<polygon fill="white" stroke="#666666" points="1262,-140 1149,-140 1149,-121 1262,-121 1262,-140"/>
<text text-anchor="middle" x="1205.5" y="-128" font-family="Malgun Gothic" font-size="10.00">ENetworkLogType.h</text>
</a>
</g>
</g>
<!-- Node12&#45;&gt;Node13 -->
<g id="edge16_Node000012_Node000013" class="edge">
<title>Node12&#45;&gt;Node13</title>
<g id="a_edge16_Node000012_Node000013"><a xlink:title=" ">
<path fill="none" stroke="#63b8ff" d="M1276.84,-175.98C1263.66,-167.77 1243.47,-155.18 1227.93,-145.49"/>
<polygon fill="#63b8ff" stroke="#63b8ff" points="1229.74,-142.49 1219.41,-140.17 1226.04,-148.43 1229.74,-142.49"/>
</a>
</g>
</g>
<!-- Node14 -->
<g id="Node000014" class="node">
<title>Node14</title>
<g id="a_Node000014"><a xlink:href="Macro_8h.html" target="_top" xlink:title="Manager 모듈에서 공통으로 사용하는 매크로 정의에 대한 Doxygen 주석을 제공합니다.">
<polygon fill="white" stroke="#666666" points="1374.5,-79.5 1318.5,-79.5 1318.5,-60.5 1374.5,-60.5 1374.5,-79.5"/>
<text text-anchor="middle" x="1346.5" y="-67.5" font-family="Malgun Gothic" font-size="10.00">Macro.h</text>
</a>
</g>
</g>
<!-- Node12&#45;&gt;Node14 -->
<g id="edge18_Node000012_Node000014" class="edge">
<title>Node12&#45;&gt;Node14</title>
<g id="a_edge18_Node000012_Node000014"><a xlink:title=" ">
<path fill="none" stroke="#63b8ff" d="M1294.71,-175.97C1303.83,-157.48 1325.58,-113.4 1337.79,-88.64"/>
<polygon fill="#63b8ff" stroke="#63b8ff" points="1340.96,-90.15 1342.24,-79.63 1334.68,-87.05 1340.96,-90.15"/>
</a>
</g>
</g>
<!-- Node15 -->
<g id="Node000015" class="node">
<title>Node15</title>
<g id="a_Node000015"><a xlink:title=" ">
<polygon fill="#e0e0e0" stroke="#999999" points="1604.5,-79.5 1392.5,-79.5 1392.5,-60.5 1604.5,-60.5 1604.5,-79.5"/>
<text text-anchor="middle" x="1498.5" y="-67.5" font-family="Malgun Gothic" font-size="10.00">Subsystems/GameInstanceSubsystem.h</text>
</a>
</g>
</g>
<!-- Node12&#45;&gt;Node15 -->
<g id="edge19_Node000012_Node000015" class="edge">
<title>Node12&#45;&gt;Node15</title>
<g id="a_edge19_Node000012_Node000015"><a xlink:title=" ">
<path fill="none" stroke="#63b8ff" d="M1356.78,-182.56C1425.48,-178.99 1526.18,-168.84 1550.5,-140 1565.99,-121.64 1541.75,-99.25 1521.43,-85.06"/>
<polygon fill="#63b8ff" stroke="#63b8ff" points="1523.36,-82.13 1513.09,-79.51 1519.48,-87.96 1523.36,-82.13"/>
</a>
</g>
</g>
<!-- Node16 -->
<g id="Node000016" class="node">
<title>Node16</title>
<g id="a_Node000016"><a xlink:title=" ">
<polygon fill="#e0e0e0" stroke="#999999" points="1541,-140 1356,-140 1356,-121 1541,-121 1541,-140"/>
<text text-anchor="middle" x="1448.5" y="-128" font-family="Malgun Gothic" font-size="10.00">UHttpNetworkSystem.generated.h</text>
</a>
</g>
</g>
<!-- Node12&#45;&gt;Node16 -->
<g id="edge20_Node000012_Node000016" class="edge">
<title>Node12&#45;&gt;Node16</title>
<g id="a_edge20_Node000012_Node000016"><a xlink:title=" ">
<path fill="none" stroke="#63b8ff" d="M1315.89,-175.98C1342.3,-167.13 1383.85,-153.19 1413.39,-143.28"/>
<polygon fill="#63b8ff" stroke="#63b8ff" points="1414.55,-146.58 1422.92,-140.08 1412.32,-139.94 1414.55,-146.58"/>
</a>
</g>
</g>
<!-- Node13&#45;&gt;Node3 -->
<g id="edge17_Node000013_Node000003" class="edge">
<title>Node13&#45;&gt;Node3</title>
<g id="a_edge17_Node000013_Node000003"><a xlink:title=" ">
<path fill="none" stroke="#63b8ff" d="M1211.61,-120.94C1225.51,-101.48 1259.71,-53.6 1278.19,-27.74"/>
<polygon fill="#63b8ff" stroke="#63b8ff" points="1281.25,-29.47 1284.21,-19.3 1275.55,-25.4 1281.25,-29.47"/>
</a>
</g>
</g>
<!-- Node17&#45;&gt;Node3 -->
<g id="edge22_Node000017_Node000003" class="edge">
<title>Node17&#45;&gt;Node3</title>
<g id="a_edge22_Node000017_Node000003"><a xlink:title=" ">
<path fill="none" stroke="#63b8ff" d="M1058.46,-120.77C1079.78,-102.12 1128.65,-59.72 1137.5,-55 1168.42,-38.51 1206.2,-27.44 1236.49,-20.47"/>
<polygon fill="#63b8ff" stroke="#63b8ff" points="1237.44,-23.84 1246.45,-18.26 1235.93,-17.01 1237.44,-23.84"/>
</a>
</g>
</g>
<!-- Node18 -->
<g id="Node000018" class="node">
<title>Node18</title>
<g id="a_Node000018"><a xlink:title=" ">
<polygon fill="#e0e0e0" stroke="#999999" points="988,-79.5 869,-79.5 869,-60.5 988,-60.5 988,-79.5"/>
<text text-anchor="middle" x="928.5" y="-67.5" font-family="Malgun Gothic" font-size="10.00">Logging/LogMacros.h</text>
</a>
</g>
</g>
<!-- Node17&#45;&gt;Node18 -->
<g id="edge23_Node000017_Node000018" class="edge">
<title>Node17&#45;&gt;Node18</title>
<g id="a_edge23_Node000017_Node000018"><a xlink:title=" ">
<path fill="none" stroke="#63b8ff" d="M1031.05,-120.99C1011.14,-111.29 978.36,-95.31 955.23,-84.03"/>
<polygon fill="#63b8ff" stroke="#63b8ff" points="956.49,-80.75 945.97,-79.52 953.43,-87.04 956.49,-80.75"/>
</a>
</g>
</g>
<!-- Node17&#45;&gt;Node19 -->
<g id="edge24_Node000017_Node000019" class="edge">
<title>Node17&#45;&gt;Node19</title>
<g id="a_edge24_Node000017_Node000019"><a xlink:title=" ">
<path fill="none" stroke="#63b8ff" d="M1011.52,-120.95C973.4,-112.1 912.24,-97.8 859.5,-85 855.45,-84.02 851.23,-82.98 847.01,-81.94"/>
<polygon fill="#63b8ff" stroke="#63b8ff" points="847.79,-78.53 837.24,-79.51 846.1,-85.32 847.79,-78.53"/>
</a>
</g>
</g>
<!-- Node20 -->
<g id="Node000020" class="node">
<title>Node20</title>
<g id="a_Node000020"><a xlink:href="FLogWriter_8h.html" target="_top" xlink:title="FLogWriter 선언에 대한 Doxygen 주석을 제공합니다.">
<polygon fill="white" stroke="#666666" points="1224.5,-79.5 1146.5,-79.5 1146.5,-60.5 1224.5,-60.5 1224.5,-79.5"/>
<text text-anchor="middle" x="1185.5" y="-67.5" font-family="Malgun Gothic" font-size="10.00">FLogWriter.h</text>
</a>
</g>
</g>
<!-- Node17&#45;&gt;Node20 -->
<g id="edge25_Node000017_Node000020" class="edge">
<title>Node17&#45;&gt;Node20</title>
<g id="a_edge25_Node000017_Node000020"><a xlink:title=" ">
<path fill="none" stroke="#63b8ff" d="M1068.42,-120.99C1091.45,-111.16 1129.58,-94.88 1156.04,-83.58"/>
<polygon fill="#63b8ff" stroke="#63b8ff" points="1157.73,-86.66 1165.55,-79.52 1154.98,-80.22 1157.73,-86.66"/>
</a>
</g>
</g>
<!-- Node21 -->
<g id="Node000021" class="node">
<title>Node21</title>
<g id="a_Node000021"><a xlink:href="NetworkLog_8h.html" target="_top" xlink:title="NetworkLog 선언에 대한 Doxygen 주석을 제공합니다.">
<polygon fill="white" stroke="#666666" points="1090.5,-79.5 1006.5,-79.5 1006.5,-60.5 1090.5,-60.5 1090.5,-79.5"/>
<text text-anchor="middle" x="1048.5" y="-67.5" font-family="Malgun Gothic" font-size="10.00">NetworkLog.h</text>
</a>
</g>
</g>
<!-- Node17&#45;&gt;Node21 -->
<g id="edge27_Node000017_Node000021" class="edge">
<title>Node17&#45;&gt;Node21</title>
<g id="a_edge27_Node000017_Node000021"><a xlink:title=" ">
<path fill="none" stroke="#63b8ff" d="M1048.5,-120.87C1048.5,-112.75 1048.5,-100.31 1048.5,-89.89"/>
<polygon fill="#63b8ff" stroke="#63b8ff" points="1052,-89.67 1048.5,-79.67 1045,-89.67 1052,-89.67"/>
</a>
</g>
</g>
<!-- Node20&#45;&gt;Node3 -->
<g id="edge26_Node000020_Node000003" class="edge">
<title>Node20&#45;&gt;Node3</title>
<g id="a_edge26_Node000020_Node000003"><a xlink:title=" ">
<path fill="none" stroke="#63b8ff" d="M1200.99,-60.37C1218.13,-50.82 1245.97,-35.31 1266.06,-24.12"/>
<polygon fill="#63b8ff" stroke="#63b8ff" points="1267.91,-27.09 1274.94,-19.17 1264.5,-20.98 1267.91,-27.09"/>
</a>
</g>
</g>
<!-- Node21&#45;&gt;Node3 -->
<g id="edge28_Node000021_Node000003" class="edge">
<title>Node21&#45;&gt;Node3</title>
<g id="a_edge28_Node000021_Node000003"><a xlink:title=" ">
<path fill="none" stroke="#63b8ff" d="M1082.54,-60.43C1089.79,-58.62 1097.39,-56.74 1104.5,-55 1152.11,-43.35 1206.66,-30.34 1244.32,-21.41"/>
<polygon fill="#63b8ff" stroke="#63b8ff" points="1245.55,-24.72 1254.47,-19.01 1243.93,-17.91 1245.55,-24.72"/>
</a>
</g>
</g>
<!-- Node22&#45;&gt;Node3 -->
<g id="edge31_Node000022_Node000003" class="edge">
<title>Node22&#45;&gt;Node3</title>
<g id="a_edge31_Node000022_Node000003"><a xlink:title=" ">
<path fill="none" stroke="#63b8ff" d="M1727.29,-120.95C1706.7,-112.93 1676.15,-99.96 1651.5,-85 1633.1,-73.84 1633.3,-63.43 1613.5,-55 1566.27,-34.89 1423.86,-20.94 1344.82,-14.51"/>
<polygon fill="#63b8ff" stroke="#63b8ff" points="1344.82,-11 1334.57,-13.69 1344.26,-17.98 1344.82,-11"/>
</a>
</g>
</g>
<!-- Node22&#45;&gt;Node14 -->
<g id="edge32_Node000022_Node000014" class="edge">
<title>Node22&#45;&gt;Node14</title>
<g id="a_edge32_Node000022_Node000014"><a xlink:title=" ">
<path fill="none" stroke="#63b8ff" d="M1686.34,-126.41C1612.42,-121.77 1487.74,-110.64 1383.5,-85 1381.05,-84.4 1378.54,-83.68 1376.04,-82.89"/>
<polygon fill="#63b8ff" stroke="#63b8ff" points="1377.17,-79.58 1366.58,-79.6 1374.87,-86.19 1377.17,-79.58"/>
</a>
</g>
</g>
<!-- Node22&#45;&gt;Node15 -->
<g id="edge53_Node000022_Node000015" class="edge">
<title>Node22&#45;&gt;Node15</title>
<g id="a_edge53_Node000022_Node000015"><a xlink:title=" ">
<path fill="none" stroke="#63b8ff" d="M1713.86,-120.99C1669.25,-110.64 1593.87,-93.14 1545.16,-81.83"/>
<polygon fill="#63b8ff" stroke="#63b8ff" points="1545.72,-78.37 1535.19,-79.52 1544.14,-85.19 1545.72,-78.37"/>
</a>
</g>
</g>
<!-- Node23 -->
<g id="Node000023" class="node">
<title>Node23</title>
<g id="a_Node000023"><a xlink:href="FHitStopData_8h.html" target="_top" xlink:title="FHitStopData 구조체에 대한 Doxygen 주석을 제공합니다.">
<polygon fill="white" stroke="#666666" points="2401,-79.5 2310,-79.5 2310,-60.5 2401,-60.5 2401,-79.5"/>
<text text-anchor="middle" x="2355.5" y="-67.5" font-family="Malgun Gothic" font-size="10.00">FHitStopData.h</text>
</a>
</g>
</g>
<!-- Node22&#45;&gt;Node23 -->
<g id="edge33_Node000022_Node000023" class="edge">
<title>Node22&#45;&gt;Node23</title>
<g id="a_edge33_Node000022_Node000023"><a xlink:title=" ">
<path fill="none" stroke="#63b8ff" d="M1814.86,-127.8C1918,-124.3 2126.39,-113.99 2300.5,-85 2305.53,-84.16 2310.78,-83.09 2315.95,-81.91"/>
<polygon fill="#63b8ff" stroke="#63b8ff" points="2316.82,-85.3 2325.72,-79.55 2315.18,-78.5 2316.82,-85.3"/>
</a>
</g>
</g>
<!-- Node27 -->
<g id="Node000027" class="node">
<title>Node27</title>
<g id="a_Node000027"><a xlink:href="FKnockbackData_8h.html" target="_top" xlink:title="FKnockbackData 구조체에 대한 Doxygen 주석을 제공합니다.">
<polygon fill="white" stroke="#666666" points="2291.5,-79.5 2183.5,-79.5 2183.5,-60.5 2291.5,-60.5 2291.5,-79.5"/>
<text text-anchor="middle" x="2237.5" y="-67.5" font-family="Malgun Gothic" font-size="10.00">FKnockbackData.h</text>
</a>
</g>
</g>
<!-- Node22&#45;&gt;Node27 -->
<g id="edge38_Node000022_Node000027" class="edge">
<title>Node22&#45;&gt;Node27</title>
<g id="a_edge38_Node000022_Node000027"><a xlink:title=" ">
<path fill="none" stroke="#63b8ff" d="M1814.73,-125.05C1898.06,-118.76 2047.76,-105.66 2174.5,-85 2180.31,-84.05 2186.39,-82.9 2192.38,-81.68"/>
<polygon fill="#63b8ff" stroke="#63b8ff" points="2193.27,-85.07 2202.32,-79.56 2191.81,-78.22 2193.27,-85.07"/>
</a>
</g>
</g>
<!-- Node29 -->
<g id="Node000029" class="node">
<title>Node29</title>
<g id="a_Node000029"><a xlink:href="FCharacterInfoData_8h.html" target="_top" xlink:title="FCharacterInfoData 구조체에 대한 Doxygen 주석을 제공합니다.">
<polygon fill="white" stroke="#666666" points="2165,-79.5 2044,-79.5 2044,-60.5 2165,-60.5 2165,-79.5"/>
<text text-anchor="middle" x="2104.5" y="-67.5" font-family="Malgun Gothic" font-size="10.00">FCharacterInfoData.h</text>
</a>
</g>
</g>
<!-- Node22&#45;&gt;Node29 -->
<g id="edge43_Node000022_Node000029" class="edge">
<title>Node22&#45;&gt;Node29</title>
<g id="a_edge43_Node000022_Node000029"><a xlink:title=" ">
<path fill="none" stroke="#63b8ff" d="M1810.13,-120.99C1867.88,-112.56 1957.87,-98.93 2035.5,-85 2041.43,-83.94 2047.64,-82.76 2053.8,-81.56"/>
<polygon fill="#63b8ff" stroke="#63b8ff" points="2054.93,-84.9 2064.06,-79.52 2053.57,-78.04 2054.93,-84.9"/>
</a>
</g>
</g>
<!-- Node32 -->
<g id="Node000032" class="node">
<title>Node32</title>
<g id="a_Node000032"><a xlink:href="FCharacterAssetData_8h.html" target="_top" xlink:title="FCharacterAssetData 구조체에 대한 Doxygen 주석을 제공합니다.">
<polygon fill="white" stroke="#666666" points="2026,-79.5 1897,-79.5 1897,-60.5 2026,-60.5 2026,-79.5"/>
<text text-anchor="middle" x="1961.5" y="-67.5" font-family="Malgun Gothic" font-size="10.00">FCharacterAssetData.h</text>
</a>
</g>
</g>
<!-- Node22&#45;&gt;Node32 -->
<g id="edge48_Node000022_Node000032" class="edge">
<title>Node22&#45;&gt;Node32</title>
<g id="a_edge48_Node000022_Node000032"><a xlink:title=" ">
<path fill="none" stroke="#63b8ff" d="M1781.18,-120.99C1818.06,-110.77 1880.07,-93.58 1920.89,-82.26"/>
<polygon fill="#63b8ff" stroke="#63b8ff" points="1922.08,-85.56 1930.78,-79.52 1920.21,-78.82 1922.08,-85.56"/>
</a>
</g>
</g>
<!-- Node34 -->
<g id="Node000034" class="node">
<title>Node34</title>
<g id="a_Node000034"><a xlink:title=" ">
<polygon fill="#e0e0e0" stroke="#999999" points="1840.5,-79.5 1660.5,-79.5 1660.5,-60.5 1840.5,-60.5 1840.5,-79.5"/>
<text text-anchor="middle" x="1750.5" y="-67.5" font-family="Malgun Gothic" font-size="10.00">UGameDataManager.generated.h</text>
</a>
</g>
</g>
<!-- Node22&#45;&gt;Node34 -->
<g id="edge54_Node000022_Node000034" class="edge">
<title>Node22&#45;&gt;Node34</title>
<g id="a_edge54_Node000022_Node000034"><a xlink:title=" ">
<path fill="none" stroke="#63b8ff" d="M1750.5,-120.87C1750.5,-112.75 1750.5,-100.31 1750.5,-89.89"/>
<polygon fill="#63b8ff" stroke="#63b8ff" points="1754,-89.67 1750.5,-79.67 1747,-89.67 1754,-89.67"/>
</a>
</g>
</g>
<!-- Node23&#45;&gt;Node3 -->
<g id="edge34_Node000023_Node000003" class="edge">
<title>Node23&#45;&gt;Node3</title>
<g id="a_edge34_Node000023_Node000003"><a xlink:title=" ">
<path fill="none" stroke="#63b8ff" d="M2326.61,-60.46C2318.26,-58.32 2309.08,-56.27 2300.5,-55 2276.67,-51.48 1550.89,-21.27 1344.66,-12.74"/>
<polygon fill="#63b8ff" stroke="#63b8ff" points="1344.81,-9.24 1334.67,-12.32 1344.52,-16.23 1344.81,-9.24"/>
</a>
</g>
</g>
<!-- Node24 -->
<g id="Node000024" class="node">
<title>Node24</title>
<g id="a_Node000024"><a xlink:href="EDamageType_8h.html" target="_top" xlink:title="EDamageType 열거형에 대한 Doxygen 주석을 제공합니다.">
<polygon fill="white" stroke="#666666" points="2592,-19 2497,-19 2497,0 2592,0 2592,-19"/>
<text text-anchor="middle" x="2544.5" y="-7" font-family="Malgun Gothic" font-size="10.00">EDamageType.h</text>
</a>
</g>
</g>
<!-- Node23&#45;&gt;Node24 -->
<g id="edge35_Node000023_Node000024" class="edge">
<title>Node23&#45;&gt;Node24</title>
<g id="a_edge35_Node000023_Node000024"><a xlink:title=" ">
<path fill="none" stroke="#63b8ff" d="M2382.98,-60.49C2415.74,-50.36 2470.62,-33.37 2507.19,-22.05"/>
<polygon fill="#63b8ff" stroke="#63b8ff" points="2508.47,-25.32 2516.98,-19.02 2506.4,-18.63 2508.47,-25.32"/>
</a>
</g>
</g>
<!-- Node25 -->
<g id="Node000025" class="node">
<title>Node25</title>
<g id="a_Node000025"><a xlink:title=" ">
<polygon fill="#e0e0e0" stroke="#999999" points="2138.5,-19 2028.5,-19 2028.5,0 2138.5,0 2138.5,-19"/>
<text text-anchor="middle" x="2083.5" y="-7" font-family="Malgun Gothic" font-size="10.00">Engine/DataTable.h</text>
</a>
</g>
</g>
<!-- Node23&#45;&gt;Node25 -->
<g id="edge36_Node000023_Node000025" class="edge">
<title>Node23&#45;&gt;Node25</title>
<g id="a_edge36_Node000023_Node000025"><a xlink:title=" ">
<path fill="none" stroke="#63b8ff" d="M2322.99,-60.46C2315.61,-58.59 2307.8,-56.68 2300.5,-55 2245.38,-42.34 2181.99,-29.54 2138.01,-20.94"/>
<polygon fill="#63b8ff" stroke="#63b8ff" points="2138.59,-17.49 2128.1,-19.01 2137.25,-24.36 2138.59,-17.49"/>
</a>
</g>
</g>
<!-- Node26 -->
<g id="Node000026" class="node">
<title>Node26</title>
<g id="a_Node000026"><a xlink:title=" ">
<polygon fill="#e0e0e0" stroke="#999999" points="2479,-19 2336,-19 2336,0 2479,0 2479,-19"/>
<text text-anchor="middle" x="2407.5" y="-7" font-family="Malgun Gothic" font-size="10.00">FHitStopData.generated.h</text>
</a>
</g>
</g>
<!-- Node23&#45;&gt;Node26 -->
<g id="edge37_Node000023_Node000026" class="edge">
<title>Node23&#45;&gt;Node26</title>
<g id="a_edge37_Node000023_Node000026"><a xlink:title=" ">
<path fill="none" stroke="#63b8ff" d="M2363.17,-60.37C2371.01,-51.55 2383.36,-37.66 2393.04,-26.77"/>
<polygon fill="#63b8ff" stroke="#63b8ff" points="2395.77,-28.97 2399.8,-19.17 2390.54,-24.32 2395.77,-28.97"/>
</a>
</g>
</g>
<!-- Node27&#45;&gt;Node3 -->
<g id="edge39_Node000027_Node000003" class="edge">
<title>Node27&#45;&gt;Node3</title>
<g id="a_edge39_Node000027_Node000003"><a xlink:title=" ">
<path fill="none" stroke="#63b8ff" d="M2204.01,-60.46C2194.53,-58.34 2184.16,-56.31 2174.5,-55 2092.62,-43.92 1524.37,-20.05 1344.77,-12.7"/>
<polygon fill="#63b8ff" stroke="#63b8ff" points="1344.9,-9.2 1334.76,-12.29 1344.61,-16.2 1344.9,-9.2"/>
</a>
</g>
</g>
<!-- Node27&#45;&gt;Node24 -->
<g id="edge40_Node000027_Node000024" class="edge">
<title>Node27&#45;&gt;Node24</title>
<g id="a_edge40_Node000027_Node000024"><a xlink:title=" ">
<path fill="none" stroke="#63b8ff" d="M2275.36,-60.49C2283.94,-58.63 2293.03,-56.7 2301.5,-55 2364.7,-42.3 2437.46,-29.18 2486.76,-20.5"/>
<polygon fill="#63b8ff" stroke="#63b8ff" points="2487.67,-23.89 2496.91,-18.72 2486.46,-17 2487.67,-23.89"/>
</a>
</g>
</g>
<!-- Node27&#45;&gt;Node25 -->
<g id="edge41_Node000027_Node000025" class="edge">
<title>Node27&#45;&gt;Node25</title>
<g id="a_edge41_Node000027_Node000025"><a xlink:title=" ">
<path fill="none" stroke="#63b8ff" d="M2215.11,-60.49C2188.88,-50.53 2145.22,-33.95 2115.44,-22.63"/>
<polygon fill="#63b8ff" stroke="#63b8ff" points="2116.51,-19.3 2105.92,-19.02 2114.03,-25.84 2116.51,-19.3"/>
</a>
</g>
</g>
<!-- Node28 -->
<g id="Node000028" class="node">
<title>Node28</title>
<g id="a_Node000028"><a xlink:title=" ">
<polygon fill="#e0e0e0" stroke="#999999" points="2318,-19 2157,-19 2157,0 2318,0 2318,-19"/>
<text text-anchor="middle" x="2237.5" y="-7" font-family="Malgun Gothic" font-size="10.00">FKnockbackData.generated.h</text>
</a>
</g>
</g>
<!-- Node27&#45;&gt;Node28 -->
<g id="edge42_Node000027_Node000028" class="edge">
<title>Node27&#45;&gt;Node28</title>
<g id="a_edge42_Node000027_Node000028"><a xlink:title=" ">
<path fill="none" stroke="#63b8ff" d="M2237.5,-60.37C2237.5,-52.25 2237.5,-39.81 2237.5,-29.39"/>
<polygon fill="#63b8ff" stroke="#63b8ff" points="2241,-29.17 2237.5,-19.17 2234,-29.17 2241,-29.17"/>
</a>
</g>
</g>
<!-- Node29&#45;&gt;Node3 -->
<g id="edge44_Node000029_Node000003" class="edge">
<title>Node29&#45;&gt;Node3</title>
<g id="a_edge44_Node000029_Node000003"><a xlink:title=" ">
<path fill="none" stroke="#63b8ff" d="M2067.42,-60.48C2057.13,-58.39 2045.92,-56.36 2035.5,-55 1901.88,-37.54 1493.55,-19.07 1345.14,-12.76"/>
<polygon fill="#63b8ff" stroke="#63b8ff" points="1345.05,-9.26 1334.91,-12.33 1344.76,-16.25 1345.05,-9.26"/>
</a>
</g>
</g>
<!-- Node29&#45;&gt;Node25 -->
<g id="edge46_Node000029_Node000025" class="edge">
<title>Node29&#45;&gt;Node25</title>
<g id="a_edge46_Node000029_Node000025"><a xlink:title=" ">
<path fill="none" stroke="#63b8ff" d="M2101.4,-60.37C2098.42,-52.07 2093.83,-39.28 2090.04,-28.72"/>
<polygon fill="#63b8ff" stroke="#63b8ff" points="2093.28,-27.4 2086.61,-19.17 2086.7,-29.76 2093.28,-27.4"/>
</a>
</g>
</g>
<!-- Node30 -->
<g id="Node000030" class="node">
<title>Node30</title>
<g id="a_Node000030"><a xlink:href="ECharacterType_8h.html" target="_top" xlink:title="ECharacterType 열거형에 대한 Doxygen 주석을 제공합니다.">
<polygon fill="white" stroke="#666666" points="1819,-19 1718,-19 1718,0 1819,0 1819,-19"/>
<text text-anchor="middle" x="1768.5" y="-7" font-family="Malgun Gothic" font-size="10.00">ECharacterType.h</text>
</a>
</g>
</g>
<!-- Node29&#45;&gt;Node30 -->
<g id="edge45_Node000029_Node000030" class="edge">
<title>Node29&#45;&gt;Node30</title>
<g id="a_edge45_Node000029_Node000030"><a xlink:title=" ">
<path fill="none" stroke="#63b8ff" d="M2063.68,-60.47C2054.43,-58.61 2044.64,-56.69 2035.5,-55 1964.95,-41.97 1883.6,-28.65 1829.41,-20.03"/>
<polygon fill="#63b8ff" stroke="#63b8ff" points="1829.71,-16.53 1819.28,-18.42 1828.61,-23.45 1829.71,-16.53"/>
</a>
</g>
</g>
<!-- Node31 -->
<g id="Node000031" class="node">
<title>Node31</title>
<g id="a_Node000031"><a xlink:title=" ">
<polygon fill="#e0e0e0" stroke="#999999" points="2010,-19 1837,-19 1837,0 2010,0 2010,-19"/>
<text text-anchor="middle" x="1923.5" y="-7" font-family="Malgun Gothic" font-size="10.00">FCharacterInfoData.generated.h</text>
</a>
</g>
</g>
<!-- Node29&#45;&gt;Node31 -->
<g id="edge47_Node000029_Node000031" class="edge">
<title>Node29&#45;&gt;Node31</title>
<g id="a_edge47_Node000029_Node000031"><a xlink:title=" ">
<path fill="none" stroke="#63b8ff" d="M2078.18,-60.49C2046.95,-50.4 1994.7,-33.51 1959.68,-22.19"/>
<polygon fill="#63b8ff" stroke="#63b8ff" points="1960.44,-18.76 1949.85,-19.02 1958.29,-25.42 1960.44,-18.76"/>
</a>
</g>
</g>
<!-- Node32&#45;&gt;Node3 -->
<g id="edge49_Node000032_Node000003" class="edge">
<title>Node32&#45;&gt;Node3</title>
<g id="a_edge49_Node000032_Node000003"><a xlink:title=" ">
<path fill="none" stroke="#63b8ff" d="M1917.74,-60.44C1906.31,-58.42 1893.97,-56.44 1882.5,-55 1685.31,-30.18 1449.3,-17.5 1344.83,-12.76"/>
<polygon fill="#63b8ff" stroke="#63b8ff" points="1344.99,-9.26 1334.84,-12.31 1344.67,-16.25 1344.99,-9.26"/>
</a>
</g>
</g>
<!-- Node32&#45;&gt;Node25 -->
<g id="edge51_Node000032_Node000025" class="edge">
<title>Node32&#45;&gt;Node25</title>
<g id="a_edge51_Node000032_Node000025"><a xlink:title=" ">
<path fill="none" stroke="#63b8ff" d="M1979.24,-60.49C1999.57,-50.75 2033.11,-34.66 2056.64,-23.38"/>
<polygon fill="#63b8ff" stroke="#63b8ff" points="2058.24,-26.5 2065.74,-19.02 2055.21,-20.18 2058.24,-26.5"/>
</a>
</g>
</g>
<!-- Node32&#45;&gt;Node30 -->
<g id="edge50_Node000032_Node000030" class="edge">
<title>Node32&#45;&gt;Node30</title>
<g id="a_edge50_Node000032_Node000030"><a xlink:title=" ">
<path fill="none" stroke="#63b8ff" d="M1933.44,-60.49C1899.99,-50.36 1843.94,-33.37 1806.6,-22.05"/>
<polygon fill="#63b8ff" stroke="#63b8ff" points="1807.18,-18.57 1796.6,-19.02 1805.15,-25.27 1807.18,-18.57"/>
</a>
</g>
</g>
<!-- Node33 -->
<g id="Node000033" class="node">
<title>Node33</title>
<g id="a_Node000033"><a xlink:title=" ">
<polygon fill="#e0e0e0" stroke="#999999" points="1699.5,-19 1517.5,-19 1517.5,0 1699.5,0 1699.5,-19"/>
<text text-anchor="middle" x="1608.5" y="-7" font-family="Malgun Gothic" font-size="10.00">FCharacterAssetData.generated.h</text>
</a>
</g>
</g>
<!-- Node32&#45;&gt;Node33 -->
<g id="edge52_Node000032_Node000033" class="edge">
<title>Node32&#45;&gt;Node33</title>
<g id="a_edge52_Node000032_Node000033"><a xlink:title=" ">
<path fill="none" stroke="#63b8ff" d="M1913.9,-60.45C1903.55,-58.62 1892.66,-56.73 1882.5,-55 1810.6,-42.79 1727.96,-29.47 1672.4,-20.61"/>
<polygon fill="#63b8ff" stroke="#63b8ff" points="1672.77,-17.13 1662.35,-19.01 1671.67,-24.04 1672.77,-17.13"/>
</a>
</g>
</g>
<!-- Node35&#45;&gt;Node3 -->
<g id="edge56_Node000035_Node000003" class="edge">
<title>Node35&#45;&gt;Node3</title>
<g id="a_edge56_Node000035_Node000003"><a xlink:title=" ">
<path fill="none" stroke="#63b8ff" d="M2445.44,-129.57C2305.18,-128.91 1988.72,-123.11 1888.5,-85 1868.06,-77.23 1869.91,-62.86 1849.5,-55 1803.23,-37.18 1476.56,-19.54 1345.1,-13.08"/>
<polygon fill="#63b8ff" stroke="#63b8ff" points="1345.02,-9.57 1334.86,-12.58 1344.68,-16.56 1345.02,-9.57"/>
</a>
</g>
</g>
<!-- Node36 -->
<g id="Node000036" class="node">
<title>Node36</title>
<g id="a_Node000036"><a xlink:href="UGameDamageType_8h.html" target="_top" xlink:title="UGameDamageType 선언에 대한 Doxygen 주석을 제공합니다.">
<polygon fill="white" stroke="#666666" points="2576.5,-79.5 2450.5,-79.5 2450.5,-60.5 2576.5,-60.5 2576.5,-79.5"/>
<text text-anchor="middle" x="2513.5" y="-67.5" font-family="Malgun Gothic" font-size="10.00">UGameDamageType.h</text>
</a>
</g>
</g>
<!-- Node35&#45;&gt;Node36 -->
<g id="edge57_Node000035_Node000036" class="edge">
<title>Node35&#45;&gt;Node36</title>
<g id="a_edge57_Node000035_Node000036"><a xlink:title=" ">
<path fill="none" stroke="#63b8ff" d="M2513.5,-120.87C2513.5,-112.75 2513.5,-100.31 2513.5,-89.89"/>
<polygon fill="#63b8ff" stroke="#63b8ff" points="2517,-89.67 2513.5,-79.67 2510,-89.67 2517,-89.67"/>
</a>
</g>
</g>
<!-- Node39 -->
<g id="Node000039" class="node">
<title>Node39</title>
<g id="a_Node000039"><a xlink:title=" ">
<polygon fill="#e0e0e0" stroke="#999999" points="2734.5,-85 2594.5,-85 2594.5,-55 2734.5,-55 2734.5,-85"/>
<text text-anchor="start" x="2602.5" y="-73" font-family="Malgun Gothic" font-size="10.00">Kismet/BlueprintFunction</text>
<text text-anchor="middle" x="2664.5" y="-62" font-family="Malgun Gothic" font-size="10.00">Library.h</text>
</a>
</g>
</g>
<!-- Node35&#45;&gt;Node39 -->
<g id="edge62_Node000035_Node000039" class="edge">
<title>Node35&#45;&gt;Node39</title>
<g id="a_edge62_Node000035_Node000039"><a xlink:title=" ">
<path fill="none" stroke="#63b8ff" d="M2535.46,-120.99C2557.19,-112.57 2591.11,-99.43 2618.72,-88.73"/>
<polygon fill="#63b8ff" stroke="#63b8ff" points="2620.14,-91.94 2628.2,-85.06 2617.61,-85.41 2620.14,-91.94"/>
</a>
</g>
</g>
<!-- Node40 -->
<g id="Node000040" class="node">
<title>Node40</title>
<g id="a_Node000040"><a xlink:title=" ">
<polygon fill="#e0e0e0" stroke="#999999" points="2940.5,-79.5 2752.5,-79.5 2752.5,-60.5 2940.5,-60.5 2940.5,-79.5"/>
<text text-anchor="middle" x="2846.5" y="-67.5" font-family="Malgun Gothic" font-size="10.00">UGameFunctionLibrary.generated.h</text>
</a>
</g>
</g>
<!-- Node35&#45;&gt;Node40 -->
<g id="edge63_Node000035_Node000040" class="edge">
<title>Node35&#45;&gt;Node40</title>
<g id="a_edge63_Node000035_Node000040"><a xlink:title=" ">
<path fill="none" stroke="#63b8ff" d="M2561.92,-120.99C2621.85,-110.47 2723.83,-92.55 2788.05,-81.27"/>
<polygon fill="#63b8ff" stroke="#63b8ff" points="2788.78,-84.69 2798.02,-79.52 2787.57,-77.8 2788.78,-84.69"/>
</a>
</g>
</g>
<!-- Node36&#45;&gt;Node3 -->
<g id="edge58_Node000036_Node000003" class="edge">
<title>Node36&#45;&gt;Node3</title>
<g id="a_edge58_Node000036_Node000003"><a xlink:title=" ">
<path fill="none" stroke="#63b8ff" d="M2458.02,-60.47C2442.66,-58.38 2425.96,-56.35 2410.5,-55 2397.07,-53.82 1566.69,-21.3 1344.62,-12.62"/>
<polygon fill="#63b8ff" stroke="#63b8ff" points="1344.64,-9.11 1334.51,-12.22 1344.36,-16.11 1344.64,-9.11"/>
</a>
</g>
</g>
<!-- Node36&#45;&gt;Node24 -->
<g id="edge60_Node000036_Node000024" class="edge">
<title>Node36&#45;&gt;Node24</title>
<g id="a_edge60_Node000036_Node000024"><a xlink:title=" ">
<path fill="none" stroke="#63b8ff" d="M2518.07,-60.37C2522.56,-51.9 2529.53,-38.74 2535.19,-28.07"/>
<polygon fill="#63b8ff" stroke="#63b8ff" points="2538.32,-29.64 2539.91,-19.17 2532.13,-26.36 2538.32,-29.64"/>
</a>
</g>
</g>
<!-- Node37 -->
<g id="Node000037" class="node">
<title>Node37</title>
<g id="a_Node000037"><a xlink:title=" ">
<polygon fill="#e0e0e0" stroke="#999999" points="2786.5,-19 2610.5,-19 2610.5,0 2786.5,0 2786.5,-19"/>
<text text-anchor="middle" x="2698.5" y="-7" font-family="Malgun Gothic" font-size="10.00">GameFramework/DamageType.h</text>
</a>
</g>
</g>
<!-- Node36&#45;&gt;Node37 -->
<g id="edge59_Node000036_Node000037" class="edge">
<title>Node36&#45;&gt;Node37</title>
<g id="a_edge59_Node000036_Node000037"><a xlink:title=" ">
<path fill="none" stroke="#63b8ff" d="M2540.4,-60.49C2572.46,-50.36 2626.18,-33.37 2661.98,-22.05"/>
<polygon fill="#63b8ff" stroke="#63b8ff" points="2663.09,-25.37 2671.57,-19.02 2660.98,-18.69 2663.09,-25.37"/>
</a>
</g>
</g>
<!-- Node38 -->
<g id="Node000038" class="node">
<title>Node38</title>
<g id="a_Node000038"><a xlink:title=" ">
<polygon fill="#e0e0e0" stroke="#999999" points="2984,-19 2805,-19 2805,0 2984,0 2984,-19"/>
<text text-anchor="middle" x="2894.5" y="-7" font-family="Malgun Gothic" font-size="10.00">UGameDamageType.generated.h</text>
</a>
</g>
</g>
<!-- Node36&#45;&gt;Node38 -->
<g id="edge61_Node000036_Node000038" class="edge">
<title>Node36&#45;&gt;Node38</title>
<g id="a_edge61_Node000036_Node000038"><a xlink:title=" ">
<path fill="none" stroke="#63b8ff" d="M2555.7,-60.44C2565.47,-58.55 2575.83,-56.64 2585.5,-55 2664.72,-41.6 2755.81,-28.8 2818.46,-20.39"/>
<polygon fill="#63b8ff" stroke="#63b8ff" points="2819.2,-23.83 2828.65,-19.03 2818.28,-16.89 2819.2,-23.83"/>
</a>
</g>
</g>
</g>
</svg>

<g id="navigator" transform="translate(0 0)" fill="#404254">
  <rect fill="#f2f5e9" fill-opacity="0.5" stroke="#606060" stroke-width=".5" x="0" y="0" width="60" height="60"/>
  <use id="zoomplus" xlink:href="#zoomPlus" x="17" y="9" onmousedown="handleZoom(evt,'in')"/>
  <use id="zoomminus" xlink:href="#zoomMin" x="42" y="9" onmousedown="handleZoom(evt,'out')"/>
  <use id="reset" xlink:href="#resetDef" x="30" y="36" onmousedown="handleReset()"/>
   <use id="arrowup" xlink:href="#arrowUp" x="0" y="0" onmousedown="handlePan(0,-1)"/>
  <use id="arrowright" xlink:href="#arrowRight" x="0" y="0" onmousedown="handlePan(1,0)"/>
  <use id="arrowdown" xlink:href="#arrowDown" x="0" y="0" onmousedown="handlePan(0,1)"/>
  <use id="arrowleft" xlink:href="#arrowLeft" x="0" y="0" onmousedown="handlePan(-1,0)"/>
</g>
<svg viewBox="0 0 15 15" width="100%" height="30px" preserveAspectRatio="xMaxYMin meet">
 <g id="arrow_out" transform="scale(0.3 0.3)">
  <a xlink:href="ANetworkTesterActor_8cpp__incl_org.svg" target="_base">
   <rect id="button" ry="5" rx="5" y="6" x="6" height="38" width="38"
        fill="#f2f5e9" fill-opacity="0.5" stroke="#606060" stroke-width="1.0"/>
   <path id="arrow"
     d="M 11.500037,31.436501 C 11.940474,20.09759 22.043105,11.32322 32.158766,21.979434 L 37.068811,17.246167 C 37.068811,17.246167 37.088388,32 37.088388,32 L 22.160133,31.978069 C 22.160133,31.978069 26.997745,27.140456 26.997745,27.140456 C 18.528582,18.264221 13.291696,25.230495 11.500037,31.436501 z"
     style="fill:#404040;"/>
  </a>
 </g>
</svg>

<style type='text/css'>
<![CDATA[
[data-mouse-over-selected='false'] { opacity: 0.7; }
[data-mouse-over-selected='true']  { opacity: 1.0; }
]]>
</style>
<script type="application/ecmascript"><![CDATA[
document.addEventListener('DOMContentLoaded', (event) => {
  highlightEdges();
  highlightAdjacentNodes();
});
]]></script>
</svg>
