<?xml version="1.0" encoding="UTF-8" standalone="no"?>
<!DOCTYPE svg PUBLIC "-//W3C//DTD SVG 1.1//EN"
 "http://www.w3.org/Graphics/SVG/1.1/DTD/svg11.dtd">
<!-- Generated by graphviz version 2.43.0 (0)
 -->
<!-- Title: Source/YiSan/Network/Public/ANetworkTesterActor.h Pages: 1 -->
<svg width="592pt" height="203pt"
 viewBox="0.00 0.00 591.50 203.00" xmlns="http://www.w3.org/2000/svg" xmlns:xlink="http://www.w3.org/1999/xlink">
<g id="graph0" class="graph" transform="scale(1 1) rotate(0) translate(4 199)">
<title>Source/YiSan/Network/Public/ANetworkTesterActor.h</title>
<!-- Node1 -->
<g id="Node000001" class="node">
<title>Node1</title>
<g id="a_Node000001"><a xlink:title="ANetworkTesterActor 선언에 대한 Doxygen 주석을 제공합니다.">
<polygon fill="#999999" stroke="#666666" points="284.5,-195 121.5,-195 121.5,-165 284.5,-165 284.5,-195"/>
<text text-anchor="start" x="129.5" y="-183" font-family="Malgun Gothic" font-size="10.00">Source/YiSan/Network</text>
<text text-anchor="middle" x="203" y="-172" font-family="Malgun Gothic" font-size="10.00">/Public/ANetworkTesterActor.h</text>
</a>
</g>
</g>
<!-- Node2 -->
<g id="Node000002" class="node">
<title>Node2</title>
<g id="a_Node000002"><a xlink:title=" ">
<polygon fill="#e0e0e0" stroke="#999999" points="88,-19 0,-19 0,0 88,0 88,-19"/>
<text text-anchor="middle" x="44" y="-7" font-family="Malgun Gothic" font-size="10.00">CoreMinimal.h</text>
</a>
</g>
</g>
<!-- Node1&#45;&gt;Node2 -->
<g id="edge1_Node000001_Node000002" class="edge">
<title>Node1&#45;&gt;Node2</title>
<g id="a_edge1_Node000001_Node000002"><a xlink:title=" ">
<path fill="none" stroke="#63b8ff" d="M121.43,-167.37C97.99,-160.07 74.58,-148.22 59,-129 35.9,-100.5 37.56,-54.8 40.79,-29.28"/>
<polygon fill="#63b8ff" stroke="#63b8ff" points="44.3,-29.52 42.31,-19.11 37.37,-28.49 44.3,-29.52"/>
</a>
</g>
</g>
<!-- Node3 -->
<g id="Node000003" class="node">
<title>Node3</title>
<g id="a_Node000003"><a xlink:title=" ">
<polygon fill="#e0e0e0" stroke="#999999" points="205.5,-129 68.5,-129 68.5,-110 205.5,-110 205.5,-129"/>
<text text-anchor="middle" x="137" y="-117" font-family="Malgun Gothic" font-size="10.00">GameFramework/Actor.h</text>
</a>
</g>
</g>
<!-- Node1&#45;&gt;Node3 -->
<g id="edge2_Node000001_Node000003" class="edge">
<title>Node1&#45;&gt;Node3</title>
<g id="a_edge2_Node000001_Node000003"><a xlink:title=" ">
<path fill="none" stroke="#63b8ff" d="M187.02,-164.84C177.25,-156.17 164.73,-145.08 154.66,-136.15"/>
<polygon fill="#63b8ff" stroke="#63b8ff" points="156.69,-133.28 146.89,-129.27 152.05,-138.52 156.69,-133.28"/>
</a>
</g>
</g>
<!-- Node4 -->
<g id="Node000004" class="node">
<title>Node4</title>
<g id="a_Node000004"><a xlink:href="NetworkData_8h.html" target="_top" xlink:title="NetworkData 구조체 선언에 대한 Doxygen 주석을 제공합니다.">
<polygon fill="white" stroke="#666666" points="314,-129 224,-129 224,-110 314,-110 314,-129"/>
<text text-anchor="middle" x="269" y="-117" font-family="Malgun Gothic" font-size="10.00">NetworkData.h</text>
</a>
</g>
</g>
<!-- Node1&#45;&gt;Node4 -->
<g id="edge3_Node000001_Node000004" class="edge">
<title>Node1&#45;&gt;Node4</title>
<g id="a_edge3_Node000001_Node000004"><a xlink:title=" ">
<path fill="none" stroke="#63b8ff" d="M218.98,-164.84C228.75,-156.17 241.27,-145.08 251.34,-136.15"/>
<polygon fill="#63b8ff" stroke="#63b8ff" points="253.95,-138.52 259.11,-129.27 249.31,-133.28 253.95,-138.52"/>
</a>
</g>
</g>
<!-- Node10 -->
<g id="Node000010" class="node">
<title>Node10</title>
<g id="a_Node000010"><a xlink:title=" ">
<polygon fill="#e0e0e0" stroke="#999999" points="512,-129 332,-129 332,-110 512,-110 512,-129"/>
<text text-anchor="middle" x="422" y="-117" font-family="Malgun Gothic" font-size="10.00">ANetworkTesterActor.generated.h</text>
</a>
</g>
</g>
<!-- Node1&#45;&gt;Node10 -->
<g id="edge11_Node000001_Node000010" class="edge">
<title>Node1&#45;&gt;Node10</title>
<g id="a_edge11_Node000001_Node000010"><a xlink:title=" ">
<path fill="none" stroke="#63b8ff" d="M255.46,-164.99C293.58,-154.8 344.5,-141.2 379.96,-131.73"/>
<polygon fill="#63b8ff" stroke="#63b8ff" points="381.22,-135.02 389.98,-129.05 379.41,-128.25 381.22,-135.02"/>
</a>
</g>
</g>
<!-- Node4&#45;&gt;Node2 -->
<g id="edge4_Node000004_Node000002" class="edge">
<title>Node4&#45;&gt;Node2</title>
<g id="a_edge4_Node000004_Node000002"><a xlink:title=" ">
<path fill="none" stroke="#63b8ff" d="M223.78,-110.07C180.21,-101.37 117.92,-87.24 97,-74 78.69,-62.41 63.54,-42.41 54.2,-27.95"/>
<polygon fill="#63b8ff" stroke="#63b8ff" points="57.15,-26.07 48.92,-19.39 51.19,-29.74 57.15,-26.07"/>
</a>
</g>
</g>
<!-- Node5 -->
<g id="Node000005" class="node">
<title>Node5</title>
<g id="a_Node000005"><a xlink:href="UCustomNetworkSettings_8h.html" target="_top" xlink:title="UCustomNetworkSettings 선언에 대한 Doxygen 주석을 제공합니다.">
<polygon fill="white" stroke="#666666" points="258,-74 106,-74 106,-55 258,-55 258,-74"/>
<text text-anchor="middle" x="182" y="-62" font-family="Malgun Gothic" font-size="10.00">UCustomNetworkSettings.h</text>
</a>
</g>
</g>
<!-- Node4&#45;&gt;Node5 -->
<g id="edge5_Node000004_Node000005" class="edge">
<title>Node4&#45;&gt;Node5</title>
<g id="a_edge5_Node000004_Node000005"><a xlink:title=" ">
<path fill="none" stroke="#63b8ff" d="M255.02,-109.98C241.53,-101.77 220.87,-89.18 204.96,-79.49"/>
<polygon fill="#63b8ff" stroke="#63b8ff" points="206.59,-76.38 196.23,-74.17 202.95,-82.36 206.59,-76.38"/>
</a>
</g>
</g>
<!-- Node8 -->
<g id="Node000008" class="node">
<title>Node8</title>
<g id="a_Node000008"><a xlink:title=" ">
<polygon fill="#e0e0e0" stroke="#999999" points="422,-74 276,-74 276,-55 422,-55 422,-74"/>
<text text-anchor="middle" x="349" y="-62" font-family="Malgun Gothic" font-size="10.00">Templates/SharedPointer.h</text>
</a>
</g>
</g>
<!-- Node4&#45;&gt;Node8 -->
<g id="edge9_Node000004_Node000008" class="edge">
<title>Node4&#45;&gt;Node8</title>
<g id="a_edge9_Node000004_Node000008"><a xlink:title=" ">
<path fill="none" stroke="#63b8ff" d="M281.85,-109.98C294.14,-101.84 312.91,-89.41 327.48,-79.76"/>
<polygon fill="#63b8ff" stroke="#63b8ff" points="329.51,-82.61 335.91,-74.17 325.64,-76.78 329.51,-82.61"/>
</a>
</g>
</g>
<!-- Node9 -->
<g id="Node000009" class="node">
<title>Node9</title>
<g id="a_Node000009"><a xlink:title=" ">
<polygon fill="#e0e0e0" stroke="#999999" points="583.5,-74 440.5,-74 440.5,-55 583.5,-55 583.5,-74"/>
<text text-anchor="middle" x="512" y="-62" font-family="Malgun Gothic" font-size="10.00">NetworkData.generated.h</text>
</a>
</g>
</g>
<!-- Node4&#45;&gt;Node9 -->
<g id="edge10_Node000004_Node000009" class="edge">
<title>Node4&#45;&gt;Node9</title>
<g id="a_edge10_Node000004_Node000009"><a xlink:title=" ">
<path fill="none" stroke="#63b8ff" d="M308.04,-109.98C350.08,-100.82 417.04,-86.21 462.68,-76.26"/>
<polygon fill="#63b8ff" stroke="#63b8ff" points="463.63,-79.63 472.65,-74.08 462.14,-72.79 463.63,-79.63"/>
</a>
</g>
</g>
<!-- Node5&#45;&gt;Node2 -->
<g id="edge6_Node000005_Node000002" class="edge">
<title>Node5&#45;&gt;Node2</title>
<g id="a_edge6_Node000005_Node000002"><a xlink:title=" ">
<path fill="none" stroke="#63b8ff" d="M159.83,-54.98C137.23,-46.3 101.94,-32.75 76.25,-22.88"/>
<polygon fill="#63b8ff" stroke="#63b8ff" points="77.17,-19.49 66.58,-19.17 74.66,-26.02 77.17,-19.49"/>
</a>
</g>
</g>
<!-- Node6 -->
<g id="Node000006" class="node">
<title>Node6</title>
<g id="a_Node000006"><a xlink:title=" ">
<polygon fill="#e0e0e0" stroke="#999999" points="258,-19 106,-19 106,0 258,0 258,-19"/>
<text text-anchor="middle" x="182" y="-7" font-family="Malgun Gothic" font-size="10.00">Engine/DeveloperSettings.h</text>
</a>
</g>
</g>
<!-- Node5&#45;&gt;Node6 -->
<g id="edge7_Node000005_Node000006" class="edge">
<title>Node5&#45;&gt;Node6</title>
<g id="a_edge7_Node000005_Node000006"><a xlink:title=" ">
<path fill="none" stroke="#63b8ff" d="M182,-54.75C182,-47.8 182,-37.85 182,-29.13"/>
<polygon fill="#63b8ff" stroke="#63b8ff" points="185.5,-29.09 182,-19.09 178.5,-29.09 185.5,-29.09"/>
</a>
</g>
</g>
<!-- Node7 -->
<g id="Node000007" class="node">
<title>Node7</title>
<g id="a_Node000007"><a xlink:title=" ">
<polygon fill="#e0e0e0" stroke="#999999" points="480,-19 276,-19 276,0 480,0 480,-19"/>
<text text-anchor="middle" x="378" y="-7" font-family="Malgun Gothic" font-size="10.00">UCustomNetworkSettings.generated.h</text>
</a>
</g>
</g>
<!-- Node5&#45;&gt;Node7 -->
<g id="edge8_Node000005_Node000007" class="edge">
<title>Node5&#45;&gt;Node7</title>
<g id="a_edge8_Node000005_Node000007"><a xlink:title=" ">
<path fill="none" stroke="#63b8ff" d="M213.49,-54.98C246.82,-45.97 299.6,-31.7 336.35,-21.76"/>
<polygon fill="#63b8ff" stroke="#63b8ff" points="337.52,-25.07 346.26,-19.08 335.7,-18.31 337.52,-25.07"/>
</a>
</g>
</g>
</g>
</svg>
