<?xml version="1.0" encoding="UTF-8" standalone="no"?>
<!DOCTYPE svg PUBLIC "-//W3C//DTD SVG 1.1//EN"
 "http://www.w3.org/Graphics/SVG/1.1/DTD/svg11.dtd">
<!-- Generated by graphviz version 2.43.0 (0)
 -->
<!-- Title: Source/LatteLibrary/Character/Public/APlayerControl.h Pages: 1 -->
<svg width="601pt" height="93pt"
 viewBox="0.00 0.00 600.50 93.00" xmlns="http://www.w3.org/2000/svg" xmlns:xlink="http://www.w3.org/1999/xlink">
<g id="graph0" class="graph" transform="scale(1 1) rotate(0) translate(4 89)">
<title>Source/LatteLibrary/Character/Public/APlayerControl.h</title>
<!-- Node1 -->
<g id="Node000001" class="node">
<title>Node1</title>
<g id="a_Node000001"><a xlink:title="APlayerControl 선언에 대한 Doxygen 주석을 제공합니다.">
<polygon fill="#999999" stroke="#666666" points="336,-85 152,-85 152,-55 336,-55 336,-85"/>
<text text-anchor="start" x="160" y="-73" font-family="Malgun Gothic" font-size="10.00">Source/LatteLibrary</text>
<text text-anchor="middle" x="244" y="-62" font-family="Malgun Gothic" font-size="10.00">/Character/Public/APlayerControl.h</text>
</a>
</g>
</g>
<!-- Node2 -->
<g id="Node000002" class="node">
<title>Node2</title>
<g id="a_Node000002"><a xlink:title=" ">
<polygon fill="#e0e0e0" stroke="#999999" points="88,-19 0,-19 0,0 88,0 88,-19"/>
<text text-anchor="middle" x="44" y="-7" font-family="Malgun Gothic" font-size="10.00">CoreMinimal.h</text>
</a>
</g>
</g>
<!-- Node1&#45;&gt;Node2 -->
<g id="edge1_Node000001_Node000002" class="edge">
<title>Node1&#45;&gt;Node2</title>
<g id="a_edge1_Node000001_Node000002"><a xlink:title=" ">
<path fill="none" stroke="#63b8ff" d="M196.1,-54.99C161.58,-44.89 115.58,-31.44 83.23,-21.98"/>
<polygon fill="#63b8ff" stroke="#63b8ff" points="83.82,-18.5 73.24,-19.05 81.86,-25.22 83.82,-18.5"/>
</a>
</g>
</g>
<!-- Node3 -->
<g id="Node000003" class="node">
<title>Node3</title>
<g id="a_Node000003"><a xlink:title=" ">
<polygon fill="#e0e0e0" stroke="#999999" points="214,-19 106,-19 106,0 214,0 214,-19"/>
<text text-anchor="middle" x="160" y="-7" font-family="Malgun Gothic" font-size="10.00">InputActionValue.h</text>
</a>
</g>
</g>
<!-- Node1&#45;&gt;Node3 -->
<g id="edge2_Node000001_Node000003" class="edge">
<title>Node1&#45;&gt;Node3</title>
<g id="a_edge2_Node000001_Node000003"><a xlink:title=" ">
<path fill="none" stroke="#63b8ff" d="M223.67,-54.84C210.73,-45.83 194.01,-34.18 180.95,-25.09"/>
<polygon fill="#63b8ff" stroke="#63b8ff" points="182.79,-22.11 172.59,-19.27 178.79,-27.85 182.79,-22.11"/>
</a>
</g>
</g>
<!-- Node4 -->
<g id="Node000004" class="node">
<title>Node4</title>
<g id="a_Node000004"><a xlink:title=" ">
<polygon fill="#e0e0e0" stroke="#999999" points="423.5,-19 232.5,-19 232.5,0 423.5,0 423.5,-19"/>
<text text-anchor="middle" x="328" y="-7" font-family="Malgun Gothic" font-size="10.00">GameFramework/PlayerController.h</text>
</a>
</g>
</g>
<!-- Node1&#45;&gt;Node4 -->
<g id="edge3_Node000001_Node000004" class="edge">
<title>Node1&#45;&gt;Node4</title>
<g id="a_edge3_Node000001_Node000004"><a xlink:title=" ">
<path fill="none" stroke="#63b8ff" d="M264.33,-54.84C277.27,-45.83 293.99,-34.18 307.05,-25.09"/>
<polygon fill="#63b8ff" stroke="#63b8ff" points="309.21,-27.85 315.41,-19.27 305.21,-22.11 309.21,-27.85"/>
</a>
</g>
</g>
<!-- Node5 -->
<g id="Node000005" class="node">
<title>Node5</title>
<g id="a_Node000005"><a xlink:title=" ">
<polygon fill="#e0e0e0" stroke="#999999" points="592.5,-19 441.5,-19 441.5,0 592.5,0 592.5,-19"/>
<text text-anchor="middle" x="517" y="-7" font-family="Malgun Gothic" font-size="10.00">APlayerControl.generated.h</text>
</a>
</g>
</g>
<!-- Node1&#45;&gt;Node5 -->
<g id="edge4_Node000001_Node000005" class="edge">
<title>Node1&#45;&gt;Node5</title>
<g id="a_edge4_Node000001_Node000005"><a xlink:title=" ">
<path fill="none" stroke="#63b8ff" d="M309.39,-54.99C357.83,-44.61 422.85,-30.68 467.13,-21.19"/>
<polygon fill="#63b8ff" stroke="#63b8ff" points="468.04,-24.57 477.08,-19.05 466.57,-17.73 468.04,-24.57"/>
</a>
</g>
</g>
</g>
</svg>
