<?xml version="1.0" encoding="UTF-8" standalone="no"?>
<!DOCTYPE svg PUBLIC "-//W3C//DTD SVG 1.1//EN"
 "http://www.w3.org/Graphics/SVG/1.1/DTD/svg11.dtd">
<!-- Generated by graphviz version 2.43.0 (0)
 -->
<!-- Title: Source/YiSan/Character/Private/APlayerActor.cpp Pages: 1 -->
<!--zoomable 214 -->

<svg id="main" version="1.1" xmlns="http://www.w3.org/2000/svg" xmlns:xlink="http://www.w3.org/1999/xlink" xml:space="preserve" onload="init(evt)">
<style type="text/css"><![CDATA[
.node, .edge {opacity: 0.7;}
.node.selected, .edge.selected {opacity: 1;}
.edge:hover path { stroke: red; }
.edge:hover polygon { stroke: red; fill: red; }
]]></style>

<defs>
  <circle id="rim" cx="0" cy="0" r="7"/>
  <circle id="rim2" cx="0" cy="0" r="3.5"/>
  <g id="zoomPlus">
    <use xlink:href="#rim" fill="#404040"><set attributeName="fill" to="#808080" begin="zoomplus.mouseover" end="zoomplus.mouseout"/></use>
    <path d="M-4,0h8M0,-4v8" fill="none" stroke="white" stroke-width="1.5" pointer-events="none"/>
  </g>
  <g id="zoomMin">
    <use xlink:href="#rim" fill="#404040"><set attributeName="fill" to="#808080" begin="zoomminus.mouseover" end="zoomminus.mouseout"/></use>
    <path d="M-4,0h8" fill="none" stroke="white" stroke-width="1.5" pointer-events="none"/>
  </g>
  <g id="arrowUp" transform="translate(30 24)">
    <use xlink:href="#rim"/>
    <path pointer-events="none" fill="none" stroke="white" stroke-width="1.5" d="M0,-3.0v7 M-2.5,-0.5L0,-3.0L2.5,-0.5"/>
  </g>
  <g id="arrowRight" transform="rotate(90) translate(36 -43)">
    <use xlink:href="#rim"/>
    <path pointer-events="none" fill="none" stroke="white" stroke-width="1.5" d="M0,-3.0v7 M-2.5,-0.5L0,-3.0L2.5,-0.5"/>
  </g>
  <g id="arrowDown" transform="rotate(180) translate(-30 -48)">
    <use xlink:href="#rim"/>
    <path pointer-events="none" fill="none" stroke="white" stroke-width="1.5" d="M0,-3.0v7 M-2.5,-0.5L0,-3.0L2.5,-0.5"/>
  </g>
  <g id="arrowLeft" transform="rotate(270) translate(-36 17)">
    <use xlink:href="#rim"/>
    <path pointer-events="none" fill="none" stroke="white" stroke-width="1.5" d="M0,-3.0v7 M-2.5,-0.5L0,-3.0L2.5,-0.5"/>
  </g>
  <g id="resetDef">
    <use xlink:href="#rim2" fill="#404040"><set attributeName="fill" to="#808080" begin="reset.mouseover" end="reset.mouseout"/></use>
  </g>
</defs>
<script type="application/ecmascript">
var viewWidth = 2011;
var viewHeight = 214;
var sectionId = 'dynsection-0';
</script>
<script type="application/ecmascript" xlink:href="svg.min.js"/>
<svg id="graph" class="graph">
<g id="viewport">
<title>Source/YiSan/Character/Private/APlayerActor.cpp</title>
<!-- Node1 -->
<g id="Node000001" class="node">
<title>Node1</title>
<g id="a_Node000001"><a xlink:title="Provides Doxygen annotations for APlayerActor implementation.">
<polygon fill="#999999" stroke="#666666" points="1257,-206 1117,-206 1117,-176 1257,-176 1257,-206"/>
<text text-anchor="start" x="1125" y="-194" font-family="Malgun Gothic" font-size="10.00">Source/YiSan/Character</text>
<text text-anchor="middle" x="1187" y="-183" font-family="Malgun Gothic" font-size="10.00">/Private/APlayerActor.cpp</text>
</a>
</g>
</g>
<!-- Node2 -->
<g id="Node000002" class="node">
<title>Node2</title>
<g id="a_Node000002"><a xlink:href="APlayerActor_8h.html" target="_top" xlink:title="Declares the player&#45;controlled character actor.">
<polygon fill="white" stroke="#666666" points="1051,-134.5 963,-134.5 963,-115.5 1051,-115.5 1051,-134.5"/>
<text text-anchor="middle" x="1007" y="-122.5" font-family="Malgun Gothic" font-size="10.00">APlayerActor.h</text>
</a>
</g>
</g>
<!-- Node1&#45;&gt;Node2 -->
<g id="edge1_Node000001_Node000002" class="edge">
<title>Node1&#45;&gt;Node2</title>
<g id="a_edge1_Node000001_Node000002"><a xlink:title=" ">
<path fill="none" stroke="#63b8ff" d="M1147.5,-175.95C1115.51,-164.58 1070.95,-148.74 1040.65,-137.96"/>
<polygon fill="#63b8ff" stroke="#63b8ff" points="1041.55,-134.57 1030.95,-134.52 1039.2,-141.17 1041.55,-134.57"/>
</a>
</g>
</g>
<!-- Node9 -->
<g id="Node000009" class="node">
<title>Node9</title>
<g id="a_Node000009"><a xlink:href="UVoiceRecordSystem_8h.html" target="_top" xlink:title=" ">
<polygon fill="white" stroke="#666666" points="385,-134.5 255,-134.5 255,-115.5 385,-115.5 385,-134.5"/>
<text text-anchor="middle" x="320" y="-122.5" font-family="Malgun Gothic" font-size="10.00">UVoiceRecordSystem.h</text>
</a>
</g>
</g>
<!-- Node1&#45;&gt;Node9 -->
<g id="edge9_Node000001_Node000009" class="edge">
<title>Node1&#45;&gt;Node9</title>
<g id="a_edge9_Node000001_Node000009"><a xlink:title=" ">
<path fill="none" stroke="#63b8ff" d="M1116.78,-184.82C955.78,-172.93 561.13,-143.8 395.31,-131.56"/>
<polygon fill="#63b8ff" stroke="#63b8ff" points="395.43,-128.06 385.2,-130.81 394.92,-135.04 395.43,-128.06"/>
</a>
</g>
</g>
<!-- Node13 -->
<g id="Node000013" class="node">
<title>Node13</title>
<g id="a_Node000013"><a xlink:title=" ">
<polygon fill="#e0e0e0" stroke="#999999" points="1340.5,-134.5 1179.5,-134.5 1179.5,-115.5 1340.5,-115.5 1340.5,-134.5"/>
<text text-anchor="middle" x="1260" y="-122.5" font-family="Malgun Gothic" font-size="10.00">Camera/CameraComponent.h</text>
</a>
</g>
</g>
<!-- Node1&#45;&gt;Node13 -->
<g id="edge14_Node000001_Node000013" class="edge">
<title>Node1&#45;&gt;Node13</title>
<g id="a_edge14_Node000001_Node000013"><a xlink:title=" ">
<path fill="none" stroke="#63b8ff" d="M1203.2,-175.8C1214.8,-165.62 1230.42,-151.93 1242.34,-141.48"/>
<polygon fill="#63b8ff" stroke="#63b8ff" points="1244.7,-144.07 1249.91,-134.84 1240.09,-138.8 1244.7,-144.07"/>
</a>
</g>
</g>
<!-- Node14 -->
<g id="Node000014" class="node">
<title>Node14</title>
<g id="a_Node000014"><a xlink:title=" ">
<polygon fill="#e0e0e0" stroke="#999999" points="1543.5,-134.5 1358.5,-134.5 1358.5,-115.5 1543.5,-115.5 1543.5,-134.5"/>
<text text-anchor="middle" x="1451" y="-122.5" font-family="Malgun Gothic" font-size="10.00">Components/CapsuleComponent.h</text>
</a>
</g>
</g>
<!-- Node1&#45;&gt;Node14 -->
<g id="edge15_Node000001_Node000014" class="edge">
<title>Node1&#45;&gt;Node14</title>
<g id="a_edge15_Node000001_Node000014"><a xlink:title=" ">
<path fill="none" stroke="#63b8ff" d="M1244.94,-175.95C1293.38,-164.21 1361.49,-147.7 1405.93,-136.93"/>
<polygon fill="#63b8ff" stroke="#63b8ff" points="1406.97,-140.27 1415.87,-134.52 1405.32,-133.47 1406.97,-140.27"/>
</a>
</g>
</g>
<!-- Node15 -->
<g id="Node000015" class="node">
<title>Node15</title>
<g id="a_Node000015"><a xlink:title=" ">
<polygon fill="#e0e0e0" stroke="#999999" points="1764.5,-140 1561.5,-140 1561.5,-110 1764.5,-110 1764.5,-140"/>
<text text-anchor="start" x="1569.5" y="-128" font-family="Malgun Gothic" font-size="10.00">GameFramework/CharacterMovement</text>
<text text-anchor="middle" x="1663" y="-117" font-family="Malgun Gothic" font-size="10.00">Component.h</text>
</a>
</g>
</g>
<!-- Node1&#45;&gt;Node15 -->
<g id="edge16_Node000001_Node000015" class="edge">
<title>Node1&#45;&gt;Node15</title>
<g id="a_edge16_Node000001_Node000015"><a xlink:title=" ">
<path fill="none" stroke="#63b8ff" d="M1257.24,-180.56C1334.63,-170.15 1460.19,-153.27 1551.16,-141.04"/>
<polygon fill="#63b8ff" stroke="#63b8ff" points="1551.79,-144.48 1561.24,-139.68 1550.86,-137.55 1551.79,-144.48"/>
</a>
</g>
</g>
<!-- Node16 -->
<g id="Node000016" class="node">
<title>Node16</title>
<g id="a_Node000016"><a xlink:title=" ">
<polygon fill="#e0e0e0" stroke="#999999" points="2003,-134.5 1783,-134.5 1783,-115.5 2003,-115.5 2003,-134.5"/>
<text text-anchor="middle" x="1893" y="-122.5" font-family="Malgun Gothic" font-size="10.00">GameFramework/SpringArmComponent.h</text>
</a>
</g>
</g>
<!-- Node1&#45;&gt;Node16 -->
<g id="edge17_Node000001_Node000016" class="edge">
<title>Node1&#45;&gt;Node16</title>
<g id="a_edge17_Node000001_Node000016"><a xlink:title=" ">
<path fill="none" stroke="#63b8ff" d="M1257.1,-184.76C1367.24,-176.37 1587.53,-158.91 1774,-140 1786.86,-138.7 1800.5,-137.2 1813.77,-135.68"/>
<polygon fill="#63b8ff" stroke="#63b8ff" points="1814.29,-139.14 1823.82,-134.52 1813.49,-132.19 1814.29,-139.14"/>
</a>
</g>
</g>
<!-- Node17 -->
<g id="Node000017" class="node">
<title>Node17</title>
<g id="a_Node000017"><a xlink:href="UMainWidget_8h.html" target="_top" xlink:title=" ">
<polygon fill="white" stroke="#666666" points="1161,-134.5 1069,-134.5 1069,-115.5 1161,-115.5 1161,-134.5"/>
<text text-anchor="middle" x="1115" y="-122.5" font-family="Malgun Gothic" font-size="10.00">UMainWidget.h</text>
</a>
</g>
</g>
<!-- Node1&#45;&gt;Node17 -->
<g id="edge18_Node000001_Node000017" class="edge">
<title>Node1&#45;&gt;Node17</title>
<g id="a_edge18_Node000001_Node000017"><a xlink:title=" ">
<path fill="none" stroke="#63b8ff" d="M1171.02,-175.8C1159.69,-165.72 1144.47,-152.19 1132.75,-141.78"/>
<polygon fill="#63b8ff" stroke="#63b8ff" points="1134.75,-138.87 1124.95,-134.84 1130.1,-144.1 1134.75,-138.87"/>
</a>
</g>
</g>
<!-- Node20 -->
<g id="Node000020" class="node">
<title>Node20</title>
<g id="a_Node000020"><a xlink:href="FComponentHelper_8h.html" target="_top" xlink:title="FComponentHelper 선언에 대한 Doxygen 주석을 제공합니다.">
<polygon fill="white" stroke="#666666" points="656.5,-134.5 537.5,-134.5 537.5,-115.5 656.5,-115.5 656.5,-134.5"/>
<text text-anchor="middle" x="597" y="-122.5" font-family="Malgun Gothic" font-size="10.00">FComponentHelper.h</text>
</a>
</g>
</g>
<!-- Node1&#45;&gt;Node20 -->
<g id="edge22_Node000001_Node000020" class="edge">
<title>Node1&#45;&gt;Node20</title>
<g id="a_edge22_Node000001_Node000020"><a xlink:title=" ">
<path fill="none" stroke="#63b8ff" d="M1116.71,-182.38C1002.96,-170.04 779.88,-145.84 666.59,-133.55"/>
<polygon fill="#63b8ff" stroke="#63b8ff" points="666.95,-130.07 656.63,-132.47 666.2,-137.03 666.95,-130.07"/>
</a>
</g>
</g>
<!-- Node3 -->
<g id="Node000003" class="node">
<title>Node3</title>
<g id="a_Node000003"><a xlink:title=" ">
<polygon fill="#e0e0e0" stroke="#999999" points="786,-19 698,-19 698,0 786,0 786,-19"/>
<text text-anchor="middle" x="742" y="-7" font-family="Malgun Gothic" font-size="10.00">CoreMinimal.h</text>
</a>
</g>
</g>
<!-- Node2&#45;&gt;Node3 -->
<g id="edge2_Node000002_Node000003" class="edge">
<title>Node2&#45;&gt;Node3</title>
<g id="a_edge2_Node000002_Node000003"><a xlink:title=" ">
<path fill="none" stroke="#63b8ff" d="M962.78,-120.52C899.88,-114.68 788.97,-100.83 760,-74 747.8,-62.69 743.64,-43.79 742.34,-29.54"/>
<polygon fill="#63b8ff" stroke="#63b8ff" points="745.82,-29.15 741.8,-19.34 738.83,-29.51 745.82,-29.15"/>
</a>
</g>
</g>
<!-- Node4 -->
<g id="Node000004" class="node">
<title>Node4</title>
<g id="a_Node000004"><a xlink:href="IControllable_8h.html" target="_top" xlink:title="IControllable 인터페이스 선언에 대한 Doxygen 주석을 제공합니다.">
<polygon fill="white" stroke="#666666" points="1231,-74 1143,-74 1143,-55 1231,-55 1231,-74"/>
<text text-anchor="middle" x="1187" y="-62" font-family="Malgun Gothic" font-size="10.00">IControllable.h</text>
</a>
</g>
</g>
<!-- Node2&#45;&gt;Node4 -->
<g id="edge3_Node000002_Node000004" class="edge">
<title>Node2&#45;&gt;Node4</title>
<g id="a_edge3_Node000002_Node000004"><a xlink:title=" ">
<path fill="none" stroke="#63b8ff" d="M1033.17,-115.49C1064.23,-105.4 1116.19,-88.51 1151.02,-77.19"/>
<polygon fill="#63b8ff" stroke="#63b8ff" points="1152.37,-80.44 1160.79,-74.02 1150.2,-73.78 1152.37,-80.44"/>
</a>
</g>
</g>
<!-- Node7 -->
<g id="Node000007" class="node">
<title>Node7</title>
<g id="a_Node000007"><a xlink:title=" ">
<polygon fill="#e0e0e0" stroke="#999999" points="928.5,-74 769.5,-74 769.5,-55 928.5,-55 928.5,-74"/>
<text text-anchor="middle" x="849" y="-62" font-family="Malgun Gothic" font-size="10.00">GameFramework/Character.h</text>
</a>
</g>
</g>
<!-- Node2&#45;&gt;Node7 -->
<g id="edge7_Node000002_Node000007" class="edge">
<title>Node2&#45;&gt;Node7</title>
<g id="a_edge7_Node000002_Node000007"><a xlink:title=" ">
<path fill="none" stroke="#63b8ff" d="M984.03,-115.49C957.11,-105.53 912.33,-88.95 881.77,-77.63"/>
<polygon fill="#63b8ff" stroke="#63b8ff" points="882.6,-74.21 872,-74.02 880.16,-80.77 882.6,-74.21"/>
</a>
</g>
</g>
<!-- Node8 -->
<g id="Node000008" class="node">
<title>Node8</title>
<g id="a_Node000008"><a xlink:title=" ">
<polygon fill="#e0e0e0" stroke="#999999" points="1087,-74 947,-74 947,-55 1087,-55 1087,-74"/>
<text text-anchor="middle" x="1017" y="-62" font-family="Malgun Gothic" font-size="10.00">APlayerActor.generated.h</text>
</a>
</g>
</g>
<!-- Node2&#45;&gt;Node8 -->
<g id="edge8_Node000002_Node000008" class="edge">
<title>Node2&#45;&gt;Node8</title>
<g id="a_edge8_Node000002_Node000008"><a xlink:title=" ">
<path fill="none" stroke="#63b8ff" d="M1008.48,-115.37C1009.88,-107.16 1012.04,-94.54 1013.83,-84.05"/>
<polygon fill="#63b8ff" stroke="#63b8ff" points="1017.28,-84.61 1015.52,-74.17 1010.38,-83.43 1017.28,-84.61"/>
</a>
</g>
</g>
<!-- Node4&#45;&gt;Node3 -->
<g id="edge4_Node000004_Node000003" class="edge">
<title>Node4&#45;&gt;Node3</title>
<g id="a_edge4_Node000004_Node000003"><a xlink:title=" ">
<path fill="none" stroke="#63b8ff" d="M1142.69,-56.86C1138.07,-56.21 1133.44,-55.58 1129,-55 1010.51,-39.51 871.23,-24.2 796.3,-16.21"/>
<polygon fill="#63b8ff" stroke="#63b8ff" points="796.48,-12.71 786.16,-15.13 795.74,-19.67 796.48,-12.71"/>
</a>
</g>
</g>
<!-- Node5 -->
<g id="Node000005" class="node">
<title>Node5</title>
<g id="a_Node000005"><a xlink:title=" ">
<polygon fill="#e0e0e0" stroke="#999999" points="1314.5,-19 1203.5,-19 1203.5,0 1314.5,0 1314.5,-19"/>
<text text-anchor="middle" x="1259" y="-7" font-family="Malgun Gothic" font-size="10.00">UObject/Interface.h</text>
</a>
</g>
</g>
<!-- Node4&#45;&gt;Node5 -->
<g id="edge5_Node000004_Node000005" class="edge">
<title>Node4&#45;&gt;Node5</title>
<g id="a_edge5_Node000004_Node000005"><a xlink:title=" ">
<path fill="none" stroke="#63b8ff" d="M1198.57,-54.98C1209.42,-47 1225.88,-34.88 1238.88,-25.31"/>
<polygon fill="#63b8ff" stroke="#63b8ff" points="1241.24,-27.92 1247.22,-19.17 1237.09,-22.28 1241.24,-27.92"/>
</a>
</g>
</g>
<!-- Node6 -->
<g id="Node000006" class="node">
<title>Node6</title>
<g id="a_Node000006"><a xlink:title=" ">
<polygon fill="#e0e0e0" stroke="#999999" points="1185,-19 1045,-19 1045,0 1185,0 1185,-19"/>
<text text-anchor="middle" x="1115" y="-7" font-family="Malgun Gothic" font-size="10.00">IControllable.generated.h</text>
</a>
</g>
</g>
<!-- Node4&#45;&gt;Node6 -->
<g id="edge6_Node000004_Node000006" class="edge">
<title>Node4&#45;&gt;Node6</title>
<g id="a_edge6_Node000004_Node000006"><a xlink:title=" ">
<path fill="none" stroke="#63b8ff" d="M1175.43,-54.98C1164.58,-47 1148.12,-34.88 1135.12,-25.31"/>
<polygon fill="#63b8ff" stroke="#63b8ff" points="1136.91,-22.28 1126.78,-19.17 1132.76,-27.92 1136.91,-22.28"/>
</a>
</g>
</g>
<!-- Node9&#45;&gt;Node3 -->
<g id="edge10_Node000009_Node000003" class="edge">
<title>Node9&#45;&gt;Node3</title>
<g id="a_edge10_Node000009_Node000003"><a xlink:title=" ">
<path fill="none" stroke="#63b8ff" d="M319.55,-115.19C319.31,-100.26 321.23,-70.16 339,-55 365.02,-32.81 583.75,-18.67 687.63,-13.14"/>
<polygon fill="#63b8ff" stroke="#63b8ff" points="688.11,-16.62 697.92,-12.6 687.75,-9.63 688.11,-16.62"/>
</a>
</g>
</g>
<!-- Node10 -->
<g id="Node000010" class="node">
<title>Node10</title>
<g id="a_Node000010"><a xlink:title=" ">
<polygon fill="#e0e0e0" stroke="#999999" points="92,-74 0,-74 0,-55 92,-55 92,-74"/>
<text text-anchor="middle" x="46" y="-62" font-family="Malgun Gothic" font-size="10.00">AudioCapture.h</text>
</a>
</g>
</g>
<!-- Node9&#45;&gt;Node10 -->
<g id="edge11_Node000009_Node000010" class="edge">
<title>Node9&#45;&gt;Node10</title>
<g id="a_edge11_Node000009_Node000010"><a xlink:title=" ">
<path fill="none" stroke="#63b8ff" d="M280.16,-115.49C231.35,-105.07 148.66,-87.42 95.74,-76.12"/>
<polygon fill="#63b8ff" stroke="#63b8ff" points="96.4,-72.68 85.89,-74.02 94.94,-79.53 96.4,-72.68"/>
</a>
</g>
</g>
<!-- Node11 -->
<g id="Node000011" class="node">
<title>Node11</title>
<g id="a_Node000011"><a xlink:title=" ">
<polygon fill="#e0e0e0" stroke="#999999" points="520,-74 348,-74 348,-55 520,-55 520,-74"/>
<text text-anchor="middle" x="434" y="-62" font-family="Malgun Gothic" font-size="10.00">Components/ActorComponent.h</text>
</a>
</g>
</g>
<!-- Node9&#45;&gt;Node11 -->
<g id="edge12_Node000009_Node000011" class="edge">
<title>Node9&#45;&gt;Node11</title>
<g id="a_edge12_Node000009_Node000011"><a xlink:title=" ">
<path fill="none" stroke="#63b8ff" d="M336.82,-115.37C355.6,-105.73 386.2,-90.03 408.05,-78.81"/>
<polygon fill="#63b8ff" stroke="#63b8ff" points="409.81,-81.85 417.11,-74.17 406.61,-75.62 409.81,-81.85"/>
</a>
</g>
</g>
<!-- Node12 -->
<g id="Node000012" class="node">
<title>Node12</title>
<g id="a_Node000012"><a xlink:title=" ">
<polygon fill="#e0e0e0" stroke="#999999" points="292,-74 110,-74 110,-55 292,-55 292,-74"/>
<text text-anchor="middle" x="201" y="-62" font-family="Malgun Gothic" font-size="10.00">UVoiceRecordSystem.generated.h</text>
</a>
</g>
</g>
<!-- Node9&#45;&gt;Node12 -->
<g id="edge13_Node000009_Node000012" class="edge">
<title>Node9&#45;&gt;Node12</title>
<g id="a_edge13_Node000009_Node000012"><a xlink:title=" ">
<path fill="none" stroke="#63b8ff" d="M302.7,-115.49C282.95,-105.79 250.45,-89.81 227.51,-78.53"/>
<polygon fill="#63b8ff" stroke="#63b8ff" points="228.84,-75.29 218.32,-74.02 225.75,-81.57 228.84,-75.29"/>
</a>
</g>
</g>
<!-- Node17&#45;&gt;Node3 -->
<g id="edge19_Node000017_Node000003" class="edge">
<title>Node17&#45;&gt;Node3</title>
<g id="a_edge19_Node000017_Node000003"><a xlink:title=" ">
<path fill="none" stroke="#63b8ff" d="M1115.43,-115.22C1115.63,-100.33 1113.66,-70.29 1096,-55 1052.31,-17.17 884.21,-10.85 796.29,-10.2"/>
<polygon fill="#63b8ff" stroke="#63b8ff" points="796.26,-6.7 786.24,-10.15 796.22,-13.7 796.26,-6.7"/>
</a>
</g>
</g>
<!-- Node18 -->
<g id="Node000018" class="node">
<title>Node18</title>
<g id="a_Node000018"><a xlink:title=" ">
<polygon fill="#e0e0e0" stroke="#999999" points="1379,-74 1249,-74 1249,-55 1379,-55 1379,-74"/>
<text text-anchor="middle" x="1314" y="-62" font-family="Malgun Gothic" font-size="10.00">Blueprint/UserWidget.h</text>
</a>
</g>
</g>
<!-- Node17&#45;&gt;Node18 -->
<g id="edge20_Node000017_Node000018" class="edge">
<title>Node17&#45;&gt;Node18</title>
<g id="a_edge20_Node000017_Node000018"><a xlink:title=" ">
<path fill="none" stroke="#63b8ff" d="M1143.94,-115.49C1178.57,-105.31 1236.7,-88.22 1275.21,-76.9"/>
<polygon fill="#63b8ff" stroke="#63b8ff" points="1276.42,-80.2 1285.03,-74.02 1274.45,-73.48 1276.42,-80.2"/>
</a>
</g>
</g>
<!-- Node19 -->
<g id="Node000019" class="node">
<title>Node19</title>
<g id="a_Node000019"><a xlink:title=" ">
<polygon fill="#e0e0e0" stroke="#999999" points="1541,-74 1397,-74 1397,-55 1541,-55 1541,-74"/>
<text text-anchor="middle" x="1469" y="-62" font-family="Malgun Gothic" font-size="10.00">UMainWidget.generated.h</text>
</a>
</g>
</g>
<!-- Node17&#45;&gt;Node19 -->
<g id="edge21_Node000017_Node000019" class="edge">
<title>Node17&#45;&gt;Node19</title>
<g id="a_edge21_Node000017_Node000019"><a xlink:title=" ">
<path fill="none" stroke="#63b8ff" d="M1146.86,-115.47C1154.72,-113.52 1163.14,-111.57 1171,-110 1244.23,-95.41 1328.44,-83.26 1388.63,-75.36"/>
<polygon fill="#63b8ff" stroke="#63b8ff" points="1389.36,-78.79 1398.82,-74.03 1388.46,-71.85 1389.36,-78.79"/>
</a>
</g>
</g>
<!-- Node20&#45;&gt;Node3 -->
<g id="edge23_Node000020_Node000003" class="edge">
<title>Node20&#45;&gt;Node3</title>
<g id="a_edge23_Node000020_Node000003"><a xlink:title=" ">
<path fill="none" stroke="#63b8ff" d="M587.71,-115.2C574.2,-101.32 552.25,-73.97 567,-55 581.8,-35.96 642.03,-23.73 687.73,-17.01"/>
<polygon fill="#63b8ff" stroke="#63b8ff" points="688.41,-20.44 697.82,-15.57 687.43,-13.51 688.41,-20.44"/>
</a>
</g>
</g>
<!-- Node20&#45;&gt;Node11 -->
<g id="edge25_Node000020_Node000011" class="edge">
<title>Node20&#45;&gt;Node11</title>
<g id="a_edge25_Node000020_Node000011"><a xlink:title=" ">
<path fill="none" stroke="#63b8ff" d="M573.3,-115.49C545.41,-105.49 498.93,-88.8 467.4,-77.49"/>
<polygon fill="#63b8ff" stroke="#63b8ff" points="468.32,-74.1 457.73,-74.02 465.96,-80.69 468.32,-74.1"/>
</a>
</g>
</g>
<!-- Node21 -->
<g id="Node000021" class="node">
<title>Node21</title>
<g id="a_Node000021"><a xlink:title=" ">
<polygon fill="#e0e0e0" stroke="#999999" points="713.5,-74 576.5,-74 576.5,-55 713.5,-55 713.5,-74"/>
<text text-anchor="middle" x="645" y="-62" font-family="Malgun Gothic" font-size="10.00">GameFramework/Actor.h</text>
</a>
</g>
</g>
<!-- Node20&#45;&gt;Node21 -->
<g id="edge24_Node000020_Node000021" class="edge">
<title>Node20&#45;&gt;Node21</title>
<g id="a_edge24_Node000020_Node000021"><a xlink:title=" ">
<path fill="none" stroke="#63b8ff" d="M604.08,-115.37C611.24,-106.64 622.49,-92.93 631.39,-82.09"/>
<polygon fill="#63b8ff" stroke="#63b8ff" points="634.25,-84.12 637.89,-74.17 628.84,-79.68 634.25,-84.12"/>
</a>
</g>
</g>
</g>
</svg>

<g id="navigator" transform="translate(0 0)" fill="#404254">
  <rect fill="#f2f5e9" fill-opacity="0.5" stroke="#606060" stroke-width=".5" x="0" y="0" width="60" height="60"/>
  <use id="zoomplus" xlink:href="#zoomPlus" x="17" y="9" onmousedown="handleZoom(evt,'in')"/>
  <use id="zoomminus" xlink:href="#zoomMin" x="42" y="9" onmousedown="handleZoom(evt,'out')"/>
  <use id="reset" xlink:href="#resetDef" x="30" y="36" onmousedown="handleReset()"/>
   <use id="arrowup" xlink:href="#arrowUp" x="0" y="0" onmousedown="handlePan(0,-1)"/>
  <use id="arrowright" xlink:href="#arrowRight" x="0" y="0" onmousedown="handlePan(1,0)"/>
  <use id="arrowdown" xlink:href="#arrowDown" x="0" y="0" onmousedown="handlePan(0,1)"/>
  <use id="arrowleft" xlink:href="#arrowLeft" x="0" y="0" onmousedown="handlePan(-1,0)"/>
</g>
<svg viewBox="0 0 15 15" width="100%" height="30px" preserveAspectRatio="xMaxYMin meet">
 <g id="arrow_out" transform="scale(0.3 0.3)">
  <a xlink:href="APlayerActor_8cpp__incl_org.svg" target="_base">
   <rect id="button" ry="5" rx="5" y="6" x="6" height="38" width="38"
        fill="#f2f5e9" fill-opacity="0.5" stroke="#606060" stroke-width="1.0"/>
   <path id="arrow"
     d="M 11.500037,31.436501 C 11.940474,20.09759 22.043105,11.32322 32.158766,21.979434 L 37.068811,17.246167 C 37.068811,17.246167 37.088388,32 37.088388,32 L 22.160133,31.978069 C 22.160133,31.978069 26.997745,27.140456 26.997745,27.140456 C 18.528582,18.264221 13.291696,25.230495 11.500037,31.436501 z"
     style="fill:#404040;"/>
  </a>
 </g>
</svg>

<style type='text/css'>
<![CDATA[
[data-mouse-over-selected='false'] { opacity: 0.7; }
[data-mouse-over-selected='true']  { opacity: 1.0; }
]]>
</style>
<script type="application/ecmascript"><![CDATA[
document.addEventListener('DOMContentLoaded', (event) => {
  highlightEdges();
  highlightAdjacentNodes();
});
]]></script>
</svg>
