<?xml version="1.0" encoding="UTF-8" standalone="no"?>
<!DOCTYPE svg PUBLIC "-//W3C//DTD SVG 1.1//EN"
 "http://www.w3.org/Graphics/SVG/1.1/DTD/svg11.dtd">
<!-- Generated by graphviz version 2.43.0 (0)
 -->
<!-- Title: Source/LatteLibrary/Character/Private/APlayerActor.cpp Pages: 1 -->
<!--zoomable 280 -->

<svg id="main" version="1.1" xmlns="http://www.w3.org/2000/svg" xmlns:xlink="http://www.w3.org/1999/xlink" xml:space="preserve" onload="init(evt)">
<style type="text/css"><![CDATA[
.node, .edge {opacity: 0.7;}
.node.selected, .edge.selected {opacity: 1;}
.edge:hover path { stroke: red; }
.edge:hover polygon { stroke: red; fill: red; }
]]></style>

<defs>
  <circle id="rim" cx="0" cy="0" r="7"/>
  <circle id="rim2" cx="0" cy="0" r="3.5"/>
  <g id="zoomPlus">
    <use xlink:href="#rim" fill="#404040"><set attributeName="fill" to="#808080" begin="zoomplus.mouseover" end="zoomplus.mouseout"/></use>
    <path d="M-4,0h8M0,-4v8" fill="none" stroke="white" stroke-width="1.5" pointer-events="none"/>
  </g>
  <g id="zoomMin">
    <use xlink:href="#rim" fill="#404040"><set attributeName="fill" to="#808080" begin="zoomminus.mouseover" end="zoomminus.mouseout"/></use>
    <path d="M-4,0h8" fill="none" stroke="white" stroke-width="1.5" pointer-events="none"/>
  </g>
  <g id="arrowUp" transform="translate(30 24)">
    <use xlink:href="#rim"/>
    <path pointer-events="none" fill="none" stroke="white" stroke-width="1.5" d="M0,-3.0v7 M-2.5,-0.5L0,-3.0L2.5,-0.5"/>
  </g>
  <g id="arrowRight" transform="rotate(90) translate(36 -43)">
    <use xlink:href="#rim"/>
    <path pointer-events="none" fill="none" stroke="white" stroke-width="1.5" d="M0,-3.0v7 M-2.5,-0.5L0,-3.0L2.5,-0.5"/>
  </g>
  <g id="arrowDown" transform="rotate(180) translate(-30 -48)">
    <use xlink:href="#rim"/>
    <path pointer-events="none" fill="none" stroke="white" stroke-width="1.5" d="M0,-3.0v7 M-2.5,-0.5L0,-3.0L2.5,-0.5"/>
  </g>
  <g id="arrowLeft" transform="rotate(270) translate(-36 17)">
    <use xlink:href="#rim"/>
    <path pointer-events="none" fill="none" stroke="white" stroke-width="1.5" d="M0,-3.0v7 M-2.5,-0.5L0,-3.0L2.5,-0.5"/>
  </g>
  <g id="resetDef">
    <use xlink:href="#rim2" fill="#404040"><set attributeName="fill" to="#808080" begin="reset.mouseover" end="reset.mouseout"/></use>
  </g>
</defs>
<script type="application/ecmascript">
var viewWidth = 2546;
var viewHeight = 280;
var sectionId = 'dynsection-0';
</script>
<script type="application/ecmascript" xlink:href="svg.min.js"/>
<svg id="graph" class="graph">
<g id="viewport">
<title>Source/LatteLibrary/Character/Private/APlayerActor.cpp</title>
<!-- Node1 -->
<g id="Node000001" class="node">
<title>Node1</title>
<g id="a_Node000001"><a xlink:title="APlayerActor 구현에 대한 Doxygen 주석을 제공합니다.">
<polygon fill="#999999" stroke="#666666" points="1684,-272 1539,-272 1539,-231 1684,-231 1684,-272"/>
<text text-anchor="start" x="1547" y="-260" font-family="Malgun Gothic" font-size="10.00">Source/LatteLibrary</text>
<text text-anchor="start" x="1547" y="-249" font-family="Malgun Gothic" font-size="10.00">/Character/Private/APlayer</text>
<text text-anchor="middle" x="1611.5" y="-238" font-family="Malgun Gothic" font-size="10.00">Actor.cpp</text>
</a>
</g>
</g>
<!-- Node2 -->
<g id="Node000002" class="node">
<title>Node2</title>
<g id="a_Node000002"><a xlink:href="APlayerActor_8h.html" target="_top" xlink:title="APlayerActor 선언에 대한 Doxygen 주석을 제공합니다.">
<polygon fill="white" stroke="#666666" points="1076.5,-189.5 988.5,-189.5 988.5,-170.5 1076.5,-170.5 1076.5,-189.5"/>
<text text-anchor="middle" x="1032.5" y="-177.5" font-family="Malgun Gothic" font-size="10.00">APlayerActor.h</text>
</a>
</g>
</g>
<!-- Node1&#45;&gt;Node2 -->
<g id="edge1_Node000001_Node000002" class="edge">
<title>Node1&#45;&gt;Node2</title>
<g id="a_edge1_Node000001_Node000002"><a xlink:title=" ">
<path fill="none" stroke="#63b8ff" d="M1538.76,-241.77C1421.03,-227.64 1191.42,-200.08 1086.79,-187.52"/>
<polygon fill="#63b8ff" stroke="#63b8ff" points="1087.11,-184.03 1076.76,-186.31 1086.28,-190.98 1087.11,-184.03"/>
</a>
</g>
</g>
<!-- Node8 -->
<g id="Node000008" class="node">
<title>Node8</title>
<g id="a_Node000008"><a xlink:href="UStatSystem_8h.html" target="_top" xlink:title="UStatSystem 선언에 대한 Doxygen 주석을 제공합니다.">
<polygon fill="white" stroke="#666666" points="168,-74 79,-74 79,-55 168,-55 168,-74"/>
<text text-anchor="middle" x="123.5" y="-62" font-family="Malgun Gothic" font-size="10.00">UStatSystem.h</text>
</a>
</g>
</g>
<!-- Node1&#45;&gt;Node8 -->
<g id="edge19_Node000001_Node000008" class="edge">
<title>Node1&#45;&gt;Node8</title>
<g id="a_edge19_Node000001_Node000008"><a xlink:title=" ">
<path fill="none" stroke="#63b8ff" d="M1538.91,-248.27C1344.38,-241.28 795.77,-214.85 348.5,-129 279.9,-115.83 201.85,-91.67 158.06,-77.25"/>
<polygon fill="#63b8ff" stroke="#63b8ff" points="159.06,-73.89 148.47,-74.07 156.86,-80.54 159.06,-73.89"/>
</a>
</g>
</g>
<!-- Node16 -->
<g id="Node000016" class="node">
<title>Node16</title>
<g id="a_Node000016"><a xlink:href="UHitStopSystem_8h.html" target="_top" xlink:title="UHitStopSystem 선언에 대한 Doxygen 주석을 제공합니다.">
<polygon fill="white" stroke="#666666" points="1403.5,-129 1297.5,-129 1297.5,-110 1403.5,-110 1403.5,-129"/>
<text text-anchor="middle" x="1350.5" y="-117" font-family="Malgun Gothic" font-size="10.00">UHitStopSystem.h</text>
</a>
</g>
</g>
<!-- Node1&#45;&gt;Node16 -->
<g id="edge20_Node000001_Node000016" class="edge">
<title>Node1&#45;&gt;Node16</title>
<g id="a_edge20_Node000001_Node000016"><a xlink:title=" ">
<path fill="none" stroke="#63b8ff" d="M1572.14,-230.9C1518.17,-204.01 1422.63,-156.43 1376.66,-133.53"/>
<polygon fill="#63b8ff" stroke="#63b8ff" points="1378.14,-130.36 1367.63,-129.03 1375.02,-136.62 1378.14,-130.36"/>
</a>
</g>
</g>
<!-- Node22 -->
<g id="Node000022" class="node">
<title>Node22</title>
<g id="a_Node000022"><a xlink:href="UKnockbackSystem_8h.html" target="_top" xlink:title="UKnockbackSystem 선언에 대한 Doxygen 주석을 제공합니다.">
<polygon fill="white" stroke="#666666" points="1545,-129 1422,-129 1422,-110 1545,-110 1545,-129"/>
<text text-anchor="middle" x="1483.5" y="-117" font-family="Malgun Gothic" font-size="10.00">UKnockbackSystem.h</text>
</a>
</g>
</g>
<!-- Node1&#45;&gt;Node22 -->
<g id="edge29_Node000001_Node000022" class="edge">
<title>Node1&#45;&gt;Node22</title>
<g id="a_edge29_Node000001_Node000022"><a xlink:title=" ">
<path fill="none" stroke="#63b8ff" d="M1592.06,-230.76C1566.55,-204.85 1522.29,-159.89 1498.94,-136.18"/>
<polygon fill="#63b8ff" stroke="#63b8ff" points="1501.39,-133.68 1491.88,-129.01 1496.4,-138.59 1501.39,-133.68"/>
</a>
</g>
</g>
<!-- Node26 -->
<g id="Node000026" class="node">
<title>Node26</title>
<g id="a_Node000026"><a xlink:href="UFlySystem_8h.html" target="_top" xlink:title="UFlySystem 선언에 대한 Doxygen 주석을 제공합니다.">
<polygon fill="white" stroke="#666666" points="1904,-74 1819,-74 1819,-55 1904,-55 1904,-74"/>
<text text-anchor="middle" x="1861.5" y="-62" font-family="Malgun Gothic" font-size="10.00">UFlySystem.h</text>
</a>
</g>
</g>
<!-- Node1&#45;&gt;Node26 -->
<g id="edge38_Node000001_Node000026" class="edge">
<title>Node1&#45;&gt;Node26</title>
<g id="a_edge38_Node000001_Node000026"><a xlink:title=" ">
<path fill="none" stroke="#63b8ff" d="M1601.45,-230.61C1587.92,-200.71 1568.69,-144.07 1597.5,-110 1604.29,-101.97 1733.43,-83.05 1808.53,-72.65"/>
<polygon fill="#63b8ff" stroke="#63b8ff" points="1809.32,-76.08 1818.75,-71.25 1808.37,-69.14 1809.32,-76.08"/>
</a>
</g>
</g>
<!-- Node28 -->
<g id="Node000028" class="node">
<title>Node28</title>
<g id="a_Node000028"><a xlink:href="UCameraShakeSystem_8h.html" target="_top" xlink:title="UCameraShakeSystem 선언에 대한 Doxygen 주석을 제공합니다.">
<polygon fill="white" stroke="#666666" points="2059,-74 1922,-74 1922,-55 2059,-55 2059,-74"/>
<text text-anchor="middle" x="1990.5" y="-62" font-family="Malgun Gothic" font-size="10.00">UCameraShakeSystem.h</text>
</a>
</g>
</g>
<!-- Node1&#45;&gt;Node28 -->
<g id="edge42_Node000001_Node000028" class="edge">
<title>Node1&#45;&gt;Node28</title>
<g id="a_edge42_Node000001_Node000028"><a xlink:title=" ">
<path fill="none" stroke="#63b8ff" d="M1610.44,-230.89C1610.51,-211.63 1613.74,-182.64 1630.5,-165 1670.49,-122.92 1830.62,-91.03 1923.3,-75.66"/>
<polygon fill="#63b8ff" stroke="#63b8ff" points="1924.12,-79.07 1933.42,-74 1922.99,-72.17 1924.12,-79.07"/>
</a>
</g>
</g>
<!-- Node30 -->
<g id="Node000030" class="node">
<title>Node30</title>
<g id="a_Node000030"><a xlink:href="Macro_8h.html" target="_top" xlink:title="Manager 모듈에서 공통으로 사용하는 매크로 정의에 대한 Doxygen 주석을 제공합니다.">
<polygon fill="white" stroke="#666666" points="1695.5,-189.5 1639.5,-189.5 1639.5,-170.5 1695.5,-170.5 1695.5,-189.5"/>
<text text-anchor="middle" x="1667.5" y="-177.5" font-family="Malgun Gothic" font-size="10.00">Macro.h</text>
</a>
</g>
</g>
<!-- Node1&#45;&gt;Node30 -->
<g id="edge46_Node000001_Node000030" class="edge">
<title>Node1&#45;&gt;Node30</title>
<g id="a_edge46_Node000001_Node000030"><a xlink:title=" ">
<path fill="none" stroke="#63b8ff" d="M1627.4,-230.77C1635.8,-220.34 1646.01,-207.68 1654.02,-197.73"/>
<polygon fill="#63b8ff" stroke="#63b8ff" points="1656.84,-199.8 1660.39,-189.82 1651.39,-195.41 1656.84,-199.8"/>
</a>
</g>
</g>
<!-- Node31 -->
<g id="Node000031" class="node">
<title>Node31</title>
<g id="a_Node000031"><a xlink:title=" ">
<polygon fill="#e0e0e0" stroke="#999999" points="1917,-195 1714,-195 1714,-165 1917,-165 1917,-195"/>
<text text-anchor="start" x="1722" y="-183" font-family="Malgun Gothic" font-size="10.00">GameFramework/CharacterMovement</text>
<text text-anchor="middle" x="1815.5" y="-172" font-family="Malgun Gothic" font-size="10.00">Component.h</text>
</a>
</g>
</g>
<!-- Node1&#45;&gt;Node31 -->
<g id="edge47_Node000001_Node000031" class="edge">
<title>Node1&#45;&gt;Node31</title>
<g id="a_edge47_Node000001_Node000031"><a xlink:title=" ">
<path fill="none" stroke="#63b8ff" d="M1668.87,-230.96C1699.04,-220.68 1735.71,-208.18 1764.83,-198.26"/>
<polygon fill="#63b8ff" stroke="#63b8ff" points="1766.06,-201.54 1774.39,-195 1763.8,-194.92 1766.06,-201.54"/>
</a>
</g>
</g>
<!-- Node32 -->
<g id="Node000032" class="node">
<title>Node32</title>
<g id="a_Node000032"><a xlink:title=" ">
<polygon fill="#e0e0e0" stroke="#999999" points="2155.5,-189.5 1935.5,-189.5 1935.5,-170.5 2155.5,-170.5 2155.5,-189.5"/>
<text text-anchor="middle" x="2045.5" y="-177.5" font-family="Malgun Gothic" font-size="10.00">GameFramework/SpringArmComponent.h</text>
</a>
</g>
</g>
<!-- Node1&#45;&gt;Node32 -->
<g id="edge48_Node000001_Node000032" class="edge">
<title>Node1&#45;&gt;Node32</title>
<g id="a_edge48_Node000001_Node000032"><a xlink:title=" ">
<path fill="none" stroke="#63b8ff" d="M1684.14,-238.87C1767.4,-225.54 1902.53,-203.89 1981.82,-191.2"/>
<polygon fill="#63b8ff" stroke="#63b8ff" points="1982.84,-194.58 1992.16,-189.54 1981.73,-187.67 1982.84,-194.58"/>
</a>
</g>
</g>
<!-- Node33 -->
<g id="Node000033" class="node">
<title>Node33</title>
<g id="a_Node000033"><a xlink:title=" ">
<polygon fill="#e0e0e0" stroke="#999999" points="2335,-189.5 2174,-189.5 2174,-170.5 2335,-170.5 2335,-189.5"/>
<text text-anchor="middle" x="2254.5" y="-177.5" font-family="Malgun Gothic" font-size="10.00">Camera/CameraComponent.h</text>
</a>
</g>
</g>
<!-- Node1&#45;&gt;Node33 -->
<g id="edge49_Node000001_Node000033" class="edge">
<title>Node1&#45;&gt;Node33</title>
<g id="a_edge49_Node000001_Node000033"><a xlink:title=" ">
<path fill="none" stroke="#63b8ff" d="M1684.11,-244.48C1789.94,-235.41 1992.7,-216.97 2164.5,-195 2173.6,-193.84 2183.2,-192.48 2192.6,-191.08"/>
<polygon fill="#63b8ff" stroke="#63b8ff" points="2193.33,-194.51 2202.69,-189.55 2192.28,-187.59 2193.33,-194.51"/>
</a>
</g>
</g>
<!-- Node34 -->
<g id="Node000034" class="node">
<title>Node34</title>
<g id="a_Node000034"><a xlink:title=" ">
<polygon fill="#e0e0e0" stroke="#999999" points="2538,-189.5 2353,-189.5 2353,-170.5 2538,-170.5 2538,-189.5"/>
<text text-anchor="middle" x="2445.5" y="-177.5" font-family="Malgun Gothic" font-size="10.00">Components/CapsuleComponent.h</text>
</a>
</g>
</g>
<!-- Node1&#45;&gt;Node34 -->
<g id="edge50_Node000001_Node000034" class="edge">
<title>Node1&#45;&gt;Node34</title>
<g id="a_edge50_Node000001_Node000034"><a xlink:title=" ">
<path fill="none" stroke="#63b8ff" d="M1684.2,-246.5C1816.04,-238.91 2103.24,-220.83 2344.5,-195 2355.6,-193.81 2367.35,-192.36 2378.77,-190.85"/>
<polygon fill="#63b8ff" stroke="#63b8ff" points="2379.25,-194.31 2388.69,-189.51 2378.31,-187.38 2379.25,-194.31"/>
</a>
</g>
</g>
<!-- Node3 -->
<g id="Node000003" class="node">
<title>Node3</title>
<g id="a_Node000003"><a xlink:title=" ">
<polygon fill="#e0e0e0" stroke="#999999" points="1120.5,-19 1032.5,-19 1032.5,0 1120.5,0 1120.5,-19"/>
<text text-anchor="middle" x="1076.5" y="-7" font-family="Malgun Gothic" font-size="10.00">CoreMinimal.h</text>
</a>
</g>
</g>
<!-- Node2&#45;&gt;Node3 -->
<g id="edge2_Node000002_Node000003" class="edge">
<title>Node2&#45;&gt;Node3</title>
<g id="a_edge2_Node000002_Node000003"><a xlink:title=" ">
<path fill="none" stroke="#63b8ff" d="M1032.77,-170.33C1033.62,-149.75 1037.16,-96.59 1051.5,-55 1054.74,-45.59 1059.95,-35.87 1064.78,-27.92"/>
<polygon fill="#63b8ff" stroke="#63b8ff" points="1067.89,-29.56 1070.32,-19.25 1061.99,-25.8 1067.89,-29.56"/>
</a>
</g>
</g>
<!-- Node4 -->
<g id="Node000004" class="node">
<title>Node4</title>
<g id="a_Node000004"><a xlink:href="AGameCharacter_8h.html" target="_top" xlink:title="LatteLibrary 전반에서 사용하는 기반 캐릭터 클래스를 선언합니다.">
<polygon fill="white" stroke="#666666" points="465.5,-129 357.5,-129 357.5,-110 465.5,-110 465.5,-129"/>
<text text-anchor="middle" x="411.5" y="-117" font-family="Malgun Gothic" font-size="10.00">AGameCharacter.h</text>
</a>
</g>
</g>
<!-- Node2&#45;&gt;Node4 -->
<g id="edge3_Node000002_Node000004" class="edge">
<title>Node2&#45;&gt;Node4</title>
<g id="a_edge3_Node000002_Node000004"><a xlink:title=" ">
<path fill="none" stroke="#63b8ff" d="M988.34,-174.84C880.39,-164.67 602.79,-138.52 476.18,-126.59"/>
<polygon fill="#63b8ff" stroke="#63b8ff" points="476.15,-123.07 465.87,-125.62 475.49,-130.04 476.15,-123.07"/>
</a>
</g>
</g>
<!-- Node12 -->
<g id="Node000012" class="node">
<title>Node12</title>
<g id="a_Node000012"><a xlink:href="IControllable_8h.html" target="_top" xlink:title="IControllable 인터페이스 선언에 대한 Doxygen 주석을 제공합니다.">
<polygon fill="white" stroke="#666666" points="906.5,-129 818.5,-129 818.5,-110 906.5,-110 906.5,-129"/>
<text text-anchor="middle" x="862.5" y="-117" font-family="Malgun Gothic" font-size="10.00">IControllable.h</text>
</a>
</g>
</g>
<!-- Node2&#45;&gt;Node12 -->
<g id="edge14_Node000002_Node000012" class="edge">
<title>Node2&#45;&gt;Node12</title>
<g id="a_edge14_Node000002_Node000012"><a xlink:title=" ">
<path fill="none" stroke="#63b8ff" d="M1007.78,-170.49C978.57,-160.44 929.8,-143.66 896.91,-132.34"/>
<polygon fill="#63b8ff" stroke="#63b8ff" points="897.84,-128.96 887.25,-129.02 895.57,-135.58 897.84,-128.96"/>
</a>
</g>
</g>
<!-- Node15 -->
<g id="Node000015" class="node">
<title>Node15</title>
<g id="a_Node000015"><a xlink:title=" ">
<polygon fill="#e0e0e0" stroke="#999999" points="1200.5,-129 1060.5,-129 1060.5,-110 1200.5,-110 1200.5,-129"/>
<text text-anchor="middle" x="1130.5" y="-117" font-family="Malgun Gothic" font-size="10.00">APlayerActor.generated.h</text>
</a>
</g>
</g>
<!-- Node2&#45;&gt;Node15 -->
<g id="edge18_Node000002_Node000015" class="edge">
<title>Node2&#45;&gt;Node15</title>
<g id="a_edge18_Node000002_Node000015"><a xlink:title=" ">
<path fill="none" stroke="#63b8ff" d="M1046.96,-170.37C1062.81,-160.91 1088.47,-145.59 1107.18,-134.42"/>
<polygon fill="#63b8ff" stroke="#63b8ff" points="1109.19,-137.3 1115.98,-129.17 1105.6,-131.29 1109.19,-137.3"/>
</a>
</g>
</g>
<!-- Node4&#45;&gt;Node3 -->
<g id="edge4_Node000004_Node000003" class="edge">
<title>Node4&#45;&gt;Node3</title>
<g id="a_edge4_Node000004_Node000003"><a xlink:title=" ">
<path fill="none" stroke="#63b8ff" d="M464.5,-109.97C512.72,-101.86 585.74,-88.76 648.5,-74 678.63,-66.91 685.16,-61.13 715.5,-55 823.16,-33.23 951.19,-20.5 1022.19,-14.58"/>
<polygon fill="#63b8ff" stroke="#63b8ff" points="1022.57,-18.06 1032.25,-13.75 1022,-11.08 1022.57,-18.06"/>
</a>
</g>
</g>
<!-- Node5 -->
<g id="Node000005" class="node">
<title>Node5</title>
<g id="a_Node000005"><a xlink:title=" ">
<polygon fill="#e0e0e0" stroke="#999999" points="345,-74 186,-74 186,-55 345,-55 345,-74"/>
<text text-anchor="middle" x="265.5" y="-62" font-family="Malgun Gothic" font-size="10.00">GameFramework/Character.h</text>
</a>
</g>
</g>
<!-- Node4&#45;&gt;Node5 -->
<g id="edge5_Node000004_Node000005" class="edge">
<title>Node4&#45;&gt;Node5</title>
<g id="a_edge5_Node000004_Node000005"><a xlink:title=" ">
<path fill="none" stroke="#63b8ff" d="M388.04,-109.98C363.92,-101.23 326.13,-87.51 298.9,-77.62"/>
<polygon fill="#63b8ff" stroke="#63b8ff" points="299.98,-74.29 289.38,-74.17 297.59,-80.87 299.98,-74.29"/>
</a>
</g>
</g>
<!-- Node6 -->
<g id="Node000006" class="node">
<title>Node6</title>
<g id="a_Node000006"><a xlink:href="EBodyPartType_8h.html" target="_top" xlink:title="EBodyPartType 열거형에 대한 Doxygen 주석을 제공합니다.">
<polygon fill="white" stroke="#666666" points="460.5,-74 362.5,-74 362.5,-55 460.5,-55 460.5,-74"/>
<text text-anchor="middle" x="411.5" y="-62" font-family="Malgun Gothic" font-size="10.00">EBodyPartType.h</text>
</a>
</g>
</g>
<!-- Node4&#45;&gt;Node6 -->
<g id="edge6_Node000004_Node000006" class="edge">
<title>Node4&#45;&gt;Node6</title>
<g id="a_edge6_Node000004_Node000006"><a xlink:title=" ">
<path fill="none" stroke="#63b8ff" d="M411.5,-109.75C411.5,-102.8 411.5,-92.85 411.5,-84.13"/>
<polygon fill="#63b8ff" stroke="#63b8ff" points="415,-84.09 411.5,-74.09 408,-84.09 415,-84.09"/>
</a>
</g>
</g>
<!-- Node7 -->
<g id="Node000007" class="node">
<title>Node7</title>
<g id="a_Node000007"><a xlink:href="ECharacterType_8h.html" target="_top" xlink:title="ECharacterType 열거형에 대한 Doxygen 주석을 제공합니다.">
<polygon fill="white" stroke="#666666" points="101,-19 0,-19 0,0 101,0 101,-19"/>
<text text-anchor="middle" x="50.5" y="-7" font-family="Malgun Gothic" font-size="10.00">ECharacterType.h</text>
</a>
</g>
</g>
<!-- Node4&#45;&gt;Node7 -->
<g id="edge7_Node000004_Node000007" class="edge">
<title>Node4&#45;&gt;Node7</title>
<g id="a_edge7_Node000004_Node000007"><a xlink:title=" ">
<path fill="none" stroke="#63b8ff" d="M357.25,-118.41C271.94,-117.16 111.75,-109.93 69.5,-74 56.63,-63.06 52.28,-43.79 50.9,-29.34"/>
<polygon fill="#63b8ff" stroke="#63b8ff" points="54.38,-28.83 50.33,-19.04 47.39,-29.22 54.38,-28.83"/>
</a>
</g>
</g>
<!-- Node4&#45;&gt;Node8 -->
<g id="edge8_Node000004_Node000008" class="edge">
<title>Node4&#45;&gt;Node8</title>
<g id="a_edge8_Node000004_Node000008"><a xlink:title=" ">
<path fill="none" stroke="#63b8ff" d="M365.23,-109.98C314.29,-100.61 232.46,-85.55 178.34,-75.59"/>
<polygon fill="#63b8ff" stroke="#63b8ff" points="178.7,-72.1 168.24,-73.73 177.44,-78.98 178.7,-72.1"/>
</a>
</g>
</g>
<!-- Node11 -->
<g id="Node000011" class="node">
<title>Node11</title>
<g id="a_Node000011"><a xlink:title=" ">
<polygon fill="#e0e0e0" stroke="#999999" points="640,-74 479,-74 479,-55 640,-55 640,-74"/>
<text text-anchor="middle" x="559.5" y="-62" font-family="Malgun Gothic" font-size="10.00">AGameCharacter.generated.h</text>
</a>
</g>
</g>
<!-- Node4&#45;&gt;Node11 -->
<g id="edge13_Node000004_Node000011" class="edge">
<title>Node4&#45;&gt;Node11</title>
<g id="a_edge13_Node000004_Node000011"><a xlink:title=" ">
<path fill="none" stroke="#63b8ff" d="M435.28,-109.98C459.73,-101.23 498.03,-87.51 525.65,-77.62"/>
<polygon fill="#63b8ff" stroke="#63b8ff" points="527.05,-80.84 535.29,-74.17 524.69,-74.25 527.05,-80.84"/>
</a>
</g>
</g>
<!-- Node8&#45;&gt;Node3 -->
<g id="edge9_Node000008_Node000003" class="edge">
<title>Node8&#45;&gt;Node3</title>
<g id="a_edge9_Node000008_Node000003"><a xlink:title=" ">
<path fill="none" stroke="#63b8ff" d="M168.27,-55.97C171.05,-55.61 173.81,-55.28 176.5,-55 496.03,-21.58 882.07,-13.14 1022.29,-11.11"/>
<polygon fill="#63b8ff" stroke="#63b8ff" points="1022.4,-14.61 1032.35,-10.97 1022.31,-7.61 1022.4,-14.61"/>
</a>
</g>
</g>
<!-- Node8&#45;&gt;Node7 -->
<g id="edge10_Node000008_Node000007" class="edge">
<title>Node8&#45;&gt;Node7</title>
<g id="a_edge10_Node000008_Node000007"><a xlink:title=" ">
<path fill="none" stroke="#63b8ff" d="M111.77,-54.98C100.77,-47 84.08,-34.88 70.9,-25.31"/>
<polygon fill="#63b8ff" stroke="#63b8ff" points="72.59,-22.21 62.44,-19.17 68.48,-27.88 72.59,-22.21"/>
</a>
</g>
</g>
<!-- Node9 -->
<g id="Node000009" class="node">
<title>Node9</title>
<g id="a_Node000009"><a xlink:title=" ">
<polygon fill="#e0e0e0" stroke="#999999" points="1893.5,-19 1721.5,-19 1721.5,0 1893.5,0 1893.5,-19"/>
<text text-anchor="middle" x="1807.5" y="-7" font-family="Malgun Gothic" font-size="10.00">Components/ActorComponent.h</text>
</a>
</g>
</g>
<!-- Node8&#45;&gt;Node9 -->
<g id="edge11_Node000008_Node000009" class="edge">
<title>Node8&#45;&gt;Node9</title>
<g id="a_edge11_Node000008_Node000009"><a xlink:title=" ">
<path fill="none" stroke="#63b8ff" d="M168.27,-55.88C171.05,-55.55 173.81,-55.25 176.5,-55 853.19,6.91 1029.02,-56.82 1711.23,-19.03"/>
<polygon fill="#63b8ff" stroke="#63b8ff" points="1711.52,-22.51 1721.3,-18.46 1711.12,-15.53 1711.52,-22.51"/>
</a>
</g>
</g>
<!-- Node10 -->
<g id="Node000010" class="node">
<title>Node10</title>
<g id="a_Node000010"><a xlink:title=" ">
<polygon fill="#e0e0e0" stroke="#999999" points="261.5,-19 119.5,-19 119.5,0 261.5,0 261.5,-19"/>
<text text-anchor="middle" x="190.5" y="-7" font-family="Malgun Gothic" font-size="10.00">UStatSystem.generated.h</text>
</a>
</g>
</g>
<!-- Node8&#45;&gt;Node10 -->
<g id="edge12_Node000008_Node000010" class="edge">
<title>Node8&#45;&gt;Node10</title>
<g id="a_edge12_Node000008_Node000010"><a xlink:title=" ">
<path fill="none" stroke="#63b8ff" d="M134.26,-54.98C144.27,-47.07 159.39,-35.11 171.43,-25.58"/>
<polygon fill="#63b8ff" stroke="#63b8ff" points="173.87,-28.12 179.54,-19.17 169.53,-22.63 173.87,-28.12"/>
</a>
</g>
</g>
<!-- Node12&#45;&gt;Node3 -->
<g id="edge15_Node000012_Node000003" class="edge">
<title>Node12&#45;&gt;Node3</title>
<g id="a_edge15_Node000012_Node000003"><a xlink:title=" ">
<path fill="none" stroke="#63b8ff" d="M818.3,-113.4C767.78,-105.87 695.69,-88.83 725.5,-55 744.78,-33.12 928.56,-19.22 1022.21,-13.49"/>
<polygon fill="#63b8ff" stroke="#63b8ff" points="1022.58,-16.98 1032.35,-12.88 1022.16,-9.99 1022.58,-16.98"/>
</a>
</g>
</g>
<!-- Node13 -->
<g id="Node000013" class="node">
<title>Node13</title>
<g id="a_Node000013"><a xlink:title=" ">
<polygon fill="#e0e0e0" stroke="#999999" points="846,-74 735,-74 735,-55 846,-55 846,-74"/>
<text text-anchor="middle" x="790.5" y="-62" font-family="Malgun Gothic" font-size="10.00">UObject/Interface.h</text>
</a>
</g>
</g>
<!-- Node12&#45;&gt;Node13 -->
<g id="edge16_Node000012_Node000013" class="edge">
<title>Node12&#45;&gt;Node13</title>
<g id="a_edge16_Node000012_Node000013"><a xlink:title=" ">
<path fill="none" stroke="#63b8ff" d="M850.93,-109.98C840.08,-102 823.62,-89.88 810.62,-80.31"/>
<polygon fill="#63b8ff" stroke="#63b8ff" points="812.41,-77.28 802.28,-74.17 808.26,-82.92 812.41,-77.28"/>
</a>
</g>
</g>
<!-- Node14 -->
<g id="Node000014" class="node">
<title>Node14</title>
<g id="a_Node000014"><a xlink:title=" ">
<polygon fill="#e0e0e0" stroke="#999999" points="1004.5,-74 864.5,-74 864.5,-55 1004.5,-55 1004.5,-74"/>
<text text-anchor="middle" x="934.5" y="-62" font-family="Malgun Gothic" font-size="10.00">IControllable.generated.h</text>
</a>
</g>
</g>
<!-- Node12&#45;&gt;Node14 -->
<g id="edge17_Node000012_Node000014" class="edge">
<title>Node12&#45;&gt;Node14</title>
<g id="a_edge17_Node000012_Node000014"><a xlink:title=" ">
<path fill="none" stroke="#63b8ff" d="M874.07,-109.98C884.92,-102 901.38,-89.88 914.38,-80.31"/>
<polygon fill="#63b8ff" stroke="#63b8ff" points="916.74,-82.92 922.72,-74.17 912.59,-77.28 916.74,-82.92"/>
</a>
</g>
</g>
<!-- Node16&#45;&gt;Node3 -->
<g id="edge21_Node000016_Node000003" class="edge">
<title>Node16&#45;&gt;Node3</title>
<g id="a_edge21_Node000016_Node000003"><a xlink:title=" ">
<path fill="none" stroke="#63b8ff" d="M1336.16,-109.95C1313.63,-96.79 1268.32,-71.38 1227.5,-55 1193.09,-41.19 1152.74,-29.52 1122.42,-21.6"/>
<polygon fill="#63b8ff" stroke="#63b8ff" points="1123.1,-18.16 1112.54,-19.06 1121.35,-24.94 1123.1,-18.16"/>
</a>
</g>
</g>
<!-- Node16&#45;&gt;Node9 -->
<g id="edge22_Node000016_Node000009" class="edge">
<title>Node16&#45;&gt;Node9</title>
<g id="a_edge22_Node000016_Node000009"><a xlink:title=" ">
<path fill="none" stroke="#63b8ff" d="M1400.76,-109.97C1439.39,-102.63 1493.7,-90.59 1539.5,-74 1557.25,-67.57 1559.62,-61.07 1577.5,-55 1626.01,-38.52 1682.47,-27.49 1727.31,-20.53"/>
<polygon fill="#63b8ff" stroke="#63b8ff" points="1727.92,-23.98 1737.28,-19.02 1726.87,-17.06 1727.92,-23.98"/>
</a>
</g>
</g>
<!-- Node17 -->
<g id="Node000017" class="node">
<title>Node17</title>
<g id="a_Node000017"><a xlink:href="FHitStopData_8h.html" target="_top" xlink:title="FHitStopData 구조체에 대한 Doxygen 주석을 제공합니다.">
<polygon fill="white" stroke="#666666" points="1404,-74 1313,-74 1313,-55 1404,-55 1404,-74"/>
<text text-anchor="middle" x="1358.5" y="-62" font-family="Malgun Gothic" font-size="10.00">FHitStopData.h</text>
</a>
</g>
</g>
<!-- Node16&#45;&gt;Node17 -->
<g id="edge23_Node000016_Node000017" class="edge">
<title>Node16&#45;&gt;Node17</title>
<g id="a_edge23_Node000016_Node000017"><a xlink:title=" ">
<path fill="none" stroke="#63b8ff" d="M1351.82,-109.75C1352.87,-102.8 1354.37,-92.85 1355.69,-84.13"/>
<polygon fill="#63b8ff" stroke="#63b8ff" points="1359.17,-84.5 1357.2,-74.09 1352.25,-83.45 1359.17,-84.5"/>
</a>
</g>
</g>
<!-- Node21 -->
<g id="Node000021" class="node">
<title>Node21</title>
<g id="a_Node000021"><a xlink:title=" ">
<polygon fill="#e0e0e0" stroke="#999999" points="1218.5,-74 1060.5,-74 1060.5,-55 1218.5,-55 1218.5,-74"/>
<text text-anchor="middle" x="1139.5" y="-62" font-family="Malgun Gothic" font-size="10.00">UHitStopSystem.generated.h</text>
</a>
</g>
</g>
<!-- Node16&#45;&gt;Node21 -->
<g id="edge28_Node000016_Node000021" class="edge">
<title>Node16&#45;&gt;Node21</title>
<g id="a_edge28_Node000016_Node000021"><a xlink:title=" ">
<path fill="none" stroke="#63b8ff" d="M1316.6,-109.98C1280.48,-100.91 1223.18,-86.52 1183.58,-76.57"/>
<polygon fill="#63b8ff" stroke="#63b8ff" points="1184.22,-73.12 1173.67,-74.08 1182.51,-79.91 1184.22,-73.12"/>
</a>
</g>
</g>
<!-- Node17&#45;&gt;Node3 -->
<g id="edge24_Node000017_Node000003" class="edge">
<title>Node17&#45;&gt;Node3</title>
<g id="a_edge24_Node000017_Node000003"><a xlink:title=" ">
<path fill="none" stroke="#63b8ff" d="M1313.19,-54.98C1263.46,-45.64 1183.66,-30.64 1130.66,-20.68"/>
<polygon fill="#63b8ff" stroke="#63b8ff" points="1131.24,-17.23 1120.77,-18.82 1129.95,-24.11 1131.24,-17.23"/>
</a>
</g>
</g>
<!-- Node18 -->
<g id="Node000018" class="node">
<title>Node18</title>
<g id="a_Node000018"><a xlink:href="EDamageType_8h.html" target="_top" xlink:title="EDamageType 열거형에 대한 Doxygen 주석을 제공합니다.">
<polygon fill="white" stroke="#666666" points="1524,-19 1429,-19 1429,0 1524,0 1524,-19"/>
<text text-anchor="middle" x="1476.5" y="-7" font-family="Malgun Gothic" font-size="10.00">EDamageType.h</text>
</a>
</g>
</g>
<!-- Node17&#45;&gt;Node18 -->
<g id="edge25_Node000017_Node000018" class="edge">
<title>Node17&#45;&gt;Node18</title>
<g id="a_edge25_Node000017_Node000018"><a xlink:title=" ">
<path fill="none" stroke="#63b8ff" d="M1377.46,-54.98C1396.53,-46.42 1426.16,-33.11 1448.05,-23.28"/>
<polygon fill="#63b8ff" stroke="#63b8ff" points="1449.51,-26.46 1457.2,-19.17 1446.64,-20.07 1449.51,-26.46"/>
</a>
</g>
</g>
<!-- Node19 -->
<g id="Node000019" class="node">
<title>Node19</title>
<g id="a_Node000019"><a xlink:title=" ">
<polygon fill="#e0e0e0" stroke="#999999" points="1410.5,-19 1300.5,-19 1300.5,0 1410.5,0 1410.5,-19"/>
<text text-anchor="middle" x="1355.5" y="-7" font-family="Malgun Gothic" font-size="10.00">Engine/DataTable.h</text>
</a>
</g>
</g>
<!-- Node17&#45;&gt;Node19 -->
<g id="edge26_Node000017_Node000019" class="edge">
<title>Node17&#45;&gt;Node19</title>
<g id="a_edge26_Node000017_Node000019"><a xlink:title=" ">
<path fill="none" stroke="#63b8ff" d="M1358,-54.75C1357.61,-47.8 1357.05,-37.85 1356.55,-29.13"/>
<polygon fill="#63b8ff" stroke="#63b8ff" points="1360.05,-28.88 1355.99,-19.09 1353.06,-29.27 1360.05,-28.88"/>
</a>
</g>
</g>
<!-- Node20 -->
<g id="Node000020" class="node">
<title>Node20</title>
<g id="a_Node000020"><a xlink:title=" ">
<polygon fill="#e0e0e0" stroke="#999999" points="1282,-19 1139,-19 1139,0 1282,0 1282,-19"/>
<text text-anchor="middle" x="1210.5" y="-7" font-family="Malgun Gothic" font-size="10.00">FHitStopData.generated.h</text>
</a>
</g>
</g>
<!-- Node17&#45;&gt;Node20 -->
<g id="edge27_Node000017_Node000020" class="edge">
<title>Node17&#45;&gt;Node20</title>
<g id="a_edge27_Node000017_Node000020"><a xlink:title=" ">
<path fill="none" stroke="#63b8ff" d="M1334.72,-54.98C1310.27,-46.23 1271.97,-32.51 1244.35,-22.62"/>
<polygon fill="#63b8ff" stroke="#63b8ff" points="1245.31,-19.25 1234.71,-19.17 1242.95,-25.84 1245.31,-19.25"/>
</a>
</g>
</g>
<!-- Node22&#45;&gt;Node3 -->
<g id="edge30_Node000022_Node000003" class="edge">
<title>Node22&#45;&gt;Node3</title>
<g id="a_edge30_Node000022_Node000003"><a xlink:title=" ">
<path fill="none" stroke="#63b8ff" d="M1440.22,-109.93C1403.59,-102.16 1349.94,-89.56 1304.5,-74 1284.73,-67.23 1281.29,-61.69 1261.5,-55 1218.45,-40.44 1168.25,-28.68 1131.01,-20.91"/>
<polygon fill="#63b8ff" stroke="#63b8ff" points="1131.37,-17.41 1120.87,-18.83 1129.96,-24.27 1131.37,-17.41"/>
</a>
</g>
</g>
<!-- Node22&#45;&gt;Node9 -->
<g id="edge31_Node000022_Node000009" class="edge">
<title>Node22&#45;&gt;Node9</title>
<g id="a_edge31_Node000022_Node000009"><a xlink:title=" ">
<path fill="none" stroke="#63b8ff" d="M1545.18,-110.36C1627,-99.36 1762.25,-80.39 1771.5,-74 1787.11,-63.22 1796.77,-43.34 1802.11,-28.69"/>
<polygon fill="#63b8ff" stroke="#63b8ff" points="1805.45,-29.74 1805.25,-19.14 1798.8,-27.55 1805.45,-29.74"/>
</a>
</g>
</g>
<!-- Node23 -->
<g id="Node000023" class="node">
<title>Node23</title>
<g id="a_Node000023"><a xlink:href="FKnockbackData_8h.html" target="_top" xlink:title="FKnockbackData 구조체에 대한 Doxygen 주석을 제공합니다.">
<polygon fill="white" stroke="#666666" points="1530.5,-74 1422.5,-74 1422.5,-55 1530.5,-55 1530.5,-74"/>
<text text-anchor="middle" x="1476.5" y="-62" font-family="Malgun Gothic" font-size="10.00">FKnockbackData.h</text>
</a>
</g>
</g>
<!-- Node22&#45;&gt;Node23 -->
<g id="edge32_Node000022_Node000023" class="edge">
<title>Node22&#45;&gt;Node23</title>
<g id="a_edge32_Node000022_Node000023"><a xlink:title=" ">
<path fill="none" stroke="#63b8ff" d="M1482.34,-109.75C1481.43,-102.8 1480.11,-92.85 1478.96,-84.13"/>
<polygon fill="#63b8ff" stroke="#63b8ff" points="1482.41,-83.54 1477.63,-74.09 1475.47,-84.46 1482.41,-83.54"/>
</a>
</g>
</g>
<!-- Node25 -->
<g id="Node000025" class="node">
<title>Node25</title>
<g id="a_Node000025"><a xlink:title=" ">
<polygon fill="#e0e0e0" stroke="#999999" points="1762.5,-74 1586.5,-74 1586.5,-55 1762.5,-55 1762.5,-74"/>
<text text-anchor="middle" x="1674.5" y="-62" font-family="Malgun Gothic" font-size="10.00">UKnockbackSystem.generated.h</text>
</a>
</g>
</g>
<!-- Node22&#45;&gt;Node25 -->
<g id="edge37_Node000022_Node000025" class="edge">
<title>Node22&#45;&gt;Node25</title>
<g id="a_edge37_Node000022_Node000025"><a xlink:title=" ">
<path fill="none" stroke="#63b8ff" d="M1514.19,-109.98C1546.67,-100.97 1598.1,-86.7 1633.91,-76.76"/>
<polygon fill="#63b8ff" stroke="#63b8ff" points="1634.87,-80.13 1643.57,-74.08 1633,-73.38 1634.87,-80.13"/>
</a>
</g>
</g>
<!-- Node23&#45;&gt;Node3 -->
<g id="edge33_Node000023_Node000003" class="edge">
<title>Node23&#45;&gt;Node3</title>
<g id="a_edge33_Node000023_Node000003"><a xlink:title=" ">
<path fill="none" stroke="#63b8ff" d="M1422.21,-56.15C1419.26,-55.76 1416.35,-55.37 1413.5,-55 1290.98,-38.94 1257.7,-36.95 1130.8,-19"/>
<polygon fill="#63b8ff" stroke="#63b8ff" points="1131.08,-15.51 1120.69,-17.56 1130.1,-22.44 1131.08,-15.51"/>
</a>
</g>
</g>
<!-- Node23&#45;&gt;Node18 -->
<g id="edge34_Node000023_Node000018" class="edge">
<title>Node23&#45;&gt;Node18</title>
<g id="a_edge34_Node000023_Node000018"><a xlink:title=" ">
<path fill="none" stroke="#63b8ff" d="M1476.5,-54.75C1476.5,-47.8 1476.5,-37.85 1476.5,-29.13"/>
<polygon fill="#63b8ff" stroke="#63b8ff" points="1480,-29.09 1476.5,-19.09 1473,-29.09 1480,-29.09"/>
</a>
</g>
</g>
<!-- Node23&#45;&gt;Node19 -->
<g id="edge35_Node000023_Node000019" class="edge">
<title>Node23&#45;&gt;Node19</title>
<g id="a_edge35_Node000023_Node000019"><a xlink:title=" ">
<path fill="none" stroke="#63b8ff" d="M1457.06,-54.98C1437.51,-46.42 1407.12,-33.11 1384.68,-23.28"/>
<polygon fill="#63b8ff" stroke="#63b8ff" points="1385.86,-19.98 1375.29,-19.17 1383.05,-26.39 1385.86,-19.98"/>
</a>
</g>
</g>
<!-- Node24 -->
<g id="Node000024" class="node">
<title>Node24</title>
<g id="a_Node000024"><a xlink:title=" ">
<polygon fill="#e0e0e0" stroke="#999999" points="1703,-19 1542,-19 1542,0 1703,0 1703,-19"/>
<text text-anchor="middle" x="1622.5" y="-7" font-family="Malgun Gothic" font-size="10.00">FKnockbackData.generated.h</text>
</a>
</g>
</g>
<!-- Node23&#45;&gt;Node24 -->
<g id="edge36_Node000023_Node000024" class="edge">
<title>Node23&#45;&gt;Node24</title>
<g id="a_edge36_Node000023_Node000024"><a xlink:title=" ">
<path fill="none" stroke="#63b8ff" d="M1499.96,-54.98C1524.08,-46.23 1561.87,-32.51 1589.1,-22.62"/>
<polygon fill="#63b8ff" stroke="#63b8ff" points="1590.41,-25.87 1598.62,-19.17 1588.02,-19.29 1590.41,-25.87"/>
</a>
</g>
</g>
<!-- Node26&#45;&gt;Node3 -->
<g id="edge39_Node000026_Node000003" class="edge">
<title>Node26&#45;&gt;Node3</title>
<g id="a_edge39_Node000026_Node000003"><a xlink:title=" ">
<path fill="none" stroke="#63b8ff" d="M1818.95,-59.15C1803.96,-57.7 1786.99,-56.17 1771.5,-55 1490.3,-33.83 1415.97,-48.86 1130.89,-18.9"/>
<polygon fill="#63b8ff" stroke="#63b8ff" points="1130.97,-15.39 1120.66,-17.82 1130.23,-22.35 1130.97,-15.39"/>
</a>
</g>
</g>
<!-- Node26&#45;&gt;Node9 -->
<g id="edge40_Node000026_Node000009" class="edge">
<title>Node26&#45;&gt;Node9</title>
<g id="a_edge40_Node000026_Node000009"><a xlink:title=" ">
<path fill="none" stroke="#63b8ff" d="M1852.58,-54.75C1844.72,-47.03 1833.07,-35.6 1823.58,-26.28"/>
<polygon fill="#63b8ff" stroke="#63b8ff" points="1825.84,-23.6 1816.25,-19.09 1820.94,-28.59 1825.84,-23.6"/>
</a>
</g>
</g>
<!-- Node27 -->
<g id="Node000027" class="node">
<title>Node27</title>
<g id="a_Node000027"><a xlink:title=" ">
<polygon fill="#e0e0e0" stroke="#999999" points="2049,-19 1912,-19 1912,0 2049,0 2049,-19"/>
<text text-anchor="middle" x="1980.5" y="-7" font-family="Malgun Gothic" font-size="10.00">UFlySystem.generated.h</text>
</a>
</g>
</g>
<!-- Node26&#45;&gt;Node27 -->
<g id="edge41_Node000026_Node000027" class="edge">
<title>Node26&#45;&gt;Node27</title>
<g id="a_edge41_Node000026_Node000027"><a xlink:title=" ">
<path fill="none" stroke="#63b8ff" d="M1880.62,-54.98C1899.85,-46.42 1929.73,-33.11 1951.81,-23.28"/>
<polygon fill="#63b8ff" stroke="#63b8ff" points="1953.32,-26.44 1961.03,-19.17 1950.47,-20.04 1953.32,-26.44"/>
</a>
</g>
</g>
<!-- Node28&#45;&gt;Node3 -->
<g id="edge43_Node000028_Node000003" class="edge">
<title>Node28&#45;&gt;Node3</title>
<g id="a_edge43_Node000028_Node000003"><a xlink:title=" ">
<path fill="none" stroke="#63b8ff" d="M1921.67,-55.68C1918.91,-55.44 1916.18,-55.21 1913.5,-55 1569.5,-28.13 1478.81,-53.64 1130.76,-18.88"/>
<polygon fill="#63b8ff" stroke="#63b8ff" points="1130.95,-15.38 1120.65,-17.86 1130.25,-22.34 1130.95,-15.38"/>
</a>
</g>
</g>
<!-- Node28&#45;&gt;Node9 -->
<g id="edge44_Node000028_Node000009" class="edge">
<title>Node28&#45;&gt;Node9</title>
<g id="a_edge44_Node000028_Node000009"><a xlink:title=" ">
<path fill="none" stroke="#63b8ff" d="M1961.1,-54.98C1930.11,-46.01 1881.12,-31.82 1846.83,-21.89"/>
<polygon fill="#63b8ff" stroke="#63b8ff" points="1847.71,-18.5 1837.13,-19.08 1845.76,-25.23 1847.71,-18.5"/>
</a>
</g>
</g>
<!-- Node29 -->
<g id="Node000029" class="node">
<title>Node29</title>
<g id="a_Node000029"><a xlink:title=" ">
<polygon fill="#e0e0e0" stroke="#999999" points="2257.5,-19 2067.5,-19 2067.5,0 2257.5,0 2257.5,-19"/>
<text text-anchor="middle" x="2162.5" y="-7" font-family="Malgun Gothic" font-size="10.00">UCameraShakeSystem.generated.h</text>
</a>
</g>
</g>
<!-- Node28&#45;&gt;Node29 -->
<g id="edge45_Node000028_Node000029" class="edge">
<title>Node28&#45;&gt;Node29</title>
<g id="a_edge45_Node000028_Node000029"><a xlink:title=" ">
<path fill="none" stroke="#63b8ff" d="M2018.13,-54.98C2047.01,-46.09 2092.51,-32.07 2124.7,-22.15"/>
<polygon fill="#63b8ff" stroke="#63b8ff" points="2126.12,-25.37 2134.65,-19.08 2124.06,-18.68 2126.12,-25.37"/>
</a>
</g>
</g>
</g>
</svg>

<g id="navigator" transform="translate(0 0)" fill="#404254">
  <rect fill="#f2f5e9" fill-opacity="0.5" stroke="#606060" stroke-width=".5" x="0" y="0" width="60" height="60"/>
  <use id="zoomplus" xlink:href="#zoomPlus" x="17" y="9" onmousedown="handleZoom(evt,'in')"/>
  <use id="zoomminus" xlink:href="#zoomMin" x="42" y="9" onmousedown="handleZoom(evt,'out')"/>
  <use id="reset" xlink:href="#resetDef" x="30" y="36" onmousedown="handleReset()"/>
   <use id="arrowup" xlink:href="#arrowUp" x="0" y="0" onmousedown="handlePan(0,-1)"/>
  <use id="arrowright" xlink:href="#arrowRight" x="0" y="0" onmousedown="handlePan(1,0)"/>
  <use id="arrowdown" xlink:href="#arrowDown" x="0" y="0" onmousedown="handlePan(0,1)"/>
  <use id="arrowleft" xlink:href="#arrowLeft" x="0" y="0" onmousedown="handlePan(-1,0)"/>
</g>
<svg viewBox="0 0 15 15" width="100%" height="30px" preserveAspectRatio="xMaxYMin meet">
 <g id="arrow_out" transform="scale(0.3 0.3)">
  <a xlink:href="APlayerActor_8cpp__incl_org.svg" target="_base">
   <rect id="button" ry="5" rx="5" y="6" x="6" height="38" width="38"
        fill="#f2f5e9" fill-opacity="0.5" stroke="#606060" stroke-width="1.0"/>
   <path id="arrow"
     d="M 11.500037,31.436501 C 11.940474,20.09759 22.043105,11.32322 32.158766,21.979434 L 37.068811,17.246167 C 37.068811,17.246167 37.088388,32 37.088388,32 L 22.160133,31.978069 C 22.160133,31.978069 26.997745,27.140456 26.997745,27.140456 C 18.528582,18.264221 13.291696,25.230495 11.500037,31.436501 z"
     style="fill:#404040;"/>
  </a>
 </g>
</svg>

<style type='text/css'>
<![CDATA[
[data-mouse-over-selected='false'] { opacity: 0.7; }
[data-mouse-over-selected='true']  { opacity: 1.0; }
]]>
</style>
<script type="application/ecmascript"><![CDATA[
document.addEventListener('DOMContentLoaded', (event) => {
  highlightEdges();
  highlightAdjacentNodes();
});
]]></script>
</svg>
