<?xml version="1.0" encoding="UTF-8" standalone="no"?>
<!DOCTYPE svg PUBLIC "-//W3C//DTD SVG 1.1//EN"
 "http://www.w3.org/Graphics/SVG/1.1/DTD/svg11.dtd">
<!-- Generated by graphviz version 2.43.0 (0)
 -->
<!-- Title: Source/YiSan/Character/Public/APlayerActor.h Pages: 1 -->
<svg width="536pt" height="148pt"
 viewBox="0.00 0.00 536.00 148.00" xmlns="http://www.w3.org/2000/svg" xmlns:xlink="http://www.w3.org/1999/xlink">
<g id="graph0" class="graph" transform="scale(1 1) rotate(0) translate(4 144)">
<title>Source/YiSan/Character/Public/APlayerActor.h</title>
<!-- Node1 -->
<g id="Node000001" class="node">
<title>Node1</title>
<g id="a_Node000001"><a xlink:title="Declares the player&#45;controlled character actor.">
<polygon fill="#999999" stroke="#666666" points="284,-140 154,-140 154,-110 284,-110 284,-140"/>
<text text-anchor="start" x="162" y="-128" font-family="Malgun Gothic" font-size="10.00">Source/YiSan/Character</text>
<text text-anchor="middle" x="219" y="-117" font-family="Malgun Gothic" font-size="10.00">/Public/APlayerActor.h</text>
</a>
</g>
</g>
<!-- Node2 -->
<g id="Node000002" class="node">
<title>Node2</title>
<g id="a_Node000002"><a xlink:title=" ">
<polygon fill="#e0e0e0" stroke="#999999" points="88,-19 0,-19 0,0 88,0 88,-19"/>
<text text-anchor="middle" x="44" y="-7" font-family="Malgun Gothic" font-size="10.00">CoreMinimal.h</text>
</a>
</g>
</g>
<!-- Node1&#45;&gt;Node2 -->
<g id="edge1_Node000001_Node000002" class="edge">
<title>Node1&#45;&gt;Node2</title>
<g id="a_edge1_Node000001_Node000002"><a xlink:title=" ">
<path fill="none" stroke="#63b8ff" d="M168.79,-109.94C145.26,-101.83 117.71,-90.01 96,-74 78.85,-61.36 64,-41.83 54.61,-27.76"/>
<polygon fill="#63b8ff" stroke="#63b8ff" points="57.37,-25.58 49.02,-19.05 51.47,-29.36 57.37,-25.58"/>
</a>
</g>
</g>
<!-- Node3 -->
<g id="Node000003" class="node">
<title>Node3</title>
<g id="a_Node000003"><a xlink:href="IControllable_8h.html" target="_top" xlink:title="IControllable 인터페이스 선언에 대한 Doxygen 주석을 제공합니다.">
<polygon fill="white" stroke="#666666" points="193,-74 105,-74 105,-55 193,-55 193,-74"/>
<text text-anchor="middle" x="149" y="-62" font-family="Malgun Gothic" font-size="10.00">IControllable.h</text>
</a>
</g>
</g>
<!-- Node1&#45;&gt;Node3 -->
<g id="edge2_Node000001_Node000003" class="edge">
<title>Node1&#45;&gt;Node3</title>
<g id="a_edge2_Node000001_Node000003"><a xlink:title=" ">
<path fill="none" stroke="#63b8ff" d="M202.05,-109.84C191.58,-101.09 178.14,-89.85 167.41,-80.88"/>
<polygon fill="#63b8ff" stroke="#63b8ff" points="169.41,-77.99 159.49,-74.27 164.92,-83.36 169.41,-77.99"/>
</a>
</g>
</g>
<!-- Node6 -->
<g id="Node000006" class="node">
<title>Node6</title>
<g id="a_Node000006"><a xlink:title=" ">
<polygon fill="#e0e0e0" stroke="#999999" points="369.5,-74 210.5,-74 210.5,-55 369.5,-55 369.5,-74"/>
<text text-anchor="middle" x="290" y="-62" font-family="Malgun Gothic" font-size="10.00">GameFramework/Character.h</text>
</a>
</g>
</g>
<!-- Node1&#45;&gt;Node6 -->
<g id="edge6_Node000001_Node000006" class="edge">
<title>Node1&#45;&gt;Node6</title>
<g id="a_edge6_Node000001_Node000006"><a xlink:title=" ">
<path fill="none" stroke="#63b8ff" d="M236.19,-109.84C246.81,-101.09 260.44,-89.85 271.33,-80.88"/>
<polygon fill="#63b8ff" stroke="#63b8ff" points="273.87,-83.33 279.36,-74.27 269.42,-77.92 273.87,-83.33"/>
</a>
</g>
</g>
<!-- Node7 -->
<g id="Node000007" class="node">
<title>Node7</title>
<g id="a_Node000007"><a xlink:title=" ">
<polygon fill="#e0e0e0" stroke="#999999" points="528,-74 388,-74 388,-55 528,-55 528,-74"/>
<text text-anchor="middle" x="458" y="-62" font-family="Malgun Gothic" font-size="10.00">APlayerActor.generated.h</text>
</a>
</g>
</g>
<!-- Node1&#45;&gt;Node7 -->
<g id="edge7_Node000001_Node000007" class="edge">
<title>Node1&#45;&gt;Node7</title>
<g id="a_edge7_Node000001_Node000007"><a xlink:title=" ">
<path fill="none" stroke="#63b8ff" d="M276.25,-109.99C318.21,-99.72 374.38,-85.97 413.11,-76.49"/>
<polygon fill="#63b8ff" stroke="#63b8ff" points="414.17,-79.83 423.05,-74.05 412.51,-73.03 414.17,-79.83"/>
</a>
</g>
</g>
<!-- Node3&#45;&gt;Node2 -->
<g id="edge3_Node000003_Node000002" class="edge">
<title>Node3&#45;&gt;Node2</title>
<g id="a_edge3_Node000003_Node000002"><a xlink:title=" ">
<path fill="none" stroke="#63b8ff" d="M132.13,-54.98C115.39,-46.54 89.5,-33.47 70.11,-23.68"/>
<polygon fill="#63b8ff" stroke="#63b8ff" points="71.68,-20.55 61.18,-19.17 68.53,-26.8 71.68,-20.55"/>
</a>
</g>
</g>
<!-- Node4 -->
<g id="Node000004" class="node">
<title>Node4</title>
<g id="a_Node000004"><a xlink:title=" ">
<polygon fill="#e0e0e0" stroke="#999999" points="216.5,-19 105.5,-19 105.5,0 216.5,0 216.5,-19"/>
<text text-anchor="middle" x="161" y="-7" font-family="Malgun Gothic" font-size="10.00">UObject/Interface.h</text>
</a>
</g>
</g>
<!-- Node3&#45;&gt;Node4 -->
<g id="edge4_Node000003_Node000004" class="edge">
<title>Node3&#45;&gt;Node4</title>
<g id="a_edge4_Node000003_Node000004"><a xlink:title=" ">
<path fill="none" stroke="#63b8ff" d="M150.98,-54.75C152.57,-47.72 154.86,-37.62 156.85,-28.84"/>
<polygon fill="#63b8ff" stroke="#63b8ff" points="160.26,-29.62 159.06,-19.09 153.43,-28.07 160.26,-29.62"/>
</a>
</g>
</g>
<!-- Node5 -->
<g id="Node000005" class="node">
<title>Node5</title>
<g id="a_Node000005"><a xlink:title=" ">
<polygon fill="#e0e0e0" stroke="#999999" points="375,-19 235,-19 235,0 375,0 375,-19"/>
<text text-anchor="middle" x="305" y="-7" font-family="Malgun Gothic" font-size="10.00">IControllable.generated.h</text>
</a>
</g>
</g>
<!-- Node3&#45;&gt;Node5 -->
<g id="edge5_Node000003_Node000005" class="edge">
<title>Node3&#45;&gt;Node5</title>
<g id="a_edge5_Node000003_Node000005"><a xlink:title=" ">
<path fill="none" stroke="#63b8ff" d="M174.06,-54.98C200.03,-46.16 240.81,-32.31 269.96,-22.41"/>
<polygon fill="#63b8ff" stroke="#63b8ff" points="271.4,-25.61 279.74,-19.08 269.15,-18.99 271.4,-25.61"/>
</a>
</g>
</g>
</g>
</svg>
