<?xml version="1.0" encoding="UTF-8" standalone="no"?>
<!DOCTYPE svg PUBLIC "-//W3C//DTD SVG 1.1//EN"
 "http://www.w3.org/Graphics/SVG/1.1/DTD/svg11.dtd">
<!-- Generated by graphviz version 2.43.0 (0)
 -->
<!-- Title: Source/LatteLibrary/Character/Private/APlayerActor.cpp Pages: 1 -->
<svg width="3179pt" height="280pt"
 viewBox="0.00 0.00 3179.00 280.00" xmlns="http://www.w3.org/2000/svg" xmlns:xlink="http://www.w3.org/1999/xlink">
<g id="graph0" class="graph" transform="scale(1 1) rotate(0) translate(4 276)">
<title>Source/LatteLibrary/Character/Private/APlayerActor.cpp</title>
<!-- Node1 -->
<g id="Node000001" class="node">
<title>Node1</title>
<g id="a_Node000001"><a xlink:title="Provides Doxygen annotations for APlayerActor implementation.">
<polygon fill="#999999" stroke="#666666" points="1990,-272 1845,-272 1845,-231 1990,-231 1990,-272"/>
<text text-anchor="start" x="1853" y="-260" font-family="Malgun Gothic" font-size="10.00">Source/LatteLibrary</text>
<text text-anchor="start" x="1853" y="-249" font-family="Malgun Gothic" font-size="10.00">/Character/Private/APlayer</text>
<text text-anchor="middle" x="1917.5" y="-238" font-family="Malgun Gothic" font-size="10.00">Actor.cpp</text>
</a>
</g>
</g>
<!-- Node2 -->
<g id="Node000002" class="node">
<title>Node2</title>
<g id="a_Node000002"><a xlink:href="APlayerActor_8h.html" target="_top" xlink:title="Declares the player&#45;controlled character actor.">
<polygon fill="white" stroke="#666666" points="1155.5,-189.5 1067.5,-189.5 1067.5,-170.5 1155.5,-170.5 1155.5,-189.5"/>
<text text-anchor="middle" x="1111.5" y="-177.5" font-family="Malgun Gothic" font-size="10.00">APlayerActor.h</text>
</a>
</g>
</g>
<!-- Node1&#45;&gt;Node2 -->
<g id="edge1_Node000001_Node000002" class="edge">
<title>Node1&#45;&gt;Node2</title>
<g id="a_edge1_Node000001_Node000002"><a xlink:title=" ">
<path fill="none" stroke="#63b8ff" d="M1844.91,-244.24C1685.41,-230.49 1307.4,-197.89 1166.07,-185.71"/>
<polygon fill="#63b8ff" stroke="#63b8ff" points="1166.17,-182.2 1155.91,-184.83 1165.57,-189.18 1166.17,-182.2"/>
</a>
</g>
</g>
<!-- Node8 -->
<g id="Node000008" class="node">
<title>Node8</title>
<g id="a_Node000008"><a xlink:href="UStatSystem_8h.html" target="_top" xlink:title="UStatSystem 선언에 대한 Doxygen 주석을 제공합니다.">
<polygon fill="white" stroke="#666666" points="168,-74 79,-74 79,-55 168,-55 168,-74"/>
<text text-anchor="middle" x="123.5" y="-62" font-family="Malgun Gothic" font-size="10.00">UStatSystem.h</text>
</a>
</g>
</g>
<!-- Node1&#45;&gt;Node8 -->
<g id="edge19_Node000001_Node000008" class="edge">
<title>Node1&#45;&gt;Node8</title>
<g id="a_edge19_Node000001_Node000008"><a xlink:title=" ">
<path fill="none" stroke="#63b8ff" d="M1844.95,-249.4C1623.79,-245.06 939.18,-224.3 381.5,-129 302.59,-115.52 212.1,-91.13 162,-76.82"/>
<polygon fill="#63b8ff" stroke="#63b8ff" points="162.81,-73.41 152.23,-74.02 160.88,-80.14 162.81,-73.41"/>
</a>
</g>
</g>
<!-- Node16 -->
<g id="Node000016" class="node">
<title>Node16</title>
<g id="a_Node000016"><a xlink:href="UHitStopSystem_8h.html" target="_top" xlink:title="UHitStopSystem 선언에 대한 Doxygen 주석을 제공합니다.">
<polygon fill="white" stroke="#666666" points="1427.5,-129 1321.5,-129 1321.5,-110 1427.5,-110 1427.5,-129"/>
<text text-anchor="middle" x="1374.5" y="-117" font-family="Malgun Gothic" font-size="10.00">UHitStopSystem.h</text>
</a>
</g>
</g>
<!-- Node1&#45;&gt;Node16 -->
<g id="edge20_Node000001_Node000016" class="edge">
<title>Node1&#45;&gt;Node16</title>
<g id="a_edge20_Node000001_Node000016"><a xlink:title=" ">
<path fill="none" stroke="#63b8ff" d="M1844.83,-233.1C1731.07,-205.87 1514.21,-153.95 1420.03,-131.4"/>
<polygon fill="#63b8ff" stroke="#63b8ff" points="1420.78,-127.98 1410.24,-129.06 1419.15,-134.79 1420.78,-127.98"/>
</a>
</g>
</g>
<!-- Node22 -->
<g id="Node000022" class="node">
<title>Node22</title>
<g id="a_Node000022"><a xlink:href="UKnockbackSystem_8h.html" target="_top" xlink:title="UKnockbackSystem 선언에 대한 Doxygen 주석을 제공합니다.">
<polygon fill="white" stroke="#666666" points="1697,-129 1574,-129 1574,-110 1697,-110 1697,-129"/>
<text text-anchor="middle" x="1635.5" y="-117" font-family="Malgun Gothic" font-size="10.00">UKnockbackSystem.h</text>
</a>
</g>
</g>
<!-- Node1&#45;&gt;Node22 -->
<g id="edge29_Node000001_Node000022" class="edge">
<title>Node1&#45;&gt;Node22</title>
<g id="a_edge29_Node000001_Node000022"><a xlink:title=" ">
<path fill="none" stroke="#63b8ff" d="M1859.82,-230.89C1832.39,-221.02 1799.35,-208.32 1770.5,-195 1729.81,-176.21 1684.59,-150.13 1658.18,-134.33"/>
<polygon fill="#63b8ff" stroke="#63b8ff" points="1659.72,-131.17 1649.34,-129.01 1656.11,-137.17 1659.72,-131.17"/>
</a>
</g>
</g>
<!-- Node26 -->
<g id="Node000026" class="node">
<title>Node26</title>
<g id="a_Node000026"><a xlink:href="UFlySystem_8h.html" target="_top" xlink:title="UFlySystem 선언에 대한 Doxygen 주석을 제공합니다.">
<polygon fill="white" stroke="#666666" points="1827,-74 1742,-74 1742,-55 1827,-55 1827,-74"/>
<text text-anchor="middle" x="1784.5" y="-62" font-family="Malgun Gothic" font-size="10.00">UFlySystem.h</text>
</a>
</g>
</g>
<!-- Node1&#45;&gt;Node26 -->
<g id="edge38_Node000001_Node000026" class="edge">
<title>Node1&#45;&gt;Node26</title>
<g id="a_edge38_Node000001_Node000026"><a xlink:title=" ">
<path fill="none" stroke="#63b8ff" d="M1874.08,-230.85C1858.22,-221.86 1841.3,-209.85 1829.5,-195 1802.95,-161.57 1791.51,-111.41 1787.04,-84.38"/>
<polygon fill="#63b8ff" stroke="#63b8ff" points="1790.48,-83.69 1785.53,-74.32 1783.56,-84.73 1790.48,-83.69"/>
</a>
</g>
</g>
<!-- Node28 -->
<g id="Node000028" class="node">
<title>Node28</title>
<g id="a_Node000028"><a xlink:href="USightSystem_8h.html" target="_top" xlink:title="USightSystem 선언에 대한 Doxygen 주석을 제공합니다.">
<polygon fill="white" stroke="#666666" points="2172,-74 2077,-74 2077,-55 2172,-55 2172,-74"/>
<text text-anchor="middle" x="2124.5" y="-62" font-family="Malgun Gothic" font-size="10.00">USightSystem.h</text>
</a>
</g>
</g>
<!-- Node1&#45;&gt;Node28 -->
<g id="edge42_Node000001_Node000028" class="edge">
<title>Node1&#45;&gt;Node28</title>
<g id="a_edge42_Node000001_Node000028"><a xlink:title=" ">
<path fill="none" stroke="#63b8ff" d="M1903.51,-230.86C1884.32,-201.28 1855.34,-145.06 1884.5,-110 1890.36,-102.95 1997.89,-85.11 2067.01,-74.28"/>
<polygon fill="#63b8ff" stroke="#63b8ff" points="2067.57,-77.73 2076.92,-72.73 2066.5,-70.82 2067.57,-77.73"/>
</a>
</g>
</g>
<!-- Node30 -->
<g id="Node000030" class="node">
<title>Node30</title>
<g id="a_Node000030"><a xlink:href="UVoiceSystem_8h.html" target="_top" xlink:title=" ">
<polygon fill="white" stroke="#666666" points="2286.5,-74 2190.5,-74 2190.5,-55 2286.5,-55 2286.5,-74"/>
<text text-anchor="middle" x="2238.5" y="-62" font-family="Malgun Gothic" font-size="10.00">UVoiceSystem.h</text>
</a>
</g>
</g>
<!-- Node1&#45;&gt;Node30 -->
<g id="edge46_Node000001_Node000030" class="edge">
<title>Node1&#45;&gt;Node30</title>
<g id="a_edge46_Node000001_Node000030"><a xlink:title=" ">
<path fill="none" stroke="#63b8ff" d="M1911.19,-230.83C1902.88,-200.71 1892.58,-143.16 1922.5,-110 1959.6,-68.88 2109.02,-80.97 2180.37,-73.91"/>
<polygon fill="#63b8ff" stroke="#63b8ff" points="2180.79,-77.38 2190.3,-72.72 2179.96,-70.43 2180.79,-77.38"/>
</a>
</g>
</g>
<!-- Node32 -->
<g id="Node000032" class="node">
<title>Node32</title>
<g id="a_Node000032"><a xlink:href="UVoiceCaptureComponent_8h.html" target="_top" xlink:title=" ">
<polygon fill="white" stroke="#666666" points="2458.5,-74 2304.5,-74 2304.5,-55 2458.5,-55 2458.5,-74"/>
<text text-anchor="middle" x="2381.5" y="-62" font-family="Malgun Gothic" font-size="10.00">UVoiceCaptureComponent.h</text>
</a>
</g>
</g>
<!-- Node1&#45;&gt;Node32 -->
<g id="edge50_Node000001_Node000032" class="edge">
<title>Node1&#45;&gt;Node32</title>
<g id="a_edge50_Node000001_Node000032"><a xlink:title=" ">
<path fill="none" stroke="#63b8ff" d="M1920.99,-230.8C1925.51,-211.19 1935.35,-181.67 1955.5,-165 2007.73,-121.8 2194.22,-90.47 2302.36,-75.46"/>
<polygon fill="#63b8ff" stroke="#63b8ff" points="2303.14,-78.89 2312.57,-74.06 2302.19,-71.95 2303.14,-78.89"/>
</a>
</g>
</g>
<!-- Node34 -->
<g id="Node000034" class="node">
<title>Node34</title>
<g id="a_Node000034"><a xlink:href="UCameraShakeSystem_8h.html" target="_top" xlink:title="UCameraShakeSystem 선언에 대한 Doxygen 주석을 제공합니다.">
<polygon fill="white" stroke="#666666" points="2059,-74 1922,-74 1922,-55 2059,-55 2059,-74"/>
<text text-anchor="middle" x="1990.5" y="-62" font-family="Malgun Gothic" font-size="10.00">UCameraShakeSystem.h</text>
</a>
</g>
</g>
<!-- Node1&#45;&gt;Node34 -->
<g id="edge54_Node000001_Node000034" class="edge">
<title>Node1&#45;&gt;Node34</title>
<g id="a_edge54_Node000001_Node000034"><a xlink:title=" ">
<path fill="none" stroke="#63b8ff" d="M1880.05,-230.76C1866.94,-221.76 1853.7,-209.77 1846.5,-195 1829.94,-161.04 1824.07,-140.4 1846.5,-110 1861.93,-89.09 1887.06,-77.7 1912.04,-71.6"/>
<polygon fill="#63b8ff" stroke="#63b8ff" points="1912.93,-74.99 1921.96,-69.44 1911.44,-68.15 1912.93,-74.99"/>
</a>
</g>
</g>
<!-- Node36 -->
<g id="Node000036" class="node">
<title>Node36</title>
<g id="a_Node000036"><a xlink:href="Macro_8h.html" target="_top" xlink:title="Manager 모듈에서 공통으로 사용하는 매크로 정의에 대한 Doxygen 주석을 제공합니다.">
<polygon fill="white" stroke="#666666" points="2020.5,-189.5 1964.5,-189.5 1964.5,-170.5 2020.5,-170.5 2020.5,-189.5"/>
<text text-anchor="middle" x="1992.5" y="-177.5" font-family="Malgun Gothic" font-size="10.00">Macro.h</text>
</a>
</g>
</g>
<!-- Node1&#45;&gt;Node36 -->
<g id="edge58_Node000001_Node000036" class="edge">
<title>Node1&#45;&gt;Node36</title>
<g id="a_edge58_Node000001_Node000036"><a xlink:title=" ">
<path fill="none" stroke="#63b8ff" d="M1938.79,-230.77C1950.39,-220.02 1964.54,-206.91 1975.41,-196.84"/>
<polygon fill="#63b8ff" stroke="#63b8ff" points="1978.03,-199.18 1982.98,-189.82 1973.27,-194.05 1978.03,-199.18"/>
</a>
</g>
</g>
<!-- Node37 -->
<g id="Node000037" class="node">
<title>Node37</title>
<g id="a_Node000037"><a xlink:title=" ">
<polygon fill="#e0e0e0" stroke="#999999" points="2210,-189.5 2039,-189.5 2039,-170.5 2210,-170.5 2210,-189.5"/>
<text text-anchor="middle" x="2124.5" y="-177.5" font-family="Malgun Gothic" font-size="10.00">Components/InputComponent.h</text>
</a>
</g>
</g>
<!-- Node1&#45;&gt;Node37 -->
<g id="edge59_Node000001_Node000037" class="edge">
<title>Node1&#45;&gt;Node37</title>
<g id="a_edge59_Node000001_Node000037"><a xlink:title=" ">
<path fill="none" stroke="#63b8ff" d="M1975.71,-230.96C2012.4,-218.64 2058.54,-203.15 2089.64,-192.71"/>
<polygon fill="#63b8ff" stroke="#63b8ff" points="2090.81,-196 2099.17,-189.5 2088.58,-189.37 2090.81,-196"/>
</a>
</g>
</g>
<!-- Node38 -->
<g id="Node000038" class="node">
<title>Node38</title>
<g id="a_Node000038"><a xlink:title=" ">
<polygon fill="#e0e0e0" stroke="#999999" points="2329,-189.5 2228,-189.5 2228,-170.5 2329,-170.5 2329,-189.5"/>
<text text-anchor="middle" x="2278.5" y="-177.5" font-family="Malgun Gothic" font-size="10.00">InputCoreTypes.h</text>
</a>
</g>
</g>
<!-- Node1&#45;&gt;Node38 -->
<g id="edge60_Node000001_Node000038" class="edge">
<title>Node1&#45;&gt;Node38</title>
<g id="a_edge60_Node000001_Node000038"><a xlink:title=" ">
<path fill="none" stroke="#63b8ff" d="M1990.01,-238.25C2051.32,-227.63 2141.38,-211.44 2219.5,-195 2224.21,-194.01 2229.12,-192.93 2234.01,-191.81"/>
<polygon fill="#63b8ff" stroke="#63b8ff" points="2234.98,-195.18 2243.94,-189.51 2233.41,-188.36 2234.98,-195.18"/>
</a>
</g>
</g>
<!-- Node39 -->
<g id="Node000039" class="node">
<title>Node39</title>
<g id="a_Node000039"><a xlink:title=" ">
<polygon fill="#e0e0e0" stroke="#999999" points="2550,-195 2347,-195 2347,-165 2550,-165 2550,-195"/>
<text text-anchor="start" x="2355" y="-183" font-family="Malgun Gothic" font-size="10.00">GameFramework/CharacterMovement</text>
<text text-anchor="middle" x="2448.5" y="-172" font-family="Malgun Gothic" font-size="10.00">Component.h</text>
</a>
</g>
</g>
<!-- Node1&#45;&gt;Node39 -->
<g id="edge61_Node000001_Node000039" class="edge">
<title>Node1&#45;&gt;Node39</title>
<g id="a_edge61_Node000001_Node000039"><a xlink:title=" ">
<path fill="none" stroke="#63b8ff" d="M1990.22,-240.98C2079.65,-229.28 2232.38,-209.29 2336.75,-195.63"/>
<polygon fill="#63b8ff" stroke="#63b8ff" points="2337.24,-199.09 2346.7,-194.32 2336.33,-192.15 2337.24,-199.09"/>
</a>
</g>
</g>
<!-- Node40 -->
<g id="Node000040" class="node">
<title>Node40</title>
<g id="a_Node000040"><a xlink:title=" ">
<polygon fill="#e0e0e0" stroke="#999999" points="2788.5,-189.5 2568.5,-189.5 2568.5,-170.5 2788.5,-170.5 2788.5,-189.5"/>
<text text-anchor="middle" x="2678.5" y="-177.5" font-family="Malgun Gothic" font-size="10.00">GameFramework/SpringArmComponent.h</text>
</a>
</g>
</g>
<!-- Node1&#45;&gt;Node40 -->
<g id="edge62_Node000001_Node000040" class="edge">
<title>Node1&#45;&gt;Node40</title>
<g id="a_edge62_Node000001_Node000040"><a xlink:title=" ">
<path fill="none" stroke="#63b8ff" d="M1990.26,-244.95C2109.36,-235.69 2353.32,-216.03 2559.5,-195 2572.36,-193.69 2586,-192.19 2599.26,-190.67"/>
<polygon fill="#63b8ff" stroke="#63b8ff" points="2599.79,-194.13 2609.32,-189.5 2598.99,-187.18 2599.79,-194.13"/>
</a>
</g>
</g>
<!-- Node41 -->
<g id="Node000041" class="node">
<title>Node41</title>
<g id="a_Node000041"><a xlink:title=" ">
<polygon fill="#e0e0e0" stroke="#999999" points="2968,-189.5 2807,-189.5 2807,-170.5 2968,-170.5 2968,-189.5"/>
<text text-anchor="middle" x="2887.5" y="-177.5" font-family="Malgun Gothic" font-size="10.00">Camera/CameraComponent.h</text>
</a>
</g>
</g>
<!-- Node1&#45;&gt;Node41 -->
<g id="edge63_Node000001_Node000041" class="edge">
<title>Node1&#45;&gt;Node41</title>
<g id="a_edge63_Node000001_Node000041"><a xlink:title=" ">
<path fill="none" stroke="#63b8ff" d="M1990.13,-248.17C2140.93,-242.82 2498.85,-227.58 2797.5,-195 2807.4,-193.92 2817.88,-192.52 2828.06,-191.03"/>
<polygon fill="#63b8ff" stroke="#63b8ff" points="2828.73,-194.47 2838.09,-189.52 2827.68,-187.55 2828.73,-194.47"/>
</a>
</g>
</g>
<!-- Node42 -->
<g id="Node000042" class="node">
<title>Node42</title>
<g id="a_Node000042"><a xlink:title=" ">
<polygon fill="#e0e0e0" stroke="#999999" points="3171,-189.5 2986,-189.5 2986,-170.5 3171,-170.5 3171,-189.5"/>
<text text-anchor="middle" x="3078.5" y="-177.5" font-family="Malgun Gothic" font-size="10.00">Components/CapsuleComponent.h</text>
</a>
</g>
</g>
<!-- Node1&#45;&gt;Node42 -->
<g id="edge64_Node000001_Node000042" class="edge">
<title>Node1&#45;&gt;Node42</title>
<g id="a_edge64_Node000001_Node000042"><a xlink:title=" ">
<path fill="none" stroke="#63b8ff" d="M1990.27,-248.83C2162.29,-244.42 2607.39,-230.28 2977.5,-195 2989.02,-193.9 3001.24,-192.45 3013.05,-190.9"/>
<polygon fill="#63b8ff" stroke="#63b8ff" points="3013.85,-194.33 3023.3,-189.52 3012.92,-187.39 3013.85,-194.33"/>
</a>
</g>
</g>
<!-- Node3 -->
<g id="Node000003" class="node">
<title>Node3</title>
<g id="a_Node000003"><a xlink:title=" ">
<polygon fill="#e0e0e0" stroke="#999999" points="1525.5,-19 1437.5,-19 1437.5,0 1525.5,0 1525.5,-19"/>
<text text-anchor="middle" x="1481.5" y="-7" font-family="Malgun Gothic" font-size="10.00">CoreMinimal.h</text>
</a>
</g>
</g>
<!-- Node2&#45;&gt;Node3 -->
<g id="edge2_Node000002_Node000003" class="edge">
<title>Node2&#45;&gt;Node3</title>
<g id="a_edge2_Node000002_Node000003"><a xlink:title=" ">
<path fill="none" stroke="#63b8ff" d="M1155.57,-177.26C1233.81,-173.36 1392.86,-161.56 1436.5,-129 1468.29,-105.28 1477.62,-56.22 1480.36,-29.26"/>
<polygon fill="#63b8ff" stroke="#63b8ff" points="1483.86,-29.44 1481.18,-19.19 1476.88,-28.88 1483.86,-29.44"/>
</a>
</g>
</g>
<!-- Node4 -->
<g id="Node000004" class="node">
<title>Node4</title>
<g id="a_Node000004"><a xlink:href="AGameCharacter_8h.html" target="_top" xlink:title="LatteLibrary 전반에서 사용하는 기반 캐릭터 클래스를 선언합니다.">
<polygon fill="white" stroke="#666666" points="498.5,-129 390.5,-129 390.5,-110 498.5,-110 498.5,-129"/>
<text text-anchor="middle" x="444.5" y="-117" font-family="Malgun Gothic" font-size="10.00">AGameCharacter.h</text>
</a>
</g>
</g>
<!-- Node2&#45;&gt;Node4 -->
<g id="edge3_Node000002_Node000004" class="edge">
<title>Node2&#45;&gt;Node4</title>
<g id="a_edge3_Node000002_Node000004"><a xlink:title=" ">
<path fill="none" stroke="#63b8ff" d="M1067.48,-175.14C952.71,-165.07 643.95,-137.99 509.05,-126.16"/>
<polygon fill="#63b8ff" stroke="#63b8ff" points="509.13,-122.66 498.87,-125.27 508.52,-129.63 509.13,-122.66"/>
</a>
</g>
</g>
<!-- Node12 -->
<g id="Node000012" class="node">
<title>Node12</title>
<g id="a_Node000012"><a xlink:href="IControllable_8h.html" target="_top" xlink:title="IControllable 인터페이스 선언에 대한 Doxygen 주석을 제공합니다.">
<polygon fill="white" stroke="#666666" points="962.5,-129 874.5,-129 874.5,-110 962.5,-110 962.5,-129"/>
<text text-anchor="middle" x="918.5" y="-117" font-family="Malgun Gothic" font-size="10.00">IControllable.h</text>
</a>
</g>
</g>
<!-- Node2&#45;&gt;Node12 -->
<g id="edge14_Node000002_Node000012" class="edge">
<title>Node2&#45;&gt;Node12</title>
<g id="a_edge14_Node000002_Node000012"><a xlink:title=" ">
<path fill="none" stroke="#63b8ff" d="M1083.44,-170.49C1049.99,-160.36 993.94,-143.37 956.6,-132.05"/>
<polygon fill="#63b8ff" stroke="#63b8ff" points="957.18,-128.57 946.6,-129.02 955.15,-135.27 957.18,-128.57"/>
</a>
</g>
</g>
<!-- Node15 -->
<g id="Node000015" class="node">
<title>Node15</title>
<g id="a_Node000015"><a xlink:title=" ">
<polygon fill="#e0e0e0" stroke="#999999" points="1181.5,-129 1041.5,-129 1041.5,-110 1181.5,-110 1181.5,-129"/>
<text text-anchor="middle" x="1111.5" y="-117" font-family="Malgun Gothic" font-size="10.00">APlayerActor.generated.h</text>
</a>
</g>
</g>
<!-- Node2&#45;&gt;Node15 -->
<g id="edge18_Node000002_Node000015" class="edge">
<title>Node2&#45;&gt;Node15</title>
<g id="a_edge18_Node000002_Node000015"><a xlink:title=" ">
<path fill="none" stroke="#63b8ff" d="M1111.5,-170.37C1111.5,-162.25 1111.5,-149.81 1111.5,-139.39"/>
<polygon fill="#63b8ff" stroke="#63b8ff" points="1115,-139.17 1111.5,-129.17 1108,-139.17 1115,-139.17"/>
</a>
</g>
</g>
<!-- Node4&#45;&gt;Node3 -->
<g id="edge4_Node000004_Node000003" class="edge">
<title>Node4&#45;&gt;Node3</title>
<g id="a_edge4_Node000004_Node000003"><a xlink:title=" ">
<path fill="none" stroke="#63b8ff" d="M498.65,-118.39C645.09,-117.57 1046.45,-111.85 1172.5,-74 1188.71,-69.13 1189.55,-60.66 1205.5,-55 1279.56,-28.71 1370.35,-17.87 1427.08,-13.46"/>
<polygon fill="#63b8ff" stroke="#63b8ff" points="1427.55,-16.93 1437.26,-12.71 1427.03,-9.95 1427.55,-16.93"/>
</a>
</g>
</g>
<!-- Node5 -->
<g id="Node000005" class="node">
<title>Node5</title>
<g id="a_Node000005"><a xlink:title=" ">
<polygon fill="#e0e0e0" stroke="#999999" points="524,-74 365,-74 365,-55 524,-55 524,-74"/>
<text text-anchor="middle" x="444.5" y="-62" font-family="Malgun Gothic" font-size="10.00">GameFramework/Character.h</text>
</a>
</g>
</g>
<!-- Node4&#45;&gt;Node5 -->
<g id="edge5_Node000004_Node000005" class="edge">
<title>Node4&#45;&gt;Node5</title>
<g id="a_edge5_Node000004_Node000005"><a xlink:title=" ">
<path fill="none" stroke="#63b8ff" d="M444.5,-109.75C444.5,-102.8 444.5,-92.85 444.5,-84.13"/>
<polygon fill="#63b8ff" stroke="#63b8ff" points="448,-84.09 444.5,-74.09 441,-84.09 448,-84.09"/>
</a>
</g>
</g>
<!-- Node6 -->
<g id="Node000006" class="node">
<title>Node6</title>
<g id="a_Node000006"><a xlink:href="EBodyPartType_8h.html" target="_top" xlink:title="EBodyPartType 열거형에 대한 Doxygen 주석을 제공합니다.">
<polygon fill="white" stroke="#666666" points="639.5,-74 541.5,-74 541.5,-55 639.5,-55 639.5,-74"/>
<text text-anchor="middle" x="590.5" y="-62" font-family="Malgun Gothic" font-size="10.00">EBodyPartType.h</text>
</a>
</g>
</g>
<!-- Node4&#45;&gt;Node6 -->
<g id="edge6_Node000004_Node000006" class="edge">
<title>Node4&#45;&gt;Node6</title>
<g id="a_edge6_Node000004_Node000006"><a xlink:title=" ">
<path fill="none" stroke="#63b8ff" d="M467.96,-109.98C492.08,-101.23 529.87,-87.51 557.1,-77.62"/>
<polygon fill="#63b8ff" stroke="#63b8ff" points="558.41,-80.87 566.62,-74.17 556.02,-74.29 558.41,-80.87"/>
</a>
</g>
</g>
<!-- Node7 -->
<g id="Node000007" class="node">
<title>Node7</title>
<g id="a_Node000007"><a xlink:href="ECharacterType_8h.html" target="_top" xlink:title="ECharacterType 열거형에 대한 Doxygen 주석을 제공합니다.">
<polygon fill="white" stroke="#666666" points="101,-19 0,-19 0,0 101,0 101,-19"/>
<text text-anchor="middle" x="50.5" y="-7" font-family="Malgun Gothic" font-size="10.00">ECharacterType.h</text>
</a>
</g>
</g>
<!-- Node4&#45;&gt;Node7 -->
<g id="edge7_Node000004_Node000007" class="edge">
<title>Node4&#45;&gt;Node7</title>
<g id="a_edge7_Node000004_Node000007"><a xlink:title=" ">
<path fill="none" stroke="#63b8ff" d="M390.27,-119.14C298.24,-119.11 116.86,-113.82 69.5,-74 56.57,-63.13 52.22,-43.85 50.86,-29.38"/>
<polygon fill="#63b8ff" stroke="#63b8ff" points="54.34,-28.86 50.31,-19.06 47.35,-29.23 54.34,-28.86"/>
</a>
</g>
</g>
<!-- Node4&#45;&gt;Node8 -->
<g id="edge8_Node000004_Node000008" class="edge">
<title>Node4&#45;&gt;Node8</title>
<g id="a_edge8_Node000004_Node000008"><a xlink:title=" ">
<path fill="none" stroke="#63b8ff" d="M392.93,-109.98C334.12,-100.28 238.38,-84.47 178.28,-74.54"/>
<polygon fill="#63b8ff" stroke="#63b8ff" points="178.65,-71.06 168.22,-72.88 177.51,-77.97 178.65,-71.06"/>
</a>
</g>
</g>
<!-- Node11 -->
<g id="Node000011" class="node">
<title>Node11</title>
<g id="a_Node000011"><a xlink:title=" ">
<polygon fill="#e0e0e0" stroke="#999999" points="347,-74 186,-74 186,-55 347,-55 347,-74"/>
<text text-anchor="middle" x="266.5" y="-62" font-family="Malgun Gothic" font-size="10.00">AGameCharacter.generated.h</text>
</a>
</g>
</g>
<!-- Node4&#45;&gt;Node11 -->
<g id="edge13_Node000004_Node000011" class="edge">
<title>Node4&#45;&gt;Node11</title>
<g id="a_edge13_Node000004_Node000011"><a xlink:title=" ">
<path fill="none" stroke="#63b8ff" d="M415.9,-109.98C385.89,-101.05 338.52,-86.94 305.18,-77.02"/>
<polygon fill="#63b8ff" stroke="#63b8ff" points="305.91,-73.58 295.32,-74.08 303.91,-80.29 305.91,-73.58"/>
</a>
</g>
</g>
<!-- Node8&#45;&gt;Node3 -->
<g id="edge9_Node000008_Node000003" class="edge">
<title>Node8&#45;&gt;Node3</title>
<g id="a_edge9_Node000008_Node000003"><a xlink:title=" ">
<path fill="none" stroke="#63b8ff" d="M168.27,-55.91C171.05,-55.56 173.81,-55.26 176.5,-55 697.95,-5.42 831.32,-44.49 1354.5,-19 1378.43,-17.83 1404.86,-16.13 1427.39,-14.56"/>
<polygon fill="#63b8ff" stroke="#63b8ff" points="1427.71,-18.04 1437.44,-13.84 1427.22,-11.06 1427.71,-18.04"/>
</a>
</g>
</g>
<!-- Node8&#45;&gt;Node7 -->
<g id="edge10_Node000008_Node000007" class="edge">
<title>Node8&#45;&gt;Node7</title>
<g id="a_edge10_Node000008_Node000007"><a xlink:title=" ">
<path fill="none" stroke="#63b8ff" d="M111.77,-54.98C100.77,-47 84.08,-34.88 70.9,-25.31"/>
<polygon fill="#63b8ff" stroke="#63b8ff" points="72.59,-22.21 62.44,-19.17 68.48,-27.88 72.59,-22.21"/>
</a>
</g>
</g>
<!-- Node9 -->
<g id="Node000009" class="node">
<title>Node9</title>
<g id="a_Node000009"><a xlink:title=" ">
<polygon fill="#e0e0e0" stroke="#999999" points="1941.5,-19 1769.5,-19 1769.5,0 1941.5,0 1941.5,-19"/>
<text text-anchor="middle" x="1855.5" y="-7" font-family="Malgun Gothic" font-size="10.00">Components/ActorComponent.h</text>
</a>
</g>
</g>
<!-- Node8&#45;&gt;Node9 -->
<g id="edge11_Node000008_Node000009" class="edge">
<title>Node8&#45;&gt;Node9</title>
<g id="a_edge11_Node000008_Node000009"><a xlink:title=" ">
<path fill="none" stroke="#63b8ff" d="M168.27,-55.88C171.05,-55.54 173.81,-55.25 176.5,-55 874.44,8.6 1055.7,-57.76 1759.17,-19.03"/>
<polygon fill="#63b8ff" stroke="#63b8ff" points="1759.51,-22.51 1769.3,-18.46 1759.13,-15.52 1759.51,-22.51"/>
</a>
</g>
</g>
<!-- Node10 -->
<g id="Node000010" class="node">
<title>Node10</title>
<g id="a_Node000010"><a xlink:title=" ">
<polygon fill="#e0e0e0" stroke="#999999" points="261.5,-19 119.5,-19 119.5,0 261.5,0 261.5,-19"/>
<text text-anchor="middle" x="190.5" y="-7" font-family="Malgun Gothic" font-size="10.00">UStatSystem.generated.h</text>
</a>
</g>
</g>
<!-- Node8&#45;&gt;Node10 -->
<g id="edge12_Node000008_Node000010" class="edge">
<title>Node8&#45;&gt;Node10</title>
<g id="a_edge12_Node000008_Node000010"><a xlink:title=" ">
<path fill="none" stroke="#63b8ff" d="M134.26,-54.98C144.27,-47.07 159.39,-35.11 171.43,-25.58"/>
<polygon fill="#63b8ff" stroke="#63b8ff" points="173.87,-28.12 179.54,-19.17 169.53,-22.63 173.87,-28.12"/>
</a>
</g>
</g>
<!-- Node12&#45;&gt;Node3 -->
<g id="edge15_Node000012_Node000003" class="edge">
<title>Node12&#45;&gt;Node3</title>
<g id="a_edge15_Node000012_Node000003"><a xlink:title=" ">
<path fill="none" stroke="#63b8ff" d="M962.52,-113.12C1019.06,-105.89 1120.11,-91.84 1205.5,-74 1237.9,-67.23 1245.32,-62.75 1277.5,-55 1329.27,-42.53 1388.79,-29.72 1430.13,-21.06"/>
<polygon fill="#63b8ff" stroke="#63b8ff" points="1430.89,-24.48 1439.96,-19.01 1429.46,-17.63 1430.89,-24.48"/>
</a>
</g>
</g>
<!-- Node13 -->
<g id="Node000013" class="node">
<title>Node13</title>
<g id="a_Node000013"><a xlink:title=" ">
<polygon fill="#e0e0e0" stroke="#999999" points="769,-74 658,-74 658,-55 769,-55 769,-74"/>
<text text-anchor="middle" x="713.5" y="-62" font-family="Malgun Gothic" font-size="10.00">UObject/Interface.h</text>
</a>
</g>
</g>
<!-- Node12&#45;&gt;Node13 -->
<g id="edge16_Node000012_Node000013" class="edge">
<title>Node12&#45;&gt;Node13</title>
<g id="a_edge16_Node000012_Node000013"><a xlink:title=" ">
<path fill="none" stroke="#63b8ff" d="M885.56,-109.98C850.55,-100.93 795.03,-86.58 756.57,-76.64"/>
<polygon fill="#63b8ff" stroke="#63b8ff" points="757.25,-73.2 746.69,-74.08 755.5,-79.97 757.25,-73.2"/>
</a>
</g>
</g>
<!-- Node14 -->
<g id="Node000014" class="node">
<title>Node14</title>
<g id="a_Node000014"><a xlink:title=" ">
<polygon fill="#e0e0e0" stroke="#999999" points="927.5,-74 787.5,-74 787.5,-55 927.5,-55 927.5,-74"/>
<text text-anchor="middle" x="857.5" y="-62" font-family="Malgun Gothic" font-size="10.00">IControllable.generated.h</text>
</a>
</g>
</g>
<!-- Node12&#45;&gt;Node14 -->
<g id="edge17_Node000012_Node000014" class="edge">
<title>Node12&#45;&gt;Node14</title>
<g id="a_edge17_Node000012_Node000014"><a xlink:title=" ">
<path fill="none" stroke="#63b8ff" d="M908.7,-109.98C899.68,-102.15 886.09,-90.34 875.18,-80.86"/>
<polygon fill="#63b8ff" stroke="#63b8ff" points="877.32,-78.09 867.48,-74.17 872.73,-83.37 877.32,-78.09"/>
</a>
</g>
</g>
<!-- Node16&#45;&gt;Node3 -->
<g id="edge21_Node000016_Node000003" class="edge">
<title>Node16&#45;&gt;Node3</title>
<g id="a_edge21_Node000016_Node000003"><a xlink:title=" ">
<path fill="none" stroke="#63b8ff" d="M1343.46,-109.92C1310.83,-99.36 1266.77,-79.75 1286.5,-55 1303.85,-33.24 1375.94,-21.28 1427.41,-15.38"/>
<polygon fill="#63b8ff" stroke="#63b8ff" points="1427.85,-18.86 1437.41,-14.28 1427.08,-11.9 1427.85,-18.86"/>
</a>
</g>
</g>
<!-- Node16&#45;&gt;Node9 -->
<g id="edge22_Node000016_Node000009" class="edge">
<title>Node16&#45;&gt;Node9</title>
<g id="a_edge22_Node000016_Node000009"><a xlink:title=" ">
<path fill="none" stroke="#63b8ff" d="M1427.59,-114.97C1545.66,-106.91 1820.88,-86.84 1836.5,-74 1849.55,-63.28 1853.88,-43.98 1855.2,-29.46"/>
<polygon fill="#63b8ff" stroke="#63b8ff" points="1858.71,-29.26 1855.72,-19.1 1851.72,-28.91 1858.71,-29.26"/>
</a>
</g>
</g>
<!-- Node17 -->
<g id="Node000017" class="node">
<title>Node17</title>
<g id="a_Node000017"><a xlink:href="FHitStopData_8h.html" target="_top" xlink:title="FHitStopData 구조체에 대한 Doxygen 주석을 제공합니다.">
<polygon fill="white" stroke="#666666" points="1037,-74 946,-74 946,-55 1037,-55 1037,-74"/>
<text text-anchor="middle" x="991.5" y="-62" font-family="Malgun Gothic" font-size="10.00">FHitStopData.h</text>
</a>
</g>
</g>
<!-- Node16&#45;&gt;Node17 -->
<g id="edge23_Node000016_Node000017" class="edge">
<title>Node16&#45;&gt;Node17</title>
<g id="a_edge23_Node000016_Node000017"><a xlink:title=" ">
<path fill="none" stroke="#63b8ff" d="M1321.34,-111.59C1258.46,-103.36 1150.34,-88.98 1047.08,-74.06"/>
<polygon fill="#63b8ff" stroke="#63b8ff" points="1047.51,-70.59 1037.11,-72.62 1046.5,-77.51 1047.51,-70.59"/>
</a>
</g>
</g>
<!-- Node21 -->
<g id="Node000021" class="node">
<title>Node21</title>
<g id="a_Node000021"><a xlink:title=" ">
<polygon fill="#e0e0e0" stroke="#999999" points="1453.5,-74 1295.5,-74 1295.5,-55 1453.5,-55 1453.5,-74"/>
<text text-anchor="middle" x="1374.5" y="-62" font-family="Malgun Gothic" font-size="10.00">UHitStopSystem.generated.h</text>
</a>
</g>
</g>
<!-- Node16&#45;&gt;Node21 -->
<g id="edge28_Node000016_Node000021" class="edge">
<title>Node16&#45;&gt;Node21</title>
<g id="a_edge28_Node000016_Node000021"><a xlink:title=" ">
<path fill="none" stroke="#63b8ff" d="M1374.5,-109.75C1374.5,-102.8 1374.5,-92.85 1374.5,-84.13"/>
<polygon fill="#63b8ff" stroke="#63b8ff" points="1378,-84.09 1374.5,-74.09 1371,-84.09 1378,-84.09"/>
</a>
</g>
</g>
<!-- Node17&#45;&gt;Node3 -->
<g id="edge24_Node000017_Node000003" class="edge">
<title>Node17&#45;&gt;Node3</title>
<g id="a_edge24_Node000017_Node000003"><a xlink:title=" ">
<path fill="none" stroke="#63b8ff" d="M1037.09,-56.27C1040.27,-55.82 1043.43,-55.39 1046.5,-55 1183.16,-37.46 1344.68,-22.43 1427.13,-15.16"/>
<polygon fill="#63b8ff" stroke="#63b8ff" points="1427.61,-18.63 1437.26,-14.27 1427,-11.66 1427.61,-18.63"/>
</a>
</g>
</g>
<!-- Node18 -->
<g id="Node000018" class="node">
<title>Node18</title>
<g id="a_Node000018"><a xlink:href="EDamageType_8h.html" target="_top" xlink:title="EDamageType 열거형에 대한 Doxygen 주석을 제공합니다.">
<polygon fill="white" stroke="#666666" points="1037,-19 942,-19 942,0 1037,0 1037,-19"/>
<text text-anchor="middle" x="989.5" y="-7" font-family="Malgun Gothic" font-size="10.00">EDamageType.h</text>
</a>
</g>
</g>
<!-- Node17&#45;&gt;Node18 -->
<g id="edge25_Node000017_Node000018" class="edge">
<title>Node17&#45;&gt;Node18</title>
<g id="a_edge25_Node000017_Node000018"><a xlink:title=" ">
<path fill="none" stroke="#63b8ff" d="M991.17,-54.75C990.91,-47.8 990.53,-37.85 990.2,-29.13"/>
<polygon fill="#63b8ff" stroke="#63b8ff" points="993.7,-28.95 989.82,-19.09 986.7,-29.21 993.7,-28.95"/>
</a>
</g>
</g>
<!-- Node19 -->
<g id="Node000019" class="node">
<title>Node19</title>
<g id="a_Node000019"><a xlink:title=" ">
<polygon fill="#e0e0e0" stroke="#999999" points="1165.5,-19 1055.5,-19 1055.5,0 1165.5,0 1165.5,-19"/>
<text text-anchor="middle" x="1110.5" y="-7" font-family="Malgun Gothic" font-size="10.00">Engine/DataTable.h</text>
</a>
</g>
</g>
<!-- Node17&#45;&gt;Node19 -->
<g id="edge26_Node000017_Node000019" class="edge">
<title>Node17&#45;&gt;Node19</title>
<g id="a_edge26_Node000017_Node000019"><a xlink:title=" ">
<path fill="none" stroke="#63b8ff" d="M1010.62,-54.98C1029.85,-46.42 1059.73,-33.11 1081.81,-23.28"/>
<polygon fill="#63b8ff" stroke="#63b8ff" points="1083.32,-26.44 1091.03,-19.17 1080.47,-20.04 1083.32,-26.44"/>
</a>
</g>
</g>
<!-- Node20 -->
<g id="Node000020" class="node">
<title>Node20</title>
<g id="a_Node000020"><a xlink:title=" ">
<polygon fill="#e0e0e0" stroke="#999999" points="924,-19 781,-19 781,0 924,0 924,-19"/>
<text text-anchor="middle" x="852.5" y="-7" font-family="Malgun Gothic" font-size="10.00">FHitStopData.generated.h</text>
</a>
</g>
</g>
<!-- Node17&#45;&gt;Node20 -->
<g id="edge27_Node000017_Node000020" class="edge">
<title>Node17&#45;&gt;Node20</title>
<g id="a_edge27_Node000017_Node000020"><a xlink:title=" ">
<path fill="none" stroke="#63b8ff" d="M969.17,-54.98C946.3,-46.27 910.54,-32.63 884.64,-22.75"/>
<polygon fill="#63b8ff" stroke="#63b8ff" points="885.83,-19.46 875.24,-19.17 883.34,-26 885.83,-19.46"/>
</a>
</g>
</g>
<!-- Node22&#45;&gt;Node3 -->
<g id="edge30_Node000022_Node000003" class="edge">
<title>Node22&#45;&gt;Node3</title>
<g id="a_edge30_Node000022_Node000003"><a xlink:title=" ">
<path fill="none" stroke="#63b8ff" d="M1609.65,-109.95C1589.16,-102.42 1560.43,-90.15 1538.5,-74 1520.69,-60.89 1504.27,-41.47 1493.67,-27.56"/>
<polygon fill="#63b8ff" stroke="#63b8ff" points="1496.35,-25.3 1487.59,-19.34 1490.72,-29.46 1496.35,-25.3"/>
</a>
</g>
</g>
<!-- Node22&#45;&gt;Node9 -->
<g id="edge31_Node000022_Node000009" class="edge">
<title>Node22&#45;&gt;Node9</title>
<g id="a_edge31_Node000022_Node000009"><a xlink:title=" ">
<path fill="none" stroke="#63b8ff" d="M1697.2,-115.43C1759.02,-110.9 1848.01,-99.96 1869.5,-74 1880.04,-61.26 1873.94,-42.32 1866.79,-28.44"/>
<polygon fill="#63b8ff" stroke="#63b8ff" points="1869.62,-26.33 1861.62,-19.38 1863.54,-29.8 1869.62,-26.33"/>
</a>
</g>
</g>
<!-- Node23 -->
<g id="Node000023" class="node">
<title>Node23</title>
<g id="a_Node000023"><a xlink:href="FKnockbackData_8h.html" target="_top" xlink:title="FKnockbackData 구조체에 대한 Doxygen 주석을 제공합니다.">
<polygon fill="white" stroke="#666666" points="1163.5,-74 1055.5,-74 1055.5,-55 1163.5,-55 1163.5,-74"/>
<text text-anchor="middle" x="1109.5" y="-62" font-family="Malgun Gothic" font-size="10.00">FKnockbackData.h</text>
</a>
</g>
</g>
<!-- Node22&#45;&gt;Node23 -->
<g id="edge32_Node000022_Node000023" class="edge">
<title>Node22&#45;&gt;Node23</title>
<g id="a_edge32_Node000022_Node000023"><a xlink:title=" ">
<path fill="none" stroke="#63b8ff" d="M1573.87,-112.29C1473.55,-102.18 1275.9,-82.27 1173.85,-71.98"/>
<polygon fill="#63b8ff" stroke="#63b8ff" points="1173.98,-68.48 1163.68,-70.96 1173.28,-75.44 1173.98,-68.48"/>
</a>
</g>
</g>
<!-- Node25 -->
<g id="Node000025" class="node">
<title>Node25</title>
<g id="a_Node000025"><a xlink:title=" ">
<polygon fill="#e0e0e0" stroke="#999999" points="1723.5,-74 1547.5,-74 1547.5,-55 1723.5,-55 1723.5,-74"/>
<text text-anchor="middle" x="1635.5" y="-62" font-family="Malgun Gothic" font-size="10.00">UKnockbackSystem.generated.h</text>
</a>
</g>
</g>
<!-- Node22&#45;&gt;Node25 -->
<g id="edge37_Node000022_Node000025" class="edge">
<title>Node22&#45;&gt;Node25</title>
<g id="a_edge37_Node000022_Node000025"><a xlink:title=" ">
<path fill="none" stroke="#63b8ff" d="M1635.5,-109.75C1635.5,-102.8 1635.5,-92.85 1635.5,-84.13"/>
<polygon fill="#63b8ff" stroke="#63b8ff" points="1639,-84.09 1635.5,-74.09 1632,-84.09 1639,-84.09"/>
</a>
</g>
</g>
<!-- Node23&#45;&gt;Node3 -->
<g id="edge33_Node000023_Node000003" class="edge">
<title>Node23&#45;&gt;Node3</title>
<g id="a_edge33_Node000023_Node000003"><a xlink:title=" ">
<path fill="none" stroke="#63b8ff" d="M1163.59,-55.79C1234.08,-45.75 1356.64,-28.29 1427.22,-18.23"/>
<polygon fill="#63b8ff" stroke="#63b8ff" points="1427.84,-21.68 1437.24,-16.81 1426.85,-14.75 1427.84,-21.68"/>
</a>
</g>
</g>
<!-- Node23&#45;&gt;Node18 -->
<g id="edge34_Node000023_Node000018" class="edge">
<title>Node23&#45;&gt;Node18</title>
<g id="a_edge34_Node000023_Node000018"><a xlink:title=" ">
<path fill="none" stroke="#63b8ff" d="M1090.22,-54.98C1070.83,-46.42 1040.69,-33.11 1018.43,-23.28"/>
<polygon fill="#63b8ff" stroke="#63b8ff" points="1019.69,-20.01 1009.13,-19.17 1016.86,-26.41 1019.69,-20.01"/>
</a>
</g>
</g>
<!-- Node23&#45;&gt;Node19 -->
<g id="edge35_Node000023_Node000019" class="edge">
<title>Node23&#45;&gt;Node19</title>
<g id="a_edge35_Node000023_Node000019"><a xlink:title=" ">
<path fill="none" stroke="#63b8ff" d="M1109.67,-54.75C1109.8,-47.8 1109.98,-37.85 1110.15,-29.13"/>
<polygon fill="#63b8ff" stroke="#63b8ff" points="1113.65,-29.15 1110.34,-19.09 1106.65,-29.02 1113.65,-29.15"/>
</a>
</g>
</g>
<!-- Node24 -->
<g id="Node000024" class="node">
<title>Node24</title>
<g id="a_Node000024"><a xlink:title=" ">
<polygon fill="#e0e0e0" stroke="#999999" points="1345,-19 1184,-19 1184,0 1345,0 1345,-19"/>
<text text-anchor="middle" x="1264.5" y="-7" font-family="Malgun Gothic" font-size="10.00">FKnockbackData.generated.h</text>
</a>
</g>
</g>
<!-- Node23&#45;&gt;Node24 -->
<g id="edge36_Node000023_Node000024" class="edge">
<title>Node23&#45;&gt;Node24</title>
<g id="a_edge36_Node000023_Node000024"><a xlink:title=" ">
<path fill="none" stroke="#63b8ff" d="M1134.4,-54.98C1160.2,-46.16 1200.72,-32.31 1229.68,-22.41"/>
<polygon fill="#63b8ff" stroke="#63b8ff" points="1231.07,-25.63 1239.4,-19.08 1228.81,-19.01 1231.07,-25.63"/>
</a>
</g>
</g>
<!-- Node26&#45;&gt;Node3 -->
<g id="edge39_Node000026_Node000003" class="edge">
<title>Node26&#45;&gt;Node3</title>
<g id="a_edge39_Node000026_Node000003"><a xlink:title=" ">
<path fill="none" stroke="#63b8ff" d="M1741.73,-56.02C1687.6,-46.55 1594.34,-30.24 1535.4,-19.93"/>
<polygon fill="#63b8ff" stroke="#63b8ff" points="1535.98,-16.48 1525.53,-18.2 1534.77,-23.37 1535.98,-16.48"/>
</a>
</g>
</g>
<!-- Node26&#45;&gt;Node9 -->
<g id="edge40_Node000026_Node000009" class="edge">
<title>Node26&#45;&gt;Node9</title>
<g id="a_edge40_Node000026_Node000009"><a xlink:title=" ">
<path fill="none" stroke="#63b8ff" d="M1795.91,-54.98C1806.61,-47 1822.84,-34.88 1835.66,-25.31"/>
<polygon fill="#63b8ff" stroke="#63b8ff" points="1837.97,-27.96 1843.89,-19.17 1833.78,-22.35 1837.97,-27.96"/>
</a>
</g>
</g>
<!-- Node27 -->
<g id="Node000027" class="node">
<title>Node27</title>
<g id="a_Node000027"><a xlink:title=" ">
<polygon fill="#e0e0e0" stroke="#999999" points="1751,-19 1614,-19 1614,0 1751,0 1751,-19"/>
<text text-anchor="middle" x="1682.5" y="-7" font-family="Malgun Gothic" font-size="10.00">UFlySystem.generated.h</text>
</a>
</g>
</g>
<!-- Node26&#45;&gt;Node27 -->
<g id="edge41_Node000026_Node000027" class="edge">
<title>Node26&#45;&gt;Node27</title>
<g id="a_edge41_Node000026_Node000027"><a xlink:title=" ">
<path fill="none" stroke="#63b8ff" d="M1768.11,-54.98C1751.93,-46.57 1726.93,-33.59 1708.12,-23.81"/>
<polygon fill="#63b8ff" stroke="#63b8ff" points="1709.67,-20.68 1699.19,-19.17 1706.45,-26.89 1709.67,-20.68"/>
</a>
</g>
</g>
<!-- Node28&#45;&gt;Node3 -->
<g id="edge43_Node000028_Node000003" class="edge">
<title>Node28&#45;&gt;Node3</title>
<g id="a_edge43_Node000028_Node000003"><a xlink:title=" ">
<path fill="none" stroke="#63b8ff" d="M2076.87,-56.02C2074.04,-55.66 2071.24,-55.31 2068.5,-55 2016.48,-49.09 1671.65,-24.13 1536.09,-14.4"/>
<polygon fill="#63b8ff" stroke="#63b8ff" points="1536.15,-10.9 1525.93,-13.67 1535.65,-17.88 1536.15,-10.9"/>
</a>
</g>
</g>
<!-- Node28&#45;&gt;Node9 -->
<g id="edge44_Node000028_Node000009" class="edge">
<title>Node28&#45;&gt;Node9</title>
<g id="a_edge44_Node000028_Node000009"><a xlink:title=" ">
<path fill="none" stroke="#63b8ff" d="M2081.28,-54.98C2034.46,-45.76 1959.69,-31.03 1909.14,-21.07"/>
<polygon fill="#63b8ff" stroke="#63b8ff" points="1909.55,-17.58 1899.06,-19.08 1908.19,-24.45 1909.55,-17.58"/>
</a>
</g>
</g>
<!-- Node29 -->
<g id="Node000029" class="node">
<title>Node29</title>
<g id="a_Node000029"><a xlink:title=" ">
<polygon fill="#e0e0e0" stroke="#999999" points="2315,-19 2168,-19 2168,0 2315,0 2315,-19"/>
<text text-anchor="middle" x="2241.5" y="-7" font-family="Malgun Gothic" font-size="10.00">USightSystem.generated.h</text>
</a>
</g>
</g>
<!-- Node28&#45;&gt;Node29 -->
<g id="edge45_Node000028_Node000029" class="edge">
<title>Node28&#45;&gt;Node29</title>
<g id="a_edge45_Node000028_Node000029"><a xlink:title=" ">
<path fill="none" stroke="#63b8ff" d="M2143.3,-54.98C2162.12,-46.46 2191.32,-33.23 2213,-23.41"/>
<polygon fill="#63b8ff" stroke="#63b8ff" points="2214.7,-26.48 2222.36,-19.17 2211.81,-20.11 2214.7,-26.48"/>
</a>
</g>
</g>
<!-- Node30&#45;&gt;Node3 -->
<g id="edge47_Node000030_Node000003" class="edge">
<title>Node30&#45;&gt;Node3</title>
<g id="a_edge47_Node000030_Node000003"><a xlink:title=" ">
<path fill="none" stroke="#63b8ff" d="M2190.33,-56.02C2187.35,-55.65 2184.39,-55.3 2181.5,-55 1926.42,-28.06 1861.45,-35.77 1605.5,-19 1582.64,-17.5 1557.41,-15.78 1535.71,-14.29"/>
<polygon fill="#63b8ff" stroke="#63b8ff" points="1535.9,-10.79 1525.69,-13.59 1535.42,-17.78 1535.9,-10.79"/>
</a>
</g>
</g>
<!-- Node30&#45;&gt;Node9 -->
<g id="edge48_Node000030_Node000009" class="edge">
<title>Node30&#45;&gt;Node9</title>
<g id="a_edge48_Node000030_Node000009"><a xlink:title=" ">
<path fill="none" stroke="#63b8ff" d="M2190.3,-56.27C2187.33,-55.84 2184.37,-55.41 2181.5,-55 2095.21,-42.68 1995.97,-29.24 1929.87,-20.39"/>
<polygon fill="#63b8ff" stroke="#63b8ff" points="1929.93,-16.86 1919.56,-19.01 1929,-23.8 1929.93,-16.86"/>
</a>
</g>
</g>
<!-- Node31 -->
<g id="Node000031" class="node">
<title>Node31</title>
<g id="a_Node000031"><a xlink:title=" ">
<polygon fill="#e0e0e0" stroke="#999999" points="2482,-19 2333,-19 2333,0 2482,0 2482,-19"/>
<text text-anchor="middle" x="2407.5" y="-7" font-family="Malgun Gothic" font-size="10.00">UVoiceSystem.generated.h</text>
</a>
</g>
</g>
<!-- Node30&#45;&gt;Node31 -->
<g id="edge49_Node000030_Node000031" class="edge">
<title>Node30&#45;&gt;Node31</title>
<g id="a_edge49_Node000030_Node000031"><a xlink:title=" ">
<path fill="none" stroke="#63b8ff" d="M2265.65,-54.98C2294.03,-46.09 2338.73,-32.07 2370.36,-22.15"/>
<polygon fill="#63b8ff" stroke="#63b8ff" points="2371.64,-25.41 2380.13,-19.08 2369.55,-18.73 2371.64,-25.41"/>
</a>
</g>
</g>
<!-- Node32&#45;&gt;Node3 -->
<g id="edge51_Node000032_Node000003" class="edge">
<title>Node32&#45;&gt;Node3</title>
<g id="a_edge51_Node000032_Node000003"><a xlink:title=" ">
<path fill="none" stroke="#63b8ff" d="M2304.16,-55.69C2301.24,-55.44 2298.34,-55.21 2295.5,-55 1989.29,-31.89 1912.03,-37.5 1605.5,-19 1582.63,-17.62 1557.4,-15.92 1535.7,-14.41"/>
<polygon fill="#63b8ff" stroke="#63b8ff" points="1535.9,-10.91 1525.68,-13.7 1535.41,-17.9 1535.9,-10.91"/>
</a>
</g>
</g>
<!-- Node32&#45;&gt;Node9 -->
<g id="edge52_Node000032_Node000009" class="edge">
<title>Node32&#45;&gt;Node9</title>
<g id="a_edge52_Node000032_Node000009"><a xlink:title=" ">
<path fill="none" stroke="#63b8ff" d="M2304.45,-55.74C2210.51,-46.27 2051.78,-30.28 1950.4,-20.06"/>
<polygon fill="#63b8ff" stroke="#63b8ff" points="1950.47,-16.55 1940.17,-19.03 1949.76,-23.52 1950.47,-16.55"/>
</a>
</g>
</g>
<!-- Node33 -->
<g id="Node000033" class="node">
<title>Node33</title>
<g id="a_Node000033"><a xlink:title=" ">
<polygon fill="#e0e0e0" stroke="#999999" points="2706.5,-19 2500.5,-19 2500.5,0 2706.5,0 2706.5,-19"/>
<text text-anchor="middle" x="2603.5" y="-7" font-family="Malgun Gothic" font-size="10.00">UVoiceCaptureComponent.generated.h</text>
</a>
</g>
</g>
<!-- Node32&#45;&gt;Node33 -->
<g id="edge53_Node000032_Node000033" class="edge">
<title>Node32&#45;&gt;Node33</title>
<g id="a_edge53_Node000032_Node000033"><a xlink:title=" ">
<path fill="none" stroke="#63b8ff" d="M2417.17,-54.98C2455.33,-45.87 2515.97,-31.4 2557.65,-21.45"/>
<polygon fill="#63b8ff" stroke="#63b8ff" points="2558.64,-24.81 2567.55,-19.08 2557.01,-18 2558.64,-24.81"/>
</a>
</g>
</g>
<!-- Node34&#45;&gt;Node3 -->
<g id="edge55_Node000034_Node000003" class="edge">
<title>Node34&#45;&gt;Node3</title>
<g id="a_edge55_Node000034_Node000003"><a xlink:title=" ">
<path fill="none" stroke="#63b8ff" d="M1921.85,-56.35C1819.46,-45.69 1628.8,-25.84 1535.6,-16.13"/>
<polygon fill="#63b8ff" stroke="#63b8ff" points="1535.85,-12.64 1525.54,-15.09 1535.12,-19.6 1535.85,-12.64"/>
</a>
</g>
</g>
<!-- Node34&#45;&gt;Node9 -->
<g id="edge56_Node000034_Node000009" class="edge">
<title>Node34&#45;&gt;Node9</title>
<g id="a_edge56_Node000034_Node000009"><a xlink:title=" ">
<path fill="none" stroke="#63b8ff" d="M1968.81,-54.98C1946.7,-46.3 1912.18,-32.75 1887.05,-22.88"/>
<polygon fill="#63b8ff" stroke="#63b8ff" points="1888.17,-19.57 1877.58,-19.17 1885.61,-26.08 1888.17,-19.57"/>
</a>
</g>
</g>
<!-- Node35 -->
<g id="Node000035" class="node">
<title>Node35</title>
<g id="a_Node000035"><a xlink:title=" ">
<polygon fill="#e0e0e0" stroke="#999999" points="2149.5,-19 1959.5,-19 1959.5,0 2149.5,0 2149.5,-19"/>
<text text-anchor="middle" x="2054.5" y="-7" font-family="Malgun Gothic" font-size="10.00">UCameraShakeSystem.generated.h</text>
</a>
</g>
</g>
<!-- Node34&#45;&gt;Node35 -->
<g id="edge57_Node000034_Node000035" class="edge">
<title>Node34&#45;&gt;Node35</title>
<g id="a_edge57_Node000034_Node000035"><a xlink:title=" ">
<path fill="none" stroke="#63b8ff" d="M2000.78,-54.98C2010.34,-47.07 2024.78,-35.11 2036.28,-25.58"/>
<polygon fill="#63b8ff" stroke="#63b8ff" points="2038.56,-28.24 2044.03,-19.17 2034.1,-22.85 2038.56,-28.24"/>
</a>
</g>
</g>
</g>
</svg>
