<?xml version="1.0" encoding="UTF-8" standalone="no"?>
<!DOCTYPE svg PUBLIC "-//W3C//DTD SVG 1.1//EN"
 "http://www.w3.org/Graphics/SVG/1.1/DTD/svg11.dtd">
<!-- Generated by graphviz version 2.43.0 (0)
 -->
<!-- Title: Source/LatteLibrary/Character/Public/APlayerActor.h Pages: 1 -->
<svg width="551pt" height="115pt"
 viewBox="0.00 0.00 551.00 115.00" xmlns="http://www.w3.org/2000/svg" xmlns:xlink="http://www.w3.org/1999/xlink">
<g id="graph0" class="graph" transform="scale(1 1) rotate(0) translate(4 111)">
<title>Source/LatteLibrary/Character/Public/APlayerActor.h</title>
<!-- Node1 -->
<g id="Node000001" class="node">
<title>Node1</title>
<g id="a_Node000001"><a xlink:title="APlayerActor 선언에 대한 Doxygen 주석을 제공합니다.">
<polygon fill="#999999" stroke="#666666" points="365,-107 192,-107 192,-77 365,-77 365,-107"/>
<text text-anchor="start" x="200" y="-95" font-family="Malgun Gothic" font-size="10.00">Source/LatteLibrary</text>
<text text-anchor="middle" x="278.5" y="-84" font-family="Malgun Gothic" font-size="10.00">/Character/Public/APlayerActor.h</text>
</a>
</g>
</g>
<!-- Node2 -->
<g id="Node000002" class="node">
<title>Node2</title>
<g id="a_Node000002"><a xlink:href="APlayerActor_8cpp.html" target="_top" xlink:title="APlayerActor 구현에 대한 Doxygen 주석을 제공합니다.">
<polygon fill="white" stroke="#666666" points="145,-41 0,-41 0,0 145,0 145,-41"/>
<text text-anchor="start" x="8" y="-29" font-family="Malgun Gothic" font-size="10.00">Source/LatteLibrary</text>
<text text-anchor="start" x="8" y="-18" font-family="Malgun Gothic" font-size="10.00">/Character/Private/APlayer</text>
<text text-anchor="middle" x="72.5" y="-7" font-family="Malgun Gothic" font-size="10.00">Actor.cpp</text>
</a>
</g>
</g>
<!-- Node1&#45;&gt;Node2 -->
<g id="edge1_Node000001_Node000002" class="edge">
<title>Node1&#45;&gt;Node2</title>
<g id="a_edge1_Node000001_Node000002"><a xlink:title=" ">
<path fill="none" stroke="#63b8ff" d="M227.17,-73.68C197.82,-63.78 160.91,-51.33 130.52,-41.07"/>
<polygon fill="#63b8ff" stroke="#63b8ff" points="226.22,-77.06 236.81,-76.94 228.46,-70.42 226.22,-77.06"/>
</a>
</g>
</g>
<!-- Node3 -->
<g id="Node000003" class="node">
<title>Node3</title>
<g id="a_Node000003"><a xlink:href="UYiSanVoiceConsoleSubsystem_8cpp.html" target="_top" xlink:title=" ">
<polygon fill="white" stroke="#666666" points="394,-35.5 163,-35.5 163,-5.5 394,-5.5 394,-35.5"/>
<text text-anchor="start" x="171" y="-23.5" font-family="Malgun Gothic" font-size="10.00">Source/YiSan/Environment</text>
<text text-anchor="middle" x="278.5" y="-12.5" font-family="Malgun Gothic" font-size="10.00">/Private/UYiSanVoiceConsoleSubsystem.cpp</text>
</a>
</g>
</g>
<!-- Node1&#45;&gt;Node3 -->
<g id="edge2_Node000001_Node000003" class="edge">
<title>Node1&#45;&gt;Node3</title>
<g id="a_edge2_Node000001_Node000003"><a xlink:title=" ">
<path fill="none" stroke="#63b8ff" d="M278.5,-66.75C278.5,-56.31 278.5,-44.49 278.5,-35.54"/>
<polygon fill="#63b8ff" stroke="#63b8ff" points="275,-66.94 278.5,-76.94 282,-66.94 275,-66.94"/>
</a>
</g>
</g>
<!-- Node4 -->
<g id="Node000004" class="node">
<title>Node4</title>
<g id="a_Node000004"><a xlink:href="UMainWdget_8cpp.html" target="_top" xlink:title=" ">
<polygon fill="white" stroke="#666666" points="543,-35.5 412,-35.5 412,-5.5 543,-5.5 543,-35.5"/>
<text text-anchor="start" x="420" y="-23.5" font-family="Malgun Gothic" font-size="10.00">Source/YiSan/UI/Private</text>
<text text-anchor="middle" x="477.5" y="-12.5" font-family="Malgun Gothic" font-size="10.00">/UMainWdget.cpp</text>
</a>
</g>
</g>
<!-- Node1&#45;&gt;Node4 -->
<g id="edge3_Node000001_Node000004" class="edge">
<title>Node1&#45;&gt;Node4</title>
<g id="a_edge3_Node000001_Node000004"><a xlink:title=" ">
<path fill="none" stroke="#63b8ff" d="M328.42,-73.57C362.07,-61.81 405.88,-46.51 437.29,-35.54"/>
<polygon fill="#63b8ff" stroke="#63b8ff" points="327.06,-70.33 318.77,-76.94 329.37,-76.94 327.06,-70.33"/>
</a>
</g>
</g>
</g>
</svg>
