<?xml version="1.0" encoding="UTF-8" standalone="no"?>
<!DOCTYPE svg PUBLIC "-//W3C//DTD SVG 1.1//EN"
 "http://www.w3.org/Graphics/SVG/1.1/DTD/svg11.dtd">
<!-- Generated by graphviz version 2.43.0 (0)
 -->
<!-- Title: Source/LatteLibrary/Character/Private/APlayerControl.cpp Pages: 1 -->
<svg width="1396pt" height="159pt"
 viewBox="0.00 0.00 1396.00 159.00" xmlns="http://www.w3.org/2000/svg" xmlns:xlink="http://www.w3.org/1999/xlink">
<g id="graph0" class="graph" transform="scale(1 1) rotate(0) translate(4 155)">
<title>Source/LatteLibrary/Character/Private/APlayerControl.cpp</title>
<!-- Node1 -->
<g id="Node000001" class="node">
<title>Node1</title>
<g id="a_Node000001"><a xlink:title="APlayerControl 구현에 대한 Doxygen 주석을 제공합니다.">
<polygon fill="#999999" stroke="#666666" points="961,-151 816,-151 816,-110 961,-110 961,-151"/>
<text text-anchor="start" x="824" y="-139" font-family="Malgun Gothic" font-size="10.00">Source/LatteLibrary</text>
<text text-anchor="start" x="824" y="-128" font-family="Malgun Gothic" font-size="10.00">/Character/Private/APlayer</text>
<text text-anchor="middle" x="888.5" y="-117" font-family="Malgun Gothic" font-size="10.00">Control.cpp</text>
</a>
</g>
</g>
<!-- Node2 -->
<g id="Node000002" class="node">
<title>Node2</title>
<g id="a_Node000002"><a xlink:href="APlayerControl_8h.html" target="_top" xlink:title="APlayerControl 선언에 대한 Doxygen 주석을 제공합니다.">
<polygon fill="white" stroke="#666666" points="791.5,-74 693.5,-74 693.5,-55 791.5,-55 791.5,-74"/>
<text text-anchor="middle" x="742.5" y="-62" font-family="Malgun Gothic" font-size="10.00">APlayerControl.h</text>
</a>
</g>
</g>
<!-- Node1&#45;&gt;Node2 -->
<g id="edge1_Node000001_Node000002" class="edge">
<title>Node1&#45;&gt;Node2</title>
<g id="a_edge1_Node000001_Node000002"><a xlink:title=" ">
<path fill="none" stroke="#63b8ff" d="M843.9,-109.95C820.3,-99.6 792.01,-87.2 771.31,-78.13"/>
<polygon fill="#63b8ff" stroke="#63b8ff" points="772.66,-74.9 762.1,-74.09 769.85,-81.31 772.66,-74.9"/>
</a>
</g>
</g>
<!-- Node7 -->
<g id="Node000007" class="node">
<title>Node7</title>
<g id="a_Node000007"><a xlink:href="IControllable_8h.html" target="_top" xlink:title="IControllable 인터페이스 선언에 대한 Doxygen 주석을 제공합니다.">
<polygon fill="white" stroke="#666666" points="309.5,-74 221.5,-74 221.5,-55 309.5,-55 309.5,-74"/>
<text text-anchor="middle" x="265.5" y="-62" font-family="Malgun Gothic" font-size="10.00">IControllable.h</text>
</a>
</g>
</g>
<!-- Node1&#45;&gt;Node7 -->
<g id="edge6_Node000001_Node000007" class="edge">
<title>Node1&#45;&gt;Node7</title>
<g id="a_edge6_Node000001_Node000007"><a xlink:title=" ">
<path fill="none" stroke="#63b8ff" d="M815.81,-122.03C689.44,-109.05 432.02,-82.61 319.81,-71.08"/>
<polygon fill="#63b8ff" stroke="#63b8ff" points="320.04,-67.58 309.74,-70.04 319.33,-74.55 320.04,-67.58"/>
</a>
</g>
</g>
<!-- Node10 -->
<g id="Node000010" class="node">
<title>Node10</title>
<g id="a_Node000010"><a xlink:title=" ">
<polygon fill="#e0e0e0" stroke="#999999" points="967,-74 810,-74 810,-55 967,-55 967,-74"/>
<text text-anchor="middle" x="888.5" y="-62" font-family="Malgun Gothic" font-size="10.00">EnhancedInputSubsystems.h</text>
</a>
</g>
</g>
<!-- Node1&#45;&gt;Node10 -->
<g id="edge10_Node000001_Node000010" class="edge">
<title>Node1&#45;&gt;Node10</title>
<g id="a_edge10_Node000001_Node000010"><a xlink:title=" ">
<path fill="none" stroke="#63b8ff" d="M888.5,-109.95C888.5,-101.85 888.5,-92.5 888.5,-84.47"/>
<polygon fill="#63b8ff" stroke="#63b8ff" points="892,-84.26 888.5,-74.26 885,-84.26 892,-84.26"/>
</a>
</g>
</g>
<!-- Node11 -->
<g id="Node000011" class="node">
<title>Node11</title>
<g id="a_Node000011"><a xlink:title=" ">
<polygon fill="#e0e0e0" stroke="#999999" points="1139.5,-74 985.5,-74 985.5,-55 1139.5,-55 1139.5,-74"/>
<text text-anchor="middle" x="1062.5" y="-62" font-family="Malgun Gothic" font-size="10.00">EnhancedInputComponent.h</text>
</a>
</g>
</g>
<!-- Node1&#45;&gt;Node11 -->
<g id="edge11_Node000001_Node000011" class="edge">
<title>Node1&#45;&gt;Node11</title>
<g id="a_edge11_Node000001_Node000011"><a xlink:title=" ">
<path fill="none" stroke="#63b8ff" d="M941.65,-109.95C970.29,-99.42 1004.72,-86.75 1029.49,-77.64"/>
<polygon fill="#63b8ff" stroke="#63b8ff" points="1030.96,-80.83 1039.14,-74.09 1028.55,-74.26 1030.96,-80.83"/>
</a>
</g>
</g>
<!-- Node12 -->
<g id="Node000012" class="node">
<title>Node12</title>
<g id="a_Node000012"><a xlink:title=" ">
<polygon fill="#e0e0e0" stroke="#999999" points="1289,-74 1158,-74 1158,-55 1289,-55 1289,-74"/>
<text text-anchor="middle" x="1223.5" y="-62" font-family="Malgun Gothic" font-size="10.00">InputMappingContext.h</text>
</a>
</g>
</g>
<!-- Node1&#45;&gt;Node12 -->
<g id="edge12_Node000001_Node000012" class="edge">
<title>Node1&#45;&gt;Node12</title>
<g id="a_edge12_Node000001_Node000012"><a xlink:title=" ">
<path fill="none" stroke="#63b8ff" d="M961.19,-115.61C1023.64,-103.68 1112.3,-86.74 1168.86,-75.94"/>
<polygon fill="#63b8ff" stroke="#63b8ff" points="1169.52,-79.38 1178.69,-74.06 1168.21,-72.5 1169.52,-79.38"/>
</a>
</g>
</g>
<!-- Node13 -->
<g id="Node000013" class="node">
<title>Node13</title>
<g id="a_Node000013"><a xlink:title=" ">
<polygon fill="#e0e0e0" stroke="#999999" points="1388,-74 1307,-74 1307,-55 1388,-55 1388,-74"/>
<text text-anchor="middle" x="1347.5" y="-62" font-family="Malgun Gothic" font-size="10.00">InputAction.h</text>
</a>
</g>
</g>
<!-- Node1&#45;&gt;Node13 -->
<g id="edge13_Node000001_Node000013" class="edge">
<title>Node1&#45;&gt;Node13</title>
<g id="a_edge13_Node000001_Node000013"><a xlink:title=" ">
<path fill="none" stroke="#63b8ff" d="M961.2,-120.49C1041.09,-110.4 1173.45,-93.13 1296.87,-74.21"/>
<polygon fill="#63b8ff" stroke="#63b8ff" points="1297.53,-77.65 1306.88,-72.67 1296.46,-70.73 1297.53,-77.65"/>
</a>
</g>
</g>
<!-- Node14 -->
<g id="Node000014" class="node">
<title>Node14</title>
<g id="a_Node000014"><a xlink:href="FComponentHelper_8h.html" target="_top" xlink:title="FComponentHelper 선언에 대한 Doxygen 주석을 제공합니다.">
<polygon fill="white" stroke="#666666" points="573,-74 454,-74 454,-55 573,-55 573,-74"/>
<text text-anchor="middle" x="513.5" y="-62" font-family="Malgun Gothic" font-size="10.00">FComponentHelper.h</text>
</a>
</g>
</g>
<!-- Node1&#45;&gt;Node14 -->
<g id="edge14_Node000001_Node000014" class="edge">
<title>Node1&#45;&gt;Node14</title>
<g id="a_edge14_Node000001_Node000014"><a xlink:title=" ">
<path fill="none" stroke="#63b8ff" d="M815.75,-117.08C745.29,-105.06 639.71,-87.04 573.8,-75.79"/>
<polygon fill="#63b8ff" stroke="#63b8ff" points="574.02,-72.28 563.57,-74.05 572.84,-79.18 574.02,-72.28"/>
</a>
</g>
</g>
<!-- Node3 -->
<g id="Node000003" class="node">
<title>Node3</title>
<g id="a_Node000003"><a xlink:title=" ">
<polygon fill="#e0e0e0" stroke="#999999" points="375.5,-19 287.5,-19 287.5,0 375.5,0 375.5,-19"/>
<text text-anchor="middle" x="331.5" y="-7" font-family="Malgun Gothic" font-size="10.00">CoreMinimal.h</text>
</a>
</g>
</g>
<!-- Node2&#45;&gt;Node3 -->
<g id="edge2_Node000002_Node000003" class="edge">
<title>Node2&#45;&gt;Node3</title>
<g id="a_edge2_Node000002_Node000003"><a xlink:title=" ">
<path fill="none" stroke="#63b8ff" d="M693.5,-57.96C626.43,-50.27 502.02,-35.55 385.86,-19.15"/>
<polygon fill="#63b8ff" stroke="#63b8ff" points="386.12,-15.65 375.73,-17.71 385.14,-22.58 386.12,-15.65"/>
</a>
</g>
</g>
<!-- Node4 -->
<g id="Node000004" class="node">
<title>Node4</title>
<g id="a_Node000004"><a xlink:title=" ">
<polygon fill="#e0e0e0" stroke="#999999" points="847.5,-19 739.5,-19 739.5,0 847.5,0 847.5,-19"/>
<text text-anchor="middle" x="793.5" y="-7" font-family="Malgun Gothic" font-size="10.00">InputActionValue.h</text>
</a>
</g>
</g>
<!-- Node2&#45;&gt;Node4 -->
<g id="edge3_Node000002_Node000004" class="edge">
<title>Node2&#45;&gt;Node4</title>
<g id="a_edge3_Node000002_Node000004"><a xlink:title=" ">
<path fill="none" stroke="#63b8ff" d="M750.92,-54.75C758.27,-47.11 769.13,-35.82 778.04,-26.56"/>
<polygon fill="#63b8ff" stroke="#63b8ff" points="780.82,-28.72 785.24,-19.09 775.78,-23.87 780.82,-28.72"/>
</a>
</g>
</g>
<!-- Node5 -->
<g id="Node000005" class="node">
<title>Node5</title>
<g id="a_Node000005"><a xlink:title=" ">
<polygon fill="#e0e0e0" stroke="#999999" points="1057,-19 866,-19 866,0 1057,0 1057,-19"/>
<text text-anchor="middle" x="961.5" y="-7" font-family="Malgun Gothic" font-size="10.00">GameFramework/PlayerController.h</text>
</a>
</g>
</g>
<!-- Node2&#45;&gt;Node5 -->
<g id="edge4_Node000002_Node000005" class="edge">
<title>Node2&#45;&gt;Node5</title>
<g id="a_edge4_Node000002_Node000005"><a xlink:title=" ">
<path fill="none" stroke="#63b8ff" d="M777.69,-54.98C815.33,-45.87 875.16,-31.4 916.27,-21.45"/>
<polygon fill="#63b8ff" stroke="#63b8ff" points="917.14,-24.84 926.04,-19.08 915.5,-18.03 917.14,-24.84"/>
</a>
</g>
</g>
<!-- Node6 -->
<g id="Node000006" class="node">
<title>Node6</title>
<g id="a_Node000006"><a xlink:title=" ">
<polygon fill="#e0e0e0" stroke="#999999" points="1226,-19 1075,-19 1075,0 1226,0 1226,-19"/>
<text text-anchor="middle" x="1150.5" y="-7" font-family="Malgun Gothic" font-size="10.00">APlayerControl.generated.h</text>
</a>
</g>
</g>
<!-- Node2&#45;&gt;Node6 -->
<g id="edge5_Node000002_Node000006" class="edge">
<title>Node2&#45;&gt;Node6</title>
<g id="a_edge5_Node000002_Node000006"><a xlink:title=" ">
<path fill="none" stroke="#63b8ff" d="M791.75,-56.34C795.05,-55.88 798.32,-55.43 801.5,-55 893.8,-42.47 999.98,-29.07 1070.75,-20.29"/>
<polygon fill="#63b8ff" stroke="#63b8ff" points="1071.44,-23.74 1080.93,-19.03 1070.57,-16.79 1071.44,-23.74"/>
</a>
</g>
</g>
<!-- Node7&#45;&gt;Node3 -->
<g id="edge7_Node000007_Node000003" class="edge">
<title>Node7&#45;&gt;Node3</title>
<g id="a_edge7_Node000007_Node000003"><a xlink:title=" ">
<path fill="none" stroke="#63b8ff" d="M276.1,-54.98C285.96,-47.07 300.85,-35.11 312.72,-25.58"/>
<polygon fill="#63b8ff" stroke="#63b8ff" points="315.1,-28.16 320.7,-19.17 310.71,-22.7 315.1,-28.16"/>
</a>
</g>
</g>
<!-- Node8 -->
<g id="Node000008" class="node">
<title>Node8</title>
<g id="a_Node000008"><a xlink:title=" ">
<polygon fill="#e0e0e0" stroke="#999999" points="111,-19 0,-19 0,0 111,0 111,-19"/>
<text text-anchor="middle" x="55.5" y="-7" font-family="Malgun Gothic" font-size="10.00">UObject/Interface.h</text>
</a>
</g>
</g>
<!-- Node7&#45;&gt;Node8 -->
<g id="edge8_Node000007_Node000008" class="edge">
<title>Node7&#45;&gt;Node8</title>
<g id="a_edge8_Node000007_Node000008"><a xlink:title=" ">
<path fill="none" stroke="#63b8ff" d="M231.76,-54.98C195.82,-45.91 138.78,-31.52 99.37,-21.57"/>
<polygon fill="#63b8ff" stroke="#63b8ff" points="100.06,-18.14 89.5,-19.08 98.34,-24.92 100.06,-18.14"/>
</a>
</g>
</g>
<!-- Node9 -->
<g id="Node000009" class="node">
<title>Node9</title>
<g id="a_Node000009"><a xlink:title=" ">
<polygon fill="#e0e0e0" stroke="#999999" points="269.5,-19 129.5,-19 129.5,0 269.5,0 269.5,-19"/>
<text text-anchor="middle" x="199.5" y="-7" font-family="Malgun Gothic" font-size="10.00">IControllable.generated.h</text>
</a>
</g>
</g>
<!-- Node7&#45;&gt;Node9 -->
<g id="edge9_Node000007_Node000009" class="edge">
<title>Node7&#45;&gt;Node9</title>
<g id="a_edge9_Node000007_Node000009"><a xlink:title=" ">
<path fill="none" stroke="#63b8ff" d="M254.9,-54.98C245.04,-47.07 230.15,-35.11 218.28,-25.58"/>
<polygon fill="#63b8ff" stroke="#63b8ff" points="220.29,-22.7 210.3,-19.17 215.9,-28.16 220.29,-22.7"/>
</a>
</g>
</g>
<!-- Node14&#45;&gt;Node3 -->
<g id="edge15_Node000014_Node000003" class="edge">
<title>Node14&#45;&gt;Node3</title>
<g id="a_edge15_Node000014_Node000003"><a xlink:title=" ">
<path fill="none" stroke="#63b8ff" d="M484.26,-54.98C453.44,-46.01 404.72,-31.82 370.61,-21.89"/>
<polygon fill="#63b8ff" stroke="#63b8ff" points="371.55,-18.52 360.97,-19.08 369.59,-25.24 371.55,-18.52"/>
</a>
</g>
</g>
<!-- Node15 -->
<g id="Node000015" class="node">
<title>Node15</title>
<g id="a_Node000015"><a xlink:title=" ">
<polygon fill="#e0e0e0" stroke="#999999" points="531,-19 394,-19 394,0 531,0 531,-19"/>
<text text-anchor="middle" x="462.5" y="-7" font-family="Malgun Gothic" font-size="10.00">GameFramework/Actor.h</text>
</a>
</g>
</g>
<!-- Node14&#45;&gt;Node15 -->
<g id="edge16_Node000014_Node000015" class="edge">
<title>Node14&#45;&gt;Node15</title>
<g id="a_edge16_Node000014_Node000015"><a xlink:title=" ">
<path fill="none" stroke="#63b8ff" d="M505.08,-54.75C497.73,-47.11 486.87,-35.82 477.96,-26.56"/>
<polygon fill="#63b8ff" stroke="#63b8ff" points="480.22,-23.87 470.76,-19.09 475.18,-28.72 480.22,-23.87"/>
</a>
</g>
</g>
<!-- Node16 -->
<g id="Node000016" class="node">
<title>Node16</title>
<g id="a_Node000016"><a xlink:title=" ">
<polygon fill="#e0e0e0" stroke="#999999" points="721.5,-19 549.5,-19 549.5,0 721.5,0 721.5,-19"/>
<text text-anchor="middle" x="635.5" y="-7" font-family="Malgun Gothic" font-size="10.00">Components/ActorComponent.h</text>
</a>
</g>
</g>
<!-- Node14&#45;&gt;Node16 -->
<g id="edge17_Node000014_Node000016" class="edge">
<title>Node14&#45;&gt;Node16</title>
<g id="a_edge17_Node000014_Node000016"><a xlink:title=" ">
<path fill="none" stroke="#63b8ff" d="M533.1,-54.98C552.82,-46.42 583.45,-33.11 606.08,-23.28"/>
<polygon fill="#63b8ff" stroke="#63b8ff" points="607.76,-26.37 615.54,-19.17 604.98,-19.94 607.76,-26.37"/>
</a>
</g>
</g>
</g>
</svg>
