<?xml version="1.0" encoding="UTF-8" standalone="no"?>
<!DOCTYPE svg PUBLIC "-//W3C//DTD SVG 1.1//EN"
 "http://www.w3.org/Graphics/SVG/1.1/DTD/svg11.dtd">
<!-- Generated by graphviz version 2.43.0 (0)
 -->
<!-- Title: Source/LatteLibrary/Character/Public/APlayerActor.h Pages: 1 -->
<svg width="545pt" height="115pt"
 viewBox="0.00 0.00 545.00 115.00" xmlns="http://www.w3.org/2000/svg" xmlns:xlink="http://www.w3.org/1999/xlink">
<g id="graph0" class="graph" transform="scale(1 1) rotate(0) translate(4 111)">
<title>Source/LatteLibrary/Character/Public/APlayerActor.h</title>
<!-- Node1 -->
<g id="Node000001" class="node">
<title>Node1</title>
<g id="a_Node000001"><a xlink:title="APlayerActor 선언에 대한 Doxygen 주석을 제공합니다.">
<polygon fill="#999999" stroke="#666666" points="362,-107 189,-107 189,-77 362,-77 362,-107"/>
<text text-anchor="start" x="197" y="-95" font-family="Malgun Gothic" font-size="10.00">Source/LatteLibrary</text>
<text text-anchor="middle" x="275.5" y="-84" font-family="Malgun Gothic" font-size="10.00">/Character/Public/APlayerActor.h</text>
</a>
</g>
</g>
<!-- Node2 -->
<g id="Node000002" class="node">
<title>Node2</title>
<g id="a_Node000002"><a xlink:href="APlayerActor_8cpp.html" target="_top" xlink:title="APlayerActor 구현에 대한 Doxygen 주석을 제공합니다.">
<polygon fill="white" stroke="#666666" points="145,-41 0,-41 0,0 145,0 145,-41"/>
<text text-anchor="start" x="8" y="-29" font-family="Malgun Gothic" font-size="10.00">Source/LatteLibrary</text>
<text text-anchor="start" x="8" y="-18" font-family="Malgun Gothic" font-size="10.00">/Character/Private/APlayer</text>
<text text-anchor="middle" x="72.5" y="-7" font-family="Malgun Gothic" font-size="10.00">Actor.cpp</text>
</a>
</g>
</g>
<!-- Node1&#45;&gt;Node2 -->
<g id="edge1_Node000001_Node000002" class="edge">
<title>Node1&#45;&gt;Node2</title>
<g id="a_edge1_Node000001_Node000002"><a xlink:title=" ">
<path fill="none" stroke="#63b8ff" d="M224.92,-73.68C195.99,-63.78 159.63,-51.33 129.67,-41.07"/>
<polygon fill="#63b8ff" stroke="#63b8ff" points="223.83,-77.01 234.42,-76.94 226.09,-70.39 223.83,-77.01"/>
</a>
</g>
</g>
<!-- Node3 -->
<g id="Node000003" class="node">
<title>Node3</title>
<g id="a_Node000003"><a xlink:href="YiSanVoiceConsoleSubsystem_8cpp.html" target="_top" xlink:title=" ">
<polygon fill="white" stroke="#666666" points="387.5,-35.5 163.5,-35.5 163.5,-5.5 387.5,-5.5 387.5,-35.5"/>
<text text-anchor="start" x="171.5" y="-23.5" font-family="Malgun Gothic" font-size="10.00">Source/YiSan/Environment</text>
<text text-anchor="middle" x="275.5" y="-12.5" font-family="Malgun Gothic" font-size="10.00">/Private/YiSanVoiceConsoleSubsystem.cpp</text>
</a>
</g>
</g>
<!-- Node1&#45;&gt;Node3 -->
<g id="edge2_Node000001_Node000003" class="edge">
<title>Node1&#45;&gt;Node3</title>
<g id="a_edge2_Node000001_Node000003"><a xlink:title=" ">
<path fill="none" stroke="#63b8ff" d="M275.5,-66.75C275.5,-56.31 275.5,-44.49 275.5,-35.54"/>
<polygon fill="#63b8ff" stroke="#63b8ff" points="272,-66.94 275.5,-76.94 279,-66.94 272,-66.94"/>
</a>
</g>
</g>
<!-- Node4 -->
<g id="Node000004" class="node">
<title>Node4</title>
<g id="a_Node000004"><a xlink:href="UMainWdget_8cpp.html" target="_top" xlink:title=" ">
<polygon fill="white" stroke="#666666" points="537,-35.5 406,-35.5 406,-5.5 537,-5.5 537,-35.5"/>
<text text-anchor="start" x="414" y="-23.5" font-family="Malgun Gothic" font-size="10.00">Source/YiSan/UI/Private</text>
<text text-anchor="middle" x="471.5" y="-12.5" font-family="Malgun Gothic" font-size="10.00">/UMainWdget.cpp</text>
</a>
</g>
</g>
<!-- Node1&#45;&gt;Node4 -->
<g id="edge3_Node000001_Node000004" class="edge">
<title>Node1&#45;&gt;Node4</title>
<g id="a_edge3_Node000001_Node000004"><a xlink:title=" ">
<path fill="none" stroke="#63b8ff" d="M324.66,-73.57C357.81,-61.81 400.96,-46.51 431.9,-35.54"/>
<polygon fill="#63b8ff" stroke="#63b8ff" points="323.42,-70.29 315.16,-76.94 325.76,-76.89 323.42,-70.29"/>
</a>
</g>
</g>
</g>
</svg>
