<?xml version="1.0" encoding="UTF-8" standalone="no"?>
<!DOCTYPE svg PUBLIC "-//W3C//DTD SVG 1.1//EN"
 "http://www.w3.org/Graphics/SVG/1.1/DTD/svg11.dtd">
<!-- Generated by graphviz version 2.43.0 (0)
 -->
<!-- Title: Source/YiSan/Environment/Private/AYiSanGameMode.cpp Pages: 1 -->
<svg width="493pt" height="148pt"
 viewBox="0.00 0.00 492.50 148.00" xmlns="http://www.w3.org/2000/svg" xmlns:xlink="http://www.w3.org/1999/xlink">
<g id="graph0" class="graph" transform="scale(1 1) rotate(0) translate(4 144)">
<title>Source/YiSan/Environment/Private/AYiSanGameMode.cpp</title>
<!-- Node1 -->
<g id="Node000001" class="node">
<title>Node1</title>
<g id="a_Node000001"><a xlink:title=" ">
<polygon fill="#999999" stroke="#666666" points="286.5,-140 119.5,-140 119.5,-110 286.5,-110 286.5,-140"/>
<text text-anchor="start" x="127.5" y="-128" font-family="Malgun Gothic" font-size="10.00">Source/YiSan/Environment</text>
<text text-anchor="middle" x="203" y="-117" font-family="Malgun Gothic" font-size="10.00">/Private/AYiSanGameMode.cpp</text>
</a>
</g>
</g>
<!-- Node2 -->
<g id="Node000002" class="node">
<title>Node2</title>
<g id="a_Node000002"><a xlink:href="AYiSanGameMode_8h.html" target="_top" xlink:title=" ">
<polygon fill="white" stroke="#666666" points="260.5,-74 145.5,-74 145.5,-55 260.5,-55 260.5,-74"/>
<text text-anchor="middle" x="203" y="-62" font-family="Malgun Gothic" font-size="10.00">AYiSanGameMode.h</text>
</a>
</g>
</g>
<!-- Node1&#45;&gt;Node2 -->
<g id="edge1_Node000001_Node000002" class="edge">
<title>Node1&#45;&gt;Node2</title>
<g id="a_edge1_Node000001_Node000002"><a xlink:title=" ">
<path fill="none" stroke="#63b8ff" d="M203,-109.84C203,-102.21 203,-92.7 203,-84.45"/>
<polygon fill="#63b8ff" stroke="#63b8ff" points="206.5,-84.27 203,-74.27 199.5,-84.27 206.5,-84.27"/>
</a>
</g>
</g>
<!-- Node3 -->
<g id="Node000003" class="node">
<title>Node3</title>
<g id="a_Node000003"><a xlink:title=" ">
<polygon fill="#e0e0e0" stroke="#999999" points="88,-19 0,-19 0,0 88,0 88,-19"/>
<text text-anchor="middle" x="44" y="-7" font-family="Malgun Gothic" font-size="10.00">CoreMinimal.h</text>
</a>
</g>
</g>
<!-- Node2&#45;&gt;Node3 -->
<g id="edge2_Node000002_Node000003" class="edge">
<title>Node2&#45;&gt;Node3</title>
<g id="a_edge2_Node000002_Node000003"><a xlink:title=" ">
<path fill="none" stroke="#63b8ff" d="M177.45,-54.98C150.88,-46.13 109.06,-32.19 79.33,-22.28"/>
<polygon fill="#63b8ff" stroke="#63b8ff" points="80.34,-18.92 69.75,-19.08 78.13,-25.56 80.34,-18.92"/>
</a>
</g>
</g>
<!-- Node4 -->
<g id="Node000004" class="node">
<title>Node4</title>
<g id="a_Node000004"><a xlink:title=" ">
<polygon fill="#e0e0e0" stroke="#999999" points="299.5,-19 106.5,-19 106.5,0 299.5,0 299.5,-19"/>
<text text-anchor="middle" x="203" y="-7" font-family="Malgun Gothic" font-size="10.00">GameFramework/GameModeBase.h</text>
</a>
</g>
</g>
<!-- Node2&#45;&gt;Node4 -->
<g id="edge3_Node000002_Node000004" class="edge">
<title>Node2&#45;&gt;Node4</title>
<g id="a_edge3_Node000002_Node000004"><a xlink:title=" ">
<path fill="none" stroke="#63b8ff" d="M203,-54.75C203,-47.8 203,-37.85 203,-29.13"/>
<polygon fill="#63b8ff" stroke="#63b8ff" points="206.5,-29.09 203,-19.09 199.5,-29.09 206.5,-29.09"/>
</a>
</g>
</g>
<!-- Node5 -->
<g id="Node000005" class="node">
<title>Node5</title>
<g id="a_Node000005"><a xlink:title=" ">
<polygon fill="#e0e0e0" stroke="#999999" points="484.5,-19 317.5,-19 317.5,0 484.5,0 484.5,-19"/>
<text text-anchor="middle" x="401" y="-7" font-family="Malgun Gothic" font-size="10.00">AYiSanGameMode.generated.h</text>
</a>
</g>
</g>
<!-- Node2&#45;&gt;Node5 -->
<g id="edge4_Node000002_Node000005" class="edge">
<title>Node2&#45;&gt;Node5</title>
<g id="a_edge4_Node000002_Node000005"><a xlink:title=" ">
<path fill="none" stroke="#63b8ff" d="M234.81,-54.98C268.49,-45.97 321.8,-31.7 358.92,-21.76"/>
<polygon fill="#63b8ff" stroke="#63b8ff" points="360.18,-25.05 368.94,-19.08 358.37,-18.29 360.18,-25.05"/>
</a>
</g>
</g>
</g>
</svg>
