<?xml version="1.0" encoding="UTF-8" standalone="no"?>
<!DOCTYPE svg PUBLIC "-//W3C//DTD SVG 1.1//EN"
 "http://www.w3.org/Graphics/SVG/1.1/DTD/svg11.dtd">
<!-- Generated by graphviz version 2.43.0 (0)
 -->
<!-- Title: ALatteGameCharacter::OnMontageNotifyBegin Pages: 1 -->
<svg width="510pt" height="86pt"
 viewBox="0.00 0.00 510.00 86.00" xmlns="http://www.w3.org/2000/svg" xmlns:xlink="http://www.w3.org/1999/xlink">
<g id="graph0" class="graph" transform="scale(1 1) rotate(0) translate(4 82)">
<title>ALatteGameCharacter::OnMontageNotifyBegin</title>
<!-- Node1 -->
<g id="Node000001" class="node">
<title>Node1</title>
<g id="a_Node000001"><a xlink:title="몽타주 노티파이 시작 시 호출되는 콜백입니다.">
<polygon fill="#999999" stroke="#666666" points="502,-54 366,-54 366,-24 502,-24 502,-54"/>
<text text-anchor="start" x="374" y="-42" font-family="Malgun Gothic" font-size="10.00">ALatteGameCharacter</text>
<text text-anchor="middle" x="434" y="-31" font-family="Malgun Gothic" font-size="10.00">::OnMontageNotifyBegin</text>
</a>
</g>
</g>
<!-- Node2 -->
<g id="Node000002" class="node">
<title>Node2</title>
<g id="a_Node000002"><a xlink:href="classALatteGameCharacter.html#af084fe37e0028fb8b4a4f804569141fc" target="_top" xlink:title="몽타주 알림 처리 델리게이트를 바인딩합니다.">
<polygon fill="white" stroke="#666666" points="324,-78 187,-78 187,-48 324,-48 324,-78"/>
<text text-anchor="start" x="195" y="-66" font-family="Malgun Gothic" font-size="10.00">ALatteGameCharacter</text>
<text text-anchor="middle" x="255.5" y="-55" font-family="Malgun Gothic" font-size="10.00">::BindMontageDelegates</text>
</a>
</g>
</g>
<!-- Node1&#45;&gt;Node2 -->
<g id="edge1_Node000001_Node000002" class="edge">
<title>Node1&#45;&gt;Node2</title>
<g id="a_edge1_Node000001_Node000002"><a xlink:title=" ">
<path fill="none" stroke="#63b8ff" d="M355.75,-49.5C345.22,-50.94 334.47,-52.4 324.13,-53.8"/>
<polygon fill="#63b8ff" stroke="#63b8ff" points="356.33,-52.96 365.77,-48.14 355.39,-46.02 356.33,-52.96"/>
</a>
</g>
</g>
<!-- Node4 -->
<g id="Node000004" class="node">
<title>Node4</title>
<g id="a_Node000004"><a xlink:href="classALatteGameCharacter.html#a09792ae60c1ef81d3b6dab098b0ebec2" target="_top" xlink:title="몽타주 알림 델리게이트 연결을 해제합니다.">
<polygon fill="white" stroke="#666666" points="330,-30 181,-30 181,0 330,0 330,-30"/>
<text text-anchor="start" x="189" y="-18" font-family="Malgun Gothic" font-size="10.00">ALatteGameCharacter</text>
<text text-anchor="middle" x="255.5" y="-7" font-family="Malgun Gothic" font-size="10.00">::UnbindMontageDelegates</text>
</a>
</g>
</g>
<!-- Node1&#45;&gt;Node4 -->
<g id="edge3_Node000001_Node000004" class="edge">
<title>Node1&#45;&gt;Node4</title>
<g id="a_edge3_Node000001_Node000004"><a xlink:title=" ">
<path fill="none" stroke="#63b8ff" d="M355.8,-28.5C347.24,-27.34 338.53,-26.15 330.02,-25"/>
<polygon fill="#63b8ff" stroke="#63b8ff" points="355.39,-31.98 365.77,-29.86 356.33,-25.04 355.39,-31.98"/>
</a>
</g>
</g>
<!-- Node3 -->
<g id="Node000003" class="node">
<title>Node3</title>
<g id="a_Node000003"><a xlink:href="classALatteGameCharacter.html#ad27fbd16937d45f4b3fde86bdc962d94" target="_top" xlink:title=" ">
<polygon fill="white" stroke="#666666" points="145,-78 0,-78 0,-48 145,-48 145,-78"/>
<text text-anchor="start" x="8" y="-66" font-family="Malgun Gothic" font-size="10.00">ALatteGameCharacter</text>
<text text-anchor="middle" x="72.5" y="-55" font-family="Malgun Gothic" font-size="10.00">::SetupCharacterFromType</text>
</a>
</g>
</g>
<!-- Node2&#45;&gt;Node3 -->
<g id="edge2_Node000002_Node000003" class="edge">
<title>Node2&#45;&gt;Node3</title>
<g id="a_edge2_Node000002_Node000003"><a xlink:title=" ">
<path fill="none" stroke="#63b8ff" d="M176.81,-63C166.25,-63 155.45,-63 145.01,-63"/>
<polygon fill="#63b8ff" stroke="#63b8ff" points="176.84,-66.5 186.84,-63 176.84,-59.5 176.84,-66.5"/>
</a>
</g>
</g>
<!-- Node5 -->
<g id="Node000005" class="node">
<title>Node5</title>
<g id="a_Node000005"><a xlink:href="classALatteGameCharacter.html#a5e257151374a9fb8dbcb056477caa983" target="_top" xlink:title="플레이 종료 시 리소스를 해제합니다.">
<polygon fill="white" stroke="#666666" points="135,-30 10,-30 10,0 135,0 135,-30"/>
<text text-anchor="start" x="18" y="-18" font-family="Malgun Gothic" font-size="10.00">ALatteGameCharacter</text>
<text text-anchor="middle" x="72.5" y="-7" font-family="Malgun Gothic" font-size="10.00">::EndPlay</text>
</a>
</g>
</g>
<!-- Node4&#45;&gt;Node5 -->
<g id="edge4_Node000004_Node000005" class="edge">
<title>Node4&#45;&gt;Node5</title>
<g id="a_edge4_Node000004_Node000005"><a xlink:title=" ">
<path fill="none" stroke="#63b8ff" d="M170.85,-15C158.84,-15 146.67,-15 135.19,-15"/>
<polygon fill="#63b8ff" stroke="#63b8ff" points="170.88,-18.5 180.88,-15 170.88,-11.5 170.88,-18.5"/>
</a>
</g>
</g>
</g>
</svg>
