<?xml version="1.0" encoding="UTF-8" standalone="no"?>
<!DOCTYPE svg PUBLIC "-//W3C//DTD SVG 1.1//EN"
 "http://www.w3.org/Graphics/SVG/1.1/DTD/svg11.dtd">
<!-- Generated by graphviz version 2.43.0 (0)
 -->
<!-- Title: AGameCharacter Pages: 1 -->
<svg width="164pt" height="1292pt"
 viewBox="0.00 0.00 164.00 1292.00" xmlns="http://www.w3.org/2000/svg" xmlns:xlink="http://www.w3.org/1999/xlink">
<g id="graph0" class="graph" transform="scale(1 1) rotate(0) translate(4 1288)">
<title>AGameCharacter</title>
<!-- Node1 -->
<g id="Node000001" class="node">
<title>Node1</title>
<g id="a_Node000001"><a xlink:title="전투, 능력치, 애니메이션 헬퍼를 연결하는 기반 캐릭터 구현입니다.">
<polygon fill="#999999" stroke="transparent" points="156,-1199 0,-1199 0,-250 156,-250 156,-1199"/>
<text text-anchor="start" x="36" y="-1186.5" font-family="Malgun Gothic" font-size="10.00">AGameCharacter</text>
<text text-anchor="start" x="4" y="-1171.5" font-family="Malgun Gothic" font-size="10.00">+</text>
<text text-anchor="start" x="17" y="-1171.5" font-family="Malgun Gothic" font-size="10.00">CharacterData</text>
<text text-anchor="start" x="4" y="-1156.5" font-family="Malgun Gothic" font-size="10.00">+</text>
<text text-anchor="start" x="17" y="-1156.5" font-family="Malgun Gothic" font-size="10.00">DeathMontage</text>
<text text-anchor="start" x="4" y="-1141.5" font-family="Malgun Gothic" font-size="10.00">+</text>
<text text-anchor="start" x="17" y="-1141.5" font-family="Malgun Gothic" font-size="10.00">FlySystem</text>
<text text-anchor="start" x="4" y="-1126.5" font-family="Malgun Gothic" font-size="10.00">+</text>
<text text-anchor="start" x="17" y="-1126.5" font-family="Malgun Gothic" font-size="10.00">HitMontages</text>
<text text-anchor="start" x="4" y="-1111.5" font-family="Malgun Gothic" font-size="10.00">+</text>
<text text-anchor="start" x="17" y="-1111.5" font-family="Malgun Gothic" font-size="10.00">HitStopSystem</text>
<text text-anchor="start" x="4" y="-1096.5" font-family="Malgun Gothic" font-size="10.00">+</text>
<text text-anchor="start" x="17" y="-1096.5" font-family="Malgun Gothic" font-size="10.00">KnockbackSystem</text>
<text text-anchor="start" x="4" y="-1081.5" font-family="Malgun Gothic" font-size="10.00">+</text>
<text text-anchor="start" x="17" y="-1081.5" font-family="Malgun Gothic" font-size="10.00">StatSystem</text>
<text text-anchor="start" x="4" y="-1066.5" font-family="Malgun Gothic" font-size="10.00">+</text>
<text text-anchor="start" x="17" y="-1066.5" font-family="Malgun Gothic" font-size="10.00">TargetActor</text>
<text text-anchor="start" x="4" y="-1051.5" font-family="Malgun Gothic" font-size="10.00">#</text>
<text text-anchor="start" x="17" y="-1051.5" font-family="Malgun Gothic" font-size="10.00">AnimInstance</text>
<text text-anchor="start" x="4" y="-1036.5" font-family="Malgun Gothic" font-size="10.00">#</text>
<text text-anchor="start" x="17" y="-1036.5" font-family="Malgun Gothic" font-size="10.00">bDelegatesBound</text>
<text text-anchor="start" x="4" y="-1021.5" font-family="Malgun Gothic" font-size="10.00">#</text>
<text text-anchor="start" x="17" y="-1021.5" font-family="Malgun Gothic" font-size="10.00">bIsCombatResult</text>
<text text-anchor="start" x="4" y="-1006.5" font-family="Malgun Gothic" font-size="10.00">#</text>
<text text-anchor="start" x="17" y="-1006.5" font-family="Malgun Gothic" font-size="10.00">bIsCombatStart</text>
<text text-anchor="start" x="4" y="-991.5" font-family="Malgun Gothic" font-size="10.00">#</text>
<text text-anchor="start" x="17" y="-991.5" font-family="Malgun Gothic" font-size="10.00">bIsHold</text>
<text text-anchor="start" x="4" y="-976.5" font-family="Malgun Gothic" font-size="10.00">#</text>
<text text-anchor="start" x="17" y="-976.5" font-family="Malgun Gothic" font-size="10.00">bIsWinner</text>
<text text-anchor="start" x="4" y="-961.5" font-family="Malgun Gothic" font-size="10.00">#</text>
<text text-anchor="start" x="17" y="-961.5" font-family="Malgun Gothic" font-size="10.00">CharacterType</text>
<text text-anchor="start" x="4" y="-946.5" font-family="Malgun Gothic" font-size="10.00">#</text>
<text text-anchor="start" x="17" y="-946.5" font-family="Malgun Gothic" font-size="10.00">IsHit</text>
<text text-anchor="start" x="4" y="-931.5" font-family="Malgun Gothic" font-size="10.00">#</text>
<text text-anchor="start" x="17" y="-931.5" font-family="Malgun Gothic" font-size="10.00">LeftFootComp</text>
<text text-anchor="start" x="4" y="-916.5" font-family="Malgun Gothic" font-size="10.00">#</text>
<text text-anchor="start" x="17" y="-916.5" font-family="Malgun Gothic" font-size="10.00">LeftHandComp</text>
<text text-anchor="start" x="4" y="-901.5" font-family="Malgun Gothic" font-size="10.00">#</text>
<text text-anchor="start" x="17" y="-901.5" font-family="Malgun Gothic" font-size="10.00">MeshComp</text>
<text text-anchor="start" x="4" y="-886.5" font-family="Malgun Gothic" font-size="10.00">#</text>
<text text-anchor="start" x="17" y="-886.5" font-family="Malgun Gothic" font-size="10.00">MoveComp</text>
<text text-anchor="start" x="4" y="-871.5" font-family="Malgun Gothic" font-size="10.00">#</text>
<text text-anchor="start" x="17" y="-871.5" font-family="Malgun Gothic" font-size="10.00">PrevMoveMode</text>
<text text-anchor="start" x="4" y="-856.5" font-family="Malgun Gothic" font-size="10.00">#</text>
<text text-anchor="start" x="17" y="-856.5" font-family="Malgun Gothic" font-size="10.00">RightFootComp</text>
<text text-anchor="start" x="4" y="-841.5" font-family="Malgun Gothic" font-size="10.00">#</text>
<text text-anchor="start" x="17" y="-841.5" font-family="Malgun Gothic" font-size="10.00">RightHandComp</text>
<text text-anchor="start" x="4" y="-826.5" font-family="Malgun Gothic" font-size="10.00">#</text>
<text text-anchor="start" x="17" y="-826.5" font-family="Malgun Gothic" font-size="10.00">SightHalfFOVDeg</text>
<text text-anchor="start" x="4" y="-811.5" font-family="Malgun Gothic" font-size="10.00">#</text>
<text text-anchor="start" x="17" y="-811.5" font-family="Malgun Gothic" font-size="10.00">SightRange</text>
<text text-anchor="start" x="4" y="-796.5" font-family="Malgun Gothic" font-size="10.00">#</text>
<text text-anchor="start" x="17" y="-796.5" font-family="Malgun Gothic" font-size="10.00">TraceDrawTime</text>
<text text-anchor="start" x="4" y="-781.5" font-family="Malgun Gothic" font-size="10.00">#</text>
<text text-anchor="start" x="17" y="-781.5" font-family="Malgun Gothic" font-size="10.00">TraceLength</text>
<text text-anchor="start" x="4" y="-766.5" font-family="Malgun Gothic" font-size="10.00">#</text>
<text text-anchor="start" x="17" y="-766.5" font-family="Malgun Gothic" font-size="10.00">TraceRadius</text>
<text text-anchor="start" x="4" y="-751.5" font-family="Malgun Gothic" font-size="10.00">+</text>
<text text-anchor="start" x="17" y="-751.5" font-family="Malgun Gothic" font-size="10.00">AGameCharacter()</text>
<text text-anchor="start" x="4" y="-736.5" font-family="Malgun Gothic" font-size="10.00">+</text>
<text text-anchor="start" x="17" y="-736.5" font-family="Malgun Gothic" font-size="10.00">CurHP()</text>
<text text-anchor="start" x="4" y="-721.5" font-family="Malgun Gothic" font-size="10.00">+</text>
<text text-anchor="start" x="17" y="-721.5" font-family="Malgun Gothic" font-size="10.00">GetAnimInstance()</text>
<text text-anchor="start" x="4" y="-706.5" font-family="Malgun Gothic" font-size="10.00">+</text>
<text text-anchor="start" x="17" y="-706.5" font-family="Malgun Gothic" font-size="10.00">GetAttackDamage()</text>
<text text-anchor="start" x="4" y="-691.5" font-family="Malgun Gothic" font-size="10.00">+</text>
<text text-anchor="start" x="17" y="-691.5" font-family="Malgun Gothic" font-size="10.00">GetBodyPart()</text>
<text text-anchor="start" x="4" y="-676.5" font-family="Malgun Gothic" font-size="10.00">+</text>
<text text-anchor="start" x="17" y="-676.5" font-family="Malgun Gothic" font-size="10.00">GetCharacterType()</text>
<text text-anchor="start" x="4" y="-661.5" font-family="Malgun Gothic" font-size="10.00">+</text>
<text text-anchor="start" x="17" y="-661.5" font-family="Malgun Gothic" font-size="10.00">IsAttackEnable()</text>
<text text-anchor="start" x="4" y="-646.5" font-family="Malgun Gothic" font-size="10.00">+</text>
<text text-anchor="start" x="17" y="-646.5" font-family="Malgun Gothic" font-size="10.00">IsCombatResult()</text>
<text text-anchor="start" x="4" y="-631.5" font-family="Malgun Gothic" font-size="10.00">+</text>
<text text-anchor="start" x="17" y="-631.5" font-family="Malgun Gothic" font-size="10.00">IsCombatStart()</text>
<text text-anchor="start" x="4" y="-616.5" font-family="Malgun Gothic" font-size="10.00">+</text>
<text text-anchor="start" x="17" y="-616.5" font-family="Malgun Gothic" font-size="10.00">IsControlEnable()</text>
<text text-anchor="start" x="4" y="-601.5" font-family="Malgun Gothic" font-size="10.00">+</text>
<text text-anchor="start" x="17" y="-601.5" font-family="Malgun Gothic" font-size="10.00">IsDead()</text>
<text text-anchor="start" x="4" y="-586.5" font-family="Malgun Gothic" font-size="10.00">+</text>
<text text-anchor="start" x="17" y="-586.5" font-family="Malgun Gothic" font-size="10.00">IsEnemy()</text>
<text text-anchor="start" x="4" y="-571.5" font-family="Malgun Gothic" font-size="10.00">+</text>
<text text-anchor="start" x="17" y="-571.5" font-family="Malgun Gothic" font-size="10.00">IsHitting()</text>
<text text-anchor="start" x="4" y="-556.5" font-family="Malgun Gothic" font-size="10.00">+</text>
<text text-anchor="start" x="17" y="-556.5" font-family="Malgun Gothic" font-size="10.00">IsHolding()</text>
<text text-anchor="start" x="4" y="-541.5" font-family="Malgun Gothic" font-size="10.00">+</text>
<text text-anchor="start" x="17" y="-541.5" font-family="Malgun Gothic" font-size="10.00">IsInSight()</text>
<text text-anchor="start" x="4" y="-526.5" font-family="Malgun Gothic" font-size="10.00">+</text>
<text text-anchor="start" x="17" y="-526.5" font-family="Malgun Gothic" font-size="10.00">IsMoveEnable()</text>
<text text-anchor="start" x="4" y="-511.5" font-family="Malgun Gothic" font-size="10.00">+</text>
<text text-anchor="start" x="17" y="-511.5" font-family="Malgun Gothic" font-size="10.00">IsPlayer()</text>
<text text-anchor="start" x="4" y="-496.5" font-family="Malgun Gothic" font-size="10.00">+</text>
<text text-anchor="start" x="17" y="-496.5" font-family="Malgun Gothic" font-size="10.00">IsWinner()</text>
<text text-anchor="start" x="4" y="-481.5" font-family="Malgun Gothic" font-size="10.00">+</text>
<text text-anchor="start" x="17" y="-481.5" font-family="Malgun Gothic" font-size="10.00">MaxHP()</text>
<text text-anchor="start" x="4" y="-466.5" font-family="Malgun Gothic" font-size="10.00">+</text>
<text text-anchor="start" x="17" y="-466.5" font-family="Malgun Gothic" font-size="10.00">OnFlyEnd()</text>
<text text-anchor="start" x="4" y="-451.5" font-family="Malgun Gothic" font-size="10.00">+</text>
<text text-anchor="start" x="17" y="-451.5" font-family="Malgun Gothic" font-size="10.00">OnLookTarget()</text>
<text text-anchor="start" x="4" y="-436.5" font-family="Malgun Gothic" font-size="10.00">+</text>
<text text-anchor="start" x="17" y="-436.5" font-family="Malgun Gothic" font-size="10.00">PlayTargetMontage()</text>
<text text-anchor="start" x="4" y="-421.5" font-family="Malgun Gothic" font-size="10.00">+</text>
<text text-anchor="start" x="17" y="-421.5" font-family="Malgun Gothic" font-size="10.00">PlayTypeMontage()</text>
<text text-anchor="start" x="4" y="-406.5" font-family="Malgun Gothic" font-size="10.00">+</text>
<text text-anchor="start" x="17" y="-406.5" font-family="Malgun Gothic" font-size="10.00">RecoveryMovementMode()</text>
<text text-anchor="start" x="4" y="-391.5" font-family="Malgun Gothic" font-size="10.00">+</text>
<text text-anchor="start" x="17" y="-391.5" font-family="Malgun Gothic" font-size="10.00">SetFallingToWalk()</text>
<text text-anchor="start" x="4" y="-376.5" font-family="Malgun Gothic" font-size="10.00">+</text>
<text text-anchor="start" x="17" y="-376.5" font-family="Malgun Gothic" font-size="10.00">SetFlying()</text>
<text text-anchor="start" x="4" y="-361.5" font-family="Malgun Gothic" font-size="10.00">+</text>
<text text-anchor="start" x="17" y="-361.5" font-family="Malgun Gothic" font-size="10.00">SetHold()</text>
<text text-anchor="start" x="4" y="-346.5" font-family="Malgun Gothic" font-size="10.00">+</text>
<text text-anchor="start" x="17" y="-346.5" font-family="Malgun Gothic" font-size="10.00">SetupCharacterFromType()</text>
<text text-anchor="start" x="4" y="-331.5" font-family="Malgun Gothic" font-size="10.00">+</text>
<text text-anchor="start" x="17" y="-331.5" font-family="Malgun Gothic" font-size="10.00">StopTargetMontage()</text>
<text text-anchor="start" x="4" y="-316.5" font-family="Malgun Gothic" font-size="10.00">#</text>
<text text-anchor="start" x="17" y="-316.5" font-family="Malgun Gothic" font-size="10.00">BeginPlay()</text>
<text text-anchor="start" x="4" y="-301.5" font-family="Malgun Gothic" font-size="10.00">#</text>
<text text-anchor="start" x="17" y="-301.5" font-family="Malgun Gothic" font-size="10.00">EndPlay()</text>
<text text-anchor="start" x="6.5" y="-286.5" font-family="Malgun Gothic" font-size="10.00">&#45;</text>
<text text-anchor="start" x="17" y="-286.5" font-family="Malgun Gothic" font-size="10.00">BindMontageDelegates()</text>
<text text-anchor="start" x="6.5" y="-271.5" font-family="Malgun Gothic" font-size="10.00">&#45;</text>
<text text-anchor="start" x="17" y="-271.5" font-family="Malgun Gothic" font-size="10.00">OnMontageNotifyBegin()</text>
<text text-anchor="start" x="6.5" y="-256.5" font-family="Malgun Gothic" font-size="10.00">&#45;</text>
<text text-anchor="start" x="17" y="-256.5" font-family="Malgun Gothic" font-size="10.00">UnbindMontageDelegates()</text>
<polygon fill="#666666" stroke="#666666" points="0,-1181.5 0,-1181.5 156,-1181.5 156,-1181.5 0,-1181.5"/>
<polygon fill="#666666" stroke="#666666" points="0,-761.5 0,-761.5 15,-761.5 15,-761.5 0,-761.5"/>
<polygon fill="#666666" stroke="#666666" points="15,-761.5 15,-761.5 156,-761.5 156,-761.5 15,-761.5"/>
<polygon fill="none" stroke="#666666" points="0,-250 0,-1199 156,-1199 156,-250 0,-250"/>
</a>
</g>
</g>
<!-- Node3 -->
<g id="Node000003" class="node">
<title>Node3</title>
<g id="a_Node000003"><a xlink:href="classAPlayerActor.html" target="_top" xlink:title="플레이어가 직접 조종하는 메인 캐릭터 액터입니다.">
<polygon fill="white" stroke="transparent" points="148,-214 8,-214 8,0 148,0 148,-214"/>
<text text-anchor="start" x="46" y="-202" font-family="Malgun Gothic" font-size="10.00">APlayerActor</text>
<text text-anchor="start" x="12" y="-187" font-family="Malgun Gothic" font-size="10.00">+</text>
<text text-anchor="start" x="25" y="-187" font-family="Malgun Gothic" font-size="10.00">CameraShakeSystem</text>
<text text-anchor="start" x="12" y="-172" font-family="Malgun Gothic" font-size="10.00">#</text>
<text text-anchor="start" x="25" y="-172" font-family="Malgun Gothic" font-size="10.00">FollowCamera</text>
<text text-anchor="start" x="12" y="-157" font-family="Malgun Gothic" font-size="10.00">#</text>
<text text-anchor="start" x="25" y="-157" font-family="Malgun Gothic" font-size="10.00">SpringArmComp</text>
<text text-anchor="start" x="12" y="-142" font-family="Malgun Gothic" font-size="10.00">+</text>
<text text-anchor="start" x="25" y="-142" font-family="Malgun Gothic" font-size="10.00">APlayerActor()</text>
<text text-anchor="start" x="12" y="-127" font-family="Malgun Gothic" font-size="10.00">+</text>
<text text-anchor="start" x="25" y="-127" font-family="Malgun Gothic" font-size="10.00">Cmd_AltitudeDown()</text>
<text text-anchor="start" x="12" y="-112" font-family="Malgun Gothic" font-size="10.00">+</text>
<text text-anchor="start" x="25" y="-112" font-family="Malgun Gothic" font-size="10.00">Cmd_AltitudeReleased()</text>
<text text-anchor="start" x="12" y="-97" font-family="Malgun Gothic" font-size="10.00">+</text>
<text text-anchor="start" x="25" y="-97" font-family="Malgun Gothic" font-size="10.00">Cmd_AltitudeUp()</text>
<text text-anchor="start" x="12" y="-82" font-family="Malgun Gothic" font-size="10.00">+</text>
<text text-anchor="start" x="25" y="-82" font-family="Malgun Gothic" font-size="10.00">Cmd_Jump()</text>
<text text-anchor="start" x="12" y="-67" font-family="Malgun Gothic" font-size="10.00">+</text>
<text text-anchor="start" x="25" y="-67" font-family="Malgun Gothic" font-size="10.00">Cmd_Landing()</text>
<text text-anchor="start" x="12" y="-52" font-family="Malgun Gothic" font-size="10.00">+</text>
<text text-anchor="start" x="25" y="-52" font-family="Malgun Gothic" font-size="10.00">Cmd_Look()</text>
<text text-anchor="start" x="12" y="-37" font-family="Malgun Gothic" font-size="10.00">+</text>
<text text-anchor="start" x="25" y="-37" font-family="Malgun Gothic" font-size="10.00">Cmd_Move()</text>
<text text-anchor="start" x="12" y="-22" font-family="Malgun Gothic" font-size="10.00">+</text>
<text text-anchor="start" x="25" y="-22" font-family="Malgun Gothic" font-size="10.00">Landed()</text>
<text text-anchor="start" x="12" y="-7" font-family="Malgun Gothic" font-size="10.00">#</text>
<text text-anchor="start" x="25" y="-7" font-family="Malgun Gothic" font-size="10.00">BeginPlay()</text>
<polygon fill="#666666" stroke="#666666" points="8,-197 8,-197 148,-197 148,-197 8,-197"/>
<polygon fill="#666666" stroke="#666666" points="8,-152 8,-152 23,-152 23,-152 8,-152"/>
<polygon fill="#666666" stroke="#666666" points="23,-152 23,-152 148,-152 148,-152 23,-152"/>
<polygon fill="none" stroke="#666666" points="8,0 8,-214 148,-214 148,0 8,0"/>
</a>
</g>
</g>
<!-- Node1&#45;&gt;Node3 -->
<g id="edge2_Node000001_Node000003" class="edge">
<title>Node1&#45;&gt;Node3</title>
<g id="a_edge2_Node000001_Node000003"><a xlink:title=" ">
<path fill="none" stroke="#63b8ff" d="M78,-239.82C78,-230.93 78,-222.34 78,-214.09"/>
<polygon fill="none" stroke="#63b8ff" points="74.5,-239.98 78,-249.98 81.5,-239.98 74.5,-239.98"/>
</a>
</g>
</g>
<!-- Node2 -->
<g id="Node000002" class="node">
<title>Node2</title>
<g id="a_Node000002"><a xlink:title=" ">
<polygon fill="white" stroke="transparent" points="110.5,-1284 45.5,-1284 45.5,-1235 110.5,-1235 110.5,-1284"/>
<text text-anchor="start" x="51" y="-1271.5" font-family="Malgun Gothic" font-size="10.00">ACharacter</text>
<text text-anchor="start" x="76.5" y="-1256.5" font-family="Malgun Gothic" font-size="10.00"> </text>
<text text-anchor="start" x="76.5" y="-1241.5" font-family="Malgun Gothic" font-size="10.00"> </text>
<polygon fill="#666666" stroke="#666666" points="46,-1266.5 46,-1266.5 111,-1266.5 111,-1266.5 46,-1266.5"/>
<polygon fill="#666666" stroke="#666666" points="46,-1251.5 46,-1251.5 111,-1251.5 111,-1251.5 46,-1251.5"/>
<polygon fill="none" stroke="#666666" points="45.5,-1235 45.5,-1284 110.5,-1284 110.5,-1235 45.5,-1235"/>
</a>
</g>
</g>
<!-- Node2&#45;&gt;Node1 -->
<g id="edge1_Node000001_Node000002" class="edge">
<title>Node2&#45;&gt;Node1</title>
<g id="a_edge1_Node000001_Node000002"><a xlink:title=" ">
<path fill="none" stroke="#63b8ff" d="M78,-1224.78C78,-1217.33 78,-1208.81 78,-1199.39"/>
<polygon fill="none" stroke="#63b8ff" points="74.5,-1224.91 78,-1234.91 81.5,-1224.91 74.5,-1224.91"/>
</a>
</g>
</g>
</g>
</svg>
