<?xml version="1.0" encoding="UTF-8" standalone="no"?>
<!DOCTYPE svg PUBLIC "-//W3C//DTD SVG 1.1//EN"
 "http://www.w3.org/Graphics/SVG/1.1/DTD/svg11.dtd">
<!-- Generated by graphviz version 2.43.0 (0)
 -->
<!-- Title: UGoogleSpeechService Pages: 1 -->
<svg width="185pt" height="382pt"
 viewBox="0.00 0.00 185.00 382.00" xmlns="http://www.w3.org/2000/svg" xmlns:xlink="http://www.w3.org/1999/xlink">

<svg id="main" version="1.1" xmlns="http://www.w3.org/2000/svg" xmlns:xlink="http://www.w3.org/1999/xlink" xml:space="preserve" onload="init(evt)">
<style type="text/css"><![CDATA[
.node, .edge {opacity: 0.7;}
.node.selected, .edge.selected {opacity: 1;}
.edge:hover path { stroke: red; }
.edge:hover polygon { stroke: red; fill: red; }
]]></style>
<script type="application/ecmascript" xlink:href="svg.min.js"/>
<svg id="graph" class="graph">
<g id="graph0" class="graph" transform="scale(1 1) rotate(0) translate(4 378)">
<title>UGoogleSpeechService</title>
<!-- Node1 -->
<g id="Node000001" class="node">
<title>Node1</title>
<g id="a_Node000001"><a xlink:title="Thin Google Speech (STT/TTS) client.">
<polygon fill="#999999" stroke="transparent" points="177,-289 0,-289 0,0 177,0 177,-289"/>
<text text-anchor="start" x="32" y="-276.5" font-family="Malgun Gothic" font-size="10.00">UGoogleSpeechService</text>
<text text-anchor="start" x="7" y="-261.5" font-family="Malgun Gothic" font-size="10.00">&#45;</text>
<text text-anchor="start" x="17.5" y="-261.5" font-family="Malgun Gothic" font-size="10.00">ApiKey</text>
<text text-anchor="start" x="7" y="-246.5" font-family="Malgun Gothic" font-size="10.00">&#45;</text>
<text text-anchor="start" x="17.5" y="-246.5" font-family="Malgun Gothic" font-size="10.00">AudioEncoding</text>
<text text-anchor="start" x="7" y="-231.5" font-family="Malgun Gothic" font-size="10.00">&#45;</text>
<text text-anchor="start" x="17.5" y="-231.5" font-family="Malgun Gothic" font-size="10.00">DefaultSpeechSampleRate</text>
<text text-anchor="start" x="7" y="-216.5" font-family="Malgun Gothic" font-size="10.00">&#45;</text>
<text text-anchor="start" x="17.5" y="-216.5" font-family="Malgun Gothic" font-size="10.00">DefaultTtsSampleRate</text>
<text text-anchor="start" x="7" y="-201.5" font-family="Malgun Gothic" font-size="10.00">&#45;</text>
<text text-anchor="start" x="17.5" y="-201.5" font-family="Malgun Gothic" font-size="10.00">LanguageCode</text>
<text text-anchor="start" x="7" y="-186.5" font-family="Malgun Gothic" font-size="10.00">&#45;</text>
<text text-anchor="start" x="17.5" y="-186.5" font-family="Malgun Gothic" font-size="10.00">PendingSpeechToText</text>
<text text-anchor="start" x="7" y="-171.5" font-family="Malgun Gothic" font-size="10.00">&#45;</text>
<text text-anchor="start" x="17.5" y="-171.5" font-family="Malgun Gothic" font-size="10.00">PendingTextToSpeech</text>
<text text-anchor="start" x="7" y="-156.5" font-family="Malgun Gothic" font-size="10.00">&#45;</text>
<text text-anchor="start" x="17.5" y="-156.5" font-family="Malgun Gothic" font-size="10.00">Settings</text>
<text text-anchor="start" x="7" y="-141.5" font-family="Malgun Gothic" font-size="10.00">&#45;</text>
<text text-anchor="start" x="17.5" y="-141.5" font-family="Malgun Gothic" font-size="10.00">VoiceGender</text>
<text text-anchor="start" x="7" y="-126.5" font-family="Malgun Gothic" font-size="10.00">&#45;</text>
<text text-anchor="start" x="17.5" y="-126.5" font-family="Malgun Gothic" font-size="10.00">VoiceName</text>
<text text-anchor="start" x="4.5" y="-111.5" font-family="Malgun Gothic" font-size="10.00">+</text>
<text text-anchor="start" x="17.5" y="-111.5" font-family="Malgun Gothic" font-size="10.00">Initialize()</text>
<text text-anchor="start" x="4.5" y="-96.5" font-family="Malgun Gothic" font-size="10.00">+</text>
<text text-anchor="start" x="17.5" y="-96.5" font-family="Malgun Gothic" font-size="10.00">RequestSpeechToText()</text>
<text text-anchor="start" x="4.5" y="-81.5" font-family="Malgun Gothic" font-size="10.00">+</text>
<text text-anchor="start" x="17.5" y="-81.5" font-family="Malgun Gothic" font-size="10.00">RequestTextToSpeech()</text>
<text text-anchor="start" x="4.5" y="-66.5" font-family="Malgun Gothic" font-size="10.00">+</text>
<text text-anchor="start" x="17.5" y="-66.5" font-family="Malgun Gothic" font-size="10.00">Get()</text>
<text text-anchor="start" x="7" y="-51.5" font-family="Malgun Gothic" font-size="10.00">&#45;</text>
<text text-anchor="start" x="17.5" y="-51.5" font-family="Malgun Gothic" font-size="10.00">BuildSpeechToTextUrl()</text>
<text text-anchor="start" x="7" y="-36.5" font-family="Malgun Gothic" font-size="10.00">&#45;</text>
<text text-anchor="start" x="17.5" y="-36.5" font-family="Malgun Gothic" font-size="10.00">BuildTextToSpeechUrl()</text>
<text text-anchor="start" x="7" y="-21.5" font-family="Malgun Gothic" font-size="10.00">&#45;</text>
<text text-anchor="start" x="17.5" y="-21.5" font-family="Malgun Gothic" font-size="10.00">HandleSpeechToTextResponse()</text>
<text text-anchor="start" x="7" y="-6.5" font-family="Malgun Gothic" font-size="10.00">&#45;</text>
<text text-anchor="start" x="17.5" y="-6.5" font-family="Malgun Gothic" font-size="10.00">HandleTextToSpeechResponse()</text>
<polygon fill="#666666" stroke="#666666" points="0.5,-271.5 0.5,-271.5 177.5,-271.5 177.5,-271.5 0.5,-271.5"/>
<polygon fill="#666666" stroke="#666666" points="0.5,-121.5 0.5,-121.5 15.5,-121.5 15.5,-121.5 0.5,-121.5"/>
<polygon fill="#666666" stroke="#666666" points="15.5,-121.5 15.5,-121.5 177.5,-121.5 177.5,-121.5 15.5,-121.5"/>
<polygon fill="none" stroke="#666666" points="0,0 0,-289 177,-289 177,0 0,0"/>
</a>
</g>
</g>
<!-- Node2 -->
<g id="Node000002" class="node">
<title>Node2</title>
<g id="a_Node000002"><a xlink:title=" ">
<polygon fill="white" stroke="transparent" points="160,-374 17,-374 17,-325 160,-325 160,-374"/>
<text text-anchor="start" x="22.5" y="-361.5" font-family="Malgun Gothic" font-size="10.00">UGameInstanceSubsystem</text>
<text text-anchor="start" x="87" y="-346.5" font-family="Malgun Gothic" font-size="10.00"> </text>
<text text-anchor="start" x="87" y="-331.5" font-family="Malgun Gothic" font-size="10.00"> </text>
<polygon fill="#666666" stroke="#666666" points="17.5,-356.5 17.5,-356.5 160.5,-356.5 160.5,-356.5 17.5,-356.5"/>
<polygon fill="#666666" stroke="#666666" points="17.5,-341.5 17.5,-341.5 160.5,-341.5 160.5,-341.5 17.5,-341.5"/>
<polygon fill="none" stroke="#666666" points="17,-325 17,-374 160,-374 160,-325 17,-325"/>
</a>
</g>
</g>
<!-- Node2&#45;&gt;Node1 -->
<g id="edge1_Node000001_Node000002" class="edge">
<title>Node2&#45;&gt;Node1</title>
<g id="a_edge1_Node000001_Node000002"><a xlink:title=" ">
<path fill="none" stroke="#63b8ff" d="M88.5,-314.66C88.5,-307 88.5,-298.4 88.5,-289.24"/>
<polygon fill="none" stroke="#63b8ff" points="85,-314.82 88.5,-324.82 92,-314.82 85,-314.82"/>
</a>
</g>
</g>
</g>
</svg>
</svg>

<style type='text/css'>
<![CDATA[
[data-mouse-over-selected='false'] { opacity: 0.7; }
[data-mouse-over-selected='true']  { opacity: 1.0; }
]]>
</style>
<script type="application/ecmascript"><![CDATA[
document.addEventListener('DOMContentLoaded', (event) => {
  highlightEdges();
  highlightAdjacentNodes();
});
]]></script>
</svg>
