<?xml version="1.0" encoding="UTF-8" standalone="no"?>
<!DOCTYPE svg PUBLIC "-//W3C//DTD SVG 1.1//EN"
 "http://www.w3.org/Graphics/SVG/1.1/DTD/svg11.dtd">
<!-- Generated by graphviz version 2.43.0 (0)
 -->
<!-- Title: UGameDataManager::ReloadMasterData Pages: 1 -->
<svg width="375pt" height="182pt"
 viewBox="0.00 0.00 375.00 182.00" xmlns="http://www.w3.org/2000/svg" xmlns:xlink="http://www.w3.org/1999/xlink">
<g id="graph0" class="graph" transform="scale(1 1) rotate(0) translate(4 178)">
<title>UGameDataManager::ReloadMasterData</title>
<!-- Node1 -->
<g id="Node000001" class="node">
<title>Node1</title>
<g id="a_Node000001"><a xlink:title=" ">
<polygon fill="#999999" stroke="#666666" points="159,-102 0,-102 0,-72 159,-72 159,-102"/>
<text text-anchor="start" x="8" y="-90" font-family="Malgun Gothic" font-size="10.00">UGameDataManager::Reload</text>
<text text-anchor="middle" x="79.5" y="-79" font-family="Malgun Gothic" font-size="10.00">MasterData</text>
</a>
</g>
</g>
<!-- Node2 -->
<g id="Node000002" class="node">
<title>Node2</title>
<g id="a_Node000002"><a xlink:href="classUGameDataManager.html#a17795ed84fef2f5fbb76d7da26d52447" target="_top" xlink:title=" ">
<polygon fill="white" stroke="#666666" points="367,-174 195,-174 195,-144 367,-144 367,-174"/>
<text text-anchor="start" x="203" y="-162" font-family="Malgun Gothic" font-size="10.00">UGameDataManager::LoadData</text>
<text text-anchor="middle" x="281" y="-151" font-family="Malgun Gothic" font-size="10.00">_CharacterAssetData</text>
</a>
</g>
</g>
<!-- Node1&#45;&gt;Node2 -->
<g id="edge1_Node000001_Node000002" class="edge">
<title>Node1&#45;&gt;Node2</title>
<g id="a_edge1_Node000001_Node000002"><a xlink:title=" ">
<path fill="none" stroke="#63b8ff" d="M113.65,-102.16C136.29,-112.2 167.12,-125.26 195,-135 200.89,-137.06 207.05,-139.07 213.26,-140.99"/>
<polygon fill="#63b8ff" stroke="#63b8ff" points="212.42,-144.4 223,-143.94 214.45,-137.7 212.42,-144.4"/>
</a>
</g>
</g>
<!-- Node3 -->
<g id="Node000003" class="node">
<title>Node3</title>
<g id="a_Node000003"><a xlink:href="classUGameDataManager.html#ad849e286b5e7c53cb21b2d193eb58dbe" target="_top" xlink:title=" ">
<polygon fill="white" stroke="#666666" points="367,-126 195,-126 195,-96 367,-96 367,-126"/>
<text text-anchor="start" x="203" y="-114" font-family="Malgun Gothic" font-size="10.00">UGameDataManager::LoadData</text>
<text text-anchor="middle" x="281" y="-103" font-family="Malgun Gothic" font-size="10.00">_CharacterInfoData</text>
</a>
</g>
</g>
<!-- Node1&#45;&gt;Node3 -->
<g id="edge2_Node000001_Node000003" class="edge">
<title>Node1&#45;&gt;Node3</title>
<g id="a_edge2_Node000001_Node000003"><a xlink:title=" ">
<path fill="none" stroke="#63b8ff" d="M159.06,-96.45C167.53,-97.47 176.2,-98.51 184.83,-99.55"/>
<polygon fill="#63b8ff" stroke="#63b8ff" points="184.58,-103.05 194.93,-100.77 185.42,-96.1 184.58,-103.05"/>
</a>
</g>
</g>
<!-- Node4 -->
<g id="Node000004" class="node">
<title>Node4</title>
<g id="a_Node000004"><a xlink:href="classUGameDataManager.html#adf72cf62298bc613581042c7e86bfbde" target="_top" xlink:title=" ">
<polygon fill="white" stroke="#666666" points="367,-78 195,-78 195,-48 367,-48 367,-78"/>
<text text-anchor="start" x="203" y="-66" font-family="Malgun Gothic" font-size="10.00">UGameDataManager::LoadData</text>
<text text-anchor="middle" x="281" y="-55" font-family="Malgun Gothic" font-size="10.00">_HitStopTable</text>
</a>
</g>
</g>
<!-- Node1&#45;&gt;Node4 -->
<g id="edge3_Node000001_Node000004" class="edge">
<title>Node1&#45;&gt;Node4</title>
<g id="a_edge3_Node000001_Node000004"><a xlink:title=" ">
<path fill="none" stroke="#63b8ff" d="M159.06,-77.55C167.53,-76.53 176.2,-75.49 184.83,-74.45"/>
<polygon fill="#63b8ff" stroke="#63b8ff" points="185.42,-77.9 194.93,-73.23 184.58,-70.95 185.42,-77.9"/>
</a>
</g>
</g>
<!-- Node5 -->
<g id="Node000005" class="node">
<title>Node5</title>
<g id="a_Node000005"><a xlink:href="classUGameDataManager.html#ac3bde7d40542b59a0ce72d0b070d3a8e" target="_top" xlink:title=" ">
<polygon fill="white" stroke="#666666" points="367,-30 195,-30 195,0 367,0 367,-30"/>
<text text-anchor="start" x="203" y="-18" font-family="Malgun Gothic" font-size="10.00">UGameDataManager::LoadData</text>
<text text-anchor="middle" x="281" y="-7" font-family="Malgun Gothic" font-size="10.00">_KnockbackTable</text>
</a>
</g>
</g>
<!-- Node1&#45;&gt;Node5 -->
<g id="edge4_Node000001_Node000005" class="edge">
<title>Node1&#45;&gt;Node5</title>
<g id="a_edge4_Node000001_Node000005"><a xlink:title=" ">
<path fill="none" stroke="#63b8ff" d="M113.65,-71.84C136.29,-61.8 167.12,-48.74 195,-39 200.89,-36.94 207.05,-34.93 213.26,-33.01"/>
<polygon fill="#63b8ff" stroke="#63b8ff" points="214.45,-36.3 223,-30.06 212.42,-29.6 214.45,-36.3"/>
</a>
</g>
</g>
</g>
</svg>
