<?xml version="1.0" encoding="UTF-8" standalone="no"?>
<!DOCTYPE svg PUBLIC "-//W3C//DTD SVG 1.1//EN"
 "http://www.w3.org/Graphics/SVG/1.1/DTD/svg11.dtd">
<!-- Generated by graphviz version 2.43.0 (0)
 -->
<!-- Title: UWebSocketSystem::LogNetwork Pages: 1 -->
<svg width="607pt" height="247pt"
 viewBox="0.00 0.00 607.00 247.50" xmlns="http://www.w3.org/2000/svg" xmlns:xlink="http://www.w3.org/1999/xlink">
<g id="graph0" class="graph" transform="scale(1 1) rotate(0) translate(4 243.5)">
<title>UWebSocketSystem::LogNetwork</title>
<!-- Node1 -->
<g id="Node000001" class="node">
<title>Node1</title>
<g id="a_Node000001"><a xlink:title=" ">
<polygon fill="#999999" stroke="#666666" points="599,-134 420,-134 420,-115 599,-115 599,-134"/>
<text text-anchor="middle" x="509.5" y="-122" font-family="Malgun Gothic" font-size="10.00">UWebSocketSystem::LogNetwork</text>
</a>
</g>
</g>
<!-- Node2 -->
<g id="Node000002" class="node">
<title>Node2</title>
<g id="a_Node000002"><a xlink:href="classUWebSocketSystem.html#aa72ee8bc548882770c3d47bbba4d3086" target="_top" xlink:title=" ">
<polygon fill="white" stroke="#666666" points="160,-158 0,-158 0,-139 160,-139 160,-158"/>
<text text-anchor="middle" x="80" y="-146" font-family="Malgun Gothic" font-size="10.00">UWebSocketSystem::Connect</text>
</a>
</g>
</g>
<!-- Node1&#45;&gt;Node2 -->
<g id="edge1_Node000001_Node000002" class="edge">
<title>Node1&#45;&gt;Node2</title>
<g id="a_edge1_Node000001_Node000002"><a xlink:title=" ">
<path fill="none" stroke="#63b8ff" d="M493.4,-141.74C471.85,-164.88 429.79,-204.9 384,-220.5 304.91,-247.45 276.31,-243.57 196,-220.5 153.21,-208.21 110.92,-174.82 91.72,-158.19"/>
<polygon fill="#63b8ff" stroke="#63b8ff" points="496.25,-143.81 500.38,-134.05 491.07,-139.1 496.25,-143.81"/>
</a>
</g>
</g>
<!-- Node3 -->
<g id="Node000003" class="node">
<title>Node3</title>
<g id="a_Node000003"><a xlink:href="classUWebSocketSystem.html#a7a88c6a90e78c24cb49759a99f461820" target="_top" xlink:title=" ">
<polygon fill="white" stroke="#666666" points="373.5,-211.5 206.5,-211.5 206.5,-181.5 373.5,-181.5 373.5,-211.5"/>
<text text-anchor="start" x="214.5" y="-199.5" font-family="Malgun Gothic" font-size="10.00">UWebSocketSystem::OnClosed</text>
<text text-anchor="middle" x="290" y="-188.5" font-family="Malgun Gothic" font-size="10.00">_Native</text>
</a>
</g>
</g>
<!-- Node1&#45;&gt;Node3 -->
<g id="edge2_Node000001_Node000003" class="edge">
<title>Node1&#45;&gt;Node3</title>
<g id="a_edge2_Node000001_Node000003"><a xlink:title=" ">
<path fill="none" stroke="#63b8ff" d="M476.51,-138.01C451.57,-148.25 415.94,-162.26 384,-172.5 374.16,-175.66 363.62,-178.69 353.32,-181.48"/>
<polygon fill="#63b8ff" stroke="#63b8ff" points="477.93,-141.21 485.84,-134.15 475.26,-134.74 477.93,-141.21"/>
</a>
</g>
</g>
<!-- Node4 -->
<g id="Node000004" class="node">
<title>Node4</title>
<g id="a_Node000004"><a xlink:href="classUWebSocketSystem.html#a7f1b915b47d4df8053b658927e948009" target="_top" xlink:title=" ">
<polygon fill="white" stroke="#666666" points="382.5,-163.5 197.5,-163.5 197.5,-133.5 382.5,-133.5 382.5,-163.5"/>
<text text-anchor="start" x="205.5" y="-151.5" font-family="Malgun Gothic" font-size="10.00">UWebSocketSystem::OnConnected</text>
<text text-anchor="middle" x="290" y="-140.5" font-family="Malgun Gothic" font-size="10.00">_Native</text>
</a>
</g>
</g>
<!-- Node1&#45;&gt;Node4 -->
<g id="edge4_Node000001_Node000004" class="edge">
<title>Node1&#45;&gt;Node4</title>
<g id="a_edge4_Node000001_Node000004"><a xlink:title=" ">
<path fill="none" stroke="#63b8ff" d="M412.06,-135.14C402.24,-136.22 392.29,-137.32 382.53,-138.4"/>
<polygon fill="#63b8ff" stroke="#63b8ff" points="412.67,-138.6 422.23,-134.02 411.9,-131.64 412.67,-138.6"/>
</a>
</g>
</g>
<!-- Node5 -->
<g id="Node000005" class="node">
<title>Node5</title>
<g id="a_Node000005"><a xlink:href="classUWebSocketSystem.html#a8ff6b512e809cc1065ddd3186bc4372f" target="_top" xlink:title=" ">
<polygon fill="white" stroke="#666666" points="384,-115.5 196,-115.5 196,-85.5 384,-85.5 384,-115.5"/>
<text text-anchor="start" x="204" y="-103.5" font-family="Malgun Gothic" font-size="10.00">UWebSocketSystem::OnConnection</text>
<text text-anchor="middle" x="290" y="-92.5" font-family="Malgun Gothic" font-size="10.00">Error_Native</text>
</a>
</g>
</g>
<!-- Node1&#45;&gt;Node5 -->
<g id="edge6_Node000001_Node000005" class="edge">
<title>Node1&#45;&gt;Node5</title>
<g id="a_edge6_Node000001_Node000005"><a xlink:title=" ">
<path fill="none" stroke="#63b8ff" d="M412.23,-113.88C402.96,-112.85 393.57,-111.82 384.32,-110.8"/>
<polygon fill="#63b8ff" stroke="#63b8ff" points="411.9,-117.36 422.23,-114.98 412.67,-110.4 411.9,-117.36"/>
</a>
</g>
</g>
<!-- Node6 -->
<g id="Node000006" class="node">
<title>Node6</title>
<g id="a_Node000006"><a xlink:href="classUWebSocketSystem.html#aa701952031766e47200a838dd214c905" target="_top" xlink:title=" ">
<polygon fill="white" stroke="#666666" points="378.5,-67.5 201.5,-67.5 201.5,-37.5 378.5,-37.5 378.5,-67.5"/>
<text text-anchor="start" x="209.5" y="-55.5" font-family="Malgun Gothic" font-size="10.00">UWebSocketSystem::OnMessage</text>
<text text-anchor="middle" x="290" y="-44.5" font-family="Malgun Gothic" font-size="10.00">Received_Native</text>
</a>
</g>
</g>
<!-- Node1&#45;&gt;Node6 -->
<g id="edge8_Node000001_Node000006" class="edge">
<title>Node1&#45;&gt;Node6</title>
<g id="a_edge8_Node000001_Node000006"><a xlink:title=" ">
<path fill="none" stroke="#63b8ff" d="M476.51,-110.99C451.57,-100.75 415.94,-86.74 384,-76.5 374.16,-73.34 363.62,-70.31 353.32,-67.52"/>
<polygon fill="#63b8ff" stroke="#63b8ff" points="475.26,-114.26 485.84,-114.85 477.93,-107.79 475.26,-114.26"/>
</a>
</g>
</g>
<!-- Node7 -->
<g id="Node000007" class="node">
<title>Node7</title>
<g id="a_Node000007"><a xlink:href="classUWebSocketSystem.html#acdc8c5a1c2cecee29544b844649eb52e" target="_top" xlink:title=" ">
<polygon fill="white" stroke="#666666" points="384,-19 196,-19 196,0 384,0 384,-19"/>
<text text-anchor="middle" x="290" y="-7" font-family="Malgun Gothic" font-size="10.00">UWebSocketSystem::SendMessage</text>
</a>
</g>
</g>
<!-- Node1&#45;&gt;Node7 -->
<g id="edge10_Node000001_Node000007" class="edge">
<title>Node1&#45;&gt;Node7</title>
<g id="a_edge10_Node000001_Node000007"><a xlink:title=" ">
<path fill="none" stroke="#63b8ff" d="M491.87,-107.56C469.45,-85.75 427.32,-48.33 384,-28.5 375.46,-24.59 366.11,-21.48 356.74,-19.01"/>
<polygon fill="#63b8ff" stroke="#63b8ff" points="489.64,-110.27 499.21,-114.82 494.56,-105.3 489.64,-110.27"/>
</a>
</g>
</g>
<!-- Node3&#45;&gt;Node2 -->
<g id="edge3_Node000003_Node000002" class="edge">
<title>Node3&#45;&gt;Node2</title>
<g id="a_edge3_Node000003_Node000002"><a xlink:title=" ">
<path fill="none" stroke="#63b8ff" d="M213.89,-179.17C183.07,-172.05 148.57,-164.09 122.45,-158.06"/>
<polygon fill="#63b8ff" stroke="#63b8ff" points="213.23,-182.61 223.76,-181.44 214.8,-175.79 213.23,-182.61"/>
</a>
</g>
</g>
<!-- Node4&#45;&gt;Node2 -->
<g id="edge5_Node000004_Node000002" class="edge">
<title>Node4&#45;&gt;Node2</title>
<g id="a_edge5_Node000004_Node000002"><a xlink:title=" ">
<path fill="none" stroke="#63b8ff" d="M187.23,-148.5C178.15,-148.5 169.04,-148.5 160.19,-148.5"/>
<polygon fill="#63b8ff" stroke="#63b8ff" points="187.47,-152 197.47,-148.5 187.47,-145 187.47,-152"/>
</a>
</g>
</g>
<!-- Node5&#45;&gt;Node2 -->
<g id="edge7_Node000005_Node000002" class="edge">
<title>Node5&#45;&gt;Node2</title>
<g id="a_edge7_Node000005_Node000002"><a xlink:title=" ">
<path fill="none" stroke="#63b8ff" d="M213.89,-117.83C183.07,-124.95 148.57,-132.91 122.45,-138.94"/>
<polygon fill="#63b8ff" stroke="#63b8ff" points="214.8,-121.21 223.76,-115.56 213.23,-114.39 214.8,-121.21"/>
</a>
</g>
</g>
<!-- Node6&#45;&gt;Node2 -->
<g id="edge9_Node000006_Node000002" class="edge">
<title>Node6&#45;&gt;Node2</title>
<g id="a_edge9_Node000006_Node000002"><a xlink:title=" ">
<path fill="none" stroke="#63b8ff" d="M210.8,-70.79C205.74,-72.55 200.76,-74.45 196,-76.5 155.96,-93.71 113.74,-123.65 93.39,-138.93"/>
<polygon fill="#63b8ff" stroke="#63b8ff" points="212.22,-74 220.63,-67.56 210.04,-67.35 212.22,-74"/>
</a>
</g>
</g>
</g>
</svg>
