<?xml version="1.0" encoding="UTF-8" standalone="no"?>
<!DOCTYPE svg PUBLIC "-//W3C//DTD SVG 1.1//EN"
 "http://www.w3.org/Graphics/SVG/1.1/DTD/svg11.dtd">
<!-- Generated by graphviz version 2.43.0 (0)
 -->
<!-- Title: UGameDataManager Pages: 1 -->
<svg width="186pt" height="573pt"
 viewBox="0.00 0.00 186.00 573.00" xmlns="http://www.w3.org/2000/svg" xmlns:xlink="http://www.w3.org/1999/xlink">
<g id="graph0" class="graph" transform="scale(1 1) rotate(0) translate(4 569)">
<title>UGameDataManager</title>
<!-- Node1 -->
<g id="Node000001" class="node">
<title>Node1</title>
<g id="a_Node000001"><a xlink:title=" ">
<polygon fill="#999999" stroke="transparent" points="178,-480 0,-480 0,0 178,0 178,-480"/>
<text text-anchor="start" x="37.5" y="-468" font-family="Malgun Gothic" font-size="10.00">UGameDataManager</text>
<text text-anchor="start" x="4" y="-453" font-family="Malgun Gothic" font-size="10.00">+</text>
<text text-anchor="start" x="17" y="-453" font-family="Malgun Gothic" font-size="10.00">CharacterAssetTable</text>
<text text-anchor="start" x="4" y="-438" font-family="Malgun Gothic" font-size="10.00">+</text>
<text text-anchor="start" x="17" y="-438" font-family="Malgun Gothic" font-size="10.00">CharacterInfoTable</text>
<text text-anchor="start" x="4" y="-423" font-family="Malgun Gothic" font-size="10.00">+</text>
<text text-anchor="start" x="17" y="-423" font-family="Malgun Gothic" font-size="10.00">HitStopTable</text>
<text text-anchor="start" x="4" y="-408" font-family="Malgun Gothic" font-size="10.00">+</text>
<text text-anchor="start" x="17" y="-408" font-family="Malgun Gothic" font-size="10.00">KnockbackTable</text>
<text text-anchor="start" x="6.5" y="-393" font-family="Malgun Gothic" font-size="10.00">&#45;</text>
<text text-anchor="start" x="17" y="-393" font-family="Malgun Gothic" font-size="10.00">bLoadCharacterAsset</text>
<text text-anchor="start" x="6.5" y="-378" font-family="Malgun Gothic" font-size="10.00">&#45;</text>
<text text-anchor="start" x="17" y="-378" font-family="Malgun Gothic" font-size="10.00">bLoadCharacterInfo</text>
<text text-anchor="start" x="6.5" y="-363" font-family="Malgun Gothic" font-size="10.00">&#45;</text>
<text text-anchor="start" x="17" y="-363" font-family="Malgun Gothic" font-size="10.00">bLoadHitStop</text>
<text text-anchor="start" x="6.5" y="-348" font-family="Malgun Gothic" font-size="10.00">&#45;</text>
<text text-anchor="start" x="17" y="-348" font-family="Malgun Gothic" font-size="10.00">bLoadKnockback</text>
<text text-anchor="start" x="6.5" y="-333" font-family="Malgun Gothic" font-size="10.00">&#45;</text>
<text text-anchor="start" x="17" y="-333" font-family="Malgun Gothic" font-size="10.00">CharacterAssetCache</text>
<text text-anchor="start" x="6.5" y="-318" font-family="Malgun Gothic" font-size="10.00">&#45;</text>
<text text-anchor="start" x="17" y="-318" font-family="Malgun Gothic" font-size="10.00">CharacterInfoCache</text>
<text text-anchor="start" x="6.5" y="-303" font-family="Malgun Gothic" font-size="10.00">&#45;</text>
<text text-anchor="start" x="17" y="-303" font-family="Malgun Gothic" font-size="10.00">HitStopCache</text>
<text text-anchor="start" x="6.5" y="-288" font-family="Malgun Gothic" font-size="10.00">&#45;</text>
<text text-anchor="start" x="17" y="-288" font-family="Malgun Gothic" font-size="10.00">KnockbackCache</text>
<text text-anchor="start" x="4" y="-273" font-family="Malgun Gothic" font-size="10.00">+</text>
<text text-anchor="start" x="17" y="-273" font-family="Malgun Gothic" font-size="10.00">UGameDataManager()</text>
<text text-anchor="start" x="4" y="-258" font-family="Malgun Gothic" font-size="10.00">+</text>
<text text-anchor="start" x="17" y="-258" font-family="Malgun Gothic" font-size="10.00">DEFINE_SUBSYSTEM_GETTER</text>
<text text-anchor="start" x="17" y="-247" font-family="Malgun Gothic" font-size="10.00">_INLINE()</text>
<text text-anchor="start" x="4" y="-232" font-family="Malgun Gothic" font-size="10.00">+</text>
<text text-anchor="start" x="17" y="-232" font-family="Malgun Gothic" font-size="10.00">Deinitialize()</text>
<text text-anchor="start" x="4" y="-217" font-family="Malgun Gothic" font-size="10.00">+</text>
<text text-anchor="start" x="17" y="-217" font-family="Malgun Gothic" font-size="10.00">GetCharacterAssetData()</text>
<text text-anchor="start" x="4" y="-202" font-family="Malgun Gothic" font-size="10.00">+</text>
<text text-anchor="start" x="17" y="-202" font-family="Malgun Gothic" font-size="10.00">GetCharacterInfoData()</text>
<text text-anchor="start" x="4" y="-187" font-family="Malgun Gothic" font-size="10.00">+</text>
<text text-anchor="start" x="17" y="-187" font-family="Malgun Gothic" font-size="10.00">GetHitStopData()</text>
<text text-anchor="start" x="4" y="-172" font-family="Malgun Gothic" font-size="10.00">+</text>
<text text-anchor="start" x="17" y="-172" font-family="Malgun Gothic" font-size="10.00">GetHitStopDelayTime()</text>
<text text-anchor="start" x="4" y="-157" font-family="Malgun Gothic" font-size="10.00">+</text>
<text text-anchor="start" x="17" y="-157" font-family="Malgun Gothic" font-size="10.00">GetKnockbackData()</text>
<text text-anchor="start" x="4" y="-142" font-family="Malgun Gothic" font-size="10.00">+</text>
<text text-anchor="start" x="17" y="-142" font-family="Malgun Gothic" font-size="10.00">Initialize()</text>
<text text-anchor="start" x="4" y="-127" font-family="Malgun Gothic" font-size="10.00">+</text>
<text text-anchor="start" x="17" y="-127" font-family="Malgun Gothic" font-size="10.00">ReloadMasterData()</text>
<text text-anchor="start" x="6.5" y="-112" font-family="Malgun Gothic" font-size="10.00">&#45;</text>
<text text-anchor="start" x="17" y="-112" font-family="Malgun Gothic" font-size="10.00">Clear_CharacterAssetData()</text>
<text text-anchor="start" x="6.5" y="-97" font-family="Malgun Gothic" font-size="10.00">&#45;</text>
<text text-anchor="start" x="17" y="-97" font-family="Malgun Gothic" font-size="10.00">Clear_CharacterInfoData()</text>
<text text-anchor="start" x="6.5" y="-82" font-family="Malgun Gothic" font-size="10.00">&#45;</text>
<text text-anchor="start" x="17" y="-82" font-family="Malgun Gothic" font-size="10.00">Clear_HitStopTable()</text>
<text text-anchor="start" x="6.5" y="-67" font-family="Malgun Gothic" font-size="10.00">&#45;</text>
<text text-anchor="start" x="17" y="-67" font-family="Malgun Gothic" font-size="10.00">Clear_KnockbackTable()</text>
<text text-anchor="start" x="6.5" y="-52" font-family="Malgun Gothic" font-size="10.00">&#45;</text>
<text text-anchor="start" x="17" y="-52" font-family="Malgun Gothic" font-size="10.00">LoadData_CharacterAssetData()</text>
<text text-anchor="start" x="6.5" y="-37" font-family="Malgun Gothic" font-size="10.00">&#45;</text>
<text text-anchor="start" x="17" y="-37" font-family="Malgun Gothic" font-size="10.00">LoadData_CharacterInfoData()</text>
<text text-anchor="start" x="6.5" y="-22" font-family="Malgun Gothic" font-size="10.00">&#45;</text>
<text text-anchor="start" x="17" y="-22" font-family="Malgun Gothic" font-size="10.00">LoadData_HitStopTable()</text>
<text text-anchor="start" x="6.5" y="-7" font-family="Malgun Gothic" font-size="10.00">&#45;</text>
<text text-anchor="start" x="17" y="-7" font-family="Malgun Gothic" font-size="10.00">LoadData_KnockbackTable()</text>
<polygon fill="#666666" stroke="#666666" points="0,-463 0,-463 178,-463 178,-463 0,-463"/>
<polygon fill="#666666" stroke="#666666" points="0,-283 0,-283 15,-283 15,-283 0,-283"/>
<polygon fill="#666666" stroke="#666666" points="15,-283 15,-283 178,-283 178,-283 15,-283"/>
<polygon fill="none" stroke="#666666" points="0,0 0,-480 178,-480 178,0 0,0"/>
</a>
</g>
</g>
<!-- Node2 -->
<g id="Node000002" class="node">
<title>Node2</title>
<g id="a_Node000002"><a xlink:title=" ">
<polygon fill="white" stroke="transparent" points="160.5,-565 17.5,-565 17.5,-516 160.5,-516 160.5,-565"/>
<text text-anchor="start" x="23" y="-552.5" font-family="Malgun Gothic" font-size="10.00">UGameInstanceSubsystem</text>
<text text-anchor="start" x="87.5" y="-537.5" font-family="Malgun Gothic" font-size="10.00"> </text>
<text text-anchor="start" x="87.5" y="-522.5" font-family="Malgun Gothic" font-size="10.00"> </text>
<polygon fill="#666666" stroke="#666666" points="18,-547.5 18,-547.5 161,-547.5 161,-547.5 18,-547.5"/>
<polygon fill="#666666" stroke="#666666" points="18,-532.5 18,-532.5 161,-532.5 161,-532.5 18,-532.5"/>
<polygon fill="none" stroke="#666666" points="17.5,-516 17.5,-565 160.5,-565 160.5,-516 17.5,-516"/>
</a>
</g>
</g>
<!-- Node2&#45;&gt;Node1 -->
<g id="edge1_Node000001_Node000002" class="edge">
<title>Node2&#45;&gt;Node1</title>
<g id="a_edge1_Node000001_Node000002"><a xlink:title=" ">
<path fill="none" stroke="#63b8ff" d="M89,-505.81C89,-498.22 89,-489.61 89,-480.24"/>
<polygon fill="none" stroke="#63b8ff" points="85.5,-505.83 89,-515.83 92.5,-505.83 85.5,-505.83"/>
</a>
</g>
</g>
</g>
</svg>
