<?xml version="1.0" encoding="UTF-8" standalone="no"?>
<!DOCTYPE svg PUBLIC "-//W3C//DTD SVG 1.1//EN"
 "http://www.w3.org/Graphics/SVG/1.1/DTD/svg11.dtd">
<!-- Generated by graphviz version 2.43.0 (0)
 -->
<!-- Title: AGameCharacter::OnMontageNotifyBegin Pages: 1 -->
<!--zoomable 86 -->

<svg id="main" version="1.1" xmlns="http://www.w3.org/2000/svg" xmlns:xlink="http://www.w3.org/1999/xlink" xml:space="preserve" onload="init(evt)">
<style type="text/css"><![CDATA[
.node, .edge {opacity: 0.7;}
.node.selected, .edge.selected {opacity: 1;}
.edge:hover path { stroke: red; }
.edge:hover polygon { stroke: red; fill: red; }
]]></style>

<defs>
  <circle id="rim" cx="0" cy="0" r="7"/>
  <circle id="rim2" cx="0" cy="0" r="3.5"/>
  <g id="zoomPlus">
    <use xlink:href="#rim" fill="#404040"><set attributeName="fill" to="#808080" begin="zoomplus.mouseover" end="zoomplus.mouseout"/></use>
    <path d="M-4,0h8M0,-4v8" fill="none" stroke="white" stroke-width="1.5" pointer-events="none"/>
  </g>
  <g id="zoomMin">
    <use xlink:href="#rim" fill="#404040"><set attributeName="fill" to="#808080" begin="zoomminus.mouseover" end="zoomminus.mouseout"/></use>
    <path d="M-4,0h8" fill="none" stroke="white" stroke-width="1.5" pointer-events="none"/>
  </g>
  <g id="arrowUp" transform="translate(30 24)">
    <use xlink:href="#rim"/>
    <path pointer-events="none" fill="none" stroke="white" stroke-width="1.5" d="M0,-3.0v7 M-2.5,-0.5L0,-3.0L2.5,-0.5"/>
  </g>
  <g id="arrowRight" transform="rotate(90) translate(36 -43)">
    <use xlink:href="#rim"/>
    <path pointer-events="none" fill="none" stroke="white" stroke-width="1.5" d="M0,-3.0v7 M-2.5,-0.5L0,-3.0L2.5,-0.5"/>
  </g>
  <g id="arrowDown" transform="rotate(180) translate(-30 -48)">
    <use xlink:href="#rim"/>
    <path pointer-events="none" fill="none" stroke="white" stroke-width="1.5" d="M0,-3.0v7 M-2.5,-0.5L0,-3.0L2.5,-0.5"/>
  </g>
  <g id="arrowLeft" transform="rotate(270) translate(-36 17)">
    <use xlink:href="#rim"/>
    <path pointer-events="none" fill="none" stroke="white" stroke-width="1.5" d="M0,-3.0v7 M-2.5,-0.5L0,-3.0L2.5,-0.5"/>
  </g>
  <g id="resetDef">
    <use xlink:href="#rim2" fill="#404040"><set attributeName="fill" to="#808080" begin="reset.mouseover" end="reset.mouseout"/></use>
  </g>
</defs>
<script type="application/ecmascript">
var viewWidth = 606;
var viewHeight = 86;
var sectionId = 'dynsection-7';
</script>
<script type="application/ecmascript" xlink:href="svg.min.js"/>
<svg id="graph" class="graph">
<g id="viewport">
<title>AGameCharacter::OnMontageNotifyBegin</title>
<!-- Node1 -->
<g id="Node000001" class="node">
<title>Node1</title>
<g id="a_Node000001"><a xlink:title="몽타주 노티파이 시작 시 호출되는 콜백입니다.">
<polygon fill="#999999" stroke="#666666" points="598,-54 436,-54 436,-24 598,-24 598,-54"/>
<text text-anchor="start" x="444" y="-42" font-family="Malgun Gothic" font-size="10.00">AGameCharacter::OnMontage</text>
<text text-anchor="middle" x="517" y="-31" font-family="Malgun Gothic" font-size="10.00">NotifyBegin</text>
</a>
</g>
</g>
<!-- Node2 -->
<g id="Node000002" class="node">
<title>Node2</title>
<g id="a_Node000002"><a xlink:href="classAGameCharacter.html#a1758a3c8506ae6cab77731a1890dc00d" target="_top" xlink:title="몽타주 알림 처리 델리게이트를 바인딩합니다.">
<polygon fill="white" stroke="#666666" points="393.5,-78 223.5,-78 223.5,-48 393.5,-48 393.5,-78"/>
<text text-anchor="start" x="231.5" y="-66" font-family="Malgun Gothic" font-size="10.00">AGameCharacter::BindMontage</text>
<text text-anchor="middle" x="308.5" y="-55" font-family="Malgun Gothic" font-size="10.00">Delegates</text>
</a>
</g>
</g>
<!-- Node1&#45;&gt;Node2 -->
<g id="edge1_Node000001_Node000002" class="edge">
<title>Node1&#45;&gt;Node2</title>
<g id="a_edge1_Node000001_Node000002"><a xlink:title=" ">
<path fill="none" stroke="#63b8ff" d="M425.73,-49.49C415.08,-50.73 404.25,-51.99 393.69,-53.22"/>
<polygon fill="#63b8ff" stroke="#63b8ff" points="426.34,-52.94 435.87,-48.31 425.53,-45.99 426.34,-52.94"/>
</a>
</g>
</g>
<!-- Node4 -->
<g id="Node000004" class="node">
<title>Node4</title>
<g id="a_Node000004"><a xlink:href="classAGameCharacter.html#a4d6fa9eb1445927b3e92a4e07ffbd0e3" target="_top" xlink:title="몽타주 알림 델리게이트 연결을 해제합니다.">
<polygon fill="white" stroke="#666666" points="400,-30 217,-30 217,0 400,0 400,-30"/>
<text text-anchor="start" x="225" y="-18" font-family="Malgun Gothic" font-size="10.00">AGameCharacter::UnbindMontage</text>
<text text-anchor="middle" x="308.5" y="-7" font-family="Malgun Gothic" font-size="10.00">Delegates</text>
</a>
</g>
</g>
<!-- Node1&#45;&gt;Node4 -->
<g id="edge3_Node000001_Node000004" class="edge">
<title>Node1&#45;&gt;Node4</title>
<g id="a_edge3_Node000001_Node000004"><a xlink:title=" ">
<path fill="none" stroke="#63b8ff" d="M425.93,-28.53C417.4,-27.54 408.76,-26.54 400.23,-25.54"/>
<polygon fill="#63b8ff" stroke="#63b8ff" points="425.53,-32.01 435.87,-29.69 426.34,-25.06 425.53,-32.01"/>
</a>
</g>
</g>
<!-- Node3 -->
<g id="Node000003" class="node">
<title>Node3</title>
<g id="a_Node000003"><a xlink:href="classAGameCharacter.html#ac1b16c52de76390cf656959518d1d795" target="_top" xlink:title=" ">
<polygon fill="white" stroke="#666666" points="181,-78 0,-78 0,-48 181,-48 181,-78"/>
<text text-anchor="start" x="8" y="-66" font-family="Malgun Gothic" font-size="10.00">AGameCharacter::SetupCharacter</text>
<text text-anchor="middle" x="90.5" y="-55" font-family="Malgun Gothic" font-size="10.00">FromType</text>
</a>
</g>
</g>
<!-- Node2&#45;&gt;Node3 -->
<g id="edge2_Node000002_Node000003" class="edge">
<title>Node2&#45;&gt;Node3</title>
<g id="a_edge2_Node000002_Node000003"><a xlink:title=" ">
<path fill="none" stroke="#63b8ff" d="M213.22,-63C202.56,-63 191.71,-63 181.11,-63"/>
<polygon fill="#63b8ff" stroke="#63b8ff" points="213.37,-66.5 223.37,-63 213.37,-59.5 213.37,-66.5"/>
</a>
</g>
</g>
<!-- Node5 -->
<g id="Node000005" class="node">
<title>Node5</title>
<g id="a_Node000005"><a xlink:href="classAGameCharacter.html#a843e2c23cabd6a5b956ae4f7178276b0" target="_top" xlink:title="플레이 종료 시 리소스를 해제합니다.">
<polygon fill="white" stroke="#666666" points="163,-24.5 18,-24.5 18,-5.5 163,-5.5 163,-24.5"/>
<text text-anchor="middle" x="90.5" y="-12.5" font-family="Malgun Gothic" font-size="10.00">AGameCharacter::EndPlay</text>
</a>
</g>
</g>
<!-- Node4&#45;&gt;Node5 -->
<g id="edge4_Node000004_Node000005" class="edge">
<title>Node4&#45;&gt;Node5</title>
<g id="a_edge4_Node000004_Node000005"><a xlink:title=" ">
<path fill="none" stroke="#63b8ff" d="M206.71,-15C192.03,-15 177.18,-15 163.23,-15"/>
<polygon fill="#63b8ff" stroke="#63b8ff" points="206.84,-18.5 216.84,-15 206.84,-11.5 206.84,-18.5"/>
</a>
</g>
</g>
</g>
</svg>

<g id="navigator" transform="translate(0 0)" fill="#404254">
  <rect fill="#f2f5e9" fill-opacity="0.5" stroke="#606060" stroke-width=".5" x="0" y="0" width="60" height="60"/>
  <use id="zoomplus" xlink:href="#zoomPlus" x="17" y="9" onmousedown="handleZoom(evt,'in')"/>
  <use id="zoomminus" xlink:href="#zoomMin" x="42" y="9" onmousedown="handleZoom(evt,'out')"/>
  <use id="reset" xlink:href="#resetDef" x="30" y="36" onmousedown="handleReset()"/>
   <use id="arrowup" xlink:href="#arrowUp" x="0" y="0" onmousedown="handlePan(0,-1)"/>
  <use id="arrowright" xlink:href="#arrowRight" x="0" y="0" onmousedown="handlePan(1,0)"/>
  <use id="arrowdown" xlink:href="#arrowDown" x="0" y="0" onmousedown="handlePan(0,1)"/>
  <use id="arrowleft" xlink:href="#arrowLeft" x="0" y="0" onmousedown="handlePan(-1,0)"/>
</g>
<svg viewBox="0 0 15 15" width="100%" height="30px" preserveAspectRatio="xMaxYMin meet">
 <g id="arrow_out" transform="scale(0.3 0.3)">
  <a xlink:href="classAGameCharacter_ad257873cd2be805e3f5ff94f199da294_icgraph_org.svg" target="_base">
   <rect id="button" ry="5" rx="5" y="6" x="6" height="38" width="38"
        fill="#f2f5e9" fill-opacity="0.5" stroke="#606060" stroke-width="1.0"/>
   <path id="arrow"
     d="M 11.500037,31.436501 C 11.940474,20.09759 22.043105,11.32322 32.158766,21.979434 L 37.068811,17.246167 C 37.068811,17.246167 37.088388,32 37.088388,32 L 22.160133,31.978069 C 22.160133,31.978069 26.997745,27.140456 26.997745,27.140456 C 18.528582,18.264221 13.291696,25.230495 11.500037,31.436501 z"
     style="fill:#404040;"/>
  </a>
 </g>
</svg>

<style type='text/css'>
<![CDATA[
[data-mouse-over-selected='false'] { opacity: 0.7; }
[data-mouse-over-selected='true']  { opacity: 1.0; }
]]>
</style>
<script type="application/ecmascript"><![CDATA[
document.addEventListener('DOMContentLoaded', (event) => {
  highlightEdges();
  highlightAdjacentNodes();
});
]]></script>
</svg>
