<?xml version="1.0" encoding="UTF-8" standalone="no"?>
<!DOCTYPE svg PUBLIC "-//W3C//DTD SVG 1.1//EN"
 "http://www.w3.org/Graphics/SVG/1.1/DTD/svg11.dtd">
<!-- Generated by graphviz version 2.43.0 (0)
 -->
<!-- Title: UMainWidget::ToggleChatBox Pages: 1 -->
<svg width="599pt" height="27pt"
 viewBox="0.00 0.00 599.00 27.00" xmlns="http://www.w3.org/2000/svg" xmlns:xlink="http://www.w3.org/1999/xlink">
<g id="graph0" class="graph" transform="scale(1 1) rotate(0) translate(4 23)">
<title>UMainWidget::ToggleChatBox</title>
<!-- Node1 -->
<g id="Node000001" class="node">
<title>Node1</title>
<g id="a_Node000001"><a xlink:title=" ">
<polygon fill="#999999" stroke="#666666" points="591,-19 430,-19 430,0 591,0 591,-19"/>
<text text-anchor="middle" x="510.5" y="-7" font-family="Malgun Gothic" font-size="10.00">UMainWidget::ToggleChatBox</text>
</a>
</g>
</g>
<!-- Node2 -->
<g id="Node000002" class="node">
<title>Node2</title>
<g id="a_Node000002"><a xlink:href="classUMainWidget.html#a3998cad132a8e6d11ce6c55262c07b05" target="_top" xlink:title=" ">
<polygon fill="white" stroke="#666666" points="394,-19 203,-19 203,0 394,0 394,-19"/>
<text text-anchor="middle" x="298.5" y="-7" font-family="Malgun Gothic" font-size="10.00">UMainWidget::OnMessageComitted</text>
</a>
</g>
</g>
<!-- Node1&#45;&gt;Node2 -->
<g id="edge1_Node000001_Node000002" class="edge">
<title>Node1&#45;&gt;Node2</title>
<g id="a_edge1_Node000001_Node000002"><a xlink:title=" ">
<path fill="none" stroke="#63b8ff" d="M419.65,-9.5C411.26,-9.5 402.73,-9.5 394.3,-9.5"/>
<polygon fill="#63b8ff" stroke="#63b8ff" points="419.81,-13 429.81,-9.5 419.81,-6 419.81,-13"/>
</a>
</g>
</g>
<!-- Node3 -->
<g id="Node000003" class="node">
<title>Node3</title>
<g id="a_Node000003"><a xlink:href="classUMainWidget.html#ab5b82b602efb97c7b4cd7a3c2d99d6e8" target="_top" xlink:title=" ">
<polygon fill="white" stroke="#666666" points="167,-19 0,-19 0,0 167,0 167,-19"/>
<text text-anchor="middle" x="83.5" y="-7" font-family="Malgun Gothic" font-size="10.00">UMainWidget::NativeConstruct</text>
</a>
</g>
</g>
<!-- Node2&#45;&gt;Node3 -->
<g id="edge2_Node000002_Node000003" class="edge">
<title>Node2&#45;&gt;Node3</title>
<g id="a_edge2_Node000002_Node000003"><a xlink:title=" ">
<path fill="none" stroke="#63b8ff" d="M192.77,-9.5C184.18,-9.5 175.57,-9.5 167.17,-9.5"/>
<polygon fill="#63b8ff" stroke="#63b8ff" points="192.83,-13 202.83,-9.5 192.83,-6 192.83,-13"/>
</a>
</g>
</g>
</g>
</svg>
