<?xml version="1.0" encoding="UTF-8" standalone="no"?>
<!DOCTYPE svg PUBLIC "-//W3C//DTD SVG 1.1//EN"
 "http://www.w3.org/Graphics/SVG/1.1/DTD/svg11.dtd">
<!-- Generated by graphviz version 2.43.0 (0)
 -->
<!-- Title: APlayerControl Pages: 1 -->
<svg width="146pt" height="457pt"
 viewBox="0.00 0.00 146.00 457.00" xmlns="http://www.w3.org/2000/svg" xmlns:xlink="http://www.w3.org/1999/xlink">
<g id="graph0" class="graph" transform="scale(1 1) rotate(0) translate(4 453)">
<title>APlayerControl</title>
<!-- Node1 -->
<g id="Node000001" class="node">
<title>Node1</title>
<g id="a_Node000001"><a xlink:title=" ">
<polygon fill="#999999" stroke="transparent" points="138,-364 0,-364 0,0 138,0 138,-364"/>
<text text-anchor="start" x="32.5" y="-352" font-family="Malgun Gothic" font-size="10.00">APlayerControl</text>
<text text-anchor="start" x="4" y="-337" font-family="Malgun Gothic" font-size="10.00">#</text>
<text text-anchor="start" x="17" y="-337" font-family="Malgun Gothic" font-size="10.00">IMC_Default</text>
<text text-anchor="start" x="4" y="-322" font-family="Malgun Gothic" font-size="10.00">+</text>
<text text-anchor="start" x="17" y="-322" font-family="Malgun Gothic" font-size="10.00">APlayerControl()</text>
<text text-anchor="start" x="4" y="-307" font-family="Malgun Gothic" font-size="10.00">#</text>
<text text-anchor="start" x="17" y="-307" font-family="Malgun Gothic" font-size="10.00">BeginPlay()</text>
<text text-anchor="start" x="4" y="-292" font-family="Malgun Gothic" font-size="10.00">#</text>
<text text-anchor="start" x="17" y="-292" font-family="Malgun Gothic" font-size="10.00">OnAltitudeDown()</text>
<text text-anchor="start" x="4" y="-277" font-family="Malgun Gothic" font-size="10.00">#</text>
<text text-anchor="start" x="17" y="-277" font-family="Malgun Gothic" font-size="10.00">OnAltitudeReleased()</text>
<text text-anchor="start" x="4" y="-262" font-family="Malgun Gothic" font-size="10.00">#</text>
<text text-anchor="start" x="17" y="-262" font-family="Malgun Gothic" font-size="10.00">OnAltitudeUp()</text>
<text text-anchor="start" x="4" y="-247" font-family="Malgun Gothic" font-size="10.00">#</text>
<text text-anchor="start" x="17" y="-247" font-family="Malgun Gothic" font-size="10.00">OnChat()</text>
<text text-anchor="start" x="4" y="-232" font-family="Malgun Gothic" font-size="10.00">#</text>
<text text-anchor="start" x="17" y="-232" font-family="Malgun Gothic" font-size="10.00">OnJump()</text>
<text text-anchor="start" x="4" y="-217" font-family="Malgun Gothic" font-size="10.00">#</text>
<text text-anchor="start" x="17" y="-217" font-family="Malgun Gothic" font-size="10.00">OnLanding()</text>
<text text-anchor="start" x="4" y="-202" font-family="Malgun Gothic" font-size="10.00">#</text>
<text text-anchor="start" x="17" y="-202" font-family="Malgun Gothic" font-size="10.00">OnLook()</text>
<text text-anchor="start" x="4" y="-187" font-family="Malgun Gothic" font-size="10.00">#</text>
<text text-anchor="start" x="17" y="-187" font-family="Malgun Gothic" font-size="10.00">OnMove()</text>
<text text-anchor="start" x="4" y="-172" font-family="Malgun Gothic" font-size="10.00">#</text>
<text text-anchor="start" x="17" y="-172" font-family="Malgun Gothic" font-size="10.00">OnRecordPressed()</text>
<text text-anchor="start" x="4" y="-157" font-family="Malgun Gothic" font-size="10.00">#</text>
<text text-anchor="start" x="17" y="-157" font-family="Malgun Gothic" font-size="10.00">OnRecordReleased()</text>
<text text-anchor="start" x="4" y="-142" font-family="Malgun Gothic" font-size="10.00">#</text>
<text text-anchor="start" x="17" y="-142" font-family="Malgun Gothic" font-size="10.00">SetupInputComponent()</text>
<text text-anchor="start" x="4" y="-127" font-family="Malgun Gothic" font-size="10.00">#</text>
<text text-anchor="start" x="17" y="-127" font-family="Malgun Gothic" font-size="10.00">UPROPERTY()</text>
<text text-anchor="start" x="4" y="-112" font-family="Malgun Gothic" font-size="10.00">#</text>
<text text-anchor="start" x="17" y="-112" font-family="Malgun Gothic" font-size="10.00">UPROPERTY()</text>
<text text-anchor="start" x="4" y="-97" font-family="Malgun Gothic" font-size="10.00">#</text>
<text text-anchor="start" x="17" y="-97" font-family="Malgun Gothic" font-size="10.00">UPROPERTY()</text>
<text text-anchor="start" x="4" y="-82" font-family="Malgun Gothic" font-size="10.00">#</text>
<text text-anchor="start" x="17" y="-82" font-family="Malgun Gothic" font-size="10.00">UPROPERTY()</text>
<text text-anchor="start" x="4" y="-67" font-family="Malgun Gothic" font-size="10.00">#</text>
<text text-anchor="start" x="17" y="-67" font-family="Malgun Gothic" font-size="10.00">UPROPERTY()</text>
<text text-anchor="start" x="4" y="-52" font-family="Malgun Gothic" font-size="10.00">#</text>
<text text-anchor="start" x="17" y="-52" font-family="Malgun Gothic" font-size="10.00">UPROPERTY()</text>
<text text-anchor="start" x="4" y="-37" font-family="Malgun Gothic" font-size="10.00">#</text>
<text text-anchor="start" x="17" y="-37" font-family="Malgun Gothic" font-size="10.00">UPROPERTY()</text>
<text text-anchor="start" x="4" y="-22" font-family="Malgun Gothic" font-size="10.00">#</text>
<text text-anchor="start" x="17" y="-22" font-family="Malgun Gothic" font-size="10.00">UPROPERTY()</text>
<text text-anchor="start" x="6.5" y="-7" font-family="Malgun Gothic" font-size="10.00">&#45;</text>
<text text-anchor="start" x="17" y="-7" font-family="Malgun Gothic" font-size="10.00">GetControllable()</text>
<polygon fill="#666666" stroke="#666666" points="0,-347 0,-347 138,-347 138,-347 0,-347"/>
<polygon fill="#666666" stroke="#666666" points="0,-332 0,-332 15,-332 15,-332 0,-332"/>
<polygon fill="#666666" stroke="#666666" points="15,-332 15,-332 138,-332 138,-332 15,-332"/>
<polygon fill="none" stroke="#666666" points="0,0 0,-364 138,-364 138,0 0,0"/>
</a>
</g>
</g>
<!-- Node2 -->
<g id="Node000002" class="node">
<title>Node2</title>
<g id="a_Node000002"><a xlink:title=" ">
<polygon fill="white" stroke="transparent" points="117,-449 21,-449 21,-400 117,-400 117,-449"/>
<text text-anchor="start" x="26" y="-436.5" font-family="Malgun Gothic" font-size="10.00">APlayerController</text>
<text text-anchor="start" x="67" y="-421.5" font-family="Malgun Gothic" font-size="10.00"> </text>
<text text-anchor="start" x="67" y="-406.5" font-family="Malgun Gothic" font-size="10.00"> </text>
<polygon fill="#666666" stroke="#666666" points="21,-431.5 21,-431.5 117,-431.5 117,-431.5 21,-431.5"/>
<polygon fill="#666666" stroke="#666666" points="21,-416.5 21,-416.5 117,-416.5 117,-416.5 21,-416.5"/>
<polygon fill="none" stroke="#666666" points="21,-400 21,-449 117,-449 117,-400 21,-400"/>
</a>
</g>
</g>
<!-- Node2&#45;&gt;Node1 -->
<g id="edge1_Node000001_Node000002" class="edge">
<title>Node2&#45;&gt;Node1</title>
<g id="a_edge1_Node000001_Node000002"><a xlink:title=" ">
<path fill="none" stroke="#63b8ff" d="M69,-389.48C69,-381.87 69,-373.29 69,-364.06"/>
<polygon fill="none" stroke="#63b8ff" points="65.5,-389.56 69,-399.56 72.5,-389.56 65.5,-389.56"/>
</a>
</g>
</g>
</g>
</svg>
