<?xml version="1.0" encoding="UTF-8" standalone="no"?>
<!DOCTYPE svg PUBLIC "-//W3C//DTD SVG 1.1//EN"
 "http://www.w3.org/Graphics/SVG/1.1/DTD/svg11.dtd">
<!-- Generated by graphviz version 2.43.0 (0)
 -->
<!-- Title: UBroadcastManger Pages: 1 -->
<svg width="188pt" height="433pt"
 viewBox="0.00 0.00 188.00 433.00" xmlns="http://www.w3.org/2000/svg" xmlns:xlink="http://www.w3.org/1999/xlink">

<svg id="main" version="1.1" xmlns="http://www.w3.org/2000/svg" xmlns:xlink="http://www.w3.org/1999/xlink" xml:space="preserve" onload="init(evt)">
<style type="text/css"><![CDATA[
.node, .edge {opacity: 0.7;}
.node.selected, .edge.selected {opacity: 1;}
.edge:hover path { stroke: red; }
.edge:hover polygon { stroke: red; fill: red; }
]]></style>
<script type="application/ecmascript" xlink:href="svg.min.js"/>
<svg id="graph" class="graph">
<g id="graph0" class="graph" transform="scale(1 1) rotate(0) translate(4 429)">
<title>UBroadcastManger</title>
<!-- Node1 -->
<g id="Node000001" class="node">
<title>Node1</title>
<g id="a_Node000001"><a xlink:title=" ">
<polygon fill="#999999" stroke="transparent" points="180,-340 0,-340 0,0 180,0 180,-340"/>
<text text-anchor="start" x="43" y="-328" font-family="Malgun Gothic" font-size="10.00">UBroadcastManger</text>
<text text-anchor="start" x="4" y="-313" font-family="Malgun Gothic" font-size="10.00">+</text>
<text text-anchor="start" x="17" y="-313" font-family="Malgun Gothic" font-size="10.00">OnCameraShake</text>
<text text-anchor="start" x="4" y="-298" font-family="Malgun Gothic" font-size="10.00">+</text>
<text text-anchor="start" x="17" y="-298" font-family="Malgun Gothic" font-size="10.00">OnForceCameraShake</text>
<text text-anchor="start" x="4" y="-283" font-family="Malgun Gothic" font-size="10.00">+</text>
<text text-anchor="start" x="17" y="-283" font-family="Malgun Gothic" font-size="10.00">OnHitStop</text>
<text text-anchor="start" x="4" y="-268" font-family="Malgun Gothic" font-size="10.00">+</text>
<text text-anchor="start" x="17" y="-268" font-family="Malgun Gothic" font-size="10.00">OnKnockback</text>
<text text-anchor="start" x="4" y="-253" font-family="Malgun Gothic" font-size="10.00">+</text>
<text text-anchor="start" x="17" y="-253" font-family="Malgun Gothic" font-size="10.00">OnMessage</text>
<text text-anchor="start" x="4" y="-238" font-family="Malgun Gothic" font-size="10.00">+</text>
<text text-anchor="start" x="17" y="-238" font-family="Malgun Gothic" font-size="10.00">DECLARE_DYNAMIC_MULTICAST</text>
<text text-anchor="start" x="17" y="-227" font-family="Malgun Gothic" font-size="10.00">_DELEGATE_FourParams()</text>
<text text-anchor="start" x="4" y="-212" font-family="Malgun Gothic" font-size="10.00">+</text>
<text text-anchor="start" x="17" y="-212" font-family="Malgun Gothic" font-size="10.00">DECLARE_DYNAMIC_MULTICAST</text>
<text text-anchor="start" x="17" y="-201" font-family="Malgun Gothic" font-size="10.00">_DELEGATE_OneParam()</text>
<text text-anchor="start" x="4" y="-186" font-family="Malgun Gothic" font-size="10.00">+</text>
<text text-anchor="start" x="17" y="-186" font-family="Malgun Gothic" font-size="10.00">DECLARE_DYNAMIC_MULTICAST</text>
<text text-anchor="start" x="17" y="-175" font-family="Malgun Gothic" font-size="10.00">_DELEGATE_OneParam()</text>
<text text-anchor="start" x="4" y="-160" font-family="Malgun Gothic" font-size="10.00">+</text>
<text text-anchor="start" x="17" y="-160" font-family="Malgun Gothic" font-size="10.00">DECLARE_DYNAMIC_MULTICAST</text>
<text text-anchor="start" x="17" y="-149" font-family="Malgun Gothic" font-size="10.00">_DELEGATE_TwoParams()</text>
<text text-anchor="start" x="4" y="-134" font-family="Malgun Gothic" font-size="10.00">+</text>
<text text-anchor="start" x="17" y="-134" font-family="Malgun Gothic" font-size="10.00">DECLARE_DYNAMIC_MULTICAST</text>
<text text-anchor="start" x="17" y="-123" font-family="Malgun Gothic" font-size="10.00">_DELEGATE_TwoParams()</text>
<text text-anchor="start" x="4" y="-108" font-family="Malgun Gothic" font-size="10.00">+</text>
<text text-anchor="start" x="17" y="-108" font-family="Malgun Gothic" font-size="10.00">DEFINE_SUBSYSTEM_GETTER</text>
<text text-anchor="start" x="17" y="-97" font-family="Malgun Gothic" font-size="10.00">_INLINE()</text>
<text text-anchor="start" x="4" y="-82" font-family="Malgun Gothic" font-size="10.00">+</text>
<text text-anchor="start" x="17" y="-82" font-family="Malgun Gothic" font-size="10.00">SendCameraShake()</text>
<text text-anchor="start" x="4" y="-67" font-family="Malgun Gothic" font-size="10.00">+</text>
<text text-anchor="start" x="17" y="-67" font-family="Malgun Gothic" font-size="10.00">SendForceCameraShake()</text>
<text text-anchor="start" x="4" y="-52" font-family="Malgun Gothic" font-size="10.00">+</text>
<text text-anchor="start" x="17" y="-52" font-family="Malgun Gothic" font-size="10.00">SendHitStop()</text>
<text text-anchor="start" x="4" y="-37" font-family="Malgun Gothic" font-size="10.00">+</text>
<text text-anchor="start" x="17" y="-37" font-family="Malgun Gothic" font-size="10.00">SendHitStopPair()</text>
<text text-anchor="start" x="4" y="-22" font-family="Malgun Gothic" font-size="10.00">+</text>
<text text-anchor="start" x="17" y="-22" font-family="Malgun Gothic" font-size="10.00">SendKnockback()</text>
<text text-anchor="start" x="4" y="-7" font-family="Malgun Gothic" font-size="10.00">+</text>
<text text-anchor="start" x="17" y="-7" font-family="Malgun Gothic" font-size="10.00">SendMessage()</text>
<polygon fill="#666666" stroke="#666666" points="0,-323 0,-323 180,-323 180,-323 0,-323"/>
<polygon fill="#666666" stroke="#666666" points="0,-248 0,-248 15,-248 15,-248 0,-248"/>
<polygon fill="#666666" stroke="#666666" points="15,-248 15,-248 180,-248 180,-248 15,-248"/>
<polygon fill="none" stroke="#666666" points="0,0 0,-340 180,-340 180,0 0,0"/>
</a>
</g>
</g>
<!-- Node2 -->
<g id="Node000002" class="node">
<title>Node2</title>
<g id="a_Node000002"><a xlink:title=" ">
<polygon fill="white" stroke="transparent" points="161.5,-425 18.5,-425 18.5,-376 161.5,-376 161.5,-425"/>
<text text-anchor="start" x="24" y="-412.5" font-family="Malgun Gothic" font-size="10.00">UGameInstanceSubsystem</text>
<text text-anchor="start" x="88.5" y="-397.5" font-family="Malgun Gothic" font-size="10.00"> </text>
<text text-anchor="start" x="88.5" y="-382.5" font-family="Malgun Gothic" font-size="10.00"> </text>
<polygon fill="#666666" stroke="#666666" points="19,-407.5 19,-407.5 162,-407.5 162,-407.5 19,-407.5"/>
<polygon fill="#666666" stroke="#666666" points="19,-392.5 19,-392.5 162,-392.5 162,-392.5 19,-392.5"/>
<polygon fill="none" stroke="#666666" points="18.5,-376 18.5,-425 161.5,-425 161.5,-376 18.5,-376"/>
</a>
</g>
</g>
<!-- Node2&#45;&gt;Node1 -->
<g id="edge1_Node000001_Node000002" class="edge">
<title>Node2&#45;&gt;Node1</title>
<g id="a_edge1_Node000001_Node000002"><a xlink:title=" ">
<path fill="none" stroke="#63b8ff" d="M90,-365.76C90,-358.08 90,-349.43 90,-340.14"/>
<polygon fill="none" stroke="#63b8ff" points="86.5,-365.91 90,-375.91 93.5,-365.91 86.5,-365.91"/>
</a>
</g>
</g>
</g>
</svg>
</svg>

<style type='text/css'>
<![CDATA[
[data-mouse-over-selected='false'] { opacity: 0.7; }
[data-mouse-over-selected='true']  { opacity: 1.0; }
]]>
</style>
<script type="application/ecmascript"><![CDATA[
document.addEventListener('DOMContentLoaded', (event) => {
  highlightEdges();
  highlightAdjacentNodes();
});
]]></script>
</svg>
