<?xml version="1.0" encoding="UTF-8" standalone="no"?>
<!DOCTYPE svg PUBLIC "-//W3C//DTD SVG 1.1//EN"
 "http://www.w3.org/Graphics/SVG/1.1/DTD/svg11.dtd">
<!-- Generated by graphviz version 2.43.0 (0)
 -->
<!-- Title: UHttpNetworkSystem::RequestHelpChat Pages: 1 -->
<svg width="489pt" height="172pt"
 viewBox="0.00 0.00 489.00 172.00" xmlns="http://www.w3.org/2000/svg" xmlns:xlink="http://www.w3.org/1999/xlink">

<svg id="main" version="1.1" xmlns="http://www.w3.org/2000/svg" xmlns:xlink="http://www.w3.org/1999/xlink" xml:space="preserve" onload="init(evt)">
<style type="text/css"><![CDATA[
.node, .edge {opacity: 0.7;}
.node.selected, .edge.selected {opacity: 1;}
.edge:hover path { stroke: red; }
.edge:hover polygon { stroke: red; fill: red; }
]]></style>
<script type="application/ecmascript" xlink:href="svg.min.js"/>
<svg id="graph" class="graph">
<g id="graph0" class="graph" transform="scale(1 1) rotate(0) translate(4 168)">
<title>UHttpNetworkSystem::RequestHelpChat</title>
<!-- Node1 -->
<g id="Node000001" class="node">
<title>Node1</title>
<g id="a_Node000001"><a xlink:title=" ">
<polygon fill="#999999" stroke="#666666" points="123,-78 0,-78 0,-48 123,-48 123,-78"/>
<text text-anchor="start" x="8" y="-66" font-family="Malgun Gothic" font-size="10.00">UHttpNetworkSystem</text>
<text text-anchor="middle" x="61.5" y="-55" font-family="Malgun Gothic" font-size="10.00">::RequestHelpChat</text>
</a>
</g>
</g>
<!-- Node2 -->
<g id="Node000002" class="node">
<title>Node2</title>
<g id="a_Node000002"><a xlink:href="namespaceNetworkConfig.html#ab5ac57e8f51de6d1740c7a88534a7246" target="_top" xlink:title=" ">
<polygon fill="white" stroke="#666666" points="302,-115.5 159,-115.5 159,-96.5 302,-96.5 302,-115.5"/>
<text text-anchor="middle" x="230.5" y="-103.5" font-family="Malgun Gothic" font-size="10.00">NetworkConfig::GetFullUrl</text>
</a>
</g>
</g>
<!-- Node1&#45;&gt;Node2 -->
<g id="edge1_Node000001_Node000002" class="edge">
<title>Node1&#45;&gt;Node2</title>
<g id="a_edge1_Node000001_Node000002"><a xlink:title=" ">
<path fill="none" stroke="#63b8ff" d="M120.91,-78.04C141.09,-83.24 163.43,-88.99 182.58,-93.92"/>
<polygon fill="#63b8ff" stroke="#63b8ff" points="181.71,-97.31 192.27,-96.41 183.46,-90.53 181.71,-97.31"/>
</a>
</g>
</g>
<!-- Node5 -->
<g id="Node000005" class="node">
<title>Node5</title>
<g id="a_Node000005"><a xlink:href="classUHttpNetworkSystem.html#a7e1c4594cecb3e83131e17106e654d07" target="_top" xlink:title=" ">
<polygon fill="white" stroke="#666666" points="292,-78 169,-78 169,-48 292,-48 292,-78"/>
<text text-anchor="start" x="177" y="-66" font-family="Malgun Gothic" font-size="10.00">UHttpNetworkSystem</text>
<text text-anchor="middle" x="230.5" y="-55" font-family="Malgun Gothic" font-size="10.00">::LogNetwork</text>
</a>
</g>
</g>
<!-- Node1&#45;&gt;Node5 -->
<g id="edge4_Node000001_Node000005" class="edge">
<title>Node1&#45;&gt;Node5</title>
<g id="a_edge4_Node000001_Node000005"><a xlink:title=" ">
<path fill="none" stroke="#63b8ff" d="M123.26,-63C134.73,-63 146.82,-63 158.57,-63"/>
<polygon fill="#63b8ff" stroke="#63b8ff" points="158.78,-66.5 168.78,-63 158.78,-59.5 158.78,-66.5"/>
</a>
</g>
</g>
<!-- Node7 -->
<g id="Node000007" class="node">
<title>Node7</title>
<g id="a_Node000007"><a xlink:href="structFResponseHelpChat.html#a30c62d88977231fafede1a75d932b62a" target="_top" xlink:title=" ">
<polygon fill="white" stroke="#666666" points="293,-30 168,-30 168,0 293,0 293,-30"/>
<text text-anchor="start" x="176" y="-18" font-family="Malgun Gothic" font-size="10.00">FResponseHelpChat::</text>
<text text-anchor="middle" x="230.5" y="-7" font-family="Malgun Gothic" font-size="10.00">SetFromHttpResponse</text>
</a>
</g>
</g>
<!-- Node1&#45;&gt;Node7 -->
<g id="edge6_Node000001_Node000007" class="edge">
<title>Node1&#45;&gt;Node7</title>
<g id="a_edge6_Node000001_Node000007"><a xlink:title=" ">
<path fill="none" stroke="#63b8ff" d="M114.88,-47.94C131.51,-43.16 150.07,-37.83 167.32,-32.87"/>
<polygon fill="#63b8ff" stroke="#63b8ff" points="168.66,-36.13 177.3,-30 166.73,-29.4 168.66,-36.13"/>
</a>
</g>
</g>
<!-- Node3 -->
<g id="Node000003" class="node">
<title>Node3</title>
<g id="a_Node000003"><a xlink:href="classUCustomNetworkSettings.html#aa089b67ac992ff3aee3dd62629c0df0a" target="_top" xlink:title=" ">
<polygon fill="white" stroke="#666666" points="481,-164 338,-164 338,-134 481,-134 481,-164"/>
<text text-anchor="start" x="346" y="-152" font-family="Malgun Gothic" font-size="10.00">UCustomNetworkSettings</text>
<text text-anchor="middle" x="409.5" y="-141" font-family="Malgun Gothic" font-size="10.00">::GetCurrentServerMode</text>
</a>
</g>
</g>
<!-- Node2&#45;&gt;Node3 -->
<g id="edge2_Node000002_Node000003" class="edge">
<title>Node2&#45;&gt;Node3</title>
<g id="a_edge2_Node000002_Node000003"><a xlink:title=" ">
<path fill="none" stroke="#63b8ff" d="M270.78,-115.54C290.21,-120.26 314.28,-126.11 336.84,-131.59"/>
<polygon fill="#63b8ff" stroke="#63b8ff" points="336.19,-135.03 346.73,-133.99 337.84,-128.23 336.19,-135.03"/>
</a>
</g>
</g>
<!-- Node4 -->
<g id="Node000004" class="node">
<title>Node4</title>
<g id="a_Node000004"><a xlink:href="structFServerConfig.html#ab65e0b73b4679e5efb155dd6f98bac3d" target="_top" xlink:title=" ">
<polygon fill="white" stroke="#666666" points="479,-115.5 340,-115.5 340,-96.5 479,-96.5 479,-115.5"/>
<text text-anchor="middle" x="409.5" y="-103.5" font-family="Malgun Gothic" font-size="10.00">FServerConfig::GetFullUrl</text>
</a>
</g>
</g>
<!-- Node2&#45;&gt;Node4 -->
<g id="edge3_Node000002_Node000004" class="edge">
<title>Node2&#45;&gt;Node4</title>
<g id="a_edge3_Node000002_Node000004"><a xlink:title=" ">
<path fill="none" stroke="#63b8ff" d="M302.22,-106C311.24,-106 320.53,-106 329.67,-106"/>
<polygon fill="#63b8ff" stroke="#63b8ff" points="329.91,-109.5 339.91,-106 329.91,-102.5 329.91,-109.5"/>
</a>
</g>
</g>
<!-- Node6 -->
<g id="Node000006" class="node">
<title>Node6</title>
<g id="a_Node000006"><a xlink:href="classUHttpNetworkSystem.html#ac1921af11a0ab9c5c5f0099d732076a3" target="_top" xlink:title=" ">
<polygon fill="white" stroke="#666666" points="471,-78 348,-78 348,-48 471,-48 471,-78"/>
<text text-anchor="start" x="356" y="-66" font-family="Malgun Gothic" font-size="10.00">UHttpNetworkSystem</text>
<text text-anchor="middle" x="409.5" y="-55" font-family="Malgun Gothic" font-size="10.00">::GetLogPrefix</text>
</a>
</g>
</g>
<!-- Node5&#45;&gt;Node6 -->
<g id="edge5_Node000005_Node000006" class="edge">
<title>Node5&#45;&gt;Node6</title>
<g id="a_edge5_Node000005_Node000006"><a xlink:title=" ">
<path fill="none" stroke="#63b8ff" d="M292.41,-63C306.96,-63 322.61,-63 337.56,-63"/>
<polygon fill="#63b8ff" stroke="#63b8ff" points="337.77,-66.5 347.77,-63 337.77,-59.5 337.77,-66.5"/>
</a>
</g>
</g>
</g>
</svg>
</svg>

<style type='text/css'>
<![CDATA[
[data-mouse-over-selected='false'] { opacity: 0.7; }
[data-mouse-over-selected='true']  { opacity: 1.0; }
]]>
</style>
<script type="application/ecmascript"><![CDATA[
document.addEventListener('DOMContentLoaded', (event) => {
  highlightEdges();
  highlightAdjacentNodes();
});
]]></script>
</svg>
