<?xml version="1.0" encoding="UTF-8" standalone="no"?>
<!DOCTYPE svg PUBLIC "-//W3C//DTD SVG 1.1//EN"
 "http://www.w3.org/Graphics/SVG/1.1/DTD/svg11.dtd">
<!-- Generated by graphviz version 2.43.0 (0)
 -->
<!-- Title: ALattePlayerCharacter Pages: 1 -->
<!--zoomable 1307 -->

<svg id="main" version="1.1" xmlns="http://www.w3.org/2000/svg" xmlns:xlink="http://www.w3.org/1999/xlink" xml:space="preserve" onload="init(evt)">
<style type="text/css"><![CDATA[
.node, .edge {opacity: 0.7;}
.node.selected, .edge.selected {opacity: 1;}
.edge:hover path { stroke: red; }
.edge:hover polygon { stroke: red; fill: red; }
]]></style>

<defs>
  <circle id="rim" cx="0" cy="0" r="7"/>
  <circle id="rim2" cx="0" cy="0" r="3.5"/>
  <g id="zoomPlus">
    <use xlink:href="#rim" fill="#404040"><set attributeName="fill" to="#808080" begin="zoomplus.mouseover" end="zoomplus.mouseout"/></use>
    <path d="M-4,0h8M0,-4v8" fill="none" stroke="white" stroke-width="1.5" pointer-events="none"/>
  </g>
  <g id="zoomMin">
    <use xlink:href="#rim" fill="#404040"><set attributeName="fill" to="#808080" begin="zoomminus.mouseover" end="zoomminus.mouseout"/></use>
    <path d="M-4,0h8" fill="none" stroke="white" stroke-width="1.5" pointer-events="none"/>
  </g>
  <g id="arrowUp" transform="translate(30 24)">
    <use xlink:href="#rim"/>
    <path pointer-events="none" fill="none" stroke="white" stroke-width="1.5" d="M0,-3.0v7 M-2.5,-0.5L0,-3.0L2.5,-0.5"/>
  </g>
  <g id="arrowRight" transform="rotate(90) translate(36 -43)">
    <use xlink:href="#rim"/>
    <path pointer-events="none" fill="none" stroke="white" stroke-width="1.5" d="M0,-3.0v7 M-2.5,-0.5L0,-3.0L2.5,-0.5"/>
  </g>
  <g id="arrowDown" transform="rotate(180) translate(-30 -48)">
    <use xlink:href="#rim"/>
    <path pointer-events="none" fill="none" stroke="white" stroke-width="1.5" d="M0,-3.0v7 M-2.5,-0.5L0,-3.0L2.5,-0.5"/>
  </g>
  <g id="arrowLeft" transform="rotate(270) translate(-36 17)">
    <use xlink:href="#rim"/>
    <path pointer-events="none" fill="none" stroke="white" stroke-width="1.5" d="M0,-3.0v7 M-2.5,-0.5L0,-3.0L2.5,-0.5"/>
  </g>
  <g id="resetDef">
    <use xlink:href="#rim2" fill="#404040"><set attributeName="fill" to="#808080" begin="reset.mouseover" end="reset.mouseout"/></use>
  </g>
</defs>
<script type="application/ecmascript">
var viewWidth = 322;
var viewHeight = 1307;
var sectionId = 'dynsection-1';
</script>
<script type="application/ecmascript" xlink:href="svg.min.js"/>
<svg id="graph" class="graph">
<g id="viewport">
<title>ALattePlayerCharacter</title>
<!-- Node1 -->
<g id="Node000001" class="node">
<title>Node1</title>
<g id="a_Node000001"><a xlink:title="Main character driven directly by the player.">
<polygon fill="#999999" stroke="transparent" points="245.5,-229 76.5,-229 76.5,0 245.5,0 245.5,-229"/>
<text text-anchor="start" x="106.5" y="-216.5" font-family="Malgun Gothic" font-size="10.00">ALattePlayerCharacter</text>
<text text-anchor="start" x="81" y="-201.5" font-family="Malgun Gothic" font-size="10.00">+</text>
<text text-anchor="start" x="94" y="-201.5" font-family="Malgun Gothic" font-size="10.00">CameraShakeSystem</text>
<text text-anchor="start" x="81" y="-186.5" font-family="Malgun Gothic" font-size="10.00">#</text>
<text text-anchor="start" x="94" y="-186.5" font-family="Malgun Gothic" font-size="10.00">FollowCamera</text>
<text text-anchor="start" x="81" y="-171.5" font-family="Malgun Gothic" font-size="10.00">#</text>
<text text-anchor="start" x="94" y="-171.5" font-family="Malgun Gothic" font-size="10.00">SpringArmComp</text>
<text text-anchor="start" x="81" y="-156.5" font-family="Malgun Gothic" font-size="10.00">+</text>
<text text-anchor="start" x="94" y="-156.5" font-family="Malgun Gothic" font-size="10.00">ALattePlayerCharacter()</text>
<text text-anchor="start" x="81" y="-141.5" font-family="Malgun Gothic" font-size="10.00">+</text>
<text text-anchor="start" x="94" y="-141.5" font-family="Malgun Gothic" font-size="10.00">Cmd_AltitudeDown()</text>
<text text-anchor="start" x="81" y="-126.5" font-family="Malgun Gothic" font-size="10.00">+</text>
<text text-anchor="start" x="94" y="-126.5" font-family="Malgun Gothic" font-size="10.00">Cmd_AltitudeReleased()</text>
<text text-anchor="start" x="81" y="-111.5" font-family="Malgun Gothic" font-size="10.00">+</text>
<text text-anchor="start" x="94" y="-111.5" font-family="Malgun Gothic" font-size="10.00">Cmd_AltitudeUp()</text>
<text text-anchor="start" x="81" y="-96.5" font-family="Malgun Gothic" font-size="10.00">+</text>
<text text-anchor="start" x="94" y="-96.5" font-family="Malgun Gothic" font-size="10.00">Cmd_Jump()</text>
<text text-anchor="start" x="81" y="-81.5" font-family="Malgun Gothic" font-size="10.00">+</text>
<text text-anchor="start" x="94" y="-81.5" font-family="Malgun Gothic" font-size="10.00">Cmd_Landing()</text>
<text text-anchor="start" x="81" y="-66.5" font-family="Malgun Gothic" font-size="10.00">+</text>
<text text-anchor="start" x="94" y="-66.5" font-family="Malgun Gothic" font-size="10.00">Cmd_Look()</text>
<text text-anchor="start" x="81" y="-51.5" font-family="Malgun Gothic" font-size="10.00">+</text>
<text text-anchor="start" x="94" y="-51.5" font-family="Malgun Gothic" font-size="10.00">Cmd_Move()</text>
<text text-anchor="start" x="81" y="-36.5" font-family="Malgun Gothic" font-size="10.00">+</text>
<text text-anchor="start" x="94" y="-36.5" font-family="Malgun Gothic" font-size="10.00">Landed()</text>
<text text-anchor="start" x="81" y="-21.5" font-family="Malgun Gothic" font-size="10.00">#</text>
<text text-anchor="start" x="94" y="-21.5" font-family="Malgun Gothic" font-size="10.00">BeginPlay()</text>
<text text-anchor="start" x="81" y="-6.5" font-family="Malgun Gothic" font-size="10.00">#</text>
<text text-anchor="start" x="94" y="-6.5" font-family="Malgun Gothic" font-size="10.00">SetupPlayerInputComponent()</text>
<polygon fill="#666666" stroke="#666666" points="77,-211.5 77,-211.5 246,-211.5 246,-211.5 77,-211.5"/>
<polygon fill="#666666" stroke="#666666" points="77,-166.5 77,-166.5 92,-166.5 92,-166.5 77,-166.5"/>
<polygon fill="#666666" stroke="#666666" points="92,-166.5 92,-166.5 246,-166.5 246,-166.5 92,-166.5"/>
<polygon fill="none" stroke="#666666" points="76.5,0 76.5,-229 245.5,-229 245.5,0 76.5,0"/>
</a>
</g>
</g>
<!-- Node2 -->
<g id="Node000002" class="node">
<title>Node2</title>
<g id="a_Node000002"><a xlink:href="classALatteGameCharacter.html" target="_top" xlink:title="전투, 능력치, 애니메이션 헬퍼를 연결하는 기반 캐릭터 구현입니다.">
<polygon fill="white" stroke="transparent" points="156,-1214 0,-1214 0,-265 156,-265 156,-1214"/>
<text text-anchor="start" x="23.5" y="-1201.5" font-family="Malgun Gothic" font-size="10.00">ALatteGameCharacter</text>
<text text-anchor="start" x="4" y="-1186.5" font-family="Malgun Gothic" font-size="10.00">+</text>
<text text-anchor="start" x="17" y="-1186.5" font-family="Malgun Gothic" font-size="10.00">CharacterData</text>
<text text-anchor="start" x="4" y="-1171.5" font-family="Malgun Gothic" font-size="10.00">+</text>
<text text-anchor="start" x="17" y="-1171.5" font-family="Malgun Gothic" font-size="10.00">DeathMontage</text>
<text text-anchor="start" x="4" y="-1156.5" font-family="Malgun Gothic" font-size="10.00">+</text>
<text text-anchor="start" x="17" y="-1156.5" font-family="Malgun Gothic" font-size="10.00">FlySystem</text>
<text text-anchor="start" x="4" y="-1141.5" font-family="Malgun Gothic" font-size="10.00">+</text>
<text text-anchor="start" x="17" y="-1141.5" font-family="Malgun Gothic" font-size="10.00">HitMontages</text>
<text text-anchor="start" x="4" y="-1126.5" font-family="Malgun Gothic" font-size="10.00">+</text>
<text text-anchor="start" x="17" y="-1126.5" font-family="Malgun Gothic" font-size="10.00">HitStopSystem</text>
<text text-anchor="start" x="4" y="-1111.5" font-family="Malgun Gothic" font-size="10.00">+</text>
<text text-anchor="start" x="17" y="-1111.5" font-family="Malgun Gothic" font-size="10.00">KnockbackSystem</text>
<text text-anchor="start" x="4" y="-1096.5" font-family="Malgun Gothic" font-size="10.00">+</text>
<text text-anchor="start" x="17" y="-1096.5" font-family="Malgun Gothic" font-size="10.00">StatSystem</text>
<text text-anchor="start" x="4" y="-1081.5" font-family="Malgun Gothic" font-size="10.00">+</text>
<text text-anchor="start" x="17" y="-1081.5" font-family="Malgun Gothic" font-size="10.00">TargetActor</text>
<text text-anchor="start" x="4" y="-1066.5" font-family="Malgun Gothic" font-size="10.00">#</text>
<text text-anchor="start" x="17" y="-1066.5" font-family="Malgun Gothic" font-size="10.00">AnimInstance</text>
<text text-anchor="start" x="4" y="-1051.5" font-family="Malgun Gothic" font-size="10.00">#</text>
<text text-anchor="start" x="17" y="-1051.5" font-family="Malgun Gothic" font-size="10.00">bDelegatesBound</text>
<text text-anchor="start" x="4" y="-1036.5" font-family="Malgun Gothic" font-size="10.00">#</text>
<text text-anchor="start" x="17" y="-1036.5" font-family="Malgun Gothic" font-size="10.00">bIsCombatResult</text>
<text text-anchor="start" x="4" y="-1021.5" font-family="Malgun Gothic" font-size="10.00">#</text>
<text text-anchor="start" x="17" y="-1021.5" font-family="Malgun Gothic" font-size="10.00">bIsCombatStart</text>
<text text-anchor="start" x="4" y="-1006.5" font-family="Malgun Gothic" font-size="10.00">#</text>
<text text-anchor="start" x="17" y="-1006.5" font-family="Malgun Gothic" font-size="10.00">bIsHold</text>
<text text-anchor="start" x="4" y="-991.5" font-family="Malgun Gothic" font-size="10.00">#</text>
<text text-anchor="start" x="17" y="-991.5" font-family="Malgun Gothic" font-size="10.00">bIsWinner</text>
<text text-anchor="start" x="4" y="-976.5" font-family="Malgun Gothic" font-size="10.00">#</text>
<text text-anchor="start" x="17" y="-976.5" font-family="Malgun Gothic" font-size="10.00">CharacterType</text>
<text text-anchor="start" x="4" y="-961.5" font-family="Malgun Gothic" font-size="10.00">#</text>
<text text-anchor="start" x="17" y="-961.5" font-family="Malgun Gothic" font-size="10.00">IsHit</text>
<text text-anchor="start" x="4" y="-946.5" font-family="Malgun Gothic" font-size="10.00">#</text>
<text text-anchor="start" x="17" y="-946.5" font-family="Malgun Gothic" font-size="10.00">LeftFootComp</text>
<text text-anchor="start" x="4" y="-931.5" font-family="Malgun Gothic" font-size="10.00">#</text>
<text text-anchor="start" x="17" y="-931.5" font-family="Malgun Gothic" font-size="10.00">LeftHandComp</text>
<text text-anchor="start" x="4" y="-916.5" font-family="Malgun Gothic" font-size="10.00">#</text>
<text text-anchor="start" x="17" y="-916.5" font-family="Malgun Gothic" font-size="10.00">MeshComp</text>
<text text-anchor="start" x="4" y="-901.5" font-family="Malgun Gothic" font-size="10.00">#</text>
<text text-anchor="start" x="17" y="-901.5" font-family="Malgun Gothic" font-size="10.00">MoveComp</text>
<text text-anchor="start" x="4" y="-886.5" font-family="Malgun Gothic" font-size="10.00">#</text>
<text text-anchor="start" x="17" y="-886.5" font-family="Malgun Gothic" font-size="10.00">PrevMoveMode</text>
<text text-anchor="start" x="4" y="-871.5" font-family="Malgun Gothic" font-size="10.00">#</text>
<text text-anchor="start" x="17" y="-871.5" font-family="Malgun Gothic" font-size="10.00">RightFootComp</text>
<text text-anchor="start" x="4" y="-856.5" font-family="Malgun Gothic" font-size="10.00">#</text>
<text text-anchor="start" x="17" y="-856.5" font-family="Malgun Gothic" font-size="10.00">RightHandComp</text>
<text text-anchor="start" x="4" y="-841.5" font-family="Malgun Gothic" font-size="10.00">#</text>
<text text-anchor="start" x="17" y="-841.5" font-family="Malgun Gothic" font-size="10.00">SightHalfFOVDeg</text>
<text text-anchor="start" x="4" y="-826.5" font-family="Malgun Gothic" font-size="10.00">#</text>
<text text-anchor="start" x="17" y="-826.5" font-family="Malgun Gothic" font-size="10.00">SightRange</text>
<text text-anchor="start" x="4" y="-811.5" font-family="Malgun Gothic" font-size="10.00">#</text>
<text text-anchor="start" x="17" y="-811.5" font-family="Malgun Gothic" font-size="10.00">TraceDrawTime</text>
<text text-anchor="start" x="4" y="-796.5" font-family="Malgun Gothic" font-size="10.00">#</text>
<text text-anchor="start" x="17" y="-796.5" font-family="Malgun Gothic" font-size="10.00">TraceLength</text>
<text text-anchor="start" x="4" y="-781.5" font-family="Malgun Gothic" font-size="10.00">#</text>
<text text-anchor="start" x="17" y="-781.5" font-family="Malgun Gothic" font-size="10.00">TraceRadius</text>
<text text-anchor="start" x="4" y="-766.5" font-family="Malgun Gothic" font-size="10.00">+</text>
<text text-anchor="start" x="17" y="-766.5" font-family="Malgun Gothic" font-size="10.00">ALatteGameCharacter()</text>
<text text-anchor="start" x="4" y="-751.5" font-family="Malgun Gothic" font-size="10.00">+</text>
<text text-anchor="start" x="17" y="-751.5" font-family="Malgun Gothic" font-size="10.00">CurHP()</text>
<text text-anchor="start" x="4" y="-736.5" font-family="Malgun Gothic" font-size="10.00">+</text>
<text text-anchor="start" x="17" y="-736.5" font-family="Malgun Gothic" font-size="10.00">GetAnimInstance()</text>
<text text-anchor="start" x="4" y="-721.5" font-family="Malgun Gothic" font-size="10.00">+</text>
<text text-anchor="start" x="17" y="-721.5" font-family="Malgun Gothic" font-size="10.00">GetAttackDamage()</text>
<text text-anchor="start" x="4" y="-706.5" font-family="Malgun Gothic" font-size="10.00">+</text>
<text text-anchor="start" x="17" y="-706.5" font-family="Malgun Gothic" font-size="10.00">GetBodyPart()</text>
<text text-anchor="start" x="4" y="-691.5" font-family="Malgun Gothic" font-size="10.00">+</text>
<text text-anchor="start" x="17" y="-691.5" font-family="Malgun Gothic" font-size="10.00">GetCharacterType()</text>
<text text-anchor="start" x="4" y="-676.5" font-family="Malgun Gothic" font-size="10.00">+</text>
<text text-anchor="start" x="17" y="-676.5" font-family="Malgun Gothic" font-size="10.00">IsAttackEnable()</text>
<text text-anchor="start" x="4" y="-661.5" font-family="Malgun Gothic" font-size="10.00">+</text>
<text text-anchor="start" x="17" y="-661.5" font-family="Malgun Gothic" font-size="10.00">IsCombatResult()</text>
<text text-anchor="start" x="4" y="-646.5" font-family="Malgun Gothic" font-size="10.00">+</text>
<text text-anchor="start" x="17" y="-646.5" font-family="Malgun Gothic" font-size="10.00">IsCombatStart()</text>
<text text-anchor="start" x="4" y="-631.5" font-family="Malgun Gothic" font-size="10.00">+</text>
<text text-anchor="start" x="17" y="-631.5" font-family="Malgun Gothic" font-size="10.00">IsControlEnable()</text>
<text text-anchor="start" x="4" y="-616.5" font-family="Malgun Gothic" font-size="10.00">+</text>
<text text-anchor="start" x="17" y="-616.5" font-family="Malgun Gothic" font-size="10.00">IsDead()</text>
<text text-anchor="start" x="4" y="-601.5" font-family="Malgun Gothic" font-size="10.00">+</text>
<text text-anchor="start" x="17" y="-601.5" font-family="Malgun Gothic" font-size="10.00">IsEnemy()</text>
<text text-anchor="start" x="4" y="-586.5" font-family="Malgun Gothic" font-size="10.00">+</text>
<text text-anchor="start" x="17" y="-586.5" font-family="Malgun Gothic" font-size="10.00">IsHitting()</text>
<text text-anchor="start" x="4" y="-571.5" font-family="Malgun Gothic" font-size="10.00">+</text>
<text text-anchor="start" x="17" y="-571.5" font-family="Malgun Gothic" font-size="10.00">IsHolding()</text>
<text text-anchor="start" x="4" y="-556.5" font-family="Malgun Gothic" font-size="10.00">+</text>
<text text-anchor="start" x="17" y="-556.5" font-family="Malgun Gothic" font-size="10.00">IsInSight()</text>
<text text-anchor="start" x="4" y="-541.5" font-family="Malgun Gothic" font-size="10.00">+</text>
<text text-anchor="start" x="17" y="-541.5" font-family="Malgun Gothic" font-size="10.00">IsMoveEnable()</text>
<text text-anchor="start" x="4" y="-526.5" font-family="Malgun Gothic" font-size="10.00">+</text>
<text text-anchor="start" x="17" y="-526.5" font-family="Malgun Gothic" font-size="10.00">IsPlayer()</text>
<text text-anchor="start" x="4" y="-511.5" font-family="Malgun Gothic" font-size="10.00">+</text>
<text text-anchor="start" x="17" y="-511.5" font-family="Malgun Gothic" font-size="10.00">IsWinner()</text>
<text text-anchor="start" x="4" y="-496.5" font-family="Malgun Gothic" font-size="10.00">+</text>
<text text-anchor="start" x="17" y="-496.5" font-family="Malgun Gothic" font-size="10.00">MaxHP()</text>
<text text-anchor="start" x="4" y="-481.5" font-family="Malgun Gothic" font-size="10.00">+</text>
<text text-anchor="start" x="17" y="-481.5" font-family="Malgun Gothic" font-size="10.00">OnFlyEnd()</text>
<text text-anchor="start" x="4" y="-466.5" font-family="Malgun Gothic" font-size="10.00">+</text>
<text text-anchor="start" x="17" y="-466.5" font-family="Malgun Gothic" font-size="10.00">OnLookTarget()</text>
<text text-anchor="start" x="4" y="-451.5" font-family="Malgun Gothic" font-size="10.00">+</text>
<text text-anchor="start" x="17" y="-451.5" font-family="Malgun Gothic" font-size="10.00">PlayTargetMontage()</text>
<text text-anchor="start" x="4" y="-436.5" font-family="Malgun Gothic" font-size="10.00">+</text>
<text text-anchor="start" x="17" y="-436.5" font-family="Malgun Gothic" font-size="10.00">PlayTypeMontage()</text>
<text text-anchor="start" x="4" y="-421.5" font-family="Malgun Gothic" font-size="10.00">+</text>
<text text-anchor="start" x="17" y="-421.5" font-family="Malgun Gothic" font-size="10.00">RecoveryMovementMode()</text>
<text text-anchor="start" x="4" y="-406.5" font-family="Malgun Gothic" font-size="10.00">+</text>
<text text-anchor="start" x="17" y="-406.5" font-family="Malgun Gothic" font-size="10.00">SetFallingToWalk()</text>
<text text-anchor="start" x="4" y="-391.5" font-family="Malgun Gothic" font-size="10.00">+</text>
<text text-anchor="start" x="17" y="-391.5" font-family="Malgun Gothic" font-size="10.00">SetFlying()</text>
<text text-anchor="start" x="4" y="-376.5" font-family="Malgun Gothic" font-size="10.00">+</text>
<text text-anchor="start" x="17" y="-376.5" font-family="Malgun Gothic" font-size="10.00">SetHold()</text>
<text text-anchor="start" x="4" y="-361.5" font-family="Malgun Gothic" font-size="10.00">+</text>
<text text-anchor="start" x="17" y="-361.5" font-family="Malgun Gothic" font-size="10.00">SetupCharacterFromType()</text>
<text text-anchor="start" x="4" y="-346.5" font-family="Malgun Gothic" font-size="10.00">+</text>
<text text-anchor="start" x="17" y="-346.5" font-family="Malgun Gothic" font-size="10.00">StopTargetMontage()</text>
<text text-anchor="start" x="4" y="-331.5" font-family="Malgun Gothic" font-size="10.00">#</text>
<text text-anchor="start" x="17" y="-331.5" font-family="Malgun Gothic" font-size="10.00">BeginPlay()</text>
<text text-anchor="start" x="4" y="-316.5" font-family="Malgun Gothic" font-size="10.00">#</text>
<text text-anchor="start" x="17" y="-316.5" font-family="Malgun Gothic" font-size="10.00">EndPlay()</text>
<text text-anchor="start" x="6.5" y="-301.5" font-family="Malgun Gothic" font-size="10.00">&#45;</text>
<text text-anchor="start" x="17" y="-301.5" font-family="Malgun Gothic" font-size="10.00">BindMontageDelegates()</text>
<text text-anchor="start" x="6.5" y="-286.5" font-family="Malgun Gothic" font-size="10.00">&#45;</text>
<text text-anchor="start" x="17" y="-286.5" font-family="Malgun Gothic" font-size="10.00">OnMontageNotifyBegin()</text>
<text text-anchor="start" x="6.5" y="-271.5" font-family="Malgun Gothic" font-size="10.00">&#45;</text>
<text text-anchor="start" x="17" y="-271.5" font-family="Malgun Gothic" font-size="10.00">UnbindMontageDelegates()</text>
<polygon fill="#666666" stroke="#666666" points="0,-1196.5 0,-1196.5 156,-1196.5 156,-1196.5 0,-1196.5"/>
<polygon fill="#666666" stroke="#666666" points="0,-776.5 0,-776.5 15,-776.5 15,-776.5 0,-776.5"/>
<polygon fill="#666666" stroke="#666666" points="15,-776.5 15,-776.5 156,-776.5 156,-776.5 15,-776.5"/>
<polygon fill="none" stroke="#666666" points="0,-265 0,-1214 156,-1214 156,-265 0,-265"/>
</a>
</g>
</g>
<!-- Node2&#45;&gt;Node1 -->
<g id="edge1_Node000001_Node000002" class="edge">
<title>Node2&#45;&gt;Node1</title>
<g id="a_edge1_Node000001_Node000002"><a xlink:title=" ">
<path fill="none" stroke="#63b8ff" d="M142.45,-254.76C143.61,-246.04 144.74,-237.57 145.82,-229.42"/>
<polygon fill="none" stroke="#63b8ff" points="138.97,-254.35 141.12,-264.72 145.91,-255.27 138.97,-254.35"/>
</a>
</g>
</g>
<!-- Node3 -->
<g id="Node000003" class="node">
<title>Node3</title>
<g id="a_Node000003"><a xlink:title=" ">
<polygon fill="white" stroke="transparent" points="110.5,-1299 45.5,-1299 45.5,-1250 110.5,-1250 110.5,-1299"/>
<text text-anchor="start" x="51" y="-1286.5" font-family="Malgun Gothic" font-size="10.00">ACharacter</text>
<text text-anchor="start" x="76.5" y="-1271.5" font-family="Malgun Gothic" font-size="10.00"> </text>
<text text-anchor="start" x="76.5" y="-1256.5" font-family="Malgun Gothic" font-size="10.00"> </text>
<polygon fill="#666666" stroke="#666666" points="46,-1281.5 46,-1281.5 111,-1281.5 111,-1281.5 46,-1281.5"/>
<polygon fill="#666666" stroke="#666666" points="46,-1266.5 46,-1266.5 111,-1266.5 111,-1266.5 46,-1266.5"/>
<polygon fill="none" stroke="#666666" points="45.5,-1250 45.5,-1299 110.5,-1299 110.5,-1250 45.5,-1250"/>
</a>
</g>
</g>
<!-- Node3&#45;&gt;Node2 -->
<g id="edge2_Node000002_Node000003" class="edge">
<title>Node3&#45;&gt;Node2</title>
<g id="a_edge2_Node000002_Node000003"><a xlink:title=" ">
<path fill="none" stroke="#63b8ff" d="M78,-1239.78C78,-1232.33 78,-1223.81 78,-1214.39"/>
<polygon fill="none" stroke="#63b8ff" points="74.5,-1239.91 78,-1249.91 81.5,-1239.91 74.5,-1239.91"/>
</a>
</g>
</g>
<!-- Node4 -->
<g id="Node000004" class="node">
<title>Node4</title>
<g id="a_Node000004"><a xlink:href="classIControllable.html" target="_top" xlink:title=" ">
<polygon fill="white" stroke="transparent" points="314,-831.5 174,-831.5 174,-647.5 314,-647.5 314,-831.5"/>
<text text-anchor="start" x="212.5" y="-819.5" font-family="Malgun Gothic" font-size="10.00">IControllable</text>
<text text-anchor="start" x="242" y="-804.5" font-family="Malgun Gothic" font-size="10.00"> </text>
<text text-anchor="start" x="178" y="-789.5" font-family="Malgun Gothic" font-size="10.00">+</text>
<text text-anchor="start" x="191" y="-789.5" font-family="Malgun Gothic" font-size="10.00">Cmd_AltitudeDown()</text>
<text text-anchor="start" x="178" y="-774.5" font-family="Malgun Gothic" font-size="10.00">+</text>
<text text-anchor="start" x="191" y="-774.5" font-family="Malgun Gothic" font-size="10.00">Cmd_AltitudeReleased()</text>
<text text-anchor="start" x="178" y="-759.5" font-family="Malgun Gothic" font-size="10.00">+</text>
<text text-anchor="start" x="191" y="-759.5" font-family="Malgun Gothic" font-size="10.00">Cmd_AltitudeUp()</text>
<text text-anchor="start" x="178" y="-744.5" font-family="Malgun Gothic" font-size="10.00">+</text>
<text text-anchor="start" x="191" y="-744.5" font-family="Malgun Gothic" font-size="10.00">Cmd_Chat()</text>
<text text-anchor="start" x="178" y="-729.5" font-family="Malgun Gothic" font-size="10.00">+</text>
<text text-anchor="start" x="191" y="-729.5" font-family="Malgun Gothic" font-size="10.00">Cmd_Jump()</text>
<text text-anchor="start" x="178" y="-714.5" font-family="Malgun Gothic" font-size="10.00">+</text>
<text text-anchor="start" x="191" y="-714.5" font-family="Malgun Gothic" font-size="10.00">Cmd_Landing()</text>
<text text-anchor="start" x="178" y="-699.5" font-family="Malgun Gothic" font-size="10.00">+</text>
<text text-anchor="start" x="191" y="-699.5" font-family="Malgun Gothic" font-size="10.00">Cmd_Look()</text>
<text text-anchor="start" x="178" y="-684.5" font-family="Malgun Gothic" font-size="10.00">+</text>
<text text-anchor="start" x="191" y="-684.5" font-family="Malgun Gothic" font-size="10.00">Cmd_Move()</text>
<text text-anchor="start" x="178" y="-669.5" font-family="Malgun Gothic" font-size="10.00">+</text>
<text text-anchor="start" x="191" y="-669.5" font-family="Malgun Gothic" font-size="10.00">Cmd_RecordEnd()</text>
<text text-anchor="start" x="178" y="-654.5" font-family="Malgun Gothic" font-size="10.00">+</text>
<text text-anchor="start" x="191" y="-654.5" font-family="Malgun Gothic" font-size="10.00">Cmd_RecordStart()</text>
<polygon fill="#666666" stroke="#666666" points="174,-814.5 174,-814.5 314,-814.5 314,-814.5 174,-814.5"/>
<polygon fill="#666666" stroke="#666666" points="174,-799.5 174,-799.5 314,-799.5 314,-799.5 174,-799.5"/>
<polygon fill="none" stroke="#666666" points="174,-647.5 174,-831.5 314,-831.5 314,-647.5 174,-647.5"/>
</a>
</g>
</g>
<!-- Node4&#45;&gt;Node1 -->
<g id="edge3_Node000001_Node000004" class="edge">
<title>Node4&#45;&gt;Node1</title>
<g id="a_edge3_Node000001_Node000004"><a xlink:title=" ">
<path fill="none" stroke="#63b8ff" d="M230.52,-637.31C215.62,-525.48 191.68,-345.82 176.15,-229.21"/>
<polygon fill="none" stroke="#63b8ff" points="227.05,-637.79 231.84,-647.24 233.99,-636.87 227.05,-637.79"/>
</a>
</g>
</g>
</g>
</svg>

<g id="navigator" transform="translate(0 0)" fill="#404254">
  <rect fill="#f2f5e9" fill-opacity="0.5" stroke="#606060" stroke-width=".5" x="0" y="0" width="60" height="60"/>
  <use id="zoomplus" xlink:href="#zoomPlus" x="17" y="9" onmousedown="handleZoom(evt,'in')"/>
  <use id="zoomminus" xlink:href="#zoomMin" x="42" y="9" onmousedown="handleZoom(evt,'out')"/>
  <use id="reset" xlink:href="#resetDef" x="30" y="36" onmousedown="handleReset()"/>
   <use id="arrowup" xlink:href="#arrowUp" x="0" y="0" onmousedown="handlePan(0,-1)"/>
  <use id="arrowright" xlink:href="#arrowRight" x="0" y="0" onmousedown="handlePan(1,0)"/>
  <use id="arrowdown" xlink:href="#arrowDown" x="0" y="0" onmousedown="handlePan(0,1)"/>
  <use id="arrowleft" xlink:href="#arrowLeft" x="0" y="0" onmousedown="handlePan(-1,0)"/>
</g>
<svg viewBox="0 0 15 15" width="100%" height="30px" preserveAspectRatio="xMaxYMin meet">
 <g id="arrow_out" transform="scale(0.3 0.3)">
  <a xlink:href="classALattePlayerCharacter__coll__graph_org.svg" target="_base">
   <rect id="button" ry="5" rx="5" y="6" x="6" height="38" width="38"
        fill="#f2f5e9" fill-opacity="0.5" stroke="#606060" stroke-width="1.0"/>
   <path id="arrow"
     d="M 11.500037,31.436501 C 11.940474,20.09759 22.043105,11.32322 32.158766,21.979434 L 37.068811,17.246167 C 37.068811,17.246167 37.088388,32 37.088388,32 L 22.160133,31.978069 C 22.160133,31.978069 26.997745,27.140456 26.997745,27.140456 C 18.528582,18.264221 13.291696,25.230495 11.500037,31.436501 z"
     style="fill:#404040;"/>
  </a>
 </g>
</svg>

<style type='text/css'>
<![CDATA[
[data-mouse-over-selected='false'] { opacity: 0.7; }
[data-mouse-over-selected='true']  { opacity: 1.0; }
]]>
</style>
<script type="application/ecmascript"><![CDATA[
document.addEventListener('DOMContentLoaded', (event) => {
  highlightEdges();
  highlightAdjacentNodes();
});
]]></script>
</svg>
