<?xml version="1.0" encoding="UTF-8" standalone="no"?>
<!DOCTYPE svg PUBLIC "-//W3C//DTD SVG 1.1//EN"
 "http://www.w3.org/Graphics/SVG/1.1/DTD/svg11.dtd">
<!-- Generated by graphviz version 2.43.0 (0)
 -->
<!-- Title: UTweenAnimInstance Pages: 1 -->
<svg width="155pt" height="232pt"
 viewBox="0.00 0.00 155.00 232.00" xmlns="http://www.w3.org/2000/svg" xmlns:xlink="http://www.w3.org/1999/xlink">
<g id="graph0" class="graph" transform="scale(1 1) rotate(0) translate(4 228)">
<title>UTweenAnimInstance</title>
<!-- Node1 -->
<g id="Node000001" class="node">
<title>Node1</title>
<g id="a_Node000001"><a xlink:title="블루프린트에서 사용할 수 있는 간단한 트윈 애님 인스턴스.">
<polygon fill="#999999" stroke="transparent" points="147,-139 0,-139 0,0 147,0 147,-139"/>
<text text-anchor="start" x="21" y="-126.5" font-family="Malgun Gothic" font-size="10.00">UTweenAnimInstance</text>
<text text-anchor="start" x="4.5" y="-111.5" font-family="Malgun Gothic" font-size="10.00">+</text>
<text text-anchor="start" x="17.5" y="-111.5" font-family="Malgun Gothic" font-size="10.00">bActivate</text>
<text text-anchor="start" x="4.5" y="-96.5" font-family="Malgun Gothic" font-size="10.00">+</text>
<text text-anchor="start" x="17.5" y="-96.5" font-family="Malgun Gothic" font-size="10.00">EaseCurve</text>
<text text-anchor="start" x="4.5" y="-81.5" font-family="Malgun Gothic" font-size="10.00">+</text>
<text text-anchor="start" x="17.5" y="-81.5" font-family="Malgun Gothic" font-size="10.00">TweenAlpha</text>
<text text-anchor="start" x="4.5" y="-66.5" font-family="Malgun Gothic" font-size="10.00">+</text>
<text text-anchor="start" x="17.5" y="-66.5" font-family="Malgun Gothic" font-size="10.00">TweenDuration</text>
<text text-anchor="start" x="4.5" y="-51.5" font-family="Malgun Gothic" font-size="10.00">+</text>
<text text-anchor="start" x="17.5" y="-51.5" font-family="Malgun Gothic" font-size="10.00">ChangeState()</text>
<text text-anchor="start" x="4.5" y="-36.5" font-family="Malgun Gothic" font-size="10.00">+</text>
<text text-anchor="start" x="17.5" y="-36.5" font-family="Malgun Gothic" font-size="10.00">GetEasedAlpha()</text>
<text text-anchor="start" x="4.5" y="-21.5" font-family="Malgun Gothic" font-size="10.00">+</text>
<text text-anchor="start" x="17.5" y="-21.5" font-family="Malgun Gothic" font-size="10.00">NativeUpdateAnimation()</text>
<text text-anchor="start" x="4.5" y="-6.5" font-family="Malgun Gothic" font-size="10.00">+</text>
<text text-anchor="start" x="17.5" y="-6.5" font-family="Malgun Gothic" font-size="10.00">ResetAlpha()</text>
<polygon fill="#666666" stroke="#666666" points="0.5,-121.5 0.5,-121.5 147.5,-121.5 147.5,-121.5 0.5,-121.5"/>
<polygon fill="#666666" stroke="#666666" points="0.5,-61.5 0.5,-61.5 15.5,-61.5 15.5,-61.5 0.5,-61.5"/>
<polygon fill="#666666" stroke="#666666" points="15.5,-61.5 15.5,-61.5 147.5,-61.5 147.5,-61.5 15.5,-61.5"/>
<polygon fill="none" stroke="#666666" points="0,0 0,-139 147,-139 147,0 0,0"/>
</a>
</g>
</g>
<!-- Node2 -->
<g id="Node000002" class="node">
<title>Node2</title>
<g id="a_Node000002"><a xlink:title=" ">
<polygon fill="white" stroke="transparent" points="116,-224 31,-224 31,-175 116,-175 116,-224"/>
<text text-anchor="start" x="36.5" y="-211.5" font-family="Malgun Gothic" font-size="10.00">UAnimInstance</text>
<text text-anchor="start" x="72" y="-196.5" font-family="Malgun Gothic" font-size="10.00"> </text>
<text text-anchor="start" x="72" y="-181.5" font-family="Malgun Gothic" font-size="10.00"> </text>
<polygon fill="#666666" stroke="#666666" points="31.5,-206.5 31.5,-206.5 116.5,-206.5 116.5,-206.5 31.5,-206.5"/>
<polygon fill="#666666" stroke="#666666" points="31.5,-191.5 31.5,-191.5 116.5,-191.5 116.5,-191.5 31.5,-191.5"/>
<polygon fill="none" stroke="#666666" points="31,-175 31,-224 116,-224 116,-175 31,-175"/>
</a>
</g>
</g>
<!-- Node2&#45;&gt;Node1 -->
<g id="edge1_Node000001_Node000002" class="edge">
<title>Node2&#45;&gt;Node1</title>
<g id="a_edge1_Node000001_Node000002"><a xlink:title=" ">
<path fill="none" stroke="#63b8ff" d="M73.5,-164.48C73.5,-156.57 73.5,-147.86 73.5,-139.04"/>
<polygon fill="none" stroke="#63b8ff" points="70,-164.72 73.5,-174.72 77,-164.72 70,-164.72"/>
</a>
</g>
</g>
</g>
</svg>
