<?xml version="1.0" encoding="UTF-8" standalone="no"?>
<!DOCTYPE svg PUBLIC "-//W3C//DTD SVG 1.1//EN"
 "http://www.w3.org/Graphics/SVG/1.1/DTD/svg11.dtd">
<!-- Generated by graphviz version 2.43.0 (0)
 -->
<!-- Title: IControllable Pages: 1 -->
<svg width="364pt" height="517pt"
 viewBox="0.00 0.00 364.00 517.00" xmlns="http://www.w3.org/2000/svg" xmlns:xlink="http://www.w3.org/1999/xlink">
<g id="graph0" class="graph" transform="scale(1 1) rotate(0) translate(4 513)">
<title>IControllable</title>
<!-- Node1 -->
<g id="Node000001" class="node">
<title>Node1</title>
<g id="a_Node000001"><a xlink:title=" ">
<polygon fill="#999999" stroke="transparent" points="247.5,-509 107.5,-509 107.5,-325 247.5,-325 247.5,-509"/>
<text text-anchor="start" x="146" y="-497" font-family="Malgun Gothic" font-size="10.00">IControllable</text>
<text text-anchor="start" x="175.5" y="-482" font-family="Malgun Gothic" font-size="10.00"> </text>
<text text-anchor="start" x="111.5" y="-467" font-family="Malgun Gothic" font-size="10.00">+</text>
<text text-anchor="start" x="124.5" y="-467" font-family="Malgun Gothic" font-size="10.00">Cmd_AltitudeDown()</text>
<text text-anchor="start" x="111.5" y="-452" font-family="Malgun Gothic" font-size="10.00">+</text>
<text text-anchor="start" x="124.5" y="-452" font-family="Malgun Gothic" font-size="10.00">Cmd_AltitudeReleased()</text>
<text text-anchor="start" x="111.5" y="-437" font-family="Malgun Gothic" font-size="10.00">+</text>
<text text-anchor="start" x="124.5" y="-437" font-family="Malgun Gothic" font-size="10.00">Cmd_AltitudeUp()</text>
<text text-anchor="start" x="111.5" y="-422" font-family="Malgun Gothic" font-size="10.00">+</text>
<text text-anchor="start" x="124.5" y="-422" font-family="Malgun Gothic" font-size="10.00">Cmd_Chat()</text>
<text text-anchor="start" x="111.5" y="-407" font-family="Malgun Gothic" font-size="10.00">+</text>
<text text-anchor="start" x="124.5" y="-407" font-family="Malgun Gothic" font-size="10.00">Cmd_Jump()</text>
<text text-anchor="start" x="111.5" y="-392" font-family="Malgun Gothic" font-size="10.00">+</text>
<text text-anchor="start" x="124.5" y="-392" font-family="Malgun Gothic" font-size="10.00">Cmd_Landing()</text>
<text text-anchor="start" x="111.5" y="-377" font-family="Malgun Gothic" font-size="10.00">+</text>
<text text-anchor="start" x="124.5" y="-377" font-family="Malgun Gothic" font-size="10.00">Cmd_Look()</text>
<text text-anchor="start" x="111.5" y="-362" font-family="Malgun Gothic" font-size="10.00">+</text>
<text text-anchor="start" x="124.5" y="-362" font-family="Malgun Gothic" font-size="10.00">Cmd_Move()</text>
<text text-anchor="start" x="111.5" y="-347" font-family="Malgun Gothic" font-size="10.00">+</text>
<text text-anchor="start" x="124.5" y="-347" font-family="Malgun Gothic" font-size="10.00">Cmd_RecordEnd()</text>
<text text-anchor="start" x="111.5" y="-332" font-family="Malgun Gothic" font-size="10.00">+</text>
<text text-anchor="start" x="124.5" y="-332" font-family="Malgun Gothic" font-size="10.00">Cmd_RecordStart()</text>
<polygon fill="#666666" stroke="#666666" points="107.5,-492 107.5,-492 247.5,-492 247.5,-492 107.5,-492"/>
<polygon fill="#666666" stroke="#666666" points="107.5,-477 107.5,-477 247.5,-477 247.5,-477 107.5,-477"/>
<polygon fill="none" stroke="#666666" points="107.5,-325 107.5,-509 247.5,-509 247.5,-325 107.5,-325"/>
</a>
</g>
</g>
<!-- Node2 -->
<g id="Node000002" class="node">
<title>Node2</title>
<g id="a_Node000002"><a xlink:href="classALattePlayerCharacter.html" target="_top" xlink:title="Main character driven directly by the player.">
<polygon fill="white" stroke="transparent" points="169,-259 0,-259 0,-30 169,-30 169,-259"/>
<text text-anchor="start" x="30" y="-246.5" font-family="Malgun Gothic" font-size="10.00">ALattePlayerCharacter</text>
<text text-anchor="start" x="4.5" y="-231.5" font-family="Malgun Gothic" font-size="10.00">+</text>
<text text-anchor="start" x="17.5" y="-231.5" font-family="Malgun Gothic" font-size="10.00">CameraShakeSystem</text>
<text text-anchor="start" x="4.5" y="-216.5" font-family="Malgun Gothic" font-size="10.00">#</text>
<text text-anchor="start" x="17.5" y="-216.5" font-family="Malgun Gothic" font-size="10.00">FollowCamera</text>
<text text-anchor="start" x="4.5" y="-201.5" font-family="Malgun Gothic" font-size="10.00">#</text>
<text text-anchor="start" x="17.5" y="-201.5" font-family="Malgun Gothic" font-size="10.00">SpringArmComp</text>
<text text-anchor="start" x="4.5" y="-186.5" font-family="Malgun Gothic" font-size="10.00">+</text>
<text text-anchor="start" x="17.5" y="-186.5" font-family="Malgun Gothic" font-size="10.00">ALattePlayerCharacter()</text>
<text text-anchor="start" x="4.5" y="-171.5" font-family="Malgun Gothic" font-size="10.00">+</text>
<text text-anchor="start" x="17.5" y="-171.5" font-family="Malgun Gothic" font-size="10.00">Cmd_AltitudeDown()</text>
<text text-anchor="start" x="4.5" y="-156.5" font-family="Malgun Gothic" font-size="10.00">+</text>
<text text-anchor="start" x="17.5" y="-156.5" font-family="Malgun Gothic" font-size="10.00">Cmd_AltitudeReleased()</text>
<text text-anchor="start" x="4.5" y="-141.5" font-family="Malgun Gothic" font-size="10.00">+</text>
<text text-anchor="start" x="17.5" y="-141.5" font-family="Malgun Gothic" font-size="10.00">Cmd_AltitudeUp()</text>
<text text-anchor="start" x="4.5" y="-126.5" font-family="Malgun Gothic" font-size="10.00">+</text>
<text text-anchor="start" x="17.5" y="-126.5" font-family="Malgun Gothic" font-size="10.00">Cmd_Jump()</text>
<text text-anchor="start" x="4.5" y="-111.5" font-family="Malgun Gothic" font-size="10.00">+</text>
<text text-anchor="start" x="17.5" y="-111.5" font-family="Malgun Gothic" font-size="10.00">Cmd_Landing()</text>
<text text-anchor="start" x="4.5" y="-96.5" font-family="Malgun Gothic" font-size="10.00">+</text>
<text text-anchor="start" x="17.5" y="-96.5" font-family="Malgun Gothic" font-size="10.00">Cmd_Look()</text>
<text text-anchor="start" x="4.5" y="-81.5" font-family="Malgun Gothic" font-size="10.00">+</text>
<text text-anchor="start" x="17.5" y="-81.5" font-family="Malgun Gothic" font-size="10.00">Cmd_Move()</text>
<text text-anchor="start" x="4.5" y="-66.5" font-family="Malgun Gothic" font-size="10.00">+</text>
<text text-anchor="start" x="17.5" y="-66.5" font-family="Malgun Gothic" font-size="10.00">Landed()</text>
<text text-anchor="start" x="4.5" y="-51.5" font-family="Malgun Gothic" font-size="10.00">#</text>
<text text-anchor="start" x="17.5" y="-51.5" font-family="Malgun Gothic" font-size="10.00">BeginPlay()</text>
<text text-anchor="start" x="4.5" y="-36.5" font-family="Malgun Gothic" font-size="10.00">#</text>
<text text-anchor="start" x="17.5" y="-36.5" font-family="Malgun Gothic" font-size="10.00">SetupPlayerInputComponent()</text>
<polygon fill="#666666" stroke="#666666" points="0.5,-241.5 0.5,-241.5 169.5,-241.5 169.5,-241.5 0.5,-241.5"/>
<polygon fill="#666666" stroke="#666666" points="0.5,-196.5 0.5,-196.5 15.5,-196.5 15.5,-196.5 0.5,-196.5"/>
<polygon fill="#666666" stroke="#666666" points="15.5,-196.5 15.5,-196.5 169.5,-196.5 169.5,-196.5 15.5,-196.5"/>
<polygon fill="none" stroke="#666666" points="0,-30 0,-259 169,-259 169,-30 0,-30"/>
</a>
</g>
</g>
<!-- Node1&#45;&gt;Node2 -->
<g id="edge1_Node000001_Node000002" class="edge">
<title>Node1&#45;&gt;Node2</title>
<g id="a_edge1_Node000001_Node000002"><a xlink:title=" ">
<path fill="none" stroke="#63b8ff" d="M142.81,-315.09C136.56,-296.92 130,-277.85 123.64,-259.34"/>
<polygon fill="none" stroke="#63b8ff" points="139.58,-316.48 146.14,-324.8 146.2,-314.2 139.58,-316.48"/>
</a>
</g>
</g>
<!-- Node3 -->
<g id="Node000003" class="node">
<title>Node3</title>
<g id="a_Node000003"><a xlink:href="classAPlayerActor.html" target="_top" xlink:title=" ">
<polygon fill="white" stroke="transparent" points="356,-289 187,-289 187,0 356,0 356,-289"/>
<text text-anchor="start" x="240" y="-276.5" font-family="Malgun Gothic" font-size="10.00">APlayerActor</text>
<text text-anchor="start" x="191.5" y="-261.5" font-family="Malgun Gothic" font-size="10.00">+</text>
<text text-anchor="start" x="204.5" y="-261.5" font-family="Malgun Gothic" font-size="10.00">AnimInstance</text>
<text text-anchor="start" x="191.5" y="-246.5" font-family="Malgun Gothic" font-size="10.00">+</text>
<text text-anchor="start" x="204.5" y="-246.5" font-family="Malgun Gothic" font-size="10.00">FollowCamera</text>
<text text-anchor="start" x="191.5" y="-231.5" font-family="Malgun Gothic" font-size="10.00">+</text>
<text text-anchor="start" x="204.5" y="-231.5" font-family="Malgun Gothic" font-size="10.00">MainWidgetClass</text>
<text text-anchor="start" x="191.5" y="-216.5" font-family="Malgun Gothic" font-size="10.00">+</text>
<text text-anchor="start" x="204.5" y="-216.5" font-family="Malgun Gothic" font-size="10.00">MainWidgetInst</text>
<text text-anchor="start" x="191.5" y="-201.5" font-family="Malgun Gothic" font-size="10.00">+</text>
<text text-anchor="start" x="204.5" y="-201.5" font-family="Malgun Gothic" font-size="10.00">MeshComp</text>
<text text-anchor="start" x="191.5" y="-186.5" font-family="Malgun Gothic" font-size="10.00">+</text>
<text text-anchor="start" x="204.5" y="-186.5" font-family="Malgun Gothic" font-size="10.00">MoveComp</text>
<text text-anchor="start" x="191.5" y="-171.5" font-family="Malgun Gothic" font-size="10.00">+</text>
<text text-anchor="start" x="204.5" y="-171.5" font-family="Malgun Gothic" font-size="10.00">SpringArmComp</text>
<text text-anchor="start" x="191.5" y="-156.5" font-family="Malgun Gothic" font-size="10.00">+</text>
<text text-anchor="start" x="204.5" y="-156.5" font-family="Malgun Gothic" font-size="10.00">VoiceRecordSystem</text>
<text text-anchor="start" x="191.5" y="-141.5" font-family="Malgun Gothic" font-size="10.00">+</text>
<text text-anchor="start" x="204.5" y="-141.5" font-family="Malgun Gothic" font-size="10.00">APlayerActor()</text>
<text text-anchor="start" x="191.5" y="-126.5" font-family="Malgun Gothic" font-size="10.00">+</text>
<text text-anchor="start" x="204.5" y="-126.5" font-family="Malgun Gothic" font-size="10.00">Cmd_Chat()</text>
<text text-anchor="start" x="191.5" y="-111.5" font-family="Malgun Gothic" font-size="10.00">+</text>
<text text-anchor="start" x="204.5" y="-111.5" font-family="Malgun Gothic" font-size="10.00">Cmd_Jump()</text>
<text text-anchor="start" x="191.5" y="-96.5" font-family="Malgun Gothic" font-size="10.00">+</text>
<text text-anchor="start" x="204.5" y="-96.5" font-family="Malgun Gothic" font-size="10.00">Cmd_Look()</text>
<text text-anchor="start" x="191.5" y="-81.5" font-family="Malgun Gothic" font-size="10.00">+</text>
<text text-anchor="start" x="204.5" y="-81.5" font-family="Malgun Gothic" font-size="10.00">Cmd_Move()</text>
<text text-anchor="start" x="191.5" y="-66.5" font-family="Malgun Gothic" font-size="10.00">+</text>
<text text-anchor="start" x="204.5" y="-66.5" font-family="Malgun Gothic" font-size="10.00">Cmd_RecordEnd()</text>
<text text-anchor="start" x="191.5" y="-51.5" font-family="Malgun Gothic" font-size="10.00">+</text>
<text text-anchor="start" x="204.5" y="-51.5" font-family="Malgun Gothic" font-size="10.00">Cmd_RecordStart()</text>
<text text-anchor="start" x="191.5" y="-36.5" font-family="Malgun Gothic" font-size="10.00">+</text>
<text text-anchor="start" x="204.5" y="-36.5" font-family="Malgun Gothic" font-size="10.00">SetupPlayerInputComponent()</text>
<text text-anchor="start" x="191.5" y="-21.5" font-family="Malgun Gothic" font-size="10.00">+</text>
<text text-anchor="start" x="204.5" y="-21.5" font-family="Malgun Gothic" font-size="10.00">Tick()</text>
<text text-anchor="start" x="191.5" y="-6.5" font-family="Malgun Gothic" font-size="10.00">#</text>
<text text-anchor="start" x="204.5" y="-6.5" font-family="Malgun Gothic" font-size="10.00">BeginPlay()</text>
<polygon fill="#666666" stroke="#666666" points="187.5,-271.5 187.5,-271.5 356.5,-271.5 356.5,-271.5 187.5,-271.5"/>
<polygon fill="#666666" stroke="#666666" points="187.5,-151.5 187.5,-151.5 202.5,-151.5 202.5,-151.5 187.5,-151.5"/>
<polygon fill="#666666" stroke="#666666" points="202.5,-151.5 202.5,-151.5 356.5,-151.5 356.5,-151.5 202.5,-151.5"/>
<polygon fill="none" stroke="#666666" points="187,0 187,-289 356,-289 356,0 187,0"/>
</a>
</g>
</g>
<!-- Node1&#45;&gt;Node3 -->
<g id="edge2_Node000001_Node000003" class="edge">
<title>Node1&#45;&gt;Node3</title>
<g id="a_edge2_Node000001_Node000003"><a xlink:title=" ">
<path fill="none" stroke="#63b8ff" d="M212.51,-315.26C215.47,-306.74 218.5,-298.01 221.55,-289.24"/>
<polygon fill="none" stroke="#63b8ff" points="209.17,-314.2 209.19,-324.8 215.78,-316.5 209.17,-314.2"/>
</a>
</g>
</g>
</g>
</svg>
