<?xml version="1.0" encoding="UTF-8" standalone="no"?>
<!DOCTYPE svg PUBLIC "-//W3C//DTD SVG 1.1//EN"
 "http://www.w3.org/Graphics/SVG/1.1/DTD/svg11.dtd">
<!-- Generated by graphviz version 2.43.0 (0)
 -->
<!-- Title: UCustomNetworkSettings Pages: 1 -->
<svg width="218pt" height="205pt"
 viewBox="0.00 0.00 218.00 205.00" xmlns="http://www.w3.org/2000/svg" xmlns:xlink="http://www.w3.org/1999/xlink">

<svg id="main" version="1.1" xmlns="http://www.w3.org/2000/svg" xmlns:xlink="http://www.w3.org/1999/xlink" xml:space="preserve" onload="init(evt)">
<style type="text/css"><![CDATA[
.node, .edge {opacity: 0.7;}
.node.selected, .edge.selected {opacity: 1;}
.edge:hover path { stroke: red; }
.edge:hover polygon { stroke: red; fill: red; }
]]></style>
<script type="application/ecmascript" xlink:href="svg.min.js"/>
<svg id="graph" class="graph">
<g id="graph0" class="graph" transform="scale(1 1) rotate(0) translate(4 201)">
<title>UCustomNetworkSettings</title>
<!-- Node1 -->
<g id="Node000001" class="node">
<title>Node1</title>
<g id="a_Node000001"><a xlink:title=" ">
<polygon fill="#999999" stroke="transparent" points="179.5,-64 38.5,-64 38.5,0 179.5,0 179.5,-64"/>
<text text-anchor="start" x="46" y="-52" font-family="Malgun Gothic" font-size="10.00">UCustomNetworkSettings</text>
<text text-anchor="start" x="43" y="-37" font-family="Malgun Gothic" font-size="10.00">+</text>
<text text-anchor="start" x="56" y="-37" font-family="Malgun Gothic" font-size="10.00">DefaultMode</text>
<text text-anchor="start" x="43" y="-22" font-family="Malgun Gothic" font-size="10.00">+</text>
<text text-anchor="start" x="56" y="-22" font-family="Malgun Gothic" font-size="10.00">GetConfig()</text>
<text text-anchor="start" x="43" y="-7" font-family="Malgun Gothic" font-size="10.00">+</text>
<text text-anchor="start" x="56" y="-7" font-family="Malgun Gothic" font-size="10.00">GetCurrentServerMode()</text>
<polygon fill="#666666" stroke="#666666" points="39,-47 39,-47 180,-47 180,-47 39,-47"/>
<polygon fill="#666666" stroke="#666666" points="39,-32 39,-32 54,-32 54,-32 39,-32"/>
<polygon fill="#666666" stroke="#666666" points="54,-32 54,-32 180,-32 180,-32 54,-32"/>
<polygon fill="none" stroke="#666666" points="38.5,0 38.5,-64 179.5,-64 179.5,0 38.5,0"/>
</a>
</g>
</g>
<!-- Node2 -->
<g id="Node000002" class="node">
<title>Node2</title>
<g id="a_Node000002"><a xlink:title=" ">
<polygon fill="white" stroke="transparent" points="108,-189.5 0,-189.5 0,-140.5 108,-140.5 108,-189.5"/>
<text text-anchor="start" x="5" y="-177" font-family="Malgun Gothic" font-size="10.00">UDeveloperSettings</text>
<text text-anchor="start" x="52" y="-162" font-family="Malgun Gothic" font-size="10.00"> </text>
<text text-anchor="start" x="52" y="-147" font-family="Malgun Gothic" font-size="10.00"> </text>
<polygon fill="#666666" stroke="#666666" points="0,-172 0,-172 108,-172 108,-172 0,-172"/>
<polygon fill="#666666" stroke="#666666" points="0,-157 0,-157 108,-157 108,-157 0,-157"/>
<polygon fill="none" stroke="#666666" points="0,-140.5 0,-189.5 108,-189.5 108,-140.5 0,-140.5"/>
</a>
</g>
</g>
<!-- Node2&#45;&gt;Node1 -->
<g id="edge1_Node000001_Node000002" class="edge">
<title>Node2&#45;&gt;Node1</title>
<g id="a_edge1_Node000001_Node000002"><a xlink:title=" ">
<path fill="none" stroke="#63b8ff" d="M67.83,-131.05C76.4,-110.64 87.35,-84.57 95.8,-64.44"/>
<polygon fill="none" stroke="#63b8ff" points="64.6,-129.7 63.96,-140.28 71.06,-132.41 64.6,-129.7"/>
</a>
</g>
</g>
<!-- Node3 -->
<g id="Node000003" class="node">
<title>Node3</title>
<g id="a_Node000003"><a xlink:href="structFServerConfig.html" target="_top" xlink:title=" ">
<polygon fill="white" stroke="transparent" points="204,-197 126,-197 126,-133 204,-133 204,-197"/>
<text text-anchor="start" x="131" y="-185" font-family="Malgun Gothic" font-size="10.00">FServerConfig</text>
<text text-anchor="start" x="130" y="-170" font-family="Malgun Gothic" font-size="10.00">+</text>
<text text-anchor="start" x="143" y="-170" font-family="Malgun Gothic" font-size="10.00">BaseUrl</text>
<text text-anchor="start" x="130" y="-155" font-family="Malgun Gothic" font-size="10.00">+</text>
<text text-anchor="start" x="143" y="-155" font-family="Malgun Gothic" font-size="10.00">Port</text>
<text text-anchor="start" x="130" y="-140" font-family="Malgun Gothic" font-size="10.00">+</text>
<text text-anchor="start" x="143" y="-140" font-family="Malgun Gothic" font-size="10.00">GetFullUrl()</text>
<polygon fill="#666666" stroke="#666666" points="126,-180 126,-180 204,-180 204,-180 126,-180"/>
<polygon fill="#666666" stroke="#666666" points="126,-150 126,-150 141,-150 141,-150 126,-150"/>
<polygon fill="#666666" stroke="#666666" points="141,-150 141,-150 204,-150 204,-150 141,-150"/>
<polygon fill="none" stroke="#666666" points="126,-133 126,-197 204,-197 204,-133 126,-133"/>
</a>
</g>
</g>
<!-- Node3&#45;&gt;Node1 -->
<g id="edge2_Node000001_Node000003" class="edge">
<title>Node3&#45;&gt;Node1</title>
<g id="a_edge2_Node000001_Node000003"><a xlink:title=" ">
<path fill="none" stroke="#63b8ff" d="M151.73,-132.95C144.39,-115.79 135.16,-94.2 127.16,-75.49"/>
<polygon fill="none" stroke="#63b8ff" points="127.09,-75.31 121.05,-71.37 122.37,-64.28 128.41,-68.22 127.09,-75.31"/>
</a>
</g>
<text text-anchor="middle" x="176.5" y="-107" font-family="Malgun Gothic" font-size="10.00" fill="grey"> +DevConfig</text>
<text text-anchor="middle" x="176.5" y="-96" font-family="Malgun Gothic" font-size="10.00" fill="grey">+LiveConfig</text>
<text text-anchor="middle" x="176.5" y="-85" font-family="Malgun Gothic" font-size="10.00" fill="grey">+StageConfig</text>
</g>
</g>
</svg>
</svg>

<style type='text/css'>
<![CDATA[
[data-mouse-over-selected='false'] { opacity: 0.7; }
[data-mouse-over-selected='true']  { opacity: 1.0; }
]]>
</style>
<script type="application/ecmascript"><![CDATA[
document.addEventListener('DOMContentLoaded', (event) => {
  highlightEdges();
  highlightAdjacentNodes();
});
]]></script>
</svg>
