<?xml version="1.0" encoding="UTF-8" standalone="no"?>
<!DOCTYPE svg PUBLIC "-//W3C//DTD SVG 1.1//EN"
 "http://www.w3.org/Graphics/SVG/1.1/DTD/svg11.dtd">
<!-- Generated by graphviz version 2.43.0 (0)
 -->
<!-- Title: AGate::AGate Pages: 1 -->
<!--zoomable 101 -->

<svg id="main" version="1.1" xmlns="http://www.w3.org/2000/svg" xmlns:xlink="http://www.w3.org/1999/xlink" xml:space="preserve" onload="init(evt)">
<style type="text/css"><![CDATA[
.node, .edge {opacity: 0.7;}
.node.selected, .edge.selected {opacity: 1;}
.edge:hover path { stroke: red; }
.edge:hover polygon { stroke: red; fill: red; }
]]></style>

<defs>
  <circle id="rim" cx="0" cy="0" r="7"/>
  <circle id="rim2" cx="0" cy="0" r="3.5"/>
  <g id="zoomPlus">
    <use xlink:href="#rim" fill="#404040"><set attributeName="fill" to="#808080" begin="zoomplus.mouseover" end="zoomplus.mouseout"/></use>
    <path d="M-4,0h8M0,-4v8" fill="none" stroke="white" stroke-width="1.5" pointer-events="none"/>
  </g>
  <g id="zoomMin">
    <use xlink:href="#rim" fill="#404040"><set attributeName="fill" to="#808080" begin="zoomminus.mouseover" end="zoomminus.mouseout"/></use>
    <path d="M-4,0h8" fill="none" stroke="white" stroke-width="1.5" pointer-events="none"/>
  </g>
  <g id="arrowUp" transform="translate(30 24)">
    <use xlink:href="#rim"/>
    <path pointer-events="none" fill="none" stroke="white" stroke-width="1.5" d="M0,-3.0v7 M-2.5,-0.5L0,-3.0L2.5,-0.5"/>
  </g>
  <g id="arrowRight" transform="rotate(90) translate(36 -43)">
    <use xlink:href="#rim"/>
    <path pointer-events="none" fill="none" stroke="white" stroke-width="1.5" d="M0,-3.0v7 M-2.5,-0.5L0,-3.0L2.5,-0.5"/>
  </g>
  <g id="arrowDown" transform="rotate(180) translate(-30 -48)">
    <use xlink:href="#rim"/>
    <path pointer-events="none" fill="none" stroke="white" stroke-width="1.5" d="M0,-3.0v7 M-2.5,-0.5L0,-3.0L2.5,-0.5"/>
  </g>
  <g id="arrowLeft" transform="rotate(270) translate(-36 17)">
    <use xlink:href="#rim"/>
    <path pointer-events="none" fill="none" stroke="white" stroke-width="1.5" d="M0,-3.0v7 M-2.5,-0.5L0,-3.0L2.5,-0.5"/>
  </g>
  <g id="resetDef">
    <use xlink:href="#rim2" fill="#404040"><set attributeName="fill" to="#808080" begin="reset.mouseover" end="reset.mouseout"/></use>
  </g>
</defs>
<script type="application/ecmascript">
var viewWidth = 622;
var viewHeight = 101;
var sectionId = 'dynsection-2';
</script>
<script type="application/ecmascript" xlink:href="svg.min.js"/>
<svg id="graph" class="graph">
<g id="viewport">
<title>AGate::AGate</title>
<!-- Node1 -->
<g id="Node000001" class="node">
<title>Node1</title>
<g id="a_Node000001"><a xlink:title=" ">
<polygon fill="#999999" stroke="#666666" points="83,-55 0,-55 0,-36 83,-36 83,-55"/>
<text text-anchor="middle" x="41.5" y="-43" font-family="Malgun Gothic" font-size="10.00">AGate::AGate</text>
</a>
</g>
</g>
<!-- Node2 -->
<g id="Node000002" class="node">
<title>Node2</title>
<g id="a_Node000002"><a xlink:href="classAGate.html#ad25807f4959f5d5ad657205a62f1a673" target="_top" xlink:title=" ">
<polygon fill="white" stroke="#666666" points="251,-74 119,-74 119,-55 251,-55 251,-74"/>
<text text-anchor="middle" x="185" y="-62" font-family="Malgun Gothic" font-size="10.00">AGate::OnOverlapBegin</text>
</a>
</g>
</g>
<!-- Node1&#45;&gt;Node2 -->
<g id="edge1_Node000001_Node000002" class="edge">
<title>Node1&#45;&gt;Node2</title>
<g id="a_edge1_Node000001_Node000002"><a xlink:title=" ">
<path fill="none" stroke="#63b8ff" d="M83.05,-50.94C91.18,-52.04 99.96,-53.22 108.84,-54.41"/>
<polygon fill="#63b8ff" stroke="#63b8ff" points="108.49,-57.89 118.87,-55.75 109.42,-50.95 108.49,-57.89"/>
</a>
</g>
</g>
<!-- Node6 -->
<g id="Node000006" class="node">
<title>Node6</title>
<g id="a_Node000006"><a xlink:href="classAGate.html#abcc031c1aefc68dc90ffbdb3b2d246e4" target="_top" xlink:title=" ">
<polygon fill="white" stroke="#666666" points="246,-37 124,-37 124,-18 246,-18 246,-37"/>
<text text-anchor="middle" x="185" y="-25" font-family="Malgun Gothic" font-size="10.00">AGate::OnOverlapEnd</text>
</a>
</g>
</g>
<!-- Node1&#45;&gt;Node6 -->
<g id="edge5_Node000001_Node000006" class="edge">
<title>Node1&#45;&gt;Node6</title>
<g id="a_edge5_Node000001_Node000006"><a xlink:title=" ">
<path fill="none" stroke="#63b8ff" d="M83.05,-40.34C92.7,-39.11 103.28,-37.77 113.84,-36.42"/>
<polygon fill="#63b8ff" stroke="#63b8ff" points="114.45,-39.88 123.93,-35.14 113.57,-32.93 114.45,-39.88"/>
</a>
</g>
</g>
<!-- Node3 -->
<g id="Node000003" class="node">
<title>Node3</title>
<g id="a_Node000003"><a xlink:href="classAGate.html#a0aac26a835f62650db64de1cb0e691f2" target="_top" xlink:title=" ">
<polygon fill="white" stroke="#666666" points="404,-56 287,-56 287,-37 404,-37 404,-56"/>
<text text-anchor="middle" x="345.5" y="-44" font-family="Malgun Gothic" font-size="10.00">AGate::IsPlayerActor</text>
</a>
</g>
</g>
<!-- Node2&#45;&gt;Node3 -->
<g id="edge2_Node000002_Node000003" class="edge">
<title>Node2&#45;&gt;Node3</title>
<g id="a_edge2_Node000002_Node000003"><a xlink:title=" ">
<path fill="none" stroke="#63b8ff" d="M251.38,-57.07C259.75,-56.12 268.33,-55.15 276.73,-54.2"/>
<polygon fill="#63b8ff" stroke="#63b8ff" points="277.33,-57.65 286.87,-53.04 276.54,-50.7 277.33,-57.65"/>
</a>
</g>
</g>
<!-- Node4 -->
<g id="Node000004" class="node">
<title>Node4</title>
<g id="a_Node000004"><a xlink:href="classAGate.html#a4dd94b3647126dcfce64c972ebb8667f" target="_top" xlink:title=" ">
<polygon fill="white" stroke="#666666" points="396,-93 295,-93 295,-74 396,-74 396,-93"/>
<text text-anchor="middle" x="345.5" y="-81" font-family="Malgun Gothic" font-size="10.00">AGate::OpenDoor</text>
</a>
</g>
</g>
<!-- Node2&#45;&gt;Node4 -->
<g id="edge3_Node000002_Node000004" class="edge">
<title>Node2&#45;&gt;Node4</title>
<g id="a_edge3_Node000002_Node000004"><a xlink:title=" ">
<path fill="none" stroke="#63b8ff" d="M251.38,-72.34C262.37,-73.65 273.72,-75.02 284.56,-76.31"/>
<polygon fill="#63b8ff" stroke="#63b8ff" points="284.42,-79.82 294.77,-77.54 285.26,-72.87 284.42,-79.82"/>
</a>
</g>
</g>
<!-- Node5 -->
<g id="Node000005" class="node">
<title>Node5</title>
<g id="a_Node000005"><a xlink:href="classAGate.html#a77115a1ffec989893fe6f5887fdf87a2" target="_top" xlink:title=" ">
<polygon fill="white" stroke="#666666" points="613.5,-93 440.5,-93 440.5,-74 613.5,-74 613.5,-93"/>
<text text-anchor="middle" x="527" y="-81" font-family="Malgun Gothic" font-size="10.00">AGate::PlayOpenDoorAnimation</text>
</a>
</g>
</g>
<!-- Node4&#45;&gt;Node5 -->
<g id="edge4_Node000004_Node000005" class="edge">
<title>Node4&#45;&gt;Node5</title>
<g id="a_edge4_Node000004_Node000005"><a xlink:title=" ">
<path fill="none" stroke="#63b8ff" d="M396.02,-83.5C406.81,-83.5 418.57,-83.5 430.46,-83.5"/>
<polygon fill="#63b8ff" stroke="#63b8ff" points="430.47,-87 440.47,-83.5 430.47,-80 430.47,-87"/>
</a>
</g>
</g>
<!-- Node6&#45;&gt;Node3 -->
<g id="edge8_Node000006_Node000003" class="edge">
<title>Node6&#45;&gt;Node3</title>
<g id="a_edge8_Node000006_Node000003"><a xlink:title=" ">
<path fill="none" stroke="#63b8ff" d="M246.37,-34.74C256.35,-35.93 266.74,-37.18 276.88,-38.39"/>
<polygon fill="#63b8ff" stroke="#63b8ff" points="276.56,-41.88 286.91,-39.6 277.39,-34.93 276.56,-41.88"/>
</a>
</g>
</g>
<!-- Node7 -->
<g id="Node000007" class="node">
<title>Node7</title>
<g id="a_Node000007"><a xlink:href="classAGate.html#ab83a2e573215c998455f7edf71aa5807" target="_top" xlink:title=" ">
<polygon fill="white" stroke="#666666" points="397,-19 294,-19 294,0 397,0 397,-19"/>
<text text-anchor="middle" x="345.5" y="-7" font-family="Malgun Gothic" font-size="10.00">AGate::CloseDoor</text>
</a>
</g>
</g>
<!-- Node6&#45;&gt;Node7 -->
<g id="edge6_Node000006_Node000007" class="edge">
<title>Node6&#45;&gt;Node7</title>
<g id="a_edge6_Node000006_Node000007"><a xlink:title=" ">
<path fill="none" stroke="#63b8ff" d="M246.37,-20.64C258.61,-19.25 271.48,-17.79 283.73,-16.4"/>
<polygon fill="#63b8ff" stroke="#63b8ff" points="284.3,-19.86 293.84,-15.25 283.51,-12.9 284.3,-19.86"/>
</a>
</g>
</g>
<!-- Node8 -->
<g id="Node000008" class="node">
<title>Node8</title>
<g id="a_Node000008"><a xlink:href="classAGate.html#a281d61d11d8e4d66d818bd1f8cfe0c2d" target="_top" xlink:title=" ">
<polygon fill="white" stroke="#666666" points="614,-19 440,-19 440,0 614,0 614,-19"/>
<text text-anchor="middle" x="527" y="-7" font-family="Malgun Gothic" font-size="10.00">AGate::PlayCloseDoorAnimation</text>
</a>
</g>
</g>
<!-- Node7&#45;&gt;Node8 -->
<g id="edge7_Node000007_Node000008" class="edge">
<title>Node7&#45;&gt;Node8</title>
<g id="a_edge7_Node000007_Node000008"><a xlink:title=" ">
<path fill="none" stroke="#63b8ff" d="M397.46,-9.5C407.61,-9.5 418.59,-9.5 429.71,-9.5"/>
<polygon fill="#63b8ff" stroke="#63b8ff" points="429.93,-13 439.93,-9.5 429.93,-6 429.93,-13"/>
</a>
</g>
</g>
</g>
</svg>

<g id="navigator" transform="translate(0 0)" fill="#404254">
  <rect fill="#f2f5e9" fill-opacity="0.5" stroke="#606060" stroke-width=".5" x="0" y="0" width="60" height="60"/>
  <use id="zoomplus" xlink:href="#zoomPlus" x="17" y="9" onmousedown="handleZoom(evt,'in')"/>
  <use id="zoomminus" xlink:href="#zoomMin" x="42" y="9" onmousedown="handleZoom(evt,'out')"/>
  <use id="reset" xlink:href="#resetDef" x="30" y="36" onmousedown="handleReset()"/>
   <use id="arrowup" xlink:href="#arrowUp" x="0" y="0" onmousedown="handlePan(0,-1)"/>
  <use id="arrowright" xlink:href="#arrowRight" x="0" y="0" onmousedown="handlePan(1,0)"/>
  <use id="arrowdown" xlink:href="#arrowDown" x="0" y="0" onmousedown="handlePan(0,1)"/>
  <use id="arrowleft" xlink:href="#arrowLeft" x="0" y="0" onmousedown="handlePan(-1,0)"/>
</g>
<svg viewBox="0 0 15 15" width="100%" height="30px" preserveAspectRatio="xMaxYMin meet">
 <g id="arrow_out" transform="scale(0.3 0.3)">
  <a xlink:href="classAGate_a1cbee808a8817006d47e687055da4d57_cgraph_org.svg" target="_base">
   <rect id="button" ry="5" rx="5" y="6" x="6" height="38" width="38"
        fill="#f2f5e9" fill-opacity="0.5" stroke="#606060" stroke-width="1.0"/>
   <path id="arrow"
     d="M 11.500037,31.436501 C 11.940474,20.09759 22.043105,11.32322 32.158766,21.979434 L 37.068811,17.246167 C 37.068811,17.246167 37.088388,32 37.088388,32 L 22.160133,31.978069 C 22.160133,31.978069 26.997745,27.140456 26.997745,27.140456 C 18.528582,18.264221 13.291696,25.230495 11.500037,31.436501 z"
     style="fill:#404040;"/>
  </a>
 </g>
</svg>

<style type='text/css'>
<![CDATA[
[data-mouse-over-selected='false'] { opacity: 0.7; }
[data-mouse-over-selected='true']  { opacity: 1.0; }
]]>
</style>
<script type="application/ecmascript"><![CDATA[
document.addEventListener('DOMContentLoaded', (event) => {
  highlightEdges();
  highlightAdjacentNodes();
});
]]></script>
</svg>
