<?xml version="1.0" encoding="UTF-8" standalone="no"?>
<!DOCTYPE svg PUBLIC "-//W3C//DTD SVG 1.1//EN"
 "http://www.w3.org/Graphics/SVG/1.1/DTD/svg11.dtd">
<!-- Generated by graphviz version 2.43.0 (0)
 -->
<!-- Title: UMegaPopup::NativeDestruct Pages: 1 -->
<svg width="572pt" height="27pt"
 viewBox="0.00 0.00 572.00 27.00" xmlns="http://www.w3.org/2000/svg" xmlns:xlink="http://www.w3.org/1999/xlink">
<g id="graph0" class="graph" transform="scale(1 1) rotate(0) translate(4 23)">
<title>UMegaPopup::NativeDestruct</title>
<!-- Node1 -->
<g id="Node000001" class="node">
<title>Node1</title>
<g id="a_Node000001"><a xlink:title=" ">
<polygon fill="#999999" stroke="#666666" points="161,-19 0,-19 0,0 161,0 161,-19"/>
<text text-anchor="middle" x="80.5" y="-7" font-family="Malgun Gothic" font-size="10.00">UMegaPopup::NativeDestruct</text>
</a>
</g>
</g>
<!-- Node2 -->
<g id="Node000002" class="node">
<title>Node2</title>
<g id="a_Node000002"><a xlink:href="classUMegaPopup.html#acf1baf24c17ce8a1f57e95fa225602b0" target="_top" xlink:title=" ">
<polygon fill="white" stroke="#666666" points="336,-19 197,-19 197,0 336,0 336,-19"/>
<text text-anchor="middle" x="266.5" y="-7" font-family="Malgun Gothic" font-size="10.00">UMegaPopup::StopMedia</text>
</a>
</g>
</g>
<!-- Node1&#45;&gt;Node2 -->
<g id="edge1_Node000001_Node000002" class="edge">
<title>Node1&#45;&gt;Node2</title>
<g id="a_edge1_Node000001_Node000002"><a xlink:title=" ">
<path fill="none" stroke="#63b8ff" d="M161.13,-9.5C169.63,-9.5 178.26,-9.5 186.75,-9.5"/>
<polygon fill="#63b8ff" stroke="#63b8ff" points="187,-13 197,-9.5 187,-6 187,-13"/>
</a>
</g>
</g>
<!-- Node3 -->
<g id="Node000003" class="node">
<title>Node3</title>
<g id="a_Node000003"><a xlink:href="classUMegaPopup.html#a690a436bf42717282baa718a70a28e9e" target="_top" xlink:title=" ">
<polygon fill="white" stroke="#666666" points="564,-19 372,-19 372,0 564,0 564,-19"/>
<text text-anchor="middle" x="468" y="-7" font-family="Malgun Gothic" font-size="10.00">UMegaPopup::ClearMediaDelegates</text>
</a>
</g>
</g>
<!-- Node2&#45;&gt;Node3 -->
<g id="edge2_Node000002_Node000003" class="edge">
<title>Node2&#45;&gt;Node3</title>
<g id="a_edge2_Node000002_Node000003"><a xlink:title=" ">
<path fill="none" stroke="#63b8ff" d="M336.16,-9.5C344.42,-9.5 353,-9.5 361.63,-9.5"/>
<polygon fill="#63b8ff" stroke="#63b8ff" points="361.78,-13 371.78,-9.5 361.78,-6 361.78,-13"/>
</a>
</g>
</g>
</g>
</svg>
