<?xml version="1.0" encoding="UTF-8" standalone="no"?>
<!DOCTYPE svg PUBLIC "-//W3C//DTD SVG 1.1//EN"
 "http://www.w3.org/Graphics/SVG/1.1/DTD/svg11.dtd">
<!-- Generated by graphviz version 2.43.0 (0)
 -->
<!-- Title: AGameCharacter::EndPlay Pages: 1 -->
<svg width="570pt" height="38pt"
 viewBox="0.00 0.00 570.00 38.00" xmlns="http://www.w3.org/2000/svg" xmlns:xlink="http://www.w3.org/1999/xlink">
<g id="graph0" class="graph" transform="scale(1 1) rotate(0) translate(4 34)">
<title>AGameCharacter::EndPlay</title>
<!-- Node1 -->
<g id="Node000001" class="node">
<title>Node1</title>
<g id="a_Node000001"><a xlink:title="플레이 종료 시 리소스를 해제합니다.">
<polygon fill="#999999" stroke="#666666" points="145,-24.5 0,-24.5 0,-5.5 145,-5.5 145,-24.5"/>
<text text-anchor="middle" x="72.5" y="-12.5" font-family="Malgun Gothic" font-size="10.00">AGameCharacter::EndPlay</text>
</a>
</g>
</g>
<!-- Node2 -->
<g id="Node000002" class="node">
<title>Node2</title>
<g id="a_Node000002"><a xlink:href="classAGameCharacter.html#a4d6fa9eb1445927b3e92a4e07ffbd0e3" target="_top" xlink:title="몽타주 알림 델리게이트 연결을 해제합니다.">
<polygon fill="white" stroke="#666666" points="364,-30 181,-30 181,0 364,0 364,-30"/>
<text text-anchor="start" x="189" y="-18" font-family="Malgun Gothic" font-size="10.00">AGameCharacter::UnbindMontage</text>
<text text-anchor="middle" x="272.5" y="-7" font-family="Malgun Gothic" font-size="10.00">Delegates</text>
</a>
</g>
</g>
<!-- Node1&#45;&gt;Node2 -->
<g id="edge1_Node000001_Node000002" class="edge">
<title>Node1&#45;&gt;Node2</title>
<g id="a_edge1_Node000001_Node000002"><a xlink:title=" ">
<path fill="none" stroke="#63b8ff" d="M145.26,-15C153.54,-15 162.08,-15 170.65,-15"/>
<polygon fill="#63b8ff" stroke="#63b8ff" points="170.7,-18.5 180.7,-15 170.7,-11.5 170.7,-18.5"/>
</a>
</g>
</g>
<!-- Node3 -->
<g id="Node000003" class="node">
<title>Node3</title>
<g id="a_Node000003"><a xlink:href="classAGameCharacter.html#ad257873cd2be805e3f5ff94f199da294" target="_top" xlink:title="몽타주 노티파이 시작 시 호출되는 콜백입니다.">
<polygon fill="white" stroke="#666666" points="562,-30 400,-30 400,0 562,0 562,-30"/>
<text text-anchor="start" x="408" y="-18" font-family="Malgun Gothic" font-size="10.00">AGameCharacter::OnMontage</text>
<text text-anchor="middle" x="481" y="-7" font-family="Malgun Gothic" font-size="10.00">NotifyBegin</text>
</a>
</g>
</g>
<!-- Node2&#45;&gt;Node3 -->
<g id="edge2_Node000002_Node000003" class="edge">
<title>Node2&#45;&gt;Node3</title>
<g id="a_edge2_Node000002_Node000003"><a xlink:title=" ">
<path fill="none" stroke="#63b8ff" d="M364.07,-15C372.55,-15 381.14,-15 389.61,-15"/>
<polygon fill="#63b8ff" stroke="#63b8ff" points="389.87,-18.5 399.87,-15 389.87,-11.5 389.87,-18.5"/>
</a>
</g>
</g>
</g>
</svg>
