<?xml version="1.0" encoding="UTF-8" standalone="no"?>
<!DOCTYPE svg PUBLIC "-//W3C//DTD SVG 1.1//EN"
 "http://www.w3.org/Graphics/SVG/1.1/DTD/svg11.dtd">
<!-- Generated by graphviz version 2.43.0 (0)
 -->
<!-- Title: UGameDataManager::Deinitialize Pages: 1 -->
<svg width="376pt" height="182pt"
 viewBox="0.00 0.00 376.00 182.00" xmlns="http://www.w3.org/2000/svg" xmlns:xlink="http://www.w3.org/1999/xlink">
<g id="graph0" class="graph" transform="scale(1 1) rotate(0) translate(4 178)">
<title>UGameDataManager::Deinitialize</title>
<!-- Node1 -->
<g id="Node000001" class="node">
<title>Node1</title>
<g id="a_Node000001"><a xlink:title=" ">
<polygon fill="#999999" stroke="#666666" points="181,-96.5 0,-96.5 0,-77.5 181,-77.5 181,-96.5"/>
<text text-anchor="middle" x="90.5" y="-84.5" font-family="Malgun Gothic" font-size="10.00">UGameDataManager::Deinitialize</text>
</a>
</g>
</g>
<!-- Node2 -->
<g id="Node000002" class="node">
<title>Node2</title>
<g id="a_Node000002"><a xlink:href="classUGameDataManager.html#a651c5e84a9c1e17ee397dea01d441c97" target="_top" xlink:title=" ">
<polygon fill="white" stroke="#666666" points="368,-174 217,-174 217,-144 368,-144 368,-174"/>
<text text-anchor="start" x="225" y="-162" font-family="Malgun Gothic" font-size="10.00">UGameDataManager::Clear</text>
<text text-anchor="middle" x="292.5" y="-151" font-family="Malgun Gothic" font-size="10.00">_CharacterAssetData</text>
</a>
</g>
</g>
<!-- Node1&#45;&gt;Node2 -->
<g id="edge1_Node000001_Node000002" class="edge">
<title>Node1&#45;&gt;Node2</title>
<g id="a_edge1_Node000001_Node000002"><a xlink:title=" ">
<path fill="none" stroke="#63b8ff" d="M115.42,-96.59C140.57,-106.56 181.35,-122.45 217,-135 222.42,-136.91 228.08,-138.84 233.76,-140.74"/>
<polygon fill="#63b8ff" stroke="#63b8ff" points="232.69,-144.07 243.28,-143.88 234.89,-137.42 232.69,-144.07"/>
</a>
</g>
</g>
<!-- Node3 -->
<g id="Node000003" class="node">
<title>Node3</title>
<g id="a_Node000003"><a xlink:href="classUGameDataManager.html#abec7a7c40f37b2513959155f13786c4a" target="_top" xlink:title=" ">
<polygon fill="white" stroke="#666666" points="368,-126 217,-126 217,-96 368,-96 368,-126"/>
<text text-anchor="start" x="225" y="-114" font-family="Malgun Gothic" font-size="10.00">UGameDataManager::Clear</text>
<text text-anchor="middle" x="292.5" y="-103" font-family="Malgun Gothic" font-size="10.00">_CharacterInfoData</text>
</a>
</g>
</g>
<!-- Node1&#45;&gt;Node3 -->
<g id="edge2_Node000001_Node000003" class="edge">
<title>Node1&#45;&gt;Node3</title>
<g id="a_edge2_Node000001_Node000003"><a xlink:title=" ">
<path fill="none" stroke="#63b8ff" d="M170.83,-96.52C182.68,-97.94 194.92,-99.41 206.87,-100.84"/>
<polygon fill="#63b8ff" stroke="#63b8ff" points="206.48,-104.32 216.82,-102.04 207.31,-97.37 206.48,-104.32"/>
</a>
</g>
</g>
<!-- Node4 -->
<g id="Node000004" class="node">
<title>Node4</title>
<g id="a_Node000004"><a xlink:href="classUGameDataManager.html#aed049a64af050a3183acfa2b63eeba24" target="_top" xlink:title=" ">
<polygon fill="white" stroke="#666666" points="368,-78 217,-78 217,-48 368,-48 368,-78"/>
<text text-anchor="start" x="225" y="-66" font-family="Malgun Gothic" font-size="10.00">UGameDataManager::Clear</text>
<text text-anchor="middle" x="292.5" y="-55" font-family="Malgun Gothic" font-size="10.00">_HitStopTable</text>
</a>
</g>
</g>
<!-- Node1&#45;&gt;Node4 -->
<g id="edge3_Node000001_Node000004" class="edge">
<title>Node1&#45;&gt;Node4</title>
<g id="a_edge3_Node000001_Node000004"><a xlink:title=" ">
<path fill="none" stroke="#63b8ff" d="M170.83,-77.48C182.68,-76.06 194.92,-74.59 206.87,-73.16"/>
<polygon fill="#63b8ff" stroke="#63b8ff" points="207.31,-76.63 216.82,-71.96 206.48,-69.68 207.31,-76.63"/>
</a>
</g>
</g>
<!-- Node5 -->
<g id="Node000005" class="node">
<title>Node5</title>
<g id="a_Node000005"><a xlink:href="classUGameDataManager.html#ab12673657aa350898fe7b77c9718bf78" target="_top" xlink:title=" ">
<polygon fill="white" stroke="#666666" points="368,-30 217,-30 217,0 368,0 368,-30"/>
<text text-anchor="start" x="225" y="-18" font-family="Malgun Gothic" font-size="10.00">UGameDataManager::Clear</text>
<text text-anchor="middle" x="292.5" y="-7" font-family="Malgun Gothic" font-size="10.00">_KnockbackTable</text>
</a>
</g>
</g>
<!-- Node1&#45;&gt;Node5 -->
<g id="edge4_Node000001_Node000005" class="edge">
<title>Node1&#45;&gt;Node5</title>
<g id="a_edge4_Node000001_Node000005"><a xlink:title=" ">
<path fill="none" stroke="#63b8ff" d="M115.42,-77.41C140.57,-67.44 181.35,-51.55 217,-39 222.42,-37.09 228.08,-35.16 233.76,-33.26"/>
<polygon fill="#63b8ff" stroke="#63b8ff" points="234.89,-36.58 243.28,-30.12 232.69,-29.93 234.89,-36.58"/>
</a>
</g>
</g>
</g>
</svg>
