<?xml version="1.0" encoding="UTF-8" standalone="no"?>
<!DOCTYPE svg PUBLIC "-//W3C//DTD SVG 1.1//EN"
 "http://www.w3.org/Graphics/SVG/1.1/DTD/svg11.dtd">
<!-- Generated by graphviz version 2.43.0 (0)
 -->
<!-- Title: APlayerControl::GetControllable Pages: 1 -->
<svg width="575pt" height="395pt"
 viewBox="0.00 0.00 575.00 394.50" xmlns="http://www.w3.org/2000/svg" xmlns:xlink="http://www.w3.org/1999/xlink">
<g id="graph0" class="graph" transform="scale(1 1) rotate(0) translate(4 390.5)">
<title>APlayerControl::GetControllable</title>
<!-- Node1 -->
<g id="Node000001" class="node">
<title>Node1</title>
<g id="a_Node000001"><a xlink:title=" ">
<polygon fill="#999999" stroke="#666666" points="567,-207.5 395,-207.5 395,-188.5 567,-188.5 567,-207.5"/>
<text text-anchor="middle" x="481" y="-195.5" font-family="Malgun Gothic" font-size="10.00">APlayerControl::GetControllable</text>
</a>
</g>
</g>
<!-- Node2 -->
<g id="Node000002" class="node">
<title>Node2</title>
<g id="a_Node000002"><a xlink:href="classAPlayerControl.html#af8425558108277d10a994f61be0455b7" target="_top" xlink:title=" ">
<polygon fill="white" stroke="#666666" points="359,-386.5 184,-386.5 184,-367.5 359,-367.5 359,-386.5"/>
<text text-anchor="middle" x="271.5" y="-374.5" font-family="Malgun Gothic" font-size="10.00">APlayerControl::OnAltitudeDown</text>
</a>
</g>
</g>
<!-- Node1&#45;&gt;Node2 -->
<g id="edge1_Node000001_Node000002" class="edge">
<title>Node1&#45;&gt;Node2</title>
<g id="a_edge1_Node000001_Node000002"><a xlink:title=" ">
<path fill="none" stroke="#63b8ff" d="M471.21,-217.13C454.51,-251.23 414.81,-322.25 359,-358 352.92,-361.9 346.15,-365.01 339.16,-367.48"/>
<polygon fill="#63b8ff" stroke="#63b8ff" points="474.51,-218.35 475.65,-207.82 468.19,-215.34 474.51,-218.35"/>
</a>
</g>
</g>
<!-- Node4 -->
<g id="Node000004" class="node">
<title>Node4</title>
<g id="a_Node000004"><a xlink:href="classAPlayerControl.html#afb5a7979f52fbc43b228e42d8b32300e" target="_top" xlink:title=" ">
<polygon fill="white" stroke="#666666" points="345,-349 198,-349 198,-319 345,-319 345,-349"/>
<text text-anchor="start" x="206" y="-337" font-family="Malgun Gothic" font-size="10.00">APlayerControl::OnAltitude</text>
<text text-anchor="middle" x="271.5" y="-326" font-family="Malgun Gothic" font-size="10.00">Released</text>
</a>
</g>
</g>
<!-- Node1&#45;&gt;Node4 -->
<g id="edge3_Node000001_Node000004" class="edge">
<title>Node1&#45;&gt;Node4</title>
<g id="a_edge3_Node000001_Node000004"><a xlink:title=" ">
<path fill="none" stroke="#63b8ff" d="M465.86,-215.57C445.03,-240.28 403.73,-285.06 359,-310 352.87,-313.42 346.23,-316.37 339.44,-318.93"/>
<polygon fill="#63b8ff" stroke="#63b8ff" points="468.66,-217.67 472.34,-207.73 463.27,-213.2 468.66,-217.67"/>
</a>
</g>
</g>
<!-- Node5 -->
<g id="Node000005" class="node">
<title>Node5</title>
<g id="a_Node000005"><a xlink:href="classAPlayerControl.html#a03c8d808ba39dcd6cb4bf6b1afb4be62" target="_top" xlink:title=" ">
<polygon fill="white" stroke="#666666" points="352,-300.5 191,-300.5 191,-281.5 352,-281.5 352,-300.5"/>
<text text-anchor="middle" x="271.5" y="-288.5" font-family="Malgun Gothic" font-size="10.00">APlayerControl::OnAltitudeUp</text>
</a>
</g>
</g>
<!-- Node1&#45;&gt;Node5 -->
<g id="edge5_Node000001_Node000005" class="edge">
<title>Node1&#45;&gt;Node5</title>
<g id="a_edge5_Node000001_Node000005"><a xlink:title=" ">
<path fill="none" stroke="#63b8ff" d="M459.7,-213.71C436.58,-230.82 397.06,-257.8 359,-273 350.6,-276.36 341.47,-279.12 332.4,-281.39"/>
<polygon fill="#63b8ff" stroke="#63b8ff" points="461.83,-216.48 467.72,-207.67 457.63,-210.89 461.83,-216.48"/>
</a>
</g>
</g>
<!-- Node6 -->
<g id="Node000006" class="node">
<title>Node6</title>
<g id="a_Node000006"><a xlink:href="classAPlayerControl.html#a7b907934fae8074aff4f121b41c8cf02" target="_top" xlink:title=" ">
<polygon fill="white" stroke="#666666" points="337,-263.5 206,-263.5 206,-244.5 337,-244.5 337,-263.5"/>
<text text-anchor="middle" x="271.5" y="-251.5" font-family="Malgun Gothic" font-size="10.00">APlayerControl::OnChat</text>
</a>
</g>
</g>
<!-- Node1&#45;&gt;Node6 -->
<g id="edge7_Node000001_Node000006" class="edge">
<title>Node1&#45;&gt;Node6</title>
<g id="a_edge7_Node000001_Node000006"><a xlink:title=" ">
<path fill="none" stroke="#63b8ff" d="M442.67,-210.78C418.89,-218.65 387.34,-228.62 359,-236 347.27,-239.05 334.55,-241.94 322.55,-244.46"/>
<polygon fill="#63b8ff" stroke="#63b8ff" points="443.98,-214.03 452.35,-207.54 441.76,-207.39 443.98,-214.03"/>
</a>
</g>
</g>
<!-- Node7 -->
<g id="Node000007" class="node">
<title>Node7</title>
<g id="a_Node000007"><a xlink:href="classAPlayerControl.html#a1bca1ba6619ca2eb51414d2959508433" target="_top" xlink:title=" ">
<polygon fill="white" stroke="#666666" points="338.5,-226.5 204.5,-226.5 204.5,-207.5 338.5,-207.5 338.5,-226.5"/>
<text text-anchor="middle" x="271.5" y="-214.5" font-family="Malgun Gothic" font-size="10.00">APlayerControl::OnJump</text>
</a>
</g>
</g>
<!-- Node1&#45;&gt;Node7 -->
<g id="edge9_Node000001_Node000007" class="edge">
<title>Node1&#45;&gt;Node7</title>
<g id="a_edge9_Node000001_Node000007"><a xlink:title=" ">
<path fill="none" stroke="#63b8ff" d="M384.58,-206.74C369.09,-208.16 353.35,-209.6 338.75,-210.93"/>
<polygon fill="#63b8ff" stroke="#63b8ff" points="385.06,-210.21 394.7,-205.81 384.43,-203.24 385.06,-210.21"/>
</a>
</g>
</g>
<!-- Node8 -->
<g id="Node000008" class="node">
<title>Node8</title>
<g id="a_Node000008"><a xlink:href="classAPlayerControl.html#ad215a10f787ff7104d339bd49c778a4a" target="_top" xlink:title=" ">
<polygon fill="white" stroke="#666666" points="345,-189.5 198,-189.5 198,-170.5 345,-170.5 345,-189.5"/>
<text text-anchor="middle" x="271.5" y="-177.5" font-family="Malgun Gothic" font-size="10.00">APlayerControl::OnLanding</text>
</a>
</g>
</g>
<!-- Node1&#45;&gt;Node8 -->
<g id="edge11_Node000001_Node000008" class="edge">
<title>Node1&#45;&gt;Node8</title>
<g id="a_edge11_Node000001_Node000008"><a xlink:title=" ">
<path fill="none" stroke="#63b8ff" d="M384.63,-189.73C371.38,-188.58 357.95,-187.41 345.22,-186.31"/>
<polygon fill="#63b8ff" stroke="#63b8ff" points="384.44,-193.22 394.7,-190.6 385.04,-186.25 384.44,-193.22"/>
</a>
</g>
</g>
<!-- Node9 -->
<g id="Node000009" class="node">
<title>Node9</title>
<g id="a_Node000009"><a xlink:href="classAPlayerControl.html#a6c7499f4bc744fb6e0920e5195f562c3" target="_top" xlink:title=" ">
<polygon fill="white" stroke="#666666" points="337.5,-152.5 205.5,-152.5 205.5,-133.5 337.5,-133.5 337.5,-152.5"/>
<text text-anchor="middle" x="271.5" y="-140.5" font-family="Malgun Gothic" font-size="10.00">APlayerControl::OnLook</text>
</a>
</g>
</g>
<!-- Node1&#45;&gt;Node9 -->
<g id="edge13_Node000001_Node000009" class="edge">
<title>Node1&#45;&gt;Node9</title>
<g id="a_edge13_Node000001_Node000009"><a xlink:title=" ">
<path fill="none" stroke="#63b8ff" d="M440.22,-185.37C416.71,-178.1 386.3,-169.05 359,-162 346.05,-158.66 331.91,-155.39 318.89,-152.54"/>
<polygon fill="#63b8ff" stroke="#63b8ff" points="439.25,-188.73 449.84,-188.36 441.33,-182.05 439.25,-188.73"/>
</a>
</g>
</g>
<!-- Node10 -->
<g id="Node000010" class="node">
<title>Node10</title>
<g id="a_Node000010"><a xlink:href="classAPlayerControl.html#a6753258935f617283a3cfb653d32b84b" target="_top" xlink:title=" ">
<polygon fill="white" stroke="#666666" points="339.5,-115.5 203.5,-115.5 203.5,-96.5 339.5,-96.5 339.5,-115.5"/>
<text text-anchor="middle" x="271.5" y="-103.5" font-family="Malgun Gothic" font-size="10.00">APlayerControl::OnMove</text>
</a>
</g>
</g>
<!-- Node1&#45;&gt;Node10 -->
<g id="edge15_Node000001_Node000010" class="edge">
<title>Node1&#45;&gt;Node10</title>
<g id="a_edge15_Node000001_Node000010"><a xlink:title=" ">
<path fill="none" stroke="#63b8ff" d="M458.92,-182.33C435.62,-165.74 396.42,-139.93 359,-125 349.43,-121.18 338.95,-118.06 328.68,-115.54"/>
<polygon fill="#63b8ff" stroke="#63b8ff" points="457.16,-185.38 467.31,-188.4 461.26,-179.71 457.16,-185.38"/>
</a>
</g>
</g>
<!-- Node11 -->
<g id="Node000011" class="node">
<title>Node11</title>
<g id="a_Node000011"><a xlink:href="classAPlayerControl.html#ac1a34aa3e6b5a59c28b7b8ae42c4d75d" target="_top" xlink:title=" ">
<polygon fill="white" stroke="#666666" points="343,-78 200,-78 200,-48 343,-48 343,-78"/>
<text text-anchor="start" x="208" y="-66" font-family="Malgun Gothic" font-size="10.00">APlayerControl::OnRecord</text>
<text text-anchor="middle" x="271.5" y="-55" font-family="Malgun Gothic" font-size="10.00">Pressed</text>
</a>
</g>
</g>
<!-- Node1&#45;&gt;Node11 -->
<g id="edge17_Node000001_Node000011" class="edge">
<title>Node1&#45;&gt;Node11</title>
<g id="a_edge17_Node000001_Node000011"><a xlink:title=" ">
<path fill="none" stroke="#63b8ff" d="M465.75,-180.82C444.8,-156.65 403.34,-112.78 359,-88 352.18,-84.19 344.72,-80.91 337.14,-78.1"/>
<polygon fill="#63b8ff" stroke="#63b8ff" points="463.13,-183.14 472.28,-188.49 468.46,-178.6 463.13,-183.14"/>
</a>
</g>
</g>
<!-- Node12 -->
<g id="Node000012" class="node">
<title>Node12</title>
<g id="a_Node000012"><a xlink:href="classAPlayerControl.html#a0b8363f1c71e6644c0575985fca29ba6" target="_top" xlink:title=" ">
<polygon fill="white" stroke="#666666" points="343,-30 200,-30 200,0 343,0 343,-30"/>
<text text-anchor="start" x="208" y="-18" font-family="Malgun Gothic" font-size="10.00">APlayerControl::OnRecord</text>
<text text-anchor="middle" x="271.5" y="-7" font-family="Malgun Gothic" font-size="10.00">Released</text>
</a>
</g>
</g>
<!-- Node1&#45;&gt;Node12 -->
<g id="edge19_Node000001_Node000012" class="edge">
<title>Node1&#45;&gt;Node12</title>
<g id="a_edge19_Node000001_Node000012"><a xlink:title=" ">
<path fill="none" stroke="#63b8ff" d="M470.98,-179.28C453.92,-145.87 413.65,-76.03 359,-39 353.97,-35.59 348.46,-32.66 342.74,-30.15"/>
<polygon fill="#63b8ff" stroke="#63b8ff" points="467.93,-181.01 475.53,-188.4 474.2,-177.89 467.93,-181.01"/>
</a>
</g>
</g>
<!-- Node3 -->
<g id="Node000003" class="node">
<title>Node3</title>
<g id="a_Node000003"><a xlink:href="classAPlayerControl.html#abede09a391c47bdafb3b34a507c80e9b" target="_top" xlink:title=" ">
<polygon fill="white" stroke="#666666" points="148,-213 0,-213 0,-183 148,-183 148,-213"/>
<text text-anchor="start" x="8" y="-201" font-family="Malgun Gothic" font-size="10.00">APlayerControl::SetupInput</text>
<text text-anchor="middle" x="74" y="-190" font-family="Malgun Gothic" font-size="10.00">Component</text>
</a>
</g>
</g>
<!-- Node2&#45;&gt;Node3 -->
<g id="edge2_Node000002_Node000003" class="edge">
<title>Node2&#45;&gt;Node3</title>
<g id="a_edge2_Node000002_Node000003"><a xlink:title=" ">
<path fill="none" stroke="#63b8ff" d="M193.34,-363.4C190.09,-361.79 186.96,-360 184,-358 128.87,-320.73 93.81,-245.4 80.76,-213.18"/>
<polygon fill="#63b8ff" stroke="#63b8ff" points="192.19,-366.72 202.76,-367.45 194.96,-360.28 192.19,-366.72"/>
</a>
</g>
</g>
<!-- Node4&#45;&gt;Node3 -->
<g id="edge4_Node000004_Node000003" class="edge">
<title>Node4&#45;&gt;Node3</title>
<g id="a_edge4_Node000004_Node000003"><a xlink:title=" ">
<path fill="none" stroke="#63b8ff" d="M193.27,-314.92C190.08,-313.4 186.97,-311.76 184,-310 140.81,-284.42 103.12,-237.32 85.54,-213.16"/>
<polygon fill="#63b8ff" stroke="#63b8ff" points="191.91,-318.14 202.48,-318.9 194.69,-311.71 191.91,-318.14"/>
</a>
</g>
</g>
<!-- Node5&#45;&gt;Node3 -->
<g id="edge6_Node000005_Node000003" class="edge">
<title>Node5&#45;&gt;Node3</title>
<g id="a_edge6_Node000005_Node000003"><a xlink:title=" ">
<path fill="none" stroke="#63b8ff" d="M199.45,-278.63C194.14,-276.98 188.94,-275.11 184,-273 148.51,-257.83 112.66,-230.27 92.21,-213.12"/>
<polygon fill="#63b8ff" stroke="#63b8ff" points="198.49,-282 209.07,-281.39 200.42,-275.27 198.49,-282"/>
</a>
</g>
</g>
<!-- Node6&#45;&gt;Node3 -->
<g id="edge8_Node000006_Node000003" class="edge">
<title>Node6&#45;&gt;Node3</title>
<g id="a_edge8_Node000006_Node000003"><a xlink:title=" ">
<path fill="none" stroke="#63b8ff" d="M209.12,-242.26C200.64,-240.34 192.07,-238.24 184,-236 160.53,-229.5 134.79,-220.61 114.22,-213.06"/>
<polygon fill="#63b8ff" stroke="#63b8ff" points="208.49,-245.71 219.01,-244.43 209.99,-238.87 208.49,-245.71"/>
</a>
</g>
</g>
<!-- Node7&#45;&gt;Node3 -->
<g id="edge10_Node000007_Node000003" class="edge">
<title>Node7&#45;&gt;Node3</title>
<g id="a_edge10_Node000007_Node000003"><a xlink:title=" ">
<path fill="none" stroke="#63b8ff" d="M194.01,-209.57C178.93,-208.1 163.14,-206.57 148.17,-205.11"/>
<polygon fill="#63b8ff" stroke="#63b8ff" points="194.02,-213.08 204.31,-210.57 194.7,-206.12 194.02,-213.08"/>
</a>
</g>
</g>
<!-- Node8&#45;&gt;Node3 -->
<g id="edge12_Node000008_Node000003" class="edge">
<title>Node8&#45;&gt;Node3</title>
<g id="a_edge12_Node000008_Node000003"><a xlink:title=" ">
<path fill="none" stroke="#63b8ff" d="M187.94,-187.6C174.69,-188.82 161.06,-190.08 148.05,-191.27"/>
<polygon fill="#63b8ff" stroke="#63b8ff" points="188.34,-191.08 197.98,-186.68 187.7,-184.11 188.34,-191.08"/>
</a>
</g>
</g>
<!-- Node9&#45;&gt;Node3 -->
<g id="edge14_Node000009_Node000003" class="edge">
<title>Node9&#45;&gt;Node3</title>
<g id="a_edge14_Node000009_Node000003"><a xlink:title=" ">
<path fill="none" stroke="#63b8ff" d="M212.76,-154.82C203.12,-157.04 193.24,-159.47 184,-162 161.71,-168.11 137.23,-176.08 117.14,-182.96"/>
<polygon fill="#63b8ff" stroke="#63b8ff" points="213.71,-158.19 222.7,-152.58 212.17,-151.36 213.71,-158.19"/>
</a>
</g>
</g>
<!-- Node10&#45;&gt;Node3 -->
<g id="edge16_Node000010_Node000003" class="edge">
<title>Node10&#45;&gt;Node3</title>
<g id="a_edge16_Node000010_Node000003"><a xlink:title=" ">
<path fill="none" stroke="#63b8ff" d="M203.13,-118.18C196.56,-120.15 190.08,-122.41 184,-125 149.22,-139.83 113.72,-166.12 93.05,-182.78"/>
<polygon fill="#63b8ff" stroke="#63b8ff" points="204.08,-121.55 212.79,-115.52 202.22,-114.81 204.08,-121.55"/>
</a>
</g>
</g>
<!-- Node11&#45;&gt;Node3 -->
<g id="edge18_Node000011_Node000003" class="edge">
<title>Node11&#45;&gt;Node3</title>
<g id="a_edge18_Node000011_Node000003"><a xlink:title=" ">
<path fill="none" stroke="#63b8ff" d="M195.4,-82.05C191.46,-83.87 187.63,-85.85 184,-88 141.46,-113.25 103.76,-159.03 85.92,-182.78"/>
<polygon fill="#63b8ff" stroke="#63b8ff" points="196.9,-85.22 204.76,-78.11 194.19,-78.76 196.9,-85.22"/>
</a>
</g>
</g>
<!-- Node12&#45;&gt;Node3 -->
<g id="edge20_Node000012_Node000003" class="edge">
<title>Node12&#45;&gt;Node3</title>
<g id="a_edge20_Node000012_Node000003"><a xlink:title=" ">
<path fill="none" stroke="#63b8ff" d="M190.58,-34.76C188.31,-36.08 186.11,-37.49 184,-39 130.35,-77.32 94.72,-150.82 81.15,-182.66"/>
<polygon fill="#63b8ff" stroke="#63b8ff" points="192.36,-37.78 199.64,-30.08 189.14,-31.56 192.36,-37.78"/>
</a>
</g>
</g>
</g>
</svg>
