<?xml version="1.0" encoding="UTF-8" standalone="no"?>
<!DOCTYPE svg PUBLIC "-//W3C//DTD SVG 1.1//EN"
 "http://www.w3.org/Graphics/SVG/1.1/DTD/svg11.dtd">
<!-- Generated by graphviz version 2.43.0 (0)
 -->
<!-- Title: UWebSocketSystem::Connect Pages: 1 -->
<!--zoomable 208 -->

<svg id="main" version="1.1" xmlns="http://www.w3.org/2000/svg" xmlns:xlink="http://www.w3.org/1999/xlink" xml:space="preserve" onload="init(evt)">
<style type="text/css"><![CDATA[
.node, .edge {opacity: 0.7;}
.node.selected, .edge.selected {opacity: 1;}
.edge:hover path { stroke: red; }
.edge:hover polygon { stroke: red; fill: red; }
]]></style>

<defs>
  <circle id="rim" cx="0" cy="0" r="7"/>
  <circle id="rim2" cx="0" cy="0" r="3.5"/>
  <g id="zoomPlus">
    <use xlink:href="#rim" fill="#404040"><set attributeName="fill" to="#808080" begin="zoomplus.mouseover" end="zoomplus.mouseout"/></use>
    <path d="M-4,0h8M0,-4v8" fill="none" stroke="white" stroke-width="1.5" pointer-events="none"/>
  </g>
  <g id="zoomMin">
    <use xlink:href="#rim" fill="#404040"><set attributeName="fill" to="#808080" begin="zoomminus.mouseover" end="zoomminus.mouseout"/></use>
    <path d="M-4,0h8" fill="none" stroke="white" stroke-width="1.5" pointer-events="none"/>
  </g>
  <g id="arrowUp" transform="translate(30 24)">
    <use xlink:href="#rim"/>
    <path pointer-events="none" fill="none" stroke="white" stroke-width="1.5" d="M0,-3.0v7 M-2.5,-0.5L0,-3.0L2.5,-0.5"/>
  </g>
  <g id="arrowRight" transform="rotate(90) translate(36 -43)">
    <use xlink:href="#rim"/>
    <path pointer-events="none" fill="none" stroke="white" stroke-width="1.5" d="M0,-3.0v7 M-2.5,-0.5L0,-3.0L2.5,-0.5"/>
  </g>
  <g id="arrowDown" transform="rotate(180) translate(-30 -48)">
    <use xlink:href="#rim"/>
    <path pointer-events="none" fill="none" stroke="white" stroke-width="1.5" d="M0,-3.0v7 M-2.5,-0.5L0,-3.0L2.5,-0.5"/>
  </g>
  <g id="arrowLeft" transform="rotate(270) translate(-36 17)">
    <use xlink:href="#rim"/>
    <path pointer-events="none" fill="none" stroke="white" stroke-width="1.5" d="M0,-3.0v7 M-2.5,-0.5L0,-3.0L2.5,-0.5"/>
  </g>
  <g id="resetDef">
    <use xlink:href="#rim2" fill="#404040"><set attributeName="fill" to="#808080" begin="reset.mouseover" end="reset.mouseout"/></use>
  </g>
</defs>
<script type="application/ecmascript">
var viewWidth = 607;
var viewHeight = 208;
var sectionId = 'dynsection-2';
</script>
<script type="application/ecmascript" xlink:href="svg.min.js"/>
<svg id="graph" class="graph">
<g id="viewport">
<title>UWebSocketSystem::Connect</title>
<!-- Node1 -->
<g id="Node000001" class="node">
<title>Node1</title>
<g id="a_Node000001"><a xlink:title=" ">
<polygon fill="#999999" stroke="#666666" points="160,-120.5 0,-120.5 0,-101.5 160,-101.5 160,-120.5"/>
<text text-anchor="middle" x="80" y="-108.5" font-family="Malgun Gothic" font-size="10.00">UWebSocketSystem::Connect</text>
</a>
</g>
</g>
<!-- Node2 -->
<g id="Node000002" class="node">
<title>Node2</title>
<g id="a_Node000002"><a xlink:href="classUWebSocketSystem.html#a864f4f7d23c89554fbe9a6ddad5aedf1" target="_top" xlink:title=" ">
<polygon fill="white" stroke="#666666" points="599,-120.5 420,-120.5 420,-101.5 599,-101.5 599,-120.5"/>
<text text-anchor="middle" x="509.5" y="-108.5" font-family="Malgun Gothic" font-size="10.00">UWebSocketSystem::LogNetwork</text>
</a>
</g>
</g>
<!-- Node1&#45;&gt;Node2 -->
<g id="edge1_Node000001_Node000002" class="edge">
<title>Node1&#45;&gt;Node2</title>
<g id="a_edge1_Node000001_Node000002"><a xlink:title=" ">
<path fill="none" stroke="#63b8ff" d="M91.72,-120.69C110.92,-137.32 153.21,-170.71 196,-183 276.31,-206.07 303.3,-204.65 384,-183 424.42,-172.16 465.27,-144.65 488.67,-126.95"/>
<polygon fill="#63b8ff" stroke="#63b8ff" points="490.98,-129.59 496.75,-120.7 486.7,-124.05 490.98,-129.59"/>
</a>
</g>
</g>
<!-- Node3 -->
<g id="Node000003" class="node">
<title>Node3</title>
<g id="a_Node000003"><a xlink:href="classUWebSocketSystem.html#a7a88c6a90e78c24cb49759a99f461820" target="_top" xlink:title=" ">
<polygon fill="white" stroke="#666666" points="373.5,-174 206.5,-174 206.5,-144 373.5,-144 373.5,-174"/>
<text text-anchor="start" x="214.5" y="-162" font-family="Malgun Gothic" font-size="10.00">UWebSocketSystem::OnClosed</text>
<text text-anchor="middle" x="290" y="-151" font-family="Malgun Gothic" font-size="10.00">_Native</text>
</a>
</g>
</g>
<!-- Node1&#45;&gt;Node3 -->
<g id="edge2_Node000001_Node000003" class="edge">
<title>Node1&#45;&gt;Node3</title>
<g id="a_edge2_Node000001_Node000003"><a xlink:title=" ">
<path fill="none" stroke="#63b8ff" d="M122.59,-120.6C148.69,-126.62 183.12,-134.57 213.88,-141.67"/>
<polygon fill="#63b8ff" stroke="#63b8ff" points="213.2,-145.1 223.73,-143.94 214.77,-138.28 213.2,-145.1"/>
</a>
</g>
</g>
<!-- Node4 -->
<g id="Node000004" class="node">
<title>Node4</title>
<g id="a_Node000004"><a xlink:href="classUWebSocketSystem.html#a7f1b915b47d4df8053b658927e948009" target="_top" xlink:title=" ">
<polygon fill="white" stroke="#666666" points="382.5,-126 197.5,-126 197.5,-96 382.5,-96 382.5,-126"/>
<text text-anchor="start" x="205.5" y="-114" font-family="Malgun Gothic" font-size="10.00">UWebSocketSystem::OnConnected</text>
<text text-anchor="middle" x="290" y="-103" font-family="Malgun Gothic" font-size="10.00">_Native</text>
</a>
</g>
</g>
<!-- Node1&#45;&gt;Node4 -->
<g id="edge4_Node000001_Node000004" class="edge">
<title>Node1&#45;&gt;Node4</title>
<g id="a_edge4_Node000001_Node000004"><a xlink:title=" ">
<path fill="none" stroke="#63b8ff" d="M160.23,-111C169.07,-111 178.17,-111 187.24,-111"/>
<polygon fill="#63b8ff" stroke="#63b8ff" points="187.46,-114.5 197.46,-111 187.46,-107.5 187.46,-114.5"/>
</a>
</g>
</g>
<!-- Node5 -->
<g id="Node000005" class="node">
<title>Node5</title>
<g id="a_Node000005"><a xlink:href="classUWebSocketSystem.html#a8ff6b512e809cc1065ddd3186bc4372f" target="_top" xlink:title=" ">
<polygon fill="white" stroke="#666666" points="384,-78 196,-78 196,-48 384,-48 384,-78"/>
<text text-anchor="start" x="204" y="-66" font-family="Malgun Gothic" font-size="10.00">UWebSocketSystem::OnConnection</text>
<text text-anchor="middle" x="290" y="-55" font-family="Malgun Gothic" font-size="10.00">Error_Native</text>
</a>
</g>
</g>
<!-- Node1&#45;&gt;Node5 -->
<g id="edge6_Node000001_Node000005" class="edge">
<title>Node1&#45;&gt;Node5</title>
<g id="a_edge6_Node000001_Node000005"><a xlink:title=" ">
<path fill="none" stroke="#63b8ff" d="M122.59,-101.4C148.69,-95.38 183.12,-87.43 213.88,-80.33"/>
<polygon fill="#63b8ff" stroke="#63b8ff" points="214.77,-83.72 223.73,-78.06 213.2,-76.9 214.77,-83.72"/>
</a>
</g>
</g>
<!-- Node6 -->
<g id="Node000006" class="node">
<title>Node6</title>
<g id="a_Node000006"><a xlink:href="classUWebSocketSystem.html#aa701952031766e47200a838dd214c905" target="_top" xlink:title=" ">
<polygon fill="white" stroke="#666666" points="378.5,-30 201.5,-30 201.5,0 378.5,0 378.5,-30"/>
<text text-anchor="start" x="209.5" y="-18" font-family="Malgun Gothic" font-size="10.00">UWebSocketSystem::OnMessage</text>
<text text-anchor="middle" x="290" y="-7" font-family="Malgun Gothic" font-size="10.00">Received_Native</text>
</a>
</g>
</g>
<!-- Node1&#45;&gt;Node6 -->
<g id="edge8_Node000001_Node000006" class="edge">
<title>Node1&#45;&gt;Node6</title>
<g id="a_edge8_Node000001_Node000006"><a xlink:title=" ">
<path fill="none" stroke="#63b8ff" d="M93.39,-101.43C113.74,-86.15 155.96,-56.21 196,-39 200.76,-36.95 205.74,-35.05 210.8,-33.29"/>
<polygon fill="#63b8ff" stroke="#63b8ff" points="212.22,-36.5 220.63,-30.06 210.04,-29.85 212.22,-36.5"/>
</a>
</g>
</g>
<!-- Node3&#45;&gt;Node2 -->
<g id="edge3_Node000003_Node000002" class="edge">
<title>Node3&#45;&gt;Node2</title>
<g id="a_edge3_Node000003_Node000002"><a xlink:title=" ">
<path fill="none" stroke="#63b8ff" d="M359.22,-143.94C390.2,-137.11 426.3,-129.14 455.24,-122.75"/>
<polygon fill="#63b8ff" stroke="#63b8ff" points="456.15,-126.14 465.16,-120.56 454.64,-119.3 456.15,-126.14"/>
</a>
</g>
</g>
<!-- Node4&#45;&gt;Node2 -->
<g id="edge5_Node000004_Node000002" class="edge">
<title>Node4&#45;&gt;Node2</title>
<g id="a_edge5_Node000004_Node000002"><a xlink:title=" ">
<path fill="none" stroke="#63b8ff" d="M382.61,-111C391.55,-111 400.65,-111 409.66,-111"/>
<polygon fill="#63b8ff" stroke="#63b8ff" points="409.78,-114.5 419.78,-111 409.78,-107.5 409.78,-114.5"/>
</a>
</g>
</g>
<!-- Node5&#45;&gt;Node2 -->
<g id="edge7_Node000005_Node000002" class="edge">
<title>Node5&#45;&gt;Node2</title>
<g id="a_edge7_Node000005_Node000002"><a xlink:title=" ">
<path fill="none" stroke="#63b8ff" d="M359.22,-78.06C390.2,-84.89 426.3,-92.86 455.24,-99.25"/>
<polygon fill="#63b8ff" stroke="#63b8ff" points="454.64,-102.7 465.16,-101.44 456.15,-95.86 454.64,-102.7"/>
</a>
</g>
</g>
<!-- Node6&#45;&gt;Node2 -->
<g id="edge9_Node000006_Node000002" class="edge">
<title>Node6&#45;&gt;Node2</title>
<g id="a_edge9_Node000006_Node000002"><a xlink:title=" ">
<path fill="none" stroke="#63b8ff" d="M358.26,-30.03C367.04,-32.66 375.82,-35.65 384,-39 421.91,-54.51 462.36,-79.71 486.52,-95.81"/>
<polygon fill="#63b8ff" stroke="#63b8ff" points="484.7,-98.8 494.95,-101.49 488.62,-93 484.7,-98.8"/>
</a>
</g>
</g>
</g>
</svg>

<g id="navigator" transform="translate(0 0)" fill="#404254">
  <rect fill="#f2f5e9" fill-opacity="0.5" stroke="#606060" stroke-width=".5" x="0" y="0" width="60" height="60"/>
  <use id="zoomplus" xlink:href="#zoomPlus" x="17" y="9" onmousedown="handleZoom(evt,'in')"/>
  <use id="zoomminus" xlink:href="#zoomMin" x="42" y="9" onmousedown="handleZoom(evt,'out')"/>
  <use id="reset" xlink:href="#resetDef" x="30" y="36" onmousedown="handleReset()"/>
   <use id="arrowup" xlink:href="#arrowUp" x="0" y="0" onmousedown="handlePan(0,-1)"/>
  <use id="arrowright" xlink:href="#arrowRight" x="0" y="0" onmousedown="handlePan(1,0)"/>
  <use id="arrowdown" xlink:href="#arrowDown" x="0" y="0" onmousedown="handlePan(0,1)"/>
  <use id="arrowleft" xlink:href="#arrowLeft" x="0" y="0" onmousedown="handlePan(-1,0)"/>
</g>
<svg viewBox="0 0 15 15" width="100%" height="30px" preserveAspectRatio="xMaxYMin meet">
 <g id="arrow_out" transform="scale(0.3 0.3)">
  <a xlink:href="classUWebSocketSystem_aa72ee8bc548882770c3d47bbba4d3086_cgraph_org.svg" target="_base">
   <rect id="button" ry="5" rx="5" y="6" x="6" height="38" width="38"
        fill="#f2f5e9" fill-opacity="0.5" stroke="#606060" stroke-width="1.0"/>
   <path id="arrow"
     d="M 11.500037,31.436501 C 11.940474,20.09759 22.043105,11.32322 32.158766,21.979434 L 37.068811,17.246167 C 37.068811,17.246167 37.088388,32 37.088388,32 L 22.160133,31.978069 C 22.160133,31.978069 26.997745,27.140456 26.997745,27.140456 C 18.528582,18.264221 13.291696,25.230495 11.500037,31.436501 z"
     style="fill:#404040;"/>
  </a>
 </g>
</svg>

<style type='text/css'>
<![CDATA[
[data-mouse-over-selected='false'] { opacity: 0.7; }
[data-mouse-over-selected='true']  { opacity: 1.0; }
]]>
</style>
<script type="application/ecmascript"><![CDATA[
document.addEventListener('DOMContentLoaded', (event) => {
  highlightEdges();
  highlightAdjacentNodes();
});
]]></script>
</svg>
