<?xml version="1.0" encoding="UTF-8" standalone="no"?>
<!DOCTYPE svg PUBLIC "-//W3C//DTD SVG 1.1//EN"
 "http://www.w3.org/Graphics/SVG/1.1/DTD/svg11.dtd">
<!-- Generated by graphviz version 2.43.0 (0)
 -->
<!-- Title: IControllable Pages: 1 -->
<svg width="177pt" height="457pt"
 viewBox="0.00 0.00 177.00 457.00" xmlns="http://www.w3.org/2000/svg" xmlns:xlink="http://www.w3.org/1999/xlink">
<g id="graph0" class="graph" transform="scale(1 1) rotate(0) translate(4 453)">
<title>IControllable</title>
<!-- Node1 -->
<g id="Node000001" class="node">
<title>Node1</title>
<g id="a_Node000001"><a xlink:title=" ">
<polygon fill="#999999" stroke="transparent" points="154.5,-449 14.5,-449 14.5,-310 154.5,-310 154.5,-449"/>
<text text-anchor="start" x="53" y="-436.5" font-family="Malgun Gothic" font-size="10.00">IControllable</text>
<text text-anchor="start" x="82.5" y="-421.5" font-family="Malgun Gothic" font-size="10.00"> </text>
<text text-anchor="start" x="18.5" y="-406.5" font-family="Malgun Gothic" font-size="10.00">+</text>
<text text-anchor="start" x="31.5" y="-406.5" font-family="Malgun Gothic" font-size="10.00">Cmd_AltitudeDown()</text>
<text text-anchor="start" x="18.5" y="-391.5" font-family="Malgun Gothic" font-size="10.00">+</text>
<text text-anchor="start" x="31.5" y="-391.5" font-family="Malgun Gothic" font-size="10.00">Cmd_AltitudeReleased()</text>
<text text-anchor="start" x="18.5" y="-376.5" font-family="Malgun Gothic" font-size="10.00">+</text>
<text text-anchor="start" x="31.5" y="-376.5" font-family="Malgun Gothic" font-size="10.00">Cmd_AltitudeUp()</text>
<text text-anchor="start" x="18.5" y="-361.5" font-family="Malgun Gothic" font-size="10.00">+</text>
<text text-anchor="start" x="31.5" y="-361.5" font-family="Malgun Gothic" font-size="10.00">Cmd_Jump()</text>
<text text-anchor="start" x="18.5" y="-346.5" font-family="Malgun Gothic" font-size="10.00">+</text>
<text text-anchor="start" x="31.5" y="-346.5" font-family="Malgun Gothic" font-size="10.00">Cmd_Landing()</text>
<text text-anchor="start" x="18.5" y="-331.5" font-family="Malgun Gothic" font-size="10.00">+</text>
<text text-anchor="start" x="31.5" y="-331.5" font-family="Malgun Gothic" font-size="10.00">Cmd_Look()</text>
<text text-anchor="start" x="18.5" y="-316.5" font-family="Malgun Gothic" font-size="10.00">+</text>
<text text-anchor="start" x="31.5" y="-316.5" font-family="Malgun Gothic" font-size="10.00">Cmd_Move()</text>
<polygon fill="#666666" stroke="#666666" points="14.5,-431.5 14.5,-431.5 154.5,-431.5 154.5,-431.5 14.5,-431.5"/>
<polygon fill="#666666" stroke="#666666" points="14.5,-416.5 14.5,-416.5 154.5,-416.5 154.5,-416.5 14.5,-416.5"/>
<polygon fill="none" stroke="#666666" points="14.5,-310 14.5,-449 154.5,-449 154.5,-310 14.5,-310"/>
</a>
</g>
</g>
<!-- Node2 -->
<g id="Node000002" class="node">
<title>Node2</title>
<g id="a_Node000002"><a xlink:href="classAPlayerActor.html" target="_top" xlink:title="Main character driven directly by the player.">
<polygon fill="white" stroke="transparent" points="169,-274 0,-274 0,0 169,0 169,-274"/>
<text text-anchor="start" x="53" y="-262" font-family="Malgun Gothic" font-size="10.00">APlayerActor</text>
<text text-anchor="start" x="4.5" y="-247" font-family="Malgun Gothic" font-size="10.00">+</text>
<text text-anchor="start" x="17.5" y="-247" font-family="Malgun Gothic" font-size="10.00">CameraShakeSystem</text>
<text text-anchor="start" x="4.5" y="-232" font-family="Malgun Gothic" font-size="10.00">+</text>
<text text-anchor="start" x="17.5" y="-232" font-family="Malgun Gothic" font-size="10.00">VoiceCaptureComponent</text>
<text text-anchor="start" x="4.5" y="-217" font-family="Malgun Gothic" font-size="10.00">+</text>
<text text-anchor="start" x="17.5" y="-217" font-family="Malgun Gothic" font-size="10.00">VoiceSystem</text>
<text text-anchor="start" x="4.5" y="-202" font-family="Malgun Gothic" font-size="10.00">#</text>
<text text-anchor="start" x="17.5" y="-202" font-family="Malgun Gothic" font-size="10.00">FollowCamera</text>
<text text-anchor="start" x="4.5" y="-187" font-family="Malgun Gothic" font-size="10.00">#</text>
<text text-anchor="start" x="17.5" y="-187" font-family="Malgun Gothic" font-size="10.00">SpringArmComp</text>
<text text-anchor="start" x="4.5" y="-172" font-family="Malgun Gothic" font-size="10.00">+</text>
<text text-anchor="start" x="17.5" y="-172" font-family="Malgun Gothic" font-size="10.00">APlayerActor()</text>
<text text-anchor="start" x="4.5" y="-157" font-family="Malgun Gothic" font-size="10.00">+</text>
<text text-anchor="start" x="17.5" y="-157" font-family="Malgun Gothic" font-size="10.00">Cmd_AltitudeDown()</text>
<text text-anchor="start" x="4.5" y="-142" font-family="Malgun Gothic" font-size="10.00">+</text>
<text text-anchor="start" x="17.5" y="-142" font-family="Malgun Gothic" font-size="10.00">Cmd_AltitudeReleased()</text>
<text text-anchor="start" x="4.5" y="-127" font-family="Malgun Gothic" font-size="10.00">+</text>
<text text-anchor="start" x="17.5" y="-127" font-family="Malgun Gothic" font-size="10.00">Cmd_AltitudeUp()</text>
<text text-anchor="start" x="4.5" y="-112" font-family="Malgun Gothic" font-size="10.00">+</text>
<text text-anchor="start" x="17.5" y="-112" font-family="Malgun Gothic" font-size="10.00">Cmd_Jump()</text>
<text text-anchor="start" x="4.5" y="-97" font-family="Malgun Gothic" font-size="10.00">+</text>
<text text-anchor="start" x="17.5" y="-97" font-family="Malgun Gothic" font-size="10.00">Cmd_Landing()</text>
<text text-anchor="start" x="4.5" y="-82" font-family="Malgun Gothic" font-size="10.00">+</text>
<text text-anchor="start" x="17.5" y="-82" font-family="Malgun Gothic" font-size="10.00">Cmd_Look()</text>
<text text-anchor="start" x="4.5" y="-67" font-family="Malgun Gothic" font-size="10.00">+</text>
<text text-anchor="start" x="17.5" y="-67" font-family="Malgun Gothic" font-size="10.00">Cmd_Move()</text>
<text text-anchor="start" x="4.5" y="-52" font-family="Malgun Gothic" font-size="10.00">+</text>
<text text-anchor="start" x="17.5" y="-52" font-family="Malgun Gothic" font-size="10.00">Cmd_SpeakText()</text>
<text text-anchor="start" x="4.5" y="-37" font-family="Malgun Gothic" font-size="10.00">+</text>
<text text-anchor="start" x="17.5" y="-37" font-family="Malgun Gothic" font-size="10.00">Landed()</text>
<text text-anchor="start" x="4.5" y="-22" font-family="Malgun Gothic" font-size="10.00">#</text>
<text text-anchor="start" x="17.5" y="-22" font-family="Malgun Gothic" font-size="10.00">BeginPlay()</text>
<text text-anchor="start" x="4.5" y="-7" font-family="Malgun Gothic" font-size="10.00">#</text>
<text text-anchor="start" x="17.5" y="-7" font-family="Malgun Gothic" font-size="10.00">SetupPlayerInputComponent()</text>
<polygon fill="#666666" stroke="#666666" points="0.5,-257 0.5,-257 169.5,-257 169.5,-257 0.5,-257"/>
<polygon fill="#666666" stroke="#666666" points="0.5,-182 0.5,-182 15.5,-182 15.5,-182 0.5,-182"/>
<polygon fill="#666666" stroke="#666666" points="15.5,-182 15.5,-182 169.5,-182 169.5,-182 15.5,-182"/>
<polygon fill="none" stroke="#666666" points="0,0 0,-274 169,-274 169,0 0,0"/>
</a>
</g>
</g>
<!-- Node1&#45;&gt;Node2 -->
<g id="edge1_Node000001_Node000002" class="edge">
<title>Node1&#45;&gt;Node2</title>
<g id="a_edge1_Node000001_Node000002"><a xlink:title=" ">
<path fill="none" stroke="#63b8ff" d="M84.5,-299.71C84.5,-291.52 84.5,-283.04 84.5,-274.45"/>
<polygon fill="none" stroke="#63b8ff" points="81,-299.9 84.5,-309.9 88,-299.9 81,-299.9"/>
</a>
</g>
</g>
</g>
</svg>
