<?xml version="1.0" encoding="UTF-8" standalone="no"?>
<!DOCTYPE svg PUBLIC "-//W3C//DTD SVG 1.1//EN"
 "http://www.w3.org/Graphics/SVG/1.1/DTD/svg11.dtd">
<!-- Generated by graphviz version 2.43.0 (0)
 -->
<!-- Title: APlayerActor Pages: 1 -->
<svg width="232pt" height="517pt"
 viewBox="0.00 0.00 231.50 517.00" xmlns="http://www.w3.org/2000/svg" xmlns:xlink="http://www.w3.org/1999/xlink">
<g id="graph0" class="graph" transform="scale(1 1) rotate(0) translate(4 513)">
<title>APlayerActor</title>
<!-- Node1 -->
<g id="Node000001" class="node">
<title>Node1</title>
<g id="a_Node000001"><a xlink:title=" ">
<polygon fill="#999999" stroke="transparent" points="177,-289 8,-289 8,0 177,0 177,-289"/>
<text text-anchor="start" x="61" y="-276.5" font-family="Malgun Gothic" font-size="10.00">APlayerActor</text>
<text text-anchor="start" x="12.5" y="-261.5" font-family="Malgun Gothic" font-size="10.00">+</text>
<text text-anchor="start" x="25.5" y="-261.5" font-family="Malgun Gothic" font-size="10.00">AnimInstance</text>
<text text-anchor="start" x="12.5" y="-246.5" font-family="Malgun Gothic" font-size="10.00">+</text>
<text text-anchor="start" x="25.5" y="-246.5" font-family="Malgun Gothic" font-size="10.00">FollowCamera</text>
<text text-anchor="start" x="12.5" y="-231.5" font-family="Malgun Gothic" font-size="10.00">+</text>
<text text-anchor="start" x="25.5" y="-231.5" font-family="Malgun Gothic" font-size="10.00">MainWidgetClass</text>
<text text-anchor="start" x="12.5" y="-216.5" font-family="Malgun Gothic" font-size="10.00">+</text>
<text text-anchor="start" x="25.5" y="-216.5" font-family="Malgun Gothic" font-size="10.00">MainWidgetInst</text>
<text text-anchor="start" x="12.5" y="-201.5" font-family="Malgun Gothic" font-size="10.00">+</text>
<text text-anchor="start" x="25.5" y="-201.5" font-family="Malgun Gothic" font-size="10.00">MeshComp</text>
<text text-anchor="start" x="12.5" y="-186.5" font-family="Malgun Gothic" font-size="10.00">+</text>
<text text-anchor="start" x="25.5" y="-186.5" font-family="Malgun Gothic" font-size="10.00">MoveComp</text>
<text text-anchor="start" x="12.5" y="-171.5" font-family="Malgun Gothic" font-size="10.00">+</text>
<text text-anchor="start" x="25.5" y="-171.5" font-family="Malgun Gothic" font-size="10.00">SpringArmComp</text>
<text text-anchor="start" x="12.5" y="-156.5" font-family="Malgun Gothic" font-size="10.00">+</text>
<text text-anchor="start" x="25.5" y="-156.5" font-family="Malgun Gothic" font-size="10.00">VoiceRecordSystem</text>
<text text-anchor="start" x="12.5" y="-141.5" font-family="Malgun Gothic" font-size="10.00">+</text>
<text text-anchor="start" x="25.5" y="-141.5" font-family="Malgun Gothic" font-size="10.00">APlayerActor()</text>
<text text-anchor="start" x="12.5" y="-126.5" font-family="Malgun Gothic" font-size="10.00">+</text>
<text text-anchor="start" x="25.5" y="-126.5" font-family="Malgun Gothic" font-size="10.00">Cmd_Chat()</text>
<text text-anchor="start" x="12.5" y="-111.5" font-family="Malgun Gothic" font-size="10.00">+</text>
<text text-anchor="start" x="25.5" y="-111.5" font-family="Malgun Gothic" font-size="10.00">Cmd_Jump()</text>
<text text-anchor="start" x="12.5" y="-96.5" font-family="Malgun Gothic" font-size="10.00">+</text>
<text text-anchor="start" x="25.5" y="-96.5" font-family="Malgun Gothic" font-size="10.00">Cmd_Look()</text>
<text text-anchor="start" x="12.5" y="-81.5" font-family="Malgun Gothic" font-size="10.00">+</text>
<text text-anchor="start" x="25.5" y="-81.5" font-family="Malgun Gothic" font-size="10.00">Cmd_Move()</text>
<text text-anchor="start" x="12.5" y="-66.5" font-family="Malgun Gothic" font-size="10.00">+</text>
<text text-anchor="start" x="25.5" y="-66.5" font-family="Malgun Gothic" font-size="10.00">Cmd_RecordEnd()</text>
<text text-anchor="start" x="12.5" y="-51.5" font-family="Malgun Gothic" font-size="10.00">+</text>
<text text-anchor="start" x="25.5" y="-51.5" font-family="Malgun Gothic" font-size="10.00">Cmd_RecordStart()</text>
<text text-anchor="start" x="12.5" y="-36.5" font-family="Malgun Gothic" font-size="10.00">+</text>
<text text-anchor="start" x="25.5" y="-36.5" font-family="Malgun Gothic" font-size="10.00">SetupPlayerInputComponent()</text>
<text text-anchor="start" x="12.5" y="-21.5" font-family="Malgun Gothic" font-size="10.00">+</text>
<text text-anchor="start" x="25.5" y="-21.5" font-family="Malgun Gothic" font-size="10.00">Tick()</text>
<text text-anchor="start" x="12.5" y="-6.5" font-family="Malgun Gothic" font-size="10.00">#</text>
<text text-anchor="start" x="25.5" y="-6.5" font-family="Malgun Gothic" font-size="10.00">BeginPlay()</text>
<polygon fill="#666666" stroke="#666666" points="8.5,-271.5 8.5,-271.5 177.5,-271.5 177.5,-271.5 8.5,-271.5"/>
<polygon fill="#666666" stroke="#666666" points="8.5,-151.5 8.5,-151.5 23.5,-151.5 23.5,-151.5 8.5,-151.5"/>
<polygon fill="#666666" stroke="#666666" points="23.5,-151.5 23.5,-151.5 177.5,-151.5 177.5,-151.5 23.5,-151.5"/>
<polygon fill="none" stroke="#666666" points="8,0 8,-289 177,-289 177,0 8,0"/>
</a>
</g>
</g>
<!-- Node2 -->
<g id="Node000002" class="node">
<title>Node2</title>
<g id="a_Node000002"><a xlink:title=" ">
<polygon fill="white" stroke="transparent" points="65,-441.5 0,-441.5 0,-392.5 65,-392.5 65,-441.5"/>
<text text-anchor="start" x="5.5" y="-429" font-family="Malgun Gothic" font-size="10.00">ACharacter</text>
<text text-anchor="start" x="31" y="-414" font-family="Malgun Gothic" font-size="10.00"> </text>
<text text-anchor="start" x="31" y="-399" font-family="Malgun Gothic" font-size="10.00"> </text>
<polygon fill="#666666" stroke="#666666" points="0.5,-424 0.5,-424 65.5,-424 65.5,-424 0.5,-424"/>
<polygon fill="#666666" stroke="#666666" points="0.5,-409 0.5,-409 65.5,-409 65.5,-409 0.5,-409"/>
<polygon fill="none" stroke="#666666" points="0,-392.5 0,-441.5 65,-441.5 65,-392.5 0,-392.5"/>
</a>
</g>
</g>
<!-- Node2&#45;&gt;Node1 -->
<g id="edge1_Node000001_Node000002" class="edge">
<title>Node2&#45;&gt;Node1</title>
<g id="a_edge1_Node000001_Node000002"><a xlink:title=" ">
<path fill="none" stroke="#63b8ff" d="M39.93,-382.49C45.26,-358.46 52.85,-324.26 60.61,-289.29"/>
<polygon fill="none" stroke="#63b8ff" points="36.47,-381.95 37.72,-392.47 43.3,-383.46 36.47,-381.95"/>
</a>
</g>
</g>
<!-- Node3 -->
<g id="Node000003" class="node">
<title>Node3</title>
<g id="a_Node000003"><a xlink:href="classIControllable.html" target="_top" xlink:title=" ">
<polygon fill="white" stroke="transparent" points="223.5,-509 83.5,-509 83.5,-325 223.5,-325 223.5,-509"/>
<text text-anchor="start" x="122" y="-497" font-family="Malgun Gothic" font-size="10.00">IControllable</text>
<text text-anchor="start" x="151.5" y="-482" font-family="Malgun Gothic" font-size="10.00"> </text>
<text text-anchor="start" x="87.5" y="-467" font-family="Malgun Gothic" font-size="10.00">+</text>
<text text-anchor="start" x="100.5" y="-467" font-family="Malgun Gothic" font-size="10.00">Cmd_AltitudeDown()</text>
<text text-anchor="start" x="87.5" y="-452" font-family="Malgun Gothic" font-size="10.00">+</text>
<text text-anchor="start" x="100.5" y="-452" font-family="Malgun Gothic" font-size="10.00">Cmd_AltitudeReleased()</text>
<text text-anchor="start" x="87.5" y="-437" font-family="Malgun Gothic" font-size="10.00">+</text>
<text text-anchor="start" x="100.5" y="-437" font-family="Malgun Gothic" font-size="10.00">Cmd_AltitudeUp()</text>
<text text-anchor="start" x="87.5" y="-422" font-family="Malgun Gothic" font-size="10.00">+</text>
<text text-anchor="start" x="100.5" y="-422" font-family="Malgun Gothic" font-size="10.00">Cmd_Chat()</text>
<text text-anchor="start" x="87.5" y="-407" font-family="Malgun Gothic" font-size="10.00">+</text>
<text text-anchor="start" x="100.5" y="-407" font-family="Malgun Gothic" font-size="10.00">Cmd_Jump()</text>
<text text-anchor="start" x="87.5" y="-392" font-family="Malgun Gothic" font-size="10.00">+</text>
<text text-anchor="start" x="100.5" y="-392" font-family="Malgun Gothic" font-size="10.00">Cmd_Landing()</text>
<text text-anchor="start" x="87.5" y="-377" font-family="Malgun Gothic" font-size="10.00">+</text>
<text text-anchor="start" x="100.5" y="-377" font-family="Malgun Gothic" font-size="10.00">Cmd_Look()</text>
<text text-anchor="start" x="87.5" y="-362" font-family="Malgun Gothic" font-size="10.00">+</text>
<text text-anchor="start" x="100.5" y="-362" font-family="Malgun Gothic" font-size="10.00">Cmd_Move()</text>
<text text-anchor="start" x="87.5" y="-347" font-family="Malgun Gothic" font-size="10.00">+</text>
<text text-anchor="start" x="100.5" y="-347" font-family="Malgun Gothic" font-size="10.00">Cmd_RecordEnd()</text>
<text text-anchor="start" x="87.5" y="-332" font-family="Malgun Gothic" font-size="10.00">+</text>
<text text-anchor="start" x="100.5" y="-332" font-family="Malgun Gothic" font-size="10.00">Cmd_RecordStart()</text>
<polygon fill="#666666" stroke="#666666" points="83.5,-492 83.5,-492 223.5,-492 223.5,-492 83.5,-492"/>
<polygon fill="#666666" stroke="#666666" points="83.5,-477 83.5,-477 223.5,-477 223.5,-477 83.5,-477"/>
<polygon fill="none" stroke="#666666" points="83.5,-325 83.5,-509 223.5,-509 223.5,-325 83.5,-325"/>
</a>
</g>
</g>
<!-- Node3&#45;&gt;Node1 -->
<g id="edge2_Node000001_Node000003" class="edge">
<title>Node3&#45;&gt;Node1</title>
<g id="a_edge2_Node000001_Node000003"><a xlink:title=" ">
<path fill="none" stroke="#63b8ff" d="M130.72,-314.99C128.82,-306.55 126.87,-297.92 124.92,-289.24"/>
<polygon fill="none" stroke="#63b8ff" points="127.32,-315.81 132.93,-324.8 134.15,-314.27 127.32,-315.81"/>
</a>
</g>
</g>
</g>
</svg>
