<?xml version="1.0" encoding="UTF-8" standalone="no"?>
<!DOCTYPE svg PUBLIC "-//W3C//DTD SVG 1.1//EN"
 "http://www.w3.org/Graphics/SVG/1.1/DTD/svg11.dtd">
<!-- Generated by graphviz version 2.43.0 (0)
 -->
<!-- Title: UCustomNetworkSettings::GetCurrentServerMode Pages: 1 -->
<svg width="489pt" height="86pt"
 viewBox="0.00 0.00 489.00 86.00" xmlns="http://www.w3.org/2000/svg" xmlns:xlink="http://www.w3.org/1999/xlink">
<g id="graph0" class="graph" transform="scale(1 1) rotate(0) translate(4 82)">
<title>UCustomNetworkSettings::GetCurrentServerMode</title>
<!-- Node1 -->
<g id="Node000001" class="node">
<title>Node1</title>
<g id="a_Node000001"><a xlink:title=" ">
<polygon fill="#999999" stroke="#666666" points="481,-54 338,-54 338,-24 481,-24 481,-54"/>
<text text-anchor="start" x="346" y="-42" font-family="Malgun Gothic" font-size="10.00">UCustomNetworkSettings</text>
<text text-anchor="middle" x="409.5" y="-31" font-family="Malgun Gothic" font-size="10.00">::GetCurrentServerMode</text>
</a>
</g>
</g>
<!-- Node2 -->
<g id="Node000002" class="node">
<title>Node2</title>
<g id="a_Node000002"><a xlink:href="namespaceNetworkConfig.html#ab5ac57e8f51de6d1740c7a88534a7246" target="_top" xlink:title=" ">
<polygon fill="white" stroke="#666666" points="302,-48.5 159,-48.5 159,-29.5 302,-29.5 302,-48.5"/>
<text text-anchor="middle" x="230.5" y="-36.5" font-family="Malgun Gothic" font-size="10.00">NetworkConfig::GetFullUrl</text>
</a>
</g>
</g>
<!-- Node1&#45;&gt;Node2 -->
<g id="edge1_Node000001_Node000002" class="edge">
<title>Node1&#45;&gt;Node2</title>
<g id="a_edge1_Node000001_Node000002"><a xlink:title=" ">
<path fill="none" stroke="#63b8ff" d="M327.51,-39C319.03,-39 310.46,-39 302.11,-39"/>
<polygon fill="#63b8ff" stroke="#63b8ff" points="327.78,-42.5 337.78,-39 327.78,-35.5 327.78,-42.5"/>
</a>
</g>
</g>
<!-- Node3 -->
<g id="Node000003" class="node">
<title>Node3</title>
<g id="a_Node000003"><a xlink:href="classUHttpNetworkSystem.html#a5409712d1a8c7226e51c68335fcc3d48" target="_top" xlink:title=" ">
<polygon fill="white" stroke="#666666" points="123,-78 0,-78 0,-48 123,-48 123,-78"/>
<text text-anchor="start" x="8" y="-66" font-family="Malgun Gothic" font-size="10.00">UHttpNetworkSystem</text>
<text text-anchor="middle" x="61.5" y="-55" font-family="Malgun Gothic" font-size="10.00">::RequestHealth</text>
</a>
</g>
</g>
<!-- Node2&#45;&gt;Node3 -->
<g id="edge2_Node000002_Node000003" class="edge">
<title>Node2&#45;&gt;Node3</title>
<g id="a_edge2_Node000002_Node000003"><a xlink:title=" ">
<path fill="none" stroke="#63b8ff" d="M153.04,-49.99C142.99,-51.43 132.8,-52.9 123.07,-54.3"/>
<polygon fill="#63b8ff" stroke="#63b8ff" points="153.62,-53.44 163.02,-48.55 152.62,-46.51 153.62,-53.44"/>
</a>
</g>
</g>
<!-- Node4 -->
<g id="Node000004" class="node">
<title>Node4</title>
<g id="a_Node000004"><a xlink:href="classUHttpNetworkSystem.html#a474cacb1973f532ade37f342167f9ed2" target="_top" xlink:title=" ">
<polygon fill="white" stroke="#666666" points="123,-30 0,-30 0,0 123,0 123,-30"/>
<text text-anchor="start" x="8" y="-18" font-family="Malgun Gothic" font-size="10.00">UHttpNetworkSystem</text>
<text text-anchor="middle" x="61.5" y="-7" font-family="Malgun Gothic" font-size="10.00">::RequestHelpChat</text>
</a>
</g>
</g>
<!-- Node2&#45;&gt;Node4 -->
<g id="edge3_Node000002_Node000004" class="edge">
<title>Node2&#45;&gt;Node4</title>
<g id="a_edge3_Node000002_Node000004"><a xlink:title=" ">
<path fill="none" stroke="#63b8ff" d="M153.04,-28.01C142.99,-26.57 132.8,-25.1 123.07,-23.7"/>
<polygon fill="#63b8ff" stroke="#63b8ff" points="152.62,-31.49 163.02,-29.45 153.62,-24.56 152.62,-31.49"/>
</a>
</g>
</g>
</g>
</svg>
