<?xml version="1.0" encoding="UTF-8" standalone="no"?>
<!DOCTYPE svg PUBLIC "-//W3C//DTD SVG 1.1//EN"
 "http://www.w3.org/Graphics/SVG/1.1/DTD/svg11.dtd">
<!-- Generated by graphviz version 2.43.0 (0)
 -->
<!-- Title: UBroadcastManger Pages: 1 -->
<!--zoomable 545 -->

<svg id="main" version="1.1" xmlns="http://www.w3.org/2000/svg" xmlns:xlink="http://www.w3.org/1999/xlink" xml:space="preserve" onload="init(evt)">
<style type="text/css"><![CDATA[
.node, .edge {opacity: 0.7;}
.node.selected, .edge.selected {opacity: 1;}
.edge:hover path { stroke: red; }
.edge:hover polygon { stroke: red; fill: red; }
]]></style>

<defs>
  <circle id="rim" cx="0" cy="0" r="7"/>
  <circle id="rim2" cx="0" cy="0" r="3.5"/>
  <g id="zoomPlus">
    <use xlink:href="#rim" fill="#404040"><set attributeName="fill" to="#808080" begin="zoomplus.mouseover" end="zoomplus.mouseout"/></use>
    <path d="M-4,0h8M0,-4v8" fill="none" stroke="white" stroke-width="1.5" pointer-events="none"/>
  </g>
  <g id="zoomMin">
    <use xlink:href="#rim" fill="#404040"><set attributeName="fill" to="#808080" begin="zoomminus.mouseover" end="zoomminus.mouseout"/></use>
    <path d="M-4,0h8" fill="none" stroke="white" stroke-width="1.5" pointer-events="none"/>
  </g>
  <g id="arrowUp" transform="translate(30 24)">
    <use xlink:href="#rim"/>
    <path pointer-events="none" fill="none" stroke="white" stroke-width="1.5" d="M0,-3.0v7 M-2.5,-0.5L0,-3.0L2.5,-0.5"/>
  </g>
  <g id="arrowRight" transform="rotate(90) translate(36 -43)">
    <use xlink:href="#rim"/>
    <path pointer-events="none" fill="none" stroke="white" stroke-width="1.5" d="M0,-3.0v7 M-2.5,-0.5L0,-3.0L2.5,-0.5"/>
  </g>
  <g id="arrowDown" transform="rotate(180) translate(-30 -48)">
    <use xlink:href="#rim"/>
    <path pointer-events="none" fill="none" stroke="white" stroke-width="1.5" d="M0,-3.0v7 M-2.5,-0.5L0,-3.0L2.5,-0.5"/>
  </g>
  <g id="arrowLeft" transform="rotate(270) translate(-36 17)">
    <use xlink:href="#rim"/>
    <path pointer-events="none" fill="none" stroke="white" stroke-width="1.5" d="M0,-3.0v7 M-2.5,-0.5L0,-3.0L2.5,-0.5"/>
  </g>
  <g id="resetDef">
    <use xlink:href="#rim2" fill="#404040"><set attributeName="fill" to="#808080" begin="reset.mouseover" end="reset.mouseout"/></use>
  </g>
</defs>
<script type="application/ecmascript">
var viewWidth = 188;
var viewHeight = 545;
var sectionId = 'dynsection-1';
</script>
<script type="application/ecmascript" xlink:href="svg.min.js"/>
<svg id="graph" class="graph">
<g id="viewport">
<title>UBroadcastManger</title>
<!-- Node1 -->
<g id="Node000001" class="node">
<title>Node1</title>
<g id="a_Node000001"><a xlink:title=" ">
<polygon fill="#999999" stroke="transparent" points="180,-452 0,-452 0,0 180,0 180,-452"/>
<text text-anchor="start" x="43" y="-440" font-family="Malgun Gothic" font-size="10.00">UBroadcastManger</text>
<text text-anchor="start" x="4" y="-425" font-family="Malgun Gothic" font-size="10.00">+</text>
<text text-anchor="start" x="17" y="-425" font-family="Malgun Gothic" font-size="10.00">OnCameraShake</text>
<text text-anchor="start" x="4" y="-410" font-family="Malgun Gothic" font-size="10.00">+</text>
<text text-anchor="start" x="17" y="-410" font-family="Malgun Gothic" font-size="10.00">OnDoorMessage</text>
<text text-anchor="start" x="4" y="-395" font-family="Malgun Gothic" font-size="10.00">+</text>
<text text-anchor="start" x="17" y="-395" font-family="Malgun Gothic" font-size="10.00">OnForceCameraShake</text>
<text text-anchor="start" x="4" y="-380" font-family="Malgun Gothic" font-size="10.00">+</text>
<text text-anchor="start" x="17" y="-380" font-family="Malgun Gothic" font-size="10.00">OnHitStop</text>
<text text-anchor="start" x="4" y="-365" font-family="Malgun Gothic" font-size="10.00">+</text>
<text text-anchor="start" x="17" y="-365" font-family="Malgun Gothic" font-size="10.00">OnKnockback</text>
<text text-anchor="start" x="4" y="-350" font-family="Malgun Gothic" font-size="10.00">+</text>
<text text-anchor="start" x="17" y="-350" font-family="Malgun Gothic" font-size="10.00">OnMessage</text>
<text text-anchor="start" x="4" y="-335" font-family="Malgun Gothic" font-size="10.00">+</text>
<text text-anchor="start" x="17" y="-335" font-family="Malgun Gothic" font-size="10.00">OnToastMessage</text>
<text text-anchor="start" x="4" y="-320" font-family="Malgun Gothic" font-size="10.00">+</text>
<text text-anchor="start" x="17" y="-320" font-family="Malgun Gothic" font-size="10.00">DECLARE_DYNAMIC_MULTICAST</text>
<text text-anchor="start" x="17" y="-309" font-family="Malgun Gothic" font-size="10.00">_DELEGATE_FourParams()</text>
<text text-anchor="start" x="4" y="-294" font-family="Malgun Gothic" font-size="10.00">+</text>
<text text-anchor="start" x="17" y="-294" font-family="Malgun Gothic" font-size="10.00">DECLARE_DYNAMIC_MULTICAST</text>
<text text-anchor="start" x="17" y="-283" font-family="Malgun Gothic" font-size="10.00">_DELEGATE_OneParam()</text>
<text text-anchor="start" x="4" y="-268" font-family="Malgun Gothic" font-size="10.00">+</text>
<text text-anchor="start" x="17" y="-268" font-family="Malgun Gothic" font-size="10.00">DECLARE_DYNAMIC_MULTICAST</text>
<text text-anchor="start" x="17" y="-257" font-family="Malgun Gothic" font-size="10.00">_DELEGATE_OneParam()</text>
<text text-anchor="start" x="4" y="-242" font-family="Malgun Gothic" font-size="10.00">+</text>
<text text-anchor="start" x="17" y="-242" font-family="Malgun Gothic" font-size="10.00">DECLARE_DYNAMIC_MULTICAST</text>
<text text-anchor="start" x="17" y="-231" font-family="Malgun Gothic" font-size="10.00">_DELEGATE_OneParam()</text>
<text text-anchor="start" x="4" y="-216" font-family="Malgun Gothic" font-size="10.00">+</text>
<text text-anchor="start" x="17" y="-216" font-family="Malgun Gothic" font-size="10.00">DECLARE_DYNAMIC_MULTICAST</text>
<text text-anchor="start" x="17" y="-205" font-family="Malgun Gothic" font-size="10.00">_DELEGATE_TwoParams()</text>
<text text-anchor="start" x="4" y="-190" font-family="Malgun Gothic" font-size="10.00">+</text>
<text text-anchor="start" x="17" y="-190" font-family="Malgun Gothic" font-size="10.00">DECLARE_DYNAMIC_MULTICAST</text>
<text text-anchor="start" x="17" y="-179" font-family="Malgun Gothic" font-size="10.00">_DELEGATE_TwoParams()</text>
<text text-anchor="start" x="4" y="-164" font-family="Malgun Gothic" font-size="10.00">+</text>
<text text-anchor="start" x="17" y="-164" font-family="Malgun Gothic" font-size="10.00">DECLARE_DYNAMIC_MULTICAST</text>
<text text-anchor="start" x="17" y="-153" font-family="Malgun Gothic" font-size="10.00">_DELEGATE_TwoParams()</text>
<text text-anchor="start" x="4" y="-138" font-family="Malgun Gothic" font-size="10.00">+</text>
<text text-anchor="start" x="17" y="-138" font-family="Malgun Gothic" font-size="10.00">DEFINE_SUBSYSTEM_GETTER</text>
<text text-anchor="start" x="17" y="-127" font-family="Malgun Gothic" font-size="10.00">_INLINE()</text>
<text text-anchor="start" x="4" y="-112" font-family="Malgun Gothic" font-size="10.00">+</text>
<text text-anchor="start" x="17" y="-112" font-family="Malgun Gothic" font-size="10.00">SendCameraShake()</text>
<text text-anchor="start" x="4" y="-97" font-family="Malgun Gothic" font-size="10.00">+</text>
<text text-anchor="start" x="17" y="-97" font-family="Malgun Gothic" font-size="10.00">SendForceCameraShake()</text>
<text text-anchor="start" x="4" y="-82" font-family="Malgun Gothic" font-size="10.00">+</text>
<text text-anchor="start" x="17" y="-82" font-family="Malgun Gothic" font-size="10.00">SendHitStop()</text>
<text text-anchor="start" x="4" y="-67" font-family="Malgun Gothic" font-size="10.00">+</text>
<text text-anchor="start" x="17" y="-67" font-family="Malgun Gothic" font-size="10.00">SendHitStopPair()</text>
<text text-anchor="start" x="4" y="-52" font-family="Malgun Gothic" font-size="10.00">+</text>
<text text-anchor="start" x="17" y="-52" font-family="Malgun Gothic" font-size="10.00">SendKnockback()</text>
<text text-anchor="start" x="4" y="-37" font-family="Malgun Gothic" font-size="10.00">+</text>
<text text-anchor="start" x="17" y="-37" font-family="Malgun Gothic" font-size="10.00">SendMessage()</text>
<text text-anchor="start" x="4" y="-22" font-family="Malgun Gothic" font-size="10.00">+</text>
<text text-anchor="start" x="17" y="-22" font-family="Malgun Gothic" font-size="10.00">SendOnDoorMessage()</text>
<text text-anchor="start" x="4" y="-7" font-family="Malgun Gothic" font-size="10.00">+</text>
<text text-anchor="start" x="17" y="-7" font-family="Malgun Gothic" font-size="10.00">SendToastMessage()</text>
<polygon fill="#666666" stroke="#666666" points="0,-435 0,-435 180,-435 180,-435 0,-435"/>
<polygon fill="#666666" stroke="#666666" points="0,-330 0,-330 15,-330 15,-330 0,-330"/>
<polygon fill="#666666" stroke="#666666" points="15,-330 15,-330 180,-330 180,-330 15,-330"/>
<polygon fill="none" stroke="#666666" points="0,0 0,-452 180,-452 180,0 0,0"/>
</a>
</g>
</g>
<!-- Node2 -->
<g id="Node000002" class="node">
<title>Node2</title>
<g id="a_Node000002"><a xlink:title=" ">
<polygon fill="white" stroke="transparent" points="161.5,-537 18.5,-537 18.5,-488 161.5,-488 161.5,-537"/>
<text text-anchor="start" x="24" y="-524.5" font-family="Malgun Gothic" font-size="10.00">UGameInstanceSubsystem</text>
<text text-anchor="start" x="88.5" y="-509.5" font-family="Malgun Gothic" font-size="10.00"> </text>
<text text-anchor="start" x="88.5" y="-494.5" font-family="Malgun Gothic" font-size="10.00"> </text>
<polygon fill="#666666" stroke="#666666" points="19,-519.5 19,-519.5 162,-519.5 162,-519.5 19,-519.5"/>
<polygon fill="#666666" stroke="#666666" points="19,-504.5 19,-504.5 162,-504.5 162,-504.5 19,-504.5"/>
<polygon fill="none" stroke="#666666" points="18.5,-488 18.5,-537 161.5,-537 161.5,-488 18.5,-488"/>
</a>
</g>
</g>
<!-- Node2&#45;&gt;Node1 -->
<g id="edge1_Node000001_Node000002" class="edge">
<title>Node2&#45;&gt;Node1</title>
<g id="a_edge1_Node000001_Node000002"><a xlink:title=" ">
<path fill="none" stroke="#63b8ff" d="M90,-477.69C90,-470.09 90,-461.48 90,-452.13"/>
<polygon fill="none" stroke="#63b8ff" points="86.5,-477.73 90,-487.73 93.5,-477.73 86.5,-477.73"/>
</a>
</g>
</g>
</g>
</svg>

<g id="navigator" transform="translate(0 0)" fill="#404254">
  <rect fill="#f2f5e9" fill-opacity="0.5" stroke="#606060" stroke-width=".5" x="0" y="0" width="60" height="60"/>
  <use id="zoomplus" xlink:href="#zoomPlus" x="17" y="9" onmousedown="handleZoom(evt,'in')"/>
  <use id="zoomminus" xlink:href="#zoomMin" x="42" y="9" onmousedown="handleZoom(evt,'out')"/>
  <use id="reset" xlink:href="#resetDef" x="30" y="36" onmousedown="handleReset()"/>
   <use id="arrowup" xlink:href="#arrowUp" x="0" y="0" onmousedown="handlePan(0,-1)"/>
  <use id="arrowright" xlink:href="#arrowRight" x="0" y="0" onmousedown="handlePan(1,0)"/>
  <use id="arrowdown" xlink:href="#arrowDown" x="0" y="0" onmousedown="handlePan(0,1)"/>
  <use id="arrowleft" xlink:href="#arrowLeft" x="0" y="0" onmousedown="handlePan(-1,0)"/>
</g>
<svg viewBox="0 0 15 15" width="100%" height="30px" preserveAspectRatio="xMaxYMin meet">
 <g id="arrow_out" transform="scale(0.3 0.3)">
  <a xlink:href="classUBroadcastManger__coll__graph_org.svg" target="_base">
   <rect id="button" ry="5" rx="5" y="6" x="6" height="38" width="38"
        fill="#f2f5e9" fill-opacity="0.5" stroke="#606060" stroke-width="1.0"/>
   <path id="arrow"
     d="M 11.500037,31.436501 C 11.940474,20.09759 22.043105,11.32322 32.158766,21.979434 L 37.068811,17.246167 C 37.068811,17.246167 37.088388,32 37.088388,32 L 22.160133,31.978069 C 22.160133,31.978069 26.997745,27.140456 26.997745,27.140456 C 18.528582,18.264221 13.291696,25.230495 11.500037,31.436501 z"
     style="fill:#404040;"/>
  </a>
 </g>
</svg>

<style type='text/css'>
<![CDATA[
[data-mouse-over-selected='false'] { opacity: 0.7; }
[data-mouse-over-selected='true']  { opacity: 1.0; }
]]>
</style>
<script type="application/ecmascript"><![CDATA[
document.addEventListener('DOMContentLoaded', (event) => {
  highlightEdges();
  highlightAdjacentNodes();
});
]]></script>
</svg>
