<?xml version="1.0" encoding="UTF-8" standalone="no"?>
<!DOCTYPE svg PUBLIC "-//W3C//DTD SVG 1.1//EN"
 "http://www.w3.org/Graphics/SVG/1.1/DTD/svg11.dtd">
<!-- Generated by graphviz version 2.43.0 (0)
 -->
<!-- Title: AGate::OpenDoor Pages: 1 -->
<svg width="415pt" height="64pt"
 viewBox="0.00 0.00 415.00 64.00" xmlns="http://www.w3.org/2000/svg" xmlns:xlink="http://www.w3.org/1999/xlink">

<svg id="main" version="1.1" xmlns="http://www.w3.org/2000/svg" xmlns:xlink="http://www.w3.org/1999/xlink" xml:space="preserve" onload="init(evt)">
<style type="text/css"><![CDATA[
.node, .edge {opacity: 0.7;}
.node.selected, .edge.selected {opacity: 1;}
.edge:hover path { stroke: red; }
.edge:hover polygon { stroke: red; fill: red; }
]]></style>
<script type="application/ecmascript" xlink:href="svg.min.js"/>
<svg id="graph" class="graph">
<g id="graph0" class="graph" transform="scale(1 1) rotate(0) translate(4 60)">
<title>AGate::OpenDoor</title>
<!-- Node1 -->
<g id="Node000001" class="node">
<title>Node1</title>
<g id="a_Node000001"><a xlink:title=" ">
<polygon fill="#999999" stroke="#666666" points="407,-37 306,-37 306,-18 407,-18 407,-37"/>
<text text-anchor="middle" x="356.5" y="-25" font-family="Malgun Gothic" font-size="10.00">AGate::OpenDoor</text>
</a>
</g>
</g>
<!-- Node2 -->
<g id="Node000002" class="node">
<title>Node2</title>
<g id="a_Node000002"><a xlink:href="classAGate.html#a889b91ba704a598adbf0d443b3f74f4c" target="_top" xlink:title=" ">
<polygon fill="white" stroke="#666666" points="270,-56 137,-56 137,-37 270,-37 270,-56"/>
<text text-anchor="middle" x="203.5" y="-44" font-family="Malgun Gothic" font-size="10.00">AGate::OnDoorMessage</text>
</a>
</g>
</g>
<!-- Node1&#45;&gt;Node2 -->
<g id="edge1_Node000001_Node000002" class="edge">
<title>Node1&#45;&gt;Node2</title>
<g id="a_edge1_Node000001_Node000002"><a xlink:title=" ">
<path fill="none" stroke="#63b8ff" d="M295.61,-35.04C287.26,-36.09 278.65,-37.17 270.2,-38.23"/>
<polygon fill="#63b8ff" stroke="#63b8ff" points="296.15,-38.5 305.64,-33.77 295.28,-31.55 296.15,-38.5"/>
</a>
</g>
</g>
<!-- Node4 -->
<g id="Node000004" class="node">
<title>Node4</title>
<g id="a_Node000004"><a xlink:href="classAGate.html#ad25807f4959f5d5ad657205a62f1a673" target="_top" xlink:title=" ">
<polygon fill="white" stroke="#666666" points="269.5,-19 137.5,-19 137.5,0 269.5,0 269.5,-19"/>
<text text-anchor="middle" x="203.5" y="-7" font-family="Malgun Gothic" font-size="10.00">AGate::OnOverlapBegin</text>
</a>
</g>
</g>
<!-- Node1&#45;&gt;Node4 -->
<g id="edge3_Node000001_Node000004" class="edge">
<title>Node1&#45;&gt;Node4</title>
<g id="a_edge3_Node000001_Node000004"><a xlink:title=" ">
<path fill="none" stroke="#63b8ff" d="M295.46,-20.34C286.98,-19.33 278.23,-18.29 269.66,-17.27"/>
<polygon fill="#63b8ff" stroke="#63b8ff" points="295.29,-23.85 305.64,-21.56 296.12,-16.9 295.29,-23.85"/>
</a>
</g>
</g>
<!-- Node3 -->
<g id="Node000003" class="node">
<title>Node3</title>
<g id="a_Node000003"><a xlink:href="classAGate.html#a15d812fadd17df2b56d3157df555727f" target="_top" xlink:title=" ">
<polygon fill="white" stroke="#666666" points="101,-56 0,-56 0,-37 101,-37 101,-56"/>
<text text-anchor="middle" x="50.5" y="-44" font-family="Malgun Gothic" font-size="10.00">AGate::BeginPlay</text>
</a>
</g>
</g>
<!-- Node2&#45;&gt;Node3 -->
<g id="edge2_Node000002_Node000003" class="edge">
<title>Node2&#45;&gt;Node3</title>
<g id="a_edge2_Node000002_Node000003"><a xlink:title=" ">
<path fill="none" stroke="#63b8ff" d="M126.6,-46.5C117.97,-46.5 109.34,-46.5 101.18,-46.5"/>
<polygon fill="#63b8ff" stroke="#63b8ff" points="126.71,-50 136.71,-46.5 126.71,-43 126.71,-50"/>
</a>
</g>
</g>
<!-- Node5 -->
<g id="Node000005" class="node">
<title>Node5</title>
<g id="a_Node000005"><a xlink:href="classAGate.html#a1cbee808a8817006d47e687055da4d57" target="_top" xlink:title=" ">
<polygon fill="white" stroke="#666666" points="92,-19 9,-19 9,0 92,0 92,-19"/>
<text text-anchor="middle" x="50.5" y="-7" font-family="Malgun Gothic" font-size="10.00">AGate::AGate</text>
</a>
</g>
</g>
<!-- Node4&#45;&gt;Node5 -->
<g id="edge4_Node000004_Node000005" class="edge">
<title>Node4&#45;&gt;Node5</title>
<g id="a_edge4_Node000004_Node000005"><a xlink:title=" ">
<path fill="none" stroke="#63b8ff" d="M127.05,-9.5C115,-9.5 102.94,-9.5 92.11,-9.5"/>
<polygon fill="#63b8ff" stroke="#63b8ff" points="127.15,-13 137.15,-9.5 127.15,-6 127.15,-13"/>
</a>
</g>
</g>
</g>
</svg>
</svg>

<style type='text/css'>
<![CDATA[
[data-mouse-over-selected='false'] { opacity: 0.7; }
[data-mouse-over-selected='true']  { opacity: 1.0; }
]]>
</style>
<script type="application/ecmascript"><![CDATA[
document.addEventListener('DOMContentLoaded', (event) => {
  highlightEdges();
  highlightAdjacentNodes();
});
]]></script>
</svg>
