<?xml version="1.0" encoding="UTF-8" standalone="no"?>
<!DOCTYPE svg PUBLIC "-//W3C//DTD SVG 1.1//EN"
 "http://www.w3.org/Graphics/SVG/1.1/DTD/svg11.dtd">
<!-- Generated by graphviz version 2.43.0 (0)
 -->
<!-- Title: UDialogWidget Pages: 1 -->
<svg width="116pt" height="202pt"
 viewBox="0.00 0.00 116.00 202.00" xmlns="http://www.w3.org/2000/svg" xmlns:xlink="http://www.w3.org/1999/xlink">

<svg id="main" version="1.1" xmlns="http://www.w3.org/2000/svg" xmlns:xlink="http://www.w3.org/1999/xlink" xml:space="preserve" onload="init(evt)">
<style type="text/css"><![CDATA[
.node, .edge {opacity: 0.7;}
.node.selected, .edge.selected {opacity: 1;}
.edge:hover path { stroke: red; }
.edge:hover polygon { stroke: red; fill: red; }
]]></style>
<script type="application/ecmascript" xlink:href="svg.min.js"/>
<svg id="graph" class="graph">
<g id="graph0" class="graph" transform="scale(1 1) rotate(0) translate(4 198)">
<title>UDialogWidget</title>
<!-- Node1 -->
<g id="Node000001" class="node">
<title>Node1</title>
<g id="a_Node000001"><a xlink:title=" ">
<polygon fill="#999999" stroke="transparent" points="108,-109 0,-109 0,0 108,0 108,-109"/>
<text text-anchor="start" x="17" y="-96.5" font-family="Malgun Gothic" font-size="10.00">UDialogWidget</text>
<text text-anchor="start" x="4" y="-81.5" font-family="Malgun Gothic" font-size="10.00">+</text>
<text text-anchor="start" x="17" y="-81.5" font-family="Malgun Gothic" font-size="10.00">DialogBorder</text>
<text text-anchor="start" x="4" y="-66.5" font-family="Malgun Gothic" font-size="10.00">+</text>
<text text-anchor="start" x="17" y="-66.5" font-family="Malgun Gothic" font-size="10.00">DialogText</text>
<text text-anchor="start" x="4" y="-51.5" font-family="Malgun Gothic" font-size="10.00">#</text>
<text text-anchor="start" x="17" y="-51.5" font-family="Malgun Gothic" font-size="10.00">ActivateColor</text>
<text text-anchor="start" x="4" y="-36.5" font-family="Malgun Gothic" font-size="10.00">#</text>
<text text-anchor="start" x="17" y="-36.5" font-family="Malgun Gothic" font-size="10.00">DeactivateColor</text>
<text text-anchor="start" x="4" y="-21.5" font-family="Malgun Gothic" font-size="10.00">+</text>
<text text-anchor="start" x="17" y="-21.5" font-family="Malgun Gothic" font-size="10.00">NativeConstruct()</text>
<text text-anchor="start" x="4" y="-6.5" font-family="Malgun Gothic" font-size="10.00">+</text>
<text text-anchor="start" x="17" y="-6.5" font-family="Malgun Gothic" font-size="10.00">ShowDialog()</text>
<polygon fill="#666666" stroke="#666666" points="0,-91.5 0,-91.5 108,-91.5 108,-91.5 0,-91.5"/>
<polygon fill="#666666" stroke="#666666" points="0,-31.5 0,-31.5 15,-31.5 15,-31.5 0,-31.5"/>
<polygon fill="#666666" stroke="#666666" points="15,-31.5 15,-31.5 108,-31.5 108,-31.5 15,-31.5"/>
<polygon fill="none" stroke="#666666" points="0,0 0,-109 108,-109 108,0 0,0"/>
</a>
</g>
</g>
<!-- Node2 -->
<g id="Node000002" class="node">
<title>Node2</title>
<g id="a_Node000002"><a xlink:title=" ">
<polygon fill="white" stroke="transparent" points="91.5,-194 16.5,-194 16.5,-145 91.5,-145 91.5,-194"/>
<text text-anchor="start" x="22" y="-181.5" font-family="Malgun Gothic" font-size="10.00">UUserWidget</text>
<text text-anchor="start" x="52.5" y="-166.5" font-family="Malgun Gothic" font-size="10.00"> </text>
<text text-anchor="start" x="52.5" y="-151.5" font-family="Malgun Gothic" font-size="10.00"> </text>
<polygon fill="#666666" stroke="#666666" points="17,-176.5 17,-176.5 92,-176.5 92,-176.5 17,-176.5"/>
<polygon fill="#666666" stroke="#666666" points="17,-161.5 17,-161.5 92,-161.5 92,-161.5 17,-161.5"/>
<polygon fill="none" stroke="#666666" points="16.5,-145 16.5,-194 91.5,-194 91.5,-145 16.5,-145"/>
</a>
</g>
</g>
<!-- Node2&#45;&gt;Node1 -->
<g id="edge1_Node000001_Node000002" class="edge">
<title>Node2&#45;&gt;Node1</title>
<g id="a_edge1_Node000001_Node000002"><a xlink:title=" ">
<path fill="none" stroke="#63b8ff" d="M54,-134.79C54,-126.79 54,-118.06 54,-109.41"/>
<polygon fill="none" stroke="#63b8ff" points="50.5,-134.81 54,-144.81 57.5,-134.81 50.5,-134.81"/>
</a>
</g>
</g>
</g>
</svg>
</svg>

<style type='text/css'>
<![CDATA[
[data-mouse-over-selected='false'] { opacity: 0.7; }
[data-mouse-over-selected='true']  { opacity: 1.0; }
]]>
</style>
<script type="application/ecmascript"><![CDATA[
document.addEventListener('DOMContentLoaded', (event) => {
  highlightEdges();
  highlightAdjacentNodes();
});
]]></script>
</svg>
