<?xml version="1.0" encoding="UTF-8" standalone="no"?>
<!DOCTYPE svg PUBLIC "-//W3C//DTD SVG 1.1//EN"
 "http://www.w3.org/Graphics/SVG/1.1/DTD/svg11.dtd">
<!-- Generated by graphviz version 2.43.0 (0)
 -->
<!-- Title: UWebSocketSystem::SendMessage Pages: 1 -->
<svg width="412pt" height="64pt"
 viewBox="0.00 0.00 412.00 64.00" xmlns="http://www.w3.org/2000/svg" xmlns:xlink="http://www.w3.org/1999/xlink">
<g id="graph0" class="graph" transform="scale(1 1) rotate(0) translate(4 60)">
<title>UWebSocketSystem::SendMessage</title>
<!-- Node1 -->
<g id="Node000001" class="node">
<title>Node1</title>
<g id="a_Node000001"><a xlink:title=" ">
<polygon fill="#999999" stroke="#666666" points="188,-37 0,-37 0,-18 188,-18 188,-37"/>
<text text-anchor="middle" x="94" y="-25" font-family="Malgun Gothic" font-size="10.00">UWebSocketSystem::SendMessage</text>
</a>
</g>
</g>
<!-- Node2 -->
<g id="Node000002" class="node">
<title>Node2</title>
<g id="a_Node000002"><a xlink:href="classUWebSocketSystem.html#a89bbc98f683cca370ea2e91fbd36ca7b" target="_top" xlink:title=" ">
<polygon fill="white" stroke="#666666" points="404,-56 224,-56 224,-37 404,-37 404,-56"/>
<text text-anchor="middle" x="314" y="-44" font-family="Malgun Gothic" font-size="10.00">UWebSocketSystem::IsConnected</text>
</a>
</g>
</g>
<!-- Node1&#45;&gt;Node2 -->
<g id="edge1_Node000001_Node000002" class="edge">
<title>Node1&#45;&gt;Node2</title>
<g id="a_edge1_Node000001_Node000002"><a xlink:title=" ">
<path fill="none" stroke="#63b8ff" d="M188.08,-35.61C196.57,-36.35 205.18,-37.1 213.72,-37.85"/>
<polygon fill="#63b8ff" stroke="#63b8ff" points="213.42,-41.33 223.69,-38.72 214.03,-34.36 213.42,-41.33"/>
</a>
</g>
</g>
<!-- Node3 -->
<g id="Node000003" class="node">
<title>Node3</title>
<g id="a_Node000003"><a xlink:href="classUWebSocketSystem.html#a864f4f7d23c89554fbe9a6ddad5aedf1" target="_top" xlink:title=" ">
<polygon fill="white" stroke="#666666" points="403.5,-19 224.5,-19 224.5,0 403.5,0 403.5,-19"/>
<text text-anchor="middle" x="314" y="-7" font-family="Malgun Gothic" font-size="10.00">UWebSocketSystem::LogNetwork</text>
</a>
</g>
</g>
<!-- Node1&#45;&gt;Node3 -->
<g id="edge2_Node000001_Node000003" class="edge">
<title>Node1&#45;&gt;Node3</title>
<g id="a_edge2_Node000001_Node000003"><a xlink:title=" ">
<path fill="none" stroke="#63b8ff" d="M188.08,-19.81C196.73,-19.1 205.52,-18.37 214.22,-17.66"/>
<polygon fill="#63b8ff" stroke="#63b8ff" points="214.7,-21.13 224.38,-16.82 214.13,-14.15 214.7,-21.13"/>
</a>
</g>
</g>
</g>
</svg>
