<?xml version="1.0" encoding="UTF-8" standalone="no"?>
<!DOCTYPE svg PUBLIC "-//W3C//DTD SVG 1.1//EN"
 "http://www.w3.org/Graphics/SVG/1.1/DTD/svg11.dtd">
<!-- Generated by graphviz version 2.43.0 (0)
 -->
<!-- Title: UCharacterData Pages: 1 -->
<svg width="142pt" height="292pt"
 viewBox="0.00 0.00 142.00 292.00" xmlns="http://www.w3.org/2000/svg" xmlns:xlink="http://www.w3.org/1999/xlink">

<svg id="main" version="1.1" xmlns="http://www.w3.org/2000/svg" xmlns:xlink="http://www.w3.org/1999/xlink" xml:space="preserve" onload="init(evt)">
<style type="text/css"><![CDATA[
.node, .edge {opacity: 0.7;}
.node.selected, .edge.selected {opacity: 1;}
.edge:hover path { stroke: red; }
.edge:hover polygon { stroke: red; fill: red; }
]]></style>
<script type="application/ecmascript" xlink:href="svg.min.js"/>
<svg id="graph" class="graph">
<g id="graph0" class="graph" transform="scale(1 1) rotate(0) translate(4 288)">
<title>UCharacterData</title>
<!-- Node1 -->
<g id="Node000001" class="node">
<title>Node1</title>
<g id="a_Node000001"><a xlink:title=" ">
<polygon fill="#999999" stroke="transparent" points="134,-199 0,-199 0,0 134,0 134,-199"/>
<text text-anchor="start" x="27.5" y="-186.5" font-family="Malgun Gothic" font-size="10.00">UCharacterData</text>
<text text-anchor="start" x="4" y="-171.5" font-family="Malgun Gothic" font-size="10.00">+</text>
<text text-anchor="start" x="17" y="-171.5" font-family="Malgun Gothic" font-size="10.00">AnimBluePrint</text>
<text text-anchor="start" x="4" y="-156.5" font-family="Malgun Gothic" font-size="10.00">+</text>
<text text-anchor="start" x="17" y="-156.5" font-family="Malgun Gothic" font-size="10.00">IdleAsset</text>
<text text-anchor="start" x="4" y="-141.5" font-family="Malgun Gothic" font-size="10.00">+</text>
<text text-anchor="start" x="17" y="-141.5" font-family="Malgun Gothic" font-size="10.00">LeftFootSocketName</text>
<text text-anchor="start" x="4" y="-126.5" font-family="Malgun Gothic" font-size="10.00">+</text>
<text text-anchor="start" x="17" y="-126.5" font-family="Malgun Gothic" font-size="10.00">LeftHandSocketName</text>
<text text-anchor="start" x="4" y="-111.5" font-family="Malgun Gothic" font-size="10.00">+</text>
<text text-anchor="start" x="17" y="-111.5" font-family="Malgun Gothic" font-size="10.00">MaterialArray</text>
<text text-anchor="start" x="4" y="-96.5" font-family="Malgun Gothic" font-size="10.00">+</text>
<text text-anchor="start" x="17" y="-96.5" font-family="Malgun Gothic" font-size="10.00">MeshData</text>
<text text-anchor="start" x="4" y="-81.5" font-family="Malgun Gothic" font-size="10.00">+</text>
<text text-anchor="start" x="17" y="-81.5" font-family="Malgun Gothic" font-size="10.00">RelativeLocation</text>
<text text-anchor="start" x="4" y="-66.5" font-family="Malgun Gothic" font-size="10.00">+</text>
<text text-anchor="start" x="17" y="-66.5" font-family="Malgun Gothic" font-size="10.00">RelativeRotator</text>
<text text-anchor="start" x="4" y="-51.5" font-family="Malgun Gothic" font-size="10.00">+</text>
<text text-anchor="start" x="17" y="-51.5" font-family="Malgun Gothic" font-size="10.00">RelativeScale</text>
<text text-anchor="start" x="4" y="-36.5" font-family="Malgun Gothic" font-size="10.00">+</text>
<text text-anchor="start" x="17" y="-36.5" font-family="Malgun Gothic" font-size="10.00">RightFootSocketName</text>
<text text-anchor="start" x="4" y="-21.5" font-family="Malgun Gothic" font-size="10.00">+</text>
<text text-anchor="start" x="17" y="-21.5" font-family="Malgun Gothic" font-size="10.00">RightHandSocketName</text>
<text text-anchor="start" x="4" y="-6.5" font-family="Malgun Gothic" font-size="10.00">+</text>
<text text-anchor="start" x="17" y="-6.5" font-family="Malgun Gothic" font-size="10.00">LoadIdleMontage()</text>
<polygon fill="#666666" stroke="#666666" points="0,-181.5 0,-181.5 134,-181.5 134,-181.5 0,-181.5"/>
<polygon fill="#666666" stroke="#666666" points="0,-16.5 0,-16.5 15,-16.5 15,-16.5 0,-16.5"/>
<polygon fill="#666666" stroke="#666666" points="15,-16.5 15,-16.5 134,-16.5 134,-16.5 15,-16.5"/>
<polygon fill="none" stroke="#666666" points="0,0 0,-199 134,-199 134,0 0,0"/>
</a>
</g>
</g>
<!-- Node2 -->
<g id="Node000002" class="node">
<title>Node2</title>
<g id="a_Node000002"><a xlink:title=" ">
<polygon fill="white" stroke="transparent" points="101,-284 33,-284 33,-235 101,-235 101,-284"/>
<text text-anchor="start" x="38" y="-271.5" font-family="Malgun Gothic" font-size="10.00">UDataAsset</text>
<text text-anchor="start" x="65" y="-256.5" font-family="Malgun Gothic" font-size="10.00"> </text>
<text text-anchor="start" x="65" y="-241.5" font-family="Malgun Gothic" font-size="10.00"> </text>
<polygon fill="#666666" stroke="#666666" points="33,-266.5 33,-266.5 101,-266.5 101,-266.5 33,-266.5"/>
<polygon fill="#666666" stroke="#666666" points="33,-251.5 33,-251.5 101,-251.5 101,-251.5 33,-251.5"/>
<polygon fill="none" stroke="#666666" points="33,-235 33,-284 101,-284 101,-235 33,-235"/>
</a>
</g>
</g>
<!-- Node2&#45;&gt;Node1 -->
<g id="edge1_Node000001_Node000002" class="edge">
<title>Node2&#45;&gt;Node1</title>
<g id="a_edge1_Node000001_Node000002"><a xlink:title=" ">
<path fill="none" stroke="#63b8ff" d="M67,-224.75C67,-216.89 67,-208.14 67,-199.02"/>
<polygon fill="none" stroke="#63b8ff" points="63.5,-224.85 67,-234.85 70.5,-224.85 63.5,-224.85"/>
</a>
</g>
</g>
</g>
</svg>
</svg>

<style type='text/css'>
<![CDATA[
[data-mouse-over-selected='false'] { opacity: 0.7; }
[data-mouse-over-selected='true']  { opacity: 1.0; }
]]>
</style>
<script type="application/ecmascript"><![CDATA[
document.addEventListener('DOMContentLoaded', (event) => {
  highlightEdges();
  highlightAdjacentNodes();
});
]]></script>
</svg>
