<?xml version="1.0" encoding="UTF-8" standalone="no"?>
<!DOCTYPE svg PUBLIC "-//W3C//DTD SVG 1.1//EN"
 "http://www.w3.org/Graphics/SVG/1.1/DTD/svg11.dtd">
<!-- Generated by graphviz version 2.43.0 (0)
 -->
<!-- Title: UVoiceFunctionLibrary Pages: 1 -->
<svg width="145pt" height="157pt"
 viewBox="0.00 0.00 145.00 157.00" xmlns="http://www.w3.org/2000/svg" xmlns:xlink="http://www.w3.org/1999/xlink">

<svg id="main" version="1.1" xmlns="http://www.w3.org/2000/svg" xmlns:xlink="http://www.w3.org/1999/xlink" xml:space="preserve" onload="init(evt)">
<style type="text/css"><![CDATA[
.node, .edge {opacity: 0.7;}
.node.selected, .edge.selected {opacity: 1;}
.edge:hover path { stroke: red; }
.edge:hover polygon { stroke: red; fill: red; }
]]></style>
<script type="application/ecmascript" xlink:href="svg.min.js"/>
<svg id="graph" class="graph">
<g id="graph0" class="graph" transform="scale(1 1) rotate(0) translate(4 153)">
<title>UVoiceFunctionLibrary</title>
<!-- Node1 -->
<g id="Node000001" class="node">
<title>Node1</title>
<g id="a_Node000001"><a xlink:title=" ">
<polygon fill="#999999" stroke="transparent" points="128,-64 9,-64 9,0 128,0 128,-64"/>
<text text-anchor="start" x="14.5" y="-52" font-family="Malgun Gothic" font-size="10.00">UVoiceFunctionLibrary</text>
<text text-anchor="start" x="67" y="-37" font-family="Malgun Gothic" font-size="10.00"> </text>
<text text-anchor="start" x="14" y="-22" font-family="Malgun Gothic" font-size="10.00">+</text>
<text text-anchor="start" x="27.5" y="-22" font-family="Malgun Gothic" font-size="10.00">ConvertPCM2WAV()</text>
<text text-anchor="start" x="14" y="-7" font-family="Malgun Gothic" font-size="10.00">+</text>
<text text-anchor="start" x="27.5" y="-7" font-family="Malgun Gothic" font-size="10.00">SaveWavToFile()</text>
<polygon fill="#666666" stroke="#666666" points="9.5,-47 9.5,-47 128.5,-47 128.5,-47 9.5,-47"/>
<polygon fill="#666666" stroke="#666666" points="9.5,-32 9.5,-32 128.5,-32 128.5,-32 9.5,-32"/>
<polygon fill="none" stroke="#666666" points="9,0 9,-64 128,-64 128,0 9,0"/>
</a>
</g>
</g>
<!-- Node2 -->
<g id="Node000002" class="node">
<title>Node2</title>
<g id="a_Node000002"><a xlink:title=" ">
<polygon fill="white" stroke="transparent" points="137,-149 0,-149 0,-100 137,-100 137,-149"/>
<text text-anchor="start" x="5.5" y="-136.5" font-family="Malgun Gothic" font-size="10.00">UBlueprintFunctionLibrary</text>
<text text-anchor="start" x="67" y="-121.5" font-family="Malgun Gothic" font-size="10.00"> </text>
<text text-anchor="start" x="67" y="-106.5" font-family="Malgun Gothic" font-size="10.00"> </text>
<polygon fill="#666666" stroke="#666666" points="0.5,-131.5 0.5,-131.5 137.5,-131.5 137.5,-131.5 0.5,-131.5"/>
<polygon fill="#666666" stroke="#666666" points="0.5,-116.5 0.5,-116.5 137.5,-116.5 137.5,-116.5 0.5,-116.5"/>
<polygon fill="none" stroke="#666666" points="0,-100 0,-149 137,-149 137,-100 0,-100"/>
</a>
</g>
</g>
<!-- Node2&#45;&gt;Node1 -->
<g id="edge1_Node000001_Node000002" class="edge">
<title>Node2&#45;&gt;Node1</title>
<g id="a_edge1_Node000001_Node000002"><a xlink:title=" ">
<path fill="none" stroke="#63b8ff" d="M68.5,-89.54C68.5,-81.2 68.5,-72.31 68.5,-64.11"/>
<polygon fill="none" stroke="#63b8ff" points="65,-89.72 68.5,-99.72 72,-89.72 65,-89.72"/>
</a>
</g>
</g>
</g>
</svg>
</svg>

<style type='text/css'>
<![CDATA[
[data-mouse-over-selected='false'] { opacity: 0.7; }
[data-mouse-over-selected='true']  { opacity: 1.0; }
]]>
</style>
<script type="application/ecmascript"><![CDATA[
document.addEventListener('DOMContentLoaded', (event) => {
  highlightEdges();
  highlightAdjacentNodes();
});
]]></script>
</svg>
