<?xml version="1.0" encoding="UTF-8" standalone="no"?>
<!DOCTYPE svg PUBLIC "-//W3C//DTD SVG 1.1//EN"
 "http://www.w3.org/Graphics/SVG/1.1/DTD/svg11.dtd">
<!-- Generated by graphviz version 2.43.0 (0)
 -->
<!-- Title: UBroadcastManger Pages: 1 -->
<svg width="188pt" height="545pt"
 viewBox="0.00 0.00 188.00 545.00" xmlns="http://www.w3.org/2000/svg" xmlns:xlink="http://www.w3.org/1999/xlink">
<g id="graph0" class="graph" transform="scale(1 1) rotate(0) translate(4 541)">
<title>UBroadcastManger</title>
<!-- Node1 -->
<g id="Node000001" class="node">
<title>Node1</title>
<g id="a_Node000001"><a xlink:title=" ">
<polygon fill="#999999" stroke="transparent" points="180,-452 0,-452 0,0 180,0 180,-452"/>
<text text-anchor="start" x="43" y="-440" font-family="Malgun Gothic" font-size="10.00">UBroadcastManger</text>
<text text-anchor="start" x="4" y="-425" font-family="Malgun Gothic" font-size="10.00">+</text>
<text text-anchor="start" x="17" y="-425" font-family="Malgun Gothic" font-size="10.00">OnCameraShake</text>
<text text-anchor="start" x="4" y="-410" font-family="Malgun Gothic" font-size="10.00">+</text>
<text text-anchor="start" x="17" y="-410" font-family="Malgun Gothic" font-size="10.00">OnDoorMessage</text>
<text text-anchor="start" x="4" y="-395" font-family="Malgun Gothic" font-size="10.00">+</text>
<text text-anchor="start" x="17" y="-395" font-family="Malgun Gothic" font-size="10.00">OnForceCameraShake</text>
<text text-anchor="start" x="4" y="-380" font-family="Malgun Gothic" font-size="10.00">+</text>
<text text-anchor="start" x="17" y="-380" font-family="Malgun Gothic" font-size="10.00">OnHitStop</text>
<text text-anchor="start" x="4" y="-365" font-family="Malgun Gothic" font-size="10.00">+</text>
<text text-anchor="start" x="17" y="-365" font-family="Malgun Gothic" font-size="10.00">OnKnockback</text>
<text text-anchor="start" x="4" y="-350" font-family="Malgun Gothic" font-size="10.00">+</text>
<text text-anchor="start" x="17" y="-350" font-family="Malgun Gothic" font-size="10.00">OnMessage</text>
<text text-anchor="start" x="4" y="-335" font-family="Malgun Gothic" font-size="10.00">+</text>
<text text-anchor="start" x="17" y="-335" font-family="Malgun Gothic" font-size="10.00">OnToastMessage</text>
<text text-anchor="start" x="4" y="-320" font-family="Malgun Gothic" font-size="10.00">+</text>
<text text-anchor="start" x="17" y="-320" font-family="Malgun Gothic" font-size="10.00">DECLARE_DYNAMIC_MULTICAST</text>
<text text-anchor="start" x="17" y="-309" font-family="Malgun Gothic" font-size="10.00">_DELEGATE_FourParams()</text>
<text text-anchor="start" x="4" y="-294" font-family="Malgun Gothic" font-size="10.00">+</text>
<text text-anchor="start" x="17" y="-294" font-family="Malgun Gothic" font-size="10.00">DECLARE_DYNAMIC_MULTICAST</text>
<text text-anchor="start" x="17" y="-283" font-family="Malgun Gothic" font-size="10.00">_DELEGATE_OneParam()</text>
<text text-anchor="start" x="4" y="-268" font-family="Malgun Gothic" font-size="10.00">+</text>
<text text-anchor="start" x="17" y="-268" font-family="Malgun Gothic" font-size="10.00">DECLARE_DYNAMIC_MULTICAST</text>
<text text-anchor="start" x="17" y="-257" font-family="Malgun Gothic" font-size="10.00">_DELEGATE_OneParam()</text>
<text text-anchor="start" x="4" y="-242" font-family="Malgun Gothic" font-size="10.00">+</text>
<text text-anchor="start" x="17" y="-242" font-family="Malgun Gothic" font-size="10.00">DECLARE_DYNAMIC_MULTICAST</text>
<text text-anchor="start" x="17" y="-231" font-family="Malgun Gothic" font-size="10.00">_DELEGATE_OneParam()</text>
<text text-anchor="start" x="4" y="-216" font-family="Malgun Gothic" font-size="10.00">+</text>
<text text-anchor="start" x="17" y="-216" font-family="Malgun Gothic" font-size="10.00">DECLARE_DYNAMIC_MULTICAST</text>
<text text-anchor="start" x="17" y="-205" font-family="Malgun Gothic" font-size="10.00">_DELEGATE_TwoParams()</text>
<text text-anchor="start" x="4" y="-190" font-family="Malgun Gothic" font-size="10.00">+</text>
<text text-anchor="start" x="17" y="-190" font-family="Malgun Gothic" font-size="10.00">DECLARE_DYNAMIC_MULTICAST</text>
<text text-anchor="start" x="17" y="-179" font-family="Malgun Gothic" font-size="10.00">_DELEGATE_TwoParams()</text>
<text text-anchor="start" x="4" y="-164" font-family="Malgun Gothic" font-size="10.00">+</text>
<text text-anchor="start" x="17" y="-164" font-family="Malgun Gothic" font-size="10.00">DECLARE_DYNAMIC_MULTICAST</text>
<text text-anchor="start" x="17" y="-153" font-family="Malgun Gothic" font-size="10.00">_DELEGATE_TwoParams()</text>
<text text-anchor="start" x="4" y="-138" font-family="Malgun Gothic" font-size="10.00">+</text>
<text text-anchor="start" x="17" y="-138" font-family="Malgun Gothic" font-size="10.00">DEFINE_SUBSYSTEM_GETTER</text>
<text text-anchor="start" x="17" y="-127" font-family="Malgun Gothic" font-size="10.00">_INLINE()</text>
<text text-anchor="start" x="4" y="-112" font-family="Malgun Gothic" font-size="10.00">+</text>
<text text-anchor="start" x="17" y="-112" font-family="Malgun Gothic" font-size="10.00">SendCameraShake()</text>
<text text-anchor="start" x="4" y="-97" font-family="Malgun Gothic" font-size="10.00">+</text>
<text text-anchor="start" x="17" y="-97" font-family="Malgun Gothic" font-size="10.00">SendForceCameraShake()</text>
<text text-anchor="start" x="4" y="-82" font-family="Malgun Gothic" font-size="10.00">+</text>
<text text-anchor="start" x="17" y="-82" font-family="Malgun Gothic" font-size="10.00">SendHitStop()</text>
<text text-anchor="start" x="4" y="-67" font-family="Malgun Gothic" font-size="10.00">+</text>
<text text-anchor="start" x="17" y="-67" font-family="Malgun Gothic" font-size="10.00">SendHitStopPair()</text>
<text text-anchor="start" x="4" y="-52" font-family="Malgun Gothic" font-size="10.00">+</text>
<text text-anchor="start" x="17" y="-52" font-family="Malgun Gothic" font-size="10.00">SendKnockback()</text>
<text text-anchor="start" x="4" y="-37" font-family="Malgun Gothic" font-size="10.00">+</text>
<text text-anchor="start" x="17" y="-37" font-family="Malgun Gothic" font-size="10.00">SendMessage()</text>
<text text-anchor="start" x="4" y="-22" font-family="Malgun Gothic" font-size="10.00">+</text>
<text text-anchor="start" x="17" y="-22" font-family="Malgun Gothic" font-size="10.00">SendOnDoorMessage()</text>
<text text-anchor="start" x="4" y="-7" font-family="Malgun Gothic" font-size="10.00">+</text>
<text text-anchor="start" x="17" y="-7" font-family="Malgun Gothic" font-size="10.00">SendToastMessage()</text>
<polygon fill="#666666" stroke="#666666" points="0,-435 0,-435 180,-435 180,-435 0,-435"/>
<polygon fill="#666666" stroke="#666666" points="0,-330 0,-330 15,-330 15,-330 0,-330"/>
<polygon fill="#666666" stroke="#666666" points="15,-330 15,-330 180,-330 180,-330 15,-330"/>
<polygon fill="none" stroke="#666666" points="0,0 0,-452 180,-452 180,0 0,0"/>
</a>
</g>
</g>
<!-- Node2 -->
<g id="Node000002" class="node">
<title>Node2</title>
<g id="a_Node000002"><a xlink:title=" ">
<polygon fill="white" stroke="transparent" points="161.5,-537 18.5,-537 18.5,-488 161.5,-488 161.5,-537"/>
<text text-anchor="start" x="24" y="-524.5" font-family="Malgun Gothic" font-size="10.00">UGameInstanceSubsystem</text>
<text text-anchor="start" x="88.5" y="-509.5" font-family="Malgun Gothic" font-size="10.00"> </text>
<text text-anchor="start" x="88.5" y="-494.5" font-family="Malgun Gothic" font-size="10.00"> </text>
<polygon fill="#666666" stroke="#666666" points="19,-519.5 19,-519.5 162,-519.5 162,-519.5 19,-519.5"/>
<polygon fill="#666666" stroke="#666666" points="19,-504.5 19,-504.5 162,-504.5 162,-504.5 19,-504.5"/>
<polygon fill="none" stroke="#666666" points="18.5,-488 18.5,-537 161.5,-537 161.5,-488 18.5,-488"/>
</a>
</g>
</g>
<!-- Node2&#45;&gt;Node1 -->
<g id="edge1_Node000001_Node000002" class="edge">
<title>Node2&#45;&gt;Node1</title>
<g id="a_edge1_Node000001_Node000002"><a xlink:title=" ">
<path fill="none" stroke="#63b8ff" d="M90,-477.69C90,-470.09 90,-461.48 90,-452.13"/>
<polygon fill="none" stroke="#63b8ff" points="86.5,-477.73 90,-487.73 93.5,-477.73 86.5,-477.73"/>
</a>
</g>
</g>
</g>
</svg>
