<?xml version="1.0" encoding="UTF-8" standalone="no"?>
<!DOCTYPE svg PUBLIC "-//W3C//DTD SVG 1.1//EN"
 "http://www.w3.org/Graphics/SVG/1.1/DTD/svg11.dtd">
<!-- Generated by graphviz version 2.43.0 (0)
 -->
<!-- Title: USpeechSettings Pages: 1 -->
<svg width="282pt" height="258pt"
 viewBox="0.00 0.00 281.50 258.00" xmlns="http://www.w3.org/2000/svg" xmlns:xlink="http://www.w3.org/1999/xlink">
<g id="graph0" class="graph" transform="scale(1 1) rotate(0) translate(4 254)">
<title>USpeechSettings</title>
<!-- Node1 -->
<g id="Node000001" class="node">
<title>Node1</title>
<g id="a_Node000001"><a xlink:title=" ">
<polygon fill="#999999" stroke="transparent" points="183,-64 71,-64 71,0 183,0 183,-64"/>
<text text-anchor="start" x="85.5" y="-52" font-family="Malgun Gothic" font-size="10.00">USpeechSettings</text>
<text text-anchor="start" x="125" y="-37" font-family="Malgun Gothic" font-size="10.00"> </text>
<text text-anchor="start" x="75" y="-22" font-family="Malgun Gothic" font-size="10.00">+</text>
<text text-anchor="start" x="88" y="-22" font-family="Malgun Gothic" font-size="10.00">USpeechSettings()</text>
<text text-anchor="start" x="75" y="-7" font-family="Malgun Gothic" font-size="10.00">+</text>
<text text-anchor="start" x="88" y="-7" font-family="Malgun Gothic" font-size="10.00">Get()</text>
<polygon fill="#666666" stroke="#666666" points="71,-47 71,-47 183,-47 183,-47 71,-47"/>
<polygon fill="#666666" stroke="#666666" points="71,-32 71,-32 183,-32 183,-32 71,-32"/>
<polygon fill="none" stroke="#666666" points="71,0 71,-64 183,-64 183,0 71,0"/>
</a>
</g>
</g>
<!-- Node2 -->
<g id="Node000002" class="node">
<title>Node2</title>
<g id="a_Node000002"><a xlink:title=" ">
<polygon fill="white" stroke="transparent" points="108,-205 0,-205 0,-156 108,-156 108,-205"/>
<text text-anchor="start" x="5" y="-192.5" font-family="Malgun Gothic" font-size="10.00">UDeveloperSettings</text>
<text text-anchor="start" x="52" y="-177.5" font-family="Malgun Gothic" font-size="10.00"> </text>
<text text-anchor="start" x="52" y="-162.5" font-family="Malgun Gothic" font-size="10.00"> </text>
<polygon fill="#666666" stroke="#666666" points="0,-187.5 0,-187.5 108,-187.5 108,-187.5 0,-187.5"/>
<polygon fill="#666666" stroke="#666666" points="0,-172.5 0,-172.5 108,-172.5 108,-172.5 0,-172.5"/>
<polygon fill="none" stroke="#666666" points="0,-156 0,-205 108,-205 108,-156 0,-156"/>
</a>
</g>
</g>
<!-- Node2&#45;&gt;Node1 -->
<g id="edge1_Node000001_Node000002" class="edge">
<title>Node2&#45;&gt;Node1</title>
<g id="a_edge1_Node000001_Node000002"><a xlink:title=" ">
<path fill="none" stroke="#63b8ff" d="M70.21,-146.98C82.52,-122.27 99.34,-88.5 111.48,-64.14"/>
<polygon fill="none" stroke="#63b8ff" points="67.06,-145.45 65.73,-155.96 73.32,-148.57 67.06,-145.45"/>
</a>
</g>
</g>
<!-- Node3 -->
<g id="Node000003" class="node">
<title>Node3</title>
<g id="a_Node000003"><a xlink:href="structFVoiceConfig.html" target="_top" xlink:title=" ">
<polygon fill="white" stroke="transparent" points="273.5,-250 126.5,-250 126.5,-111 273.5,-111 273.5,-250"/>
<text text-anchor="start" x="168.5" y="-237.5" font-family="Malgun Gothic" font-size="10.00">FVoiceConfig</text>
<text text-anchor="start" x="131" y="-222.5" font-family="Malgun Gothic" font-size="10.00">+</text>
<text text-anchor="start" x="144" y="-222.5" font-family="Malgun Gothic" font-size="10.00">ApiKey</text>
<text text-anchor="start" x="131" y="-207.5" font-family="Malgun Gothic" font-size="10.00">+</text>
<text text-anchor="start" x="144" y="-207.5" font-family="Malgun Gothic" font-size="10.00">AudioEncoding</text>
<text text-anchor="start" x="131" y="-192.5" font-family="Malgun Gothic" font-size="10.00">+</text>
<text text-anchor="start" x="144" y="-192.5" font-family="Malgun Gothic" font-size="10.00">LanguageCode</text>
<text text-anchor="start" x="131" y="-177.5" font-family="Malgun Gothic" font-size="10.00">+</text>
<text text-anchor="start" x="144" y="-177.5" font-family="Malgun Gothic" font-size="10.00">SpeechSampleRate</text>
<text text-anchor="start" x="131" y="-162.5" font-family="Malgun Gothic" font-size="10.00">+</text>
<text text-anchor="start" x="144" y="-162.5" font-family="Malgun Gothic" font-size="10.00">TextToSpeechSampleRate</text>
<text text-anchor="start" x="131" y="-147.5" font-family="Malgun Gothic" font-size="10.00">+</text>
<text text-anchor="start" x="144" y="-147.5" font-family="Malgun Gothic" font-size="10.00">VoiceName</text>
<text text-anchor="start" x="131" y="-132.5" font-family="Malgun Gothic" font-size="10.00">+</text>
<text text-anchor="start" x="144" y="-132.5" font-family="Malgun Gothic" font-size="10.00">VoiceSsmlGender</text>
<text text-anchor="start" x="198.5" y="-117.5" font-family="Malgun Gothic" font-size="10.00"> </text>
<polygon fill="#666666" stroke="#666666" points="127,-232.5 127,-232.5 274,-232.5 274,-232.5 127,-232.5"/>
<polygon fill="#666666" stroke="#666666" points="127,-127.5 127,-127.5 142,-127.5 142,-127.5 127,-127.5"/>
<polygon fill="#666666" stroke="#666666" points="142,-127.5 142,-127.5 274,-127.5 274,-127.5 142,-127.5"/>
<polygon fill="none" stroke="#666666" points="126.5,-111 126.5,-250 273.5,-250 273.5,-111 126.5,-111"/>
</a>
</g>
</g>
<!-- Node3&#45;&gt;Node1 -->
<g id="edge2_Node000001_Node000003" class="edge">
<title>Node3&#45;&gt;Node1</title>
<g id="a_edge2_Node000001_Node000003"><a xlink:title=" ">
<path fill="none" stroke="#63b8ff" d="M165.85,-110.97C159.73,-98.68 153.52,-86.22 147.91,-74.96"/>
<polygon fill="none" stroke="#63b8ff" points="147.88,-74.91 141.63,-71.32 142.53,-64.17 148.79,-67.75 147.88,-74.91"/>
</a>
</g>
<text text-anchor="middle" x="193.5" y="-85" font-family="Malgun Gothic" font-size="10.00" fill="grey"> +GoogleConfig</text>
</g>
</g>
</svg>
