<?xml version="1.0" encoding="UTF-8" standalone="no"?>
<!DOCTYPE svg PUBLIC "-//W3C//DTD SVG 1.1//EN"
 "http://www.w3.org/Graphics/SVG/1.1/DTD/svg11.dtd">
<!-- Generated by graphviz version 2.43.0 (0)
 -->
<!-- Title: AGate Pages: 1 -->
<svg width="159pt" height="367pt"
 viewBox="0.00 0.00 159.00 367.00" xmlns="http://www.w3.org/2000/svg" xmlns:xlink="http://www.w3.org/1999/xlink">
<g id="graph0" class="graph" transform="scale(1 1) rotate(0) translate(4 363)">
<title>AGate</title>
<!-- Node1 -->
<g id="Node000001" class="node">
<title>Node1</title>
<g id="a_Node000001"><a xlink:title=" ">
<polygon fill="#999999" stroke="transparent" points="151,-274 0,-274 0,0 151,0 151,-274"/>
<text text-anchor="start" x="60.5" y="-262" font-family="Malgun Gothic" font-size="10.00">AGate</text>
<text text-anchor="start" x="4.5" y="-247" font-family="Malgun Gothic" font-size="10.00">#</text>
<text text-anchor="start" x="17.5" y="-247" font-family="Malgun Gothic" font-size="10.00">BoxCollision</text>
<text text-anchor="start" x="4.5" y="-232" font-family="Malgun Gothic" font-size="10.00">#</text>
<text text-anchor="start" x="17.5" y="-232" font-family="Malgun Gothic" font-size="10.00">Door_Left</text>
<text text-anchor="start" x="4.5" y="-217" font-family="Malgun Gothic" font-size="10.00">#</text>
<text text-anchor="start" x="17.5" y="-217" font-family="Malgun Gothic" font-size="10.00">Door_Right</text>
<text text-anchor="start" x="4.5" y="-202" font-family="Malgun Gothic" font-size="10.00">#</text>
<text text-anchor="start" x="17.5" y="-202" font-family="Malgun Gothic" font-size="10.00">GateID</text>
<text text-anchor="start" x="4.5" y="-187" font-family="Malgun Gothic" font-size="10.00">#</text>
<text text-anchor="start" x="17.5" y="-187" font-family="Malgun Gothic" font-size="10.00">RootComp</text>
<text text-anchor="start" x="7" y="-172" font-family="Malgun Gothic" font-size="10.00">&#45;</text>
<text text-anchor="start" x="17.5" y="-172" font-family="Malgun Gothic" font-size="10.00">bIsOpen</text>
<text text-anchor="start" x="7" y="-157" font-family="Malgun Gothic" font-size="10.00">&#45;</text>
<text text-anchor="start" x="17.5" y="-157" font-family="Malgun Gothic" font-size="10.00">OverlappingPawns</text>
<text text-anchor="start" x="4.5" y="-142" font-family="Malgun Gothic" font-size="10.00">+</text>
<text text-anchor="start" x="17.5" y="-142" font-family="Malgun Gothic" font-size="10.00">AGate()</text>
<text text-anchor="start" x="4.5" y="-127" font-family="Malgun Gothic" font-size="10.00">+</text>
<text text-anchor="start" x="17.5" y="-127" font-family="Malgun Gothic" font-size="10.00">CloseDoor()</text>
<text text-anchor="start" x="4.5" y="-112" font-family="Malgun Gothic" font-size="10.00">+</text>
<text text-anchor="start" x="17.5" y="-112" font-family="Malgun Gothic" font-size="10.00">OpenDoor()</text>
<text text-anchor="start" x="4.5" y="-97" font-family="Malgun Gothic" font-size="10.00">#</text>
<text text-anchor="start" x="17.5" y="-97" font-family="Malgun Gothic" font-size="10.00">BeginPlay()</text>
<text text-anchor="start" x="4.5" y="-82" font-family="Malgun Gothic" font-size="10.00">#</text>
<text text-anchor="start" x="17.5" y="-82" font-family="Malgun Gothic" font-size="10.00">IsPlayerActor()</text>
<text text-anchor="start" x="4.5" y="-67" font-family="Malgun Gothic" font-size="10.00">#</text>
<text text-anchor="start" x="17.5" y="-67" font-family="Malgun Gothic" font-size="10.00">OnDoorMessage()</text>
<text text-anchor="start" x="4.5" y="-52" font-family="Malgun Gothic" font-size="10.00">#</text>
<text text-anchor="start" x="17.5" y="-52" font-family="Malgun Gothic" font-size="10.00">OnOverlapBegin()</text>
<text text-anchor="start" x="4.5" y="-37" font-family="Malgun Gothic" font-size="10.00">#</text>
<text text-anchor="start" x="17.5" y="-37" font-family="Malgun Gothic" font-size="10.00">OnOverlapEnd()</text>
<text text-anchor="start" x="4.5" y="-22" font-family="Malgun Gothic" font-size="10.00">#</text>
<text text-anchor="start" x="17.5" y="-22" font-family="Malgun Gothic" font-size="10.00">PlayCloseDoorAnimation()</text>
<text text-anchor="start" x="4.5" y="-7" font-family="Malgun Gothic" font-size="10.00">#</text>
<text text-anchor="start" x="17.5" y="-7" font-family="Malgun Gothic" font-size="10.00">PlayOpenDoorAnimation()</text>
<polygon fill="#666666" stroke="#666666" points="0.5,-257 0.5,-257 151.5,-257 151.5,-257 0.5,-257"/>
<polygon fill="#666666" stroke="#666666" points="0.5,-152 0.5,-152 15.5,-152 15.5,-152 0.5,-152"/>
<polygon fill="#666666" stroke="#666666" points="15.5,-152 15.5,-152 151.5,-152 151.5,-152 15.5,-152"/>
<polygon fill="none" stroke="#666666" points="0,0 0,-274 151,-274 151,0 0,0"/>
</a>
</g>
</g>
<!-- Node2 -->
<g id="Node000002" class="node">
<title>Node2</title>
<g id="a_Node000002"><a xlink:title=" ">
<polygon fill="white" stroke="transparent" points="97,-359 54,-359 54,-310 97,-310 97,-359"/>
<text text-anchor="start" x="59.5" y="-346.5" font-family="Malgun Gothic" font-size="10.00">AActor</text>
<text text-anchor="start" x="74" y="-331.5" font-family="Malgun Gothic" font-size="10.00"> </text>
<text text-anchor="start" x="74" y="-316.5" font-family="Malgun Gothic" font-size="10.00"> </text>
<polygon fill="#666666" stroke="#666666" points="54.5,-341.5 54.5,-341.5 97.5,-341.5 97.5,-341.5 54.5,-341.5"/>
<polygon fill="#666666" stroke="#666666" points="54.5,-326.5 54.5,-326.5 97.5,-326.5 97.5,-326.5 54.5,-326.5"/>
<polygon fill="none" stroke="#666666" points="54,-310 54,-359 97,-359 97,-310 54,-310"/>
</a>
</g>
</g>
<!-- Node2&#45;&gt;Node1 -->
<g id="edge1_Node000001_Node000002" class="edge">
<title>Node2&#45;&gt;Node1</title>
<g id="a_edge1_Node000001_Node000002"><a xlink:title=" ">
<path fill="none" stroke="#63b8ff" d="M75.5,-299.74C75.5,-292.08 75.5,-283.47 75.5,-274.33"/>
<polygon fill="none" stroke="#63b8ff" points="72,-299.92 75.5,-309.92 79,-299.92 72,-299.92"/>
</a>
</g>
</g>
</g>
</svg>
