<?xml version="1.0" encoding="UTF-8" standalone="no"?>
<!DOCTYPE svg PUBLIC "-//W3C//DTD SVG 1.1//EN"
 "http://www.w3.org/Graphics/SVG/1.1/DTD/svg11.dtd">
<!-- Generated by graphviz version 2.43.0 (0)
 -->
<!-- Title: AGameCharacter::SetupCharacterFromType Pages: 1 -->
<svg width="593pt" height="38pt"
 viewBox="0.00 0.00 593.00 38.00" xmlns="http://www.w3.org/2000/svg" xmlns:xlink="http://www.w3.org/1999/xlink">
<g id="graph0" class="graph" transform="scale(1 1) rotate(0) translate(4 34)">
<title>AGameCharacter::SetupCharacterFromType</title>
<!-- Node1 -->
<g id="Node000001" class="node">
<title>Node1</title>
<g id="a_Node000001"><a xlink:title=" ">
<polygon fill="#999999" stroke="#666666" points="181,-30 0,-30 0,0 181,0 181,-30"/>
<text text-anchor="start" x="8" y="-18" font-family="Malgun Gothic" font-size="10.00">AGameCharacter::SetupCharacter</text>
<text text-anchor="middle" x="90.5" y="-7" font-family="Malgun Gothic" font-size="10.00">FromType</text>
</a>
</g>
</g>
<!-- Node2 -->
<g id="Node000002" class="node">
<title>Node2</title>
<g id="a_Node000002"><a xlink:href="classAGameCharacter.html#a1758a3c8506ae6cab77731a1890dc00d" target="_top" xlink:title="몽타주 알림 처리 델리게이트를 바인딩합니다.">
<polygon fill="white" stroke="#666666" points="387,-30 217,-30 217,0 387,0 387,-30"/>
<text text-anchor="start" x="225" y="-18" font-family="Malgun Gothic" font-size="10.00">AGameCharacter::BindMontage</text>
<text text-anchor="middle" x="302" y="-7" font-family="Malgun Gothic" font-size="10.00">Delegates</text>
</a>
</g>
</g>
<!-- Node1&#45;&gt;Node2 -->
<g id="edge1_Node000001_Node000002" class="edge">
<title>Node1&#45;&gt;Node2</title>
<g id="a_edge1_Node000001_Node000002"><a xlink:title=" ">
<path fill="none" stroke="#63b8ff" d="M181.26,-15C189.63,-15 198.13,-15 206.54,-15"/>
<polygon fill="#63b8ff" stroke="#63b8ff" points="206.74,-18.5 216.74,-15 206.74,-11.5 206.74,-18.5"/>
</a>
</g>
</g>
<!-- Node3 -->
<g id="Node000003" class="node">
<title>Node3</title>
<g id="a_Node000003"><a xlink:href="classAGameCharacter.html#ad257873cd2be805e3f5ff94f199da294" target="_top" xlink:title="몽타주 노티파이 시작 시 호출되는 콜백입니다.">
<polygon fill="white" stroke="#666666" points="585,-30 423,-30 423,0 585,0 585,-30"/>
<text text-anchor="start" x="431" y="-18" font-family="Malgun Gothic" font-size="10.00">AGameCharacter::OnMontage</text>
<text text-anchor="middle" x="504" y="-7" font-family="Malgun Gothic" font-size="10.00">NotifyBegin</text>
</a>
</g>
</g>
<!-- Node2&#45;&gt;Node3 -->
<g id="edge2_Node000002_Node000003" class="edge">
<title>Node2&#45;&gt;Node3</title>
<g id="a_edge2_Node000002_Node000003"><a xlink:title=" ">
<path fill="none" stroke="#63b8ff" d="M387.24,-15C395.59,-15 404.09,-15 412.49,-15"/>
<polygon fill="#63b8ff" stroke="#63b8ff" points="412.69,-18.5 422.69,-15 412.69,-11.5 412.69,-18.5"/>
</a>
</g>
</g>
</g>
</svg>
