<?xml version="1.0" encoding="UTF-8" standalone="no"?>
<!DOCTYPE svg PUBLIC "-//W3C//DTD SVG 1.1//EN"
 "http://www.w3.org/Graphics/SVG/1.1/DTD/svg11.dtd">
<!-- Generated by graphviz version 2.43.0 (0)
 -->
<!-- Title: APlayerControl::SetupInputComponent Pages: 1 -->
<!--zoomable 261 -->

<svg id="main" version="1.1" xmlns="http://www.w3.org/2000/svg" xmlns:xlink="http://www.w3.org/1999/xlink" xml:space="preserve" onload="init(evt)">
<style type="text/css"><![CDATA[
.node, .edge {opacity: 0.7;}
.node.selected, .edge.selected {opacity: 1;}
.edge:hover path { stroke: red; }
.edge:hover polygon { stroke: red; fill: red; }
]]></style>

<defs>
  <circle id="rim" cx="0" cy="0" r="7"/>
  <circle id="rim2" cx="0" cy="0" r="3.5"/>
  <g id="zoomPlus">
    <use xlink:href="#rim" fill="#404040"><set attributeName="fill" to="#808080" begin="zoomplus.mouseover" end="zoomplus.mouseout"/></use>
    <path d="M-4,0h8M0,-4v8" fill="none" stroke="white" stroke-width="1.5" pointer-events="none"/>
  </g>
  <g id="zoomMin">
    <use xlink:href="#rim" fill="#404040"><set attributeName="fill" to="#808080" begin="zoomminus.mouseover" end="zoomminus.mouseout"/></use>
    <path d="M-4,0h8" fill="none" stroke="white" stroke-width="1.5" pointer-events="none"/>
  </g>
  <g id="arrowUp" transform="translate(30 24)">
    <use xlink:href="#rim"/>
    <path pointer-events="none" fill="none" stroke="white" stroke-width="1.5" d="M0,-3.0v7 M-2.5,-0.5L0,-3.0L2.5,-0.5"/>
  </g>
  <g id="arrowRight" transform="rotate(90) translate(36 -43)">
    <use xlink:href="#rim"/>
    <path pointer-events="none" fill="none" stroke="white" stroke-width="1.5" d="M0,-3.0v7 M-2.5,-0.5L0,-3.0L2.5,-0.5"/>
  </g>
  <g id="arrowDown" transform="rotate(180) translate(-30 -48)">
    <use xlink:href="#rim"/>
    <path pointer-events="none" fill="none" stroke="white" stroke-width="1.5" d="M0,-3.0v7 M-2.5,-0.5L0,-3.0L2.5,-0.5"/>
  </g>
  <g id="arrowLeft" transform="rotate(270) translate(-36 17)">
    <use xlink:href="#rim"/>
    <path pointer-events="none" fill="none" stroke="white" stroke-width="1.5" d="M0,-3.0v7 M-2.5,-0.5L0,-3.0L2.5,-0.5"/>
  </g>
  <g id="resetDef">
    <use xlink:href="#rim2" fill="#404040"><set attributeName="fill" to="#808080" begin="reset.mouseover" end="reset.mouseout"/></use>
  </g>
</defs>
<script type="application/ecmascript">
var viewWidth = 575;
var viewHeight = 261;
var sectionId = 'dynsection-18';
</script>
<script type="application/ecmascript" xlink:href="svg.min.js"/>
<svg id="graph" class="graph">
<g id="viewport">
<title>APlayerControl::SetupInputComponent</title>
<!-- Node1 -->
<g id="Node000001" class="node">
<title>Node1</title>
<g id="a_Node000001"><a xlink:title=" ">
<polygon fill="#999999" stroke="#666666" points="148,-135.5 0,-135.5 0,-105.5 148,-105.5 148,-135.5"/>
<text text-anchor="start" x="8" y="-123.5" font-family="Malgun Gothic" font-size="10.00">APlayerControl::SetupInput</text>
<text text-anchor="middle" x="74" y="-112.5" font-family="Malgun Gothic" font-size="10.00">Component</text>
</a>
</g>
</g>
<!-- Node2 -->
<g id="Node000002" class="node">
<title>Node2</title>
<g id="a_Node000002"><a xlink:href="classAPlayerControl.html#af8425558108277d10a994f61be0455b7" target="_top" xlink:title=" ">
<polygon fill="white" stroke="#666666" points="359,-253 184,-253 184,-234 359,-234 359,-253"/>
<text text-anchor="middle" x="271.5" y="-241" font-family="Malgun Gothic" font-size="10.00">APlayerControl::OnAltitudeDown</text>
</a>
</g>
</g>
<!-- Node1&#45;&gt;Node2 -->
<g id="edge1_Node000001_Node000002" class="edge">
<title>Node1&#45;&gt;Node2</title>
<g id="a_edge1_Node000001_Node000002"><a xlink:title=" ">
<path fill="none" stroke="#63b8ff" d="M86.23,-135.56C104.2,-158.53 141.75,-202.01 184,-224.5 188.47,-226.88 193.21,-228.96 198.1,-230.78"/>
<polygon fill="#63b8ff" stroke="#63b8ff" points="197.02,-234.11 207.61,-233.97 199.24,-227.47 197.02,-234.11"/>
</a>
</g>
</g>
<!-- Node4 -->
<g id="Node000004" class="node">
<title>Node4</title>
<g id="a_Node000004"><a xlink:href="classAPlayerControl.html#afb5a7979f52fbc43b228e42d8b32300e" target="_top" xlink:title=" ">
<polygon fill="white" stroke="#666666" points="345,-215.5 198,-215.5 198,-185.5 345,-185.5 345,-215.5"/>
<text text-anchor="start" x="206" y="-203.5" font-family="Malgun Gothic" font-size="10.00">APlayerControl::OnAltitude</text>
<text text-anchor="middle" x="271.5" y="-192.5" font-family="Malgun Gothic" font-size="10.00">Released</text>
</a>
</g>
</g>
<!-- Node1&#45;&gt;Node4 -->
<g id="edge3_Node000001_Node000004" class="edge">
<title>Node1&#45;&gt;Node4</title>
<g id="a_edge3_Node000001_Node000004"><a xlink:title=" ">
<path fill="none" stroke="#63b8ff" d="M100.73,-135.62C122.39,-147.88 154.48,-164.96 184,-176.5 189.17,-178.52 194.58,-180.44 200.06,-182.26"/>
<polygon fill="#63b8ff" stroke="#63b8ff" points="199.36,-185.71 209.95,-185.4 201.48,-179.04 199.36,-185.71"/>
</a>
</g>
</g>
<!-- Node5 -->
<g id="Node000005" class="node">
<title>Node5</title>
<g id="a_Node000005"><a xlink:href="classAPlayerControl.html#a03c8d808ba39dcd6cb4bf6b1afb4be62" target="_top" xlink:title=" ">
<polygon fill="white" stroke="#666666" points="352,-167 191,-167 191,-148 352,-148 352,-167"/>
<text text-anchor="middle" x="271.5" y="-155" font-family="Malgun Gothic" font-size="10.00">APlayerControl::OnAltitudeUp</text>
</a>
</g>
</g>
<!-- Node1&#45;&gt;Node5 -->
<g id="edge5_Node000001_Node000005" class="edge">
<title>Node1&#45;&gt;Node5</title>
<g id="a_edge5_Node000001_Node000005"><a xlink:title=" ">
<path fill="none" stroke="#63b8ff" d="M148.07,-134.33C168.49,-138.19 190.43,-142.35 210.03,-146.06"/>
<polygon fill="#63b8ff" stroke="#63b8ff" points="209.56,-149.53 220.04,-147.95 210.87,-142.65 209.56,-149.53"/>
</a>
</g>
</g>
<!-- Node6 -->
<g id="Node000006" class="node">
<title>Node6</title>
<g id="a_Node000006"><a xlink:href="classAPlayerControl.html#a1bca1ba6619ca2eb51414d2959508433" target="_top" xlink:title=" ">
<polygon fill="white" stroke="#666666" points="338.5,-130 204.5,-130 204.5,-111 338.5,-111 338.5,-130"/>
<text text-anchor="middle" x="271.5" y="-118" font-family="Malgun Gothic" font-size="10.00">APlayerControl::OnJump</text>
</a>
</g>
</g>
<!-- Node1&#45;&gt;Node6 -->
<g id="edge7_Node000001_Node000006" class="edge">
<title>Node1&#45;&gt;Node6</title>
<g id="a_edge7_Node000001_Node000006"><a xlink:title=" ">
<path fill="none" stroke="#63b8ff" d="M148.07,-120.5C163.06,-120.5 178.86,-120.5 193.96,-120.5"/>
<polygon fill="#63b8ff" stroke="#63b8ff" points="194.28,-124 204.28,-120.5 194.28,-117 194.28,-124"/>
</a>
</g>
</g>
<!-- Node7 -->
<g id="Node000007" class="node">
<title>Node7</title>
<g id="a_Node000007"><a xlink:href="classAPlayerControl.html#ad215a10f787ff7104d339bd49c778a4a" target="_top" xlink:title=" ">
<polygon fill="white" stroke="#666666" points="345,-93 198,-93 198,-74 345,-74 345,-93"/>
<text text-anchor="middle" x="271.5" y="-81" font-family="Malgun Gothic" font-size="10.00">APlayerControl::OnLanding</text>
</a>
</g>
</g>
<!-- Node1&#45;&gt;Node7 -->
<g id="edge9_Node000001_Node000007" class="edge">
<title>Node1&#45;&gt;Node7</title>
<g id="a_edge9_Node000001_Node000007"><a xlink:title=" ">
<path fill="none" stroke="#63b8ff" d="M148.07,-106.67C168.49,-102.81 190.43,-98.65 210.03,-94.94"/>
<polygon fill="#63b8ff" stroke="#63b8ff" points="210.87,-98.35 220.04,-93.05 209.56,-91.47 210.87,-98.35"/>
</a>
</g>
</g>
<!-- Node8 -->
<g id="Node000008" class="node">
<title>Node8</title>
<g id="a_Node000008"><a xlink:href="classAPlayerControl.html#a6c7499f4bc744fb6e0920e5195f562c3" target="_top" xlink:title=" ">
<polygon fill="white" stroke="#666666" points="337.5,-56 205.5,-56 205.5,-37 337.5,-37 337.5,-56"/>
<text text-anchor="middle" x="271.5" y="-44" font-family="Malgun Gothic" font-size="10.00">APlayerControl::OnLook</text>
</a>
</g>
</g>
<!-- Node1&#45;&gt;Node8 -->
<g id="edge11_Node000001_Node000008" class="edge">
<title>Node1&#45;&gt;Node8</title>
<g id="a_edge11_Node000001_Node000008"><a xlink:title=" ">
<path fill="none" stroke="#63b8ff" d="M100.61,-105.25C122.2,-92.98 154.24,-76.08 184,-65.5 191.33,-62.89 199.15,-60.57 206.97,-58.53"/>
<polygon fill="#63b8ff" stroke="#63b8ff" points="207.98,-61.88 216.84,-56.09 206.29,-55.09 207.98,-61.88"/>
</a>
</g>
</g>
<!-- Node9 -->
<g id="Node000009" class="node">
<title>Node9</title>
<g id="a_Node000009"><a xlink:href="classAPlayerControl.html#a6753258935f617283a3cfb653d32b84b" target="_top" xlink:title=" ">
<polygon fill="white" stroke="#666666" points="339.5,-19 203.5,-19 203.5,0 339.5,0 339.5,-19"/>
<text text-anchor="middle" x="271.5" y="-7" font-family="Malgun Gothic" font-size="10.00">APlayerControl::OnMove</text>
</a>
</g>
</g>
<!-- Node1&#45;&gt;Node9 -->
<g id="edge13_Node000001_Node000009" class="edge">
<title>Node1&#45;&gt;Node9</title>
<g id="a_edge13_Node000001_Node000009"><a xlink:title=" ">
<path fill="none" stroke="#63b8ff" d="M88.51,-105.17C107.64,-84.46 144.7,-47.9 184,-28.5 188.91,-26.08 194.13,-23.96 199.48,-22.11"/>
<polygon fill="#63b8ff" stroke="#63b8ff" points="200.71,-25.39 209.2,-19.06 198.61,-18.71 200.71,-25.39"/>
</a>
</g>
</g>
<!-- Node3 -->
<g id="Node000003" class="node">
<title>Node3</title>
<g id="a_Node000003"><a xlink:href="classAPlayerControl.html#aeda5eb6dcc2b2420cf2dc554a2739477" target="_top" xlink:title=" ">
<polygon fill="white" stroke="#666666" points="567,-130 395,-130 395,-111 567,-111 567,-130"/>
<text text-anchor="middle" x="481" y="-118" font-family="Malgun Gothic" font-size="10.00">APlayerControl::GetControllable</text>
</a>
</g>
</g>
<!-- Node2&#45;&gt;Node3 -->
<g id="edge2_Node000002_Node000003" class="edge">
<title>Node2&#45;&gt;Node3</title>
<g id="a_edge2_Node000002_Node000003"><a xlink:title=" ">
<path fill="none" stroke="#63b8ff" d="M334.29,-233.87C342.82,-231.42 351.3,-228.35 359,-224.5 402.92,-202.57 444.02,-161.16 465.16,-137.75"/>
<polygon fill="#63b8ff" stroke="#63b8ff" points="468,-139.82 472.01,-130.01 462.76,-135.18 468,-139.82"/>
</a>
</g>
</g>
<!-- Node4&#45;&gt;Node3 -->
<g id="edge4_Node000004_Node000003" class="edge">
<title>Node4&#45;&gt;Node3</title>
<g id="a_edge4_Node000004_Node000003"><a xlink:title=" ">
<path fill="none" stroke="#63b8ff" d="M332,-185.37C341.12,-182.65 350.37,-179.67 359,-176.5 391.99,-164.38 428.42,-146.94 452.59,-134.75"/>
<polygon fill="#63b8ff" stroke="#63b8ff" points="454.21,-137.85 461.54,-130.2 451.04,-131.61 454.21,-137.85"/>
</a>
</g>
</g>
<!-- Node5&#45;&gt;Node3 -->
<g id="edge6_Node000005_Node000003" class="edge">
<title>Node5&#45;&gt;Node3</title>
<g id="a_edge6_Node000005_Node000003"><a xlink:title=" ">
<path fill="none" stroke="#63b8ff" d="M325.94,-147.97C353.54,-143.05 387.42,-137.01 416.37,-131.85"/>
<polygon fill="#63b8ff" stroke="#63b8ff" points="417.15,-135.26 426.38,-130.06 415.93,-128.37 417.15,-135.26"/>
</a>
</g>
</g>
<!-- Node6&#45;&gt;Node3 -->
<g id="edge8_Node000006_Node000003" class="edge">
<title>Node6&#45;&gt;Node3</title>
<g id="a_edge8_Node000006_Node000003"><a xlink:title=" ">
<path fill="none" stroke="#63b8ff" d="M338.72,-120.5C353.32,-120.5 369.06,-120.5 384.55,-120.5"/>
<polygon fill="#63b8ff" stroke="#63b8ff" points="384.68,-124 394.68,-120.5 384.68,-117 384.68,-124"/>
</a>
</g>
</g>
<!-- Node7&#45;&gt;Node3 -->
<g id="edge10_Node000007_Node000003" class="edge">
<title>Node7&#45;&gt;Node3</title>
<g id="a_edge10_Node000007_Node000003"><a xlink:title=" ">
<path fill="none" stroke="#63b8ff" d="M325.94,-93.03C353.54,-97.95 387.42,-103.99 416.37,-109.15"/>
<polygon fill="#63b8ff" stroke="#63b8ff" points="415.93,-112.63 426.38,-110.94 417.15,-105.74 415.93,-112.63"/>
</a>
</g>
</g>
<!-- Node8&#45;&gt;Node3 -->
<g id="edge12_Node000008_Node000003" class="edge">
<title>Node8&#45;&gt;Node3</title>
<g id="a_edge12_Node000008_Node000003"><a xlink:title=" ">
<path fill="none" stroke="#63b8ff" d="M324.67,-56.1C336.1,-58.72 348.06,-61.86 359,-65.5 392.44,-76.63 429.04,-94.06 453.14,-106.31"/>
<polygon fill="#63b8ff" stroke="#63b8ff" points="451.54,-109.42 462.03,-110.88 454.74,-103.19 451.54,-109.42"/>
</a>
</g>
</g>
<!-- Node9&#45;&gt;Node3 -->
<g id="edge14_Node000009_Node000003" class="edge">
<title>Node9&#45;&gt;Node3</title>
<g id="a_edge14_Node000009_Node000003"><a xlink:title=" ">
<path fill="none" stroke="#63b8ff" d="M332.25,-19.05C341.43,-21.53 350.63,-24.63 359,-28.5 400.6,-47.74 441.44,-83.21 463.41,-104.04"/>
<polygon fill="#63b8ff" stroke="#63b8ff" points="460.99,-106.57 470.62,-111 465.85,-101.54 460.99,-106.57"/>
</a>
</g>
</g>
</g>
</svg>

<g id="navigator" transform="translate(0 0)" fill="#404254">
  <rect fill="#f2f5e9" fill-opacity="0.5" stroke="#606060" stroke-width=".5" x="0" y="0" width="60" height="60"/>
  <use id="zoomplus" xlink:href="#zoomPlus" x="17" y="9" onmousedown="handleZoom(evt,'in')"/>
  <use id="zoomminus" xlink:href="#zoomMin" x="42" y="9" onmousedown="handleZoom(evt,'out')"/>
  <use id="reset" xlink:href="#resetDef" x="30" y="36" onmousedown="handleReset()"/>
   <use id="arrowup" xlink:href="#arrowUp" x="0" y="0" onmousedown="handlePan(0,-1)"/>
  <use id="arrowright" xlink:href="#arrowRight" x="0" y="0" onmousedown="handlePan(1,0)"/>
  <use id="arrowdown" xlink:href="#arrowDown" x="0" y="0" onmousedown="handlePan(0,1)"/>
  <use id="arrowleft" xlink:href="#arrowLeft" x="0" y="0" onmousedown="handlePan(-1,0)"/>
</g>
<svg viewBox="0 0 15 15" width="100%" height="30px" preserveAspectRatio="xMaxYMin meet">
 <g id="arrow_out" transform="scale(0.3 0.3)">
  <a xlink:href="classAPlayerControl_abede09a391c47bdafb3b34a507c80e9b_cgraph_org.svg" target="_base">
   <rect id="button" ry="5" rx="5" y="6" x="6" height="38" width="38"
        fill="#f2f5e9" fill-opacity="0.5" stroke="#606060" stroke-width="1.0"/>
   <path id="arrow"
     d="M 11.500037,31.436501 C 11.940474,20.09759 22.043105,11.32322 32.158766,21.979434 L 37.068811,17.246167 C 37.068811,17.246167 37.088388,32 37.088388,32 L 22.160133,31.978069 C 22.160133,31.978069 26.997745,27.140456 26.997745,27.140456 C 18.528582,18.264221 13.291696,25.230495 11.500037,31.436501 z"
     style="fill:#404040;"/>
  </a>
 </g>
</svg>

<style type='text/css'>
<![CDATA[
[data-mouse-over-selected='false'] { opacity: 0.7; }
[data-mouse-over-selected='true']  { opacity: 1.0; }
]]>
</style>
<script type="application/ecmascript"><![CDATA[
document.addEventListener('DOMContentLoaded', (event) => {
  highlightEdges();
  highlightAdjacentNodes();
});
]]></script>
</svg>
