<?xml version="1.0" encoding="UTF-8" standalone="no"?>
<!DOCTYPE svg PUBLIC "-//W3C//DTD SVG 1.1//EN"
 "http://www.w3.org/Graphics/SVG/1.1/DTD/svg11.dtd">
<!-- Generated by graphviz version 2.43.0 (0)
 -->
<!-- Title: UGameDataManager::Initialize Pages: 1 -->
<svg width="578pt" height="182pt"
 viewBox="0.00 0.00 578.00 182.00" xmlns="http://www.w3.org/2000/svg" xmlns:xlink="http://www.w3.org/1999/xlink">
<g id="graph0" class="graph" transform="scale(1 1) rotate(0) translate(4 178)">
<title>UGameDataManager::Initialize</title>
<!-- Node1 -->
<g id="Node000001" class="node">
<title>Node1</title>
<g id="a_Node000001"><a xlink:title=" ">
<polygon fill="#999999" stroke="#666666" points="167,-96.5 0,-96.5 0,-77.5 167,-77.5 167,-96.5"/>
<text text-anchor="middle" x="83.5" y="-84.5" font-family="Malgun Gothic" font-size="10.00">UGameDataManager::Initialize</text>
</a>
</g>
</g>
<!-- Node2 -->
<g id="Node000002" class="node">
<title>Node2</title>
<g id="a_Node000002"><a xlink:href="classUGameDataManager.html#a1ef2615c011d32aff77fff4d5ccaf627" target="_top" xlink:title=" ">
<polygon fill="white" stroke="#666666" points="362,-102 203,-102 203,-72 362,-72 362,-102"/>
<text text-anchor="start" x="211" y="-90" font-family="Malgun Gothic" font-size="10.00">UGameDataManager::Reload</text>
<text text-anchor="middle" x="282.5" y="-79" font-family="Malgun Gothic" font-size="10.00">MasterData</text>
</a>
</g>
</g>
<!-- Node1&#45;&gt;Node2 -->
<g id="edge1_Node000001_Node000002" class="edge">
<title>Node1&#45;&gt;Node2</title>
<g id="a_edge1_Node000001_Node000002"><a xlink:title=" ">
<path fill="none" stroke="#63b8ff" d="M167.19,-87C175.57,-87 184.11,-87 192.56,-87"/>
<polygon fill="#63b8ff" stroke="#63b8ff" points="192.8,-90.5 202.8,-87 192.8,-83.5 192.8,-90.5"/>
</a>
</g>
</g>
<!-- Node3 -->
<g id="Node000003" class="node">
<title>Node3</title>
<g id="a_Node000003"><a xlink:href="classUGameDataManager.html#a17795ed84fef2f5fbb76d7da26d52447" target="_top" xlink:title=" ">
<polygon fill="white" stroke="#666666" points="570,-174 398,-174 398,-144 570,-144 570,-174"/>
<text text-anchor="start" x="406" y="-162" font-family="Malgun Gothic" font-size="10.00">UGameDataManager::LoadData</text>
<text text-anchor="middle" x="484" y="-151" font-family="Malgun Gothic" font-size="10.00">_CharacterAssetData</text>
</a>
</g>
</g>
<!-- Node2&#45;&gt;Node3 -->
<g id="edge2_Node000002_Node000003" class="edge">
<title>Node2&#45;&gt;Node3</title>
<g id="a_edge2_Node000002_Node000003"><a xlink:title=" ">
<path fill="none" stroke="#63b8ff" d="M316.65,-102.16C339.29,-112.2 370.12,-125.26 398,-135 403.89,-137.06 410.05,-139.07 416.26,-140.99"/>
<polygon fill="#63b8ff" stroke="#63b8ff" points="415.42,-144.4 426,-143.94 417.45,-137.7 415.42,-144.4"/>
</a>
</g>
</g>
<!-- Node4 -->
<g id="Node000004" class="node">
<title>Node4</title>
<g id="a_Node000004"><a xlink:href="classUGameDataManager.html#ad849e286b5e7c53cb21b2d193eb58dbe" target="_top" xlink:title=" ">
<polygon fill="white" stroke="#666666" points="570,-126 398,-126 398,-96 570,-96 570,-126"/>
<text text-anchor="start" x="406" y="-114" font-family="Malgun Gothic" font-size="10.00">UGameDataManager::LoadData</text>
<text text-anchor="middle" x="484" y="-103" font-family="Malgun Gothic" font-size="10.00">_CharacterInfoData</text>
</a>
</g>
</g>
<!-- Node2&#45;&gt;Node4 -->
<g id="edge3_Node000002_Node000004" class="edge">
<title>Node2&#45;&gt;Node4</title>
<g id="a_edge3_Node000002_Node000004"><a xlink:title=" ">
<path fill="none" stroke="#63b8ff" d="M362.06,-96.45C370.53,-97.47 379.2,-98.51 387.83,-99.55"/>
<polygon fill="#63b8ff" stroke="#63b8ff" points="387.58,-103.05 397.93,-100.77 388.42,-96.1 387.58,-103.05"/>
</a>
</g>
</g>
<!-- Node5 -->
<g id="Node000005" class="node">
<title>Node5</title>
<g id="a_Node000005"><a xlink:href="classUGameDataManager.html#adf72cf62298bc613581042c7e86bfbde" target="_top" xlink:title=" ">
<polygon fill="white" stroke="#666666" points="570,-78 398,-78 398,-48 570,-48 570,-78"/>
<text text-anchor="start" x="406" y="-66" font-family="Malgun Gothic" font-size="10.00">UGameDataManager::LoadData</text>
<text text-anchor="middle" x="484" y="-55" font-family="Malgun Gothic" font-size="10.00">_HitStopTable</text>
</a>
</g>
</g>
<!-- Node2&#45;&gt;Node5 -->
<g id="edge4_Node000002_Node000005" class="edge">
<title>Node2&#45;&gt;Node5</title>
<g id="a_edge4_Node000002_Node000005"><a xlink:title=" ">
<path fill="none" stroke="#63b8ff" d="M362.06,-77.55C370.53,-76.53 379.2,-75.49 387.83,-74.45"/>
<polygon fill="#63b8ff" stroke="#63b8ff" points="388.42,-77.9 397.93,-73.23 387.58,-70.95 388.42,-77.9"/>
</a>
</g>
</g>
<!-- Node6 -->
<g id="Node000006" class="node">
<title>Node6</title>
<g id="a_Node000006"><a xlink:href="classUGameDataManager.html#ac3bde7d40542b59a0ce72d0b070d3a8e" target="_top" xlink:title=" ">
<polygon fill="white" stroke="#666666" points="570,-30 398,-30 398,0 570,0 570,-30"/>
<text text-anchor="start" x="406" y="-18" font-family="Malgun Gothic" font-size="10.00">UGameDataManager::LoadData</text>
<text text-anchor="middle" x="484" y="-7" font-family="Malgun Gothic" font-size="10.00">_KnockbackTable</text>
</a>
</g>
</g>
<!-- Node2&#45;&gt;Node6 -->
<g id="edge5_Node000002_Node000006" class="edge">
<title>Node2&#45;&gt;Node6</title>
<g id="a_edge5_Node000002_Node000006"><a xlink:title=" ">
<path fill="none" stroke="#63b8ff" d="M316.65,-71.84C339.29,-61.8 370.12,-48.74 398,-39 403.89,-36.94 410.05,-34.93 416.26,-33.01"/>
<polygon fill="#63b8ff" stroke="#63b8ff" points="417.45,-36.3 426,-30.06 415.42,-29.6 417.45,-36.3"/>
</a>
</g>
</g>
</g>
</svg>
