<?xml version="1.0" encoding="UTF-8" standalone="no"?>
<!DOCTYPE svg PUBLIC "-//W3C//DTD SVG 1.1//EN"
 "http://www.w3.org/Graphics/SVG/1.1/DTD/svg11.dtd">
<!-- Generated by graphviz version 2.43.0 (0)
 -->
<!-- Title: UGameDataManager Pages: 1 -->
<!--zoomable 573 -->

<svg id="main" version="1.1" xmlns="http://www.w3.org/2000/svg" xmlns:xlink="http://www.w3.org/1999/xlink" xml:space="preserve" onload="init(evt)">
<style type="text/css"><![CDATA[
.node, .edge {opacity: 0.7;}
.node.selected, .edge.selected {opacity: 1;}
.edge:hover path { stroke: red; }
.edge:hover polygon { stroke: red; fill: red; }
]]></style>

<defs>
  <circle id="rim" cx="0" cy="0" r="7"/>
  <circle id="rim2" cx="0" cy="0" r="3.5"/>
  <g id="zoomPlus">
    <use xlink:href="#rim" fill="#404040"><set attributeName="fill" to="#808080" begin="zoomplus.mouseover" end="zoomplus.mouseout"/></use>
    <path d="M-4,0h8M0,-4v8" fill="none" stroke="white" stroke-width="1.5" pointer-events="none"/>
  </g>
  <g id="zoomMin">
    <use xlink:href="#rim" fill="#404040"><set attributeName="fill" to="#808080" begin="zoomminus.mouseover" end="zoomminus.mouseout"/></use>
    <path d="M-4,0h8" fill="none" stroke="white" stroke-width="1.5" pointer-events="none"/>
  </g>
  <g id="arrowUp" transform="translate(30 24)">
    <use xlink:href="#rim"/>
    <path pointer-events="none" fill="none" stroke="white" stroke-width="1.5" d="M0,-3.0v7 M-2.5,-0.5L0,-3.0L2.5,-0.5"/>
  </g>
  <g id="arrowRight" transform="rotate(90) translate(36 -43)">
    <use xlink:href="#rim"/>
    <path pointer-events="none" fill="none" stroke="white" stroke-width="1.5" d="M0,-3.0v7 M-2.5,-0.5L0,-3.0L2.5,-0.5"/>
  </g>
  <g id="arrowDown" transform="rotate(180) translate(-30 -48)">
    <use xlink:href="#rim"/>
    <path pointer-events="none" fill="none" stroke="white" stroke-width="1.5" d="M0,-3.0v7 M-2.5,-0.5L0,-3.0L2.5,-0.5"/>
  </g>
  <g id="arrowLeft" transform="rotate(270) translate(-36 17)">
    <use xlink:href="#rim"/>
    <path pointer-events="none" fill="none" stroke="white" stroke-width="1.5" d="M0,-3.0v7 M-2.5,-0.5L0,-3.0L2.5,-0.5"/>
  </g>
  <g id="resetDef">
    <use xlink:href="#rim2" fill="#404040"><set attributeName="fill" to="#808080" begin="reset.mouseover" end="reset.mouseout"/></use>
  </g>
</defs>
<script type="application/ecmascript">
var viewWidth = 186;
var viewHeight = 573;
var sectionId = 'dynsection-0';
</script>
<script type="application/ecmascript" xlink:href="svg.min.js"/>
<svg id="graph" class="graph">
<g id="viewport">
<title>UGameDataManager</title>
<!-- Node1 -->
<g id="Node000001" class="node">
<title>Node1</title>
<g id="a_Node000001"><a xlink:title=" ">
<polygon fill="#999999" stroke="transparent" points="178,-480 0,-480 0,0 178,0 178,-480"/>
<text text-anchor="start" x="37.5" y="-468" font-family="Malgun Gothic" font-size="10.00">UGameDataManager</text>
<text text-anchor="start" x="4" y="-453" font-family="Malgun Gothic" font-size="10.00">+</text>
<text text-anchor="start" x="17" y="-453" font-family="Malgun Gothic" font-size="10.00">CharacterAssetTable</text>
<text text-anchor="start" x="4" y="-438" font-family="Malgun Gothic" font-size="10.00">+</text>
<text text-anchor="start" x="17" y="-438" font-family="Malgun Gothic" font-size="10.00">CharacterInfoTable</text>
<text text-anchor="start" x="4" y="-423" font-family="Malgun Gothic" font-size="10.00">+</text>
<text text-anchor="start" x="17" y="-423" font-family="Malgun Gothic" font-size="10.00">HitStopTable</text>
<text text-anchor="start" x="4" y="-408" font-family="Malgun Gothic" font-size="10.00">+</text>
<text text-anchor="start" x="17" y="-408" font-family="Malgun Gothic" font-size="10.00">KnockbackTable</text>
<text text-anchor="start" x="6.5" y="-393" font-family="Malgun Gothic" font-size="10.00">&#45;</text>
<text text-anchor="start" x="17" y="-393" font-family="Malgun Gothic" font-size="10.00">bLoadCharacterAsset</text>
<text text-anchor="start" x="6.5" y="-378" font-family="Malgun Gothic" font-size="10.00">&#45;</text>
<text text-anchor="start" x="17" y="-378" font-family="Malgun Gothic" font-size="10.00">bLoadCharacterInfo</text>
<text text-anchor="start" x="6.5" y="-363" font-family="Malgun Gothic" font-size="10.00">&#45;</text>
<text text-anchor="start" x="17" y="-363" font-family="Malgun Gothic" font-size="10.00">bLoadHitStop</text>
<text text-anchor="start" x="6.5" y="-348" font-family="Malgun Gothic" font-size="10.00">&#45;</text>
<text text-anchor="start" x="17" y="-348" font-family="Malgun Gothic" font-size="10.00">bLoadKnockback</text>
<text text-anchor="start" x="6.5" y="-333" font-family="Malgun Gothic" font-size="10.00">&#45;</text>
<text text-anchor="start" x="17" y="-333" font-family="Malgun Gothic" font-size="10.00">CharacterAssetCache</text>
<text text-anchor="start" x="6.5" y="-318" font-family="Malgun Gothic" font-size="10.00">&#45;</text>
<text text-anchor="start" x="17" y="-318" font-family="Malgun Gothic" font-size="10.00">CharacterInfoCache</text>
<text text-anchor="start" x="6.5" y="-303" font-family="Malgun Gothic" font-size="10.00">&#45;</text>
<text text-anchor="start" x="17" y="-303" font-family="Malgun Gothic" font-size="10.00">HitStopCache</text>
<text text-anchor="start" x="6.5" y="-288" font-family="Malgun Gothic" font-size="10.00">&#45;</text>
<text text-anchor="start" x="17" y="-288" font-family="Malgun Gothic" font-size="10.00">KnockbackCache</text>
<text text-anchor="start" x="4" y="-273" font-family="Malgun Gothic" font-size="10.00">+</text>
<text text-anchor="start" x="17" y="-273" font-family="Malgun Gothic" font-size="10.00">UGameDataManager()</text>
<text text-anchor="start" x="4" y="-258" font-family="Malgun Gothic" font-size="10.00">+</text>
<text text-anchor="start" x="17" y="-258" font-family="Malgun Gothic" font-size="10.00">DEFINE_SUBSYSTEM_GETTER</text>
<text text-anchor="start" x="17" y="-247" font-family="Malgun Gothic" font-size="10.00">_INLINE()</text>
<text text-anchor="start" x="4" y="-232" font-family="Malgun Gothic" font-size="10.00">+</text>
<text text-anchor="start" x="17" y="-232" font-family="Malgun Gothic" font-size="10.00">Deinitialize()</text>
<text text-anchor="start" x="4" y="-217" font-family="Malgun Gothic" font-size="10.00">+</text>
<text text-anchor="start" x="17" y="-217" font-family="Malgun Gothic" font-size="10.00">GetCharacterAssetData()</text>
<text text-anchor="start" x="4" y="-202" font-family="Malgun Gothic" font-size="10.00">+</text>
<text text-anchor="start" x="17" y="-202" font-family="Malgun Gothic" font-size="10.00">GetCharacterInfoData()</text>
<text text-anchor="start" x="4" y="-187" font-family="Malgun Gothic" font-size="10.00">+</text>
<text text-anchor="start" x="17" y="-187" font-family="Malgun Gothic" font-size="10.00">GetHitStopData()</text>
<text text-anchor="start" x="4" y="-172" font-family="Malgun Gothic" font-size="10.00">+</text>
<text text-anchor="start" x="17" y="-172" font-family="Malgun Gothic" font-size="10.00">GetHitStopDelayTime()</text>
<text text-anchor="start" x="4" y="-157" font-family="Malgun Gothic" font-size="10.00">+</text>
<text text-anchor="start" x="17" y="-157" font-family="Malgun Gothic" font-size="10.00">GetKnockbackData()</text>
<text text-anchor="start" x="4" y="-142" font-family="Malgun Gothic" font-size="10.00">+</text>
<text text-anchor="start" x="17" y="-142" font-family="Malgun Gothic" font-size="10.00">Initialize()</text>
<text text-anchor="start" x="4" y="-127" font-family="Malgun Gothic" font-size="10.00">+</text>
<text text-anchor="start" x="17" y="-127" font-family="Malgun Gothic" font-size="10.00">ReloadMasterData()</text>
<text text-anchor="start" x="6.5" y="-112" font-family="Malgun Gothic" font-size="10.00">&#45;</text>
<text text-anchor="start" x="17" y="-112" font-family="Malgun Gothic" font-size="10.00">Clear_CharacterAssetData()</text>
<text text-anchor="start" x="6.5" y="-97" font-family="Malgun Gothic" font-size="10.00">&#45;</text>
<text text-anchor="start" x="17" y="-97" font-family="Malgun Gothic" font-size="10.00">Clear_CharacterInfoData()</text>
<text text-anchor="start" x="6.5" y="-82" font-family="Malgun Gothic" font-size="10.00">&#45;</text>
<text text-anchor="start" x="17" y="-82" font-family="Malgun Gothic" font-size="10.00">Clear_HitStopTable()</text>
<text text-anchor="start" x="6.5" y="-67" font-family="Malgun Gothic" font-size="10.00">&#45;</text>
<text text-anchor="start" x="17" y="-67" font-family="Malgun Gothic" font-size="10.00">Clear_KnockbackTable()</text>
<text text-anchor="start" x="6.5" y="-52" font-family="Malgun Gothic" font-size="10.00">&#45;</text>
<text text-anchor="start" x="17" y="-52" font-family="Malgun Gothic" font-size="10.00">LoadData_CharacterAssetData()</text>
<text text-anchor="start" x="6.5" y="-37" font-family="Malgun Gothic" font-size="10.00">&#45;</text>
<text text-anchor="start" x="17" y="-37" font-family="Malgun Gothic" font-size="10.00">LoadData_CharacterInfoData()</text>
<text text-anchor="start" x="6.5" y="-22" font-family="Malgun Gothic" font-size="10.00">&#45;</text>
<text text-anchor="start" x="17" y="-22" font-family="Malgun Gothic" font-size="10.00">LoadData_HitStopTable()</text>
<text text-anchor="start" x="6.5" y="-7" font-family="Malgun Gothic" font-size="10.00">&#45;</text>
<text text-anchor="start" x="17" y="-7" font-family="Malgun Gothic" font-size="10.00">LoadData_KnockbackTable()</text>
<polygon fill="#666666" stroke="#666666" points="0,-463 0,-463 178,-463 178,-463 0,-463"/>
<polygon fill="#666666" stroke="#666666" points="0,-283 0,-283 15,-283 15,-283 0,-283"/>
<polygon fill="#666666" stroke="#666666" points="15,-283 15,-283 178,-283 178,-283 15,-283"/>
<polygon fill="none" stroke="#666666" points="0,0 0,-480 178,-480 178,0 0,0"/>
</a>
</g>
</g>
<!-- Node2 -->
<g id="Node000002" class="node">
<title>Node2</title>
<g id="a_Node000002"><a xlink:title=" ">
<polygon fill="white" stroke="transparent" points="160.5,-565 17.5,-565 17.5,-516 160.5,-516 160.5,-565"/>
<text text-anchor="start" x="23" y="-552.5" font-family="Malgun Gothic" font-size="10.00">UGameInstanceSubsystem</text>
<text text-anchor="start" x="87.5" y="-537.5" font-family="Malgun Gothic" font-size="10.00"> </text>
<text text-anchor="start" x="87.5" y="-522.5" font-family="Malgun Gothic" font-size="10.00"> </text>
<polygon fill="#666666" stroke="#666666" points="18,-547.5 18,-547.5 161,-547.5 161,-547.5 18,-547.5"/>
<polygon fill="#666666" stroke="#666666" points="18,-532.5 18,-532.5 161,-532.5 161,-532.5 18,-532.5"/>
<polygon fill="none" stroke="#666666" points="17.5,-516 17.5,-565 160.5,-565 160.5,-516 17.5,-516"/>
</a>
</g>
</g>
<!-- Node2&#45;&gt;Node1 -->
<g id="edge1_Node000001_Node000002" class="edge">
<title>Node2&#45;&gt;Node1</title>
<g id="a_edge1_Node000001_Node000002"><a xlink:title=" ">
<path fill="none" stroke="#63b8ff" d="M89,-505.81C89,-498.22 89,-489.61 89,-480.24"/>
<polygon fill="none" stroke="#63b8ff" points="85.5,-505.83 89,-515.83 92.5,-505.83 85.5,-505.83"/>
</a>
</g>
</g>
</g>
</svg>

<g id="navigator" transform="translate(0 0)" fill="#404254">
  <rect fill="#f2f5e9" fill-opacity="0.5" stroke="#606060" stroke-width=".5" x="0" y="0" width="60" height="60"/>
  <use id="zoomplus" xlink:href="#zoomPlus" x="17" y="9" onmousedown="handleZoom(evt,'in')"/>
  <use id="zoomminus" xlink:href="#zoomMin" x="42" y="9" onmousedown="handleZoom(evt,'out')"/>
  <use id="reset" xlink:href="#resetDef" x="30" y="36" onmousedown="handleReset()"/>
   <use id="arrowup" xlink:href="#arrowUp" x="0" y="0" onmousedown="handlePan(0,-1)"/>
  <use id="arrowright" xlink:href="#arrowRight" x="0" y="0" onmousedown="handlePan(1,0)"/>
  <use id="arrowdown" xlink:href="#arrowDown" x="0" y="0" onmousedown="handlePan(0,1)"/>
  <use id="arrowleft" xlink:href="#arrowLeft" x="0" y="0" onmousedown="handlePan(-1,0)"/>
</g>
<svg viewBox="0 0 15 15" width="100%" height="30px" preserveAspectRatio="xMaxYMin meet">
 <g id="arrow_out" transform="scale(0.3 0.3)">
  <a xlink:href="classUGameDataManager__inherit__graph_org.svg" target="_base">
   <rect id="button" ry="5" rx="5" y="6" x="6" height="38" width="38"
        fill="#f2f5e9" fill-opacity="0.5" stroke="#606060" stroke-width="1.0"/>
   <path id="arrow"
     d="M 11.500037,31.436501 C 11.940474,20.09759 22.043105,11.32322 32.158766,21.979434 L 37.068811,17.246167 C 37.068811,17.246167 37.088388,32 37.088388,32 L 22.160133,31.978069 C 22.160133,31.978069 26.997745,27.140456 26.997745,27.140456 C 18.528582,18.264221 13.291696,25.230495 11.500037,31.436501 z"
     style="fill:#404040;"/>
  </a>
 </g>
</svg>

<style type='text/css'>
<![CDATA[
[data-mouse-over-selected='false'] { opacity: 0.7; }
[data-mouse-over-selected='true']  { opacity: 1.0; }
]]>
</style>
<script type="application/ecmascript"><![CDATA[
document.addEventListener('DOMContentLoaded', (event) => {
  highlightEdges();
  highlightAdjacentNodes();
});
]]></script>
</svg>
