<?xml version="1.0" encoding="UTF-8" standalone="no"?>
<!DOCTYPE svg PUBLIC "-//W3C//DTD SVG 1.1//EN"
 "http://www.w3.org/Graphics/SVG/1.1/DTD/svg11.dtd">
<!-- Generated by graphviz version 2.43.0 (0)
 -->
<!-- Title: AGate::OnOverlapEnd Pages: 1 -->
<svg width="493pt" height="64pt"
 viewBox="0.00 0.00 493.00 64.00" xmlns="http://www.w3.org/2000/svg" xmlns:xlink="http://www.w3.org/1999/xlink">
<g id="graph0" class="graph" transform="scale(1 1) rotate(0) translate(4 60)">
<title>AGate::OnOverlapEnd</title>
<!-- Node1 -->
<g id="Node000001" class="node">
<title>Node1</title>
<g id="a_Node000001"><a xlink:title=" ">
<polygon fill="#999999" stroke="#666666" points="122,-37 0,-37 0,-18 122,-18 122,-37"/>
<text text-anchor="middle" x="61" y="-25" font-family="Malgun Gothic" font-size="10.00">AGate::OnOverlapEnd</text>
</a>
</g>
</g>
<!-- Node2 -->
<g id="Node000002" class="node">
<title>Node2</title>
<g id="a_Node000002"><a xlink:href="classAGate.html#ab83a2e573215c998455f7edf71aa5807" target="_top" xlink:title=" ">
<polygon fill="white" stroke="#666666" points="268,-56 165,-56 165,-37 268,-37 268,-56"/>
<text text-anchor="middle" x="216.5" y="-44" font-family="Malgun Gothic" font-size="10.00">AGate::CloseDoor</text>
</a>
</g>
</g>
<!-- Node1&#45;&gt;Node2 -->
<g id="edge1_Node000001_Node000002" class="edge">
<title>Node1&#45;&gt;Node2</title>
<g id="a_edge1_Node000001_Node000002"><a xlink:title=" ">
<path fill="none" stroke="#63b8ff" d="M122.23,-34.95C132.92,-36.28 144.06,-37.66 154.77,-38.98"/>
<polygon fill="#63b8ff" stroke="#63b8ff" points="154.52,-42.48 164.87,-40.23 155.38,-35.53 154.52,-42.48"/>
</a>
</g>
</g>
<!-- Node4 -->
<g id="Node000004" class="node">
<title>Node4</title>
<g id="a_Node000004"><a xlink:href="classAGate.html#a0aac26a835f62650db64de1cb0e691f2" target="_top" xlink:title=" ">
<polygon fill="white" stroke="#666666" points="275,-19 158,-19 158,0 275,0 275,-19"/>
<text text-anchor="middle" x="216.5" y="-7" font-family="Malgun Gothic" font-size="10.00">AGate::IsPlayerActor</text>
</a>
</g>
</g>
<!-- Node1&#45;&gt;Node4 -->
<g id="edge3_Node000001_Node000004" class="edge">
<title>Node1&#45;&gt;Node4</title>
<g id="a_edge3_Node000001_Node000004"><a xlink:title=" ">
<path fill="none" stroke="#63b8ff" d="M122.23,-20.44C130.68,-19.45 139.41,-18.42 147.99,-17.42"/>
<polygon fill="#63b8ff" stroke="#63b8ff" points="148.43,-20.89 157.96,-16.25 147.62,-13.94 148.43,-20.89"/>
</a>
</g>
</g>
<!-- Node3 -->
<g id="Node000003" class="node">
<title>Node3</title>
<g id="a_Node000003"><a xlink:href="classAGate.html#a281d61d11d8e4d66d818bd1f8cfe0c2d" target="_top" xlink:title=" ">
<polygon fill="white" stroke="#666666" points="485,-56 311,-56 311,-37 485,-37 485,-56"/>
<text text-anchor="middle" x="398" y="-44" font-family="Malgun Gothic" font-size="10.00">AGate::PlayCloseDoorAnimation</text>
</a>
</g>
</g>
<!-- Node2&#45;&gt;Node3 -->
<g id="edge2_Node000002_Node000003" class="edge">
<title>Node2&#45;&gt;Node3</title>
<g id="a_edge2_Node000002_Node000003"><a xlink:title=" ">
<path fill="none" stroke="#63b8ff" d="M268.46,-46.5C278.61,-46.5 289.59,-46.5 300.71,-46.5"/>
<polygon fill="#63b8ff" stroke="#63b8ff" points="300.93,-50 310.93,-46.5 300.93,-43 300.93,-50"/>
</a>
</g>
</g>
</g>
</svg>
