<?xml version="1.0" encoding="UTF-8" standalone="no"?>
<!DOCTYPE svg PUBLIC "-//W3C//DTD SVG 1.1//EN"
 "http://www.w3.org/Graphics/SVG/1.1/DTD/svg11.dtd">
<!-- Generated by graphviz version 2.43.0 (0)
 -->
<!-- Title: UHttpNetworkSystem::RequestHealth Pages: 1 -->
<svg width="495pt" height="172pt"
 viewBox="0.00 0.00 495.00 172.00" xmlns="http://www.w3.org/2000/svg" xmlns:xlink="http://www.w3.org/1999/xlink">
<g id="graph0" class="graph" transform="scale(1 1) rotate(0) translate(4 168)">
<title>UHttpNetworkSystem::RequestHealth</title>
<!-- Node1 -->
<g id="Node000001" class="node">
<title>Node1</title>
<g id="a_Node000001"><a xlink:title=" ">
<polygon fill="#999999" stroke="#666666" points="123,-78 0,-78 0,-48 123,-48 123,-78"/>
<text text-anchor="start" x="8" y="-66" font-family="Malgun Gothic" font-size="10.00">UHttpNetworkSystem</text>
<text text-anchor="middle" x="61.5" y="-55" font-family="Malgun Gothic" font-size="10.00">::RequestHealth</text>
</a>
</g>
</g>
<!-- Node2 -->
<g id="Node000002" class="node">
<title>Node2</title>
<g id="a_Node000002"><a xlink:href="namespaceNetworkConfig.html#ab5ac57e8f51de6d1740c7a88534a7246" target="_top" xlink:title=" ">
<polygon fill="white" stroke="#666666" points="305,-115.5 162,-115.5 162,-96.5 305,-96.5 305,-115.5"/>
<text text-anchor="middle" x="233.5" y="-103.5" font-family="Malgun Gothic" font-size="10.00">NetworkConfig::GetFullUrl</text>
</a>
</g>
</g>
<!-- Node1&#45;&gt;Node2 -->
<g id="edge1_Node000001_Node000002" class="edge">
<title>Node1&#45;&gt;Node2</title>
<g id="a_edge1_Node000001_Node000002"><a xlink:title=" ">
<path fill="none" stroke="#63b8ff" d="M121.96,-78.04C142.59,-83.26 165.43,-89.03 184.97,-93.98"/>
<polygon fill="#63b8ff" stroke="#63b8ff" points="184.3,-97.42 194.85,-96.48 186.02,-90.63 184.3,-97.42"/>
</a>
</g>
</g>
<!-- Node5 -->
<g id="Node000005" class="node">
<title>Node5</title>
<g id="a_Node000005"><a xlink:href="classUHttpNetworkSystem.html#a7e1c4594cecb3e83131e17106e654d07" target="_top" xlink:title=" ">
<polygon fill="white" stroke="#666666" points="295,-78 172,-78 172,-48 295,-48 295,-78"/>
<text text-anchor="start" x="180" y="-66" font-family="Malgun Gothic" font-size="10.00">UHttpNetworkSystem</text>
<text text-anchor="middle" x="233.5" y="-55" font-family="Malgun Gothic" font-size="10.00">::LogNetwork</text>
</a>
</g>
</g>
<!-- Node1&#45;&gt;Node5 -->
<g id="edge4_Node000001_Node000005" class="edge">
<title>Node1&#45;&gt;Node5</title>
<g id="a_edge4_Node000001_Node000005"><a xlink:title=" ">
<path fill="none" stroke="#63b8ff" d="M123.39,-63C135.8,-63 148.95,-63 161.66,-63"/>
<polygon fill="#63b8ff" stroke="#63b8ff" points="161.75,-66.5 171.75,-63 161.75,-59.5 161.75,-66.5"/>
</a>
</g>
</g>
<!-- Node7 -->
<g id="Node000007" class="node">
<title>Node7</title>
<g id="a_Node000007"><a xlink:href="structFResponseHealth.html#a5e3bb6eaa2611d482a0e95084415bcf8" target="_top" xlink:title=" ">
<polygon fill="white" stroke="#666666" points="308,-30 159,-30 159,0 308,0 308,-30"/>
<text text-anchor="start" x="167" y="-18" font-family="Malgun Gothic" font-size="10.00">FResponseHealth::SetFrom</text>
<text text-anchor="middle" x="233.5" y="-7" font-family="Malgun Gothic" font-size="10.00">HttpResponse</text>
</a>
</g>
</g>
<!-- Node1&#45;&gt;Node7 -->
<g id="edge6_Node000001_Node000007" class="edge">
<title>Node1&#45;&gt;Node7</title>
<g id="a_edge6_Node000001_Node000007"><a xlink:title=" ">
<path fill="none" stroke="#63b8ff" d="M115.82,-47.94C132.91,-43.12 151.99,-37.73 169.7,-32.73"/>
<polygon fill="#63b8ff" stroke="#63b8ff" points="170.69,-36.09 179.37,-30 168.79,-29.35 170.69,-36.09"/>
</a>
</g>
</g>
<!-- Node3 -->
<g id="Node000003" class="node">
<title>Node3</title>
<g id="a_Node000003"><a xlink:href="classUCustomNetworkSettings.html#aa089b67ac992ff3aee3dd62629c0df0a" target="_top" xlink:title=" ">
<polygon fill="white" stroke="#666666" points="487,-164 344,-164 344,-134 487,-134 487,-164"/>
<text text-anchor="start" x="352" y="-152" font-family="Malgun Gothic" font-size="10.00">UCustomNetworkSettings</text>
<text text-anchor="middle" x="415.5" y="-141" font-family="Malgun Gothic" font-size="10.00">::GetCurrentServerMode</text>
</a>
</g>
</g>
<!-- Node2&#45;&gt;Node3 -->
<g id="edge2_Node000002_Node000003" class="edge">
<title>Node2&#45;&gt;Node3</title>
<g id="a_edge2_Node000002_Node000003"><a xlink:title=" ">
<path fill="none" stroke="#63b8ff" d="M274.45,-115.54C294.3,-120.28 318.9,-126.16 341.93,-131.66"/>
<polygon fill="#63b8ff" stroke="#63b8ff" points="341.14,-135.07 351.68,-133.99 342.77,-128.27 341.14,-135.07"/>
</a>
</g>
</g>
<!-- Node4 -->
<g id="Node000004" class="node">
<title>Node4</title>
<g id="a_Node000004"><a xlink:href="structFServerConfig.html#ab65e0b73b4679e5efb155dd6f98bac3d" target="_top" xlink:title=" ">
<polygon fill="white" stroke="#666666" points="485,-115.5 346,-115.5 346,-96.5 485,-96.5 485,-115.5"/>
<text text-anchor="middle" x="415.5" y="-103.5" font-family="Malgun Gothic" font-size="10.00">FServerConfig::GetFullUrl</text>
</a>
</g>
</g>
<!-- Node2&#45;&gt;Node4 -->
<g id="edge3_Node000002_Node000004" class="edge">
<title>Node2&#45;&gt;Node4</title>
<g id="a_edge3_Node000002_Node000004"><a xlink:title=" ">
<path fill="none" stroke="#63b8ff" d="M305.12,-106C315.17,-106 325.55,-106 335.74,-106"/>
<polygon fill="#63b8ff" stroke="#63b8ff" points="335.85,-109.5 345.85,-106 335.85,-102.5 335.85,-109.5"/>
</a>
</g>
</g>
<!-- Node6 -->
<g id="Node000006" class="node">
<title>Node6</title>
<g id="a_Node000006"><a xlink:href="classUHttpNetworkSystem.html#ac1921af11a0ab9c5c5f0099d732076a3" target="_top" xlink:title=" ">
<polygon fill="white" stroke="#666666" points="477,-78 354,-78 354,-48 477,-48 477,-78"/>
<text text-anchor="start" x="362" y="-66" font-family="Malgun Gothic" font-size="10.00">UHttpNetworkSystem</text>
<text text-anchor="middle" x="415.5" y="-55" font-family="Malgun Gothic" font-size="10.00">::GetLogPrefix</text>
</a>
</g>
</g>
<!-- Node5&#45;&gt;Node6 -->
<g id="edge5_Node000005_Node000006" class="edge">
<title>Node5&#45;&gt;Node6</title>
<g id="a_edge5_Node000005_Node000006"><a xlink:title=" ">
<path fill="none" stroke="#63b8ff" d="M295.19,-63C310.68,-63 327.47,-63 343.42,-63"/>
<polygon fill="#63b8ff" stroke="#63b8ff" points="343.77,-66.5 353.77,-63 343.77,-59.5 343.77,-66.5"/>
</a>
</g>
</g>
</g>
</svg>
