<?xml version="1.0" encoding="UTF-8" standalone="no"?>
<!DOCTYPE svg PUBLIC "-//W3C//DTD SVG 1.1//EN"
 "http://www.w3.org/Graphics/SVG/1.1/DTD/svg11.dtd">
<!-- Generated by graphviz version 2.43.0 (0)
 -->
<!-- Title: UYiSanVoiceConsoleSubsystem Pages: 1 -->
<svg width="172pt" height="172pt"
 viewBox="0.00 0.00 172.00 172.00" xmlns="http://www.w3.org/2000/svg" xmlns:xlink="http://www.w3.org/1999/xlink">
<g id="graph0" class="graph" transform="scale(1 1) rotate(0) translate(4 168)">
<title>UYiSanVoiceConsoleSubsystem</title>
<!-- Node1 -->
<g id="Node000001" class="node">
<title>Node1</title>
<g id="a_Node000001"><a xlink:title="Registers developer console commands for voice features (STT/TTS).">
<polygon fill="#999999" stroke="transparent" points="164,-79 0,-79 0,0 164,0 164,-79"/>
<text text-anchor="start" x="5" y="-66.5" font-family="Malgun Gothic" font-size="10.00">UYiSanVoiceConsoleSubsystem</text>
<text text-anchor="start" x="11.5" y="-51.5" font-family="Malgun Gothic" font-size="10.00">&#45;</text>
<text text-anchor="start" x="27" y="-51.5" font-family="Malgun Gothic" font-size="10.00">SpeakCommand</text>
<text text-anchor="start" x="9" y="-36.5" font-family="Malgun Gothic" font-size="10.00">+</text>
<text text-anchor="start" x="27" y="-36.5" font-family="Malgun Gothic" font-size="10.00">Deinitialize()</text>
<text text-anchor="start" x="9" y="-21.5" font-family="Malgun Gothic" font-size="10.00">+</text>
<text text-anchor="start" x="27" y="-21.5" font-family="Malgun Gothic" font-size="10.00">Initialize()</text>
<text text-anchor="start" x="11.5" y="-6.5" font-family="Malgun Gothic" font-size="10.00">&#45;</text>
<text text-anchor="start" x="27" y="-6.5" font-family="Malgun Gothic" font-size="10.00">HandleSpeakCommand()</text>
<polygon fill="#666666" stroke="#666666" points="0,-61.5 0,-61.5 164,-61.5 164,-61.5 0,-61.5"/>
<polygon fill="#666666" stroke="#666666" points="0,-46.5 0,-46.5 25,-46.5 25,-46.5 0,-46.5"/>
<polygon fill="#666666" stroke="#666666" points="25,-46.5 25,-46.5 164,-46.5 164,-46.5 25,-46.5"/>
<polygon fill="none" stroke="#666666" points="0,0 0,-79 164,-79 164,0 0,0"/>
</a>
</g>
</g>
<!-- Node2 -->
<g id="Node000002" class="node">
<title>Node2</title>
<g id="a_Node000002"><a xlink:title=" ">
<polygon fill="white" stroke="transparent" points="153.5,-164 10.5,-164 10.5,-115 153.5,-115 153.5,-164"/>
<text text-anchor="start" x="16" y="-151.5" font-family="Malgun Gothic" font-size="10.00">UGameInstanceSubsystem</text>
<text text-anchor="start" x="80.5" y="-136.5" font-family="Malgun Gothic" font-size="10.00"> </text>
<text text-anchor="start" x="80.5" y="-121.5" font-family="Malgun Gothic" font-size="10.00"> </text>
<polygon fill="#666666" stroke="#666666" points="11,-146.5 11,-146.5 154,-146.5 154,-146.5 11,-146.5"/>
<polygon fill="#666666" stroke="#666666" points="11,-131.5 11,-131.5 154,-131.5 154,-131.5 11,-131.5"/>
<polygon fill="none" stroke="#666666" points="10.5,-115 10.5,-164 153.5,-164 153.5,-115 10.5,-115"/>
</a>
</g>
</g>
<!-- Node2&#45;&gt;Node1 -->
<g id="edge1_Node000001_Node000002" class="edge">
<title>Node2&#45;&gt;Node1</title>
<g id="a_edge1_Node000001_Node000002"><a xlink:title=" ">
<path fill="none" stroke="#63b8ff" d="M82,-104.52C82,-96.38 82,-87.63 82,-79.29"/>
<polygon fill="none" stroke="#63b8ff" points="78.5,-104.78 82,-114.78 85.5,-104.78 78.5,-104.78"/>
</a>
</g>
</g>
</g>
</svg>
