<?xml version="1.0" encoding="UTF-8" standalone="no"?>
<!DOCTYPE svg PUBLIC "-//W3C//DTD SVG 1.1//EN"
 "http://www.w3.org/Graphics/SVG/1.1/DTD/svg11.dtd">
<!-- Generated by graphviz version 2.43.0 (0)
 -->
<!-- Title: UGoogleSpeechService Pages: 1 -->
<svg width="316pt" height="468pt"
 viewBox="0.00 0.00 316.00 468.00" xmlns="http://www.w3.org/2000/svg" xmlns:xlink="http://www.w3.org/1999/xlink">
<g id="graph0" class="graph" transform="scale(1 1) rotate(0) translate(4 464)">
<title>UGoogleSpeechService</title>
<!-- Node1 -->
<g id="Node000001" class="node">
<title>Node1</title>
<g id="a_Node000001"><a xlink:title="Thin Google Speech (STT/TTS) client.">
<polygon fill="#999999" stroke="transparent" points="241,-274 64,-274 64,0 241,0 241,-274"/>
<text text-anchor="start" x="96" y="-262" font-family="Malgun Gothic" font-size="10.00">UGoogleSpeechService</text>
<text text-anchor="start" x="71" y="-247" font-family="Malgun Gothic" font-size="10.00">&#45;</text>
<text text-anchor="start" x="81.5" y="-247" font-family="Malgun Gothic" font-size="10.00">ApiKey</text>
<text text-anchor="start" x="71" y="-232" font-family="Malgun Gothic" font-size="10.00">&#45;</text>
<text text-anchor="start" x="81.5" y="-232" font-family="Malgun Gothic" font-size="10.00">AudioEncoding</text>
<text text-anchor="start" x="71" y="-217" font-family="Malgun Gothic" font-size="10.00">&#45;</text>
<text text-anchor="start" x="81.5" y="-217" font-family="Malgun Gothic" font-size="10.00">DefaultSpeechSampleRate</text>
<text text-anchor="start" x="71" y="-202" font-family="Malgun Gothic" font-size="10.00">&#45;</text>
<text text-anchor="start" x="81.5" y="-202" font-family="Malgun Gothic" font-size="10.00">DefaultTtsSampleRate</text>
<text text-anchor="start" x="71" y="-187" font-family="Malgun Gothic" font-size="10.00">&#45;</text>
<text text-anchor="start" x="81.5" y="-187" font-family="Malgun Gothic" font-size="10.00">LanguageCode</text>
<text text-anchor="start" x="71" y="-172" font-family="Malgun Gothic" font-size="10.00">&#45;</text>
<text text-anchor="start" x="81.5" y="-172" font-family="Malgun Gothic" font-size="10.00">PendingSpeechToText</text>
<text text-anchor="start" x="71" y="-157" font-family="Malgun Gothic" font-size="10.00">&#45;</text>
<text text-anchor="start" x="81.5" y="-157" font-family="Malgun Gothic" font-size="10.00">PendingTextToSpeech</text>
<text text-anchor="start" x="71" y="-142" font-family="Malgun Gothic" font-size="10.00">&#45;</text>
<text text-anchor="start" x="81.5" y="-142" font-family="Malgun Gothic" font-size="10.00">VoiceGender</text>
<text text-anchor="start" x="71" y="-127" font-family="Malgun Gothic" font-size="10.00">&#45;</text>
<text text-anchor="start" x="81.5" y="-127" font-family="Malgun Gothic" font-size="10.00">VoiceName</text>
<text text-anchor="start" x="68.5" y="-112" font-family="Malgun Gothic" font-size="10.00">+</text>
<text text-anchor="start" x="81.5" y="-112" font-family="Malgun Gothic" font-size="10.00">Initialize()</text>
<text text-anchor="start" x="68.5" y="-97" font-family="Malgun Gothic" font-size="10.00">+</text>
<text text-anchor="start" x="81.5" y="-97" font-family="Malgun Gothic" font-size="10.00">RequestSpeechToText()</text>
<text text-anchor="start" x="68.5" y="-82" font-family="Malgun Gothic" font-size="10.00">+</text>
<text text-anchor="start" x="81.5" y="-82" font-family="Malgun Gothic" font-size="10.00">RequestTextToSpeech()</text>
<text text-anchor="start" x="68.5" y="-67" font-family="Malgun Gothic" font-size="10.00">+</text>
<text text-anchor="start" x="81.5" y="-67" font-family="Malgun Gothic" font-size="10.00">Get()</text>
<text text-anchor="start" x="71" y="-52" font-family="Malgun Gothic" font-size="10.00">&#45;</text>
<text text-anchor="start" x="81.5" y="-52" font-family="Malgun Gothic" font-size="10.00">BuildSpeechToTextUrl()</text>
<text text-anchor="start" x="71" y="-37" font-family="Malgun Gothic" font-size="10.00">&#45;</text>
<text text-anchor="start" x="81.5" y="-37" font-family="Malgun Gothic" font-size="10.00">BuildTextToSpeechUrl()</text>
<text text-anchor="start" x="71" y="-22" font-family="Malgun Gothic" font-size="10.00">&#45;</text>
<text text-anchor="start" x="81.5" y="-22" font-family="Malgun Gothic" font-size="10.00">HandleSpeechToTextResponse()</text>
<text text-anchor="start" x="71" y="-7" font-family="Malgun Gothic" font-size="10.00">&#45;</text>
<text text-anchor="start" x="81.5" y="-7" font-family="Malgun Gothic" font-size="10.00">HandleTextToSpeechResponse()</text>
<polygon fill="#666666" stroke="#666666" points="64.5,-257 64.5,-257 241.5,-257 241.5,-257 64.5,-257"/>
<polygon fill="#666666" stroke="#666666" points="64.5,-122 64.5,-122 79.5,-122 79.5,-122 64.5,-122"/>
<polygon fill="#666666" stroke="#666666" points="79.5,-122 79.5,-122 241.5,-122 241.5,-122 79.5,-122"/>
<polygon fill="none" stroke="#666666" points="64,0 64,-274 241,-274 241,0 64,0"/>
</a>
</g>
</g>
<!-- Node2 -->
<g id="Node000002" class="node">
<title>Node2</title>
<g id="a_Node000002"><a xlink:title=" ">
<polygon fill="white" stroke="transparent" points="143,-415 0,-415 0,-366 143,-366 143,-415"/>
<text text-anchor="start" x="5.5" y="-402.5" font-family="Malgun Gothic" font-size="10.00">UGameInstanceSubsystem</text>
<text text-anchor="start" x="70" y="-387.5" font-family="Malgun Gothic" font-size="10.00"> </text>
<text text-anchor="start" x="70" y="-372.5" font-family="Malgun Gothic" font-size="10.00"> </text>
<polygon fill="#666666" stroke="#666666" points="0.5,-397.5 0.5,-397.5 143.5,-397.5 143.5,-397.5 0.5,-397.5"/>
<polygon fill="#666666" stroke="#666666" points="0.5,-382.5 0.5,-382.5 143.5,-382.5 143.5,-382.5 0.5,-382.5"/>
<polygon fill="none" stroke="#666666" points="0,-366 0,-415 143,-415 143,-366 0,-366"/>
</a>
</g>
</g>
<!-- Node2&#45;&gt;Node1 -->
<g id="edge1_Node000001_Node000002" class="edge">
<title>Node2&#45;&gt;Node1</title>
<g id="a_edge1_Node000001_Node000002"><a xlink:title=" ">
<path fill="none" stroke="#63b8ff" d="M82.22,-356.22C89.18,-334.61 98.76,-304.87 108.61,-274.29"/>
<polygon fill="none" stroke="#63b8ff" points="78.85,-355.25 79.12,-365.84 85.52,-357.39 78.85,-355.25"/>
</a>
</g>
</g>
<!-- Node3 -->
<g id="Node000003" class="node">
<title>Node3</title>
<g id="a_Node000003"><a xlink:href="structFVoiceConfig.html" target="_top" xlink:title=" ">
<polygon fill="white" stroke="transparent" points="308,-460 161,-460 161,-321 308,-321 308,-460"/>
<text text-anchor="start" x="203" y="-447.5" font-family="Malgun Gothic" font-size="10.00">FVoiceConfig</text>
<text text-anchor="start" x="165.5" y="-432.5" font-family="Malgun Gothic" font-size="10.00">+</text>
<text text-anchor="start" x="178.5" y="-432.5" font-family="Malgun Gothic" font-size="10.00">ApiKey</text>
<text text-anchor="start" x="165.5" y="-417.5" font-family="Malgun Gothic" font-size="10.00">+</text>
<text text-anchor="start" x="178.5" y="-417.5" font-family="Malgun Gothic" font-size="10.00">AudioEncoding</text>
<text text-anchor="start" x="165.5" y="-402.5" font-family="Malgun Gothic" font-size="10.00">+</text>
<text text-anchor="start" x="178.5" y="-402.5" font-family="Malgun Gothic" font-size="10.00">LanguageCode</text>
<text text-anchor="start" x="165.5" y="-387.5" font-family="Malgun Gothic" font-size="10.00">+</text>
<text text-anchor="start" x="178.5" y="-387.5" font-family="Malgun Gothic" font-size="10.00">SpeechSampleRate</text>
<text text-anchor="start" x="165.5" y="-372.5" font-family="Malgun Gothic" font-size="10.00">+</text>
<text text-anchor="start" x="178.5" y="-372.5" font-family="Malgun Gothic" font-size="10.00">TextToSpeechSampleRate</text>
<text text-anchor="start" x="165.5" y="-357.5" font-family="Malgun Gothic" font-size="10.00">+</text>
<text text-anchor="start" x="178.5" y="-357.5" font-family="Malgun Gothic" font-size="10.00">VoiceName</text>
<text text-anchor="start" x="165.5" y="-342.5" font-family="Malgun Gothic" font-size="10.00">+</text>
<text text-anchor="start" x="178.5" y="-342.5" font-family="Malgun Gothic" font-size="10.00">VoiceSsmlGender</text>
<text text-anchor="start" x="233" y="-327.5" font-family="Malgun Gothic" font-size="10.00"> </text>
<polygon fill="#666666" stroke="#666666" points="161.5,-442.5 161.5,-442.5 308.5,-442.5 308.5,-442.5 161.5,-442.5"/>
<polygon fill="#666666" stroke="#666666" points="161.5,-337.5 161.5,-337.5 176.5,-337.5 176.5,-337.5 161.5,-337.5"/>
<polygon fill="#666666" stroke="#666666" points="176.5,-337.5 176.5,-337.5 308.5,-337.5 308.5,-337.5 176.5,-337.5"/>
<polygon fill="none" stroke="#666666" points="161,-321 161,-460 308,-460 308,-321 161,-321"/>
</a>
</g>
</g>
<!-- Node3&#45;&gt;Node1 -->
<g id="edge2_Node000001_Node000003" class="edge">
<title>Node3&#45;&gt;Node1</title>
<g id="a_edge2_Node000001_Node000003"><a xlink:title=" ">
<path fill="none" stroke="#63b8ff" d="M212.09,-320.78C208.5,-309.76 204.66,-297.99 200.74,-285.95"/>
<polygon fill="none" stroke="#63b8ff" points="200.67,-285.74 195.01,-281.28 196.95,-274.33 202.61,-278.8 200.67,-285.74"/>
</a>
</g>
<text text-anchor="middle" x="229" y="-295" font-family="Malgun Gothic" font-size="10.00" fill="grey"> &#45;Settings</text>
</g>
</g>
</svg>
