<?xml version="1.0" encoding="UTF-8" standalone="no"?>
<!DOCTYPE svg PUBLIC "-//W3C//DTD SVG 1.1//EN"
 "http://www.w3.org/Graphics/SVG/1.1/DTD/svg11.dtd">
<!-- Generated by graphviz version 2.43.0 (0)
 -->
<!-- Title: UGameSoundManager Pages: 1 -->
<svg width="174pt" height="258pt"
 viewBox="0.00 0.00 174.00 258.00" xmlns="http://www.w3.org/2000/svg" xmlns:xlink="http://www.w3.org/1999/xlink">
<g id="graph0" class="graph" transform="scale(1 1) rotate(0) translate(4 254)">
<title>UGameSoundManager</title>
<!-- Node1 -->
<g id="Node000001" class="node">
<title>Node1</title>
<g id="a_Node000001"><a xlink:title=" ">
<polygon fill="#999999" stroke="transparent" points="166,-165 0,-165 0,0 166,0 166,-165"/>
<text text-anchor="start" x="28" y="-152.5" font-family="Malgun Gothic" font-size="10.00">UGameSoundManager</text>
<text text-anchor="start" x="6.5" y="-137.5" font-family="Malgun Gothic" font-size="10.00">&#45;</text>
<text text-anchor="start" x="17" y="-137.5" font-family="Malgun Gothic" font-size="10.00">ActiveSounds</text>
<text text-anchor="start" x="6.5" y="-122.5" font-family="Malgun Gothic" font-size="10.00">&#45;</text>
<text text-anchor="start" x="17" y="-122.5" font-family="Malgun Gothic" font-size="10.00">SoundAsset</text>
<text text-anchor="start" x="6.5" y="-107.5" font-family="Malgun Gothic" font-size="10.00">&#45;</text>
<text text-anchor="start" x="17" y="-107.5" font-family="Malgun Gothic" font-size="10.00">SoundData</text>
<text text-anchor="start" x="4" y="-92.5" font-family="Malgun Gothic" font-size="10.00">+</text>
<text text-anchor="start" x="17" y="-92.5" font-family="Malgun Gothic" font-size="10.00">UGameSoundManager()</text>
<text text-anchor="start" x="4" y="-77.5" font-family="Malgun Gothic" font-size="10.00">+</text>
<text text-anchor="start" x="17" y="-77.5" font-family="Malgun Gothic" font-size="10.00">DEFINE_SUBSYSTEM_GETTER</text>
<text text-anchor="start" x="17" y="-66.5" font-family="Malgun Gothic" font-size="10.00">_INLINE()</text>
<text text-anchor="start" x="4" y="-51.5" font-family="Malgun Gothic" font-size="10.00">+</text>
<text text-anchor="start" x="17" y="-51.5" font-family="Malgun Gothic" font-size="10.00">Initialize()</text>
<text text-anchor="start" x="4" y="-36.5" font-family="Malgun Gothic" font-size="10.00">+</text>
<text text-anchor="start" x="17" y="-36.5" font-family="Malgun Gothic" font-size="10.00">PlaySound()</text>
<text text-anchor="start" x="4" y="-21.5" font-family="Malgun Gothic" font-size="10.00">+</text>
<text text-anchor="start" x="17" y="-21.5" font-family="Malgun Gothic" font-size="10.00">PlaySound2D()</text>
<text text-anchor="start" x="4" y="-6.5" font-family="Malgun Gothic" font-size="10.00">+</text>
<text text-anchor="start" x="17" y="-6.5" font-family="Malgun Gothic" font-size="10.00">StopSound2D()</text>
<polygon fill="#666666" stroke="#666666" points="0,-147.5 0,-147.5 166,-147.5 166,-147.5 0,-147.5"/>
<polygon fill="#666666" stroke="#666666" points="0,-102.5 0,-102.5 15,-102.5 15,-102.5 0,-102.5"/>
<polygon fill="#666666" stroke="#666666" points="15,-102.5 15,-102.5 166,-102.5 166,-102.5 15,-102.5"/>
<polygon fill="none" stroke="#666666" points="0,0 0,-165 166,-165 166,0 0,0"/>
</a>
</g>
</g>
<!-- Node2 -->
<g id="Node000002" class="node">
<title>Node2</title>
<g id="a_Node000002"><a xlink:title=" ">
<polygon fill="white" stroke="transparent" points="154.5,-250 11.5,-250 11.5,-201 154.5,-201 154.5,-250"/>
<text text-anchor="start" x="17" y="-237.5" font-family="Malgun Gothic" font-size="10.00">UGameInstanceSubsystem</text>
<text text-anchor="start" x="81.5" y="-222.5" font-family="Malgun Gothic" font-size="10.00"> </text>
<text text-anchor="start" x="81.5" y="-207.5" font-family="Malgun Gothic" font-size="10.00"> </text>
<polygon fill="#666666" stroke="#666666" points="12,-232.5 12,-232.5 155,-232.5 155,-232.5 12,-232.5"/>
<polygon fill="#666666" stroke="#666666" points="12,-217.5 12,-217.5 155,-217.5 155,-217.5 12,-217.5"/>
<polygon fill="none" stroke="#666666" points="11.5,-201 11.5,-250 154.5,-250 154.5,-201 11.5,-201"/>
</a>
</g>
</g>
<!-- Node2&#45;&gt;Node1 -->
<g id="edge1_Node000001_Node000002" class="edge">
<title>Node2&#45;&gt;Node1</title>
<g id="a_edge1_Node000001_Node000002"><a xlink:title=" ">
<path fill="none" stroke="#63b8ff" d="M83,-190.7C83,-182.79 83,-174.03 83,-165.02"/>
<polygon fill="none" stroke="#63b8ff" points="79.5,-190.9 83,-200.9 86.5,-190.9 79.5,-190.9"/>
</a>
</g>
</g>
</g>
</svg>
