<?xml version="1.0" encoding="UTF-8" standalone="no"?>
<!DOCTYPE svg PUBLIC "-//W3C//DTD SVG 1.1//EN"
 "http://www.w3.org/Graphics/SVG/1.1/DTD/svg11.dtd">
<!-- Generated by graphviz version 2.43.0 (0)
 -->
<!-- Title: AGameCharacter::OnMontageNotifyBegin Pages: 1 -->
<svg width="606pt" height="86pt"
 viewBox="0.00 0.00 606.00 86.00" xmlns="http://www.w3.org/2000/svg" xmlns:xlink="http://www.w3.org/1999/xlink">
<g id="graph0" class="graph" transform="scale(1 1) rotate(0) translate(4 82)">
<title>AGameCharacter::OnMontageNotifyBegin</title>
<!-- Node1 -->
<g id="Node000001" class="node">
<title>Node1</title>
<g id="a_Node000001"><a xlink:title="몽타주 노티파이 시작 시 호출되는 콜백입니다.">
<polygon fill="#999999" stroke="#666666" points="598,-54 436,-54 436,-24 598,-24 598,-54"/>
<text text-anchor="start" x="444" y="-42" font-family="Malgun Gothic" font-size="10.00">AGameCharacter::OnMontage</text>
<text text-anchor="middle" x="517" y="-31" font-family="Malgun Gothic" font-size="10.00">NotifyBegin</text>
</a>
</g>
</g>
<!-- Node2 -->
<g id="Node000002" class="node">
<title>Node2</title>
<g id="a_Node000002"><a xlink:href="classAGameCharacter.html#a1758a3c8506ae6cab77731a1890dc00d" target="_top" xlink:title="몽타주 알림 처리 델리게이트를 바인딩합니다.">
<polygon fill="white" stroke="#666666" points="393.5,-78 223.5,-78 223.5,-48 393.5,-48 393.5,-78"/>
<text text-anchor="start" x="231.5" y="-66" font-family="Malgun Gothic" font-size="10.00">AGameCharacter::BindMontage</text>
<text text-anchor="middle" x="308.5" y="-55" font-family="Malgun Gothic" font-size="10.00">Delegates</text>
</a>
</g>
</g>
<!-- Node1&#45;&gt;Node2 -->
<g id="edge1_Node000001_Node000002" class="edge">
<title>Node1&#45;&gt;Node2</title>
<g id="a_edge1_Node000001_Node000002"><a xlink:title=" ">
<path fill="none" stroke="#63b8ff" d="M425.73,-49.49C415.08,-50.73 404.25,-51.99 393.69,-53.22"/>
<polygon fill="#63b8ff" stroke="#63b8ff" points="426.34,-52.94 435.87,-48.31 425.53,-45.99 426.34,-52.94"/>
</a>
</g>
</g>
<!-- Node4 -->
<g id="Node000004" class="node">
<title>Node4</title>
<g id="a_Node000004"><a xlink:href="classAGameCharacter.html#a4d6fa9eb1445927b3e92a4e07ffbd0e3" target="_top" xlink:title="몽타주 알림 델리게이트 연결을 해제합니다.">
<polygon fill="white" stroke="#666666" points="400,-30 217,-30 217,0 400,0 400,-30"/>
<text text-anchor="start" x="225" y="-18" font-family="Malgun Gothic" font-size="10.00">AGameCharacter::UnbindMontage</text>
<text text-anchor="middle" x="308.5" y="-7" font-family="Malgun Gothic" font-size="10.00">Delegates</text>
</a>
</g>
</g>
<!-- Node1&#45;&gt;Node4 -->
<g id="edge3_Node000001_Node000004" class="edge">
<title>Node1&#45;&gt;Node4</title>
<g id="a_edge3_Node000001_Node000004"><a xlink:title=" ">
<path fill="none" stroke="#63b8ff" d="M425.93,-28.53C417.4,-27.54 408.76,-26.54 400.23,-25.54"/>
<polygon fill="#63b8ff" stroke="#63b8ff" points="425.53,-32.01 435.87,-29.69 426.34,-25.06 425.53,-32.01"/>
</a>
</g>
</g>
<!-- Node3 -->
<g id="Node000003" class="node">
<title>Node3</title>
<g id="a_Node000003"><a xlink:href="classAGameCharacter.html#ac1b16c52de76390cf656959518d1d795" target="_top" xlink:title=" ">
<polygon fill="white" stroke="#666666" points="181,-78 0,-78 0,-48 181,-48 181,-78"/>
<text text-anchor="start" x="8" y="-66" font-family="Malgun Gothic" font-size="10.00">AGameCharacter::SetupCharacter</text>
<text text-anchor="middle" x="90.5" y="-55" font-family="Malgun Gothic" font-size="10.00">FromType</text>
</a>
</g>
</g>
<!-- Node2&#45;&gt;Node3 -->
<g id="edge2_Node000002_Node000003" class="edge">
<title>Node2&#45;&gt;Node3</title>
<g id="a_edge2_Node000002_Node000003"><a xlink:title=" ">
<path fill="none" stroke="#63b8ff" d="M213.22,-63C202.56,-63 191.71,-63 181.11,-63"/>
<polygon fill="#63b8ff" stroke="#63b8ff" points="213.37,-66.5 223.37,-63 213.37,-59.5 213.37,-66.5"/>
</a>
</g>
</g>
<!-- Node5 -->
<g id="Node000005" class="node">
<title>Node5</title>
<g id="a_Node000005"><a xlink:href="classAGameCharacter.html#a843e2c23cabd6a5b956ae4f7178276b0" target="_top" xlink:title="플레이 종료 시 리소스를 해제합니다.">
<polygon fill="white" stroke="#666666" points="163,-24.5 18,-24.5 18,-5.5 163,-5.5 163,-24.5"/>
<text text-anchor="middle" x="90.5" y="-12.5" font-family="Malgun Gothic" font-size="10.00">AGameCharacter::EndPlay</text>
</a>
</g>
</g>
<!-- Node4&#45;&gt;Node5 -->
<g id="edge4_Node000004_Node000005" class="edge">
<title>Node4&#45;&gt;Node5</title>
<g id="a_edge4_Node000004_Node000005"><a xlink:title=" ">
<path fill="none" stroke="#63b8ff" d="M206.71,-15C192.03,-15 177.18,-15 163.23,-15"/>
<polygon fill="#63b8ff" stroke="#63b8ff" points="206.84,-18.5 216.84,-15 206.84,-11.5 206.84,-18.5"/>
</a>
</g>
</g>
</g>
</svg>
