<?xml version="1.0" encoding="UTF-8" standalone="no"?>
<!DOCTYPE svg PUBLIC "-//W3C//DTD SVG 1.1//EN"
 "http://www.w3.org/Graphics/SVG/1.1/DTD/svg11.dtd">
<!-- Generated by graphviz version 2.43.0 (0)
 -->
<!-- Title: ANetworkTesterActor Pages: 1 -->
<svg width="143pt" height="217pt"
 viewBox="0.00 0.00 143.00 217.00" xmlns="http://www.w3.org/2000/svg" xmlns:xlink="http://www.w3.org/1999/xlink">
<g id="graph0" class="graph" transform="scale(1 1) rotate(0) translate(4 213)">
<title>ANetworkTesterActor</title>
<!-- Node1 -->
<g id="Node000001" class="node">
<title>Node1</title>
<g id="a_Node000001"><a xlink:title=" ">
<polygon fill="#999999" stroke="transparent" points="135,-124 0,-124 0,0 135,0 135,-124"/>
<text text-anchor="start" x="16.5" y="-112" font-family="Malgun Gothic" font-size="10.00">ANetworkTesterActor</text>
<text text-anchor="start" x="66" y="-97" font-family="Malgun Gothic" font-size="10.00"> </text>
<text text-anchor="start" x="4.5" y="-82" font-family="Malgun Gothic" font-size="10.00">+</text>
<text text-anchor="start" x="17.5" y="-82" font-family="Malgun Gothic" font-size="10.00">ANetworkTesterActor()</text>
<text text-anchor="start" x="4.5" y="-67" font-family="Malgun Gothic" font-size="10.00">#</text>
<text text-anchor="start" x="17.5" y="-67" font-family="Malgun Gothic" font-size="10.00">BP_RequestHelpChat()</text>
<text text-anchor="start" x="4.5" y="-52" font-family="Malgun Gothic" font-size="10.00">#</text>
<text text-anchor="start" x="17.5" y="-52" font-family="Malgun Gothic" font-size="10.00">OnResponseHealth()</text>
<text text-anchor="start" x="4.5" y="-37" font-family="Malgun Gothic" font-size="10.00">#</text>
<text text-anchor="start" x="17.5" y="-37" font-family="Malgun Gothic" font-size="10.00">OnResponseHelpChat()</text>
<text text-anchor="start" x="4.5" y="-22" font-family="Malgun Gothic" font-size="10.00">#</text>
<text text-anchor="start" x="17.5" y="-22" font-family="Malgun Gothic" font-size="10.00">RequestHealth()</text>
<text text-anchor="start" x="4.5" y="-7" font-family="Malgun Gothic" font-size="10.00">#</text>
<text text-anchor="start" x="17.5" y="-7" font-family="Malgun Gothic" font-size="10.00">RequestHelpChat()</text>
<polygon fill="#666666" stroke="#666666" points="0.5,-107 0.5,-107 135.5,-107 135.5,-107 0.5,-107"/>
<polygon fill="#666666" stroke="#666666" points="0.5,-92 0.5,-92 135.5,-92 135.5,-92 0.5,-92"/>
<polygon fill="none" stroke="#666666" points="0,0 0,-124 135,-124 135,0 0,0"/>
</a>
</g>
</g>
<!-- Node2 -->
<g id="Node000002" class="node">
<title>Node2</title>
<g id="a_Node000002"><a xlink:title=" ">
<polygon fill="white" stroke="transparent" points="89,-209 46,-209 46,-160 89,-160 89,-209"/>
<text text-anchor="start" x="51.5" y="-196.5" font-family="Malgun Gothic" font-size="10.00">AActor</text>
<text text-anchor="start" x="66" y="-181.5" font-family="Malgun Gothic" font-size="10.00"> </text>
<text text-anchor="start" x="66" y="-166.5" font-family="Malgun Gothic" font-size="10.00"> </text>
<polygon fill="#666666" stroke="#666666" points="46.5,-191.5 46.5,-191.5 89.5,-191.5 89.5,-191.5 46.5,-191.5"/>
<polygon fill="#666666" stroke="#666666" points="46.5,-176.5 46.5,-176.5 89.5,-176.5 89.5,-176.5 46.5,-176.5"/>
<polygon fill="none" stroke="#666666" points="46,-160 46,-209 89,-209 89,-160 46,-160"/>
</a>
</g>
</g>
<!-- Node2&#45;&gt;Node1 -->
<g id="edge1_Node000001_Node000002" class="edge">
<title>Node2&#45;&gt;Node1</title>
<g id="a_edge1_Node000001_Node000002"><a xlink:title=" ">
<path fill="none" stroke="#63b8ff" d="M67.5,-149.94C67.5,-141.91 67.5,-133.08 67.5,-124.23"/>
<polygon fill="none" stroke="#63b8ff" points="64,-149.98 67.5,-159.98 71,-149.98 64,-149.98"/>
</a>
</g>
</g>
</g>
</svg>
