<?xml version="1.0" encoding="UTF-8" standalone="no"?>
<!DOCTYPE svg PUBLIC "-//W3C//DTD SVG 1.1//EN"
 "http://www.w3.org/Graphics/SVG/1.1/DTD/svg11.dtd">
<!-- Generated by graphviz version 2.43.0 (0)
 -->
<!-- Title: AGate::OnOverlapBegin Pages: 1 -->
<svg width="502pt" height="64pt"
 viewBox="0.00 0.00 502.00 64.00" xmlns="http://www.w3.org/2000/svg" xmlns:xlink="http://www.w3.org/1999/xlink">
<g id="graph0" class="graph" transform="scale(1 1) rotate(0) translate(4 60)">
<title>AGate::OnOverlapBegin</title>
<!-- Node1 -->
<g id="Node000001" class="node">
<title>Node1</title>
<g id="a_Node000001"><a xlink:title=" ">
<polygon fill="#999999" stroke="#666666" points="132,-37 0,-37 0,-18 132,-18 132,-37"/>
<text text-anchor="middle" x="66" y="-25" font-family="Malgun Gothic" font-size="10.00">AGate::OnOverlapBegin</text>
</a>
</g>
</g>
<!-- Node2 -->
<g id="Node000002" class="node">
<title>Node2</title>
<g id="a_Node000002"><a xlink:href="classAGate.html#a0aac26a835f62650db64de1cb0e691f2" target="_top" xlink:title=" ">
<polygon fill="white" stroke="#666666" points="285,-56 168,-56 168,-37 285,-37 285,-56"/>
<text text-anchor="middle" x="226.5" y="-44" font-family="Malgun Gothic" font-size="10.00">AGate::IsPlayerActor</text>
</a>
</g>
</g>
<!-- Node1&#45;&gt;Node2 -->
<g id="edge1_Node000001_Node000002" class="edge">
<title>Node1&#45;&gt;Node2</title>
<g id="a_edge1_Node000001_Node000002"><a xlink:title=" ">
<path fill="none" stroke="#63b8ff" d="M132.38,-35.34C140.75,-36.34 149.33,-37.37 157.73,-38.38"/>
<polygon fill="#63b8ff" stroke="#63b8ff" points="157.52,-41.88 167.87,-39.59 158.36,-34.93 157.52,-41.88"/>
</a>
</g>
</g>
<!-- Node3 -->
<g id="Node000003" class="node">
<title>Node3</title>
<g id="a_Node000003"><a xlink:href="classAGate.html#a4dd94b3647126dcfce64c972ebb8667f" target="_top" xlink:title=" ">
<polygon fill="white" stroke="#666666" points="277,-19 176,-19 176,0 277,0 277,-19"/>
<text text-anchor="middle" x="226.5" y="-7" font-family="Malgun Gothic" font-size="10.00">AGate::OpenDoor</text>
</a>
</g>
</g>
<!-- Node1&#45;&gt;Node3 -->
<g id="edge2_Node000001_Node000003" class="edge">
<title>Node1&#45;&gt;Node3</title>
<g id="a_edge2_Node000001_Node000003"><a xlink:title=" ">
<path fill="none" stroke="#63b8ff" d="M132.38,-20.07C143.37,-18.83 154.72,-17.54 165.56,-16.31"/>
<polygon fill="#63b8ff" stroke="#63b8ff" points="166.23,-19.75 175.77,-15.15 165.44,-12.8 166.23,-19.75"/>
</a>
</g>
</g>
<!-- Node4 -->
<g id="Node000004" class="node">
<title>Node4</title>
<g id="a_Node000004"><a xlink:href="classAGate.html#a77115a1ffec989893fe6f5887fdf87a2" target="_top" xlink:title=" ">
<polygon fill="white" stroke="#666666" points="494,-19 321,-19 321,0 494,0 494,-19"/>
<text text-anchor="middle" x="407.5" y="-7" font-family="Malgun Gothic" font-size="10.00">AGate::PlayOpenDoorAnimation</text>
</a>
</g>
</g>
<!-- Node3&#45;&gt;Node4 -->
<g id="edge3_Node000003_Node000004" class="edge">
<title>Node3&#45;&gt;Node4</title>
<g id="a_edge3_Node000003_Node000004"><a xlink:title=" ">
<path fill="none" stroke="#63b8ff" d="M277.36,-9.5C287.84,-9.5 299.23,-9.5 310.76,-9.5"/>
<polygon fill="#63b8ff" stroke="#63b8ff" points="310.91,-13 320.91,-9.5 310.91,-6 310.91,-13"/>
</a>
</g>
</g>
</g>
</svg>
