<?xml version="1.0" encoding="UTF-8" standalone="no"?>
<!DOCTYPE svg PUBLIC "-//W3C//DTD SVG 1.1//EN"
 "http://www.w3.org/Graphics/SVG/1.1/DTD/svg11.dtd">
<!-- Generated by graphviz version 2.43.0 (0)
 -->
<!-- Title: UWebSocketSystem Pages: 1 -->
<svg width="177pt" height="378pt"
 viewBox="0.00 0.00 177.00 378.00" xmlns="http://www.w3.org/2000/svg" xmlns:xlink="http://www.w3.org/1999/xlink">

<svg id="main" version="1.1" xmlns="http://www.w3.org/2000/svg" xmlns:xlink="http://www.w3.org/1999/xlink" xml:space="preserve" onload="init(evt)">
<style type="text/css"><![CDATA[
.node, .edge {opacity: 0.7;}
.node.selected, .edge.selected {opacity: 1;}
.edge:hover path { stroke: red; }
.edge:hover polygon { stroke: red; fill: red; }
]]></style>
<script type="application/ecmascript" xlink:href="svg.min.js"/>
<svg id="graph" class="graph">
<g id="graph0" class="graph" transform="scale(1 1) rotate(0) translate(4 374)">
<title>UWebSocketSystem</title>
<!-- Node1 -->
<g id="Node000001" class="node">
<title>Node1</title>
<g id="a_Node000001"><a xlink:title=" ">
<polygon fill="#999999" stroke="transparent" points="169,-285 0,-285 0,0 169,0 169,-285"/>
<text text-anchor="start" x="36" y="-272.5" font-family="Malgun Gothic" font-size="10.00">UWebSocketSystem</text>
<text text-anchor="start" x="4.5" y="-257.5" font-family="Malgun Gothic" font-size="10.00">+</text>
<text text-anchor="start" x="17.5" y="-257.5" font-family="Malgun Gothic" font-size="10.00">OnClosed</text>
<text text-anchor="start" x="4.5" y="-242.5" font-family="Malgun Gothic" font-size="10.00">+</text>
<text text-anchor="start" x="17.5" y="-242.5" font-family="Malgun Gothic" font-size="10.00">OnConnected</text>
<text text-anchor="start" x="4.5" y="-227.5" font-family="Malgun Gothic" font-size="10.00">+</text>
<text text-anchor="start" x="17.5" y="-227.5" font-family="Malgun Gothic" font-size="10.00">OnConnectionError</text>
<text text-anchor="start" x="4.5" y="-212.5" font-family="Malgun Gothic" font-size="10.00">+</text>
<text text-anchor="start" x="17.5" y="-212.5" font-family="Malgun Gothic" font-size="10.00">OnMessageReceived</text>
<text text-anchor="start" x="7" y="-197.5" font-family="Malgun Gothic" font-size="10.00">&#45;</text>
<text text-anchor="start" x="17.5" y="-197.5" font-family="Malgun Gothic" font-size="10.00">WebSocket</text>
<text text-anchor="start" x="4.5" y="-182.5" font-family="Malgun Gothic" font-size="10.00">+</text>
<text text-anchor="start" x="17.5" y="-182.5" font-family="Malgun Gothic" font-size="10.00">Close()</text>
<text text-anchor="start" x="4.5" y="-167.5" font-family="Malgun Gothic" font-size="10.00">+</text>
<text text-anchor="start" x="17.5" y="-167.5" font-family="Malgun Gothic" font-size="10.00">Connect()</text>
<text text-anchor="start" x="4.5" y="-152.5" font-family="Malgun Gothic" font-size="10.00">+</text>
<text text-anchor="start" x="17.5" y="-152.5" font-family="Malgun Gothic" font-size="10.00">DEFINE_SUBSYSTEM_GETTER</text>
<text text-anchor="start" x="17.5" y="-141.5" font-family="Malgun Gothic" font-size="10.00">_INLINE()</text>
<text text-anchor="start" x="4.5" y="-126.5" font-family="Malgun Gothic" font-size="10.00">+</text>
<text text-anchor="start" x="17.5" y="-126.5" font-family="Malgun Gothic" font-size="10.00">IsConnected()</text>
<text text-anchor="start" x="4.5" y="-111.5" font-family="Malgun Gothic" font-size="10.00">+</text>
<text text-anchor="start" x="17.5" y="-111.5" font-family="Malgun Gothic" font-size="10.00">SendMessage()</text>
<text text-anchor="start" x="7" y="-96.5" font-family="Malgun Gothic" font-size="10.00">&#45;</text>
<text text-anchor="start" x="17.5" y="-96.5" font-family="Malgun Gothic" font-size="10.00">Deinitialize()</text>
<text text-anchor="start" x="7" y="-81.5" font-family="Malgun Gothic" font-size="10.00">&#45;</text>
<text text-anchor="start" x="17.5" y="-81.5" font-family="Malgun Gothic" font-size="10.00">Initialize()</text>
<text text-anchor="start" x="7" y="-66.5" font-family="Malgun Gothic" font-size="10.00">&#45;</text>
<text text-anchor="start" x="17.5" y="-66.5" font-family="Malgun Gothic" font-size="10.00">OnClosed_Native()</text>
<text text-anchor="start" x="7" y="-51.5" font-family="Malgun Gothic" font-size="10.00">&#45;</text>
<text text-anchor="start" x="17.5" y="-51.5" font-family="Malgun Gothic" font-size="10.00">OnConnected_Native()</text>
<text text-anchor="start" x="7" y="-36.5" font-family="Malgun Gothic" font-size="10.00">&#45;</text>
<text text-anchor="start" x="17.5" y="-36.5" font-family="Malgun Gothic" font-size="10.00">OnConnectionError_Native()</text>
<text text-anchor="start" x="7" y="-21.5" font-family="Malgun Gothic" font-size="10.00">&#45;</text>
<text text-anchor="start" x="17.5" y="-21.5" font-family="Malgun Gothic" font-size="10.00">OnMessageReceived_Native()</text>
<text text-anchor="start" x="7" y="-6.5" font-family="Malgun Gothic" font-size="10.00">&#45;</text>
<text text-anchor="start" x="17.5" y="-6.5" font-family="Malgun Gothic" font-size="10.00">LogNetwork()</text>
<polygon fill="#666666" stroke="#666666" points="0.5,-267.5 0.5,-267.5 169.5,-267.5 169.5,-267.5 0.5,-267.5"/>
<polygon fill="#666666" stroke="#666666" points="0.5,-192.5 0.5,-192.5 15.5,-192.5 15.5,-192.5 0.5,-192.5"/>
<polygon fill="#666666" stroke="#666666" points="15.5,-192.5 15.5,-192.5 169.5,-192.5 169.5,-192.5 15.5,-192.5"/>
<polygon fill="none" stroke="#666666" points="0,0 0,-285 169,-285 169,0 0,0"/>
</a>
</g>
</g>
<!-- Node2 -->
<g id="Node000002" class="node">
<title>Node2</title>
<g id="a_Node000002"><a xlink:title=" ">
<polygon fill="white" stroke="transparent" points="156,-370 13,-370 13,-321 156,-321 156,-370"/>
<text text-anchor="start" x="18.5" y="-357.5" font-family="Malgun Gothic" font-size="10.00">UGameInstanceSubsystem</text>
<text text-anchor="start" x="83" y="-342.5" font-family="Malgun Gothic" font-size="10.00"> </text>
<text text-anchor="start" x="83" y="-327.5" font-family="Malgun Gothic" font-size="10.00"> </text>
<polygon fill="#666666" stroke="#666666" points="13.5,-352.5 13.5,-352.5 156.5,-352.5 156.5,-352.5 13.5,-352.5"/>
<polygon fill="#666666" stroke="#666666" points="13.5,-337.5 13.5,-337.5 156.5,-337.5 156.5,-337.5 13.5,-337.5"/>
<polygon fill="none" stroke="#666666" points="13,-321 13,-370 156,-370 156,-321 13,-321"/>
</a>
</g>
</g>
<!-- Node2&#45;&gt;Node1 -->
<g id="edge1_Node000001_Node000002" class="edge">
<title>Node2&#45;&gt;Node1</title>
<g id="a_edge1_Node000001_Node000002"><a xlink:title=" ">
<path fill="none" stroke="#63b8ff" d="M84.5,-310.57C84.5,-302.97 84.5,-294.45 84.5,-285.39"/>
<polygon fill="none" stroke="#63b8ff" points="81,-310.65 84.5,-320.65 88,-310.65 81,-310.65"/>
</a>
</g>
</g>
</g>
</svg>
</svg>

<style type='text/css'>
<![CDATA[
[data-mouse-over-selected='false'] { opacity: 0.7; }
[data-mouse-over-selected='true']  { opacity: 1.0; }
]]>
</style>
<script type="application/ecmascript"><![CDATA[
document.addEventListener('DOMContentLoaded', (event) => {
  highlightEdges();
  highlightAdjacentNodes();
});
]]></script>
</svg>
