<?xml version="1.0" encoding="UTF-8" standalone="no"?>
<!DOCTYPE svg PUBLIC "-//W3C//DTD SVG 1.1//EN"
 "http://www.w3.org/Graphics/SVG/1.1/DTD/svg11.dtd">
<!-- Generated by graphviz version 2.43.0 (0)
 -->
<!-- Title: AGate::BeginPlay Pages: 1 -->
<svg width="627pt" height="64pt"
 viewBox="0.00 0.00 627.00 64.00" xmlns="http://www.w3.org/2000/svg" xmlns:xlink="http://www.w3.org/1999/xlink">
<g id="graph0" class="graph" transform="scale(1 1) rotate(0) translate(4 60)">
<title>AGate::BeginPlay</title>
<!-- Node1 -->
<g id="Node000001" class="node">
<title>Node1</title>
<g id="a_Node000001"><a xlink:title=" ">
<polygon fill="#999999" stroke="#666666" points="101,-37 0,-37 0,-18 101,-18 101,-37"/>
<text text-anchor="middle" x="50.5" y="-25" font-family="Malgun Gothic" font-size="10.00">AGate::BeginPlay</text>
</a>
</g>
</g>
<!-- Node2 -->
<g id="Node000002" class="node">
<title>Node2</title>
<g id="a_Node000002"><a xlink:href="classAGate.html#a889b91ba704a598adbf0d443b3f74f4c" target="_top" xlink:title=" ">
<polygon fill="white" stroke="#666666" points="270,-37 137,-37 137,-18 270,-18 270,-37"/>
<text text-anchor="middle" x="203.5" y="-25" font-family="Malgun Gothic" font-size="10.00">AGate::OnDoorMessage</text>
</a>
</g>
</g>
<!-- Node1&#45;&gt;Node2 -->
<g id="edge1_Node000001_Node000002" class="edge">
<title>Node1&#45;&gt;Node2</title>
<g id="a_edge1_Node000001_Node000002"><a xlink:title=" ">
<path fill="none" stroke="#63b8ff" d="M101.36,-27.5C109.51,-27.5 118.11,-27.5 126.72,-27.5"/>
<polygon fill="#63b8ff" stroke="#63b8ff" points="126.8,-31 136.8,-27.5 126.8,-24 126.8,-31"/>
</a>
</g>
</g>
<!-- Node3 -->
<g id="Node000003" class="node">
<title>Node3</title>
<g id="a_Node000003"><a xlink:href="classAGate.html#ab83a2e573215c998455f7edf71aa5807" target="_top" xlink:title=" ">
<polygon fill="white" stroke="#666666" points="409,-56 306,-56 306,-37 409,-37 409,-56"/>
<text text-anchor="middle" x="357.5" y="-44" font-family="Malgun Gothic" font-size="10.00">AGate::CloseDoor</text>
</a>
</g>
</g>
<!-- Node2&#45;&gt;Node3 -->
<g id="edge2_Node000002_Node000003" class="edge">
<title>Node2&#45;&gt;Node3</title>
<g id="a_edge2_Node000002_Node000003"><a xlink:title=" ">
<path fill="none" stroke="#63b8ff" d="M270.29,-35.72C278.73,-36.78 287.34,-37.86 295.7,-38.9"/>
<polygon fill="#63b8ff" stroke="#63b8ff" points="295.38,-42.39 305.74,-40.15 296.25,-35.44 295.38,-42.39"/>
</a>
</g>
</g>
<!-- Node5 -->
<g id="Node000005" class="node">
<title>Node5</title>
<g id="a_Node000005"><a xlink:href="classAGate.html#a4dd94b3647126dcfce64c972ebb8667f" target="_top" xlink:title=" ">
<polygon fill="white" stroke="#666666" points="408,-19 307,-19 307,0 408,0 408,-19"/>
<text text-anchor="middle" x="357.5" y="-7" font-family="Malgun Gothic" font-size="10.00">AGate::OpenDoor</text>
</a>
</g>
</g>
<!-- Node2&#45;&gt;Node5 -->
<g id="edge4_Node000002_Node000005" class="edge">
<title>Node2&#45;&gt;Node5</title>
<g id="a_edge4_Node000002_Node000005"><a xlink:title=" ">
<path fill="none" stroke="#63b8ff" d="M270.29,-19.71C279.05,-18.67 288,-17.61 296.66,-16.59"/>
<polygon fill="#63b8ff" stroke="#63b8ff" points="297.14,-20.05 306.66,-15.4 296.31,-13.1 297.14,-20.05"/>
</a>
</g>
</g>
<!-- Node4 -->
<g id="Node000004" class="node">
<title>Node4</title>
<g id="a_Node000004"><a xlink:href="classAGate.html#a281d61d11d8e4d66d818bd1f8cfe0c2d" target="_top" xlink:title=" ">
<polygon fill="white" stroke="#666666" points="619,-56 445,-56 445,-37 619,-37 619,-56"/>
<text text-anchor="middle" x="532" y="-44" font-family="Malgun Gothic" font-size="10.00">AGate::PlayCloseDoorAnimation</text>
</a>
</g>
</g>
<!-- Node3&#45;&gt;Node4 -->
<g id="edge3_Node000003_Node000004" class="edge">
<title>Node3&#45;&gt;Node4</title>
<g id="a_edge3_Node000003_Node000004"><a xlink:title=" ">
<path fill="none" stroke="#63b8ff" d="M409.32,-46.5C417.39,-46.5 425.97,-46.5 434.68,-46.5"/>
<polygon fill="#63b8ff" stroke="#63b8ff" points="434.95,-50 444.95,-46.5 434.95,-43 434.95,-50"/>
</a>
</g>
</g>
<!-- Node6 -->
<g id="Node000006" class="node">
<title>Node6</title>
<g id="a_Node000006"><a xlink:href="classAGate.html#a77115a1ffec989893fe6f5887fdf87a2" target="_top" xlink:title=" ">
<polygon fill="white" stroke="#666666" points="618.5,-19 445.5,-19 445.5,0 618.5,0 618.5,-19"/>
<text text-anchor="middle" x="532" y="-7" font-family="Malgun Gothic" font-size="10.00">AGate::PlayOpenDoorAnimation</text>
</a>
</g>
</g>
<!-- Node5&#45;&gt;Node6 -->
<g id="edge5_Node000005_Node000006" class="edge">
<title>Node5&#45;&gt;Node6</title>
<g id="a_edge5_Node000005_Node000006"><a xlink:title=" ">
<path fill="none" stroke="#63b8ff" d="M408.39,-9.5C416.94,-9.5 426.08,-9.5 435.36,-9.5"/>
<polygon fill="#63b8ff" stroke="#63b8ff" points="435.46,-13 445.46,-9.5 435.46,-6 435.46,-13"/>
</a>
</g>
</g>
</g>
</svg>
