<?xml version="1.0" encoding="UTF-8" standalone="no"?>
<!DOCTYPE svg PUBLIC "-//W3C//DTD SVG 1.1//EN"
 "http://www.w3.org/Graphics/SVG/1.1/DTD/svg11.dtd">
<!-- Generated by graphviz version 2.43.0 (0)
 -->
<!-- Title: UEaseFunctionLibrary Pages: 1 -->
<svg width="145pt" height="322pt"
 viewBox="0.00 0.00 145.00 322.00" xmlns="http://www.w3.org/2000/svg" xmlns:xlink="http://www.w3.org/1999/xlink">
<g id="graph0" class="graph" transform="scale(1 1) rotate(0) translate(4 318)">
<title>UEaseFunctionLibrary</title>
<!-- Node1 -->
<g id="Node000001" class="node">
<title>Node1</title>
<g id="a_Node000001"><a xlink:title=" ">
<polygon fill="#999999" stroke="transparent" points="126.5,-229 10.5,-229 10.5,0 126.5,0 126.5,-229"/>
<text text-anchor="start" x="15.5" y="-216.5" font-family="Malgun Gothic" font-size="10.00">UEaseFunctionLibrary</text>
<text text-anchor="start" x="21.5" y="-201.5" font-family="Malgun Gothic" font-size="10.00">+</text>
<text text-anchor="start" x="41.5" y="-201.5" font-family="Malgun Gothic" font-size="10.00">Alpha</text>
<text text-anchor="start" x="21.5" y="-186.5" font-family="Malgun Gothic" font-size="10.00">+</text>
<text text-anchor="start" x="41.5" y="-186.5" font-family="Malgun Gothic" font-size="10.00">Alpha</text>
<text text-anchor="start" x="21.5" y="-171.5" font-family="Malgun Gothic" font-size="10.00">+</text>
<text text-anchor="start" x="41.5" y="-171.5" font-family="Malgun Gothic" font-size="10.00">Alpha</text>
<text text-anchor="start" x="21.5" y="-156.5" font-family="Malgun Gothic" font-size="10.00">+</text>
<text text-anchor="start" x="41.5" y="-156.5" font-family="Malgun Gothic" font-size="10.00">B</text>
<text text-anchor="start" x="21.5" y="-141.5" font-family="Malgun Gothic" font-size="10.00">+</text>
<text text-anchor="start" x="41.5" y="-141.5" font-family="Malgun Gothic" font-size="10.00">B</text>
<text text-anchor="start" x="21.5" y="-126.5" font-family="Malgun Gothic" font-size="10.00">+</text>
<text text-anchor="start" x="41.5" y="-126.5" font-family="Malgun Gothic" font-size="10.00">B</text>
<text text-anchor="start" x="21.5" y="-111.5" font-family="Malgun Gothic" font-size="10.00">+</text>
<text text-anchor="start" x="41.5" y="-111.5" font-family="Malgun Gothic" font-size="10.00">Type</text>
<text text-anchor="start" x="21.5" y="-96.5" font-family="Malgun Gothic" font-size="10.00">+</text>
<text text-anchor="start" x="41.5" y="-96.5" font-family="Malgun Gothic" font-size="10.00">Type</text>
<text text-anchor="start" x="21.5" y="-81.5" font-family="Malgun Gothic" font-size="10.00">+</text>
<text text-anchor="start" x="41.5" y="-81.5" font-family="Malgun Gothic" font-size="10.00">Type</text>
<text text-anchor="start" x="21.5" y="-66.5" font-family="Malgun Gothic" font-size="10.00">+</text>
<text text-anchor="start" x="41.5" y="-66.5" font-family="Malgun Gothic" font-size="10.00">Type</text>
<text text-anchor="start" x="21.5" y="-51.5" font-family="Malgun Gothic" font-size="10.00">+</text>
<text text-anchor="start" x="41.5" y="-51.5" font-family="Malgun Gothic" font-size="10.00">UFUNCTION()</text>
<text text-anchor="start" x="21.5" y="-36.5" font-family="Malgun Gothic" font-size="10.00">+</text>
<text text-anchor="start" x="41.5" y="-36.5" font-family="Malgun Gothic" font-size="10.00">UFUNCTION()</text>
<text text-anchor="start" x="21.5" y="-21.5" font-family="Malgun Gothic" font-size="10.00">+</text>
<text text-anchor="start" x="41.5" y="-21.5" font-family="Malgun Gothic" font-size="10.00">UFUNCTION()</text>
<text text-anchor="start" x="21.5" y="-6.5" font-family="Malgun Gothic" font-size="10.00">+</text>
<text text-anchor="start" x="41.5" y="-6.5" font-family="Malgun Gothic" font-size="10.00">UFUNCTION()</text>
<polygon fill="#666666" stroke="#666666" points="10.5,-211.5 10.5,-211.5 126.5,-211.5 126.5,-211.5 10.5,-211.5"/>
<polygon fill="#666666" stroke="#666666" points="10.5,-61.5 10.5,-61.5 39.5,-61.5 39.5,-61.5 10.5,-61.5"/>
<polygon fill="#666666" stroke="#666666" points="39.5,-61.5 39.5,-61.5 126.5,-61.5 126.5,-61.5 39.5,-61.5"/>
<polygon fill="none" stroke="#666666" points="10.5,0 10.5,-229 126.5,-229 126.5,0 10.5,0"/>
</a>
</g>
</g>
<!-- Node2 -->
<g id="Node000002" class="node">
<title>Node2</title>
<g id="a_Node000002"><a xlink:title=" ">
<polygon fill="white" stroke="transparent" points="137,-314 0,-314 0,-265 137,-265 137,-314"/>
<text text-anchor="start" x="5.5" y="-301.5" font-family="Malgun Gothic" font-size="10.00">UBlueprintFunctionLibrary</text>
<text text-anchor="start" x="67" y="-286.5" font-family="Malgun Gothic" font-size="10.00"> </text>
<text text-anchor="start" x="67" y="-271.5" font-family="Malgun Gothic" font-size="10.00"> </text>
<polygon fill="#666666" stroke="#666666" points="0.5,-296.5 0.5,-296.5 137.5,-296.5 137.5,-296.5 0.5,-296.5"/>
<polygon fill="#666666" stroke="#666666" points="0.5,-281.5 0.5,-281.5 137.5,-281.5 137.5,-281.5 0.5,-281.5"/>
<polygon fill="none" stroke="#666666" points="0,-265 0,-314 137,-314 137,-265 0,-265"/>
</a>
</g>
</g>
<!-- Node2&#45;&gt;Node1 -->
<g id="edge1_Node000001_Node000002" class="edge">
<title>Node2&#45;&gt;Node1</title>
<g id="a_edge1_Node000001_Node000002"><a xlink:title=" ">
<path fill="none" stroke="#63b8ff" d="M68.5,-254.77C68.5,-246.96 68.5,-238.21 68.5,-229.01"/>
<polygon fill="none" stroke="#63b8ff" points="65,-254.81 68.5,-264.81 72,-254.81 65,-254.81"/>
</a>
</g>
</g>
</g>
</svg>
