<?xml version="1.0" encoding="UTF-8" standalone="no"?>
<!DOCTYPE svg PUBLIC "-//W3C//DTD SVG 1.1//EN"
 "http://www.w3.org/Graphics/SVG/1.1/DTD/svg11.dtd">
<!-- Generated by graphviz version 2.43.0 (0)
 -->
<!-- Title: AListActorManager Pages: 1 -->
<svg width="111pt" height="202pt"
 viewBox="0.00 0.00 111.00 202.00" xmlns="http://www.w3.org/2000/svg" xmlns:xlink="http://www.w3.org/1999/xlink">
<g id="graph0" class="graph" transform="scale(1 1) rotate(0) translate(4 198)">
<title>AListActorManager</title>
<!-- Node1 -->
<g id="Node000001" class="node">
<title>Node1</title>
<g id="a_Node000001"><a xlink:title="에디터에서 배열을 구성하기 위한 도우미 액터.">
<polygon fill="#999999" stroke="transparent" points="103,-109 0,-109 0,0 103,0 103,-109"/>
<text text-anchor="start" x="5.5" y="-96.5" font-family="Malgun Gothic" font-size="10.00">AListActorManager</text>
<text text-anchor="start" x="8" y="-81.5" font-family="Malgun Gothic" font-size="10.00">+</text>
<text text-anchor="start" x="24.5" y="-81.5" font-family="Malgun Gothic" font-size="10.00">ArrayActors</text>
<text text-anchor="start" x="8" y="-66.5" font-family="Malgun Gothic" font-size="10.00">+</text>
<text text-anchor="start" x="24.5" y="-66.5" font-family="Malgun Gothic" font-size="10.00">ClassFilter</text>
<text text-anchor="start" x="8" y="-51.5" font-family="Malgun Gothic" font-size="10.00">+</text>
<text text-anchor="start" x="24.5" y="-51.5" font-family="Malgun Gothic" font-size="10.00">UFUNCTION()</text>
<text text-anchor="start" x="8" y="-36.5" font-family="Malgun Gothic" font-size="10.00">+</text>
<text text-anchor="start" x="24.5" y="-36.5" font-family="Malgun Gothic" font-size="10.00">UFUNCTION()</text>
<text text-anchor="start" x="8" y="-21.5" font-family="Malgun Gothic" font-size="10.00">+</text>
<text text-anchor="start" x="24.5" y="-21.5" font-family="Malgun Gothic" font-size="10.00">UFUNCTION()</text>
<text text-anchor="start" x="8" y="-6.5" font-family="Malgun Gothic" font-size="10.00">+</text>
<text text-anchor="start" x="24.5" y="-6.5" font-family="Malgun Gothic" font-size="10.00">UFUNCTION()</text>
<polygon fill="#666666" stroke="#666666" points="0.5,-91.5 0.5,-91.5 103.5,-91.5 103.5,-91.5 0.5,-91.5"/>
<polygon fill="#666666" stroke="#666666" points="0.5,-61.5 0.5,-61.5 22.5,-61.5 22.5,-61.5 0.5,-61.5"/>
<polygon fill="#666666" stroke="#666666" points="22.5,-61.5 22.5,-61.5 103.5,-61.5 103.5,-61.5 22.5,-61.5"/>
<polygon fill="none" stroke="#666666" points="0,0 0,-109 103,-109 103,0 0,0"/>
</a>
</g>
</g>
<!-- Node2 -->
<g id="Node000002" class="node">
<title>Node2</title>
<g id="a_Node000002"><a xlink:title=" ">
<polygon fill="white" stroke="transparent" points="73,-194 30,-194 30,-145 73,-145 73,-194"/>
<text text-anchor="start" x="35.5" y="-181.5" font-family="Malgun Gothic" font-size="10.00">AActor</text>
<text text-anchor="start" x="50" y="-166.5" font-family="Malgun Gothic" font-size="10.00"> </text>
<text text-anchor="start" x="50" y="-151.5" font-family="Malgun Gothic" font-size="10.00"> </text>
<polygon fill="#666666" stroke="#666666" points="30.5,-176.5 30.5,-176.5 73.5,-176.5 73.5,-176.5 30.5,-176.5"/>
<polygon fill="#666666" stroke="#666666" points="30.5,-161.5 30.5,-161.5 73.5,-161.5 73.5,-161.5 30.5,-161.5"/>
<polygon fill="none" stroke="#666666" points="30,-145 30,-194 73,-194 73,-145 30,-145"/>
</a>
</g>
</g>
<!-- Node2&#45;&gt;Node1 -->
<g id="edge1_Node000001_Node000002" class="edge">
<title>Node2&#45;&gt;Node1</title>
<g id="a_edge1_Node000001_Node000002"><a xlink:title=" ">
<path fill="none" stroke="#63b8ff" d="M51.5,-134.79C51.5,-126.79 51.5,-118.06 51.5,-109.41"/>
<polygon fill="none" stroke="#63b8ff" points="48,-134.81 51.5,-144.81 55,-134.81 48,-134.81"/>
</a>
</g>
</g>
</g>
</svg>
