<?xml version="1.0" encoding="UTF-8" standalone="no"?>
<!DOCTYPE svg PUBLIC "-//W3C//DTD SVG 1.1//EN"
 "http://www.w3.org/Graphics/SVG/1.1/DTD/svg11.dtd">
<!-- Generated by graphviz version 2.43.0 (0)
 -->
<!-- Title: UHttpNetworkSystem Pages: 1 -->
<svg width="174pt" height="243pt"
 viewBox="0.00 0.00 174.00 243.00" xmlns="http://www.w3.org/2000/svg" xmlns:xlink="http://www.w3.org/1999/xlink">
<g id="graph0" class="graph" transform="scale(1 1) rotate(0) translate(4 239)">
<title>UHttpNetworkSystem</title>
<!-- Node1 -->
<g id="Node000001" class="node">
<title>Node1</title>
<g id="a_Node000001"><a xlink:title=" ">
<polygon fill="#999999" stroke="transparent" points="166,-150 0,-150 0,0 166,0 166,-150"/>
<text text-anchor="start" x="29.5" y="-138" font-family="Malgun Gothic" font-size="10.00">UHttpNetworkSystem</text>
<text text-anchor="start" x="81" y="-123" font-family="Malgun Gothic" font-size="10.00"> </text>
<text text-anchor="start" x="4" y="-108" font-family="Malgun Gothic" font-size="10.00">+</text>
<text text-anchor="start" x="17" y="-108" font-family="Malgun Gothic" font-size="10.00">DEFINE_SUBSYSTEM_GETTER</text>
<text text-anchor="start" x="17" y="-97" font-family="Malgun Gothic" font-size="10.00">_INLINE()</text>
<text text-anchor="start" x="4" y="-82" font-family="Malgun Gothic" font-size="10.00">+</text>
<text text-anchor="start" x="17" y="-82" font-family="Malgun Gothic" font-size="10.00">Deinitialize()</text>
<text text-anchor="start" x="4" y="-67" font-family="Malgun Gothic" font-size="10.00">+</text>
<text text-anchor="start" x="17" y="-67" font-family="Malgun Gothic" font-size="10.00">Initialize()</text>
<text text-anchor="start" x="4" y="-52" font-family="Malgun Gothic" font-size="10.00">+</text>
<text text-anchor="start" x="17" y="-52" font-family="Malgun Gothic" font-size="10.00">RequestHealth()</text>
<text text-anchor="start" x="4" y="-37" font-family="Malgun Gothic" font-size="10.00">+</text>
<text text-anchor="start" x="17" y="-37" font-family="Malgun Gothic" font-size="10.00">RequestHelpChat()</text>
<text text-anchor="start" x="6.5" y="-22" font-family="Malgun Gothic" font-size="10.00">&#45;</text>
<text text-anchor="start" x="17" y="-22" font-family="Malgun Gothic" font-size="10.00">GetLogPrefix()</text>
<text text-anchor="start" x="6.5" y="-7" font-family="Malgun Gothic" font-size="10.00">&#45;</text>
<text text-anchor="start" x="17" y="-7" font-family="Malgun Gothic" font-size="10.00">LogNetwork()</text>
<polygon fill="#666666" stroke="#666666" points="0,-133 0,-133 166,-133 166,-133 0,-133"/>
<polygon fill="#666666" stroke="#666666" points="0,-118 0,-118 166,-118 166,-118 0,-118"/>
<polygon fill="none" stroke="#666666" points="0,0 0,-150 166,-150 166,0 0,0"/>
</a>
</g>
</g>
<!-- Node2 -->
<g id="Node000002" class="node">
<title>Node2</title>
<g id="a_Node000002"><a xlink:title=" ">
<polygon fill="white" stroke="transparent" points="154.5,-235 11.5,-235 11.5,-186 154.5,-186 154.5,-235"/>
<text text-anchor="start" x="17" y="-222.5" font-family="Malgun Gothic" font-size="10.00">UGameInstanceSubsystem</text>
<text text-anchor="start" x="81.5" y="-207.5" font-family="Malgun Gothic" font-size="10.00"> </text>
<text text-anchor="start" x="81.5" y="-192.5" font-family="Malgun Gothic" font-size="10.00"> </text>
<polygon fill="#666666" stroke="#666666" points="12,-217.5 12,-217.5 155,-217.5 155,-217.5 12,-217.5"/>
<polygon fill="#666666" stroke="#666666" points="12,-202.5 12,-202.5 155,-202.5 155,-202.5 12,-202.5"/>
<polygon fill="none" stroke="#666666" points="11.5,-186 11.5,-235 154.5,-235 154.5,-186 11.5,-186"/>
</a>
</g>
</g>
<!-- Node2&#45;&gt;Node1 -->
<g id="edge1_Node000001_Node000002" class="edge">
<title>Node2&#45;&gt;Node1</title>
<g id="a_edge1_Node000001_Node000002"><a xlink:title=" ">
<path fill="none" stroke="#63b8ff" d="M83,-175.69C83,-167.75 83,-158.98 83,-150.03"/>
<polygon fill="none" stroke="#63b8ff" points="79.5,-175.94 83,-185.94 86.5,-175.94 79.5,-175.94"/>
</a>
</g>
</g>
</g>
</svg>
