<?xml version="1.0" encoding="UTF-8" standalone="no"?>
<!DOCTYPE svg PUBLIC "-//W3C//DTD SVG 1.1//EN"
 "http://www.w3.org/Graphics/SVG/1.1/DTD/svg11.dtd">
<!-- Generated by graphviz version 2.43.0 (0)
 -->
<!-- Title: ALatteGameCharacter Pages: 1 -->
<!--zoomable 1307 -->

<svg id="main" version="1.1" xmlns="http://www.w3.org/2000/svg" xmlns:xlink="http://www.w3.org/1999/xlink" xml:space="preserve" onload="init(evt)">
<style type="text/css"><![CDATA[
.node, .edge {opacity: 0.7;}
.node.selected, .edge.selected {opacity: 1;}
.edge:hover path { stroke: red; }
.edge:hover polygon { stroke: red; fill: red; }
]]></style>

<defs>
  <circle id="rim" cx="0" cy="0" r="7"/>
  <circle id="rim2" cx="0" cy="0" r="3.5"/>
  <g id="zoomPlus">
    <use xlink:href="#rim" fill="#404040"><set attributeName="fill" to="#808080" begin="zoomplus.mouseover" end="zoomplus.mouseout"/></use>
    <path d="M-4,0h8M0,-4v8" fill="none" stroke="white" stroke-width="1.5" pointer-events="none"/>
  </g>
  <g id="zoomMin">
    <use xlink:href="#rim" fill="#404040"><set attributeName="fill" to="#808080" begin="zoomminus.mouseover" end="zoomminus.mouseout"/></use>
    <path d="M-4,0h8" fill="none" stroke="white" stroke-width="1.5" pointer-events="none"/>
  </g>
  <g id="arrowUp" transform="translate(30 24)">
    <use xlink:href="#rim"/>
    <path pointer-events="none" fill="none" stroke="white" stroke-width="1.5" d="M0,-3.0v7 M-2.5,-0.5L0,-3.0L2.5,-0.5"/>
  </g>
  <g id="arrowRight" transform="rotate(90) translate(36 -43)">
    <use xlink:href="#rim"/>
    <path pointer-events="none" fill="none" stroke="white" stroke-width="1.5" d="M0,-3.0v7 M-2.5,-0.5L0,-3.0L2.5,-0.5"/>
  </g>
  <g id="arrowDown" transform="rotate(180) translate(-30 -48)">
    <use xlink:href="#rim"/>
    <path pointer-events="none" fill="none" stroke="white" stroke-width="1.5" d="M0,-3.0v7 M-2.5,-0.5L0,-3.0L2.5,-0.5"/>
  </g>
  <g id="arrowLeft" transform="rotate(270) translate(-36 17)">
    <use xlink:href="#rim"/>
    <path pointer-events="none" fill="none" stroke="white" stroke-width="1.5" d="M0,-3.0v7 M-2.5,-0.5L0,-3.0L2.5,-0.5"/>
  </g>
  <g id="resetDef">
    <use xlink:href="#rim2" fill="#404040"><set attributeName="fill" to="#808080" begin="reset.mouseover" end="reset.mouseout"/></use>
  </g>
</defs>
<script type="application/ecmascript">
var viewWidth = 177;
var viewHeight = 1307;
var sectionId = 'dynsection-0';
</script>
<script type="application/ecmascript" xlink:href="svg.min.js"/>
<svg id="graph" class="graph">
<g id="viewport">
<title>ALatteGameCharacter</title>
<!-- Node1 -->
<g id="Node000001" class="node">
<title>Node1</title>
<g id="a_Node000001"><a xlink:title="전투, 능력치, 애니메이션 헬퍼를 연결하는 기반 캐릭터 구현입니다.">
<polygon fill="#999999" stroke="transparent" points="162.5,-1214 6.5,-1214 6.5,-265 162.5,-265 162.5,-1214"/>
<text text-anchor="start" x="30" y="-1201.5" font-family="Malgun Gothic" font-size="10.00">ALatteGameCharacter</text>
<text text-anchor="start" x="10.5" y="-1186.5" font-family="Malgun Gothic" font-size="10.00">+</text>
<text text-anchor="start" x="23.5" y="-1186.5" font-family="Malgun Gothic" font-size="10.00">CharacterData</text>
<text text-anchor="start" x="10.5" y="-1171.5" font-family="Malgun Gothic" font-size="10.00">+</text>
<text text-anchor="start" x="23.5" y="-1171.5" font-family="Malgun Gothic" font-size="10.00">DeathMontage</text>
<text text-anchor="start" x="10.5" y="-1156.5" font-family="Malgun Gothic" font-size="10.00">+</text>
<text text-anchor="start" x="23.5" y="-1156.5" font-family="Malgun Gothic" font-size="10.00">FlySystem</text>
<text text-anchor="start" x="10.5" y="-1141.5" font-family="Malgun Gothic" font-size="10.00">+</text>
<text text-anchor="start" x="23.5" y="-1141.5" font-family="Malgun Gothic" font-size="10.00">HitMontages</text>
<text text-anchor="start" x="10.5" y="-1126.5" font-family="Malgun Gothic" font-size="10.00">+</text>
<text text-anchor="start" x="23.5" y="-1126.5" font-family="Malgun Gothic" font-size="10.00">HitStopSystem</text>
<text text-anchor="start" x="10.5" y="-1111.5" font-family="Malgun Gothic" font-size="10.00">+</text>
<text text-anchor="start" x="23.5" y="-1111.5" font-family="Malgun Gothic" font-size="10.00">KnockbackSystem</text>
<text text-anchor="start" x="10.5" y="-1096.5" font-family="Malgun Gothic" font-size="10.00">+</text>
<text text-anchor="start" x="23.5" y="-1096.5" font-family="Malgun Gothic" font-size="10.00">StatSystem</text>
<text text-anchor="start" x="10.5" y="-1081.5" font-family="Malgun Gothic" font-size="10.00">+</text>
<text text-anchor="start" x="23.5" y="-1081.5" font-family="Malgun Gothic" font-size="10.00">TargetActor</text>
<text text-anchor="start" x="10.5" y="-1066.5" font-family="Malgun Gothic" font-size="10.00">#</text>
<text text-anchor="start" x="23.5" y="-1066.5" font-family="Malgun Gothic" font-size="10.00">AnimInstance</text>
<text text-anchor="start" x="10.5" y="-1051.5" font-family="Malgun Gothic" font-size="10.00">#</text>
<text text-anchor="start" x="23.5" y="-1051.5" font-family="Malgun Gothic" font-size="10.00">bDelegatesBound</text>
<text text-anchor="start" x="10.5" y="-1036.5" font-family="Malgun Gothic" font-size="10.00">#</text>
<text text-anchor="start" x="23.5" y="-1036.5" font-family="Malgun Gothic" font-size="10.00">bIsCombatResult</text>
<text text-anchor="start" x="10.5" y="-1021.5" font-family="Malgun Gothic" font-size="10.00">#</text>
<text text-anchor="start" x="23.5" y="-1021.5" font-family="Malgun Gothic" font-size="10.00">bIsCombatStart</text>
<text text-anchor="start" x="10.5" y="-1006.5" font-family="Malgun Gothic" font-size="10.00">#</text>
<text text-anchor="start" x="23.5" y="-1006.5" font-family="Malgun Gothic" font-size="10.00">bIsHold</text>
<text text-anchor="start" x="10.5" y="-991.5" font-family="Malgun Gothic" font-size="10.00">#</text>
<text text-anchor="start" x="23.5" y="-991.5" font-family="Malgun Gothic" font-size="10.00">bIsWinner</text>
<text text-anchor="start" x="10.5" y="-976.5" font-family="Malgun Gothic" font-size="10.00">#</text>
<text text-anchor="start" x="23.5" y="-976.5" font-family="Malgun Gothic" font-size="10.00">CharacterType</text>
<text text-anchor="start" x="10.5" y="-961.5" font-family="Malgun Gothic" font-size="10.00">#</text>
<text text-anchor="start" x="23.5" y="-961.5" font-family="Malgun Gothic" font-size="10.00">IsHit</text>
<text text-anchor="start" x="10.5" y="-946.5" font-family="Malgun Gothic" font-size="10.00">#</text>
<text text-anchor="start" x="23.5" y="-946.5" font-family="Malgun Gothic" font-size="10.00">LeftFootComp</text>
<text text-anchor="start" x="10.5" y="-931.5" font-family="Malgun Gothic" font-size="10.00">#</text>
<text text-anchor="start" x="23.5" y="-931.5" font-family="Malgun Gothic" font-size="10.00">LeftHandComp</text>
<text text-anchor="start" x="10.5" y="-916.5" font-family="Malgun Gothic" font-size="10.00">#</text>
<text text-anchor="start" x="23.5" y="-916.5" font-family="Malgun Gothic" font-size="10.00">MeshComp</text>
<text text-anchor="start" x="10.5" y="-901.5" font-family="Malgun Gothic" font-size="10.00">#</text>
<text text-anchor="start" x="23.5" y="-901.5" font-family="Malgun Gothic" font-size="10.00">MoveComp</text>
<text text-anchor="start" x="10.5" y="-886.5" font-family="Malgun Gothic" font-size="10.00">#</text>
<text text-anchor="start" x="23.5" y="-886.5" font-family="Malgun Gothic" font-size="10.00">PrevMoveMode</text>
<text text-anchor="start" x="10.5" y="-871.5" font-family="Malgun Gothic" font-size="10.00">#</text>
<text text-anchor="start" x="23.5" y="-871.5" font-family="Malgun Gothic" font-size="10.00">RightFootComp</text>
<text text-anchor="start" x="10.5" y="-856.5" font-family="Malgun Gothic" font-size="10.00">#</text>
<text text-anchor="start" x="23.5" y="-856.5" font-family="Malgun Gothic" font-size="10.00">RightHandComp</text>
<text text-anchor="start" x="10.5" y="-841.5" font-family="Malgun Gothic" font-size="10.00">#</text>
<text text-anchor="start" x="23.5" y="-841.5" font-family="Malgun Gothic" font-size="10.00">SightHalfFOVDeg</text>
<text text-anchor="start" x="10.5" y="-826.5" font-family="Malgun Gothic" font-size="10.00">#</text>
<text text-anchor="start" x="23.5" y="-826.5" font-family="Malgun Gothic" font-size="10.00">SightRange</text>
<text text-anchor="start" x="10.5" y="-811.5" font-family="Malgun Gothic" font-size="10.00">#</text>
<text text-anchor="start" x="23.5" y="-811.5" font-family="Malgun Gothic" font-size="10.00">TraceDrawTime</text>
<text text-anchor="start" x="10.5" y="-796.5" font-family="Malgun Gothic" font-size="10.00">#</text>
<text text-anchor="start" x="23.5" y="-796.5" font-family="Malgun Gothic" font-size="10.00">TraceLength</text>
<text text-anchor="start" x="10.5" y="-781.5" font-family="Malgun Gothic" font-size="10.00">#</text>
<text text-anchor="start" x="23.5" y="-781.5" font-family="Malgun Gothic" font-size="10.00">TraceRadius</text>
<text text-anchor="start" x="10.5" y="-766.5" font-family="Malgun Gothic" font-size="10.00">+</text>
<text text-anchor="start" x="23.5" y="-766.5" font-family="Malgun Gothic" font-size="10.00">ALatteGameCharacter()</text>
<text text-anchor="start" x="10.5" y="-751.5" font-family="Malgun Gothic" font-size="10.00">+</text>
<text text-anchor="start" x="23.5" y="-751.5" font-family="Malgun Gothic" font-size="10.00">CurHP()</text>
<text text-anchor="start" x="10.5" y="-736.5" font-family="Malgun Gothic" font-size="10.00">+</text>
<text text-anchor="start" x="23.5" y="-736.5" font-family="Malgun Gothic" font-size="10.00">GetAnimInstance()</text>
<text text-anchor="start" x="10.5" y="-721.5" font-family="Malgun Gothic" font-size="10.00">+</text>
<text text-anchor="start" x="23.5" y="-721.5" font-family="Malgun Gothic" font-size="10.00">GetAttackDamage()</text>
<text text-anchor="start" x="10.5" y="-706.5" font-family="Malgun Gothic" font-size="10.00">+</text>
<text text-anchor="start" x="23.5" y="-706.5" font-family="Malgun Gothic" font-size="10.00">GetBodyPart()</text>
<text text-anchor="start" x="10.5" y="-691.5" font-family="Malgun Gothic" font-size="10.00">+</text>
<text text-anchor="start" x="23.5" y="-691.5" font-family="Malgun Gothic" font-size="10.00">GetCharacterType()</text>
<text text-anchor="start" x="10.5" y="-676.5" font-family="Malgun Gothic" font-size="10.00">+</text>
<text text-anchor="start" x="23.5" y="-676.5" font-family="Malgun Gothic" font-size="10.00">IsAttackEnable()</text>
<text text-anchor="start" x="10.5" y="-661.5" font-family="Malgun Gothic" font-size="10.00">+</text>
<text text-anchor="start" x="23.5" y="-661.5" font-family="Malgun Gothic" font-size="10.00">IsCombatResult()</text>
<text text-anchor="start" x="10.5" y="-646.5" font-family="Malgun Gothic" font-size="10.00">+</text>
<text text-anchor="start" x="23.5" y="-646.5" font-family="Malgun Gothic" font-size="10.00">IsCombatStart()</text>
<text text-anchor="start" x="10.5" y="-631.5" font-family="Malgun Gothic" font-size="10.00">+</text>
<text text-anchor="start" x="23.5" y="-631.5" font-family="Malgun Gothic" font-size="10.00">IsControlEnable()</text>
<text text-anchor="start" x="10.5" y="-616.5" font-family="Malgun Gothic" font-size="10.00">+</text>
<text text-anchor="start" x="23.5" y="-616.5" font-family="Malgun Gothic" font-size="10.00">IsDead()</text>
<text text-anchor="start" x="10.5" y="-601.5" font-family="Malgun Gothic" font-size="10.00">+</text>
<text text-anchor="start" x="23.5" y="-601.5" font-family="Malgun Gothic" font-size="10.00">IsEnemy()</text>
<text text-anchor="start" x="10.5" y="-586.5" font-family="Malgun Gothic" font-size="10.00">+</text>
<text text-anchor="start" x="23.5" y="-586.5" font-family="Malgun Gothic" font-size="10.00">IsHitting()</text>
<text text-anchor="start" x="10.5" y="-571.5" font-family="Malgun Gothic" font-size="10.00">+</text>
<text text-anchor="start" x="23.5" y="-571.5" font-family="Malgun Gothic" font-size="10.00">IsHolding()</text>
<text text-anchor="start" x="10.5" y="-556.5" font-family="Malgun Gothic" font-size="10.00">+</text>
<text text-anchor="start" x="23.5" y="-556.5" font-family="Malgun Gothic" font-size="10.00">IsInSight()</text>
<text text-anchor="start" x="10.5" y="-541.5" font-family="Malgun Gothic" font-size="10.00">+</text>
<text text-anchor="start" x="23.5" y="-541.5" font-family="Malgun Gothic" font-size="10.00">IsMoveEnable()</text>
<text text-anchor="start" x="10.5" y="-526.5" font-family="Malgun Gothic" font-size="10.00">+</text>
<text text-anchor="start" x="23.5" y="-526.5" font-family="Malgun Gothic" font-size="10.00">IsPlayer()</text>
<text text-anchor="start" x="10.5" y="-511.5" font-family="Malgun Gothic" font-size="10.00">+</text>
<text text-anchor="start" x="23.5" y="-511.5" font-family="Malgun Gothic" font-size="10.00">IsWinner()</text>
<text text-anchor="start" x="10.5" y="-496.5" font-family="Malgun Gothic" font-size="10.00">+</text>
<text text-anchor="start" x="23.5" y="-496.5" font-family="Malgun Gothic" font-size="10.00">MaxHP()</text>
<text text-anchor="start" x="10.5" y="-481.5" font-family="Malgun Gothic" font-size="10.00">+</text>
<text text-anchor="start" x="23.5" y="-481.5" font-family="Malgun Gothic" font-size="10.00">OnFlyEnd()</text>
<text text-anchor="start" x="10.5" y="-466.5" font-family="Malgun Gothic" font-size="10.00">+</text>
<text text-anchor="start" x="23.5" y="-466.5" font-family="Malgun Gothic" font-size="10.00">OnLookTarget()</text>
<text text-anchor="start" x="10.5" y="-451.5" font-family="Malgun Gothic" font-size="10.00">+</text>
<text text-anchor="start" x="23.5" y="-451.5" font-family="Malgun Gothic" font-size="10.00">PlayTargetMontage()</text>
<text text-anchor="start" x="10.5" y="-436.5" font-family="Malgun Gothic" font-size="10.00">+</text>
<text text-anchor="start" x="23.5" y="-436.5" font-family="Malgun Gothic" font-size="10.00">PlayTypeMontage()</text>
<text text-anchor="start" x="10.5" y="-421.5" font-family="Malgun Gothic" font-size="10.00">+</text>
<text text-anchor="start" x="23.5" y="-421.5" font-family="Malgun Gothic" font-size="10.00">RecoveryMovementMode()</text>
<text text-anchor="start" x="10.5" y="-406.5" font-family="Malgun Gothic" font-size="10.00">+</text>
<text text-anchor="start" x="23.5" y="-406.5" font-family="Malgun Gothic" font-size="10.00">SetFallingToWalk()</text>
<text text-anchor="start" x="10.5" y="-391.5" font-family="Malgun Gothic" font-size="10.00">+</text>
<text text-anchor="start" x="23.5" y="-391.5" font-family="Malgun Gothic" font-size="10.00">SetFlying()</text>
<text text-anchor="start" x="10.5" y="-376.5" font-family="Malgun Gothic" font-size="10.00">+</text>
<text text-anchor="start" x="23.5" y="-376.5" font-family="Malgun Gothic" font-size="10.00">SetHold()</text>
<text text-anchor="start" x="10.5" y="-361.5" font-family="Malgun Gothic" font-size="10.00">+</text>
<text text-anchor="start" x="23.5" y="-361.5" font-family="Malgun Gothic" font-size="10.00">SetupCharacterFromType()</text>
<text text-anchor="start" x="10.5" y="-346.5" font-family="Malgun Gothic" font-size="10.00">+</text>
<text text-anchor="start" x="23.5" y="-346.5" font-family="Malgun Gothic" font-size="10.00">StopTargetMontage()</text>
<text text-anchor="start" x="10.5" y="-331.5" font-family="Malgun Gothic" font-size="10.00">#</text>
<text text-anchor="start" x="23.5" y="-331.5" font-family="Malgun Gothic" font-size="10.00">BeginPlay()</text>
<text text-anchor="start" x="10.5" y="-316.5" font-family="Malgun Gothic" font-size="10.00">#</text>
<text text-anchor="start" x="23.5" y="-316.5" font-family="Malgun Gothic" font-size="10.00">EndPlay()</text>
<text text-anchor="start" x="13" y="-301.5" font-family="Malgun Gothic" font-size="10.00">&#45;</text>
<text text-anchor="start" x="23.5" y="-301.5" font-family="Malgun Gothic" font-size="10.00">BindMontageDelegates()</text>
<text text-anchor="start" x="13" y="-286.5" font-family="Malgun Gothic" font-size="10.00">&#45;</text>
<text text-anchor="start" x="23.5" y="-286.5" font-family="Malgun Gothic" font-size="10.00">OnMontageNotifyBegin()</text>
<text text-anchor="start" x="13" y="-271.5" font-family="Malgun Gothic" font-size="10.00">&#45;</text>
<text text-anchor="start" x="23.5" y="-271.5" font-family="Malgun Gothic" font-size="10.00">UnbindMontageDelegates()</text>
<polygon fill="#666666" stroke="#666666" points="6.5,-1196.5 6.5,-1196.5 162.5,-1196.5 162.5,-1196.5 6.5,-1196.5"/>
<polygon fill="#666666" stroke="#666666" points="6.5,-776.5 6.5,-776.5 21.5,-776.5 21.5,-776.5 6.5,-776.5"/>
<polygon fill="#666666" stroke="#666666" points="21.5,-776.5 21.5,-776.5 162.5,-776.5 162.5,-776.5 21.5,-776.5"/>
<polygon fill="none" stroke="#666666" points="6.5,-265 6.5,-1214 162.5,-1214 162.5,-265 6.5,-265"/>
</a>
</g>
</g>
<!-- Node3 -->
<g id="Node000003" class="node">
<title>Node3</title>
<g id="a_Node000003"><a xlink:href="classALattePlayerCharacter.html" target="_top" xlink:title="Main character driven directly by the player.">
<polygon fill="white" stroke="transparent" points="169,-229 0,-229 0,0 169,0 169,-229"/>
<text text-anchor="start" x="30" y="-216.5" font-family="Malgun Gothic" font-size="10.00">ALattePlayerCharacter</text>
<text text-anchor="start" x="4.5" y="-201.5" font-family="Malgun Gothic" font-size="10.00">+</text>
<text text-anchor="start" x="17.5" y="-201.5" font-family="Malgun Gothic" font-size="10.00">CameraShakeSystem</text>
<text text-anchor="start" x="4.5" y="-186.5" font-family="Malgun Gothic" font-size="10.00">#</text>
<text text-anchor="start" x="17.5" y="-186.5" font-family="Malgun Gothic" font-size="10.00">FollowCamera</text>
<text text-anchor="start" x="4.5" y="-171.5" font-family="Malgun Gothic" font-size="10.00">#</text>
<text text-anchor="start" x="17.5" y="-171.5" font-family="Malgun Gothic" font-size="10.00">SpringArmComp</text>
<text text-anchor="start" x="4.5" y="-156.5" font-family="Malgun Gothic" font-size="10.00">+</text>
<text text-anchor="start" x="17.5" y="-156.5" font-family="Malgun Gothic" font-size="10.00">ALattePlayerCharacter()</text>
<text text-anchor="start" x="4.5" y="-141.5" font-family="Malgun Gothic" font-size="10.00">+</text>
<text text-anchor="start" x="17.5" y="-141.5" font-family="Malgun Gothic" font-size="10.00">Cmd_AltitudeDown()</text>
<text text-anchor="start" x="4.5" y="-126.5" font-family="Malgun Gothic" font-size="10.00">+</text>
<text text-anchor="start" x="17.5" y="-126.5" font-family="Malgun Gothic" font-size="10.00">Cmd_AltitudeReleased()</text>
<text text-anchor="start" x="4.5" y="-111.5" font-family="Malgun Gothic" font-size="10.00">+</text>
<text text-anchor="start" x="17.5" y="-111.5" font-family="Malgun Gothic" font-size="10.00">Cmd_AltitudeUp()</text>
<text text-anchor="start" x="4.5" y="-96.5" font-family="Malgun Gothic" font-size="10.00">+</text>
<text text-anchor="start" x="17.5" y="-96.5" font-family="Malgun Gothic" font-size="10.00">Cmd_Jump()</text>
<text text-anchor="start" x="4.5" y="-81.5" font-family="Malgun Gothic" font-size="10.00">+</text>
<text text-anchor="start" x="17.5" y="-81.5" font-family="Malgun Gothic" font-size="10.00">Cmd_Landing()</text>
<text text-anchor="start" x="4.5" y="-66.5" font-family="Malgun Gothic" font-size="10.00">+</text>
<text text-anchor="start" x="17.5" y="-66.5" font-family="Malgun Gothic" font-size="10.00">Cmd_Look()</text>
<text text-anchor="start" x="4.5" y="-51.5" font-family="Malgun Gothic" font-size="10.00">+</text>
<text text-anchor="start" x="17.5" y="-51.5" font-family="Malgun Gothic" font-size="10.00">Cmd_Move()</text>
<text text-anchor="start" x="4.5" y="-36.5" font-family="Malgun Gothic" font-size="10.00">+</text>
<text text-anchor="start" x="17.5" y="-36.5" font-family="Malgun Gothic" font-size="10.00">Landed()</text>
<text text-anchor="start" x="4.5" y="-21.5" font-family="Malgun Gothic" font-size="10.00">#</text>
<text text-anchor="start" x="17.5" y="-21.5" font-family="Malgun Gothic" font-size="10.00">BeginPlay()</text>
<text text-anchor="start" x="4.5" y="-6.5" font-family="Malgun Gothic" font-size="10.00">#</text>
<text text-anchor="start" x="17.5" y="-6.5" font-family="Malgun Gothic" font-size="10.00">SetupPlayerInputComponent()</text>
<polygon fill="#666666" stroke="#666666" points="0.5,-211.5 0.5,-211.5 169.5,-211.5 169.5,-211.5 0.5,-211.5"/>
<polygon fill="#666666" stroke="#666666" points="0.5,-166.5 0.5,-166.5 15.5,-166.5 15.5,-166.5 0.5,-166.5"/>
<polygon fill="#666666" stroke="#666666" points="15.5,-166.5 15.5,-166.5 169.5,-166.5 169.5,-166.5 15.5,-166.5"/>
<polygon fill="none" stroke="#666666" points="0,0 0,-229 169,-229 169,0 0,0"/>
</a>
</g>
</g>
<!-- Node1&#45;&gt;Node3 -->
<g id="edge2_Node000001_Node000003" class="edge">
<title>Node1&#45;&gt;Node3</title>
<g id="a_edge2_Node000001_Node000003"><a xlink:title=" ">
<path fill="none" stroke="#63b8ff" d="M84.5,-254.48C84.5,-245.86 84.5,-237.49 84.5,-229.42"/>
<polygon fill="none" stroke="#63b8ff" points="81,-254.72 84.5,-264.72 88,-254.72 81,-254.72"/>
</a>
</g>
</g>
<!-- Node2 -->
<g id="Node000002" class="node">
<title>Node2</title>
<g id="a_Node000002"><a xlink:title=" ">
<polygon fill="white" stroke="transparent" points="117,-1299 52,-1299 52,-1250 117,-1250 117,-1299"/>
<text text-anchor="start" x="57.5" y="-1286.5" font-family="Malgun Gothic" font-size="10.00">ACharacter</text>
<text text-anchor="start" x="83" y="-1271.5" font-family="Malgun Gothic" font-size="10.00"> </text>
<text text-anchor="start" x="83" y="-1256.5" font-family="Malgun Gothic" font-size="10.00"> </text>
<polygon fill="#666666" stroke="#666666" points="52.5,-1281.5 52.5,-1281.5 117.5,-1281.5 117.5,-1281.5 52.5,-1281.5"/>
<polygon fill="#666666" stroke="#666666" points="52.5,-1266.5 52.5,-1266.5 117.5,-1266.5 117.5,-1266.5 52.5,-1266.5"/>
<polygon fill="none" stroke="#666666" points="52,-1250 52,-1299 117,-1299 117,-1250 52,-1250"/>
</a>
</g>
</g>
<!-- Node2&#45;&gt;Node1 -->
<g id="edge1_Node000001_Node000002" class="edge">
<title>Node2&#45;&gt;Node1</title>
<g id="a_edge1_Node000001_Node000002"><a xlink:title=" ">
<path fill="none" stroke="#63b8ff" d="M84.5,-1239.78C84.5,-1232.33 84.5,-1223.81 84.5,-1214.39"/>
<polygon fill="none" stroke="#63b8ff" points="81,-1239.91 84.5,-1249.91 88,-1239.91 81,-1239.91"/>
</a>
</g>
</g>
</g>
</svg>

<g id="navigator" transform="translate(0 0)" fill="#404254">
  <rect fill="#f2f5e9" fill-opacity="0.5" stroke="#606060" stroke-width=".5" x="0" y="0" width="60" height="60"/>
  <use id="zoomplus" xlink:href="#zoomPlus" x="17" y="9" onmousedown="handleZoom(evt,'in')"/>
  <use id="zoomminus" xlink:href="#zoomMin" x="42" y="9" onmousedown="handleZoom(evt,'out')"/>
  <use id="reset" xlink:href="#resetDef" x="30" y="36" onmousedown="handleReset()"/>
   <use id="arrowup" xlink:href="#arrowUp" x="0" y="0" onmousedown="handlePan(0,-1)"/>
  <use id="arrowright" xlink:href="#arrowRight" x="0" y="0" onmousedown="handlePan(1,0)"/>
  <use id="arrowdown" xlink:href="#arrowDown" x="0" y="0" onmousedown="handlePan(0,1)"/>
  <use id="arrowleft" xlink:href="#arrowLeft" x="0" y="0" onmousedown="handlePan(-1,0)"/>
</g>
<svg viewBox="0 0 15 15" width="100%" height="30px" preserveAspectRatio="xMaxYMin meet">
 <g id="arrow_out" transform="scale(0.3 0.3)">
  <a xlink:href="classALatteGameCharacter__inherit__graph_org.svg" target="_base">
   <rect id="button" ry="5" rx="5" y="6" x="6" height="38" width="38"
        fill="#f2f5e9" fill-opacity="0.5" stroke="#606060" stroke-width="1.0"/>
   <path id="arrow"
     d="M 11.500037,31.436501 C 11.940474,20.09759 22.043105,11.32322 32.158766,21.979434 L 37.068811,17.246167 C 37.068811,17.246167 37.088388,32 37.088388,32 L 22.160133,31.978069 C 22.160133,31.978069 26.997745,27.140456 26.997745,27.140456 C 18.528582,18.264221 13.291696,25.230495 11.500037,31.436501 z"
     style="fill:#404040;"/>
  </a>
 </g>
</svg>

<style type='text/css'>
<![CDATA[
[data-mouse-over-selected='false'] { opacity: 0.7; }
[data-mouse-over-selected='true']  { opacity: 1.0; }
]]>
</style>
<script type="application/ecmascript"><![CDATA[
document.addEventListener('DOMContentLoaded', (event) => {
  highlightEdges();
  highlightAdjacentNodes();
});
]]></script>
</svg>
