<?xml version="1.0" encoding="UTF-8" standalone="no"?>
<!DOCTYPE svg PUBLIC "-//W3C//DTD SVG 1.1//EN"
 "http://www.w3.org/Graphics/SVG/1.1/DTD/svg11.dtd">
<!-- Generated by graphviz version 2.43.0 (0)
 -->
<!-- Title: AGate::OnDoorMessage Pages: 1 -->
<svg width="490pt" height="64pt"
 viewBox="0.00 0.00 490.00 64.00" xmlns="http://www.w3.org/2000/svg" xmlns:xlink="http://www.w3.org/1999/xlink">

<svg id="main" version="1.1" xmlns="http://www.w3.org/2000/svg" xmlns:xlink="http://www.w3.org/1999/xlink" xml:space="preserve" onload="init(evt)">
<style type="text/css"><![CDATA[
.node, .edge {opacity: 0.7;}
.node.selected, .edge.selected {opacity: 1;}
.edge:hover path { stroke: red; }
.edge:hover polygon { stroke: red; fill: red; }
]]></style>
<script type="application/ecmascript" xlink:href="svg.min.js"/>
<svg id="graph" class="graph">
<g id="graph0" class="graph" transform="scale(1 1) rotate(0) translate(4 60)">
<title>AGate::OnDoorMessage</title>
<!-- Node1 -->
<g id="Node000001" class="node">
<title>Node1</title>
<g id="a_Node000001"><a xlink:title=" ">
<polygon fill="#999999" stroke="#666666" points="133,-37 0,-37 0,-18 133,-18 133,-37"/>
<text text-anchor="middle" x="66.5" y="-25" font-family="Malgun Gothic" font-size="10.00">AGate::OnDoorMessage</text>
</a>
</g>
</g>
<!-- Node2 -->
<g id="Node000002" class="node">
<title>Node2</title>
<g id="a_Node000002"><a xlink:href="classAGate.html#ab83a2e573215c998455f7edf71aa5807" target="_top" xlink:title=" ">
<polygon fill="white" stroke="#666666" points="272,-56 169,-56 169,-37 272,-37 272,-56"/>
<text text-anchor="middle" x="220.5" y="-44" font-family="Malgun Gothic" font-size="10.00">AGate::CloseDoor</text>
</a>
</g>
</g>
<!-- Node1&#45;&gt;Node2 -->
<g id="edge1_Node000001_Node000002" class="edge">
<title>Node1&#45;&gt;Node2</title>
<g id="a_edge1_Node000001_Node000002"><a xlink:title=" ">
<path fill="none" stroke="#63b8ff" d="M133.29,-35.72C141.73,-36.78 150.34,-37.86 158.7,-38.9"/>
<polygon fill="#63b8ff" stroke="#63b8ff" points="158.38,-42.39 168.74,-40.15 159.25,-35.44 158.38,-42.39"/>
</a>
</g>
</g>
<!-- Node4 -->
<g id="Node000004" class="node">
<title>Node4</title>
<g id="a_Node000004"><a xlink:href="classAGate.html#a4dd94b3647126dcfce64c972ebb8667f" target="_top" xlink:title=" ">
<polygon fill="white" stroke="#666666" points="271,-19 170,-19 170,0 271,0 271,-19"/>
<text text-anchor="middle" x="220.5" y="-7" font-family="Malgun Gothic" font-size="10.00">AGate::OpenDoor</text>
</a>
</g>
</g>
<!-- Node1&#45;&gt;Node4 -->
<g id="edge3_Node000001_Node000004" class="edge">
<title>Node1&#45;&gt;Node4</title>
<g id="a_edge3_Node000001_Node000004"><a xlink:title=" ">
<path fill="none" stroke="#63b8ff" d="M133.29,-19.71C142.05,-18.67 151,-17.61 159.66,-16.59"/>
<polygon fill="#63b8ff" stroke="#63b8ff" points="160.14,-20.05 169.66,-15.4 159.31,-13.1 160.14,-20.05"/>
</a>
</g>
</g>
<!-- Node3 -->
<g id="Node000003" class="node">
<title>Node3</title>
<g id="a_Node000003"><a xlink:href="classAGate.html#a281d61d11d8e4d66d818bd1f8cfe0c2d" target="_top" xlink:title=" ">
<polygon fill="white" stroke="#666666" points="482,-56 308,-56 308,-37 482,-37 482,-56"/>
<text text-anchor="middle" x="395" y="-44" font-family="Malgun Gothic" font-size="10.00">AGate::PlayCloseDoorAnimation</text>
</a>
</g>
</g>
<!-- Node2&#45;&gt;Node3 -->
<g id="edge2_Node000002_Node000003" class="edge">
<title>Node2&#45;&gt;Node3</title>
<g id="a_edge2_Node000002_Node000003"><a xlink:title=" ">
<path fill="none" stroke="#63b8ff" d="M272.32,-46.5C280.39,-46.5 288.97,-46.5 297.68,-46.5"/>
<polygon fill="#63b8ff" stroke="#63b8ff" points="297.95,-50 307.95,-46.5 297.95,-43 297.95,-50"/>
</a>
</g>
</g>
<!-- Node5 -->
<g id="Node000005" class="node">
<title>Node5</title>
<g id="a_Node000005"><a xlink:href="classAGate.html#a77115a1ffec989893fe6f5887fdf87a2" target="_top" xlink:title=" ">
<polygon fill="white" stroke="#666666" points="481.5,-19 308.5,-19 308.5,0 481.5,0 481.5,-19"/>
<text text-anchor="middle" x="395" y="-7" font-family="Malgun Gothic" font-size="10.00">AGate::PlayOpenDoorAnimation</text>
</a>
</g>
</g>
<!-- Node4&#45;&gt;Node5 -->
<g id="edge4_Node000004_Node000005" class="edge">
<title>Node4&#45;&gt;Node5</title>
<g id="a_edge4_Node000004_Node000005"><a xlink:title=" ">
<path fill="none" stroke="#63b8ff" d="M271.39,-9.5C279.94,-9.5 289.08,-9.5 298.36,-9.5"/>
<polygon fill="#63b8ff" stroke="#63b8ff" points="298.46,-13 308.46,-9.5 298.46,-6 298.46,-13"/>
</a>
</g>
</g>
</g>
</svg>
</svg>

<style type='text/css'>
<![CDATA[
[data-mouse-over-selected='false'] { opacity: 0.7; }
[data-mouse-over-selected='true']  { opacity: 1.0; }
]]>
</style>
<script type="application/ecmascript"><![CDATA[
document.addEventListener('DOMContentLoaded', (event) => {
  highlightEdges();
  highlightAdjacentNodes();
});
]]></script>
</svg>
