<?xml version="1.0" encoding="UTF-8" standalone="no"?>
<!DOCTYPE svg PUBLIC "-//W3C//DTD SVG 1.1//EN"
 "http://www.w3.org/Graphics/SVG/1.1/DTD/svg11.dtd">
<!-- Generated by graphviz version 2.43.0 (0)
 -->
<!-- Title: UGoogleSpeechServiceSettings Pages: 1 -->
<svg width="190pt" height="247pt"
 viewBox="0.00 0.00 190.00 247.00" xmlns="http://www.w3.org/2000/svg" xmlns:xlink="http://www.w3.org/1999/xlink">

<svg id="main" version="1.1" xmlns="http://www.w3.org/2000/svg" xmlns:xlink="http://www.w3.org/1999/xlink" xml:space="preserve" onload="init(evt)">
<style type="text/css"><![CDATA[
.node, .edge {opacity: 0.7;}
.node.selected, .edge.selected {opacity: 1;}
.edge:hover path { stroke: red; }
.edge:hover polygon { stroke: red; fill: red; }
]]></style>
<script type="application/ecmascript" xlink:href="svg.min.js"/>
<svg id="graph" class="graph">
<g id="graph0" class="graph" transform="scale(1 1) rotate(0) translate(4 243)">
<title>UGoogleSpeechServiceSettings</title>
<!-- Node1 -->
<g id="Node000001" class="node">
<title>Node1</title>
<g id="a_Node000001"><a xlink:title="Developer settings for Google Speech services.">
<polygon fill="#999999" stroke="transparent" points="182,-154 0,-154 0,0 182,0 182,-154"/>
<text text-anchor="start" x="14" y="-142" font-family="Malgun Gothic" font-size="10.00">UGoogleSpeechServiceSettings</text>
<text text-anchor="start" x="4" y="-127" font-family="Malgun Gothic" font-size="10.00">+</text>
<text text-anchor="start" x="17" y="-127" font-family="Malgun Gothic" font-size="10.00">ApiKey</text>
<text text-anchor="start" x="4" y="-112" font-family="Malgun Gothic" font-size="10.00">+</text>
<text text-anchor="start" x="17" y="-112" font-family="Malgun Gothic" font-size="10.00">AudioEncoding</text>
<text text-anchor="start" x="4" y="-97" font-family="Malgun Gothic" font-size="10.00">+</text>
<text text-anchor="start" x="17" y="-97" font-family="Malgun Gothic" font-size="10.00">LanguageCode</text>
<text text-anchor="start" x="4" y="-82" font-family="Malgun Gothic" font-size="10.00">+</text>
<text text-anchor="start" x="17" y="-82" font-family="Malgun Gothic" font-size="10.00">SpeechSampleRate</text>
<text text-anchor="start" x="4" y="-67" font-family="Malgun Gothic" font-size="10.00">+</text>
<text text-anchor="start" x="17" y="-67" font-family="Malgun Gothic" font-size="10.00">TextToSpeechSampleRate</text>
<text text-anchor="start" x="4" y="-52" font-family="Malgun Gothic" font-size="10.00">+</text>
<text text-anchor="start" x="17" y="-52" font-family="Malgun Gothic" font-size="10.00">VoiceName</text>
<text text-anchor="start" x="4" y="-37" font-family="Malgun Gothic" font-size="10.00">+</text>
<text text-anchor="start" x="17" y="-37" font-family="Malgun Gothic" font-size="10.00">VoiceSsmlGender</text>
<text text-anchor="start" x="4" y="-22" font-family="Malgun Gothic" font-size="10.00">+</text>
<text text-anchor="start" x="17" y="-22" font-family="Malgun Gothic" font-size="10.00">UGoogleSpeechServiceSettings()</text>
<text text-anchor="start" x="4" y="-7" font-family="Malgun Gothic" font-size="10.00">+</text>
<text text-anchor="start" x="17" y="-7" font-family="Malgun Gothic" font-size="10.00">Get()</text>
<polygon fill="#666666" stroke="#666666" points="0,-137 0,-137 182,-137 182,-137 0,-137"/>
<polygon fill="#666666" stroke="#666666" points="0,-32 0,-32 15,-32 15,-32 0,-32"/>
<polygon fill="#666666" stroke="#666666" points="15,-32 15,-32 182,-32 182,-32 15,-32"/>
<polygon fill="none" stroke="#666666" points="0,0 0,-154 182,-154 182,0 0,0"/>
</a>
</g>
</g>
<!-- Node2 -->
<g id="Node000002" class="node">
<title>Node2</title>
<g id="a_Node000002"><a xlink:title=" ">
<polygon fill="white" stroke="transparent" points="145,-239 37,-239 37,-190 145,-190 145,-239"/>
<text text-anchor="start" x="42" y="-226.5" font-family="Malgun Gothic" font-size="10.00">UDeveloperSettings</text>
<text text-anchor="start" x="89" y="-211.5" font-family="Malgun Gothic" font-size="10.00"> </text>
<text text-anchor="start" x="89" y="-196.5" font-family="Malgun Gothic" font-size="10.00"> </text>
<polygon fill="#666666" stroke="#666666" points="37,-221.5 37,-221.5 145,-221.5 145,-221.5 37,-221.5"/>
<polygon fill="#666666" stroke="#666666" points="37,-206.5 37,-206.5 145,-206.5 145,-206.5 37,-206.5"/>
<polygon fill="none" stroke="#666666" points="37,-190 37,-239 145,-239 145,-190 37,-190"/>
</a>
</g>
</g>
<!-- Node2&#45;&gt;Node1 -->
<g id="edge1_Node000001_Node000002" class="edge">
<title>Node2&#45;&gt;Node1</title>
<g id="a_edge1_Node000001_Node000002"><a xlink:title=" ">
<path fill="none" stroke="#63b8ff" d="M91,-179.66C91,-171.74 91,-162.97 91,-154.01"/>
<polygon fill="none" stroke="#63b8ff" points="87.5,-179.9 91,-189.9 94.5,-179.9 87.5,-179.9"/>
</a>
</g>
</g>
</g>
</svg>
</svg>

<style type='text/css'>
<![CDATA[
[data-mouse-over-selected='false'] { opacity: 0.7; }
[data-mouse-over-selected='true']  { opacity: 1.0; }
]]>
</style>
<script type="application/ecmascript"><![CDATA[
document.addEventListener('DOMContentLoaded', (event) => {
  highlightEdges();
  highlightAdjacentNodes();
});
]]></script>
</svg>
