<?xml version="1.0" encoding="UTF-8" standalone="no"?>
<!DOCTYPE svg PUBLIC "-//W3C//DTD SVG 1.1//EN"
 "http://www.w3.org/Graphics/SVG/1.1/DTD/svg11.dtd">
<!-- Generated by graphviz version 2.43.0 (0)
 -->
<!-- Title: UGoogleSpeechService Pages: 1 -->
<svg width="353pt" height="569pt"
 viewBox="0.00 0.00 352.50 569.00" xmlns="http://www.w3.org/2000/svg" xmlns:xlink="http://www.w3.org/1999/xlink">
<g id="graph0" class="graph" transform="scale(1 1) rotate(0) translate(4 565)">
<title>UGoogleSpeechService</title>
<!-- Node1 -->
<g id="Node000001" class="node">
<title>Node1</title>
<g id="a_Node000001"><a xlink:title="Thin Google Speech (STT/TTS) client.">
<polygon fill="#999999" stroke="transparent" points="177,-274 0,-274 0,0 177,0 177,-274"/>
<text text-anchor="start" x="32" y="-262" font-family="Malgun Gothic" font-size="10.00">UGoogleSpeechService</text>
<text text-anchor="start" x="7" y="-247" font-family="Malgun Gothic" font-size="10.00">&#45;</text>
<text text-anchor="start" x="17.5" y="-247" font-family="Malgun Gothic" font-size="10.00">ApiKey</text>
<text text-anchor="start" x="7" y="-232" font-family="Malgun Gothic" font-size="10.00">&#45;</text>
<text text-anchor="start" x="17.5" y="-232" font-family="Malgun Gothic" font-size="10.00">AudioEncoding</text>
<text text-anchor="start" x="7" y="-217" font-family="Malgun Gothic" font-size="10.00">&#45;</text>
<text text-anchor="start" x="17.5" y="-217" font-family="Malgun Gothic" font-size="10.00">DefaultSpeechSampleRate</text>
<text text-anchor="start" x="7" y="-202" font-family="Malgun Gothic" font-size="10.00">&#45;</text>
<text text-anchor="start" x="17.5" y="-202" font-family="Malgun Gothic" font-size="10.00">DefaultTtsSampleRate</text>
<text text-anchor="start" x="7" y="-187" font-family="Malgun Gothic" font-size="10.00">&#45;</text>
<text text-anchor="start" x="17.5" y="-187" font-family="Malgun Gothic" font-size="10.00">LanguageCode</text>
<text text-anchor="start" x="7" y="-172" font-family="Malgun Gothic" font-size="10.00">&#45;</text>
<text text-anchor="start" x="17.5" y="-172" font-family="Malgun Gothic" font-size="10.00">PendingSpeechToText</text>
<text text-anchor="start" x="7" y="-157" font-family="Malgun Gothic" font-size="10.00">&#45;</text>
<text text-anchor="start" x="17.5" y="-157" font-family="Malgun Gothic" font-size="10.00">PendingTextToSpeech</text>
<text text-anchor="start" x="7" y="-142" font-family="Malgun Gothic" font-size="10.00">&#45;</text>
<text text-anchor="start" x="17.5" y="-142" font-family="Malgun Gothic" font-size="10.00">VoiceGender</text>
<text text-anchor="start" x="7" y="-127" font-family="Malgun Gothic" font-size="10.00">&#45;</text>
<text text-anchor="start" x="17.5" y="-127" font-family="Malgun Gothic" font-size="10.00">VoiceName</text>
<text text-anchor="start" x="4.5" y="-112" font-family="Malgun Gothic" font-size="10.00">+</text>
<text text-anchor="start" x="17.5" y="-112" font-family="Malgun Gothic" font-size="10.00">Initialize()</text>
<text text-anchor="start" x="4.5" y="-97" font-family="Malgun Gothic" font-size="10.00">+</text>
<text text-anchor="start" x="17.5" y="-97" font-family="Malgun Gothic" font-size="10.00">RequestSpeechToText()</text>
<text text-anchor="start" x="4.5" y="-82" font-family="Malgun Gothic" font-size="10.00">+</text>
<text text-anchor="start" x="17.5" y="-82" font-family="Malgun Gothic" font-size="10.00">RequestTextToSpeech()</text>
<text text-anchor="start" x="4.5" y="-67" font-family="Malgun Gothic" font-size="10.00">+</text>
<text text-anchor="start" x="17.5" y="-67" font-family="Malgun Gothic" font-size="10.00">Get()</text>
<text text-anchor="start" x="7" y="-52" font-family="Malgun Gothic" font-size="10.00">&#45;</text>
<text text-anchor="start" x="17.5" y="-52" font-family="Malgun Gothic" font-size="10.00">BuildSpeechToTextUrl()</text>
<text text-anchor="start" x="7" y="-37" font-family="Malgun Gothic" font-size="10.00">&#45;</text>
<text text-anchor="start" x="17.5" y="-37" font-family="Malgun Gothic" font-size="10.00">BuildTextToSpeechUrl()</text>
<text text-anchor="start" x="7" y="-22" font-family="Malgun Gothic" font-size="10.00">&#45;</text>
<text text-anchor="start" x="17.5" y="-22" font-family="Malgun Gothic" font-size="10.00">HandleSpeechToTextResponse()</text>
<text text-anchor="start" x="7" y="-7" font-family="Malgun Gothic" font-size="10.00">&#45;</text>
<text text-anchor="start" x="17.5" y="-7" font-family="Malgun Gothic" font-size="10.00">HandleTextToSpeechResponse()</text>
<polygon fill="#666666" stroke="#666666" points="0.5,-257 0.5,-257 177.5,-257 177.5,-257 0.5,-257"/>
<polygon fill="#666666" stroke="#666666" points="0.5,-122 0.5,-122 15.5,-122 15.5,-122 0.5,-122"/>
<polygon fill="#666666" stroke="#666666" points="15.5,-122 15.5,-122 177.5,-122 177.5,-122 15.5,-122"/>
<polygon fill="none" stroke="#666666" points="0,0 0,-274 177,-274 177,0 0,0"/>
</a>
</g>
</g>
<!-- Node2 -->
<g id="Node000002" class="node">
<title>Node2</title>
<g id="a_Node000002"><a xlink:title=" ">
<polygon fill="white" stroke="transparent" points="144,-422.5 1,-422.5 1,-373.5 144,-373.5 144,-422.5"/>
<text text-anchor="start" x="6.5" y="-410" font-family="Malgun Gothic" font-size="10.00">UGameInstanceSubsystem</text>
<text text-anchor="start" x="71" y="-395" font-family="Malgun Gothic" font-size="10.00"> </text>
<text text-anchor="start" x="71" y="-380" font-family="Malgun Gothic" font-size="10.00"> </text>
<polygon fill="#666666" stroke="#666666" points="1.5,-405 1.5,-405 144.5,-405 144.5,-405 1.5,-405"/>
<polygon fill="#666666" stroke="#666666" points="1.5,-390 1.5,-390 144.5,-390 144.5,-390 1.5,-390"/>
<polygon fill="none" stroke="#666666" points="1,-373.5 1,-422.5 144,-422.5 144,-373.5 1,-373.5"/>
</a>
</g>
</g>
<!-- Node2&#45;&gt;Node1 -->
<g id="edge1_Node000001_Node000002" class="edge">
<title>Node2&#45;&gt;Node1</title>
<g id="a_edge1_Node000001_Node000002"><a xlink:title=" ">
<path fill="none" stroke="#63b8ff" d="M74.59,-363.1C76.03,-339.86 78.04,-307.34 80.08,-274.23"/>
<polygon fill="none" stroke="#63b8ff" points="71.1,-362.9 73.98,-373.1 78.09,-363.33 71.1,-362.9"/>
</a>
</g>
</g>
<!-- Node3 -->
<g id="Node000003" class="node">
<title>Node3</title>
<g id="a_Node000003"><a xlink:href="classUGoogleSpeechServiceSettings.html" target="_top" xlink:title="Developer settings for Google Speech services.">
<polygon fill="white" stroke="transparent" points="344.5,-475 162.5,-475 162.5,-321 344.5,-321 344.5,-475"/>
<text text-anchor="start" x="176.5" y="-463" font-family="Malgun Gothic" font-size="10.00">UGoogleSpeechServiceSettings</text>
<text text-anchor="start" x="166.5" y="-448" font-family="Malgun Gothic" font-size="10.00">+</text>
<text text-anchor="start" x="179.5" y="-448" font-family="Malgun Gothic" font-size="10.00">ApiKey</text>
<text text-anchor="start" x="166.5" y="-433" font-family="Malgun Gothic" font-size="10.00">+</text>
<text text-anchor="start" x="179.5" y="-433" font-family="Malgun Gothic" font-size="10.00">AudioEncoding</text>
<text text-anchor="start" x="166.5" y="-418" font-family="Malgun Gothic" font-size="10.00">+</text>
<text text-anchor="start" x="179.5" y="-418" font-family="Malgun Gothic" font-size="10.00">LanguageCode</text>
<text text-anchor="start" x="166.5" y="-403" font-family="Malgun Gothic" font-size="10.00">+</text>
<text text-anchor="start" x="179.5" y="-403" font-family="Malgun Gothic" font-size="10.00">SpeechSampleRate</text>
<text text-anchor="start" x="166.5" y="-388" font-family="Malgun Gothic" font-size="10.00">+</text>
<text text-anchor="start" x="179.5" y="-388" font-family="Malgun Gothic" font-size="10.00">TextToSpeechSampleRate</text>
<text text-anchor="start" x="166.5" y="-373" font-family="Malgun Gothic" font-size="10.00">+</text>
<text text-anchor="start" x="179.5" y="-373" font-family="Malgun Gothic" font-size="10.00">VoiceName</text>
<text text-anchor="start" x="166.5" y="-358" font-family="Malgun Gothic" font-size="10.00">+</text>
<text text-anchor="start" x="179.5" y="-358" font-family="Malgun Gothic" font-size="10.00">VoiceSsmlGender</text>
<text text-anchor="start" x="166.5" y="-343" font-family="Malgun Gothic" font-size="10.00">+</text>
<text text-anchor="start" x="179.5" y="-343" font-family="Malgun Gothic" font-size="10.00">UGoogleSpeechServiceSettings()</text>
<text text-anchor="start" x="166.5" y="-328" font-family="Malgun Gothic" font-size="10.00">+</text>
<text text-anchor="start" x="179.5" y="-328" font-family="Malgun Gothic" font-size="10.00">Get()</text>
<polygon fill="#666666" stroke="#666666" points="162.5,-458 162.5,-458 344.5,-458 344.5,-458 162.5,-458"/>
<polygon fill="#666666" stroke="#666666" points="162.5,-353 162.5,-353 177.5,-353 177.5,-353 162.5,-353"/>
<polygon fill="#666666" stroke="#666666" points="177.5,-353 177.5,-353 344.5,-353 344.5,-353 177.5,-353"/>
<polygon fill="none" stroke="#666666" points="162.5,-321 162.5,-475 344.5,-475 344.5,-321 162.5,-321"/>
</a>
</g>
</g>
<!-- Node3&#45;&gt;Node1 -->
<g id="edge2_Node000001_Node000003" class="edge">
<title>Node3&#45;&gt;Node1</title>
<g id="a_edge2_Node000001_Node000003"><a xlink:title=" ">
<path fill="none" stroke="#63b8ff" d="M204.89,-320.69C197.53,-309.15 189.75,-296.93 181.83,-284.49"/>
<polygon fill="none" stroke="#63b8ff" points="181.59,-284.13 175,-281.22 175.15,-274.01 181.74,-276.92 181.59,-284.13"/>
</a>
</g>
<text text-anchor="middle" x="214" y="-295" font-family="Malgun Gothic" font-size="10.00" fill="grey"> &#45;Settings</text>
</g>
<!-- Node4 -->
<g id="Node000004" class="node">
<title>Node4</title>
<g id="a_Node000004"><a xlink:title=" ">
<polygon fill="white" stroke="transparent" points="307.5,-561 199.5,-561 199.5,-512 307.5,-512 307.5,-561"/>
<text text-anchor="start" x="204.5" y="-548.5" font-family="Malgun Gothic" font-size="10.00">UDeveloperSettings</text>
<text text-anchor="start" x="251.5" y="-533.5" font-family="Malgun Gothic" font-size="10.00"> </text>
<text text-anchor="start" x="251.5" y="-518.5" font-family="Malgun Gothic" font-size="10.00"> </text>
<polygon fill="#666666" stroke="#666666" points="199.5,-543.5 199.5,-543.5 307.5,-543.5 307.5,-543.5 199.5,-543.5"/>
<polygon fill="#666666" stroke="#666666" points="199.5,-528.5 199.5,-528.5 307.5,-528.5 307.5,-528.5 199.5,-528.5"/>
<polygon fill="none" stroke="#666666" points="199.5,-512 199.5,-561 307.5,-561 307.5,-512 199.5,-512"/>
</a>
</g>
</g>
<!-- Node4&#45;&gt;Node3 -->
<g id="edge3_Node000003_Node000004" class="edge">
<title>Node4&#45;&gt;Node3</title>
<g id="a_edge3_Node000003_Node000004"><a xlink:title=" ">
<path fill="none" stroke="#63b8ff" d="M253.5,-501.61C253.5,-493.48 253.5,-484.48 253.5,-475.28"/>
<polygon fill="none" stroke="#63b8ff" points="250,-501.72 253.5,-511.72 257,-501.72 250,-501.72"/>
</a>
</g>
</g>
</g>
</svg>
