<?xml version="1.0" encoding="UTF-8" standalone="no"?>
<!DOCTYPE svg PUBLIC "-//W3C//DTD SVG 1.1//EN"
 "http://www.w3.org/Graphics/SVG/1.1/DTD/svg11.dtd">
<!-- Generated by graphviz version 2.43.0 (0)
 -->
<!-- Title: UGoogleSpeechService Pages: 1 -->
<!--zoomable 569 -->

<svg id="main" version="1.1" xmlns="http://www.w3.org/2000/svg" xmlns:xlink="http://www.w3.org/1999/xlink" xml:space="preserve" onload="init(evt)">
<style type="text/css"><![CDATA[
.node, .edge {opacity: 0.7;}
.node.selected, .edge.selected {opacity: 1;}
.edge:hover path { stroke: red; }
.edge:hover polygon { stroke: red; fill: red; }
]]></style>

<defs>
  <circle id="rim" cx="0" cy="0" r="7"/>
  <circle id="rim2" cx="0" cy="0" r="3.5"/>
  <g id="zoomPlus">
    <use xlink:href="#rim" fill="#404040"><set attributeName="fill" to="#808080" begin="zoomplus.mouseover" end="zoomplus.mouseout"/></use>
    <path d="M-4,0h8M0,-4v8" fill="none" stroke="white" stroke-width="1.5" pointer-events="none"/>
  </g>
  <g id="zoomMin">
    <use xlink:href="#rim" fill="#404040"><set attributeName="fill" to="#808080" begin="zoomminus.mouseover" end="zoomminus.mouseout"/></use>
    <path d="M-4,0h8" fill="none" stroke="white" stroke-width="1.5" pointer-events="none"/>
  </g>
  <g id="arrowUp" transform="translate(30 24)">
    <use xlink:href="#rim"/>
    <path pointer-events="none" fill="none" stroke="white" stroke-width="1.5" d="M0,-3.0v7 M-2.5,-0.5L0,-3.0L2.5,-0.5"/>
  </g>
  <g id="arrowRight" transform="rotate(90) translate(36 -43)">
    <use xlink:href="#rim"/>
    <path pointer-events="none" fill="none" stroke="white" stroke-width="1.5" d="M0,-3.0v7 M-2.5,-0.5L0,-3.0L2.5,-0.5"/>
  </g>
  <g id="arrowDown" transform="rotate(180) translate(-30 -48)">
    <use xlink:href="#rim"/>
    <path pointer-events="none" fill="none" stroke="white" stroke-width="1.5" d="M0,-3.0v7 M-2.5,-0.5L0,-3.0L2.5,-0.5"/>
  </g>
  <g id="arrowLeft" transform="rotate(270) translate(-36 17)">
    <use xlink:href="#rim"/>
    <path pointer-events="none" fill="none" stroke="white" stroke-width="1.5" d="M0,-3.0v7 M-2.5,-0.5L0,-3.0L2.5,-0.5"/>
  </g>
  <g id="resetDef">
    <use xlink:href="#rim2" fill="#404040"><set attributeName="fill" to="#808080" begin="reset.mouseover" end="reset.mouseout"/></use>
  </g>
</defs>
<script type="application/ecmascript">
var viewWidth = 353;
var viewHeight = 569;
var sectionId = 'dynsection-1';
</script>
<script type="application/ecmascript" xlink:href="svg.min.js"/>
<svg id="graph" class="graph">
<g id="viewport">
<title>UGoogleSpeechService</title>
<!-- Node1 -->
<g id="Node000001" class="node">
<title>Node1</title>
<g id="a_Node000001"><a xlink:title="Thin Google Speech (STT/TTS) client.">
<polygon fill="#999999" stroke="transparent" points="177,-274 0,-274 0,0 177,0 177,-274"/>
<text text-anchor="start" x="32" y="-262" font-family="Malgun Gothic" font-size="10.00">UGoogleSpeechService</text>
<text text-anchor="start" x="7" y="-247" font-family="Malgun Gothic" font-size="10.00">&#45;</text>
<text text-anchor="start" x="17.5" y="-247" font-family="Malgun Gothic" font-size="10.00">ApiKey</text>
<text text-anchor="start" x="7" y="-232" font-family="Malgun Gothic" font-size="10.00">&#45;</text>
<text text-anchor="start" x="17.5" y="-232" font-family="Malgun Gothic" font-size="10.00">AudioEncoding</text>
<text text-anchor="start" x="7" y="-217" font-family="Malgun Gothic" font-size="10.00">&#45;</text>
<text text-anchor="start" x="17.5" y="-217" font-family="Malgun Gothic" font-size="10.00">DefaultSpeechSampleRate</text>
<text text-anchor="start" x="7" y="-202" font-family="Malgun Gothic" font-size="10.00">&#45;</text>
<text text-anchor="start" x="17.5" y="-202" font-family="Malgun Gothic" font-size="10.00">DefaultTtsSampleRate</text>
<text text-anchor="start" x="7" y="-187" font-family="Malgun Gothic" font-size="10.00">&#45;</text>
<text text-anchor="start" x="17.5" y="-187" font-family="Malgun Gothic" font-size="10.00">LanguageCode</text>
<text text-anchor="start" x="7" y="-172" font-family="Malgun Gothic" font-size="10.00">&#45;</text>
<text text-anchor="start" x="17.5" y="-172" font-family="Malgun Gothic" font-size="10.00">PendingSpeechToText</text>
<text text-anchor="start" x="7" y="-157" font-family="Malgun Gothic" font-size="10.00">&#45;</text>
<text text-anchor="start" x="17.5" y="-157" font-family="Malgun Gothic" font-size="10.00">PendingTextToSpeech</text>
<text text-anchor="start" x="7" y="-142" font-family="Malgun Gothic" font-size="10.00">&#45;</text>
<text text-anchor="start" x="17.5" y="-142" font-family="Malgun Gothic" font-size="10.00">VoiceGender</text>
<text text-anchor="start" x="7" y="-127" font-family="Malgun Gothic" font-size="10.00">&#45;</text>
<text text-anchor="start" x="17.5" y="-127" font-family="Malgun Gothic" font-size="10.00">VoiceName</text>
<text text-anchor="start" x="4.5" y="-112" font-family="Malgun Gothic" font-size="10.00">+</text>
<text text-anchor="start" x="17.5" y="-112" font-family="Malgun Gothic" font-size="10.00">Initialize()</text>
<text text-anchor="start" x="4.5" y="-97" font-family="Malgun Gothic" font-size="10.00">+</text>
<text text-anchor="start" x="17.5" y="-97" font-family="Malgun Gothic" font-size="10.00">RequestSpeechToText()</text>
<text text-anchor="start" x="4.5" y="-82" font-family="Malgun Gothic" font-size="10.00">+</text>
<text text-anchor="start" x="17.5" y="-82" font-family="Malgun Gothic" font-size="10.00">RequestTextToSpeech()</text>
<text text-anchor="start" x="4.5" y="-67" font-family="Malgun Gothic" font-size="10.00">+</text>
<text text-anchor="start" x="17.5" y="-67" font-family="Malgun Gothic" font-size="10.00">Get()</text>
<text text-anchor="start" x="7" y="-52" font-family="Malgun Gothic" font-size="10.00">&#45;</text>
<text text-anchor="start" x="17.5" y="-52" font-family="Malgun Gothic" font-size="10.00">BuildSpeechToTextUrl()</text>
<text text-anchor="start" x="7" y="-37" font-family="Malgun Gothic" font-size="10.00">&#45;</text>
<text text-anchor="start" x="17.5" y="-37" font-family="Malgun Gothic" font-size="10.00">BuildTextToSpeechUrl()</text>
<text text-anchor="start" x="7" y="-22" font-family="Malgun Gothic" font-size="10.00">&#45;</text>
<text text-anchor="start" x="17.5" y="-22" font-family="Malgun Gothic" font-size="10.00">HandleSpeechToTextResponse()</text>
<text text-anchor="start" x="7" y="-7" font-family="Malgun Gothic" font-size="10.00">&#45;</text>
<text text-anchor="start" x="17.5" y="-7" font-family="Malgun Gothic" font-size="10.00">HandleTextToSpeechResponse()</text>
<polygon fill="#666666" stroke="#666666" points="0.5,-257 0.5,-257 177.5,-257 177.5,-257 0.5,-257"/>
<polygon fill="#666666" stroke="#666666" points="0.5,-122 0.5,-122 15.5,-122 15.5,-122 0.5,-122"/>
<polygon fill="#666666" stroke="#666666" points="15.5,-122 15.5,-122 177.5,-122 177.5,-122 15.5,-122"/>
<polygon fill="none" stroke="#666666" points="0,0 0,-274 177,-274 177,0 0,0"/>
</a>
</g>
</g>
<!-- Node2 -->
<g id="Node000002" class="node">
<title>Node2</title>
<g id="a_Node000002"><a xlink:title=" ">
<polygon fill="white" stroke="transparent" points="144,-422.5 1,-422.5 1,-373.5 144,-373.5 144,-422.5"/>
<text text-anchor="start" x="6.5" y="-410" font-family="Malgun Gothic" font-size="10.00">UGameInstanceSubsystem</text>
<text text-anchor="start" x="71" y="-395" font-family="Malgun Gothic" font-size="10.00"> </text>
<text text-anchor="start" x="71" y="-380" font-family="Malgun Gothic" font-size="10.00"> </text>
<polygon fill="#666666" stroke="#666666" points="1.5,-405 1.5,-405 144.5,-405 144.5,-405 1.5,-405"/>
<polygon fill="#666666" stroke="#666666" points="1.5,-390 1.5,-390 144.5,-390 144.5,-390 1.5,-390"/>
<polygon fill="none" stroke="#666666" points="1,-373.5 1,-422.5 144,-422.5 144,-373.5 1,-373.5"/>
</a>
</g>
</g>
<!-- Node2&#45;&gt;Node1 -->
<g id="edge1_Node000001_Node000002" class="edge">
<title>Node2&#45;&gt;Node1</title>
<g id="a_edge1_Node000001_Node000002"><a xlink:title=" ">
<path fill="none" stroke="#63b8ff" d="M74.59,-363.1C76.03,-339.86 78.04,-307.34 80.08,-274.23"/>
<polygon fill="none" stroke="#63b8ff" points="71.1,-362.9 73.98,-373.1 78.09,-363.33 71.1,-362.9"/>
</a>
</g>
</g>
<!-- Node3 -->
<g id="Node000003" class="node">
<title>Node3</title>
<g id="a_Node000003"><a xlink:href="classUGoogleSpeechServiceSettings.html" target="_top" xlink:title="Developer settings for Google Speech services.">
<polygon fill="white" stroke="transparent" points="344.5,-475 162.5,-475 162.5,-321 344.5,-321 344.5,-475"/>
<text text-anchor="start" x="176.5" y="-463" font-family="Malgun Gothic" font-size="10.00">UGoogleSpeechServiceSettings</text>
<text text-anchor="start" x="166.5" y="-448" font-family="Malgun Gothic" font-size="10.00">+</text>
<text text-anchor="start" x="179.5" y="-448" font-family="Malgun Gothic" font-size="10.00">ApiKey</text>
<text text-anchor="start" x="166.5" y="-433" font-family="Malgun Gothic" font-size="10.00">+</text>
<text text-anchor="start" x="179.5" y="-433" font-family="Malgun Gothic" font-size="10.00">AudioEncoding</text>
<text text-anchor="start" x="166.5" y="-418" font-family="Malgun Gothic" font-size="10.00">+</text>
<text text-anchor="start" x="179.5" y="-418" font-family="Malgun Gothic" font-size="10.00">LanguageCode</text>
<text text-anchor="start" x="166.5" y="-403" font-family="Malgun Gothic" font-size="10.00">+</text>
<text text-anchor="start" x="179.5" y="-403" font-family="Malgun Gothic" font-size="10.00">SpeechSampleRate</text>
<text text-anchor="start" x="166.5" y="-388" font-family="Malgun Gothic" font-size="10.00">+</text>
<text text-anchor="start" x="179.5" y="-388" font-family="Malgun Gothic" font-size="10.00">TextToSpeechSampleRate</text>
<text text-anchor="start" x="166.5" y="-373" font-family="Malgun Gothic" font-size="10.00">+</text>
<text text-anchor="start" x="179.5" y="-373" font-family="Malgun Gothic" font-size="10.00">VoiceName</text>
<text text-anchor="start" x="166.5" y="-358" font-family="Malgun Gothic" font-size="10.00">+</text>
<text text-anchor="start" x="179.5" y="-358" font-family="Malgun Gothic" font-size="10.00">VoiceSsmlGender</text>
<text text-anchor="start" x="166.5" y="-343" font-family="Malgun Gothic" font-size="10.00">+</text>
<text text-anchor="start" x="179.5" y="-343" font-family="Malgun Gothic" font-size="10.00">UGoogleSpeechServiceSettings()</text>
<text text-anchor="start" x="166.5" y="-328" font-family="Malgun Gothic" font-size="10.00">+</text>
<text text-anchor="start" x="179.5" y="-328" font-family="Malgun Gothic" font-size="10.00">Get()</text>
<polygon fill="#666666" stroke="#666666" points="162.5,-458 162.5,-458 344.5,-458 344.5,-458 162.5,-458"/>
<polygon fill="#666666" stroke="#666666" points="162.5,-353 162.5,-353 177.5,-353 177.5,-353 162.5,-353"/>
<polygon fill="#666666" stroke="#666666" points="177.5,-353 177.5,-353 344.5,-353 344.5,-353 177.5,-353"/>
<polygon fill="none" stroke="#666666" points="162.5,-321 162.5,-475 344.5,-475 344.5,-321 162.5,-321"/>
</a>
</g>
</g>
<!-- Node3&#45;&gt;Node1 -->
<g id="edge2_Node000001_Node000003" class="edge">
<title>Node3&#45;&gt;Node1</title>
<g id="a_edge2_Node000001_Node000003"><a xlink:title=" ">
<path fill="none" stroke="#63b8ff" d="M204.89,-320.69C197.53,-309.15 189.75,-296.93 181.83,-284.49"/>
<polygon fill="none" stroke="#63b8ff" points="181.59,-284.13 175,-281.22 175.15,-274.01 181.74,-276.92 181.59,-284.13"/>
</a>
</g>
<text text-anchor="middle" x="214" y="-295" font-family="Malgun Gothic" font-size="10.00" fill="grey"> &#45;Settings</text>
</g>
<!-- Node4 -->
<g id="Node000004" class="node">
<title>Node4</title>
<g id="a_Node000004"><a xlink:title=" ">
<polygon fill="white" stroke="transparent" points="307.5,-561 199.5,-561 199.5,-512 307.5,-512 307.5,-561"/>
<text text-anchor="start" x="204.5" y="-548.5" font-family="Malgun Gothic" font-size="10.00">UDeveloperSettings</text>
<text text-anchor="start" x="251.5" y="-533.5" font-family="Malgun Gothic" font-size="10.00"> </text>
<text text-anchor="start" x="251.5" y="-518.5" font-family="Malgun Gothic" font-size="10.00"> </text>
<polygon fill="#666666" stroke="#666666" points="199.5,-543.5 199.5,-543.5 307.5,-543.5 307.5,-543.5 199.5,-543.5"/>
<polygon fill="#666666" stroke="#666666" points="199.5,-528.5 199.5,-528.5 307.5,-528.5 307.5,-528.5 199.5,-528.5"/>
<polygon fill="none" stroke="#666666" points="199.5,-512 199.5,-561 307.5,-561 307.5,-512 199.5,-512"/>
</a>
</g>
</g>
<!-- Node4&#45;&gt;Node3 -->
<g id="edge3_Node000003_Node000004" class="edge">
<title>Node4&#45;&gt;Node3</title>
<g id="a_edge3_Node000003_Node000004"><a xlink:title=" ">
<path fill="none" stroke="#63b8ff" d="M253.5,-501.61C253.5,-493.48 253.5,-484.48 253.5,-475.28"/>
<polygon fill="none" stroke="#63b8ff" points="250,-501.72 253.5,-511.72 257,-501.72 250,-501.72"/>
</a>
</g>
</g>
</g>
</svg>

<g id="navigator" transform="translate(0 0)" fill="#404254">
  <rect fill="#f2f5e9" fill-opacity="0.5" stroke="#606060" stroke-width=".5" x="0" y="0" width="60" height="60"/>
  <use id="zoomplus" xlink:href="#zoomPlus" x="17" y="9" onmousedown="handleZoom(evt,'in')"/>
  <use id="zoomminus" xlink:href="#zoomMin" x="42" y="9" onmousedown="handleZoom(evt,'out')"/>
  <use id="reset" xlink:href="#resetDef" x="30" y="36" onmousedown="handleReset()"/>
   <use id="arrowup" xlink:href="#arrowUp" x="0" y="0" onmousedown="handlePan(0,-1)"/>
  <use id="arrowright" xlink:href="#arrowRight" x="0" y="0" onmousedown="handlePan(1,0)"/>
  <use id="arrowdown" xlink:href="#arrowDown" x="0" y="0" onmousedown="handlePan(0,1)"/>
  <use id="arrowleft" xlink:href="#arrowLeft" x="0" y="0" onmousedown="handlePan(-1,0)"/>
</g>
<svg viewBox="0 0 15 15" width="100%" height="30px" preserveAspectRatio="xMaxYMin meet">
 <g id="arrow_out" transform="scale(0.3 0.3)">
  <a xlink:href="classUGoogleSpeechService__coll__graph_org.svg" target="_base">
   <rect id="button" ry="5" rx="5" y="6" x="6" height="38" width="38"
        fill="#f2f5e9" fill-opacity="0.5" stroke="#606060" stroke-width="1.0"/>
   <path id="arrow"
     d="M 11.500037,31.436501 C 11.940474,20.09759 22.043105,11.32322 32.158766,21.979434 L 37.068811,17.246167 C 37.068811,17.246167 37.088388,32 37.088388,32 L 22.160133,31.978069 C 22.160133,31.978069 26.997745,27.140456 26.997745,27.140456 C 18.528582,18.264221 13.291696,25.230495 11.500037,31.436501 z"
     style="fill:#404040;"/>
  </a>
 </g>
</svg>

<style type='text/css'>
<![CDATA[
[data-mouse-over-selected='false'] { opacity: 0.7; }
[data-mouse-over-selected='true']  { opacity: 1.0; }
]]>
</style>
<script type="application/ecmascript"><![CDATA[
document.addEventListener('DOMContentLoaded', (event) => {
  highlightEdges();
  highlightAdjacentNodes();
});
]]></script>
</svg>
