<?xml version="1.0" encoding="UTF-8" standalone="no"?>
<!DOCTYPE svg PUBLIC "-//W3C//DTD SVG 1.1//EN"
 "http://www.w3.org/Graphics/SVG/1.1/DTD/svg11.dtd">
<!-- Generated by graphviz version 2.43.0 (0)
 -->
<!-- Title: UGoogleSpeechService::RequestSpeechToText Pages: 1 -->
<svg width="344pt" height="86pt"
 viewBox="0.00 0.00 344.00 86.00" xmlns="http://www.w3.org/2000/svg" xmlns:xlink="http://www.w3.org/1999/xlink">
<g id="graph0" class="graph" transform="scale(1 1) rotate(0) translate(4 82)">
<title>UGoogleSpeechService::RequestSpeechToText</title>
<!-- Node1 -->
<g id="Node000001" class="node">
<title>Node1</title>
<g id="a_Node000001"><a xlink:title=" ">
<polygon fill="#999999" stroke="#666666" points="130,-54 0,-54 0,-24 130,-24 130,-54"/>
<text text-anchor="start" x="8" y="-42" font-family="Malgun Gothic" font-size="10.00">UGoogleSpeechService</text>
<text text-anchor="middle" x="65" y="-31" font-family="Malgun Gothic" font-size="10.00">::RequestSpeechToText</text>
</a>
</g>
</g>
<!-- Node2 -->
<g id="Node000002" class="node">
<title>Node2</title>
<g id="a_Node000002"><a xlink:href="classUGoogleSpeechService.html#ab6072b63787068d65e9d5e103d845728" target="_top" xlink:title=" ">
<polygon fill="white" stroke="#666666" points="316,-78 186,-78 186,-48 316,-48 316,-78"/>
<text text-anchor="start" x="194" y="-66" font-family="Malgun Gothic" font-size="10.00">UGoogleSpeechService</text>
<text text-anchor="middle" x="251" y="-55" font-family="Malgun Gothic" font-size="10.00">::BuildSpeechToTextUrl</text>
</a>
</g>
</g>
<!-- Node1&#45;&gt;Node2 -->
<g id="edge1_Node000001_Node000002" class="edge">
<title>Node1&#45;&gt;Node2</title>
<g id="a_edge1_Node000001_Node000002"><a xlink:title=" ">
<path fill="none" stroke="#63b8ff" d="M130.1,-47.36C144.76,-49.27 160.47,-51.32 175.52,-53.29"/>
<polygon fill="#63b8ff" stroke="#63b8ff" points="175.45,-56.81 185.82,-54.63 176.36,-49.86 175.45,-56.81"/>
</a>
</g>
</g>
<!-- Node3 -->
<g id="Node000003" class="node">
<title>Node3</title>
<g id="a_Node000003"><a xlink:href="classUGoogleSpeechService.html#a463ca5048eee5af023008f0a1c9f5940" target="_top" xlink:title=" ">
<polygon fill="white" stroke="#666666" points="336,-30 166,-30 166,0 336,0 336,-30"/>
<text text-anchor="start" x="174" y="-18" font-family="Malgun Gothic" font-size="10.00">UGoogleSpeechService</text>
<text text-anchor="middle" x="251" y="-7" font-family="Malgun Gothic" font-size="10.00">::HandleSpeechToTextResponse</text>
</a>
</g>
</g>
<!-- Node1&#45;&gt;Node3 -->
<g id="edge2_Node000001_Node000003" class="edge">
<title>Node1&#45;&gt;Node3</title>
<g id="a_edge2_Node000001_Node000003"><a xlink:title=" ">
<path fill="none" stroke="#63b8ff" d="M130.1,-30.64C138.37,-29.56 146.98,-28.44 155.61,-27.31"/>
<polygon fill="#63b8ff" stroke="#63b8ff" points="156.28,-30.75 165.74,-25.99 155.38,-23.81 156.28,-30.75"/>
</a>
</g>
</g>
</g>
</svg>
