<?xml version="1.0" encoding="UTF-8" standalone="no"?>
<!DOCTYPE svg PUBLIC "-//W3C//DTD SVG 1.1//EN"
 "http://www.w3.org/Graphics/SVG/1.1/DTD/svg11.dtd">
<!-- Generated by graphviz version 2.43.0 (0)
 -->
<!-- Title: USequenceManager::RequestSequential Pages: 1 -->
<svg width="568pt" height="52pt"
 viewBox="0.00 0.00 568.00 51.50" xmlns="http://www.w3.org/2000/svg" xmlns:xlink="http://www.w3.org/1999/xlink">
<g id="graph0" class="graph" transform="scale(1 1) rotate(0) translate(4 47.5)">
<title>USequenceManager::RequestSequential</title>
<!-- Node1 -->
<g id="Node000001" class="node">
<title>Node1</title>
<g id="a_Node000001"><a xlink:title="0.1초 간격으로 Targets를 순차 Activate/Deactivate InitialDelay: 첫 실행 지연 Interval : 대상 간 간격(예: 0....">
<polygon fill="#999999" stroke="#666666" points="160,-43.5 0,-43.5 0,-13.5 160,-13.5 160,-43.5"/>
<text text-anchor="start" x="8" y="-31.5" font-family="Malgun Gothic" font-size="10.00">USequenceManager::Request</text>
<text text-anchor="middle" x="80" y="-20.5" font-family="Malgun Gothic" font-size="10.00">Sequential</text>
</a>
</g>
</g>
<!-- Node2 -->
<g id="Node000002" class="node">
<title>Node2</title>
<g id="a_Node000002"><a xlink:href="classUSequenceManager.html#a97df9aa97a5aa290313c9504b998738e" target="_top" xlink:title=" ">
<polygon fill="white" stroke="#666666" points="560,-38 394,-38 394,-19 560,-19 560,-38"/>
<text text-anchor="middle" x="477" y="-26" font-family="Malgun Gothic" font-size="10.00">USequenceManager::CancelAll</text>
</a>
</g>
</g>
<!-- Node1&#45;&gt;Node2 -->
<g id="edge1_Node000001_Node000002" class="edge">
<title>Node1&#45;&gt;Node2</title>
<g id="a_edge1_Node000001_Node000002"><a xlink:title=" ">
<path fill="none" stroke="#63b8ff" d="M160.46,-28.5C224.96,-28.5 315.99,-28.5 383.71,-28.5"/>
<polygon fill="#63b8ff" stroke="#63b8ff" points="383.95,-32 393.95,-28.5 383.95,-25 383.95,-32"/>
</a>
</g>
</g>
<!-- Node3 -->
<g id="Node000003" class="node">
<title>Node3</title>
<g id="a_Node000003"><a xlink:href="classUSequenceManager.html#ae4c67cffa8cb11aaf21f0106dc801521" target="_top" xlink:title=" ">
<polygon fill="white" stroke="#666666" points="358,-19 196,-19 196,0 358,0 358,-19"/>
<text text-anchor="middle" x="277" y="-7" font-family="Malgun Gothic" font-size="10.00">USequenceManager::TickStep</text>
</a>
</g>
</g>
<!-- Node1&#45;&gt;Node3 -->
<g id="edge2_Node000001_Node000003" class="edge">
<title>Node1&#45;&gt;Node3</title>
<g id="a_edge2_Node000001_Node000003"><a xlink:title=" ">
<path fill="none" stroke="#63b8ff" d="M160.03,-20.8C168.53,-19.97 177.22,-19.12 185.84,-18.28"/>
<polygon fill="#63b8ff" stroke="#63b8ff" points="186.29,-21.76 195.9,-17.3 185.61,-14.79 186.29,-21.76"/>
</a>
</g>
</g>
<!-- Node3&#45;&gt;Node2 -->
<g id="edge3_Node000003_Node000002" class="edge">
<title>Node3&#45;&gt;Node2</title>
<g id="a_edge3_Node000003_Node000002"><a xlink:title=" ">
<path fill="none" stroke="#63b8ff" d="M358.25,-17.2C366.56,-18 375.05,-18.81 383.47,-19.62"/>
<polygon fill="#63b8ff" stroke="#63b8ff" points="383.42,-23.13 393.7,-20.6 384.08,-16.16 383.42,-23.13"/>
</a>
</g>
</g>
</g>
</svg>
