<?xml version="1.0" encoding="UTF-8" standalone="no"?>
<!DOCTYPE svg PUBLIC "-//W3C//DTD SVG 1.1//EN"
 "http://www.w3.org/Graphics/SVG/1.1/DTD/svg11.dtd">
<!-- Generated by graphviz version 2.43.0 (0)
 -->
<!-- Title: APlayerControl::SetupInputComponent Pages: 1 -->
<svg width="575pt" height="395pt"
 viewBox="0.00 0.00 575.00 394.50" xmlns="http://www.w3.org/2000/svg" xmlns:xlink="http://www.w3.org/1999/xlink">
<g id="graph0" class="graph" transform="scale(1 1) rotate(0) translate(4 390.5)">
<title>APlayerControl::SetupInputComponent</title>
<!-- Node1 -->
<g id="Node000001" class="node">
<title>Node1</title>
<g id="a_Node000001"><a xlink:title=" ">
<polygon fill="#999999" stroke="#666666" points="148,-213 0,-213 0,-183 148,-183 148,-213"/>
<text text-anchor="start" x="8" y="-201" font-family="Malgun Gothic" font-size="10.00">APlayerControl::SetupInput</text>
<text text-anchor="middle" x="74" y="-190" font-family="Malgun Gothic" font-size="10.00">Component</text>
</a>
</g>
</g>
<!-- Node2 -->
<g id="Node000002" class="node">
<title>Node2</title>
<g id="a_Node000002"><a xlink:href="classAPlayerControl.html#af8425558108277d10a994f61be0455b7" target="_top" xlink:title=" ">
<polygon fill="white" stroke="#666666" points="359,-386.5 184,-386.5 184,-367.5 359,-367.5 359,-386.5"/>
<text text-anchor="middle" x="271.5" y="-374.5" font-family="Malgun Gothic" font-size="10.00">APlayerControl::OnAltitudeDown</text>
</a>
</g>
</g>
<!-- Node1&#45;&gt;Node2 -->
<g id="edge1_Node000001_Node000002" class="edge">
<title>Node1&#45;&gt;Node2</title>
<g id="a_edge1_Node000001_Node000002"><a xlink:title=" ">
<path fill="none" stroke="#63b8ff" d="M80.76,-213.18C93.81,-245.4 128.87,-320.73 184,-358 186.96,-360 190.09,-361.79 193.34,-363.4"/>
<polygon fill="#63b8ff" stroke="#63b8ff" points="192.19,-366.72 202.76,-367.45 194.96,-360.28 192.19,-366.72"/>
</a>
</g>
</g>
<!-- Node4 -->
<g id="Node000004" class="node">
<title>Node4</title>
<g id="a_Node000004"><a xlink:href="classAPlayerControl.html#afb5a7979f52fbc43b228e42d8b32300e" target="_top" xlink:title=" ">
<polygon fill="white" stroke="#666666" points="345,-349 198,-349 198,-319 345,-319 345,-349"/>
<text text-anchor="start" x="206" y="-337" font-family="Malgun Gothic" font-size="10.00">APlayerControl::OnAltitude</text>
<text text-anchor="middle" x="271.5" y="-326" font-family="Malgun Gothic" font-size="10.00">Released</text>
</a>
</g>
</g>
<!-- Node1&#45;&gt;Node4 -->
<g id="edge3_Node000001_Node000004" class="edge">
<title>Node1&#45;&gt;Node4</title>
<g id="a_edge3_Node000001_Node000004"><a xlink:title=" ">
<path fill="none" stroke="#63b8ff" d="M85.54,-213.16C103.12,-237.32 140.81,-284.42 184,-310 186.97,-311.76 190.08,-313.4 193.27,-314.92"/>
<polygon fill="#63b8ff" stroke="#63b8ff" points="191.91,-318.14 202.48,-318.9 194.69,-311.71 191.91,-318.14"/>
</a>
</g>
</g>
<!-- Node5 -->
<g id="Node000005" class="node">
<title>Node5</title>
<g id="a_Node000005"><a xlink:href="classAPlayerControl.html#a03c8d808ba39dcd6cb4bf6b1afb4be62" target="_top" xlink:title=" ">
<polygon fill="white" stroke="#666666" points="352,-300.5 191,-300.5 191,-281.5 352,-281.5 352,-300.5"/>
<text text-anchor="middle" x="271.5" y="-288.5" font-family="Malgun Gothic" font-size="10.00">APlayerControl::OnAltitudeUp</text>
</a>
</g>
</g>
<!-- Node1&#45;&gt;Node5 -->
<g id="edge5_Node000001_Node000005" class="edge">
<title>Node1&#45;&gt;Node5</title>
<g id="a_edge5_Node000001_Node000005"><a xlink:title=" ">
<path fill="none" stroke="#63b8ff" d="M92.21,-213.12C112.66,-230.27 148.51,-257.83 184,-273 188.94,-275.11 194.14,-276.98 199.45,-278.63"/>
<polygon fill="#63b8ff" stroke="#63b8ff" points="198.49,-282 209.07,-281.39 200.42,-275.27 198.49,-282"/>
</a>
</g>
</g>
<!-- Node6 -->
<g id="Node000006" class="node">
<title>Node6</title>
<g id="a_Node000006"><a xlink:href="classAPlayerControl.html#a7b907934fae8074aff4f121b41c8cf02" target="_top" xlink:title=" ">
<polygon fill="white" stroke="#666666" points="337,-263.5 206,-263.5 206,-244.5 337,-244.5 337,-263.5"/>
<text text-anchor="middle" x="271.5" y="-251.5" font-family="Malgun Gothic" font-size="10.00">APlayerControl::OnChat</text>
</a>
</g>
</g>
<!-- Node1&#45;&gt;Node6 -->
<g id="edge7_Node000001_Node000006" class="edge">
<title>Node1&#45;&gt;Node6</title>
<g id="a_edge7_Node000001_Node000006"><a xlink:title=" ">
<path fill="none" stroke="#63b8ff" d="M114.22,-213.06C134.79,-220.61 160.53,-229.5 184,-236 192.07,-238.24 200.64,-240.34 209.12,-242.26"/>
<polygon fill="#63b8ff" stroke="#63b8ff" points="208.49,-245.71 219.01,-244.43 209.99,-238.87 208.49,-245.71"/>
</a>
</g>
</g>
<!-- Node7 -->
<g id="Node000007" class="node">
<title>Node7</title>
<g id="a_Node000007"><a xlink:href="classAPlayerControl.html#a1bca1ba6619ca2eb51414d2959508433" target="_top" xlink:title=" ">
<polygon fill="white" stroke="#666666" points="338.5,-226.5 204.5,-226.5 204.5,-207.5 338.5,-207.5 338.5,-226.5"/>
<text text-anchor="middle" x="271.5" y="-214.5" font-family="Malgun Gothic" font-size="10.00">APlayerControl::OnJump</text>
</a>
</g>
</g>
<!-- Node1&#45;&gt;Node7 -->
<g id="edge9_Node000001_Node000007" class="edge">
<title>Node1&#45;&gt;Node7</title>
<g id="a_edge9_Node000001_Node000007"><a xlink:title=" ">
<path fill="none" stroke="#63b8ff" d="M148.07,-205.1C163.06,-206.56 178.86,-208.09 193.96,-209.56"/>
<polygon fill="#63b8ff" stroke="#63b8ff" points="193.99,-213.08 204.28,-210.56 194.67,-206.11 193.99,-213.08"/>
</a>
</g>
</g>
<!-- Node8 -->
<g id="Node000008" class="node">
<title>Node8</title>
<g id="a_Node000008"><a xlink:href="classAPlayerControl.html#ad215a10f787ff7104d339bd49c778a4a" target="_top" xlink:title=" ">
<polygon fill="white" stroke="#666666" points="345,-189.5 198,-189.5 198,-170.5 345,-170.5 345,-189.5"/>
<text text-anchor="middle" x="271.5" y="-177.5" font-family="Malgun Gothic" font-size="10.00">APlayerControl::OnLanding</text>
</a>
</g>
</g>
<!-- Node1&#45;&gt;Node8 -->
<g id="edge11_Node000001_Node000008" class="edge">
<title>Node1&#45;&gt;Node8</title>
<g id="a_edge11_Node000001_Node000008"><a xlink:title=" ">
<path fill="none" stroke="#63b8ff" d="M148.07,-191.27C161.04,-190.08 174.62,-188.83 187.83,-187.61"/>
<polygon fill="#63b8ff" stroke="#63b8ff" points="188.2,-191.09 197.84,-186.69 187.56,-184.12 188.2,-191.09"/>
</a>
</g>
</g>
<!-- Node9 -->
<g id="Node000009" class="node">
<title>Node9</title>
<g id="a_Node000009"><a xlink:href="classAPlayerControl.html#a6c7499f4bc744fb6e0920e5195f562c3" target="_top" xlink:title=" ">
<polygon fill="white" stroke="#666666" points="337.5,-152.5 205.5,-152.5 205.5,-133.5 337.5,-133.5 337.5,-152.5"/>
<text text-anchor="middle" x="271.5" y="-140.5" font-family="Malgun Gothic" font-size="10.00">APlayerControl::OnLook</text>
</a>
</g>
</g>
<!-- Node1&#45;&gt;Node9 -->
<g id="edge13_Node000001_Node000009" class="edge">
<title>Node1&#45;&gt;Node9</title>
<g id="a_edge13_Node000001_Node000009"><a xlink:title=" ">
<path fill="none" stroke="#63b8ff" d="M117.14,-182.96C137.23,-176.08 161.71,-168.11 184,-162 193.24,-159.47 203.12,-157.04 212.76,-154.82"/>
<polygon fill="#63b8ff" stroke="#63b8ff" points="213.71,-158.19 222.7,-152.58 212.17,-151.36 213.71,-158.19"/>
</a>
</g>
</g>
<!-- Node10 -->
<g id="Node000010" class="node">
<title>Node10</title>
<g id="a_Node000010"><a xlink:href="classAPlayerControl.html#a6753258935f617283a3cfb653d32b84b" target="_top" xlink:title=" ">
<polygon fill="white" stroke="#666666" points="339.5,-115.5 203.5,-115.5 203.5,-96.5 339.5,-96.5 339.5,-115.5"/>
<text text-anchor="middle" x="271.5" y="-103.5" font-family="Malgun Gothic" font-size="10.00">APlayerControl::OnMove</text>
</a>
</g>
</g>
<!-- Node1&#45;&gt;Node10 -->
<g id="edge15_Node000001_Node000010" class="edge">
<title>Node1&#45;&gt;Node10</title>
<g id="a_edge15_Node000001_Node000010"><a xlink:title=" ">
<path fill="none" stroke="#63b8ff" d="M93.05,-182.78C113.72,-166.12 149.22,-139.83 184,-125 190.08,-122.41 196.56,-120.15 203.13,-118.18"/>
<polygon fill="#63b8ff" stroke="#63b8ff" points="204.08,-121.55 212.79,-115.52 202.22,-114.81 204.08,-121.55"/>
</a>
</g>
</g>
<!-- Node11 -->
<g id="Node000011" class="node">
<title>Node11</title>
<g id="a_Node000011"><a xlink:href="classAPlayerControl.html#ac1a34aa3e6b5a59c28b7b8ae42c4d75d" target="_top" xlink:title=" ">
<polygon fill="white" stroke="#666666" points="343,-78 200,-78 200,-48 343,-48 343,-78"/>
<text text-anchor="start" x="208" y="-66" font-family="Malgun Gothic" font-size="10.00">APlayerControl::OnRecord</text>
<text text-anchor="middle" x="271.5" y="-55" font-family="Malgun Gothic" font-size="10.00">Pressed</text>
</a>
</g>
</g>
<!-- Node1&#45;&gt;Node11 -->
<g id="edge17_Node000001_Node000011" class="edge">
<title>Node1&#45;&gt;Node11</title>
<g id="a_edge17_Node000001_Node000011"><a xlink:title=" ">
<path fill="none" stroke="#63b8ff" d="M85.92,-182.78C103.76,-159.03 141.46,-113.25 184,-88 187.63,-85.85 191.46,-83.87 195.4,-82.05"/>
<polygon fill="#63b8ff" stroke="#63b8ff" points="196.9,-85.22 204.76,-78.11 194.19,-78.76 196.9,-85.22"/>
</a>
</g>
</g>
<!-- Node12 -->
<g id="Node000012" class="node">
<title>Node12</title>
<g id="a_Node000012"><a xlink:href="classAPlayerControl.html#a0b8363f1c71e6644c0575985fca29ba6" target="_top" xlink:title=" ">
<polygon fill="white" stroke="#666666" points="343,-30 200,-30 200,0 343,0 343,-30"/>
<text text-anchor="start" x="208" y="-18" font-family="Malgun Gothic" font-size="10.00">APlayerControl::OnRecord</text>
<text text-anchor="middle" x="271.5" y="-7" font-family="Malgun Gothic" font-size="10.00">Released</text>
</a>
</g>
</g>
<!-- Node1&#45;&gt;Node12 -->
<g id="edge19_Node000001_Node000012" class="edge">
<title>Node1&#45;&gt;Node12</title>
<g id="a_edge19_Node000001_Node000012"><a xlink:title=" ">
<path fill="none" stroke="#63b8ff" d="M81.15,-182.66C94.72,-150.82 130.35,-77.32 184,-39 186.11,-37.49 188.31,-36.08 190.58,-34.76"/>
<polygon fill="#63b8ff" stroke="#63b8ff" points="192.36,-37.78 199.64,-30.08 189.14,-31.56 192.36,-37.78"/>
</a>
</g>
</g>
<!-- Node3 -->
<g id="Node000003" class="node">
<title>Node3</title>
<g id="a_Node000003"><a xlink:href="classAPlayerControl.html#aeda5eb6dcc2b2420cf2dc554a2739477" target="_top" xlink:title=" ">
<polygon fill="white" stroke="#666666" points="567,-207.5 395,-207.5 395,-188.5 567,-188.5 567,-207.5"/>
<text text-anchor="middle" x="481" y="-195.5" font-family="Malgun Gothic" font-size="10.00">APlayerControl::GetControllable</text>
</a>
</g>
</g>
<!-- Node2&#45;&gt;Node3 -->
<g id="edge2_Node000002_Node000003" class="edge">
<title>Node2&#45;&gt;Node3</title>
<g id="a_edge2_Node000002_Node000003"><a xlink:title=" ">
<path fill="none" stroke="#63b8ff" d="M339.16,-367.48C346.15,-365.01 352.92,-361.9 359,-358 414.81,-322.25 454.51,-251.23 471.21,-217.13"/>
<polygon fill="#63b8ff" stroke="#63b8ff" points="474.51,-218.35 475.65,-207.82 468.19,-215.34 474.51,-218.35"/>
</a>
</g>
</g>
<!-- Node4&#45;&gt;Node3 -->
<g id="edge4_Node000004_Node000003" class="edge">
<title>Node4&#45;&gt;Node3</title>
<g id="a_edge4_Node000004_Node000003"><a xlink:title=" ">
<path fill="none" stroke="#63b8ff" d="M339.44,-318.93C346.23,-316.37 352.87,-313.42 359,-310 403.73,-285.06 445.03,-240.28 465.86,-215.57"/>
<polygon fill="#63b8ff" stroke="#63b8ff" points="468.66,-217.67 472.34,-207.73 463.27,-213.2 468.66,-217.67"/>
</a>
</g>
</g>
<!-- Node5&#45;&gt;Node3 -->
<g id="edge6_Node000005_Node000003" class="edge">
<title>Node5&#45;&gt;Node3</title>
<g id="a_edge6_Node000005_Node000003"><a xlink:title=" ">
<path fill="none" stroke="#63b8ff" d="M332.4,-281.39C341.47,-279.12 350.6,-276.36 359,-273 397.06,-257.8 436.58,-230.82 459.7,-213.71"/>
<polygon fill="#63b8ff" stroke="#63b8ff" points="461.83,-216.48 467.72,-207.67 457.63,-210.89 461.83,-216.48"/>
</a>
</g>
</g>
<!-- Node6&#45;&gt;Node3 -->
<g id="edge8_Node000006_Node000003" class="edge">
<title>Node6&#45;&gt;Node3</title>
<g id="a_edge8_Node000006_Node000003"><a xlink:title=" ">
<path fill="none" stroke="#63b8ff" d="M322.55,-244.46C334.55,-241.94 347.27,-239.05 359,-236 387.34,-228.62 418.89,-218.65 442.67,-210.78"/>
<polygon fill="#63b8ff" stroke="#63b8ff" points="443.98,-214.03 452.35,-207.54 441.76,-207.39 443.98,-214.03"/>
</a>
</g>
</g>
<!-- Node7&#45;&gt;Node3 -->
<g id="edge10_Node000007_Node000003" class="edge">
<title>Node7&#45;&gt;Node3</title>
<g id="a_edge10_Node000007_Node000003"><a xlink:title=" ">
<path fill="none" stroke="#63b8ff" d="M338.72,-210.94C353.32,-209.6 369.06,-208.16 384.55,-206.74"/>
<polygon fill="#63b8ff" stroke="#63b8ff" points="385.04,-210.21 394.68,-205.81 384.4,-203.24 385.04,-210.21"/>
</a>
</g>
</g>
<!-- Node8&#45;&gt;Node3 -->
<g id="edge12_Node000008_Node000003" class="edge">
<title>Node8&#45;&gt;Node3</title>
<g id="a_edge12_Node000008_Node000003"><a xlink:title=" ">
<path fill="none" stroke="#63b8ff" d="M345.07,-186.3C357.83,-187.4 371.28,-188.57 384.55,-189.72"/>
<polygon fill="#63b8ff" stroke="#63b8ff" points="384.39,-193.22 394.65,-190.6 384.99,-186.25 384.39,-193.22"/>
</a>
</g>
</g>
<!-- Node9&#45;&gt;Node3 -->
<g id="edge14_Node000009_Node000003" class="edge">
<title>Node9&#45;&gt;Node3</title>
<g id="a_edge14_Node000009_Node000003"><a xlink:title=" ">
<path fill="none" stroke="#63b8ff" d="M318.89,-152.54C331.91,-155.39 346.05,-158.66 359,-162 386.3,-169.05 416.71,-178.1 440.22,-185.37"/>
<polygon fill="#63b8ff" stroke="#63b8ff" points="439.25,-188.73 449.84,-188.36 441.33,-182.05 439.25,-188.73"/>
</a>
</g>
</g>
<!-- Node10&#45;&gt;Node3 -->
<g id="edge16_Node000010_Node000003" class="edge">
<title>Node10&#45;&gt;Node3</title>
<g id="a_edge16_Node000010_Node000003"><a xlink:title=" ">
<path fill="none" stroke="#63b8ff" d="M328.68,-115.54C338.95,-118.06 349.43,-121.18 359,-125 396.42,-139.93 435.62,-165.74 458.92,-182.33"/>
<polygon fill="#63b8ff" stroke="#63b8ff" points="457.16,-185.38 467.31,-188.4 461.26,-179.71 457.16,-185.38"/>
</a>
</g>
</g>
<!-- Node11&#45;&gt;Node3 -->
<g id="edge18_Node000011_Node000003" class="edge">
<title>Node11&#45;&gt;Node3</title>
<g id="a_edge18_Node000011_Node000003"><a xlink:title=" ">
<path fill="none" stroke="#63b8ff" d="M337.14,-78.1C344.72,-80.91 352.18,-84.19 359,-88 403.34,-112.78 444.8,-156.65 465.75,-180.82"/>
<polygon fill="#63b8ff" stroke="#63b8ff" points="463.13,-183.14 472.28,-188.49 468.46,-178.6 463.13,-183.14"/>
</a>
</g>
</g>
<!-- Node12&#45;&gt;Node3 -->
<g id="edge20_Node000012_Node000003" class="edge">
<title>Node12&#45;&gt;Node3</title>
<g id="a_edge20_Node000012_Node000003"><a xlink:title=" ">
<path fill="none" stroke="#63b8ff" d="M342.74,-30.15C348.46,-32.66 353.97,-35.59 359,-39 413.65,-76.03 453.92,-145.87 470.98,-179.28"/>
<polygon fill="#63b8ff" stroke="#63b8ff" points="467.93,-181.01 475.53,-188.4 474.2,-177.89 467.93,-181.01"/>
</a>
</g>
</g>
</g>
</svg>
