<?xml version="1.0" encoding="UTF-8" standalone="no"?>
<!DOCTYPE svg PUBLIC "-//W3C//DTD SVG 1.1//EN"
 "http://www.w3.org/Graphics/SVG/1.1/DTD/svg11.dtd">
<!-- Generated by graphviz version 2.43.0 (0)
 -->
<!-- Title: AGate::PlayCloseDoorAnimation Pages: 1 -->
<svg width="627pt" height="64pt"
 viewBox="0.00 0.00 627.00 64.00" xmlns="http://www.w3.org/2000/svg" xmlns:xlink="http://www.w3.org/1999/xlink">
<g id="graph0" class="graph" transform="scale(1 1) rotate(0) translate(4 60)">
<title>AGate::PlayCloseDoorAnimation</title>
<!-- Node1 -->
<g id="Node000001" class="node">
<title>Node1</title>
<g id="a_Node000001"><a xlink:title=" ">
<polygon fill="#999999" stroke="#666666" points="619,-37 445,-37 445,-18 619,-18 619,-37"/>
<text text-anchor="middle" x="532" y="-25" font-family="Malgun Gothic" font-size="10.00">AGate::PlayCloseDoorAnimation</text>
</a>
</g>
</g>
<!-- Node2 -->
<g id="Node000002" class="node">
<title>Node2</title>
<g id="a_Node000002"><a xlink:href="classAGate.html#ab83a2e573215c998455f7edf71aa5807" target="_top" xlink:title=" ">
<polygon fill="white" stroke="#666666" points="409,-37 306,-37 306,-18 409,-18 409,-37"/>
<text text-anchor="middle" x="357.5" y="-25" font-family="Malgun Gothic" font-size="10.00">AGate::CloseDoor</text>
</a>
</g>
</g>
<!-- Node1&#45;&gt;Node2 -->
<g id="edge1_Node000001_Node000002" class="edge">
<title>Node1&#45;&gt;Node2</title>
<g id="a_edge1_Node000001_Node000002"><a xlink:title=" ">
<path fill="none" stroke="#63b8ff" d="M434.54,-27.5C425.87,-27.5 417.35,-27.5 409.32,-27.5"/>
<polygon fill="#63b8ff" stroke="#63b8ff" points="434.75,-31 444.75,-27.5 434.75,-24 434.75,-31"/>
</a>
</g>
</g>
<!-- Node3 -->
<g id="Node000003" class="node">
<title>Node3</title>
<g id="a_Node000003"><a xlink:href="classAGate.html#a889b91ba704a598adbf0d443b3f74f4c" target="_top" xlink:title=" ">
<polygon fill="white" stroke="#666666" points="270,-56 137,-56 137,-37 270,-37 270,-56"/>
<text text-anchor="middle" x="203.5" y="-44" font-family="Malgun Gothic" font-size="10.00">AGate::OnDoorMessage</text>
</a>
</g>
</g>
<!-- Node2&#45;&gt;Node3 -->
<g id="edge2_Node000002_Node000003" class="edge">
<title>Node2&#45;&gt;Node3</title>
<g id="a_edge2_Node000002_Node000003"><a xlink:title=" ">
<path fill="none" stroke="#63b8ff" d="M295.74,-35.1C287.28,-36.15 278.57,-37.24 270.04,-38.31"/>
<polygon fill="#63b8ff" stroke="#63b8ff" points="296.4,-38.54 305.89,-33.83 295.53,-31.59 296.4,-38.54"/>
</a>
</g>
</g>
<!-- Node5 -->
<g id="Node000005" class="node">
<title>Node5</title>
<g id="a_Node000005"><a xlink:href="classAGate.html#abcc031c1aefc68dc90ffbdb3b2d246e4" target="_top" xlink:title=" ">
<polygon fill="white" stroke="#666666" points="264.5,-19 142.5,-19 142.5,0 264.5,0 264.5,-19"/>
<text text-anchor="middle" x="203.5" y="-7" font-family="Malgun Gothic" font-size="10.00">AGate::OnOverlapEnd</text>
</a>
</g>
</g>
<!-- Node2&#45;&gt;Node5 -->
<g id="edge4_Node000002_Node000005" class="edge">
<title>Node2&#45;&gt;Node5</title>
<g id="a_edge4_Node000002_Node000005"><a xlink:title=" ">
<path fill="none" stroke="#63b8ff" d="M295.79,-20.31C285.53,-19.1 274.89,-17.84 264.65,-16.62"/>
<polygon fill="#63b8ff" stroke="#63b8ff" points="295.54,-23.81 305.89,-21.51 296.37,-16.85 295.54,-23.81"/>
</a>
</g>
</g>
<!-- Node4 -->
<g id="Node000004" class="node">
<title>Node4</title>
<g id="a_Node000004"><a xlink:href="classAGate.html#a15d812fadd17df2b56d3157df555727f" target="_top" xlink:title=" ">
<polygon fill="white" stroke="#666666" points="101,-56 0,-56 0,-37 101,-37 101,-56"/>
<text text-anchor="middle" x="50.5" y="-44" font-family="Malgun Gothic" font-size="10.00">AGate::BeginPlay</text>
</a>
</g>
</g>
<!-- Node3&#45;&gt;Node4 -->
<g id="edge3_Node000003_Node000004" class="edge">
<title>Node3&#45;&gt;Node4</title>
<g id="a_edge3_Node000003_Node000004"><a xlink:title=" ">
<path fill="none" stroke="#63b8ff" d="M126.6,-46.5C117.97,-46.5 109.34,-46.5 101.18,-46.5"/>
<polygon fill="#63b8ff" stroke="#63b8ff" points="126.71,-50 136.71,-46.5 126.71,-43 126.71,-50"/>
</a>
</g>
</g>
<!-- Node6 -->
<g id="Node000006" class="node">
<title>Node6</title>
<g id="a_Node000006"><a xlink:href="classAGate.html#a1cbee808a8817006d47e687055da4d57" target="_top" xlink:title=" ">
<polygon fill="white" stroke="#666666" points="92,-19 9,-19 9,0 92,0 92,-19"/>
<text text-anchor="middle" x="50.5" y="-7" font-family="Malgun Gothic" font-size="10.00">AGate::AGate</text>
</a>
</g>
</g>
<!-- Node5&#45;&gt;Node6 -->
<g id="edge5_Node000005_Node000006" class="edge">
<title>Node5&#45;&gt;Node6</title>
<g id="a_edge5_Node000005_Node000006"><a xlink:title=" ">
<path fill="none" stroke="#63b8ff" d="M132.06,-9.5C118.46,-9.5 104.65,-9.5 92.38,-9.5"/>
<polygon fill="#63b8ff" stroke="#63b8ff" points="132.39,-13 142.39,-9.5 132.39,-6 132.39,-13"/>
</a>
</g>
</g>
</g>
</svg>
