<?xml version="1.0" encoding="UTF-8" standalone="no"?>
<!DOCTYPE svg PUBLIC "-//W3C//DTD SVG 1.1//EN"
 "http://www.w3.org/Graphics/SVG/1.1/DTD/svg11.dtd">
<!-- Generated by graphviz version 2.43.0 (0)
 -->
<!-- Title: UMainWidget::NativeConstruct Pages: 1 -->
<svg width="814pt" height="27pt"
 viewBox="0.00 0.00 814.00 27.00" xmlns="http://www.w3.org/2000/svg" xmlns:xlink="http://www.w3.org/1999/xlink">
<g id="graph0" class="graph" transform="scale(1 1) rotate(0) translate(4 23)">
<title>UMainWidget::NativeConstruct</title>
<!-- Node1 -->
<g id="Node000001" class="node">
<title>Node1</title>
<g id="a_Node000001"><a xlink:title=" ">
<polygon fill="#999999" stroke="#666666" points="167,-19 0,-19 0,0 167,0 167,-19"/>
<text text-anchor="middle" x="83.5" y="-7" font-family="Malgun Gothic" font-size="10.00">UMainWidget::NativeConstruct</text>
</a>
</g>
</g>
<!-- Node2 -->
<g id="Node000002" class="node">
<title>Node2</title>
<g id="a_Node000002"><a xlink:href="classUMainWidget.html#a3998cad132a8e6d11ce6c55262c07b05" target="_top" xlink:title=" ">
<polygon fill="white" stroke="#666666" points="394,-19 203,-19 203,0 394,0 394,-19"/>
<text text-anchor="middle" x="298.5" y="-7" font-family="Malgun Gothic" font-size="10.00">UMainWidget::OnMessageComitted</text>
</a>
</g>
</g>
<!-- Node1&#45;&gt;Node2 -->
<g id="edge1_Node000001_Node000002" class="edge">
<title>Node1&#45;&gt;Node2</title>
<g id="a_edge1_Node000001_Node000002"><a xlink:title=" ">
<path fill="none" stroke="#63b8ff" d="M167.16,-9.5C175.56,-9.5 184.18,-9.5 192.77,-9.5"/>
<polygon fill="#63b8ff" stroke="#63b8ff" points="192.85,-13 202.85,-9.5 192.85,-6 192.85,-13"/>
</a>
</g>
</g>
<!-- Node3 -->
<g id="Node000003" class="node">
<title>Node3</title>
<g id="a_Node000003"><a xlink:href="classUMainWidget.html#ad42dcc2d64ab7793c67ecd9da8d49445" target="_top" xlink:title=" ">
<polygon fill="white" stroke="#666666" points="591,-19 430,-19 430,0 591,0 591,-19"/>
<text text-anchor="middle" x="510.5" y="-7" font-family="Malgun Gothic" font-size="10.00">UMainWidget::ToggleChatBox</text>
</a>
</g>
</g>
<!-- Node2&#45;&gt;Node3 -->
<g id="edge2_Node000002_Node000003" class="edge">
<title>Node2&#45;&gt;Node3</title>
<g id="a_edge2_Node000002_Node000003"><a xlink:title=" ">
<path fill="none" stroke="#63b8ff" d="M394.06,-9.5C402.57,-9.5 411.18,-9.5 419.65,-9.5"/>
<polygon fill="#63b8ff" stroke="#63b8ff" points="419.9,-13 429.9,-9.5 419.9,-6 419.9,-13"/>
</a>
</g>
</g>
<!-- Node4 -->
<g id="Node000004" class="node">
<title>Node4</title>
<g id="a_Node000004"><a xlink:href="classUMainWidget.html#aaaa8ea31d37f6ae2ad573767d2607e51" target="_top" xlink:title=" ">
<polygon fill="white" stroke="#666666" points="806,-19 627,-19 627,0 806,0 806,-19"/>
<text text-anchor="middle" x="716.5" y="-7" font-family="Malgun Gothic" font-size="10.00">UMainWidget::SendChatMessage</text>
</a>
</g>
</g>
<!-- Node3&#45;&gt;Node4 -->
<g id="edge3_Node000003_Node000004" class="edge">
<title>Node3&#45;&gt;Node4</title>
<g id="a_edge3_Node000003_Node000004"><a xlink:title=" ">
<path fill="none" stroke="#63b8ff" d="M591.25,-9.5C599.51,-9.5 607.98,-9.5 616.42,-9.5"/>
<polygon fill="#63b8ff" stroke="#63b8ff" points="616.69,-13 626.69,-9.5 616.69,-6 616.69,-13"/>
</a>
</g>
</g>
</g>
</svg>
