<?xml version="1.0" encoding="UTF-8" standalone="no"?>
<!DOCTYPE svg PUBLIC "-//W3C//DTD SVG 1.1//EN"
 "http://www.w3.org/Graphics/SVG/1.1/DTD/svg11.dtd">
<!-- Generated by graphviz version 2.43.0 (0)
 -->
<!-- Title: Source/YiSan Pages: 1 -->
<svg width="244pt" height="141pt"
 viewBox="0.00 0.00 244.00 141.00" xmlns="http://www.w3.org/2000/svg" xmlns:xlink="http://www.w3.org/1999/xlink">
<g id="graph0" class="graph" transform="scale(1 1) rotate(0) translate(4 137)">
<title>Source/YiSan</title>
<g id="clust1" class="cluster">
<title>clusterdir_74389ed8173ad57b461b9d623a1f3867</title>
<g id="a_clust1"><a xlink:href="dir_74389ed8173ad57b461b9d623a1f3867.html" target="_top" xlink:title="Source">
<polygon fill="#edf0f7" stroke="#404040" stroke-dasharray="5,2" points="8,-8 8,-125 228,-125 228,-8 8,-8"/>
<text text-anchor="middle" x="118" y="-113" font-family="Malgun Gothic" font-size="10.00">Source</text>
</a>
</g>
</g>
<g id="clust2" class="cluster">
<title>clusterdir_9a481a88fca7fb2428f2795f507e855b</title>
<g id="a_clust2"><a xlink:href="dir_9a481a88fca7fb2428f2795f507e855b.html" target="_top">
<polygon fill="#edf0f7" stroke="#404040" stroke-width="2" points="16,-63 16,-98 220,-98 220,-63 16,-63"/>
</a>
</g>
</g>
<!-- dir_2270f6753238979635db772f09123181 -->
<g id="node1" class="node">
<title>dir_2270f6753238979635db772f09123181</title>
<g id="a_node1"><a xlink:href="dir_2270f6753238979635db772f09123181.html" target="_top" xlink:title="CoffeeLibrary">
<polygon fill="#a2b4d6" stroke="red" points="98,-35 16,-35 16,-16 98,-16 98,-35"/>
<text text-anchor="middle" x="57" y="-23" font-family="Malgun Gothic" font-size="10.00">CoffeeLibrary</text>
</a>
</g>
</g>
<!-- dir_399370037b6f5ff6b0840148d18ec8d9 -->
<g id="node2" class="node">
<title>dir_399370037b6f5ff6b0840148d18ec8d9</title>
<g id="a_node2"><a xlink:href="dir_399370037b6f5ff6b0840148d18ec8d9.html" target="_top" xlink:title="LatteLibrary">
<polygon fill="#a2b4d6" stroke="red" points="191.5,-35 116.5,-35 116.5,-16 191.5,-16 191.5,-35"/>
<text text-anchor="middle" x="154" y="-23" font-family="Malgun Gothic" font-size="10.00">LatteLibrary</text>
</a>
</g>
</g>
<!-- dir_9a481a88fca7fb2428f2795f507e855b -->
<g id="node3" class="node">
<title>dir_9a481a88fca7fb2428f2795f507e855b</title>
<text text-anchor="middle" x="190" y="-78" font-family="Malgun Gothic" font-size="10.00">YiSan</text>
</g>
<!-- dir_33401b21ee94a88a4c3dcbc47e107729 -->
<g id="node4" class="node">
<title>dir_33401b21ee94a88a4c3dcbc47e107729</title>
<g id="a_node4"><a xlink:href="dir_33401b21ee94a88a4c3dcbc47e107729.html" target="_top" xlink:title="Environment">
<polygon fill="#a2b4d6" stroke="#404040" points="150.5,-90 71.5,-90 71.5,-71 150.5,-71 150.5,-90"/>
<text text-anchor="middle" x="111" y="-78" font-family="Malgun Gothic" font-size="10.00">Environment</text>
</a>
</g>
</g>
<!-- dir_082c221e7eea3847d25ff2604012feae -->
<g id="node5" class="node">
<title>dir_082c221e7eea3847d25ff2604012feae</title>
<g id="a_node5"><a xlink:href="dir_082c221e7eea3847d25ff2604012feae.html" target="_top" xlink:title="UI">
<polygon fill="#a2b4d6" stroke="#404040" points="53.5,-90 24.5,-90 24.5,-71 53.5,-71 53.5,-90"/>
<text text-anchor="middle" x="39" y="-78" font-family="Malgun Gothic" font-size="10.00">UI</text>
</a>
</g>
</g>
<!-- dir_082c221e7eea3847d25ff2604012feae&#45;&gt;dir_2270f6753238979635db772f09123181 -->
<g id="edge1" class="edge">
<title>dir_082c221e7eea3847d25ff2604012feae&#45;&gt;dir_2270f6753238979635db772f09123181</title>
<g id="a_edge1"><a xlink:href="dir_000037_000003.html" target="_top">
<path fill="none" stroke="#63b8ff" d="M41.97,-70.75C44.36,-63.72 47.79,-53.62 50.77,-44.84"/>
<polygon fill="#63b8ff" stroke="#63b8ff" points="54.18,-45.68 54.08,-35.09 47.55,-43.43 54.18,-45.68"/>
</a>
</g>
<g id="a_edge1&#45;headlabel"><a xlink:href="dir_000037_000003.html" target="_top" xlink:title="1">
<text text-anchor="middle" x="55.71" y="-47.5" font-family="Malgun Gothic" font-size="10.00" fill="#63b8ff">1</text>
</a>
</g>
</g>
<!-- dir_082c221e7eea3847d25ff2604012feae&#45;&gt;dir_399370037b6f5ff6b0840148d18ec8d9 -->
<g id="edge2" class="edge">
<title>dir_082c221e7eea3847d25ff2604012feae&#45;&gt;dir_399370037b6f5ff6b0840148d18ec8d9</title>
<g id="a_edge2"><a xlink:href="dir_000037_000011.html" target="_top">
<path fill="none" stroke="#63b8ff" d="M50.39,-70.91C54.28,-68.19 58.72,-65.29 63,-63 80.68,-53.52 101.38,-45.04 118.56,-38.64"/>
<polygon fill="#63b8ff" stroke="#63b8ff" points="120.02,-41.83 128.22,-35.12 117.62,-35.25 120.02,-41.83"/>
</a>
</g>
<g id="a_edge2&#45;headlabel"><a xlink:href="dir_000037_000011.html" target="_top" xlink:title="2">
<text text-anchor="middle" x="117.61" y="-43.23" font-family="Malgun Gothic" font-size="10.00" fill="#63b8ff">2</text>
</a>
</g>
</g>
</g>
</svg>
