<?xml version="1.0" encoding="UTF-8" standalone="no"?>
<!DOCTYPE svg PUBLIC "-//W3C//DTD SVG 1.1//EN"
 "http://www.w3.org/Graphics/SVG/1.1/DTD/svg11.dtd">
<!-- Generated by graphviz version 2.43.0 (0)
 -->
<!-- Title: Source/LatteLibrary Pages: 1 -->
<svg width="247pt" height="306pt"
 viewBox="0.00 0.00 247.00 306.00" xmlns="http://www.w3.org/2000/svg" xmlns:xlink="http://www.w3.org/1999/xlink">
<g id="graph0" class="graph" transform="scale(1 1) rotate(0) translate(4 302)">
<title>Source/LatteLibrary</title>
<g id="clust1" class="cluster">
<title>clusterdir_74389ed8173ad57b461b9d623a1f3867</title>
<g id="a_clust1"><a xlink:href="dir_74389ed8173ad57b461b9d623a1f3867.html" target="_top" xlink:title="Source">
<polygon fill="#edf0f7" stroke="#404040" stroke-dasharray="5,2" points="8,-8 8,-290 231,-290 231,-8 8,-8"/>
<text text-anchor="middle" x="119.5" y="-278" font-family="Malgun Gothic" font-size="10.00">Source</text>
</a>
</g>
</g>
<g id="clust2" class="cluster">
<title>clusterdir_399370037b6f5ff6b0840148d18ec8d9</title>
<g id="a_clust2"><a xlink:href="dir_399370037b6f5ff6b0840148d18ec8d9.html" target="_top">
<polygon fill="#edf0f7" stroke="#404040" stroke-width="2" points="16,-63 16,-263 191,-263 191,-63 16,-63"/>
</a>
</g>
</g>
<!-- dir_2270f6753238979635db772f09123181 -->
<g id="node1" class="node">
<title>dir_2270f6753238979635db772f09123181</title>
<g id="a_node1"><a xlink:href="dir_2270f6753238979635db772f09123181.html" target="_top" xlink:title="CoffeeLibrary">
<polygon fill="#a2b4d6" stroke="red" points="214,-35 132,-35 132,-16 214,-16 214,-35"/>
<text text-anchor="middle" x="173" y="-23" font-family="Malgun Gothic" font-size="10.00">CoffeeLibrary</text>
</a>
</g>
</g>
<!-- dir_399370037b6f5ff6b0840148d18ec8d9 -->
<g id="node2" class="node">
<title>dir_399370037b6f5ff6b0840148d18ec8d9</title>
<text text-anchor="middle" x="146" y="-243" font-family="Malgun Gothic" font-size="10.00">LatteLibrary</text>
</g>
<!-- dir_3c114e8d16f3e538cb35f2ecdad082f2 -->
<g id="node3" class="node">
<title>dir_3c114e8d16f3e538cb35f2ecdad082f2</title>
<g id="a_node3"><a xlink:href="dir_3c114e8d16f3e538cb35f2ecdad082f2.html" target="_top" xlink:title="Character">
<polygon fill="#a2b4d6" stroke="#404040" points="90,-255 26,-255 26,-236 90,-236 90,-255"/>
<text text-anchor="middle" x="58" y="-243" font-family="Malgun Gothic" font-size="10.00">Character</text>
</a>
</g>
</g>
<!-- dir_3c114e8d16f3e538cb35f2ecdad082f2&#45;&gt;dir_2270f6753238979635db772f09123181 -->
<g id="edge2" class="edge">
<title>dir_3c114e8d16f3e538cb35f2ecdad082f2&#45;&gt;dir_2270f6753238979635db772f09123181</title>
<g id="a_edge2"><a xlink:href="dir_000002_000003.html" target="_top">
<path fill="none" stroke="#63b8ff" d="M90.07,-237.35C113.52,-230.82 144.94,-219.18 167,-200 188.34,-181.44 191.63,-172.3 199,-145 202.92,-130.47 209.53,-99.23 198,-63 195.77,-55.99 191.7,-49.11 187.49,-43.25"/>
<polygon fill="#63b8ff" stroke="#63b8ff" points="189.93,-40.7 181,-35.01 184.44,-45.03 189.93,-40.7"/>
</a>
</g>
<g id="a_edge2&#45;headlabel"><a xlink:href="dir_000002_000003.html" target="_top" xlink:title="7">
<text text-anchor="middle" x="194.39" y="-39.26" font-family="Malgun Gothic" font-size="10.00" fill="#63b8ff">7</text>
</a>
</g>
</g>
<!-- dir_b5bb1d33febf91507935d446f5884c8b -->
<g id="node5" class="node">
<title>dir_b5bb1d33febf91507935d446f5884c8b</title>
<g id="a_node5"><a xlink:href="dir_b5bb1d33febf91507935d446f5884c8b.html" target="_top" xlink:title="Data">
<polygon fill="#a2b4d6" stroke="#404040" points="111,-90 71,-90 71,-71 111,-71 111,-90"/>
<text text-anchor="middle" x="91" y="-78" font-family="Malgun Gothic" font-size="10.00">Data</text>
</a>
</g>
</g>
<!-- dir_3c114e8d16f3e538cb35f2ecdad082f2&#45;&gt;dir_b5bb1d33febf91507935d446f5884c8b -->
<g id="edge1" class="edge">
<title>dir_3c114e8d16f3e538cb35f2ecdad082f2&#45;&gt;dir_b5bb1d33febf91507935d446f5884c8b</title>
<g id="a_edge1"><a xlink:href="dir_000002_000005.html" target="_top">
<path fill="none" stroke="#63b8ff" d="M52.91,-236C41.56,-215.86 16.6,-164.12 35,-126 41.22,-113.12 53.18,-102.82 64.46,-95.38"/>
<polygon fill="#63b8ff" stroke="#63b8ff" points="66.51,-98.23 73.23,-90.04 62.87,-92.25 66.51,-98.23"/>
</a>
</g>
<g id="a_edge1&#45;headlabel"><a xlink:href="dir_000002_000005.html" target="_top" xlink:title="11">
<text text-anchor="middle" x="64.92" y="-100.03" font-family="Malgun Gothic" font-size="10.00" fill="#63b8ff">11</text>
</a>
</g>
</g>
<!-- dir_3895d977c26767e128462eaa7d00849f -->
<g id="node6" class="node">
<title>dir_3895d977c26767e128462eaa7d00849f</title>
<g id="a_node6"><a xlink:href="dir_3895d977c26767e128462eaa7d00849f.html" target="_top" xlink:title="Manager">
<polygon fill="#a2b4d6" stroke="#404040" points="103.5,-145 44.5,-145 44.5,-126 103.5,-126 103.5,-145"/>
<text text-anchor="middle" x="74" y="-133" font-family="Malgun Gothic" font-size="10.00">Manager</text>
</a>
</g>
</g>
<!-- dir_3c114e8d16f3e538cb35f2ecdad082f2&#45;&gt;dir_3895d977c26767e128462eaa7d00849f -->
<g id="edge3" class="edge">
<title>dir_3c114e8d16f3e538cb35f2ecdad082f2&#45;&gt;dir_3895d977c26767e128462eaa7d00849f</title>
<g id="a_edge3"><a xlink:href="dir_000002_000012.html" target="_top">
<path fill="none" stroke="#63b8ff" d="M55.4,-235.66C54.72,-218.09 60.16,-178.45 66.04,-154.95"/>
<polygon fill="#63b8ff" stroke="#63b8ff" points="69.45,-155.74 68.84,-145.16 62.72,-153.81 69.45,-155.74"/>
</a>
</g>
<g id="a_edge3&#45;headlabel"><a xlink:href="dir_000002_000012.html" target="_top" xlink:title="8">
<text text-anchor="middle" x="71.19" y="-157.47" font-family="Malgun Gothic" font-size="10.00" fill="#63b8ff">8</text>
</a>
</g>
</g>
<!-- dir_e087e9f775f75c5d7e3b9e5f5eaabdbd -->
<g id="node7" class="node">
<title>dir_e087e9f775f75c5d7e3b9e5f5eaabdbd</title>
<g id="a_node7"><a xlink:href="dir_e087e9f775f75c5d7e3b9e5f5eaabdbd.html" target="_top" xlink:title="Network">
<polygon fill="#a2b4d6" stroke="#404040" points="158,-200 100,-200 100,-181 158,-181 158,-200"/>
<text text-anchor="middle" x="129" y="-188" font-family="Malgun Gothic" font-size="10.00">Network</text>
</a>
</g>
</g>
<!-- dir_3c114e8d16f3e538cb35f2ecdad082f2&#45;&gt;dir_e087e9f775f75c5d7e3b9e5f5eaabdbd -->
<g id="edge4" class="edge">
<title>dir_3c114e8d16f3e538cb35f2ecdad082f2&#45;&gt;dir_e087e9f775f75c5d7e3b9e5f5eaabdbd</title>
<g id="a_edge4"><a xlink:href="dir_000002_000013.html" target="_top">
<path fill="none" stroke="#63b8ff" d="M69.41,-235.98C80.11,-228 96.34,-215.88 109.16,-206.31"/>
<polygon fill="#63b8ff" stroke="#63b8ff" points="111.47,-208.96 117.39,-200.17 107.28,-203.35 111.47,-208.96"/>
</a>
</g>
<g id="a_edge4&#45;headlabel"><a xlink:href="dir_000002_000013.html" target="_top" xlink:title="1">
<text text-anchor="middle" x="110.28" y="-210.88" font-family="Malgun Gothic" font-size="10.00" fill="#63b8ff">1</text>
</a>
</g>
</g>
<!-- dir_50ec6aae6709b88d100eb55ed3e47ab4 -->
<g id="node4" class="node">
<title>dir_50ec6aae6709b88d100eb55ed3e47ab4</title>
<g id="a_node4"><a xlink:href="dir_50ec6aae6709b88d100eb55ed3e47ab4.html" target="_top" xlink:title="Common">
<polygon fill="#a2b4d6" stroke="#404040" points="182.5,-145 121.5,-145 121.5,-126 182.5,-126 182.5,-145"/>
<text text-anchor="middle" x="152" y="-133" font-family="Malgun Gothic" font-size="10.00">Common</text>
</a>
</g>
</g>
<!-- dir_50ec6aae6709b88d100eb55ed3e47ab4&#45;&gt;dir_b5bb1d33febf91507935d446f5884c8b -->
<g id="edge5" class="edge">
<title>dir_50ec6aae6709b88d100eb55ed3e47ab4&#45;&gt;dir_b5bb1d33febf91507935d446f5884c8b</title>
<g id="a_edge5"><a xlink:href="dir_000004_000005.html" target="_top">
<path fill="none" stroke="#63b8ff" d="M142.2,-125.98C133.18,-118.15 119.59,-106.34 108.68,-96.86"/>
<polygon fill="#63b8ff" stroke="#63b8ff" points="110.82,-94.09 100.98,-90.17 106.23,-99.37 110.82,-94.09"/>
</a>
</g>
<g id="a_edge5&#45;headlabel"><a xlink:href="dir_000004_000005.html" target="_top" xlink:title="1">
<text text-anchor="middle" x="115.4" y="-91.8" font-family="Malgun Gothic" font-size="10.00" fill="#63b8ff">1</text>
</a>
</g>
</g>
<!-- dir_b5bb1d33febf91507935d446f5884c8b&#45;&gt;dir_2270f6753238979635db772f09123181 -->
<g id="edge6" class="edge">
<title>dir_b5bb1d33febf91507935d446f5884c8b&#45;&gt;dir_2270f6753238979635db772f09123181</title>
<g id="a_edge6"><a xlink:href="dir_000005_000003.html" target="_top">
<path fill="none" stroke="#63b8ff" d="M103.64,-70.67C107.29,-68.16 111.28,-65.45 115,-63 126.53,-55.41 139.52,-47.21 150.28,-40.5"/>
<polygon fill="#63b8ff" stroke="#63b8ff" points="152.42,-43.29 159.07,-35.05 148.73,-37.34 152.42,-43.29"/>
</a>
</g>
<g id="a_edge6&#45;headlabel"><a xlink:href="dir_000005_000003.html" target="_top" xlink:title="1">
<text text-anchor="middle" x="150.86" y="-45.1" font-family="Malgun Gothic" font-size="10.00" fill="#63b8ff">1</text>
</a>
</g>
</g>
<!-- dir_3895d977c26767e128462eaa7d00849f&#45;&gt;dir_2270f6753238979635db772f09123181 -->
<g id="edge7" class="edge">
<title>dir_3895d977c26767e128462eaa7d00849f&#45;&gt;dir_2270f6753238979635db772f09123181</title>
<g id="a_edge7"><a xlink:href="dir_000012_000003.html" target="_top">
<path fill="none" stroke="#63b8ff" d="M83.45,-125.91C92.95,-117.15 107.9,-103.02 120,-90 134.14,-74.79 149.22,-56.5 159.66,-43.46"/>
<polygon fill="#63b8ff" stroke="#63b8ff" points="162.6,-45.38 166.08,-35.38 157.12,-41.03 162.6,-45.38"/>
</a>
</g>
<g id="a_edge7&#45;headlabel"><a xlink:href="dir_000012_000003.html" target="_top" xlink:title="7">
<text text-anchor="middle" x="162.59" y="-47.47" font-family="Malgun Gothic" font-size="10.00" fill="#63b8ff">7</text>
</a>
</g>
</g>
<!-- dir_3895d977c26767e128462eaa7d00849f&#45;&gt;dir_3c114e8d16f3e538cb35f2ecdad082f2 -->
<g id="edge9" class="edge">
<title>dir_3895d977c26767e128462eaa7d00849f&#45;&gt;dir_3c114e8d16f3e538cb35f2ecdad082f2</title>
<g id="a_edge9"><a xlink:href="dir_000012_000002.html" target="_top">
<path fill="none" stroke="#63b8ff" d="M76.6,-145.16C77.31,-162.58 71.9,-202.2 66.02,-225.8"/>
<polygon fill="#63b8ff" stroke="#63b8ff" points="62.59,-225.09 63.22,-235.66 69.32,-227 62.59,-225.09"/>
</a>
</g>
<g id="a_edge9&#45;headlabel"><a xlink:href="dir_000012_000002.html" target="_top" xlink:title="2">
<text text-anchor="middle" x="60.84" y="-218.35" font-family="Malgun Gothic" font-size="10.00" fill="#63b8ff">2</text>
</a>
</g>
</g>
<!-- dir_3895d977c26767e128462eaa7d00849f&#45;&gt;dir_b5bb1d33febf91507935d446f5884c8b -->
<g id="edge8" class="edge">
<title>dir_3895d977c26767e128462eaa7d00849f&#45;&gt;dir_b5bb1d33febf91507935d446f5884c8b</title>
<g id="a_edge8"><a xlink:href="dir_000012_000005.html" target="_top">
<path fill="none" stroke="#63b8ff" d="M76.81,-125.75C79.06,-118.72 82.3,-108.62 85.12,-99.84"/>
<polygon fill="#63b8ff" stroke="#63b8ff" points="88.52,-100.68 88.25,-90.09 81.86,-98.54 88.52,-100.68"/>
</a>
</g>
<g id="a_edge8&#45;headlabel"><a xlink:href="dir_000012_000005.html" target="_top" xlink:title="12">
<text text-anchor="middle" x="90.13" y="-102.47" font-family="Malgun Gothic" font-size="10.00" fill="#63b8ff">12</text>
</a>
</g>
</g>
<!-- dir_e087e9f775f75c5d7e3b9e5f5eaabdbd&#45;&gt;dir_2270f6753238979635db772f09123181 -->
<g id="edge10" class="edge">
<title>dir_e087e9f775f75c5d7e3b9e5f5eaabdbd&#45;&gt;dir_2270f6753238979635db772f09123181</title>
<g id="a_edge10"><a xlink:href="dir_000013_000003.html" target="_top">
<path fill="none" stroke="#63b8ff" d="M150.15,-180.93C164.83,-173.73 183.25,-161.88 192,-145 208.94,-112.3 193.43,-68.27 182.2,-44.14"/>
<polygon fill="#63b8ff" stroke="#63b8ff" points="185.32,-42.53 177.76,-35.1 179.04,-45.62 185.32,-42.53"/>
</a>
</g>
<g id="a_edge10&#45;headlabel"><a xlink:href="dir_000013_000003.html" target="_top" xlink:title="5">
<text text-anchor="middle" x="189.45" y="-42.01" font-family="Malgun Gothic" font-size="10.00" fill="#63b8ff">5</text>
</a>
</g>
</g>
<!-- dir_e087e9f775f75c5d7e3b9e5f5eaabdbd&#45;&gt;dir_50ec6aae6709b88d100eb55ed3e47ab4 -->
<g id="edge12" class="edge">
<title>dir_e087e9f775f75c5d7e3b9e5f5eaabdbd&#45;&gt;dir_50ec6aae6709b88d100eb55ed3e47ab4</title>
<g id="a_edge12"><a xlink:href="dir_000013_000004.html" target="_top">
<path fill="none" stroke="#63b8ff" d="M132.8,-180.75C135.91,-173.57 140.42,-163.18 144.29,-154.27"/>
<polygon fill="#63b8ff" stroke="#63b8ff" points="147.5,-155.66 148.27,-145.09 141.08,-152.87 147.5,-155.66"/>
</a>
</g>
<g id="a_edge12&#45;headlabel"><a xlink:href="dir_000013_000004.html" target="_top" xlink:title="2">
<text text-anchor="middle" x="148.68" y="-157.58" font-family="Malgun Gothic" font-size="10.00" fill="#63b8ff">2</text>
</a>
</g>
</g>
<!-- dir_e087e9f775f75c5d7e3b9e5f5eaabdbd&#45;&gt;dir_3895d977c26767e128462eaa7d00849f -->
<g id="edge11" class="edge">
<title>dir_e087e9f775f75c5d7e3b9e5f5eaabdbd&#45;&gt;dir_3895d977c26767e128462eaa7d00849f</title>
<g id="a_edge11"><a xlink:href="dir_000013_000012.html" target="_top">
<path fill="none" stroke="#63b8ff" d="M119.92,-180.75C111.91,-173.03 100.04,-161.6 90.38,-152.28"/>
<polygon fill="#63b8ff" stroke="#63b8ff" points="92.54,-149.51 82.91,-145.09 87.69,-154.55 92.54,-149.51"/>
</a>
</g>
<g id="a_edge11&#45;headlabel"><a xlink:href="dir_000013_000012.html" target="_top" xlink:title="3">
<text text-anchor="middle" x="97.1" y="-147.46" font-family="Malgun Gothic" font-size="10.00" fill="#63b8ff">3</text>
</a>
</g>
</g>
</g>
</svg>
