<?xml version="1.0" encoding="UTF-8" standalone="no"?>
<!DOCTYPE svg PUBLIC "-//W3C//DTD SVG 1.1//EN"
 "http://www.w3.org/Graphics/SVG/1.1/DTD/svg11.dtd">
<!-- Generated by graphviz version 2.43.0 (0)
 -->
<!-- Title: Source/LatteLibrary Pages: 1 -->
<svg width="289pt" height="251pt"
 viewBox="0.00 0.00 289.00 251.00" xmlns="http://www.w3.org/2000/svg" xmlns:xlink="http://www.w3.org/1999/xlink">
<g id="graph0" class="graph" transform="scale(1 1) rotate(0) translate(4 247)">
<title>Source/LatteLibrary</title>
<g id="clust1" class="cluster">
<title>clusterdir_74389ed8173ad57b461b9d623a1f3867</title>
<g id="a_clust1"><a xlink:href="dir_74389ed8173ad57b461b9d623a1f3867.html" target="_top" xlink:title="Source">
<polygon fill="#edf0f7" stroke="#404040" stroke-dasharray="5,2" points="8,-8 8,-235 273,-235 273,-8 8,-8"/>
<text text-anchor="middle" x="140.5" y="-223" font-family="Malgun Gothic" font-size="10.00">Source</text>
</a>
</g>
</g>
<g id="clust2" class="cluster">
<title>clusterdir_399370037b6f5ff6b0840148d18ec8d9</title>
<g id="a_clust2"><a xlink:href="dir_399370037b6f5ff6b0840148d18ec8d9.html" target="_top">
<polygon fill="#edf0f7" stroke="#404040" stroke-width="2" points="16,-63 16,-208 265,-208 265,-63 16,-63"/>
</a>
</g>
</g>
<!-- dir_2270f6753238979635db772f09123181 -->
<g id="node1" class="node">
<title>dir_2270f6753238979635db772f09123181</title>
<g id="a_node1"><a xlink:href="dir_2270f6753238979635db772f09123181.html" target="_top" xlink:title="CoffeeLibrary">
<polygon fill="#a2b4d6" stroke="red" points="224,-35 142,-35 142,-16 224,-16 224,-35"/>
<text text-anchor="middle" x="183" y="-23" font-family="Malgun Gothic" font-size="10.00">CoffeeLibrary</text>
</a>
</g>
</g>
<!-- dir_399370037b6f5ff6b0840148d18ec8d9 -->
<g id="node2" class="node">
<title>dir_399370037b6f5ff6b0840148d18ec8d9</title>
<text text-anchor="middle" x="220" y="-188" font-family="Malgun Gothic" font-size="10.00">LatteLibrary</text>
</g>
<!-- dir_3c114e8d16f3e538cb35f2ecdad082f2 -->
<g id="node3" class="node">
<title>dir_3c114e8d16f3e538cb35f2ecdad082f2</title>
<g id="a_node3"><a xlink:href="dir_3c114e8d16f3e538cb35f2ecdad082f2.html" target="_top" xlink:title="Character">
<polygon fill="#a2b4d6" stroke="#404040" points="88,-200 24,-200 24,-181 88,-181 88,-200"/>
<text text-anchor="middle" x="56" y="-188" font-family="Malgun Gothic" font-size="10.00">Character</text>
</a>
</g>
</g>
<!-- dir_3c114e8d16f3e538cb35f2ecdad082f2&#45;&gt;dir_2270f6753238979635db772f09123181 -->
<g id="edge2" class="edge">
<title>dir_3c114e8d16f3e538cb35f2ecdad082f2&#45;&gt;dir_2270f6753238979635db772f09123181</title>
<g id="a_edge2"><a xlink:href="dir_000002_000003.html" target="_top">
<path fill="none" stroke="#63b8ff" d="M88.29,-181.06C126.49,-170.76 185.73,-153.65 192,-145 213.51,-115.33 200.84,-69.78 191.06,-44.68"/>
<polygon fill="#63b8ff" stroke="#63b8ff" points="194.23,-43.17 187.16,-35.27 187.76,-45.85 194.23,-43.17"/>
</a>
</g>
<g id="a_edge2&#45;headlabel"><a xlink:href="dir_000002_000003.html" target="_top" xlink:title="5">
<text text-anchor="middle" x="198.23" y="-42.9" font-family="Malgun Gothic" font-size="10.00" fill="#63b8ff">5</text>
</a>
</g>
</g>
<!-- dir_b5bb1d33febf91507935d446f5884c8b -->
<g id="node5" class="node">
<title>dir_b5bb1d33febf91507935d446f5884c8b</title>
<g id="a_node5"><a xlink:href="dir_b5bb1d33febf91507935d446f5884c8b.html" target="_top" xlink:title="Data">
<polygon fill="#a2b4d6" stroke="#404040" points="111,-90 71,-90 71,-71 111,-71 111,-90"/>
<text text-anchor="middle" x="91" y="-78" font-family="Malgun Gothic" font-size="10.00">Data</text>
</a>
</g>
</g>
<!-- dir_3c114e8d16f3e538cb35f2ecdad082f2&#45;&gt;dir_b5bb1d33febf91507935d446f5884c8b -->
<g id="edge1" class="edge">
<title>dir_3c114e8d16f3e538cb35f2ecdad082f2&#45;&gt;dir_b5bb1d33febf91507935d446f5884c8b</title>
<g id="a_edge1"><a xlink:href="dir_000002_000005.html" target="_top">
<path fill="none" stroke="#63b8ff" d="M48.84,-180.59C39.68,-168.04 26.02,-144.61 35,-126 41.22,-113.12 53.18,-102.82 64.46,-95.38"/>
<polygon fill="#63b8ff" stroke="#63b8ff" points="66.51,-98.23 73.23,-90.04 62.87,-92.25 66.51,-98.23"/>
</a>
</g>
<g id="a_edge1&#45;headlabel"><a xlink:href="dir_000002_000005.html" target="_top" xlink:title="11">
<text text-anchor="middle" x="64.92" y="-100.03" font-family="Malgun Gothic" font-size="10.00" fill="#63b8ff">11</text>
</a>
</g>
</g>
<!-- dir_3895d977c26767e128462eaa7d00849f -->
<g id="node6" class="node">
<title>dir_3895d977c26767e128462eaa7d00849f</title>
<g id="a_node6"><a xlink:href="dir_3895d977c26767e128462eaa7d00849f.html" target="_top" xlink:title="Manager">
<polygon fill="#a2b4d6" stroke="#404040" points="103.5,-145 44.5,-145 44.5,-126 103.5,-126 103.5,-145"/>
<text text-anchor="middle" x="74" y="-133" font-family="Malgun Gothic" font-size="10.00">Manager</text>
</a>
</g>
</g>
<!-- dir_3c114e8d16f3e538cb35f2ecdad082f2&#45;&gt;dir_3895d977c26767e128462eaa7d00849f -->
<g id="edge3" class="edge">
<title>dir_3c114e8d16f3e538cb35f2ecdad082f2&#45;&gt;dir_3895d977c26767e128462eaa7d00849f</title>
<g id="a_edge3"><a xlink:href="dir_000002_000011.html" target="_top">
<path fill="none" stroke="#63b8ff" d="M58.97,-180.75C61.36,-173.72 64.79,-163.62 67.77,-154.84"/>
<polygon fill="#63b8ff" stroke="#63b8ff" points="71.18,-155.68 71.08,-145.09 64.55,-153.43 71.18,-155.68"/>
</a>
</g>
<g id="a_edge3&#45;headlabel"><a xlink:href="dir_000002_000011.html" target="_top" xlink:title="8">
<text text-anchor="middle" x="72.71" y="-157.5" font-family="Malgun Gothic" font-size="10.00" fill="#63b8ff">8</text>
</a>
</g>
</g>
<!-- dir_50ec6aae6709b88d100eb55ed3e47ab4 -->
<g id="node4" class="node">
<title>dir_50ec6aae6709b88d100eb55ed3e47ab4</title>
<g id="a_node4"><a xlink:href="dir_50ec6aae6709b88d100eb55ed3e47ab4.html" target="_top" xlink:title="Common">
<polygon fill="#a2b4d6" stroke="#404040" points="182.5,-145 121.5,-145 121.5,-126 182.5,-126 182.5,-145"/>
<text text-anchor="middle" x="152" y="-133" font-family="Malgun Gothic" font-size="10.00">Common</text>
</a>
</g>
</g>
<!-- dir_50ec6aae6709b88d100eb55ed3e47ab4&#45;&gt;dir_b5bb1d33febf91507935d446f5884c8b -->
<g id="edge4" class="edge">
<title>dir_50ec6aae6709b88d100eb55ed3e47ab4&#45;&gt;dir_b5bb1d33febf91507935d446f5884c8b</title>
<g id="a_edge4"><a xlink:href="dir_000004_000005.html" target="_top">
<path fill="none" stroke="#63b8ff" d="M142.2,-125.98C133.18,-118.15 119.59,-106.34 108.68,-96.86"/>
<polygon fill="#63b8ff" stroke="#63b8ff" points="110.82,-94.09 100.98,-90.17 106.23,-99.37 110.82,-94.09"/>
</a>
</g>
<g id="a_edge4&#45;headlabel"><a xlink:href="dir_000004_000005.html" target="_top" xlink:title="1">
<text text-anchor="middle" x="115.4" y="-91.8" font-family="Malgun Gothic" font-size="10.00" fill="#63b8ff">1</text>
</a>
</g>
</g>
<!-- dir_b5bb1d33febf91507935d446f5884c8b&#45;&gt;dir_2270f6753238979635db772f09123181 -->
<g id="edge5" class="edge">
<title>dir_b5bb1d33febf91507935d446f5884c8b&#45;&gt;dir_2270f6753238979635db772f09123181</title>
<g id="a_edge5"><a xlink:href="dir_000005_000003.html" target="_top">
<path fill="none" stroke="#63b8ff" d="M103.04,-70.84C106.81,-68.23 111.03,-65.42 115,-63 128.4,-54.83 143.78,-46.49 156.51,-39.86"/>
<polygon fill="#63b8ff" stroke="#63b8ff" points="158.38,-42.83 165.66,-35.14 155.17,-36.61 158.38,-42.83"/>
</a>
</g>
<g id="a_edge5&#45;headlabel"><a xlink:href="dir_000005_000003.html" target="_top" xlink:title="1">
<text text-anchor="middle" x="156.48" y="-44.5" font-family="Malgun Gothic" font-size="10.00" fill="#63b8ff">1</text>
</a>
</g>
</g>
<!-- dir_3895d977c26767e128462eaa7d00849f&#45;&gt;dir_2270f6753238979635db772f09123181 -->
<g id="edge6" class="edge">
<title>dir_3895d977c26767e128462eaa7d00849f&#45;&gt;dir_2270f6753238979635db772f09123181</title>
<g id="a_edge6"><a xlink:href="dir_000011_000003.html" target="_top">
<path fill="none" stroke="#63b8ff" d="M83.22,-125.69C92.54,-116.75 107.35,-102.49 120,-90 136.29,-73.92 154.71,-55.3 167.4,-42.4"/>
<polygon fill="#63b8ff" stroke="#63b8ff" points="169.98,-44.77 174.5,-35.18 164.99,-39.86 169.98,-44.77"/>
</a>
</g>
<g id="a_edge6&#45;headlabel"><a xlink:href="dir_000011_000003.html" target="_top" xlink:title="6">
<text text-anchor="middle" x="169.49" y="-46.82" font-family="Malgun Gothic" font-size="10.00" fill="#63b8ff">6</text>
</a>
</g>
</g>
<!-- dir_3895d977c26767e128462eaa7d00849f&#45;&gt;dir_b5bb1d33febf91507935d446f5884c8b -->
<g id="edge7" class="edge">
<title>dir_3895d977c26767e128462eaa7d00849f&#45;&gt;dir_b5bb1d33febf91507935d446f5884c8b</title>
<g id="a_edge7"><a xlink:href="dir_000011_000005.html" target="_top">
<path fill="none" stroke="#63b8ff" d="M76.81,-125.75C79.06,-118.72 82.3,-108.62 85.12,-99.84"/>
<polygon fill="#63b8ff" stroke="#63b8ff" points="88.52,-100.68 88.25,-90.09 81.86,-98.54 88.52,-100.68"/>
</a>
</g>
<g id="a_edge7&#45;headlabel"><a xlink:href="dir_000011_000005.html" target="_top" xlink:title="12">
<text text-anchor="middle" x="90.13" y="-102.47" font-family="Malgun Gothic" font-size="10.00" fill="#63b8ff">12</text>
</a>
</g>
</g>
<!-- dir_e087e9f775f75c5d7e3b9e5f5eaabdbd -->
<g id="node7" class="node">
<title>dir_e087e9f775f75c5d7e3b9e5f5eaabdbd</title>
<g id="a_node7"><a xlink:href="dir_e087e9f775f75c5d7e3b9e5f5eaabdbd.html" target="_top" xlink:title="Network">
<polygon fill="#a2b4d6" stroke="#404040" points="164,-200 106,-200 106,-181 164,-181 164,-200"/>
<text text-anchor="middle" x="135" y="-188" font-family="Malgun Gothic" font-size="10.00">Network</text>
</a>
</g>
</g>
<!-- dir_e087e9f775f75c5d7e3b9e5f5eaabdbd&#45;&gt;dir_2270f6753238979635db772f09123181 -->
<g id="edge8" class="edge">
<title>dir_e087e9f775f75c5d7e3b9e5f5eaabdbd&#45;&gt;dir_2270f6753238979635db772f09123181</title>
<g id="a_edge8"><a xlink:href="dir_000012_000003.html" target="_top">
<path fill="none" stroke="#63b8ff" d="M160.85,-180.99C177.27,-174.09 197.2,-162.58 207,-145 224.75,-113.17 217.45,-97.91 207,-63 204.92,-56.04 201.03,-49.18 196.98,-43.31"/>
<polygon fill="#63b8ff" stroke="#63b8ff" points="199.55,-40.91 190.73,-35.05 193.97,-45.14 199.55,-40.91"/>
</a>
</g>
<g id="a_edge8&#45;headlabel"><a xlink:href="dir_000012_000003.html" target="_top" xlink:title="4">
<text text-anchor="middle" x="203.99" y="-39.56" font-family="Malgun Gothic" font-size="10.00" fill="#63b8ff">4</text>
</a>
</g>
</g>
<!-- dir_e087e9f775f75c5d7e3b9e5f5eaabdbd&#45;&gt;dir_50ec6aae6709b88d100eb55ed3e47ab4 -->
<g id="edge10" class="edge">
<title>dir_e087e9f775f75c5d7e3b9e5f5eaabdbd&#45;&gt;dir_50ec6aae6709b88d100eb55ed3e47ab4</title>
<g id="a_edge10"><a xlink:href="dir_000012_000004.html" target="_top">
<path fill="none" stroke="#63b8ff" d="M137.81,-180.75C140.06,-173.72 143.3,-163.62 146.12,-154.84"/>
<polygon fill="#63b8ff" stroke="#63b8ff" points="149.52,-155.68 149.25,-145.09 142.86,-153.54 149.52,-155.68"/>
</a>
</g>
<g id="a_edge10&#45;headlabel"><a xlink:href="dir_000012_000004.html" target="_top" xlink:title="2">
<text text-anchor="middle" x="151.13" y="-157.47" font-family="Malgun Gothic" font-size="10.00" fill="#63b8ff">2</text>
</a>
</g>
</g>
<!-- dir_e087e9f775f75c5d7e3b9e5f5eaabdbd&#45;&gt;dir_3895d977c26767e128462eaa7d00849f -->
<g id="edge9" class="edge">
<title>dir_e087e9f775f75c5d7e3b9e5f5eaabdbd&#45;&gt;dir_3895d977c26767e128462eaa7d00849f</title>
<g id="a_edge9"><a xlink:href="dir_000012_000011.html" target="_top">
<path fill="none" stroke="#63b8ff" d="M125.2,-180.98C116.18,-173.15 102.59,-161.34 91.68,-151.86"/>
<polygon fill="#63b8ff" stroke="#63b8ff" points="93.82,-149.09 83.98,-145.17 89.23,-154.37 93.82,-149.09"/>
</a>
</g>
<g id="a_edge9&#45;headlabel"><a xlink:href="dir_000012_000011.html" target="_top" xlink:title="3">
<text text-anchor="middle" x="98.4" y="-146.8" font-family="Malgun Gothic" font-size="10.00" fill="#63b8ff">3</text>
</a>
</g>
</g>
</g>
</svg>
