<?xml version="1.0" encoding="UTF-8" standalone="no"?>
<!DOCTYPE svg PUBLIC "-//W3C//DTD SVG 1.1//EN"
 "http://www.w3.org/Graphics/SVG/1.1/DTD/svg11.dtd">
<!-- Generated by graphviz version 2.43.0 (0)
 -->
<!-- Title: Source/YiSan/Network Pages: 1 -->
<svg width="282pt" height="180pt"
 viewBox="0.00 0.00 281.92 180.00" xmlns="http://www.w3.org/2000/svg" xmlns:xlink="http://www.w3.org/1999/xlink">
<g id="graph0" class="graph" transform="scale(1 1) rotate(0) translate(4 176)">
<title>Source/YiSan/Network</title>
<g id="clust1" class="cluster">
<title>clusterdir_9a481a88fca7fb2428f2795f507e855b</title>
<g id="a_clust1"><a xlink:href="dir_9a481a88fca7fb2428f2795f507e855b.html" target="_top" xlink:title="YiSan">
<polygon fill="#edf0f7" stroke="#7f7f7f" stroke-dasharray="5,2" points="8,-39 8,-164 168,-164 168,-39 8,-39"/>
<text text-anchor="middle" x="88" y="-152" font-family="Malgun Gothic" font-size="10.00">YiSan</text>
</a>
</g>
</g>
<g id="clust2" class="cluster">
<title>clusterdir_c2b02947111445946fd451d0a8a11573</title>
<g id="a_clust2"><a xlink:href="dir_c2b02947111445946fd451d0a8a11573.html" target="_top">
<polygon fill="#edf0f7" stroke="#404040" stroke-width="2" points="16,-47 16,-137 160,-137 160,-47 16,-47"/>
</a>
</g>
</g>
<!-- dir_c2b02947111445946fd451d0a8a11573 -->
<g id="node1" class="node">
<title>dir_c2b02947111445946fd451d0a8a11573</title>
<text text-anchor="middle" x="123" y="-117" font-family="Malgun Gothic" font-size="10.00">Network</text>
</g>
<!-- dir_76bc4cc29f491a1ea0dde0b9583d11f7 -->
<g id="node2" class="node">
<title>dir_76bc4cc29f491a1ea0dde0b9583d11f7</title>
<g id="a_node2"><a xlink:href="dir_76bc4cc29f491a1ea0dde0b9583d11f7.html" target="_top" xlink:title="Private">
<polygon fill="#a2b4d6" stroke="#404040" points="75.5,-129 24.5,-129 24.5,-110 75.5,-110 75.5,-129"/>
<text text-anchor="middle" x="50" y="-117" font-family="Malgun Gothic" font-size="10.00">Private</text>
</a>
</g>
</g>
<!-- dir_07a12a81c37ef165bc3928b2cbd96761 -->
<g id="node3" class="node">
<title>dir_07a12a81c37ef165bc3928b2cbd96761</title>
<g id="a_node3"><a xlink:href="dir_07a12a81c37ef165bc3928b2cbd96761.html" target="_top" xlink:title="Public">
<polygon fill="#a2b4d6" stroke="#404040" points="112,-74 66,-74 66,-55 112,-55 112,-74"/>
<text text-anchor="middle" x="89" y="-62" font-family="Malgun Gothic" font-size="10.00">Public</text>
</a>
</g>
</g>
<!-- dir_76bc4cc29f491a1ea0dde0b9583d11f7&#45;&gt;dir_07a12a81c37ef165bc3928b2cbd96761 -->
<g id="edge1" class="edge">
<title>dir_76bc4cc29f491a1ea0dde0b9583d11f7&#45;&gt;dir_07a12a81c37ef165bc3928b2cbd96761</title>
<g id="a_edge1"><a xlink:href="dir_000025_000037.html" target="_top">
<path fill="none" stroke="#63b8ff" d="M56.44,-109.75C61.89,-102.34 69.86,-91.5 76.56,-82.41"/>
<polygon fill="#63b8ff" stroke="#63b8ff" points="79.57,-84.22 82.68,-74.09 73.93,-80.07 79.57,-84.22"/>
</a>
</g>
<g id="a_edge1&#45;headlabel"><a xlink:href="dir_000025_000037.html" target="_top" xlink:title="9">
<text text-anchor="middle" x="79.73" y="-86.3" font-family="Malgun Gothic" font-size="10.00" fill="#63b8ff">9</text>
</a>
</g>
</g>
<!-- dir_2270f6753238979635db772f09123181 -->
<g id="node4" class="node">
<title>dir_2270f6753238979635db772f09123181</title>
<g id="a_node4"><a xlink:href="dir_2270f6753238979635db772f09123181.html" target="_top" xlink:title="CoffeeLibrary">
<polygon fill="#edf0f7" stroke="red" stroke-dasharray="5,2" points="258,-74 176,-74 176,-55 258,-55 258,-74"/>
<text text-anchor="middle" x="217" y="-62" font-family="Malgun Gothic" font-size="10.00">CoffeeLibrary</text>
</a>
</g>
</g>
<!-- dir_76bc4cc29f491a1ea0dde0b9583d11f7&#45;&gt;dir_2270f6753238979635db772f09123181 -->
<g id="edge2" class="edge">
<title>dir_76bc4cc29f491a1ea0dde0b9583d11f7&#45;&gt;dir_2270f6753238979635db772f09123181</title>
<g id="a_edge2"><a xlink:href="dir_000025_000004.html" target="_top">
<path fill="none" stroke="#63b8ff" d="M75.73,-110.33C103.72,-101.45 148.69,-87.18 180.36,-77.13"/>
<polygon fill="#63b8ff" stroke="#63b8ff" points="181.66,-80.39 190.14,-74.03 179.55,-73.71 181.66,-80.39"/>
</a>
</g>
<g id="a_edge2&#45;headlabel"><a xlink:href="dir_000025_000004.html" target="_top" xlink:title="4">
<text text-anchor="middle" x="179.1" y="-81.68" font-family="Malgun Gothic" font-size="10.00" fill="#63b8ff">4</text>
</a>
</g>
</g>
<!-- dir_399370037b6f5ff6b0840148d18ec8d9 -->
<g id="node5" class="node">
<title>dir_399370037b6f5ff6b0840148d18ec8d9</title>
<g id="a_node5"><a xlink:href="dir_399370037b6f5ff6b0840148d18ec8d9.html" target="_top" xlink:title="LatteLibrary">
<polygon fill="#edf0f7" stroke="red" stroke-dasharray="5,2" points="244.5,-19 169.5,-19 169.5,0 244.5,0 244.5,-19"/>
<text text-anchor="middle" x="207" y="-7" font-family="Malgun Gothic" font-size="10.00">LatteLibrary</text>
</a>
</g>
</g>
<!-- dir_76bc4cc29f491a1ea0dde0b9583d11f7&#45;&gt;dir_399370037b6f5ff6b0840148d18ec8d9 -->
<g id="edge3" class="edge">
<title>dir_76bc4cc29f491a1ea0dde0b9583d11f7&#45;&gt;dir_399370037b6f5ff6b0840148d18ec8d9</title>
<g id="a_edge3"><a xlink:href="dir_000025_000012.html" target="_top">
<path fill="none" stroke="#63b8ff" d="M75.58,-112.15C78.75,-111.41 81.95,-110.67 85,-110 165.53,-92.27 214.66,-137.71 267,-74 276.87,-61.98 275.31,-52.15 267,-39 262.93,-32.57 256.98,-27.56 250.37,-23.66"/>
<polygon fill="#63b8ff" stroke="#63b8ff" points="251.59,-20.36 241.08,-19.02 248.46,-26.62 251.59,-20.36"/>
</a>
</g>
<g id="a_edge3&#45;headlabel"><a xlink:href="dir_000025_000012.html" target="_top" xlink:title="3">
<text text-anchor="middle" x="256.08" y="-16.93" font-family="Malgun Gothic" font-size="10.00" fill="#63b8ff">3</text>
</a>
</g>
</g>
<!-- dir_07a12a81c37ef165bc3928b2cbd96761&#45;&gt;dir_399370037b6f5ff6b0840148d18ec8d9 -->
<g id="edge4" class="edge">
<title>dir_07a12a81c37ef165bc3928b2cbd96761&#45;&gt;dir_399370037b6f5ff6b0840148d18ec8d9</title>
<g id="a_edge4"><a xlink:href="dir_000037_000012.html" target="_top">
<path fill="none" stroke="#63b8ff" d="M107.96,-54.98C127.03,-46.42 156.66,-33.11 178.55,-23.28"/>
<polygon fill="#63b8ff" stroke="#63b8ff" points="180.01,-26.46 187.7,-19.17 177.14,-20.07 180.01,-26.46"/>
</a>
</g>
<g id="a_edge4&#45;headlabel"><a xlink:href="dir_000037_000012.html" target="_top" xlink:title="2">
<text text-anchor="middle" x="177.89" y="-28.02" font-family="Malgun Gothic" font-size="10.00" fill="#63b8ff">2</text>
</a>
</g>
</g>
</g>
</svg>
