<?xml version="1.0" encoding="UTF-8" standalone="no"?>
<!DOCTYPE svg PUBLIC "-//W3C//DTD SVG 1.1//EN"
 "http://www.w3.org/Graphics/SVG/1.1/DTD/svg11.dtd">
<!-- Generated by graphviz version 2.43.0 (0)
 -->
<!-- Title: Source/CoffeeLibrary/Features Pages: 1 -->
<svg width="185pt" height="196pt"
 viewBox="0.00 0.00 185.00 196.00" xmlns="http://www.w3.org/2000/svg" xmlns:xlink="http://www.w3.org/1999/xlink">
<g id="graph0" class="graph" transform="scale(1 1) rotate(0) translate(4 192)">
<title>Source/CoffeeLibrary/Features</title>
<g id="clust1" class="cluster">
<title>clusterdir_2270f6753238979635db772f09123181</title>
<g id="a_clust1"><a xlink:href="dir_2270f6753238979635db772f09123181.html" target="_top" xlink:title="CoffeeLibrary">
<polygon fill="#edf0f7" stroke="#7f7f7f" stroke-dasharray="5,2" points="8,-8 8,-180 169,-180 169,-8 8,-8"/>
<text text-anchor="middle" x="88.5" y="-168" font-family="Malgun Gothic" font-size="10.00">CoffeeLibrary</text>
</a>
</g>
</g>
<g id="clust2" class="cluster">
<title>clusterdir_bdb59af66e4cc8a58e36d91983bdf962</title>
<g id="a_clust2"><a xlink:href="dir_bdb59af66e4cc8a58e36d91983bdf962.html" target="_top">
<polygon fill="#edf0f7" stroke="#404040" stroke-width="2" points="16,-63 16,-153 161,-153 161,-63 16,-63"/>
</a>
</g>
</g>
<!-- dir_91f3f4f018939627454e0787c2010dec -->
<g id="node1" class="node">
<title>dir_91f3f4f018939627454e0787c2010dec</title>
<g id="a_node1"><a xlink:href="dir_91f3f4f018939627454e0787c2010dec.html" target="_top" xlink:title="Shared">
<polygon fill="#a2b4d6" stroke="red" points="94,-35 44,-35 44,-16 94,-16 94,-35"/>
<text text-anchor="middle" x="69" y="-23" font-family="Malgun Gothic" font-size="10.00">Shared</text>
</a>
</g>
</g>
<!-- dir_bdb59af66e4cc8a58e36d91983bdf962 -->
<g id="node2" class="node">
<title>dir_bdb59af66e4cc8a58e36d91983bdf962</title>
<text text-anchor="middle" x="123" y="-133" font-family="Malgun Gothic" font-size="10.00">Features</text>
</g>
<!-- dir_7b9937ea1401d072157412173f027791 -->
<g id="node3" class="node">
<title>dir_7b9937ea1401d072157412173f027791</title>
<g id="a_node3"><a xlink:href="dir_7b9937ea1401d072157412173f027791.html" target="_top" xlink:title="Private">
<polygon fill="#a2b4d6" stroke="#404040" points="75.5,-145 24.5,-145 24.5,-126 75.5,-126 75.5,-145"/>
<text text-anchor="middle" x="50" y="-133" font-family="Malgun Gothic" font-size="10.00">Private</text>
</a>
</g>
</g>
<!-- dir_7b9937ea1401d072157412173f027791&#45;&gt;dir_91f3f4f018939627454e0787c2010dec -->
<g id="edge2" class="edge">
<title>dir_7b9937ea1401d072157412173f027791&#45;&gt;dir_91f3f4f018939627454e0787c2010dec</title>
<g id="a_edge2"><a xlink:href="dir_000015_000034.html" target="_top">
<path fill="none" stroke="#63b8ff" d="M58.21,-125.8C65.54,-117.38 75.75,-103.9 80,-90 84.55,-75.12 80.91,-57.67 76.64,-44.83"/>
<polygon fill="#63b8ff" stroke="#63b8ff" points="79.85,-43.43 73.06,-35.29 73.29,-45.88 79.85,-43.43"/>
</a>
</g>
<g id="a_edge2&#45;headlabel"><a xlink:href="dir_000015_000034.html" target="_top" xlink:title="1">
<text text-anchor="middle" x="83.77" y="-43.3" font-family="Malgun Gothic" font-size="10.00" fill="#63b8ff">1</text>
</a>
</g>
</g>
<!-- dir_4471e61838d7f432f5552df1230e81d8 -->
<g id="node4" class="node">
<title>dir_4471e61838d7f432f5552df1230e81d8</title>
<g id="a_node4"><a xlink:href="dir_4471e61838d7f432f5552df1230e81d8.html" target="_top" xlink:title="Public">
<polygon fill="#a2b4d6" stroke="#404040" points="71,-90 25,-90 25,-71 71,-71 71,-90"/>
<text text-anchor="middle" x="48" y="-78" font-family="Malgun Gothic" font-size="10.00">Public</text>
</a>
</g>
</g>
<!-- dir_7b9937ea1401d072157412173f027791&#45;&gt;dir_4471e61838d7f432f5552df1230e81d8 -->
<g id="edge1" class="edge">
<title>dir_7b9937ea1401d072157412173f027791&#45;&gt;dir_4471e61838d7f432f5552df1230e81d8</title>
<g id="a_edge1"><a xlink:href="dir_000015_000024.html" target="_top">
<path fill="none" stroke="#63b8ff" d="M49.67,-125.75C49.41,-118.8 49.03,-108.85 48.7,-100.13"/>
<polygon fill="#63b8ff" stroke="#63b8ff" points="52.2,-99.95 48.32,-90.09 45.2,-100.21 52.2,-99.95"/>
</a>
</g>
<g id="a_edge1&#45;headlabel"><a xlink:href="dir_000015_000024.html" target="_top" xlink:title="4">
<text text-anchor="middle" x="55.17" y="-100.93" font-family="Malgun Gothic" font-size="10.00" fill="#63b8ff">4</text>
</a>
</g>
</g>
<!-- dir_4471e61838d7f432f5552df1230e81d8&#45;&gt;dir_91f3f4f018939627454e0787c2010dec -->
<g id="edge3" class="edge">
<title>dir_4471e61838d7f432f5552df1230e81d8&#45;&gt;dir_91f3f4f018939627454e0787c2010dec</title>
<g id="a_edge3"><a xlink:href="dir_000024_000034.html" target="_top">
<path fill="none" stroke="#63b8ff" d="M51.47,-70.75C54.28,-63.65 58.34,-53.4 61.85,-44.56"/>
<polygon fill="#63b8ff" stroke="#63b8ff" points="65.17,-45.68 65.6,-35.09 58.66,-43.1 65.17,-45.68"/>
</a>
</g>
<g id="a_edge3&#45;headlabel"><a xlink:href="dir_000024_000034.html" target="_top" xlink:title="2">
<text text-anchor="middle" x="66.48" y="-47.56" font-family="Malgun Gothic" font-size="10.00" fill="#63b8ff">2</text>
</a>
</g>
</g>
</g>
</svg>
