<?xml version="1.0" encoding="UTF-8" standalone="no"?>
<!DOCTYPE svg PUBLIC "-//W3C//DTD SVG 1.1//EN"
 "http://www.w3.org/Graphics/SVG/1.1/DTD/svg11.dtd">
<!-- Generated by graphviz version 2.43.0 (0)
 -->
<!-- Title: Source/LatteLibrary/Data/Public/EBodyPartType.h Pages: 1 -->
<svg width="1093pt" height="269pt"
 viewBox="0.00 0.00 1093.00 269.00" xmlns="http://www.w3.org/2000/svg" xmlns:xlink="http://www.w3.org/1999/xlink">
<g id="graph0" class="graph" transform="scale(1 1) rotate(0) translate(4 265)">
<title>Source/LatteLibrary/Data/Public/EBodyPartType.h</title>
<!-- Node1 -->
<g id="Node000001" class="node">
<title>Node1</title>
<g id="a_Node000001"><a xlink:title="EBodyPartType 열거형에 대한 Doxygen 주석을 제공합니다.">
<polygon fill="#999999" stroke="#666666" points="623.5,-261 464.5,-261 464.5,-231 623.5,-231 623.5,-261"/>
<text text-anchor="start" x="472.5" y="-249" font-family="Malgun Gothic" font-size="10.00">Source/LatteLibrary</text>
<text text-anchor="middle" x="544" y="-238" font-family="Malgun Gothic" font-size="10.00">/Data/Public/EBodyPartType.h</text>
</a>
</g>
</g>
<!-- Node2 -->
<g id="Node000002" class="node">
<title>Node2</title>
<g id="a_Node000002"><a xlink:href="ALatteGameCharacter_8h.html" target="_top" xlink:title=" ">
<polygon fill="white" stroke="#666666" points="625.5,-195 462.5,-195 462.5,-154 625.5,-154 625.5,-195"/>
<text text-anchor="start" x="470.5" y="-183" font-family="Malgun Gothic" font-size="10.00">Source/LatteLibrary</text>
<text text-anchor="start" x="470.5" y="-172" font-family="Malgun Gothic" font-size="10.00">/Character/Public/ALatteGame</text>
<text text-anchor="middle" x="544" y="-161" font-family="Malgun Gothic" font-size="10.00">Character.h</text>
</a>
</g>
</g>
<!-- Node1&#45;&gt;Node2 -->
<g id="edge1_Node000001_Node000002" class="edge">
<title>Node1&#45;&gt;Node2</title>
<g id="a_edge1_Node000001_Node000002"><a xlink:title=" ">
<path fill="none" stroke="#63b8ff" d="M544,-220.91C544,-212.47 544,-203.1 544,-195.07"/>
<polygon fill="#63b8ff" stroke="#63b8ff" points="540.5,-220.94 544,-230.94 547.5,-220.94 540.5,-220.94"/>
</a>
</g>
</g>
<!-- Node3 -->
<g id="Node000003" class="node">
<title>Node3</title>
<g id="a_Node000003"><a xlink:href="ALatteGameCharacter_8cpp.html" target="_top" xlink:title=" ">
<polygon fill="white" stroke="#666666" points="168,-118 0,-118 0,-77 168,-77 168,-118"/>
<text text-anchor="start" x="8" y="-106" font-family="Malgun Gothic" font-size="10.00">Source/LatteLibrary</text>
<text text-anchor="start" x="8" y="-95" font-family="Malgun Gothic" font-size="10.00">/Character/Private/ALatteGame</text>
<text text-anchor="middle" x="84" y="-84" font-family="Malgun Gothic" font-size="10.00">Character.cpp</text>
</a>
</g>
</g>
<!-- Node2&#45;&gt;Node3 -->
<g id="edge2_Node000002_Node000003" class="edge">
<title>Node2&#45;&gt;Node3</title>
<g id="a_edge2_Node000002_Node000003"><a xlink:title=" ">
<path fill="none" stroke="#63b8ff" d="M452.14,-160.97C377.99,-150.52 271.04,-134.69 178,-118 174.72,-117.41 171.38,-116.8 168,-116.16"/>
<polygon fill="#63b8ff" stroke="#63b8ff" points="452,-164.49 462.39,-162.41 452.97,-157.56 452,-164.49"/>
</a>
</g>
</g>
<!-- Node4 -->
<g id="Node000004" class="node">
<title>Node4</title>
<g id="a_Node000004"><a xlink:href="UCameraShakeSystem_8cpp.html" target="_top" xlink:title="UCameraShakeSystem 구현에 대한 Doxygen 주석을 제공합니다.">
<polygon fill="white" stroke="#666666" points="339.5,-118 186.5,-118 186.5,-77 339.5,-77 339.5,-118"/>
<text text-anchor="start" x="194.5" y="-106" font-family="Malgun Gothic" font-size="10.00">Source/LatteLibrary</text>
<text text-anchor="start" x="194.5" y="-95" font-family="Malgun Gothic" font-size="10.00">/Character/Private/UCamera</text>
<text text-anchor="middle" x="263" y="-84" font-family="Malgun Gothic" font-size="10.00">ShakeSystem.cpp</text>
</a>
</g>
</g>
<!-- Node2&#45;&gt;Node4 -->
<g id="edge3_Node000002_Node000004" class="edge">
<title>Node2&#45;&gt;Node4</title>
<g id="a_edge3_Node000002_Node000004"><a xlink:title=" ">
<path fill="none" stroke="#63b8ff" d="M461.01,-151.35C421.42,-140.78 374.46,-128.25 336.22,-118.04"/>
<polygon fill="#63b8ff" stroke="#63b8ff" points="460.34,-154.79 470.9,-153.99 462.14,-148.03 460.34,-154.79"/>
</a>
</g>
</g>
<!-- Node5 -->
<g id="Node000005" class="node">
<title>Node5</title>
<g id="a_Node000005"><a xlink:href="UFlySystem_8cpp.html" target="_top" xlink:title="UFlySystem 구현에 대한 Doxygen 주석을 제공합니다.">
<polygon fill="white" stroke="#666666" points="544.5,-112.5 357.5,-112.5 357.5,-82.5 544.5,-82.5 544.5,-112.5"/>
<text text-anchor="start" x="365.5" y="-100.5" font-family="Malgun Gothic" font-size="10.00">Source/LatteLibrary</text>
<text text-anchor="middle" x="451" y="-89.5" font-family="Malgun Gothic" font-size="10.00">/Character/Private/UFlySystem.cpp</text>
</a>
</g>
</g>
<!-- Node2&#45;&gt;Node5 -->
<g id="edge4_Node000002_Node000005" class="edge">
<title>Node2&#45;&gt;Node5</title>
<g id="a_edge4_Node000002_Node000005"><a xlink:title=" ">
<path fill="none" stroke="#63b8ff" d="M511.75,-147.5C497.24,-135.79 480.68,-122.44 468.52,-112.63"/>
<polygon fill="#63b8ff" stroke="#63b8ff" points="509.58,-150.24 519.57,-153.79 513.98,-144.79 509.58,-150.24"/>
</a>
</g>
</g>
<!-- Node6 -->
<g id="Node000006" class="node">
<title>Node6</title>
<g id="a_Node000006"><a xlink:href="UHitStopSystem_8cpp.html" target="_top" xlink:title="UHitStopSystem 구현에 대한 Doxygen 주석을 제공합니다.">
<polygon fill="white" stroke="#666666" points="713.5,-118 562.5,-118 562.5,-77 713.5,-77 713.5,-118"/>
<text text-anchor="start" x="570.5" y="-106" font-family="Malgun Gothic" font-size="10.00">Source/LatteLibrary</text>
<text text-anchor="start" x="570.5" y="-95" font-family="Malgun Gothic" font-size="10.00">/Character/Private/UHitStop</text>
<text text-anchor="middle" x="638" y="-84" font-family="Malgun Gothic" font-size="10.00">System.cpp</text>
</a>
</g>
</g>
<!-- Node2&#45;&gt;Node6 -->
<g id="edge5_Node000002_Node000006" class="edge">
<title>Node2&#45;&gt;Node6</title>
<g id="a_edge5_Node000002_Node000006"><a xlink:title=" ">
<path fill="none" stroke="#63b8ff" d="M576.78,-147.35C588.83,-137.73 602.26,-127.01 613.47,-118.07"/>
<polygon fill="#63b8ff" stroke="#63b8ff" points="574.33,-144.82 568.7,-153.79 578.7,-150.29 574.33,-144.82"/>
</a>
</g>
</g>
<!-- Node7 -->
<g id="Node000007" class="node">
<title>Node7</title>
<g id="a_Node000007"><a xlink:href="UKnockbackSystem_8cpp.html" target="_top" xlink:title="UKnockbackSystem 구현에 대한 Doxygen 주석을 제공합니다.">
<polygon fill="white" stroke="#666666" points="900,-118 732,-118 732,-77 900,-77 900,-118"/>
<text text-anchor="start" x="740" y="-106" font-family="Malgun Gothic" font-size="10.00">Source/LatteLibrary</text>
<text text-anchor="start" x="740" y="-95" font-family="Malgun Gothic" font-size="10.00">/Character/Private/UKnockback</text>
<text text-anchor="middle" x="816" y="-84" font-family="Malgun Gothic" font-size="10.00">System.cpp</text>
</a>
</g>
</g>
<!-- Node2&#45;&gt;Node7 -->
<g id="edge6_Node000002_Node000007" class="edge">
<title>Node2&#45;&gt;Node7</title>
<g id="a_edge6_Node000002_Node000007"><a xlink:title=" ">
<path fill="none" stroke="#63b8ff" d="M624.82,-151.21C663.04,-140.68 708.26,-128.21 745.13,-118.04"/>
<polygon fill="#63b8ff" stroke="#63b8ff" points="623.46,-147.96 614.75,-153.99 625.33,-154.71 623.46,-147.96"/>
</a>
</g>
</g>
<!-- Node8 -->
<g id="Node000008" class="node">
<title>Node8</title>
<g id="a_Node000008"><a xlink:href="ALattePlayerCharacter_8h.html" target="_top" xlink:title=" ">
<polygon fill="white" stroke="#666666" points="1082,-118 918,-118 918,-77 1082,-77 1082,-118"/>
<text text-anchor="start" x="926" y="-106" font-family="Malgun Gothic" font-size="10.00">Source/LatteLibrary</text>
<text text-anchor="start" x="926" y="-95" font-family="Malgun Gothic" font-size="10.00">/Character/Public/ALattePlayer</text>
<text text-anchor="middle" x="1000" y="-84" font-family="Malgun Gothic" font-size="10.00">Character.h</text>
</a>
</g>
</g>
<!-- Node2&#45;&gt;Node8 -->
<g id="edge7_Node000002_Node000008" class="edge">
<title>Node2&#45;&gt;Node8</title>
<g id="a_edge7_Node000002_Node000008"><a xlink:title=" ">
<path fill="none" stroke="#63b8ff" d="M635.99,-161.07C709.95,-150.71 816.42,-134.94 909,-118 911.86,-117.48 914.77,-116.93 917.7,-116.37"/>
<polygon fill="#63b8ff" stroke="#63b8ff" points="635.2,-157.65 625.78,-162.5 636.17,-164.58 635.2,-157.65"/>
</a>
</g>
</g>
<!-- Node9 -->
<g id="Node000009" class="node">
<title>Node9</title>
<g id="a_Node000009"><a xlink:href="ALattePlayerCharacter_8cpp.html" target="_top" xlink:title=" ">
<polygon fill="white" stroke="#666666" points="1085,-41 915,-41 915,0 1085,0 1085,-41"/>
<text text-anchor="start" x="923" y="-29" font-family="Malgun Gothic" font-size="10.00">Source/LatteLibrary</text>
<text text-anchor="start" x="923" y="-18" font-family="Malgun Gothic" font-size="10.00">/Character/Private/ALattePlayer</text>
<text text-anchor="middle" x="1000" y="-7" font-family="Malgun Gothic" font-size="10.00">Character.cpp</text>
</a>
</g>
</g>
<!-- Node8&#45;&gt;Node9 -->
<g id="edge8_Node000008_Node000009" class="edge">
<title>Node8&#45;&gt;Node9</title>
<g id="a_edge8_Node000008_Node000009"><a xlink:title=" ">
<path fill="none" stroke="#63b8ff" d="M1000,-66.69C1000,-58.08 1000,-48.9 1000,-41.07"/>
<polygon fill="#63b8ff" stroke="#63b8ff" points="996.5,-66.79 1000,-76.79 1003.5,-66.79 996.5,-66.79"/>
</a>
</g>
</g>
</g>
</svg>
