<?xml version="1.0" encoding="UTF-8" standalone="no"?>
<!DOCTYPE svg PUBLIC "-//W3C//DTD SVG 1.1//EN"
 "http://www.w3.org/Graphics/SVG/1.1/DTD/svg11.dtd">
<!-- Generated by graphviz version 2.43.0 (0)
 -->
<!-- Title: Source/LatteLibrary/Data/Public/EBodyPartType.h Pages: 1 -->
<!--zoomable 258 -->

<svg id="main" version="1.1" xmlns="http://www.w3.org/2000/svg" xmlns:xlink="http://www.w3.org/1999/xlink" xml:space="preserve" onload="init(evt)">
<style type="text/css"><![CDATA[
.node, .edge {opacity: 0.7;}
.node.selected, .edge.selected {opacity: 1;}
.edge:hover path { stroke: red; }
.edge:hover polygon { stroke: red; fill: red; }
]]></style>

<defs>
  <circle id="rim" cx="0" cy="0" r="7"/>
  <circle id="rim2" cx="0" cy="0" r="3.5"/>
  <g id="zoomPlus">
    <use xlink:href="#rim" fill="#404040"><set attributeName="fill" to="#808080" begin="zoomplus.mouseover" end="zoomplus.mouseout"/></use>
    <path d="M-4,0h8M0,-4v8" fill="none" stroke="white" stroke-width="1.5" pointer-events="none"/>
  </g>
  <g id="zoomMin">
    <use xlink:href="#rim" fill="#404040"><set attributeName="fill" to="#808080" begin="zoomminus.mouseover" end="zoomminus.mouseout"/></use>
    <path d="M-4,0h8" fill="none" stroke="white" stroke-width="1.5" pointer-events="none"/>
  </g>
  <g id="arrowUp" transform="translate(30 24)">
    <use xlink:href="#rim"/>
    <path pointer-events="none" fill="none" stroke="white" stroke-width="1.5" d="M0,-3.0v7 M-2.5,-0.5L0,-3.0L2.5,-0.5"/>
  </g>
  <g id="arrowRight" transform="rotate(90) translate(36 -43)">
    <use xlink:href="#rim"/>
    <path pointer-events="none" fill="none" stroke="white" stroke-width="1.5" d="M0,-3.0v7 M-2.5,-0.5L0,-3.0L2.5,-0.5"/>
  </g>
  <g id="arrowDown" transform="rotate(180) translate(-30 -48)">
    <use xlink:href="#rim"/>
    <path pointer-events="none" fill="none" stroke="white" stroke-width="1.5" d="M0,-3.0v7 M-2.5,-0.5L0,-3.0L2.5,-0.5"/>
  </g>
  <g id="arrowLeft" transform="rotate(270) translate(-36 17)">
    <use xlink:href="#rim"/>
    <path pointer-events="none" fill="none" stroke="white" stroke-width="1.5" d="M0,-3.0v7 M-2.5,-0.5L0,-3.0L2.5,-0.5"/>
  </g>
  <g id="resetDef">
    <use xlink:href="#rim2" fill="#404040"><set attributeName="fill" to="#808080" begin="reset.mouseover" end="reset.mouseout"/></use>
  </g>
</defs>
<script type="application/ecmascript">
var viewWidth = 1317;
var viewHeight = 258;
var sectionId = 'dynsection-0';
</script>
<script type="application/ecmascript" xlink:href="svg.min.js"/>
<svg id="graph" class="graph">
<g id="viewport">
<title>Source/LatteLibrary/Data/Public/EBodyPartType.h</title>
<!-- Node1 -->
<g id="Node000001" class="node">
<title>Node1</title>
<g id="a_Node000001"><a xlink:title="EBodyPartType 열거형에 대한 Doxygen 주석을 제공합니다.">
<polygon fill="#999999" stroke="#666666" points="665.5,-250 506.5,-250 506.5,-220 665.5,-220 665.5,-250"/>
<text text-anchor="start" x="514.5" y="-238" font-family="Malgun Gothic" font-size="10.00">Source/LatteLibrary</text>
<text text-anchor="middle" x="586" y="-227" font-family="Malgun Gothic" font-size="10.00">/Data/Public/EBodyPartType.h</text>
</a>
</g>
</g>
<!-- Node2 -->
<g id="Node000002" class="node">
<title>Node2</title>
<g id="a_Node000002"><a xlink:href="AGameCharacter_8h.html" target="_top" xlink:title="LatteLibrary 전반에서 사용하는 기반 캐릭터 클래스를 선언합니다.">
<polygon fill="white" stroke="#666666" points="683,-184 489,-184 489,-154 683,-154 683,-184"/>
<text text-anchor="start" x="497" y="-172" font-family="Malgun Gothic" font-size="10.00">Source/LatteLibrary</text>
<text text-anchor="middle" x="586" y="-161" font-family="Malgun Gothic" font-size="10.00">/Character/Public/AGameCharacter.h</text>
</a>
</g>
</g>
<!-- Node1&#45;&gt;Node2 -->
<g id="edge1_Node000001_Node000002" class="edge">
<title>Node1&#45;&gt;Node2</title>
<g id="a_edge1_Node000001_Node000002"><a xlink:title=" ">
<path fill="none" stroke="#63b8ff" d="M586,-209.54C586,-200.96 586,-191.61 586,-184.16"/>
<polygon fill="#63b8ff" stroke="#63b8ff" points="582.5,-209.8 586,-219.8 589.5,-209.8 582.5,-209.8"/>
</a>
</g>
</g>
<!-- Node3 -->
<g id="Node000003" class="node">
<title>Node3</title>
<g id="a_Node000003"><a xlink:href="AGameCharacter_8cpp.html" target="_top" xlink:title="AGameCharacter 구현에 대한 Doxygen 주석을 제공합니다.">
<polygon fill="white" stroke="#666666" points="210,-112.5 0,-112.5 0,-82.5 210,-82.5 210,-112.5"/>
<text text-anchor="start" x="8" y="-100.5" font-family="Malgun Gothic" font-size="10.00">Source/LatteLibrary</text>
<text text-anchor="middle" x="105" y="-89.5" font-family="Malgun Gothic" font-size="10.00">/Character/Private/AGameCharacter.cpp</text>
</a>
</g>
</g>
<!-- Node2&#45;&gt;Node3 -->
<g id="edge2_Node000002_Node000003" class="edge">
<title>Node2&#45;&gt;Node3</title>
<g id="a_edge2_Node000002_Node000003"><a xlink:title=" ">
<path fill="none" stroke="#63b8ff" d="M478.74,-154.36C405.48,-144.81 306.26,-131.4 219,-118 207.99,-116.31 196.39,-114.43 184.98,-112.53"/>
<polygon fill="#63b8ff" stroke="#63b8ff" points="478.53,-157.87 488.9,-155.69 479.43,-150.92 478.53,-157.87"/>
</a>
</g>
</g>
<!-- Node4 -->
<g id="Node000004" class="node">
<title>Node4</title>
<g id="a_Node000004"><a xlink:href="UCameraShakeSystem_8cpp.html" target="_top" xlink:title="UCameraShakeSystem 구현에 대한 Doxygen 주석을 제공합니다.">
<polygon fill="white" stroke="#666666" points="381.5,-118 228.5,-118 228.5,-77 381.5,-77 381.5,-118"/>
<text text-anchor="start" x="236.5" y="-106" font-family="Malgun Gothic" font-size="10.00">Source/LatteLibrary</text>
<text text-anchor="start" x="236.5" y="-95" font-family="Malgun Gothic" font-size="10.00">/Character/Private/UCamera</text>
<text text-anchor="middle" x="305" y="-84" font-family="Malgun Gothic" font-size="10.00">ShakeSystem.cpp</text>
</a>
</g>
</g>
<!-- Node2&#45;&gt;Node4 -->
<g id="edge3_Node000002_Node000004" class="edge">
<title>Node2&#45;&gt;Node4</title>
<g id="a_edge3_Node000002_Node000004"><a xlink:title=" ">
<path fill="none" stroke="#63b8ff" d="M519.18,-151.47C477.89,-141.26 424.76,-128.12 381.75,-117.48"/>
<polygon fill="#63b8ff" stroke="#63b8ff" points="518.59,-154.93 529.14,-153.94 520.27,-148.14 518.59,-154.93"/>
</a>
</g>
</g>
<!-- Node5 -->
<g id="Node000005" class="node">
<title>Node5</title>
<g id="a_Node000005"><a xlink:href="UFlySystem_8cpp.html" target="_top" xlink:title="UFlySystem 구현에 대한 Doxygen 주석을 제공합니다.">
<polygon fill="white" stroke="#666666" points="586.5,-112.5 399.5,-112.5 399.5,-82.5 586.5,-82.5 586.5,-112.5"/>
<text text-anchor="start" x="407.5" y="-100.5" font-family="Malgun Gothic" font-size="10.00">Source/LatteLibrary</text>
<text text-anchor="middle" x="493" y="-89.5" font-family="Malgun Gothic" font-size="10.00">/Character/Private/UFlySystem.cpp</text>
</a>
</g>
</g>
<!-- Node2&#45;&gt;Node5 -->
<g id="edge4_Node000002_Node000005" class="edge">
<title>Node2&#45;&gt;Node5</title>
<g id="a_edge4_Node000002_Node000005"><a xlink:title=" ">
<path fill="none" stroke="#63b8ff" d="M559.16,-147.94C543.99,-136.6 525.4,-122.71 511.79,-112.54"/>
<polygon fill="#63b8ff" stroke="#63b8ff" points="557.07,-150.75 567.18,-153.94 561.26,-145.15 557.07,-150.75"/>
</a>
</g>
</g>
<!-- Node6 -->
<g id="Node000006" class="node">
<title>Node6</title>
<g id="a_Node000006"><a xlink:href="UHitStopSystem_8cpp.html" target="_top" xlink:title="UHitStopSystem 구현에 대한 Doxygen 주석을 제공합니다.">
<polygon fill="white" stroke="#666666" points="755.5,-118 604.5,-118 604.5,-77 755.5,-77 755.5,-118"/>
<text text-anchor="start" x="612.5" y="-106" font-family="Malgun Gothic" font-size="10.00">Source/LatteLibrary</text>
<text text-anchor="start" x="612.5" y="-95" font-family="Malgun Gothic" font-size="10.00">/Character/Private/UHitStop</text>
<text text-anchor="middle" x="680" y="-84" font-family="Malgun Gothic" font-size="10.00">System.cpp</text>
</a>
</g>
</g>
<!-- Node2&#45;&gt;Node6 -->
<g id="edge5_Node000002_Node000006" class="edge">
<title>Node2&#45;&gt;Node6</title>
<g id="a_edge5_Node000002_Node000006"><a xlink:title=" ">
<path fill="none" stroke="#63b8ff" d="M613.35,-147.77C626.01,-138.42 640.98,-127.35 653.53,-118.07"/>
<polygon fill="#63b8ff" stroke="#63b8ff" points="610.98,-145.18 605.02,-153.94 615.14,-150.8 610.98,-145.18"/>
</a>
</g>
</g>
<!-- Node7 -->
<g id="Node000007" class="node">
<title>Node7</title>
<g id="a_Node000007"><a xlink:href="UKnockbackSystem_8cpp.html" target="_top" xlink:title="UKnockbackSystem 구현에 대한 Doxygen 주석을 제공합니다.">
<polygon fill="white" stroke="#666666" points="942,-118 774,-118 774,-77 942,-77 942,-118"/>
<text text-anchor="start" x="782" y="-106" font-family="Malgun Gothic" font-size="10.00">Source/LatteLibrary</text>
<text text-anchor="start" x="782" y="-95" font-family="Malgun Gothic" font-size="10.00">/Character/Private/UKnockback</text>
<text text-anchor="middle" x="858" y="-84" font-family="Malgun Gothic" font-size="10.00">System.cpp</text>
</a>
</g>
</g>
<!-- Node2&#45;&gt;Node7 -->
<g id="edge6_Node000002_Node000007" class="edge">
<title>Node2&#45;&gt;Node7</title>
<g id="a_edge6_Node000002_Node000007"><a xlink:title=" ">
<path fill="none" stroke="#63b8ff" d="M650.78,-151.45C690.08,-141.41 740.43,-128.54 781.65,-118.01"/>
<polygon fill="#63b8ff" stroke="#63b8ff" points="649.87,-148.07 641.04,-153.94 651.6,-154.85 649.87,-148.07"/>
</a>
</g>
</g>
<!-- Node8 -->
<g id="Node000008" class="node">
<title>Node8</title>
<g id="a_Node000008"><a xlink:href="APlayerActor_8h.html" target="_top" xlink:title="APlayerActor 선언에 대한 Doxygen 주석을 제공합니다.">
<polygon fill="white" stroke="#666666" points="1133.5,-112.5 960.5,-112.5 960.5,-82.5 1133.5,-82.5 1133.5,-112.5"/>
<text text-anchor="start" x="968.5" y="-100.5" font-family="Malgun Gothic" font-size="10.00">Source/LatteLibrary</text>
<text text-anchor="middle" x="1047" y="-89.5" font-family="Malgun Gothic" font-size="10.00">/Character/Public/APlayerActor.h</text>
</a>
</g>
</g>
<!-- Node2&#45;&gt;Node8 -->
<g id="edge7_Node000002_Node000008" class="edge">
<title>Node2&#45;&gt;Node8</title>
<g id="a_edge7_Node000002_Node000008"><a xlink:title=" ">
<path fill="none" stroke="#63b8ff" d="M693.2,-155.16C766.08,-145.97 864.58,-132.68 951,-118 960.64,-116.36 970.79,-114.48 980.74,-112.54"/>
<polygon fill="#63b8ff" stroke="#63b8ff" points="692.58,-151.71 683.09,-156.42 693.45,-158.65 692.58,-151.71"/>
</a>
</g>
</g>
<!-- Node9 -->
<g id="Node000009" class="node">
<title>Node9</title>
<g id="a_Node000009"><a xlink:href="APlayerActor_8cpp.html" target="_top" xlink:title="APlayerActor 구현에 대한 Doxygen 주석을 제공합니다.">
<polygon fill="white" stroke="#666666" points="916.5,-41 771.5,-41 771.5,0 916.5,0 916.5,-41"/>
<text text-anchor="start" x="779.5" y="-29" font-family="Malgun Gothic" font-size="10.00">Source/LatteLibrary</text>
<text text-anchor="start" x="779.5" y="-18" font-family="Malgun Gothic" font-size="10.00">/Character/Private/APlayer</text>
<text text-anchor="middle" x="844" y="-7" font-family="Malgun Gothic" font-size="10.00">Actor.cpp</text>
</a>
</g>
</g>
<!-- Node8&#45;&gt;Node9 -->
<g id="edge8_Node000008_Node000009" class="edge">
<title>Node8&#45;&gt;Node9</title>
<g id="a_edge8_Node000008_Node000009"><a xlink:title=" ">
<path fill="none" stroke="#63b8ff" d="M999.2,-78.84C968.5,-67.5 928.6,-52.76 896.95,-41.06"/>
<polygon fill="#63b8ff" stroke="#63b8ff" points="998.22,-82.21 1008.82,-82.39 1000.65,-75.64 998.22,-82.21"/>
</a>
</g>
</g>
<!-- Node10 -->
<g id="Node000010" class="node">
<title>Node10</title>
<g id="a_Node000010"><a xlink:href="YiSanVoiceConsoleSubsystem_8cpp.html" target="_top" xlink:title=" ">
<polygon fill="white" stroke="#666666" points="1159,-35.5 935,-35.5 935,-5.5 1159,-5.5 1159,-35.5"/>
<text text-anchor="start" x="943" y="-23.5" font-family="Malgun Gothic" font-size="10.00">Source/YiSan/Environment</text>
<text text-anchor="middle" x="1047" y="-12.5" font-family="Malgun Gothic" font-size="10.00">/Private/YiSanVoiceConsoleSubsystem.cpp</text>
</a>
</g>
</g>
<!-- Node8&#45;&gt;Node10 -->
<g id="edge9_Node000008_Node000010" class="edge">
<title>Node8&#45;&gt;Node10</title>
<g id="a_edge9_Node000008_Node000010"><a xlink:title=" ">
<path fill="none" stroke="#63b8ff" d="M1047,-72.04C1047,-59.95 1047,-45.79 1047,-35.54"/>
<polygon fill="#63b8ff" stroke="#63b8ff" points="1043.5,-72.39 1047,-82.39 1050.5,-72.39 1043.5,-72.39"/>
</a>
</g>
</g>
<!-- Node11 -->
<g id="Node000011" class="node">
<title>Node11</title>
<g id="a_Node000011"><a xlink:href="UMainWdget_8cpp.html" target="_top" xlink:title=" ">
<polygon fill="white" stroke="#666666" points="1308.5,-35.5 1177.5,-35.5 1177.5,-5.5 1308.5,-5.5 1308.5,-35.5"/>
<text text-anchor="start" x="1185.5" y="-23.5" font-family="Malgun Gothic" font-size="10.00">Source/YiSan/UI/Private</text>
<text text-anchor="middle" x="1243" y="-12.5" font-family="Malgun Gothic" font-size="10.00">/UMainWdget.cpp</text>
</a>
</g>
</g>
<!-- Node8&#45;&gt;Node11 -->
<g id="edge10_Node000008_Node000011" class="edge">
<title>Node8&#45;&gt;Node11</title>
<g id="a_edge10_Node000008_Node000011"><a xlink:title=" ">
<path fill="none" stroke="#63b8ff" d="M1093.26,-78.8C1127.79,-65.59 1174.32,-47.78 1206.3,-35.54"/>
<polygon fill="#63b8ff" stroke="#63b8ff" points="1091.95,-75.55 1083.87,-82.39 1094.46,-82.09 1091.95,-75.55"/>
</a>
</g>
</g>
</g>
</svg>

<g id="navigator" transform="translate(0 0)" fill="#404254">
  <rect fill="#f2f5e9" fill-opacity="0.5" stroke="#606060" stroke-width=".5" x="0" y="0" width="60" height="60"/>
  <use id="zoomplus" xlink:href="#zoomPlus" x="17" y="9" onmousedown="handleZoom(evt,'in')"/>
  <use id="zoomminus" xlink:href="#zoomMin" x="42" y="9" onmousedown="handleZoom(evt,'out')"/>
  <use id="reset" xlink:href="#resetDef" x="30" y="36" onmousedown="handleReset()"/>
   <use id="arrowup" xlink:href="#arrowUp" x="0" y="0" onmousedown="handlePan(0,-1)"/>
  <use id="arrowright" xlink:href="#arrowRight" x="0" y="0" onmousedown="handlePan(1,0)"/>
  <use id="arrowdown" xlink:href="#arrowDown" x="0" y="0" onmousedown="handlePan(0,1)"/>
  <use id="arrowleft" xlink:href="#arrowLeft" x="0" y="0" onmousedown="handlePan(-1,0)"/>
</g>
<svg viewBox="0 0 15 15" width="100%" height="30px" preserveAspectRatio="xMaxYMin meet">
 <g id="arrow_out" transform="scale(0.3 0.3)">
  <a xlink:href="EBodyPartType_8h__dep__incl_org.svg" target="_base">
   <rect id="button" ry="5" rx="5" y="6" x="6" height="38" width="38"
        fill="#f2f5e9" fill-opacity="0.5" stroke="#606060" stroke-width="1.0"/>
   <path id="arrow"
     d="M 11.500037,31.436501 C 11.940474,20.09759 22.043105,11.32322 32.158766,21.979434 L 37.068811,17.246167 C 37.068811,17.246167 37.088388,32 37.088388,32 L 22.160133,31.978069 C 22.160133,31.978069 26.997745,27.140456 26.997745,27.140456 C 18.528582,18.264221 13.291696,25.230495 11.500037,31.436501 z"
     style="fill:#404040;"/>
  </a>
 </g>
</svg>

<style type='text/css'>
<![CDATA[
[data-mouse-over-selected='false'] { opacity: 0.7; }
[data-mouse-over-selected='true']  { opacity: 1.0; }
]]>
</style>
<script type="application/ecmascript"><![CDATA[
document.addEventListener('DOMContentLoaded', (event) => {
  highlightEdges();
  highlightAdjacentNodes();
});
]]></script>
</svg>
