<?xml version="1.0" encoding="UTF-8" standalone="no"?>
<!DOCTYPE svg PUBLIC "-//W3C//DTD SVG 1.1//EN"
 "http://www.w3.org/Graphics/SVG/1.1/DTD/svg11.dtd">
<!-- Generated by graphviz version 2.43.0 (0)
 -->
<!-- Title: Source/LatteLibrary/Data/Public/ECharacterType.h Pages: 1 -->
<svg width="1767pt" height="335pt"
 viewBox="0.00 0.00 1767.00 335.00" xmlns="http://www.w3.org/2000/svg" xmlns:xlink="http://www.w3.org/1999/xlink">
<g id="graph0" class="graph" transform="scale(1 1) rotate(0) translate(4 331)">
<title>Source/LatteLibrary/Data/Public/ECharacterType.h</title>
<!-- Node1 -->
<g id="Node000001" class="node">
<title>Node1</title>
<g id="a_Node000001"><a xlink:title="ECharacterType 열거형에 대한 Doxygen 주석을 제공합니다.">
<polygon fill="#999999" stroke="#666666" points="1102,-327 939,-327 939,-297 1102,-297 1102,-327"/>
<text text-anchor="start" x="947" y="-315" font-family="Malgun Gothic" font-size="10.00">Source/LatteLibrary</text>
<text text-anchor="middle" x="1020.5" y="-304" font-family="Malgun Gothic" font-size="10.00">/Data/Public/ECharacterType.h</text>
</a>
</g>
</g>
<!-- Node2 -->
<g id="Node000002" class="node">
<title>Node2</title>
<g id="a_Node000002"><a xlink:href="AGameCharacter_8h.html" target="_top" xlink:title="LatteLibrary 전반에서 사용하는 기반 캐릭터 클래스를 선언합니다.">
<polygon fill="white" stroke="#666666" points="559.5,-184 365.5,-184 365.5,-154 559.5,-154 559.5,-184"/>
<text text-anchor="start" x="373.5" y="-172" font-family="Malgun Gothic" font-size="10.00">Source/LatteLibrary</text>
<text text-anchor="middle" x="462.5" y="-161" font-family="Malgun Gothic" font-size="10.00">/Character/Public/AGameCharacter.h</text>
</a>
</g>
</g>
<!-- Node1&#45;&gt;Node2 -->
<g id="edge1_Node000001_Node000002" class="edge">
<title>Node1&#45;&gt;Node2</title>
<g id="a_edge1_Node000001_Node000002"><a xlink:title=" ">
<path fill="none" stroke="#63b8ff" d="M955.25,-294.51C844.6,-266.55 622.07,-210.32 518.23,-184.08"/>
<polygon fill="#63b8ff" stroke="#63b8ff" points="954.4,-297.91 964.96,-296.96 956.12,-291.12 954.4,-297.91"/>
</a>
</g>
</g>
<!-- Node10 -->
<g id="Node000010" class="node">
<title>Node10</title>
<g id="a_Node000010"><a xlink:href="UStatSystem_8h.html" target="_top" xlink:title="UStatSystem 선언에 대한 Doxygen 주석을 제공합니다.">
<polygon fill="white" stroke="#666666" points="1016,-255.5 841,-255.5 841,-225.5 1016,-225.5 1016,-255.5"/>
<text text-anchor="start" x="849" y="-243.5" font-family="Malgun Gothic" font-size="10.00">Source/LatteLibrary</text>
<text text-anchor="middle" x="928.5" y="-232.5" font-family="Malgun Gothic" font-size="10.00">/Character/Public/UStatSystem.h</text>
</a>
</g>
</g>
<!-- Node1&#45;&gt;Node10 -->
<g id="edge9_Node000001_Node000010" class="edge">
<title>Node1&#45;&gt;Node10</title>
<g id="a_edge9_Node000001_Node000010"><a xlink:title=" ">
<path fill="none" stroke="#63b8ff" d="M993.53,-290.63C978.6,-279.35 960.43,-265.62 947.09,-255.54"/>
<polygon fill="#63b8ff" stroke="#63b8ff" points="991.79,-293.7 1001.88,-296.94 996.01,-288.12 991.79,-293.7"/>
</a>
</g>
</g>
<!-- Node12 -->
<g id="Node000012" class="node">
<title>Node12</title>
<g id="a_Node000012"><a xlink:href="FCharacterAssetData_8h.html" target="_top" xlink:title="FCharacterAssetData 구조체에 대한 Doxygen 주석을 제공합니다.">
<polygon fill="white" stroke="#666666" points="1192.5,-261 1034.5,-261 1034.5,-220 1192.5,-220 1192.5,-261"/>
<text text-anchor="start" x="1042.5" y="-249" font-family="Malgun Gothic" font-size="10.00">Source/LatteLibrary</text>
<text text-anchor="start" x="1042.5" y="-238" font-family="Malgun Gothic" font-size="10.00">/Data/Public/FCharacterAsset</text>
<text text-anchor="middle" x="1113.5" y="-227" font-family="Malgun Gothic" font-size="10.00">Data.h</text>
</a>
</g>
</g>
<!-- Node1&#45;&gt;Node12 -->
<g id="edge14_Node000001_Node000012" class="edge">
<title>Node1&#45;&gt;Node12</title>
<g id="a_edge14_Node000001_Node000012"><a xlink:title=" ">
<path fill="none" stroke="#63b8ff" d="M1047.56,-290.77C1060.08,-281.42 1074.9,-270.35 1087.31,-261.07"/>
<polygon fill="#63b8ff" stroke="#63b8ff" points="1045.24,-288.15 1039.32,-296.94 1049.43,-293.75 1045.24,-288.15"/>
</a>
</g>
</g>
<!-- Node16 -->
<g id="Node000016" class="node">
<title>Node16</title>
<g id="a_Node000016"><a xlink:href="FCharacterInfoData_8h.html" target="_top" xlink:title="FCharacterInfoData 구조체에 대한 Doxygen 주석을 제공합니다.">
<polygon fill="white" stroke="#666666" points="1360.5,-261 1210.5,-261 1210.5,-220 1360.5,-220 1360.5,-261"/>
<text text-anchor="start" x="1218.5" y="-249" font-family="Malgun Gothic" font-size="10.00">Source/LatteLibrary</text>
<text text-anchor="start" x="1218.5" y="-238" font-family="Malgun Gothic" font-size="10.00">/Data/Public/FCharacterInfo</text>
<text text-anchor="middle" x="1285.5" y="-227" font-family="Malgun Gothic" font-size="10.00">Data.h</text>
</a>
</g>
</g>
<!-- Node1&#45;&gt;Node16 -->
<g id="edge24_Node000001_Node000016" class="edge">
<title>Node1&#45;&gt;Node16</title>
<g id="a_edge24_Node000001_Node000016"><a xlink:title=" ">
<path fill="none" stroke="#63b8ff" d="M1084.1,-294.32C1122.32,-284.3 1171.12,-271.5 1211.12,-261.01"/>
<polygon fill="#63b8ff" stroke="#63b8ff" points="1082.91,-291.01 1074.13,-296.94 1084.69,-297.78 1082.91,-291.01"/>
</a>
</g>
</g>
<!-- Node3 -->
<g id="Node000003" class="node">
<title>Node3</title>
<g id="a_Node000003"><a xlink:href="AGameCharacter_8cpp.html" target="_top" xlink:title="AGameCharacter 구현에 대한 Doxygen 주석을 제공합니다.">
<polygon fill="white" stroke="#666666" points="1171.5,-112.5 961.5,-112.5 961.5,-82.5 1171.5,-82.5 1171.5,-112.5"/>
<text text-anchor="start" x="969.5" y="-100.5" font-family="Malgun Gothic" font-size="10.00">Source/LatteLibrary</text>
<text text-anchor="middle" x="1066.5" y="-89.5" font-family="Malgun Gothic" font-size="10.00">/Character/Private/AGameCharacter.cpp</text>
</a>
</g>
</g>
<!-- Node2&#45;&gt;Node3 -->
<g id="edge2_Node000002_Node000003" class="edge">
<title>Node2&#45;&gt;Node3</title>
<g id="a_edge2_Node000002_Node000003"><a xlink:title=" ">
<path fill="none" stroke="#63b8ff" d="M569.94,-159.14C669.38,-150.45 821.23,-135.9 952.5,-118 964.24,-116.4 976.62,-114.5 988.73,-112.53"/>
<polygon fill="#63b8ff" stroke="#63b8ff" points="569.54,-155.67 559.88,-160.02 570.15,-162.64 569.54,-155.67"/>
</a>
</g>
</g>
<!-- Node4 -->
<g id="Node000004" class="node">
<title>Node4</title>
<g id="a_Node000004"><a xlink:href="UCameraShakeSystem_8cpp.html" target="_top" xlink:title="UCameraShakeSystem 구현에 대한 Doxygen 주석을 제공합니다.">
<polygon fill="white" stroke="#666666" points="153,-118 0,-118 0,-77 153,-77 153,-118"/>
<text text-anchor="start" x="8" y="-106" font-family="Malgun Gothic" font-size="10.00">Source/LatteLibrary</text>
<text text-anchor="start" x="8" y="-95" font-family="Malgun Gothic" font-size="10.00">/Character/Private/UCamera</text>
<text text-anchor="middle" x="76.5" y="-84" font-family="Malgun Gothic" font-size="10.00">ShakeSystem.cpp</text>
</a>
</g>
</g>
<!-- Node2&#45;&gt;Node4 -->
<g id="edge3_Node000002_Node000004" class="edge">
<title>Node2&#45;&gt;Node4</title>
<g id="a_edge3_Node000002_Node000004"><a xlink:title=" ">
<path fill="none" stroke="#63b8ff" d="M359.08,-152.41C300.88,-143.24 226.96,-130.93 161.5,-118 158.83,-117.47 156.11,-116.92 153.37,-116.35"/>
<polygon fill="#63b8ff" stroke="#63b8ff" points="358.6,-155.88 369.02,-153.97 359.68,-148.97 358.6,-155.88"/>
</a>
</g>
</g>
<!-- Node5 -->
<g id="Node000005" class="node">
<title>Node5</title>
<g id="a_Node000005"><a xlink:href="UFlySystem_8cpp.html" target="_top" xlink:title="UFlySystem 구현에 대한 Doxygen 주석을 제공합니다.">
<polygon fill="white" stroke="#666666" points="358,-112.5 171,-112.5 171,-82.5 358,-82.5 358,-112.5"/>
<text text-anchor="start" x="179" y="-100.5" font-family="Malgun Gothic" font-size="10.00">Source/LatteLibrary</text>
<text text-anchor="middle" x="264.5" y="-89.5" font-family="Malgun Gothic" font-size="10.00">/Character/Private/UFlySystem.cpp</text>
</a>
</g>
</g>
<!-- Node2&#45;&gt;Node5 -->
<g id="edge4_Node000002_Node000005" class="edge">
<title>Node2&#45;&gt;Node5</title>
<g id="a_edge4_Node000002_Node000005"><a xlink:title=" ">
<path fill="none" stroke="#63b8ff" d="M412.83,-150.57C379.35,-138.81 335.76,-123.51 304.51,-112.54"/>
<polygon fill="#63b8ff" stroke="#63b8ff" points="411.84,-153.93 422.43,-153.94 414.16,-147.32 411.84,-153.93"/>
</a>
</g>
</g>
<!-- Node6 -->
<g id="Node000006" class="node">
<title>Node6</title>
<g id="a_Node000006"><a xlink:href="UHitStopSystem_8cpp.html" target="_top" xlink:title="UHitStopSystem 구현에 대한 Doxygen 주석을 제공합니다.">
<polygon fill="white" stroke="#666666" points="757,-118 606,-118 606,-77 757,-77 757,-118"/>
<text text-anchor="start" x="614" y="-106" font-family="Malgun Gothic" font-size="10.00">Source/LatteLibrary</text>
<text text-anchor="start" x="614" y="-95" font-family="Malgun Gothic" font-size="10.00">/Character/Private/UHitStop</text>
<text text-anchor="middle" x="681.5" y="-84" font-family="Malgun Gothic" font-size="10.00">System.cpp</text>
</a>
</g>
</g>
<!-- Node2&#45;&gt;Node6 -->
<g id="edge5_Node000002_Node000006" class="edge">
<title>Node2&#45;&gt;Node6</title>
<g id="a_edge5_Node000002_Node000006"><a xlink:title=" ">
<path fill="none" stroke="#63b8ff" d="M516.66,-150.81C547.93,-140.89 587.36,-128.37 619.82,-118.07"/>
<polygon fill="#63b8ff" stroke="#63b8ff" points="515.29,-147.57 506.82,-153.94 517.41,-154.25 515.29,-147.57"/>
</a>
</g>
</g>
<!-- Node7 -->
<g id="Node000007" class="node">
<title>Node7</title>
<g id="a_Node000007"><a xlink:href="UKnockbackSystem_8cpp.html" target="_top" xlink:title="UKnockbackSystem 구현에 대한 Doxygen 주석을 제공합니다.">
<polygon fill="white" stroke="#666666" points="943.5,-118 775.5,-118 775.5,-77 943.5,-77 943.5,-118"/>
<text text-anchor="start" x="783.5" y="-106" font-family="Malgun Gothic" font-size="10.00">Source/LatteLibrary</text>
<text text-anchor="start" x="783.5" y="-95" font-family="Malgun Gothic" font-size="10.00">/Character/Private/UKnockback</text>
<text text-anchor="middle" x="859.5" y="-84" font-family="Malgun Gothic" font-size="10.00">System.cpp</text>
</a>
</g>
</g>
<!-- Node2&#45;&gt;Node7 -->
<g id="edge6_Node000002_Node000007" class="edge">
<title>Node2&#45;&gt;Node7</title>
<g id="a_edge6_Node000002_Node000007"><a xlink:title=" ">
<path fill="none" stroke="#63b8ff" d="M563.56,-152.39C622.55,-143.01 698.36,-130.5 765.5,-118 768.78,-117.39 772.12,-116.76 775.49,-116.11"/>
<polygon fill="#63b8ff" stroke="#63b8ff" points="562.82,-148.96 553.49,-153.98 563.92,-155.87 562.82,-148.96"/>
</a>
</g>
</g>
<!-- Node8 -->
<g id="Node000008" class="node">
<title>Node8</title>
<g id="a_Node000008"><a xlink:href="APlayerActor_8h.html" target="_top" xlink:title="APlayerActor 선언에 대한 Doxygen 주석을 제공합니다.">
<polygon fill="white" stroke="#666666" points="549,-112.5 376,-112.5 376,-82.5 549,-82.5 549,-112.5"/>
<text text-anchor="start" x="384" y="-100.5" font-family="Malgun Gothic" font-size="10.00">Source/LatteLibrary</text>
<text text-anchor="middle" x="462.5" y="-89.5" font-family="Malgun Gothic" font-size="10.00">/Character/Public/APlayerActor.h</text>
</a>
</g>
</g>
<!-- Node2&#45;&gt;Node8 -->
<g id="edge7_Node000002_Node000008" class="edge">
<title>Node2&#45;&gt;Node8</title>
<g id="a_edge7_Node000002_Node000008"><a xlink:title=" ">
<path fill="none" stroke="#63b8ff" d="M462.5,-143.75C462.5,-133.31 462.5,-121.49 462.5,-112.54"/>
<polygon fill="#63b8ff" stroke="#63b8ff" points="459,-143.94 462.5,-153.94 466,-143.94 459,-143.94"/>
</a>
</g>
</g>
<!-- Node9 -->
<g id="Node000009" class="node">
<title>Node9</title>
<g id="a_Node000009"><a xlink:href="APlayerActor_8cpp.html" target="_top" xlink:title="APlayerActor 구현에 대한 Doxygen 주석을 제공합니다.">
<polygon fill="white" stroke="#666666" points="592,-41 447,-41 447,0 592,0 592,-41"/>
<text text-anchor="start" x="455" y="-29" font-family="Malgun Gothic" font-size="10.00">Source/LatteLibrary</text>
<text text-anchor="start" x="455" y="-18" font-family="Malgun Gothic" font-size="10.00">/Character/Private/APlayer</text>
<text text-anchor="middle" x="519.5" y="-7" font-family="Malgun Gothic" font-size="10.00">Actor.cpp</text>
</a>
</g>
</g>
<!-- Node8&#45;&gt;Node9 -->
<g id="edge8_Node000008_Node000009" class="edge">
<title>Node8&#45;&gt;Node9</title>
<g id="a_edge8_Node000008_Node000009"><a xlink:title=" ">
<path fill="none" stroke="#63b8ff" d="M479.5,-74.14C487.45,-63.67 496.84,-51.31 504.53,-41.2"/>
<polygon fill="#63b8ff" stroke="#63b8ff" points="476.49,-72.31 473.22,-82.39 482.06,-76.55 476.49,-72.31"/>
</a>
</g>
</g>
<!-- Node10&#45;&gt;Node2 -->
<g id="edge13_Node000010_Node000002" class="edge">
<title>Node10&#45;&gt;Node2</title>
<g id="a_edge13_Node000010_Node000002"><a xlink:title=" ">
<path fill="none" stroke="#63b8ff" d="M830.68,-224.91C749.98,-212.88 636.21,-195.91 556.56,-184.03"/>
<polygon fill="#63b8ff" stroke="#63b8ff" points="830.44,-228.41 840.85,-226.43 831.47,-221.49 830.44,-228.41"/>
</a>
</g>
</g>
<!-- Node10&#45;&gt;Node3 -->
<g id="edge10_Node000010_Node000003" class="edge">
<title>Node10&#45;&gt;Node3</title>
<g id="a_edge10_Node000010_Node000003"><a xlink:title=" ">
<path fill="none" stroke="#63b8ff" d="M949.3,-218.24C977.74,-189.19 1028,-137.84 1052.41,-112.9"/>
<polygon fill="#63b8ff" stroke="#63b8ff" points="946.73,-215.87 942.24,-225.46 951.73,-220.77 946.73,-215.87"/>
</a>
</g>
</g>
<!-- Node10&#45;&gt;Node9 -->
<g id="edge11_Node000010_Node000009" class="edge">
<title>Node10&#45;&gt;Node9</title>
<g id="a_edge11_Node000010_Node000009"><a xlink:title=" ">
<path fill="none" stroke="#63b8ff" d="M847.93,-223.07C776.8,-205.68 672.85,-172.98 596.5,-118 581.28,-107.04 550.89,-65.97 533.18,-41.08"/>
<polygon fill="#63b8ff" stroke="#63b8ff" points="847.2,-226.49 857.74,-225.42 848.83,-219.69 847.2,-226.49"/>
</a>
</g>
</g>
<!-- Node11 -->
<g id="Node000011" class="node">
<title>Node11</title>
<g id="a_Node000011"><a xlink:href="UStatSystem_8cpp.html" target="_top" xlink:title="UStatSystem 구현에 대한 Doxygen 주석을 제공합니다.">
<polygon fill="white" stroke="#666666" points="1759,-112.5 1568,-112.5 1568,-82.5 1759,-82.5 1759,-112.5"/>
<text text-anchor="start" x="1576" y="-100.5" font-family="Malgun Gothic" font-size="10.00">Source/LatteLibrary</text>
<text text-anchor="middle" x="1663.5" y="-89.5" font-family="Malgun Gothic" font-size="10.00">/Character/Private/UStatSystem.cpp</text>
</a>
</g>
</g>
<!-- Node10&#45;&gt;Node11 -->
<g id="edge12_Node000010_Node000011" class="edge">
<title>Node10&#45;&gt;Node11</title>
<g id="a_edge12_Node000010_Node000011"><a xlink:title=" ">
<path fill="none" stroke="#63b8ff" d="M1004.65,-223.56C1011.69,-222.28 1018.72,-221.07 1025.5,-220 1165.14,-198.05 1203.24,-213.42 1341.5,-184 1384.81,-174.78 1393.86,-165.93 1436.5,-154 1491.78,-138.53 1555.31,-123.21 1601.07,-112.59"/>
<polygon fill="#63b8ff" stroke="#63b8ff" points="1003.56,-220.2 994.37,-225.48 1004.84,-227.08 1003.56,-220.2"/>
</a>
</g>
</g>
<!-- Node12&#45;&gt;Node3 -->
<g id="edge15_Node000012_Node000003" class="edge">
<title>Node12&#45;&gt;Node3</title>
<g id="a_edge15_Node000012_Node000003"><a xlink:title=" ">
<path fill="none" stroke="#63b8ff" d="M1103.68,-210.05C1093.76,-180.28 1078.84,-135.52 1071.27,-112.81"/>
<polygon fill="#63b8ff" stroke="#63b8ff" points="1100.48,-211.51 1106.96,-219.89 1107.12,-209.3 1100.48,-211.51"/>
</a>
</g>
</g>
<!-- Node13 -->
<g id="Node000013" class="node">
<title>Node13</title>
<g id="a_Node000013"><a xlink:href="UGameDataManager_8cpp.html" target="_top" xlink:title="UGameDataManager 구현에 대한 Doxygen 주석을 제공합니다.">
<polygon fill="white" stroke="#666666" points="1550,-118 1387,-118 1387,-77 1550,-77 1550,-118"/>
<text text-anchor="start" x="1395" y="-106" font-family="Malgun Gothic" font-size="10.00">Source/LatteLibrary</text>
<text text-anchor="start" x="1395" y="-95" font-family="Malgun Gothic" font-size="10.00">/Manager/Private/UGameData</text>
<text text-anchor="middle" x="1468.5" y="-84" font-family="Malgun Gothic" font-size="10.00">Manager.cpp</text>
</a>
</g>
</g>
<!-- Node12&#45;&gt;Node13 -->
<g id="edge16_Node000012_Node000013" class="edge">
<title>Node12&#45;&gt;Node13</title>
<g id="a_edge16_Node000012_Node000013"><a xlink:title=" ">
<path fill="none" stroke="#63b8ff" d="M1202.72,-219.36C1260.9,-205.96 1328.4,-189.78 1341.5,-184 1380.41,-166.83 1420.29,-137.72 1444.73,-118.31"/>
<polygon fill="#63b8ff" stroke="#63b8ff" points="1201.69,-216.01 1192.72,-221.66 1203.25,-222.83 1201.69,-216.01"/>
</a>
</g>
</g>
<!-- Node14 -->
<g id="Node000014" class="node">
<title>Node14</title>
<g id="a_Node000014"><a xlink:href="UGameDataManager_8h.html" target="_top" xlink:title="UGameDataManager 선언에 대한 Doxygen 주석을 제공합니다.">
<polygon fill="white" stroke="#666666" points="1333,-184 1124,-184 1124,-154 1333,-154 1333,-184"/>
<text text-anchor="start" x="1132" y="-172" font-family="Malgun Gothic" font-size="10.00">Source/LatteLibrary</text>
<text text-anchor="middle" x="1228.5" y="-161" font-family="Malgun Gothic" font-size="10.00">/Manager/Public/UGameDataManager.h</text>
</a>
</g>
</g>
<!-- Node12&#45;&gt;Node14 -->
<g id="edge17_Node000012_Node000014" class="edge">
<title>Node12&#45;&gt;Node14</title>
<g id="a_edge17_Node000012_Node000014"><a xlink:title=" ">
<path fill="none" stroke="#63b8ff" d="M1154.5,-214.72C1171.51,-204.44 1190.61,-192.9 1205.15,-184.11"/>
<polygon fill="#63b8ff" stroke="#63b8ff" points="1152.59,-211.79 1145.84,-219.96 1156.21,-217.78 1152.59,-211.79"/>
</a>
</g>
</g>
<!-- Node14&#45;&gt;Node3 -->
<g id="edge18_Node000014_Node000003" class="edge">
<title>Node14&#45;&gt;Node3</title>
<g id="a_edge18_Node000014_Node000003"><a xlink:title=" ">
<path fill="none" stroke="#63b8ff" d="M1186.45,-149.96C1159.25,-138.29 1124.36,-123.32 1099.23,-112.54"/>
<polygon fill="#63b8ff" stroke="#63b8ff" points="1185.15,-153.21 1195.72,-153.94 1187.91,-146.78 1185.15,-153.21"/>
</a>
</g>
</g>
<!-- Node14&#45;&gt;Node6 -->
<g id="edge19_Node000014_Node000006" class="edge">
<title>Node14&#45;&gt;Node6</title>
<g id="a_edge19_Node000014_Node000006"><a xlink:title=" ">
<path fill="none" stroke="#63b8ff" d="M1113.81,-159.37C1020.01,-151.4 884.14,-137.79 766.5,-118 763.51,-117.5 760.48,-116.95 757.41,-116.38"/>
<polygon fill="#63b8ff" stroke="#63b8ff" points="1113.63,-162.86 1123.89,-160.21 1114.22,-155.89 1113.63,-162.86"/>
</a>
</g>
</g>
<!-- Node14&#45;&gt;Node7 -->
<g id="edge20_Node000014_Node000007" class="edge">
<title>Node14&#45;&gt;Node7</title>
<g id="a_edge20_Node000014_Node000007"><a xlink:title=" ">
<path fill="none" stroke="#63b8ff" d="M1137.9,-152.23C1083.98,-142.69 1014.25,-130.07 952.5,-118 949.59,-117.43 946.62,-116.84 943.63,-116.25"/>
<polygon fill="#63b8ff" stroke="#63b8ff" points="1137.32,-155.68 1147.78,-153.98 1138.54,-148.79 1137.32,-155.68"/>
</a>
</g>
</g>
<!-- Node14&#45;&gt;Node11 -->
<g id="edge21_Node000014_Node000011" class="edge">
<title>Node14&#45;&gt;Node11</title>
<g id="a_edge21_Node000014_Node000011"><a xlink:title=" ">
<path fill="none" stroke="#63b8ff" d="M1337.7,-152.5C1402.29,-143.08 1485.66,-130.5 1559.5,-118 1569.55,-116.3 1580.13,-114.42 1590.54,-112.52"/>
<polygon fill="#63b8ff" stroke="#63b8ff" points="1336.89,-149.08 1327.5,-153.98 1337.9,-156.01 1336.89,-149.08"/>
</a>
</g>
</g>
<!-- Node14&#45;&gt;Node13 -->
<g id="edge22_Node000014_Node000013" class="edge">
<title>Node14&#45;&gt;Node13</title>
<g id="a_edge22_Node000014_Node000013"><a xlink:title=" ">
<path fill="none" stroke="#63b8ff" d="M1286.97,-151.07C1321.37,-141.11 1365.03,-128.46 1400.91,-118.07"/>
<polygon fill="#63b8ff" stroke="#63b8ff" points="1285.7,-147.79 1277.07,-153.94 1287.65,-154.52 1285.7,-147.79"/>
</a>
</g>
</g>
<!-- Node15 -->
<g id="Node000015" class="node">
<title>Node15</title>
<g id="a_Node000015"><a xlink:href="ANetworkTesterActor_8cpp.html" target="_top" xlink:title="ANetworkTesterActor 구현에 대한 Doxygen 주석을 제공합니다.">
<polygon fill="white" stroke="#666666" points="1369,-118 1190,-118 1190,-77 1369,-77 1369,-118"/>
<text text-anchor="start" x="1198" y="-106" font-family="Malgun Gothic" font-size="10.00">Source/LatteLibrary</text>
<text text-anchor="start" x="1198" y="-95" font-family="Malgun Gothic" font-size="10.00">/Network/Private/ANetworkTester</text>
<text text-anchor="middle" x="1279.5" y="-84" font-family="Malgun Gothic" font-size="10.00">Actor.cpp</text>
</a>
</g>
</g>
<!-- Node14&#45;&gt;Node15 -->
<g id="edge23_Node000014_Node000015" class="edge">
<title>Node14&#45;&gt;Node15</title>
<g id="a_edge23_Node000014_Node000015"><a xlink:title=" ">
<path fill="none" stroke="#63b8ff" d="M1244.74,-145.86C1251.3,-136.94 1258.79,-126.72 1265.14,-118.07"/>
<polygon fill="#63b8ff" stroke="#63b8ff" points="1241.92,-143.8 1238.82,-153.94 1247.56,-147.94 1241.92,-143.8"/>
</a>
</g>
</g>
<!-- Node16&#45;&gt;Node11 -->
<g id="edge25_Node000016_Node000011" class="edge">
<title>Node16&#45;&gt;Node11</title>
<g id="a_edge25_Node000016_Node000011"><a xlink:title=" ">
<path fill="none" stroke="#63b8ff" d="M1347.9,-216.22C1427.03,-186.71 1560.97,-136.74 1625.93,-112.51"/>
<polygon fill="#63b8ff" stroke="#63b8ff" points="1346.21,-213.12 1338.06,-219.89 1348.65,-219.68 1346.21,-213.12"/>
</a>
</g>
</g>
<!-- Node16&#45;&gt;Node14 -->
<g id="edge26_Node000016_Node000014" class="edge">
<title>Node16&#45;&gt;Node14</title>
<g id="a_edge26_Node000016_Node000014"><a xlink:title=" ">
<path fill="none" stroke="#63b8ff" d="M1262.93,-211.98C1255.07,-202.4 1246.59,-192.06 1240.01,-184.04"/>
<polygon fill="#63b8ff" stroke="#63b8ff" points="1260.27,-214.26 1269.32,-219.77 1265.68,-209.82 1260.27,-214.26"/>
</a>
</g>
</g>
</g>
</svg>
