<?xml version="1.0" encoding="UTF-8" standalone="no"?>
<!DOCTYPE svg PUBLIC "-//W3C//DTD SVG 1.1//EN"
 "http://www.w3.org/Graphics/SVG/1.1/DTD/svg11.dtd">
<!-- Generated by graphviz version 2.43.0 (0)
 -->
<!-- Title: Source/LatteLibrary/Data/Public/ECharacterType.h Pages: 1 -->
<svg width="1766pt" height="335pt"
 viewBox="0.00 0.00 1766.00 335.00" xmlns="http://www.w3.org/2000/svg" xmlns:xlink="http://www.w3.org/1999/xlink">
<g id="graph0" class="graph" transform="scale(1 1) rotate(0) translate(4 331)">
<title>Source/LatteLibrary/Data/Public/ECharacterType.h</title>
<!-- Node1 -->
<g id="Node000001" class="node">
<title>Node1</title>
<g id="a_Node000001"><a xlink:title="ECharacterType 열거형에 대한 Doxygen 주석을 제공합니다.">
<polygon fill="#999999" stroke="#666666" points="956,-327 793,-327 793,-297 956,-297 956,-327"/>
<text text-anchor="start" x="801" y="-315" font-family="Malgun Gothic" font-size="10.00">Source/LatteLibrary</text>
<text text-anchor="middle" x="874.5" y="-304" font-family="Malgun Gothic" font-size="10.00">/Data/Public/ECharacterType.h</text>
</a>
</g>
</g>
<!-- Node2 -->
<g id="Node000002" class="node">
<title>Node2</title>
<g id="a_Node000002"><a xlink:href="AGameCharacter_8h.html" target="_top" xlink:title="LatteLibrary 전반에서 사용하는 기반 캐릭터 클래스를 선언합니다.">
<polygon fill="white" stroke="#666666" points="559.5,-184 365.5,-184 365.5,-154 559.5,-154 559.5,-184"/>
<text text-anchor="start" x="373.5" y="-172" font-family="Malgun Gothic" font-size="10.00">Source/LatteLibrary</text>
<text text-anchor="middle" x="462.5" y="-161" font-family="Malgun Gothic" font-size="10.00">/Character/Public/AGameCharacter.h</text>
</a>
</g>
</g>
<!-- Node1&#45;&gt;Node2 -->
<g id="edge1_Node000001_Node000002" class="edge">
<title>Node1&#45;&gt;Node2</title>
<g id="a_edge1_Node000001_Node000002"><a xlink:title=" ">
<path fill="none" stroke="#63b8ff" d="M782.89,-295.53C741.79,-287.32 693.08,-275.83 650.5,-261 589.38,-239.71 522.09,-203.87 486.95,-184.12"/>
<polygon fill="#63b8ff" stroke="#63b8ff" points="782.4,-299 792.89,-297.49 783.75,-292.13 782.4,-299"/>
</a>
</g>
</g>
<!-- Node12 -->
<g id="Node000012" class="node">
<title>Node12</title>
<g id="a_Node000012"><a xlink:href="UStatSystem_8h.html" target="_top" xlink:title="UStatSystem 선언에 대한 Doxygen 주석을 제공합니다.">
<polygon fill="white" stroke="#666666" points="835,-255.5 660,-255.5 660,-225.5 835,-225.5 835,-255.5"/>
<text text-anchor="start" x="668" y="-243.5" font-family="Malgun Gothic" font-size="10.00">Source/LatteLibrary</text>
<text text-anchor="middle" x="747.5" y="-232.5" font-family="Malgun Gothic" font-size="10.00">/Character/Public/UStatSystem.h</text>
</a>
</g>
</g>
<!-- Node1&#45;&gt;Node12 -->
<g id="edge11_Node000001_Node000012" class="edge">
<title>Node1&#45;&gt;Node12</title>
<g id="a_edge11_Node000001_Node000012"><a xlink:title=" ">
<path fill="none" stroke="#63b8ff" d="M839.84,-292.03C818.78,-280.51 792.35,-266.04 773.16,-255.54"/>
<polygon fill="#63b8ff" stroke="#63b8ff" points="838.35,-295.21 848.8,-296.94 841.71,-289.06 838.35,-295.21"/>
</a>
</g>
</g>
<!-- Node15 -->
<g id="Node000015" class="node">
<title>Node15</title>
<g id="a_Node000015"><a xlink:href="FCharacterAssetData_8h.html" target="_top" xlink:title="FCharacterAssetData 구조체에 대한 Doxygen 주석을 제공합니다.">
<polygon fill="white" stroke="#666666" points="1046.5,-261 888.5,-261 888.5,-220 1046.5,-220 1046.5,-261"/>
<text text-anchor="start" x="896.5" y="-249" font-family="Malgun Gothic" font-size="10.00">Source/LatteLibrary</text>
<text text-anchor="start" x="896.5" y="-238" font-family="Malgun Gothic" font-size="10.00">/Data/Public/FCharacterAsset</text>
<text text-anchor="middle" x="967.5" y="-227" font-family="Malgun Gothic" font-size="10.00">Data.h</text>
</a>
</g>
</g>
<!-- Node1&#45;&gt;Node15 -->
<g id="edge17_Node000001_Node000015" class="edge">
<title>Node1&#45;&gt;Node15</title>
<g id="a_edge17_Node000001_Node000015"><a xlink:title=" ">
<path fill="none" stroke="#63b8ff" d="M901.56,-290.77C914.08,-281.42 928.9,-270.35 941.31,-261.07"/>
<polygon fill="#63b8ff" stroke="#63b8ff" points="899.24,-288.15 893.32,-296.94 903.43,-293.75 899.24,-288.15"/>
</a>
</g>
</g>
<!-- Node19 -->
<g id="Node000019" class="node">
<title>Node19</title>
<g id="a_Node000019"><a xlink:href="FCharacterInfoData_8h.html" target="_top" xlink:title="FCharacterInfoData 구조체에 대한 Doxygen 주석을 제공합니다.">
<polygon fill="white" stroke="#666666" points="1214.5,-261 1064.5,-261 1064.5,-220 1214.5,-220 1214.5,-261"/>
<text text-anchor="start" x="1072.5" y="-249" font-family="Malgun Gothic" font-size="10.00">Source/LatteLibrary</text>
<text text-anchor="start" x="1072.5" y="-238" font-family="Malgun Gothic" font-size="10.00">/Data/Public/FCharacterInfo</text>
<text text-anchor="middle" x="1139.5" y="-227" font-family="Malgun Gothic" font-size="10.00">Data.h</text>
</a>
</g>
</g>
<!-- Node1&#45;&gt;Node19 -->
<g id="edge27_Node000001_Node000019" class="edge">
<title>Node1&#45;&gt;Node19</title>
<g id="a_edge27_Node000001_Node000019"><a xlink:title=" ">
<path fill="none" stroke="#63b8ff" d="M938.1,-294.32C976.32,-284.3 1025.12,-271.5 1065.12,-261.01"/>
<polygon fill="#63b8ff" stroke="#63b8ff" points="936.91,-291.01 928.13,-296.94 938.69,-297.78 936.91,-291.01"/>
</a>
</g>
</g>
<!-- Node3 -->
<g id="Node000003" class="node">
<title>Node3</title>
<g id="a_Node000003"><a xlink:href="AGameCharacter_8cpp.html" target="_top" xlink:title="AGameCharacter 구현에 대한 Doxygen 주석을 제공합니다.">
<polygon fill="white" stroke="#666666" points="1001.5,-112.5 791.5,-112.5 791.5,-82.5 1001.5,-82.5 1001.5,-112.5"/>
<text text-anchor="start" x="799.5" y="-100.5" font-family="Malgun Gothic" font-size="10.00">Source/LatteLibrary</text>
<text text-anchor="middle" x="896.5" y="-89.5" font-family="Malgun Gothic" font-size="10.00">/Character/Private/AGameCharacter.cpp</text>
</a>
</g>
</g>
<!-- Node2&#45;&gt;Node3 -->
<g id="edge2_Node000002_Node000003" class="edge">
<title>Node2&#45;&gt;Node3</title>
<g id="a_edge2_Node000002_Node000003"><a xlink:title=" ">
<path fill="none" stroke="#63b8ff" d="M564.55,-152.44C627.43,-142.75 709.68,-129.92 782.5,-118 793.1,-116.27 804.25,-114.4 815.26,-112.54"/>
<polygon fill="#63b8ff" stroke="#63b8ff" points="563.98,-148.98 554.63,-153.96 565.05,-155.9 563.98,-148.98"/>
</a>
</g>
</g>
<!-- Node4 -->
<g id="Node000004" class="node">
<title>Node4</title>
<g id="a_Node000004"><a xlink:href="UCameraShakeSystem_8cpp.html" target="_top" xlink:title="UCameraShakeSystem 구현에 대한 Doxygen 주석을 제공합니다.">
<polygon fill="white" stroke="#666666" points="153,-118 0,-118 0,-77 153,-77 153,-118"/>
<text text-anchor="start" x="8" y="-106" font-family="Malgun Gothic" font-size="10.00">Source/LatteLibrary</text>
<text text-anchor="start" x="8" y="-95" font-family="Malgun Gothic" font-size="10.00">/Character/Private/UCamera</text>
<text text-anchor="middle" x="76.5" y="-84" font-family="Malgun Gothic" font-size="10.00">ShakeSystem.cpp</text>
</a>
</g>
</g>
<!-- Node2&#45;&gt;Node4 -->
<g id="edge3_Node000002_Node000004" class="edge">
<title>Node2&#45;&gt;Node4</title>
<g id="a_edge3_Node000002_Node000004"><a xlink:title=" ">
<path fill="none" stroke="#63b8ff" d="M359.08,-152.41C300.88,-143.24 226.96,-130.93 161.5,-118 158.83,-117.47 156.11,-116.92 153.37,-116.35"/>
<polygon fill="#63b8ff" stroke="#63b8ff" points="358.6,-155.88 369.02,-153.97 359.68,-148.97 358.6,-155.88"/>
</a>
</g>
</g>
<!-- Node5 -->
<g id="Node000005" class="node">
<title>Node5</title>
<g id="a_Node000005"><a xlink:href="UFlySystem_8cpp.html" target="_top" xlink:title="UFlySystem 구현에 대한 Doxygen 주석을 제공합니다.">
<polygon fill="white" stroke="#666666" points="358,-112.5 171,-112.5 171,-82.5 358,-82.5 358,-112.5"/>
<text text-anchor="start" x="179" y="-100.5" font-family="Malgun Gothic" font-size="10.00">Source/LatteLibrary</text>
<text text-anchor="middle" x="264.5" y="-89.5" font-family="Malgun Gothic" font-size="10.00">/Character/Private/UFlySystem.cpp</text>
</a>
</g>
</g>
<!-- Node2&#45;&gt;Node5 -->
<g id="edge4_Node000002_Node000005" class="edge">
<title>Node2&#45;&gt;Node5</title>
<g id="a_edge4_Node000002_Node000005"><a xlink:title=" ">
<path fill="none" stroke="#63b8ff" d="M412.83,-150.57C379.35,-138.81 335.76,-123.51 304.51,-112.54"/>
<polygon fill="#63b8ff" stroke="#63b8ff" points="411.84,-153.93 422.43,-153.94 414.16,-147.32 411.84,-153.93"/>
</a>
</g>
</g>
<!-- Node6 -->
<g id="Node000006" class="node">
<title>Node6</title>
<g id="a_Node000006"><a xlink:href="UHitStopSystem_8cpp.html" target="_top" xlink:title="UHitStopSystem 구현에 대한 Doxygen 주석을 제공합니다.">
<polygon fill="white" stroke="#666666" points="1171,-118 1020,-118 1020,-77 1171,-77 1171,-118"/>
<text text-anchor="start" x="1028" y="-106" font-family="Malgun Gothic" font-size="10.00">Source/LatteLibrary</text>
<text text-anchor="start" x="1028" y="-95" font-family="Malgun Gothic" font-size="10.00">/Character/Private/UHitStop</text>
<text text-anchor="middle" x="1095.5" y="-84" font-family="Malgun Gothic" font-size="10.00">System.cpp</text>
</a>
</g>
</g>
<!-- Node2&#45;&gt;Node6 -->
<g id="edge5_Node000002_Node000006" class="edge">
<title>Node2&#45;&gt;Node6</title>
<g id="a_edge5_Node000002_Node000006"><a xlink:title=" ">
<path fill="none" stroke="#63b8ff" d="M569.69,-162.49C680.55,-155.8 858.41,-142.27 1010.5,-118 1013.49,-117.52 1016.53,-117 1019.6,-116.44"/>
<polygon fill="#63b8ff" stroke="#63b8ff" points="569.28,-159.01 559.51,-163.1 569.7,-166 569.28,-159.01"/>
</a>
</g>
</g>
<!-- Node7 -->
<g id="Node000007" class="node">
<title>Node7</title>
<g id="a_Node000007"><a xlink:href="UKnockbackSystem_8cpp.html" target="_top" xlink:title="UKnockbackSystem 구현에 대한 Doxygen 주석을 제공합니다.">
<polygon fill="white" stroke="#666666" points="773.5,-118 605.5,-118 605.5,-77 773.5,-77 773.5,-118"/>
<text text-anchor="start" x="613.5" y="-106" font-family="Malgun Gothic" font-size="10.00">Source/LatteLibrary</text>
<text text-anchor="start" x="613.5" y="-95" font-family="Malgun Gothic" font-size="10.00">/Character/Private/UKnockback</text>
<text text-anchor="middle" x="689.5" y="-84" font-family="Malgun Gothic" font-size="10.00">System.cpp</text>
</a>
</g>
</g>
<!-- Node2&#45;&gt;Node7 -->
<g id="edge6_Node000002_Node000007" class="edge">
<title>Node2&#45;&gt;Node7</title>
<g id="a_edge6_Node000002_Node000007"><a xlink:title=" ">
<path fill="none" stroke="#63b8ff" d="M518.22,-150.94C550.7,-141 591.78,-128.42 625.57,-118.07"/>
<polygon fill="#63b8ff" stroke="#63b8ff" points="516.97,-147.66 508.44,-153.94 519.02,-154.35 516.97,-147.66"/>
</a>
</g>
</g>
<!-- Node8 -->
<g id="Node000008" class="node">
<title>Node8</title>
<g id="a_Node000008"><a xlink:href="APlayerActor_8h.html" target="_top" xlink:title="Declares the player&#45;controlled character actor.">
<polygon fill="white" stroke="#666666" points="549,-112.5 376,-112.5 376,-82.5 549,-82.5 549,-112.5"/>
<text text-anchor="start" x="384" y="-100.5" font-family="Malgun Gothic" font-size="10.00">Source/LatteLibrary</text>
<text text-anchor="middle" x="462.5" y="-89.5" font-family="Malgun Gothic" font-size="10.00">/Character/Public/APlayerActor.h</text>
</a>
</g>
</g>
<!-- Node2&#45;&gt;Node8 -->
<g id="edge7_Node000002_Node000008" class="edge">
<title>Node2&#45;&gt;Node8</title>
<g id="a_edge7_Node000002_Node000008"><a xlink:title=" ">
<path fill="none" stroke="#63b8ff" d="M462.5,-143.75C462.5,-133.31 462.5,-121.49 462.5,-112.54"/>
<polygon fill="#63b8ff" stroke="#63b8ff" points="459,-143.94 462.5,-153.94 466,-143.94 459,-143.94"/>
</a>
</g>
</g>
<!-- Node9 -->
<g id="Node000009" class="node">
<title>Node9</title>
<g id="a_Node000009"><a xlink:href="APlayerActor_8cpp.html" target="_top" xlink:title="Provides Doxygen annotations for APlayerActor implementation.">
<polygon fill="white" stroke="#666666" points="671,-41 526,-41 526,0 671,0 671,-41"/>
<text text-anchor="start" x="534" y="-29" font-family="Malgun Gothic" font-size="10.00">Source/LatteLibrary</text>
<text text-anchor="start" x="534" y="-18" font-family="Malgun Gothic" font-size="10.00">/Character/Private/APlayer</text>
<text text-anchor="middle" x="598.5" y="-7" font-family="Malgun Gothic" font-size="10.00">Actor.cpp</text>
</a>
</g>
</g>
<!-- Node8&#45;&gt;Node9 -->
<g id="edge8_Node000008_Node000009" class="edge">
<title>Node8&#45;&gt;Node9</title>
<g id="a_edge8_Node000008_Node000009"><a xlink:title=" ">
<path fill="none" stroke="#63b8ff" d="M496.96,-77.5C517.17,-66.35 542.65,-52.3 563.03,-41.06"/>
<polygon fill="#63b8ff" stroke="#63b8ff" points="495.15,-74.5 488.08,-82.39 498.53,-80.63 495.15,-74.5"/>
</a>
</g>
</g>
<!-- Node10 -->
<g id="Node000010" class="node">
<title>Node10</title>
<g id="a_Node000010"><a xlink:href="UYiSanVoiceConsoleSubsystem_8cpp.html" target="_top" xlink:title=" ">
<polygon fill="white" stroke="#666666" points="358.5,-41 194.5,-41 194.5,0 358.5,0 358.5,-41"/>
<text text-anchor="start" x="202.5" y="-29" font-family="Malgun Gothic" font-size="10.00">Source/LatteLibrary</text>
<text text-anchor="start" x="202.5" y="-18" font-family="Malgun Gothic" font-size="10.00">/Manager/Private/UYiSanVoice</text>
<text text-anchor="middle" x="276.5" y="-7" font-family="Malgun Gothic" font-size="10.00">ConsoleSubsystem.cpp</text>
</a>
</g>
</g>
<!-- Node8&#45;&gt;Node10 -->
<g id="edge9_Node000008_Node000010" class="edge">
<title>Node8&#45;&gt;Node10</title>
<g id="a_edge9_Node000008_Node000010"><a xlink:title=" ">
<path fill="none" stroke="#63b8ff" d="M417.97,-78.54C389.94,-67.24 353.77,-52.66 325.01,-41.06"/>
<polygon fill="#63b8ff" stroke="#63b8ff" points="416.93,-81.9 427.51,-82.39 419.55,-75.41 416.93,-81.9"/>
</a>
</g>
</g>
<!-- Node11 -->
<g id="Node000011" class="node">
<title>Node11</title>
<g id="a_Node000011"><a xlink:href="UMainWdget_8cpp.html" target="_top" xlink:title=" ">
<polygon fill="white" stroke="#666666" points="508,-35.5 377,-35.5 377,-5.5 508,-5.5 508,-35.5"/>
<text text-anchor="start" x="385" y="-23.5" font-family="Malgun Gothic" font-size="10.00">Source/YiSan/UI/Private</text>
<text text-anchor="middle" x="442.5" y="-12.5" font-family="Malgun Gothic" font-size="10.00">/UMainWdget.cpp</text>
</a>
</g>
</g>
<!-- Node8&#45;&gt;Node11 -->
<g id="edge10_Node000008_Node000011" class="edge">
<title>Node8&#45;&gt;Node11</title>
<g id="a_edge10_Node000008_Node000011"><a xlink:title=" ">
<path fill="none" stroke="#63b8ff" d="M456.08,-72.41C452.83,-60.24 449.01,-45.9 446.24,-35.54"/>
<polygon fill="#63b8ff" stroke="#63b8ff" points="452.78,-73.63 458.74,-82.39 459.54,-71.83 452.78,-73.63"/>
</a>
</g>
</g>
<!-- Node12&#45;&gt;Node2 -->
<g id="edge16_Node000012_Node000002" class="edge">
<title>Node12&#45;&gt;Node2</title>
<g id="a_edge16_Node000012_Node000002"><a xlink:title=" ">
<path fill="none" stroke="#63b8ff" d="M680.01,-223.04C631.33,-211.17 566.32,-195.32 520.09,-184.04"/>
<polygon fill="#63b8ff" stroke="#63b8ff" points="679.28,-226.47 689.83,-225.44 680.94,-219.67 679.28,-226.47"/>
</a>
</g>
</g>
<!-- Node12&#45;&gt;Node3 -->
<g id="edge12_Node000012_Node000003" class="edge">
<title>Node12&#45;&gt;Node3</title>
<g id="a_edge12_Node000012_Node000003"><a xlink:title=" ">
<path fill="none" stroke="#63b8ff" d="M734.72,-216.17C726.5,-197.69 719.54,-172.06 732.5,-154 744.46,-137.33 790.29,-122.66 830.47,-112.59"/>
<polygon fill="#63b8ff" stroke="#63b8ff" points="731.66,-217.89 739.16,-225.36 737.96,-214.84 731.66,-217.89"/>
</a>
</g>
</g>
<!-- Node12&#45;&gt;Node9 -->
<g id="edge13_Node000012_Node000009" class="edge">
<title>Node12&#45;&gt;Node9</title>
<g id="a_edge13_Node000012_Node000009"><a xlink:title=" ">
<path fill="none" stroke="#63b8ff" d="M707.9,-220.66C671.36,-200.83 619.41,-165.84 596.5,-118 584.77,-93.52 588.69,-61.38 593.15,-41.07"/>
<polygon fill="#63b8ff" stroke="#63b8ff" points="706.36,-223.8 716.83,-225.37 709.62,-217.61 706.36,-223.8"/>
</a>
</g>
</g>
<!-- Node13 -->
<g id="Node000013" class="node">
<title>Node13</title>
<g id="a_Node000013"><a xlink:href="UStatSystem_8cpp.html" target="_top" xlink:title="UStatSystem 구현에 대한 Doxygen 주석을 제공합니다.">
<polygon fill="white" stroke="#666666" points="1758,-112.5 1567,-112.5 1567,-82.5 1758,-82.5 1758,-112.5"/>
<text text-anchor="start" x="1575" y="-100.5" font-family="Malgun Gothic" font-size="10.00">Source/LatteLibrary</text>
<text text-anchor="middle" x="1662.5" y="-89.5" font-family="Malgun Gothic" font-size="10.00">/Character/Private/UStatSystem.cpp</text>
</a>
</g>
</g>
<!-- Node12&#45;&gt;Node13 -->
<g id="edge14_Node000012_Node000013" class="edge">
<title>Node12&#45;&gt;Node13</title>
<g id="a_edge14_Node000012_Node000013"><a xlink:title=" ">
<path fill="none" stroke="#63b8ff" d="M845.22,-224.56C856.77,-222.94 868.39,-221.39 879.5,-220 1036.43,-200.44 1077.4,-209.32 1233.5,-184 1293.74,-174.23 1307.72,-166.31 1367.5,-154 1372.94,-152.88 1501.99,-128.63 1587.58,-112.56"/>
<polygon fill="#63b8ff" stroke="#63b8ff" points="844.52,-221.12 835.11,-225.99 845.51,-228.05 844.52,-221.12"/>
</a>
</g>
</g>
<!-- Node14 -->
<g id="Node000014" class="node">
<title>Node14</title>
<g id="a_Node000014"><a xlink:href="UVoiceSystem_8cpp.html" target="_top" xlink:title="Implementation of UVoiceSystem.">
<polygon fill="white" stroke="#666666" points="939.5,-184 741.5,-184 741.5,-154 939.5,-154 939.5,-184"/>
<text text-anchor="start" x="749.5" y="-172" font-family="Malgun Gothic" font-size="10.00">Source/LatteLibrary</text>
<text text-anchor="middle" x="840.5" y="-161" font-family="Malgun Gothic" font-size="10.00">/Character/Private/UVoiceSystem.cpp</text>
</a>
</g>
</g>
<!-- Node12&#45;&gt;Node14 -->
<g id="edge15_Node000012_Node000014" class="edge">
<title>Node12&#45;&gt;Node14</title>
<g id="a_edge15_Node000012_Node000014"><a xlink:title=" ">
<path fill="none" stroke="#63b8ff" d="M774.34,-219.44C789.51,-208.1 808.1,-194.21 821.71,-184.04"/>
<polygon fill="#63b8ff" stroke="#63b8ff" points="772.24,-216.65 766.32,-225.44 776.43,-222.25 772.24,-216.65"/>
</a>
</g>
</g>
<!-- Node15&#45;&gt;Node3 -->
<g id="edge18_Node000015_Node000003" class="edge">
<title>Node15&#45;&gt;Node3</title>
<g id="a_edge18_Node000015_Node000003"><a xlink:title=" ">
<path fill="none" stroke="#63b8ff" d="M964.84,-209.8C962.36,-192.71 957.61,-171.26 948.5,-154 939.99,-137.89 925.55,-123.02 914.04,-112.73"/>
<polygon fill="#63b8ff" stroke="#63b8ff" points="961.37,-210.33 966.1,-219.81 968.32,-209.45 961.37,-210.33"/>
</a>
</g>
</g>
<!-- Node16 -->
<g id="Node000016" class="node">
<title>Node16</title>
<g id="a_Node000016"><a xlink:href="UGameDataManager_8cpp.html" target="_top" xlink:title="UGameDataManager 구현에 대한 Doxygen 주석을 제공합니다.">
<polygon fill="white" stroke="#666666" points="1549,-118 1386,-118 1386,-77 1549,-77 1549,-118"/>
<text text-anchor="start" x="1394" y="-106" font-family="Malgun Gothic" font-size="10.00">Source/LatteLibrary</text>
<text text-anchor="start" x="1394" y="-95" font-family="Malgun Gothic" font-size="10.00">/Manager/Private/UGameData</text>
<text text-anchor="middle" x="1467.5" y="-84" font-family="Malgun Gothic" font-size="10.00">Manager.cpp</text>
</a>
</g>
</g>
<!-- Node15&#45;&gt;Node16 -->
<g id="edge19_Node000015_Node000016" class="edge">
<title>Node15&#45;&gt;Node16</title>
<g id="a_edge19_Node000015_Node000016"><a xlink:title=" ">
<path fill="none" stroke="#63b8ff" d="M1056.63,-219.8C1136.21,-203.44 1158.85,-205.06 1233.5,-184 1299.48,-165.39 1373.46,-137.05 1420.24,-118.16"/>
<polygon fill="#63b8ff" stroke="#63b8ff" points="1055.71,-216.42 1046.64,-221.89 1057.14,-223.27 1055.71,-216.42"/>
</a>
</g>
</g>
<!-- Node17 -->
<g id="Node000017" class="node">
<title>Node17</title>
<g id="a_Node000017"><a xlink:href="UGameDataManager_8h.html" target="_top" xlink:title="UGameDataManager 선언에 대한 Doxygen 주석을 제공합니다.">
<polygon fill="white" stroke="#666666" points="1225,-184 1016,-184 1016,-154 1225,-154 1225,-184"/>
<text text-anchor="start" x="1024" y="-172" font-family="Malgun Gothic" font-size="10.00">Source/LatteLibrary</text>
<text text-anchor="middle" x="1120.5" y="-161" font-family="Malgun Gothic" font-size="10.00">/Manager/Public/UGameDataManager.h</text>
</a>
</g>
</g>
<!-- Node15&#45;&gt;Node17 -->
<g id="edge20_Node000015_Node000017" class="edge">
<title>Node15&#45;&gt;Node17</title>
<g id="a_edge20_Node000015_Node000017"><a xlink:title=" ">
<path fill="none" stroke="#63b8ff" d="M1019.88,-215.71C1043.03,-205.19 1069.47,-193.18 1089.43,-184.11"/>
<polygon fill="#63b8ff" stroke="#63b8ff" points="1018.18,-212.63 1010.53,-219.96 1021.08,-219.01 1018.18,-212.63"/>
</a>
</g>
</g>
<!-- Node17&#45;&gt;Node3 -->
<g id="edge21_Node000017_Node000003" class="edge">
<title>Node17&#45;&gt;Node3</title>
<g id="a_edge21_Node000017_Node000003"><a xlink:title=" ">
<path fill="none" stroke="#63b8ff" d="M1065.28,-150.87C1027.28,-139.08 977.42,-123.61 941.76,-112.54"/>
<polygon fill="#63b8ff" stroke="#63b8ff" points="1064.58,-154.32 1075.17,-153.94 1066.66,-147.63 1064.58,-154.32"/>
</a>
</g>
</g>
<!-- Node17&#45;&gt;Node6 -->
<g id="edge22_Node000017_Node000006" class="edge">
<title>Node17&#45;&gt;Node6</title>
<g id="a_edge22_Node000017_Node000006"><a xlink:title=" ">
<path fill="none" stroke="#63b8ff" d="M1112.04,-144.47C1108.95,-135.89 1105.49,-126.28 1102.54,-118.07"/>
<polygon fill="#63b8ff" stroke="#63b8ff" points="1108.76,-145.71 1115.44,-153.94 1115.35,-143.34 1108.76,-145.71"/>
</a>
</g>
</g>
<!-- Node17&#45;&gt;Node7 -->
<g id="edge23_Node000017_Node000007" class="edge">
<title>Node17&#45;&gt;Node7</title>
<g id="a_edge23_Node000017_Node000007"><a xlink:title=" ">
<path fill="none" stroke="#63b8ff" d="M1005.98,-152.79C940.4,-143.65 856.65,-131.25 782.5,-118 779.58,-117.48 776.6,-116.93 773.61,-116.37"/>
<polygon fill="#63b8ff" stroke="#63b8ff" points="1005.55,-156.27 1015.94,-154.18 1006.51,-149.33 1005.55,-156.27"/>
</a>
</g>
</g>
<!-- Node17&#45;&gt;Node13 -->
<g id="edge24_Node000017_Node000013" class="edge">
<title>Node17&#45;&gt;Node13</title>
<g id="a_edge24_Node000017_Node000013"><a xlink:title=" ">
<path fill="none" stroke="#63b8ff" d="M1235.27,-157.17C1323.8,-148.27 1449.19,-134.47 1558.5,-118 1569.22,-116.39 1580.52,-114.48 1591.57,-112.5"/>
<polygon fill="#63b8ff" stroke="#63b8ff" points="1234.81,-153.7 1225.21,-158.18 1235.5,-160.66 1234.81,-153.7"/>
</a>
</g>
</g>
<!-- Node17&#45;&gt;Node16 -->
<g id="edge25_Node000017_Node000016" class="edge">
<title>Node17&#45;&gt;Node16</title>
<g id="a_edge25_Node000017_Node000016"><a xlink:title=" ">
<path fill="none" stroke="#63b8ff" d="M1204.65,-152.09C1254.88,-142.48 1319.9,-129.84 1377.5,-118 1380.16,-117.45 1382.87,-116.89 1385.6,-116.32"/>
<polygon fill="#63b8ff" stroke="#63b8ff" points="1203.97,-148.66 1194.81,-153.98 1205.29,-155.54 1203.97,-148.66"/>
</a>
</g>
</g>
<!-- Node18 -->
<g id="Node000018" class="node">
<title>Node18</title>
<g id="a_Node000018"><a xlink:href="ANetworkTesterActor_8cpp.html" target="_top" xlink:title="ANetworkTesterActor 구현에 대한 Doxygen 주석을 제공합니다.">
<polygon fill="white" stroke="#666666" points="1368,-118 1189,-118 1189,-77 1368,-77 1368,-118"/>
<text text-anchor="start" x="1197" y="-106" font-family="Malgun Gothic" font-size="10.00">Source/LatteLibrary</text>
<text text-anchor="start" x="1197" y="-95" font-family="Malgun Gothic" font-size="10.00">/Network/Private/ANetworkTester</text>
<text text-anchor="middle" x="1278.5" y="-84" font-family="Malgun Gothic" font-size="10.00">Actor.cpp</text>
</a>
</g>
</g>
<!-- Node17&#45;&gt;Node18 -->
<g id="edge26_Node000017_Node000018" class="edge">
<title>Node17&#45;&gt;Node18</title>
<g id="a_edge26_Node000017_Node000018"><a xlink:title=" ">
<path fill="none" stroke="#63b8ff" d="M1161.64,-149.9C1183.85,-140.13 1211.29,-128.06 1234,-118.07"/>
<polygon fill="#63b8ff" stroke="#63b8ff" points="1160.22,-146.71 1152.47,-153.94 1163.04,-153.11 1160.22,-146.71"/>
</a>
</g>
</g>
<!-- Node19&#45;&gt;Node13 -->
<g id="edge28_Node000019_Node000013" class="edge">
<title>Node19&#45;&gt;Node13</title>
<g id="a_edge28_Node000019_Node000013"><a xlink:title=" ">
<path fill="none" stroke="#63b8ff" d="M1221.91,-217.28C1330.81,-187.92 1519.47,-137.06 1610.46,-112.53"/>
<polygon fill="#63b8ff" stroke="#63b8ff" points="1220.69,-213.99 1211.95,-219.97 1222.51,-220.74 1220.69,-213.99"/>
</a>
</g>
</g>
<!-- Node19&#45;&gt;Node17 -->
<g id="edge29_Node000019_Node000017" class="edge">
<title>Node19&#45;&gt;Node17</title>
<g id="a_edge29_Node000019_Node000017"><a xlink:title=" ">
<path fill="none" stroke="#63b8ff" d="M1131.42,-209.95C1128.96,-200.96 1126.38,-191.5 1124.34,-184.04"/>
<polygon fill="#63b8ff" stroke="#63b8ff" points="1128.09,-211.05 1134.11,-219.77 1134.85,-209.2 1128.09,-211.05"/>
</a>
</g>
</g>
</g>
</svg>
