<?xml version="1.0" encoding="UTF-8" standalone="no"?>
<!DOCTYPE svg PUBLIC "-//W3C//DTD SVG 1.1//EN"
 "http://www.w3.org/Graphics/SVG/1.1/DTD/svg11.dtd">
<!-- Generated by graphviz version 2.43.0 (0)
 -->
<!-- Title: Source/LatteLibrary/Data/Public/EDamageType.h Pages: 1 -->
<!--zoomable 269 -->

<svg id="main" version="1.1" xmlns="http://www.w3.org/2000/svg" xmlns:xlink="http://www.w3.org/1999/xlink" xml:space="preserve" onload="init(evt)">
<style type="text/css"><![CDATA[
.node, .edge {opacity: 0.7;}
.node.selected, .edge.selected {opacity: 1;}
.edge:hover path { stroke: red; }
.edge:hover polygon { stroke: red; fill: red; }
]]></style>

<defs>
  <circle id="rim" cx="0" cy="0" r="7"/>
  <circle id="rim2" cx="0" cy="0" r="3.5"/>
  <g id="zoomPlus">
    <use xlink:href="#rim" fill="#404040"><set attributeName="fill" to="#808080" begin="zoomplus.mouseover" end="zoomplus.mouseout"/></use>
    <path d="M-4,0h8M0,-4v8" fill="none" stroke="white" stroke-width="1.5" pointer-events="none"/>
  </g>
  <g id="zoomMin">
    <use xlink:href="#rim" fill="#404040"><set attributeName="fill" to="#808080" begin="zoomminus.mouseover" end="zoomminus.mouseout"/></use>
    <path d="M-4,0h8" fill="none" stroke="white" stroke-width="1.5" pointer-events="none"/>
  </g>
  <g id="arrowUp" transform="translate(30 24)">
    <use xlink:href="#rim"/>
    <path pointer-events="none" fill="none" stroke="white" stroke-width="1.5" d="M0,-3.0v7 M-2.5,-0.5L0,-3.0L2.5,-0.5"/>
  </g>
  <g id="arrowRight" transform="rotate(90) translate(36 -43)">
    <use xlink:href="#rim"/>
    <path pointer-events="none" fill="none" stroke="white" stroke-width="1.5" d="M0,-3.0v7 M-2.5,-0.5L0,-3.0L2.5,-0.5"/>
  </g>
  <g id="arrowDown" transform="rotate(180) translate(-30 -48)">
    <use xlink:href="#rim"/>
    <path pointer-events="none" fill="none" stroke="white" stroke-width="1.5" d="M0,-3.0v7 M-2.5,-0.5L0,-3.0L2.5,-0.5"/>
  </g>
  <g id="arrowLeft" transform="rotate(270) translate(-36 17)">
    <use xlink:href="#rim"/>
    <path pointer-events="none" fill="none" stroke="white" stroke-width="1.5" d="M0,-3.0v7 M-2.5,-0.5L0,-3.0L2.5,-0.5"/>
  </g>
  <g id="resetDef">
    <use xlink:href="#rim2" fill="#404040"><set attributeName="fill" to="#808080" begin="reset.mouseover" end="reset.mouseout"/></use>
  </g>
</defs>
<script type="application/ecmascript">
var viewWidth = 2009;
var viewHeight = 269;
var sectionId = 'dynsection-0';
</script>
<script type="application/ecmascript" xlink:href="svg.min.js"/>
<svg id="graph" class="graph">
<g id="viewport">
<title>Source/LatteLibrary/Data/Public/EDamageType.h</title>
<!-- Node1 -->
<g id="Node000001" class="node">
<title>Node1</title>
<g id="a_Node000001"><a xlink:title="EDamageType 열거형에 대한 Doxygen 주석을 제공합니다.">
<polygon fill="#999999" stroke="#666666" points="1627.5,-261 1470.5,-261 1470.5,-231 1627.5,-231 1627.5,-261"/>
<text text-anchor="start" x="1478.5" y="-249" font-family="Malgun Gothic" font-size="10.00">Source/LatteLibrary</text>
<text text-anchor="middle" x="1549" y="-238" font-family="Malgun Gothic" font-size="10.00">/Data/Public/EDamageType.h</text>
</a>
</g>
</g>
<!-- Node2 -->
<g id="Node000002" class="node">
<title>Node2</title>
<g id="a_Node000002"><a xlink:href="UGameDamageType_8h.html" target="_top" xlink:title="UGameDamageType 선언에 대한 Doxygen 주석을 제공합니다.">
<polygon fill="white" stroke="#666666" points="979.5,-195 802.5,-195 802.5,-154 979.5,-154 979.5,-195"/>
<text text-anchor="start" x="810.5" y="-183" font-family="Malgun Gothic" font-size="10.00">Source/LatteLibrary</text>
<text text-anchor="start" x="810.5" y="-172" font-family="Malgun Gothic" font-size="10.00">/Common/Public/UGameDamage</text>
<text text-anchor="middle" x="891" y="-161" font-family="Malgun Gothic" font-size="10.00">Type.h</text>
</a>
</g>
</g>
<!-- Node1&#45;&gt;Node2 -->
<g id="edge1_Node000001_Node000002" class="edge">
<title>Node1&#45;&gt;Node2</title>
<g id="a_edge1_Node000001_Node000002"><a xlink:title=" ">
<path fill="none" stroke="#63b8ff" d="M1460.29,-235.63C1334.49,-222.34 1105.6,-198.17 979.77,-184.88"/>
<polygon fill="#63b8ff" stroke="#63b8ff" points="1459.97,-239.12 1470.28,-236.69 1460.71,-232.15 1459.97,-239.12"/>
</a>
</g>
</g>
<!-- Node7 -->
<g id="Node000007" class="node">
<title>Node7</title>
<g id="a_Node000007"><a xlink:href="FHitStopData_8h.html" target="_top" xlink:title="FHitStopData 구조체에 대한 Doxygen 주석을 제공합니다.">
<polygon fill="white" stroke="#666666" points="1331,-189.5 1179,-189.5 1179,-159.5 1331,-159.5 1331,-189.5"/>
<text text-anchor="start" x="1187" y="-177.5" font-family="Malgun Gothic" font-size="10.00">Source/LatteLibrary</text>
<text text-anchor="middle" x="1255" y="-166.5" font-family="Malgun Gothic" font-size="10.00">/Data/Public/FHitStopData.h</text>
</a>
</g>
</g>
<!-- Node1&#45;&gt;Node7 -->
<g id="edge6_Node000001_Node000007" class="edge">
<title>Node1&#45;&gt;Node7</title>
<g id="a_edge6_Node000001_Node000007"><a xlink:title=" ">
<path fill="none" stroke="#63b8ff" d="M1479.69,-228.62C1429.44,-216.74 1362.2,-200.84 1314.41,-189.54"/>
<polygon fill="#63b8ff" stroke="#63b8ff" points="1478.97,-232.04 1489.5,-230.94 1480.58,-225.23 1478.97,-232.04"/>
</a>
</g>
</g>
<!-- Node17 -->
<g id="Node000017" class="node">
<title>Node17</title>
<g id="a_Node000017"><a xlink:href="FKnockbackData_8h.html" target="_top" xlink:title="FKnockbackData 구조체에 대한 Doxygen 주석을 제공합니다.">
<polygon fill="white" stroke="#666666" points="1538,-189.5 1368,-189.5 1368,-159.5 1538,-159.5 1538,-189.5"/>
<text text-anchor="start" x="1376" y="-177.5" font-family="Malgun Gothic" font-size="10.00">Source/LatteLibrary</text>
<text text-anchor="middle" x="1453" y="-166.5" font-family="Malgun Gothic" font-size="10.00">/Data/Public/FKnockbackData.h</text>
</a>
</g>
</g>
<!-- Node1&#45;&gt;Node17 -->
<g id="edge19_Node000001_Node000017" class="edge">
<title>Node1&#45;&gt;Node17</title>
<g id="a_edge19_Node000001_Node000017"><a xlink:title=" ">
<path fill="none" stroke="#63b8ff" d="M1521.29,-224.94C1505.63,-213.6 1486.44,-199.71 1472.4,-189.54"/>
<polygon fill="#63b8ff" stroke="#63b8ff" points="1519.42,-227.91 1529.57,-230.94 1523.53,-222.24 1519.42,-227.91"/>
</a>
</g>
</g>
<!-- Node19 -->
<g id="Node000019" class="node">
<title>Node19</title>
<g id="a_Node000019"><a xlink:href="FPadFeedbackData_8h.html" target="_top" xlink:title="FPadFeedbackData 구조체에 대한 Doxygen 주석을 제공합니다.">
<polygon fill="white" stroke="#666666" points="1736,-189.5 1556,-189.5 1556,-159.5 1736,-159.5 1736,-189.5"/>
<text text-anchor="start" x="1564" y="-177.5" font-family="Malgun Gothic" font-size="10.00">Source/LatteLibrary</text>
<text text-anchor="middle" x="1646" y="-166.5" font-family="Malgun Gothic" font-size="10.00">/Data/Public/FPadFeedbackData.h</text>
</a>
</g>
</g>
<!-- Node1&#45;&gt;Node19 -->
<g id="edge26_Node000001_Node000019" class="edge">
<title>Node1&#45;&gt;Node19</title>
<g id="a_edge26_Node000001_Node000019"><a xlink:title=" ">
<path fill="none" stroke="#63b8ff" d="M1577,-224.94C1592.82,-213.6 1612.21,-199.71 1626.4,-189.54"/>
<polygon fill="#63b8ff" stroke="#63b8ff" points="1574.72,-222.27 1568.63,-230.94 1578.8,-227.96 1574.72,-222.27"/>
</a>
</g>
</g>
<!-- Node21 -->
<g id="Node000021" class="node">
<title>Node21</title>
<g id="a_Node000021"><a xlink:href="UGameVFXManager_8cpp.html" target="_top" xlink:title="UGameVFXManager 구현에 대한 Doxygen 주석을 제공합니다.">
<polygon fill="white" stroke="#666666" points="2000.5,-112.5 1779.5,-112.5 1779.5,-82.5 2000.5,-82.5 2000.5,-112.5"/>
<text text-anchor="start" x="1787.5" y="-100.5" font-family="Malgun Gothic" font-size="10.00">Source/LatteLibrary</text>
<text text-anchor="middle" x="1890" y="-89.5" font-family="Malgun Gothic" font-size="10.00">/Manager/Private/UGameVFXManager.cpp</text>
</a>
</g>
</g>
<!-- Node1&#45;&gt;Node21 -->
<g id="edge28_Node000001_Node000021" class="edge">
<title>Node1&#45;&gt;Node21</title>
<g id="a_edge28_Node000001_Node000021"><a xlink:title=" ">
<path fill="none" stroke="#63b8ff" d="M1638.01,-233.2C1673.06,-225.84 1712.6,-213.99 1745,-195 1766.7,-182.28 1763.92,-169.15 1784,-154 1806.39,-137.11 1834.64,-122.6 1856.35,-112.66"/>
<polygon fill="#63b8ff" stroke="#63b8ff" points="1636.89,-229.85 1627.77,-235.25 1638.26,-236.72 1636.89,-229.85"/>
</a>
</g>
</g>
<!-- Node22 -->
<g id="Node000022" class="node">
<title>Node22</title>
<g id="a_Node000022"><a xlink:href="UGameVFXManager_8h.html" target="_top" xlink:title="UGameVFXManager 선언에 대한 Doxygen 주석을 제공합니다.">
<polygon fill="white" stroke="#666666" points="1997.5,-189.5 1792.5,-189.5 1792.5,-159.5 1997.5,-159.5 1997.5,-189.5"/>
<text text-anchor="start" x="1800.5" y="-177.5" font-family="Malgun Gothic" font-size="10.00">Source/LatteLibrary</text>
<text text-anchor="middle" x="1895" y="-166.5" font-family="Malgun Gothic" font-size="10.00">/Manager/Public/UGameVFXManager.h</text>
</a>
</g>
</g>
<!-- Node1&#45;&gt;Node22 -->
<g id="edge29_Node000001_Node000022" class="edge">
<title>Node1&#45;&gt;Node22</title>
<g id="a_edge29_Node000001_Node000022"><a xlink:title=" ">
<path fill="none" stroke="#63b8ff" d="M1629.09,-228.91C1688.38,-217 1768.37,-200.94 1825.09,-189.54"/>
<polygon fill="#63b8ff" stroke="#63b8ff" points="1628.13,-225.53 1619.02,-230.94 1629.51,-232.4 1628.13,-225.53"/>
</a>
</g>
</g>
<!-- Node3 -->
<g id="Node000003" class="node">
<title>Node3</title>
<g id="a_Node000003"><a xlink:href="UGameFunctionLibrary_8h.html" target="_top" xlink:title="UGameFunctionLibrary 선언에 대한 Doxygen 주석을 제공합니다.">
<polygon fill="white" stroke="#666666" points="590.5,-118 413.5,-118 413.5,-77 590.5,-77 590.5,-118"/>
<text text-anchor="start" x="421.5" y="-106" font-family="Malgun Gothic" font-size="10.00">Source/LatteLibrary</text>
<text text-anchor="start" x="421.5" y="-95" font-family="Malgun Gothic" font-size="10.00">/Common/Public/UGameFunction</text>
<text text-anchor="middle" x="502" y="-84" font-family="Malgun Gothic" font-size="10.00">Library.h</text>
</a>
</g>
</g>
<!-- Node2&#45;&gt;Node3 -->
<g id="edge2_Node000002_Node000003" class="edge">
<title>Node2&#45;&gt;Node3</title>
<g id="a_edge2_Node000002_Node000003"><a xlink:title=" ">
<path fill="none" stroke="#63b8ff" d="M792.05,-154.42C730.01,-142.46 650.71,-127.17 590.71,-115.6"/>
<polygon fill="#63b8ff" stroke="#63b8ff" points="791.76,-157.93 802.24,-156.39 793.09,-151.06 791.76,-157.93"/>
</a>
</g>
</g>
<!-- Node4 -->
<g id="Node000004" class="node">
<title>Node4</title>
<g id="a_Node000004"><a xlink:href="UGameFunctionLibrary_8cpp.html" target="_top" xlink:title="UGameFunctionLibrary 구현에 대한 Doxygen 주석을 제공합니다.">
<polygon fill="white" stroke="#666666" points="182,-41 0,-41 0,0 182,0 182,-41"/>
<text text-anchor="start" x="8" y="-29" font-family="Malgun Gothic" font-size="10.00">Source/LatteLibrary</text>
<text text-anchor="start" x="8" y="-18" font-family="Malgun Gothic" font-size="10.00">/Common/Private/UGameFunction</text>
<text text-anchor="middle" x="91" y="-7" font-family="Malgun Gothic" font-size="10.00">Library.cpp</text>
</a>
</g>
</g>
<!-- Node3&#45;&gt;Node4 -->
<g id="edge3_Node000003_Node000004" class="edge">
<title>Node3&#45;&gt;Node4</title>
<g id="a_edge3_Node000003_Node000004"><a xlink:title=" ">
<path fill="none" stroke="#63b8ff" d="M403.42,-79.32C342.23,-68.56 261.99,-54.25 191,-41 188.04,-40.45 185.04,-39.88 182.01,-39.31"/>
<polygon fill="#63b8ff" stroke="#63b8ff" points="403,-82.8 413.46,-81.09 404.21,-75.91 403,-82.8"/>
</a>
</g>
</g>
<!-- Node5 -->
<g id="Node000005" class="node">
<title>Node5</title>
<g id="a_Node000005"><a xlink:href="ANetworkTesterActor_8cpp.html" target="_top" xlink:title="ANetworkTesterActor 구현에 대한 Doxygen 주석을 제공합니다.">
<polygon fill="white" stroke="#666666" points="799.5,-41 620.5,-41 620.5,0 799.5,0 799.5,-41"/>
<text text-anchor="start" x="628.5" y="-29" font-family="Malgun Gothic" font-size="10.00">Source/LatteLibrary</text>
<text text-anchor="start" x="628.5" y="-18" font-family="Malgun Gothic" font-size="10.00">/Network/Private/ANetworkTester</text>
<text text-anchor="middle" x="710" y="-7" font-family="Malgun Gothic" font-size="10.00">Actor.cpp</text>
</a>
</g>
</g>
<!-- Node3&#45;&gt;Node5 -->
<g id="edge4_Node000003_Node000005" class="edge">
<title>Node3&#45;&gt;Node5</title>
<g id="a_edge4_Node000003_Node000005"><a xlink:title=" ">
<path fill="none" stroke="#63b8ff" d="M565.68,-73.54C594.5,-63.15 628.21,-50.99 655.8,-41.04"/>
<polygon fill="#63b8ff" stroke="#63b8ff" points="564.33,-70.31 556.11,-76.99 566.7,-76.89 564.33,-70.31"/>
</a>
</g>
</g>
<!-- Node6 -->
<g id="Node000006" class="node">
<title>Node6</title>
<g id="a_Node000006"><a xlink:href="NetworkData_8cpp.html" target="_top" xlink:title="NetworkData 구조 구현에 대한 Doxygen 주석을 제공합니다.">
<polygon fill="white" stroke="#666666" points="386,-35.5 200,-35.5 200,-5.5 386,-5.5 386,-35.5"/>
<text text-anchor="start" x="208" y="-23.5" font-family="Malgun Gothic" font-size="10.00">Source/LatteLibrary</text>
<text text-anchor="middle" x="293" y="-12.5" font-family="Malgun Gothic" font-size="10.00">/Network/Private/NetworkData.cpp</text>
</a>
</g>
</g>
<!-- Node3&#45;&gt;Node6 -->
<g id="edge5_Node000003_Node000006" class="edge">
<title>Node3&#45;&gt;Node6</title>
<g id="a_edge5_Node000003_Node000006"><a xlink:title=" ">
<path fill="none" stroke="#63b8ff" d="M438.09,-73.57C403.55,-61.17 362.01,-46.26 332.24,-35.58"/>
<polygon fill="#63b8ff" stroke="#63b8ff" points="437.04,-76.91 447.63,-76.99 439.4,-70.32 437.04,-76.91"/>
</a>
</g>
</g>
<!-- Node8 -->
<g id="Node000008" class="node">
<title>Node8</title>
<g id="a_Node000008"><a xlink:href="UHitStopSystem_8h.html" target="_top" xlink:title="UHitStopSystem 선언에 대한 Doxygen 주석을 제공합니다.">
<polygon fill="white" stroke="#666666" points="1132,-118 986,-118 986,-77 1132,-77 1132,-118"/>
<text text-anchor="start" x="994" y="-106" font-family="Malgun Gothic" font-size="10.00">Source/LatteLibrary</text>
<text text-anchor="start" x="994" y="-95" font-family="Malgun Gothic" font-size="10.00">/Character/Public/UHitStop</text>
<text text-anchor="middle" x="1059" y="-84" font-family="Malgun Gothic" font-size="10.00">System.h</text>
</a>
</g>
</g>
<!-- Node7&#45;&gt;Node8 -->
<g id="edge7_Node000007_Node000008" class="edge">
<title>Node7&#45;&gt;Node8</title>
<g id="a_edge7_Node000007_Node000008"><a xlink:title=" ">
<path fill="none" stroke="#63b8ff" d="M1208.46,-155.69C1178.87,-144.37 1140.55,-129.71 1110.12,-118.06"/>
<polygon fill="#63b8ff" stroke="#63b8ff" points="1207.54,-159.09 1218.13,-159.39 1210.05,-152.55 1207.54,-159.09"/>
</a>
</g>
</g>
<!-- Node13 -->
<g id="Node000013" class="node">
<title>Node13</title>
<g id="a_Node000013"><a xlink:href="UGameDataManager_8h.html" target="_top" xlink:title="UGameDataManager 선언에 대한 Doxygen 주석을 제공합니다.">
<polygon fill="white" stroke="#666666" points="1359.5,-112.5 1150.5,-112.5 1150.5,-82.5 1359.5,-82.5 1359.5,-112.5"/>
<text text-anchor="start" x="1158.5" y="-100.5" font-family="Malgun Gothic" font-size="10.00">Source/LatteLibrary</text>
<text text-anchor="middle" x="1255" y="-89.5" font-family="Malgun Gothic" font-size="10.00">/Manager/Public/UGameDataManager.h</text>
</a>
</g>
</g>
<!-- Node7&#45;&gt;Node13 -->
<g id="edge12_Node000007_Node000013" class="edge">
<title>Node7&#45;&gt;Node13</title>
<g id="a_edge12_Node000007_Node000013"><a xlink:title=" ">
<path fill="none" stroke="#63b8ff" d="M1255,-149.04C1255,-136.95 1255,-122.79 1255,-112.54"/>
<polygon fill="#63b8ff" stroke="#63b8ff" points="1251.5,-149.39 1255,-159.39 1258.5,-149.39 1251.5,-149.39"/>
</a>
</g>
</g>
<!-- Node9 -->
<g id="Node000009" class="node">
<title>Node9</title>
<g id="a_Node000009"><a xlink:href="AGameCharacter_8cpp.html" target="_top" xlink:title="AGameCharacter 구현에 대한 Doxygen 주석을 제공합니다.">
<polygon fill="white" stroke="#666666" points="1360,-35.5 1150,-35.5 1150,-5.5 1360,-5.5 1360,-35.5"/>
<text text-anchor="start" x="1158" y="-23.5" font-family="Malgun Gothic" font-size="10.00">Source/LatteLibrary</text>
<text text-anchor="middle" x="1255" y="-12.5" font-family="Malgun Gothic" font-size="10.00">/Character/Private/AGameCharacter.cpp</text>
</a>
</g>
</g>
<!-- Node8&#45;&gt;Node9 -->
<g id="edge8_Node000008_Node000009" class="edge">
<title>Node8&#45;&gt;Node9</title>
<g id="a_edge8_Node000008_Node000009"><a xlink:title=" ">
<path fill="none" stroke="#63b8ff" d="M1119.35,-73.41C1151.66,-61.05 1190.4,-46.22 1218.2,-35.58"/>
<polygon fill="#63b8ff" stroke="#63b8ff" points="1118.07,-70.15 1109.99,-76.99 1120.58,-76.69 1118.07,-70.15"/>
</a>
</g>
</g>
<!-- Node10 -->
<g id="Node000010" class="node">
<title>Node10</title>
<g id="a_Node000010"><a xlink:href="APlayerActor_8cpp.html" target="_top" xlink:title="Provides Doxygen annotations for APlayerActor implementation.">
<polygon fill="white" stroke="#666666" points="1131.5,-41 986.5,-41 986.5,0 1131.5,0 1131.5,-41"/>
<text text-anchor="start" x="994.5" y="-29" font-family="Malgun Gothic" font-size="10.00">Source/LatteLibrary</text>
<text text-anchor="start" x="994.5" y="-18" font-family="Malgun Gothic" font-size="10.00">/Character/Private/APlayer</text>
<text text-anchor="middle" x="1059" y="-7" font-family="Malgun Gothic" font-size="10.00">Actor.cpp</text>
</a>
</g>
</g>
<!-- Node8&#45;&gt;Node10 -->
<g id="edge9_Node000008_Node000010" class="edge">
<title>Node8&#45;&gt;Node10</title>
<g id="a_edge9_Node000008_Node000010"><a xlink:title=" ">
<path fill="none" stroke="#63b8ff" d="M1059,-66.69C1059,-58.08 1059,-48.9 1059,-41.07"/>
<polygon fill="#63b8ff" stroke="#63b8ff" points="1055.5,-66.79 1059,-76.79 1062.5,-66.79 1055.5,-66.79"/>
</a>
</g>
</g>
<!-- Node11 -->
<g id="Node000011" class="node">
<title>Node11</title>
<g id="a_Node000011"><a xlink:href="UHitStopSystem_8cpp.html" target="_top" xlink:title="UHitStopSystem 구현에 대한 Doxygen 주석을 제공합니다.">
<polygon fill="white" stroke="#666666" points="968.5,-41 817.5,-41 817.5,0 968.5,0 968.5,-41"/>
<text text-anchor="start" x="825.5" y="-29" font-family="Malgun Gothic" font-size="10.00">Source/LatteLibrary</text>
<text text-anchor="start" x="825.5" y="-18" font-family="Malgun Gothic" font-size="10.00">/Character/Private/UHitStop</text>
<text text-anchor="middle" x="893" y="-7" font-family="Malgun Gothic" font-size="10.00">System.cpp</text>
</a>
</g>
</g>
<!-- Node8&#45;&gt;Node11 -->
<g id="edge10_Node000008_Node000011" class="edge">
<title>Node8&#45;&gt;Node11</title>
<g id="a_edge10_Node000008_Node000011"><a xlink:title=" ">
<path fill="none" stroke="#63b8ff" d="M1006.67,-72.86C984.01,-62.62 957.79,-50.77 936.25,-41.04"/>
<polygon fill="#63b8ff" stroke="#63b8ff" points="1005.26,-76.06 1015.82,-76.99 1008.15,-69.68 1005.26,-76.06"/>
</a>
</g>
</g>
<!-- Node12 -->
<g id="Node000012" class="node">
<title>Node12</title>
<g id="a_Node000012"><a xlink:href="UVoiceSystem_8cpp.html" target="_top" xlink:title="Implementation of UVoiceSystem.">
<polygon fill="white" stroke="#666666" points="602,-35.5 404,-35.5 404,-5.5 602,-5.5 602,-35.5"/>
<text text-anchor="start" x="412" y="-23.5" font-family="Malgun Gothic" font-size="10.00">Source/LatteLibrary</text>
<text text-anchor="middle" x="503" y="-12.5" font-family="Malgun Gothic" font-size="10.00">/Character/Private/UVoiceSystem.cpp</text>
</a>
</g>
</g>
<!-- Node8&#45;&gt;Node12 -->
<g id="edge11_Node000008_Node000012" class="edge">
<title>Node8&#45;&gt;Node12</title>
<g id="a_edge11_Node000008_Node000012"><a xlink:title=" ">
<path fill="none" stroke="#63b8ff" d="M975.73,-87.58C885.63,-77.6 737.83,-60.29 611,-41 600.17,-39.35 588.75,-37.46 577.57,-35.52"/>
<polygon fill="#63b8ff" stroke="#63b8ff" points="975.56,-91.08 985.89,-88.7 976.33,-84.13 975.56,-91.08"/>
</a>
</g>
</g>
<!-- Node13&#45;&gt;Node5 -->
<g id="edge18_Node000013_Node000005" class="edge">
<title>Node13&#45;&gt;Node5</title>
<g id="a_edge18_Node000013_Node000005"><a xlink:title=" ">
<path fill="none" stroke="#63b8ff" d="M1167.02,-80.89C1158.24,-79.5 1149.45,-78.18 1141,-77 993.56,-56.44 955.14,-63.55 808,-41 805.26,-40.58 802.47,-40.14 799.67,-39.67"/>
<polygon fill="#63b8ff" stroke="#63b8ff" points="1166.48,-84.35 1176.91,-82.49 1167.59,-77.44 1166.48,-84.35"/>
</a>
</g>
</g>
<!-- Node13&#45;&gt;Node9 -->
<g id="edge13_Node000013_Node000009" class="edge">
<title>Node13&#45;&gt;Node9</title>
<g id="a_edge13_Node000013_Node000009"><a xlink:title=" ">
<path fill="none" stroke="#63b8ff" d="M1255,-72.04C1255,-59.95 1255,-45.79 1255,-35.54"/>
<polygon fill="#63b8ff" stroke="#63b8ff" points="1251.5,-72.39 1255,-82.39 1258.5,-72.39 1251.5,-72.39"/>
</a>
</g>
</g>
<!-- Node13&#45;&gt;Node11 -->
<g id="edge14_Node000013_Node000011" class="edge">
<title>Node13&#45;&gt;Node11</title>
<g id="a_edge14_Node000013_Node000011"><a xlink:title=" ">
<path fill="none" stroke="#63b8ff" d="M1171.32,-80.5C1116.06,-69.76 1042.1,-55.05 977,-41 974.22,-40.4 971.39,-39.78 968.53,-39.15"/>
<polygon fill="#63b8ff" stroke="#63b8ff" points="1170.93,-83.99 1181.41,-82.46 1172.26,-77.11 1170.93,-83.99"/>
</a>
</g>
</g>
<!-- Node14 -->
<g id="Node000014" class="node">
<title>Node14</title>
<g id="a_Node000014"><a xlink:href="UKnockbackSystem_8cpp.html" target="_top" xlink:title="UKnockbackSystem 구현에 대한 Doxygen 주석을 제공합니다.">
<polygon fill="white" stroke="#666666" points="1937,-41 1769,-41 1769,0 1937,0 1937,-41"/>
<text text-anchor="start" x="1777" y="-29" font-family="Malgun Gothic" font-size="10.00">Source/LatteLibrary</text>
<text text-anchor="start" x="1777" y="-18" font-family="Malgun Gothic" font-size="10.00">/Character/Private/UKnockback</text>
<text text-anchor="middle" x="1853" y="-7" font-family="Malgun Gothic" font-size="10.00">System.cpp</text>
</a>
</g>
</g>
<!-- Node13&#45;&gt;Node14 -->
<g id="edge15_Node000013_Node000014" class="edge">
<title>Node13&#45;&gt;Node14</title>
<g id="a_edge15_Node000013_Node000014"><a xlink:title=" ">
<path fill="none" stroke="#63b8ff" d="M1341.52,-80.85C1350.45,-79.45 1359.4,-78.14 1368,-77 1541.45,-54.11 1586.99,-66.99 1760,-41 1762.94,-40.56 1765.92,-40.08 1768.93,-39.58"/>
<polygon fill="#63b8ff" stroke="#63b8ff" points="1340.78,-77.42 1331.46,-82.46 1341.89,-84.33 1340.78,-77.42"/>
</a>
</g>
</g>
<!-- Node15 -->
<g id="Node000015" class="node">
<title>Node15</title>
<g id="a_Node000015"><a xlink:href="UStatSystem_8cpp.html" target="_top" xlink:title="UStatSystem 구현에 대한 Doxygen 주석을 제공합니다.">
<polygon fill="white" stroke="#666666" points="1750.5,-35.5 1559.5,-35.5 1559.5,-5.5 1750.5,-5.5 1750.5,-35.5"/>
<text text-anchor="start" x="1567.5" y="-23.5" font-family="Malgun Gothic" font-size="10.00">Source/LatteLibrary</text>
<text text-anchor="middle" x="1655" y="-12.5" font-family="Malgun Gothic" font-size="10.00">/Character/Private/UStatSystem.cpp</text>
</a>
</g>
</g>
<!-- Node13&#45;&gt;Node15 -->
<g id="edge16_Node000013_Node000015" class="edge">
<title>Node13&#45;&gt;Node15</title>
<g id="a_edge16_Node000013_Node000015"><a xlink:title=" ">
<path fill="none" stroke="#63b8ff" d="M1339.62,-80.63C1410.91,-67.27 1511.92,-48.33 1580.26,-35.51"/>
<polygon fill="#63b8ff" stroke="#63b8ff" points="1338.95,-77.2 1329.77,-82.48 1340.24,-84.08 1338.95,-77.2"/>
</a>
</g>
</g>
<!-- Node16 -->
<g id="Node000016" class="node">
<title>Node16</title>
<g id="a_Node000016"><a xlink:href="UGameDataManager_8cpp.html" target="_top" xlink:title="UGameDataManager 구현에 대한 Doxygen 주석을 제공합니다.">
<polygon fill="white" stroke="#666666" points="1541.5,-41 1378.5,-41 1378.5,0 1541.5,0 1541.5,-41"/>
<text text-anchor="start" x="1386.5" y="-29" font-family="Malgun Gothic" font-size="10.00">Source/LatteLibrary</text>
<text text-anchor="start" x="1386.5" y="-18" font-family="Malgun Gothic" font-size="10.00">/Manager/Private/UGameData</text>
<text text-anchor="middle" x="1460" y="-7" font-family="Malgun Gothic" font-size="10.00">Manager.cpp</text>
</a>
</g>
</g>
<!-- Node13&#45;&gt;Node16 -->
<g id="edge17_Node000013_Node000016" class="edge">
<title>Node13&#45;&gt;Node16</title>
<g id="a_edge17_Node000013_Node000016"><a xlink:title=" ">
<path fill="none" stroke="#63b8ff" d="M1303.27,-78.84C1334.27,-67.5 1374.56,-52.76 1406.53,-41.06"/>
<polygon fill="#63b8ff" stroke="#63b8ff" points="1301.75,-75.67 1293.56,-82.39 1304.15,-82.24 1301.75,-75.67"/>
</a>
</g>
</g>
<!-- Node17&#45;&gt;Node13 -->
<g id="edge25_Node000017_Node000013" class="edge">
<title>Node17&#45;&gt;Node13</title>
<g id="a_edge25_Node000017_Node000013"><a xlink:title=" ">
<path fill="none" stroke="#63b8ff" d="M1406.27,-155.8C1371.39,-142.59 1324.38,-124.78 1292.08,-112.54"/>
<polygon fill="#63b8ff" stroke="#63b8ff" points="1405.17,-159.12 1415.76,-159.39 1407.65,-152.58 1405.17,-159.12"/>
</a>
</g>
</g>
<!-- Node17&#45;&gt;Node14 -->
<g id="edge20_Node000017_Node000014" class="edge">
<title>Node17&#45;&gt;Node14</title>
<g id="a_edge20_Node000017_Node000014"><a xlink:title=" ">
<path fill="none" stroke="#63b8ff" d="M1491.03,-154.77C1509.35,-144.96 1531.15,-132.06 1549,-118 1568.75,-102.44 1566.03,-89.24 1588,-77 1656.22,-38.98 1683.56,-57.01 1760,-41 1762.91,-40.39 1765.86,-39.77 1768.85,-39.15"/>
<polygon fill="#63b8ff" stroke="#63b8ff" points="1489.31,-151.73 1482.09,-159.47 1492.57,-157.92 1489.31,-151.73"/>
</a>
</g>
</g>
<!-- Node18 -->
<g id="Node000018" class="node">
<title>Node18</title>
<g id="a_Node000018"><a xlink:href="UKnockbackSystem_8h.html" target="_top" xlink:title="UKnockbackSystem 선언에 대한 Doxygen 주석을 제공합니다.">
<polygon fill="white" stroke="#666666" points="1540.5,-118 1377.5,-118 1377.5,-77 1540.5,-77 1540.5,-118"/>
<text text-anchor="start" x="1385.5" y="-106" font-family="Malgun Gothic" font-size="10.00">Source/LatteLibrary</text>
<text text-anchor="start" x="1385.5" y="-95" font-family="Malgun Gothic" font-size="10.00">/Character/Public/UKnockback</text>
<text text-anchor="middle" x="1459" y="-84" font-family="Malgun Gothic" font-size="10.00">System.h</text>
</a>
</g>
</g>
<!-- Node17&#45;&gt;Node18 -->
<g id="edge21_Node000017_Node000018" class="edge">
<title>Node17&#45;&gt;Node18</title>
<g id="a_edge21_Node000017_Node000018"><a xlink:title=" ">
<path fill="none" stroke="#63b8ff" d="M1454.94,-149.23C1455.74,-139.2 1456.66,-127.71 1457.42,-118.2"/>
<polygon fill="#63b8ff" stroke="#63b8ff" points="1451.44,-149.15 1454.13,-159.39 1458.41,-149.7 1451.44,-149.15"/>
</a>
</g>
</g>
<!-- Node18&#45;&gt;Node9 -->
<g id="edge22_Node000018_Node000009" class="edge">
<title>Node18&#45;&gt;Node9</title>
<g id="a_edge22_Node000018_Node000009"><a xlink:title=" ">
<path fill="none" stroke="#63b8ff" d="M1396.19,-73.41C1362.56,-61.05 1322.23,-46.22 1293.3,-35.58"/>
<polygon fill="#63b8ff" stroke="#63b8ff" points="1395.34,-76.82 1405.93,-76.99 1397.76,-70.25 1395.34,-76.82"/>
</a>
</g>
</g>
<!-- Node18&#45;&gt;Node10 -->
<g id="edge23_Node000018_Node000010" class="edge">
<title>Node18&#45;&gt;Node10</title>
<g id="a_edge23_Node000018_Node000010"><a xlink:title=" ">
<path fill="none" stroke="#63b8ff" d="M1367.15,-76.9C1265.86,-58.43 1238.07,-60.21 1141,-41 1137.99,-40.4 1134.91,-39.77 1131.81,-39.12"/>
<polygon fill="#63b8ff" stroke="#63b8ff" points="1366.72,-80.38 1377.19,-78.75 1367.99,-73.5 1366.72,-80.38"/>
</a>
</g>
</g>
<!-- Node18&#45;&gt;Node14 -->
<g id="edge24_Node000018_Node000014" class="edge">
<title>Node18&#45;&gt;Node14</title>
<g id="a_edge24_Node000018_Node000014"><a xlink:title=" ">
<path fill="none" stroke="#63b8ff" d="M1550.58,-77.84C1552.06,-77.56 1553.54,-77.28 1555,-77 1645.89,-59.79 1669.16,-58.49 1760,-41 1762.92,-40.44 1765.88,-39.86 1768.88,-39.27"/>
<polygon fill="#63b8ff" stroke="#63b8ff" points="1549.83,-74.42 1540.67,-79.76 1551.15,-81.3 1549.83,-74.42"/>
</a>
</g>
</g>
<!-- Node20 -->
<g id="Node000020" class="node">
<title>Node20</title>
<g id="a_Node000020"><a xlink:href="UCameraShakeSystem_8cpp.html" target="_top" xlink:title="UCameraShakeSystem 구현에 대한 Doxygen 주석을 제공합니다.">
<polygon fill="white" stroke="#666666" points="1750.5,-118 1597.5,-118 1597.5,-77 1750.5,-77 1750.5,-118"/>
<text text-anchor="start" x="1605.5" y="-106" font-family="Malgun Gothic" font-size="10.00">Source/LatteLibrary</text>
<text text-anchor="start" x="1605.5" y="-95" font-family="Malgun Gothic" font-size="10.00">/Character/Private/UCamera</text>
<text text-anchor="middle" x="1674" y="-84" font-family="Malgun Gothic" font-size="10.00">ShakeSystem.cpp</text>
</a>
</g>
</g>
<!-- Node19&#45;&gt;Node20 -->
<g id="edge27_Node000019_Node000020" class="edge">
<title>Node19&#45;&gt;Node20</title>
<g id="a_edge27_Node000019_Node000020"><a xlink:title=" ">
<path fill="none" stroke="#63b8ff" d="M1654.82,-149.87C1658.62,-139.69 1663.02,-127.91 1666.64,-118.2"/>
<polygon fill="#63b8ff" stroke="#63b8ff" points="1651.49,-148.8 1651.27,-159.39 1658.04,-151.25 1651.49,-148.8"/>
</a>
</g>
</g>
<!-- Node22&#45;&gt;Node21 -->
<g id="edge30_Node000022_Node000021" class="edge">
<title>Node22&#45;&gt;Node21</title>
<g id="a_edge30_Node000022_Node000021"><a xlink:title=" ">
<path fill="none" stroke="#63b8ff" d="M1893.39,-149.41C1892.58,-137.24 1891.63,-122.9 1890.94,-112.54"/>
<polygon fill="#63b8ff" stroke="#63b8ff" points="1889.9,-149.65 1894.06,-159.39 1896.89,-149.18 1889.9,-149.65"/>
</a>
</g>
</g>
</g>
</svg>

<g id="navigator" transform="translate(0 0)" fill="#404254">
  <rect fill="#f2f5e9" fill-opacity="0.5" stroke="#606060" stroke-width=".5" x="0" y="0" width="60" height="60"/>
  <use id="zoomplus" xlink:href="#zoomPlus" x="17" y="9" onmousedown="handleZoom(evt,'in')"/>
  <use id="zoomminus" xlink:href="#zoomMin" x="42" y="9" onmousedown="handleZoom(evt,'out')"/>
  <use id="reset" xlink:href="#resetDef" x="30" y="36" onmousedown="handleReset()"/>
   <use id="arrowup" xlink:href="#arrowUp" x="0" y="0" onmousedown="handlePan(0,-1)"/>
  <use id="arrowright" xlink:href="#arrowRight" x="0" y="0" onmousedown="handlePan(1,0)"/>
  <use id="arrowdown" xlink:href="#arrowDown" x="0" y="0" onmousedown="handlePan(0,1)"/>
  <use id="arrowleft" xlink:href="#arrowLeft" x="0" y="0" onmousedown="handlePan(-1,0)"/>
</g>
<svg viewBox="0 0 15 15" width="100%" height="30px" preserveAspectRatio="xMaxYMin meet">
 <g id="arrow_out" transform="scale(0.3 0.3)">
  <a xlink:href="EDamageType_8h__dep__incl_org.svg" target="_base">
   <rect id="button" ry="5" rx="5" y="6" x="6" height="38" width="38"
        fill="#f2f5e9" fill-opacity="0.5" stroke="#606060" stroke-width="1.0"/>
   <path id="arrow"
     d="M 11.500037,31.436501 C 11.940474,20.09759 22.043105,11.32322 32.158766,21.979434 L 37.068811,17.246167 C 37.068811,17.246167 37.088388,32 37.088388,32 L 22.160133,31.978069 C 22.160133,31.978069 26.997745,27.140456 26.997745,27.140456 C 18.528582,18.264221 13.291696,25.230495 11.500037,31.436501 z"
     style="fill:#404040;"/>
  </a>
 </g>
</svg>

<style type='text/css'>
<![CDATA[
[data-mouse-over-selected='false'] { opacity: 0.7; }
[data-mouse-over-selected='true']  { opacity: 1.0; }
]]>
</style>
<script type="application/ecmascript"><![CDATA[
document.addEventListener('DOMContentLoaded', (event) => {
  highlightEdges();
  highlightAdjacentNodes();
});
]]></script>
</svg>
