<?xml version="1.0" encoding="UTF-8" standalone="no"?>
<!DOCTYPE svg PUBLIC "-//W3C//DTD SVG 1.1//EN"
 "http://www.w3.org/Graphics/SVG/1.1/DTD/svg11.dtd">
<!-- Generated by graphviz version 2.43.0 (0)
 -->
<!-- Title: Source/LatteLibrary/Data/Public/EDamageType.h Pages: 1 -->
<!--zoomable 269 -->

<svg id="main" version="1.1" xmlns="http://www.w3.org/2000/svg" xmlns:xlink="http://www.w3.org/1999/xlink" xml:space="preserve" onload="init(evt)">
<style type="text/css"><![CDATA[
.node, .edge {opacity: 0.7;}
.node.selected, .edge.selected {opacity: 1;}
.edge:hover path { stroke: red; }
.edge:hover polygon { stroke: red; fill: red; }
]]></style>

<defs>
  <circle id="rim" cx="0" cy="0" r="7"/>
  <circle id="rim2" cx="0" cy="0" r="3.5"/>
  <g id="zoomPlus">
    <use xlink:href="#rim" fill="#404040"><set attributeName="fill" to="#808080" begin="zoomplus.mouseover" end="zoomplus.mouseout"/></use>
    <path d="M-4,0h8M0,-4v8" fill="none" stroke="white" stroke-width="1.5" pointer-events="none"/>
  </g>
  <g id="zoomMin">
    <use xlink:href="#rim" fill="#404040"><set attributeName="fill" to="#808080" begin="zoomminus.mouseover" end="zoomminus.mouseout"/></use>
    <path d="M-4,0h8" fill="none" stroke="white" stroke-width="1.5" pointer-events="none"/>
  </g>
  <g id="arrowUp" transform="translate(30 24)">
    <use xlink:href="#rim"/>
    <path pointer-events="none" fill="none" stroke="white" stroke-width="1.5" d="M0,-3.0v7 M-2.5,-0.5L0,-3.0L2.5,-0.5"/>
  </g>
  <g id="arrowRight" transform="rotate(90) translate(36 -43)">
    <use xlink:href="#rim"/>
    <path pointer-events="none" fill="none" stroke="white" stroke-width="1.5" d="M0,-3.0v7 M-2.5,-0.5L0,-3.0L2.5,-0.5"/>
  </g>
  <g id="arrowDown" transform="rotate(180) translate(-30 -48)">
    <use xlink:href="#rim"/>
    <path pointer-events="none" fill="none" stroke="white" stroke-width="1.5" d="M0,-3.0v7 M-2.5,-0.5L0,-3.0L2.5,-0.5"/>
  </g>
  <g id="arrowLeft" transform="rotate(270) translate(-36 17)">
    <use xlink:href="#rim"/>
    <path pointer-events="none" fill="none" stroke="white" stroke-width="1.5" d="M0,-3.0v7 M-2.5,-0.5L0,-3.0L2.5,-0.5"/>
  </g>
  <g id="resetDef">
    <use xlink:href="#rim2" fill="#404040"><set attributeName="fill" to="#808080" begin="reset.mouseover" end="reset.mouseout"/></use>
  </g>
</defs>
<script type="application/ecmascript">
var viewWidth = 2145;
var viewHeight = 269;
var sectionId = 'dynsection-0';
</script>
<script type="application/ecmascript" xlink:href="svg.min.js"/>
<svg id="graph" class="graph">
<g id="viewport">
<title>Source/LatteLibrary/Data/Public/EDamageType.h</title>
<!-- Node1 -->
<g id="Node000001" class="node">
<title>Node1</title>
<g id="a_Node000001"><a xlink:title="EDamageType 열거형에 대한 Doxygen 주석을 제공합니다.">
<polygon fill="#999999" stroke="#666666" points="1306.5,-261 1149.5,-261 1149.5,-231 1306.5,-231 1306.5,-261"/>
<text text-anchor="start" x="1157.5" y="-249" font-family="Malgun Gothic" font-size="10.00">Source/LatteLibrary</text>
<text text-anchor="middle" x="1228" y="-238" font-family="Malgun Gothic" font-size="10.00">/Data/Public/EDamageType.h</text>
</a>
</g>
</g>
<!-- Node2 -->
<g id="Node000002" class="node">
<title>Node2</title>
<g id="a_Node000002"><a xlink:href="UGameDamageType_8h.html" target="_top" xlink:title="UGameDamageType 선언에 대한 Doxygen 주석을 제공합니다.">
<polygon fill="white" stroke="#666666" points="759.5,-195 582.5,-195 582.5,-154 759.5,-154 759.5,-195"/>
<text text-anchor="start" x="590.5" y="-183" font-family="Malgun Gothic" font-size="10.00">Source/LatteLibrary</text>
<text text-anchor="start" x="590.5" y="-172" font-family="Malgun Gothic" font-size="10.00">/Common/Public/UGameDamage</text>
<text text-anchor="middle" x="671" y="-161" font-family="Malgun Gothic" font-size="10.00">Type.h</text>
</a>
</g>
</g>
<!-- Node1&#45;&gt;Node2 -->
<g id="edge1_Node000001_Node000002" class="edge">
<title>Node1&#45;&gt;Node2</title>
<g id="a_edge1_Node000001_Node000002"><a xlink:title=" ">
<path fill="none" stroke="#63b8ff" d="M1139.21,-233.92C1035.18,-220.94 863.84,-199.56 759.8,-186.58"/>
<polygon fill="#63b8ff" stroke="#63b8ff" points="1139.02,-237.42 1149.38,-235.19 1139.89,-230.48 1139.02,-237.42"/>
</a>
</g>
</g>
<!-- Node7 -->
<g id="Node000007" class="node">
<title>Node7</title>
<g id="a_Node000007"><a xlink:href="FHitStopData_8h.html" target="_top" xlink:title="FHitStopData 구조체에 대한 Doxygen 주석을 제공합니다.">
<polygon fill="white" stroke="#666666" points="1029,-189.5 877,-189.5 877,-159.5 1029,-159.5 1029,-189.5"/>
<text text-anchor="start" x="885" y="-177.5" font-family="Malgun Gothic" font-size="10.00">Source/LatteLibrary</text>
<text text-anchor="middle" x="953" y="-166.5" font-family="Malgun Gothic" font-size="10.00">/Data/Public/FHitStopData.h</text>
</a>
</g>
</g>
<!-- Node1&#45;&gt;Node7 -->
<g id="edge6_Node000001_Node000007" class="edge">
<title>Node1&#45;&gt;Node7</title>
<g id="a_edge6_Node000001_Node000007"><a xlink:title=" ">
<path fill="none" stroke="#63b8ff" d="M1162.58,-228.47C1115.65,-216.61 1053.09,-200.8 1008.57,-189.54"/>
<polygon fill="#63b8ff" stroke="#63b8ff" points="1161.8,-231.88 1172.35,-230.94 1163.51,-225.09 1161.8,-231.88"/>
</a>
</g>
</g>
<!-- Node16 -->
<g id="Node000016" class="node">
<title>Node16</title>
<g id="a_Node000016"><a xlink:href="FKnockbackData_8h.html" target="_top" xlink:title="FKnockbackData 구조체에 대한 Doxygen 주석을 제공합니다.">
<polygon fill="white" stroke="#666666" points="1217,-189.5 1047,-189.5 1047,-159.5 1217,-159.5 1217,-189.5"/>
<text text-anchor="start" x="1055" y="-177.5" font-family="Malgun Gothic" font-size="10.00">Source/LatteLibrary</text>
<text text-anchor="middle" x="1132" y="-166.5" font-family="Malgun Gothic" font-size="10.00">/Data/Public/FKnockbackData.h</text>
</a>
</g>
</g>
<!-- Node1&#45;&gt;Node16 -->
<g id="edge18_Node000001_Node000016" class="edge">
<title>Node1&#45;&gt;Node16</title>
<g id="a_edge18_Node000001_Node000016"><a xlink:title=" ">
<path fill="none" stroke="#63b8ff" d="M1200.29,-224.94C1184.63,-213.6 1165.44,-199.71 1151.4,-189.54"/>
<polygon fill="#63b8ff" stroke="#63b8ff" points="1198.42,-227.91 1208.57,-230.94 1202.53,-222.24 1198.42,-227.91"/>
</a>
</g>
</g>
<!-- Node18 -->
<g id="Node000018" class="node">
<title>Node18</title>
<g id="a_Node000018"><a xlink:href="FPadFeedbackData_8h.html" target="_top" xlink:title="FPadFeedbackData 구조체에 대한 Doxygen 주석을 제공합니다.">
<polygon fill="white" stroke="#666666" points="1415,-189.5 1235,-189.5 1235,-159.5 1415,-159.5 1415,-189.5"/>
<text text-anchor="start" x="1243" y="-177.5" font-family="Malgun Gothic" font-size="10.00">Source/LatteLibrary</text>
<text text-anchor="middle" x="1325" y="-166.5" font-family="Malgun Gothic" font-size="10.00">/Data/Public/FPadFeedbackData.h</text>
</a>
</g>
</g>
<!-- Node1&#45;&gt;Node18 -->
<g id="edge25_Node000001_Node000018" class="edge">
<title>Node1&#45;&gt;Node18</title>
<g id="a_edge25_Node000001_Node000018"><a xlink:title=" ">
<path fill="none" stroke="#63b8ff" d="M1256,-224.94C1271.82,-213.6 1291.21,-199.71 1305.4,-189.54"/>
<polygon fill="#63b8ff" stroke="#63b8ff" points="1253.72,-222.27 1247.63,-230.94 1257.8,-227.96 1253.72,-222.27"/>
</a>
</g>
</g>
<!-- Node20 -->
<g id="Node000020" class="node">
<title>Node20</title>
<g id="a_Node000020"><a xlink:href="UGameVFXManager_8cpp.html" target="_top" xlink:title="UGameVFXManager 구현에 대한 Doxygen 주석을 제공합니다.">
<polygon fill="white" stroke="#666666" points="1826.5,-189.5 1605.5,-189.5 1605.5,-159.5 1826.5,-159.5 1826.5,-189.5"/>
<text text-anchor="start" x="1613.5" y="-177.5" font-family="Malgun Gothic" font-size="10.00">Source/LatteLibrary</text>
<text text-anchor="middle" x="1716" y="-166.5" font-family="Malgun Gothic" font-size="10.00">/Manager/Private/UGameVFXManager.cpp</text>
</a>
</g>
</g>
<!-- Node1&#45;&gt;Node20 -->
<g id="edge27_Node000001_Node000020" class="edge">
<title>Node1&#45;&gt;Node20</title>
<g id="a_edge27_Node000001_Node000020"><a xlink:title=" ">
<path fill="none" stroke="#63b8ff" d="M1316.98,-233.57C1391.57,-223.83 1500.83,-209.19 1596,-195 1607.48,-193.29 1619.57,-191.41 1631.47,-189.52"/>
<polygon fill="#63b8ff" stroke="#63b8ff" points="1316.15,-230.15 1306.69,-234.91 1317.06,-237.09 1316.15,-230.15"/>
</a>
</g>
</g>
<!-- Node21 -->
<g id="Node000021" class="node">
<title>Node21</title>
<g id="a_Node000021"><a xlink:href="UBroadcastManger_8h.html" target="_top" xlink:title="UBroadcastManger 선언에 대한 Doxygen 주석을 제공합니다.">
<polygon fill="white" stroke="#666666" points="1587,-195 1433,-195 1433,-154 1587,-154 1587,-195"/>
<text text-anchor="start" x="1441" y="-183" font-family="Malgun Gothic" font-size="10.00">Source/LatteLibrary</text>
<text text-anchor="start" x="1441" y="-172" font-family="Malgun Gothic" font-size="10.00">/Manager/Public/UBroadcast</text>
<text text-anchor="middle" x="1510" y="-161" font-family="Malgun Gothic" font-size="10.00">Manger.h</text>
</a>
</g>
</g>
<!-- Node1&#45;&gt;Node21 -->
<g id="edge28_Node000001_Node000021" class="edge">
<title>Node1&#45;&gt;Node21</title>
<g id="a_edge28_Node000001_Node000021"><a xlink:title=" ">
<path fill="none" stroke="#63b8ff" d="M1294.8,-228.54C1336.27,-218.32 1389.72,-205.14 1432.97,-194.48"/>
<polygon fill="#63b8ff" stroke="#63b8ff" points="1293.94,-225.14 1285.07,-230.94 1295.61,-231.94 1293.94,-225.14"/>
</a>
</g>
</g>
<!-- Node3 -->
<g id="Node000003" class="node">
<title>Node3</title>
<g id="a_Node000003"><a xlink:href="UGameFunctionLibrary_8h.html" target="_top" xlink:title="UGameFunctionLibrary 선언에 대한 Doxygen 주석을 제공합니다.">
<polygon fill="white" stroke="#666666" points="526.5,-118 349.5,-118 349.5,-77 526.5,-77 526.5,-118"/>
<text text-anchor="start" x="357.5" y="-106" font-family="Malgun Gothic" font-size="10.00">Source/LatteLibrary</text>
<text text-anchor="start" x="357.5" y="-95" font-family="Malgun Gothic" font-size="10.00">/Common/Public/UGameFunction</text>
<text text-anchor="middle" x="438" y="-84" font-family="Malgun Gothic" font-size="10.00">Library.h</text>
</a>
</g>
</g>
<!-- Node2&#45;&gt;Node3 -->
<g id="edge2_Node000002_Node000003" class="edge">
<title>Node2&#45;&gt;Node3</title>
<g id="a_edge2_Node000002_Node000003"><a xlink:title=" ">
<path fill="none" stroke="#63b8ff" d="M600.51,-150.81C568.04,-140.36 529.89,-128.08 498.71,-118.04"/>
<polygon fill="#63b8ff" stroke="#63b8ff" points="599.8,-154.26 610.39,-153.99 601.94,-147.59 599.8,-154.26"/>
</a>
</g>
</g>
<!-- Node4 -->
<g id="Node000004" class="node">
<title>Node4</title>
<g id="a_Node000004"><a xlink:href="UGameFunctionLibrary_8cpp.html" target="_top" xlink:title="UGameFunctionLibrary 구현에 대한 Doxygen 주석을 제공합니다.">
<polygon fill="white" stroke="#666666" points="342,-41 160,-41 160,0 342,0 342,-41"/>
<text text-anchor="start" x="168" y="-29" font-family="Malgun Gothic" font-size="10.00">Source/LatteLibrary</text>
<text text-anchor="start" x="168" y="-18" font-family="Malgun Gothic" font-size="10.00">/Common/Private/UGameFunction</text>
<text text-anchor="middle" x="251" y="-7" font-family="Malgun Gothic" font-size="10.00">Library.cpp</text>
</a>
</g>
</g>
<!-- Node3&#45;&gt;Node4 -->
<g id="edge3_Node000003_Node000004" class="edge">
<title>Node3&#45;&gt;Node4</title>
<g id="a_edge3_Node000003_Node000004"><a xlink:title=" ">
<path fill="none" stroke="#63b8ff" d="M380.07,-73.27C354.31,-62.94 324.31,-50.9 299.72,-41.04"/>
<polygon fill="#63b8ff" stroke="#63b8ff" points="378.77,-76.52 389.36,-76.99 381.38,-70.02 378.77,-76.52"/>
</a>
</g>
</g>
<!-- Node5 -->
<g id="Node000005" class="node">
<title>Node5</title>
<g id="a_Node000005"><a xlink:href="ANetworkTesterActor_8cpp.html" target="_top" xlink:title="ANetworkTesterActor 구현에 대한 Doxygen 주석을 제공합니다.">
<polygon fill="white" stroke="#666666" points="727.5,-35.5 548.5,-35.5 548.5,-5.5 727.5,-5.5 727.5,-35.5"/>
<text text-anchor="start" x="556.5" y="-23.5" font-family="Malgun Gothic" font-size="10.00">Source/YiSan/Network</text>
<text text-anchor="middle" x="638" y="-12.5" font-family="Malgun Gothic" font-size="10.00">/Private/ANetworkTesterActor.cpp</text>
</a>
</g>
</g>
<!-- Node3&#45;&gt;Node5 -->
<g id="edge4_Node000003_Node000005" class="edge">
<title>Node3&#45;&gt;Node5</title>
<g id="a_edge4_Node000003_Node000005"><a xlink:title=" ">
<path fill="none" stroke="#63b8ff" d="M499.58,-73.41C532.55,-61.05 572.08,-46.22 600.45,-35.58"/>
<polygon fill="#63b8ff" stroke="#63b8ff" points="498.16,-70.2 490.03,-76.99 500.62,-76.76 498.16,-70.2"/>
</a>
</g>
</g>
<!-- Node6 -->
<g id="Node000006" class="node">
<title>Node6</title>
<g id="a_Node000006"><a xlink:href="NetworkData_8cpp.html" target="_top" xlink:title="NetworkData 구조 구현에 대한 Doxygen 주석을 제공합니다.">
<polygon fill="white" stroke="#666666" points="142,-35.5 0,-35.5 0,-5.5 142,-5.5 142,-35.5"/>
<text text-anchor="start" x="8" y="-23.5" font-family="Malgun Gothic" font-size="10.00">Source/YiSan/Network</text>
<text text-anchor="middle" x="71" y="-12.5" font-family="Malgun Gothic" font-size="10.00">/Private/NetworkData.cpp</text>
</a>
</g>
</g>
<!-- Node3&#45;&gt;Node6 -->
<g id="edge5_Node000003_Node000006" class="edge">
<title>Node3&#45;&gt;Node6</title>
<g id="a_edge5_Node000003_Node000006"><a xlink:title=" ">
<path fill="none" stroke="#63b8ff" d="M339.04,-78.58C283.61,-68.23 213.31,-54.61 151,-41 143.32,-39.32 135.25,-37.47 127.3,-35.58"/>
<polygon fill="#63b8ff" stroke="#63b8ff" points="338.74,-82.08 349.21,-80.47 340.02,-75.2 338.74,-82.08"/>
</a>
</g>
</g>
<!-- Node8 -->
<g id="Node000008" class="node">
<title>Node8</title>
<g id="a_Node000008"><a xlink:href="UHitStopSystem_8h.html" target="_top" xlink:title="UHitStopSystem 선언에 대한 Doxygen 주석을 제공합니다.">
<polygon fill="white" stroke="#666666" points="804,-118 658,-118 658,-77 804,-77 804,-118"/>
<text text-anchor="start" x="666" y="-106" font-family="Malgun Gothic" font-size="10.00">Source/LatteLibrary</text>
<text text-anchor="start" x="666" y="-95" font-family="Malgun Gothic" font-size="10.00">/Character/Public/UHitStop</text>
<text text-anchor="middle" x="731" y="-84" font-family="Malgun Gothic" font-size="10.00">System.h</text>
</a>
</g>
</g>
<!-- Node7&#45;&gt;Node8 -->
<g id="edge7_Node000007_Node000008" class="edge">
<title>Node7&#45;&gt;Node8</title>
<g id="a_edge7_Node000007_Node000008"><a xlink:title=" ">
<path fill="none" stroke="#63b8ff" d="M901.86,-156.22C868.18,-144.85 824.03,-129.93 789.04,-118.11"/>
<polygon fill="#63b8ff" stroke="#63b8ff" points="900.91,-159.6 911.5,-159.48 903.15,-152.96 900.91,-159.6"/>
</a>
</g>
</g>
<!-- Node12 -->
<g id="Node000012" class="node">
<title>Node12</title>
<g id="a_Node000012"><a xlink:href="UGameDataManager_8h.html" target="_top" xlink:title="UGameDataManager 선언에 대한 Doxygen 주석을 제공합니다.">
<polygon fill="white" stroke="#666666" points="1212.5,-112.5 1003.5,-112.5 1003.5,-82.5 1212.5,-82.5 1212.5,-112.5"/>
<text text-anchor="start" x="1011.5" y="-100.5" font-family="Malgun Gothic" font-size="10.00">Source/LatteLibrary</text>
<text text-anchor="middle" x="1108" y="-89.5" font-family="Malgun Gothic" font-size="10.00">/Manager/Public/UGameDataManager.h</text>
</a>
</g>
</g>
<!-- Node7&#45;&gt;Node12 -->
<g id="edge11_Node000007_Node000012" class="edge">
<title>Node7&#45;&gt;Node12</title>
<g id="a_edge11_Node000007_Node000012"><a xlink:title=" ">
<path fill="none" stroke="#63b8ff" d="M991.35,-154.94C1018.45,-141.83 1054.23,-124.52 1078.98,-112.54"/>
<polygon fill="#63b8ff" stroke="#63b8ff" points="989.63,-151.89 982.15,-159.39 992.68,-158.19 989.63,-151.89"/>
</a>
</g>
</g>
<!-- Node9 -->
<g id="Node000009" class="node">
<title>Node9</title>
<g id="a_Node000009"><a xlink:href="ALatteGameCharacter_8cpp.html" target="_top" xlink:title=" ">
<polygon fill="white" stroke="#666666" points="914,-41 746,-41 746,0 914,0 914,-41"/>
<text text-anchor="start" x="754" y="-29" font-family="Malgun Gothic" font-size="10.00">Source/LatteLibrary</text>
<text text-anchor="start" x="754" y="-18" font-family="Malgun Gothic" font-size="10.00">/Character/Private/ALatteGame</text>
<text text-anchor="middle" x="830" y="-7" font-family="Malgun Gothic" font-size="10.00">Character.cpp</text>
</a>
</g>
</g>
<!-- Node8&#45;&gt;Node9 -->
<g id="edge8_Node000008_Node000009" class="edge">
<title>Node8&#45;&gt;Node9</title>
<g id="a_edge8_Node000008_Node000009"><a xlink:title=" ">
<path fill="none" stroke="#63b8ff" d="M764.9,-70.82C777.71,-61.11 792.07,-50.24 804.03,-41.17"/>
<polygon fill="#63b8ff" stroke="#63b8ff" points="762.61,-68.16 756.75,-76.99 766.84,-73.74 762.61,-68.16"/>
</a>
</g>
</g>
<!-- Node10 -->
<g id="Node000010" class="node">
<title>Node10</title>
<g id="a_Node000010"><a xlink:href="ALattePlayerCharacter_8cpp.html" target="_top" xlink:title=" ">
<polygon fill="white" stroke="#666666" points="530,-41 360,-41 360,0 530,0 530,-41"/>
<text text-anchor="start" x="368" y="-29" font-family="Malgun Gothic" font-size="10.00">Source/LatteLibrary</text>
<text text-anchor="start" x="368" y="-18" font-family="Malgun Gothic" font-size="10.00">/Character/Private/ALattePlayer</text>
<text text-anchor="middle" x="445" y="-7" font-family="Malgun Gothic" font-size="10.00">Character.cpp</text>
</a>
</g>
</g>
<!-- Node8&#45;&gt;Node10 -->
<g id="edge9_Node000008_Node000010" class="edge">
<title>Node8&#45;&gt;Node10</title>
<g id="a_edge9_Node000008_Node000010"><a xlink:title=" ">
<path fill="none" stroke="#63b8ff" d="M647.86,-74.7C607.31,-64.06 558.93,-51.38 519.58,-41.06"/>
<polygon fill="#63b8ff" stroke="#63b8ff" points="647.16,-78.13 657.72,-77.28 648.93,-71.36 647.16,-78.13"/>
</a>
</g>
</g>
<!-- Node11 -->
<g id="Node000011" class="node">
<title>Node11</title>
<g id="a_Node000011"><a xlink:href="UHitStopSystem_8cpp.html" target="_top" xlink:title="UHitStopSystem 구현에 대한 Doxygen 주석을 제공합니다.">
<polygon fill="white" stroke="#666666" points="1083.5,-41 932.5,-41 932.5,0 1083.5,0 1083.5,-41"/>
<text text-anchor="start" x="940.5" y="-29" font-family="Malgun Gothic" font-size="10.00">Source/LatteLibrary</text>
<text text-anchor="start" x="940.5" y="-18" font-family="Malgun Gothic" font-size="10.00">/Character/Private/UHitStop</text>
<text text-anchor="middle" x="1008" y="-7" font-family="Malgun Gothic" font-size="10.00">System.cpp</text>
</a>
</g>
</g>
<!-- Node8&#45;&gt;Node11 -->
<g id="edge10_Node000008_Node000011" class="edge">
<title>Node8&#45;&gt;Node11</title>
<g id="a_edge10_Node000008_Node000011"><a xlink:title=" ">
<path fill="none" stroke="#63b8ff" d="M812.81,-74.35C851.84,-63.78 898.12,-51.25 935.82,-41.04"/>
<polygon fill="#63b8ff" stroke="#63b8ff" points="811.79,-71 803.06,-76.99 813.62,-77.76 811.79,-71"/>
</a>
</g>
</g>
<!-- Node12&#45;&gt;Node5 -->
<g id="edge17_Node000012_Node000005" class="edge">
<title>Node12&#45;&gt;Node5</title>
<g id="a_edge17_Node000012_Node000005"><a xlink:title=" ">
<path fill="none" stroke="#63b8ff" d="M1018.62,-80.8C1010.64,-79.48 1002.68,-78.2 995,-77 880.61,-59.15 851.18,-60.19 737,-41 727.15,-39.34 716.78,-37.46 706.61,-35.53"/>
<polygon fill="#63b8ff" stroke="#63b8ff" points="1018.28,-84.29 1028.72,-82.49 1019.43,-77.39 1018.28,-84.29"/>
</a>
</g>
</g>
<!-- Node12&#45;&gt;Node9 -->
<g id="edge12_Node000012_Node000009" class="edge">
<title>Node12&#45;&gt;Node9</title>
<g id="a_edge12_Node000012_Node000009"><a xlink:title=" ">
<path fill="none" stroke="#63b8ff" d="M1046.37,-79.87C1003.83,-68.4 947.11,-53.09 902.42,-41.04"/>
<polygon fill="#63b8ff" stroke="#63b8ff" points="1045.47,-83.26 1056.04,-82.48 1047.29,-76.5 1045.47,-83.26"/>
</a>
</g>
</g>
<!-- Node12&#45;&gt;Node11 -->
<g id="edge13_Node000012_Node000011" class="edge">
<title>Node12&#45;&gt;Node11</title>
<g id="a_edge13_Node000012_Node000011"><a xlink:title=" ">
<path fill="none" stroke="#63b8ff" d="M1081.07,-76.31C1066.55,-65.41 1048.7,-52.02 1034.27,-41.2"/>
<polygon fill="#63b8ff" stroke="#63b8ff" points="1079.09,-79.19 1089.19,-82.39 1083.29,-73.59 1079.09,-79.19"/>
</a>
</g>
</g>
<!-- Node13 -->
<g id="Node000013" class="node">
<title>Node13</title>
<g id="a_Node000013"><a xlink:href="UKnockbackSystem_8cpp.html" target="_top" xlink:title="UKnockbackSystem 구현에 대한 Doxygen 주석을 제공합니다.">
<polygon fill="white" stroke="#666666" points="1660,-41 1492,-41 1492,0 1660,0 1660,-41"/>
<text text-anchor="start" x="1500" y="-29" font-family="Malgun Gothic" font-size="10.00">Source/LatteLibrary</text>
<text text-anchor="start" x="1500" y="-18" font-family="Malgun Gothic" font-size="10.00">/Character/Private/UKnockback</text>
<text text-anchor="middle" x="1576" y="-7" font-family="Malgun Gothic" font-size="10.00">System.cpp</text>
</a>
</g>
</g>
<!-- Node12&#45;&gt;Node13 -->
<g id="edge14_Node000012_Node000013" class="edge">
<title>Node12&#45;&gt;Node13</title>
<g id="a_edge14_Node000012_Node000013"><a xlink:title=" ">
<path fill="none" stroke="#63b8ff" d="M1202.05,-80.89C1210.48,-79.55 1218.89,-78.23 1227,-77 1340.59,-59.71 1369.82,-60.8 1483,-41 1485.93,-40.49 1488.9,-39.95 1491.9,-39.4"/>
<polygon fill="#63b8ff" stroke="#63b8ff" points="1201.47,-77.43 1192.15,-82.47 1202.58,-84.35 1201.47,-77.43"/>
</a>
</g>
</g>
<!-- Node14 -->
<g id="Node000014" class="node">
<title>Node14</title>
<g id="a_Node000014"><a xlink:href="UStatSystem_8cpp.html" target="_top" xlink:title="UStatSystem 구현에 대한 Doxygen 주석을 제공합니다.">
<polygon fill="white" stroke="#666666" points="1473.5,-35.5 1282.5,-35.5 1282.5,-5.5 1473.5,-5.5 1473.5,-35.5"/>
<text text-anchor="start" x="1290.5" y="-23.5" font-family="Malgun Gothic" font-size="10.00">Source/LatteLibrary</text>
<text text-anchor="middle" x="1378" y="-12.5" font-family="Malgun Gothic" font-size="10.00">/Character/Private/UStatSystem.cpp</text>
</a>
</g>
</g>
<!-- Node12&#45;&gt;Node14 -->
<g id="edge15_Node000012_Node000014" class="edge">
<title>Node12&#45;&gt;Node14</title>
<g id="a_edge15_Node000012_Node000014"><a xlink:title=" ">
<path fill="none" stroke="#63b8ff" d="M1168.38,-79.73C1216.2,-66.44 1282.23,-48.1 1327.32,-35.58"/>
<polygon fill="#63b8ff" stroke="#63b8ff" points="1167.17,-76.43 1158.47,-82.48 1169.04,-83.18 1167.17,-76.43"/>
</a>
</g>
</g>
<!-- Node15 -->
<g id="Node000015" class="node">
<title>Node15</title>
<g id="a_Node000015"><a xlink:href="UGameDataManager_8cpp.html" target="_top" xlink:title="UGameDataManager 구현에 대한 Doxygen 주석을 제공합니다.">
<polygon fill="white" stroke="#666666" points="1264.5,-41 1101.5,-41 1101.5,0 1264.5,0 1264.5,-41"/>
<text text-anchor="start" x="1109.5" y="-29" font-family="Malgun Gothic" font-size="10.00">Source/LatteLibrary</text>
<text text-anchor="start" x="1109.5" y="-18" font-family="Malgun Gothic" font-size="10.00">/Manager/Private/UGameData</text>
<text text-anchor="middle" x="1183" y="-7" font-family="Malgun Gothic" font-size="10.00">Manager.cpp</text>
</a>
</g>
</g>
<!-- Node12&#45;&gt;Node15 -->
<g id="edge16_Node000012_Node000015" class="edge">
<title>Node12&#45;&gt;Node15</title>
<g id="a_edge16_Node000012_Node000015"><a xlink:title=" ">
<path fill="none" stroke="#63b8ff" d="M1129.43,-75.07C1140.09,-64.41 1152.88,-51.62 1163.3,-41.2"/>
<polygon fill="#63b8ff" stroke="#63b8ff" points="1126.7,-72.85 1122.11,-82.39 1131.65,-77.8 1126.7,-72.85"/>
</a>
</g>
</g>
<!-- Node16&#45;&gt;Node12 -->
<g id="edge24_Node000016_Node000012" class="edge">
<title>Node16&#45;&gt;Node12</title>
<g id="a_edge24_Node000016_Node000012"><a xlink:title=" ">
<path fill="none" stroke="#63b8ff" d="M1124.41,-149.78C1120.49,-137.53 1115.84,-123 1112.49,-112.54"/>
<polygon fill="#63b8ff" stroke="#63b8ff" points="1121.1,-150.94 1127.49,-159.39 1127.77,-148.8 1121.1,-150.94"/>
</a>
</g>
</g>
<!-- Node16&#45;&gt;Node13 -->
<g id="edge19_Node000016_Node000013" class="edge">
<title>Node16&#45;&gt;Node13</title>
<g id="a_edge19_Node000016_Node000013"><a xlink:title=" ">
<path fill="none" stroke="#63b8ff" d="M1167.91,-154.22C1184.99,-144.35 1205.28,-131.56 1222,-118 1241.53,-102.16 1238.76,-88.74 1261,-77 1349.4,-30.35 1384.73,-59.26 1483,-41 1485.92,-40.46 1488.89,-39.89 1491.88,-39.32"/>
<polygon fill="#63b8ff" stroke="#63b8ff" points="1165.77,-151.41 1158.8,-159.39 1169.22,-157.5 1165.77,-151.41"/>
</a>
</g>
</g>
<!-- Node17 -->
<g id="Node000017" class="node">
<title>Node17</title>
<g id="a_Node000017"><a xlink:href="UKnockbackSystem_8h.html" target="_top" xlink:title="UKnockbackSystem 선언에 대한 Doxygen 주석을 제공합니다.">
<polygon fill="white" stroke="#666666" points="985.5,-118 822.5,-118 822.5,-77 985.5,-77 985.5,-118"/>
<text text-anchor="start" x="830.5" y="-106" font-family="Malgun Gothic" font-size="10.00">Source/LatteLibrary</text>
<text text-anchor="start" x="830.5" y="-95" font-family="Malgun Gothic" font-size="10.00">/Character/Public/UKnockback</text>
<text text-anchor="middle" x="904" y="-84" font-family="Malgun Gothic" font-size="10.00">System.h</text>
</a>
</g>
</g>
<!-- Node16&#45;&gt;Node17 -->
<g id="edge20_Node000016_Node000017" class="edge">
<title>Node16&#45;&gt;Node17</title>
<g id="a_edge20_Node000016_Node000017"><a xlink:title=" ">
<path fill="none" stroke="#63b8ff" d="M1079.48,-156.22C1044.89,-144.85 999.54,-129.93 963.61,-118.11"/>
<polygon fill="#63b8ff" stroke="#63b8ff" points="1078.79,-159.68 1089.38,-159.48 1080.98,-153.03 1078.79,-159.68"/>
</a>
</g>
</g>
<!-- Node17&#45;&gt;Node9 -->
<g id="edge21_Node000017_Node000009" class="edge">
<title>Node17&#45;&gt;Node9</title>
<g id="a_edge21_Node000017_Node000009"><a xlink:title=" ">
<path fill="none" stroke="#63b8ff" d="M877.37,-69.51C868.1,-60.11 857.88,-49.76 849.31,-41.07"/>
<polygon fill="#63b8ff" stroke="#63b8ff" points="875.04,-72.13 884.56,-76.79 880.03,-67.22 875.04,-72.13"/>
</a>
</g>
</g>
<!-- Node17&#45;&gt;Node10 -->
<g id="edge22_Node000017_Node000010" class="edge">
<title>Node17&#45;&gt;Node10</title>
<g id="a_edge22_Node000017_Node000010"><a xlink:title=" ">
<path fill="none" stroke="#63b8ff" d="M812.11,-76.92C690.22,-56.38 656.91,-60.95 539,-41 536.04,-40.5 533.04,-39.97 530,-39.43"/>
<polygon fill="#63b8ff" stroke="#63b8ff" points="811.76,-80.41 822.21,-78.65 812.94,-73.51 811.76,-80.41"/>
</a>
</g>
</g>
<!-- Node17&#45;&gt;Node13 -->
<g id="edge23_Node000017_Node000013" class="edge">
<title>Node17&#45;&gt;Node13</title>
<g id="a_edge23_Node000017_Node000013"><a xlink:title=" ">
<path fill="none" stroke="#63b8ff" d="M995.84,-77C1212.05,-46.89 1270.91,-70.92 1483,-41 1485.94,-40.59 1488.93,-40.13 1491.94,-39.65"/>
<polygon fill="#63b8ff" stroke="#63b8ff" points="995.17,-73.56 985.76,-78.43 996.15,-80.49 995.17,-73.56"/>
</a>
</g>
</g>
<!-- Node19 -->
<g id="Node000019" class="node">
<title>Node19</title>
<g id="a_Node000019"><a xlink:href="UCameraShakeSystem_8cpp.html" target="_top" xlink:title="UCameraShakeSystem 구현에 대한 Doxygen 주석을 제공합니다.">
<polygon fill="white" stroke="#666666" points="1422.5,-118 1269.5,-118 1269.5,-77 1422.5,-77 1422.5,-118"/>
<text text-anchor="start" x="1277.5" y="-106" font-family="Malgun Gothic" font-size="10.00">Source/LatteLibrary</text>
<text text-anchor="start" x="1277.5" y="-95" font-family="Malgun Gothic" font-size="10.00">/Character/Private/UCamera</text>
<text text-anchor="middle" x="1346" y="-84" font-family="Malgun Gothic" font-size="10.00">ShakeSystem.cpp</text>
</a>
</g>
</g>
<!-- Node18&#45;&gt;Node19 -->
<g id="edge26_Node000018_Node000019" class="edge">
<title>Node18&#45;&gt;Node19</title>
<g id="a_edge26_Node000018_Node000019"><a xlink:title=" ">
<path fill="none" stroke="#63b8ff" d="M1331.71,-149.55C1334.54,-139.44 1337.79,-127.81 1340.48,-118.2"/>
<polygon fill="#63b8ff" stroke="#63b8ff" points="1328.28,-148.82 1328.95,-159.39 1335.02,-150.71 1328.28,-148.82"/>
</a>
</g>
</g>
<!-- Node21&#45;&gt;Node11 -->
<g id="edge30_Node000021_Node000011" class="edge">
<title>Node21&#45;&gt;Node11</title>
<g id="a_edge30_Node000021_Node000011"><a xlink:title=" ">
<path fill="none" stroke="#63b8ff" d="M1495.16,-144.85C1481.85,-122.33 1460.1,-92.3 1432,-77 1365.46,-40.79 1167.72,-53.49 1093,-41 1090.01,-40.5 1086.97,-39.96 1083.91,-39.39"/>
<polygon fill="#63b8ff" stroke="#63b8ff" points="1492.19,-146.71 1500.18,-153.67 1498.28,-143.25 1492.19,-146.71"/>
</a>
</g>
</g>
<!-- Node21&#45;&gt;Node13 -->
<g id="edge31_Node000021_Node000013" class="edge">
<title>Node21&#45;&gt;Node13</title>
<g id="a_edge31_Node000021_Node000013"><a xlink:title=" ">
<path fill="none" stroke="#63b8ff" d="M1502.75,-143.91C1499.43,-124.04 1498.13,-97.79 1508,-77 1514.99,-62.27 1528.02,-50.16 1540.81,-41.05"/>
<polygon fill="#63b8ff" stroke="#63b8ff" points="1499.35,-144.79 1504.68,-153.94 1506.22,-143.46 1499.35,-144.79"/>
</a>
</g>
</g>
<!-- Node21&#45;&gt;Node19 -->
<g id="edge29_Node000021_Node000019" class="edge">
<title>Node21&#45;&gt;Node19</title>
<g id="a_edge29_Node000021_Node000019"><a xlink:title=" ">
<path fill="none" stroke="#63b8ff" d="M1458.01,-149.72C1435.68,-139.51 1409.92,-127.73 1388.73,-118.04"/>
<polygon fill="#63b8ff" stroke="#63b8ff" points="1456.79,-153.01 1467.34,-153.99 1459.7,-146.65 1456.79,-153.01"/>
</a>
</g>
</g>
<!-- Node22 -->
<g id="Node000022" class="node">
<title>Node22</title>
<g id="a_Node000022"><a xlink:href="UBroadcastManger_8cpp.html" target="_top" xlink:title="UBroadcastManger 구현에 대한 Doxygen 주석을 제공합니다.">
<polygon fill="white" stroke="#666666" points="1675.5,-118 1516.5,-118 1516.5,-77 1675.5,-77 1675.5,-118"/>
<text text-anchor="start" x="1524.5" y="-106" font-family="Malgun Gothic" font-size="10.00">Source/LatteLibrary</text>
<text text-anchor="start" x="1524.5" y="-95" font-family="Malgun Gothic" font-size="10.00">/Manager/Private/UBroadcast</text>
<text text-anchor="middle" x="1596" y="-84" font-family="Malgun Gothic" font-size="10.00">Manger.cpp</text>
</a>
</g>
</g>
<!-- Node21&#45;&gt;Node22 -->
<g id="edge32_Node000021_Node000022" class="edge">
<title>Node21&#45;&gt;Node22</title>
<g id="a_edge32_Node000021_Node000022"><a xlink:title=" ">
<path fill="none" stroke="#63b8ff" d="M1540.31,-147.07C1551.25,-137.52 1563.4,-126.93 1573.56,-118.07"/>
<polygon fill="#63b8ff" stroke="#63b8ff" points="1537.83,-144.58 1532.6,-153.79 1542.43,-149.86 1537.83,-144.58"/>
</a>
</g>
</g>
<!-- Node23 -->
<g id="Node000023" class="node">
<title>Node23</title>
<g id="a_Node000023"><a xlink:href="AGate_8cpp.html" target="_top" xlink:title=" ">
<polygon fill="white" stroke="#666666" points="1838.5,-112.5 1693.5,-112.5 1693.5,-82.5 1838.5,-82.5 1838.5,-112.5"/>
<text text-anchor="start" x="1701.5" y="-100.5" font-family="Malgun Gothic" font-size="10.00">Source/YiSan/Environment</text>
<text text-anchor="middle" x="1766" y="-89.5" font-family="Malgun Gothic" font-size="10.00">/Private/AGate.cpp</text>
</a>
</g>
</g>
<!-- Node21&#45;&gt;Node23 -->
<g id="edge33_Node000021_Node000023" class="edge">
<title>Node21&#45;&gt;Node23</title>
<g id="a_edge33_Node000021_Node000023"><a xlink:title=" ">
<path fill="none" stroke="#63b8ff" d="M1586.39,-151.12C1629.06,-138.62 1680.93,-123.42 1717.93,-112.58"/>
<polygon fill="#63b8ff" stroke="#63b8ff" points="1585.21,-147.82 1576.59,-153.99 1587.17,-154.54 1585.21,-147.82"/>
</a>
</g>
</g>
<!-- Node24 -->
<g id="Node000024" class="node">
<title>Node24</title>
<g id="a_Node000024"><a xlink:href="UDialogWidget_8cpp.html" target="_top" xlink:title=" ">
<polygon fill="white" stroke="#666666" points="1987.5,-112.5 1856.5,-112.5 1856.5,-82.5 1987.5,-82.5 1987.5,-112.5"/>
<text text-anchor="start" x="1864.5" y="-100.5" font-family="Malgun Gothic" font-size="10.00">Source/YiSan/UI/Private</text>
<text text-anchor="middle" x="1922" y="-89.5" font-family="Malgun Gothic" font-size="10.00">/UDialogWidget.cpp</text>
</a>
</g>
</g>
<!-- Node21&#45;&gt;Node24 -->
<g id="edge34_Node000021_Node000024" class="edge">
<title>Node21&#45;&gt;Node24</title>
<g id="a_edge34_Node000021_Node000024"><a xlink:title=" ">
<path fill="none" stroke="#63b8ff" d="M1597.29,-154.04C1709.59,-134.02 1740.68,-139.76 1848,-118 1855.81,-116.42 1864.03,-114.5 1872.03,-112.5"/>
<polygon fill="#63b8ff" stroke="#63b8ff" points="1596.47,-150.63 1587.26,-155.86 1597.72,-157.52 1596.47,-150.63"/>
</a>
</g>
</g>
<!-- Node25 -->
<g id="Node000025" class="node">
<title>Node25</title>
<g id="a_Node000025"><a xlink:href="UMainWidget_8cpp.html" target="_top" xlink:title=" ">
<polygon fill="white" stroke="#666666" points="2136.5,-112.5 2005.5,-112.5 2005.5,-82.5 2136.5,-82.5 2136.5,-112.5"/>
<text text-anchor="start" x="2013.5" y="-100.5" font-family="Malgun Gothic" font-size="10.00">Source/YiSan/UI/Private</text>
<text text-anchor="middle" x="2071" y="-89.5" font-family="Malgun Gothic" font-size="10.00">/UMainWidget.cpp</text>
</a>
</g>
</g>
<!-- Node21&#45;&gt;Node25 -->
<g id="edge35_Node000021_Node000025" class="edge">
<title>Node21&#45;&gt;Node25</title>
<g id="a_edge35_Node000021_Node000025"><a xlink:title=" ">
<path fill="none" stroke="#63b8ff" d="M1597.18,-154.11C1775.12,-127.21 1824.37,-148.29 1997,-118 2005.24,-116.55 2013.91,-114.64 2022.3,-112.57"/>
<polygon fill="#63b8ff" stroke="#63b8ff" points="1596.57,-150.66 1587.22,-155.64 1597.64,-157.58 1596.57,-150.66"/>
</a>
</g>
</g>
</g>
</svg>

<g id="navigator" transform="translate(0 0)" fill="#404254">
  <rect fill="#f2f5e9" fill-opacity="0.5" stroke="#606060" stroke-width=".5" x="0" y="0" width="60" height="60"/>
  <use id="zoomplus" xlink:href="#zoomPlus" x="17" y="9" onmousedown="handleZoom(evt,'in')"/>
  <use id="zoomminus" xlink:href="#zoomMin" x="42" y="9" onmousedown="handleZoom(evt,'out')"/>
  <use id="reset" xlink:href="#resetDef" x="30" y="36" onmousedown="handleReset()"/>
   <use id="arrowup" xlink:href="#arrowUp" x="0" y="0" onmousedown="handlePan(0,-1)"/>
  <use id="arrowright" xlink:href="#arrowRight" x="0" y="0" onmousedown="handlePan(1,0)"/>
  <use id="arrowdown" xlink:href="#arrowDown" x="0" y="0" onmousedown="handlePan(0,1)"/>
  <use id="arrowleft" xlink:href="#arrowLeft" x="0" y="0" onmousedown="handlePan(-1,0)"/>
</g>
<svg viewBox="0 0 15 15" width="100%" height="30px" preserveAspectRatio="xMaxYMin meet">
 <g id="arrow_out" transform="scale(0.3 0.3)">
  <a xlink:href="EDamageType_8h__dep__incl_org.svg" target="_base">
   <rect id="button" ry="5" rx="5" y="6" x="6" height="38" width="38"
        fill="#f2f5e9" fill-opacity="0.5" stroke="#606060" stroke-width="1.0"/>
   <path id="arrow"
     d="M 11.500037,31.436501 C 11.940474,20.09759 22.043105,11.32322 32.158766,21.979434 L 37.068811,17.246167 C 37.068811,17.246167 37.088388,32 37.088388,32 L 22.160133,31.978069 C 22.160133,31.978069 26.997745,27.140456 26.997745,27.140456 C 18.528582,18.264221 13.291696,25.230495 11.500037,31.436501 z"
     style="fill:#404040;"/>
  </a>
 </g>
</svg>

<style type='text/css'>
<![CDATA[
[data-mouse-over-selected='false'] { opacity: 0.7; }
[data-mouse-over-selected='true']  { opacity: 1.0; }
]]>
</style>
<script type="application/ecmascript"><![CDATA[
document.addEventListener('DOMContentLoaded', (event) => {
  highlightEdges();
  highlightAdjacentNodes();
});
]]></script>
</svg>
