<?xml version="1.0" encoding="UTF-8" standalone="no"?>
<!DOCTYPE svg PUBLIC "-//W3C//DTD SVG 1.1//EN"
 "http://www.w3.org/Graphics/SVG/1.1/DTD/svg11.dtd">
<!-- Generated by graphviz version 2.43.0 (0)
 -->
<!-- Title: Source/LatteLibrary/Data/Public/EDamageType.h Pages: 1 -->
<svg width="1994pt" height="269pt"
 viewBox="0.00 0.00 1993.50 269.00" xmlns="http://www.w3.org/2000/svg" xmlns:xlink="http://www.w3.org/1999/xlink">
<g id="graph0" class="graph" transform="scale(1 1) rotate(0) translate(4 265)">
<title>Source/LatteLibrary/Data/Public/EDamageType.h</title>
<!-- Node1 -->
<g id="Node000001" class="node">
<title>Node1</title>
<g id="a_Node000001"><a xlink:title="EDamageType 열거형에 대한 Doxygen 주석을 제공합니다.">
<polygon fill="#999999" stroke="#666666" points="1615.5,-261 1458.5,-261 1458.5,-231 1615.5,-231 1615.5,-261"/>
<text text-anchor="start" x="1466.5" y="-249" font-family="Malgun Gothic" font-size="10.00">Source/LatteLibrary</text>
<text text-anchor="middle" x="1537" y="-238" font-family="Malgun Gothic" font-size="10.00">/Data/Public/EDamageType.h</text>
</a>
</g>
</g>
<!-- Node2 -->
<g id="Node000002" class="node">
<title>Node2</title>
<g id="a_Node000002"><a xlink:href="UGameDamageType_8h.html" target="_top" xlink:title="UGameDamageType 선언에 대한 Doxygen 주석을 제공합니다.">
<polygon fill="white" stroke="#666666" points="877.5,-195 700.5,-195 700.5,-154 877.5,-154 877.5,-195"/>
<text text-anchor="start" x="708.5" y="-183" font-family="Malgun Gothic" font-size="10.00">Source/LatteLibrary</text>
<text text-anchor="start" x="708.5" y="-172" font-family="Malgun Gothic" font-size="10.00">/Common/Public/UGameDamage</text>
<text text-anchor="middle" x="789" y="-161" font-family="Malgun Gothic" font-size="10.00">Type.h</text>
</a>
</g>
</g>
<!-- Node1&#45;&gt;Node2 -->
<g id="edge1_Node000001_Node000002" class="edge">
<title>Node1&#45;&gt;Node2</title>
<g id="a_edge1_Node000001_Node000002"><a xlink:title=" ">
<path fill="none" stroke="#63b8ff" d="M1448.24,-236.75C1304.23,-223.37 1021.35,-197.09 877.5,-183.72"/>
<polygon fill="#63b8ff" stroke="#63b8ff" points="1448.08,-240.25 1458.36,-237.69 1448.73,-233.28 1448.08,-240.25"/>
</a>
</g>
</g>
<!-- Node7 -->
<g id="Node000007" class="node">
<title>Node7</title>
<g id="a_Node000007"><a xlink:href="FHitStopData_8h.html" target="_top" xlink:title="FHitStopData 구조체에 대한 Doxygen 주석을 제공합니다.">
<polygon fill="white" stroke="#666666" points="1338,-189.5 1186,-189.5 1186,-159.5 1338,-159.5 1338,-189.5"/>
<text text-anchor="start" x="1194" y="-177.5" font-family="Malgun Gothic" font-size="10.00">Source/LatteLibrary</text>
<text text-anchor="middle" x="1262" y="-166.5" font-family="Malgun Gothic" font-size="10.00">/Data/Public/FHitStopData.h</text>
</a>
</g>
</g>
<!-- Node1&#45;&gt;Node7 -->
<g id="edge6_Node000001_Node000007" class="edge">
<title>Node1&#45;&gt;Node7</title>
<g id="a_edge6_Node000001_Node000007"><a xlink:title=" ">
<path fill="none" stroke="#63b8ff" d="M1471.58,-228.47C1424.65,-216.61 1362.09,-200.8 1317.57,-189.54"/>
<polygon fill="#63b8ff" stroke="#63b8ff" points="1470.8,-231.88 1481.35,-230.94 1472.51,-225.09 1470.8,-231.88"/>
</a>
</g>
</g>
<!-- Node16 -->
<g id="Node000016" class="node">
<title>Node16</title>
<g id="a_Node000016"><a xlink:href="FKnockbackData_8h.html" target="_top" xlink:title="FKnockbackData 구조체에 대한 Doxygen 주석을 제공합니다.">
<polygon fill="white" stroke="#666666" points="1526,-189.5 1356,-189.5 1356,-159.5 1526,-159.5 1526,-189.5"/>
<text text-anchor="start" x="1364" y="-177.5" font-family="Malgun Gothic" font-size="10.00">Source/LatteLibrary</text>
<text text-anchor="middle" x="1441" y="-166.5" font-family="Malgun Gothic" font-size="10.00">/Data/Public/FKnockbackData.h</text>
</a>
</g>
</g>
<!-- Node1&#45;&gt;Node16 -->
<g id="edge18_Node000001_Node000016" class="edge">
<title>Node1&#45;&gt;Node16</title>
<g id="a_edge18_Node000001_Node000016"><a xlink:title=" ">
<path fill="none" stroke="#63b8ff" d="M1509.29,-224.94C1493.63,-213.6 1474.44,-199.71 1460.4,-189.54"/>
<polygon fill="#63b8ff" stroke="#63b8ff" points="1507.42,-227.91 1517.57,-230.94 1511.53,-222.24 1507.42,-227.91"/>
</a>
</g>
</g>
<!-- Node18 -->
<g id="Node000018" class="node">
<title>Node18</title>
<g id="a_Node000018"><a xlink:href="FPadFeedbackData_8h.html" target="_top" xlink:title="FPadFeedbackData 구조체에 대한 Doxygen 주석을 제공합니다.">
<polygon fill="white" stroke="#666666" points="1724,-189.5 1544,-189.5 1544,-159.5 1724,-159.5 1724,-189.5"/>
<text text-anchor="start" x="1552" y="-177.5" font-family="Malgun Gothic" font-size="10.00">Source/LatteLibrary</text>
<text text-anchor="middle" x="1634" y="-166.5" font-family="Malgun Gothic" font-size="10.00">/Data/Public/FPadFeedbackData.h</text>
</a>
</g>
</g>
<!-- Node1&#45;&gt;Node18 -->
<g id="edge25_Node000001_Node000018" class="edge">
<title>Node1&#45;&gt;Node18</title>
<g id="a_edge25_Node000001_Node000018"><a xlink:title=" ">
<path fill="none" stroke="#63b8ff" d="M1565,-224.94C1580.82,-213.6 1600.21,-199.71 1614.4,-189.54"/>
<polygon fill="#63b8ff" stroke="#63b8ff" points="1562.72,-222.27 1556.63,-230.94 1566.8,-227.96 1562.72,-222.27"/>
</a>
</g>
</g>
<!-- Node20 -->
<g id="Node000020" class="node">
<title>Node20</title>
<g id="a_Node000020"><a xlink:href="UGameVFXManager_8cpp.html" target="_top" xlink:title="UGameVFXManager 구현에 대한 Doxygen 주석을 제공합니다.">
<polygon fill="white" stroke="#666666" points="1982.5,-112.5 1761.5,-112.5 1761.5,-82.5 1982.5,-82.5 1982.5,-112.5"/>
<text text-anchor="start" x="1769.5" y="-100.5" font-family="Malgun Gothic" font-size="10.00">Source/LatteLibrary</text>
<text text-anchor="middle" x="1872" y="-89.5" font-family="Malgun Gothic" font-size="10.00">/Manager/Private/UGameVFXManager.cpp</text>
</a>
</g>
</g>
<!-- Node1&#45;&gt;Node20 -->
<g id="edge27_Node000001_Node000020" class="edge">
<title>Node1&#45;&gt;Node20</title>
<g id="a_edge27_Node000001_Node000020"><a xlink:title=" ">
<path fill="none" stroke="#63b8ff" d="M1626.01,-233.2C1661.06,-225.84 1700.6,-213.99 1733,-195 1754.7,-182.28 1752.11,-169.39 1772,-154 1793.51,-137.35 1820.64,-122.63 1841.21,-112.54"/>
<polygon fill="#63b8ff" stroke="#63b8ff" points="1624.89,-229.85 1615.77,-235.25 1626.26,-236.72 1624.89,-229.85"/>
</a>
</g>
</g>
<!-- Node21 -->
<g id="Node000021" class="node">
<title>Node21</title>
<g id="a_Node000021"><a xlink:href="UGameVFXManager_8h.html" target="_top" xlink:title="UGameVFXManager 선언에 대한 Doxygen 주석을 제공합니다.">
<polygon fill="white" stroke="#666666" points="1985.5,-189.5 1780.5,-189.5 1780.5,-159.5 1985.5,-159.5 1985.5,-189.5"/>
<text text-anchor="start" x="1788.5" y="-177.5" font-family="Malgun Gothic" font-size="10.00">Source/LatteLibrary</text>
<text text-anchor="middle" x="1883" y="-166.5" font-family="Malgun Gothic" font-size="10.00">/Manager/Public/UGameVFXManager.h</text>
</a>
</g>
</g>
<!-- Node1&#45;&gt;Node21 -->
<g id="edge28_Node000001_Node000021" class="edge">
<title>Node1&#45;&gt;Node21</title>
<g id="a_edge28_Node000001_Node000021"><a xlink:title=" ">
<path fill="none" stroke="#63b8ff" d="M1617.09,-228.91C1676.38,-217 1756.37,-200.94 1813.09,-189.54"/>
<polygon fill="#63b8ff" stroke="#63b8ff" points="1616.13,-225.53 1607.02,-230.94 1617.51,-232.4 1616.13,-225.53"/>
</a>
</g>
</g>
<!-- Node3 -->
<g id="Node000003" class="node">
<title>Node3</title>
<g id="a_Node000003"><a xlink:href="UGameFunctionLibrary_8h.html" target="_top" xlink:title="UGameFunctionLibrary 선언에 대한 Doxygen 주석을 제공합니다.">
<polygon fill="white" stroke="#666666" points="483.5,-118 306.5,-118 306.5,-77 483.5,-77 483.5,-118"/>
<text text-anchor="start" x="314.5" y="-106" font-family="Malgun Gothic" font-size="10.00">Source/LatteLibrary</text>
<text text-anchor="start" x="314.5" y="-95" font-family="Malgun Gothic" font-size="10.00">/Common/Public/UGameFunction</text>
<text text-anchor="middle" x="395" y="-84" font-family="Malgun Gothic" font-size="10.00">Library.h</text>
</a>
</g>
</g>
<!-- Node2&#45;&gt;Node3 -->
<g id="edge2_Node000002_Node000003" class="edge">
<title>Node2&#45;&gt;Node3</title>
<g id="a_edge2_Node000002_Node000003"><a xlink:title=" ">
<path fill="none" stroke="#63b8ff" d="M690.06,-154.67C626.6,-142.59 544.92,-127.04 483.59,-115.36"/>
<polygon fill="#63b8ff" stroke="#63b8ff" points="689.61,-158.14 700.09,-156.58 690.92,-151.27 689.61,-158.14"/>
</a>
</g>
</g>
<!-- Node4 -->
<g id="Node000004" class="node">
<title>Node4</title>
<g id="a_Node000004"><a xlink:href="UGameFunctionLibrary_8cpp.html" target="_top" xlink:title="UGameFunctionLibrary 구현에 대한 Doxygen 주석을 제공합니다.">
<polygon fill="white" stroke="#666666" points="386,-41 204,-41 204,0 386,0 386,-41"/>
<text text-anchor="start" x="212" y="-29" font-family="Malgun Gothic" font-size="10.00">Source/LatteLibrary</text>
<text text-anchor="start" x="212" y="-18" font-family="Malgun Gothic" font-size="10.00">/Common/Private/UGameFunction</text>
<text text-anchor="middle" x="295" y="-7" font-family="Malgun Gothic" font-size="10.00">Library.cpp</text>
</a>
</g>
</g>
<!-- Node3&#45;&gt;Node4 -->
<g id="edge3_Node000003_Node000004" class="edge">
<title>Node3&#45;&gt;Node4</title>
<g id="a_edge3_Node000003_Node000004"><a xlink:title=" ">
<path fill="none" stroke="#63b8ff" d="M360.75,-70.82C347.82,-61.11 333.32,-50.24 321.23,-41.17"/>
<polygon fill="#63b8ff" stroke="#63b8ff" points="358.89,-73.79 368.99,-76.99 363.09,-68.19 358.89,-73.79"/>
</a>
</g>
</g>
<!-- Node5 -->
<g id="Node000005" class="node">
<title>Node5</title>
<g id="a_Node000005"><a xlink:href="ANetworkTesterActor_8cpp.html" target="_top" xlink:title="ANetworkTesterActor 구현에 대한 Doxygen 주석을 제공합니다.">
<polygon fill="white" stroke="#666666" points="583.5,-41 404.5,-41 404.5,0 583.5,0 583.5,-41"/>
<text text-anchor="start" x="412.5" y="-29" font-family="Malgun Gothic" font-size="10.00">Source/LatteLibrary</text>
<text text-anchor="start" x="412.5" y="-18" font-family="Malgun Gothic" font-size="10.00">/Network/Private/ANetworkTester</text>
<text text-anchor="middle" x="494" y="-7" font-family="Malgun Gothic" font-size="10.00">Actor.cpp</text>
</a>
</g>
</g>
<!-- Node3&#45;&gt;Node5 -->
<g id="edge4_Node000003_Node000005" class="edge">
<title>Node3&#45;&gt;Node5</title>
<g id="a_edge4_Node000003_Node000005"><a xlink:title=" ">
<path fill="none" stroke="#63b8ff" d="M428.9,-70.82C441.71,-61.11 456.07,-50.24 468.03,-41.17"/>
<polygon fill="#63b8ff" stroke="#63b8ff" points="426.61,-68.16 420.75,-76.99 430.84,-73.74 426.61,-68.16"/>
</a>
</g>
</g>
<!-- Node6 -->
<g id="Node000006" class="node">
<title>Node6</title>
<g id="a_Node000006"><a xlink:href="NetworkData_8cpp.html" target="_top" xlink:title="NetworkData 구조 구현에 대한 Doxygen 주석을 제공합니다.">
<polygon fill="white" stroke="#666666" points="186,-35.5 0,-35.5 0,-5.5 186,-5.5 186,-35.5"/>
<text text-anchor="start" x="8" y="-23.5" font-family="Malgun Gothic" font-size="10.00">Source/LatteLibrary</text>
<text text-anchor="middle" x="93" y="-12.5" font-family="Malgun Gothic" font-size="10.00">/Network/Private/NetworkData.cpp</text>
</a>
</g>
</g>
<!-- Node3&#45;&gt;Node6 -->
<g id="edge5_Node000003_Node000006" class="edge">
<title>Node3&#45;&gt;Node6</title>
<g id="a_edge5_Node000003_Node000006"><a xlink:title=" ">
<path fill="none" stroke="#63b8ff" d="M306.47,-74.52C255.84,-61.94 193.82,-46.54 149.71,-35.58"/>
<polygon fill="#63b8ff" stroke="#63b8ff" points="305.89,-77.98 316.44,-76.99 307.58,-71.18 305.89,-77.98"/>
</a>
</g>
</g>
<!-- Node8 -->
<g id="Node000008" class="node">
<title>Node8</title>
<g id="a_Node000008"><a xlink:href="UHitStopSystem_8h.html" target="_top" xlink:title="UHitStopSystem 선언에 대한 Doxygen 주석을 제공합니다.">
<polygon fill="white" stroke="#666666" points="1338,-118 1192,-118 1192,-77 1338,-77 1338,-118"/>
<text text-anchor="start" x="1200" y="-106" font-family="Malgun Gothic" font-size="10.00">Source/LatteLibrary</text>
<text text-anchor="start" x="1200" y="-95" font-family="Malgun Gothic" font-size="10.00">/Character/Public/UHitStop</text>
<text text-anchor="middle" x="1265" y="-84" font-family="Malgun Gothic" font-size="10.00">System.h</text>
</a>
</g>
</g>
<!-- Node7&#45;&gt;Node8 -->
<g id="edge7_Node000007_Node000008" class="edge">
<title>Node7&#45;&gt;Node8</title>
<g id="a_edge7_Node000007_Node000008"><a xlink:title=" ">
<path fill="none" stroke="#63b8ff" d="M1262.97,-149.23C1263.37,-139.2 1263.83,-127.71 1264.21,-118.2"/>
<polygon fill="#63b8ff" stroke="#63b8ff" points="1259.47,-149.26 1262.56,-159.39 1266.46,-149.54 1259.47,-149.26"/>
</a>
</g>
</g>
<!-- Node12 -->
<g id="Node000012" class="node">
<title>Node12</title>
<g id="a_Node000012"><a xlink:href="UGameDataManager_8h.html" target="_top" xlink:title="UGameDataManager 선언에 대한 Doxygen 주석을 제공합니다.">
<polygon fill="white" stroke="#666666" points="1172.5,-112.5 963.5,-112.5 963.5,-82.5 1172.5,-82.5 1172.5,-112.5"/>
<text text-anchor="start" x="971.5" y="-100.5" font-family="Malgun Gothic" font-size="10.00">Source/LatteLibrary</text>
<text text-anchor="middle" x="1068" y="-89.5" font-family="Malgun Gothic" font-size="10.00">/Manager/Public/UGameDataManager.h</text>
</a>
</g>
</g>
<!-- Node7&#45;&gt;Node12 -->
<g id="edge11_Node000007_Node000012" class="edge">
<title>Node7&#45;&gt;Node12</title>
<g id="a_edge11_Node000007_Node000012"><a xlink:title=" ">
<path fill="none" stroke="#63b8ff" d="M1215.77,-155.63C1181.64,-142.43 1135.84,-124.73 1104.33,-112.54"/>
<polygon fill="#63b8ff" stroke="#63b8ff" points="1214.92,-159.05 1225.51,-159.39 1217.44,-152.52 1214.92,-159.05"/>
</a>
</g>
</g>
<!-- Node9 -->
<g id="Node000009" class="node">
<title>Node9</title>
<g id="a_Node000009"><a xlink:href="AGameCharacter_8cpp.html" target="_top" xlink:title="AGameCharacter 구현에 대한 Doxygen 주석을 제공합니다.">
<polygon fill="white" stroke="#666666" points="1371,-35.5 1161,-35.5 1161,-5.5 1371,-5.5 1371,-35.5"/>
<text text-anchor="start" x="1169" y="-23.5" font-family="Malgun Gothic" font-size="10.00">Source/LatteLibrary</text>
<text text-anchor="middle" x="1266" y="-12.5" font-family="Malgun Gothic" font-size="10.00">/Character/Private/AGameCharacter.cpp</text>
</a>
</g>
</g>
<!-- Node8&#45;&gt;Node9 -->
<g id="edge8_Node000008_Node000009" class="edge">
<title>Node8&#45;&gt;Node9</title>
<g id="a_edge8_Node000008_Node000009"><a xlink:title=" ">
<path fill="none" stroke="#63b8ff" d="M1265.4,-66.61C1265.54,-56.01 1265.69,-44.57 1265.81,-35.86"/>
<polygon fill="#63b8ff" stroke="#63b8ff" points="1261.9,-66.75 1265.26,-76.79 1268.9,-66.84 1261.9,-66.75"/>
</a>
</g>
</g>
<!-- Node10 -->
<g id="Node000010" class="node">
<title>Node10</title>
<g id="a_Node000010"><a xlink:href="APlayerActor_8cpp.html" target="_top" xlink:title="APlayerActor 구현에 대한 Doxygen 주석을 제공합니다.">
<polygon fill="white" stroke="#666666" points="1534.5,-41 1389.5,-41 1389.5,0 1534.5,0 1534.5,-41"/>
<text text-anchor="start" x="1397.5" y="-29" font-family="Malgun Gothic" font-size="10.00">Source/LatteLibrary</text>
<text text-anchor="start" x="1397.5" y="-18" font-family="Malgun Gothic" font-size="10.00">/Character/Private/APlayer</text>
<text text-anchor="middle" x="1462" y="-7" font-family="Malgun Gothic" font-size="10.00">Actor.cpp</text>
</a>
</g>
</g>
<!-- Node8&#45;&gt;Node10 -->
<g id="edge9_Node000008_Node000010" class="edge">
<title>Node8&#45;&gt;Node10</title>
<g id="a_edge9_Node000008_Node000010"><a xlink:title=" ">
<path fill="none" stroke="#63b8ff" d="M1325.67,-73.4C1352.89,-63.04 1384.65,-50.95 1410.67,-41.04"/>
<polygon fill="#63b8ff" stroke="#63b8ff" points="1324.35,-70.16 1316.25,-76.99 1326.84,-76.7 1324.35,-70.16"/>
</a>
</g>
</g>
<!-- Node11 -->
<g id="Node000011" class="node">
<title>Node11</title>
<g id="a_Node000011"><a xlink:href="UHitStopSystem_8cpp.html" target="_top" xlink:title="UHitStopSystem 구현에 대한 Doxygen 주석을 제공합니다.">
<polygon fill="white" stroke="#666666" points="1142.5,-41 991.5,-41 991.5,0 1142.5,0 1142.5,-41"/>
<text text-anchor="start" x="999.5" y="-29" font-family="Malgun Gothic" font-size="10.00">Source/LatteLibrary</text>
<text text-anchor="start" x="999.5" y="-18" font-family="Malgun Gothic" font-size="10.00">/Character/Private/UHitStop</text>
<text text-anchor="middle" x="1067" y="-7" font-family="Malgun Gothic" font-size="10.00">System.cpp</text>
</a>
</g>
</g>
<!-- Node8&#45;&gt;Node11 -->
<g id="edge10_Node000008_Node000011" class="edge">
<title>Node8&#45;&gt;Node11</title>
<g id="a_edge10_Node000008_Node000011"><a xlink:title=" ">
<path fill="none" stroke="#63b8ff" d="M1204.03,-73.4C1176.67,-63.04 1144.74,-50.95 1118.59,-41.04"/>
<polygon fill="#63b8ff" stroke="#63b8ff" points="1202.9,-76.72 1213.49,-76.99 1205.38,-70.18 1202.9,-76.72"/>
</a>
</g>
</g>
<!-- Node12&#45;&gt;Node5 -->
<g id="edge17_Node000012_Node000005" class="edge">
<title>Node12&#45;&gt;Node5</title>
<g id="a_edge17_Node000012_Node000005"><a xlink:title=" ">
<path fill="none" stroke="#63b8ff" d="M953.12,-85.72C856.49,-76.02 714.83,-60.35 592,-41 589.26,-40.57 586.48,-40.11 583.67,-39.64"/>
<polygon fill="#63b8ff" stroke="#63b8ff" points="952.91,-89.21 963.21,-86.72 953.6,-82.25 952.91,-89.21"/>
</a>
</g>
</g>
<!-- Node12&#45;&gt;Node9 -->
<g id="edge12_Node000012_Node000009" class="edge">
<title>Node12&#45;&gt;Node9</title>
<g id="a_edge12_Node000012_Node000009"><a xlink:title=" ">
<path fill="none" stroke="#63b8ff" d="M1114.73,-78.8C1149.61,-65.59 1196.62,-47.78 1228.92,-35.54"/>
<polygon fill="#63b8ff" stroke="#63b8ff" points="1113.35,-75.58 1105.24,-82.39 1115.83,-82.12 1113.35,-75.58"/>
</a>
</g>
</g>
<!-- Node12&#45;&gt;Node11 -->
<g id="edge13_Node000012_Node000011" class="edge">
<title>Node12&#45;&gt;Node11</title>
<g id="a_edge13_Node000012_Node000011"><a xlink:title=" ">
<path fill="none" stroke="#63b8ff" d="M1067.68,-72.23C1067.54,-62.2 1067.39,-50.71 1067.26,-41.2"/>
<polygon fill="#63b8ff" stroke="#63b8ff" points="1064.18,-72.44 1067.81,-82.39 1071.18,-72.35 1064.18,-72.44"/>
</a>
</g>
</g>
<!-- Node13 -->
<g id="Node000013" class="node">
<title>Node13</title>
<g id="a_Node000013"><a xlink:href="UKnockbackSystem_8cpp.html" target="_top" xlink:title="UKnockbackSystem 구현에 대한 Doxygen 주석을 제공합니다.">
<polygon fill="white" stroke="#666666" points="1721,-41 1553,-41 1553,0 1721,0 1721,-41"/>
<text text-anchor="start" x="1561" y="-29" font-family="Malgun Gothic" font-size="10.00">Source/LatteLibrary</text>
<text text-anchor="start" x="1561" y="-18" font-family="Malgun Gothic" font-size="10.00">/Character/Private/UKnockback</text>
<text text-anchor="middle" x="1637" y="-7" font-family="Malgun Gothic" font-size="10.00">System.cpp</text>
</a>
</g>
</g>
<!-- Node12&#45;&gt;Node13 -->
<g id="edge14_Node000012_Node000013" class="edge">
<title>Node12&#45;&gt;Node13</title>
<g id="a_edge14_Node000012_Node000013"><a xlink:title=" ">
<path fill="none" stroke="#63b8ff" d="M1156.52,-80.87C1165.45,-79.48 1174.4,-78.16 1183,-77 1342.36,-55.55 1384.06,-65.36 1543,-41 1546.21,-40.51 1549.48,-39.98 1552.78,-39.42"/>
<polygon fill="#63b8ff" stroke="#63b8ff" points="1155.78,-77.44 1146.45,-82.46 1156.88,-84.35 1155.78,-77.44"/>
</a>
</g>
</g>
<!-- Node14 -->
<g id="Node000014" class="node">
<title>Node14</title>
<g id="a_Node000014"><a xlink:href="UStatSystem_8cpp.html" target="_top" xlink:title="UStatSystem 구현에 대한 Doxygen 주석을 제공합니다.">
<polygon fill="white" stroke="#666666" points="792.5,-35.5 601.5,-35.5 601.5,-5.5 792.5,-5.5 792.5,-35.5"/>
<text text-anchor="start" x="609.5" y="-23.5" font-family="Malgun Gothic" font-size="10.00">Source/LatteLibrary</text>
<text text-anchor="middle" x="697" y="-12.5" font-family="Malgun Gothic" font-size="10.00">/Character/Private/UStatSystem.cpp</text>
</a>
</g>
</g>
<!-- Node12&#45;&gt;Node14 -->
<g id="edge15_Node000012_Node000014" class="edge">
<title>Node12&#45;&gt;Node14</title>
<g id="a_edge15_Node000012_Node000014"><a xlink:title=" ">
<path fill="none" stroke="#63b8ff" d="M988.7,-80.47C922.63,-67.11 829.45,-48.28 766.32,-35.51"/>
<polygon fill="#63b8ff" stroke="#63b8ff" points="988.16,-83.93 998.65,-82.48 989.54,-77.07 988.16,-83.93"/>
</a>
</g>
</g>
<!-- Node15 -->
<g id="Node000015" class="node">
<title>Node15</title>
<g id="a_Node000015"><a xlink:href="UGameDataManager_8cpp.html" target="_top" xlink:title="UGameDataManager 구현에 대한 Doxygen 주석을 제공합니다.">
<polygon fill="white" stroke="#666666" points="973.5,-41 810.5,-41 810.5,0 973.5,0 973.5,-41"/>
<text text-anchor="start" x="818.5" y="-29" font-family="Malgun Gothic" font-size="10.00">Source/LatteLibrary</text>
<text text-anchor="start" x="818.5" y="-18" font-family="Malgun Gothic" font-size="10.00">/Manager/Private/UGameData</text>
<text text-anchor="middle" x="892" y="-7" font-family="Malgun Gothic" font-size="10.00">Manager.cpp</text>
</a>
</g>
</g>
<!-- Node12&#45;&gt;Node15 -->
<g id="edge16_Node000012_Node000015" class="edge">
<title>Node12&#45;&gt;Node15</title>
<g id="a_edge16_Node000012_Node000015"><a xlink:title=" ">
<path fill="none" stroke="#63b8ff" d="M1025.51,-78.4C999.04,-67.12 964.99,-52.61 937.91,-41.06"/>
<polygon fill="#63b8ff" stroke="#63b8ff" points="1024.32,-81.69 1034.9,-82.39 1027.07,-75.25 1024.32,-81.69"/>
</a>
</g>
</g>
<!-- Node16&#45;&gt;Node12 -->
<g id="edge24_Node000016_Node000012" class="edge">
<title>Node16&#45;&gt;Node12</title>
<g id="a_edge24_Node000016_Node000012"><a xlink:title=" ">
<path fill="none" stroke="#63b8ff" d="M1363.62,-157.39C1357.99,-156.24 1352.41,-155.1 1347,-154 1276.46,-139.67 1195.81,-123.67 1139.42,-112.54"/>
<polygon fill="#63b8ff" stroke="#63b8ff" points="1363.25,-160.89 1373.75,-159.48 1364.66,-154.04 1363.25,-160.89"/>
</a>
</g>
</g>
<!-- Node16&#45;&gt;Node13 -->
<g id="edge19_Node000016_Node000013" class="edge">
<title>Node16&#45;&gt;Node13</title>
<g id="a_edge19_Node000016_Node000013"><a xlink:title=" ">
<path fill="none" stroke="#63b8ff" d="M1476.91,-154.22C1493.99,-144.35 1514.28,-131.56 1531,-118 1550.53,-102.16 1551.62,-94.16 1570,-77 1583.36,-64.53 1599.06,-51.45 1611.9,-41.12"/>
<polygon fill="#63b8ff" stroke="#63b8ff" points="1474.77,-151.41 1467.8,-159.39 1478.22,-157.5 1474.77,-151.41"/>
</a>
</g>
</g>
<!-- Node17 -->
<g id="Node000017" class="node">
<title>Node17</title>
<g id="a_Node000017"><a xlink:href="UKnockbackSystem_8h.html" target="_top" xlink:title="UKnockbackSystem 선언에 대한 Doxygen 주석을 제공합니다.">
<polygon fill="white" stroke="#666666" points="1522.5,-118 1359.5,-118 1359.5,-77 1522.5,-77 1522.5,-118"/>
<text text-anchor="start" x="1367.5" y="-106" font-family="Malgun Gothic" font-size="10.00">Source/LatteLibrary</text>
<text text-anchor="start" x="1367.5" y="-95" font-family="Malgun Gothic" font-size="10.00">/Character/Public/UKnockback</text>
<text text-anchor="middle" x="1441" y="-84" font-family="Malgun Gothic" font-size="10.00">System.h</text>
</a>
</g>
</g>
<!-- Node16&#45;&gt;Node17 -->
<g id="edge20_Node000016_Node000017" class="edge">
<title>Node16&#45;&gt;Node17</title>
<g id="a_edge20_Node000016_Node000017"><a xlink:title=" ">
<path fill="none" stroke="#63b8ff" d="M1441,-149.23C1441,-139.2 1441,-127.71 1441,-118.2"/>
<polygon fill="#63b8ff" stroke="#63b8ff" points="1437.5,-149.39 1441,-159.39 1444.5,-149.39 1437.5,-149.39"/>
</a>
</g>
</g>
<!-- Node17&#45;&gt;Node9 -->
<g id="edge21_Node000017_Node000009" class="edge">
<title>Node17&#45;&gt;Node9</title>
<g id="a_edge21_Node000017_Node000009"><a xlink:title=" ">
<path fill="none" stroke="#63b8ff" d="M1386,-72.93C1357.38,-60.66 1323.36,-46.08 1298.86,-35.58"/>
<polygon fill="#63b8ff" stroke="#63b8ff" points="1384.91,-76.27 1395.48,-76.99 1387.66,-69.83 1384.91,-76.27"/>
</a>
</g>
</g>
<!-- Node17&#45;&gt;Node10 -->
<g id="edge22_Node000017_Node000010" class="edge">
<title>Node17&#45;&gt;Node10</title>
<g id="a_edge22_Node000017_Node000010"><a xlink:title=" ">
<path fill="none" stroke="#63b8ff" d="M1449.27,-66.98C1451.7,-58.28 1454.31,-48.98 1456.52,-41.07"/>
<polygon fill="#63b8ff" stroke="#63b8ff" points="1445.84,-66.22 1446.52,-76.79 1452.58,-68.11 1445.84,-66.22"/>
</a>
</g>
</g>
<!-- Node17&#45;&gt;Node13 -->
<g id="edge23_Node000017_Node000013" class="edge">
<title>Node17&#45;&gt;Node13</title>
<g id="a_edge23_Node000017_Node000013"><a xlink:title=" ">
<path fill="none" stroke="#63b8ff" d="M1501.36,-73.4C1528.44,-63.04 1560.04,-50.95 1585.93,-41.04"/>
<polygon fill="#63b8ff" stroke="#63b8ff" points="1500.07,-70.15 1491.99,-76.99 1502.58,-76.69 1500.07,-70.15"/>
</a>
</g>
</g>
<!-- Node19 -->
<g id="Node000019" class="node">
<title>Node19</title>
<g id="a_Node000019"><a xlink:href="UCameraShakeSystem_8cpp.html" target="_top" xlink:title="UCameraShakeSystem 구현에 대한 Doxygen 주석을 제공합니다.">
<polygon fill="white" stroke="#666666" points="1732.5,-118 1579.5,-118 1579.5,-77 1732.5,-77 1732.5,-118"/>
<text text-anchor="start" x="1587.5" y="-106" font-family="Malgun Gothic" font-size="10.00">Source/LatteLibrary</text>
<text text-anchor="start" x="1587.5" y="-95" font-family="Malgun Gothic" font-size="10.00">/Character/Private/UCamera</text>
<text text-anchor="middle" x="1656" y="-84" font-family="Malgun Gothic" font-size="10.00">ShakeSystem.cpp</text>
</a>
</g>
</g>
<!-- Node18&#45;&gt;Node19 -->
<g id="edge26_Node000018_Node000019" class="edge">
<title>Node18&#45;&gt;Node19</title>
<g id="a_edge26_Node000018_Node000019"><a xlink:title=" ">
<path fill="none" stroke="#63b8ff" d="M1641.02,-149.55C1643.99,-139.44 1647.4,-127.81 1650.22,-118.2"/>
<polygon fill="#63b8ff" stroke="#63b8ff" points="1637.59,-148.81 1638.14,-159.39 1644.31,-150.78 1637.59,-148.81"/>
</a>
</g>
</g>
<!-- Node21&#45;&gt;Node20 -->
<g id="edge29_Node000021_Node000020" class="edge">
<title>Node21&#45;&gt;Node20</title>
<g id="a_edge29_Node000021_Node000020"><a xlink:title=" ">
<path fill="none" stroke="#63b8ff" d="M1879.47,-149.41C1877.68,-137.24 1875.58,-122.9 1874.06,-112.54"/>
<polygon fill="#63b8ff" stroke="#63b8ff" points="1876.02,-150.01 1880.93,-159.39 1882.94,-148.99 1876.02,-150.01"/>
</a>
</g>
</g>
</g>
</svg>
