<?xml version="1.0" encoding="UTF-8" standalone="no"?>
<!DOCTYPE svg PUBLIC "-//W3C//DTD SVG 1.1//EN"
 "http://www.w3.org/Graphics/SVG/1.1/DTD/svg11.dtd">
<!-- Generated by graphviz version 2.43.0 (0)
 -->
<!-- Title: Source/LatteLibrary/Data/Public/EGameSoundType.h Pages: 1 -->
<svg width="338pt" height="192pt"
 viewBox="0.00 0.00 338.00 192.00" xmlns="http://www.w3.org/2000/svg" xmlns:xlink="http://www.w3.org/1999/xlink">
<g id="graph0" class="graph" transform="scale(1 1) rotate(0) translate(4 188)">
<title>Source/LatteLibrary/Data/Public/EGameSoundType.h</title>
<!-- Node1 -->
<g id="Node000001" class="node">
<title>Node1</title>
<g id="a_Node000001"><a xlink:title="EGameSoundType 열거형에 대한 Doxygen 주석을 제공합니다.">
<polygon fill="#999999" stroke="#666666" points="248.5,-184 73.5,-184 73.5,-154 248.5,-154 248.5,-184"/>
<text text-anchor="start" x="81.5" y="-172" font-family="Malgun Gothic" font-size="10.00">Source/LatteLibrary</text>
<text text-anchor="middle" x="161" y="-161" font-family="Malgun Gothic" font-size="10.00">/Data/Public/EGameSoundType.h</text>
</a>
</g>
</g>
<!-- Node2 -->
<g id="Node000002" class="node">
<title>Node2</title>
<g id="a_Node000002"><a xlink:href="USoundData_8h.html" target="_top" xlink:title="USoundData 데이터 자산에 대한 Doxygen 주석을 제공합니다.">
<polygon fill="white" stroke="#666666" points="148,-112.5 0,-112.5 0,-82.5 148,-82.5 148,-112.5"/>
<text text-anchor="start" x="8" y="-100.5" font-family="Malgun Gothic" font-size="10.00">Source/LatteLibrary</text>
<text text-anchor="middle" x="74" y="-89.5" font-family="Malgun Gothic" font-size="10.00">/Data/Public/USoundData.h</text>
</a>
</g>
</g>
<!-- Node1&#45;&gt;Node2 -->
<g id="edge1_Node000001_Node000002" class="edge">
<title>Node1&#45;&gt;Node2</title>
<g id="a_edge1_Node000001_Node000002"><a xlink:title=" ">
<path fill="none" stroke="#63b8ff" d="M135.49,-147.63C121.38,-136.35 104.19,-122.62 91.58,-112.54"/>
<polygon fill="#63b8ff" stroke="#63b8ff" points="133.4,-150.43 143.39,-153.94 137.77,-144.96 133.4,-150.43"/>
</a>
</g>
</g>
<!-- Node4 -->
<g id="Node000004" class="node">
<title>Node4</title>
<g id="a_Node000004"><a xlink:href="UGameSoundManager_8h.html" target="_top" xlink:title="UGameSoundManager 선언에 대한 Doxygen 주석을 제공합니다.">
<polygon fill="white" stroke="#666666" points="330,-118 166,-118 166,-77 330,-77 330,-118"/>
<text text-anchor="start" x="174" y="-106" font-family="Malgun Gothic" font-size="10.00">Source/LatteLibrary</text>
<text text-anchor="start" x="174" y="-95" font-family="Malgun Gothic" font-size="10.00">/Manager/Public/UGameSound</text>
<text text-anchor="middle" x="248" y="-84" font-family="Malgun Gothic" font-size="10.00">Manager.h</text>
</a>
</g>
</g>
<!-- Node1&#45;&gt;Node4 -->
<g id="edge3_Node000001_Node000004" class="edge">
<title>Node1&#45;&gt;Node4</title>
<g id="a_edge3_Node000001_Node000004"><a xlink:title=" ">
<path fill="none" stroke="#63b8ff" d="M186.66,-147.5C198.3,-138.21 212,-127.26 223.5,-118.07"/>
<polygon fill="#63b8ff" stroke="#63b8ff" points="184.23,-144.96 178.61,-153.94 188.6,-150.43 184.23,-144.96"/>
</a>
</g>
</g>
<!-- Node3 -->
<g id="Node000003" class="node">
<title>Node3</title>
<g id="a_Node000003"><a xlink:href="UGameSoundManager_8cpp.html" target="_top" xlink:title="UGameSoundManager 구현에 대한 Doxygen 주석을 제공합니다.">
<polygon fill="white" stroke="#666666" points="246,-41 76,-41 76,0 246,0 246,-41"/>
<text text-anchor="start" x="84" y="-29" font-family="Malgun Gothic" font-size="10.00">Source/LatteLibrary</text>
<text text-anchor="start" x="84" y="-18" font-family="Malgun Gothic" font-size="10.00">/Manager/Private/UGameSound</text>
<text text-anchor="middle" x="161" y="-7" font-family="Malgun Gothic" font-size="10.00">Manager.cpp</text>
</a>
</g>
</g>
<!-- Node2&#45;&gt;Node3 -->
<g id="edge2_Node000002_Node000003" class="edge">
<title>Node2&#45;&gt;Node3</title>
<g id="a_edge2_Node000002_Node000003"><a xlink:title=" ">
<path fill="none" stroke="#63b8ff" d="M98.14,-75.69C110.64,-64.91 125.83,-51.82 138.14,-41.2"/>
<polygon fill="#63b8ff" stroke="#63b8ff" points="95.65,-73.21 90.36,-82.39 100.22,-78.51 95.65,-73.21"/>
</a>
</g>
</g>
<!-- Node4&#45;&gt;Node3 -->
<g id="edge4_Node000004_Node000003" class="edge">
<title>Node4&#45;&gt;Node3</title>
<g id="a_edge4_Node000004_Node000003"><a xlink:title=" ">
<path fill="none" stroke="#63b8ff" d="M217.34,-70.07C206.27,-60.52 193.98,-49.93 183.71,-41.07"/>
<polygon fill="#63b8ff" stroke="#63b8ff" points="215.28,-72.92 225.14,-76.79 219.85,-67.61 215.28,-72.92"/>
</a>
</g>
</g>
</g>
</svg>
