<?xml version="1.0" encoding="UTF-8" standalone="no"?>
<!DOCTYPE svg PUBLIC "-//W3C//DTD SVG 1.1//EN"
 "http://www.w3.org/Graphics/SVG/1.1/DTD/svg11.dtd">
<!-- Generated by graphviz version 2.43.0 (0)
 -->
<!-- Title: Source/YiSan/UI/Private/EndingWidget.cpp Pages: 1 -->
<svg width="1172pt" height="148pt"
 viewBox="0.00 0.00 1172.00 148.00" xmlns="http://www.w3.org/2000/svg" xmlns:xlink="http://www.w3.org/1999/xlink">
<g id="graph0" class="graph" transform="scale(1 1) rotate(0) translate(4 144)">
<title>Source/YiSan/UI/Private/EndingWidget.cpp</title>
<!-- Node1 -->
<g id="Node000001" class="node">
<title>Node1</title>
<g id="a_Node000001"><a xlink:title="UEndingWidget의 동작을 구현합니다.">
<polygon fill="#999999" stroke="#666666" points="657.5,-140 526.5,-140 526.5,-110 657.5,-110 657.5,-140"/>
<text text-anchor="start" x="534.5" y="-128" font-family="Malgun Gothic" font-size="10.00">Source/YiSan/UI/Private</text>
<text text-anchor="middle" x="592" y="-117" font-family="Malgun Gothic" font-size="10.00">/EndingWidget.cpp</text>
</a>
</g>
</g>
<!-- Node2 -->
<g id="Node000002" class="node">
<title>Node2</title>
<g id="a_Node000002"><a xlink:href="EndingWidget_8h.html" target="_top" xlink:title="UEndingWidget 클래스를 선언합니다.">
<polygon fill="white" stroke="#666666" points="284.5,-74 191.5,-74 191.5,-55 284.5,-55 284.5,-74"/>
<text text-anchor="middle" x="238" y="-62" font-family="Malgun Gothic" font-size="10.00">EndingWidget.h</text>
</a>
</g>
</g>
<!-- Node1&#45;&gt;Node2 -->
<g id="edge1_Node000001_Node000002" class="edge">
<title>Node1&#45;&gt;Node2</title>
<g id="a_edge1_Node000001_Node000002"><a xlink:title=" ">
<path fill="none" stroke="#63b8ff" d="M526.24,-113.13C459.76,-102.15 358.07,-85.34 294.93,-74.91"/>
<polygon fill="#63b8ff" stroke="#63b8ff" points="295.2,-71.4 284.76,-73.23 294.06,-78.31 295.2,-71.4"/>
</a>
</g>
</g>
<!-- Node7 -->
<g id="Node000007" class="node">
<title>Node7</title>
<g id="a_Node000007"><a xlink:title=" ">
<polygon fill="#e0e0e0" stroke="#999999" points="423.5,-74 302.5,-74 302.5,-55 423.5,-55 423.5,-74"/>
<text text-anchor="middle" x="363" y="-62" font-family="Malgun Gothic" font-size="10.00">Components/Image.h</text>
</a>
</g>
</g>
<!-- Node1&#45;&gt;Node7 -->
<g id="edge6_Node000001_Node000007" class="edge">
<title>Node1&#45;&gt;Node7</title>
<g id="a_edge6_Node000001_Node000007"><a xlink:title=" ">
<path fill="none" stroke="#63b8ff" d="M537.15,-109.99C497.11,-99.76 443.58,-86.09 406.49,-76.61"/>
<polygon fill="#63b8ff" stroke="#63b8ff" points="407.04,-73.14 396.48,-74.05 405.31,-79.92 407.04,-73.14"/>
</a>
</g>
</g>
<!-- Node8 -->
<g id="Node000008" class="node">
<title>Node8</title>
<g id="a_Node000008"><a xlink:title=" ">
<polygon fill="#e0e0e0" stroke="#999999" points="538,-74 442,-74 442,-55 538,-55 538,-74"/>
<text text-anchor="middle" x="490" y="-62" font-family="Malgun Gothic" font-size="10.00">TimerManager.h</text>
</a>
</g>
</g>
<!-- Node1&#45;&gt;Node8 -->
<g id="edge7_Node000001_Node000008" class="edge">
<title>Node1&#45;&gt;Node8</title>
<g id="a_edge7_Node000001_Node000008"><a xlink:title=" ">
<path fill="none" stroke="#63b8ff" d="M567.57,-109.99C551.31,-100.66 530.05,-88.47 513.9,-79.21"/>
<polygon fill="#63b8ff" stroke="#63b8ff" points="515.48,-76.08 505.06,-74.14 512,-82.15 515.48,-76.08"/>
</a>
</g>
</g>
<!-- Node9 -->
<g id="Node000009" class="node">
<title>Node9</title>
<g id="a_Node000009"><a xlink:title=" ">
<polygon fill="#e0e0e0" stroke="#999999" points="1164,-19 1018,-19 1018,0 1164,0 1164,-19"/>
<text text-anchor="middle" x="1091" y="-7" font-family="Malgun Gothic" font-size="10.00">Kismet/GameplayStatics.h</text>
</a>
</g>
</g>
<!-- Node1&#45;&gt;Node9 -->
<g id="edge8_Node000001_Node000009" class="edge">
<title>Node1&#45;&gt;Node9</title>
<g id="a_edge8_Node000001_Node000009"><a xlink:title=" ">
<path fill="none" stroke="#63b8ff" d="M657.57,-120.61C730.65,-115.53 851.73,-103.19 952,-74 994.2,-61.72 1039.99,-38.74 1067.05,-24.05"/>
<polygon fill="#63b8ff" stroke="#63b8ff" points="1069.06,-26.94 1076.13,-19.05 1065.68,-20.81 1069.06,-26.94"/>
</a>
</g>
</g>
<!-- Node10 -->
<g id="Node000010" class="node">
<title>Node10</title>
<g id="a_Node000010"><a xlink:title=" ">
<polygon fill="#e0e0e0" stroke="#999999" points="805.5,-74 646.5,-74 646.5,-55 805.5,-55 805.5,-74"/>
<text text-anchor="middle" x="726" y="-62" font-family="Malgun Gothic" font-size="10.00">GameFramework/Character.h</text>
</a>
</g>
</g>
<!-- Node1&#45;&gt;Node10 -->
<g id="edge9_Node000001_Node000010" class="edge">
<title>Node1&#45;&gt;Node10</title>
<g id="a_edge9_Node000001_Node000010"><a xlink:title=" ">
<path fill="none" stroke="#63b8ff" d="M624.1,-109.99C646.25,-100.31 675.48,-87.56 696.95,-78.18"/>
<polygon fill="#63b8ff" stroke="#63b8ff" points="698.45,-81.35 706.21,-74.14 695.65,-74.93 698.45,-81.35"/>
</a>
</g>
</g>
<!-- Node11 -->
<g id="Node000011" class="node">
<title>Node11</title>
<g id="a_Node000011"><a xlink:href="ABuilding_8h.html" target="_top" xlink:title="건물 방문 이벤트를 브로드캐스트하는 액터를 선언합니다.">
<polygon fill="white" stroke="#666666" points="628,-74 556,-74 556,-55 628,-55 628,-74"/>
<text text-anchor="middle" x="592" y="-62" font-family="Malgun Gothic" font-size="10.00">ABuilding.h</text>
</a>
</g>
</g>
<!-- Node1&#45;&gt;Node11 -->
<g id="edge10_Node000001_Node000011" class="edge">
<title>Node1&#45;&gt;Node11</title>
<g id="a_edge10_Node000001_Node000011"><a xlink:title=" ">
<path fill="none" stroke="#63b8ff" d="M592,-109.84C592,-102.21 592,-92.7 592,-84.45"/>
<polygon fill="#63b8ff" stroke="#63b8ff" points="595.5,-84.27 592,-74.27 588.5,-84.27 595.5,-84.27"/>
</a>
</g>
</g>
<!-- Node14 -->
<g id="Node000014" class="node">
<title>Node14</title>
<g id="a_Node000014"><a xlink:href="FComponentHelper_8h.html" target="_top" xlink:title="FComponentHelper 구조체를 선언합니다.">
<polygon fill="white" stroke="#666666" points="942.5,-74 823.5,-74 823.5,-55 942.5,-55 942.5,-74"/>
<text text-anchor="middle" x="883" y="-62" font-family="Malgun Gothic" font-size="10.00">FComponentHelper.h</text>
</a>
</g>
</g>
<!-- Node1&#45;&gt;Node14 -->
<g id="edge15_Node000001_Node000014" class="edge">
<title>Node1&#45;&gt;Node14</title>
<g id="a_edge15_Node000001_Node000014"><a xlink:title=" ">
<path fill="none" stroke="#63b8ff" d="M657.67,-110.8C709.94,-100.29 782.12,-85.78 830.57,-76.04"/>
<polygon fill="#63b8ff" stroke="#63b8ff" points="831.42,-79.44 840.53,-74.04 830.04,-72.58 831.42,-79.44"/>
</a>
</g>
</g>
<!-- Node3 -->
<g id="Node000003" class="node">
<title>Node3</title>
<g id="a_Node000003"><a xlink:title=" ">
<polygon fill="#e0e0e0" stroke="#999999" points="512,-19 424,-19 424,0 512,0 512,-19"/>
<text text-anchor="middle" x="468" y="-7" font-family="Malgun Gothic" font-size="10.00">CoreMinimal.h</text>
</a>
</g>
</g>
<!-- Node2&#45;&gt;Node3 -->
<g id="edge2_Node000002_Node000003" class="edge">
<title>Node2&#45;&gt;Node3</title>
<g id="a_edge2_Node000002_Node000003"><a xlink:title=" ">
<path fill="none" stroke="#63b8ff" d="M274.95,-54.98C314.57,-45.86 377.59,-31.33 420.77,-21.38"/>
<polygon fill="#63b8ff" stroke="#63b8ff" points="421.8,-24.74 430.76,-19.08 420.23,-17.92 421.8,-24.74"/>
</a>
</g>
</g>
<!-- Node4 -->
<g id="Node000004" class="node">
<title>Node4</title>
<g id="a_Node000004"><a xlink:title=" ">
<polygon fill="#e0e0e0" stroke="#999999" points="130,-19 0,-19 0,0 130,0 130,-19"/>
<text text-anchor="middle" x="65" y="-7" font-family="Malgun Gothic" font-size="10.00">Blueprint/UserWidget.h</text>
</a>
</g>
</g>
<!-- Node2&#45;&gt;Node4 -->
<g id="edge3_Node000002_Node000004" class="edge">
<title>Node2&#45;&gt;Node4</title>
<g id="a_edge3_Node000002_Node000004"><a xlink:title=" ">
<path fill="none" stroke="#63b8ff" d="M210.2,-54.98C181.03,-46.05 135,-31.94 102.6,-22.02"/>
<polygon fill="#63b8ff" stroke="#63b8ff" points="103.6,-18.66 93.01,-19.08 101.55,-25.36 103.6,-18.66"/>
</a>
</g>
</g>
<!-- Node5 -->
<g id="Node000005" class="node">
<title>Node5</title>
<g id="a_Node000005"><a xlink:href="EBuildingType_8h.html" target="_top" xlink:title="EBuildingType 클래스를 선언합니다.">
<polygon fill="white" stroke="#666666" points="406,-19 312,-19 312,0 406,0 406,-19"/>
<text text-anchor="middle" x="359" y="-7" font-family="Malgun Gothic" font-size="10.00">EBuildingType.h</text>
</a>
</g>
</g>
<!-- Node2&#45;&gt;Node5 -->
<g id="edge4_Node000002_Node000005" class="edge">
<title>Node2&#45;&gt;Node5</title>
<g id="a_edge4_Node000002_Node000005"><a xlink:title=" ">
<path fill="none" stroke="#63b8ff" d="M257.44,-54.98C276.99,-46.42 307.38,-33.11 329.82,-23.28"/>
<polygon fill="#63b8ff" stroke="#63b8ff" points="331.45,-26.39 339.21,-19.17 328.64,-19.98 331.45,-26.39"/>
</a>
</g>
</g>
<!-- Node6 -->
<g id="Node000006" class="node">
<title>Node6</title>
<g id="a_Node000006"><a xlink:title=" ">
<polygon fill="#e0e0e0" stroke="#999999" points="294,-19 148,-19 148,0 294,0 294,-19"/>
<text text-anchor="middle" x="221" y="-7" font-family="Malgun Gothic" font-size="10.00">EndingWidget.generated.h</text>
</a>
</g>
</g>
<!-- Node2&#45;&gt;Node6 -->
<g id="edge5_Node000002_Node000006" class="edge">
<title>Node2&#45;&gt;Node6</title>
<g id="a_edge5_Node000002_Node000006"><a xlink:title=" ">
<path fill="none" stroke="#63b8ff" d="M235.19,-54.75C232.94,-47.72 229.7,-37.62 226.88,-28.84"/>
<polygon fill="#63b8ff" stroke="#63b8ff" points="230.14,-27.54 223.75,-19.09 223.48,-29.68 230.14,-27.54"/>
</a>
</g>
</g>
<!-- Node11&#45;&gt;Node3 -->
<g id="edge11_Node000011_Node000003" class="edge">
<title>Node11&#45;&gt;Node3</title>
<g id="a_edge11_Node000011_Node000003"><a xlink:title=" ">
<path fill="none" stroke="#63b8ff" d="M572.08,-54.98C551.95,-46.38 520.62,-32.99 497.59,-23.15"/>
<polygon fill="#63b8ff" stroke="#63b8ff" points="498.86,-19.88 488.29,-19.17 496.1,-26.32 498.86,-19.88"/>
</a>
</g>
</g>
<!-- Node11&#45;&gt;Node5 -->
<g id="edge12_Node000011_Node000005" class="edge">
<title>Node11&#45;&gt;Node5</title>
<g id="a_edge12_Node000011_Node000005"><a xlink:title=" ">
<path fill="none" stroke="#63b8ff" d="M555.85,-55.28C515.65,-46.13 450.56,-31.33 406.33,-21.27"/>
<polygon fill="#63b8ff" stroke="#63b8ff" points="406.92,-17.81 396.39,-19.01 405.37,-24.64 406.92,-17.81"/>
</a>
</g>
</g>
<!-- Node12 -->
<g id="Node000012" class="node">
<title>Node12</title>
<g id="a_Node000012"><a xlink:title=" ">
<polygon fill="#e0e0e0" stroke="#999999" points="809.5,-19 672.5,-19 672.5,0 809.5,0 809.5,-19"/>
<text text-anchor="middle" x="741" y="-7" font-family="Malgun Gothic" font-size="10.00">GameFramework/Actor.h</text>
</a>
</g>
</g>
<!-- Node11&#45;&gt;Node12 -->
<g id="edge13_Node000011_Node000012" class="edge">
<title>Node11&#45;&gt;Node12</title>
<g id="a_edge13_Node000011_Node000012"><a xlink:title=" ">
<path fill="none" stroke="#63b8ff" d="M615.94,-54.98C640.56,-46.23 679.12,-32.51 706.92,-22.62"/>
<polygon fill="#63b8ff" stroke="#63b8ff" points="708.38,-25.82 716.62,-19.17 706.03,-19.22 708.38,-25.82"/>
</a>
</g>
</g>
<!-- Node13 -->
<g id="Node000013" class="node">
<title>Node13</title>
<g id="a_Node000013"><a xlink:title=" ">
<polygon fill="#e0e0e0" stroke="#999999" points="654.5,-19 529.5,-19 529.5,0 654.5,0 654.5,-19"/>
<text text-anchor="middle" x="592" y="-7" font-family="Malgun Gothic" font-size="10.00">ABuilding.generated.h</text>
</a>
</g>
</g>
<!-- Node11&#45;&gt;Node13 -->
<g id="edge14_Node000011_Node000013" class="edge">
<title>Node11&#45;&gt;Node13</title>
<g id="a_edge14_Node000011_Node000013"><a xlink:title=" ">
<path fill="none" stroke="#63b8ff" d="M592,-54.75C592,-47.8 592,-37.85 592,-29.13"/>
<polygon fill="#63b8ff" stroke="#63b8ff" points="595.5,-29.09 592,-19.09 588.5,-29.09 595.5,-29.09"/>
</a>
</g>
</g>
<!-- Node14&#45;&gt;Node3 -->
<g id="edge16_Node000014_Node000003" class="edge">
<title>Node14&#45;&gt;Node3</title>
<g id="a_edge16_Node000014_Node000003"><a xlink:title=" ">
<path fill="none" stroke="#63b8ff" d="M823.16,-56.13C820.06,-55.74 816.99,-55.37 814,-55 686.53,-39.34 651.99,-37.7 522.16,-19.27"/>
<polygon fill="#63b8ff" stroke="#63b8ff" points="522.63,-15.8 512.24,-17.85 521.64,-22.73 522.63,-15.8"/>
</a>
</g>
</g>
<!-- Node14&#45;&gt;Node9 -->
<g id="edge19_Node000014_Node000009" class="edge">
<title>Node14&#45;&gt;Node9</title>
<g id="a_edge19_Node000014_Node000009"><a xlink:title=" ">
<path fill="none" stroke="#63b8ff" d="M916.42,-54.98C951.94,-45.93 1008.27,-31.58 1047.3,-21.64"/>
<polygon fill="#63b8ff" stroke="#63b8ff" points="1048.49,-24.94 1057.32,-19.08 1046.76,-18.16 1048.49,-24.94"/>
</a>
</g>
</g>
<!-- Node14&#45;&gt;Node12 -->
<g id="edge17_Node000014_Node000012" class="edge">
<title>Node14&#45;&gt;Node12</title>
<g id="a_edge17_Node000014_Node000012"><a xlink:title=" ">
<path fill="none" stroke="#63b8ff" d="M860.19,-54.98C836.83,-46.27 800.3,-32.63 773.83,-22.75"/>
<polygon fill="#63b8ff" stroke="#63b8ff" points="774.82,-19.39 764.23,-19.17 772.37,-25.95 774.82,-19.39"/>
</a>
</g>
</g>
<!-- Node15 -->
<g id="Node000015" class="node">
<title>Node15</title>
<g id="a_Node000015"><a xlink:title=" ">
<polygon fill="#e0e0e0" stroke="#999999" points="1000,-19 828,-19 828,0 1000,0 1000,-19"/>
<text text-anchor="middle" x="914" y="-7" font-family="Malgun Gothic" font-size="10.00">Components/ActorComponent.h</text>
</a>
</g>
</g>
<!-- Node14&#45;&gt;Node15 -->
<g id="edge18_Node000014_Node000015" class="edge">
<title>Node14&#45;&gt;Node15</title>
<g id="a_edge18_Node000014_Node000015"><a xlink:title=" ">
<path fill="none" stroke="#63b8ff" d="M888.12,-54.75C892.36,-47.49 898.53,-36.95 903.78,-27.98"/>
<polygon fill="#63b8ff" stroke="#63b8ff" points="906.95,-29.49 908.98,-19.09 900.91,-25.95 906.95,-29.49"/>
</a>
</g>
</g>
</g>
</svg>
