<?xml version="1.0" encoding="UTF-8" standalone="no"?>
<!DOCTYPE svg PUBLIC "-//W3C//DTD SVG 1.1//EN"
 "http://www.w3.org/Graphics/SVG/1.1/DTD/svg11.dtd">
<!-- Generated by graphviz version 2.43.0 (0)
 -->
<!-- Title: Source/LatteLibrary/Data/Public/FCharacterAssetData.h Pages: 1 -->
<svg width="1161pt" height="192pt"
 viewBox="0.00 0.00 1161.00 192.00" xmlns="http://www.w3.org/2000/svg" xmlns:xlink="http://www.w3.org/1999/xlink">
<g id="graph0" class="graph" transform="scale(1 1) rotate(0) translate(4 188)">
<title>Source/LatteLibrary/Data/Public/FCharacterAssetData.h</title>
<!-- Node1 -->
<g id="Node000001" class="node">
<title>Node1</title>
<g id="a_Node000001"><a xlink:title="FCharacterAssetData 구조체에 대한 Doxygen 주석을 제공합니다.">
<polygon fill="#999999" stroke="#666666" points="389,-184 231,-184 231,-143 389,-143 389,-184"/>
<text text-anchor="start" x="239" y="-172" font-family="Malgun Gothic" font-size="10.00">Source/LatteLibrary</text>
<text text-anchor="start" x="239" y="-161" font-family="Malgun Gothic" font-size="10.00">/Data/Public/FCharacterAsset</text>
<text text-anchor="middle" x="310" y="-150" font-family="Malgun Gothic" font-size="10.00">Data.h</text>
</a>
</g>
</g>
<!-- Node2 -->
<g id="Node000002" class="node">
<title>Node2</title>
<g id="a_Node000002"><a xlink:href="AGameCharacter_8cpp.html" target="_top" xlink:title="AGameCharacter 구현에 대한 Doxygen 주석을 제공합니다.">
<polygon fill="white" stroke="#666666" points="210,-35.5 0,-35.5 0,-5.5 210,-5.5 210,-35.5"/>
<text text-anchor="start" x="8" y="-23.5" font-family="Malgun Gothic" font-size="10.00">Source/LatteLibrary</text>
<text text-anchor="middle" x="105" y="-12.5" font-family="Malgun Gothic" font-size="10.00">/Character/Private/AGameCharacter.cpp</text>
</a>
</g>
</g>
<!-- Node1&#45;&gt;Node2 -->
<g id="edge1_Node000001_Node000002" class="edge">
<title>Node1&#45;&gt;Node2</title>
<g id="a_edge1_Node000001_Node000002"><a xlink:title=" ">
<path fill="none" stroke="#63b8ff" d="M273.24,-137.22C230.08,-107.53 160.01,-59.34 125.52,-35.61"/>
<polygon fill="#63b8ff" stroke="#63b8ff" points="271.27,-140.11 281.5,-142.89 275.24,-134.34 271.27,-140.11"/>
</a>
</g>
</g>
<!-- Node3 -->
<g id="Node000003" class="node">
<title>Node3</title>
<g id="a_Node000003"><a xlink:href="UGameDataManager_8cpp.html" target="_top" xlink:title="UGameDataManager 구현에 대한 Doxygen 주석을 제공합니다.">
<polygon fill="white" stroke="#666666" points="391.5,-41 228.5,-41 228.5,0 391.5,0 391.5,-41"/>
<text text-anchor="start" x="236.5" y="-29" font-family="Malgun Gothic" font-size="10.00">Source/LatteLibrary</text>
<text text-anchor="start" x="236.5" y="-18" font-family="Malgun Gothic" font-size="10.00">/Manager/Private/UGameData</text>
<text text-anchor="middle" x="310" y="-7" font-family="Malgun Gothic" font-size="10.00">Manager.cpp</text>
</a>
</g>
</g>
<!-- Node1&#45;&gt;Node3 -->
<g id="edge2_Node000001_Node000003" class="edge">
<title>Node1&#45;&gt;Node3</title>
<g id="a_edge2_Node000001_Node000003"><a xlink:title=" ">
<path fill="none" stroke="#63b8ff" d="M310,-132.68C310,-105.2 310,-65.17 310,-41.39"/>
<polygon fill="#63b8ff" stroke="#63b8ff" points="306.5,-132.89 310,-142.89 313.5,-132.89 306.5,-132.89"/>
</a>
</g>
</g>
<!-- Node4 -->
<g id="Node000004" class="node">
<title>Node4</title>
<g id="a_Node000004"><a xlink:href="UGameDataManager_8h.html" target="_top" xlink:title="UGameDataManager 선언에 대한 Doxygen 주석을 제공합니다.">
<polygon fill="white" stroke="#666666" points="609.5,-107 400.5,-107 400.5,-77 609.5,-77 609.5,-107"/>
<text text-anchor="start" x="408.5" y="-95" font-family="Malgun Gothic" font-size="10.00">Source/LatteLibrary</text>
<text text-anchor="middle" x="505" y="-84" font-family="Malgun Gothic" font-size="10.00">/Manager/Public/UGameDataManager.h</text>
</a>
</g>
</g>
<!-- Node1&#45;&gt;Node4 -->
<g id="edge3_Node000001_Node000004" class="edge">
<title>Node1&#45;&gt;Node4</title>
<g id="a_edge3_Node000001_Node000004"><a xlink:title=" ">
<path fill="none" stroke="#63b8ff" d="M374.45,-139.53C404.61,-128.78 439.56,-116.32 465.71,-107"/>
<polygon fill="#63b8ff" stroke="#63b8ff" points="373.08,-136.3 364.84,-142.96 375.43,-142.89 373.08,-136.3"/>
</a>
</g>
</g>
<!-- Node4&#45;&gt;Node2 -->
<g id="edge4_Node000004_Node000002" class="edge">
<title>Node4&#45;&gt;Node2</title>
<g id="a_edge4_Node000004_Node000002"><a xlink:title=" ">
<path fill="none" stroke="#63b8ff" d="M414.1,-75.21C345.4,-63.27 251.94,-47.03 185.83,-35.54"/>
<polygon fill="#63b8ff" stroke="#63b8ff" points="413.6,-78.67 424.05,-76.94 414.8,-71.78 413.6,-78.67"/>
</a>
</g>
</g>
<!-- Node4&#45;&gt;Node3 -->
<g id="edge8_Node000004_Node000003" class="edge">
<title>Node4&#45;&gt;Node3</title>
<g id="a_edge8_Node000004_Node000003"><a xlink:title=" ">
<path fill="none" stroke="#63b8ff" d="M456.05,-73.55C428.32,-63.67 393.57,-51.28 364.92,-41.07"/>
<polygon fill="#63b8ff" stroke="#63b8ff" points="454.94,-76.88 465.54,-76.94 457.29,-70.28 454.94,-76.88"/>
</a>
</g>
</g>
<!-- Node5 -->
<g id="Node000005" class="node">
<title>Node5</title>
<g id="a_Node000005"><a xlink:href="UHitStopSystem_8cpp.html" target="_top" xlink:title="UHitStopSystem 구현에 대한 Doxygen 주석을 제공합니다.">
<polygon fill="white" stroke="#666666" points="966.5,-41 815.5,-41 815.5,0 966.5,0 966.5,-41"/>
<text text-anchor="start" x="823.5" y="-29" font-family="Malgun Gothic" font-size="10.00">Source/LatteLibrary</text>
<text text-anchor="start" x="823.5" y="-18" font-family="Malgun Gothic" font-size="10.00">/Character/Private/UHitStop</text>
<text text-anchor="middle" x="891" y="-7" font-family="Malgun Gothic" font-size="10.00">System.cpp</text>
</a>
</g>
</g>
<!-- Node4&#45;&gt;Node5 -->
<g id="edge5_Node000004_Node000005" class="edge">
<title>Node4&#45;&gt;Node5</title>
<g id="a_edge5_Node000004_Node000005"><a xlink:title=" ">
<path fill="none" stroke="#63b8ff" d="M609.44,-75.4C667.74,-66.26 741.59,-53.99 807,-41 809.79,-40.45 812.63,-39.87 815.49,-39.27"/>
<polygon fill="#63b8ff" stroke="#63b8ff" points="608.82,-71.95 599.48,-76.95 609.9,-78.87 608.82,-71.95"/>
</a>
</g>
</g>
<!-- Node6 -->
<g id="Node000006" class="node">
<title>Node6</title>
<g id="a_Node000006"><a xlink:href="UKnockbackSystem_8cpp.html" target="_top" xlink:title="UKnockbackSystem 구현에 대한 Doxygen 주석을 제공합니다.">
<polygon fill="white" stroke="#666666" points="1153,-41 985,-41 985,0 1153,0 1153,-41"/>
<text text-anchor="start" x="993" y="-29" font-family="Malgun Gothic" font-size="10.00">Source/LatteLibrary</text>
<text text-anchor="start" x="993" y="-18" font-family="Malgun Gothic" font-size="10.00">/Character/Private/UKnockback</text>
<text text-anchor="middle" x="1069" y="-7" font-family="Malgun Gothic" font-size="10.00">System.cpp</text>
</a>
</g>
</g>
<!-- Node4&#45;&gt;Node6 -->
<g id="edge6_Node000004_Node000006" class="edge">
<title>Node4&#45;&gt;Node6</title>
<g id="a_edge6_Node000004_Node000006"><a xlink:title=" ">
<path fill="none" stroke="#63b8ff" d="M619.68,-82.08C715.31,-73.87 854.99,-60.06 976,-41 978.93,-40.54 981.91,-40.04 984.92,-39.53"/>
<polygon fill="#63b8ff" stroke="#63b8ff" points="619.36,-78.6 609.69,-82.94 619.95,-85.57 619.36,-78.6"/>
</a>
</g>
</g>
<!-- Node7 -->
<g id="Node000007" class="node">
<title>Node7</title>
<g id="a_Node000007"><a xlink:href="UStatSystem_8cpp.html" target="_top" xlink:title="UStatSystem 구현에 대한 Doxygen 주석을 제공합니다.">
<polygon fill="white" stroke="#666666" points="600.5,-35.5 409.5,-35.5 409.5,-5.5 600.5,-5.5 600.5,-35.5"/>
<text text-anchor="start" x="417.5" y="-23.5" font-family="Malgun Gothic" font-size="10.00">Source/LatteLibrary</text>
<text text-anchor="middle" x="505" y="-12.5" font-family="Malgun Gothic" font-size="10.00">/Character/Private/UStatSystem.cpp</text>
</a>
</g>
</g>
<!-- Node4&#45;&gt;Node7 -->
<g id="edge7_Node000004_Node000007" class="edge">
<title>Node4&#45;&gt;Node7</title>
<g id="a_edge7_Node000004_Node000007"><a xlink:title=" ">
<path fill="none" stroke="#63b8ff" d="M505,-66.75C505,-56.31 505,-44.49 505,-35.54"/>
<polygon fill="#63b8ff" stroke="#63b8ff" points="501.5,-66.94 505,-76.94 508.5,-66.94 501.5,-66.94"/>
</a>
</g>
</g>
<!-- Node8 -->
<g id="Node000008" class="node">
<title>Node8</title>
<g id="a_Node000008"><a xlink:href="ANetworkTesterActor_8cpp.html" target="_top" xlink:title="ANetworkTesterActor 구현에 대한 Doxygen 주석을 제공합니다.">
<polygon fill="white" stroke="#666666" points="797.5,-41 618.5,-41 618.5,0 797.5,0 797.5,-41"/>
<text text-anchor="start" x="626.5" y="-29" font-family="Malgun Gothic" font-size="10.00">Source/LatteLibrary</text>
<text text-anchor="start" x="626.5" y="-18" font-family="Malgun Gothic" font-size="10.00">/Network/Private/ANetworkTester</text>
<text text-anchor="middle" x="708" y="-7" font-family="Malgun Gothic" font-size="10.00">Actor.cpp</text>
</a>
</g>
</g>
<!-- Node4&#45;&gt;Node8 -->
<g id="edge9_Node000004_Node000008" class="edge">
<title>Node4&#45;&gt;Node8</title>
<g id="a_edge9_Node000004_Node000008"><a xlink:title=" ">
<path fill="none" stroke="#63b8ff" d="M555.58,-73.68C584.51,-63.78 620.87,-51.33 650.83,-41.07"/>
<polygon fill="#63b8ff" stroke="#63b8ff" points="554.41,-70.39 546.08,-76.94 556.67,-77.01 554.41,-70.39"/>
</a>
</g>
</g>
</g>
</svg>
