<?xml version="1.0" encoding="UTF-8" standalone="no"?>
<!DOCTYPE svg PUBLIC "-//W3C//DTD SVG 1.1//EN"
 "http://www.w3.org/Graphics/SVG/1.1/DTD/svg11.dtd">
<!-- Generated by graphviz version 2.43.0 (0)
 -->
<!-- Title: Source/CoffeeLibrary/Shared/Public/FComponentHelper.h Pages: 1 -->
<svg width="921pt" height="115pt"
 viewBox="0.00 0.00 920.50 115.00" xmlns="http://www.w3.org/2000/svg" xmlns:xlink="http://www.w3.org/1999/xlink">
<g id="graph0" class="graph" transform="scale(1 1) rotate(0) translate(4 111)">
<title>Source/CoffeeLibrary/Shared/Public/FComponentHelper.h</title>
<!-- Node1 -->
<g id="Node000001" class="node">
<title>Node1</title>
<g id="a_Node000001"><a xlink:title="FComponentHelper 선언에 대한 Doxygen 주석을 제공합니다.">
<polygon fill="#999999" stroke="#666666" points="525,-107 334,-107 334,-77 525,-77 525,-107"/>
<text text-anchor="start" x="342" y="-95" font-family="Malgun Gothic" font-size="10.00">Source/CoffeeLibrary</text>
<text text-anchor="middle" x="429.5" y="-84" font-family="Malgun Gothic" font-size="10.00">/Shared/Public/FComponentHelper.h</text>
</a>
</g>
</g>
<!-- Node2 -->
<g id="Node000002" class="node">
<title>Node2</title>
<g id="a_Node000002"><a xlink:href="APlayerControl_8cpp.html" target="_top" xlink:title="APlayerControl 구현에 대한 Doxygen 주석을 제공합니다.">
<polygon fill="white" stroke="#666666" points="145,-41 0,-41 0,0 145,0 145,-41"/>
<text text-anchor="start" x="8" y="-29" font-family="Malgun Gothic" font-size="10.00">Source/LatteLibrary</text>
<text text-anchor="start" x="8" y="-18" font-family="Malgun Gothic" font-size="10.00">/Character/Private/APlayer</text>
<text text-anchor="middle" x="72.5" y="-7" font-family="Malgun Gothic" font-size="10.00">Control.cpp</text>
</a>
</g>
</g>
<!-- Node1&#45;&gt;Node2 -->
<g id="edge1_Node000001_Node000002" class="edge">
<title>Node1&#45;&gt;Node2</title>
<g id="a_edge1_Node000001_Node000002"><a xlink:title=" ">
<path fill="none" stroke="#63b8ff" d="M334.87,-75.23C281.47,-65.99 213.6,-53.67 153.5,-41 150.81,-40.43 148.07,-39.84 145.31,-39.24"/>
<polygon fill="#63b8ff" stroke="#63b8ff" points="334.56,-78.73 345.01,-76.98 335.75,-71.83 334.56,-78.73"/>
</a>
</g>
</g>
<!-- Node3 -->
<g id="Node000003" class="node">
<title>Node3</title>
<g id="a_Node000003"><a xlink:href="UGameDataManager_8cpp.html" target="_top" xlink:title="UGameDataManager 구현에 대한 Doxygen 주석을 제공합니다.">
<polygon fill="white" stroke="#666666" points="326,-41 163,-41 163,0 326,0 326,-41"/>
<text text-anchor="start" x="171" y="-29" font-family="Malgun Gothic" font-size="10.00">Source/LatteLibrary</text>
<text text-anchor="start" x="171" y="-18" font-family="Malgun Gothic" font-size="10.00">/Manager/Private/UGameData</text>
<text text-anchor="middle" x="244.5" y="-7" font-family="Malgun Gothic" font-size="10.00">Manager.cpp</text>
</a>
</g>
</g>
<!-- Node1&#45;&gt;Node3 -->
<g id="edge2_Node000001_Node000003" class="edge">
<title>Node1&#45;&gt;Node3</title>
<g id="a_edge2_Node000001_Node000003"><a xlink:title=" ">
<path fill="none" stroke="#63b8ff" d="M382.37,-73.29C356.18,-63.46 323.55,-51.2 296.6,-41.07"/>
<polygon fill="#63b8ff" stroke="#63b8ff" points="381.47,-76.7 392.06,-76.94 383.93,-70.14 381.47,-76.7"/>
</a>
</g>
</g>
<!-- Node4 -->
<g id="Node000004" class="node">
<title>Node4</title>
<g id="a_Node000004"><a xlink:href="UGameSoundManager_8cpp.html" target="_top" xlink:title="UGameSoundManager 구현에 대한 Doxygen 주석을 제공합니다.">
<polygon fill="white" stroke="#666666" points="514.5,-41 344.5,-41 344.5,0 514.5,0 514.5,-41"/>
<text text-anchor="start" x="352.5" y="-29" font-family="Malgun Gothic" font-size="10.00">Source/LatteLibrary</text>
<text text-anchor="start" x="352.5" y="-18" font-family="Malgun Gothic" font-size="10.00">/Manager/Private/UGameSound</text>
<text text-anchor="middle" x="429.5" y="-7" font-family="Malgun Gothic" font-size="10.00">Manager.cpp</text>
</a>
</g>
</g>
<!-- Node1&#45;&gt;Node4 -->
<g id="edge3_Node000001_Node000004" class="edge">
<title>Node1&#45;&gt;Node4</title>
<g id="a_edge3_Node000001_Node000004"><a xlink:title=" ">
<path fill="none" stroke="#63b8ff" d="M429.5,-66.91C429.5,-58.47 429.5,-49.1 429.5,-41.07"/>
<polygon fill="#63b8ff" stroke="#63b8ff" points="426,-66.94 429.5,-76.94 433,-66.94 426,-66.94"/>
</a>
</g>
</g>
<!-- Node5 -->
<g id="Node000005" class="node">
<title>Node5</title>
<g id="a_Node000005"><a xlink:href="UGameVFXManager_8cpp.html" target="_top" xlink:title="UGameVFXManager 구현에 대한 Doxygen 주석을 제공합니다.">
<polygon fill="white" stroke="#666666" points="754,-35.5 533,-35.5 533,-5.5 754,-5.5 754,-35.5"/>
<text text-anchor="start" x="541" y="-23.5" font-family="Malgun Gothic" font-size="10.00">Source/LatteLibrary</text>
<text text-anchor="middle" x="643.5" y="-12.5" font-family="Malgun Gothic" font-size="10.00">/Manager/Private/UGameVFXManager.cpp</text>
</a>
</g>
</g>
<!-- Node1&#45;&gt;Node5 -->
<g id="edge4_Node000001_Node000005" class="edge">
<title>Node1&#45;&gt;Node5</title>
<g id="a_edge4_Node000001_Node000005"><a xlink:title=" ">
<path fill="none" stroke="#63b8ff" d="M482.71,-73.72C518.96,-61.95 566.34,-46.56 600.26,-35.54"/>
<polygon fill="#63b8ff" stroke="#63b8ff" points="481.24,-70.52 472.81,-76.94 483.4,-77.18 481.24,-70.52"/>
</a>
</g>
</g>
<!-- Node6 -->
<g id="Node000006" class="node">
<title>Node6</title>
<g id="a_Node000006"><a xlink:href="APlayerActor_8cpp.html" target="_top" xlink:title="Provides Doxygen annotations for APlayerActor implementation.">
<polygon fill="white" stroke="#666666" points="912.5,-35.5 772.5,-35.5 772.5,-5.5 912.5,-5.5 912.5,-35.5"/>
<text text-anchor="start" x="780.5" y="-23.5" font-family="Malgun Gothic" font-size="10.00">Source/YiSan/Character</text>
<text text-anchor="middle" x="842.5" y="-12.5" font-family="Malgun Gothic" font-size="10.00">/Private/APlayerActor.cpp</text>
</a>
</g>
</g>
<!-- Node1&#45;&gt;Node6 -->
<g id="edge5_Node000001_Node000006" class="edge">
<title>Node1&#45;&gt;Node6</title>
<g id="a_edge5_Node000001_Node000006"><a xlink:title=" ">
<path fill="none" stroke="#63b8ff" d="M535.27,-77.74C601.18,-68.84 687.59,-56.02 763.5,-41 771.54,-39.41 779.99,-37.54 788.25,-35.6"/>
<polygon fill="#63b8ff" stroke="#63b8ff" points="534.73,-74.28 525.29,-79.08 535.67,-81.22 534.73,-74.28"/>
</a>
</g>
</g>
</g>
</svg>
