<?xml version="1.0" encoding="UTF-8" standalone="no"?>
<!DOCTYPE svg PUBLIC "-//W3C//DTD SVG 1.1//EN"
 "http://www.w3.org/Graphics/SVG/1.1/DTD/svg11.dtd">
<!-- Generated by graphviz version 2.43.0 (0)
 -->
<!-- Title: Source/LatteLibrary/Data/Public/FKnockbackData.h Pages: 1 -->
<!--zoomable 192 -->

<svg id="main" version="1.1" xmlns="http://www.w3.org/2000/svg" xmlns:xlink="http://www.w3.org/1999/xlink" xml:space="preserve" onload="init(evt)">
<style type="text/css"><![CDATA[
.node, .edge {opacity: 0.7;}
.node.selected, .edge.selected {opacity: 1;}
.edge:hover path { stroke: red; }
.edge:hover polygon { stroke: red; fill: red; }
]]></style>

<defs>
  <circle id="rim" cx="0" cy="0" r="7"/>
  <circle id="rim2" cx="0" cy="0" r="3.5"/>
  <g id="zoomPlus">
    <use xlink:href="#rim" fill="#404040"><set attributeName="fill" to="#808080" begin="zoomplus.mouseover" end="zoomplus.mouseout"/></use>
    <path d="M-4,0h8M0,-4v8" fill="none" stroke="white" stroke-width="1.5" pointer-events="none"/>
  </g>
  <g id="zoomMin">
    <use xlink:href="#rim" fill="#404040"><set attributeName="fill" to="#808080" begin="zoomminus.mouseover" end="zoomminus.mouseout"/></use>
    <path d="M-4,0h8" fill="none" stroke="white" stroke-width="1.5" pointer-events="none"/>
  </g>
  <g id="arrowUp" transform="translate(30 24)">
    <use xlink:href="#rim"/>
    <path pointer-events="none" fill="none" stroke="white" stroke-width="1.5" d="M0,-3.0v7 M-2.5,-0.5L0,-3.0L2.5,-0.5"/>
  </g>
  <g id="arrowRight" transform="rotate(90) translate(36 -43)">
    <use xlink:href="#rim"/>
    <path pointer-events="none" fill="none" stroke="white" stroke-width="1.5" d="M0,-3.0v7 M-2.5,-0.5L0,-3.0L2.5,-0.5"/>
  </g>
  <g id="arrowDown" transform="rotate(180) translate(-30 -48)">
    <use xlink:href="#rim"/>
    <path pointer-events="none" fill="none" stroke="white" stroke-width="1.5" d="M0,-3.0v7 M-2.5,-0.5L0,-3.0L2.5,-0.5"/>
  </g>
  <g id="arrowLeft" transform="rotate(270) translate(-36 17)">
    <use xlink:href="#rim"/>
    <path pointer-events="none" fill="none" stroke="white" stroke-width="1.5" d="M0,-3.0v7 M-2.5,-0.5L0,-3.0L2.5,-0.5"/>
  </g>
  <g id="resetDef">
    <use xlink:href="#rim2" fill="#404040"><set attributeName="fill" to="#808080" begin="reset.mouseover" end="reset.mouseout"/></use>
  </g>
</defs>
<script type="application/ecmascript">
var viewWidth = 1324;
var viewHeight = 192;
var sectionId = 'dynsection-1';
</script>
<script type="application/ecmascript" xlink:href="svg.min.js"/>
<svg id="graph" class="graph">
<g id="viewport">
<title>Source/LatteLibrary/Data/Public/FKnockbackData.h</title>
<!-- Node1 -->
<g id="Node000001" class="node">
<title>Node1</title>
<g id="a_Node000001"><a xlink:title="FKnockbackData 구조체에 대한 Doxygen 주석을 제공합니다.">
<polygon fill="#999999" stroke="#666666" points="442.5,-184 272.5,-184 272.5,-154 442.5,-154 442.5,-184"/>
<text text-anchor="start" x="280.5" y="-172" font-family="Malgun Gothic" font-size="10.00">Source/LatteLibrary</text>
<text text-anchor="middle" x="357.5" y="-161" font-family="Malgun Gothic" font-size="10.00">/Data/Public/FKnockbackData.h</text>
</a>
</g>
</g>
<!-- Node2 -->
<g id="Node000002" class="node">
<title>Node2</title>
<g id="a_Node000002"><a xlink:href="UKnockbackSystem_8cpp.html" target="_top" xlink:title="UKnockbackSystem 구현에 대한 Doxygen 주석을 제공합니다.">
<polygon fill="white" stroke="#666666" points="331.5,-41 163.5,-41 163.5,0 331.5,0 331.5,-41"/>
<text text-anchor="start" x="171.5" y="-29" font-family="Malgun Gothic" font-size="10.00">Source/LatteLibrary</text>
<text text-anchor="start" x="171.5" y="-18" font-family="Malgun Gothic" font-size="10.00">/Character/Private/UKnockback</text>
<text text-anchor="middle" x="247.5" y="-7" font-family="Malgun Gothic" font-size="10.00">System.cpp</text>
</a>
</g>
</g>
<!-- Node1&#45;&gt;Node2 -->
<g id="edge1_Node000001_Node000002" class="edge">
<title>Node1&#45;&gt;Node2</title>
<g id="a_edge1_Node000001_Node000002"><a xlink:title=" ">
<path fill="none" stroke="#63b8ff" d="M357.24,-143.7C355.91,-124.07 351.4,-96.59 337.5,-77 326.66,-61.73 310.17,-49.82 294.26,-41.01"/>
<polygon fill="#63b8ff" stroke="#63b8ff" points="353.74,-143.86 357.69,-153.7 360.73,-143.55 353.74,-143.86"/>
</a>
</g>
</g>
<!-- Node3 -->
<g id="Node000003" class="node">
<title>Node3</title>
<g id="a_Node000003"><a xlink:href="UKnockbackSystem_8h.html" target="_top" xlink:title="UKnockbackSystem 선언에 대한 Doxygen 주석을 제공합니다.">
<polygon fill="white" stroke="#666666" points="329,-118 166,-118 166,-77 329,-77 329,-118"/>
<text text-anchor="start" x="174" y="-106" font-family="Malgun Gothic" font-size="10.00">Source/LatteLibrary</text>
<text text-anchor="start" x="174" y="-95" font-family="Malgun Gothic" font-size="10.00">/Character/Public/UKnockback</text>
<text text-anchor="middle" x="247.5" y="-84" font-family="Malgun Gothic" font-size="10.00">System.h</text>
</a>
</g>
</g>
<!-- Node1&#45;&gt;Node3 -->
<g id="edge2_Node000001_Node000003" class="edge">
<title>Node1&#45;&gt;Node3</title>
<g id="a_edge2_Node000001_Node000003"><a xlink:title=" ">
<path fill="none" stroke="#63b8ff" d="M326.76,-148.58C311.69,-139.06 293.58,-127.62 278.48,-118.07"/>
<polygon fill="#63b8ff" stroke="#63b8ff" points="324.92,-151.55 335.24,-153.94 328.66,-145.64 324.92,-151.55"/>
</a>
</g>
</g>
<!-- Node6 -->
<g id="Node000006" class="node">
<title>Node6</title>
<g id="a_Node000006"><a xlink:href="UGameDataManager_8h.html" target="_top" xlink:title="UGameDataManager 선언에 대한 Doxygen 주석을 제공합니다.">
<polygon fill="white" stroke="#666666" points="778,-112.5 569,-112.5 569,-82.5 778,-82.5 778,-112.5"/>
<text text-anchor="start" x="577" y="-100.5" font-family="Malgun Gothic" font-size="10.00">Source/LatteLibrary</text>
<text text-anchor="middle" x="673.5" y="-89.5" font-family="Malgun Gothic" font-size="10.00">/Manager/Public/UGameDataManager.h</text>
</a>
</g>
</g>
<!-- Node1&#45;&gt;Node6 -->
<g id="edge6_Node000001_Node000006" class="edge">
<title>Node1&#45;&gt;Node6</title>
<g id="a_edge6_Node000001_Node000006"><a xlink:title=" ">
<path fill="none" stroke="#63b8ff" d="M431.32,-151.76C485.4,-139.87 558.06,-123.89 609.65,-112.54"/>
<polygon fill="#63b8ff" stroke="#63b8ff" points="430.46,-148.37 421.45,-153.94 431.97,-155.21 430.46,-148.37"/>
</a>
</g>
</g>
<!-- Node3&#45;&gt;Node2 -->
<g id="edge5_Node000003_Node000002" class="edge">
<title>Node3&#45;&gt;Node2</title>
<g id="a_edge5_Node000003_Node000002"><a xlink:title=" ">
<path fill="none" stroke="#63b8ff" d="M247.5,-66.69C247.5,-58.08 247.5,-48.9 247.5,-41.07"/>
<polygon fill="#63b8ff" stroke="#63b8ff" points="244,-66.79 247.5,-76.79 251,-66.79 244,-66.79"/>
</a>
</g>
</g>
<!-- Node4 -->
<g id="Node000004" class="node">
<title>Node4</title>
<g id="a_Node000004"><a xlink:href="AGameCharacter_8cpp.html" target="_top" xlink:title="AGameCharacter 구현에 대한 Doxygen 주석을 제공합니다.">
<polygon fill="white" stroke="#666666" points="559.5,-35.5 349.5,-35.5 349.5,-5.5 559.5,-5.5 559.5,-35.5"/>
<text text-anchor="start" x="357.5" y="-23.5" font-family="Malgun Gothic" font-size="10.00">Source/LatteLibrary</text>
<text text-anchor="middle" x="454.5" y="-12.5" font-family="Malgun Gothic" font-size="10.00">/Character/Private/AGameCharacter.cpp</text>
</a>
</g>
</g>
<!-- Node3&#45;&gt;Node4 -->
<g id="edge3_Node000003_Node000004" class="edge">
<title>Node3&#45;&gt;Node4</title>
<g id="a_edge3_Node000003_Node000004"><a xlink:title=" ">
<path fill="none" stroke="#63b8ff" d="M310.8,-73.57C345,-61.17 386.15,-46.26 415.63,-35.58"/>
<polygon fill="#63b8ff" stroke="#63b8ff" points="309.56,-70.29 301.35,-76.99 311.94,-76.87 309.56,-70.29"/>
</a>
</g>
</g>
<!-- Node5 -->
<g id="Node000005" class="node">
<title>Node5</title>
<g id="a_Node000005"><a xlink:href="APlayerActor_8cpp.html" target="_top" xlink:title="Provides Doxygen annotations for APlayerActor implementation.">
<polygon fill="white" stroke="#666666" points="145,-41 0,-41 0,0 145,0 145,-41"/>
<text text-anchor="start" x="8" y="-29" font-family="Malgun Gothic" font-size="10.00">Source/LatteLibrary</text>
<text text-anchor="start" x="8" y="-18" font-family="Malgun Gothic" font-size="10.00">/Character/Private/APlayer</text>
<text text-anchor="middle" x="72.5" y="-7" font-family="Malgun Gothic" font-size="10.00">Actor.cpp</text>
</a>
</g>
</g>
<!-- Node3&#45;&gt;Node5 -->
<g id="edge4_Node000003_Node000005" class="edge">
<title>Node3&#45;&gt;Node5</title>
<g id="a_edge4_Node000003_Node000005"><a xlink:title=" ">
<path fill="none" stroke="#63b8ff" d="M192.66,-73C168.69,-62.72 140.91,-50.82 118.1,-41.04"/>
<polygon fill="#63b8ff" stroke="#63b8ff" points="191.41,-76.27 201.98,-76.99 194.16,-69.83 191.41,-76.27"/>
</a>
</g>
</g>
<!-- Node6&#45;&gt;Node2 -->
<g id="edge9_Node000006_Node000002" class="edge">
<title>Node6&#45;&gt;Node2</title>
<g id="a_edge9_Node000006_Node000002"><a xlink:title=" ">
<path fill="none" stroke="#63b8ff" d="M573.21,-80.9C507.01,-70.33 418.44,-55.66 340.5,-41 337.58,-40.45 334.61,-39.88 331.62,-39.3"/>
<polygon fill="#63b8ff" stroke="#63b8ff" points="572.79,-84.38 583.22,-82.49 573.9,-77.46 572.79,-84.38"/>
</a>
</g>
</g>
<!-- Node6&#45;&gt;Node4 -->
<g id="edge7_Node000006_Node000004" class="edge">
<title>Node6&#45;&gt;Node4</title>
<g id="a_edge7_Node000006_Node000004"><a xlink:title=" ">
<path fill="none" stroke="#63b8ff" d="M623.06,-79.22C584.4,-65.99 531.72,-47.95 495.61,-35.58"/>
<polygon fill="#63b8ff" stroke="#63b8ff" points="621.97,-82.55 632.56,-82.48 624.24,-75.93 621.97,-82.55"/>
</a>
</g>
</g>
<!-- Node7 -->
<g id="Node000007" class="node">
<title>Node7</title>
<g id="a_Node000007"><a xlink:href="UHitStopSystem_8cpp.html" target="_top" xlink:title="UHitStopSystem 구현에 대한 Doxygen 주석을 제공합니다.">
<polygon fill="white" stroke="#666666" points="1316,-41 1165,-41 1165,0 1316,0 1316,-41"/>
<text text-anchor="start" x="1173" y="-29" font-family="Malgun Gothic" font-size="10.00">Source/LatteLibrary</text>
<text text-anchor="start" x="1173" y="-18" font-family="Malgun Gothic" font-size="10.00">/Character/Private/UHitStop</text>
<text text-anchor="middle" x="1240.5" y="-7" font-family="Malgun Gothic" font-size="10.00">System.cpp</text>
</a>
</g>
</g>
<!-- Node6&#45;&gt;Node7 -->
<g id="edge8_Node000006_Node000007" class="edge">
<title>Node6&#45;&gt;Node7</title>
<g id="a_edge8_Node000006_Node000007"><a xlink:title=" ">
<path fill="none" stroke="#63b8ff" d="M788.35,-87.01C886.54,-78.01 1031.39,-62.64 1156.5,-41 1159.16,-40.54 1161.85,-40.05 1164.57,-39.53"/>
<polygon fill="#63b8ff" stroke="#63b8ff" points="787.74,-83.55 778.1,-87.94 788.38,-90.52 787.74,-83.55"/>
</a>
</g>
</g>
<!-- Node8 -->
<g id="Node000008" class="node">
<title>Node8</title>
<g id="a_Node000008"><a xlink:href="UStatSystem_8cpp.html" target="_top" xlink:title="UStatSystem 구현에 대한 Doxygen 주석을 제공합니다.">
<polygon fill="white" stroke="#666666" points="769,-35.5 578,-35.5 578,-5.5 769,-5.5 769,-35.5"/>
<text text-anchor="start" x="586" y="-23.5" font-family="Malgun Gothic" font-size="10.00">Source/LatteLibrary</text>
<text text-anchor="middle" x="673.5" y="-12.5" font-family="Malgun Gothic" font-size="10.00">/Character/Private/UStatSystem.cpp</text>
</a>
</g>
</g>
<!-- Node6&#45;&gt;Node8 -->
<g id="edge10_Node000006_Node000008" class="edge">
<title>Node6&#45;&gt;Node8</title>
<g id="a_edge10_Node000006_Node000008"><a xlink:title=" ">
<path fill="none" stroke="#63b8ff" d="M673.5,-72.04C673.5,-59.95 673.5,-45.79 673.5,-35.54"/>
<polygon fill="#63b8ff" stroke="#63b8ff" points="670,-72.39 673.5,-82.39 677,-72.39 670,-72.39"/>
</a>
</g>
</g>
<!-- Node9 -->
<g id="Node000009" class="node">
<title>Node9</title>
<g id="a_Node000009"><a xlink:href="UGameDataManager_8cpp.html" target="_top" xlink:title="UGameDataManager 구현에 대한 Doxygen 주석을 제공합니다.">
<polygon fill="white" stroke="#666666" points="950,-41 787,-41 787,0 950,0 950,-41"/>
<text text-anchor="start" x="795" y="-29" font-family="Malgun Gothic" font-size="10.00">Source/LatteLibrary</text>
<text text-anchor="start" x="795" y="-18" font-family="Malgun Gothic" font-size="10.00">/Manager/Private/UGameData</text>
<text text-anchor="middle" x="868.5" y="-7" font-family="Malgun Gothic" font-size="10.00">Manager.cpp</text>
</a>
</g>
</g>
<!-- Node6&#45;&gt;Node9 -->
<g id="edge11_Node000006_Node000009" class="edge">
<title>Node6&#45;&gt;Node9</title>
<g id="a_edge11_Node000006_Node000009"><a xlink:title=" ">
<path fill="none" stroke="#63b8ff" d="M719.8,-78.69C749.24,-67.37 787.36,-52.71 817.64,-41.06"/>
<polygon fill="#63b8ff" stroke="#63b8ff" points="718.26,-75.54 710.18,-82.39 720.77,-82.07 718.26,-75.54"/>
</a>
</g>
</g>
<!-- Node10 -->
<g id="Node000010" class="node">
<title>Node10</title>
<g id="a_Node000010"><a xlink:href="ANetworkTesterActor_8cpp.html" target="_top" xlink:title="ANetworkTesterActor 구현에 대한 Doxygen 주석을 제공합니다.">
<polygon fill="white" stroke="#666666" points="1147,-41 968,-41 968,0 1147,0 1147,-41"/>
<text text-anchor="start" x="976" y="-29" font-family="Malgun Gothic" font-size="10.00">Source/LatteLibrary</text>
<text text-anchor="start" x="976" y="-18" font-family="Malgun Gothic" font-size="10.00">/Network/Private/ANetworkTester</text>
<text text-anchor="middle" x="1057.5" y="-7" font-family="Malgun Gothic" font-size="10.00">Actor.cpp</text>
</a>
</g>
</g>
<!-- Node6&#45;&gt;Node10 -->
<g id="edge12_Node000006_Node000010" class="edge">
<title>Node6&#45;&gt;Node10</title>
<g id="a_edge12_Node000006_Node000010"><a xlink:title=" ">
<path fill="none" stroke="#63b8ff" d="M756.46,-80.51C813.56,-69.48 891.14,-54.43 959.5,-41 962.22,-40.46 964.99,-39.92 967.78,-39.37"/>
<polygon fill="#63b8ff" stroke="#63b8ff" points="755.55,-77.12 746.4,-82.45 756.88,-83.99 755.55,-77.12"/>
</a>
</g>
</g>
</g>
</svg>

<g id="navigator" transform="translate(0 0)" fill="#404254">
  <rect fill="#f2f5e9" fill-opacity="0.5" stroke="#606060" stroke-width=".5" x="0" y="0" width="60" height="60"/>
  <use id="zoomplus" xlink:href="#zoomPlus" x="17" y="9" onmousedown="handleZoom(evt,'in')"/>
  <use id="zoomminus" xlink:href="#zoomMin" x="42" y="9" onmousedown="handleZoom(evt,'out')"/>
  <use id="reset" xlink:href="#resetDef" x="30" y="36" onmousedown="handleReset()"/>
   <use id="arrowup" xlink:href="#arrowUp" x="0" y="0" onmousedown="handlePan(0,-1)"/>
  <use id="arrowright" xlink:href="#arrowRight" x="0" y="0" onmousedown="handlePan(1,0)"/>
  <use id="arrowdown" xlink:href="#arrowDown" x="0" y="0" onmousedown="handlePan(0,1)"/>
  <use id="arrowleft" xlink:href="#arrowLeft" x="0" y="0" onmousedown="handlePan(-1,0)"/>
</g>
<svg viewBox="0 0 15 15" width="100%" height="30px" preserveAspectRatio="xMaxYMin meet">
 <g id="arrow_out" transform="scale(0.3 0.3)">
  <a xlink:href="FKnockbackData_8h__dep__incl_org.svg" target="_base">
   <rect id="button" ry="5" rx="5" y="6" x="6" height="38" width="38"
        fill="#f2f5e9" fill-opacity="0.5" stroke="#606060" stroke-width="1.0"/>
   <path id="arrow"
     d="M 11.500037,31.436501 C 11.940474,20.09759 22.043105,11.32322 32.158766,21.979434 L 37.068811,17.246167 C 37.068811,17.246167 37.088388,32 37.088388,32 L 22.160133,31.978069 C 22.160133,31.978069 26.997745,27.140456 26.997745,27.140456 C 18.528582,18.264221 13.291696,25.230495 11.500037,31.436501 z"
     style="fill:#404040;"/>
  </a>
 </g>
</svg>

<style type='text/css'>
<![CDATA[
[data-mouse-over-selected='false'] { opacity: 0.7; }
[data-mouse-over-selected='true']  { opacity: 1.0; }
]]>
</style>
<script type="application/ecmascript"><![CDATA[
document.addEventListener('DOMContentLoaded', (event) => {
  highlightEdges();
  highlightAdjacentNodes();
});
]]></script>
</svg>
