<?xml version="1.0" encoding="UTF-8" standalone="no"?>
<!DOCTYPE svg PUBLIC "-//W3C//DTD SVG 1.1//EN"
 "http://www.w3.org/Graphics/SVG/1.1/DTD/svg11.dtd">
<!-- Generated by graphviz version 2.43.0 (0)
 -->
<!-- Title: Source/CoffeeLibrary/Shared/Public/FLogWriter.h Pages: 1 -->
<svg width="1982pt" height="181pt"
 viewBox="0.00 0.00 1981.50 181.00" xmlns="http://www.w3.org/2000/svg" xmlns:xlink="http://www.w3.org/1999/xlink">
<g id="graph0" class="graph" transform="scale(1 1) rotate(0) translate(4 177)">
<title>Source/CoffeeLibrary/Shared/Public/FLogWriter.h</title>
<!-- Node1 -->
<g id="Node000001" class="node">
<title>Node1</title>
<g id="a_Node000001"><a xlink:title="FLogWriter 선언에 대한 Doxygen 주석을 제공합니다.">
<polygon fill="#999999" stroke="#666666" points="1011,-173 861,-173 861,-143 1011,-143 1011,-173"/>
<text text-anchor="start" x="869" y="-161" font-family="Malgun Gothic" font-size="10.00">Source/CoffeeLibrary</text>
<text text-anchor="middle" x="936" y="-150" font-family="Malgun Gothic" font-size="10.00">/Shared/Public/FLogWriter.h</text>
</a>
</g>
</g>
<!-- Node2 -->
<g id="Node000002" class="node">
<title>Node2</title>
<g id="a_Node000002"><a xlink:href="FLogWriter_8cpp.html" target="_top" xlink:title="FLogWriter 구현에 대한 Doxygen 주석을 제공합니다.">
<polygon fill="white" stroke="#666666" points="927.5,-107 760.5,-107 760.5,-77 927.5,-77 927.5,-107"/>
<text text-anchor="start" x="768.5" y="-95" font-family="Malgun Gothic" font-size="10.00">Source/CoffeeLibrary</text>
<text text-anchor="middle" x="844" y="-84" font-family="Malgun Gothic" font-size="10.00">/Shared/Private/FLogWriter.cpp</text>
</a>
</g>
</g>
<!-- Node1&#45;&gt;Node2 -->
<g id="edge1_Node000001_Node000002" class="edge">
<title>Node1&#45;&gt;Node2</title>
<g id="a_edge1_Node000001_Node000002"><a xlink:title=" ">
<path fill="none" stroke="#63b8ff" d="M907.29,-137.03C893.37,-127.34 876.97,-115.94 864.36,-107.16"/>
<polygon fill="#63b8ff" stroke="#63b8ff" points="905.37,-139.96 915.58,-142.8 909.37,-134.21 905.37,-139.96"/>
</a>
</g>
</g>
<!-- Node3 -->
<g id="Node000003" class="node">
<title>Node3</title>
<g id="a_Node000003"><a xlink:href="GameLogging_8h.html" target="_top" xlink:title="GameLogging 선언에 대한 Doxygen 주석을 제공합니다.">
<polygon fill="white" stroke="#666666" points="1110.5,-107 945.5,-107 945.5,-77 1110.5,-77 1110.5,-107"/>
<text text-anchor="start" x="953.5" y="-95" font-family="Malgun Gothic" font-size="10.00">Source/CoffeeLibrary</text>
<text text-anchor="middle" x="1028" y="-84" font-family="Malgun Gothic" font-size="10.00">/Shared/Public/GameLogging.h</text>
</a>
</g>
</g>
<!-- Node1&#45;&gt;Node3 -->
<g id="edge2_Node000001_Node000003" class="edge">
<title>Node1&#45;&gt;Node3</title>
<g id="a_edge2_Node000001_Node000003"><a xlink:title=" ">
<path fill="none" stroke="#63b8ff" d="M964.71,-137.03C978.63,-127.34 995.03,-115.94 1007.64,-107.16"/>
<polygon fill="#63b8ff" stroke="#63b8ff" points="962.63,-134.21 956.42,-142.8 966.63,-139.96 962.63,-134.21"/>
</a>
</g>
</g>
<!-- Node4 -->
<g id="Node000004" class="node">
<title>Node4</title>
<g id="a_Node000004"><a xlink:href="GameLogging_8cpp.html" target="_top" xlink:title="GameLogging 구현에 대한 Doxygen 주석을 제공합니다.">
<polygon fill="white" stroke="#666666" points="182,-35.5 0,-35.5 0,-5.5 182,-5.5 182,-35.5"/>
<text text-anchor="start" x="8" y="-23.5" font-family="Malgun Gothic" font-size="10.00">Source/CoffeeLibrary</text>
<text text-anchor="middle" x="91" y="-12.5" font-family="Malgun Gothic" font-size="10.00">/Shared/Private/GameLogging.cpp</text>
</a>
</g>
</g>
<!-- Node3&#45;&gt;Node4 -->
<g id="edge3_Node000003_Node000004" class="edge">
<title>Node3&#45;&gt;Node4</title>
<g id="a_edge3_Node000003_Node000004"><a xlink:title=" ">
<path fill="none" stroke="#63b8ff" d="M934.95,-76.98C604.36,-44.77 516.72,-80.42 191,-41 179.5,-39.61 167.34,-37.65 155.6,-35.51"/>
<polygon fill="#63b8ff" stroke="#63b8ff" points="935,-80.5 945.3,-78.01 935.69,-73.54 935,-80.5"/>
</a>
</g>
</g>
<!-- Node5 -->
<g id="Node000005" class="node">
<title>Node5</title>
<g id="a_Node000005"><a xlink:href="AGameCharacter_8cpp.html" target="_top" xlink:title="AGameCharacter 구현에 대한 Doxygen 주석을 제공합니다.">
<polygon fill="white" stroke="#666666" points="410,-35.5 200,-35.5 200,-5.5 410,-5.5 410,-35.5"/>
<text text-anchor="start" x="208" y="-23.5" font-family="Malgun Gothic" font-size="10.00">Source/LatteLibrary</text>
<text text-anchor="middle" x="305" y="-12.5" font-family="Malgun Gothic" font-size="10.00">/Character/Private/AGameCharacter.cpp</text>
</a>
</g>
</g>
<!-- Node3&#45;&gt;Node5 -->
<g id="edge4_Node000003_Node000005" class="edge">
<title>Node3&#45;&gt;Node5</title>
<g id="a_edge4_Node000003_Node000005"><a xlink:title=" ">
<path fill="none" stroke="#63b8ff" d="M935.28,-76.99C705.35,-52.12 644.45,-68.06 419,-41 406.54,-39.5 393.37,-37.58 380.58,-35.52"/>
<polygon fill="#63b8ff" stroke="#63b8ff" points="934.97,-80.48 945.29,-78.09 935.73,-73.52 934.97,-80.48"/>
</a>
</g>
</g>
<!-- Node6 -->
<g id="Node000006" class="node">
<title>Node6</title>
<g id="a_Node000006"><a xlink:href="UVoiceCaptureComponent_8cpp.html" target="_top" xlink:title=" ">
<polygon fill="white" stroke="#666666" points="607.5,-41 428.5,-41 428.5,0 607.5,0 607.5,-41"/>
<text text-anchor="start" x="436.5" y="-29" font-family="Malgun Gothic" font-size="10.00">Source/LatteLibrary</text>
<text text-anchor="start" x="436.5" y="-18" font-family="Malgun Gothic" font-size="10.00">/Character/Private/UVoiceCapture</text>
<text text-anchor="middle" x="518" y="-7" font-family="Malgun Gothic" font-size="10.00">Component.cpp</text>
</a>
</g>
</g>
<!-- Node3&#45;&gt;Node6 -->
<g id="edge5_Node000003_Node000006" class="edge">
<title>Node3&#45;&gt;Node6</title>
<g id="a_edge5_Node000003_Node000006"><a xlink:title=" ">
<path fill="none" stroke="#63b8ff" d="M935.28,-76.95C792.86,-58.45 754.83,-62.32 617,-41 613.88,-40.52 610.72,-40.01 607.52,-39.47"/>
<polygon fill="#63b8ff" stroke="#63b8ff" points="934.9,-80.43 945.27,-78.26 935.81,-73.48 934.9,-80.43"/>
</a>
</g>
</g>
<!-- Node7 -->
<g id="Node000007" class="node">
<title>Node7</title>
<g id="a_Node000007"><a xlink:href="UVoiceSystem_8cpp.html" target="_top" xlink:title="Implementation of UVoiceSystem.">
<polygon fill="white" stroke="#666666" points="824,-35.5 626,-35.5 626,-5.5 824,-5.5 824,-35.5"/>
<text text-anchor="start" x="634" y="-23.5" font-family="Malgun Gothic" font-size="10.00">Source/LatteLibrary</text>
<text text-anchor="middle" x="725" y="-12.5" font-family="Malgun Gothic" font-size="10.00">/Character/Private/UVoiceSystem.cpp</text>
</a>
</g>
</g>
<!-- Node3&#45;&gt;Node7 -->
<g id="edge6_Node000003_Node000007" class="edge">
<title>Node3&#45;&gt;Node7</title>
<g id="a_edge6_Node000003_Node000007"><a xlink:title=" ">
<path fill="none" stroke="#63b8ff" d="M956.89,-74.69C905.07,-62.8 835.59,-46.87 786.23,-35.54"/>
<polygon fill="#63b8ff" stroke="#63b8ff" points="956.15,-78.11 966.68,-76.94 957.72,-71.29 956.15,-78.11"/>
</a>
</g>
</g>
<!-- Node8 -->
<g id="Node000008" class="node">
<title>Node8</title>
<g id="a_Node000008"><a xlink:href="UCharacterData_8cpp.html" target="_top" xlink:title="UCharacterData 구현에 대한 Doxygen 주석을 제공합니다.">
<polygon fill="white" stroke="#666666" points="1024,-35.5 842,-35.5 842,-5.5 1024,-5.5 1024,-35.5"/>
<text text-anchor="start" x="850" y="-23.5" font-family="Malgun Gothic" font-size="10.00">Source/LatteLibrary</text>
<text text-anchor="middle" x="933" y="-12.5" font-family="Malgun Gothic" font-size="10.00">/Data/Private/UCharacterData.cpp</text>
</a>
</g>
</g>
<!-- Node3&#45;&gt;Node8 -->
<g id="edge7_Node000003_Node000008" class="edge">
<title>Node3&#45;&gt;Node8</title>
<g id="a_edge7_Node000003_Node000008"><a xlink:title=" ">
<path fill="none" stroke="#63b8ff" d="M1000.58,-70.94C985.09,-59.6 966.1,-45.71 952.2,-35.54"/>
<polygon fill="#63b8ff" stroke="#63b8ff" points="998.64,-73.86 1008.78,-76.94 1002.77,-68.21 998.64,-73.86"/>
</a>
</g>
</g>
<!-- Node9 -->
<g id="Node000009" class="node">
<title>Node9</title>
<g id="a_Node000009"><a xlink:href="UGameDataManager_8cpp.html" target="_top" xlink:title="UGameDataManager 구현에 대한 Doxygen 주석을 제공합니다.">
<polygon fill="white" stroke="#666666" points="1205.5,-41 1042.5,-41 1042.5,0 1205.5,0 1205.5,-41"/>
<text text-anchor="start" x="1050.5" y="-29" font-family="Malgun Gothic" font-size="10.00">Source/LatteLibrary</text>
<text text-anchor="start" x="1050.5" y="-18" font-family="Malgun Gothic" font-size="10.00">/Manager/Private/UGameData</text>
<text text-anchor="middle" x="1124" y="-7" font-family="Malgun Gothic" font-size="10.00">Manager.cpp</text>
</a>
</g>
</g>
<!-- Node3&#45;&gt;Node9 -->
<g id="edge8_Node000003_Node000009" class="edge">
<title>Node3&#45;&gt;Node9</title>
<g id="a_edge8_Node000003_Node000009"><a xlink:title=" ">
<path fill="none" stroke="#63b8ff" d="M1055.56,-71.04C1068.57,-61.63 1084.03,-50.44 1096.96,-41.07"/>
<polygon fill="#63b8ff" stroke="#63b8ff" points="1053.47,-68.24 1047.43,-76.94 1057.58,-73.91 1053.47,-68.24"/>
</a>
</g>
</g>
<!-- Node10 -->
<g id="Node000010" class="node">
<title>Node10</title>
<g id="a_Node000010"><a xlink:href="UGameVFXManager_8cpp.html" target="_top" xlink:title="UGameVFXManager 구현에 대한 Doxygen 주석을 제공합니다.">
<polygon fill="white" stroke="#666666" points="1444.5,-35.5 1223.5,-35.5 1223.5,-5.5 1444.5,-5.5 1444.5,-35.5"/>
<text text-anchor="start" x="1231.5" y="-23.5" font-family="Malgun Gothic" font-size="10.00">Source/LatteLibrary</text>
<text text-anchor="middle" x="1334" y="-12.5" font-family="Malgun Gothic" font-size="10.00">/Manager/Private/UGameVFXManager.cpp</text>
</a>
</g>
</g>
<!-- Node3&#45;&gt;Node10 -->
<g id="edge9_Node000003_Node000010" class="edge">
<title>Node3&#45;&gt;Node10</title>
<g id="a_edge9_Node000003_Node000010"><a xlink:title=" ">
<path fill="none" stroke="#63b8ff" d="M1099.81,-74.69C1152.14,-62.8 1222.32,-46.87 1272.17,-35.54"/>
<polygon fill="#63b8ff" stroke="#63b8ff" points="1098.9,-71.31 1089.92,-76.94 1100.45,-78.13 1098.9,-71.31"/>
</a>
</g>
</g>
<!-- Node11 -->
<g id="Node000011" class="node">
<title>Node11</title>
<g id="a_Node000011"><a xlink:href="UYiSanVoiceConsoleSubsystem_8cpp.html" target="_top" xlink:title=" ">
<polygon fill="white" stroke="#666666" points="1627,-41 1463,-41 1463,0 1627,0 1627,-41"/>
<text text-anchor="start" x="1471" y="-29" font-family="Malgun Gothic" font-size="10.00">Source/LatteLibrary</text>
<text text-anchor="start" x="1471" y="-18" font-family="Malgun Gothic" font-size="10.00">/Manager/Private/UYiSanVoice</text>
<text text-anchor="middle" x="1545" y="-7" font-family="Malgun Gothic" font-size="10.00">ConsoleSubsystem.cpp</text>
</a>
</g>
</g>
<!-- Node3&#45;&gt;Node11 -->
<g id="edge10_Node000003_Node000011" class="edge">
<title>Node3&#45;&gt;Node11</title>
<g id="a_edge10_Node000003_Node000011"><a xlink:title=" ">
<path fill="none" stroke="#63b8ff" d="M1120.85,-82.65C1207.38,-74.26 1339.87,-59.88 1454,-41 1456.87,-40.53 1459.78,-40.02 1462.73,-39.49"/>
<polygon fill="#63b8ff" stroke="#63b8ff" points="1120.41,-79.17 1110.79,-83.62 1121.08,-86.14 1120.41,-79.17"/>
</a>
</g>
</g>
<!-- Node12 -->
<g id="Node000012" class="node">
<title>Node12</title>
<g id="a_Node000012"><a xlink:href="ANetworkTesterActor_8cpp.html" target="_top" xlink:title="ANetworkTesterActor 구현에 대한 Doxygen 주석을 제공합니다.">
<polygon fill="white" stroke="#666666" points="1824.5,-41 1645.5,-41 1645.5,0 1824.5,0 1824.5,-41"/>
<text text-anchor="start" x="1653.5" y="-29" font-family="Malgun Gothic" font-size="10.00">Source/LatteLibrary</text>
<text text-anchor="start" x="1653.5" y="-18" font-family="Malgun Gothic" font-size="10.00">/Network/Private/ANetworkTester</text>
<text text-anchor="middle" x="1735" y="-7" font-family="Malgun Gothic" font-size="10.00">Actor.cpp</text>
</a>
</g>
</g>
<!-- Node3&#45;&gt;Node12 -->
<g id="edge11_Node000003_Node000012" class="edge">
<title>Node3&#45;&gt;Node12</title>
<g id="a_edge11_Node000003_Node000012"><a xlink:title=" ">
<path fill="none" stroke="#63b8ff" d="M1121.15,-86.6C1240.76,-80.2 1454.56,-66.25 1636,-41 1639.12,-40.57 1642.3,-40.1 1645.5,-39.6"/>
<polygon fill="#63b8ff" stroke="#63b8ff" points="1120.73,-83.12 1110.93,-87.14 1121.1,-90.11 1120.73,-83.12"/>
</a>
</g>
</g>
<!-- Node13 -->
<g id="Node000013" class="node">
<title>Node13</title>
<g id="a_Node000013"><a xlink:href="UMainWdget_8cpp.html" target="_top" xlink:title=" ">
<polygon fill="white" stroke="#666666" points="1973.5,-35.5 1842.5,-35.5 1842.5,-5.5 1973.5,-5.5 1973.5,-35.5"/>
<text text-anchor="start" x="1850.5" y="-23.5" font-family="Malgun Gothic" font-size="10.00">Source/YiSan/UI/Private</text>
<text text-anchor="middle" x="1908" y="-12.5" font-family="Malgun Gothic" font-size="10.00">/UMainWdget.cpp</text>
</a>
</g>
</g>
<!-- Node3&#45;&gt;Node13 -->
<g id="edge12_Node000003_Node000013" class="edge">
<title>Node3&#45;&gt;Node13</title>
<g id="a_edge12_Node000003_Node000013"><a xlink:title=" ">
<path fill="none" stroke="#63b8ff" d="M1120.81,-91.12C1271.45,-89.99 1578.11,-82.25 1834,-41 1842.53,-39.63 1851.49,-37.69 1860.13,-35.57"/>
<polygon fill="#63b8ff" stroke="#63b8ff" points="1120.66,-87.62 1110.68,-91.18 1120.7,-94.62 1120.66,-87.62"/>
</a>
</g>
</g>
</g>
</svg>
