<?xml version="1.0" encoding="UTF-8" standalone="no"?>
<!DOCTYPE svg PUBLIC "-//W3C//DTD SVG 1.1//EN"
 "http://www.w3.org/Graphics/SVG/1.1/DTD/svg11.dtd">
<!-- Generated by graphviz version 2.43.0 (0)
 -->
<!-- Title: Source/CoffeeLibrary/Shared/Public/FLogWriter.h Pages: 1 -->
<svg width="1746pt" height="181pt"
 viewBox="0.00 0.00 1746.00 181.00" xmlns="http://www.w3.org/2000/svg" xmlns:xlink="http://www.w3.org/1999/xlink">
<g id="graph0" class="graph" transform="scale(1 1) rotate(0) translate(4 177)">
<title>Source/CoffeeLibrary/Shared/Public/FLogWriter.h</title>
<!-- Node1 -->
<g id="Node000001" class="node">
<title>Node1</title>
<g id="a_Node000001"><a xlink:title="FLogWriter 선언에 대한 Doxygen 주석을 제공합니다.">
<polygon fill="#999999" stroke="#666666" points="861,-173 711,-173 711,-143 861,-143 861,-173"/>
<text text-anchor="start" x="719" y="-161" font-family="Malgun Gothic" font-size="10.00">Source/CoffeeLibrary</text>
<text text-anchor="middle" x="786" y="-150" font-family="Malgun Gothic" font-size="10.00">/Shared/Public/FLogWriter.h</text>
</a>
</g>
</g>
<!-- Node2 -->
<g id="Node000002" class="node">
<title>Node2</title>
<g id="a_Node000002"><a xlink:href="FLogWriter_8cpp.html" target="_top" xlink:title="FLogWriter 구현에 대한 Doxygen 주석을 제공합니다.">
<polygon fill="white" stroke="#666666" points="777.5,-107 610.5,-107 610.5,-77 777.5,-77 777.5,-107"/>
<text text-anchor="start" x="618.5" y="-95" font-family="Malgun Gothic" font-size="10.00">Source/CoffeeLibrary</text>
<text text-anchor="middle" x="694" y="-84" font-family="Malgun Gothic" font-size="10.00">/Shared/Private/FLogWriter.cpp</text>
</a>
</g>
</g>
<!-- Node1&#45;&gt;Node2 -->
<g id="edge1_Node000001_Node000002" class="edge">
<title>Node1&#45;&gt;Node2</title>
<g id="a_edge1_Node000001_Node000002"><a xlink:title=" ">
<path fill="none" stroke="#63b8ff" d="M757.29,-137.03C743.37,-127.34 726.97,-115.94 714.36,-107.16"/>
<polygon fill="#63b8ff" stroke="#63b8ff" points="755.37,-139.96 765.58,-142.8 759.37,-134.21 755.37,-139.96"/>
</a>
</g>
</g>
<!-- Node3 -->
<g id="Node000003" class="node">
<title>Node3</title>
<g id="a_Node000003"><a xlink:href="GameLogging_8h.html" target="_top" xlink:title="GameLogging 선언에 대한 Doxygen 주석을 제공합니다.">
<polygon fill="white" stroke="#666666" points="960.5,-107 795.5,-107 795.5,-77 960.5,-77 960.5,-107"/>
<text text-anchor="start" x="803.5" y="-95" font-family="Malgun Gothic" font-size="10.00">Source/CoffeeLibrary</text>
<text text-anchor="middle" x="878" y="-84" font-family="Malgun Gothic" font-size="10.00">/Shared/Public/GameLogging.h</text>
</a>
</g>
</g>
<!-- Node1&#45;&gt;Node3 -->
<g id="edge2_Node000001_Node000003" class="edge">
<title>Node1&#45;&gt;Node3</title>
<g id="a_edge2_Node000001_Node000003"><a xlink:title=" ">
<path fill="none" stroke="#63b8ff" d="M814.71,-137.03C828.63,-127.34 845.03,-115.94 857.64,-107.16"/>
<polygon fill="#63b8ff" stroke="#63b8ff" points="812.63,-134.21 806.42,-142.8 816.63,-139.96 812.63,-134.21"/>
</a>
</g>
</g>
<!-- Node4 -->
<g id="Node000004" class="node">
<title>Node4</title>
<g id="a_Node000004"><a xlink:href="GameLogging_8cpp.html" target="_top" xlink:title="GameLogging 구현에 대한 Doxygen 주석을 제공합니다.">
<polygon fill="white" stroke="#666666" points="182,-35.5 0,-35.5 0,-5.5 182,-5.5 182,-35.5"/>
<text text-anchor="start" x="8" y="-23.5" font-family="Malgun Gothic" font-size="10.00">Source/CoffeeLibrary</text>
<text text-anchor="middle" x="91" y="-12.5" font-family="Malgun Gothic" font-size="10.00">/Shared/Private/GameLogging.cpp</text>
</a>
</g>
</g>
<!-- Node3&#45;&gt;Node4 -->
<g id="edge3_Node000003_Node000004" class="edge">
<title>Node3&#45;&gt;Node4</title>
<g id="a_edge3_Node000003_Node000004"><a xlink:title=" ">
<path fill="none" stroke="#63b8ff" d="M785,-76.97C520.77,-49.68 450.47,-74 191,-41 179.77,-39.57 167.91,-37.64 156.42,-35.54"/>
<polygon fill="#63b8ff" stroke="#63b8ff" points="784.98,-80.49 795.29,-78.05 785.71,-73.53 784.98,-80.49"/>
</a>
</g>
</g>
<!-- Node5 -->
<g id="Node000005" class="node">
<title>Node5</title>
<g id="a_Node000005"><a xlink:href="ALatteGameCharacter_8cpp.html" target="_top" xlink:title=" ">
<polygon fill="white" stroke="#666666" points="368,-41 200,-41 200,0 368,0 368,-41"/>
<text text-anchor="start" x="208" y="-29" font-family="Malgun Gothic" font-size="10.00">Source/LatteLibrary</text>
<text text-anchor="start" x="208" y="-18" font-family="Malgun Gothic" font-size="10.00">/Character/Private/ALatteGame</text>
<text text-anchor="middle" x="284" y="-7" font-family="Malgun Gothic" font-size="10.00">Character.cpp</text>
</a>
</g>
</g>
<!-- Node3&#45;&gt;Node5 -->
<g id="edge4_Node000003_Node000005" class="edge">
<title>Node3&#45;&gt;Node5</title>
<g id="a_edge4_Node000003_Node000005"><a xlink:title=" ">
<path fill="none" stroke="#63b8ff" d="M785.1,-76.95C603.07,-55.7 554.25,-67.29 377,-41 374.06,-40.56 371.08,-40.09 368.07,-39.59"/>
<polygon fill="#63b8ff" stroke="#63b8ff" points="784.94,-80.46 795.28,-78.16 785.76,-73.51 784.94,-80.46"/>
</a>
</g>
</g>
<!-- Node6 -->
<g id="Node000006" class="node">
<title>Node6</title>
<g id="a_Node000006"><a xlink:href="UCharacterData_8cpp.html" target="_top" xlink:title="UCharacterData 구현에 대한 Doxygen 주석을 제공합니다.">
<polygon fill="white" stroke="#666666" points="568,-35.5 386,-35.5 386,-5.5 568,-5.5 568,-35.5"/>
<text text-anchor="start" x="394" y="-23.5" font-family="Malgun Gothic" font-size="10.00">Source/LatteLibrary</text>
<text text-anchor="middle" x="477" y="-12.5" font-family="Malgun Gothic" font-size="10.00">/Data/Private/UCharacterData.cpp</text>
</a>
</g>
</g>
<!-- Node3&#45;&gt;Node6 -->
<g id="edge5_Node000003_Node000006" class="edge">
<title>Node3&#45;&gt;Node6</title>
<g id="a_edge5_Node000003_Node000006"><a xlink:title=" ">
<path fill="none" stroke="#63b8ff" d="M785.35,-76.3C725.77,-66.67 646.73,-53.59 577,-41 567.51,-39.29 557.53,-37.42 547.7,-35.54"/>
<polygon fill="#63b8ff" stroke="#63b8ff" points="785.06,-79.8 795.49,-77.93 786.18,-72.88 785.06,-79.8"/>
</a>
</g>
</g>
<!-- Node7 -->
<g id="Node000007" class="node">
<title>Node7</title>
<g id="a_Node000007"><a xlink:href="UGameDataManager_8cpp.html" target="_top" xlink:title="UGameDataManager 구현에 대한 Doxygen 주석을 제공합니다.">
<polygon fill="white" stroke="#666666" points="749.5,-41 586.5,-41 586.5,0 749.5,0 749.5,-41"/>
<text text-anchor="start" x="594.5" y="-29" font-family="Malgun Gothic" font-size="10.00">Source/LatteLibrary</text>
<text text-anchor="start" x="594.5" y="-18" font-family="Malgun Gothic" font-size="10.00">/Manager/Private/UGameData</text>
<text text-anchor="middle" x="668" y="-7" font-family="Malgun Gothic" font-size="10.00">Manager.cpp</text>
</a>
</g>
</g>
<!-- Node3&#45;&gt;Node7 -->
<g id="edge6_Node000003_Node000007" class="edge">
<title>Node3&#45;&gt;Node7</title>
<g id="a_edge6_Node000003_Node000007"><a xlink:title=" ">
<path fill="none" stroke="#63b8ff" d="M825.67,-73.68C795.75,-63.78 758.13,-51.33 727.14,-41.07"/>
<polygon fill="#63b8ff" stroke="#63b8ff" points="824.91,-77.12 835.5,-76.94 827.11,-70.47 824.91,-77.12"/>
</a>
</g>
</g>
<!-- Node8 -->
<g id="Node000008" class="node">
<title>Node8</title>
<g id="a_Node000008"><a xlink:href="UGameVFXManager_8cpp.html" target="_top" xlink:title="UGameVFXManager 구현에 대한 Doxygen 주석을 제공합니다.">
<polygon fill="white" stroke="#666666" points="988.5,-35.5 767.5,-35.5 767.5,-5.5 988.5,-5.5 988.5,-35.5"/>
<text text-anchor="start" x="775.5" y="-23.5" font-family="Malgun Gothic" font-size="10.00">Source/LatteLibrary</text>
<text text-anchor="middle" x="878" y="-12.5" font-family="Malgun Gothic" font-size="10.00">/Manager/Private/UGameVFXManager.cpp</text>
</a>
</g>
</g>
<!-- Node3&#45;&gt;Node8 -->
<g id="edge7_Node000003_Node000008" class="edge">
<title>Node3&#45;&gt;Node8</title>
<g id="a_edge7_Node000003_Node000008"><a xlink:title=" ">
<path fill="none" stroke="#63b8ff" d="M878,-66.75C878,-56.31 878,-44.49 878,-35.54"/>
<polygon fill="#63b8ff" stroke="#63b8ff" points="874.5,-66.94 878,-76.94 881.5,-66.94 874.5,-66.94"/>
</a>
</g>
</g>
<!-- Node9 -->
<g id="Node000009" class="node">
<title>Node9</title>
<g id="a_Node000009"><a xlink:href="ANetworkTesterActor_8cpp.html" target="_top" xlink:title="ANetworkTesterActor 구현에 대한 Doxygen 주석을 제공합니다.">
<polygon fill="white" stroke="#666666" points="1185.5,-35.5 1006.5,-35.5 1006.5,-5.5 1185.5,-5.5 1185.5,-35.5"/>
<text text-anchor="start" x="1014.5" y="-23.5" font-family="Malgun Gothic" font-size="10.00">Source/YiSan/Network</text>
<text text-anchor="middle" x="1096" y="-12.5" font-family="Malgun Gothic" font-size="10.00">/Private/ANetworkTesterActor.cpp</text>
</a>
</g>
</g>
<!-- Node3&#45;&gt;Node9 -->
<g id="edge8_Node000003_Node000009" class="edge">
<title>Node3&#45;&gt;Node9</title>
<g id="a_edge8_Node000003_Node000009"><a xlink:title=" ">
<path fill="none" stroke="#63b8ff" d="M931.74,-73.87C968.72,-62.08 1017.25,-46.61 1051.95,-35.54"/>
<polygon fill="#63b8ff" stroke="#63b8ff" points="930.58,-70.56 922.12,-76.94 932.71,-77.23 930.58,-70.56"/>
</a>
</g>
</g>
<!-- Node10 -->
<g id="Node000010" class="node">
<title>Node10</title>
<g id="a_Node000010"><a xlink:href="UDialogWidget_8cpp.html" target="_top" xlink:title=" ">
<polygon fill="white" stroke="#666666" points="1334.5,-35.5 1203.5,-35.5 1203.5,-5.5 1334.5,-5.5 1334.5,-35.5"/>
<text text-anchor="start" x="1211.5" y="-23.5" font-family="Malgun Gothic" font-size="10.00">Source/YiSan/UI/Private</text>
<text text-anchor="middle" x="1269" y="-12.5" font-family="Malgun Gothic" font-size="10.00">/UDialogWidget.cpp</text>
</a>
</g>
</g>
<!-- Node3&#45;&gt;Node10 -->
<g id="edge9_Node000003_Node000010" class="edge">
<title>Node3&#45;&gt;Node10</title>
<g id="a_edge9_Node000003_Node000010"><a xlink:title=" ">
<path fill="none" stroke="#63b8ff" d="M970.51,-78.93C1033.97,-70.03 1119.95,-56.76 1195,-41 1202.67,-39.39 1210.74,-37.48 1218.61,-35.51"/>
<polygon fill="#63b8ff" stroke="#63b8ff" points="969.94,-75.47 960.52,-80.32 970.91,-82.41 969.94,-75.47"/>
</a>
</g>
</g>
<!-- Node11 -->
<g id="Node000011" class="node">
<title>Node11</title>
<g id="a_Node000011"><a xlink:href="UVoiceFunctionLibrary_8cpp.html" target="_top" xlink:title=" ">
<polygon fill="white" stroke="#666666" points="1537.5,-35.5 1352.5,-35.5 1352.5,-5.5 1537.5,-5.5 1537.5,-35.5"/>
<text text-anchor="start" x="1360.5" y="-23.5" font-family="Malgun Gothic" font-size="10.00">Source/YiSan/Voice</text>
<text text-anchor="middle" x="1445" y="-12.5" font-family="Malgun Gothic" font-size="10.00">/Private/UVoiceFunctionLibrary.cpp</text>
</a>
</g>
</g>
<!-- Node3&#45;&gt;Node11 -->
<g id="edge10_Node000003_Node000011" class="edge">
<title>Node3&#45;&gt;Node11</title>
<g id="a_edge10_Node000003_Node000011"><a xlink:title=" ">
<path fill="none" stroke="#63b8ff" d="M970.84,-83.35C1065.1,-75.04 1215.12,-60.32 1344,-41 1354.51,-39.42 1365.59,-37.53 1376.41,-35.55"/>
<polygon fill="#63b8ff" stroke="#63b8ff" points="970.42,-79.87 960.76,-84.23 971.03,-86.84 970.42,-79.87"/>
</a>
</g>
</g>
<!-- Node12 -->
<g id="Node000012" class="node">
<title>Node12</title>
<g id="a_Node000012"><a xlink:href="UVoiceRecordSystem_8cpp.html" target="_top" xlink:title=" ">
<polygon fill="white" stroke="#666666" points="1738,-35.5 1556,-35.5 1556,-5.5 1738,-5.5 1738,-35.5"/>
<text text-anchor="start" x="1564" y="-23.5" font-family="Malgun Gothic" font-size="10.00">Source/YiSan/Voice</text>
<text text-anchor="middle" x="1647" y="-12.5" font-family="Malgun Gothic" font-size="10.00">/Private/UVoiceRecordSystem.cpp</text>
</a>
</g>
</g>
<!-- Node3&#45;&gt;Node12 -->
<g id="edge11_Node000003_Node000012" class="edge">
<title>Node3&#45;&gt;Node12</title>
<g id="a_edge11_Node000003_Node000012"><a xlink:title=" ">
<path fill="none" stroke="#63b8ff" d="M970.99,-87.52C1100.54,-81.88 1342.45,-68.49 1547,-41 1558.04,-39.52 1569.71,-37.58 1581.02,-35.51"/>
<polygon fill="#63b8ff" stroke="#63b8ff" points="970.56,-84.03 960.72,-87.96 970.86,-91.03 970.56,-84.03"/>
</a>
</g>
</g>
</g>
</svg>
