<?xml version="1.0" encoding="UTF-8" standalone="no"?>
<!DOCTYPE svg PUBLIC "-//W3C//DTD SVG 1.1//EN"
 "http://www.w3.org/Graphics/SVG/1.1/DTD/svg11.dtd">
<!-- Generated by graphviz version 2.43.0 (0)
 -->
<!-- Title: Source/CoffeeLibrary/Shared/Public/GameLogging.h Pages: 1 -->
<svg width="1746pt" height="115pt"
 viewBox="0.00 0.00 1746.00 115.00" xmlns="http://www.w3.org/2000/svg" xmlns:xlink="http://www.w3.org/1999/xlink">
<g id="graph0" class="graph" transform="scale(1 1) rotate(0) translate(4 111)">
<title>Source/CoffeeLibrary/Shared/Public/GameLogging.h</title>
<!-- Node1 -->
<g id="Node000001" class="node">
<title>Node1</title>
<g id="a_Node000001"><a xlink:title="GameLogging 선언에 대한 Doxygen 주석을 제공합니다.">
<polygon fill="#999999" stroke="#666666" points="960.5,-107 795.5,-107 795.5,-77 960.5,-77 960.5,-107"/>
<text text-anchor="start" x="803.5" y="-95" font-family="Malgun Gothic" font-size="10.00">Source/CoffeeLibrary</text>
<text text-anchor="middle" x="878" y="-84" font-family="Malgun Gothic" font-size="10.00">/Shared/Public/GameLogging.h</text>
</a>
</g>
</g>
<!-- Node2 -->
<g id="Node000002" class="node">
<title>Node2</title>
<g id="a_Node000002"><a xlink:href="GameLogging_8cpp.html" target="_top" xlink:title="GameLogging 구현에 대한 Doxygen 주석을 제공합니다.">
<polygon fill="white" stroke="#666666" points="182,-35.5 0,-35.5 0,-5.5 182,-5.5 182,-35.5"/>
<text text-anchor="start" x="8" y="-23.5" font-family="Malgun Gothic" font-size="10.00">Source/CoffeeLibrary</text>
<text text-anchor="middle" x="91" y="-12.5" font-family="Malgun Gothic" font-size="10.00">/Shared/Private/GameLogging.cpp</text>
</a>
</g>
</g>
<!-- Node1&#45;&gt;Node2 -->
<g id="edge1_Node000001_Node000002" class="edge">
<title>Node1&#45;&gt;Node2</title>
<g id="a_edge1_Node000001_Node000002"><a xlink:title=" ">
<path fill="none" stroke="#63b8ff" d="M785.35,-87.79C653.05,-82.4 402.56,-69.22 191,-41 179.95,-39.53 168.29,-37.6 156.98,-35.53"/>
<polygon fill="#63b8ff" stroke="#63b8ff" points="785.32,-91.29 795.45,-88.19 785.6,-84.29 785.32,-91.29"/>
</a>
</g>
</g>
<!-- Node3 -->
<g id="Node000003" class="node">
<title>Node3</title>
<g id="a_Node000003"><a xlink:href="ALatteGameCharacter_8cpp.html" target="_top" xlink:title=" ">
<polygon fill="white" stroke="#666666" points="368,-41 200,-41 200,0 368,0 368,-41"/>
<text text-anchor="start" x="208" y="-29" font-family="Malgun Gothic" font-size="10.00">Source/LatteLibrary</text>
<text text-anchor="start" x="208" y="-18" font-family="Malgun Gothic" font-size="10.00">/Character/Private/ALatteGame</text>
<text text-anchor="middle" x="284" y="-7" font-family="Malgun Gothic" font-size="10.00">Character.cpp</text>
</a>
</g>
</g>
<!-- Node1&#45;&gt;Node3 -->
<g id="edge2_Node000001_Node000003" class="edge">
<title>Node1&#45;&gt;Node3</title>
<g id="a_edge2_Node000001_Node000003"><a xlink:title=" ">
<path fill="none" stroke="#63b8ff" d="M785.05,-84.72C684.18,-77.21 518.57,-62.84 377,-41 374.07,-40.55 371.08,-40.06 368.08,-39.55"/>
<polygon fill="#63b8ff" stroke="#63b8ff" points="784.98,-88.22 795.21,-85.47 785.49,-81.24 784.98,-88.22"/>
</a>
</g>
</g>
<!-- Node4 -->
<g id="Node000004" class="node">
<title>Node4</title>
<g id="a_Node000004"><a xlink:href="UCharacterData_8cpp.html" target="_top" xlink:title="UCharacterData 구현에 대한 Doxygen 주석을 제공합니다.">
<polygon fill="white" stroke="#666666" points="568,-35.5 386,-35.5 386,-5.5 568,-5.5 568,-35.5"/>
<text text-anchor="start" x="394" y="-23.5" font-family="Malgun Gothic" font-size="10.00">Source/LatteLibrary</text>
<text text-anchor="middle" x="477" y="-12.5" font-family="Malgun Gothic" font-size="10.00">/Data/Private/UCharacterData.cpp</text>
</a>
</g>
</g>
<!-- Node1&#45;&gt;Node4 -->
<g id="edge3_Node000001_Node000004" class="edge">
<title>Node1&#45;&gt;Node4</title>
<g id="a_edge3_Node000001_Node000004"><a xlink:title=" ">
<path fill="none" stroke="#63b8ff" d="M785.35,-76.3C725.77,-66.67 646.73,-53.59 577,-41 567.51,-39.29 557.53,-37.42 547.7,-35.54"/>
<polygon fill="#63b8ff" stroke="#63b8ff" points="785.06,-79.8 795.49,-77.93 786.18,-72.88 785.06,-79.8"/>
</a>
</g>
</g>
<!-- Node5 -->
<g id="Node000005" class="node">
<title>Node5</title>
<g id="a_Node000005"><a xlink:href="UGameDataManager_8cpp.html" target="_top" xlink:title="UGameDataManager 구현에 대한 Doxygen 주석을 제공합니다.">
<polygon fill="white" stroke="#666666" points="749.5,-41 586.5,-41 586.5,0 749.5,0 749.5,-41"/>
<text text-anchor="start" x="594.5" y="-29" font-family="Malgun Gothic" font-size="10.00">Source/LatteLibrary</text>
<text text-anchor="start" x="594.5" y="-18" font-family="Malgun Gothic" font-size="10.00">/Manager/Private/UGameData</text>
<text text-anchor="middle" x="668" y="-7" font-family="Malgun Gothic" font-size="10.00">Manager.cpp</text>
</a>
</g>
</g>
<!-- Node1&#45;&gt;Node5 -->
<g id="edge4_Node000001_Node000005" class="edge">
<title>Node1&#45;&gt;Node5</title>
<g id="a_edge4_Node000001_Node000005"><a xlink:title=" ">
<path fill="none" stroke="#63b8ff" d="M825.67,-73.68C795.75,-63.78 758.13,-51.33 727.14,-41.07"/>
<polygon fill="#63b8ff" stroke="#63b8ff" points="824.91,-77.12 835.5,-76.94 827.11,-70.47 824.91,-77.12"/>
</a>
</g>
</g>
<!-- Node6 -->
<g id="Node000006" class="node">
<title>Node6</title>
<g id="a_Node000006"><a xlink:href="UGameVFXManager_8cpp.html" target="_top" xlink:title="UGameVFXManager 구현에 대한 Doxygen 주석을 제공합니다.">
<polygon fill="white" stroke="#666666" points="988.5,-35.5 767.5,-35.5 767.5,-5.5 988.5,-5.5 988.5,-35.5"/>
<text text-anchor="start" x="775.5" y="-23.5" font-family="Malgun Gothic" font-size="10.00">Source/LatteLibrary</text>
<text text-anchor="middle" x="878" y="-12.5" font-family="Malgun Gothic" font-size="10.00">/Manager/Private/UGameVFXManager.cpp</text>
</a>
</g>
</g>
<!-- Node1&#45;&gt;Node6 -->
<g id="edge5_Node000001_Node000006" class="edge">
<title>Node1&#45;&gt;Node6</title>
<g id="a_edge5_Node000001_Node000006"><a xlink:title=" ">
<path fill="none" stroke="#63b8ff" d="M878,-66.75C878,-56.31 878,-44.49 878,-35.54"/>
<polygon fill="#63b8ff" stroke="#63b8ff" points="874.5,-66.94 878,-76.94 881.5,-66.94 874.5,-66.94"/>
</a>
</g>
</g>
<!-- Node7 -->
<g id="Node000007" class="node">
<title>Node7</title>
<g id="a_Node000007"><a xlink:href="ANetworkTesterActor_8cpp.html" target="_top" xlink:title="ANetworkTesterActor 구현에 대한 Doxygen 주석을 제공합니다.">
<polygon fill="white" stroke="#666666" points="1185.5,-35.5 1006.5,-35.5 1006.5,-5.5 1185.5,-5.5 1185.5,-35.5"/>
<text text-anchor="start" x="1014.5" y="-23.5" font-family="Malgun Gothic" font-size="10.00">Source/YiSan/Network</text>
<text text-anchor="middle" x="1096" y="-12.5" font-family="Malgun Gothic" font-size="10.00">/Private/ANetworkTesterActor.cpp</text>
</a>
</g>
</g>
<!-- Node1&#45;&gt;Node7 -->
<g id="edge6_Node000001_Node000007" class="edge">
<title>Node1&#45;&gt;Node7</title>
<g id="a_edge6_Node000001_Node000007"><a xlink:title=" ">
<path fill="none" stroke="#63b8ff" d="M931.74,-73.87C968.72,-62.08 1017.25,-46.61 1051.95,-35.54"/>
<polygon fill="#63b8ff" stroke="#63b8ff" points="930.58,-70.56 922.12,-76.94 932.71,-77.23 930.58,-70.56"/>
</a>
</g>
</g>
<!-- Node8 -->
<g id="Node000008" class="node">
<title>Node8</title>
<g id="a_Node000008"><a xlink:href="UDialogWidget_8cpp.html" target="_top" xlink:title=" ">
<polygon fill="white" stroke="#666666" points="1334.5,-35.5 1203.5,-35.5 1203.5,-5.5 1334.5,-5.5 1334.5,-35.5"/>
<text text-anchor="start" x="1211.5" y="-23.5" font-family="Malgun Gothic" font-size="10.00">Source/YiSan/UI/Private</text>
<text text-anchor="middle" x="1269" y="-12.5" font-family="Malgun Gothic" font-size="10.00">/UDialogWidget.cpp</text>
</a>
</g>
</g>
<!-- Node1&#45;&gt;Node8 -->
<g id="edge7_Node000001_Node000008" class="edge">
<title>Node1&#45;&gt;Node8</title>
<g id="a_edge7_Node000001_Node000008"><a xlink:title=" ">
<path fill="none" stroke="#63b8ff" d="M970.51,-78.93C1033.97,-70.03 1119.95,-56.76 1195,-41 1202.67,-39.39 1210.74,-37.48 1218.61,-35.51"/>
<polygon fill="#63b8ff" stroke="#63b8ff" points="969.94,-75.47 960.52,-80.32 970.91,-82.41 969.94,-75.47"/>
</a>
</g>
</g>
<!-- Node9 -->
<g id="Node000009" class="node">
<title>Node9</title>
<g id="a_Node000009"><a xlink:href="UVoiceFunctionLibrary_8cpp.html" target="_top" xlink:title=" ">
<polygon fill="white" stroke="#666666" points="1537.5,-35.5 1352.5,-35.5 1352.5,-5.5 1537.5,-5.5 1537.5,-35.5"/>
<text text-anchor="start" x="1360.5" y="-23.5" font-family="Malgun Gothic" font-size="10.00">Source/YiSan/Voice</text>
<text text-anchor="middle" x="1445" y="-12.5" font-family="Malgun Gothic" font-size="10.00">/Private/UVoiceFunctionLibrary.cpp</text>
</a>
</g>
</g>
<!-- Node1&#45;&gt;Node9 -->
<g id="edge8_Node000001_Node000009" class="edge">
<title>Node1&#45;&gt;Node9</title>
<g id="a_edge8_Node000001_Node000009"><a xlink:title=" ">
<path fill="none" stroke="#63b8ff" d="M970.84,-83.35C1065.1,-75.04 1215.12,-60.32 1344,-41 1354.51,-39.42 1365.59,-37.53 1376.41,-35.55"/>
<polygon fill="#63b8ff" stroke="#63b8ff" points="970.42,-79.87 960.76,-84.23 971.03,-86.84 970.42,-79.87"/>
</a>
</g>
</g>
<!-- Node10 -->
<g id="Node000010" class="node">
<title>Node10</title>
<g id="a_Node000010"><a xlink:href="UVoiceRecordSystem_8cpp.html" target="_top" xlink:title=" ">
<polygon fill="white" stroke="#666666" points="1738,-35.5 1556,-35.5 1556,-5.5 1738,-5.5 1738,-35.5"/>
<text text-anchor="start" x="1564" y="-23.5" font-family="Malgun Gothic" font-size="10.00">Source/YiSan/Voice</text>
<text text-anchor="middle" x="1647" y="-12.5" font-family="Malgun Gothic" font-size="10.00">/Private/UVoiceRecordSystem.cpp</text>
</a>
</g>
</g>
<!-- Node1&#45;&gt;Node10 -->
<g id="edge9_Node000001_Node000010" class="edge">
<title>Node1&#45;&gt;Node10</title>
<g id="a_edge9_Node000001_Node000010"><a xlink:title=" ">
<path fill="none" stroke="#63b8ff" d="M970.99,-87.52C1100.54,-81.88 1342.45,-68.49 1547,-41 1558.04,-39.52 1569.71,-37.58 1581.02,-35.51"/>
<polygon fill="#63b8ff" stroke="#63b8ff" points="970.56,-84.03 960.72,-87.96 970.86,-91.03 970.56,-84.03"/>
</a>
</g>
</g>
</g>
</svg>
