<?xml version="1.0" encoding="UTF-8" standalone="no"?>
<!DOCTYPE svg PUBLIC "-//W3C//DTD SVG 1.1//EN"
 "http://www.w3.org/Graphics/SVG/1.1/DTD/svg11.dtd">
<!-- Generated by graphviz version 2.43.0 (0)
 -->
<!-- Title: Source/CoffeeLibrary/Shared/Public/GameLogging.h Pages: 1 -->
<svg width="1982pt" height="115pt"
 viewBox="0.00 0.00 1981.50 115.00" xmlns="http://www.w3.org/2000/svg" xmlns:xlink="http://www.w3.org/1999/xlink">
<g id="graph0" class="graph" transform="scale(1 1) rotate(0) translate(4 111)">
<title>Source/CoffeeLibrary/Shared/Public/GameLogging.h</title>
<!-- Node1 -->
<g id="Node000001" class="node">
<title>Node1</title>
<g id="a_Node000001"><a xlink:title="GameLogging 선언에 대한 Doxygen 주석을 제공합니다.">
<polygon fill="#999999" stroke="#666666" points="1110.5,-107 945.5,-107 945.5,-77 1110.5,-77 1110.5,-107"/>
<text text-anchor="start" x="953.5" y="-95" font-family="Malgun Gothic" font-size="10.00">Source/CoffeeLibrary</text>
<text text-anchor="middle" x="1028" y="-84" font-family="Malgun Gothic" font-size="10.00">/Shared/Public/GameLogging.h</text>
</a>
</g>
</g>
<!-- Node2 -->
<g id="Node000002" class="node">
<title>Node2</title>
<g id="a_Node000002"><a xlink:href="GameLogging_8cpp.html" target="_top" xlink:title="GameLogging 구현에 대한 Doxygen 주석을 제공합니다.">
<polygon fill="white" stroke="#666666" points="182,-35.5 0,-35.5 0,-5.5 182,-5.5 182,-35.5"/>
<text text-anchor="start" x="8" y="-23.5" font-family="Malgun Gothic" font-size="10.00">Source/CoffeeLibrary</text>
<text text-anchor="middle" x="91" y="-12.5" font-family="Malgun Gothic" font-size="10.00">/Shared/Private/GameLogging.cpp</text>
</a>
</g>
</g>
<!-- Node1&#45;&gt;Node2 -->
<g id="edge1_Node000001_Node000002" class="edge">
<title>Node1&#45;&gt;Node2</title>
<g id="a_edge1_Node000001_Node000002"><a xlink:title=" ">
<path fill="none" stroke="#63b8ff" d="M934.98,-89.47C780.08,-86.03 459.76,-75.08 191,-41 179.68,-39.56 167.72,-37.62 156.15,-35.5"/>
<polygon fill="#63b8ff" stroke="#63b8ff" points="935.32,-92.98 945.39,-89.7 935.47,-85.98 935.32,-92.98"/>
</a>
</g>
</g>
<!-- Node3 -->
<g id="Node000003" class="node">
<title>Node3</title>
<g id="a_Node000003"><a xlink:href="AGameCharacter_8cpp.html" target="_top" xlink:title="AGameCharacter 구현에 대한 Doxygen 주석을 제공합니다.">
<polygon fill="white" stroke="#666666" points="410,-35.5 200,-35.5 200,-5.5 410,-5.5 410,-35.5"/>
<text text-anchor="start" x="208" y="-23.5" font-family="Malgun Gothic" font-size="10.00">Source/LatteLibrary</text>
<text text-anchor="middle" x="305" y="-12.5" font-family="Malgun Gothic" font-size="10.00">/Character/Private/AGameCharacter.cpp</text>
</a>
</g>
</g>
<!-- Node1&#45;&gt;Node3 -->
<g id="edge2_Node000001_Node000003" class="edge">
<title>Node1&#45;&gt;Node3</title>
<g id="a_edge2_Node000001_Node000003"><a xlink:title=" ">
<path fill="none" stroke="#63b8ff" d="M934.79,-85.89C815.08,-78.74 601.04,-64 419,-41 406.85,-39.46 394.01,-37.55 381.51,-35.53"/>
<polygon fill="#63b8ff" stroke="#63b8ff" points="934.83,-89.4 945.02,-86.49 935.24,-82.41 934.83,-89.4"/>
</a>
</g>
</g>
<!-- Node4 -->
<g id="Node000004" class="node">
<title>Node4</title>
<g id="a_Node000004"><a xlink:href="UVoiceCaptureComponent_8cpp.html" target="_top" xlink:title=" ">
<polygon fill="white" stroke="#666666" points="607.5,-41 428.5,-41 428.5,0 607.5,0 607.5,-41"/>
<text text-anchor="start" x="436.5" y="-29" font-family="Malgun Gothic" font-size="10.00">Source/LatteLibrary</text>
<text text-anchor="start" x="436.5" y="-18" font-family="Malgun Gothic" font-size="10.00">/Character/Private/UVoiceCapture</text>
<text text-anchor="middle" x="518" y="-7" font-family="Malgun Gothic" font-size="10.00">Component.cpp</text>
</a>
</g>
</g>
<!-- Node1&#45;&gt;Node4 -->
<g id="edge3_Node000001_Node000004" class="edge">
<title>Node1&#45;&gt;Node4</title>
<g id="a_edge3_Node000001_Node000004"><a xlink:title=" ">
<path fill="none" stroke="#63b8ff" d="M935.52,-81.71C852.04,-72.86 725.97,-58.34 617,-41 613.89,-40.5 610.72,-39.98 607.53,-39.44"/>
<polygon fill="#63b8ff" stroke="#63b8ff" points="935.17,-85.19 945.48,-82.76 935.91,-78.23 935.17,-85.19"/>
</a>
</g>
</g>
<!-- Node5 -->
<g id="Node000005" class="node">
<title>Node5</title>
<g id="a_Node000005"><a xlink:href="UVoiceSystem_8cpp.html" target="_top" xlink:title="Implementation of UVoiceSystem.">
<polygon fill="white" stroke="#666666" points="824,-35.5 626,-35.5 626,-5.5 824,-5.5 824,-35.5"/>
<text text-anchor="start" x="634" y="-23.5" font-family="Malgun Gothic" font-size="10.00">Source/LatteLibrary</text>
<text text-anchor="middle" x="725" y="-12.5" font-family="Malgun Gothic" font-size="10.00">/Character/Private/UVoiceSystem.cpp</text>
</a>
</g>
</g>
<!-- Node1&#45;&gt;Node5 -->
<g id="edge4_Node000001_Node000005" class="edge">
<title>Node1&#45;&gt;Node5</title>
<g id="a_edge4_Node000001_Node000005"><a xlink:title=" ">
<path fill="none" stroke="#63b8ff" d="M956.89,-74.69C905.07,-62.8 835.59,-46.87 786.23,-35.54"/>
<polygon fill="#63b8ff" stroke="#63b8ff" points="956.15,-78.11 966.68,-76.94 957.72,-71.29 956.15,-78.11"/>
</a>
</g>
</g>
<!-- Node6 -->
<g id="Node000006" class="node">
<title>Node6</title>
<g id="a_Node000006"><a xlink:href="UCharacterData_8cpp.html" target="_top" xlink:title="UCharacterData 구현에 대한 Doxygen 주석을 제공합니다.">
<polygon fill="white" stroke="#666666" points="1024,-35.5 842,-35.5 842,-5.5 1024,-5.5 1024,-35.5"/>
<text text-anchor="start" x="850" y="-23.5" font-family="Malgun Gothic" font-size="10.00">Source/LatteLibrary</text>
<text text-anchor="middle" x="933" y="-12.5" font-family="Malgun Gothic" font-size="10.00">/Data/Private/UCharacterData.cpp</text>
</a>
</g>
</g>
<!-- Node1&#45;&gt;Node6 -->
<g id="edge5_Node000001_Node000006" class="edge">
<title>Node1&#45;&gt;Node6</title>
<g id="a_edge5_Node000001_Node000006"><a xlink:title=" ">
<path fill="none" stroke="#63b8ff" d="M1000.58,-70.94C985.09,-59.6 966.1,-45.71 952.2,-35.54"/>
<polygon fill="#63b8ff" stroke="#63b8ff" points="998.64,-73.86 1008.78,-76.94 1002.77,-68.21 998.64,-73.86"/>
</a>
</g>
</g>
<!-- Node7 -->
<g id="Node000007" class="node">
<title>Node7</title>
<g id="a_Node000007"><a xlink:href="UGameDataManager_8cpp.html" target="_top" xlink:title="UGameDataManager 구현에 대한 Doxygen 주석을 제공합니다.">
<polygon fill="white" stroke="#666666" points="1205.5,-41 1042.5,-41 1042.5,0 1205.5,0 1205.5,-41"/>
<text text-anchor="start" x="1050.5" y="-29" font-family="Malgun Gothic" font-size="10.00">Source/LatteLibrary</text>
<text text-anchor="start" x="1050.5" y="-18" font-family="Malgun Gothic" font-size="10.00">/Manager/Private/UGameData</text>
<text text-anchor="middle" x="1124" y="-7" font-family="Malgun Gothic" font-size="10.00">Manager.cpp</text>
</a>
</g>
</g>
<!-- Node1&#45;&gt;Node7 -->
<g id="edge6_Node000001_Node000007" class="edge">
<title>Node1&#45;&gt;Node7</title>
<g id="a_edge6_Node000001_Node000007"><a xlink:title=" ">
<path fill="none" stroke="#63b8ff" d="M1055.56,-71.04C1068.57,-61.63 1084.03,-50.44 1096.96,-41.07"/>
<polygon fill="#63b8ff" stroke="#63b8ff" points="1053.47,-68.24 1047.43,-76.94 1057.58,-73.91 1053.47,-68.24"/>
</a>
</g>
</g>
<!-- Node8 -->
<g id="Node000008" class="node">
<title>Node8</title>
<g id="a_Node000008"><a xlink:href="UGameVFXManager_8cpp.html" target="_top" xlink:title="UGameVFXManager 구현에 대한 Doxygen 주석을 제공합니다.">
<polygon fill="white" stroke="#666666" points="1444.5,-35.5 1223.5,-35.5 1223.5,-5.5 1444.5,-5.5 1444.5,-35.5"/>
<text text-anchor="start" x="1231.5" y="-23.5" font-family="Malgun Gothic" font-size="10.00">Source/LatteLibrary</text>
<text text-anchor="middle" x="1334" y="-12.5" font-family="Malgun Gothic" font-size="10.00">/Manager/Private/UGameVFXManager.cpp</text>
</a>
</g>
</g>
<!-- Node1&#45;&gt;Node8 -->
<g id="edge7_Node000001_Node000008" class="edge">
<title>Node1&#45;&gt;Node8</title>
<g id="a_edge7_Node000001_Node000008"><a xlink:title=" ">
<path fill="none" stroke="#63b8ff" d="M1099.81,-74.69C1152.14,-62.8 1222.32,-46.87 1272.17,-35.54"/>
<polygon fill="#63b8ff" stroke="#63b8ff" points="1098.9,-71.31 1089.92,-76.94 1100.45,-78.13 1098.9,-71.31"/>
</a>
</g>
</g>
<!-- Node9 -->
<g id="Node000009" class="node">
<title>Node9</title>
<g id="a_Node000009"><a xlink:href="UYiSanVoiceConsoleSubsystem_8cpp.html" target="_top" xlink:title=" ">
<polygon fill="white" stroke="#666666" points="1627,-41 1463,-41 1463,0 1627,0 1627,-41"/>
<text text-anchor="start" x="1471" y="-29" font-family="Malgun Gothic" font-size="10.00">Source/LatteLibrary</text>
<text text-anchor="start" x="1471" y="-18" font-family="Malgun Gothic" font-size="10.00">/Manager/Private/UYiSanVoice</text>
<text text-anchor="middle" x="1545" y="-7" font-family="Malgun Gothic" font-size="10.00">ConsoleSubsystem.cpp</text>
</a>
</g>
</g>
<!-- Node1&#45;&gt;Node9 -->
<g id="edge8_Node000001_Node000009" class="edge">
<title>Node1&#45;&gt;Node9</title>
<g id="a_edge8_Node000001_Node000009"><a xlink:title=" ">
<path fill="none" stroke="#63b8ff" d="M1120.85,-82.65C1207.38,-74.26 1339.87,-59.88 1454,-41 1456.87,-40.53 1459.78,-40.02 1462.73,-39.49"/>
<polygon fill="#63b8ff" stroke="#63b8ff" points="1120.41,-79.17 1110.79,-83.62 1121.08,-86.14 1120.41,-79.17"/>
</a>
</g>
</g>
<!-- Node10 -->
<g id="Node000010" class="node">
<title>Node10</title>
<g id="a_Node000010"><a xlink:href="ANetworkTesterActor_8cpp.html" target="_top" xlink:title="ANetworkTesterActor 구현에 대한 Doxygen 주석을 제공합니다.">
<polygon fill="white" stroke="#666666" points="1824.5,-41 1645.5,-41 1645.5,0 1824.5,0 1824.5,-41"/>
<text text-anchor="start" x="1653.5" y="-29" font-family="Malgun Gothic" font-size="10.00">Source/LatteLibrary</text>
<text text-anchor="start" x="1653.5" y="-18" font-family="Malgun Gothic" font-size="10.00">/Network/Private/ANetworkTester</text>
<text text-anchor="middle" x="1735" y="-7" font-family="Malgun Gothic" font-size="10.00">Actor.cpp</text>
</a>
</g>
</g>
<!-- Node1&#45;&gt;Node10 -->
<g id="edge9_Node000001_Node000010" class="edge">
<title>Node1&#45;&gt;Node10</title>
<g id="a_edge9_Node000001_Node000010"><a xlink:title=" ">
<path fill="none" stroke="#63b8ff" d="M1121.15,-86.6C1240.76,-80.2 1454.56,-66.25 1636,-41 1639.12,-40.57 1642.3,-40.1 1645.5,-39.6"/>
<polygon fill="#63b8ff" stroke="#63b8ff" points="1120.73,-83.12 1110.93,-87.14 1121.1,-90.11 1120.73,-83.12"/>
</a>
</g>
</g>
<!-- Node11 -->
<g id="Node000011" class="node">
<title>Node11</title>
<g id="a_Node000011"><a xlink:href="UMainWdget_8cpp.html" target="_top" xlink:title=" ">
<polygon fill="white" stroke="#666666" points="1973.5,-35.5 1842.5,-35.5 1842.5,-5.5 1973.5,-5.5 1973.5,-35.5"/>
<text text-anchor="start" x="1850.5" y="-23.5" font-family="Malgun Gothic" font-size="10.00">Source/YiSan/UI/Private</text>
<text text-anchor="middle" x="1908" y="-12.5" font-family="Malgun Gothic" font-size="10.00">/UMainWdget.cpp</text>
</a>
</g>
</g>
<!-- Node1&#45;&gt;Node11 -->
<g id="edge10_Node000001_Node000011" class="edge">
<title>Node1&#45;&gt;Node11</title>
<g id="a_edge10_Node000001_Node000011"><a xlink:title=" ">
<path fill="none" stroke="#63b8ff" d="M1120.81,-91.12C1271.45,-89.99 1578.11,-82.25 1834,-41 1842.53,-39.63 1851.49,-37.69 1860.13,-35.57"/>
<polygon fill="#63b8ff" stroke="#63b8ff" points="1120.66,-87.62 1110.68,-91.18 1120.7,-94.62 1120.66,-87.62"/>
</a>
</g>
</g>
</g>
</svg>
