<?xml version="1.0" encoding="UTF-8" standalone="no"?>
<!DOCTYPE svg PUBLIC "-//W3C//DTD SVG 1.1//EN"
 "http://www.w3.org/Graphics/SVG/1.1/DTD/svg11.dtd">
<!-- Generated by graphviz version 2.43.0 (0)
 -->
<!-- Title: Source/LatteLibrary/Network/Public/GoogleSpeechService.h Pages: 1 -->
<svg width="951pt" height="159pt"
 viewBox="0.00 0.00 951.09 159.00" xmlns="http://www.w3.org/2000/svg" xmlns:xlink="http://www.w3.org/1999/xlink">
<g id="graph0" class="graph" transform="scale(1 1) rotate(0) translate(4 155)">
<title>Source/LatteLibrary/Network/Public/GoogleSpeechService.h</title>
<!-- Node1 -->
<g id="Node000001" class="node">
<title>Node1</title>
<g id="a_Node000001"><a xlink:title=" ">
<polygon fill="#999999" stroke="#666666" points="429.09,-151 263.09,-151 263.09,-110 429.09,-110 429.09,-151"/>
<text text-anchor="start" x="271.09" y="-139" font-family="Malgun Gothic" font-size="10.00">Source/LatteLibrary</text>
<text text-anchor="start" x="271.09" y="-128" font-family="Malgun Gothic" font-size="10.00">/Network/Public/GoogleSpeech</text>
<text text-anchor="middle" x="346.09" y="-117" font-family="Malgun Gothic" font-size="10.00">Service.h</text>
</a>
</g>
</g>
<!-- Node2 -->
<g id="Node000002" class="node">
<title>Node2</title>
<g id="a_Node000002"><a xlink:title=" ">
<polygon fill="#e0e0e0" stroke="#999999" points="295.09,-19 207.09,-19 207.09,0 295.09,0 295.09,-19"/>
<text text-anchor="middle" x="251.09" y="-7" font-family="Malgun Gothic" font-size="10.00">CoreMinimal.h</text>
</a>
</g>
</g>
<!-- Node1&#45;&gt;Node2 -->
<g id="edge1_Node000001_Node000002" class="edge">
<title>Node1&#45;&gt;Node2</title>
<g id="a_edge1_Node000001_Node000002"><a xlink:title=" ">
<path fill="none" stroke="#63b8ff" d="M263.03,-127.93C172.67,-124.25 36.69,-112.31 4.09,-74 -1.38,-67.57 -1.33,-61.48 4.09,-55 28.16,-26.2 131.7,-16.01 196.85,-12.43"/>
<polygon fill="#63b8ff" stroke="#63b8ff" points="197.15,-15.91 206.95,-11.9 196.79,-8.92 197.15,-15.91"/>
</a>
</g>
</g>
<!-- Node3 -->
<g id="Node000003" class="node">
<title>Node3</title>
<g id="a_Node000003"><a xlink:title=" ">
<polygon fill="#e0e0e0" stroke="#999999" points="154.59,-74 13.59,-74 13.59,-55 154.59,-55 154.59,-74"/>
<text text-anchor="middle" x="84.09" y="-62" font-family="Malgun Gothic" font-size="10.00">Interfaces/IHttpRequest.h</text>
</a>
</g>
</g>
<!-- Node1&#45;&gt;Node3 -->
<g id="edge2_Node000001_Node000003" class="edge">
<title>Node1&#45;&gt;Node3</title>
<g id="a_edge2_Node000001_Node000003"><a xlink:title=" ">
<path fill="none" stroke="#63b8ff" d="M266.06,-109.95C221.08,-98.96 166.6,-85.65 129.04,-76.48"/>
<polygon fill="#63b8ff" stroke="#63b8ff" points="129.46,-72.98 118.92,-74.01 127.8,-79.78 129.46,-72.98"/>
</a>
</g>
</g>
<!-- Node4 -->
<g id="Node000004" class="node">
<title>Node4</title>
<g id="a_Node000004"><a xlink:title=" ">
<polygon fill="#e0e0e0" stroke="#999999" points="321.59,-74 172.59,-74 172.59,-55 321.59,-55 321.59,-74"/>
<text text-anchor="middle" x="247.09" y="-62" font-family="Malgun Gothic" font-size="10.00">Interfaces/IHttpResponse.h</text>
</a>
</g>
</g>
<!-- Node1&#45;&gt;Node4 -->
<g id="edge3_Node000001_Node000004" class="edge">
<title>Node1&#45;&gt;Node4</title>
<g id="a_edge3_Node000001_Node000004"><a xlink:title=" ">
<path fill="none" stroke="#63b8ff" d="M315.85,-109.95C300.79,-100.21 282.91,-88.65 269.16,-79.76"/>
<polygon fill="#63b8ff" stroke="#63b8ff" points="270.68,-76.58 260.38,-74.09 266.88,-82.46 270.68,-76.58"/>
</a>
</g>
</g>
<!-- Node5 -->
<g id="Node000005" class="node">
<title>Node5</title>
<g id="a_Node000005"><a xlink:title=" ">
<polygon fill="#e0e0e0" stroke="#999999" points="551.09,-74 339.09,-74 339.09,-55 551.09,-55 551.09,-74"/>
<text text-anchor="middle" x="445.09" y="-62" font-family="Malgun Gothic" font-size="10.00">Subsystems/GameInstanceSubsystem.h</text>
</a>
</g>
</g>
<!-- Node1&#45;&gt;Node5 -->
<g id="edge4_Node000001_Node000005" class="edge">
<title>Node1&#45;&gt;Node5</title>
<g id="a_edge4_Node000001_Node000005"><a xlink:title=" ">
<path fill="none" stroke="#63b8ff" d="M376.33,-109.95C391.39,-100.21 409.27,-88.65 423.02,-79.76"/>
<polygon fill="#63b8ff" stroke="#63b8ff" points="425.3,-82.46 431.8,-74.09 421.5,-76.58 425.3,-82.46"/>
</a>
</g>
</g>
<!-- Node6 -->
<g id="Node000006" class="node">
<title>Node6</title>
<g id="a_Node000006"><a xlink:href="GoogleSpeechServiceSettings_8h.html" target="_top" xlink:title=" ">
<polygon fill="white" stroke="#666666" points="740.59,-74 569.59,-74 569.59,-55 740.59,-55 740.59,-74"/>
<text text-anchor="middle" x="655.09" y="-62" font-family="Malgun Gothic" font-size="10.00">GoogleSpeechServiceSettings.h</text>
</a>
</g>
</g>
<!-- Node1&#45;&gt;Node6 -->
<g id="edge5_Node000001_Node000006" class="edge">
<title>Node1&#45;&gt;Node6</title>
<g id="a_edge5_Node000001_Node000006"><a xlink:title=" ">
<path fill="none" stroke="#63b8ff" d="M429.3,-112.26C484.92,-100.74 556.34,-85.95 603.8,-76.12"/>
<polygon fill="#63b8ff" stroke="#63b8ff" points="604.76,-79.5 613.84,-74.04 603.34,-72.64 604.76,-79.5"/>
</a>
</g>
</g>
<!-- Node9 -->
<g id="Node000009" class="node">
<title>Node9</title>
<g id="a_Node000009"><a xlink:title=" ">
<polygon fill="#e0e0e0" stroke="#999999" points="943.09,-74 759.09,-74 759.09,-55 943.09,-55 943.09,-74"/>
<text text-anchor="middle" x="851.09" y="-62" font-family="Malgun Gothic" font-size="10.00">GoogleSpeechService.generated.h</text>
</a>
</g>
</g>
<!-- Node1&#45;&gt;Node9 -->
<g id="edge9_Node000001_Node000009" class="edge">
<title>Node1&#45;&gt;Node9</title>
<g id="a_edge9_Node000001_Node000009"><a xlink:title=" ">
<path fill="none" stroke="#63b8ff" d="M429.2,-118.97C524.83,-106.85 680.62,-87.1 773.75,-75.3"/>
<polygon fill="#63b8ff" stroke="#63b8ff" points="774.19,-78.77 783.67,-74.04 773.31,-71.83 774.19,-78.77"/>
</a>
</g>
</g>
<!-- Node6&#45;&gt;Node2 -->
<g id="edge6_Node000006_Node000002" class="edge">
<title>Node6&#45;&gt;Node2</title>
<g id="a_edge6_Node000006_Node000002"><a xlink:title=" ">
<path fill="none" stroke="#63b8ff" d="M590.18,-54.98C511.15,-44.62 379.1,-27.29 305.27,-17.61"/>
<polygon fill="#63b8ff" stroke="#63b8ff" points="305.62,-14.12 295.25,-16.29 304.71,-21.06 305.62,-14.12"/>
</a>
</g>
</g>
<!-- Node7 -->
<g id="Node000007" class="node">
<title>Node7</title>
<g id="a_Node000007"><a xlink:title=" ">
<polygon fill="#e0e0e0" stroke="#999999" points="628.09,-19 476.09,-19 476.09,0 628.09,0 628.09,-19"/>
<text text-anchor="middle" x="552.09" y="-7" font-family="Malgun Gothic" font-size="10.00">Engine/DeveloperSettings.h</text>
</a>
</g>
</g>
<!-- Node6&#45;&gt;Node7 -->
<g id="edge7_Node000006_Node000007" class="edge">
<title>Node6&#45;&gt;Node7</title>
<g id="a_edge7_Node000006_Node000007"><a xlink:title=" ">
<path fill="none" stroke="#63b8ff" d="M638.54,-54.98C622.2,-46.57 596.96,-33.59 577.96,-23.81"/>
<polygon fill="#63b8ff" stroke="#63b8ff" points="579.43,-20.63 568.94,-19.17 576.23,-26.86 579.43,-20.63"/>
</a>
</g>
</g>
<!-- Node8 -->
<g id="Node000008" class="node">
<title>Node8</title>
<g id="a_Node000008"><a xlink:title=" ">
<polygon fill="#e0e0e0" stroke="#999999" points="870.09,-19 646.09,-19 646.09,0 870.09,0 870.09,-19"/>
<text text-anchor="middle" x="758.09" y="-7" font-family="Malgun Gothic" font-size="10.00">GoogleSpeechServiceSettings.generated.h</text>
</a>
</g>
</g>
<!-- Node6&#45;&gt;Node8 -->
<g id="edge8_Node000006_Node000008" class="edge">
<title>Node6&#45;&gt;Node8</title>
<g id="a_edge8_Node000006_Node000008"><a xlink:title=" ">
<path fill="none" stroke="#63b8ff" d="M671.64,-54.98C687.98,-46.57 713.22,-33.59 732.22,-23.81"/>
<polygon fill="#63b8ff" stroke="#63b8ff" points="733.95,-26.86 741.24,-19.17 730.75,-20.63 733.95,-26.86"/>
</a>
</g>
</g>
</g>
</svg>
