<?xml version="1.0" encoding="UTF-8" standalone="no"?>
<!DOCTYPE svg PUBLIC "-//W3C//DTD SVG 1.1//EN"
 "http://www.w3.org/Graphics/SVG/1.1/DTD/svg11.dtd">
<!-- Generated by graphviz version 2.43.0 (0)
 -->
<!-- Title: Source/LatteLibrary/Network/Public/GoogleSpeechServiceSettings.h Pages: 1 -->
<svg width="508pt" height="104pt"
 viewBox="0.00 0.00 508.00 104.00" xmlns="http://www.w3.org/2000/svg" xmlns:xlink="http://www.w3.org/1999/xlink">
<g id="graph0" class="graph" transform="scale(1 1) rotate(0) translate(4 100)">
<title>Source/LatteLibrary/Network/Public/GoogleSpeechServiceSettings.h</title>
<!-- Node1 -->
<g id="Node000001" class="node">
<title>Node1</title>
<g id="a_Node000001"><a xlink:title=" ">
<polygon fill="#999999" stroke="#666666" points="265,-96 99,-96 99,-55 265,-55 265,-96"/>
<text text-anchor="start" x="107" y="-84" font-family="Malgun Gothic" font-size="10.00">Source/LatteLibrary</text>
<text text-anchor="start" x="107" y="-73" font-family="Malgun Gothic" font-size="10.00">/Network/Public/GoogleSpeech</text>
<text text-anchor="middle" x="182" y="-62" font-family="Malgun Gothic" font-size="10.00">ServiceSettings.h</text>
</a>
</g>
</g>
<!-- Node2 -->
<g id="Node000002" class="node">
<title>Node2</title>
<g id="a_Node000002"><a xlink:title=" ">
<polygon fill="#e0e0e0" stroke="#999999" points="88,-19 0,-19 0,0 88,0 88,-19"/>
<text text-anchor="middle" x="44" y="-7" font-family="Malgun Gothic" font-size="10.00">CoreMinimal.h</text>
</a>
</g>
</g>
<!-- Node1&#45;&gt;Node2 -->
<g id="edge1_Node000001_Node000002" class="edge">
<title>Node1&#45;&gt;Node2</title>
<g id="a_edge1_Node000001_Node000002"><a xlink:title=" ">
<path fill="none" stroke="#63b8ff" d="M139.85,-54.95C117.74,-44.7 91.28,-32.43 71.77,-23.38"/>
<polygon fill="#63b8ff" stroke="#63b8ff" points="73.07,-20.12 62.53,-19.09 70.13,-26.47 73.07,-20.12"/>
</a>
</g>
</g>
<!-- Node3 -->
<g id="Node000003" class="node">
<title>Node3</title>
<g id="a_Node000003"><a xlink:title=" ">
<polygon fill="#e0e0e0" stroke="#999999" points="258,-19 106,-19 106,0 258,0 258,-19"/>
<text text-anchor="middle" x="182" y="-7" font-family="Malgun Gothic" font-size="10.00">Engine/DeveloperSettings.h</text>
</a>
</g>
</g>
<!-- Node1&#45;&gt;Node3 -->
<g id="edge2_Node000001_Node000003" class="edge">
<title>Node1&#45;&gt;Node3</title>
<g id="a_edge2_Node000001_Node000003"><a xlink:title=" ">
<path fill="none" stroke="#63b8ff" d="M182,-54.95C182,-46.85 182,-37.5 182,-29.47"/>
<polygon fill="#63b8ff" stroke="#63b8ff" points="185.5,-29.26 182,-19.26 178.5,-29.26 185.5,-29.26"/>
</a>
</g>
</g>
<!-- Node4 -->
<g id="Node000004" class="node">
<title>Node4</title>
<g id="a_Node000004"><a xlink:title=" ">
<polygon fill="#e0e0e0" stroke="#999999" points="500,-19 276,-19 276,0 500,0 500,-19"/>
<text text-anchor="middle" x="388" y="-7" font-family="Malgun Gothic" font-size="10.00">GoogleSpeechServiceSettings.generated.h</text>
</a>
</g>
</g>
<!-- Node1&#45;&gt;Node4 -->
<g id="edge3_Node000001_Node000004" class="edge">
<title>Node1&#45;&gt;Node4</title>
<g id="a_edge3_Node000001_Node000004"><a xlink:title=" ">
<path fill="none" stroke="#63b8ff" d="M244.93,-54.95C279.54,-44.2 321.3,-31.22 350.75,-22.07"/>
<polygon fill="#63b8ff" stroke="#63b8ff" points="352.1,-25.32 360.61,-19.01 350.03,-18.63 352.1,-25.32"/>
</a>
</g>
</g>
</g>
</svg>
