<?xml version="1.0" encoding="UTF-8" standalone="no"?>
<!DOCTYPE svg PUBLIC "-//W3C//DTD SVG 1.1//EN"
 "http://www.w3.org/Graphics/SVG/1.1/DTD/svg11.dtd">
<!-- Generated by graphviz version 2.43.0 (0)
 -->
<!-- Title: Source/LatteLibrary/Network/Public/GoogleSpeechService.h Pages: 1 -->
<svg width="626pt" height="159pt"
 viewBox="0.00 0.00 625.85 159.00" xmlns="http://www.w3.org/2000/svg" xmlns:xlink="http://www.w3.org/1999/xlink">
<g id="graph0" class="graph" transform="scale(1 1) rotate(0) translate(4 155)">
<title>Source/LatteLibrary/Network/Public/GoogleSpeechService.h</title>
<!-- Node1 -->
<g id="Node000001" class="node">
<title>Node1</title>
<g id="a_Node000001"><a xlink:title=" ">
<polygon fill="#999999" stroke="#666666" points="307.85,-151 141.85,-151 141.85,-110 307.85,-110 307.85,-151"/>
<text text-anchor="start" x="149.85" y="-139" font-family="Malgun Gothic" font-size="10.00">Source/LatteLibrary</text>
<text text-anchor="start" x="149.85" y="-128" font-family="Malgun Gothic" font-size="10.00">/Network/Public/GoogleSpeech</text>
<text text-anchor="middle" x="224.85" y="-117" font-family="Malgun Gothic" font-size="10.00">Service.h</text>
</a>
</g>
</g>
<!-- Node2 -->
<g id="Node000002" class="node">
<title>Node2</title>
<g id="a_Node000002"><a xlink:title=" ">
<polygon fill="#e0e0e0" stroke="#999999" points="132.85,-19 44.85,-19 44.85,0 132.85,0 132.85,-19"/>
<text text-anchor="middle" x="88.85" y="-7" font-family="Malgun Gothic" font-size="10.00">CoreMinimal.h</text>
</a>
</g>
</g>
<!-- Node1&#45;&gt;Node2 -->
<g id="edge1_Node000001_Node000002" class="edge">
<title>Node1&#45;&gt;Node2</title>
<g id="a_edge1_Node000001_Node000002"><a xlink:title=" ">
<path fill="none" stroke="#63b8ff" d="M141.59,-119.18C86.7,-110.47 21.89,-95.87 4.85,-74 -12.21,-52.1 20.52,-33.84 49.98,-22.61"/>
<polygon fill="#63b8ff" stroke="#63b8ff" points="51.55,-25.76 59.76,-19.07 49.17,-19.18 51.55,-25.76"/>
</a>
</g>
</g>
<!-- Node3 -->
<g id="Node000003" class="node">
<title>Node3</title>
<g id="a_Node000003"><a xlink:title=" ">
<polygon fill="#e0e0e0" stroke="#999999" points="225.85,-74 13.85,-74 13.85,-55 225.85,-55 225.85,-74"/>
<text text-anchor="middle" x="119.85" y="-62" font-family="Malgun Gothic" font-size="10.00">Subsystems/GameInstanceSubsystem.h</text>
</a>
</g>
</g>
<!-- Node1&#45;&gt;Node3 -->
<g id="edge2_Node000001_Node000003" class="edge">
<title>Node1&#45;&gt;Node3</title>
<g id="a_edge2_Node000001_Node000003"><a xlink:title=" ">
<path fill="none" stroke="#63b8ff" d="M192.78,-109.95C176.65,-100.12 157.48,-88.43 142.84,-79.51"/>
<polygon fill="#63b8ff" stroke="#63b8ff" points="144.31,-76.31 133.95,-74.09 140.67,-82.29 144.31,-76.31"/>
</a>
</g>
</g>
<!-- Node4 -->
<g id="Node000004" class="node">
<title>Node4</title>
<g id="a_Node000004"><a xlink:href="GoogleSpeechServiceSettings_8h.html" target="_top" xlink:title=" ">
<polygon fill="white" stroke="#666666" points="415.35,-74 244.35,-74 244.35,-55 415.35,-55 415.35,-74"/>
<text text-anchor="middle" x="329.85" y="-62" font-family="Malgun Gothic" font-size="10.00">GoogleSpeechServiceSettings.h</text>
</a>
</g>
</g>
<!-- Node1&#45;&gt;Node4 -->
<g id="edge3_Node000001_Node000004" class="edge">
<title>Node1&#45;&gt;Node4</title>
<g id="a_edge3_Node000001_Node000004"><a xlink:title=" ">
<path fill="none" stroke="#63b8ff" d="M256.93,-109.95C273.06,-100.12 292.23,-88.43 306.87,-79.51"/>
<polygon fill="#63b8ff" stroke="#63b8ff" points="309.04,-82.29 315.76,-74.09 305.4,-76.31 309.04,-82.29"/>
</a>
</g>
</g>
<!-- Node7 -->
<g id="Node000007" class="node">
<title>Node7</title>
<g id="a_Node000007"><a xlink:title=" ">
<polygon fill="#e0e0e0" stroke="#999999" points="617.85,-74 433.85,-74 433.85,-55 617.85,-55 617.85,-74"/>
<text text-anchor="middle" x="525.85" y="-62" font-family="Malgun Gothic" font-size="10.00">GoogleSpeechService.generated.h</text>
</a>
</g>
</g>
<!-- Node1&#45;&gt;Node7 -->
<g id="edge7_Node000001_Node000007" class="edge">
<title>Node1&#45;&gt;Node7</title>
<g id="a_edge7_Node000001_Node000007"><a xlink:title=" ">
<path fill="none" stroke="#63b8ff" d="M307.9,-111.84C361.77,-100.39 430.18,-85.84 475.85,-76.13"/>
<polygon fill="#63b8ff" stroke="#63b8ff" points="476.76,-79.52 485.81,-74.01 475.3,-72.67 476.76,-79.52"/>
</a>
</g>
</g>
<!-- Node4&#45;&gt;Node2 -->
<g id="edge4_Node000004_Node000002" class="edge">
<title>Node4&#45;&gt;Node2</title>
<g id="a_edge4_Node000004_Node000002"><a xlink:title=" ">
<path fill="none" stroke="#63b8ff" d="M291.13,-54.98C249.45,-45.82 183.03,-31.21 137.77,-21.26"/>
<polygon fill="#63b8ff" stroke="#63b8ff" points="138.4,-17.81 127.88,-19.08 136.89,-24.65 138.4,-17.81"/>
</a>
</g>
</g>
<!-- Node5 -->
<g id="Node000005" class="node">
<title>Node5</title>
<g id="a_Node000005"><a xlink:title=" ">
<polygon fill="#e0e0e0" stroke="#999999" points="353.85,-19 201.85,-19 201.85,0 353.85,0 353.85,-19"/>
<text text-anchor="middle" x="277.85" y="-7" font-family="Malgun Gothic" font-size="10.00">Engine/DeveloperSettings.h</text>
</a>
</g>
</g>
<!-- Node4&#45;&gt;Node5 -->
<g id="edge5_Node000004_Node000005" class="edge">
<title>Node4&#45;&gt;Node5</title>
<g id="a_edge5_Node000004_Node000005"><a xlink:title=" ">
<path fill="none" stroke="#63b8ff" d="M321.27,-54.75C313.69,-47.03 302.48,-35.6 293.34,-26.28"/>
<polygon fill="#63b8ff" stroke="#63b8ff" points="295.78,-23.78 286.28,-19.09 290.79,-28.68 295.78,-23.78"/>
</a>
</g>
</g>
<!-- Node6 -->
<g id="Node000006" class="node">
<title>Node6</title>
<g id="a_Node000006"><a xlink:title=" ">
<polygon fill="#e0e0e0" stroke="#999999" points="595.85,-19 371.85,-19 371.85,0 595.85,0 595.85,-19"/>
<text text-anchor="middle" x="483.85" y="-7" font-family="Malgun Gothic" font-size="10.00">GoogleSpeechServiceSettings.generated.h</text>
</a>
</g>
</g>
<!-- Node4&#45;&gt;Node6 -->
<g id="edge6_Node000004_Node000006" class="edge">
<title>Node4&#45;&gt;Node6</title>
<g id="a_edge6_Node000004_Node000006"><a xlink:title=" ">
<path fill="none" stroke="#63b8ff" d="M354.6,-54.98C380.23,-46.16 420.48,-32.31 449.26,-22.41"/>
<polygon fill="#63b8ff" stroke="#63b8ff" points="450.6,-25.65 458.92,-19.08 448.32,-19.03 450.6,-25.65"/>
</a>
</g>
</g>
</g>
</svg>
