<?xml version="1.0" encoding="UTF-8" standalone="no"?>
<!DOCTYPE svg PUBLIC "-//W3C//DTD SVG 1.1//EN"
 "http://www.w3.org/Graphics/SVG/1.1/DTD/svg11.dtd">
<!-- Generated by graphviz version 2.43.0 (0)
 -->
<!-- Title: Source/LatteLibrary/Network/Private/GoogleSpeechService.cpp Pages: 1 -->
<svg width="1915pt" height="214pt"
 viewBox="0.00 0.00 1915.00 214.00" xmlns="http://www.w3.org/2000/svg" xmlns:xlink="http://www.w3.org/1999/xlink">
<g id="graph0" class="graph" transform="scale(1 1) rotate(0) translate(4 210)">
<title>Source/LatteLibrary/Network/Private/GoogleSpeechService.cpp</title>
<!-- Node1 -->
<g id="Node000001" class="node">
<title>Node1</title>
<g id="a_Node000001"><a xlink:title=" ">
<polygon fill="#999999" stroke="#666666" points="1207.5,-206 1036.5,-206 1036.5,-165 1207.5,-165 1207.5,-206"/>
<text text-anchor="start" x="1044.5" y="-194" font-family="Malgun Gothic" font-size="10.00">Source/LatteLibrary</text>
<text text-anchor="start" x="1044.5" y="-183" font-family="Malgun Gothic" font-size="10.00">/Network/Private/GoogleSpeech</text>
<text text-anchor="middle" x="1122" y="-172" font-family="Malgun Gothic" font-size="10.00">Service.cpp</text>
</a>
</g>
</g>
<!-- Node2 -->
<g id="Node000002" class="node">
<title>Node2</title>
<g id="a_Node000002"><a xlink:href="GoogleSpeechService_8h.html" target="_top" xlink:title=" ">
<polygon fill="white" stroke="#666666" points="577.5,-129 446.5,-129 446.5,-110 577.5,-110 577.5,-129"/>
<text text-anchor="middle" x="512" y="-117" font-family="Malgun Gothic" font-size="10.00">GoogleSpeechService.h</text>
</a>
</g>
</g>
<!-- Node1&#45;&gt;Node2 -->
<g id="edge1_Node000001_Node000002" class="edge">
<title>Node1&#45;&gt;Node2</title>
<g id="a_edge1_Node000001_Node000002"><a xlink:title=" ">
<path fill="none" stroke="#63b8ff" d="M1036.22,-175.5C916.61,-162.95 701.62,-140.39 587.67,-128.44"/>
<polygon fill="#63b8ff" stroke="#63b8ff" points="587.95,-124.95 577.64,-127.39 587.22,-131.91 587.95,-124.95"/>
</a>
</g>
</g>
<!-- Node9 -->
<g id="Node000009" class="node">
<title>Node9</title>
<g id="a_Node000009"><a xlink:href="NetworkLog_8h.html" target="_top" xlink:title="NetworkLog 선언에 대한 Doxygen 주석을 제공합니다.">
<polygon fill="white" stroke="#666666" points="744,-74 660,-74 660,-55 744,-55 744,-74"/>
<text text-anchor="middle" x="702" y="-62" font-family="Malgun Gothic" font-size="10.00">NetworkLog.h</text>
</a>
</g>
</g>
<!-- Node1&#45;&gt;Node9 -->
<g id="edge9_Node000001_Node000009" class="edge">
<title>Node1&#45;&gt;Node9</title>
<g id="a_edge9_Node000001_Node000009"><a xlink:title=" ">
<path fill="none" stroke="#63b8ff" d="M1036.31,-179.93C912.73,-172.46 696.62,-155.72 673,-129 660.79,-115.19 673.33,-95.36 685.52,-81.55"/>
<polygon fill="#63b8ff" stroke="#63b8ff" points="688.14,-83.88 692.47,-74.21 683.06,-79.07 688.14,-83.88"/>
</a>
</g>
</g>
<!-- Node10 -->
<g id="Node000010" class="node">
<title>Node10</title>
<g id="a_Node000010"><a xlink:title=" ">
<polygon fill="#e0e0e0" stroke="#999999" points="769.5,-129 682.5,-129 682.5,-110 769.5,-110 769.5,-129"/>
<text text-anchor="middle" x="726" y="-117" font-family="Malgun Gothic" font-size="10.00">Misc/Base64.h</text>
</a>
</g>
</g>
<!-- Node1&#45;&gt;Node10 -->
<g id="edge11_Node000001_Node000010" class="edge">
<title>Node1&#45;&gt;Node10</title>
<g id="a_edge11_Node000001_Node000010"><a xlink:title=" ">
<path fill="none" stroke="#63b8ff" d="M1036.46,-170.75C969.24,-159.93 872.93,-144.41 779.59,-129.26"/>
<polygon fill="#63b8ff" stroke="#63b8ff" points="780.12,-125.8 769.69,-127.65 779,-132.71 780.12,-125.8"/>
</a>
</g>
</g>
<!-- Node11 -->
<g id="Node000011" class="node">
<title>Node11</title>
<g id="a_Node000011"><a xlink:title=" ">
<polygon fill="#e0e0e0" stroke="#999999" points="870.5,-129 787.5,-129 787.5,-110 870.5,-110 870.5,-129"/>
<text text-anchor="middle" x="829" y="-117" font-family="Malgun Gothic" font-size="10.00">HttpModule.h</text>
</a>
</g>
</g>
<!-- Node1&#45;&gt;Node11 -->
<g id="edge12_Node000001_Node000011" class="edge">
<title>Node1&#45;&gt;Node11</title>
<g id="a_edge12_Node000001_Node000011"><a xlink:title=" ">
<path fill="none" stroke="#63b8ff" d="M1036.46,-165.82C985.02,-154.58 921.36,-140.67 878.23,-131.25"/>
<polygon fill="#63b8ff" stroke="#63b8ff" points="878.78,-127.79 868.27,-129.08 877.29,-134.63 878.78,-127.79"/>
</a>
</g>
</g>
<!-- Node12 -->
<g id="Node000012" class="node">
<title>Node12</title>
<g id="a_Node000012"><a xlink:title=" ">
<polygon fill="#e0e0e0" stroke="#999999" points="1029.5,-129 888.5,-129 888.5,-110 1029.5,-110 1029.5,-129"/>
<text text-anchor="middle" x="959" y="-117" font-family="Malgun Gothic" font-size="10.00">Interfaces/IHttpRequest.h</text>
</a>
</g>
</g>
<!-- Node1&#45;&gt;Node12 -->
<g id="edge13_Node000001_Node000012" class="edge">
<title>Node1&#45;&gt;Node12</title>
<g id="a_edge13_Node000001_Node000012"><a xlink:title=" ">
<path fill="none" stroke="#63b8ff" d="M1072.21,-164.95C1045.5,-154.46 1013.41,-141.87 990.23,-132.76"/>
<polygon fill="#63b8ff" stroke="#63b8ff" points="991.47,-129.49 980.88,-129.09 988.91,-136 991.47,-129.49"/>
</a>
</g>
</g>
<!-- Node13 -->
<g id="Node000013" class="node">
<title>Node13</title>
<g id="a_Node000013"><a xlink:title=" ">
<polygon fill="#e0e0e0" stroke="#999999" points="1196.5,-129 1047.5,-129 1047.5,-110 1196.5,-110 1196.5,-129"/>
<text text-anchor="middle" x="1122" y="-117" font-family="Malgun Gothic" font-size="10.00">Interfaces/IHttpResponse.h</text>
</a>
</g>
</g>
<!-- Node1&#45;&gt;Node13 -->
<g id="edge14_Node000001_Node000013" class="edge">
<title>Node1&#45;&gt;Node13</title>
<g id="a_edge14_Node000001_Node000013"><a xlink:title=" ">
<path fill="none" stroke="#63b8ff" d="M1122,-164.95C1122,-156.85 1122,-147.5 1122,-139.47"/>
<polygon fill="#63b8ff" stroke="#63b8ff" points="1125.5,-139.26 1122,-129.26 1118.5,-139.26 1125.5,-139.26"/>
</a>
</g>
</g>
<!-- Node14 -->
<g id="Node000014" class="node">
<title>Node14</title>
<g id="a_Node000014"><a xlink:title=" ">
<polygon fill="#e0e0e0" stroke="#999999" points="1369.5,-129 1214.5,-129 1214.5,-110 1369.5,-110 1369.5,-129"/>
<text text-anchor="middle" x="1292" y="-117" font-family="Malgun Gothic" font-size="10.00">Serialization/JsonSerializer.h</text>
</a>
</g>
</g>
<!-- Node1&#45;&gt;Node14 -->
<g id="edge15_Node000001_Node000014" class="edge">
<title>Node1&#45;&gt;Node14</title>
<g id="a_edge15_Node000001_Node000014"><a xlink:title=" ">
<path fill="none" stroke="#63b8ff" d="M1173.93,-164.95C1201.91,-154.42 1235.55,-141.75 1259.75,-132.64"/>
<polygon fill="#63b8ff" stroke="#63b8ff" points="1261.05,-135.89 1269.18,-129.09 1258.59,-129.34 1261.05,-135.89"/>
</a>
</g>
</g>
<!-- Node15 -->
<g id="Node000015" class="node">
<title>Node15</title>
<g id="a_Node000015"><a xlink:title=" ">
<polygon fill="#e0e0e0" stroke="#999999" points="1526.5,-129 1387.5,-129 1387.5,-110 1526.5,-110 1526.5,-129"/>
<text text-anchor="middle" x="1457" y="-117" font-family="Malgun Gothic" font-size="10.00">Serialization/JsonWriter.h</text>
</a>
</g>
</g>
<!-- Node1&#45;&gt;Node15 -->
<g id="edge16_Node000001_Node000015" class="edge">
<title>Node1&#45;&gt;Node15</title>
<g id="a_edge16_Node000001_Node000015"><a xlink:title=" ">
<path fill="none" stroke="#63b8ff" d="M1207.84,-168.1C1269.21,-156.38 1349.95,-140.95 1402.64,-130.88"/>
<polygon fill="#63b8ff" stroke="#63b8ff" points="1403.3,-134.32 1412.47,-129.01 1401.99,-127.45 1403.3,-134.32"/>
</a>
</g>
</g>
<!-- Node16 -->
<g id="Node000016" class="node">
<title>Node16</title>
<g id="a_Node000016"><a xlink:title=" ">
<polygon fill="#e0e0e0" stroke="#999999" points="1649,-129 1545,-129 1545,-110 1649,-110 1649,-129"/>
<text text-anchor="middle" x="1597" y="-117" font-family="Malgun Gothic" font-size="10.00">Dom/JsonObject.h</text>
</a>
</g>
</g>
<!-- Node1&#45;&gt;Node16 -->
<g id="edge17_Node000001_Node000016" class="edge">
<title>Node1&#45;&gt;Node16</title>
<g id="a_edge17_Node000001_Node000016"><a xlink:title=" ">
<path fill="none" stroke="#63b8ff" d="M1207.65,-173.15C1289.09,-162.33 1415.34,-145.47 1534.71,-129.17"/>
<polygon fill="#63b8ff" stroke="#63b8ff" points="1535.33,-132.62 1544.76,-127.8 1534.38,-125.68 1535.33,-132.62"/>
</a>
</g>
</g>
<!-- Node17 -->
<g id="Node000017" class="node">
<title>Node17</title>
<g id="a_Node000017"><a xlink:title=" ">
<polygon fill="#e0e0e0" stroke="#999999" points="1756.5,-129 1667.5,-129 1667.5,-110 1756.5,-110 1756.5,-129"/>
<text text-anchor="middle" x="1712" y="-117" font-family="Malgun Gothic" font-size="10.00">Engine/World.h</text>
</a>
</g>
</g>
<!-- Node1&#45;&gt;Node17 -->
<g id="edge18_Node000001_Node000017" class="edge">
<title>Node1&#45;&gt;Node17</title>
<g id="a_edge18_Node000001_Node000017"><a xlink:title=" ">
<path fill="none" stroke="#63b8ff" d="M1207.57,-177.05C1311.33,-167.69 1491.78,-150.41 1656.89,-129.08"/>
<polygon fill="#63b8ff" stroke="#63b8ff" points="1657.77,-132.49 1667.24,-127.73 1656.87,-125.55 1657.77,-132.49"/>
</a>
</g>
</g>
<!-- Node18 -->
<g id="Node000018" class="node">
<title>Node18</title>
<g id="a_Node000018"><a xlink:title=" ">
<polygon fill="#e0e0e0" stroke="#999999" points="1907,-129 1775,-129 1775,-110 1907,-110 1907,-129"/>
<text text-anchor="middle" x="1841" y="-117" font-family="Malgun Gothic" font-size="10.00">Engine/GameInstance.h</text>
</a>
</g>
</g>
<!-- Node1&#45;&gt;Node18 -->
<g id="edge19_Node000001_Node000018" class="edge">
<title>Node1&#45;&gt;Node18</title>
<g id="a_edge19_Node000001_Node000018"><a xlink:title=" ">
<path fill="none" stroke="#63b8ff" d="M1207.75,-177.85C1329.24,-168.26 1558.71,-149.54 1764.66,-129.11"/>
<polygon fill="#63b8ff" stroke="#63b8ff" points="1765.15,-132.58 1774.76,-128.11 1764.46,-125.61 1765.15,-132.58"/>
</a>
</g>
</g>
<!-- Node3 -->
<g id="Node000003" class="node">
<title>Node3</title>
<g id="a_Node000003"><a xlink:title=" ">
<polygon fill="#e0e0e0" stroke="#999999" points="676,-19 588,-19 588,0 676,0 676,-19"/>
<text text-anchor="middle" x="632" y="-7" font-family="Malgun Gothic" font-size="10.00">CoreMinimal.h</text>
</a>
</g>
</g>
<!-- Node2&#45;&gt;Node3 -->
<g id="edge2_Node000002_Node000003" class="edge">
<title>Node2&#45;&gt;Node3</title>
<g id="a_edge2_Node000002_Node000003"><a xlink:title=" ">
<path fill="none" stroke="#63b8ff" d="M550.82,-109.89C571.91,-103.34 596.89,-92.24 613,-74 623.83,-61.73 628.49,-43.5 630.49,-29.72"/>
<polygon fill="#63b8ff" stroke="#63b8ff" points="634.01,-29.74 631.63,-19.41 627.06,-28.97 634.01,-29.74"/>
</a>
</g>
</g>
<!-- Node4 -->
<g id="Node000004" class="node">
<title>Node4</title>
<g id="a_Node000004"><a xlink:title=" ">
<polygon fill="#e0e0e0" stroke="#999999" points="212,-74 0,-74 0,-55 212,-55 212,-74"/>
<text text-anchor="middle" x="106" y="-62" font-family="Malgun Gothic" font-size="10.00">Subsystems/GameInstanceSubsystem.h</text>
</a>
</g>
</g>
<!-- Node2&#45;&gt;Node4 -->
<g id="edge3_Node000002_Node000004" class="edge">
<title>Node2&#45;&gt;Node4</title>
<g id="a_edge3_Node000002_Node000004"><a xlink:title=" ">
<path fill="none" stroke="#63b8ff" d="M446.77,-109.98C374.37,-100.53 257.7,-85.3 181.43,-75.35"/>
<polygon fill="#63b8ff" stroke="#63b8ff" points="181.77,-71.86 171.41,-74.04 180.87,-78.8 181.77,-71.86"/>
</a>
</g>
</g>
<!-- Node5 -->
<g id="Node000005" class="node">
<title>Node5</title>
<g id="a_Node000005"><a xlink:href="GoogleSpeechServiceSettings_8h.html" target="_top" xlink:title=" ">
<polygon fill="white" stroke="#666666" points="401.5,-74 230.5,-74 230.5,-55 401.5,-55 401.5,-74"/>
<text text-anchor="middle" x="316" y="-62" font-family="Malgun Gothic" font-size="10.00">GoogleSpeechServiceSettings.h</text>
</a>
</g>
</g>
<!-- Node2&#45;&gt;Node5 -->
<g id="edge4_Node000002_Node000005" class="edge">
<title>Node2&#45;&gt;Node5</title>
<g id="a_edge4_Node000002_Node000005"><a xlink:title=" ">
<path fill="none" stroke="#63b8ff" d="M480.51,-109.98C447.18,-100.97 394.4,-86.7 357.65,-76.76"/>
<polygon fill="#63b8ff" stroke="#63b8ff" points="358.3,-73.31 347.74,-74.08 356.48,-80.07 358.3,-73.31"/>
</a>
</g>
</g>
<!-- Node8 -->
<g id="Node000008" class="node">
<title>Node8</title>
<g id="a_Node000008"><a xlink:title=" ">
<polygon fill="#e0e0e0" stroke="#999999" points="604,-74 420,-74 420,-55 604,-55 604,-74"/>
<text text-anchor="middle" x="512" y="-62" font-family="Malgun Gothic" font-size="10.00">GoogleSpeechService.generated.h</text>
</a>
</g>
</g>
<!-- Node2&#45;&gt;Node8 -->
<g id="edge8_Node000002_Node000008" class="edge">
<title>Node2&#45;&gt;Node8</title>
<g id="a_edge8_Node000002_Node000008"><a xlink:title=" ">
<path fill="none" stroke="#63b8ff" d="M512,-109.75C512,-102.8 512,-92.85 512,-84.13"/>
<polygon fill="#63b8ff" stroke="#63b8ff" points="515.5,-84.09 512,-74.09 508.5,-84.09 515.5,-84.09"/>
</a>
</g>
</g>
<!-- Node5&#45;&gt;Node3 -->
<g id="edge5_Node000005_Node000003" class="edge">
<title>Node5&#45;&gt;Node3</title>
<g id="a_edge5_Node000005_Node000003"><a xlink:title=" ">
<path fill="none" stroke="#63b8ff" d="M366.77,-54.98C424.66,-45.28 518.91,-29.47 578.08,-19.54"/>
<polygon fill="#63b8ff" stroke="#63b8ff" points="578.7,-22.99 587.98,-17.88 577.54,-16.09 578.7,-22.99"/>
</a>
</g>
</g>
<!-- Node6 -->
<g id="Node000006" class="node">
<title>Node6</title>
<g id="a_Node000006"><a xlink:title=" ">
<polygon fill="#e0e0e0" stroke="#999999" points="257,-19 105,-19 105,0 257,0 257,-19"/>
<text text-anchor="middle" x="181" y="-7" font-family="Malgun Gothic" font-size="10.00">Engine/DeveloperSettings.h</text>
</a>
</g>
</g>
<!-- Node5&#45;&gt;Node6 -->
<g id="edge6_Node000005_Node000006" class="edge">
<title>Node5&#45;&gt;Node6</title>
<g id="a_edge6_Node000005_Node000006"><a xlink:title=" ">
<path fill="none" stroke="#63b8ff" d="M294.31,-54.98C272.2,-46.3 237.68,-32.75 212.55,-22.88"/>
<polygon fill="#63b8ff" stroke="#63b8ff" points="213.67,-19.57 203.08,-19.17 211.11,-26.08 213.67,-19.57"/>
</a>
</g>
</g>
<!-- Node7 -->
<g id="Node000007" class="node">
<title>Node7</title>
<g id="a_Node000007"><a xlink:title=" ">
<polygon fill="#e0e0e0" stroke="#999999" points="499,-19 275,-19 275,0 499,0 499,-19"/>
<text text-anchor="middle" x="387" y="-7" font-family="Malgun Gothic" font-size="10.00">GoogleSpeechServiceSettings.generated.h</text>
</a>
</g>
</g>
<!-- Node5&#45;&gt;Node7 -->
<g id="edge7_Node000005_Node000007" class="edge">
<title>Node5&#45;&gt;Node7</title>
<g id="a_edge7_Node000005_Node000007"><a xlink:title=" ">
<path fill="none" stroke="#63b8ff" d="M327.41,-54.98C338.11,-47 354.34,-34.88 367.16,-25.31"/>
<polygon fill="#63b8ff" stroke="#63b8ff" points="369.47,-27.96 375.39,-19.17 365.28,-22.35 369.47,-27.96"/>
</a>
</g>
</g>
<!-- Node9&#45;&gt;Node3 -->
<g id="edge10_Node000009_Node000003" class="edge">
<title>Node9&#45;&gt;Node3</title>
<g id="a_edge10_Node000009_Node000003"><a xlink:title=" ">
<path fill="none" stroke="#63b8ff" d="M690.75,-54.98C680.2,-47 664.2,-34.88 651.56,-25.31"/>
<polygon fill="#63b8ff" stroke="#63b8ff" points="653.54,-22.42 643.45,-19.17 649.31,-28 653.54,-22.42"/>
</a>
</g>
</g>
</g>
</svg>
