<?xml version="1.0" encoding="UTF-8" standalone="no"?>
<!DOCTYPE svg PUBLIC "-//W3C//DTD SVG 1.1//EN"
 "http://www.w3.org/Graphics/SVG/1.1/DTD/svg11.dtd">
<!-- Generated by graphviz version 2.43.0 (0)
 -->
<!-- Title: Source/LatteLibrary/Character/Public/IControllable.h Pages: 1 -->
<svg width="401pt" height="192pt"
 viewBox="0.00 0.00 401.00 192.00" xmlns="http://www.w3.org/2000/svg" xmlns:xlink="http://www.w3.org/1999/xlink">
<g id="graph0" class="graph" transform="scale(1 1) rotate(0) translate(4 188)">
<title>Source/LatteLibrary/Character/Public/IControllable.h</title>
<!-- Node1 -->
<g id="Node000001" class="node">
<title>Node1</title>
<g id="a_Node000001"><a xlink:title="IControllable 인터페이스 선언에 대한 Doxygen 주석을 제공합니다.">
<polygon fill="#999999" stroke="#666666" points="247,-184 74,-184 74,-154 247,-154 247,-184"/>
<text text-anchor="start" x="82" y="-172" font-family="Malgun Gothic" font-size="10.00">Source/LatteLibrary</text>
<text text-anchor="middle" x="160.5" y="-161" font-family="Malgun Gothic" font-size="10.00">/Character/Public/IControllable.h</text>
</a>
</g>
</g>
<!-- Node2 -->
<g id="Node000002" class="node">
<title>Node2</title>
<g id="a_Node000002"><a xlink:href="APlayerControl_8cpp.html" target="_top" xlink:title="APlayerControl 구현에 대한 Doxygen 주석을 제공합니다.">
<polygon fill="white" stroke="#666666" points="145,-118 0,-118 0,-77 145,-77 145,-118"/>
<text text-anchor="start" x="8" y="-106" font-family="Malgun Gothic" font-size="10.00">Source/LatteLibrary</text>
<text text-anchor="start" x="8" y="-95" font-family="Malgun Gothic" font-size="10.00">/Character/Private/APlayer</text>
<text text-anchor="middle" x="72.5" y="-84" font-family="Malgun Gothic" font-size="10.00">Control.cpp</text>
</a>
</g>
</g>
<!-- Node1&#45;&gt;Node2 -->
<g id="edge1_Node000001_Node000002" class="edge">
<title>Node1&#45;&gt;Node2</title>
<g id="a_edge1_Node000001_Node000002"><a xlink:title=" ">
<path fill="none" stroke="#63b8ff" d="M134.55,-147.5C122.77,-138.21 108.91,-127.26 97.28,-118.07"/>
<polygon fill="#63b8ff" stroke="#63b8ff" points="132.67,-150.48 142.69,-153.94 137.01,-144.99 132.67,-150.48"/>
</a>
</g>
</g>
<!-- Node3 -->
<g id="Node000003" class="node">
<title>Node3</title>
<g id="a_Node000003"><a xlink:href="APlayerActor_8h.html" target="_top" xlink:title="APlayerActor 선언에 대한 Doxygen 주석을 제공합니다.">
<polygon fill="white" stroke="#666666" points="336,-112.5 163,-112.5 163,-82.5 336,-82.5 336,-112.5"/>
<text text-anchor="start" x="171" y="-100.5" font-family="Malgun Gothic" font-size="10.00">Source/LatteLibrary</text>
<text text-anchor="middle" x="249.5" y="-89.5" font-family="Malgun Gothic" font-size="10.00">/Character/Public/APlayerActor.h</text>
</a>
</g>
</g>
<!-- Node1&#45;&gt;Node3 -->
<g id="edge2_Node000001_Node000003" class="edge">
<title>Node1&#45;&gt;Node3</title>
<g id="a_edge2_Node000001_Node000003"><a xlink:title=" ">
<path fill="none" stroke="#63b8ff" d="M186.59,-147.63C201.03,-136.35 218.61,-122.62 231.52,-112.54"/>
<polygon fill="#63b8ff" stroke="#63b8ff" points="184.24,-145.02 178.51,-153.94 188.55,-150.54 184.24,-145.02"/>
</a>
</g>
</g>
<!-- Node4 -->
<g id="Node000004" class="node">
<title>Node4</title>
<g id="a_Node000004"><a xlink:href="APlayerActor_8cpp.html" target="_top" xlink:title="APlayerActor 구현에 대한 Doxygen 주석을 제공합니다.">
<polygon fill="white" stroke="#666666" points="244,-41 99,-41 99,0 244,0 244,-41"/>
<text text-anchor="start" x="107" y="-29" font-family="Malgun Gothic" font-size="10.00">Source/LatteLibrary</text>
<text text-anchor="start" x="107" y="-18" font-family="Malgun Gothic" font-size="10.00">/Character/Private/APlayer</text>
<text text-anchor="middle" x="171.5" y="-7" font-family="Malgun Gothic" font-size="10.00">Actor.cpp</text>
</a>
</g>
</g>
<!-- Node3&#45;&gt;Node4 -->
<g id="edge3_Node000003_Node000004" class="edge">
<title>Node3&#45;&gt;Node4</title>
<g id="a_edge3_Node000003_Node000004"><a xlink:title=" ">
<path fill="none" stroke="#63b8ff" d="M227.54,-75.38C216.39,-64.66 202.93,-51.72 191.99,-41.2"/>
<polygon fill="#63b8ff" stroke="#63b8ff" points="225.19,-77.98 234.83,-82.39 230.05,-72.94 225.19,-77.98"/>
</a>
</g>
</g>
<!-- Node5 -->
<g id="Node000005" class="node">
<title>Node5</title>
<g id="a_Node000005"><a xlink:href="UMainWdget_8cpp.html" target="_top" xlink:title=" ">
<polygon fill="white" stroke="#666666" points="393,-35.5 262,-35.5 262,-5.5 393,-5.5 393,-35.5"/>
<text text-anchor="start" x="270" y="-23.5" font-family="Malgun Gothic" font-size="10.00">Source/YiSan/UI/Private</text>
<text text-anchor="middle" x="327.5" y="-12.5" font-family="Malgun Gothic" font-size="10.00">/UMainWdget.cpp</text>
</a>
</g>
</g>
<!-- Node3&#45;&gt;Node5 -->
<g id="edge4_Node000003_Node000005" class="edge">
<title>Node3&#45;&gt;Node5</title>
<g id="a_edge4_Node000003_Node000005"><a xlink:title=" ">
<path fill="none" stroke="#63b8ff" d="M271.53,-75.32C284.77,-62.58 301.26,-46.74 312.89,-35.54"/>
<polygon fill="#63b8ff" stroke="#63b8ff" points="268.95,-72.94 264.17,-82.39 273.81,-77.98 268.95,-72.94"/>
</a>
</g>
</g>
</g>
</svg>
