<?xml version="1.0" encoding="UTF-8" standalone="no"?>
<!DOCTYPE svg PUBLIC "-//W3C//DTD SVG 1.1//EN"
 "http://www.w3.org/Graphics/SVG/1.1/DTD/svg11.dtd">
<!-- Generated by graphviz version 2.43.0 (0)
 -->
<!-- Title: Source/LatteLibrary/Character/Public/IControllable.h Pages: 1 -->
<svg width="489pt" height="192pt"
 viewBox="0.00 0.00 489.00 192.00" xmlns="http://www.w3.org/2000/svg" xmlns:xlink="http://www.w3.org/1999/xlink">

<svg id="main" version="1.1" xmlns="http://www.w3.org/2000/svg" xmlns:xlink="http://www.w3.org/1999/xlink" xml:space="preserve" onload="init(evt)">
<style type="text/css"><![CDATA[
.node, .edge {opacity: 0.7;}
.node.selected, .edge.selected {opacity: 1;}
.edge:hover path { stroke: red; }
.edge:hover polygon { stroke: red; fill: red; }
]]></style>
<script type="application/ecmascript" xlink:href="svg.min.js"/>
<svg id="graph" class="graph">
<g id="graph0" class="graph" transform="scale(1 1) rotate(0) translate(4 188)">
<title>Source/LatteLibrary/Character/Public/IControllable.h</title>
<!-- Node1 -->
<g id="Node000001" class="node">
<title>Node1</title>
<g id="a_Node000001"><a xlink:title="IControllable 인터페이스 선언에 대한 Doxygen 주석을 제공합니다.">
<polygon fill="#999999" stroke="#666666" points="247,-184 74,-184 74,-154 247,-154 247,-184"/>
<text text-anchor="start" x="82" y="-172" font-family="Malgun Gothic" font-size="10.00">Source/LatteLibrary</text>
<text text-anchor="middle" x="160.5" y="-161" font-family="Malgun Gothic" font-size="10.00">/Character/Public/IControllable.h</text>
</a>
</g>
</g>
<!-- Node2 -->
<g id="Node000002" class="node">
<title>Node2</title>
<g id="a_Node000002"><a xlink:href="APlayerControl_8cpp.html" target="_top" xlink:title="APlayerControl 구현에 대한 Doxygen 주석을 제공합니다.">
<polygon fill="white" stroke="#666666" points="145,-118 0,-118 0,-77 145,-77 145,-118"/>
<text text-anchor="start" x="8" y="-106" font-family="Malgun Gothic" font-size="10.00">Source/LatteLibrary</text>
<text text-anchor="start" x="8" y="-95" font-family="Malgun Gothic" font-size="10.00">/Character/Private/APlayer</text>
<text text-anchor="middle" x="72.5" y="-84" font-family="Malgun Gothic" font-size="10.00">Control.cpp</text>
</a>
</g>
</g>
<!-- Node1&#45;&gt;Node2 -->
<g id="edge1_Node000001_Node000002" class="edge">
<title>Node1&#45;&gt;Node2</title>
<g id="a_edge1_Node000001_Node000002"><a xlink:title=" ">
<path fill="none" stroke="#63b8ff" d="M134.55,-147.5C122.77,-138.21 108.91,-127.26 97.28,-118.07"/>
<polygon fill="#63b8ff" stroke="#63b8ff" points="132.67,-150.48 142.69,-153.94 137.01,-144.99 132.67,-150.48"/>
</a>
</g>
</g>
<!-- Node3 -->
<g id="Node000003" class="node">
<title>Node3</title>
<g id="a_Node000003"><a xlink:href="APlayerActor_8h.html" target="_top" xlink:title="Declares the player&#45;controlled character actor.">
<polygon fill="white" stroke="#666666" points="336,-112.5 163,-112.5 163,-82.5 336,-82.5 336,-112.5"/>
<text text-anchor="start" x="171" y="-100.5" font-family="Malgun Gothic" font-size="10.00">Source/LatteLibrary</text>
<text text-anchor="middle" x="249.5" y="-89.5" font-family="Malgun Gothic" font-size="10.00">/Character/Public/APlayerActor.h</text>
</a>
</g>
</g>
<!-- Node1&#45;&gt;Node3 -->
<g id="edge2_Node000001_Node000003" class="edge">
<title>Node1&#45;&gt;Node3</title>
<g id="a_edge2_Node000001_Node000003"><a xlink:title=" ">
<path fill="none" stroke="#63b8ff" d="M186.59,-147.63C201.03,-136.35 218.61,-122.62 231.52,-112.54"/>
<polygon fill="#63b8ff" stroke="#63b8ff" points="184.24,-145.02 178.51,-153.94 188.55,-150.54 184.24,-145.02"/>
</a>
</g>
</g>
<!-- Node4 -->
<g id="Node000004" class="node">
<title>Node4</title>
<g id="a_Node000004"><a xlink:href="APlayerActor_8cpp.html" target="_top" xlink:title="Provides Doxygen annotations for APlayerActor implementation.">
<polygon fill="white" stroke="#666666" points="149,-41 4,-41 4,0 149,0 149,-41"/>
<text text-anchor="start" x="12" y="-29" font-family="Malgun Gothic" font-size="10.00">Source/LatteLibrary</text>
<text text-anchor="start" x="12" y="-18" font-family="Malgun Gothic" font-size="10.00">/Character/Private/APlayer</text>
<text text-anchor="middle" x="76.5" y="-7" font-family="Malgun Gothic" font-size="10.00">Actor.cpp</text>
</a>
</g>
</g>
<!-- Node3&#45;&gt;Node4 -->
<g id="edge3_Node000003_Node000004" class="edge">
<title>Node3&#45;&gt;Node4</title>
<g id="a_edge3_Node000003_Node000004"><a xlink:title=" ">
<path fill="none" stroke="#63b8ff" d="M207.74,-78.4C181.72,-67.12 148.25,-52.61 121.62,-41.06"/>
<polygon fill="#63b8ff" stroke="#63b8ff" points="206.39,-81.63 216.96,-82.39 209.18,-75.2 206.39,-81.63"/>
</a>
</g>
</g>
<!-- Node5 -->
<g id="Node000005" class="node">
<title>Node5</title>
<g id="a_Node000005"><a xlink:href="UYiSanVoiceConsoleSubsystem_8cpp.html" target="_top" xlink:title=" ">
<polygon fill="white" stroke="#666666" points="331.5,-41 167.5,-41 167.5,0 331.5,0 331.5,-41"/>
<text text-anchor="start" x="175.5" y="-29" font-family="Malgun Gothic" font-size="10.00">Source/LatteLibrary</text>
<text text-anchor="start" x="175.5" y="-18" font-family="Malgun Gothic" font-size="10.00">/Manager/Private/UYiSanVoice</text>
<text text-anchor="middle" x="249.5" y="-7" font-family="Malgun Gothic" font-size="10.00">ConsoleSubsystem.cpp</text>
</a>
</g>
</g>
<!-- Node3&#45;&gt;Node5 -->
<g id="edge4_Node000003_Node000005" class="edge">
<title>Node3&#45;&gt;Node5</title>
<g id="a_edge4_Node000003_Node000005"><a xlink:title=" ">
<path fill="none" stroke="#63b8ff" d="M249.5,-72.23C249.5,-62.2 249.5,-50.71 249.5,-41.2"/>
<polygon fill="#63b8ff" stroke="#63b8ff" points="246,-72.39 249.5,-82.39 253,-72.39 246,-72.39"/>
</a>
</g>
</g>
<!-- Node6 -->
<g id="Node000006" class="node">
<title>Node6</title>
<g id="a_Node000006"><a xlink:href="UMainWdget_8cpp.html" target="_top" xlink:title=" ">
<polygon fill="white" stroke="#666666" points="481,-35.5 350,-35.5 350,-5.5 481,-5.5 481,-35.5"/>
<text text-anchor="start" x="358" y="-23.5" font-family="Malgun Gothic" font-size="10.00">Source/YiSan/UI/Private</text>
<text text-anchor="middle" x="415.5" y="-12.5" font-family="Malgun Gothic" font-size="10.00">/UMainWdget.cpp</text>
</a>
</g>
</g>
<!-- Node3&#45;&gt;Node6 -->
<g id="edge5_Node000003_Node000006" class="edge">
<title>Node3&#45;&gt;Node6</title>
<g id="a_edge5_Node000003_Node000006"><a xlink:title=" ">
<path fill="none" stroke="#63b8ff" d="M290.19,-78.12C319.26,-64.98 357.79,-47.57 384.42,-35.54"/>
<polygon fill="#63b8ff" stroke="#63b8ff" points="288.4,-75.09 280.72,-82.39 291.28,-81.47 288.4,-75.09"/>
</a>
</g>
</g>
</g>
</svg>
</svg>

<style type='text/css'>
<![CDATA[
[data-mouse-over-selected='false'] { opacity: 0.7; }
[data-mouse-over-selected='true']  { opacity: 1.0; }
]]>
</style>
<script type="application/ecmascript"><![CDATA[
document.addEventListener('DOMContentLoaded', (event) => {
  highlightEdges();
  highlightAdjacentNodes();
});
]]></script>
</svg>
