<?xml version="1.0" encoding="UTF-8" standalone="no"?>
<!DOCTYPE svg PUBLIC "-//W3C//DTD SVG 1.1//EN"
 "http://www.w3.org/Graphics/SVG/1.1/DTD/svg11.dtd">
<!-- Generated by graphviz version 2.43.0 (0)
 -->
<!-- Title: Source/LatteLibrary/Character/Public/IControllable.h Pages: 1 -->
<svg width="383pt" height="93pt"
 viewBox="0.00 0.00 383.00 93.00" xmlns="http://www.w3.org/2000/svg" xmlns:xlink="http://www.w3.org/1999/xlink">
<g id="graph0" class="graph" transform="scale(1 1) rotate(0) translate(4 89)">
<title>Source/LatteLibrary/Character/Public/IControllable.h</title>
<!-- Node1 -->
<g id="Node000001" class="node">
<title>Node1</title>
<g id="a_Node000001"><a xlink:title="IControllable 인터페이스 선언에 대한 Doxygen 주석을 제공합니다.">
<polygon fill="#999999" stroke="#666666" points="247.5,-85 74.5,-85 74.5,-55 247.5,-55 247.5,-85"/>
<text text-anchor="start" x="82.5" y="-73" font-family="Malgun Gothic" font-size="10.00">Source/LatteLibrary</text>
<text text-anchor="middle" x="161" y="-62" font-family="Malgun Gothic" font-size="10.00">/Character/Public/IControllable.h</text>
</a>
</g>
</g>
<!-- Node2 -->
<g id="Node000002" class="node">
<title>Node2</title>
<g id="a_Node000002"><a xlink:title=" ">
<polygon fill="#e0e0e0" stroke="#999999" points="88,-19 0,-19 0,0 88,0 88,-19"/>
<text text-anchor="middle" x="44" y="-7" font-family="Malgun Gothic" font-size="10.00">CoreMinimal.h</text>
</a>
</g>
</g>
<!-- Node1&#45;&gt;Node2 -->
<g id="edge1_Node000001_Node000002" class="edge">
<title>Node1&#45;&gt;Node2</title>
<g id="a_edge1_Node000001_Node000002"><a xlink:title=" ">
<path fill="none" stroke="#63b8ff" d="M132.98,-54.99C113.98,-45.49 89.03,-33.02 70.39,-23.69"/>
<polygon fill="#63b8ff" stroke="#63b8ff" points="71.79,-20.48 61.28,-19.14 68.66,-26.74 71.79,-20.48"/>
</a>
</g>
</g>
<!-- Node3 -->
<g id="Node000003" class="node">
<title>Node3</title>
<g id="a_Node000003"><a xlink:title=" ">
<polygon fill="#e0e0e0" stroke="#999999" points="216.5,-19 105.5,-19 105.5,0 216.5,0 216.5,-19"/>
<text text-anchor="middle" x="161" y="-7" font-family="Malgun Gothic" font-size="10.00">UObject/Interface.h</text>
</a>
</g>
</g>
<!-- Node1&#45;&gt;Node3 -->
<g id="edge2_Node000001_Node000003" class="edge">
<title>Node1&#45;&gt;Node3</title>
<g id="a_edge2_Node000001_Node000003"><a xlink:title=" ">
<path fill="none" stroke="#63b8ff" d="M161,-54.84C161,-47.21 161,-37.7 161,-29.45"/>
<polygon fill="#63b8ff" stroke="#63b8ff" points="164.5,-29.27 161,-19.27 157.5,-29.27 164.5,-29.27"/>
</a>
</g>
</g>
<!-- Node4 -->
<g id="Node000004" class="node">
<title>Node4</title>
<g id="a_Node000004"><a xlink:title=" ">
<polygon fill="#e0e0e0" stroke="#999999" points="375,-19 235,-19 235,0 375,0 375,-19"/>
<text text-anchor="middle" x="305" y="-7" font-family="Malgun Gothic" font-size="10.00">IControllable.generated.h</text>
</a>
</g>
</g>
<!-- Node1&#45;&gt;Node4 -->
<g id="edge3_Node000001_Node000004" class="edge">
<title>Node1&#45;&gt;Node4</title>
<g id="a_edge3_Node000001_Node000004"><a xlink:title=" ">
<path fill="none" stroke="#63b8ff" d="M195.49,-54.99C219.52,-45.23 251.27,-32.33 274.4,-22.93"/>
<polygon fill="#63b8ff" stroke="#63b8ff" points="275.79,-26.15 283.73,-19.14 273.15,-19.66 275.79,-26.15"/>
</a>
</g>
</g>
</g>
</svg>
