<?xml version="1.0" encoding="UTF-8" standalone="no"?>
<!DOCTYPE svg PUBLIC "-//W3C//DTD SVG 1.1//EN"
 "http://www.w3.org/Graphics/SVG/1.1/DTD/svg11.dtd">
<!-- Generated by graphviz version 2.43.0 (0)
 -->
<!-- Title: 그래픽컬한 클래스 계통도 Pages: 1 -->
<svg width="301pt" height="64pt"
 viewBox="0.00 0.00 301.00 64.00" xmlns="http://www.w3.org/2000/svg" xmlns:xlink="http://www.w3.org/1999/xlink">
<g id="graph0" class="graph" transform="scale(1 1) rotate(0) translate(4 60)">
<title>그래픽컬한 클래스 계통도</title>
<!-- Node0 -->
<g id="Node000000" class="node">
<title>Node0</title>
<g id="a_Node000000"><a xlink:title=" ">
<polygon fill="#e0e0e0" stroke="#999999" points="114,-37 0,-37 0,-18 114,-18 114,-37"/>
<text text-anchor="middle" x="57" y="-25" font-family="Malgun Gothic" font-size="10.00">UDeveloperSettings</text>
</a>
</g>
</g>
<!-- Node1 -->
<g id="Node000001" class="node">
<title>Node1</title>
<g id="a_Node000001"><a xlink:href="classUCustomNetworkSettings.html" target="_top" xlink:title=" ">
<polygon fill="white" stroke="#666666" points="293,-56 150,-56 150,-37 293,-37 293,-56"/>
<text text-anchor="middle" x="221.5" y="-44" font-family="Malgun Gothic" font-size="10.00">UCustomNetworkSettings</text>
</a>
</g>
</g>
<!-- Node0&#45;&gt;Node1 -->
<g id="edge24_Node000000_Node000001" class="edge">
<title>Node0&#45;&gt;Node1</title>
<g id="a_edge24_Node000000_Node000001"><a xlink:title=" ">
<path fill="none" stroke="#63b8ff" d="M124.47,-35.27C132.86,-36.25 141.46,-37.26 149.91,-38.25"/>
<polygon fill="#63b8ff" stroke="#63b8ff" points="124.72,-31.78 114.38,-34.09 123.9,-38.73 124.72,-31.78"/>
</a>
</g>
</g>
<!-- Node2 -->
<g id="Node000002" class="node">
<title>Node2</title>
<g id="a_Node000002"><a xlink:href="classUSpeechSettings.html" target="_top" xlink:title=" ">
<polygon fill="white" stroke="#666666" points="271,-19 172,-19 172,0 271,0 271,-19"/>
<text text-anchor="middle" x="221.5" y="-7" font-family="Malgun Gothic" font-size="10.00">USpeechSettings</text>
</a>
</g>
</g>
<!-- Node0&#45;&gt;Node2 -->
<g id="edge25_Node000000_Node000002" class="edge">
<title>Node0&#45;&gt;Node2</title>
<g id="a_edge25_Node000000_Node000002"><a xlink:title=" ">
<path fill="none" stroke="#63b8ff" d="M124.62,-20.12C140.42,-18.37 156.97,-16.54 171.8,-14.89"/>
<polygon fill="#63b8ff" stroke="#63b8ff" points="123.93,-16.68 114.38,-21.25 124.7,-23.63 123.93,-16.68"/>
</a>
</g>
</g>
</g>
</svg>
