<?xml version="1.0" encoding="UTF-8" standalone="no"?>
<!DOCTYPE svg PUBLIC "-//W3C//DTD SVG 1.1//EN"
 "http://www.w3.org/Graphics/SVG/1.1/DTD/svg11.dtd">
<!-- Generated by graphviz version 2.43.0 (0)
 -->
<!-- Title: 그래픽컬한 클래스 계통도 Pages: 1 -->
<svg width="331pt" height="64pt"
 viewBox="0.00 0.00 331.00 64.00" xmlns="http://www.w3.org/2000/svg" xmlns:xlink="http://www.w3.org/1999/xlink">
<g id="graph0" class="graph" transform="scale(1 1) rotate(0) translate(4 60)">
<title>그래픽컬한 클래스 계통도</title>
<!-- Node0 -->
<g id="Node000000" class="node">
<title>Node0</title>
<g id="a_Node000000"><a xlink:title=" ">
<polygon fill="#e0e0e0" stroke="#999999" points="71,-56 0,-56 0,-37 71,-37 71,-56"/>
<text text-anchor="middle" x="35.5" y="-44" font-family="Malgun Gothic" font-size="10.00">ACharacter</text>
</a>
</g>
</g>
<!-- Node1 -->
<g id="Node000001" class="node">
<title>Node1</title>
<g id="a_Node000001"><a xlink:href="classAGameCharacter.html" target="_top" xlink:title="전투, 능력치, 애니메이션 헬퍼를 연결하는 기반 캐릭터 구현입니다.">
<polygon fill="white" stroke="#666666" points="207,-56 107,-56 107,-37 207,-37 207,-56"/>
<text text-anchor="middle" x="157" y="-44" font-family="Malgun Gothic" font-size="10.00">AGameCharacter</text>
</a>
</g>
</g>
<!-- Node0&#45;&gt;Node1 -->
<g id="edge3_Node000000_Node000001" class="edge">
<title>Node0&#45;&gt;Node1</title>
<g id="a_edge3_Node000000_Node000001"><a xlink:title=" ">
<path fill="none" stroke="#63b8ff" d="M81.34,-46.5C89.66,-46.5 98.4,-46.5 106.85,-46.5"/>
<polygon fill="#63b8ff" stroke="#63b8ff" points="81.06,-43 71.06,-46.5 81.06,-50 81.06,-43"/>
</a>
</g>
</g>
<!-- Node2 -->
<g id="Node000002" class="node">
<title>Node2</title>
<g id="a_Node000002"><a xlink:href="classAPlayerActor.html" target="_top" xlink:title="Main character driven directly by the player.">
<polygon fill="white" stroke="#666666" points="323,-37 243,-37 243,-18 323,-18 323,-37"/>
<text text-anchor="middle" x="283" y="-25" font-family="Malgun Gothic" font-size="10.00">APlayerActor</text>
</a>
</g>
</g>
<!-- Node1&#45;&gt;Node2 -->
<g id="edge4_Node000001_Node000002" class="edge">
<title>Node1&#45;&gt;Node2</title>
<g id="a_edge4_Node000001_Node000002"><a xlink:title=" ">
<path fill="none" stroke="#63b8ff" d="M216.89,-37.48C225.72,-36.12 234.62,-34.76 242.89,-33.49"/>
<polygon fill="#63b8ff" stroke="#63b8ff" points="216.36,-34.02 207.01,-38.99 217.42,-40.94 216.36,-34.02"/>
</a>
</g>
</g>
<!-- Node3 -->
<g id="Node000003" class="node">
<title>Node3</title>
<g id="a_Node000003"><a xlink:href="classIControllable.html" target="_top" xlink:title=" ">
<polygon fill="white" stroke="#666666" points="196.5,-19 117.5,-19 117.5,0 196.5,0 196.5,-19"/>
<text text-anchor="middle" x="157" y="-7" font-family="Malgun Gothic" font-size="10.00">IControllable</text>
</a>
</g>
</g>
<!-- Node3&#45;&gt;Node2 -->
<g id="edge5_Node000003_Node000002" class="edge">
<title>Node3&#45;&gt;Node2</title>
<g id="a_edge5_Node000003_Node000002"><a xlink:title=" ">
<path fill="none" stroke="#63b8ff" d="M206.78,-16.58C218.66,-18.31 231.23,-20.13 242.61,-21.78"/>
<polygon fill="#63b8ff" stroke="#63b8ff" points="206.95,-13.07 196.55,-15.1 205.95,-20 206.95,-13.07"/>
</a>
</g>
</g>
</g>
</svg>
