<?xml version="1.0" encoding="UTF-8" standalone="no"?>
<!DOCTYPE svg PUBLIC "-//W3C//DTD SVG 1.1//EN"
 "http://www.w3.org/Graphics/SVG/1.1/DTD/svg11.dtd">
<!-- Generated by graphviz version 2.43.0 (0)
 -->
<!-- Title: 그래픽컬한 클래스 계통도 Pages: 1 -->
<svg width="212pt" height="64pt"
 viewBox="0.00 0.00 212.00 64.00" xmlns="http://www.w3.org/2000/svg" xmlns:xlink="http://www.w3.org/1999/xlink">
<g id="graph0" class="graph" transform="scale(1 1) rotate(0) translate(4 60)">
<title>그래픽컬한 클래스 계통도</title>
<!-- Node0 -->
<g id="Node000000" class="node">
<title>Node0</title>
<g id="a_Node000000"><a xlink:title=" ">
<polygon fill="#e0e0e0" stroke="#999999" points="49,-37 0,-37 0,-18 49,-18 49,-37"/>
<text text-anchor="middle" x="24.5" y="-25" font-family="Malgun Gothic" font-size="10.00">AActor</text>
</a>
</g>
</g>
<!-- Node1 -->
<g id="Node000001" class="node">
<title>Node1</title>
<g id="a_Node000001"><a xlink:href="classAListActorManager.html" target="_top" xlink:title="에디터에서 배열을 구성하기 위한 도우미 액터.">
<polygon fill="white" stroke="#666666" points="199,-56 90,-56 90,-37 199,-37 199,-56"/>
<text text-anchor="middle" x="144.5" y="-44" font-family="Malgun Gothic" font-size="10.00">AListActorManager</text>
</a>
</g>
</g>
<!-- Node0&#45;&gt;Node1 -->
<g id="edge1_Node000000_Node000001" class="edge">
<title>Node0&#45;&gt;Node1</title>
<g id="a_edge1_Node000000_Node000001"><a xlink:title=" ">
<path fill="none" stroke="#63b8ff" d="M58.98,-32.89C68.55,-34.43 79.23,-36.15 89.69,-37.84"/>
<polygon fill="#63b8ff" stroke="#63b8ff" points="59.52,-29.43 49.1,-31.3 58.41,-36.34 59.52,-29.43"/>
</a>
</g>
</g>
<!-- Node2 -->
<g id="Node000002" class="node">
<title>Node2</title>
<g id="a_Node000002"><a xlink:href="classANetworkTesterActor.html" target="_top" xlink:title=" ">
<polygon fill="white" stroke="#666666" points="204,-19 85,-19 85,0 204,0 204,-19"/>
<text text-anchor="middle" x="144.5" y="-7" font-family="Malgun Gothic" font-size="10.00">ANetworkTesterActor</text>
</a>
</g>
</g>
<!-- Node0&#45;&gt;Node2 -->
<g id="edge2_Node000000_Node000002" class="edge">
<title>Node0&#45;&gt;Node2</title>
<g id="a_edge2_Node000000_Node000002"><a xlink:title=" ">
<path fill="none" stroke="#63b8ff" d="M59.14,-22.37C67.17,-21.14 75.98,-19.8 84.77,-18.46"/>
<polygon fill="#63b8ff" stroke="#63b8ff" points="58.45,-18.93 49.1,-23.9 59.51,-25.85 58.45,-18.93"/>
</a>
</g>
</g>
</g>
</svg>
