<?xml version="1.0" encoding="UTF-8" standalone="no"?>
<!DOCTYPE svg PUBLIC "-//W3C//DTD SVG 1.1//EN"
 "http://www.w3.org/Graphics/SVG/1.1/DTD/svg11.dtd">
<!-- Generated by graphviz version 2.43.0 (0)
 -->
<!-- Title: 그래픽컬한 클래스 계통도 Pages: 1 -->
<svg width="410pt" height="83pt"
 viewBox="0.00 0.00 410.00 83.00" xmlns="http://www.w3.org/2000/svg" xmlns:xlink="http://www.w3.org/1999/xlink">
<g id="graph0" class="graph" transform="scale(1 1) rotate(0) translate(4 79)">
<title>그래픽컬한 클래스 계통도</title>
<!-- Node0 -->
<g id="Node000000" class="node">
<title>Node0</title>
<g id="a_Node000000"><a xlink:title=" ">
<polygon fill="#e0e0e0" stroke="#999999" points="75,-56 4,-56 4,-37 75,-37 75,-56"/>
<text text-anchor="middle" x="39.5" y="-44" font-family="Malgun Gothic" font-size="10.00">ACharacter</text>
</a>
</g>
</g>
<!-- Node1 -->
<g id="Node000001" class="node">
<title>Node1</title>
<g id="a_Node000001"><a xlink:href="classALatteGameCharacter.html" target="_top" xlink:title="전투, 능력치, 애니메이션 헬퍼를 연결하는 기반 캐릭터 구현입니다.">
<polygon fill="white" stroke="#666666" points="240,-75 115,-75 115,-56 240,-56 240,-75"/>
<text text-anchor="middle" x="177.5" y="-63" font-family="Malgun Gothic" font-size="10.00">ALatteGameCharacter</text>
</a>
</g>
</g>
<!-- Node0&#45;&gt;Node1 -->
<g id="edge4_Node000000_Node000001" class="edge">
<title>Node0&#45;&gt;Node1</title>
<g id="a_edge4_Node000000_Node000001"><a xlink:title=" ">
<path fill="none" stroke="#63b8ff" d="M85.18,-52.74C94.7,-54.07 104.91,-55.5 114.93,-56.9"/>
<polygon fill="#63b8ff" stroke="#63b8ff" points="85.56,-49.26 75.17,-51.34 84.59,-56.19 85.56,-49.26"/>
</a>
</g>
</g>
<!-- Node4 -->
<g id="Node000004" class="node">
<title>Node4</title>
<g id="a_Node000004"><a xlink:href="classAPlayerActor.html" target="_top" xlink:title=" ">
<polygon fill="white" stroke="#666666" points="217.5,-38 137.5,-38 137.5,-19 217.5,-19 217.5,-38"/>
<text text-anchor="middle" x="177.5" y="-26" font-family="Malgun Gothic" font-size="10.00">APlayerActor</text>
</a>
</g>
</g>
<!-- Node0&#45;&gt;Node4 -->
<g id="edge6_Node000000_Node000004" class="edge">
<title>Node0&#45;&gt;Node4</title>
<g id="a_edge6_Node000000_Node000004"><a xlink:title=" ">
<path fill="none" stroke="#63b8ff" d="M85.27,-40.57C102,-38.36 120.87,-35.86 137.08,-33.72"/>
<polygon fill="#63b8ff" stroke="#63b8ff" points="84.62,-37.13 75.17,-41.91 85.54,-44.07 84.62,-37.13"/>
</a>
</g>
</g>
<!-- Node2 -->
<g id="Node000002" class="node">
<title>Node2</title>
<g id="a_Node000002"><a xlink:href="classALattePlayerCharacter.html" target="_top" xlink:title="Main character driven directly by the player.">
<polygon fill="white" stroke="#666666" points="402,-37 276,-37 276,-18 402,-18 402,-37"/>
<text text-anchor="middle" x="339" y="-25" font-family="Malgun Gothic" font-size="10.00">ALattePlayerCharacter</text>
</a>
</g>
</g>
<!-- Node1&#45;&gt;Node2 -->
<g id="edge5_Node000001_Node000002" class="edge">
<title>Node1&#45;&gt;Node2</title>
<g id="a_edge5_Node000001_Node000002"><a xlink:title=" ">
<path fill="none" stroke="#63b8ff" d="M228.73,-53.53C251.09,-48.21 277.04,-42.02 298.04,-37.02"/>
<polygon fill="#63b8ff" stroke="#63b8ff" points="227.67,-50.19 218.75,-55.91 229.29,-57 227.67,-50.19"/>
</a>
</g>
</g>
<!-- Node3 -->
<g id="Node000003" class="node">
<title>Node3</title>
<g id="a_Node000003"><a xlink:href="classIControllable.html" target="_top" xlink:title=" ">
<polygon fill="white" stroke="#666666" points="79,-19 0,-19 0,0 79,0 79,-19"/>
<text text-anchor="middle" x="39.5" y="-7" font-family="Malgun Gothic" font-size="10.00">IControllable</text>
</a>
</g>
</g>
<!-- Node3&#45;&gt;Node2 -->
<g id="edge7_Node000003_Node000002" class="edge">
<title>Node3&#45;&gt;Node2</title>
<g id="a_edge7_Node000003_Node000002"><a xlink:title=" ">
<path fill="none" stroke="#63b8ff" d="M89.34,-7.03C129.8,-5.58 188.76,-4.83 240,-9.5 258.26,-11.16 278.2,-14.54 295.3,-17.92"/>
<polygon fill="#63b8ff" stroke="#63b8ff" points="89.07,-3.54 79.21,-7.43 89.34,-10.54 89.07,-3.54"/>
</a>
</g>
</g>
<!-- Node3&#45;&gt;Node4 -->
<g id="edge8_Node000003_Node000004" class="edge">
<title>Node3&#45;&gt;Node4</title>
<g id="a_edge8_Node000003_Node000004"><a xlink:title=" ">
<path fill="none" stroke="#63b8ff" d="M89.23,-16.31C105.02,-18.51 122.32,-20.93 137.32,-23.03"/>
<polygon fill="#63b8ff" stroke="#63b8ff" points="89.5,-12.81 79.11,-14.89 88.53,-19.74 89.5,-12.81"/>
</a>
</g>
</g>
</g>
</svg>
