<?xml version="1.0" encoding="UTF-8" standalone="no"?>
<!DOCTYPE svg PUBLIC "-//W3C//DTD SVG 1.1//EN"
 "http://www.w3.org/Graphics/SVG/1.1/DTD/svg11.dtd">
<!-- Generated by graphviz version 2.43.0 (0)
 -->
<!-- Title: 그래픽컬한 클래스 계통도 Pages: 1 -->
<svg width="239pt" height="64pt"
 viewBox="0.00 0.00 239.00 64.00" xmlns="http://www.w3.org/2000/svg" xmlns:xlink="http://www.w3.org/1999/xlink">
<g id="graph0" class="graph" transform="scale(1 1) rotate(0) translate(4 60)">
<title>그래픽컬한 클래스 계통도</title>
<!-- Node0 -->
<g id="Node000000" class="node">
<title>Node0</title>
<g id="a_Node000000"><a xlink:title=" ">
<polygon fill="#e0e0e0" stroke="#999999" points="68,-37 0,-37 0,-18 68,-18 68,-37"/>
<text text-anchor="middle" x="34" y="-25" font-family="Malgun Gothic" font-size="10.00">UInterface</text>
</a>
</g>
</g>
<!-- Node1 -->
<g id="Node000001" class="node">
<title>Node1</title>
<g id="a_Node000001"><a xlink:href="classUControllable.html" target="_top" xlink:title=" ">
<polygon fill="white" stroke="#666666" points="209,-56 126,-56 126,-37 209,-37 209,-56"/>
<text text-anchor="middle" x="167.5" y="-44" font-family="Malgun Gothic" font-size="10.00">UControllable</text>
</a>
</g>
</g>
<!-- Node0&#45;&gt;Node1 -->
<g id="edge30_Node000000_Node000001" class="edge">
<title>Node0&#45;&gt;Node1</title>
<g id="a_edge30_Node000000_Node000001"><a xlink:title=" ">
<path fill="none" stroke="#63b8ff" d="M78.41,-33.77C93.68,-35.98 110.77,-38.45 125.8,-40.62"/>
<polygon fill="#63b8ff" stroke="#63b8ff" points="78.58,-30.26 68.18,-32.29 77.58,-37.19 78.58,-30.26"/>
</a>
</g>
</g>
<!-- Node2 -->
<g id="Node000002" class="node">
<title>Node2</title>
<g id="a_Node000002"><a xlink:href="classUSequenceActivatable.html" target="_top" xlink:title=" ">
<polygon fill="white" stroke="#666666" points="231,-19 104,-19 104,0 231,0 231,-19"/>
<text text-anchor="middle" x="167.5" y="-7" font-family="Malgun Gothic" font-size="10.00">USequenceActivatable</text>
</a>
</g>
</g>
<!-- Node0&#45;&gt;Node2 -->
<g id="edge31_Node000000_Node000002" class="edge">
<title>Node0&#45;&gt;Node2</title>
<g id="a_edge31_Node000000_Node000002"><a xlink:title=" ">
<path fill="none" stroke="#63b8ff" d="M78.25,-21.58C86.46,-20.46 95.19,-19.26 103.86,-18.07"/>
<polygon fill="#63b8ff" stroke="#63b8ff" points="77.62,-18.13 68.18,-22.96 78.57,-25.07 77.62,-18.13"/>
</a>
</g>
</g>
</g>
</svg>
