<?xml version="1.0" encoding="UTF-8" standalone="no"?>
<!DOCTYPE svg PUBLIC "-//W3C//DTD SVG 1.1//EN"
 "http://www.w3.org/Graphics/SVG/1.1/DTD/svg11.dtd">
<!-- Generated by graphviz version 2.43.0 (0)
 -->
<!-- Title: 그래픽컬한 클래스 계통도 Pages: 1 -->
<svg width="212pt" height="101pt"
 viewBox="0.00 0.00 212.00 101.00" xmlns="http://www.w3.org/2000/svg" xmlns:xlink="http://www.w3.org/1999/xlink">
<g id="graph0" class="graph" transform="scale(1 1) rotate(0) translate(4 97)">
<title>그래픽컬한 클래스 계통도</title>
<!-- Node0 -->
<g id="Node000000" class="node">
<title>Node0</title>
<g id="a_Node000000"><a xlink:title=" ">
<polygon fill="#e0e0e0" stroke="#999999" points="49,-56 0,-56 0,-37 49,-37 49,-56"/>
<text text-anchor="middle" x="24.5" y="-44" font-family="Malgun Gothic" font-size="10.00">AActor</text>
</a>
</g>
</g>
<!-- Node1 -->
<g id="Node000001" class="node">
<title>Node1</title>
<g id="a_Node000001"><a xlink:href="classAGate.html" target="_top" xlink:title=" ">
<polygon fill="white" stroke="#666666" points="168,-93 121,-93 121,-74 168,-74 168,-93"/>
<text text-anchor="middle" x="144.5" y="-81" font-family="Malgun Gothic" font-size="10.00">AGate</text>
</a>
</g>
</g>
<!-- Node0&#45;&gt;Node1 -->
<g id="edge1_Node000000_Node000001" class="edge">
<title>Node0&#45;&gt;Node1</title>
<g id="a_edge1_Node000000_Node000001"><a xlink:title=" ">
<path fill="none" stroke="#63b8ff" d="M58.86,-57.22C67.38,-59.94 76.52,-62.84 85,-65.5 96.86,-69.22 110.1,-73.3 120.98,-76.63"/>
<polygon fill="#63b8ff" stroke="#63b8ff" points="59.81,-53.85 49.22,-54.14 57.68,-60.52 59.81,-53.85"/>
</a>
</g>
</g>
<!-- Node2 -->
<g id="Node000002" class="node">
<title>Node2</title>
<g id="a_Node000002"><a xlink:href="classAListActorManager.html" target="_top" xlink:title="에디터에서 배열을 구성하기 위한 도우미 액터.">
<polygon fill="white" stroke="#666666" points="199,-56 90,-56 90,-37 199,-37 199,-56"/>
<text text-anchor="middle" x="144.5" y="-44" font-family="Malgun Gothic" font-size="10.00">AListActorManager</text>
</a>
</g>
</g>
<!-- Node0&#45;&gt;Node2 -->
<g id="edge2_Node000000_Node000002" class="edge">
<title>Node0&#45;&gt;Node2</title>
<g id="a_edge2_Node000000_Node000002"><a xlink:title=" ">
<path fill="none" stroke="#63b8ff" d="M59.29,-46.5C68.78,-46.5 79.34,-46.5 89.69,-46.5"/>
<polygon fill="#63b8ff" stroke="#63b8ff" points="59.1,-43 49.1,-46.5 59.1,-50 59.1,-43"/>
</a>
</g>
</g>
<!-- Node3 -->
<g id="Node000003" class="node">
<title>Node3</title>
<g id="a_Node000003"><a xlink:href="classANetworkTesterActor.html" target="_top" xlink:title=" ">
<polygon fill="white" stroke="#666666" points="204,-19 85,-19 85,0 204,0 204,-19"/>
<text text-anchor="middle" x="144.5" y="-7" font-family="Malgun Gothic" font-size="10.00">ANetworkTesterActor</text>
</a>
</g>
</g>
<!-- Node0&#45;&gt;Node3 -->
<g id="edge3_Node000000_Node000003" class="edge">
<title>Node0&#45;&gt;Node3</title>
<g id="a_edge3_Node000000_Node000003"><a xlink:title=" ">
<path fill="none" stroke="#63b8ff" d="M59.1,-35.96C75.99,-30.67 96.31,-24.3 112.78,-19.13"/>
<polygon fill="#63b8ff" stroke="#63b8ff" points="57.59,-32.77 49.1,-39.1 59.68,-39.45 57.59,-32.77"/>
</a>
</g>
</g>
</g>
</svg>
