<?xml version="1.0" encoding="UTF-8" standalone="no"?>
<!DOCTYPE svg PUBLIC "-//W3C//DTD SVG 1.1//EN"
 "http://www.w3.org/Graphics/SVG/1.1/DTD/svg11.dtd">
<!-- Generated by graphviz version 2.43.0 (0)
 -->
<!-- Title: 그래픽컬한 클래스 계통도 Pages: 1 -->
<svg width="328pt" height="64pt"
 viewBox="0.00 0.00 328.00 64.00" xmlns="http://www.w3.org/2000/svg" xmlns:xlink="http://www.w3.org/1999/xlink">
<g id="graph0" class="graph" transform="scale(1 1) rotate(0) translate(4 60)">
<title>그래픽컬한 클래스 계통도</title>
<!-- Node0 -->
<g id="Node000000" class="node">
<title>Node0</title>
<g id="a_Node000000"><a xlink:title=" ">
<polygon fill="#e0e0e0" stroke="#999999" points="114,-37 0,-37 0,-18 114,-18 114,-37"/>
<text text-anchor="middle" x="57" y="-25" font-family="Malgun Gothic" font-size="10.00">UDeveloperSettings</text>
</a>
</g>
</g>
<!-- Node1 -->
<g id="Node000001" class="node">
<title>Node1</title>
<g id="a_Node000001"><a xlink:href="classUCustomNetworkSettings.html" target="_top" xlink:title=" ">
<polygon fill="white" stroke="#666666" points="306.5,-56 163.5,-56 163.5,-37 306.5,-37 306.5,-56"/>
<text text-anchor="middle" x="235" y="-44" font-family="Malgun Gothic" font-size="10.00">UCustomNetworkSettings</text>
</a>
</g>
</g>
<!-- Node0&#45;&gt;Node1 -->
<g id="edge20_Node000000_Node000001" class="edge">
<title>Node0&#45;&gt;Node1</title>
<g id="a_edge20_Node000000_Node000001"><a xlink:title=" ">
<path fill="none" stroke="#63b8ff" d="M124.22,-34.65C136.96,-36.02 150.34,-37.47 163.21,-38.86"/>
<polygon fill="#63b8ff" stroke="#63b8ff" points="124.49,-31.16 114.17,-33.56 123.74,-38.12 124.49,-31.16"/>
</a>
</g>
</g>
<!-- Node2 -->
<g id="Node000002" class="node">
<title>Node2</title>
<g id="a_Node000002"><a xlink:href="classUGoogleSpeechServiceSettings.html" target="_top" xlink:title="Developer settings for Google Speech services.">
<polygon fill="white" stroke="#666666" points="320,-19 150,-19 150,0 320,0 320,-19"/>
<text text-anchor="middle" x="235" y="-7" font-family="Malgun Gothic" font-size="10.00">UGoogleSpeechServiceSettings</text>
</a>
</g>
</g>
<!-- Node0&#45;&gt;Node2 -->
<g id="edge21_Node000000_Node000002" class="edge">
<title>Node0&#45;&gt;Node2</title>
<g id="a_edge21_Node000000_Node000002"><a xlink:title=" ">
<path fill="none" stroke="#63b8ff" d="M124.21,-20.73C132.58,-19.87 141.22,-18.99 149.82,-18.11"/>
<polygon fill="#63b8ff" stroke="#63b8ff" points="123.76,-17.26 114.17,-21.76 124.48,-24.22 123.76,-17.26"/>
</a>
</g>
</g>
</g>
</svg>
