<?xml version="1.0" encoding="UTF-8" standalone="no"?>
<!DOCTYPE svg PUBLIC "-//W3C//DTD SVG 1.1//EN"
 "http://www.w3.org/Graphics/SVG/1.1/DTD/svg11.dtd">
<!-- Generated by graphviz version 2.43.0 (0)
 -->
<!-- Title: 그래픽컬한 클래스 계통도 Pages: 1 -->
<svg width="213pt" height="101pt"
 viewBox="0.00 0.00 213.00 101.00" xmlns="http://www.w3.org/2000/svg" xmlns:xlink="http://www.w3.org/1999/xlink">
<g id="graph0" class="graph" transform="scale(1 1) rotate(0) translate(4 97)">
<title>그래픽컬한 클래스 계통도</title>
<!-- Node0 -->
<g id="Node000000" class="node">
<title>Node0</title>
<g id="a_Node000000"><a xlink:title=" ">
<polygon fill="#e0e0e0" stroke="#999999" points="74,-56 0,-56 0,-37 74,-37 74,-56"/>
<text text-anchor="middle" x="37" y="-44" font-family="Malgun Gothic" font-size="10.00">UDataAsset</text>
</a>
</g>
</g>
<!-- Node1 -->
<g id="Node000001" class="node">
<title>Node1</title>
<g id="a_Node000001"><a xlink:href="classUCharacterData.html" target="_top" xlink:title=" ">
<polygon fill="white" stroke="#666666" points="205,-93 110,-93 110,-74 205,-74 205,-93"/>
<text text-anchor="middle" x="157.5" y="-81" font-family="Malgun Gothic" font-size="10.00">UCharacterData</text>
</a>
</g>
</g>
<!-- Node0&#45;&gt;Node1 -->
<g id="edge17_Node000000_Node000001" class="edge">
<title>Node0&#45;&gt;Node1</title>
<g id="a_edge17_Node000000_Node000001"><a xlink:title=" ">
<path fill="none" stroke="#63b8ff" d="M78.36,-59.1C93.84,-63.93 111.23,-69.37 125.67,-73.88"/>
<polygon fill="#63b8ff" stroke="#63b8ff" points="79.11,-55.67 68.52,-56.03 77.02,-62.35 79.11,-55.67"/>
</a>
</g>
</g>
<!-- Node2 -->
<g id="Node000002" class="node">
<title>Node2</title>
<g id="a_Node000002"><a xlink:href="classUSoundData.html" target="_top" xlink:title=" ">
<polygon fill="white" stroke="#666666" points="196,-56 119,-56 119,-37 196,-37 196,-56"/>
<text text-anchor="middle" x="157.5" y="-44" font-family="Malgun Gothic" font-size="10.00">USoundData</text>
</a>
</g>
</g>
<!-- Node0&#45;&gt;Node2 -->
<g id="edge18_Node000000_Node000002" class="edge">
<title>Node0&#45;&gt;Node2</title>
<g id="a_edge18_Node000000_Node000002"><a xlink:title=" ">
<path fill="none" stroke="#63b8ff" d="M84.44,-46.5C95.86,-46.5 107.94,-46.5 118.88,-46.5"/>
<polygon fill="#63b8ff" stroke="#63b8ff" points="84.2,-43 74.2,-46.5 84.2,-50 84.2,-43"/>
</a>
</g>
</g>
<!-- Node3 -->
<g id="Node000003" class="node">
<title>Node3</title>
<g id="a_Node000003"><a xlink:href="classUVFXDataAsset.html" target="_top" xlink:title=" ">
<polygon fill="white" stroke="#666666" points="204.5,-19 110.5,-19 110.5,0 204.5,0 204.5,-19"/>
<text text-anchor="middle" x="157.5" y="-7" font-family="Malgun Gothic" font-size="10.00">UVFXDataAsset</text>
</a>
</g>
</g>
<!-- Node0&#45;&gt;Node3 -->
<g id="edge19_Node000000_Node000003" class="edge">
<title>Node0&#45;&gt;Node3</title>
<g id="a_edge19_Node000000_Node000003"><a xlink:title=" ">
<path fill="none" stroke="#63b8ff" d="M78.36,-33.9C93.84,-29.07 111.23,-23.63 125.67,-19.12"/>
<polygon fill="#63b8ff" stroke="#63b8ff" points="77.02,-30.65 68.52,-36.97 79.11,-37.33 77.02,-30.65"/>
</a>
</g>
</g>
</g>
</svg>
