<?xml version="1.0" encoding="UTF-8" standalone="no"?>
<!DOCTYPE svg PUBLIC "-//W3C//DTD SVG 1.1//EN"
 "http://www.w3.org/Graphics/SVG/1.1/DTD/svg11.dtd">
<!-- Generated by graphviz version 2.43.0 (0)
 -->
<!-- Title: 그래픽컬한 클래스 계통도 Pages: 1 -->
<svg width="363pt" height="360pt"
 viewBox="0.00 0.00 363.00 360.00" xmlns="http://www.w3.org/2000/svg" xmlns:xlink="http://www.w3.org/1999/xlink">
<g id="graph0" class="graph" transform="scale(1 1) rotate(0) translate(4 356)">
<title>그래픽컬한 클래스 계통도</title>
<!-- Node0 -->
<g id="Node000000" class="node">
<title>Node0</title>
<g id="a_Node000000"><a xlink:title=" ">
<polygon fill="#e0e0e0" stroke="#999999" points="149,-185 0,-185 0,-166 149,-166 149,-185"/>
<text text-anchor="middle" x="74.5" y="-173" font-family="Malgun Gothic" font-size="10.00">UGameInstanceSubsystem</text>
</a>
</g>
</g>
<!-- Node1 -->
<g id="Node000001" class="node">
<title>Node1</title>
<g id="a_Node000001"><a xlink:href="classUBroadcastManger.html" target="_top" xlink:title=" ">
<polygon fill="white" stroke="#666666" points="325,-352 215,-352 215,-333 325,-333 325,-352"/>
<text text-anchor="middle" x="270" y="-340" font-family="Malgun Gothic" font-size="10.00">UBroadcastManger</text>
</a>
</g>
</g>
<!-- Node0&#45;&gt;Node1 -->
<g id="edge21_Node000000_Node000001" class="edge">
<title>Node0&#45;&gt;Node1</title>
<g id="a_edge21_Node000000_Node000001"><a xlink:title=" ">
<path fill="none" stroke="#63b8ff" d="M83.7,-194.21C98.8,-226.32 134.16,-291.62 185,-324.5 193.89,-330.25 204.31,-334.2 214.73,-336.89"/>
<polygon fill="#63b8ff" stroke="#63b8ff" points="86.85,-192.69 79.52,-185.04 80.48,-195.59 86.85,-192.69"/>
</a>
</g>
</g>
<!-- Node2 -->
<g id="Node000002" class="node">
<title>Node2</title>
<g id="a_Node000002"><a xlink:href="classUDelayTaskManager.html" target="_top" xlink:title=" ">
<polygon fill="white" stroke="#666666" points="328.5,-315 211.5,-315 211.5,-296 328.5,-296 328.5,-315"/>
<text text-anchor="middle" x="270" y="-303" font-family="Malgun Gothic" font-size="10.00">UDelayTaskManager</text>
</a>
</g>
</g>
<!-- Node0&#45;&gt;Node2 -->
<g id="edge22_Node000000_Node000002" class="edge">
<title>Node0&#45;&gt;Node2</title>
<g id="a_edge22_Node000000_Node000002"><a xlink:title=" ">
<path fill="none" stroke="#63b8ff" d="M87.69,-193.42C105.82,-218.6 142.37,-264 185,-287.5 193.1,-291.96 202.2,-295.32 211.35,-297.85"/>
<polygon fill="#63b8ff" stroke="#63b8ff" points="90.48,-191.3 81.86,-185.13 84.75,-195.33 90.48,-191.3"/>
</a>
</g>
</g>
<!-- Node3 -->
<g id="Node000003" class="node">
<title>Node3</title>
<g id="a_Node000003"><a xlink:href="classUGameDataManager.html" target="_top" xlink:title=" ">
<polygon fill="white" stroke="#666666" points="329.5,-278 210.5,-278 210.5,-259 329.5,-259 329.5,-278"/>
<text text-anchor="middle" x="270" y="-266" font-family="Malgun Gothic" font-size="10.00">UGameDataManager</text>
</a>
</g>
</g>
<!-- Node0&#45;&gt;Node3 -->
<g id="edge23_Node000000_Node000003" class="edge">
<title>Node0&#45;&gt;Node3</title>
<g id="a_edge23_Node000000_Node000003"><a xlink:title=" ">
<path fill="none" stroke="#63b8ff" d="M94.17,-191.71C114.95,-208.88 150.2,-235.55 185,-250.5 192.95,-253.91 201.61,-256.71 210.24,-258.98"/>
<polygon fill="#63b8ff" stroke="#63b8ff" points="96.35,-188.96 86.45,-185.2 91.84,-194.32 96.35,-188.96"/>
</a>
</g>
</g>
<!-- Node4 -->
<g id="Node000004" class="node">
<title>Node4</title>
<g id="a_Node000004"><a xlink:href="classUGameSoundManager.html" target="_top" xlink:title=" ">
<polygon fill="white" stroke="#666666" points="333,-241 207,-241 207,-222 333,-222 333,-241"/>
<text text-anchor="middle" x="270" y="-229" font-family="Malgun Gothic" font-size="10.00">UGameSoundManager</text>
</a>
</g>
</g>
<!-- Node0&#45;&gt;Node4 -->
<g id="edge24_Node000000_Node000004" class="edge">
<title>Node0&#45;&gt;Node4</title>
<g id="a_edge24_Node000000_Node000004"><a xlink:title=" ">
<path fill="none" stroke="#63b8ff" d="M110.06,-188.72C131.44,-196.59 159.57,-206.39 185,-213.5 196.06,-216.59 208.07,-219.45 219.45,-221.94"/>
<polygon fill="#63b8ff" stroke="#63b8ff" points="111.04,-185.35 100.45,-185.14 108.6,-191.91 111.04,-185.35"/>
</a>
</g>
</g>
<!-- Node5 -->
<g id="Node000005" class="node">
<title>Node5</title>
<g id="a_Node000005"><a xlink:href="classUGameVFXManager.html" target="_top" xlink:title=" ">
<polygon fill="white" stroke="#666666" points="328,-204 212,-204 212,-185 328,-185 328,-204"/>
<text text-anchor="middle" x="270" y="-192" font-family="Malgun Gothic" font-size="10.00">UGameVFXManager</text>
</a>
</g>
</g>
<!-- Node0&#45;&gt;Node5 -->
<g id="edge25_Node000000_Node000005" class="edge">
<title>Node0&#45;&gt;Node5</title>
<g id="a_edge25_Node000000_Node000005"><a xlink:title=" ">
<path fill="none" stroke="#63b8ff" d="M159.51,-183.75C177.15,-185.48 195.36,-187.27 211.75,-188.88"/>
<polygon fill="#63b8ff" stroke="#63b8ff" points="159.5,-180.23 149.21,-182.74 158.82,-187.2 159.5,-180.23"/>
</a>
</g>
</g>
<!-- Node6 -->
<g id="Node000006" class="node">
<title>Node6</title>
<g id="a_Node000006"><a xlink:href="classUHttpNetworkSystem.html" target="_top" xlink:title=" ">
<polygon fill="white" stroke="#666666" points="331.5,-167 208.5,-167 208.5,-148 331.5,-148 331.5,-167"/>
<text text-anchor="middle" x="270" y="-155" font-family="Malgun Gothic" font-size="10.00">UHttpNetworkSystem</text>
</a>
</g>
</g>
<!-- Node0&#45;&gt;Node6 -->
<g id="edge26_Node000000_Node000006" class="edge">
<title>Node0&#45;&gt;Node6</title>
<g id="a_edge26_Node000000_Node000006"><a xlink:title=" ">
<path fill="none" stroke="#63b8ff" d="M159.38,-167.7C175.86,-166.16 192.85,-164.58 208.39,-163.14"/>
<polygon fill="#63b8ff" stroke="#63b8ff" points="158.84,-164.23 149.21,-168.64 159.49,-171.2 158.84,-164.23"/>
</a>
</g>
</g>
<!-- Node7 -->
<g id="Node000007" class="node">
<title>Node7</title>
<g id="a_Node000007"><a xlink:href="classUObjectPoolManager.html" target="_top" xlink:title=" ">
<polygon fill="white" stroke="#666666" points="329.5,-130 210.5,-130 210.5,-111 329.5,-111 329.5,-130"/>
<text text-anchor="middle" x="270" y="-118" font-family="Malgun Gothic" font-size="10.00">UObjectPoolManager</text>
</a>
</g>
</g>
<!-- Node0&#45;&gt;Node7 -->
<g id="edge27_Node000000_Node000007" class="edge">
<title>Node0&#45;&gt;Node7</title>
<g id="a_edge27_Node000000_Node000007"><a xlink:title=" ">
<path fill="none" stroke="#63b8ff" d="M111.85,-162.58C133.04,-155.3 160.36,-146.32 185,-139.5 197.25,-136.11 210.62,-132.88 223.03,-130.07"/>
<polygon fill="#63b8ff" stroke="#63b8ff" points="110.58,-159.32 102.28,-165.9 112.88,-165.93 110.58,-159.32"/>
</a>
</g>
</g>
<!-- Node8 -->
<g id="Node000008" class="node">
<title>Node8</title>
<g id="a_Node000008"><a xlink:href="classUSequenceManager.html" target="_top" xlink:title=" ">
<polygon fill="white" stroke="#666666" points="327,-93 213,-93 213,-74 327,-74 327,-93"/>
<text text-anchor="middle" x="270" y="-81" font-family="Malgun Gothic" font-size="10.00">USequenceManager</text>
</a>
</g>
</g>
<!-- Node0&#45;&gt;Node8 -->
<g id="edge28_Node000000_Node000008" class="edge">
<title>Node0&#45;&gt;Node8</title>
<g id="a_edge28_Node000000_Node000008"><a xlink:title=" ">
<path fill="none" stroke="#63b8ff" d="M94.62,-159.56C115.54,-142.91 150.67,-117.22 185,-102.5 193.93,-98.67 203.74,-95.56 213.41,-93.05"/>
<polygon fill="#63b8ff" stroke="#63b8ff" points="92.39,-156.86 86.82,-165.87 96.8,-162.3 92.39,-156.86"/>
</a>
</g>
</g>
<!-- Node9 -->
<g id="Node000009" class="node">
<title>Node9</title>
<g id="a_Node000009"><a xlink:href="classUWebSocketSystem.html" target="_top" xlink:title=" ">
<polygon fill="white" stroke="#666666" points="327,-56 213,-56 213,-37 327,-37 327,-56"/>
<text text-anchor="middle" x="270" y="-44" font-family="Malgun Gothic" font-size="10.00">UWebSocketSystem</text>
</a>
</g>
</g>
<!-- Node0&#45;&gt;Node9 -->
<g id="edge29_Node000000_Node000009" class="edge">
<title>Node0&#45;&gt;Node9</title>
<g id="a_edge29_Node000000_Node000009"><a xlink:title=" ">
<path fill="none" stroke="#63b8ff" d="M88.07,-157.6C106.43,-132.88 142.99,-88.72 185,-65.5 193.51,-60.8 203.11,-57.26 212.7,-54.59"/>
<polygon fill="#63b8ff" stroke="#63b8ff" points="85.2,-155.61 82.16,-165.76 90.86,-159.72 85.2,-155.61"/>
</a>
</g>
</g>
<!-- Node10 -->
<g id="Node000010" class="node">
<title>Node10</title>
<g id="a_Node000010"><a xlink:href="classUYiSanVoiceConsoleSubsystem.html" target="_top" xlink:title="Registers developer console commands for voice features (STT/TTS).">
<polygon fill="white" stroke="#666666" points="355,-19 185,-19 185,0 355,0 355,-19"/>
<text text-anchor="middle" x="270" y="-7" font-family="Malgun Gothic" font-size="10.00">UYiSanVoiceConsoleSubsystem</text>
</a>
</g>
</g>
<!-- Node0&#45;&gt;Node10 -->
<g id="edge30_Node000000_Node000010" class="edge">
<title>Node0&#45;&gt;Node10</title>
<g id="a_edge30_Node000000_Node000010"><a xlink:title=" ">
<path fill="none" stroke="#63b8ff" d="M84.03,-156.64C99.42,-124.89 134.93,-61.06 185,-28.5 190.89,-24.67 197.45,-21.6 204.23,-19.15"/>
<polygon fill="#63b8ff" stroke="#63b8ff" points="80.84,-155.2 79.75,-165.74 87.18,-158.18 80.84,-155.2"/>
</a>
</g>
</g>
</g>
</svg>
