<?xml version="1.0" encoding="UTF-8" standalone="no"?>
<!DOCTYPE svg PUBLIC "-//W3C//DTD SVG 1.1//EN"
 "http://www.w3.org/Graphics/SVG/1.1/DTD/svg11.dtd">
<!-- Generated by graphviz version 2.43.0 (0)
 -->
<!-- Title: 그래픽컬한 클래스 계통도 Pages: 1 -->
<svg width="330pt" height="101pt"
 viewBox="0.00 0.00 330.00 101.00" xmlns="http://www.w3.org/2000/svg" xmlns:xlink="http://www.w3.org/1999/xlink">
<g id="graph0" class="graph" transform="scale(1 1) rotate(0) translate(4 97)">
<title>그래픽컬한 클래스 계통도</title>
<!-- Node0 -->
<g id="Node000000" class="node">
<title>Node0</title>
<g id="a_Node000000"><a xlink:title=" ">
<polygon fill="#e0e0e0" stroke="#999999" points="143,-56 0,-56 0,-37 143,-37 143,-56"/>
<text text-anchor="middle" x="71.5" y="-44" font-family="Malgun Gothic" font-size="10.00">UBlueprintFunctionLibrary</text>
</a>
</g>
</g>
<!-- Node1 -->
<g id="Node000001" class="node">
<title>Node1</title>
<g id="a_Node000001"><a xlink:href="classUCommonFunctionLibrary.html" target="_top" xlink:title="프로젝트 전반에서 사용하는 공통 블루프린트 함수.">
<polygon fill="white" stroke="#666666" points="322,-93 179,-93 179,-74 322,-74 322,-93"/>
<text text-anchor="middle" x="250.5" y="-81" font-family="Malgun Gothic" font-size="10.00">UCommonFunctionLibrary</text>
</a>
</g>
</g>
<!-- Node0&#45;&gt;Node1 -->
<g id="edge13_Node000000_Node000001" class="edge">
<title>Node0&#45;&gt;Node1</title>
<g id="a_edge13_Node000000_Node000001"><a xlink:title=" ">
<path fill="none" stroke="#63b8ff" d="M127.92,-58.08C152.3,-63.18 180.61,-69.1 203.77,-73.94"/>
<polygon fill="#63b8ff" stroke="#63b8ff" points="128.59,-54.65 118.08,-56.03 127.15,-61.5 128.59,-54.65"/>
</a>
</g>
</g>
<!-- Node2 -->
<g id="Node000002" class="node">
<title>Node2</title>
<g id="a_Node000002"><a xlink:href="classUEaseFunctionLibrary.html" target="_top" xlink:title=" ">
<polygon fill="white" stroke="#666666" points="311.5,-56 189.5,-56 189.5,-37 311.5,-37 311.5,-56"/>
<text text-anchor="middle" x="250.5" y="-44" font-family="Malgun Gothic" font-size="10.00">UEaseFunctionLibrary</text>
</a>
</g>
</g>
<!-- Node0&#45;&gt;Node2 -->
<g id="edge14_Node000000_Node000002" class="edge">
<title>Node0&#45;&gt;Node2</title>
<g id="a_edge14_Node000000_Node000002"><a xlink:title=" ">
<path fill="none" stroke="#63b8ff" d="M153.35,-46.5C165.49,-46.5 177.83,-46.5 189.43,-46.5"/>
<polygon fill="#63b8ff" stroke="#63b8ff" points="153.22,-43 143.22,-46.5 153.22,-50 153.22,-43"/>
</a>
</g>
</g>
<!-- Node3 -->
<g id="Node000003" class="node">
<title>Node3</title>
<g id="a_Node000003"><a xlink:href="classUGameFunctionLibrary.html" target="_top" xlink:title=" ">
<polygon fill="white" stroke="#666666" points="314.5,-19 186.5,-19 186.5,0 314.5,0 314.5,-19"/>
<text text-anchor="middle" x="250.5" y="-7" font-family="Malgun Gothic" font-size="10.00">UGameFunctionLibrary</text>
</a>
</g>
</g>
<!-- Node0&#45;&gt;Node3 -->
<g id="edge15_Node000000_Node000003" class="edge">
<title>Node0&#45;&gt;Node3</title>
<g id="a_edge15_Node000000_Node000003"><a xlink:title=" ">
<path fill="none" stroke="#63b8ff" d="M127.92,-34.92C152.3,-29.82 180.61,-23.9 203.77,-19.06"/>
<polygon fill="#63b8ff" stroke="#63b8ff" points="127.15,-31.5 118.08,-36.97 128.59,-38.35 127.15,-31.5"/>
</a>
</g>
</g>
</g>
</svg>
