<?xml version="1.0" encoding="UTF-8" standalone="no"?>
<!DOCTYPE svg PUBLIC "-//W3C//DTD SVG 1.1//EN"
 "http://www.w3.org/Graphics/SVG/1.1/DTD/svg11.dtd">
<!-- Generated by graphviz version 2.43.0 (0)
 -->
<!-- Title: 그래픽컬한 클래스 계통도 Pages: 1 -->
<svg width="330pt" height="138pt"
 viewBox="0.00 0.00 330.00 138.00" xmlns="http://www.w3.org/2000/svg" xmlns:xlink="http://www.w3.org/1999/xlink">
<g id="graph0" class="graph" transform="scale(1 1) rotate(0) translate(4 134)">
<title>그래픽컬한 클래스 계통도</title>
<!-- Node0 -->
<g id="Node000000" class="node">
<title>Node0</title>
<g id="a_Node000000"><a xlink:title=" ">
<polygon fill="#e0e0e0" stroke="#999999" points="143,-74 0,-74 0,-55 143,-55 143,-74"/>
<text text-anchor="middle" x="71.5" y="-62" font-family="Malgun Gothic" font-size="10.00">UBlueprintFunctionLibrary</text>
</a>
</g>
</g>
<!-- Node1 -->
<g id="Node000001" class="node">
<title>Node1</title>
<g id="a_Node000001"><a xlink:href="classUCommonFunctionLibrary.html" target="_top" xlink:title="프로젝트 전반에서 사용하는 공통 블루프린트 함수.">
<polygon fill="white" stroke="#666666" points="322,-130 179,-130 179,-111 322,-111 322,-130"/>
<text text-anchor="middle" x="250.5" y="-118" font-family="Malgun Gothic" font-size="10.00">UCommonFunctionLibrary</text>
</a>
</g>
</g>
<!-- Node0&#45;&gt;Node1 -->
<g id="edge16_Node000000_Node000001" class="edge">
<title>Node0&#45;&gt;Node1</title>
<g id="a_edge16_Node000000_Node000001"><a xlink:title=" ">
<path fill="none" stroke="#63b8ff" d="M106.88,-77.68C127.61,-85.4 154.64,-95.06 179,-102.5 188.79,-105.49 199.44,-108.39 209.43,-110.95"/>
<polygon fill="#63b8ff" stroke="#63b8ff" points="107.84,-74.3 97.24,-74.07 105.38,-80.86 107.84,-74.3"/>
</a>
</g>
</g>
<!-- Node2 -->
<g id="Node000002" class="node">
<title>Node2</title>
<g id="a_Node000002"><a xlink:href="classUEaseFunctionLibrary.html" target="_top" xlink:title=" ">
<polygon fill="white" stroke="#666666" points="311.5,-93 189.5,-93 189.5,-74 311.5,-74 311.5,-93"/>
<text text-anchor="middle" x="250.5" y="-81" font-family="Malgun Gothic" font-size="10.00">UEaseFunctionLibrary</text>
</a>
</g>
</g>
<!-- Node0&#45;&gt;Node2 -->
<g id="edge17_Node000000_Node000002" class="edge">
<title>Node0&#45;&gt;Node2</title>
<g id="a_edge17_Node000000_Node000002"><a xlink:title=" ">
<path fill="none" stroke="#63b8ff" d="M153.35,-73.18C165.49,-74.48 177.83,-75.81 189.43,-77.05"/>
<polygon fill="#63b8ff" stroke="#63b8ff" points="153.53,-69.68 143.22,-72.09 152.79,-76.64 153.53,-69.68"/>
</a>
</g>
</g>
<!-- Node3 -->
<g id="Node000003" class="node">
<title>Node3</title>
<g id="a_Node000003"><a xlink:href="classUGameFunctionLibrary.html" target="_top" xlink:title=" ">
<polygon fill="white" stroke="#666666" points="314.5,-56 186.5,-56 186.5,-37 314.5,-37 314.5,-56"/>
<text text-anchor="middle" x="250.5" y="-44" font-family="Malgun Gothic" font-size="10.00">UGameFunctionLibrary</text>
</a>
</g>
</g>
<!-- Node0&#45;&gt;Node3 -->
<g id="edge18_Node000000_Node000003" class="edge">
<title>Node0&#45;&gt;Node3</title>
<g id="a_edge18_Node000000_Node000003"><a xlink:title=" ">
<path fill="none" stroke="#63b8ff" d="M153.32,-56.28C164.4,-55.15 175.64,-54.01 186.33,-52.92"/>
<polygon fill="#63b8ff" stroke="#63b8ff" points="152.81,-52.81 143.22,-57.31 153.52,-59.78 152.81,-52.81"/>
</a>
</g>
</g>
<!-- Node4 -->
<g id="Node000004" class="node">
<title>Node4</title>
<g id="a_Node000004"><a xlink:href="classUVoiceFunctionLibrary.html" target="_top" xlink:title=" ">
<polygon fill="white" stroke="#666666" points="313,-19 188,-19 188,0 313,0 313,-19"/>
<text text-anchor="middle" x="250.5" y="-7" font-family="Malgun Gothic" font-size="10.00">UVoiceFunctionLibrary</text>
</a>
</g>
</g>
<!-- Node0&#45;&gt;Node4 -->
<g id="edge19_Node000000_Node000004" class="edge">
<title>Node0&#45;&gt;Node4</title>
<g id="a_edge19_Node000000_Node000004"><a xlink:title=" ">
<path fill="none" stroke="#63b8ff" d="M109.05,-51.51C129.52,-44.4 155.57,-35.61 179,-28.5 189.8,-25.22 201.61,-21.93 212.42,-19.03"/>
<polygon fill="#63b8ff" stroke="#63b8ff" points="107.77,-48.25 99.49,-54.85 110.08,-54.86 107.77,-48.25"/>
</a>
</g>
</g>
</g>
</svg>
