<?xml version="1.0" encoding="UTF-8" standalone="no"?>
<!DOCTYPE svg PUBLIC "-//W3C//DTD SVG 1.1//EN"
 "http://www.w3.org/Graphics/SVG/1.1/DTD/svg11.dtd">
<!-- Generated by graphviz version 2.43.0 (0)
 -->
<!-- Title: 그래픽컬한 클래스 계통도 Pages: 1 -->
<svg width="215pt" height="64pt"
 viewBox="0.00 0.00 215.00 64.00" xmlns="http://www.w3.org/2000/svg" xmlns:xlink="http://www.w3.org/1999/xlink">
<g id="graph0" class="graph" transform="scale(1 1) rotate(0) translate(4 60)">
<title>그래픽컬한 클래스 계통도</title>
<!-- Node0 -->
<g id="Node000000" class="node">
<title>Node0</title>
<g id="a_Node000000"><a xlink:title=" ">
<polygon fill="#e0e0e0" stroke="#999999" points="81,-37 0,-37 0,-18 81,-18 81,-37"/>
<text text-anchor="middle" x="40.5" y="-25" font-family="Malgun Gothic" font-size="10.00">UUserWidget</text>
</a>
</g>
</g>
<!-- Node1 -->
<g id="Node000001" class="node">
<title>Node1</title>
<g id="a_Node000001"><a xlink:href="classUDialogWidget.html" target="_top" xlink:title=" ">
<polygon fill="white" stroke="#666666" points="207,-56 117,-56 117,-37 207,-37 207,-56"/>
<text text-anchor="middle" x="162" y="-44" font-family="Malgun Gothic" font-size="10.00">UDialogWidget</text>
</a>
</g>
</g>
<!-- Node0&#45;&gt;Node1 -->
<g id="edge38_Node000000_Node000001" class="edge">
<title>Node0&#45;&gt;Node1</title>
<g id="a_edge38_Node000000_Node000001"><a xlink:title=" ">
<path fill="none" stroke="#63b8ff" d="M91.41,-35.44C99.86,-36.78 108.57,-38.16 116.85,-39.48"/>
<polygon fill="#63b8ff" stroke="#63b8ff" points="91.72,-31.94 81.29,-33.83 90.62,-38.85 91.72,-31.94"/>
</a>
</g>
</g>
<!-- Node2 -->
<g id="Node000002" class="node">
<title>Node2</title>
<g id="a_Node000002"><a xlink:href="classUMainWidget.html" target="_top" xlink:title=" ">
<polygon fill="white" stroke="#666666" points="203.5,-19 120.5,-19 120.5,0 203.5,0 203.5,-19"/>
<text text-anchor="middle" x="162" y="-7" font-family="Malgun Gothic" font-size="10.00">UMainWidget</text>
</a>
</g>
</g>
<!-- Node0&#45;&gt;Node2 -->
<g id="edge39_Node000000_Node000002" class="edge">
<title>Node0&#45;&gt;Node2</title>
<g id="a_edge39_Node000000_Node000002"><a xlink:title=" ">
<path fill="none" stroke="#63b8ff" d="M91.48,-19.97C101.03,-18.53 110.93,-17.04 120.16,-15.65"/>
<polygon fill="#63b8ff" stroke="#63b8ff" points="90.66,-16.56 81.29,-21.51 91.7,-23.48 90.66,-16.56"/>
</a>
</g>
</g>
</g>
</svg>
