<?xml version="1.0" encoding="UTF-8" standalone="no"?>
<!DOCTYPE svg PUBLIC "-//W3C//DTD SVG 1.1//EN"
 "http://www.w3.org/Graphics/SVG/1.1/DTD/svg11.dtd">
<!-- Generated by graphviz version 2.43.0 (0)
 -->
<!-- Title: 그래픽컬한 클래스 계통도 Pages: 1 -->
<svg width="319pt" height="323pt"
 viewBox="0.00 0.00 319.00 323.00" xmlns="http://www.w3.org/2000/svg" xmlns:xlink="http://www.w3.org/1999/xlink">
<g id="graph0" class="graph" transform="scale(1 1) rotate(0) translate(4 319)">
<title>그래픽컬한 클래스 계통도</title>
<!-- Node0 -->
<g id="Node000000" class="node">
<title>Node0</title>
<g id="a_Node000000"><a xlink:title=" ">
<polygon fill="#e0e0e0" stroke="#999999" points="149,-167 0,-167 0,-148 149,-148 149,-167"/>
<text text-anchor="middle" x="74.5" y="-155" font-family="Malgun Gothic" font-size="10.00">UGameInstanceSubsystem</text>
</a>
</g>
</g>
<!-- Node1 -->
<g id="Node000001" class="node">
<title>Node1</title>
<g id="a_Node000001"><a xlink:href="classUBroadcastManger.html" target="_top" xlink:title=" ">
<polygon fill="white" stroke="#666666" points="303,-315 193,-315 193,-296 303,-296 303,-315"/>
<text text-anchor="middle" x="248" y="-303" font-family="Malgun Gothic" font-size="10.00">UBroadcastManger</text>
</a>
</g>
</g>
<!-- Node0&#45;&gt;Node1 -->
<g id="edge21_Node000000_Node000001" class="edge">
<title>Node0&#45;&gt;Node1</title>
<g id="a_edge21_Node000000_Node000001"><a xlink:title=" ">
<path fill="none" stroke="#63b8ff" d="M86.24,-176.24C103.43,-204.58 139.86,-258.14 185,-287.5 190.26,-290.92 196.19,-293.71 202.24,-295.97"/>
<polygon fill="#63b8ff" stroke="#63b8ff" points="89.08,-174.17 80.97,-167.35 83.05,-177.74 89.08,-174.17"/>
</a>
</g>
</g>
<!-- Node2 -->
<g id="Node000002" class="node">
<title>Node2</title>
<g id="a_Node000002"><a xlink:href="classUDelayTaskManager.html" target="_top" xlink:title=" ">
<polygon fill="white" stroke="#666666" points="306.5,-278 189.5,-278 189.5,-259 306.5,-259 306.5,-278"/>
<text text-anchor="middle" x="248" y="-266" font-family="Malgun Gothic" font-size="10.00">UDelayTaskManager</text>
</a>
</g>
</g>
<!-- Node0&#45;&gt;Node2 -->
<g id="edge22_Node000000_Node000002" class="edge">
<title>Node0&#45;&gt;Node2</title>
<g id="a_edge22_Node000000_Node000002"><a xlink:title=" ">
<path fill="none" stroke="#63b8ff" d="M91.18,-174.67C111.09,-195.48 147.38,-230.27 185,-250.5 191.22,-253.84 198.13,-256.63 205.02,-258.94"/>
<polygon fill="#63b8ff" stroke="#63b8ff" points="93.55,-172.09 84.16,-167.19 88.45,-176.88 93.55,-172.09"/>
</a>
</g>
</g>
<!-- Node3 -->
<g id="Node000003" class="node">
<title>Node3</title>
<g id="a_Node000003"><a xlink:href="classUGameDataManager.html" target="_top" xlink:title=" ">
<polygon fill="white" stroke="#666666" points="307.5,-241 188.5,-241 188.5,-222 307.5,-222 307.5,-241"/>
<text text-anchor="middle" x="248" y="-229" font-family="Malgun Gothic" font-size="10.00">UGameDataManager</text>
</a>
</g>
</g>
<!-- Node0&#45;&gt;Node3 -->
<g id="edge23_Node000000_Node000003" class="edge">
<title>Node0&#45;&gt;Node3</title>
<g id="a_edge23_Node000000_Node000003"><a xlink:title=" ">
<path fill="none" stroke="#63b8ff" d="M100.66,-172.11C122.45,-184.33 155.09,-201.64 185,-213.5 192.92,-216.64 201.6,-219.5 209.89,-221.98"/>
<polygon fill="#63b8ff" stroke="#63b8ff" points="102.16,-168.94 91.74,-167.05 98.71,-175.03 102.16,-168.94"/>
</a>
</g>
</g>
<!-- Node4 -->
<g id="Node000004" class="node">
<title>Node4</title>
<g id="a_Node000004"><a xlink:href="classUGameSoundManager.html" target="_top" xlink:title=" ">
<polygon fill="white" stroke="#666666" points="311,-204 185,-204 185,-185 311,-185 311,-204"/>
<text text-anchor="middle" x="248" y="-192" font-family="Malgun Gothic" font-size="10.00">UGameSoundManager</text>
</a>
</g>
</g>
<!-- Node0&#45;&gt;Node4 -->
<g id="edge24_Node000000_Node000004" class="edge">
<title>Node0&#45;&gt;Node4</title>
<g id="a_edge24_Node000000_Node000004"><a xlink:title=" ">
<path fill="none" stroke="#63b8ff" d="M129.51,-169.15C153.07,-174.23 180.35,-180.12 202.69,-184.94"/>
<polygon fill="#63b8ff" stroke="#63b8ff" points="130.18,-165.72 119.67,-167.03 128.7,-172.56 130.18,-165.72"/>
</a>
</g>
</g>
<!-- Node5 -->
<g id="Node000005" class="node">
<title>Node5</title>
<g id="a_Node000005"><a xlink:href="classUGameVFXManager.html" target="_top" xlink:title=" ">
<polygon fill="white" stroke="#666666" points="306,-167 190,-167 190,-148 306,-148 306,-167"/>
<text text-anchor="middle" x="248" y="-155" font-family="Malgun Gothic" font-size="10.00">UGameVFXManager</text>
</a>
</g>
</g>
<!-- Node0&#45;&gt;Node5 -->
<g id="edge25_Node000000_Node000005" class="edge">
<title>Node0&#45;&gt;Node5</title>
<g id="a_edge25_Node000000_Node000005"><a xlink:title=" ">
<path fill="none" stroke="#63b8ff" d="M159.5,-157.5C169.8,-157.5 180.13,-157.5 189.91,-157.5"/>
<polygon fill="#63b8ff" stroke="#63b8ff" points="159.23,-154 149.23,-157.5 159.23,-161 159.23,-154"/>
</a>
</g>
</g>
<!-- Node6 -->
<g id="Node000006" class="node">
<title>Node6</title>
<g id="a_Node000006"><a xlink:href="classUHttpNetworkSystem.html" target="_top" xlink:title=" ">
<polygon fill="white" stroke="#666666" points="309.5,-130 186.5,-130 186.5,-111 309.5,-111 309.5,-130"/>
<text text-anchor="middle" x="248" y="-118" font-family="Malgun Gothic" font-size="10.00">UHttpNetworkSystem</text>
</a>
</g>
</g>
<!-- Node0&#45;&gt;Node6 -->
<g id="edge26_Node000000_Node000006" class="edge">
<title>Node0&#45;&gt;Node6</title>
<g id="a_edge26_Node000000_Node000006"><a xlink:title=" ">
<path fill="none" stroke="#63b8ff" d="M129.51,-145.85C153.07,-140.77 180.35,-134.88 202.69,-130.06"/>
<polygon fill="#63b8ff" stroke="#63b8ff" points="128.7,-142.44 119.67,-147.97 130.18,-149.28 128.7,-142.44"/>
</a>
</g>
</g>
<!-- Node7 -->
<g id="Node000007" class="node">
<title>Node7</title>
<g id="a_Node000007"><a xlink:href="classUObjectPoolManager.html" target="_top" xlink:title=" ">
<polygon fill="white" stroke="#666666" points="307.5,-93 188.5,-93 188.5,-74 307.5,-74 307.5,-93"/>
<text text-anchor="middle" x="248" y="-81" font-family="Malgun Gothic" font-size="10.00">UObjectPoolManager</text>
</a>
</g>
</g>
<!-- Node0&#45;&gt;Node7 -->
<g id="edge27_Node000000_Node000007" class="edge">
<title>Node0&#45;&gt;Node7</title>
<g id="a_edge27_Node000000_Node000007"><a xlink:title=" ">
<path fill="none" stroke="#63b8ff" d="M101.5,-142.88C123.33,-130.99 155.59,-114.3 185,-102.5 193.67,-99.02 203.24,-95.8 212.21,-93.04"/>
<polygon fill="#63b8ff" stroke="#63b8ff" points="99.61,-139.93 92.53,-147.81 102.98,-146.06 99.61,-139.93"/>
</a>
</g>
</g>
<!-- Node8 -->
<g id="Node000008" class="node">
<title>Node8</title>
<g id="a_Node000008"><a xlink:href="classUSequenceManager.html" target="_top" xlink:title=" ">
<polygon fill="white" stroke="#666666" points="305,-56 191,-56 191,-37 305,-37 305,-56"/>
<text text-anchor="middle" x="248" y="-44" font-family="Malgun Gothic" font-size="10.00">USequenceManager</text>
</a>
</g>
</g>
<!-- Node0&#45;&gt;Node8 -->
<g id="edge28_Node000000_Node000008" class="edge">
<title>Node0&#45;&gt;Node8</title>
<g id="a_edge28_Node000000_Node000008"><a xlink:title=" ">
<path fill="none" stroke="#63b8ff" d="M91.27,-140.61C111.26,-120.12 147.64,-85.82 185,-65.5 191.92,-61.74 199.7,-58.61 207.34,-56.05"/>
<polygon fill="#63b8ff" stroke="#63b8ff" points="88.6,-138.33 84.21,-147.97 93.66,-143.18 88.6,-138.33"/>
</a>
</g>
</g>
<!-- Node9 -->
<g id="Node000009" class="node">
<title>Node9</title>
<g id="a_Node000009"><a xlink:href="classUWebSocketSystem.html" target="_top" xlink:title=" ">
<polygon fill="white" stroke="#666666" points="305,-19 191,-19 191,0 305,0 305,-19"/>
<text text-anchor="middle" x="248" y="-7" font-family="Malgun Gothic" font-size="10.00">UWebSocketSystem</text>
</a>
</g>
</g>
<!-- Node0&#45;&gt;Node9 -->
<g id="edge29_Node000000_Node000009" class="edge">
<title>Node0&#45;&gt;Node9</title>
<g id="a_edge29_Node000000_Node000009"><a xlink:title=" ">
<path fill="none" stroke="#63b8ff" d="M86.33,-138.99C103.64,-110.98 140.22,-57.98 185,-28.5 190.83,-24.66 197.47,-21.57 204.19,-19.08"/>
<polygon fill="#63b8ff" stroke="#63b8ff" points="83.19,-137.4 81.02,-147.77 89.19,-141.02 83.19,-137.4"/>
</a>
</g>
</g>
</g>
</svg>
