<?xml version="1.0" encoding="UTF-8" standalone="no"?>
<!DOCTYPE svg PUBLIC "-//W3C//DTD SVG 1.1//EN"
 "http://www.w3.org/Graphics/SVG/1.1/DTD/svg11.dtd">
<!-- Generated by graphviz version 2.43.0 (0)
 -->
<!-- Title: 그래픽컬한 클래스 계통도 Pages: 1 -->
<svg width="363pt" height="397pt"
 viewBox="0.00 0.00 363.00 397.00" xmlns="http://www.w3.org/2000/svg" xmlns:xlink="http://www.w3.org/1999/xlink">
<g id="graph0" class="graph" transform="scale(1 1) rotate(0) translate(4 393)">
<title>그래픽컬한 클래스 계통도</title>
<!-- Node0 -->
<g id="Node000000" class="node">
<title>Node0</title>
<g id="a_Node000000"><a xlink:title=" ">
<polygon fill="#e0e0e0" stroke="#999999" points="149,-204 0,-204 0,-185 149,-185 149,-204"/>
<text text-anchor="middle" x="74.5" y="-192" font-family="Malgun Gothic" font-size="10.00">UGameInstanceSubsystem</text>
</a>
</g>
</g>
<!-- Node1 -->
<g id="Node000001" class="node">
<title>Node1</title>
<g id="a_Node000001"><a xlink:href="classUBroadcastManger.html" target="_top" xlink:title=" ">
<polygon fill="white" stroke="#666666" points="325,-389 215,-389 215,-370 325,-370 325,-389"/>
<text text-anchor="middle" x="270" y="-377" font-family="Malgun Gothic" font-size="10.00">UBroadcastManger</text>
</a>
</g>
</g>
<!-- Node0&#45;&gt;Node1 -->
<g id="edge22_Node000000_Node000001" class="edge">
<title>Node0&#45;&gt;Node1</title>
<g id="a_edge22_Node000000_Node000001"><a xlink:title=" ">
<path fill="none" stroke="#63b8ff" d="M82.48,-213.97C96.23,-249.36 130.31,-324.03 185,-361.5 193.86,-367.57 204.38,-371.65 214.92,-374.38"/>
<polygon fill="#63b8ff" stroke="#63b8ff" points="85.66,-212.47 78.87,-204.33 79.1,-214.93 85.66,-212.47"/>
</a>
</g>
</g>
<!-- Node2 -->
<g id="Node000002" class="node">
<title>Node2</title>
<g id="a_Node000002"><a xlink:href="classUDelayTaskManager.html" target="_top" xlink:title=" ">
<polygon fill="white" stroke="#666666" points="328.5,-352 211.5,-352 211.5,-333 328.5,-333 328.5,-352"/>
<text text-anchor="middle" x="270" y="-340" font-family="Malgun Gothic" font-size="10.00">UDelayTaskManager</text>
</a>
</g>
</g>
<!-- Node0&#45;&gt;Node2 -->
<g id="edge23_Node000000_Node000002" class="edge">
<title>Node0&#45;&gt;Node2</title>
<g id="a_edge23_Node000000_Node000002"><a xlink:title=" ">
<path fill="none" stroke="#63b8ff" d="M85.74,-213.22C102.5,-241.99 138.61,-296.63 185,-324.5 193.05,-329.34 202.23,-332.89 211.49,-335.48"/>
<polygon fill="#63b8ff" stroke="#63b8ff" points="88.61,-211.19 80.63,-204.21 82.52,-214.64 88.61,-211.19"/>
</a>
</g>
</g>
<!-- Node3 -->
<g id="Node000003" class="node">
<title>Node3</title>
<g id="a_Node000003"><a xlink:href="classUGameDataManager.html" target="_top" xlink:title=" ">
<polygon fill="white" stroke="#666666" points="329.5,-315 210.5,-315 210.5,-296 329.5,-296 329.5,-315"/>
<text text-anchor="middle" x="270" y="-303" font-family="Malgun Gothic" font-size="10.00">UGameDataManager</text>
</a>
</g>
</g>
<!-- Node0&#45;&gt;Node3 -->
<g id="edge24_Node000000_Node000003" class="edge">
<title>Node0&#45;&gt;Node3</title>
<g id="a_edge24_Node000000_Node000003"><a xlink:title=" ">
<path fill="none" stroke="#63b8ff" d="M90.65,-211.79C110.25,-233.02 146.48,-268.53 185,-287.5 192.89,-291.39 201.61,-294.44 210.35,-296.83"/>
<polygon fill="#63b8ff" stroke="#63b8ff" points="93.06,-209.24 83.76,-204.16 87.87,-213.93 93.06,-209.24"/>
</a>
</g>
</g>
<!-- Node4 -->
<g id="Node000004" class="node">
<title>Node4</title>
<g id="a_Node000004"><a xlink:href="classUGameSoundManager.html" target="_top" xlink:title=" ">
<polygon fill="white" stroke="#666666" points="333,-278 207,-278 207,-259 333,-259 333,-278"/>
<text text-anchor="middle" x="270" y="-266" font-family="Malgun Gothic" font-size="10.00">UGameSoundManager</text>
</a>
</g>
</g>
<!-- Node0&#45;&gt;Node4 -->
<g id="edge25_Node000000_Node000004" class="edge">
<title>Node0&#45;&gt;Node4</title>
<g id="a_edge25_Node000000_Node000004"><a xlink:title=" ">
<path fill="none" stroke="#63b8ff" d="M99.7,-209.22C121.36,-221.81 154.33,-239.59 185,-250.5 194.27,-253.8 204.35,-256.6 214.2,-258.93"/>
<polygon fill="#63b8ff" stroke="#63b8ff" points="101.27,-206.08 90.88,-204.01 97.71,-212.11 101.27,-206.08"/>
</a>
</g>
</g>
<!-- Node5 -->
<g id="Node000005" class="node">
<title>Node5</title>
<g id="a_Node000005"><a xlink:href="classUGameVFXManager.html" target="_top" xlink:title=" ">
<polygon fill="white" stroke="#666666" points="328,-241 212,-241 212,-222 328,-222 328,-241"/>
<text text-anchor="middle" x="270" y="-229" font-family="Malgun Gothic" font-size="10.00">UGameVFXManager</text>
</a>
</g>
</g>
<!-- Node0&#45;&gt;Node5 -->
<g id="edge26_Node000000_Node000005" class="edge">
<title>Node0&#45;&gt;Node5</title>
<g id="a_edge26_Node000000_Node000005"><a xlink:title=" ">
<path fill="none" stroke="#63b8ff" d="M135.37,-205.95C162.19,-211.08 193.46,-217.06 219,-221.94"/>
<polygon fill="#63b8ff" stroke="#63b8ff" points="135.81,-202.47 125.33,-204.03 134.5,-209.34 135.81,-202.47"/>
</a>
</g>
</g>
<!-- Node6 -->
<g id="Node000006" class="node">
<title>Node6</title>
<g id="a_Node000006"><a xlink:href="classUGoogleSpeechService.html" target="_top" xlink:title="Thin Google Speech (STT/TTS) client.">
<polygon fill="white" stroke="#666666" points="335,-204 205,-204 205,-185 335,-185 335,-204"/>
<text text-anchor="middle" x="270" y="-192" font-family="Malgun Gothic" font-size="10.00">UGoogleSpeechService</text>
</a>
</g>
</g>
<!-- Node0&#45;&gt;Node6 -->
<g id="edge27_Node000000_Node000006" class="edge">
<title>Node0&#45;&gt;Node6</title>
<g id="a_edge27_Node000000_Node000006"><a xlink:title=" ">
<path fill="none" stroke="#63b8ff" d="M159.64,-194.5C174.85,-194.5 190.47,-194.5 204.98,-194.5"/>
<polygon fill="#63b8ff" stroke="#63b8ff" points="159.21,-191 149.21,-194.5 159.21,-198 159.21,-191"/>
</a>
</g>
</g>
<!-- Node7 -->
<g id="Node000007" class="node">
<title>Node7</title>
<g id="a_Node000007"><a xlink:href="classUHttpNetworkSystem.html" target="_top" xlink:title=" ">
<polygon fill="white" stroke="#666666" points="331.5,-167 208.5,-167 208.5,-148 331.5,-148 331.5,-167"/>
<text text-anchor="middle" x="270" y="-155" font-family="Malgun Gothic" font-size="10.00">UHttpNetworkSystem</text>
</a>
</g>
</g>
<!-- Node0&#45;&gt;Node7 -->
<g id="edge28_Node000000_Node000007" class="edge">
<title>Node0&#45;&gt;Node7</title>
<g id="a_edge28_Node000000_Node000007"><a xlink:title=" ">
<path fill="none" stroke="#63b8ff" d="M135.37,-183.05C162.19,-177.92 193.46,-171.94 219,-167.06"/>
<polygon fill="#63b8ff" stroke="#63b8ff" points="134.5,-179.66 125.33,-184.97 135.81,-186.53 134.5,-179.66"/>
</a>
</g>
</g>
<!-- Node8 -->
<g id="Node000008" class="node">
<title>Node8</title>
<g id="a_Node000008"><a xlink:href="classUObjectPoolManager.html" target="_top" xlink:title=" ">
<polygon fill="white" stroke="#666666" points="329.5,-130 210.5,-130 210.5,-111 329.5,-111 329.5,-130"/>
<text text-anchor="middle" x="270" y="-118" font-family="Malgun Gothic" font-size="10.00">UObjectPoolManager</text>
</a>
</g>
</g>
<!-- Node0&#45;&gt;Node8 -->
<g id="edge29_Node000000_Node000008" class="edge">
<title>Node0&#45;&gt;Node8</title>
<g id="a_edge29_Node000000_Node000008"><a xlink:title=" ">
<path fill="none" stroke="#63b8ff" d="M100.52,-179.73C122.23,-167.45 154.82,-150.31 185,-139.5 195.28,-135.82 206.52,-132.69 217.35,-130.1"/>
<polygon fill="#63b8ff" stroke="#63b8ff" points="98.57,-176.81 91.64,-184.82 102.06,-182.88 98.57,-176.81"/>
</a>
</g>
</g>
<!-- Node9 -->
<g id="Node000009" class="node">
<title>Node9</title>
<g id="a_Node000009"><a xlink:href="classUSequenceManager.html" target="_top" xlink:title=" ">
<polygon fill="white" stroke="#666666" points="327,-93 213,-93 213,-74 327,-74 327,-93"/>
<text text-anchor="middle" x="270" y="-81" font-family="Malgun Gothic" font-size="10.00">USequenceManager</text>
</a>
</g>
</g>
<!-- Node0&#45;&gt;Node9 -->
<g id="edge30_Node000000_Node000009" class="edge">
<title>Node0&#45;&gt;Node9</title>
<g id="a_edge30_Node000000_Node000009"><a xlink:title=" ">
<path fill="none" stroke="#63b8ff" d="M90.72,-177.47C110.4,-156.55 146.71,-121.5 185,-102.5 193.57,-98.25 203.11,-94.93 212.59,-92.35"/>
<polygon fill="#63b8ff" stroke="#63b8ff" points="88,-175.26 83.8,-184.98 93.15,-180 88,-175.26"/>
</a>
</g>
</g>
<!-- Node10 -->
<g id="Node000010" class="node">
<title>Node10</title>
<g id="a_Node000010"><a xlink:href="classUWebSocketSystem.html" target="_top" xlink:title=" ">
<polygon fill="white" stroke="#666666" points="327,-56 213,-56 213,-37 327,-37 327,-56"/>
<text text-anchor="middle" x="270" y="-44" font-family="Malgun Gothic" font-size="10.00">UWebSocketSystem</text>
</a>
</g>
</g>
<!-- Node0&#45;&gt;Node10 -->
<g id="edge31_Node000000_Node000010" class="edge">
<title>Node0&#45;&gt;Node10</title>
<g id="a_edge31_Node000000_Node000010"><a xlink:title=" ">
<path fill="none" stroke="#63b8ff" d="M85.81,-175.99C102.67,-147.53 138.93,-93.41 185,-65.5 193.44,-60.39 203.11,-56.65 212.82,-53.91"/>
<polygon fill="#63b8ff" stroke="#63b8ff" points="82.64,-174.48 80.67,-184.9 88.7,-177.98 82.64,-174.48"/>
</a>
</g>
</g>
<!-- Node11 -->
<g id="Node000011" class="node">
<title>Node11</title>
<g id="a_Node000011"><a xlink:href="classUYiSanVoiceConsoleSubsystem.html" target="_top" xlink:title="Registers developer console commands for voice features (STT/TTS).">
<polygon fill="white" stroke="#666666" points="355,-19 185,-19 185,0 355,0 355,-19"/>
<text text-anchor="middle" x="270" y="-7" font-family="Malgun Gothic" font-size="10.00">UYiSanVoiceConsoleSubsystem</text>
</a>
</g>
</g>
<!-- Node0&#45;&gt;Node11 -->
<g id="edge32_Node000000_Node000011" class="edge">
<title>Node0&#45;&gt;Node11</title>
<g id="a_edge32_Node000000_Node000011"><a xlink:title=" ">
<path fill="none" stroke="#63b8ff" d="M82.56,-175.2C96.43,-140.12 130.7,-66.05 185,-28.5 190.53,-24.67 196.72,-21.6 203.15,-19.15"/>
<polygon fill="#63b8ff" stroke="#63b8ff" points="79.21,-174.17 78.91,-184.76 85.75,-176.66 79.21,-174.17"/>
</a>
</g>
</g>
</g>
</svg>
