<?xml version="1.0" encoding="UTF-8" standalone="no"?>
<!DOCTYPE svg PUBLIC "-//W3C//DTD SVG 1.1//EN"
 "http://www.w3.org/Graphics/SVG/1.1/DTD/svg11.dtd">
<!-- Generated by graphviz version 2.43.0 (0)
 -->
<!-- Title: 그래픽컬한 클래스 계통도 Pages: 1 -->
<svg width="256pt" height="138pt"
 viewBox="0.00 0.00 256.00 138.00" xmlns="http://www.w3.org/2000/svg" xmlns:xlink="http://www.w3.org/1999/xlink">
<g id="graph0" class="graph" transform="scale(1 1) rotate(0) translate(4 134)">
<title>그래픽컬한 클래스 계통도</title>
<!-- Node0 -->
<g id="Node000000" class="node">
<title>Node0</title>
<g id="a_Node000000"><a xlink:title=" ">
<polygon fill="#e0e0e0" stroke="#999999" points="92,-74 0,-74 0,-55 92,-55 92,-74"/>
<text text-anchor="middle" x="46" y="-62" font-family="Malgun Gothic" font-size="10.00">FTableRowBase</text>
</a>
</g>
</g>
<!-- Node1 -->
<g id="Node000001" class="node">
<title>Node1</title>
<g id="a_Node000001"><a xlink:href="structFCharacterAssetData.html" target="_top" xlink:title=" ">
<polygon fill="white" stroke="#666666" points="248,-130 128,-130 128,-111 248,-111 248,-130"/>
<text text-anchor="middle" x="188" y="-118" font-family="Malgun Gothic" font-size="10.00">FCharacterAssetData</text>
</a>
</g>
</g>
<!-- Node0&#45;&gt;Node1 -->
<g id="edge11_Node000000_Node000001" class="edge">
<title>Node0&#45;&gt;Node1</title>
<g id="a_edge11_Node000000_Node000001"><a xlink:title=" ">
<path fill="none" stroke="#63b8ff" d="M74.36,-78.53C89.87,-86.17 109.75,-95.48 128,-102.5 135.9,-105.54 144.54,-108.42 152.71,-110.94"/>
<polygon fill="#63b8ff" stroke="#63b8ff" points="75.84,-75.36 65.33,-74.02 72.72,-81.62 75.84,-75.36"/>
</a>
</g>
</g>
<!-- Node2 -->
<g id="Node000002" class="node">
<title>Node2</title>
<g id="a_Node000002"><a xlink:href="structFCharacterInfoData.html" target="_top" xlink:title=" ">
<polygon fill="white" stroke="#666666" points="244,-93 132,-93 132,-74 244,-74 244,-93"/>
<text text-anchor="middle" x="188" y="-81" font-family="Malgun Gothic" font-size="10.00">FCharacterInfoData</text>
</a>
</g>
</g>
<!-- Node0&#45;&gt;Node2 -->
<g id="edge12_Node000000_Node000002" class="edge">
<title>Node0&#45;&gt;Node2</title>
<g id="a_edge12_Node000000_Node000002"><a xlink:title=" ">
<path fill="none" stroke="#63b8ff" d="M102.05,-71.97C111.8,-73.29 121.96,-74.67 131.72,-76"/>
<polygon fill="#63b8ff" stroke="#63b8ff" points="102.45,-68.49 92.07,-70.62 101.51,-75.43 102.45,-68.49"/>
</a>
</g>
</g>
<!-- Node3 -->
<g id="Node000003" class="node">
<title>Node3</title>
<g id="a_Node000003"><a xlink:href="structFHitStopData.html" target="_top" xlink:title=" ">
<polygon fill="white" stroke="#666666" points="229,-56 147,-56 147,-37 229,-37 229,-56"/>
<text text-anchor="middle" x="188" y="-44" font-family="Malgun Gothic" font-size="10.00">FHitStopData</text>
</a>
</g>
</g>
<!-- Node0&#45;&gt;Node3 -->
<g id="edge13_Node000000_Node000003" class="edge">
<title>Node0&#45;&gt;Node3</title>
<g id="a_edge13_Node000000_Node000003"><a xlink:title=" ">
<path fill="none" stroke="#63b8ff" d="M102.18,-57.41C117.05,-55.49 132.86,-53.46 146.75,-51.68"/>
<polygon fill="#63b8ff" stroke="#63b8ff" points="101.54,-53.96 92.07,-58.71 102.43,-60.9 101.54,-53.96"/>
</a>
</g>
</g>
<!-- Node4 -->
<g id="Node000004" class="node">
<title>Node4</title>
<g id="a_Node000004"><a xlink:href="structFKnockbackData.html" target="_top" xlink:title=" ">
<polygon fill="white" stroke="#666666" points="237.5,-19 138.5,-19 138.5,0 237.5,0 237.5,-19"/>
<text text-anchor="middle" x="188" y="-7" font-family="Malgun Gothic" font-size="10.00">FKnockbackData</text>
</a>
</g>
</g>
<!-- Node0&#45;&gt;Node4 -->
<g id="edge14_Node000000_Node000004" class="edge">
<title>Node0&#45;&gt;Node4</title>
<g id="a_edge14_Node000000_Node000004"><a xlink:title=" ">
<path fill="none" stroke="#63b8ff" d="M76.46,-50.5C91.69,-43.49 110.66,-35.12 128,-28.5 136.75,-25.16 146.36,-21.89 155.25,-19.04"/>
<polygon fill="#63b8ff" stroke="#63b8ff" points="74.65,-47.48 67.06,-54.87 77.6,-53.83 74.65,-47.48"/>
</a>
</g>
</g>
</g>
</svg>
