<?xml version="1.0" encoding="UTF-8" standalone="no"?>
<!DOCTYPE svg PUBLIC "-//W3C//DTD SVG 1.1//EN"
 "http://www.w3.org/Graphics/SVG/1.1/DTD/svg11.dtd">
<!-- Generated by graphviz version 2.43.0 (0)
 -->
<!-- Title: 그래픽컬한 클래스 계통도 Pages: 1 -->
<svg width="323pt" height="360pt"
 viewBox="0.00 0.00 323.00 360.00" xmlns="http://www.w3.org/2000/svg" xmlns:xlink="http://www.w3.org/1999/xlink">
<g id="graph0" class="graph" transform="scale(1 1) rotate(0) translate(4 356)">
<title>그래픽컬한 클래스 계통도</title>
<!-- Node0 -->
<g id="Node000000" class="node">
<title>Node0</title>
<g id="a_Node000000"><a xlink:title=" ">
<polygon fill="#e0e0e0" stroke="#999999" points="149,-185 0,-185 0,-166 149,-166 149,-185"/>
<text text-anchor="middle" x="74.5" y="-173" font-family="Malgun Gothic" font-size="10.00">UGameInstanceSubsystem</text>
</a>
</g>
</g>
<!-- Node1 -->
<g id="Node000001" class="node">
<title>Node1</title>
<g id="a_Node000001"><a xlink:href="classUBroadcastManger.html" target="_top" xlink:title=" ">
<polygon fill="white" stroke="#666666" points="305,-352 195,-352 195,-333 305,-333 305,-352"/>
<text text-anchor="middle" x="250" y="-340" font-family="Malgun Gothic" font-size="10.00">UBroadcastManger</text>
</a>
</g>
</g>
<!-- Node0&#45;&gt;Node1 -->
<g id="edge26_Node000000_Node000001" class="edge">
<title>Node0&#45;&gt;Node1</title>
<g id="a_edge26_Node000000_Node000001"><a xlink:title=" ">
<path fill="none" stroke="#63b8ff" d="M84.15,-194.34C99.7,-226.11 135.46,-290.2 185,-324.5 189.93,-327.92 195.51,-330.69 201.25,-332.94"/>
<polygon fill="#63b8ff" stroke="#63b8ff" points="87.27,-192.77 79.82,-185.24 80.95,-195.77 87.27,-192.77"/>
</a>
</g>
</g>
<!-- Node2 -->
<g id="Node000002" class="node">
<title>Node2</title>
<g id="a_Node000002"><a xlink:href="classUDelayTaskManager.html" target="_top" xlink:title=" ">
<polygon fill="white" stroke="#666666" points="308.5,-315 191.5,-315 191.5,-296 308.5,-296 308.5,-315"/>
<text text-anchor="middle" x="250" y="-303" font-family="Malgun Gothic" font-size="10.00">UDelayTaskManager</text>
</a>
</g>
</g>
<!-- Node0&#45;&gt;Node2 -->
<g id="edge27_Node000000_Node000002" class="edge">
<title>Node0&#45;&gt;Node2</title>
<g id="a_edge27_Node000000_Node000002"><a xlink:title=" ">
<path fill="none" stroke="#63b8ff" d="M88.17,-193.43C106.64,-218.24 143.34,-262.79 185,-287.5 190.76,-290.92 197.19,-293.71 203.7,-295.98"/>
<polygon fill="#63b8ff" stroke="#63b8ff" points="90.93,-191.27 82.21,-185.25 85.27,-195.39 90.93,-191.27"/>
</a>
</g>
</g>
<!-- Node3 -->
<g id="Node000003" class="node">
<title>Node3</title>
<g id="a_Node000003"><a xlink:href="classUGameDataManager.html" target="_top" xlink:title=" ">
<polygon fill="white" stroke="#666666" points="309.5,-278 190.5,-278 190.5,-259 309.5,-259 309.5,-278"/>
<text text-anchor="middle" x="250" y="-266" font-family="Malgun Gothic" font-size="10.00">UGameDataManager</text>
</a>
</g>
</g>
<!-- Node0&#45;&gt;Node3 -->
<g id="edge28_Node000000_Node000003" class="edge">
<title>Node0&#45;&gt;Node3</title>
<g id="a_edge28_Node000000_Node000003"><a xlink:title=" ">
<path fill="none" stroke="#63b8ff" d="M94.7,-191.56C115.68,-208.38 150.88,-234.55 185,-250.5 192.01,-253.78 199.73,-256.57 207.31,-258.91"/>
<polygon fill="#63b8ff" stroke="#63b8ff" points="96.84,-188.79 86.88,-185.18 92.42,-194.21 96.84,-188.79"/>
</a>
</g>
</g>
<!-- Node4 -->
<g id="Node000004" class="node">
<title>Node4</title>
<g id="a_Node000004"><a xlink:href="classUGameSoundManager.html" target="_top" xlink:title=" ">
<polygon fill="white" stroke="#666666" points="313,-241 187,-241 187,-222 313,-222 313,-241"/>
<text text-anchor="middle" x="250" y="-229" font-family="Malgun Gothic" font-size="10.00">UGameSoundManager</text>
</a>
</g>
</g>
<!-- Node0&#45;&gt;Node4 -->
<g id="edge29_Node000000_Node000004" class="edge">
<title>Node0&#45;&gt;Node4</title>
<g id="a_edge29_Node000000_Node000004"><a xlink:title=" ">
<path fill="none" stroke="#63b8ff" d="M111.08,-188.45C132.41,-196.07 160.14,-205.7 185,-213.5 194.25,-216.4 204.32,-219.34 213.68,-221.97"/>
<polygon fill="#63b8ff" stroke="#63b8ff" points="112.06,-185.08 101.46,-185 109.69,-191.67 112.06,-185.08"/>
</a>
</g>
</g>
<!-- Node5 -->
<g id="Node000005" class="node">
<title>Node5</title>
<g id="a_Node000005"><a xlink:href="classUGameVFXManager.html" target="_top" xlink:title=" ">
<polygon fill="white" stroke="#666666" points="308,-204 192,-204 192,-185 308,-185 308,-204"/>
<text text-anchor="middle" x="250" y="-192" font-family="Malgun Gothic" font-size="10.00">UGameVFXManager</text>
</a>
</g>
</g>
<!-- Node0&#45;&gt;Node5 -->
<g id="edge30_Node000000_Node000005" class="edge">
<title>Node0&#45;&gt;Node5</title>
<g id="a_edge30_Node000000_Node000005"><a xlink:title=" ">
<path fill="none" stroke="#63b8ff" d="M159.21,-184.67C170.27,-185.88 181.41,-187.1 191.89,-188.25"/>
<polygon fill="#63b8ff" stroke="#63b8ff" points="159.4,-181.17 149.08,-183.56 158.64,-188.13 159.4,-181.17"/>
</a>
</g>
</g>
<!-- Node6 -->
<g id="Node000006" class="node">
<title>Node6</title>
<g id="a_Node000006"><a xlink:href="classUGoogleSpeechService.html" target="_top" xlink:title="Thin Google Speech (STT/TTS) client.">
<polygon fill="white" stroke="#666666" points="315,-167 185,-167 185,-148 315,-148 315,-167"/>
<text text-anchor="middle" x="250" y="-155" font-family="Malgun Gothic" font-size="10.00">UGoogleSpeechService</text>
</a>
</g>
</g>
<!-- Node0&#45;&gt;Node6 -->
<g id="edge31_Node000000_Node000006" class="edge">
<title>Node0&#45;&gt;Node6</title>
<g id="a_edge31_Node000000_Node000006"><a xlink:title=" ">
<path fill="none" stroke="#63b8ff" d="M159.19,-166.82C167.84,-165.92 176.53,-165.02 184.91,-164.15"/>
<polygon fill="#63b8ff" stroke="#63b8ff" points="158.67,-163.35 149.08,-167.87 159.39,-170.32 158.67,-163.35"/>
</a>
</g>
</g>
<!-- Node7 -->
<g id="Node000007" class="node">
<title>Node7</title>
<g id="a_Node000007"><a xlink:href="classUHttpNetworkSystem.html" target="_top" xlink:title=" ">
<polygon fill="white" stroke="#666666" points="311.5,-130 188.5,-130 188.5,-111 311.5,-111 311.5,-130"/>
<text text-anchor="middle" x="250" y="-118" font-family="Malgun Gothic" font-size="10.00">UHttpNetworkSystem</text>
</a>
</g>
</g>
<!-- Node0&#45;&gt;Node7 -->
<g id="edge32_Node000000_Node000007" class="edge">
<title>Node0&#45;&gt;Node7</title>
<g id="a_edge32_Node000000_Node000007"><a xlink:title=" ">
<path fill="none" stroke="#63b8ff" d="M113.33,-162.76C134.38,-155.75 161.09,-146.98 185,-139.5 195.07,-136.35 206.06,-133.04 216.06,-130.08"/>
<polygon fill="#63b8ff" stroke="#63b8ff" points="112.16,-159.46 103.79,-165.95 114.38,-166.1 112.16,-159.46"/>
</a>
</g>
</g>
<!-- Node8 -->
<g id="Node000008" class="node">
<title>Node8</title>
<g id="a_Node000008"><a xlink:href="classUObjectPoolManager.html" target="_top" xlink:title=" ">
<polygon fill="white" stroke="#666666" points="309.5,-93 190.5,-93 190.5,-74 309.5,-74 309.5,-93"/>
<text text-anchor="middle" x="250" y="-81" font-family="Malgun Gothic" font-size="10.00">UObjectPoolManager</text>
</a>
</g>
</g>
<!-- Node0&#45;&gt;Node8 -->
<g id="edge33_Node000000_Node000008" class="edge">
<title>Node0&#45;&gt;Node8</title>
<g id="a_edge33_Node000000_Node000008"><a xlink:title=" ">
<path fill="none" stroke="#63b8ff" d="M95.16,-159.73C116.28,-143.45 151.36,-118.27 185,-102.5 192.87,-98.81 201.62,-95.65 210.07,-93.03"/>
<polygon fill="#63b8ff" stroke="#63b8ff" points="92.99,-156.99 87.26,-165.91 97.3,-162.51 92.99,-156.99"/>
</a>
</g>
</g>
<!-- Node9 -->
<g id="Node000009" class="node">
<title>Node9</title>
<g id="a_Node000009"><a xlink:href="classUSequenceManager.html" target="_top" xlink:title=" ">
<polygon fill="white" stroke="#666666" points="307,-56 193,-56 193,-37 307,-37 307,-56"/>
<text text-anchor="middle" x="250" y="-44" font-family="Malgun Gothic" font-size="10.00">USequenceManager</text>
</a>
</g>
</g>
<!-- Node0&#45;&gt;Node9 -->
<g id="edge34_Node000000_Node000009" class="edge">
<title>Node0&#45;&gt;Node9</title>
<g id="a_edge34_Node000000_Node000009"><a xlink:title=" ">
<path fill="none" stroke="#63b8ff" d="M88.54,-157.66C107.24,-133.34 143.97,-89.99 185,-65.5 191.37,-61.7 198.55,-58.61 205.75,-56.12"/>
<polygon fill="#63b8ff" stroke="#63b8ff" points="85.5,-155.88 82.28,-165.98 91.09,-160.09 85.5,-155.88"/>
</a>
</g>
</g>
<!-- Node10 -->
<g id="Node000010" class="node">
<title>Node10</title>
<g id="a_Node000010"><a xlink:href="classUWebSocketSystem.html" target="_top" xlink:title=" ">
<polygon fill="white" stroke="#666666" points="307,-19 193,-19 193,0 307,0 307,-19"/>
<text text-anchor="middle" x="250" y="-7" font-family="Malgun Gothic" font-size="10.00">UWebSocketSystem</text>
</a>
</g>
</g>
<!-- Node0&#45;&gt;Node10 -->
<g id="edge35_Node000000_Node000010" class="edge">
<title>Node0&#45;&gt;Node10</title>
<g id="a_edge35_Node000000_Node000010"><a xlink:title=" ">
<path fill="none" stroke="#63b8ff" d="M84.47,-156.58C100.32,-125.22 136.24,-62.55 185,-28.5 190.51,-24.65 196.81,-21.57 203.26,-19.11"/>
<polygon fill="#63b8ff" stroke="#63b8ff" points="81.15,-155.41 79.88,-165.93 87.43,-158.5 81.15,-155.41"/>
</a>
</g>
</g>
</g>
</svg>
