<?xml version="1.0" encoding="UTF-8" standalone="no"?>
<!DOCTYPE svg PUBLIC "-//W3C//DTD SVG 1.1//EN"
 "http://www.w3.org/Graphics/SVG/1.1/DTD/svg11.dtd">
<!-- Generated by graphviz version 2.43.0 (0)
 -->
<!-- Title: Source/LatteLibrary/Manager/Public/Macro.h Pages: 1 -->
<svg width="3112pt" height="192pt"
 viewBox="0.00 0.00 3111.50 192.00" xmlns="http://www.w3.org/2000/svg" xmlns:xlink="http://www.w3.org/1999/xlink">
<g id="graph0" class="graph" transform="scale(1 1) rotate(0) translate(4 188)">
<title>Source/LatteLibrary/Manager/Public/Macro.h</title>
<!-- Node1 -->
<g id="Node000001" class="node">
<title>Node1</title>
<g id="a_Node000001"><a xlink:title="Manager 모듈에서 공통으로 사용하는 매크로 정의에 대한 Doxygen 주석을 제공합니다.">
<polygon fill="#999999" stroke="#666666" points="2135.5,-184 1998.5,-184 1998.5,-154 2135.5,-154 2135.5,-184"/>
<text text-anchor="start" x="2006.5" y="-172" font-family="Malgun Gothic" font-size="10.00">Source/LatteLibrary</text>
<text text-anchor="middle" x="2067" y="-161" font-family="Malgun Gothic" font-size="10.00">/Manager/Public/Macro.h</text>
</a>
</g>
</g>
<!-- Node2 -->
<g id="Node000002" class="node">
<title>Node2</title>
<g id="a_Node000002"><a xlink:href="ALattePlayerCharacter_8cpp.html" target="_top" xlink:title=" ">
<polygon fill="white" stroke="#666666" points="635,-118 465,-118 465,-77 635,-77 635,-118"/>
<text text-anchor="start" x="473" y="-106" font-family="Malgun Gothic" font-size="10.00">Source/LatteLibrary</text>
<text text-anchor="start" x="473" y="-95" font-family="Malgun Gothic" font-size="10.00">/Character/Private/ALattePlayer</text>
<text text-anchor="middle" x="550" y="-84" font-family="Malgun Gothic" font-size="10.00">Character.cpp</text>
</a>
</g>
</g>
<!-- Node1&#45;&gt;Node2 -->
<g id="edge1_Node000001_Node000002" class="edge">
<title>Node1&#45;&gt;Node2</title>
<g id="a_edge1_Node000001_Node000002"><a xlink:title=" ">
<path fill="none" stroke="#63b8ff" d="M1988.17,-166.99C1729.39,-163.4 907.38,-149.71 644,-118 641.1,-117.65 638.17,-117.26 635.2,-116.83"/>
<polygon fill="#63b8ff" stroke="#63b8ff" points="1988.19,-170.49 1998.24,-167.13 1988.29,-163.49 1988.19,-170.49"/>
</a>
</g>
</g>
<!-- Node3 -->
<g id="Node000003" class="node">
<title>Node3</title>
<g id="a_Node000003"><a xlink:href="UBroadcastManger_8h.html" target="_top" xlink:title="UBroadcastManger 선언에 대한 Doxygen 주석을 제공합니다.">
<polygon fill="white" stroke="#666666" points="1721,-118 1567,-118 1567,-77 1721,-77 1721,-118"/>
<text text-anchor="start" x="1575" y="-106" font-family="Malgun Gothic" font-size="10.00">Source/LatteLibrary</text>
<text text-anchor="start" x="1575" y="-95" font-family="Malgun Gothic" font-size="10.00">/Manager/Public/UBroadcast</text>
<text text-anchor="middle" x="1644" y="-84" font-family="Malgun Gothic" font-size="10.00">Manger.h</text>
</a>
</g>
</g>
<!-- Node1&#45;&gt;Node3 -->
<g id="edge2_Node000001_Node000003" class="edge">
<title>Node1&#45;&gt;Node3</title>
<g id="a_edge2_Node000001_Node000003"><a xlink:title=" ">
<path fill="none" stroke="#63b8ff" d="M1988.06,-155.03C1911.73,-142.49 1796.82,-123.61 1721.12,-111.17"/>
<polygon fill="#63b8ff" stroke="#63b8ff" points="1987.66,-158.51 1998.1,-156.68 1988.8,-151.6 1987.66,-158.51"/>
</a>
</g>
</g>
<!-- Node11 -->
<g id="Node000011" class="node">
<title>Node11</title>
<g id="a_Node000011"><a xlink:href="UDelayTaskManager_8h.html" target="_top" xlink:title="UDelayTaskManager 선언에 대한 Doxygen 주석을 제공합니다.">
<polygon fill="white" stroke="#666666" points="2144.5,-118 1989.5,-118 1989.5,-77 2144.5,-77 2144.5,-118"/>
<text text-anchor="start" x="1997.5" y="-106" font-family="Malgun Gothic" font-size="10.00">Source/LatteLibrary</text>
<text text-anchor="start" x="1997.5" y="-95" font-family="Malgun Gothic" font-size="10.00">/Manager/Public/UDelayTask</text>
<text text-anchor="middle" x="2067" y="-84" font-family="Malgun Gothic" font-size="10.00">Manager.h</text>
</a>
</g>
</g>
<!-- Node1&#45;&gt;Node11 -->
<g id="edge10_Node000001_Node000011" class="edge">
<title>Node1&#45;&gt;Node11</title>
<g id="a_edge10_Node000001_Node000011"><a xlink:title=" ">
<path fill="none" stroke="#63b8ff" d="M2067,-143.91C2067,-135.47 2067,-126.1 2067,-118.07"/>
<polygon fill="#63b8ff" stroke="#63b8ff" points="2063.5,-143.94 2067,-153.94 2070.5,-143.94 2063.5,-143.94"/>
</a>
</g>
</g>
<!-- Node13 -->
<g id="Node000013" class="node">
<title>Node13</title>
<g id="a_Node000013"><a xlink:href="UGameDataManager_8h.html" target="_top" xlink:title="UGameDataManager 선언에 대한 Doxygen 주석을 제공합니다.">
<polygon fill="white" stroke="#666666" points="862.5,-112.5 653.5,-112.5 653.5,-82.5 862.5,-82.5 862.5,-112.5"/>
<text text-anchor="start" x="661.5" y="-100.5" font-family="Malgun Gothic" font-size="10.00">Source/LatteLibrary</text>
<text text-anchor="middle" x="758" y="-89.5" font-family="Malgun Gothic" font-size="10.00">/Manager/Public/UGameDataManager.h</text>
</a>
</g>
</g>
<!-- Node1&#45;&gt;Node13 -->
<g id="edge13_Node000001_Node000013" class="edge">
<title>Node1&#45;&gt;Node13</title>
<g id="a_edge13_Node000001_Node000013"><a xlink:title=" ">
<path fill="none" stroke="#63b8ff" d="M1988.4,-163.83C1763.49,-151.89 1117.23,-117.57 862.76,-104.06"/>
<polygon fill="#63b8ff" stroke="#63b8ff" points="1988.29,-167.33 1998.47,-164.36 1988.67,-160.34 1988.29,-167.33"/>
</a>
</g>
</g>
<!-- Node18 -->
<g id="Node000018" class="node">
<title>Node18</title>
<g id="a_Node000018"><a xlink:href="UGameSoundManager_8h.html" target="_top" xlink:title="UGameSoundManager 선언에 대한 Doxygen 주석을 제공합니다.">
<polygon fill="white" stroke="#666666" points="2412,-118 2248,-118 2248,-77 2412,-77 2412,-118"/>
<text text-anchor="start" x="2256" y="-106" font-family="Malgun Gothic" font-size="10.00">Source/LatteLibrary</text>
<text text-anchor="start" x="2256" y="-95" font-family="Malgun Gothic" font-size="10.00">/Manager/Public/UGameSound</text>
<text text-anchor="middle" x="2330" y="-84" font-family="Malgun Gothic" font-size="10.00">Manager.h</text>
</a>
</g>
</g>
<!-- Node1&#45;&gt;Node18 -->
<g id="edge20_Node000001_Node000018" class="edge">
<title>Node1&#45;&gt;Node18</title>
<g id="a_edge20_Node000001_Node000018"><a xlink:title=" ">
<path fill="none" stroke="#63b8ff" d="M2130.1,-151.32C2167.95,-141.32 2216.28,-128.55 2255.93,-118.07"/>
<polygon fill="#63b8ff" stroke="#63b8ff" points="2129,-148 2120.22,-153.94 2130.78,-154.76 2129,-148"/>
</a>
</g>
</g>
<!-- Node20 -->
<g id="Node000020" class="node">
<title>Node20</title>
<g id="a_Node000020"><a xlink:href="UGameVFXManager_8h.html" target="_top" xlink:title="UGameVFXManager 선언에 대한 Doxygen 주석을 제공합니다.">
<polygon fill="white" stroke="#666666" points="2683.5,-112.5 2478.5,-112.5 2478.5,-82.5 2683.5,-82.5 2683.5,-112.5"/>
<text text-anchor="start" x="2486.5" y="-100.5" font-family="Malgun Gothic" font-size="10.00">Source/LatteLibrary</text>
<text text-anchor="middle" x="2581" y="-89.5" font-family="Malgun Gothic" font-size="10.00">/Manager/Public/UGameVFXManager.h</text>
</a>
</g>
</g>
<!-- Node1&#45;&gt;Node20 -->
<g id="edge22_Node000001_Node000020" class="edge">
<title>Node1&#45;&gt;Node20</title>
<g id="a_edge22_Node000001_Node000020"><a xlink:title=" ">
<path fill="none" stroke="#63b8ff" d="M2145.57,-157.38C2234.69,-145.33 2380.34,-125.63 2478.37,-112.38"/>
<polygon fill="#63b8ff" stroke="#63b8ff" points="2144.96,-153.93 2135.52,-158.74 2145.9,-160.86 2144.96,-153.93"/>
</a>
</g>
</g>
<!-- Node22 -->
<g id="Node000022" class="node">
<title>Node22</title>
<g id="a_Node000022"><a xlink:href="UObjectPoolManager_8h.html" target="_top" xlink:title="UObjectPoolManager 선언에 대한 Doxygen 주석을 제공합니다.">
<polygon fill="white" stroke="#666666" points="2888,-118 2730,-118 2730,-77 2888,-77 2888,-118"/>
<text text-anchor="start" x="2738" y="-106" font-family="Malgun Gothic" font-size="10.00">Source/LatteLibrary</text>
<text text-anchor="start" x="2738" y="-95" font-family="Malgun Gothic" font-size="10.00">/Manager/Public/UObjectPool</text>
<text text-anchor="middle" x="2809" y="-84" font-family="Malgun Gothic" font-size="10.00">Manager.h</text>
</a>
</g>
</g>
<!-- Node1&#45;&gt;Node22 -->
<g id="edge24_Node000001_Node000022" class="edge">
<title>Node1&#45;&gt;Node22</title>
<g id="a_edge24_Node000001_Node000022"><a xlink:title=" ">
<path fill="none" stroke="#63b8ff" d="M2145.72,-163.86C2264.43,-157.14 2496.22,-142.1 2692,-118 2704.26,-116.49 2717.2,-114.62 2729.83,-112.63"/>
<polygon fill="#63b8ff" stroke="#63b8ff" points="2145.42,-160.37 2135.63,-164.43 2145.81,-167.36 2145.42,-160.37"/>
</a>
</g>
</g>
<!-- Node24 -->
<g id="Node000024" class="node">
<title>Node24</title>
<g id="a_Node000024"><a xlink:href="UHttpNetworkSystem_8h.html" target="_top" xlink:title="UHttpNetworkSystem 선언에 대한 Doxygen 주석을 제공합니다.">
<polygon fill="white" stroke="#666666" points="1304.5,-112.5 1137.5,-112.5 1137.5,-82.5 1304.5,-82.5 1304.5,-112.5"/>
<text text-anchor="start" x="1145.5" y="-100.5" font-family="Malgun Gothic" font-size="10.00">Source/YiSan/Network</text>
<text text-anchor="middle" x="1221" y="-89.5" font-family="Malgun Gothic" font-size="10.00">/Public/UHttpNetworkSystem.h</text>
</a>
</g>
</g>
<!-- Node1&#45;&gt;Node24 -->
<g id="edge26_Node000001_Node000024" class="edge">
<title>Node1&#45;&gt;Node24</title>
<g id="a_edge26_Node000001_Node000024"><a xlink:title=" ">
<path fill="none" stroke="#63b8ff" d="M1988.27,-161.53C1828.66,-148.42 1468.29,-118.82 1304.65,-105.37"/>
<polygon fill="#63b8ff" stroke="#63b8ff" points="1988.23,-165.04 1998.48,-162.37 1988.81,-158.06 1988.23,-165.04"/>
</a>
</g>
</g>
<!-- Node26 -->
<g id="Node000026" class="node">
<title>Node26</title>
<g id="a_Node000026"><a xlink:href="UWebSocketSystem_8h.html" target="_top" xlink:title="UWebSocketSystem 선언에 대한 Doxygen 주석을 제공합니다.">
<polygon fill="white" stroke="#666666" points="3084,-112.5 2926,-112.5 2926,-82.5 3084,-82.5 3084,-112.5"/>
<text text-anchor="start" x="2934" y="-100.5" font-family="Malgun Gothic" font-size="10.00">Source/YiSan/Network</text>
<text text-anchor="middle" x="3005" y="-89.5" font-family="Malgun Gothic" font-size="10.00">/Public/UWebSocketSystem.h</text>
</a>
</g>
</g>
<!-- Node1&#45;&gt;Node26 -->
<g id="edge29_Node000001_Node000026" class="edge">
<title>Node1&#45;&gt;Node26</title>
<g id="a_edge29_Node000001_Node000026"><a xlink:title=" ">
<path fill="none" stroke="#63b8ff" d="M2145.9,-166.36C2293.73,-162.59 2622.31,-150.96 2897,-118 2909.11,-116.55 2921.91,-114.6 2934.31,-112.5"/>
<polygon fill="#63b8ff" stroke="#63b8ff" points="2145.48,-162.87 2135.57,-166.62 2145.65,-169.86 2145.48,-162.87"/>
</a>
</g>
</g>
<!-- Node4 -->
<g id="Node000004" class="node">
<title>Node4</title>
<g id="a_Node000004"><a xlink:href="UCameraShakeSystem_8cpp.html" target="_top" xlink:title="UCameraShakeSystem 구현에 대한 Doxygen 주석을 제공합니다.">
<polygon fill="white" stroke="#666666" points="1633.5,-41 1480.5,-41 1480.5,0 1633.5,0 1633.5,-41"/>
<text text-anchor="start" x="1488.5" y="-29" font-family="Malgun Gothic" font-size="10.00">Source/LatteLibrary</text>
<text text-anchor="start" x="1488.5" y="-18" font-family="Malgun Gothic" font-size="10.00">/Character/Private/UCamera</text>
<text text-anchor="middle" x="1557" y="-7" font-family="Malgun Gothic" font-size="10.00">ShakeSystem.cpp</text>
</a>
</g>
</g>
<!-- Node3&#45;&gt;Node4 -->
<g id="edge3_Node000003_Node000004" class="edge">
<title>Node3&#45;&gt;Node4</title>
<g id="a_edge3_Node000003_Node000004"><a xlink:title=" ">
<path fill="none" stroke="#63b8ff" d="M1613.34,-70.07C1602.27,-60.52 1589.98,-49.93 1579.71,-41.07"/>
<polygon fill="#63b8ff" stroke="#63b8ff" points="1611.28,-72.92 1621.14,-76.79 1615.85,-67.61 1611.28,-72.92"/>
</a>
</g>
</g>
<!-- Node5 -->
<g id="Node000005" class="node">
<title>Node5</title>
<g id="a_Node000005"><a xlink:href="UHitStopSystem_8cpp.html" target="_top" xlink:title="UHitStopSystem 구현에 대한 Doxygen 주석을 제공합니다.">
<polygon fill="white" stroke="#666666" points="924.5,-41 773.5,-41 773.5,0 924.5,0 924.5,-41"/>
<text text-anchor="start" x="781.5" y="-29" font-family="Malgun Gothic" font-size="10.00">Source/LatteLibrary</text>
<text text-anchor="start" x="781.5" y="-18" font-family="Malgun Gothic" font-size="10.00">/Character/Private/UHitStop</text>
<text text-anchor="middle" x="849" y="-7" font-family="Malgun Gothic" font-size="10.00">System.cpp</text>
</a>
</g>
</g>
<!-- Node3&#45;&gt;Node5 -->
<g id="edge4_Node000003_Node000005" class="edge">
<title>Node3&#45;&gt;Node5</title>
<g id="a_edge4_Node000003_Node000005"><a xlink:title=" ">
<path fill="none" stroke="#63b8ff" d="M1556.39,-91.27C1393.9,-81.31 1051.65,-58.99 934,-41 931.01,-40.54 927.96,-40.04 924.89,-39.49"/>
<polygon fill="#63b8ff" stroke="#63b8ff" points="1556.63,-94.8 1566.83,-91.91 1557.06,-87.81 1556.63,-94.8"/>
</a>
</g>
</g>
<!-- Node6 -->
<g id="Node000006" class="node">
<title>Node6</title>
<g id="a_Node000006"><a xlink:href="UKnockbackSystem_8cpp.html" target="_top" xlink:title="UKnockbackSystem 구현에 대한 Doxygen 주석을 제공합니다.">
<polygon fill="white" stroke="#666666" points="1111,-41 943,-41 943,0 1111,0 1111,-41"/>
<text text-anchor="start" x="951" y="-29" font-family="Malgun Gothic" font-size="10.00">Source/LatteLibrary</text>
<text text-anchor="start" x="951" y="-18" font-family="Malgun Gothic" font-size="10.00">/Character/Private/UKnockback</text>
<text text-anchor="middle" x="1027" y="-7" font-family="Malgun Gothic" font-size="10.00">System.cpp</text>
</a>
</g>
</g>
<!-- Node3&#45;&gt;Node6 -->
<g id="edge5_Node000003_Node000006" class="edge">
<title>Node3&#45;&gt;Node6</title>
<g id="a_edge5_Node000003_Node000006"><a xlink:title=" ">
<path fill="none" stroke="#63b8ff" d="M1556.71,-89.97C1452.42,-81.55 1272.83,-65.05 1120,-41 1117.07,-40.54 1114.09,-40.05 1111.08,-39.53"/>
<polygon fill="#63b8ff" stroke="#63b8ff" points="1556.63,-93.48 1566.88,-90.79 1557.19,-86.5 1556.63,-93.48"/>
</a>
</g>
</g>
<!-- Node7 -->
<g id="Node000007" class="node">
<title>Node7</title>
<g id="a_Node000007"><a xlink:href="UBroadcastManger_8cpp.html" target="_top" xlink:title="UBroadcastManger 구현에 대한 Doxygen 주석을 제공합니다.">
<polygon fill="white" stroke="#666666" points="1810.5,-41 1651.5,-41 1651.5,0 1810.5,0 1810.5,-41"/>
<text text-anchor="start" x="1659.5" y="-29" font-family="Malgun Gothic" font-size="10.00">Source/LatteLibrary</text>
<text text-anchor="start" x="1659.5" y="-18" font-family="Malgun Gothic" font-size="10.00">/Manager/Private/UBroadcast</text>
<text text-anchor="middle" x="1731" y="-7" font-family="Malgun Gothic" font-size="10.00">Manger.cpp</text>
</a>
</g>
</g>
<!-- Node3&#45;&gt;Node7 -->
<g id="edge6_Node000003_Node000007" class="edge">
<title>Node3&#45;&gt;Node7</title>
<g id="a_edge6_Node000003_Node000007"><a xlink:title=" ">
<path fill="none" stroke="#63b8ff" d="M1674.66,-70.07C1685.73,-60.52 1698.02,-49.93 1708.29,-41.07"/>
<polygon fill="#63b8ff" stroke="#63b8ff" points="1672.15,-67.61 1666.86,-76.79 1676.72,-72.92 1672.15,-67.61"/>
</a>
</g>
</g>
<!-- Node8 -->
<g id="Node000008" class="node">
<title>Node8</title>
<g id="a_Node000008"><a xlink:href="AGate_8cpp.html" target="_top" xlink:title=" ">
<polygon fill="white" stroke="#666666" points="1973.5,-35.5 1828.5,-35.5 1828.5,-5.5 1973.5,-5.5 1973.5,-35.5"/>
<text text-anchor="start" x="1836.5" y="-23.5" font-family="Malgun Gothic" font-size="10.00">Source/YiSan/Environment</text>
<text text-anchor="middle" x="1901" y="-12.5" font-family="Malgun Gothic" font-size="10.00">/Private/AGate.cpp</text>
</a>
</g>
</g>
<!-- Node3&#45;&gt;Node8 -->
<g id="edge7_Node000003_Node000008" class="edge">
<title>Node3&#45;&gt;Node8</title>
<g id="a_edge7_Node000003_Node000008"><a xlink:title=" ">
<path fill="none" stroke="#63b8ff" d="M1720.68,-74.12C1763.52,-61.62 1815.59,-46.42 1852.74,-35.58"/>
<polygon fill="#63b8ff" stroke="#63b8ff" points="1719.47,-70.83 1710.85,-76.99 1721.43,-77.55 1719.47,-70.83"/>
</a>
</g>
</g>
<!-- Node9 -->
<g id="Node000009" class="node">
<title>Node9</title>
<g id="a_Node000009"><a xlink:href="UDialogWidget_8cpp.html" target="_top" xlink:title=" ">
<polygon fill="white" stroke="#666666" points="2122.5,-35.5 1991.5,-35.5 1991.5,-5.5 2122.5,-5.5 2122.5,-35.5"/>
<text text-anchor="start" x="1999.5" y="-23.5" font-family="Malgun Gothic" font-size="10.00">Source/YiSan/UI/Private</text>
<text text-anchor="middle" x="2057" y="-12.5" font-family="Malgun Gothic" font-size="10.00">/UDialogWidget.cpp</text>
</a>
</g>
</g>
<!-- Node3&#45;&gt;Node9 -->
<g id="edge8_Node000003_Node000009" class="edge">
<title>Node3&#45;&gt;Node9</title>
<g id="a_edge8_Node000003_Node000009"><a xlink:title=" ">
<path fill="none" stroke="#63b8ff" d="M1731.54,-84.38C1800.02,-74.35 1897.47,-58.89 1982,-41 1989.63,-39.38 1997.66,-37.5 2005.51,-35.55"/>
<polygon fill="#63b8ff" stroke="#63b8ff" points="1730.62,-80.97 1721.23,-85.88 1731.63,-87.9 1730.62,-80.97"/>
</a>
</g>
</g>
<!-- Node10 -->
<g id="Node000010" class="node">
<title>Node10</title>
<g id="a_Node000010"><a xlink:href="UMainWidget_8cpp.html" target="_top" xlink:title=" ">
<polygon fill="white" stroke="#666666" points="1462.5,-35.5 1331.5,-35.5 1331.5,-5.5 1462.5,-5.5 1462.5,-35.5"/>
<text text-anchor="start" x="1339.5" y="-23.5" font-family="Malgun Gothic" font-size="10.00">Source/YiSan/UI/Private</text>
<text text-anchor="middle" x="1397" y="-12.5" font-family="Malgun Gothic" font-size="10.00">/UMainWidget.cpp</text>
</a>
</g>
</g>
<!-- Node3&#45;&gt;Node10 -->
<g id="edge9_Node000003_Node000010" class="edge">
<title>Node3&#45;&gt;Node10</title>
<g id="a_edge9_Node000003_Node000010"><a xlink:title=" ">
<path fill="none" stroke="#63b8ff" d="M1570.04,-74.04C1528.92,-61.56 1479.01,-46.4 1443.38,-35.58"/>
<polygon fill="#63b8ff" stroke="#63b8ff" points="1569.16,-77.43 1579.75,-76.99 1571.2,-70.74 1569.16,-77.43"/>
</a>
</g>
</g>
<!-- Node11&#45;&gt;Node9 -->
<g id="edge12_Node000011_Node000009" class="edge">
<title>Node11&#45;&gt;Node9</title>
<g id="a_edge12_Node000011_Node000009"><a xlink:title=" ">
<path fill="none" stroke="#63b8ff" d="M2063.01,-66.61C2061.6,-56.01 2060.08,-44.57 2058.91,-35.86"/>
<polygon fill="#63b8ff" stroke="#63b8ff" points="2059.58,-67.34 2064.37,-76.79 2066.52,-66.42 2059.58,-67.34"/>
</a>
</g>
</g>
<!-- Node12 -->
<g id="Node000012" class="node">
<title>Node12</title>
<g id="a_Node000012"><a xlink:href="UDelayTaskManager_8cpp.html" target="_top" xlink:title="UDelayTaskManager 구현에 대한 Doxygen 주석을 제공합니다.">
<polygon fill="white" stroke="#666666" points="2301.5,-41 2140.5,-41 2140.5,0 2301.5,0 2301.5,-41"/>
<text text-anchor="start" x="2148.5" y="-29" font-family="Malgun Gothic" font-size="10.00">Source/LatteLibrary</text>
<text text-anchor="start" x="2148.5" y="-18" font-family="Malgun Gothic" font-size="10.00">/Manager/Private/UDelayTask</text>
<text text-anchor="middle" x="2221" y="-7" font-family="Malgun Gothic" font-size="10.00">Manager.cpp</text>
</a>
</g>
</g>
<!-- Node11&#45;&gt;Node12 -->
<g id="edge11_Node000011_Node000012" class="edge">
<title>Node11&#45;&gt;Node12</title>
<g id="a_edge11_Node000011_Node000012"><a xlink:title=" ">
<path fill="none" stroke="#63b8ff" d="M2116.1,-72.59C2137,-62.41 2161.07,-50.69 2180.87,-41.04"/>
<polygon fill="#63b8ff" stroke="#63b8ff" points="2114.52,-69.47 2107.06,-76.99 2117.58,-75.76 2114.52,-69.47"/>
</a>
</g>
</g>
<!-- Node13&#45;&gt;Node5 -->
<g id="edge15_Node000013_Node000005" class="edge">
<title>Node13&#45;&gt;Node5</title>
<g id="a_edge15_Node000013_Node000005"><a xlink:title=" ">
<path fill="none" stroke="#63b8ff" d="M782.87,-76C796.02,-65.16 812.09,-51.92 825.09,-41.2"/>
<polygon fill="#63b8ff" stroke="#63b8ff" points="780.61,-73.33 775.12,-82.39 785.06,-78.73 780.61,-73.33"/>
</a>
</g>
</g>
<!-- Node13&#45;&gt;Node6 -->
<g id="edge16_Node000013_Node000006" class="edge">
<title>Node13&#45;&gt;Node6</title>
<g id="a_edge16_Node000013_Node000006"><a xlink:title=" ">
<path fill="none" stroke="#63b8ff" d="M818.16,-79.73C859.26,-68.27 913.86,-53.04 956.93,-41.04"/>
<polygon fill="#63b8ff" stroke="#63b8ff" points="816.97,-76.42 808.28,-82.48 818.85,-83.17 816.97,-76.42"/>
</a>
</g>
</g>
<!-- Node14 -->
<g id="Node000014" class="node">
<title>Node14</title>
<g id="a_Node000014"><a xlink:href="ALatteGameCharacter_8cpp.html" target="_top" xlink:title=" ">
<polygon fill="white" stroke="#666666" points="168,-41 0,-41 0,0 168,0 168,-41"/>
<text text-anchor="start" x="8" y="-29" font-family="Malgun Gothic" font-size="10.00">Source/LatteLibrary</text>
<text text-anchor="start" x="8" y="-18" font-family="Malgun Gothic" font-size="10.00">/Character/Private/ALatteGame</text>
<text text-anchor="middle" x="84" y="-7" font-family="Malgun Gothic" font-size="10.00">Character.cpp</text>
</a>
</g>
</g>
<!-- Node13&#45;&gt;Node14 -->
<g id="edge14_Node000013_Node000014" class="edge">
<title>Node13&#45;&gt;Node14</title>
<g id="a_edge14_Node000013_Node000014"><a xlink:title=" ">
<path fill="none" stroke="#63b8ff" d="M671.71,-80.87C662.37,-79.44 653,-78.11 644,-77 437.41,-51.42 383.08,-70.42 177,-41 174.06,-40.58 171.07,-40.12 168.06,-39.64"/>
<polygon fill="#63b8ff" stroke="#63b8ff" points="671.38,-84.37 681.8,-82.46 672.47,-77.45 671.38,-84.37"/>
</a>
</g>
</g>
<!-- Node15 -->
<g id="Node000015" class="node">
<title>Node15</title>
<g id="a_Node000015"><a xlink:href="UStatSystem_8cpp.html" target="_top" xlink:title="UStatSystem 구현에 대한 Doxygen 주석을 제공합니다.">
<polygon fill="white" stroke="#666666" points="377.5,-35.5 186.5,-35.5 186.5,-5.5 377.5,-5.5 377.5,-35.5"/>
<text text-anchor="start" x="194.5" y="-23.5" font-family="Malgun Gothic" font-size="10.00">Source/LatteLibrary</text>
<text text-anchor="middle" x="282" y="-12.5" font-family="Malgun Gothic" font-size="10.00">/Character/Private/UStatSystem.cpp</text>
</a>
</g>
</g>
<!-- Node13&#45;&gt;Node15 -->
<g id="edge17_Node000013_Node000015" class="edge">
<title>Node13&#45;&gt;Node15</title>
<g id="a_edge17_Node000013_Node000015"><a xlink:title=" ">
<path fill="none" stroke="#63b8ff" d="M668.09,-80.86C659.95,-79.52 651.83,-78.22 644,-77 529.59,-59.24 500.26,-59.67 386,-41 375.76,-39.33 364.97,-37.44 354.38,-35.52"/>
<polygon fill="#63b8ff" stroke="#63b8ff" points="667.58,-84.32 678.02,-82.5 668.72,-77.41 667.58,-84.32"/>
</a>
</g>
</g>
<!-- Node16 -->
<g id="Node000016" class="node">
<title>Node16</title>
<g id="a_Node000016"><a xlink:href="UGameDataManager_8cpp.html" target="_top" xlink:title="UGameDataManager 구현에 대한 Doxygen 주석을 제공합니다.">
<polygon fill="white" stroke="#666666" points="558.5,-41 395.5,-41 395.5,0 558.5,0 558.5,-41"/>
<text text-anchor="start" x="403.5" y="-29" font-family="Malgun Gothic" font-size="10.00">Source/LatteLibrary</text>
<text text-anchor="start" x="403.5" y="-18" font-family="Malgun Gothic" font-size="10.00">/Manager/Private/UGameData</text>
<text text-anchor="middle" x="477" y="-7" font-family="Malgun Gothic" font-size="10.00">Manager.cpp</text>
</a>
</g>
</g>
<!-- Node13&#45;&gt;Node16 -->
<g id="edge18_Node000013_Node000016" class="edge">
<title>Node13&#45;&gt;Node16</title>
<g id="a_edge18_Node000013_Node000016"><a xlink:title=" ">
<path fill="none" stroke="#63b8ff" d="M695.7,-79.87C652.71,-68.4 595.37,-53.09 550.2,-41.04"/>
<polygon fill="#63b8ff" stroke="#63b8ff" points="694.91,-83.28 705.48,-82.48 696.72,-76.52 694.91,-83.28"/>
</a>
</g>
</g>
<!-- Node17 -->
<g id="Node000017" class="node">
<title>Node17</title>
<g id="a_Node000017"><a xlink:href="ANetworkTesterActor_8cpp.html" target="_top" xlink:title="ANetworkTesterActor 구현에 대한 Doxygen 주석을 제공합니다.">
<polygon fill="white" stroke="#666666" points="755.5,-35.5 576.5,-35.5 576.5,-5.5 755.5,-5.5 755.5,-35.5"/>
<text text-anchor="start" x="584.5" y="-23.5" font-family="Malgun Gothic" font-size="10.00">Source/YiSan/Network</text>
<text text-anchor="middle" x="666" y="-12.5" font-family="Malgun Gothic" font-size="10.00">/Private/ANetworkTesterActor.cpp</text>
</a>
</g>
</g>
<!-- Node13&#45;&gt;Node17 -->
<g id="edge19_Node000013_Node000017" class="edge">
<title>Node13&#45;&gt;Node17</title>
<g id="a_edge19_Node000013_Node000017"><a xlink:title=" ">
<path fill="none" stroke="#63b8ff" d="M732.89,-76.03C717.12,-63.18 697.21,-46.94 683.23,-35.54"/>
<polygon fill="#63b8ff" stroke="#63b8ff" points="730.73,-78.79 740.7,-82.39 735.16,-73.36 730.73,-78.79"/>
</a>
</g>
</g>
<!-- Node19 -->
<g id="Node000019" class="node">
<title>Node19</title>
<g id="a_Node000019"><a xlink:href="UGameSoundManager_8cpp.html" target="_top" xlink:title="UGameSoundManager 구현에 대한 Doxygen 주석을 제공합니다.">
<polygon fill="white" stroke="#666666" points="2490,-41 2320,-41 2320,0 2490,0 2490,-41"/>
<text text-anchor="start" x="2328" y="-29" font-family="Malgun Gothic" font-size="10.00">Source/LatteLibrary</text>
<text text-anchor="start" x="2328" y="-18" font-family="Malgun Gothic" font-size="10.00">/Manager/Private/UGameSound</text>
<text text-anchor="middle" x="2405" y="-7" font-family="Malgun Gothic" font-size="10.00">Manager.cpp</text>
</a>
</g>
</g>
<!-- Node18&#45;&gt;Node19 -->
<g id="edge21_Node000018_Node000019" class="edge">
<title>Node18&#45;&gt;Node19</title>
<g id="a_edge21_Node000018_Node000019"><a xlink:title=" ">
<path fill="none" stroke="#63b8ff" d="M2356.99,-69.51C2366.39,-60.11 2376.74,-49.76 2385.43,-41.07"/>
<polygon fill="#63b8ff" stroke="#63b8ff" points="2354.3,-67.25 2349.71,-76.79 2359.25,-72.2 2354.3,-67.25"/>
</a>
</g>
</g>
<!-- Node21 -->
<g id="Node000021" class="node">
<title>Node21</title>
<g id="a_Node000021"><a xlink:href="UGameVFXManager_8cpp.html" target="_top" xlink:title="UGameVFXManager 구현에 대한 Doxygen 주석을 제공합니다.">
<polygon fill="white" stroke="#666666" points="2729.5,-35.5 2508.5,-35.5 2508.5,-5.5 2729.5,-5.5 2729.5,-35.5"/>
<text text-anchor="start" x="2516.5" y="-23.5" font-family="Malgun Gothic" font-size="10.00">Source/LatteLibrary</text>
<text text-anchor="middle" x="2619" y="-12.5" font-family="Malgun Gothic" font-size="10.00">/Manager/Private/UGameVFXManager.cpp</text>
</a>
</g>
</g>
<!-- Node20&#45;&gt;Node21 -->
<g id="edge23_Node000020_Node000021" class="edge">
<title>Node20&#45;&gt;Node21</title>
<g id="a_edge23_Node000020_Node000021"><a xlink:title=" ">
<path fill="none" stroke="#63b8ff" d="M2592.83,-73.15C2599.08,-60.82 2606.53,-46.11 2611.88,-35.54"/>
<polygon fill="#63b8ff" stroke="#63b8ff" points="2589.55,-71.89 2588.15,-82.39 2595.79,-75.05 2589.55,-71.89"/>
</a>
</g>
</g>
<!-- Node23 -->
<g id="Node000023" class="node">
<title>Node23</title>
<g id="a_Node000023"><a xlink:href="UObjectPoolManager_8cpp.html" target="_top" xlink:title="UObjectPoolManager 구현에 대한 Doxygen 주석을 제공합니다.">
<polygon fill="white" stroke="#666666" points="2910.5,-41 2747.5,-41 2747.5,0 2910.5,0 2910.5,-41"/>
<text text-anchor="start" x="2755.5" y="-29" font-family="Malgun Gothic" font-size="10.00">Source/LatteLibrary</text>
<text text-anchor="start" x="2755.5" y="-18" font-family="Malgun Gothic" font-size="10.00">/Manager/Private/UObjectPool</text>
<text text-anchor="middle" x="2829" y="-7" font-family="Malgun Gothic" font-size="10.00">Manager.cpp</text>
</a>
</g>
</g>
<!-- Node22&#45;&gt;Node23 -->
<g id="edge25_Node000022_Node000023" class="edge">
<title>Node22&#45;&gt;Node23</title>
<g id="a_edge25_Node000022_Node000023"><a xlink:title=" ">
<path fill="none" stroke="#63b8ff" d="M2816.87,-66.98C2819.19,-58.28 2821.67,-48.98 2823.78,-41.07"/>
<polygon fill="#63b8ff" stroke="#63b8ff" points="2813.45,-66.23 2814.25,-76.79 2820.21,-68.03 2813.45,-66.23"/>
</a>
</g>
</g>
<!-- Node24&#45;&gt;Node17 -->
<g id="edge27_Node000024_Node000017" class="edge">
<title>Node24&#45;&gt;Node17</title>
<g id="a_edge27_Node000024_Node000017"><a xlink:title=" ">
<path fill="none" stroke="#63b8ff" d="M1127.16,-87.2C1034.57,-77.53 889.13,-61.02 764,-41 753.98,-39.4 743.42,-37.51 733.09,-35.55"/>
<polygon fill="#63b8ff" stroke="#63b8ff" points="1127.03,-90.71 1137.34,-88.26 1127.76,-83.74 1127.03,-90.71"/>
</a>
</g>
</g>
<!-- Node25 -->
<g id="Node000025" class="node">
<title>Node25</title>
<g id="a_Node000025"><a xlink:href="UHttpNetworkSystem_8cpp.html" target="_top" xlink:title="UHttpNetworkSystem 구현에 대한 Doxygen 주석을 제공합니다.">
<polygon fill="white" stroke="#666666" points="1313,-35.5 1129,-35.5 1129,-5.5 1313,-5.5 1313,-35.5"/>
<text text-anchor="start" x="1137" y="-23.5" font-family="Malgun Gothic" font-size="10.00">Source/YiSan/Network</text>
<text text-anchor="middle" x="1221" y="-12.5" font-family="Malgun Gothic" font-size="10.00">/Private/UHttpNetworkSystem.cpp</text>
</a>
</g>
</g>
<!-- Node24&#45;&gt;Node25 -->
<g id="edge28_Node000024_Node000025" class="edge">
<title>Node24&#45;&gt;Node25</title>
<g id="a_edge28_Node000024_Node000025"><a xlink:title=" ">
<path fill="none" stroke="#63b8ff" d="M1221,-72.04C1221,-59.95 1221,-45.79 1221,-35.54"/>
<polygon fill="#63b8ff" stroke="#63b8ff" points="1217.5,-72.39 1221,-82.39 1224.5,-72.39 1217.5,-72.39"/>
</a>
</g>
</g>
<!-- Node27 -->
<g id="Node000027" class="node">
<title>Node27</title>
<g id="a_Node000027"><a xlink:href="UWebSocketSystem_8cpp.html" target="_top" xlink:title="UWebSocketSystem 구현에 대한 Doxygen 주석을 제공합니다.">
<polygon fill="white" stroke="#666666" points="3103.5,-35.5 2928.5,-35.5 2928.5,-5.5 3103.5,-5.5 3103.5,-35.5"/>
<text text-anchor="start" x="2936.5" y="-23.5" font-family="Malgun Gothic" font-size="10.00">Source/YiSan/Network</text>
<text text-anchor="middle" x="3016" y="-12.5" font-family="Malgun Gothic" font-size="10.00">/Private/UWebSocketSystem.cpp</text>
</a>
</g>
</g>
<!-- Node26&#45;&gt;Node27 -->
<g id="edge30_Node000026_Node000027" class="edge">
<title>Node26&#45;&gt;Node27</title>
<g id="a_edge30_Node000026_Node000027"><a xlink:title=" ">
<path fill="none" stroke="#63b8ff" d="M3008.53,-72.41C3010.32,-60.24 3012.42,-45.9 3013.94,-35.54"/>
<polygon fill="#63b8ff" stroke="#63b8ff" points="3005.06,-71.99 3007.07,-82.39 3011.98,-73.01 3005.06,-71.99"/>
</a>
</g>
</g>
</g>
</svg>
