<?xml version="1.0" encoding="UTF-8" standalone="no"?>
<!DOCTYPE svg PUBLIC "-//W3C//DTD SVG 1.1//EN"
 "http://www.w3.org/Graphics/SVG/1.1/DTD/svg11.dtd">
<!-- Generated by graphviz version 2.43.0 (0)
 -->
<!-- Title: Source/LatteLibrary/Network/Public/NetworkData.h Pages: 1 -->
<svg width="583pt" height="148pt"
 viewBox="0.00 0.00 582.50 148.00" xmlns="http://www.w3.org/2000/svg" xmlns:xlink="http://www.w3.org/1999/xlink">
<g id="graph0" class="graph" transform="scale(1 1) rotate(0) translate(4 144)">
<title>Source/LatteLibrary/Network/Public/NetworkData.h</title>
<!-- Node1 -->
<g id="Node000001" class="node">
<title>Node1</title>
<g id="a_Node000001"><a xlink:title="NetworkData 구조체 선언에 대한 Doxygen 주석을 제공합니다.">
<polygon fill="#999999" stroke="#666666" points="341,-140 171,-140 171,-110 341,-110 341,-140"/>
<text text-anchor="start" x="179" y="-128" font-family="Malgun Gothic" font-size="10.00">Source/LatteLibrary</text>
<text text-anchor="middle" x="256" y="-117" font-family="Malgun Gothic" font-size="10.00">/Network/Public/NetworkData.h</text>
</a>
</g>
</g>
<!-- Node2 -->
<g id="Node000002" class="node">
<title>Node2</title>
<g id="a_Node000002"><a xlink:title=" ">
<polygon fill="#e0e0e0" stroke="#999999" points="88,-19 0,-19 0,0 88,0 88,-19"/>
<text text-anchor="middle" x="44" y="-7" font-family="Malgun Gothic" font-size="10.00">CoreMinimal.h</text>
</a>
</g>
</g>
<!-- Node1&#45;&gt;Node2 -->
<g id="edge1_Node000001_Node000002" class="edge">
<title>Node1&#45;&gt;Node2</title>
<g id="a_edge1_Node000001_Node000002"><a xlink:title=" ">
<path fill="none" stroke="#63b8ff" d="M170.61,-110.37C142.43,-102.93 112.15,-91.5 88,-74 71.92,-62.35 59.72,-42.93 52.29,-28.63"/>
<polygon fill="#63b8ff" stroke="#63b8ff" points="55.27,-26.76 47.74,-19.31 48.98,-29.83 55.27,-26.76"/>
</a>
</g>
</g>
<!-- Node3 -->
<g id="Node000003" class="node">
<title>Node3</title>
<g id="a_Node000003"><a xlink:href="UCustomNetworkSettings_8h.html" target="_top" xlink:title="UCustomNetworkSettings 선언에 대한 Doxygen 주석을 제공합니다.">
<polygon fill="white" stroke="#666666" points="249,-74 97,-74 97,-55 249,-55 249,-74"/>
<text text-anchor="middle" x="173" y="-62" font-family="Malgun Gothic" font-size="10.00">UCustomNetworkSettings.h</text>
</a>
</g>
</g>
<!-- Node1&#45;&gt;Node3 -->
<g id="edge2_Node000001_Node000003" class="edge">
<title>Node1&#45;&gt;Node3</title>
<g id="a_edge2_Node000001_Node000003"><a xlink:title=" ">
<path fill="none" stroke="#63b8ff" d="M235.91,-109.84C223.12,-100.83 206.6,-89.18 193.7,-80.09"/>
<polygon fill="#63b8ff" stroke="#63b8ff" points="195.63,-77.17 185.44,-74.27 191.59,-82.89 195.63,-77.17"/>
</a>
</g>
</g>
<!-- Node6 -->
<g id="Node000006" class="node">
<title>Node6</title>
<g id="a_Node000006"><a xlink:title=" ">
<polygon fill="#e0e0e0" stroke="#999999" points="413,-74 267,-74 267,-55 413,-55 413,-74"/>
<text text-anchor="middle" x="340" y="-62" font-family="Malgun Gothic" font-size="10.00">Templates/SharedPointer.h</text>
</a>
</g>
</g>
<!-- Node1&#45;&gt;Node6 -->
<g id="edge6_Node000001_Node000006" class="edge">
<title>Node1&#45;&gt;Node6</title>
<g id="a_edge6_Node000001_Node000006"><a xlink:title=" ">
<path fill="none" stroke="#63b8ff" d="M276.33,-109.84C289.27,-100.83 305.99,-89.18 319.05,-80.09"/>
<polygon fill="#63b8ff" stroke="#63b8ff" points="321.21,-82.85 327.41,-74.27 317.21,-77.11 321.21,-82.85"/>
</a>
</g>
</g>
<!-- Node7 -->
<g id="Node000007" class="node">
<title>Node7</title>
<g id="a_Node000007"><a xlink:title=" ">
<polygon fill="#e0e0e0" stroke="#999999" points="574.5,-74 431.5,-74 431.5,-55 574.5,-55 574.5,-74"/>
<text text-anchor="middle" x="503" y="-62" font-family="Malgun Gothic" font-size="10.00">NetworkData.generated.h</text>
</a>
</g>
</g>
<!-- Node1&#45;&gt;Node7 -->
<g id="edge7_Node000001_Node000007" class="edge">
<title>Node1&#45;&gt;Node7</title>
<g id="a_edge7_Node000001_Node000007"><a xlink:title=" ">
<path fill="none" stroke="#63b8ff" d="M315.16,-109.99C358.71,-99.67 417.07,-85.85 457.12,-76.37"/>
<polygon fill="#63b8ff" stroke="#63b8ff" points="457.96,-79.76 466.88,-74.05 456.35,-72.95 457.96,-79.76"/>
</a>
</g>
</g>
<!-- Node3&#45;&gt;Node2 -->
<g id="edge3_Node000003_Node000002" class="edge">
<title>Node3&#45;&gt;Node2</title>
<g id="a_edge3_Node000003_Node000002"><a xlink:title=" ">
<path fill="none" stroke="#63b8ff" d="M152.27,-54.98C131.24,-46.34 98.45,-32.87 74.46,-23.02"/>
<polygon fill="#63b8ff" stroke="#63b8ff" points="75.68,-19.73 65.1,-19.17 73.02,-26.21 75.68,-19.73"/>
</a>
</g>
</g>
<!-- Node4 -->
<g id="Node000004" class="node">
<title>Node4</title>
<g id="a_Node000004"><a xlink:title=" ">
<polygon fill="#e0e0e0" stroke="#999999" points="258,-19 106,-19 106,0 258,0 258,-19"/>
<text text-anchor="middle" x="182" y="-7" font-family="Malgun Gothic" font-size="10.00">Engine/DeveloperSettings.h</text>
</a>
</g>
</g>
<!-- Node3&#45;&gt;Node4 -->
<g id="edge4_Node000003_Node000004" class="edge">
<title>Node3&#45;&gt;Node4</title>
<g id="a_edge4_Node000003_Node000004"><a xlink:title=" ">
<path fill="none" stroke="#63b8ff" d="M174.49,-54.75C175.67,-47.8 177.36,-37.85 178.84,-29.13"/>
<polygon fill="#63b8ff" stroke="#63b8ff" points="182.32,-29.53 180.54,-19.09 175.42,-28.36 182.32,-29.53"/>
</a>
</g>
</g>
<!-- Node5 -->
<g id="Node000005" class="node">
<title>Node5</title>
<g id="a_Node000005"><a xlink:title=" ">
<polygon fill="#e0e0e0" stroke="#999999" points="480,-19 276,-19 276,0 480,0 480,-19"/>
<text text-anchor="middle" x="378" y="-7" font-family="Malgun Gothic" font-size="10.00">UCustomNetworkSettings.generated.h</text>
</a>
</g>
</g>
<!-- Node3&#45;&gt;Node5 -->
<g id="edge5_Node000003_Node000005" class="edge">
<title>Node3&#45;&gt;Node5</title>
<g id="a_edge5_Node000003_Node000005"><a xlink:title=" ">
<path fill="none" stroke="#63b8ff" d="M205.94,-54.98C240.95,-45.93 296.47,-31.58 334.93,-21.64"/>
<polygon fill="#63b8ff" stroke="#63b8ff" points="336,-24.97 344.81,-19.08 334.25,-18.2 336,-24.97"/>
</a>
</g>
</g>
</g>
</svg>
