<?xml version="1.0" encoding="UTF-8" standalone="no"?>
<!DOCTYPE svg PUBLIC "-//W3C//DTD SVG 1.1//EN"
 "http://www.w3.org/Graphics/SVG/1.1/DTD/svg11.dtd">
<!-- Generated by graphviz version 2.43.0 (0)
 -->
<!-- Title: Source/CoffeeLibrary/Shared/Public/NetworkLog.h Pages: 1 -->
<svg width="1982pt" height="192pt"
 viewBox="0.00 0.00 1981.50 192.00" xmlns="http://www.w3.org/2000/svg" xmlns:xlink="http://www.w3.org/1999/xlink">
<g id="graph0" class="graph" transform="scale(1 1) rotate(0) translate(4 188)">
<title>Source/CoffeeLibrary/Shared/Public/NetworkLog.h</title>
<!-- Node1 -->
<g id="Node000001" class="node">
<title>Node1</title>
<g id="a_Node000001"><a xlink:title="NetworkLog 선언에 대한 Doxygen 주석을 제공합니다.">
<polygon fill="#999999" stroke="#666666" points="1390,-184 1234,-184 1234,-154 1390,-154 1390,-184"/>
<text text-anchor="start" x="1242" y="-172" font-family="Malgun Gothic" font-size="10.00">Source/CoffeeLibrary</text>
<text text-anchor="middle" x="1312" y="-161" font-family="Malgun Gothic" font-size="10.00">/Shared/Public/NetworkLog.h</text>
</a>
</g>
</g>
<!-- Node2 -->
<g id="Node000002" class="node">
<title>Node2</title>
<g id="a_Node000002"><a xlink:href="NetworkLog_8cpp.html" target="_top" xlink:title="NetworkLog 구현에 대한 Doxygen 주석을 제공합니다.">
<polygon fill="white" stroke="#666666" points="927.5,-112.5 754.5,-112.5 754.5,-82.5 927.5,-82.5 927.5,-112.5"/>
<text text-anchor="start" x="762.5" y="-100.5" font-family="Malgun Gothic" font-size="10.00">Source/CoffeeLibrary</text>
<text text-anchor="middle" x="841" y="-89.5" font-family="Malgun Gothic" font-size="10.00">/Shared/Private/NetworkLog.cpp</text>
</a>
</g>
</g>
<!-- Node1&#45;&gt;Node2 -->
<g id="edge1_Node000001_Node000002" class="edge">
<title>Node1&#45;&gt;Node2</title>
<g id="a_edge1_Node000001_Node000002"><a xlink:title=" ">
<path fill="none" stroke="#63b8ff" d="M1223.93,-158.06C1147.56,-149.02 1034.19,-134.58 936,-118 926.37,-116.37 916.23,-114.48 906.3,-112.53"/>
<polygon fill="#63b8ff" stroke="#63b8ff" points="1223.65,-161.55 1233.99,-159.25 1224.47,-154.6 1223.65,-161.55"/>
</a>
</g>
</g>
<!-- Node3 -->
<g id="Node000003" class="node">
<title>Node3</title>
<g id="a_Node000003"><a xlink:href="GameLogging_8h.html" target="_top" xlink:title="GameLogging 선언에 대한 Doxygen 주석을 제공합니다.">
<polygon fill="white" stroke="#666666" points="1110.5,-112.5 945.5,-112.5 945.5,-82.5 1110.5,-82.5 1110.5,-112.5"/>
<text text-anchor="start" x="953.5" y="-100.5" font-family="Malgun Gothic" font-size="10.00">Source/CoffeeLibrary</text>
<text text-anchor="middle" x="1028" y="-89.5" font-family="Malgun Gothic" font-size="10.00">/Shared/Public/GameLogging.h</text>
</a>
</g>
</g>
<!-- Node1&#45;&gt;Node3 -->
<g id="edge2_Node000001_Node000003" class="edge">
<title>Node1&#45;&gt;Node3</title>
<g id="a_edge2_Node000001_Node000003"><a xlink:title=" ">
<path fill="none" stroke="#63b8ff" d="M1244.75,-151.54C1196.24,-139.67 1131.46,-123.82 1085.39,-112.54"/>
<polygon fill="#63b8ff" stroke="#63b8ff" points="1243.98,-154.96 1254.53,-153.94 1245.65,-148.16 1243.98,-154.96"/>
</a>
</g>
</g>
<!-- Node14 -->
<g id="Node000014" class="node">
<title>Node14</title>
<g id="a_Node000014"><a xlink:href="GoogleSpeechService_8cpp.html" target="_top" xlink:title=" ">
<polygon fill="white" stroke="#666666" points="1299.5,-118 1128.5,-118 1128.5,-77 1299.5,-77 1299.5,-118"/>
<text text-anchor="start" x="1136.5" y="-106" font-family="Malgun Gothic" font-size="10.00">Source/LatteLibrary</text>
<text text-anchor="start" x="1136.5" y="-95" font-family="Malgun Gothic" font-size="10.00">/Network/Private/GoogleSpeech</text>
<text text-anchor="middle" x="1214" y="-84" font-family="Malgun Gothic" font-size="10.00">Service.cpp</text>
</a>
</g>
</g>
<!-- Node1&#45;&gt;Node14 -->
<g id="edge13_Node000001_Node000014" class="edge">
<title>Node1&#45;&gt;Node14</title>
<g id="a_edge13_Node000001_Node000014"><a xlink:title=" ">
<path fill="none" stroke="#63b8ff" d="M1283.86,-148.04C1270.59,-138.63 1254.8,-127.44 1241.6,-118.07"/>
<polygon fill="#63b8ff" stroke="#63b8ff" points="1281.99,-151.01 1292.17,-153.94 1286.04,-145.3 1281.99,-151.01"/>
</a>
</g>
</g>
<!-- Node15 -->
<g id="Node000015" class="node">
<title>Node15</title>
<g id="a_Node000015"><a xlink:href="NetworkData_8cpp.html" target="_top" xlink:title="NetworkData 구조 구현에 대한 Doxygen 주석을 제공합니다.">
<polygon fill="white" stroke="#666666" points="1504,-112.5 1318,-112.5 1318,-82.5 1504,-82.5 1504,-112.5"/>
<text text-anchor="start" x="1326" y="-100.5" font-family="Malgun Gothic" font-size="10.00">Source/LatteLibrary</text>
<text text-anchor="middle" x="1411" y="-89.5" font-family="Malgun Gothic" font-size="10.00">/Network/Private/NetworkData.cpp</text>
</a>
</g>
</g>
<!-- Node1&#45;&gt;Node15 -->
<g id="edge14_Node000001_Node000015" class="edge">
<title>Node1&#45;&gt;Node15</title>
<g id="a_edge14_Node000001_Node000015"><a xlink:title=" ">
<path fill="none" stroke="#63b8ff" d="M1340.57,-147.94C1356.72,-136.6 1376.51,-122.71 1391,-112.54"/>
<polygon fill="#63b8ff" stroke="#63b8ff" points="1338.21,-145.33 1332.03,-153.94 1342.23,-151.05 1338.21,-145.33"/>
</a>
</g>
</g>
<!-- Node16 -->
<g id="Node000016" class="node">
<title>Node16</title>
<g id="a_Node000016"><a xlink:href="UHttpNetworkSystem_8cpp.html" target="_top" xlink:title="UHttpNetworkSystem 구현에 대한 Doxygen 주석을 제공합니다.">
<polygon fill="white" stroke="#666666" points="1693.5,-118 1522.5,-118 1522.5,-77 1693.5,-77 1693.5,-118"/>
<text text-anchor="start" x="1530.5" y="-106" font-family="Malgun Gothic" font-size="10.00">Source/LatteLibrary</text>
<text text-anchor="start" x="1530.5" y="-95" font-family="Malgun Gothic" font-size="10.00">/Network/Private/UHttpNetwork</text>
<text text-anchor="middle" x="1608" y="-84" font-family="Malgun Gothic" font-size="10.00">System.cpp</text>
</a>
</g>
</g>
<!-- Node1&#45;&gt;Node16 -->
<g id="edge15_Node000001_Node000016" class="edge">
<title>Node1&#45;&gt;Node16</title>
<g id="a_edge15_Node000001_Node000016"><a xlink:title=" ">
<path fill="none" stroke="#63b8ff" d="M1381.69,-151.64C1424.57,-141.57 1479.77,-128.61 1524.92,-118.01"/>
<polygon fill="#63b8ff" stroke="#63b8ff" points="1380.84,-148.24 1371.9,-153.94 1382.44,-155.06 1380.84,-148.24"/>
</a>
</g>
</g>
<!-- Node17 -->
<g id="Node000017" class="node">
<title>Node17</title>
<g id="a_Node000017"><a xlink:href="UWebSocketSystem_8cpp.html" target="_top" xlink:title="UWebSocketSystem 구현에 대한 Doxygen 주석을 제공합니다.">
<polygon fill="white" stroke="#666666" points="1874,-118 1712,-118 1712,-77 1874,-77 1874,-118"/>
<text text-anchor="start" x="1720" y="-106" font-family="Malgun Gothic" font-size="10.00">Source/LatteLibrary</text>
<text text-anchor="start" x="1720" y="-95" font-family="Malgun Gothic" font-size="10.00">/Network/Private/UWebSocket</text>
<text text-anchor="middle" x="1793" y="-84" font-family="Malgun Gothic" font-size="10.00">System.cpp</text>
</a>
</g>
</g>
<!-- Node1&#45;&gt;Node17 -->
<g id="edge16_Node000001_Node000017" class="edge">
<title>Node1&#45;&gt;Node17</title>
<g id="a_edge16_Node000001_Node000017"><a xlink:title=" ">
<path fill="none" stroke="#63b8ff" d="M1400.16,-158.92C1479.62,-150.22 1599.51,-135.79 1703,-118 1705.84,-117.51 1708.72,-117 1711.63,-116.46"/>
<polygon fill="#63b8ff" stroke="#63b8ff" points="1399.75,-155.45 1390.19,-160.01 1400.51,-162.4 1399.75,-155.45"/>
</a>
</g>
</g>
<!-- Node4 -->
<g id="Node000004" class="node">
<title>Node4</title>
<g id="a_Node000004"><a xlink:href="GameLogging_8cpp.html" target="_top" xlink:title="GameLogging 구현에 대한 Doxygen 주석을 제공합니다.">
<polygon fill="white" stroke="#666666" points="182,-35.5 0,-35.5 0,-5.5 182,-5.5 182,-35.5"/>
<text text-anchor="start" x="8" y="-23.5" font-family="Malgun Gothic" font-size="10.00">Source/CoffeeLibrary</text>
<text text-anchor="middle" x="91" y="-12.5" font-family="Malgun Gothic" font-size="10.00">/Shared/Private/GameLogging.cpp</text>
</a>
</g>
</g>
<!-- Node3&#45;&gt;Node4 -->
<g id="edge3_Node000003_Node000004" class="edge">
<title>Node3&#45;&gt;Node4</title>
<g id="a_edge3_Node000003_Node000004"><a xlink:title=" ">
<path fill="none" stroke="#63b8ff" d="M958.48,-80.53C950.92,-79.17 943.32,-77.95 936,-77 607.24,-34.5 520.1,-80.83 191,-41 179.5,-39.61 167.34,-37.65 155.6,-35.51"/>
<polygon fill="#63b8ff" stroke="#63b8ff" points="957.88,-83.98 968.36,-82.41 959.18,-77.11 957.88,-83.98"/>
</a>
</g>
</g>
<!-- Node5 -->
<g id="Node000005" class="node">
<title>Node5</title>
<g id="a_Node000005"><a xlink:href="AGameCharacter_8cpp.html" target="_top" xlink:title="AGameCharacter 구현에 대한 Doxygen 주석을 제공합니다.">
<polygon fill="white" stroke="#666666" points="410,-35.5 200,-35.5 200,-5.5 410,-5.5 410,-35.5"/>
<text text-anchor="start" x="208" y="-23.5" font-family="Malgun Gothic" font-size="10.00">Source/LatteLibrary</text>
<text text-anchor="middle" x="305" y="-12.5" font-family="Malgun Gothic" font-size="10.00">/Character/Private/AGameCharacter.cpp</text>
</a>
</g>
</g>
<!-- Node3&#45;&gt;Node5 -->
<g id="edge4_Node000003_Node000005" class="edge">
<title>Node3&#45;&gt;Node5</title>
<g id="a_edge4_Node000003_Node000005"><a xlink:title=" ">
<path fill="none" stroke="#63b8ff" d="M957.86,-80.58C950.5,-79.23 943.11,-78 936,-77 707.89,-45.04 647.69,-68.45 419,-41 406.54,-39.5 393.37,-37.58 380.58,-35.52"/>
<polygon fill="#63b8ff" stroke="#63b8ff" points="957.36,-84.05 967.84,-82.49 958.68,-77.17 957.36,-84.05"/>
</a>
</g>
</g>
<!-- Node6 -->
<g id="Node000006" class="node">
<title>Node6</title>
<g id="a_Node000006"><a xlink:href="UVoiceCaptureComponent_8cpp.html" target="_top" xlink:title=" ">
<polygon fill="white" stroke="#666666" points="607.5,-41 428.5,-41 428.5,0 607.5,0 607.5,-41"/>
<text text-anchor="start" x="436.5" y="-29" font-family="Malgun Gothic" font-size="10.00">Source/LatteLibrary</text>
<text text-anchor="start" x="436.5" y="-18" font-family="Malgun Gothic" font-size="10.00">/Character/Private/UVoiceCapture</text>
<text text-anchor="middle" x="518" y="-7" font-family="Malgun Gothic" font-size="10.00">Component.cpp</text>
</a>
</g>
</g>
<!-- Node3&#45;&gt;Node6 -->
<g id="edge5_Node000003_Node000006" class="edge">
<title>Node3&#45;&gt;Node6</title>
<g id="a_edge5_Node000003_Node000006"><a xlink:title=" ">
<path fill="none" stroke="#63b8ff" d="M955.96,-80.54C949.23,-79.26 942.5,-78.05 936,-77 795.16,-54.18 758,-62.81 617,-41 613.88,-40.52 610.72,-40.01 607.52,-39.47"/>
<polygon fill="#63b8ff" stroke="#63b8ff" points="955.31,-83.98 965.8,-82.47 956.66,-77.11 955.31,-83.98"/>
</a>
</g>
</g>
<!-- Node7 -->
<g id="Node000007" class="node">
<title>Node7</title>
<g id="a_Node000007"><a xlink:href="UVoiceSystem_8cpp.html" target="_top" xlink:title="Implementation of UVoiceSystem.">
<polygon fill="white" stroke="#666666" points="824,-35.5 626,-35.5 626,-5.5 824,-5.5 824,-35.5"/>
<text text-anchor="start" x="634" y="-23.5" font-family="Malgun Gothic" font-size="10.00">Source/LatteLibrary</text>
<text text-anchor="middle" x="725" y="-12.5" font-family="Malgun Gothic" font-size="10.00">/Character/Private/UVoiceSystem.cpp</text>
</a>
</g>
</g>
<!-- Node3&#45;&gt;Node7 -->
<g id="edge6_Node000003_Node000007" class="edge">
<title>Node3&#45;&gt;Node7</title>
<g id="a_edge6_Node000003_Node000007"><a xlink:title=" ">
<path fill="none" stroke="#63b8ff" d="M961.57,-80.06C907.71,-66.73 832.64,-48.14 781.62,-35.51"/>
<polygon fill="#63b8ff" stroke="#63b8ff" points="960.82,-83.48 971.36,-82.48 962.5,-76.68 960.82,-83.48"/>
</a>
</g>
</g>
<!-- Node8 -->
<g id="Node000008" class="node">
<title>Node8</title>
<g id="a_Node000008"><a xlink:href="UCharacterData_8cpp.html" target="_top" xlink:title="UCharacterData 구현에 대한 Doxygen 주석을 제공합니다.">
<polygon fill="white" stroke="#666666" points="1024,-35.5 842,-35.5 842,-5.5 1024,-5.5 1024,-35.5"/>
<text text-anchor="start" x="850" y="-23.5" font-family="Malgun Gothic" font-size="10.00">Source/LatteLibrary</text>
<text text-anchor="middle" x="933" y="-12.5" font-family="Malgun Gothic" font-size="10.00">/Data/Private/UCharacterData.cpp</text>
</a>
</g>
</g>
<!-- Node3&#45;&gt;Node8 -->
<g id="edge7_Node000003_Node000008" class="edge">
<title>Node3&#45;&gt;Node8</title>
<g id="a_edge7_Node000003_Node000008"><a xlink:title=" ">
<path fill="none" stroke="#63b8ff" d="M1002.07,-76.03C985.79,-63.18 965.23,-46.94 950.79,-35.54"/>
<polygon fill="#63b8ff" stroke="#63b8ff" points="1000.11,-78.94 1010.13,-82.39 1004.45,-73.45 1000.11,-78.94"/>
</a>
</g>
</g>
<!-- Node9 -->
<g id="Node000009" class="node">
<title>Node9</title>
<g id="a_Node000009"><a xlink:href="UGameDataManager_8cpp.html" target="_top" xlink:title="UGameDataManager 구현에 대한 Doxygen 주석을 제공합니다.">
<polygon fill="white" stroke="#666666" points="1205.5,-41 1042.5,-41 1042.5,0 1205.5,0 1205.5,-41"/>
<text text-anchor="start" x="1050.5" y="-29" font-family="Malgun Gothic" font-size="10.00">Source/LatteLibrary</text>
<text text-anchor="start" x="1050.5" y="-18" font-family="Malgun Gothic" font-size="10.00">/Manager/Private/UGameData</text>
<text text-anchor="middle" x="1124" y="-7" font-family="Malgun Gothic" font-size="10.00">Manager.cpp</text>
</a>
</g>
</g>
<!-- Node3&#45;&gt;Node9 -->
<g id="edge8_Node000003_Node000009" class="edge">
<title>Node3&#45;&gt;Node9</title>
<g id="a_edge8_Node000003_Node000009"><a xlink:title=" ">
<path fill="none" stroke="#63b8ff" d="M1054.24,-76C1068.11,-65.16 1085.06,-51.92 1098.78,-41.2"/>
<polygon fill="#63b8ff" stroke="#63b8ff" points="1051.78,-73.48 1046.06,-82.39 1056.09,-78.99 1051.78,-73.48"/>
</a>
</g>
</g>
<!-- Node10 -->
<g id="Node000010" class="node">
<title>Node10</title>
<g id="a_Node000010"><a xlink:href="UGameVFXManager_8cpp.html" target="_top" xlink:title="UGameVFXManager 구현에 대한 Doxygen 주석을 제공합니다.">
<polygon fill="white" stroke="#666666" points="1444.5,-35.5 1223.5,-35.5 1223.5,-5.5 1444.5,-5.5 1444.5,-35.5"/>
<text text-anchor="start" x="1231.5" y="-23.5" font-family="Malgun Gothic" font-size="10.00">Source/LatteLibrary</text>
<text text-anchor="middle" x="1334" y="-12.5" font-family="Malgun Gothic" font-size="10.00">/Manager/Private/UGameVFXManager.cpp</text>
</a>
</g>
</g>
<!-- Node3&#45;&gt;Node10 -->
<g id="edge9_Node000003_Node000010" class="edge">
<title>Node3&#45;&gt;Node10</title>
<g id="a_edge9_Node000003_Node000010"><a xlink:title=" ">
<path fill="none" stroke="#63b8ff" d="M1095.09,-80.06C1149.48,-66.73 1225.29,-48.14 1276.82,-35.51"/>
<polygon fill="#63b8ff" stroke="#63b8ff" points="1094.08,-76.7 1085.2,-82.48 1095.74,-83.5 1094.08,-76.7"/>
</a>
</g>
</g>
<!-- Node11 -->
<g id="Node000011" class="node">
<title>Node11</title>
<g id="a_Node000011"><a xlink:href="UYiSanVoiceConsoleSubsystem_8cpp.html" target="_top" xlink:title=" ">
<polygon fill="white" stroke="#666666" points="1627,-41 1463,-41 1463,0 1627,0 1627,-41"/>
<text text-anchor="start" x="1471" y="-29" font-family="Malgun Gothic" font-size="10.00">Source/LatteLibrary</text>
<text text-anchor="start" x="1471" y="-18" font-family="Malgun Gothic" font-size="10.00">/Manager/Private/UYiSanVoice</text>
<text text-anchor="middle" x="1545" y="-7" font-family="Malgun Gothic" font-size="10.00">ConsoleSubsystem.cpp</text>
</a>
</g>
</g>
<!-- Node3&#45;&gt;Node11 -->
<g id="edge10_Node000003_Node000011" class="edge">
<title>Node3&#45;&gt;Node11</title>
<g id="a_edge10_Node000003_Node000011"><a xlink:title=" ">
<path fill="none" stroke="#63b8ff" d="M1100.03,-80.51C1106.77,-79.23 1113.5,-78.04 1120,-77 1267.44,-53.49 1306.58,-64.67 1454,-41 1456.87,-40.54 1459.79,-40.05 1462.73,-39.53"/>
<polygon fill="#63b8ff" stroke="#63b8ff" points="1099.34,-77.07 1090.2,-82.42 1100.68,-83.94 1099.34,-77.07"/>
</a>
</g>
</g>
<!-- Node12 -->
<g id="Node000012" class="node">
<title>Node12</title>
<g id="a_Node000012"><a xlink:href="ANetworkTesterActor_8cpp.html" target="_top" xlink:title="ANetworkTesterActor 구현에 대한 Doxygen 주석을 제공합니다.">
<polygon fill="white" stroke="#666666" points="1824.5,-41 1645.5,-41 1645.5,0 1824.5,0 1824.5,-41"/>
<text text-anchor="start" x="1653.5" y="-29" font-family="Malgun Gothic" font-size="10.00">Source/LatteLibrary</text>
<text text-anchor="start" x="1653.5" y="-18" font-family="Malgun Gothic" font-size="10.00">/Network/Private/ANetworkTester</text>
<text text-anchor="middle" x="1735" y="-7" font-family="Malgun Gothic" font-size="10.00">Actor.cpp</text>
</a>
</g>
</g>
<!-- Node3&#45;&gt;Node12 -->
<g id="edge11_Node000003_Node000012" class="edge">
<title>Node3&#45;&gt;Node12</title>
<g id="a_edge11_Node000003_Node000012"><a xlink:title=" ">
<path fill="none" stroke="#63b8ff" d="M1098.14,-80.58C1105.5,-79.23 1112.89,-78 1120,-77 1347.67,-45.09 1408.11,-71.27 1636,-41 1639.04,-40.6 1642.12,-40.16 1645.24,-39.69"/>
<polygon fill="#63b8ff" stroke="#63b8ff" points="1097.33,-77.17 1088.16,-82.49 1098.64,-84.05 1097.33,-77.17"/>
</a>
</g>
</g>
<!-- Node13 -->
<g id="Node000013" class="node">
<title>Node13</title>
<g id="a_Node000013"><a xlink:href="UMainWdget_8cpp.html" target="_top" xlink:title=" ">
<polygon fill="white" stroke="#666666" points="1973.5,-35.5 1842.5,-35.5 1842.5,-5.5 1973.5,-5.5 1973.5,-35.5"/>
<text text-anchor="start" x="1850.5" y="-23.5" font-family="Malgun Gothic" font-size="10.00">Source/YiSan/UI/Private</text>
<text text-anchor="middle" x="1908" y="-12.5" font-family="Malgun Gothic" font-size="10.00">/UMainWdget.cpp</text>
</a>
</g>
</g>
<!-- Node3&#45;&gt;Node13 -->
<g id="edge12_Node000003_Node000013" class="edge">
<title>Node3&#45;&gt;Node13</title>
<g id="a_edge12_Node000003_Node000013"><a xlink:title=" ">
<path fill="none" stroke="#63b8ff" d="M1097.53,-80.55C1105.08,-79.18 1112.68,-77.95 1120,-77 1435.07,-35.93 1520.02,-89.74 1834,-41 1842.66,-39.65 1851.78,-37.71 1860.54,-35.56"/>
<polygon fill="#63b8ff" stroke="#63b8ff" points="1096.82,-77.12 1087.64,-82.42 1098.12,-84 1096.82,-77.12"/>
</a>
</g>
</g>
</g>
</svg>
