<?xml version="1.0" encoding="UTF-8" standalone="no"?>
<!DOCTYPE svg PUBLIC "-//W3C//DTD SVG 1.1//EN"
 "http://www.w3.org/Graphics/SVG/1.1/DTD/svg11.dtd">
<!-- Generated by graphviz version 2.43.0 (0)
 -->
<!-- Title: Source/YiSan/Network/Public/NetworkData.h Pages: 1 -->
<svg width="550pt" height="170pt"
 viewBox="0.00 0.00 550.32 170.00" xmlns="http://www.w3.org/2000/svg" xmlns:xlink="http://www.w3.org/1999/xlink">
<g id="graph0" class="graph" transform="scale(1 1) rotate(0) translate(4 166)">
<title>Source/YiSan/Network/Public/NetworkData.h</title>
<!-- Node1 -->
<g id="Node000001" class="node">
<title>Node1</title>
<g id="a_Node000001"><a xlink:title="NetworkData 구조체 선언에 대한 Doxygen 주석을 제공합니다.">
<polygon fill="#999999" stroke="#666666" points="235.82,-162 110.82,-162 110.82,-132 235.82,-132 235.82,-162"/>
<text text-anchor="start" x="118.82" y="-150" font-family="Malgun Gothic" font-size="10.00">Source/YiSan/Network</text>
<text text-anchor="middle" x="173.32" y="-139" font-family="Malgun Gothic" font-size="10.00">/Public/NetworkData.h</text>
</a>
</g>
</g>
<!-- Node2 -->
<g id="Node000002" class="node">
<title>Node2</title>
<g id="a_Node000002"><a xlink:href="ANetworkTesterActor_8cpp.html" target="_top" xlink:title="ANetworkTesterActor 구현에 대한 Doxygen 주석을 제공합니다.">
<polygon fill="white" stroke="#666666" points="339.82,-30 160.82,-30 160.82,0 339.82,0 339.82,-30"/>
<text text-anchor="start" x="168.82" y="-18" font-family="Malgun Gothic" font-size="10.00">Source/YiSan/Network</text>
<text text-anchor="middle" x="250.32" y="-7" font-family="Malgun Gothic" font-size="10.00">/Private/ANetworkTesterActor.cpp</text>
</a>
</g>
</g>
<!-- Node1&#45;&gt;Node2 -->
<g id="edge1_Node000001_Node000002" class="edge">
<title>Node1&#45;&gt;Node2</title>
<g id="a_edge1_Node000001_Node000002"><a xlink:title=" ">
<path fill="none" stroke="#63b8ff" d="M100.69,-136.09C43.22,-125.2 -22.62,-103.98 8.32,-66 27.55,-42.38 99.91,-29.58 160.53,-22.86"/>
<polygon fill="#63b8ff" stroke="#63b8ff" points="100.1,-139.54 110.56,-137.88 101.35,-132.65 100.1,-139.54"/>
</a>
</g>
</g>
<!-- Node3 -->
<g id="Node000003" class="node">
<title>Node3</title>
<g id="a_Node000003"><a xlink:href="NetworkData_8cpp.html" target="_top" xlink:title="NetworkData 구조 구현에 대한 Doxygen 주석을 제공합니다.">
<polygon fill="white" stroke="#666666" points="159.32,-96 17.32,-96 17.32,-66 159.32,-66 159.32,-96"/>
<text text-anchor="start" x="25.32" y="-84" font-family="Malgun Gothic" font-size="10.00">Source/YiSan/Network</text>
<text text-anchor="middle" x="88.32" y="-73" font-family="Malgun Gothic" font-size="10.00">/Private/NetworkData.cpp</text>
</a>
</g>
</g>
<!-- Node1&#45;&gt;Node3 -->
<g id="edge2_Node000001_Node000003" class="edge">
<title>Node1&#45;&gt;Node3</title>
<g id="a_edge2_Node000001_Node000003"><a xlink:title=" ">
<path fill="none" stroke="#63b8ff" d="M146.43,-125.75C133.64,-116.13 118.67,-104.86 107.13,-96.16"/>
<polygon fill="#63b8ff" stroke="#63b8ff" points="144.36,-128.58 154.45,-131.8 148.57,-122.99 144.36,-128.58"/>
</a>
</g>
</g>
<!-- Node4 -->
<g id="Node000004" class="node">
<title>Node4</title>
<g id="a_Node000004"><a xlink:href="ANetworkTesterActor_8h.html" target="_top" xlink:title="ANetworkTesterActor 선언에 대한 Doxygen 주석을 제공합니다.">
<polygon fill="white" stroke="#666666" points="340.82,-96 177.82,-96 177.82,-66 340.82,-66 340.82,-96"/>
<text text-anchor="start" x="185.82" y="-84" font-family="Malgun Gothic" font-size="10.00">Source/YiSan/Network</text>
<text text-anchor="middle" x="259.32" y="-73" font-family="Malgun Gothic" font-size="10.00">/Public/ANetworkTesterActor.h</text>
</a>
</g>
</g>
<!-- Node1&#45;&gt;Node4 -->
<g id="edge3_Node000001_Node000004" class="edge">
<title>Node1&#45;&gt;Node4</title>
<g id="a_edge3_Node000001_Node000004"><a xlink:title=" ">
<path fill="none" stroke="#63b8ff" d="M200.52,-125.75C213.46,-116.13 228.6,-104.86 240.28,-96.16"/>
<polygon fill="#63b8ff" stroke="#63b8ff" points="198.34,-123.02 192.4,-131.8 202.51,-128.63 198.34,-123.02"/>
</a>
</g>
</g>
<!-- Node5 -->
<g id="Node000005" class="node">
<title>Node5</title>
<g id="a_Node000005"><a xlink:href="UHttpNetworkSystem_8h.html" target="_top" xlink:title="UHttpNetworkSystem 선언에 대한 Doxygen 주석을 제공합니다.">
<polygon fill="white" stroke="#666666" points="525.82,-96 358.82,-96 358.82,-66 525.82,-66 525.82,-96"/>
<text text-anchor="start" x="366.82" y="-84" font-family="Malgun Gothic" font-size="10.00">Source/YiSan/Network</text>
<text text-anchor="middle" x="442.32" y="-73" font-family="Malgun Gothic" font-size="10.00">/Public/UHttpNetworkSystem.h</text>
</a>
</g>
</g>
<!-- Node1&#45;&gt;Node5 -->
<g id="edge5_Node000001_Node000005" class="edge">
<title>Node1&#45;&gt;Node5</title>
<g id="a_edge5_Node000001_Node000005"><a xlink:title=" ">
<path fill="none" stroke="#63b8ff" d="M242.32,-129.58C285.99,-119.19 341.84,-105.9 383.42,-96.01"/>
<polygon fill="#63b8ff" stroke="#63b8ff" points="241.27,-126.24 232.35,-131.95 242.89,-133.05 241.27,-126.24"/>
</a>
</g>
</g>
<!-- Node4&#45;&gt;Node2 -->
<g id="edge4_Node000004_Node000002" class="edge">
<title>Node4&#45;&gt;Node2</title>
<g id="a_edge4_Node000004_Node000002"><a xlink:title=" ">
<path fill="none" stroke="#63b8ff" d="M255.92,-55.83C254.7,-47.17 253.37,-37.7 252.31,-30.16"/>
<polygon fill="#63b8ff" stroke="#63b8ff" points="252.46,-56.38 257.32,-65.8 259.39,-55.41 252.46,-56.38"/>
</a>
</g>
</g>
<!-- Node5&#45;&gt;Node2 -->
<g id="edge6_Node000005_Node000002" class="edge">
<title>Node5&#45;&gt;Node2</title>
<g id="a_edge6_Node000005_Node000002"><a xlink:title=" ">
<path fill="none" stroke="#63b8ff" d="M390.49,-62.72C359.72,-52.47 321.22,-39.63 292.35,-30.01"/>
<polygon fill="#63b8ff" stroke="#63b8ff" points="389.59,-66.11 400.18,-65.95 391.8,-59.47 389.59,-66.11"/>
</a>
</g>
</g>
<!-- Node6 -->
<g id="Node000006" class="node">
<title>Node6</title>
<g id="a_Node000006"><a xlink:href="UHttpNetworkSystem_8cpp.html" target="_top" xlink:title="UHttpNetworkSystem 구현에 대한 Doxygen 주석을 제공합니다.">
<polygon fill="white" stroke="#666666" points="542.32,-30 358.32,-30 358.32,0 542.32,0 542.32,-30"/>
<text text-anchor="start" x="366.32" y="-18" font-family="Malgun Gothic" font-size="10.00">Source/YiSan/Network</text>
<text text-anchor="middle" x="450.32" y="-7" font-family="Malgun Gothic" font-size="10.00">/Private/UHttpNetworkSystem.cpp</text>
</a>
</g>
</g>
<!-- Node5&#45;&gt;Node6 -->
<g id="edge7_Node000005_Node000006" class="edge">
<title>Node5&#45;&gt;Node6</title>
<g id="a_edge7_Node000005_Node000006"><a xlink:title=" ">
<path fill="none" stroke="#63b8ff" d="M445.34,-55.83C446.42,-47.17 447.6,-37.7 448.55,-30.16"/>
<polygon fill="#63b8ff" stroke="#63b8ff" points="441.86,-55.44 444.09,-65.8 448.81,-56.31 441.86,-55.44"/>
</a>
</g>
</g>
</g>
</svg>
