<?xml version="1.0" encoding="UTF-8" standalone="no"?>
<!DOCTYPE svg PUBLIC "-//W3C//DTD SVG 1.1//EN"
 "http://www.w3.org/Graphics/SVG/1.1/DTD/svg11.dtd">
<!-- Generated by graphviz version 2.43.0 (0)
 -->
<!-- Title: Source/LatteLibrary/Network/Public/NetworkData.h Pages: 1 -->
<svg width="594pt" height="192pt"
 viewBox="0.00 0.00 593.55 192.00" xmlns="http://www.w3.org/2000/svg" xmlns:xlink="http://www.w3.org/1999/xlink">
<g id="graph0" class="graph" transform="scale(1 1) rotate(0) translate(4 188)">
<title>Source/LatteLibrary/Network/Public/NetworkData.h</title>
<!-- Node1 -->
<g id="Node000001" class="node">
<title>Node1</title>
<g id="a_Node000001"><a xlink:title="NetworkData 구조체 선언에 대한 Doxygen 주석을 제공합니다.">
<polygon fill="#999999" stroke="#666666" points="296.05,-184 126.05,-184 126.05,-154 296.05,-154 296.05,-184"/>
<text text-anchor="start" x="134.05" y="-172" font-family="Malgun Gothic" font-size="10.00">Source/LatteLibrary</text>
<text text-anchor="middle" x="211.05" y="-161" font-family="Malgun Gothic" font-size="10.00">/Network/Public/NetworkData.h</text>
</a>
</g>
</g>
<!-- Node2 -->
<g id="Node000002" class="node">
<title>Node2</title>
<g id="a_Node000002"><a xlink:href="ANetworkTesterActor_8cpp.html" target="_top" xlink:title="ANetworkTesterActor 구현에 대한 Doxygen 주석을 제공합니다.">
<polygon fill="white" stroke="#666666" points="396.55,-41 217.55,-41 217.55,0 396.55,0 396.55,-41"/>
<text text-anchor="start" x="225.55" y="-29" font-family="Malgun Gothic" font-size="10.00">Source/LatteLibrary</text>
<text text-anchor="start" x="225.55" y="-18" font-family="Malgun Gothic" font-size="10.00">/Network/Private/ANetworkTester</text>
<text text-anchor="middle" x="307.05" y="-7" font-family="Malgun Gothic" font-size="10.00">Actor.cpp</text>
</a>
</g>
</g>
<!-- Node1&#45;&gt;Node2 -->
<g id="edge1_Node000001_Node000002" class="edge">
<title>Node1&#45;&gt;Node2</title>
<g id="a_edge1_Node000001_Node000002"><a xlink:title=" ">
<path fill="none" stroke="#63b8ff" d="M115.85,-156.59C47.59,-144.51 -26.4,-120.89 10.05,-77 36.06,-45.67 139.75,-31.93 217.34,-25.97"/>
<polygon fill="#63b8ff" stroke="#63b8ff" points="115.42,-160.07 125.86,-158.29 116.59,-153.17 115.42,-160.07"/>
</a>
</g>
</g>
<!-- Node3 -->
<g id="Node000003" class="node">
<title>Node3</title>
<g id="a_Node000003"><a xlink:href="NetworkData_8cpp.html" target="_top" xlink:title="NetworkData 구조 구현에 대한 Doxygen 주석을 제공합니다.">
<polygon fill="white" stroke="#666666" points="205.05,-112.5 19.05,-112.5 19.05,-82.5 205.05,-82.5 205.05,-112.5"/>
<text text-anchor="start" x="27.05" y="-100.5" font-family="Malgun Gothic" font-size="10.00">Source/LatteLibrary</text>
<text text-anchor="middle" x="112.05" y="-89.5" font-family="Malgun Gothic" font-size="10.00">/Network/Private/NetworkData.cpp</text>
</a>
</g>
</g>
<!-- Node1&#45;&gt;Node3 -->
<g id="edge2_Node000001_Node000003" class="edge">
<title>Node1&#45;&gt;Node3</title>
<g id="a_edge2_Node000001_Node000003"><a xlink:title=" ">
<path fill="none" stroke="#63b8ff" d="M182.48,-147.94C166.33,-136.6 146.54,-122.71 132.05,-112.54"/>
<polygon fill="#63b8ff" stroke="#63b8ff" points="180.82,-151.05 191.02,-153.94 184.84,-145.33 180.82,-151.05"/>
</a>
</g>
</g>
<!-- Node4 -->
<g id="Node000004" class="node">
<title>Node4</title>
<g id="a_Node000004"><a xlink:href="ANetworkTesterActor_8h.html" target="_top" xlink:title="ANetworkTesterActor 선언에 대한 Doxygen 주석을 제공합니다.">
<polygon fill="white" stroke="#666666" points="396.55,-118 223.55,-118 223.55,-77 396.55,-77 396.55,-118"/>
<text text-anchor="start" x="231.55" y="-106" font-family="Malgun Gothic" font-size="10.00">Source/LatteLibrary</text>
<text text-anchor="start" x="231.55" y="-95" font-family="Malgun Gothic" font-size="10.00">/Network/Public/ANetworkTester</text>
<text text-anchor="middle" x="310.05" y="-84" font-family="Malgun Gothic" font-size="10.00">Actor.h</text>
</a>
</g>
</g>
<!-- Node1&#45;&gt;Node4 -->
<g id="edge3_Node000001_Node000004" class="edge">
<title>Node1&#45;&gt;Node4</title>
<g id="a_edge3_Node000001_Node000004"><a xlink:title=" ">
<path fill="none" stroke="#63b8ff" d="M239.48,-148.04C252.88,-138.63 268.83,-127.44 282.17,-118.07"/>
<polygon fill="#63b8ff" stroke="#63b8ff" points="237.26,-145.33 231.08,-153.94 241.28,-151.05 237.26,-145.33"/>
</a>
</g>
</g>
<!-- Node5 -->
<g id="Node000005" class="node">
<title>Node5</title>
<g id="a_Node000005"><a xlink:href="UHttpNetworkSystem_8h.html" target="_top" xlink:title="UHttpNetworkSystem 선언에 대한 Doxygen 주석을 제공합니다.">
<polygon fill="white" stroke="#666666" points="581.05,-118 415.05,-118 415.05,-77 581.05,-77 581.05,-118"/>
<text text-anchor="start" x="423.05" y="-106" font-family="Malgun Gothic" font-size="10.00">Source/LatteLibrary</text>
<text text-anchor="start" x="423.05" y="-95" font-family="Malgun Gothic" font-size="10.00">/Network/Public/UHttpNetwork</text>
<text text-anchor="middle" x="498.05" y="-84" font-family="Malgun Gothic" font-size="10.00">System.h</text>
</a>
</g>
</g>
<!-- Node1&#45;&gt;Node5 -->
<g id="edge5_Node000001_Node000005" class="edge">
<title>Node1&#45;&gt;Node5</title>
<g id="a_edge5_Node000001_Node000005"><a xlink:title=" ">
<path fill="none" stroke="#63b8ff" d="M278.88,-151.57C320.42,-141.52 373.81,-128.59 417.49,-118.01"/>
<polygon fill="#63b8ff" stroke="#63b8ff" points="278.02,-148.18 269.13,-153.94 279.67,-154.98 278.02,-148.18"/>
</a>
</g>
</g>
<!-- Node4&#45;&gt;Node2 -->
<g id="edge4_Node000004_Node000002" class="edge">
<title>Node4&#45;&gt;Node2</title>
<g id="a_edge4_Node000004_Node000002"><a xlink:title=" ">
<path fill="none" stroke="#63b8ff" d="M308.86,-66.69C308.51,-58.08 308.15,-48.9 307.83,-41.07"/>
<polygon fill="#63b8ff" stroke="#63b8ff" points="305.36,-66.94 309.26,-76.79 312.36,-66.66 305.36,-66.94"/>
</a>
</g>
</g>
<!-- Node5&#45;&gt;Node2 -->
<g id="edge6_Node000005_Node000002" class="edge">
<title>Node5&#45;&gt;Node2</title>
<g id="a_edge6_Node000005_Node000002"><a xlink:title=" ">
<path fill="none" stroke="#63b8ff" d="M438.88,-73.27C412.57,-62.94 381.93,-50.9 356.82,-41.04"/>
<polygon fill="#63b8ff" stroke="#63b8ff" points="437.78,-76.59 448.36,-76.99 440.34,-70.08 437.78,-76.59"/>
</a>
</g>
</g>
<!-- Node6 -->
<g id="Node000006" class="node">
<title>Node6</title>
<g id="a_Node000006"><a xlink:href="UHttpNetworkSystem_8cpp.html" target="_top" xlink:title="UHttpNetworkSystem 구현에 대한 Doxygen 주석을 제공합니다.">
<polygon fill="white" stroke="#666666" points="585.55,-41 414.55,-41 414.55,0 585.55,0 585.55,-41"/>
<text text-anchor="start" x="422.55" y="-29" font-family="Malgun Gothic" font-size="10.00">Source/LatteLibrary</text>
<text text-anchor="start" x="422.55" y="-18" font-family="Malgun Gothic" font-size="10.00">/Network/Private/UHttpNetwork</text>
<text text-anchor="middle" x="500.05" y="-7" font-family="Malgun Gothic" font-size="10.00">System.cpp</text>
</a>
</g>
</g>
<!-- Node5&#45;&gt;Node6 -->
<g id="edge7_Node000005_Node000006" class="edge">
<title>Node5&#45;&gt;Node6</title>
<g id="a_edge7_Node000005_Node000006"><a xlink:title=" ">
<path fill="none" stroke="#63b8ff" d="M498.84,-66.69C499.07,-58.08 499.32,-48.9 499.53,-41.07"/>
<polygon fill="#63b8ff" stroke="#63b8ff" points="495.34,-66.7 498.57,-76.79 502.34,-66.89 495.34,-66.7"/>
</a>
</g>
</g>
</g>
</svg>
