<?xml version="1.0" encoding="UTF-8" standalone="no"?>
<!DOCTYPE svg PUBLIC "-//W3C//DTD SVG 1.1//EN"
 "http://www.w3.org/Graphics/SVG/1.1/DTD/svg11.dtd">
<!-- Generated by graphviz version 2.43.0 (0)
 -->
<!-- Title: Source/CoffeeLibrary/Shared/Public/NetworkLog.h Pages: 1 -->
<svg width="1564pt" height="192pt"
 viewBox="0.00 0.00 1564.00 192.00" xmlns="http://www.w3.org/2000/svg" xmlns:xlink="http://www.w3.org/1999/xlink">
<g id="graph0" class="graph" transform="scale(1 1) rotate(0) translate(4 188)">
<title>Source/CoffeeLibrary/Shared/Public/NetworkLog.h</title>
<!-- Node1 -->
<g id="Node000001" class="node">
<title>Node1</title>
<g id="a_Node000001"><a xlink:title="NetworkLog 선언에 대한 Doxygen 주석을 제공합니다.">
<polygon fill="#999999" stroke="#666666" points="1072,-184 916,-184 916,-154 1072,-154 1072,-184"/>
<text text-anchor="start" x="924" y="-172" font-family="Malgun Gothic" font-size="10.00">Source/CoffeeLibrary</text>
<text text-anchor="middle" x="994" y="-161" font-family="Malgun Gothic" font-size="10.00">/Shared/Public/NetworkLog.h</text>
</a>
</g>
</g>
<!-- Node2 -->
<g id="Node000002" class="node">
<title>Node2</title>
<g id="a_Node000002"><a xlink:href="NetworkLog_8cpp.html" target="_top" xlink:title="NetworkLog 구현에 대한 Doxygen 주석을 제공합니다.">
<polygon fill="white" stroke="#666666" points="609.5,-112.5 436.5,-112.5 436.5,-82.5 609.5,-82.5 609.5,-112.5"/>
<text text-anchor="start" x="444.5" y="-100.5" font-family="Malgun Gothic" font-size="10.00">Source/CoffeeLibrary</text>
<text text-anchor="middle" x="523" y="-89.5" font-family="Malgun Gothic" font-size="10.00">/Shared/Private/NetworkLog.cpp</text>
</a>
</g>
</g>
<!-- Node1&#45;&gt;Node2 -->
<g id="edge1_Node000001_Node000002" class="edge">
<title>Node1&#45;&gt;Node2</title>
<g id="a_edge1_Node000001_Node000002"><a xlink:title=" ">
<path fill="none" stroke="#63b8ff" d="M905.93,-158.06C829.56,-149.02 716.19,-134.58 618,-118 608.37,-116.37 598.23,-114.48 588.3,-112.53"/>
<polygon fill="#63b8ff" stroke="#63b8ff" points="905.65,-161.55 915.99,-159.25 906.47,-154.6 905.65,-161.55"/>
</a>
</g>
</g>
<!-- Node3 -->
<g id="Node000003" class="node">
<title>Node3</title>
<g id="a_Node000003"><a xlink:href="GameLogging_8h.html" target="_top" xlink:title="GameLogging 선언에 대한 Doxygen 주석을 제공합니다.">
<polygon fill="white" stroke="#666666" points="792.5,-112.5 627.5,-112.5 627.5,-82.5 792.5,-82.5 792.5,-112.5"/>
<text text-anchor="start" x="635.5" y="-100.5" font-family="Malgun Gothic" font-size="10.00">Source/CoffeeLibrary</text>
<text text-anchor="middle" x="710" y="-89.5" font-family="Malgun Gothic" font-size="10.00">/Shared/Public/GameLogging.h</text>
</a>
</g>
</g>
<!-- Node1&#45;&gt;Node3 -->
<g id="edge2_Node000001_Node000003" class="edge">
<title>Node1&#45;&gt;Node3</title>
<g id="a_edge2_Node000001_Node000003"><a xlink:title=" ">
<path fill="none" stroke="#63b8ff" d="M926.75,-151.54C878.24,-139.67 813.46,-123.82 767.39,-112.54"/>
<polygon fill="#63b8ff" stroke="#63b8ff" points="925.98,-154.96 936.53,-153.94 927.65,-148.16 925.98,-154.96"/>
</a>
</g>
</g>
<!-- Node11 -->
<g id="Node000011" class="node">
<title>Node11</title>
<g id="a_Node000011"><a xlink:href="GoogleSpeechService_8cpp.html" target="_top" xlink:title=" ">
<polygon fill="white" stroke="#666666" points="981.5,-118 810.5,-118 810.5,-77 981.5,-77 981.5,-118"/>
<text text-anchor="start" x="818.5" y="-106" font-family="Malgun Gothic" font-size="10.00">Source/LatteLibrary</text>
<text text-anchor="start" x="818.5" y="-95" font-family="Malgun Gothic" font-size="10.00">/Network/Private/GoogleSpeech</text>
<text text-anchor="middle" x="896" y="-84" font-family="Malgun Gothic" font-size="10.00">Service.cpp</text>
</a>
</g>
</g>
<!-- Node1&#45;&gt;Node11 -->
<g id="edge10_Node000001_Node000011" class="edge">
<title>Node1&#45;&gt;Node11</title>
<g id="a_edge10_Node000001_Node000011"><a xlink:title=" ">
<path fill="none" stroke="#63b8ff" d="M965.86,-148.04C952.59,-138.63 936.8,-127.44 923.6,-118.07"/>
<polygon fill="#63b8ff" stroke="#63b8ff" points="963.99,-151.01 974.17,-153.94 968.04,-145.3 963.99,-151.01"/>
</a>
</g>
</g>
<!-- Node12 -->
<g id="Node000012" class="node">
<title>Node12</title>
<g id="a_Node000012"><a xlink:href="NetworkData_8cpp.html" target="_top" xlink:title="NetworkData 구조 구현에 대한 Doxygen 주석을 제공합니다.">
<polygon fill="white" stroke="#666666" points="1186,-112.5 1000,-112.5 1000,-82.5 1186,-82.5 1186,-112.5"/>
<text text-anchor="start" x="1008" y="-100.5" font-family="Malgun Gothic" font-size="10.00">Source/LatteLibrary</text>
<text text-anchor="middle" x="1093" y="-89.5" font-family="Malgun Gothic" font-size="10.00">/Network/Private/NetworkData.cpp</text>
</a>
</g>
</g>
<!-- Node1&#45;&gt;Node12 -->
<g id="edge11_Node000001_Node000012" class="edge">
<title>Node1&#45;&gt;Node12</title>
<g id="a_edge11_Node000001_Node000012"><a xlink:title=" ">
<path fill="none" stroke="#63b8ff" d="M1022.57,-147.94C1038.72,-136.6 1058.51,-122.71 1073,-112.54"/>
<polygon fill="#63b8ff" stroke="#63b8ff" points="1020.21,-145.33 1014.03,-153.94 1024.23,-151.05 1020.21,-145.33"/>
</a>
</g>
</g>
<!-- Node13 -->
<g id="Node000013" class="node">
<title>Node13</title>
<g id="a_Node000013"><a xlink:href="UHttpNetworkSystem_8cpp.html" target="_top" xlink:title="UHttpNetworkSystem 구현에 대한 Doxygen 주석을 제공합니다.">
<polygon fill="white" stroke="#666666" points="1375.5,-118 1204.5,-118 1204.5,-77 1375.5,-77 1375.5,-118"/>
<text text-anchor="start" x="1212.5" y="-106" font-family="Malgun Gothic" font-size="10.00">Source/LatteLibrary</text>
<text text-anchor="start" x="1212.5" y="-95" font-family="Malgun Gothic" font-size="10.00">/Network/Private/UHttpNetwork</text>
<text text-anchor="middle" x="1290" y="-84" font-family="Malgun Gothic" font-size="10.00">System.cpp</text>
</a>
</g>
</g>
<!-- Node1&#45;&gt;Node13 -->
<g id="edge12_Node000001_Node000013" class="edge">
<title>Node1&#45;&gt;Node13</title>
<g id="a_edge12_Node000001_Node000013"><a xlink:title=" ">
<path fill="none" stroke="#63b8ff" d="M1063.69,-151.64C1106.57,-141.57 1161.77,-128.61 1206.92,-118.01"/>
<polygon fill="#63b8ff" stroke="#63b8ff" points="1062.84,-148.24 1053.9,-153.94 1064.44,-155.06 1062.84,-148.24"/>
</a>
</g>
</g>
<!-- Node14 -->
<g id="Node000014" class="node">
<title>Node14</title>
<g id="a_Node000014"><a xlink:href="UWebSocketSystem_8cpp.html" target="_top" xlink:title="UWebSocketSystem 구현에 대한 Doxygen 주석을 제공합니다.">
<polygon fill="white" stroke="#666666" points="1556,-118 1394,-118 1394,-77 1556,-77 1556,-118"/>
<text text-anchor="start" x="1402" y="-106" font-family="Malgun Gothic" font-size="10.00">Source/LatteLibrary</text>
<text text-anchor="start" x="1402" y="-95" font-family="Malgun Gothic" font-size="10.00">/Network/Private/UWebSocket</text>
<text text-anchor="middle" x="1475" y="-84" font-family="Malgun Gothic" font-size="10.00">System.cpp</text>
</a>
</g>
</g>
<!-- Node1&#45;&gt;Node14 -->
<g id="edge13_Node000001_Node000014" class="edge">
<title>Node1&#45;&gt;Node14</title>
<g id="a_edge13_Node000001_Node000014"><a xlink:title=" ">
<path fill="none" stroke="#63b8ff" d="M1082.16,-158.92C1161.62,-150.22 1281.51,-135.79 1385,-118 1387.84,-117.51 1390.72,-117 1393.63,-116.46"/>
<polygon fill="#63b8ff" stroke="#63b8ff" points="1081.75,-155.45 1072.19,-160.01 1082.51,-162.4 1081.75,-155.45"/>
</a>
</g>
</g>
<!-- Node4 -->
<g id="Node000004" class="node">
<title>Node4</title>
<g id="a_Node000004"><a xlink:href="GameLogging_8cpp.html" target="_top" xlink:title="GameLogging 구현에 대한 Doxygen 주석을 제공합니다.">
<polygon fill="white" stroke="#666666" points="182,-35.5 0,-35.5 0,-5.5 182,-5.5 182,-35.5"/>
<text text-anchor="start" x="8" y="-23.5" font-family="Malgun Gothic" font-size="10.00">Source/CoffeeLibrary</text>
<text text-anchor="middle" x="91" y="-12.5" font-family="Malgun Gothic" font-size="10.00">/Shared/Private/GameLogging.cpp</text>
</a>
</g>
</g>
<!-- Node3&#45;&gt;Node4 -->
<g id="edge3_Node000003_Node000004" class="edge">
<title>Node3&#45;&gt;Node4</title>
<g id="a_edge3_Node000003_Node000004"><a xlink:title=" ">
<path fill="none" stroke="#63b8ff" d="M638.67,-80.47C631.7,-79.18 624.73,-77.99 618,-77 429.59,-49.2 379.63,-67.26 191,-41 180.14,-39.49 168.67,-37.56 157.53,-35.52"/>
<polygon fill="#63b8ff" stroke="#63b8ff" points="638.35,-83.97 648.83,-82.42 639.67,-77.1 638.35,-83.97"/>
</a>
</g>
</g>
<!-- Node5 -->
<g id="Node000005" class="node">
<title>Node5</title>
<g id="a_Node000005"><a xlink:href="AGameCharacter_8cpp.html" target="_top" xlink:title="AGameCharacter 구현에 대한 Doxygen 주석을 제공합니다.">
<polygon fill="white" stroke="#666666" points="410,-35.5 200,-35.5 200,-5.5 410,-5.5 410,-35.5"/>
<text text-anchor="start" x="208" y="-23.5" font-family="Malgun Gothic" font-size="10.00">Source/LatteLibrary</text>
<text text-anchor="middle" x="305" y="-12.5" font-family="Malgun Gothic" font-size="10.00">/Character/Private/AGameCharacter.cpp</text>
</a>
</g>
</g>
<!-- Node3&#45;&gt;Node5 -->
<g id="edge4_Node000003_Node000005" class="edge">
<title>Node3&#45;&gt;Node5</title>
<g id="a_edge4_Node000003_Node000005"><a xlink:title=" ">
<path fill="none" stroke="#63b8ff" d="M635.35,-80.46C629.48,-79.26 623.65,-78.1 618,-77 574.66,-68.57 463.23,-49 385.75,-35.5"/>
<polygon fill="#63b8ff" stroke="#63b8ff" points="634.72,-83.9 645.22,-82.49 636.13,-77.04 634.72,-83.9"/>
</a>
</g>
</g>
<!-- Node6 -->
<g id="Node000006" class="node">
<title>Node6</title>
<g id="a_Node000006"><a xlink:href="UCharacterData_8cpp.html" target="_top" xlink:title="UCharacterData 구현에 대한 Doxygen 주석을 제공합니다.">
<polygon fill="white" stroke="#666666" points="610,-35.5 428,-35.5 428,-5.5 610,-5.5 610,-35.5"/>
<text text-anchor="start" x="436" y="-23.5" font-family="Malgun Gothic" font-size="10.00">Source/LatteLibrary</text>
<text text-anchor="middle" x="519" y="-12.5" font-family="Malgun Gothic" font-size="10.00">/Data/Private/UCharacterData.cpp</text>
</a>
</g>
</g>
<!-- Node3&#45;&gt;Node6 -->
<g id="edge5_Node000003_Node000006" class="edge">
<title>Node3&#45;&gt;Node6</title>
<g id="a_edge5_Node000003_Node000006"><a xlink:title=" ">
<path fill="none" stroke="#63b8ff" d="M664.49,-78.63C630.89,-65.43 585.8,-47.73 554.76,-35.54"/>
<polygon fill="#63b8ff" stroke="#63b8ff" points="663.49,-82 674.07,-82.39 666.05,-75.48 663.49,-82"/>
</a>
</g>
</g>
<!-- Node7 -->
<g id="Node000007" class="node">
<title>Node7</title>
<g id="a_Node000007"><a xlink:href="UGameDataManager_8cpp.html" target="_top" xlink:title="UGameDataManager 구현에 대한 Doxygen 주석을 제공합니다.">
<polygon fill="white" stroke="#666666" points="791.5,-41 628.5,-41 628.5,0 791.5,0 791.5,-41"/>
<text text-anchor="start" x="636.5" y="-29" font-family="Malgun Gothic" font-size="10.00">Source/LatteLibrary</text>
<text text-anchor="start" x="636.5" y="-18" font-family="Malgun Gothic" font-size="10.00">/Manager/Private/UGameData</text>
<text text-anchor="middle" x="710" y="-7" font-family="Malgun Gothic" font-size="10.00">Manager.cpp</text>
</a>
</g>
</g>
<!-- Node3&#45;&gt;Node7 -->
<g id="edge6_Node000003_Node000007" class="edge">
<title>Node3&#45;&gt;Node7</title>
<g id="a_edge6_Node000003_Node000007"><a xlink:title=" ">
<path fill="none" stroke="#63b8ff" d="M710,-72.23C710,-62.2 710,-50.71 710,-41.2"/>
<polygon fill="#63b8ff" stroke="#63b8ff" points="706.5,-72.39 710,-82.39 713.5,-72.39 706.5,-72.39"/>
</a>
</g>
</g>
<!-- Node8 -->
<g id="Node000008" class="node">
<title>Node8</title>
<g id="a_Node000008"><a xlink:href="UGameVFXManager_8cpp.html" target="_top" xlink:title="UGameVFXManager 구현에 대한 Doxygen 주석을 제공합니다.">
<polygon fill="white" stroke="#666666" points="1030.5,-35.5 809.5,-35.5 809.5,-5.5 1030.5,-5.5 1030.5,-35.5"/>
<text text-anchor="start" x="817.5" y="-23.5" font-family="Malgun Gothic" font-size="10.00">Source/LatteLibrary</text>
<text text-anchor="middle" x="920" y="-12.5" font-family="Malgun Gothic" font-size="10.00">/Manager/Private/UGameVFXManager.cpp</text>
</a>
</g>
</g>
<!-- Node3&#45;&gt;Node8 -->
<g id="edge7_Node000003_Node000008" class="edge">
<title>Node3&#45;&gt;Node8</title>
<g id="a_edge7_Node000003_Node000008"><a xlink:title=" ">
<path fill="none" stroke="#63b8ff" d="M759.09,-78.97C796.13,-65.74 846.27,-47.83 880.68,-35.54"/>
<polygon fill="#63b8ff" stroke="#63b8ff" points="757.74,-75.73 749.5,-82.39 760.09,-82.33 757.74,-75.73"/>
</a>
</g>
</g>
<!-- Node9 -->
<g id="Node000009" class="node">
<title>Node9</title>
<g id="a_Node000009"><a xlink:href="ANetworkTesterActor_8cpp.html" target="_top" xlink:title="ANetworkTesterActor 구현에 대한 Doxygen 주석을 제공합니다.">
<polygon fill="white" stroke="#666666" points="1227.5,-41 1048.5,-41 1048.5,0 1227.5,0 1227.5,-41"/>
<text text-anchor="start" x="1056.5" y="-29" font-family="Malgun Gothic" font-size="10.00">Source/LatteLibrary</text>
<text text-anchor="start" x="1056.5" y="-18" font-family="Malgun Gothic" font-size="10.00">/Network/Private/ANetworkTester</text>
<text text-anchor="middle" x="1138" y="-7" font-family="Malgun Gothic" font-size="10.00">Actor.cpp</text>
</a>
</g>
</g>
<!-- Node3&#45;&gt;Node9 -->
<g id="edge8_Node000003_Node000009" class="edge">
<title>Node3&#45;&gt;Node9</title>
<g id="a_edge8_Node000003_Node000009"><a xlink:title=" ">
<path fill="none" stroke="#63b8ff" d="M783.98,-80.42C790.07,-79.22 796.13,-78.06 802,-77 907.26,-57.9 934.62,-59.44 1040,-41 1042.73,-40.52 1045.51,-40.03 1048.31,-39.52"/>
<polygon fill="#63b8ff" stroke="#63b8ff" points="782.86,-77.08 773.75,-82.48 784.24,-83.94 782.86,-77.08"/>
</a>
</g>
</g>
<!-- Node10 -->
<g id="Node000010" class="node">
<title>Node10</title>
<g id="a_Node000010"><a xlink:href="UMainWdget_8cpp.html" target="_top" xlink:title=" ">
<polygon fill="white" stroke="#666666" points="1376.5,-35.5 1245.5,-35.5 1245.5,-5.5 1376.5,-5.5 1376.5,-35.5"/>
<text text-anchor="start" x="1253.5" y="-23.5" font-family="Malgun Gothic" font-size="10.00">Source/YiSan/UI/Private</text>
<text text-anchor="middle" x="1311" y="-12.5" font-family="Malgun Gothic" font-size="10.00">/UMainWdget.cpp</text>
</a>
</g>
</g>
<!-- Node3&#45;&gt;Node10 -->
<g id="edge9_Node000003_Node000010" class="edge">
<title>Node3&#45;&gt;Node10</title>
<g id="a_edge9_Node000003_Node000010"><a xlink:title=" ">
<path fill="none" stroke="#63b8ff" d="M781.33,-80.46C788.3,-79.17 795.27,-77.99 802,-77 993.94,-48.83 1045.81,-73.84 1237,-41 1245.38,-39.56 1254.2,-37.62 1262.7,-35.52"/>
<polygon fill="#63b8ff" stroke="#63b8ff" points="780.33,-77.09 771.17,-82.41 781.65,-83.96 780.33,-77.09"/>
</a>
</g>
</g>
</g>
</svg>
