<?xml version="1.0" encoding="UTF-8" standalone="no"?>
<!DOCTYPE svg PUBLIC "-//W3C//DTD SVG 1.1//EN"
 "http://www.w3.org/Graphics/SVG/1.1/DTD/svg11.dtd">
<!-- Generated by graphviz version 2.43.0 (0)
 -->
<!-- Title: FComponentHelper Pages: 1 -->
<svg width="204pt" height="102pt"
 viewBox="0.00 0.00 204.00 102.00" xmlns="http://www.w3.org/2000/svg" xmlns:xlink="http://www.w3.org/1999/xlink">
<g id="graph0" class="graph" transform="scale(1 1) rotate(0) translate(4 98)">
<title>FComponentHelper</title>
<!-- Node1 -->
<g id="Node000001" class="node">
<title>Node1</title>
<g id="a_Node000001"><a xlink:title=" ">
<polygon fill="#999999" stroke="transparent" points="196,-94 0,-94 0,0 196,0 196,-94"/>
<text text-anchor="start" x="50.5" y="-82" font-family="Malgun Gothic" font-size="10.00">FComponentHelper</text>
<text text-anchor="start" x="96" y="-67" font-family="Malgun Gothic" font-size="10.00"> </text>
<text text-anchor="start" x="4" y="-52" font-family="Malgun Gothic" font-size="10.00">+</text>
<text text-anchor="start" x="17" y="-52" font-family="Malgun Gothic" font-size="10.00">FindComponentByName()</text>
<text text-anchor="start" x="4" y="-37" font-family="Malgun Gothic" font-size="10.00">+</text>
<text text-anchor="start" x="17" y="-37" font-family="Malgun Gothic" font-size="10.00">FindComponentByNameRecursive()</text>
<text text-anchor="start" x="4" y="-22" font-family="Malgun Gothic" font-size="10.00">+</text>
<text text-anchor="start" x="17" y="-22" font-family="Malgun Gothic" font-size="10.00">LoadAsset()</text>
<text text-anchor="start" x="4" y="-7" font-family="Malgun Gothic" font-size="10.00">+</text>
<text text-anchor="start" x="17" y="-7" font-family="Malgun Gothic" font-size="10.00">LoadClass()</text>
<polygon fill="#666666" stroke="#666666" points="0,-77 0,-77 196,-77 196,-77 0,-77"/>
<polygon fill="#666666" stroke="#666666" points="0,-62 0,-62 196,-62 196,-62 0,-62"/>
<polygon fill="none" stroke="#666666" points="0,0 0,-94 196,-94 196,0 0,0"/>
</a>
</g>
</g>
</g>
</svg>
