<?xml version="1.0" encoding="UTF-8" standalone="no"?>
<!DOCTYPE svg PUBLIC "-//W3C//DTD SVG 1.1//EN"
 "http://www.w3.org/Graphics/SVG/1.1/DTD/svg11.dtd">
<!-- Generated by graphviz version 2.43.0 (0)
 -->
<!-- Title: FHitStopData Pages: 1 -->
<svg width="121pt" height="187pt"
 viewBox="0.00 0.00 121.00 187.00" xmlns="http://www.w3.org/2000/svg" xmlns:xlink="http://www.w3.org/1999/xlink">

<svg id="main" version="1.1" xmlns="http://www.w3.org/2000/svg" xmlns:xlink="http://www.w3.org/1999/xlink" xml:space="preserve" onload="init(evt)">
<style type="text/css"><![CDATA[
.node, .edge {opacity: 0.7;}
.node.selected, .edge.selected {opacity: 1;}
.edge:hover path { stroke: red; }
.edge:hover polygon { stroke: red; fill: red; }
]]></style>
<script type="application/ecmascript" xlink:href="svg.min.js"/>
<svg id="graph" class="graph">
<g id="graph0" class="graph" transform="scale(1 1) rotate(0) translate(4 183)">
<title>FHitStopData</title>
<!-- Node1 -->
<g id="Node000001" class="node">
<title>Node1</title>
<g id="a_Node000001"><a xlink:title=" ">
<polygon fill="#999999" stroke="transparent" points="113,-94 0,-94 0,0 113,0 113,-94"/>
<text text-anchor="start" x="24" y="-82" font-family="Malgun Gothic" font-size="10.00">FHitStopData</text>
<text text-anchor="start" x="4.5" y="-67" font-family="Malgun Gothic" font-size="10.00">+</text>
<text text-anchor="start" x="17.5" y="-67" font-family="Malgun Gothic" font-size="10.00">bRefreshIfStronger</text>
<text text-anchor="start" x="4.5" y="-52" font-family="Malgun Gothic" font-size="10.00">+</text>
<text text-anchor="start" x="17.5" y="-52" font-family="Malgun Gothic" font-size="10.00">Duration</text>
<text text-anchor="start" x="4.5" y="-37" font-family="Malgun Gothic" font-size="10.00">+</text>
<text text-anchor="start" x="17.5" y="-37" font-family="Malgun Gothic" font-size="10.00">TimeDilation</text>
<text text-anchor="start" x="4.5" y="-22" font-family="Malgun Gothic" font-size="10.00">+</text>
<text text-anchor="start" x="17.5" y="-22" font-family="Malgun Gothic" font-size="10.00">Type</text>
<text text-anchor="start" x="55" y="-7" font-family="Malgun Gothic" font-size="10.00"> </text>
<polygon fill="#666666" stroke="#666666" points="0.5,-77 0.5,-77 113.5,-77 113.5,-77 0.5,-77"/>
<polygon fill="#666666" stroke="#666666" points="0.5,-17 0.5,-17 15.5,-17 15.5,-17 0.5,-17"/>
<polygon fill="#666666" stroke="#666666" points="15.5,-17 15.5,-17 113.5,-17 113.5,-17 15.5,-17"/>
<polygon fill="none" stroke="#666666" points="0,0 0,-94 113,-94 113,0 0,0"/>
</a>
</g>
</g>
<!-- Node2 -->
<g id="Node000002" class="node">
<title>Node2</title>
<g id="a_Node000002"><a xlink:title=" ">
<polygon fill="white" stroke="transparent" points="99.5,-179 13.5,-179 13.5,-130 99.5,-130 99.5,-179"/>
<text text-anchor="start" x="18.5" y="-166.5" font-family="Malgun Gothic" font-size="10.00">FTableRowBase</text>
<text text-anchor="start" x="54.5" y="-151.5" font-family="Malgun Gothic" font-size="10.00"> </text>
<text text-anchor="start" x="54.5" y="-136.5" font-family="Malgun Gothic" font-size="10.00"> </text>
<polygon fill="#666666" stroke="#666666" points="13.5,-161.5 13.5,-161.5 99.5,-161.5 99.5,-161.5 13.5,-161.5"/>
<polygon fill="#666666" stroke="#666666" points="13.5,-146.5 13.5,-146.5 99.5,-146.5 99.5,-146.5 13.5,-146.5"/>
<polygon fill="none" stroke="#666666" points="13.5,-130 13.5,-179 99.5,-179 99.5,-130 13.5,-130"/>
</a>
</g>
</g>
<!-- Node2&#45;&gt;Node1 -->
<g id="edge1_Node000001_Node000002" class="edge">
<title>Node2&#45;&gt;Node1</title>
<g id="a_edge1_Node000001_Node000002"><a xlink:title=" ">
<path fill="none" stroke="#63b8ff" d="M56.5,-119.61C56.5,-111.48 56.5,-102.66 56.5,-94.08"/>
<polygon fill="none" stroke="#63b8ff" points="53,-119.82 56.5,-129.82 60,-119.82 53,-119.82"/>
</a>
</g>
</g>
</g>
</svg>
</svg>

<style type='text/css'>
<![CDATA[
[data-mouse-over-selected='false'] { opacity: 0.7; }
[data-mouse-over-selected='true']  { opacity: 1.0; }
]]>
</style>
<script type="application/ecmascript"><![CDATA[
document.addEventListener('DOMContentLoaded', (event) => {
  highlightEdges();
  highlightAdjacentNodes();
});
]]></script>
</svg>
