<?xml version="1.0" encoding="UTF-8" standalone="no"?>
<!DOCTYPE svg PUBLIC "-//W3C//DTD SVG 1.1//EN"
 "http://www.w3.org/Graphics/SVG/1.1/DTD/svg11.dtd">
<!-- Generated by graphviz version 2.43.0 (0)
 -->
<!-- Title: FMathHelper::SolveV0ForProjectile Pages: 1 -->
<svg width="387pt" height="86pt"
 viewBox="0.00 0.00 387.00 86.00" xmlns="http://www.w3.org/2000/svg" xmlns:xlink="http://www.w3.org/1999/xlink">
<g id="graph0" class="graph" transform="scale(1 1) rotate(0) translate(4 82)">
<title>FMathHelper::SolveV0ForProjectile</title>
<!-- Node1 -->
<g id="Node000001" class="node">
<title>Node1</title>
<g id="a_Node000001"><a xlink:title="주어진 시간 안에 목표 지점에 도달하기 위한 초기 속도를 계산합니다.">
<polygon fill="#999999" stroke="#666666" points="379,-48.5 193,-48.5 193,-29.5 379,-29.5 379,-48.5"/>
<text text-anchor="middle" x="286" y="-36.5" font-family="Malgun Gothic" font-size="10.00">FMathHelper::SolveV0ForProjectile</text>
</a>
</g>
</g>
<!-- Node2 -->
<g id="Node000002" class="node">
<title>Node2</title>
<g id="a_Node000002"><a xlink:href="structFMathHelper.html#aa813d7b30358c0116f1816a2f05b3ca7" target="_top" xlink:title="초기 속도 V0를 이용해 물리 기반 포물선 궤적을 디버그 라인으로 그립니다.">
<polygon fill="white" stroke="#666666" points="157,-78 0,-78 0,-48 157,-48 157,-78"/>
<text text-anchor="start" x="8" y="-66" font-family="Malgun Gothic" font-size="10.00">FMathHelper::DrawProjectile</text>
<text text-anchor="middle" x="78.5" y="-55" font-family="Malgun Gothic" font-size="10.00">ArcDebug</text>
</a>
</g>
</g>
<!-- Node1&#45;&gt;Node2 -->
<g id="edge1_Node000001_Node000002" class="edge">
<title>Node1&#45;&gt;Node2</title>
<g id="a_edge1_Node000001_Node000002"><a xlink:title=" ">
<path fill="none" stroke="#63b8ff" d="M193.41,-49.7C181.33,-51.11 169.05,-52.54 157.23,-53.92"/>
<polygon fill="#63b8ff" stroke="#63b8ff" points="193.96,-53.16 203.49,-48.52 193.15,-46.2 193.96,-53.16"/>
</a>
</g>
</g>
<!-- Node3 -->
<g id="Node000003" class="node">
<title>Node3</title>
<g id="a_Node000003"><a xlink:href="structFParabolaBallisticTrack.html#ad24e4c8b8e959f1f789fbdda881dbf88" target="_top" xlink:title="목표 위치와 비행 시간으로 초기 속도를 역산한다.">
<polygon fill="white" stroke="#666666" points="143,-30 14,-30 14,0 143,0 143,-30"/>
<text text-anchor="start" x="22" y="-18" font-family="Malgun Gothic" font-size="10.00">FParabolaBallisticTrack</text>
<text text-anchor="middle" x="78.5" y="-7" font-family="Malgun Gothic" font-size="10.00">::SolveV0ForArc</text>
</a>
</g>
</g>
<!-- Node1&#45;&gt;Node3 -->
<g id="edge2_Node000001_Node000003" class="edge">
<title>Node1&#45;&gt;Node3</title>
<g id="a_edge2_Node000001_Node000003"><a xlink:title=" ">
<path fill="none" stroke="#63b8ff" d="M193.54,-28.32C176.53,-26.33 159.11,-24.3 143.16,-22.44"/>
<polygon fill="#63b8ff" stroke="#63b8ff" points="193.15,-31.8 203.49,-29.48 193.96,-24.84 193.15,-31.8"/>
</a>
</g>
</g>
</g>
</svg>
