<?xml version="1.0" encoding="UTF-8" standalone="no"?>
<!DOCTYPE svg PUBLIC "-//W3C//DTD SVG 1.1//EN"
 "http://www.w3.org/Graphics/SVG/1.1/DTD/svg11.dtd">
<!-- Generated by graphviz version 2.43.0 (0)
 -->
<!-- Title: FEaseVectorTrack::Update Pages: 1 -->
<svg width="294pt" height="45pt"
 viewBox="0.00 0.00 294.00 45.00" xmlns="http://www.w3.org/2000/svg" xmlns:xlink="http://www.w3.org/1999/xlink">
<g id="graph0" class="graph" transform="scale(1 1) rotate(0) translate(4 41)">
<title>FEaseVectorTrack::Update</title>
<!-- Node1 -->
<g id="Node000001" class="node">
<title>Node1</title>
<g id="a_Node000001"><a xlink:title="경과 시간을 누적하고 Ease 결과를 갱신한다.">
<polygon fill="#999999" stroke="#666666" points="143,-19 0,-19 0,0 143,0 143,-19"/>
<text text-anchor="middle" x="71.5" y="-7" font-family="Malgun Gothic" font-size="10.00">FEaseVectorTrack::Update</text>
</a>
</g>
</g>
<!-- Node2 -->
<g id="Node000002" class="node">
<title>Node2</title>
<g id="a_Node000002"><a xlink:href="structFEaseHelper.html#a2a09be8079b0151cad5b52c4250e299f" target="_top" xlink:title=" ">
<polygon fill="white" stroke="#666666" points="286,-19 179,-19 179,0 286,0 286,-19"/>
<text text-anchor="middle" x="232.5" y="-7" font-family="Malgun Gothic" font-size="10.00">FEaseHelper::Ease</text>
</a>
</g>
</g>
<!-- Node1&#45;&gt;Node2 -->
<g id="edge1_Node000001_Node000002" class="edge">
<title>Node1&#45;&gt;Node2</title>
<g id="a_edge1_Node000001_Node000002"><a xlink:title=" ">
<path fill="none" stroke="#63b8ff" d="M143.17,-9.5C151.66,-9.5 160.28,-9.5 168.65,-9.5"/>
<polygon fill="#63b8ff" stroke="#63b8ff" points="168.71,-13 178.71,-9.5 168.71,-6 168.71,-13"/>
</a>
</g>
</g>
<!-- Node2&#45;&gt;Node2 -->
<g id="edge2_Node000002_Node000002" class="edge">
<title>Node2&#45;&gt;Node2</title>
<g id="a_edge2_Node000002_Node000002"><a xlink:title=" ">
<path fill="none" stroke="#63b8ff" d="M207.84,-19.08C195.84,-27.73 204.06,-37 232.5,-37 251.16,-37 261.12,-33.01 262.37,-27.82"/>
<polygon fill="#63b8ff" stroke="#63b8ff" points="265.29,-25.88 257.16,-19.08 259.27,-29.47 265.29,-25.88"/>
</a>
</g>
</g>
</g>
</svg>
