<?xml version="1.0" encoding="UTF-8" standalone="no"?>
<!DOCTYPE svg PUBLIC "-//W3C//DTD SVG 1.1//EN"
 "http://www.w3.org/Graphics/SVG/1.1/DTD/svg11.dtd">
<!-- Generated by graphviz version 2.43.0 (0)
 -->
<!-- Title: FCharacterAssetData Pages: 1 -->
<svg width="127pt" height="157pt"
 viewBox="0.00 0.00 127.00 157.00" xmlns="http://www.w3.org/2000/svg" xmlns:xlink="http://www.w3.org/1999/xlink">
<g id="graph0" class="graph" transform="scale(1 1) rotate(0) translate(4 153)">
<title>FCharacterAssetData</title>
<!-- Node1 -->
<g id="Node000001" class="node">
<title>Node1</title>
<g id="a_Node000001"><a xlink:title=" ">
<polygon fill="#999999" stroke="transparent" points="119,-64 0,-64 0,0 119,0 119,-64"/>
<text text-anchor="start" x="8" y="-52" font-family="Malgun Gothic" font-size="10.00">FCharacterAssetData</text>
<text text-anchor="start" x="4.5" y="-37" font-family="Malgun Gothic" font-size="10.00">+</text>
<text text-anchor="start" x="17.5" y="-37" font-family="Malgun Gothic" font-size="10.00">CharacterDataAsset</text>
<text text-anchor="start" x="4.5" y="-22" font-family="Malgun Gothic" font-size="10.00">+</text>
<text text-anchor="start" x="17.5" y="-22" font-family="Malgun Gothic" font-size="10.00">CharacterType</text>
<text text-anchor="start" x="58" y="-7" font-family="Malgun Gothic" font-size="10.00"> </text>
<polygon fill="#666666" stroke="#666666" points="0.5,-47 0.5,-47 119.5,-47 119.5,-47 0.5,-47"/>
<polygon fill="#666666" stroke="#666666" points="0.5,-17 0.5,-17 15.5,-17 15.5,-17 0.5,-17"/>
<polygon fill="#666666" stroke="#666666" points="15.5,-17 15.5,-17 119.5,-17 119.5,-17 15.5,-17"/>
<polygon fill="none" stroke="#666666" points="0,0 0,-64 119,-64 119,0 0,0"/>
</a>
</g>
</g>
<!-- Node2 -->
<g id="Node000002" class="node">
<title>Node2</title>
<g id="a_Node000002"><a xlink:title=" ">
<polygon fill="white" stroke="transparent" points="102.5,-149 16.5,-149 16.5,-100 102.5,-100 102.5,-149"/>
<text text-anchor="start" x="21.5" y="-136.5" font-family="Malgun Gothic" font-size="10.00">FTableRowBase</text>
<text text-anchor="start" x="57.5" y="-121.5" font-family="Malgun Gothic" font-size="10.00"> </text>
<text text-anchor="start" x="57.5" y="-106.5" font-family="Malgun Gothic" font-size="10.00"> </text>
<polygon fill="#666666" stroke="#666666" points="16.5,-131.5 16.5,-131.5 102.5,-131.5 102.5,-131.5 16.5,-131.5"/>
<polygon fill="#666666" stroke="#666666" points="16.5,-116.5 16.5,-116.5 102.5,-116.5 102.5,-116.5 16.5,-116.5"/>
<polygon fill="none" stroke="#666666" points="16.5,-100 16.5,-149 102.5,-149 102.5,-100 16.5,-100"/>
</a>
</g>
</g>
<!-- Node2&#45;&gt;Node1 -->
<g id="edge1_Node000001_Node000002" class="edge">
<title>Node2&#45;&gt;Node1</title>
<g id="a_edge1_Node000001_Node000002"><a xlink:title=" ">
<path fill="none" stroke="#63b8ff" d="M59.5,-89.54C59.5,-81.2 59.5,-72.31 59.5,-64.11"/>
<polygon fill="none" stroke="#63b8ff" points="56,-89.72 59.5,-99.72 63,-89.72 56,-89.72"/>
</a>
</g>
</g>
</g>
</svg>
