<?xml version="1.0" encoding="UTF-8" standalone="no"?>
<!DOCTYPE svg PUBLIC "-//W3C//DTD SVG 1.1//EN"
 "http://www.w3.org/Graphics/SVG/1.1/DTD/svg11.dtd">
<!-- Generated by graphviz version 2.43.0 (0)
 -->
<!-- Title: FComponentHelper::LoadAsset Pages: 1 -->
<svg width="432pt" height="198pt"
 viewBox="0.00 0.00 432.00 198.00" xmlns="http://www.w3.org/2000/svg" xmlns:xlink="http://www.w3.org/1999/xlink">
<g id="graph0" class="graph" transform="scale(1 1) rotate(0) translate(4 194)">
<title>FComponentHelper::LoadAsset</title>
<!-- Node1 -->
<g id="Node000001" class="node">
<title>Node1</title>
<g id="a_Node000001"><a xlink:title=" ">
<polygon fill="#999999" stroke="#666666" points="424,-110 257,-110 257,-91 424,-91 424,-110"/>
<text text-anchor="middle" x="340.5" y="-98" font-family="Malgun Gothic" font-size="10.00">FComponentHelper::LoadAsset</text>
</a>
</g>
</g>
<!-- Node2 -->
<g id="Node000002" class="node">
<title>Node2</title>
<g id="a_Node000002"><a xlink:href="classAPlayerActor.html#addb91f2966d3e68a79699ba89be0a659" target="_top" xlink:title=" ">
<polygon fill="white" stroke="#666666" points="185,-190 36,-190 36,-171 185,-171 185,-190"/>
<text text-anchor="middle" x="110.5" y="-178" font-family="Malgun Gothic" font-size="10.00">APlayerActor::APlayerActor</text>
</a>
</g>
</g>
<!-- Node1&#45;&gt;Node2 -->
<g id="edge1_Node000001_Node000002" class="edge">
<title>Node1&#45;&gt;Node2</title>
<g id="a_edge1_Node000001_Node000002"><a xlink:title=" ">
<path fill="none" stroke="#63b8ff" d="M316.09,-115.63C292.87,-129.93 255.84,-150.86 221,-162.5 209.58,-166.32 197.21,-169.34 185.03,-171.74"/>
<polygon fill="#63b8ff" stroke="#63b8ff" points="318.23,-118.42 324.85,-110.15 314.52,-112.49 318.23,-118.42"/>
</a>
</g>
</g>
<!-- Node3 -->
<g id="Node000003" class="node">
<title>Node3</title>
<g id="a_Node000003"><a xlink:href="classAPlayerControl.html#ad52af79fddcd1253723313ab75eec84c" target="_top" xlink:title=" ">
<polygon fill="white" stroke="#666666" points="194.5,-153 26.5,-153 26.5,-134 194.5,-134 194.5,-153"/>
<text text-anchor="middle" x="110.5" y="-141" font-family="Malgun Gothic" font-size="10.00">APlayerControl::APlayerControl</text>
</a>
</g>
</g>
<!-- Node1&#45;&gt;Node3 -->
<g id="edge2_Node000001_Node000003" class="edge">
<title>Node1&#45;&gt;Node3</title>
<g id="a_edge2_Node000001_Node000003"><a xlink:title=" ">
<path fill="none" stroke="#63b8ff" d="M284.15,-112.04C264.26,-116.1 241.65,-120.62 221,-124.5 203.84,-127.73 185.13,-131.05 168.1,-133.99"/>
<polygon fill="#63b8ff" stroke="#63b8ff" points="284.88,-115.47 293.98,-110.03 283.48,-108.61 284.88,-115.47"/>
</a>
</g>
</g>
<!-- Node4 -->
<g id="Node000004" class="node">
<title>Node4</title>
<g id="a_Node000004"><a xlink:href="classUGameDataManager.html#a5d0c96aebf3e41ce7bfa468a101fffa2" target="_top" xlink:title=" ">
<polygon fill="white" stroke="#666666" points="203,-115.5 18,-115.5 18,-85.5 203,-85.5 203,-115.5"/>
<text text-anchor="start" x="26" y="-103.5" font-family="Malgun Gothic" font-size="10.00">UGameDataManager::UGameData</text>
<text text-anchor="middle" x="110.5" y="-92.5" font-family="Malgun Gothic" font-size="10.00">Manager</text>
</a>
</g>
</g>
<!-- Node1&#45;&gt;Node4 -->
<g id="edge3_Node000001_Node000004" class="edge">
<title>Node1&#45;&gt;Node4</title>
<g id="a_edge3_Node000001_Node000004"><a xlink:title=" ">
<path fill="none" stroke="#63b8ff" d="M246.53,-100.5C232.2,-100.5 217.41,-100.5 203.11,-100.5"/>
<polygon fill="#63b8ff" stroke="#63b8ff" points="246.86,-104 256.86,-100.5 246.86,-97 246.86,-104"/>
</a>
</g>
</g>
<!-- Node5 -->
<g id="Node000005" class="node">
<title>Node5</title>
<g id="a_Node000005"><a xlink:href="classUGameSoundManager.html#aab6849192a6de76b26e716e21038f83c" target="_top" xlink:title=" ">
<polygon fill="white" stroke="#666666" points="176.5,-67.5 44.5,-67.5 44.5,-37.5 176.5,-37.5 176.5,-67.5"/>
<text text-anchor="start" x="52.5" y="-55.5" font-family="Malgun Gothic" font-size="10.00">UGameSoundManager::</text>
<text text-anchor="middle" x="110.5" y="-44.5" font-family="Malgun Gothic" font-size="10.00">UGameSoundManager</text>
</a>
</g>
</g>
<!-- Node1&#45;&gt;Node5 -->
<g id="edge4_Node000001_Node000005" class="edge">
<title>Node1&#45;&gt;Node5</title>
<g id="a_edge4_Node000001_Node000005"><a xlink:title=" ">
<path fill="none" stroke="#63b8ff" d="M283.98,-88.81C251.58,-81.99 210.52,-73.35 176.6,-66.2"/>
<polygon fill="#63b8ff" stroke="#63b8ff" points="283.68,-92.32 294.18,-90.96 285.12,-85.47 283.68,-92.32"/>
</a>
</g>
</g>
<!-- Node6 -->
<g id="Node000006" class="node">
<title>Node6</title>
<g id="a_Node000006"><a xlink:href="classUGameVFXManager.html#a36f7d7d4e4b07418214f460ac8f9812f" target="_top" xlink:title=" ">
<polygon fill="white" stroke="#666666" points="221,-19 0,-19 0,0 221,0 221,-19"/>
<text text-anchor="middle" x="110.5" y="-7" font-family="Malgun Gothic" font-size="10.00">UGameVFXManager::UGameVFXManager</text>
</a>
</g>
</g>
<!-- Node1&#45;&gt;Node6 -->
<g id="edge5_Node000001_Node000006" class="edge">
<title>Node1&#45;&gt;Node6</title>
<g id="a_edge5_Node000001_Node000006"><a xlink:title=" ">
<path fill="none" stroke="#63b8ff" d="M318.99,-84.72C296.29,-68.08 258.01,-42.38 221,-28.5 210.61,-24.6 199.37,-21.5 188.17,-19.03"/>
<polygon fill="#63b8ff" stroke="#63b8ff" points="317.06,-87.65 327.17,-90.82 321.25,-82.04 317.06,-87.65"/>
</a>
</g>
</g>
</g>
</svg>
