<?xml version="1.0" encoding="UTF-8" standalone="no"?>
<!DOCTYPE svg PUBLIC "-//W3C//DTD SVG 1.1//EN"
 "http://www.w3.org/Graphics/SVG/1.1/DTD/svg11.dtd">
<!-- Generated by graphviz version 2.43.0 (0)
 -->
<!-- Title: FMathHelper::InterpArcSin Pages: 1 -->
<svg width="342pt" height="86pt"
 viewBox="0.00 0.00 342.00 86.00" xmlns="http://www.w3.org/2000/svg" xmlns:xlink="http://www.w3.org/1999/xlink">
<g id="graph0" class="graph" transform="scale(1 1) rotate(0) translate(4 82)">
<title>FMathHelper::InterpArcSin</title>
<!-- Node1 -->
<g id="Node000001" class="node">
<title>Node1</title>
<g id="a_Node000001"><a xlink:title="선형 보간 경로에 사인 함수를 더해 아치 형태의 곡선을 생성합니다.">
<polygon fill="#999999" stroke="#666666" points="334,-48.5 189,-48.5 189,-29.5 334,-29.5 334,-48.5"/>
<text text-anchor="middle" x="261.5" y="-36.5" font-family="Malgun Gothic" font-size="10.00">FMathHelper::InterpArcSin</text>
</a>
</g>
</g>
<!-- Node2 -->
<g id="Node000002" class="node">
<title>Node2</title>
<g id="a_Node000002"><a xlink:href="structFMathHelper.html#a4baca9166815847daff432d9575a9e60" target="_top" xlink:title="두 점(Start → End)을 잇는 곡선을 디버그 라인으로 그립니다.">
<polygon fill="white" stroke="#666666" points="153,-78 0,-78 0,-48 153,-48 153,-78"/>
<text text-anchor="start" x="8" y="-66" font-family="Malgun Gothic" font-size="10.00">FMathHelper::DrawParabola</text>
<text text-anchor="middle" x="76.5" y="-55" font-family="Malgun Gothic" font-size="10.00">Debug</text>
</a>
</g>
</g>
<!-- Node1&#45;&gt;Node2 -->
<g id="edge1_Node000001_Node000002" class="edge">
<title>Node1&#45;&gt;Node2</title>
<g id="a_edge1_Node000001_Node000002"><a xlink:title=" ">
<path fill="none" stroke="#63b8ff" d="M178.97,-49.69C170.4,-50.82 161.72,-51.96 153.22,-53.07"/>
<polygon fill="#63b8ff" stroke="#63b8ff" points="179.5,-53.15 188.96,-48.38 178.59,-46.21 179.5,-53.15"/>
</a>
</g>
</g>
<!-- Node3 -->
<g id="Node000003" class="node">
<title>Node3</title>
<g id="a_Node000003"><a xlink:href="structFParabolaGeometricTrack.html#a503bcee9414a24c1e70663a236639092" target="_top" xlink:title="시간값을 받아 포물선 위치를 계산한다.">
<polygon fill="white" stroke="#666666" points="147,-30 6,-30 6,0 147,0 147,-30"/>
<text text-anchor="start" x="14" y="-18" font-family="Malgun Gothic" font-size="10.00">FParabolaGeometricTrack</text>
<text text-anchor="middle" x="76.5" y="-7" font-family="Malgun Gothic" font-size="10.00">::EvaluateAtTime</text>
</a>
</g>
</g>
<!-- Node1&#45;&gt;Node3 -->
<g id="edge2_Node000001_Node000003" class="edge">
<title>Node1&#45;&gt;Node3</title>
<g id="a_edge2_Node000001_Node000003"><a xlink:title=" ">
<path fill="none" stroke="#63b8ff" d="M178.89,-28.3C168.31,-26.91 157.55,-25.5 147.19,-24.14"/>
<polygon fill="#63b8ff" stroke="#63b8ff" points="178.59,-31.79 188.96,-29.62 179.5,-24.85 178.59,-31.79"/>
</a>
</g>
</g>
</g>
</svg>
