<?xml version="1.0" encoding="UTF-8" standalone="no"?>
<!DOCTYPE svg PUBLIC "-//W3C//DTD SVG 1.1//EN"
 "http://www.w3.org/Graphics/SVG/1.1/DTD/svg11.dtd">
<!-- Generated by graphviz version 2.43.0 (0)
 -->
<!-- Title: FComponentHelper::LoadAsset Pages: 1 -->
<svg width="432pt" height="161pt"
 viewBox="0.00 0.00 432.00 161.00" xmlns="http://www.w3.org/2000/svg" xmlns:xlink="http://www.w3.org/1999/xlink">

<svg id="main" version="1.1" xmlns="http://www.w3.org/2000/svg" xmlns:xlink="http://www.w3.org/1999/xlink" xml:space="preserve" onload="init(evt)">
<style type="text/css"><![CDATA[
.node, .edge {opacity: 0.7;}
.node.selected, .edge.selected {opacity: 1;}
.edge:hover path { stroke: red; }
.edge:hover polygon { stroke: red; fill: red; }
]]></style>
<script type="application/ecmascript" xlink:href="svg.min.js"/>
<svg id="graph" class="graph">
<g id="graph0" class="graph" transform="scale(1 1) rotate(0) translate(4 157)">
<title>FComponentHelper::LoadAsset</title>
<!-- Node1 -->
<g id="Node000001" class="node">
<title>Node1</title>
<g id="a_Node000001"><a xlink:title=" ">
<polygon fill="#999999" stroke="#666666" points="424,-86 257,-86 257,-67 424,-67 424,-86"/>
<text text-anchor="middle" x="340.5" y="-74" font-family="Malgun Gothic" font-size="10.00">FComponentHelper::LoadAsset</text>
</a>
</g>
</g>
<!-- Node2 -->
<g id="Node000002" class="node">
<title>Node2</title>
<g id="a_Node000002"><a xlink:href="classAPlayerControl.html#ad52af79fddcd1253723313ab75eec84c" target="_top" xlink:title=" ">
<polygon fill="white" stroke="#666666" points="194.5,-153 26.5,-153 26.5,-134 194.5,-134 194.5,-153"/>
<text text-anchor="middle" x="110.5" y="-141" font-family="Malgun Gothic" font-size="10.00">APlayerControl::APlayerControl</text>
</a>
</g>
</g>
<!-- Node1&#45;&gt;Node2 -->
<g id="edge1_Node000001_Node000002" class="edge">
<title>Node1&#45;&gt;Node2</title>
<g id="a_edge1_Node000001_Node000002"><a xlink:title=" ">
<path fill="none" stroke="#63b8ff" d="M310.3,-90.37C286.68,-101.08 252.33,-115.55 221,-124.5 207.83,-128.26 193.54,-131.4 179.77,-133.97"/>
<polygon fill="#63b8ff" stroke="#63b8ff" points="311.79,-93.54 319.41,-86.18 308.87,-87.18 311.79,-93.54"/>
</a>
</g>
</g>
<!-- Node3 -->
<g id="Node000003" class="node">
<title>Node3</title>
<g id="a_Node000003"><a xlink:href="classUGameDataManager.html#a5d0c96aebf3e41ce7bfa468a101fffa2" target="_top" xlink:title=" ">
<polygon fill="white" stroke="#666666" points="203,-115.5 18,-115.5 18,-85.5 203,-85.5 203,-115.5"/>
<text text-anchor="start" x="26" y="-103.5" font-family="Malgun Gothic" font-size="10.00">UGameDataManager::UGameData</text>
<text text-anchor="middle" x="110.5" y="-92.5" font-family="Malgun Gothic" font-size="10.00">Manager</text>
</a>
</g>
</g>
<!-- Node1&#45;&gt;Node3 -->
<g id="edge2_Node000001_Node000003" class="edge">
<title>Node1&#45;&gt;Node3</title>
<g id="a_edge2_Node000001_Node000003"><a xlink:title=" ">
<path fill="none" stroke="#63b8ff" d="M246.53,-86.29C232.2,-87.79 217.41,-89.35 203.11,-90.86"/>
<polygon fill="#63b8ff" stroke="#63b8ff" points="247.29,-89.73 256.86,-85.2 246.55,-82.76 247.29,-89.73"/>
</a>
</g>
</g>
<!-- Node4 -->
<g id="Node000004" class="node">
<title>Node4</title>
<g id="a_Node000004"><a xlink:href="classUGameSoundManager.html#aab6849192a6de76b26e716e21038f83c" target="_top" xlink:title=" ">
<polygon fill="white" stroke="#666666" points="176.5,-67.5 44.5,-67.5 44.5,-37.5 176.5,-37.5 176.5,-67.5"/>
<text text-anchor="start" x="52.5" y="-55.5" font-family="Malgun Gothic" font-size="10.00">UGameSoundManager::</text>
<text text-anchor="middle" x="110.5" y="-44.5" font-family="Malgun Gothic" font-size="10.00">UGameSoundManager</text>
</a>
</g>
</g>
<!-- Node1&#45;&gt;Node4 -->
<g id="edge3_Node000001_Node000004" class="edge">
<title>Node1&#45;&gt;Node4</title>
<g id="a_edge3_Node000001_Node000004"><a xlink:title=" ">
<path fill="none" stroke="#63b8ff" d="M246.87,-66.75C223.34,-64.27 198.55,-61.66 176.71,-59.36"/>
<polygon fill="#63b8ff" stroke="#63b8ff" points="246.55,-70.24 256.86,-67.8 247.29,-63.27 246.55,-70.24"/>
</a>
</g>
</g>
<!-- Node5 -->
<g id="Node000005" class="node">
<title>Node5</title>
<g id="a_Node000005"><a xlink:href="classUGameVFXManager.html#a36f7d7d4e4b07418214f460ac8f9812f" target="_top" xlink:title=" ">
<polygon fill="white" stroke="#666666" points="221,-19 0,-19 0,0 221,0 221,-19"/>
<text text-anchor="middle" x="110.5" y="-7" font-family="Malgun Gothic" font-size="10.00">UGameVFXManager::UGameVFXManager</text>
</a>
</g>
</g>
<!-- Node1&#45;&gt;Node5 -->
<g id="edge4_Node000001_Node000005" class="edge">
<title>Node1&#45;&gt;Node5</title>
<g id="a_edge4_Node000001_Node000005"><a xlink:title=" ">
<path fill="none" stroke="#63b8ff" d="M310.3,-62.63C286.68,-51.92 252.33,-37.45 221,-28.5 207.83,-24.74 193.54,-21.6 179.77,-19.03"/>
<polygon fill="#63b8ff" stroke="#63b8ff" points="308.87,-65.82 319.41,-66.82 311.79,-59.46 308.87,-65.82"/>
</a>
</g>
</g>
</g>
</svg>
</svg>

<style type='text/css'>
<![CDATA[
[data-mouse-over-selected='false'] { opacity: 0.7; }
[data-mouse-over-selected='true']  { opacity: 1.0; }
]]>
</style>
<script type="application/ecmascript"><![CDATA[
document.addEventListener('DOMContentLoaded', (event) => {
  highlightEdges();
  highlightAdjacentNodes();
});
]]></script>
</svg>
