<?xml version="1.0" encoding="UTF-8" standalone="no"?>
<!DOCTYPE svg PUBLIC "-//W3C//DTD SVG 1.1//EN"
 "http://www.w3.org/Graphics/SVG/1.1/DTD/svg11.dtd">
<!-- Generated by graphviz version 2.43.0 (0)
 -->
<!-- Title: FEaseHelper::Ease Pages: 1 -->
<svg width="294pt" height="150pt"
 viewBox="0.00 0.00 294.00 149.50" xmlns="http://www.w3.org/2000/svg" xmlns:xlink="http://www.w3.org/1999/xlink">

<svg id="main" version="1.1" xmlns="http://www.w3.org/2000/svg" xmlns:xlink="http://www.w3.org/1999/xlink" xml:space="preserve" onload="init(evt)">
<style type="text/css"><![CDATA[
.node, .edge {opacity: 0.7;}
.node.selected, .edge.selected {opacity: 1;}
.edge:hover path { stroke: red; }
.edge:hover polygon { stroke: red; fill: red; }
]]></style>
<script type="application/ecmascript" xlink:href="svg.min.js"/>
<svg id="graph" class="graph">
<g id="graph0" class="graph" transform="scale(1 1) rotate(0) translate(4 145.5)">
<title>FEaseHelper::Ease</title>
<!-- Node1 -->
<g id="Node000001" class="node">
<title>Node1</title>
<g id="a_Node000001"><a xlink:title=" ">
<polygon fill="#999999" stroke="#666666" points="286,-85.5 179,-85.5 179,-66.5 286,-66.5 286,-85.5"/>
<text text-anchor="middle" x="232.5" y="-73.5" font-family="Malgun Gothic" font-size="10.00">FEaseHelper::Ease</text>
</a>
</g>
</g>
<!-- Node1&#45;&gt;Node1 -->
<g id="edge2_Node000001_Node000001" class="edge">
<title>Node1&#45;&gt;Node1</title>
<g id="a_edge2_Node000001_Node000001"><a xlink:title=" ">
<path fill="none" stroke="#63b8ff" d="M262.37,-94.32C261.12,-99.51 251.16,-103.5 232.5,-103.5 204.06,-103.5 195.84,-94.23 207.84,-85.58"/>
<polygon fill="#63b8ff" stroke="#63b8ff" points="265.29,-92.38 257.16,-85.58 259.27,-95.97 265.29,-92.38"/>
</a>
</g>
</g>
<!-- Node2 -->
<g id="Node000002" class="node">
<title>Node2</title>
<g id="a_Node000002"><a xlink:href="UEaseFunctionLibrary_8cpp.html#ab52a811d7352aa71f72330819491dc0c" target="_top" xlink:title=" ">
<polygon fill="white" stroke="#666666" points="105.5,-141.5 37.5,-141.5 37.5,-122.5 105.5,-122.5 105.5,-141.5"/>
<text text-anchor="middle" x="71.5" y="-129.5" font-family="Malgun Gothic" font-size="10.00">ApplyEase</text>
</a>
</g>
</g>
<!-- Node1&#45;&gt;Node2 -->
<g id="edge1_Node000001_Node000002" class="edge">
<title>Node1&#45;&gt;Node2</title>
<g id="a_edge1_Node000001_Node000002"><a xlink:title=" ">
<path fill="none" stroke="#63b8ff" d="M202.41,-89.85C185.35,-97.62 163.25,-107.12 143,-114 131.04,-118.07 117.67,-121.7 105.81,-124.62"/>
<polygon fill="#63b8ff" stroke="#63b8ff" points="204.2,-92.88 211.81,-85.5 201.27,-86.52 204.2,-92.88"/>
</a>
</g>
</g>
<!-- Node3 -->
<g id="Node000003" class="node">
<title>Node3</title>
<g id="a_Node000003"><a xlink:href="structFEaseFloatTrack.html#a2a755ece11418576febf4f080d1fa3e4" target="_top" xlink:title="경과 시간을 누적하고 Ease 결과를 갱신한다.">
<polygon fill="white" stroke="#666666" points="140,-104.5 3,-104.5 3,-85.5 140,-85.5 140,-104.5"/>
<text text-anchor="middle" x="71.5" y="-92.5" font-family="Malgun Gothic" font-size="10.00">FEaseFloatTrack::Update</text>
</a>
</g>
</g>
<!-- Node1&#45;&gt;Node3 -->
<g id="edge3_Node000001_Node000003" class="edge">
<title>Node1&#45;&gt;Node3</title>
<g id="a_edge3_Node000001_Node000003"><a xlink:title=" ">
<path fill="none" stroke="#63b8ff" d="M168.94,-83.48C159.52,-84.6 149.78,-85.77 140.26,-86.9"/>
<polygon fill="#63b8ff" stroke="#63b8ff" points="169.48,-86.94 179,-82.27 168.65,-79.99 169.48,-86.94"/>
</a>
</g>
</g>
<!-- Node4 -->
<g id="Node000004" class="node">
<title>Node4</title>
<g id="a_Node000004"><a xlink:href="structFEaseVectorTrack.html#a17f6f64b6f54e90732e9db6484521503" target="_top" xlink:title="경과 시간을 누적하고 Ease 결과를 갱신한다.">
<polygon fill="white" stroke="#666666" points="143,-67.5 0,-67.5 0,-48.5 143,-48.5 143,-67.5"/>
<text text-anchor="middle" x="71.5" y="-55.5" font-family="Malgun Gothic" font-size="10.00">FEaseVectorTrack::Update</text>
</a>
</g>
</g>
<!-- Node1&#45;&gt;Node4 -->
<g id="edge4_Node000001_Node000004" class="edge">
<title>Node1&#45;&gt;Node4</title>
<g id="a_edge4_Node000001_Node000004"><a xlink:title=" ">
<path fill="none" stroke="#63b8ff" d="M168.85,-68.91C160.4,-67.95 151.68,-66.96 143.1,-65.99"/>
<polygon fill="#63b8ff" stroke="#63b8ff" points="168.67,-72.41 179,-70.06 169.45,-65.45 168.67,-72.41"/>
</a>
</g>
</g>
<!-- Node5 -->
<g id="Node000005" class="node">
<title>Node5</title>
<g id="a_Node000005"><a xlink:href="structFEaseRotatorTrack.html#ad4bae8f8dfb8b1eb8238b7cafc246d10" target="_top" xlink:title="경과 시간을 누적하고 Ease 결과를 갱신한다.">
<polygon fill="white" stroke="#666666" points="128,-30 15,-30 15,0 128,0 128,-30"/>
<text text-anchor="start" x="23" y="-18" font-family="Malgun Gothic" font-size="10.00">FEaseRotatorTrack::</text>
<text text-anchor="middle" x="71.5" y="-7" font-family="Malgun Gothic" font-size="10.00">Update</text>
</a>
</g>
</g>
<!-- Node1&#45;&gt;Node5 -->
<g id="edge5_Node000001_Node000005" class="edge">
<title>Node1&#45;&gt;Node5</title>
<g id="a_edge5_Node000001_Node000005"><a xlink:title=" ">
<path fill="none" stroke="#63b8ff" d="M199.36,-62.52C182.63,-55.6 161.79,-47.15 143,-40 134.26,-36.68 124.86,-33.24 115.86,-30.03"/>
<polygon fill="#63b8ff" stroke="#63b8ff" points="198.11,-65.79 208.69,-66.39 200.8,-59.32 198.11,-65.79"/>
</a>
</g>
</g>
</g>
</svg>
</svg>

<style type='text/css'>
<![CDATA[
[data-mouse-over-selected='false'] { opacity: 0.7; }
[data-mouse-over-selected='true']  { opacity: 1.0; }
]]>
</style>
<script type="application/ecmascript"><![CDATA[
document.addEventListener('DOMContentLoaded', (event) => {
  highlightEdges();
  highlightAdjacentNodes();
});
]]></script>
</svg>
