<?xml version="1.0" encoding="UTF-8" standalone="no"?>
<!DOCTYPE svg PUBLIC "-//W3C//DTD SVG 1.1//EN"
 "http://www.w3.org/Graphics/SVG/1.1/DTD/svg11.dtd">
<!-- Generated by graphviz version 2.43.0 (0)
 -->
<!-- Title: Source/LatteLibrary/Manager/Private/UBroadcastManger.cpp Pages: 1 -->
<svg width="588pt" height="159pt"
 viewBox="0.00 0.00 588.00 159.00" xmlns="http://www.w3.org/2000/svg" xmlns:xlink="http://www.w3.org/1999/xlink">
<g id="graph0" class="graph" transform="scale(1 1) rotate(0) translate(4 155)">
<title>Source/LatteLibrary/Manager/Private/UBroadcastManger.cpp</title>
<!-- Node1 -->
<g id="Node000001" class="node">
<title>Node1</title>
<g id="a_Node000001"><a xlink:title="UBroadcastManger 구현에 대한 Doxygen 주석을 제공합니다.">
<polygon fill="#999999" stroke="#666666" points="289.5,-151 130.5,-151 130.5,-110 289.5,-110 289.5,-151"/>
<text text-anchor="start" x="138.5" y="-139" font-family="Malgun Gothic" font-size="10.00">Source/LatteLibrary</text>
<text text-anchor="start" x="138.5" y="-128" font-family="Malgun Gothic" font-size="10.00">/Manager/Private/UBroadcast</text>
<text text-anchor="middle" x="210" y="-117" font-family="Malgun Gothic" font-size="10.00">Manger.cpp</text>
</a>
</g>
</g>
<!-- Node2 -->
<g id="Node000002" class="node">
<title>Node2</title>
<g id="a_Node000002"><a xlink:href="UBroadcastManger_8h.html" target="_top" xlink:title="UBroadcastManger 선언에 대한 Doxygen 주석을 제공합니다.">
<polygon fill="white" stroke="#666666" points="269,-74 151,-74 151,-55 269,-55 269,-74"/>
<text text-anchor="middle" x="210" y="-62" font-family="Malgun Gothic" font-size="10.00">UBroadcastManger.h</text>
</a>
</g>
</g>
<!-- Node1&#45;&gt;Node2 -->
<g id="edge1_Node000001_Node000002" class="edge">
<title>Node1&#45;&gt;Node2</title>
<g id="a_edge1_Node000001_Node000002"><a xlink:title=" ">
<path fill="none" stroke="#63b8ff" d="M210,-109.95C210,-101.85 210,-92.5 210,-84.47"/>
<polygon fill="#63b8ff" stroke="#63b8ff" points="213.5,-84.26 210,-74.26 206.5,-84.26 213.5,-84.26"/>
</a>
</g>
</g>
<!-- Node3 -->
<g id="Node000003" class="node">
<title>Node3</title>
<g id="a_Node000003"><a xlink:title=" ">
<polygon fill="#e0e0e0" stroke="#999999" points="88,-19 0,-19 0,0 88,0 88,-19"/>
<text text-anchor="middle" x="44" y="-7" font-family="Malgun Gothic" font-size="10.00">CoreMinimal.h</text>
</a>
</g>
</g>
<!-- Node2&#45;&gt;Node3 -->
<g id="edge2_Node000002_Node000003" class="edge">
<title>Node2&#45;&gt;Node3</title>
<g id="a_edge2_Node000002_Node000003"><a xlink:title=" ">
<path fill="none" stroke="#63b8ff" d="M183.33,-54.98C155.46,-46.09 111.55,-32.07 80.48,-22.15"/>
<polygon fill="#63b8ff" stroke="#63b8ff" points="81.47,-18.79 70.88,-19.08 79.34,-25.46 81.47,-18.79"/>
</a>
</g>
</g>
<!-- Node4 -->
<g id="Node000004" class="node">
<title>Node4</title>
<g id="a_Node000004"><a xlink:href="Macro_8h.html" target="_top" xlink:title="Manager 모듈에서 공통으로 사용하는 매크로 정의에 대한 Doxygen 주석을 제공합니다.">
<polygon fill="white" stroke="#666666" points="162,-19 106,-19 106,0 162,0 162,-19"/>
<text text-anchor="middle" x="134" y="-7" font-family="Malgun Gothic" font-size="10.00">Macro.h</text>
</a>
</g>
</g>
<!-- Node2&#45;&gt;Node4 -->
<g id="edge3_Node000002_Node000004" class="edge">
<title>Node2&#45;&gt;Node4</title>
<g id="a_edge3_Node000002_Node000004"><a xlink:title=" ">
<path fill="none" stroke="#63b8ff" d="M197.79,-54.98C186.22,-46.92 168.62,-34.65 154.84,-25.03"/>
<polygon fill="#63b8ff" stroke="#63b8ff" points="156.64,-22.02 146.43,-19.17 152.63,-27.76 156.64,-22.02"/>
</a>
</g>
</g>
<!-- Node5 -->
<g id="Node000005" class="node">
<title>Node5</title>
<g id="a_Node000005"><a xlink:title=" ">
<polygon fill="#e0e0e0" stroke="#999999" points="392,-19 180,-19 180,0 392,0 392,-19"/>
<text text-anchor="middle" x="286" y="-7" font-family="Malgun Gothic" font-size="10.00">Subsystems/GameInstanceSubsystem.h</text>
</a>
</g>
</g>
<!-- Node2&#45;&gt;Node5 -->
<g id="edge4_Node000002_Node000005" class="edge">
<title>Node2&#45;&gt;Node5</title>
<g id="a_edge4_Node000002_Node000005"><a xlink:title=" ">
<path fill="none" stroke="#63b8ff" d="M222.21,-54.98C233.78,-46.92 251.38,-34.65 265.16,-25.03"/>
<polygon fill="#63b8ff" stroke="#63b8ff" points="267.37,-27.76 273.57,-19.17 263.36,-22.02 267.37,-27.76"/>
</a>
</g>
</g>
<!-- Node6 -->
<g id="Node000006" class="node">
<title>Node6</title>
<g id="a_Node000006"><a xlink:title=" ">
<polygon fill="#e0e0e0" stroke="#999999" points="580,-19 410,-19 410,0 580,0 580,-19"/>
<text text-anchor="middle" x="495" y="-7" font-family="Malgun Gothic" font-size="10.00">UBroadcastManger.generated.h</text>
</a>
</g>
</g>
<!-- Node2&#45;&gt;Node6 -->
<g id="edge5_Node000002_Node000006" class="edge">
<title>Node2&#45;&gt;Node6</title>
<g id="a_edge5_Node000002_Node000006"><a xlink:title=" ">
<path fill="none" stroke="#63b8ff" d="M255.79,-54.98C305.61,-45.72 385.28,-30.9 438.84,-20.94"/>
<polygon fill="#63b8ff" stroke="#63b8ff" points="439.66,-24.35 448.85,-19.08 438.38,-17.47 439.66,-24.35"/>
</a>
</g>
</g>
</g>
</svg>
