<?xml version="1.0" encoding="UTF-8" standalone="no"?>
<!DOCTYPE svg PUBLIC "-//W3C//DTD SVG 1.1//EN"
 "http://www.w3.org/Graphics/SVG/1.1/DTD/svg11.dtd">
<!-- Generated by graphviz version 2.43.0 (0)
 -->
<!-- Title: Source/LatteLibrary/Manager/Public/UBroadcastManger.h Pages: 1 -->
<svg width="702pt" height="104pt"
 viewBox="0.00 0.00 702.00 104.00" xmlns="http://www.w3.org/2000/svg" xmlns:xlink="http://www.w3.org/1999/xlink">
<g id="graph0" class="graph" transform="scale(1 1) rotate(0) translate(4 100)">
<title>Source/LatteLibrary/Manager/Public/UBroadcastManger.h</title>
<!-- Node1 -->
<g id="Node000001" class="node">
<title>Node1</title>
<g id="a_Node000001"><a xlink:title="UBroadcastManger 선언에 대한 Doxygen 주석을 제공합니다.">
<polygon fill="#999999" stroke="#666666" points="305,-96 151,-96 151,-55 305,-55 305,-96"/>
<text text-anchor="start" x="159" y="-84" font-family="Malgun Gothic" font-size="10.00">Source/LatteLibrary</text>
<text text-anchor="start" x="159" y="-73" font-family="Malgun Gothic" font-size="10.00">/Manager/Public/UBroadcast</text>
<text text-anchor="middle" x="228" y="-62" font-family="Malgun Gothic" font-size="10.00">Manger.h</text>
</a>
</g>
</g>
<!-- Node2 -->
<g id="Node000002" class="node">
<title>Node2</title>
<g id="a_Node000002"><a xlink:title=" ">
<polygon fill="#e0e0e0" stroke="#999999" points="88,-19 0,-19 0,0 88,0 88,-19"/>
<text text-anchor="middle" x="44" y="-7" font-family="Malgun Gothic" font-size="10.00">CoreMinimal.h</text>
</a>
</g>
</g>
<!-- Node1&#45;&gt;Node2 -->
<g id="edge1_Node000001_Node000002" class="edge">
<title>Node1&#45;&gt;Node2</title>
<g id="a_edge1_Node000001_Node000002"><a xlink:title=" ">
<path fill="none" stroke="#63b8ff" d="M171.79,-54.95C141.24,-44.32 104.45,-31.53 78.21,-22.4"/>
<polygon fill="#63b8ff" stroke="#63b8ff" points="79.3,-19.07 68.7,-19.09 77,-25.68 79.3,-19.07"/>
</a>
</g>
</g>
<!-- Node3 -->
<g id="Node000003" class="node">
<title>Node3</title>
<g id="a_Node000003"><a xlink:href="Macro_8h.html" target="_top" xlink:title="Manager 모듈에서 공통으로 사용하는 매크로 정의에 대한 Doxygen 주석을 제공합니다.">
<polygon fill="white" stroke="#666666" points="162,-19 106,-19 106,0 162,0 162,-19"/>
<text text-anchor="middle" x="134" y="-7" font-family="Malgun Gothic" font-size="10.00">Macro.h</text>
</a>
</g>
</g>
<!-- Node1&#45;&gt;Node3 -->
<g id="edge2_Node000001_Node000003" class="edge">
<title>Node1&#45;&gt;Node3</title>
<g id="a_edge2_Node000001_Node000003"><a xlink:title=" ">
<path fill="none" stroke="#63b8ff" d="M199.29,-54.95C185.07,-45.27 168.22,-33.8 155.19,-24.93"/>
<polygon fill="#63b8ff" stroke="#63b8ff" points="157.1,-22 146.87,-19.26 153.16,-27.78 157.1,-22"/>
</a>
</g>
</g>
<!-- Node4 -->
<g id="Node000004" class="node">
<title>Node4</title>
<g id="a_Node000004"><a xlink:href="EDamageType_8h.html" target="_top" xlink:title="EDamageType 열거형에 대한 Doxygen 주석을 제공합니다.">
<polygon fill="white" stroke="#666666" points="275.5,-19 180.5,-19 180.5,0 275.5,0 275.5,-19"/>
<text text-anchor="middle" x="228" y="-7" font-family="Malgun Gothic" font-size="10.00">EDamageType.h</text>
</a>
</g>
</g>
<!-- Node1&#45;&gt;Node4 -->
<g id="edge3_Node000001_Node000004" class="edge">
<title>Node1&#45;&gt;Node4</title>
<g id="a_edge3_Node000001_Node000004"><a xlink:title=" ">
<path fill="none" stroke="#63b8ff" d="M228,-54.95C228,-46.85 228,-37.5 228,-29.47"/>
<polygon fill="#63b8ff" stroke="#63b8ff" points="231.5,-29.26 228,-19.26 224.5,-29.26 231.5,-29.26"/>
</a>
</g>
</g>
<!-- Node5 -->
<g id="Node000005" class="node">
<title>Node5</title>
<g id="a_Node000005"><a xlink:title=" ">
<polygon fill="#e0e0e0" stroke="#999999" points="506,-19 294,-19 294,0 506,0 506,-19"/>
<text text-anchor="middle" x="400" y="-7" font-family="Malgun Gothic" font-size="10.00">Subsystems/GameInstanceSubsystem.h</text>
</a>
</g>
</g>
<!-- Node1&#45;&gt;Node5 -->
<g id="edge4_Node000001_Node000005" class="edge">
<title>Node1&#45;&gt;Node5</title>
<g id="a_edge4_Node000001_Node000005"><a xlink:title=" ">
<path fill="none" stroke="#63b8ff" d="M280.54,-54.95C308.85,-44.42 342.88,-31.75 367.37,-22.64"/>
<polygon fill="#63b8ff" stroke="#63b8ff" points="368.76,-25.86 376.91,-19.09 366.32,-19.3 368.76,-25.86"/>
</a>
</g>
</g>
<!-- Node6 -->
<g id="Node000006" class="node">
<title>Node6</title>
<g id="a_Node000006"><a xlink:title=" ">
<polygon fill="#e0e0e0" stroke="#999999" points="694,-19 524,-19 524,0 694,0 694,-19"/>
<text text-anchor="middle" x="609" y="-7" font-family="Malgun Gothic" font-size="10.00">UBroadcastManger.generated.h</text>
</a>
</g>
</g>
<!-- Node1&#45;&gt;Node6 -->
<g id="edge5_Node000001_Node000006" class="edge">
<title>Node1&#45;&gt;Node6</title>
<g id="a_edge5_Node000001_Node000006"><a xlink:title=" ">
<path fill="none" stroke="#63b8ff" d="M305.1,-61.55C376.72,-49.52 481.96,-31.84 547.93,-20.76"/>
<polygon fill="#63b8ff" stroke="#63b8ff" points="548.88,-24.15 558.17,-19.04 547.72,-17.24 548.88,-24.15"/>
</a>
</g>
</g>
</g>
</svg>
