<?xml version="1.0" encoding="UTF-8" standalone="no"?>
<!DOCTYPE svg PUBLIC "-//W3C//DTD SVG 1.1//EN"
 "http://www.w3.org/Graphics/SVG/1.1/DTD/svg11.dtd">
<!-- Generated by graphviz version 2.43.0 (0)
 -->
<!-- Title: Source/LatteLibrary/Character/Private/UCameraShakeSystem.cpp Pages: 1 -->
<svg width="1818pt" height="214pt"
 viewBox="0.00 0.00 1818.30 214.00" xmlns="http://www.w3.org/2000/svg" xmlns:xlink="http://www.w3.org/1999/xlink">
<g id="graph0" class="graph" transform="scale(1 1) rotate(0) translate(4 210)">
<title>Source/LatteLibrary/Character/Private/UCameraShakeSystem.cpp</title>
<!-- Node1 -->
<g id="Node000001" class="node">
<title>Node1</title>
<g id="a_Node000001"><a xlink:title="UCameraShakeSystem 구현에 대한 Doxygen 주석을 제공합니다.">
<polygon fill="#999999" stroke="#666666" points="832.5,-206 679.5,-206 679.5,-165 832.5,-165 832.5,-206"/>
<text text-anchor="start" x="687.5" y="-194" font-family="Malgun Gothic" font-size="10.00">Source/LatteLibrary</text>
<text text-anchor="start" x="687.5" y="-183" font-family="Malgun Gothic" font-size="10.00">/Character/Private/UCamera</text>
<text text-anchor="middle" x="756" y="-172" font-family="Malgun Gothic" font-size="10.00">ShakeSystem.cpp</text>
</a>
</g>
</g>
<!-- Node2 -->
<g id="Node000002" class="node">
<title>Node2</title>
<g id="a_Node000002"><a xlink:href="UCameraShakeSystem_8h.html" target="_top" xlink:title="UCameraShakeSystem 선언에 대한 Doxygen 주석을 제공합니다.">
<polygon fill="white" stroke="#666666" points="179.5,-74 42.5,-74 42.5,-55 179.5,-55 179.5,-74"/>
<text text-anchor="middle" x="111" y="-62" font-family="Malgun Gothic" font-size="10.00">UCameraShakeSystem.h</text>
</a>
</g>
</g>
<!-- Node1&#45;&gt;Node2 -->
<g id="edge1_Node000001_Node000002" class="edge">
<title>Node1&#45;&gt;Node2</title>
<g id="a_edge1_Node000001_Node000002"><a xlink:title=" ">
<path fill="none" stroke="#63b8ff" d="M679.48,-170.38C548.29,-146.18 283.4,-97.31 167.48,-75.92"/>
<polygon fill="#63b8ff" stroke="#63b8ff" points="167.87,-72.43 157.4,-74.06 166.6,-79.32 167.87,-72.43"/>
</a>
</g>
</g>
<!-- Node6 -->
<g id="Node000006" class="node">
<title>Node6</title>
<g id="a_Node000006"><a xlink:href="AGameCharacter_8h.html" target="_top" xlink:title="LatteLibrary 전반에서 사용하는 기반 캐릭터 클래스를 선언합니다.">
<polygon fill="white" stroke="#666666" points="627,-129 519,-129 519,-110 627,-110 627,-129"/>
<text text-anchor="middle" x="573" y="-117" font-family="Malgun Gothic" font-size="10.00">AGameCharacter.h</text>
</a>
</g>
</g>
<!-- Node1&#45;&gt;Node6 -->
<g id="edge5_Node000001_Node000006" class="edge">
<title>Node1&#45;&gt;Node6</title>
<g id="a_edge5_Node000001_Node000006"><a xlink:title=" ">
<path fill="none" stroke="#63b8ff" d="M700.1,-164.95C669.72,-154.32 633.13,-141.53 607.02,-132.4"/>
<polygon fill="#63b8ff" stroke="#63b8ff" points="608.16,-129.09 597.57,-129.09 605.85,-135.7 608.16,-129.09"/>
</a>
</g>
</g>
<!-- Node13 -->
<g id="Node000013" class="node">
<title>Node13</title>
<g id="a_Node000013"><a xlink:href="FPadFeedbackData_8h.html" target="_top" xlink:title="FPadFeedbackData 구조체에 대한 Doxygen 주석을 제공합니다.">
<polygon fill="white" stroke="#666666" points="998.5,-129 879.5,-129 879.5,-110 998.5,-110 998.5,-129"/>
<text text-anchor="middle" x="939" y="-117" font-family="Malgun Gothic" font-size="10.00">FPadFeedbackData.h</text>
</a>
</g>
</g>
<!-- Node1&#45;&gt;Node13 -->
<g id="edge16_Node000001_Node000013" class="edge">
<title>Node1&#45;&gt;Node13</title>
<g id="a_edge16_Node000001_Node000013"><a xlink:title=" ">
<path fill="none" stroke="#63b8ff" d="M811.9,-164.95C842.28,-154.32 878.87,-141.53 904.98,-132.4"/>
<polygon fill="#63b8ff" stroke="#63b8ff" points="906.15,-135.7 914.43,-129.09 903.84,-129.09 906.15,-135.7"/>
</a>
</g>
</g>
<!-- Node17 -->
<g id="Node000017" class="node">
<title>Node17</title>
<g id="a_Node000017"><a xlink:href="UBroadcastManger_8h.html" target="_top" xlink:title="UBroadcastManger 선언에 대한 Doxygen 주석을 제공합니다.">
<polygon fill="white" stroke="#666666" points="1562,-129 1444,-129 1444,-110 1562,-110 1562,-129"/>
<text text-anchor="middle" x="1503" y="-117" font-family="Malgun Gothic" font-size="10.00">UBroadcastManger.h</text>
</a>
</g>
</g>
<!-- Node1&#45;&gt;Node17 -->
<g id="edge21_Node000001_Node000017" class="edge">
<title>Node1&#45;&gt;Node17</title>
<g id="a_edge21_Node000001_Node000017"><a xlink:title=" ">
<path fill="none" stroke="#63b8ff" d="M832.78,-177.92C978.7,-165.42 1293.97,-138.41 1433.8,-126.43"/>
<polygon fill="#63b8ff" stroke="#63b8ff" points="1434.3,-129.9 1443.96,-125.56 1433.7,-122.92 1434.3,-129.9"/>
</a>
</g>
</g>
<!-- Node3 -->
<g id="Node000003" class="node">
<title>Node3</title>
<g id="a_Node000003"><a xlink:title=" ">
<polygon fill="#e0e0e0" stroke="#999999" points="869,-19 781,-19 781,0 869,0 869,-19"/>
<text text-anchor="middle" x="825" y="-7" font-family="Malgun Gothic" font-size="10.00">CoreMinimal.h</text>
</a>
</g>
</g>
<!-- Node2&#45;&gt;Node3 -->
<g id="edge2_Node000002_Node000003" class="edge">
<title>Node2&#45;&gt;Node3</title>
<g id="a_edge2_Node000002_Node000003"><a xlink:title=" ">
<path fill="none" stroke="#63b8ff" d="M179.79,-58.39C321.35,-47.89 642.71,-24.03 770.82,-14.52"/>
<polygon fill="#63b8ff" stroke="#63b8ff" points="771.08,-18.01 780.79,-13.78 770.56,-11.03 771.08,-18.01"/>
</a>
</g>
</g>
<!-- Node4 -->
<g id="Node000004" class="node">
<title>Node4</title>
<g id="a_Node000004"><a xlink:title=" ">
<polygon fill="#e0e0e0" stroke="#999999" points="380,-19 208,-19 208,0 380,0 380,-19"/>
<text text-anchor="middle" x="294" y="-7" font-family="Malgun Gothic" font-size="10.00">Components/ActorComponent.h</text>
</a>
</g>
</g>
<!-- Node2&#45;&gt;Node4 -->
<g id="edge3_Node000002_Node000004" class="edge">
<title>Node2&#45;&gt;Node4</title>
<g id="a_edge3_Node000002_Node000004"><a xlink:title=" ">
<path fill="none" stroke="#63b8ff" d="M140.4,-54.98C171.39,-46.01 220.38,-31.82 254.67,-21.89"/>
<polygon fill="#63b8ff" stroke="#63b8ff" points="255.74,-25.23 264.37,-19.08 253.79,-18.5 255.74,-25.23"/>
</a>
</g>
</g>
<!-- Node5 -->
<g id="Node000005" class="node">
<title>Node5</title>
<g id="a_Node000005"><a xlink:title=" ">
<polygon fill="#e0e0e0" stroke="#999999" points="190,-19 0,-19 0,0 190,0 190,-19"/>
<text text-anchor="middle" x="95" y="-7" font-family="Malgun Gothic" font-size="10.00">UCameraShakeSystem.generated.h</text>
</a>
</g>
</g>
<!-- Node2&#45;&gt;Node5 -->
<g id="edge4_Node000002_Node000005" class="edge">
<title>Node2&#45;&gt;Node5</title>
<g id="a_edge4_Node000002_Node000005"><a xlink:title=" ">
<path fill="none" stroke="#63b8ff" d="M108.36,-54.75C106.24,-47.72 103.19,-37.62 100.54,-28.84"/>
<polygon fill="#63b8ff" stroke="#63b8ff" points="103.83,-27.65 97.59,-19.09 97.13,-29.67 103.83,-27.65"/>
</a>
</g>
</g>
<!-- Node6&#45;&gt;Node3 -->
<g id="edge6_Node000006_Node000003" class="edge">
<title>Node6&#45;&gt;Node3</title>
<g id="a_edge6_Node000006_Node000003"><a xlink:title=" ">
<path fill="none" stroke="#63b8ff" d="M627.01,-114.49C687.13,-108.95 779.24,-96.95 805,-74 817.53,-62.84 822.28,-43.91 824.05,-29.62"/>
<polygon fill="#63b8ff" stroke="#63b8ff" points="827.56,-29.65 824.91,-19.39 820.58,-29.06 827.56,-29.65"/>
</a>
</g>
</g>
<!-- Node7 -->
<g id="Node000007" class="node">
<title>Node7</title>
<g id="a_Node000007"><a xlink:title=" ">
<polygon fill="#e0e0e0" stroke="#999999" points="394.5,-74 235.5,-74 235.5,-55 394.5,-55 394.5,-74"/>
<text text-anchor="middle" x="315" y="-62" font-family="Malgun Gothic" font-size="10.00">GameFramework/Character.h</text>
</a>
</g>
</g>
<!-- Node6&#45;&gt;Node7 -->
<g id="edge7_Node000006_Node000007" class="edge">
<title>Node6&#45;&gt;Node7</title>
<g id="a_edge7_Node000006_Node000007"><a xlink:title=" ">
<path fill="none" stroke="#63b8ff" d="M531.55,-109.98C486.73,-100.78 415.23,-86.09 366.75,-76.13"/>
<polygon fill="#63b8ff" stroke="#63b8ff" points="367.28,-72.67 356.78,-74.08 365.87,-79.52 367.28,-72.67"/>
</a>
</g>
</g>
<!-- Node8 -->
<g id="Node000008" class="node">
<title>Node8</title>
<g id="a_Node000008"><a xlink:href="EBodyPartType_8h.html" target="_top" xlink:title="EBodyPartType 열거형에 대한 Doxygen 주석을 제공합니다.">
<polygon fill="white" stroke="#666666" points="510,-74 412,-74 412,-55 510,-55 510,-74"/>
<text text-anchor="middle" x="461" y="-62" font-family="Malgun Gothic" font-size="10.00">EBodyPartType.h</text>
</a>
</g>
</g>
<!-- Node6&#45;&gt;Node8 -->
<g id="edge8_Node000006_Node000008" class="edge">
<title>Node6&#45;&gt;Node8</title>
<g id="a_edge8_Node000006_Node000008"><a xlink:title=" ">
<path fill="none" stroke="#63b8ff" d="M555.01,-109.98C537.07,-101.5 509.28,-88.35 488.57,-78.54"/>
<polygon fill="#63b8ff" stroke="#63b8ff" points="489.86,-75.28 479.32,-74.17 486.86,-81.61 489.86,-75.28"/>
</a>
</g>
</g>
<!-- Node9 -->
<g id="Node000009" class="node">
<title>Node9</title>
<g id="a_Node000009"><a xlink:href="ECharacterType_8h.html" target="_top" xlink:title="ECharacterType 열거형에 대한 Doxygen 주석을 제공합니다.">
<polygon fill="white" stroke="#666666" points="499.5,-19 398.5,-19 398.5,0 499.5,0 499.5,-19"/>
<text text-anchor="middle" x="449" y="-7" font-family="Malgun Gothic" font-size="10.00">ECharacterType.h</text>
</a>
</g>
</g>
<!-- Node6&#45;&gt;Node9 -->
<g id="edge9_Node000006_Node000009" class="edge">
<title>Node6&#45;&gt;Node9</title>
<g id="a_edge9_Node000006_Node000009"><a xlink:title=" ">
<path fill="none" stroke="#63b8ff" d="M518.77,-115.42C426.01,-109.61 245.01,-95.6 226,-74 220.42,-67.66 220.64,-61.53 226,-55 231.21,-48.64 324.07,-31.72 388.3,-20.67"/>
<polygon fill="#63b8ff" stroke="#63b8ff" points="389.08,-24.08 398.35,-18.95 387.9,-17.19 389.08,-24.08"/>
</a>
</g>
</g>
<!-- Node10 -->
<g id="Node000010" class="node">
<title>Node10</title>
<g id="a_Node000010"><a xlink:href="UStatSystem_8h.html" target="_top" xlink:title="UStatSystem 선언에 대한 Doxygen 주석을 제공합니다.">
<polygon fill="white" stroke="#666666" points="617.5,-74 528.5,-74 528.5,-55 617.5,-55 617.5,-74"/>
<text text-anchor="middle" x="573" y="-62" font-family="Malgun Gothic" font-size="10.00">UStatSystem.h</text>
</a>
</g>
</g>
<!-- Node6&#45;&gt;Node10 -->
<g id="edge10_Node000006_Node000010" class="edge">
<title>Node6&#45;&gt;Node10</title>
<g id="a_edge10_Node000006_Node000010"><a xlink:title=" ">
<path fill="none" stroke="#63b8ff" d="M573,-109.75C573,-102.8 573,-92.85 573,-84.13"/>
<polygon fill="#63b8ff" stroke="#63b8ff" points="576.5,-84.09 573,-74.09 569.5,-84.09 576.5,-84.09"/>
</a>
</g>
</g>
<!-- Node12 -->
<g id="Node000012" class="node">
<title>Node12</title>
<g id="a_Node000012"><a xlink:title=" ">
<polygon fill="#e0e0e0" stroke="#999999" points="796.5,-74 635.5,-74 635.5,-55 796.5,-55 796.5,-74"/>
<text text-anchor="middle" x="716" y="-62" font-family="Malgun Gothic" font-size="10.00">AGameCharacter.generated.h</text>
</a>
</g>
</g>
<!-- Node6&#45;&gt;Node12 -->
<g id="edge15_Node000006_Node000012" class="edge">
<title>Node6&#45;&gt;Node12</title>
<g id="a_edge15_Node000006_Node000012"><a xlink:title=" ">
<path fill="none" stroke="#63b8ff" d="M595.98,-109.98C619.5,-101.27 656.29,-87.63 682.94,-77.75"/>
<polygon fill="#63b8ff" stroke="#63b8ff" points="684.45,-80.93 692.61,-74.17 682.01,-74.36 684.45,-80.93"/>
</a>
</g>
</g>
<!-- Node10&#45;&gt;Node3 -->
<g id="edge11_Node000010_Node000003" class="edge">
<title>Node10&#45;&gt;Node3</title>
<g id="a_edge11_Node000010_Node000003"><a xlink:title=" ">
<path fill="none" stroke="#63b8ff" d="M613.49,-54.98C657.17,-45.8 726.81,-31.15 774.15,-21.19"/>
<polygon fill="#63b8ff" stroke="#63b8ff" points="775.13,-24.57 784.19,-19.08 773.69,-17.72 775.13,-24.57"/>
</a>
</g>
</g>
<!-- Node10&#45;&gt;Node4 -->
<g id="edge13_Node000010_Node000004" class="edge">
<title>Node10&#45;&gt;Node4</title>
<g id="a_edge13_Node000010_Node000004"><a xlink:title=" ">
<path fill="none" stroke="#63b8ff" d="M528.48,-55.04C479.73,-45.78 401.51,-30.92 348.97,-20.94"/>
<polygon fill="#63b8ff" stroke="#63b8ff" points="349.3,-17.44 338.82,-19.01 347.99,-24.32 349.3,-17.44"/>
</a>
</g>
</g>
<!-- Node10&#45;&gt;Node9 -->
<g id="edge12_Node000010_Node000009" class="edge">
<title>Node10&#45;&gt;Node9</title>
<g id="a_edge12_Node000010_Node000009"><a xlink:title=" ">
<path fill="none" stroke="#63b8ff" d="M553.08,-54.98C532.95,-46.38 501.62,-32.99 478.59,-23.15"/>
<polygon fill="#63b8ff" stroke="#63b8ff" points="479.86,-19.88 469.29,-19.17 477.1,-26.32 479.86,-19.88"/>
</a>
</g>
</g>
<!-- Node11 -->
<g id="Node000011" class="node">
<title>Node11</title>
<g id="a_Node000011"><a xlink:title=" ">
<polygon fill="#e0e0e0" stroke="#999999" points="660,-19 518,-19 518,0 660,0 660,-19"/>
<text text-anchor="middle" x="589" y="-7" font-family="Malgun Gothic" font-size="10.00">UStatSystem.generated.h</text>
</a>
</g>
</g>
<!-- Node10&#45;&gt;Node11 -->
<g id="edge14_Node000010_Node000011" class="edge">
<title>Node10&#45;&gt;Node11</title>
<g id="a_edge14_Node000010_Node000011"><a xlink:title=" ">
<path fill="none" stroke="#63b8ff" d="M575.64,-54.75C577.76,-47.72 580.81,-37.62 583.46,-28.84"/>
<polygon fill="#63b8ff" stroke="#63b8ff" points="586.87,-29.67 586.41,-19.09 580.17,-27.65 586.87,-29.67"/>
</a>
</g>
</g>
<!-- Node13&#45;&gt;Node3 -->
<g id="edge17_Node000013_Node000003" class="edge">
<title>Node13&#45;&gt;Node3</title>
<g id="a_edge17_Node000013_Node000003"><a xlink:title=" ">
<path fill="none" stroke="#63b8ff" d="M926.71,-109.88C914.81,-101.31 896.5,-87.54 882,-74 866.01,-59.07 849.5,-40.24 838.4,-26.97"/>
<polygon fill="#63b8ff" stroke="#63b8ff" points="841,-24.63 831.93,-19.16 835.61,-29.09 841,-24.63"/>
</a>
</g>
</g>
<!-- Node14 -->
<g id="Node000014" class="node">
<title>Node14</title>
<g id="a_Node000014"><a xlink:href="EDamageType_8h.html" target="_top" xlink:title="EDamageType 열거형에 대한 Doxygen 주석을 제공합니다.">
<polygon fill="white" stroke="#666666" points="986.5,-74 891.5,-74 891.5,-55 986.5,-55 986.5,-74"/>
<text text-anchor="middle" x="939" y="-62" font-family="Malgun Gothic" font-size="10.00">EDamageType.h</text>
</a>
</g>
</g>
<!-- Node13&#45;&gt;Node14 -->
<g id="edge18_Node000013_Node000014" class="edge">
<title>Node13&#45;&gt;Node14</title>
<g id="a_edge18_Node000013_Node000014"><a xlink:title=" ">
<path fill="none" stroke="#63b8ff" d="M939,-109.75C939,-102.8 939,-92.85 939,-84.13"/>
<polygon fill="#63b8ff" stroke="#63b8ff" points="942.5,-84.09 939,-74.09 935.5,-84.09 942.5,-84.09"/>
</a>
</g>
</g>
<!-- Node15 -->
<g id="Node000015" class="node">
<title>Node15</title>
<g id="a_Node000015"><a xlink:title=" ">
<polygon fill="#e0e0e0" stroke="#999999" points="1115,-74 1005,-74 1005,-55 1115,-55 1115,-74"/>
<text text-anchor="middle" x="1060" y="-62" font-family="Malgun Gothic" font-size="10.00">Engine/DataTable.h</text>
</a>
</g>
</g>
<!-- Node13&#45;&gt;Node15 -->
<g id="edge19_Node000013_Node000015" class="edge">
<title>Node13&#45;&gt;Node15</title>
<g id="a_edge19_Node000013_Node000015"><a xlink:title=" ">
<path fill="none" stroke="#63b8ff" d="M958.44,-109.98C977.99,-101.42 1008.38,-88.11 1030.82,-78.28"/>
<polygon fill="#63b8ff" stroke="#63b8ff" points="1032.45,-81.39 1040.21,-74.17 1029.64,-74.98 1032.45,-81.39"/>
</a>
</g>
</g>
<!-- Node16 -->
<g id="Node000016" class="node">
<title>Node16</title>
<g id="a_Node000016"><a xlink:title=" ">
<polygon fill="#e0e0e0" stroke="#999999" points="1304.5,-74 1133.5,-74 1133.5,-55 1304.5,-55 1304.5,-74"/>
<text text-anchor="middle" x="1219" y="-62" font-family="Malgun Gothic" font-size="10.00">FPadFeedbackData.generated.h</text>
</a>
</g>
</g>
<!-- Node13&#45;&gt;Node16 -->
<g id="edge20_Node000013_Node000016" class="edge">
<title>Node13&#45;&gt;Node16</title>
<g id="a_edge20_Node000013_Node000016"><a xlink:title=" ">
<path fill="none" stroke="#63b8ff" d="M983.99,-109.98C1032.93,-100.72 1111.2,-85.9 1163.82,-75.94"/>
<polygon fill="#63b8ff" stroke="#63b8ff" points="1164.49,-79.38 1173.66,-74.08 1163.18,-72.5 1164.49,-79.38"/>
</a>
</g>
</g>
<!-- Node17&#45;&gt;Node3 -->
<g id="edge22_Node000017_Node000003" class="edge">
<title>Node17&#45;&gt;Node3</title>
<g id="a_edge22_Node000017_Node000003"><a xlink:title=" ">
<path fill="none" stroke="#63b8ff" d="M1562.3,-118.59C1641.42,-117.29 1775.15,-109.71 1806,-74 1811.52,-67.61 1811.83,-61.1 1806,-55 1773.78,-21.29 1079.9,-12.69 879.03,-10.91"/>
<polygon fill="#63b8ff" stroke="#63b8ff" points="879.03,-7.41 869,-10.82 878.97,-14.41 879.03,-7.41"/>
</a>
</g>
</g>
<!-- Node18 -->
<g id="Node000018" class="node">
<title>Node18</title>
<g id="a_Node000018"><a xlink:href="Macro_8h.html" target="_top" xlink:title="Manager 모듈에서 공통으로 사용하는 매크로 정의에 대한 Doxygen 주석을 제공합니다.">
<polygon fill="white" stroke="#666666" points="1379,-74 1323,-74 1323,-55 1379,-55 1379,-74"/>
<text text-anchor="middle" x="1351" y="-62" font-family="Malgun Gothic" font-size="10.00">Macro.h</text>
</a>
</g>
</g>
<!-- Node17&#45;&gt;Node18 -->
<g id="edge23_Node000017_Node000018" class="edge">
<title>Node17&#45;&gt;Node18</title>
<g id="a_edge23_Node000017_Node000018"><a xlink:title=" ">
<path fill="none" stroke="#63b8ff" d="M1478.58,-109.98C1453.28,-101.16 1413.55,-87.31 1385.14,-77.41"/>
<polygon fill="#63b8ff" stroke="#63b8ff" points="1386.21,-74.07 1375.61,-74.08 1383.9,-80.68 1386.21,-74.07"/>
</a>
</g>
</g>
<!-- Node19 -->
<g id="Node000019" class="node">
<title>Node19</title>
<g id="a_Node000019"><a xlink:title=" ">
<polygon fill="#e0e0e0" stroke="#999999" points="1609,-74 1397,-74 1397,-55 1609,-55 1609,-74"/>
<text text-anchor="middle" x="1503" y="-62" font-family="Malgun Gothic" font-size="10.00">Subsystems/GameInstanceSubsystem.h</text>
</a>
</g>
</g>
<!-- Node17&#45;&gt;Node19 -->
<g id="edge24_Node000017_Node000019" class="edge">
<title>Node17&#45;&gt;Node19</title>
<g id="a_edge24_Node000017_Node000019"><a xlink:title=" ">
<path fill="none" stroke="#63b8ff" d="M1503,-109.75C1503,-102.8 1503,-92.85 1503,-84.13"/>
<polygon fill="#63b8ff" stroke="#63b8ff" points="1506.5,-84.09 1503,-74.09 1499.5,-84.09 1506.5,-84.09"/>
</a>
</g>
</g>
<!-- Node20 -->
<g id="Node000020" class="node">
<title>Node20</title>
<g id="a_Node000020"><a xlink:title=" ">
<polygon fill="#e0e0e0" stroke="#999999" points="1797,-74 1627,-74 1627,-55 1797,-55 1797,-74"/>
<text text-anchor="middle" x="1712" y="-62" font-family="Malgun Gothic" font-size="10.00">UBroadcastManger.generated.h</text>
</a>
</g>
</g>
<!-- Node17&#45;&gt;Node20 -->
<g id="edge25_Node000017_Node000020" class="edge">
<title>Node17&#45;&gt;Node20</title>
<g id="a_edge25_Node000017_Node000020"><a xlink:title=" ">
<path fill="none" stroke="#63b8ff" d="M1536.58,-109.98C1572.35,-100.91 1629.12,-86.52 1668.34,-76.57"/>
<polygon fill="#63b8ff" stroke="#63b8ff" points="1669.32,-79.93 1678.16,-74.08 1667.6,-73.15 1669.32,-79.93"/>
</a>
</g>
</g>
</g>
</svg>
