<?xml version="1.0" encoding="UTF-8" standalone="no"?>
<!DOCTYPE svg PUBLIC "-//W3C//DTD SVG 1.1//EN"
 "http://www.w3.org/Graphics/SVG/1.1/DTD/svg11.dtd">
<!-- Generated by graphviz version 2.43.0 (0)
 -->
<!-- Title: Source/LatteLibrary/Data/Public/UCharacterData.h Pages: 1 -->
<svg width="400pt" height="93pt"
 viewBox="0.00 0.00 400.00 93.00" xmlns="http://www.w3.org/2000/svg" xmlns:xlink="http://www.w3.org/1999/xlink">
<g id="graph0" class="graph" transform="scale(1 1) rotate(0) translate(4 89)">
<title>Source/LatteLibrary/Data/Public/UCharacterData.h</title>
<!-- Node1 -->
<g id="Node000001" class="node">
<title>Node1</title>
<g id="a_Node000001"><a xlink:title="UCharacterData 데이터 자산에 대한 Doxygen 주석을 제공합니다.">
<polygon fill="#999999" stroke="#666666" points="244.5,-85 79.5,-85 79.5,-55 244.5,-55 244.5,-85"/>
<text text-anchor="start" x="87.5" y="-73" font-family="Malgun Gothic" font-size="10.00">Source/LatteLibrary</text>
<text text-anchor="middle" x="162" y="-62" font-family="Malgun Gothic" font-size="10.00">/Data/Public/UCharacterData.h</text>
</a>
</g>
</g>
<!-- Node2 -->
<g id="Node000002" class="node">
<title>Node2</title>
<g id="a_Node000002"><a xlink:title=" ">
<polygon fill="#e0e0e0" stroke="#999999" points="88,-19 0,-19 0,0 88,0 88,-19"/>
<text text-anchor="middle" x="44" y="-7" font-family="Malgun Gothic" font-size="10.00">CoreMinimal.h</text>
</a>
</g>
</g>
<!-- Node1&#45;&gt;Node2 -->
<g id="edge1_Node000001_Node000002" class="edge">
<title>Node1&#45;&gt;Node2</title>
<g id="a_edge1_Node000001_Node000002"><a xlink:title=" ">
<path fill="none" stroke="#63b8ff" d="M133.74,-54.99C114.58,-45.49 89.42,-33.02 70.61,-23.69"/>
<polygon fill="#63b8ff" stroke="#63b8ff" points="71.94,-20.45 61.43,-19.14 68.83,-26.72 71.94,-20.45"/>
</a>
</g>
</g>
<!-- Node3 -->
<g id="Node000003" class="node">
<title>Node3</title>
<g id="a_Node000003"><a xlink:title=" ">
<polygon fill="#e0e0e0" stroke="#999999" points="218,-19 106,-19 106,0 218,0 218,-19"/>
<text text-anchor="middle" x="162" y="-7" font-family="Malgun Gothic" font-size="10.00">Engine/DataAsset.h</text>
</a>
</g>
</g>
<!-- Node1&#45;&gt;Node3 -->
<g id="edge2_Node000001_Node000003" class="edge">
<title>Node1&#45;&gt;Node3</title>
<g id="a_edge2_Node000001_Node000003"><a xlink:title=" ">
<path fill="none" stroke="#63b8ff" d="M162,-54.84C162,-47.21 162,-37.7 162,-29.45"/>
<polygon fill="#63b8ff" stroke="#63b8ff" points="165.5,-29.27 162,-19.27 158.5,-29.27 165.5,-29.27"/>
</a>
</g>
</g>
<!-- Node4 -->
<g id="Node000004" class="node">
<title>Node4</title>
<g id="a_Node000004"><a xlink:title=" ">
<polygon fill="#e0e0e0" stroke="#999999" points="392,-19 236,-19 236,0 392,0 392,-19"/>
<text text-anchor="middle" x="314" y="-7" font-family="Malgun Gothic" font-size="10.00">UCharacterData.generated.h</text>
</a>
</g>
</g>
<!-- Node1&#45;&gt;Node4 -->
<g id="edge3_Node000001_Node000004" class="edge">
<title>Node1&#45;&gt;Node4</title>
<g id="a_edge3_Node000001_Node000004"><a xlink:title=" ">
<path fill="none" stroke="#63b8ff" d="M198.41,-54.99C223.88,-45.18 257.59,-32.21 282.03,-22.81"/>
<polygon fill="#63b8ff" stroke="#63b8ff" points="283.48,-26 291.55,-19.14 280.96,-19.46 283.48,-26"/>
</a>
</g>
</g>
</g>
</svg>
