<?xml version="1.0" encoding="UTF-8" standalone="no"?>
<!DOCTYPE svg PUBLIC "-//W3C//DTD SVG 1.1//EN"
 "http://www.w3.org/Graphics/SVG/1.1/DTD/svg11.dtd">
<!-- Generated by graphviz version 2.43.0 (0)
 -->
<!-- Title: Source/LatteLibrary/Data/Private/UCharacterData.cpp Pages: 1 -->
<!--zoomable 203 -->

<svg id="main" version="1.1" xmlns="http://www.w3.org/2000/svg" xmlns:xlink="http://www.w3.org/1999/xlink" xml:space="preserve" onload="init(evt)">
<style type="text/css"><![CDATA[
.node, .edge {opacity: 0.7;}
.node.selected, .edge.selected {opacity: 1;}
.edge:hover path { stroke: red; }
.edge:hover polygon { stroke: red; fill: red; }
]]></style>

<defs>
  <circle id="rim" cx="0" cy="0" r="7"/>
  <circle id="rim2" cx="0" cy="0" r="3.5"/>
  <g id="zoomPlus">
    <use xlink:href="#rim" fill="#404040"><set attributeName="fill" to="#808080" begin="zoomplus.mouseover" end="zoomplus.mouseout"/></use>
    <path d="M-4,0h8M0,-4v8" fill="none" stroke="white" stroke-width="1.5" pointer-events="none"/>
  </g>
  <g id="zoomMin">
    <use xlink:href="#rim" fill="#404040"><set attributeName="fill" to="#808080" begin="zoomminus.mouseover" end="zoomminus.mouseout"/></use>
    <path d="M-4,0h8" fill="none" stroke="white" stroke-width="1.5" pointer-events="none"/>
  </g>
  <g id="arrowUp" transform="translate(30 24)">
    <use xlink:href="#rim"/>
    <path pointer-events="none" fill="none" stroke="white" stroke-width="1.5" d="M0,-3.0v7 M-2.5,-0.5L0,-3.0L2.5,-0.5"/>
  </g>
  <g id="arrowRight" transform="rotate(90) translate(36 -43)">
    <use xlink:href="#rim"/>
    <path pointer-events="none" fill="none" stroke="white" stroke-width="1.5" d="M0,-3.0v7 M-2.5,-0.5L0,-3.0L2.5,-0.5"/>
  </g>
  <g id="arrowDown" transform="rotate(180) translate(-30 -48)">
    <use xlink:href="#rim"/>
    <path pointer-events="none" fill="none" stroke="white" stroke-width="1.5" d="M0,-3.0v7 M-2.5,-0.5L0,-3.0L2.5,-0.5"/>
  </g>
  <g id="arrowLeft" transform="rotate(270) translate(-36 17)">
    <use xlink:href="#rim"/>
    <path pointer-events="none" fill="none" stroke="white" stroke-width="1.5" d="M0,-3.0v7 M-2.5,-0.5L0,-3.0L2.5,-0.5"/>
  </g>
  <g id="resetDef">
    <use xlink:href="#rim2" fill="#404040"><set attributeName="fill" to="#808080" begin="reset.mouseover" end="reset.mouseout"/></use>
  </g>
</defs>
<script type="application/ecmascript">
var viewWidth = 798;
var viewHeight = 203;
var sectionId = 'dynsection-0';
</script>
<script type="application/ecmascript" xlink:href="svg.min.js"/>
<svg id="graph" class="graph">
<g id="viewport">
<title>Source/LatteLibrary/Data/Private/UCharacterData.cpp</title>
<!-- Node1 -->
<g id="Node000001" class="node">
<title>Node1</title>
<g id="a_Node000001"><a xlink:title="UCharacterData 구현에 대한 Doxygen 주석을 제공합니다.">
<polygon fill="#999999" stroke="#666666" points="571.78,-195 389.78,-195 389.78,-165 571.78,-165 571.78,-195"/>
<text text-anchor="start" x="397.78" y="-183" font-family="Malgun Gothic" font-size="10.00">Source/LatteLibrary</text>
<text text-anchor="middle" x="480.78" y="-172" font-family="Malgun Gothic" font-size="10.00">/Data/Private/UCharacterData.cpp</text>
</a>
</g>
</g>
<!-- Node2 -->
<g id="Node000002" class="node">
<title>Node2</title>
<g id="a_Node000002"><a xlink:href="UCharacterData_8h.html" target="_top" xlink:title="UCharacterData 데이터 자산에 대한 Doxygen 주석을 제공합니다.">
<polygon fill="white" stroke="#666666" points="200.78,-129 96.78,-129 96.78,-110 200.78,-110 200.78,-129"/>
<text text-anchor="middle" x="148.78" y="-117" font-family="Malgun Gothic" font-size="10.00">UCharacterData.h</text>
</a>
</g>
</g>
<!-- Node1&#45;&gt;Node2 -->
<g id="edge1_Node000001_Node000002" class="edge">
<title>Node1&#45;&gt;Node2</title>
<g id="a_edge1_Node000001_Node000002"><a xlink:title=" ">
<path fill="none" stroke="#63b8ff" d="M401.26,-164.99C341.61,-154.48 261.28,-140.32 207.4,-130.83"/>
<polygon fill="#63b8ff" stroke="#63b8ff" points="207.78,-127.34 197.33,-129.05 206.57,-134.24 207.78,-127.34"/>
</a>
</g>
</g>
<!-- Node6 -->
<g id="Node000006" class="node">
<title>Node6</title>
<g id="a_Node000006"><a xlink:href="GameLogging_8h.html" target="_top" xlink:title="GameLogging 선언에 대한 Doxygen 주석을 제공합니다.">
<polygon fill="white" stroke="#666666" points="527.28,-129 434.28,-129 434.28,-110 527.28,-110 527.28,-129"/>
<text text-anchor="middle" x="480.78" y="-117" font-family="Malgun Gothic" font-size="10.00">GameLogging.h</text>
</a>
</g>
</g>
<!-- Node1&#45;&gt;Node6 -->
<g id="edge5_Node000001_Node000006" class="edge">
<title>Node1&#45;&gt;Node6</title>
<g id="a_edge5_Node000001_Node000006"><a xlink:title=" ">
<path fill="none" stroke="#63b8ff" d="M480.78,-164.84C480.78,-157.21 480.78,-147.7 480.78,-139.45"/>
<polygon fill="#63b8ff" stroke="#63b8ff" points="484.28,-139.27 480.78,-129.27 477.28,-139.27 484.28,-139.27"/>
</a>
</g>
</g>
<!-- Node11 -->
<g id="Node000011" class="node">
<title>Node11</title>
<g id="a_Node000011"><a xlink:title=" ">
<polygon fill="#e0e0e0" stroke="#999999" points="692.28,-129 545.28,-129 545.28,-110 692.28,-110 692.28,-129"/>
<text text-anchor="middle" x="618.78" y="-117" font-family="Malgun Gothic" font-size="10.00">Animation/AnimMontage.h</text>
</a>
</g>
</g>
<!-- Node1&#45;&gt;Node11 -->
<g id="edge13_Node000001_Node000011" class="edge">
<title>Node1&#45;&gt;Node11</title>
<g id="a_edge13_Node000001_Node000011"><a xlink:title=" ">
<path fill="none" stroke="#63b8ff" d="M513.84,-164.99C536.76,-155.27 567.02,-142.44 589.16,-133.06"/>
<polygon fill="#63b8ff" stroke="#63b8ff" points="590.56,-136.26 598.4,-129.14 587.83,-129.82 590.56,-136.26"/>
</a>
</g>
</g>
<!-- Node3 -->
<g id="Node000003" class="node">
<title>Node3</title>
<g id="a_Node000003"><a xlink:title=" ">
<polygon fill="#e0e0e0" stroke="#999999" points="533.78,-19 445.78,-19 445.78,0 533.78,0 533.78,-19"/>
<text text-anchor="middle" x="489.78" y="-7" font-family="Malgun Gothic" font-size="10.00">CoreMinimal.h</text>
</a>
</g>
</g>
<!-- Node2&#45;&gt;Node3 -->
<g id="edge2_Node000002_Node000003" class="edge">
<title>Node2&#45;&gt;Node3</title>
<g id="a_edge2_Node000002_Node000003"><a xlink:title=" ">
<path fill="none" stroke="#63b8ff" d="M96.68,-112.54C45.14,-104.65 -22.07,-87.73 7.78,-55 36.15,-23.89 315.5,-14.22 435.48,-11.48"/>
<polygon fill="#63b8ff" stroke="#63b8ff" points="435.63,-14.98 445.56,-11.26 435.48,-7.98 435.63,-14.98"/>
</a>
</g>
</g>
<!-- Node4 -->
<g id="Node000004" class="node">
<title>Node4</title>
<g id="a_Node000004"><a xlink:title=" ">
<polygon fill="#e0e0e0" stroke="#999999" points="128.78,-74 16.78,-74 16.78,-55 128.78,-55 128.78,-74"/>
<text text-anchor="middle" x="72.78" y="-62" font-family="Malgun Gothic" font-size="10.00">Engine/DataAsset.h</text>
</a>
</g>
</g>
<!-- Node2&#45;&gt;Node4 -->
<g id="edge3_Node000002_Node000004" class="edge">
<title>Node2&#45;&gt;Node4</title>
<g id="a_edge3_Node000002_Node000004"><a xlink:title=" ">
<path fill="none" stroke="#63b8ff" d="M136.57,-109.98C125.01,-101.92 107.41,-89.65 93.62,-80.03"/>
<polygon fill="#63b8ff" stroke="#63b8ff" points="95.42,-77.02 85.22,-74.17 91.42,-82.76 95.42,-77.02"/>
</a>
</g>
</g>
<!-- Node5 -->
<g id="Node000005" class="node">
<title>Node5</title>
<g id="a_Node000005"><a xlink:title=" ">
<polygon fill="#e0e0e0" stroke="#999999" points="302.78,-74 146.78,-74 146.78,-55 302.78,-55 302.78,-74"/>
<text text-anchor="middle" x="224.78" y="-62" font-family="Malgun Gothic" font-size="10.00">UCharacterData.generated.h</text>
</a>
</g>
</g>
<!-- Node2&#45;&gt;Node5 -->
<g id="edge4_Node000002_Node000005" class="edge">
<title>Node2&#45;&gt;Node5</title>
<g id="a_edge4_Node000002_Node000005"><a xlink:title=" ">
<path fill="none" stroke="#63b8ff" d="M160.99,-109.98C172.56,-101.92 190.16,-89.65 203.94,-80.03"/>
<polygon fill="#63b8ff" stroke="#63b8ff" points="206.15,-82.76 212.35,-74.17 202.15,-77.02 206.15,-82.76"/>
</a>
</g>
</g>
<!-- Node6&#45;&gt;Node3 -->
<g id="edge6_Node000006_Node000003" class="edge">
<title>Node6&#45;&gt;Node3</title>
<g id="a_edge6_Node000006_Node000003"><a xlink:title=" ">
<path fill="none" stroke="#63b8ff" d="M433.98,-112.96C387.07,-105.41 325.09,-88.76 349.78,-55 369.33,-28.28 405.06,-17.21 435.52,-12.8"/>
<polygon fill="#63b8ff" stroke="#63b8ff" points="436.13,-16.25 445.62,-11.54 435.27,-9.3 436.13,-16.25"/>
</a>
</g>
</g>
<!-- Node7 -->
<g id="Node000007" class="node">
<title>Node7</title>
<g id="a_Node000007"><a xlink:title=" ">
<polygon fill="#e0e0e0" stroke="#999999" points="478.28,-74 359.28,-74 359.28,-55 478.28,-55 478.28,-74"/>
<text text-anchor="middle" x="418.78" y="-62" font-family="Malgun Gothic" font-size="10.00">Logging/LogMacros.h</text>
</a>
</g>
</g>
<!-- Node6&#45;&gt;Node7 -->
<g id="edge7_Node000006_Node000007" class="edge">
<title>Node6&#45;&gt;Node7</title>
<g id="a_edge7_Node000006_Node000007"><a xlink:title=" ">
<path fill="none" stroke="#63b8ff" d="M470.82,-109.98C461.66,-102.15 447.85,-90.34 436.75,-80.86"/>
<polygon fill="#63b8ff" stroke="#63b8ff" points="438.8,-78.01 428.93,-74.17 434.25,-83.33 438.8,-78.01"/>
</a>
</g>
</g>
<!-- Node8 -->
<g id="Node000008" class="node">
<title>Node8</title>
<g id="a_Node000008"><a xlink:title=" ">
<polygon fill="#e0e0e0" stroke="#999999" points="591.28,-74 496.28,-74 496.28,-55 591.28,-55 591.28,-74"/>
<text text-anchor="middle" x="543.78" y="-62" font-family="Malgun Gothic" font-size="10.00">Engine/Engine.h</text>
</a>
</g>
</g>
<!-- Node6&#45;&gt;Node8 -->
<g id="edge8_Node000006_Node000008" class="edge">
<title>Node6&#45;&gt;Node8</title>
<g id="a_edge8_Node000006_Node000008"><a xlink:title=" ">
<path fill="none" stroke="#63b8ff" d="M490.9,-109.98C500.22,-102.15 514.25,-90.34 525.52,-80.86"/>
<polygon fill="#63b8ff" stroke="#63b8ff" points="528.08,-83.29 533.48,-74.17 523.57,-77.93 528.08,-83.29"/>
</a>
</g>
</g>
<!-- Node9 -->
<g id="Node000009" class="node">
<title>Node9</title>
<g id="a_Node000009"><a xlink:href="FLogWriter_8h.html" target="_top" xlink:title="FLogWriter 선언에 대한 Doxygen 주석을 제공합니다.">
<polygon fill="white" stroke="#666666" points="687.78,-74 609.78,-74 609.78,-55 687.78,-55 687.78,-74"/>
<text text-anchor="middle" x="648.78" y="-62" font-family="Malgun Gothic" font-size="10.00">FLogWriter.h</text>
</a>
</g>
</g>
<!-- Node6&#45;&gt;Node9 -->
<g id="edge9_Node000006_Node000009" class="edge">
<title>Node6&#45;&gt;Node9</title>
<g id="a_edge9_Node000006_Node000009"><a xlink:title=" ">
<path fill="none" stroke="#63b8ff" d="M507.77,-109.98C535.98,-101.09 580.42,-87.07 611.86,-77.15"/>
<polygon fill="#63b8ff" stroke="#63b8ff" points="613.1,-80.43 621.58,-74.08 610.99,-73.75 613.1,-80.43"/>
</a>
</g>
</g>
<!-- Node10 -->
<g id="Node000010" class="node">
<title>Node10</title>
<g id="a_Node000010"><a xlink:href="NetworkLog_8h.html" target="_top" xlink:title="NetworkLog 선언에 대한 Doxygen 주석을 제공합니다.">
<polygon fill="white" stroke="#666666" points="789.78,-74 705.78,-74 705.78,-55 789.78,-55 789.78,-74"/>
<text text-anchor="middle" x="747.78" y="-62" font-family="Malgun Gothic" font-size="10.00">NetworkLog.h</text>
</a>
</g>
</g>
<!-- Node6&#45;&gt;Node10 -->
<g id="edge11_Node000006_Node000010" class="edge">
<title>Node6&#45;&gt;Node10</title>
<g id="a_edge11_Node000006_Node000010"><a xlink:title=" ">
<path fill="none" stroke="#63b8ff" d="M523.68,-109.98C570.43,-100.7 645.25,-85.85 695.43,-75.89"/>
<polygon fill="#63b8ff" stroke="#63b8ff" points="696.3,-79.29 705.43,-73.91 694.94,-72.42 696.3,-79.29"/>
</a>
</g>
</g>
<!-- Node9&#45;&gt;Node3 -->
<g id="edge10_Node000009_Node000003" class="edge">
<title>Node9&#45;&gt;Node3</title>
<g id="a_edge10_Node000009_Node000003"><a xlink:title=" ">
<path fill="none" stroke="#63b8ff" d="M623.24,-54.98C596.66,-46.13 554.84,-32.19 525.11,-22.28"/>
<polygon fill="#63b8ff" stroke="#63b8ff" points="526.12,-18.92 515.53,-19.08 523.91,-25.56 526.12,-18.92"/>
</a>
</g>
</g>
<!-- Node10&#45;&gt;Node3 -->
<g id="edge12_Node000010_Node000003" class="edge">
<title>Node10&#45;&gt;Node3</title>
<g id="a_edge12_Node000010_Node000003"><a xlink:title=" ">
<path fill="none" stroke="#63b8ff" d="M706.33,-54.98C661.51,-45.78 590.01,-31.09 541.54,-21.13"/>
<polygon fill="#63b8ff" stroke="#63b8ff" points="542.06,-17.67 531.56,-19.08 540.65,-24.52 542.06,-17.67"/>
</a>
</g>
</g>
</g>
</svg>

<g id="navigator" transform="translate(0 0)" fill="#404254">
  <rect fill="#f2f5e9" fill-opacity="0.5" stroke="#606060" stroke-width=".5" x="0" y="0" width="60" height="60"/>
  <use id="zoomplus" xlink:href="#zoomPlus" x="17" y="9" onmousedown="handleZoom(evt,'in')"/>
  <use id="zoomminus" xlink:href="#zoomMin" x="42" y="9" onmousedown="handleZoom(evt,'out')"/>
  <use id="reset" xlink:href="#resetDef" x="30" y="36" onmousedown="handleReset()"/>
   <use id="arrowup" xlink:href="#arrowUp" x="0" y="0" onmousedown="handlePan(0,-1)"/>
  <use id="arrowright" xlink:href="#arrowRight" x="0" y="0" onmousedown="handlePan(1,0)"/>
  <use id="arrowdown" xlink:href="#arrowDown" x="0" y="0" onmousedown="handlePan(0,1)"/>
  <use id="arrowleft" xlink:href="#arrowLeft" x="0" y="0" onmousedown="handlePan(-1,0)"/>
</g>
<svg viewBox="0 0 15 15" width="100%" height="30px" preserveAspectRatio="xMaxYMin meet">
 <g id="arrow_out" transform="scale(0.3 0.3)">
  <a xlink:href="UCharacterData_8cpp__incl_org.svg" target="_base">
   <rect id="button" ry="5" rx="5" y="6" x="6" height="38" width="38"
        fill="#f2f5e9" fill-opacity="0.5" stroke="#606060" stroke-width="1.0"/>
   <path id="arrow"
     d="M 11.500037,31.436501 C 11.940474,20.09759 22.043105,11.32322 32.158766,21.979434 L 37.068811,17.246167 C 37.068811,17.246167 37.088388,32 37.088388,32 L 22.160133,31.978069 C 22.160133,31.978069 26.997745,27.140456 26.997745,27.140456 C 18.528582,18.264221 13.291696,25.230495 11.500037,31.436501 z"
     style="fill:#404040;"/>
  </a>
 </g>
</svg>

<style type='text/css'>
<![CDATA[
[data-mouse-over-selected='false'] { opacity: 0.7; }
[data-mouse-over-selected='true']  { opacity: 1.0; }
]]>
</style>
<script type="application/ecmascript"><![CDATA[
document.addEventListener('DOMContentLoaded', (event) => {
  highlightEdges();
  highlightAdjacentNodes();
});
]]></script>
</svg>
