<?xml version="1.0" encoding="UTF-8" standalone="no"?>
<!DOCTYPE svg PUBLIC "-//W3C//DTD SVG 1.1//EN"
 "http://www.w3.org/Graphics/SVG/1.1/DTD/svg11.dtd">
<!-- Generated by graphviz version 2.43.0 (0)
 -->
<!-- Title: Source/LatteLibrary/Data/Private/UCharacterData.cpp Pages: 1 -->
<svg width="798pt" height="203pt"
 viewBox="0.00 0.00 797.78 203.00" xmlns="http://www.w3.org/2000/svg" xmlns:xlink="http://www.w3.org/1999/xlink">
<g id="graph0" class="graph" transform="scale(1 1) rotate(0) translate(4 199)">
<title>Source/LatteLibrary/Data/Private/UCharacterData.cpp</title>
<!-- Node1 -->
<g id="Node000001" class="node">
<title>Node1</title>
<g id="a_Node000001"><a xlink:title="UCharacterData 구현에 대한 Doxygen 주석을 제공합니다.">
<polygon fill="#999999" stroke="#666666" points="571.78,-195 389.78,-195 389.78,-165 571.78,-165 571.78,-195"/>
<text text-anchor="start" x="397.78" y="-183" font-family="Malgun Gothic" font-size="10.00">Source/LatteLibrary</text>
<text text-anchor="middle" x="480.78" y="-172" font-family="Malgun Gothic" font-size="10.00">/Data/Private/UCharacterData.cpp</text>
</a>
</g>
</g>
<!-- Node2 -->
<g id="Node000002" class="node">
<title>Node2</title>
<g id="a_Node000002"><a xlink:href="UCharacterData_8h.html" target="_top" xlink:title="UCharacterData 데이터 자산에 대한 Doxygen 주석을 제공합니다.">
<polygon fill="white" stroke="#666666" points="200.78,-129 96.78,-129 96.78,-110 200.78,-110 200.78,-129"/>
<text text-anchor="middle" x="148.78" y="-117" font-family="Malgun Gothic" font-size="10.00">UCharacterData.h</text>
</a>
</g>
</g>
<!-- Node1&#45;&gt;Node2 -->
<g id="edge1_Node000001_Node000002" class="edge">
<title>Node1&#45;&gt;Node2</title>
<g id="a_edge1_Node000001_Node000002"><a xlink:title=" ">
<path fill="none" stroke="#63b8ff" d="M401.26,-164.99C341.61,-154.48 261.28,-140.32 207.4,-130.83"/>
<polygon fill="#63b8ff" stroke="#63b8ff" points="207.78,-127.34 197.33,-129.05 206.57,-134.24 207.78,-127.34"/>
</a>
</g>
</g>
<!-- Node6 -->
<g id="Node000006" class="node">
<title>Node6</title>
<g id="a_Node000006"><a xlink:href="GameLogging_8h.html" target="_top" xlink:title="GameLogging 선언에 대한 Doxygen 주석을 제공합니다.">
<polygon fill="white" stroke="#666666" points="527.28,-129 434.28,-129 434.28,-110 527.28,-110 527.28,-129"/>
<text text-anchor="middle" x="480.78" y="-117" font-family="Malgun Gothic" font-size="10.00">GameLogging.h</text>
</a>
</g>
</g>
<!-- Node1&#45;&gt;Node6 -->
<g id="edge5_Node000001_Node000006" class="edge">
<title>Node1&#45;&gt;Node6</title>
<g id="a_edge5_Node000001_Node000006"><a xlink:title=" ">
<path fill="none" stroke="#63b8ff" d="M480.78,-164.84C480.78,-157.21 480.78,-147.7 480.78,-139.45"/>
<polygon fill="#63b8ff" stroke="#63b8ff" points="484.28,-139.27 480.78,-129.27 477.28,-139.27 484.28,-139.27"/>
</a>
</g>
</g>
<!-- Node11 -->
<g id="Node000011" class="node">
<title>Node11</title>
<g id="a_Node000011"><a xlink:title=" ">
<polygon fill="#e0e0e0" stroke="#999999" points="692.28,-129 545.28,-129 545.28,-110 692.28,-110 692.28,-129"/>
<text text-anchor="middle" x="618.78" y="-117" font-family="Malgun Gothic" font-size="10.00">Animation/AnimMontage.h</text>
</a>
</g>
</g>
<!-- Node1&#45;&gt;Node11 -->
<g id="edge13_Node000001_Node000011" class="edge">
<title>Node1&#45;&gt;Node11</title>
<g id="a_edge13_Node000001_Node000011"><a xlink:title=" ">
<path fill="none" stroke="#63b8ff" d="M513.84,-164.99C536.76,-155.27 567.02,-142.44 589.16,-133.06"/>
<polygon fill="#63b8ff" stroke="#63b8ff" points="590.56,-136.26 598.4,-129.14 587.83,-129.82 590.56,-136.26"/>
</a>
</g>
</g>
<!-- Node3 -->
<g id="Node000003" class="node">
<title>Node3</title>
<g id="a_Node000003"><a xlink:title=" ">
<polygon fill="#e0e0e0" stroke="#999999" points="533.78,-19 445.78,-19 445.78,0 533.78,0 533.78,-19"/>
<text text-anchor="middle" x="489.78" y="-7" font-family="Malgun Gothic" font-size="10.00">CoreMinimal.h</text>
</a>
</g>
</g>
<!-- Node2&#45;&gt;Node3 -->
<g id="edge2_Node000002_Node000003" class="edge">
<title>Node2&#45;&gt;Node3</title>
<g id="a_edge2_Node000002_Node000003"><a xlink:title=" ">
<path fill="none" stroke="#63b8ff" d="M96.68,-112.54C45.14,-104.65 -22.07,-87.73 7.78,-55 36.15,-23.89 315.5,-14.22 435.48,-11.48"/>
<polygon fill="#63b8ff" stroke="#63b8ff" points="435.63,-14.98 445.56,-11.26 435.48,-7.98 435.63,-14.98"/>
</a>
</g>
</g>
<!-- Node4 -->
<g id="Node000004" class="node">
<title>Node4</title>
<g id="a_Node000004"><a xlink:title=" ">
<polygon fill="#e0e0e0" stroke="#999999" points="128.78,-74 16.78,-74 16.78,-55 128.78,-55 128.78,-74"/>
<text text-anchor="middle" x="72.78" y="-62" font-family="Malgun Gothic" font-size="10.00">Engine/DataAsset.h</text>
</a>
</g>
</g>
<!-- Node2&#45;&gt;Node4 -->
<g id="edge3_Node000002_Node000004" class="edge">
<title>Node2&#45;&gt;Node4</title>
<g id="a_edge3_Node000002_Node000004"><a xlink:title=" ">
<path fill="none" stroke="#63b8ff" d="M136.57,-109.98C125.01,-101.92 107.41,-89.65 93.62,-80.03"/>
<polygon fill="#63b8ff" stroke="#63b8ff" points="95.42,-77.02 85.22,-74.17 91.42,-82.76 95.42,-77.02"/>
</a>
</g>
</g>
<!-- Node5 -->
<g id="Node000005" class="node">
<title>Node5</title>
<g id="a_Node000005"><a xlink:title=" ">
<polygon fill="#e0e0e0" stroke="#999999" points="302.78,-74 146.78,-74 146.78,-55 302.78,-55 302.78,-74"/>
<text text-anchor="middle" x="224.78" y="-62" font-family="Malgun Gothic" font-size="10.00">UCharacterData.generated.h</text>
</a>
</g>
</g>
<!-- Node2&#45;&gt;Node5 -->
<g id="edge4_Node000002_Node000005" class="edge">
<title>Node2&#45;&gt;Node5</title>
<g id="a_edge4_Node000002_Node000005"><a xlink:title=" ">
<path fill="none" stroke="#63b8ff" d="M160.99,-109.98C172.56,-101.92 190.16,-89.65 203.94,-80.03"/>
<polygon fill="#63b8ff" stroke="#63b8ff" points="206.15,-82.76 212.35,-74.17 202.15,-77.02 206.15,-82.76"/>
</a>
</g>
</g>
<!-- Node6&#45;&gt;Node3 -->
<g id="edge6_Node000006_Node000003" class="edge">
<title>Node6&#45;&gt;Node3</title>
<g id="a_edge6_Node000006_Node000003"><a xlink:title=" ">
<path fill="none" stroke="#63b8ff" d="M433.98,-112.96C387.07,-105.41 325.09,-88.76 349.78,-55 369.33,-28.28 405.06,-17.21 435.52,-12.8"/>
<polygon fill="#63b8ff" stroke="#63b8ff" points="436.13,-16.25 445.62,-11.54 435.27,-9.3 436.13,-16.25"/>
</a>
</g>
</g>
<!-- Node7 -->
<g id="Node000007" class="node">
<title>Node7</title>
<g id="a_Node000007"><a xlink:title=" ">
<polygon fill="#e0e0e0" stroke="#999999" points="478.28,-74 359.28,-74 359.28,-55 478.28,-55 478.28,-74"/>
<text text-anchor="middle" x="418.78" y="-62" font-family="Malgun Gothic" font-size="10.00">Logging/LogMacros.h</text>
</a>
</g>
</g>
<!-- Node6&#45;&gt;Node7 -->
<g id="edge7_Node000006_Node000007" class="edge">
<title>Node6&#45;&gt;Node7</title>
<g id="a_edge7_Node000006_Node000007"><a xlink:title=" ">
<path fill="none" stroke="#63b8ff" d="M470.82,-109.98C461.66,-102.15 447.85,-90.34 436.75,-80.86"/>
<polygon fill="#63b8ff" stroke="#63b8ff" points="438.8,-78.01 428.93,-74.17 434.25,-83.33 438.8,-78.01"/>
</a>
</g>
</g>
<!-- Node8 -->
<g id="Node000008" class="node">
<title>Node8</title>
<g id="a_Node000008"><a xlink:title=" ">
<polygon fill="#e0e0e0" stroke="#999999" points="591.28,-74 496.28,-74 496.28,-55 591.28,-55 591.28,-74"/>
<text text-anchor="middle" x="543.78" y="-62" font-family="Malgun Gothic" font-size="10.00">Engine/Engine.h</text>
</a>
</g>
</g>
<!-- Node6&#45;&gt;Node8 -->
<g id="edge8_Node000006_Node000008" class="edge">
<title>Node6&#45;&gt;Node8</title>
<g id="a_edge8_Node000006_Node000008"><a xlink:title=" ">
<path fill="none" stroke="#63b8ff" d="M490.9,-109.98C500.22,-102.15 514.25,-90.34 525.52,-80.86"/>
<polygon fill="#63b8ff" stroke="#63b8ff" points="528.08,-83.29 533.48,-74.17 523.57,-77.93 528.08,-83.29"/>
</a>
</g>
</g>
<!-- Node9 -->
<g id="Node000009" class="node">
<title>Node9</title>
<g id="a_Node000009"><a xlink:href="FLogWriter_8h.html" target="_top" xlink:title="FLogWriter 선언에 대한 Doxygen 주석을 제공합니다.">
<polygon fill="white" stroke="#666666" points="687.78,-74 609.78,-74 609.78,-55 687.78,-55 687.78,-74"/>
<text text-anchor="middle" x="648.78" y="-62" font-family="Malgun Gothic" font-size="10.00">FLogWriter.h</text>
</a>
</g>
</g>
<!-- Node6&#45;&gt;Node9 -->
<g id="edge9_Node000006_Node000009" class="edge">
<title>Node6&#45;&gt;Node9</title>
<g id="a_edge9_Node000006_Node000009"><a xlink:title=" ">
<path fill="none" stroke="#63b8ff" d="M507.77,-109.98C535.98,-101.09 580.42,-87.07 611.86,-77.15"/>
<polygon fill="#63b8ff" stroke="#63b8ff" points="613.1,-80.43 621.58,-74.08 610.99,-73.75 613.1,-80.43"/>
</a>
</g>
</g>
<!-- Node10 -->
<g id="Node000010" class="node">
<title>Node10</title>
<g id="a_Node000010"><a xlink:href="NetworkLog_8h.html" target="_top" xlink:title="NetworkLog 선언에 대한 Doxygen 주석을 제공합니다.">
<polygon fill="white" stroke="#666666" points="789.78,-74 705.78,-74 705.78,-55 789.78,-55 789.78,-74"/>
<text text-anchor="middle" x="747.78" y="-62" font-family="Malgun Gothic" font-size="10.00">NetworkLog.h</text>
</a>
</g>
</g>
<!-- Node6&#45;&gt;Node10 -->
<g id="edge11_Node000006_Node000010" class="edge">
<title>Node6&#45;&gt;Node10</title>
<g id="a_edge11_Node000006_Node000010"><a xlink:title=" ">
<path fill="none" stroke="#63b8ff" d="M523.68,-109.98C570.43,-100.7 645.25,-85.85 695.43,-75.89"/>
<polygon fill="#63b8ff" stroke="#63b8ff" points="696.3,-79.29 705.43,-73.91 694.94,-72.42 696.3,-79.29"/>
</a>
</g>
</g>
<!-- Node9&#45;&gt;Node3 -->
<g id="edge10_Node000009_Node000003" class="edge">
<title>Node9&#45;&gt;Node3</title>
<g id="a_edge10_Node000009_Node000003"><a xlink:title=" ">
<path fill="none" stroke="#63b8ff" d="M623.24,-54.98C596.66,-46.13 554.84,-32.19 525.11,-22.28"/>
<polygon fill="#63b8ff" stroke="#63b8ff" points="526.12,-18.92 515.53,-19.08 523.91,-25.56 526.12,-18.92"/>
</a>
</g>
</g>
<!-- Node10&#45;&gt;Node3 -->
<g id="edge12_Node000010_Node000003" class="edge">
<title>Node10&#45;&gt;Node3</title>
<g id="a_edge12_Node000010_Node000003"><a xlink:title=" ">
<path fill="none" stroke="#63b8ff" d="M706.33,-54.98C661.51,-45.78 590.01,-31.09 541.54,-21.13"/>
<polygon fill="#63b8ff" stroke="#63b8ff" points="542.06,-17.67 531.56,-19.08 540.65,-24.52 542.06,-17.67"/>
</a>
</g>
</g>
</g>
</svg>
