<?xml version="1.0" encoding="UTF-8" standalone="no"?>
<!DOCTYPE svg PUBLIC "-//W3C//DTD SVG 1.1//EN"
 "http://www.w3.org/Graphics/SVG/1.1/DTD/svg11.dtd">
<!-- Generated by graphviz version 2.43.0 (0)
 -->
<!-- Title: Source/LatteLibrary/Network/Public/UCustomNetworkSettings.h Pages: 1 -->
<svg width="674pt" height="280pt"
 viewBox="0.00 0.00 673.50 280.00" xmlns="http://www.w3.org/2000/svg" xmlns:xlink="http://www.w3.org/1999/xlink">
<g id="graph0" class="graph" transform="scale(1 1) rotate(0) translate(4 276)">
<title>Source/LatteLibrary/Network/Public/UCustomNetworkSettings.h</title>
<!-- Node1 -->
<g id="Node000001" class="node">
<title>Node1</title>
<g id="a_Node000001"><a xlink:title="UCustomNetworkSettings 선언에 대한 Doxygen 주석을 제공합니다.">
<polygon fill="#999999" stroke="#666666" points="283,-272 101,-272 101,-231 283,-231 283,-272"/>
<text text-anchor="start" x="109" y="-260" font-family="Malgun Gothic" font-size="10.00">Source/LatteLibrary</text>
<text text-anchor="start" x="109" y="-249" font-family="Malgun Gothic" font-size="10.00">/Network/Public/UCustomNetwork</text>
<text text-anchor="middle" x="192" y="-238" font-family="Malgun Gothic" font-size="10.00">Settings.h</text>
</a>
</g>
</g>
<!-- Node2 -->
<g id="Node000002" class="node">
<title>Node2</title>
<g id="a_Node000002"><a xlink:href="UCustomNetworkSettings_8cpp.html" target="_top" xlink:title="UCustomNetworkSettings 구현에 대한 Doxygen 주석을 제공합니다.">
<polygon fill="white" stroke="#666666" points="188,-195 0,-195 0,-154 188,-154 188,-195"/>
<text text-anchor="start" x="8" y="-183" font-family="Malgun Gothic" font-size="10.00">Source/LatteLibrary</text>
<text text-anchor="start" x="8" y="-172" font-family="Malgun Gothic" font-size="10.00">/Network/Private/UCustomNetwork</text>
<text text-anchor="middle" x="94" y="-161" font-family="Malgun Gothic" font-size="10.00">Settings.cpp</text>
</a>
</g>
</g>
<!-- Node1&#45;&gt;Node2 -->
<g id="edge1_Node000001_Node000002" class="edge">
<title>Node1&#45;&gt;Node2</title>
<g id="a_edge1_Node000001_Node000002"><a xlink:title=" ">
<path fill="none" stroke="#63b8ff" d="M158.44,-224.82C145.76,-215.11 131.55,-204.24 119.71,-195.17"/>
<polygon fill="#63b8ff" stroke="#63b8ff" points="156.44,-227.69 166.51,-230.99 160.69,-222.13 156.44,-227.69"/>
</a>
</g>
</g>
<!-- Node3 -->
<g id="Node000003" class="node">
<title>Node3</title>
<g id="a_Node000003"><a xlink:href="NetworkData_8h.html" target="_top" xlink:title="NetworkData 구조체 선언에 대한 Doxygen 주석을 제공합니다.">
<polygon fill="white" stroke="#666666" points="376,-189.5 206,-189.5 206,-159.5 376,-159.5 376,-189.5"/>
<text text-anchor="start" x="214" y="-177.5" font-family="Malgun Gothic" font-size="10.00">Source/LatteLibrary</text>
<text text-anchor="middle" x="291" y="-166.5" font-family="Malgun Gothic" font-size="10.00">/Network/Public/NetworkData.h</text>
</a>
</g>
</g>
<!-- Node1&#45;&gt;Node3 -->
<g id="edge2_Node000001_Node000003" class="edge">
<title>Node1&#45;&gt;Node3</title>
<g id="a_edge2_Node000001_Node000003"><a xlink:title=" ">
<path fill="none" stroke="#63b8ff" d="M226.07,-224.69C241.54,-212.97 259.25,-199.56 272.26,-189.7"/>
<polygon fill="#63b8ff" stroke="#63b8ff" points="223.61,-222.16 217.75,-230.99 227.84,-227.74 223.61,-222.16"/>
</a>
</g>
</g>
<!-- Node4 -->
<g id="Node000004" class="node">
<title>Node4</title>
<g id="a_Node000004"><a xlink:href="ANetworkTesterActor_8cpp.html" target="_top" xlink:title="ANetworkTesterActor 구현에 대한 Doxygen 주석을 제공합니다.">
<polygon fill="white" stroke="#666666" points="476.5,-41 297.5,-41 297.5,0 476.5,0 476.5,-41"/>
<text text-anchor="start" x="305.5" y="-29" font-family="Malgun Gothic" font-size="10.00">Source/LatteLibrary</text>
<text text-anchor="start" x="305.5" y="-18" font-family="Malgun Gothic" font-size="10.00">/Network/Private/ANetworkTester</text>
<text text-anchor="middle" x="387" y="-7" font-family="Malgun Gothic" font-size="10.00">Actor.cpp</text>
</a>
</g>
</g>
<!-- Node3&#45;&gt;Node4 -->
<g id="edge3_Node000003_Node000004" class="edge">
<title>Node3&#45;&gt;Node4</title>
<g id="a_edge3_Node000003_Node000004"><a xlink:title=" ">
<path fill="none" stroke="#63b8ff" d="M215.38,-157.25C161.77,-144.96 97.97,-128.47 90,-118 78.96,-103.5 78.36,-91.02 90,-77 116.01,-45.67 219.71,-31.93 297.29,-25.97"/>
<polygon fill="#63b8ff" stroke="#63b8ff" points="214.73,-160.69 225.26,-159.49 216.28,-153.86 214.73,-160.69"/>
</a>
</g>
</g>
<!-- Node5 -->
<g id="Node000005" class="node">
<title>Node5</title>
<g id="a_Node000005"><a xlink:href="NetworkData_8cpp.html" target="_top" xlink:title="NetworkData 구조 구현에 대한 Doxygen 주석을 제공합니다.">
<polygon fill="white" stroke="#666666" points="285,-112.5 99,-112.5 99,-82.5 285,-82.5 285,-112.5"/>
<text text-anchor="start" x="107" y="-100.5" font-family="Malgun Gothic" font-size="10.00">Source/LatteLibrary</text>
<text text-anchor="middle" x="192" y="-89.5" font-family="Malgun Gothic" font-size="10.00">/Network/Private/NetworkData.cpp</text>
</a>
</g>
</g>
<!-- Node3&#45;&gt;Node5 -->
<g id="edge4_Node000003_Node000005" class="edge">
<title>Node3&#45;&gt;Node5</title>
<g id="a_edge4_Node000003_Node000005"><a xlink:title=" ">
<path fill="none" stroke="#63b8ff" d="M263.97,-153.03C247.01,-140.18 225.59,-123.94 210.54,-112.54"/>
<polygon fill="#63b8ff" stroke="#63b8ff" points="262.29,-156.14 272.38,-159.39 266.52,-150.56 262.29,-156.14"/>
</a>
</g>
</g>
<!-- Node6 -->
<g id="Node000006" class="node">
<title>Node6</title>
<g id="a_Node000006"><a xlink:href="ANetworkTesterActor_8h.html" target="_top" xlink:title="ANetworkTesterActor 선언에 대한 Doxygen 주석을 제공합니다.">
<polygon fill="white" stroke="#666666" points="476.5,-118 303.5,-118 303.5,-77 476.5,-77 476.5,-118"/>
<text text-anchor="start" x="311.5" y="-106" font-family="Malgun Gothic" font-size="10.00">Source/LatteLibrary</text>
<text text-anchor="start" x="311.5" y="-95" font-family="Malgun Gothic" font-size="10.00">/Network/Public/ANetworkTester</text>
<text text-anchor="middle" x="390" y="-84" font-family="Malgun Gothic" font-size="10.00">Actor.h</text>
</a>
</g>
</g>
<!-- Node3&#45;&gt;Node6 -->
<g id="edge5_Node000003_Node000006" class="edge">
<title>Node3&#45;&gt;Node6</title>
<g id="a_edge5_Node000003_Node000006"><a xlink:title=" ">
<path fill="none" stroke="#63b8ff" d="M317.66,-153.31C332.04,-142.41 349.71,-129.02 363.99,-118.2"/>
<polygon fill="#63b8ff" stroke="#63b8ff" points="315.48,-150.56 309.62,-159.39 319.71,-156.14 315.48,-150.56"/>
</a>
</g>
</g>
<!-- Node7 -->
<g id="Node000007" class="node">
<title>Node7</title>
<g id="a_Node000007"><a xlink:href="UHttpNetworkSystem_8h.html" target="_top" xlink:title="UHttpNetworkSystem 선언에 대한 Doxygen 주석을 제공합니다.">
<polygon fill="white" stroke="#666666" points="661,-118 495,-118 495,-77 661,-77 661,-118"/>
<text text-anchor="start" x="503" y="-106" font-family="Malgun Gothic" font-size="10.00">Source/LatteLibrary</text>
<text text-anchor="start" x="503" y="-95" font-family="Malgun Gothic" font-size="10.00">/Network/Public/UHttpNetwork</text>
<text text-anchor="middle" x="578" y="-84" font-family="Malgun Gothic" font-size="10.00">System.h</text>
</a>
</g>
</g>
<!-- Node3&#45;&gt;Node7 -->
<g id="edge7_Node000003_Node000007" class="edge">
<title>Node3&#45;&gt;Node7</title>
<g id="a_edge7_Node000003_Node000007"><a xlink:title=" ">
<path fill="none" stroke="#63b8ff" d="M354.35,-156.94C398.29,-145.46 457,-130.12 503.24,-118.04"/>
<polygon fill="#63b8ff" stroke="#63b8ff" points="353.44,-153.57 344.65,-159.48 355.21,-160.34 353.44,-153.57"/>
</a>
</g>
</g>
<!-- Node6&#45;&gt;Node4 -->
<g id="edge6_Node000006_Node000004" class="edge">
<title>Node6&#45;&gt;Node4</title>
<g id="a_edge6_Node000006_Node000004"><a xlink:title=" ">
<path fill="none" stroke="#63b8ff" d="M388.81,-66.69C388.46,-58.08 388.1,-48.9 387.78,-41.07"/>
<polygon fill="#63b8ff" stroke="#63b8ff" points="385.31,-66.94 389.21,-76.79 392.31,-66.66 385.31,-66.94"/>
</a>
</g>
</g>
<!-- Node7&#45;&gt;Node4 -->
<g id="edge8_Node000007_Node000004" class="edge">
<title>Node7&#45;&gt;Node4</title>
<g id="a_edge8_Node000007_Node000004"><a xlink:title=" ">
<path fill="none" stroke="#63b8ff" d="M518.83,-73.27C492.52,-62.94 461.88,-50.9 436.77,-41.04"/>
<polygon fill="#63b8ff" stroke="#63b8ff" points="517.73,-76.59 528.32,-76.99 520.29,-70.08 517.73,-76.59"/>
</a>
</g>
</g>
<!-- Node8 -->
<g id="Node000008" class="node">
<title>Node8</title>
<g id="a_Node000008"><a xlink:href="UHttpNetworkSystem_8cpp.html" target="_top" xlink:title="UHttpNetworkSystem 구현에 대한 Doxygen 주석을 제공합니다.">
<polygon fill="white" stroke="#666666" points="665.5,-41 494.5,-41 494.5,0 665.5,0 665.5,-41"/>
<text text-anchor="start" x="502.5" y="-29" font-family="Malgun Gothic" font-size="10.00">Source/LatteLibrary</text>
<text text-anchor="start" x="502.5" y="-18" font-family="Malgun Gothic" font-size="10.00">/Network/Private/UHttpNetwork</text>
<text text-anchor="middle" x="580" y="-7" font-family="Malgun Gothic" font-size="10.00">System.cpp</text>
</a>
</g>
</g>
<!-- Node7&#45;&gt;Node8 -->
<g id="edge9_Node000007_Node000008" class="edge">
<title>Node7&#45;&gt;Node8</title>
<g id="a_edge9_Node000007_Node000008"><a xlink:title=" ">
<path fill="none" stroke="#63b8ff" d="M578.79,-66.69C579.02,-58.08 579.27,-48.9 579.48,-41.07"/>
<polygon fill="#63b8ff" stroke="#63b8ff" points="575.29,-66.7 578.53,-76.79 582.29,-66.89 575.29,-66.7"/>
</a>
</g>
</g>
</g>
</svg>
