<?xml version="1.0" encoding="UTF-8" standalone="no"?>
<!DOCTYPE svg PUBLIC "-//W3C//DTD SVG 1.1//EN"
 "http://www.w3.org/Graphics/SVG/1.1/DTD/svg11.dtd">
<!-- Generated by graphviz version 2.43.0 (0)
 -->
<!-- Title: Source/YiSan/Network/Public/UCustomNetworkSettings.h Pages: 1 -->
<svg width="661pt" height="236pt"
 viewBox="0.00 0.00 660.50 236.00" xmlns="http://www.w3.org/2000/svg" xmlns:xlink="http://www.w3.org/1999/xlink">
<g id="graph0" class="graph" transform="scale(1 1) rotate(0) translate(4 232)">
<title>Source/YiSan/Network/Public/UCustomNetworkSettings.h</title>
<!-- Node1 -->
<g id="Node000001" class="node">
<title>Node1</title>
<g id="a_Node000001"><a xlink:title="UCustomNetworkSettings 선언에 대한 Doxygen 주석을 제공합니다.">
<polygon fill="#999999" stroke="#666666" points="286,-228 99,-228 99,-198 286,-198 286,-228"/>
<text text-anchor="start" x="107" y="-216" font-family="Malgun Gothic" font-size="10.00">Source/YiSan/Network</text>
<text text-anchor="middle" x="192.5" y="-205" font-family="Malgun Gothic" font-size="10.00">/Public/UCustomNetworkSettings.h</text>
</a>
</g>
</g>
<!-- Node2 -->
<g id="Node000002" class="node">
<title>Node2</title>
<g id="a_Node000002"><a xlink:href="UCustomNetworkSettings_8cpp.html" target="_top" xlink:title="UCustomNetworkSettings 구현에 대한 Doxygen 주석을 제공합니다.">
<polygon fill="white" stroke="#666666" points="203,-162 0,-162 0,-132 203,-132 203,-162"/>
<text text-anchor="start" x="8" y="-150" font-family="Malgun Gothic" font-size="10.00">Source/YiSan/Network</text>
<text text-anchor="middle" x="101.5" y="-139" font-family="Malgun Gothic" font-size="10.00">/Private/UCustomNetworkSettings.cpp</text>
</a>
</g>
</g>
<!-- Node1&#45;&gt;Node2 -->
<g id="edge1_Node000001_Node000002" class="edge">
<title>Node1&#45;&gt;Node2</title>
<g id="a_edge1_Node000001_Node000002"><a xlink:title=" ">
<path fill="none" stroke="#63b8ff" d="M164.1,-192.03C150.33,-182.34 134.12,-170.94 121.64,-162.16"/>
<polygon fill="#63b8ff" stroke="#63b8ff" points="162.11,-194.91 172.3,-197.8 166.14,-189.18 162.11,-194.91"/>
</a>
</g>
</g>
<!-- Node3 -->
<g id="Node000003" class="node">
<title>Node3</title>
<g id="a_Node000003"><a xlink:href="NetworkData_8h.html" target="_top" xlink:title="NetworkData 구조체 선언에 대한 Doxygen 주석을 제공합니다.">
<polygon fill="white" stroke="#666666" points="346,-162 221,-162 221,-132 346,-132 346,-162"/>
<text text-anchor="start" x="229" y="-150" font-family="Malgun Gothic" font-size="10.00">Source/YiSan/Network</text>
<text text-anchor="middle" x="283.5" y="-139" font-family="Malgun Gothic" font-size="10.00">/Public/NetworkData.h</text>
</a>
</g>
</g>
<!-- Node1&#45;&gt;Node3 -->
<g id="edge2_Node000001_Node000003" class="edge">
<title>Node1&#45;&gt;Node3</title>
<g id="a_edge2_Node000001_Node000003"><a xlink:title=" ">
<path fill="none" stroke="#63b8ff" d="M220.9,-192.03C234.67,-182.34 250.88,-170.94 263.36,-162.16"/>
<polygon fill="#63b8ff" stroke="#63b8ff" points="218.86,-189.18 212.7,-197.8 222.89,-194.91 218.86,-189.18"/>
</a>
</g>
</g>
<!-- Node4 -->
<g id="Node000004" class="node">
<title>Node4</title>
<g id="a_Node000004"><a xlink:href="ANetworkTesterActor_8cpp.html" target="_top" xlink:title="ANetworkTesterActor 구현에 대한 Doxygen 주석을 제공합니다.">
<polygon fill="white" stroke="#666666" points="450,-30 271,-30 271,0 450,0 450,-30"/>
<text text-anchor="start" x="279" y="-18" font-family="Malgun Gothic" font-size="10.00">Source/YiSan/Network</text>
<text text-anchor="middle" x="360.5" y="-7" font-family="Malgun Gothic" font-size="10.00">/Private/ANetworkTesterActor.cpp</text>
</a>
</g>
</g>
<!-- Node3&#45;&gt;Node4 -->
<g id="edge3_Node000003_Node000004" class="edge">
<title>Node3&#45;&gt;Node4</title>
<g id="a_edge3_Node000003_Node000004"><a xlink:title=" ">
<path fill="none" stroke="#63b8ff" d="M215.21,-129.38C172.6,-118.32 124.68,-104.34 118.5,-96 110.56,-85.29 110.08,-76.34 118.5,-66 137.74,-42.38 210.09,-29.58 270.72,-22.86"/>
<polygon fill="#63b8ff" stroke="#63b8ff" points="214.5,-132.81 225.05,-131.9 216.24,-126.03 214.5,-132.81"/>
</a>
</g>
</g>
<!-- Node5 -->
<g id="Node000005" class="node">
<title>Node5</title>
<g id="a_Node000005"><a xlink:href="NetworkData_8cpp.html" target="_top" xlink:title="NetworkData 구조 구현에 대한 Doxygen 주석을 제공합니다.">
<polygon fill="white" stroke="#666666" points="269.5,-96 127.5,-96 127.5,-66 269.5,-66 269.5,-96"/>
<text text-anchor="start" x="135.5" y="-84" font-family="Malgun Gothic" font-size="10.00">Source/YiSan/Network</text>
<text text-anchor="middle" x="198.5" y="-73" font-family="Malgun Gothic" font-size="10.00">/Private/NetworkData.cpp</text>
</a>
</g>
</g>
<!-- Node3&#45;&gt;Node5 -->
<g id="edge4_Node000003_Node000005" class="edge">
<title>Node3&#45;&gt;Node5</title>
<g id="a_edge4_Node000003_Node000005"><a xlink:title=" ">
<path fill="none" stroke="#63b8ff" d="M256.61,-125.75C243.83,-116.13 228.86,-104.86 217.31,-96.16"/>
<polygon fill="#63b8ff" stroke="#63b8ff" points="254.54,-128.58 264.64,-131.8 258.75,-122.99 254.54,-128.58"/>
</a>
</g>
</g>
<!-- Node6 -->
<g id="Node000006" class="node">
<title>Node6</title>
<g id="a_Node000006"><a xlink:href="ANetworkTesterActor_8h.html" target="_top" xlink:title="ANetworkTesterActor 선언에 대한 Doxygen 주석을 제공합니다.">
<polygon fill="white" stroke="#666666" points="451,-96 288,-96 288,-66 451,-66 451,-96"/>
<text text-anchor="start" x="296" y="-84" font-family="Malgun Gothic" font-size="10.00">Source/YiSan/Network</text>
<text text-anchor="middle" x="369.5" y="-73" font-family="Malgun Gothic" font-size="10.00">/Public/ANetworkTesterActor.h</text>
</a>
</g>
</g>
<!-- Node3&#45;&gt;Node6 -->
<g id="edge5_Node000003_Node000006" class="edge">
<title>Node3&#45;&gt;Node6</title>
<g id="a_edge5_Node000003_Node000006"><a xlink:title=" ">
<path fill="none" stroke="#63b8ff" d="M310.71,-125.75C323.64,-116.13 338.79,-104.86 350.47,-96.16"/>
<polygon fill="#63b8ff" stroke="#63b8ff" points="308.52,-123.02 302.59,-131.8 312.7,-128.63 308.52,-123.02"/>
</a>
</g>
</g>
<!-- Node7 -->
<g id="Node000007" class="node">
<title>Node7</title>
<g id="a_Node000007"><a xlink:href="UHttpNetworkSystem_8h.html" target="_top" xlink:title="UHttpNetworkSystem 선언에 대한 Doxygen 주석을 제공합니다.">
<polygon fill="white" stroke="#666666" points="636,-96 469,-96 469,-66 636,-66 636,-96"/>
<text text-anchor="start" x="477" y="-84" font-family="Malgun Gothic" font-size="10.00">Source/YiSan/Network</text>
<text text-anchor="middle" x="552.5" y="-73" font-family="Malgun Gothic" font-size="10.00">/Public/UHttpNetworkSystem.h</text>
</a>
</g>
</g>
<!-- Node3&#45;&gt;Node7 -->
<g id="edge7_Node000003_Node000007" class="edge">
<title>Node3&#45;&gt;Node7</title>
<g id="a_edge7_Node000003_Node000007"><a xlink:title=" ">
<path fill="none" stroke="#63b8ff" d="M352.5,-129.58C396.17,-119.19 452.03,-105.9 493.6,-96.01"/>
<polygon fill="#63b8ff" stroke="#63b8ff" points="351.45,-126.24 342.53,-131.95 353.07,-133.05 351.45,-126.24"/>
</a>
</g>
</g>
<!-- Node6&#45;&gt;Node4 -->
<g id="edge6_Node000006_Node000004" class="edge">
<title>Node6&#45;&gt;Node4</title>
<g id="a_edge6_Node000006_Node000004"><a xlink:title=" ">
<path fill="none" stroke="#63b8ff" d="M366.1,-55.83C364.88,-47.17 363.55,-37.7 362.49,-30.16"/>
<polygon fill="#63b8ff" stroke="#63b8ff" points="362.64,-56.38 367.5,-65.8 369.58,-55.41 362.64,-56.38"/>
</a>
</g>
</g>
<!-- Node7&#45;&gt;Node4 -->
<g id="edge8_Node000007_Node000004" class="edge">
<title>Node7&#45;&gt;Node4</title>
<g id="a_edge8_Node000007_Node000004"><a xlink:title=" ">
<path fill="none" stroke="#63b8ff" d="M500.67,-62.72C469.91,-52.47 431.4,-39.63 402.54,-30.01"/>
<polygon fill="#63b8ff" stroke="#63b8ff" points="499.77,-66.11 510.36,-65.95 501.98,-59.47 499.77,-66.11"/>
</a>
</g>
</g>
<!-- Node8 -->
<g id="Node000008" class="node">
<title>Node8</title>
<g id="a_Node000008"><a xlink:href="UHttpNetworkSystem_8cpp.html" target="_top" xlink:title="UHttpNetworkSystem 구현에 대한 Doxygen 주석을 제공합니다.">
<polygon fill="white" stroke="#666666" points="652.5,-30 468.5,-30 468.5,0 652.5,0 652.5,-30"/>
<text text-anchor="start" x="476.5" y="-18" font-family="Malgun Gothic" font-size="10.00">Source/YiSan/Network</text>
<text text-anchor="middle" x="560.5" y="-7" font-family="Malgun Gothic" font-size="10.00">/Private/UHttpNetworkSystem.cpp</text>
</a>
</g>
</g>
<!-- Node7&#45;&gt;Node8 -->
<g id="edge9_Node000007_Node000008" class="edge">
<title>Node7&#45;&gt;Node8</title>
<g id="a_edge9_Node000007_Node000008"><a xlink:title=" ">
<path fill="none" stroke="#63b8ff" d="M555.52,-55.83C556.6,-47.17 557.79,-37.7 558.73,-30.16"/>
<polygon fill="#63b8ff" stroke="#63b8ff" points="552.04,-55.44 554.28,-65.8 558.99,-56.31 552.04,-55.44"/>
</a>
</g>
</g>
</g>
</svg>
