<?xml version="1.0" encoding="UTF-8" standalone="no"?>
<!DOCTYPE svg PUBLIC "-//W3C//DTD SVG 1.1//EN"
 "http://www.w3.org/Graphics/SVG/1.1/DTD/svg11.dtd">
<!-- Generated by graphviz version 2.43.0 (0)
 -->
<!-- Title: Source/YiSan/UI/Private/UDialogWidget.cpp Pages: 1 -->
<!--zoomable 203 -->

<svg id="main" version="1.1" xmlns="http://www.w3.org/2000/svg" xmlns:xlink="http://www.w3.org/1999/xlink" xml:space="preserve" onload="init(evt)">
<style type="text/css"><![CDATA[
.node, .edge {opacity: 0.7;}
.node.selected, .edge.selected {opacity: 1;}
.edge:hover path { stroke: red; }
.edge:hover polygon { stroke: red; fill: red; }
]]></style>

<defs>
  <circle id="rim" cx="0" cy="0" r="7"/>
  <circle id="rim2" cx="0" cy="0" r="3.5"/>
  <g id="zoomPlus">
    <use xlink:href="#rim" fill="#404040"><set attributeName="fill" to="#808080" begin="zoomplus.mouseover" end="zoomplus.mouseout"/></use>
    <path d="M-4,0h8M0,-4v8" fill="none" stroke="white" stroke-width="1.5" pointer-events="none"/>
  </g>
  <g id="zoomMin">
    <use xlink:href="#rim" fill="#404040"><set attributeName="fill" to="#808080" begin="zoomminus.mouseover" end="zoomminus.mouseout"/></use>
    <path d="M-4,0h8" fill="none" stroke="white" stroke-width="1.5" pointer-events="none"/>
  </g>
  <g id="arrowUp" transform="translate(30 24)">
    <use xlink:href="#rim"/>
    <path pointer-events="none" fill="none" stroke="white" stroke-width="1.5" d="M0,-3.0v7 M-2.5,-0.5L0,-3.0L2.5,-0.5"/>
  </g>
  <g id="arrowRight" transform="rotate(90) translate(36 -43)">
    <use xlink:href="#rim"/>
    <path pointer-events="none" fill="none" stroke="white" stroke-width="1.5" d="M0,-3.0v7 M-2.5,-0.5L0,-3.0L2.5,-0.5"/>
  </g>
  <g id="arrowDown" transform="rotate(180) translate(-30 -48)">
    <use xlink:href="#rim"/>
    <path pointer-events="none" fill="none" stroke="white" stroke-width="1.5" d="M0,-3.0v7 M-2.5,-0.5L0,-3.0L2.5,-0.5"/>
  </g>
  <g id="arrowLeft" transform="rotate(270) translate(-36 17)">
    <use xlink:href="#rim"/>
    <path pointer-events="none" fill="none" stroke="white" stroke-width="1.5" d="M0,-3.0v7 M-2.5,-0.5L0,-3.0L2.5,-0.5"/>
  </g>
  <g id="resetDef">
    <use xlink:href="#rim2" fill="#404040"><set attributeName="fill" to="#808080" begin="reset.mouseover" end="reset.mouseout"/></use>
  </g>
</defs>
<script type="application/ecmascript">
var viewWidth = 1852;
var viewHeight = 203;
var sectionId = 'dynsection-0';
</script>
<script type="application/ecmascript" xlink:href="svg.min.js"/>
<svg id="graph" class="graph">
<g id="viewport">
<title>Source/YiSan/UI/Private/UDialogWidget.cpp</title>
<!-- Node1 -->
<g id="Node000001" class="node">
<title>Node1</title>
<g id="a_Node000001"><a xlink:title=" ">
<polygon fill="#999999" stroke="#666666" points="1342,-195 1211,-195 1211,-165 1342,-165 1342,-195"/>
<text text-anchor="start" x="1219" y="-183" font-family="Malgun Gothic" font-size="10.00">Source/YiSan/UI/Private</text>
<text text-anchor="middle" x="1276.5" y="-172" font-family="Malgun Gothic" font-size="10.00">/UDialogWidget.cpp</text>
</a>
</g>
</g>
<!-- Node2 -->
<g id="Node000002" class="node">
<title>Node2</title>
<g id="a_Node000002"><a xlink:href="UDialogWidget_8h.html" target="_top" xlink:title=" ">
<polygon fill="white" stroke="#666666" points="1496,-129 1397,-129 1397,-110 1496,-110 1496,-129"/>
<text text-anchor="middle" x="1446.5" y="-117" font-family="Malgun Gothic" font-size="10.00">UDialogWidget.h</text>
</a>
</g>
</g>
<!-- Node1&#45;&gt;Node2 -->
<g id="edge1_Node000001_Node000002" class="edge">
<title>Node1&#45;&gt;Node2</title>
<g id="a_edge1_Node000001_Node000002"><a xlink:title=" ">
<path fill="none" stroke="#63b8ff" d="M1317.22,-164.99C1346.09,-155.05 1384.41,-141.86 1411.83,-132.43"/>
<polygon fill="#63b8ff" stroke="#63b8ff" points="1413.08,-135.7 1421.39,-129.14 1410.8,-129.08 1413.08,-135.7"/>
</a>
</g>
</g>
<!-- Node6 -->
<g id="Node000006" class="node">
<title>Node6</title>
<g id="a_Node000006"><a xlink:href="GameLogging_8h.html" target="_top" xlink:title="GameLogging 선언에 대한 Doxygen 주석을 제공합니다.">
<polygon fill="white" stroke="#666666" points="382,-129 289,-129 289,-110 382,-110 382,-129"/>
<text text-anchor="middle" x="335.5" y="-117" font-family="Malgun Gothic" font-size="10.00">GameLogging.h</text>
</a>
</g>
</g>
<!-- Node1&#45;&gt;Node6 -->
<g id="edge5_Node000001_Node000006" class="edge">
<title>Node1&#45;&gt;Node6</title>
<g id="a_edge5_Node000001_Node000006"><a xlink:title=" ">
<path fill="none" stroke="#63b8ff" d="M1210.7,-174.91C1035.11,-163.99 557.57,-134.31 392.52,-124.04"/>
<polygon fill="#63b8ff" stroke="#63b8ff" points="392.31,-120.52 382.11,-123.4 391.87,-127.51 392.31,-120.52"/>
</a>
</g>
</g>
<!-- Node11 -->
<g id="Node000011" class="node">
<title>Node11</title>
<g id="a_Node000011"><a xlink:href="UBroadcastManger_8h.html" target="_top" xlink:title="UBroadcastManger 선언에 대한 Doxygen 주석을 제공합니다.">
<polygon fill="white" stroke="#666666" points="1272.5,-129 1154.5,-129 1154.5,-110 1272.5,-110 1272.5,-129"/>
<text text-anchor="middle" x="1213.5" y="-117" font-family="Malgun Gothic" font-size="10.00">UBroadcastManger.h</text>
</a>
</g>
</g>
<!-- Node1&#45;&gt;Node11 -->
<g id="edge13_Node000001_Node000011" class="edge">
<title>Node1&#45;&gt;Node11</title>
<g id="a_edge13_Node000001_Node000011"><a xlink:title=" ">
<path fill="none" stroke="#63b8ff" d="M1261.25,-164.84C1251.92,-156.17 1239.97,-145.08 1230.35,-136.15"/>
<polygon fill="#63b8ff" stroke="#63b8ff" points="1232.65,-133.51 1222.94,-129.27 1227.89,-138.64 1232.65,-133.51"/>
</a>
</g>
</g>
<!-- Node16 -->
<g id="Node000016" class="node">
<title>Node16</title>
<g id="a_Node000016"><a xlink:href="UDelayTaskManager_8h.html" target="_top" xlink:title="UDelayTaskManager 선언에 대한 Doxygen 주석을 제공합니다.">
<polygon fill="white" stroke="#666666" points="924,-129 799,-129 799,-110 924,-110 924,-129"/>
<text text-anchor="middle" x="861.5" y="-117" font-family="Malgun Gothic" font-size="10.00">UDelayTaskManager.h</text>
</a>
</g>
</g>
<!-- Node1&#45;&gt;Node16 -->
<g id="edge19_Node000001_Node000016" class="edge">
<title>Node1&#45;&gt;Node16</title>
<g id="a_edge19_Node000001_Node000016"><a xlink:title=" ">
<path fill="none" stroke="#63b8ff" d="M1210.74,-169.73C1134.73,-159.02 1010.12,-141.45 932.11,-130.45"/>
<polygon fill="#63b8ff" stroke="#63b8ff" points="932.28,-126.94 921.89,-129.01 931.31,-133.87 932.28,-126.94"/>
</a>
</g>
</g>
<!-- Node19 -->
<g id="Node000019" class="node">
<title>Node19</title>
<g id="a_Node000019"><a xlink:title=" ">
<polygon fill="#e0e0e0" stroke="#999999" points="1636.5,-129 1514.5,-129 1514.5,-110 1636.5,-110 1636.5,-129"/>
<text text-anchor="middle" x="1575.5" y="-117" font-family="Malgun Gothic" font-size="10.00">Components/Border.h</text>
</a>
</g>
</g>
<!-- Node1&#45;&gt;Node19 -->
<g id="edge25_Node000001_Node000019" class="edge">
<title>Node1&#45;&gt;Node19</title>
<g id="a_edge25_Node000001_Node000019"><a xlink:title=" ">
<path fill="none" stroke="#63b8ff" d="M1342.12,-166.16C1395.99,-155.62 1471.36,-140.88 1521.72,-131.02"/>
<polygon fill="#63b8ff" stroke="#63b8ff" points="1522.61,-134.41 1531.76,-129.06 1521.27,-127.54 1522.61,-134.41"/>
</a>
</g>
</g>
<!-- Node20 -->
<g id="Node000020" class="node">
<title>Node20</title>
<g id="a_Node000020"><a xlink:title=" ">
<polygon fill="#e0e0e0" stroke="#999999" points="1792,-129 1655,-129 1655,-110 1792,-110 1792,-129"/>
<text text-anchor="middle" x="1723.5" y="-117" font-family="Malgun Gothic" font-size="10.00">Components/TextBlock.h</text>
</a>
</g>
</g>
<!-- Node1&#45;&gt;Node20 -->
<g id="edge26_Node000001_Node000020" class="edge">
<title>Node1&#45;&gt;Node20</title>
<g id="a_edge26_Node000001_Node000020"><a xlink:title=" ">
<path fill="none" stroke="#63b8ff" d="M1342.46,-170.37C1424.1,-159.68 1562.81,-141.53 1648.45,-130.32"/>
<polygon fill="#63b8ff" stroke="#63b8ff" points="1648.9,-133.79 1658.36,-129.02 1647.99,-126.85 1648.9,-133.79"/>
</a>
</g>
</g>
<!-- Node3 -->
<g id="Node000003" class="node">
<title>Node3</title>
<g id="a_Node000003"><a xlink:title=" ">
<polygon fill="#e0e0e0" stroke="#999999" points="690.5,-19 602.5,-19 602.5,0 690.5,0 690.5,-19"/>
<text text-anchor="middle" x="646.5" y="-7" font-family="Malgun Gothic" font-size="10.00">CoreMinimal.h</text>
</a>
</g>
</g>
<!-- Node2&#45;&gt;Node3 -->
<g id="edge2_Node000002_Node000003" class="edge">
<title>Node2&#45;&gt;Node3</title>
<g id="a_edge2_Node000002_Node000003"><a xlink:title=" ">
<path fill="none" stroke="#63b8ff" d="M1461.7,-109.88C1482.1,-97.27 1513.89,-73.32 1496.5,-55 1469.06,-26.08 883.82,-14.3 700.74,-11.31"/>
<polygon fill="#63b8ff" stroke="#63b8ff" points="700.6,-7.81 690.54,-11.14 700.48,-14.8 700.6,-7.81"/>
</a>
</g>
</g>
<!-- Node4 -->
<g id="Node000004" class="node">
<title>Node4</title>
<g id="a_Node000004"><a xlink:title=" ">
<polygon fill="#e0e0e0" stroke="#999999" points="1673.5,-74 1543.5,-74 1543.5,-55 1673.5,-55 1673.5,-74"/>
<text text-anchor="middle" x="1608.5" y="-62" font-family="Malgun Gothic" font-size="10.00">Blueprint/UserWidget.h</text>
</a>
</g>
</g>
<!-- Node2&#45;&gt;Node4 -->
<g id="edge3_Node000002_Node000004" class="edge">
<title>Node2&#45;&gt;Node4</title>
<g id="a_edge3_Node000002_Node000004"><a xlink:title=" ">
<path fill="none" stroke="#63b8ff" d="M1472.53,-109.98C1499.61,-101.13 1542.21,-87.19 1572.51,-77.28"/>
<polygon fill="#63b8ff" stroke="#63b8ff" points="1573.85,-80.52 1582.27,-74.08 1571.68,-73.87 1573.85,-80.52"/>
</a>
</g>
</g>
<!-- Node5 -->
<g id="Node000005" class="node">
<title>Node5</title>
<g id="a_Node000005"><a xlink:title=" ">
<polygon fill="#e0e0e0" stroke="#999999" points="1843.5,-74 1691.5,-74 1691.5,-55 1843.5,-55 1843.5,-74"/>
<text text-anchor="middle" x="1767.5" y="-62" font-family="Malgun Gothic" font-size="10.00">UDialogWidget.generated.h</text>
</a>
</g>
</g>
<!-- Node2&#45;&gt;Node5 -->
<g id="edge4_Node000002_Node000005" class="edge">
<title>Node2&#45;&gt;Node5</title>
<g id="a_edge4_Node000002_Node000005"><a xlink:title=" ">
<path fill="none" stroke="#63b8ff" d="M1496.3,-110.28C1552.85,-100.94 1645.15,-85.7 1706.11,-75.64"/>
<polygon fill="#63b8ff" stroke="#63b8ff" points="1706.69,-79.09 1715.98,-74.01 1705.55,-72.18 1706.69,-79.09"/>
</a>
</g>
</g>
<!-- Node6&#45;&gt;Node3 -->
<g id="edge6_Node000006_Node000003" class="edge">
<title>Node6&#45;&gt;Node3</title>
<g id="a_edge6_Node000006_Node000003"><a xlink:title=" ">
<path fill="none" stroke="#63b8ff" d="M356.99,-109.85C378.33,-101.16 411.92,-87.19 440.5,-74 457.65,-66.09 460.84,-61.67 478.5,-55 516.48,-40.65 560.96,-29.09 594.6,-21.35"/>
<polygon fill="#63b8ff" stroke="#63b8ff" points="595.7,-24.69 604.68,-19.07 594.15,-17.86 595.7,-24.69"/>
</a>
</g>
</g>
<!-- Node7 -->
<g id="Node000007" class="node">
<title>Node7</title>
<g id="a_Node000007"><a xlink:title=" ">
<polygon fill="#e0e0e0" stroke="#999999" points="119,-74 0,-74 0,-55 119,-55 119,-74"/>
<text text-anchor="middle" x="59.5" y="-62" font-family="Malgun Gothic" font-size="10.00">Logging/LogMacros.h</text>
</a>
</g>
</g>
<!-- Node6&#45;&gt;Node7 -->
<g id="edge7_Node000006_Node000007" class="edge">
<title>Node6&#45;&gt;Node7</title>
<g id="a_edge7_Node000006_Node000007"><a xlink:title=" ">
<path fill="none" stroke="#63b8ff" d="M291.16,-109.98C243.01,-100.74 166.08,-85.97 114.21,-76.01"/>
<polygon fill="#63b8ff" stroke="#63b8ff" points="114.67,-72.53 104.19,-74.08 113.35,-79.41 114.67,-72.53"/>
</a>
</g>
</g>
<!-- Node8 -->
<g id="Node000008" class="node">
<title>Node8</title>
<g id="a_Node000008"><a xlink:title=" ">
<polygon fill="#e0e0e0" stroke="#999999" points="329,-74 234,-74 234,-55 329,-55 329,-74"/>
<text text-anchor="middle" x="281.5" y="-62" font-family="Malgun Gothic" font-size="10.00">Engine/Engine.h</text>
</a>
</g>
</g>
<!-- Node6&#45;&gt;Node8 -->
<g id="edge8_Node000006_Node000008" class="edge">
<title>Node6&#45;&gt;Node8</title>
<g id="a_edge8_Node000006_Node000008"><a xlink:title=" ">
<path fill="none" stroke="#63b8ff" d="M326.58,-109.75C318.72,-102.03 307.07,-90.6 297.58,-81.28"/>
<polygon fill="#63b8ff" stroke="#63b8ff" points="299.84,-78.6 290.25,-74.09 294.94,-83.59 299.84,-78.6"/>
</a>
</g>
</g>
<!-- Node9 -->
<g id="Node000009" class="node">
<title>Node9</title>
<g id="a_Node000009"><a xlink:href="FLogWriter_8h.html" target="_top" xlink:title="FLogWriter 선언에 대한 Doxygen 주석을 제공합니다.">
<polygon fill="white" stroke="#666666" points="215.5,-74 137.5,-74 137.5,-55 215.5,-55 215.5,-74"/>
<text text-anchor="middle" x="176.5" y="-62" font-family="Malgun Gothic" font-size="10.00">FLogWriter.h</text>
</a>
</g>
</g>
<!-- Node6&#45;&gt;Node9 -->
<g id="edge9_Node000006_Node000009" class="edge">
<title>Node6&#45;&gt;Node9</title>
<g id="a_edge9_Node000006_Node000009"><a xlink:title=" ">
<path fill="none" stroke="#63b8ff" d="M309.95,-109.98C283.38,-101.13 241.56,-87.19 211.83,-77.28"/>
<polygon fill="#63b8ff" stroke="#63b8ff" points="212.84,-73.92 202.25,-74.08 210.63,-80.56 212.84,-73.92"/>
</a>
</g>
</g>
<!-- Node10 -->
<g id="Node000010" class="node">
<title>Node10</title>
<g id="a_Node000010"><a xlink:href="NetworkLog_8h.html" target="_top" xlink:title="NetworkLog 선언에 대한 Doxygen 주석을 제공합니다.">
<polygon fill="white" stroke="#666666" points="431.5,-74 347.5,-74 347.5,-55 431.5,-55 431.5,-74"/>
<text text-anchor="middle" x="389.5" y="-62" font-family="Malgun Gothic" font-size="10.00">NetworkLog.h</text>
</a>
</g>
</g>
<!-- Node6&#45;&gt;Node10 -->
<g id="edge11_Node000006_Node000010" class="edge">
<title>Node6&#45;&gt;Node10</title>
<g id="a_edge11_Node000006_Node000010"><a xlink:title=" ">
<path fill="none" stroke="#63b8ff" d="M344.42,-109.75C352.28,-102.03 363.93,-90.6 373.42,-81.28"/>
<polygon fill="#63b8ff" stroke="#63b8ff" points="376.06,-83.59 380.75,-74.09 371.16,-78.6 376.06,-83.59"/>
</a>
</g>
</g>
<!-- Node9&#45;&gt;Node3 -->
<g id="edge10_Node000009_Node000003" class="edge">
<title>Node9&#45;&gt;Node3</title>
<g id="a_edge10_Node000009_Node000003"><a xlink:title=" ">
<path fill="none" stroke="#63b8ff" d="M215.76,-56.32C218.71,-55.85 221.65,-55.4 224.5,-55 355.92,-36.46 511.37,-21.97 591.94,-15.02"/>
<polygon fill="#63b8ff" stroke="#63b8ff" points="592.66,-18.47 602.33,-14.13 592.07,-11.5 592.66,-18.47"/>
</a>
</g>
</g>
<!-- Node10&#45;&gt;Node3 -->
<g id="edge12_Node000010_Node000003" class="edge">
<title>Node10&#45;&gt;Node3</title>
<g id="a_edge12_Node000010_Node000003"><a xlink:title=" ">
<path fill="none" stroke="#63b8ff" d="M430.79,-54.98C475.43,-45.78 546.66,-31.09 594.95,-21.13"/>
<polygon fill="#63b8ff" stroke="#63b8ff" points="595.8,-24.53 604.88,-19.08 594.38,-17.67 595.8,-24.53"/>
</a>
</g>
</g>
<!-- Node11&#45;&gt;Node3 -->
<g id="edge14_Node000011_Node000003" class="edge">
<title>Node11&#45;&gt;Node3</title>
<g id="a_edge14_Node000011_Node000003"><a xlink:title=" ">
<path fill="none" stroke="#63b8ff" d="M1208.57,-109.61C1200.07,-95.25 1181.15,-67.31 1156.5,-55 1077.75,-15.68 815.57,-10.56 700.94,-10.26"/>
<polygon fill="#63b8ff" stroke="#63b8ff" points="700.65,-6.76 690.64,-10.25 700.64,-13.76 700.65,-6.76"/>
</a>
</g>
</g>
<!-- Node12 -->
<g id="Node000012" class="node">
<title>Node12</title>
<g id="a_Node000012"><a xlink:href="Macro_8h.html" target="_top" xlink:title="Manager 모듈에서 공통으로 사용하는 매크로 정의에 대한 Doxygen 주석을 제공합니다.">
<polygon fill="white" stroke="#666666" points="917.5,-74 861.5,-74 861.5,-55 917.5,-55 917.5,-74"/>
<text text-anchor="middle" x="889.5" y="-62" font-family="Malgun Gothic" font-size="10.00">Macro.h</text>
</a>
</g>
</g>
<!-- Node11&#45;&gt;Node12 -->
<g id="edge15_Node000011_Node000012" class="edge">
<title>Node11&#45;&gt;Node12</title>
<g id="a_edge15_Node000011_Node000012"><a xlink:title=" ">
<path fill="none" stroke="#63b8ff" d="M1154.47,-110.61C1098.51,-102.85 1011.89,-90.1 927.72,-74.12"/>
<polygon fill="#63b8ff" stroke="#63b8ff" points="928.22,-70.65 917.74,-72.21 926.9,-77.53 928.22,-70.65"/>
</a>
</g>
</g>
<!-- Node13 -->
<g id="Node000013" class="node">
<title>Node13</title>
<g id="a_Node000013"><a xlink:href="EDamageType_8h.html" target="_top" xlink:title="EDamageType 열거형에 대한 Doxygen 주석을 제공합니다.">
<polygon fill="white" stroke="#666666" points="1299,-74 1204,-74 1204,-55 1299,-55 1299,-74"/>
<text text-anchor="middle" x="1251.5" y="-62" font-family="Malgun Gothic" font-size="10.00">EDamageType.h</text>
</a>
</g>
</g>
<!-- Node11&#45;&gt;Node13 -->
<g id="edge16_Node000011_Node000013" class="edge">
<title>Node11&#45;&gt;Node13</title>
<g id="a_edge16_Node000011_Node000013"><a xlink:title=" ">
<path fill="none" stroke="#63b8ff" d="M1219.77,-109.75C1225.09,-102.34 1232.86,-91.5 1239.38,-82.41"/>
<polygon fill="#63b8ff" stroke="#63b8ff" points="1242.36,-84.26 1245.34,-74.09 1236.67,-80.18 1242.36,-84.26"/>
</a>
</g>
</g>
<!-- Node14 -->
<g id="Node000014" class="node">
<title>Node14</title>
<g id="a_Node000014"><a xlink:title=" ">
<polygon fill="#e0e0e0" stroke="#999999" points="1147.5,-74 935.5,-74 935.5,-55 1147.5,-55 1147.5,-74"/>
<text text-anchor="middle" x="1041.5" y="-62" font-family="Malgun Gothic" font-size="10.00">Subsystems/GameInstanceSubsystem.h</text>
</a>
</g>
</g>
<!-- Node11&#45;&gt;Node14 -->
<g id="edge17_Node000011_Node000014" class="edge">
<title>Node11&#45;&gt;Node14</title>
<g id="a_edge17_Node000011_Node000014"><a xlink:title=" ">
<path fill="none" stroke="#63b8ff" d="M1185.87,-109.98C1156.99,-101.09 1111.49,-87.07 1079.3,-77.15"/>
<polygon fill="#63b8ff" stroke="#63b8ff" points="1079.94,-73.68 1069.35,-74.08 1077.88,-80.37 1079.94,-73.68"/>
</a>
</g>
</g>
<!-- Node15 -->
<g id="Node000015" class="node">
<title>Node15</title>
<g id="a_Node000015"><a xlink:title=" ">
<polygon fill="#e0e0e0" stroke="#999999" points="1487.5,-74 1317.5,-74 1317.5,-55 1487.5,-55 1487.5,-74"/>
<text text-anchor="middle" x="1402.5" y="-62" font-family="Malgun Gothic" font-size="10.00">UBroadcastManger.generated.h</text>
</a>
</g>
</g>
<!-- Node11&#45;&gt;Node15 -->
<g id="edge18_Node000011_Node000015" class="edge">
<title>Node11&#45;&gt;Node15</title>
<g id="a_edge18_Node000011_Node000015"><a xlink:title=" ">
<path fill="none" stroke="#63b8ff" d="M1243.87,-109.98C1275.87,-101.01 1326.46,-86.82 1361.88,-76.89"/>
<polygon fill="#63b8ff" stroke="#63b8ff" points="1363.21,-80.15 1371.9,-74.08 1361.32,-73.41 1363.21,-80.15"/>
</a>
</g>
</g>
<!-- Node16&#45;&gt;Node3 -->
<g id="edge20_Node000016_Node000003" class="edge">
<title>Node16&#45;&gt;Node3</title>
<g id="a_edge20_Node000016_Node000003"><a xlink:title=" ">
<path fill="none" stroke="#63b8ff" d="M857.39,-109.62C850.53,-95.78 835.38,-69.17 814.5,-55 780.64,-32.02 735.51,-20.9 700.55,-15.52"/>
<polygon fill="#63b8ff" stroke="#63b8ff" points="700.91,-12.04 690.52,-14.09 699.92,-18.97 700.91,-12.04"/>
</a>
</g>
</g>
<!-- Node16&#45;&gt;Node12 -->
<g id="edge21_Node000016_Node000012" class="edge">
<title>Node16&#45;&gt;Node12</title>
<g id="a_edge21_Node000016_Node000012"><a xlink:title=" ">
<path fill="none" stroke="#63b8ff" d="M866.12,-109.75C869.96,-102.49 875.52,-91.95 880.26,-82.98"/>
<polygon fill="#63b8ff" stroke="#63b8ff" points="883.39,-84.57 884.96,-74.09 877.2,-81.3 883.39,-84.57"/>
</a>
</g>
</g>
<!-- Node16&#45;&gt;Node14 -->
<g id="edge22_Node000016_Node000014" class="edge">
<title>Node16&#45;&gt;Node14</title>
<g id="a_edge22_Node000016_Node000014"><a xlink:title=" ">
<path fill="none" stroke="#63b8ff" d="M890.42,-109.98C920.77,-101.05 968.67,-86.94 1002.38,-77.02"/>
<polygon fill="#63b8ff" stroke="#63b8ff" points="1003.75,-80.26 1012.35,-74.08 1001.77,-73.55 1003.75,-80.26"/>
</a>
</g>
</g>
<!-- Node17 -->
<g id="Node000017" class="node">
<title>Node17</title>
<g id="a_Node000017"><a xlink:title=" ">
<polygon fill="#e0e0e0" stroke="#999999" points="609.5,-74 487.5,-74 487.5,-55 609.5,-55 609.5,-74"/>
<text text-anchor="middle" x="548.5" y="-62" font-family="Malgun Gothic" font-size="10.00">Delegates/Delegate.h</text>
</a>
</g>
</g>
<!-- Node16&#45;&gt;Node17 -->
<g id="edge23_Node000016_Node000017" class="edge">
<title>Node16&#45;&gt;Node17</title>
<g id="a_edge23_Node000016_Node000017"><a xlink:title=" ">
<path fill="none" stroke="#63b8ff" d="M811.21,-109.98C756.08,-100.65 667.65,-85.67 608.82,-75.71"/>
<polygon fill="#63b8ff" stroke="#63b8ff" points="609.37,-72.26 598.92,-74.04 608.2,-79.16 609.37,-72.26"/>
</a>
</g>
</g>
<!-- Node18 -->
<g id="Node000018" class="node">
<title>Node18</title>
<g id="a_Node000018"><a xlink:title=" ">
<polygon fill="#e0e0e0" stroke="#999999" points="805.5,-74 627.5,-74 627.5,-55 805.5,-55 805.5,-74"/>
<text text-anchor="middle" x="716.5" y="-62" font-family="Malgun Gothic" font-size="10.00">UDelayTaskManager.generated.h</text>
</a>
</g>
</g>
<!-- Node16&#45;&gt;Node18 -->
<g id="edge24_Node000016_Node000018" class="edge">
<title>Node16&#45;&gt;Node18</title>
<g id="a_edge24_Node000016_Node000018"><a xlink:title=" ">
<path fill="none" stroke="#63b8ff" d="M838.2,-109.98C814.25,-101.23 776.72,-87.51 749.67,-77.62"/>
<polygon fill="#63b8ff" stroke="#63b8ff" points="750.81,-74.32 740.22,-74.17 748.41,-80.89 750.81,-74.32"/>
</a>
</g>
</g>
</g>
</svg>

<g id="navigator" transform="translate(0 0)" fill="#404254">
  <rect fill="#f2f5e9" fill-opacity="0.5" stroke="#606060" stroke-width=".5" x="0" y="0" width="60" height="60"/>
  <use id="zoomplus" xlink:href="#zoomPlus" x="17" y="9" onmousedown="handleZoom(evt,'in')"/>
  <use id="zoomminus" xlink:href="#zoomMin" x="42" y="9" onmousedown="handleZoom(evt,'out')"/>
  <use id="reset" xlink:href="#resetDef" x="30" y="36" onmousedown="handleReset()"/>
   <use id="arrowup" xlink:href="#arrowUp" x="0" y="0" onmousedown="handlePan(0,-1)"/>
  <use id="arrowright" xlink:href="#arrowRight" x="0" y="0" onmousedown="handlePan(1,0)"/>
  <use id="arrowdown" xlink:href="#arrowDown" x="0" y="0" onmousedown="handlePan(0,1)"/>
  <use id="arrowleft" xlink:href="#arrowLeft" x="0" y="0" onmousedown="handlePan(-1,0)"/>
</g>
<svg viewBox="0 0 15 15" width="100%" height="30px" preserveAspectRatio="xMaxYMin meet">
 <g id="arrow_out" transform="scale(0.3 0.3)">
  <a xlink:href="UDialogWidget_8cpp__incl_org.svg" target="_base">
   <rect id="button" ry="5" rx="5" y="6" x="6" height="38" width="38"
        fill="#f2f5e9" fill-opacity="0.5" stroke="#606060" stroke-width="1.0"/>
   <path id="arrow"
     d="M 11.500037,31.436501 C 11.940474,20.09759 22.043105,11.32322 32.158766,21.979434 L 37.068811,17.246167 C 37.068811,17.246167 37.088388,32 37.088388,32 L 22.160133,31.978069 C 22.160133,31.978069 26.997745,27.140456 26.997745,27.140456 C 18.528582,18.264221 13.291696,25.230495 11.500037,31.436501 z"
     style="fill:#404040;"/>
  </a>
 </g>
</svg>

<style type='text/css'>
<![CDATA[
[data-mouse-over-selected='false'] { opacity: 0.7; }
[data-mouse-over-selected='true']  { opacity: 1.0; }
]]>
</style>
<script type="application/ecmascript"><![CDATA[
document.addEventListener('DOMContentLoaded', (event) => {
  highlightEdges();
  highlightAdjacentNodes();
});
]]></script>
</svg>
