<?xml version="1.0" encoding="UTF-8" standalone="no"?>
<!DOCTYPE svg PUBLIC "-//W3C//DTD SVG 1.1//EN"
 "http://www.w3.org/Graphics/SVG/1.1/DTD/svg11.dtd">
<!-- Generated by graphviz version 2.43.0 (0)
 -->
<!-- Title: Source/LatteLibrary/Character/Private/UFlySystem.cpp Pages: 1 -->
<svg width="1382pt" height="214pt"
 viewBox="0.00 0.00 1382.00 214.00" xmlns="http://www.w3.org/2000/svg" xmlns:xlink="http://www.w3.org/1999/xlink">
<g id="graph0" class="graph" transform="scale(1 1) rotate(0) translate(4 210)">
<title>Source/LatteLibrary/Character/Private/UFlySystem.cpp</title>
<!-- Node1 -->
<g id="Node000001" class="node">
<title>Node1</title>
<g id="a_Node000001"><a xlink:title="UFlySystem 구현에 대한 Doxygen 주석을 제공합니다.">
<polygon fill="#999999" stroke="#666666" points="937,-206 750,-206 750,-176 937,-176 937,-206"/>
<text text-anchor="start" x="758" y="-194" font-family="Malgun Gothic" font-size="10.00">Source/LatteLibrary</text>
<text text-anchor="middle" x="843.5" y="-183" font-family="Malgun Gothic" font-size="10.00">/Character/Private/UFlySystem.cpp</text>
</a>
</g>
</g>
<!-- Node2 -->
<g id="Node000002" class="node">
<title>Node2</title>
<g id="a_Node000002"><a xlink:href="UFlySystem_8h.html" target="_top" xlink:title="UFlySystem 선언에 대한 Doxygen 주석을 제공합니다.">
<polygon fill="white" stroke="#666666" points="111,-74 26,-74 26,-55 111,-55 111,-74"/>
<text text-anchor="middle" x="68.5" y="-62" font-family="Malgun Gothic" font-size="10.00">UFlySystem.h</text>
</a>
</g>
</g>
<!-- Node1&#45;&gt;Node2 -->
<g id="edge1_Node000001_Node000002" class="edge">
<title>Node1&#45;&gt;Node2</title>
<g id="a_edge1_Node000001_Node000002"><a xlink:title=" ">
<path fill="none" stroke="#63b8ff" d="M749.81,-178.42C675.55,-168.96 569.21,-154.77 476.5,-140 348.56,-119.61 198.92,-91.08 121.29,-75.93"/>
<polygon fill="#63b8ff" stroke="#63b8ff" points="121.76,-72.45 111.27,-73.97 120.41,-79.32 121.76,-72.45"/>
</a>
</g>
</g>
<!-- Node6 -->
<g id="Node000006" class="node">
<title>Node6</title>
<g id="a_Node000006"><a xlink:href="ALatteGameCharacter_8h.html" target="_top" xlink:title=" ">
<polygon fill="white" stroke="#666666" points="619,-134.5 486,-134.5 486,-115.5 619,-115.5 619,-134.5"/>
<text text-anchor="middle" x="552.5" y="-122.5" font-family="Malgun Gothic" font-size="10.00">ALatteGameCharacter.h</text>
</a>
</g>
</g>
<!-- Node1&#45;&gt;Node6 -->
<g id="edge5_Node000001_Node000006" class="edge">
<title>Node1&#45;&gt;Node6</title>
<g id="a_edge5_Node000001_Node000006"><a xlink:title=" ">
<path fill="none" stroke="#63b8ff" d="M779.64,-175.95C725.91,-164.14 650.21,-147.49 601.25,-136.72"/>
<polygon fill="#63b8ff" stroke="#63b8ff" points="601.75,-133.25 591.23,-134.52 600.24,-140.08 601.75,-133.25"/>
</a>
</g>
</g>
<!-- Node13 -->
<g id="Node000013" class="node">
<title>Node13</title>
<g id="a_Node000013"><a xlink:href="FEaseHelper_8h.html" target="_top" xlink:title="FEaseHelper 선언에 대한 Doxygen 주석을 제공합니다.">
<polygon fill="white" stroke="#666666" points="949.5,-134.5 863.5,-134.5 863.5,-115.5 949.5,-115.5 949.5,-134.5"/>
<text text-anchor="middle" x="906.5" y="-122.5" font-family="Malgun Gothic" font-size="10.00">FEaseHelper.h</text>
</a>
</g>
</g>
<!-- Node1&#45;&gt;Node13 -->
<g id="edge16_Node000001_Node000013" class="edge">
<title>Node1&#45;&gt;Node13</title>
<g id="a_edge16_Node000001_Node000013"><a xlink:title=" ">
<path fill="none" stroke="#63b8ff" d="M857.48,-175.8C867.3,-165.82 880.46,-152.46 890.67,-142.09"/>
<polygon fill="#63b8ff" stroke="#63b8ff" points="893.27,-144.43 897.79,-134.84 888.28,-139.52 893.27,-144.43"/>
</a>
</g>
</g>
<!-- Node14 -->
<g id="Node000014" class="node">
<title>Node14</title>
<g id="a_Node000014"><a xlink:title=" ">
<polygon fill="#e0e0e0" stroke="#999999" points="1153,-134.5 968,-134.5 968,-115.5 1153,-115.5 1153,-134.5"/>
<text text-anchor="middle" x="1060.5" y="-122.5" font-family="Malgun Gothic" font-size="10.00">Components/CapsuleComponent.h</text>
</a>
</g>
</g>
<!-- Node1&#45;&gt;Node14 -->
<g id="edge17_Node000001_Node000014" class="edge">
<title>Node1&#45;&gt;Node14</title>
<g id="a_edge17_Node000001_Node000014"><a xlink:title=" ">
<path fill="none" stroke="#63b8ff" d="M891.12,-175.95C930.35,-164.38 985.28,-148.18 1021.83,-137.41"/>
<polygon fill="#63b8ff" stroke="#63b8ff" points="1023.02,-140.7 1031.62,-134.52 1021.04,-133.99 1023.02,-140.7"/>
</a>
</g>
</g>
<!-- Node15 -->
<g id="Node000015" class="node">
<title>Node15</title>
<g id="a_Node000015"><a xlink:href="UEaseFunctionLibrary_8h.html" target="_top" xlink:title="UEaseFunctionLibrary 선언에 대한 Doxygen 주석을 제공합니다.">
<polygon fill="white" stroke="#666666" points="845.5,-134.5 715.5,-134.5 715.5,-115.5 845.5,-115.5 845.5,-134.5"/>
<text text-anchor="middle" x="780.5" y="-122.5" font-family="Malgun Gothic" font-size="10.00">UEaseFunctionLibrary.h</text>
</a>
</g>
</g>
<!-- Node1&#45;&gt;Node15 -->
<g id="edge18_Node000001_Node000015" class="edge">
<title>Node1&#45;&gt;Node15</title>
<g id="a_edge18_Node000001_Node000015"><a xlink:title=" ">
<path fill="none" stroke="#63b8ff" d="M829.52,-175.8C819.7,-165.82 806.54,-152.46 796.33,-142.09"/>
<polygon fill="#63b8ff" stroke="#63b8ff" points="798.72,-139.52 789.21,-134.84 793.73,-144.43 798.72,-139.52"/>
</a>
</g>
</g>
<!-- Node18 -->
<g id="Node000018" class="node">
<title>Node18</title>
<g id="a_Node000018"><a xlink:title=" ">
<polygon fill="#e0e0e0" stroke="#999999" points="1374,-140 1171,-140 1171,-110 1374,-110 1374,-140"/>
<text text-anchor="start" x="1179" y="-128" font-family="Malgun Gothic" font-size="10.00">GameFramework/CharacterMovement</text>
<text text-anchor="middle" x="1272.5" y="-117" font-family="Malgun Gothic" font-size="10.00">Component.h</text>
</a>
</g>
</g>
<!-- Node1&#45;&gt;Node18 -->
<g id="edge22_Node000001_Node000018" class="edge">
<title>Node1&#45;&gt;Node18</title>
<g id="a_edge22_Node000001_Node000018"><a xlink:title=" ">
<path fill="none" stroke="#63b8ff" d="M937.12,-176.03C1005.26,-165.87 1097.57,-152.1 1168.1,-141.57"/>
<polygon fill="#63b8ff" stroke="#63b8ff" points="1168.97,-144.98 1178.34,-140.05 1167.94,-138.06 1168.97,-144.98"/>
</a>
</g>
</g>
<!-- Node3 -->
<g id="Node000003" class="node">
<title>Node3</title>
<g id="a_Node000003"><a xlink:title=" ">
<polygon fill="#e0e0e0" stroke="#999999" points="550.5,-19 462.5,-19 462.5,0 550.5,0 550.5,-19"/>
<text text-anchor="middle" x="506.5" y="-7" font-family="Malgun Gothic" font-size="10.00">CoreMinimal.h</text>
</a>
</g>
</g>
<!-- Node2&#45;&gt;Node3 -->
<g id="edge2_Node000002_Node000003" class="edge">
<title>Node2&#45;&gt;Node3</title>
<g id="a_edge2_Node000002_Node000003"><a xlink:title=" ">
<path fill="none" stroke="#63b8ff" d="M111.12,-56.99C115.97,-56.3 120.84,-55.62 125.5,-55 241.83,-39.54 378.53,-24.28 452.44,-16.27"/>
<polygon fill="#63b8ff" stroke="#63b8ff" points="452.88,-19.74 462.44,-15.19 452.12,-12.78 452.88,-19.74"/>
</a>
</g>
</g>
<!-- Node4 -->
<g id="Node000004" class="node">
<title>Node4</title>
<g id="a_Node000004"><a xlink:title=" ">
<polygon fill="#e0e0e0" stroke="#999999" points="366.5,-19 194.5,-19 194.5,0 366.5,0 366.5,-19"/>
<text text-anchor="middle" x="280.5" y="-7" font-family="Malgun Gothic" font-size="10.00">Components/ActorComponent.h</text>
</a>
</g>
</g>
<!-- Node2&#45;&gt;Node4 -->
<g id="edge3_Node000002_Node000004" class="edge">
<title>Node2&#45;&gt;Node4</title>
<g id="a_edge3_Node000002_Node000004"><a xlink:title=" ">
<path fill="none" stroke="#63b8ff" d="M102.56,-54.98C138.92,-45.89 196.67,-31.46 236.47,-21.51"/>
<polygon fill="#63b8ff" stroke="#63b8ff" points="237.32,-24.9 246.17,-19.08 235.62,-18.11 237.32,-24.9"/>
</a>
</g>
</g>
<!-- Node5 -->
<g id="Node000005" class="node">
<title>Node5</title>
<g id="a_Node000005"><a xlink:title=" ">
<polygon fill="#e0e0e0" stroke="#999999" points="137,-19 0,-19 0,0 137,0 137,-19"/>
<text text-anchor="middle" x="68.5" y="-7" font-family="Malgun Gothic" font-size="10.00">UFlySystem.generated.h</text>
</a>
</g>
</g>
<!-- Node2&#45;&gt;Node5 -->
<g id="edge4_Node000002_Node000005" class="edge">
<title>Node2&#45;&gt;Node5</title>
<g id="a_edge4_Node000002_Node000005"><a xlink:title=" ">
<path fill="none" stroke="#63b8ff" d="M68.5,-54.75C68.5,-47.8 68.5,-37.85 68.5,-29.13"/>
<polygon fill="#63b8ff" stroke="#63b8ff" points="72,-29.09 68.5,-19.09 65,-29.09 72,-29.09"/>
</a>
</g>
</g>
<!-- Node6&#45;&gt;Node3 -->
<g id="edge6_Node000006_Node000003" class="edge">
<title>Node6&#45;&gt;Node3</title>
<g id="a_edge6_Node000006_Node000003"><a xlink:title=" ">
<path fill="none" stroke="#63b8ff" d="M485.68,-120.29C378.71,-113.66 178.81,-98.18 157.5,-74 151.92,-67.67 151.92,-61.34 157.5,-55 167.14,-44.05 356.74,-24.66 452.35,-15.53"/>
<polygon fill="#63b8ff" stroke="#63b8ff" points="452.79,-19 462.41,-14.57 452.13,-12.03 452.79,-19"/>
</a>
</g>
</g>
<!-- Node7 -->
<g id="Node000007" class="node">
<title>Node7</title>
<g id="a_Node000007"><a xlink:title=" ">
<polygon fill="#e0e0e0" stroke="#999999" points="326,-74 167,-74 167,-55 326,-55 326,-74"/>
<text text-anchor="middle" x="246.5" y="-62" font-family="Malgun Gothic" font-size="10.00">GameFramework/Character.h</text>
</a>
</g>
</g>
<!-- Node6&#45;&gt;Node7 -->
<g id="edge7_Node000006_Node000007" class="edge">
<title>Node6&#45;&gt;Node7</title>
<g id="a_edge7_Node000006_Node000007"><a xlink:title=" ">
<path fill="none" stroke="#63b8ff" d="M508,-115.49C453.16,-105.01 360,-87.2 300.94,-75.91"/>
<polygon fill="#63b8ff" stroke="#63b8ff" points="301.53,-72.46 291.05,-74.02 300.21,-79.33 301.53,-72.46"/>
</a>
</g>
</g>
<!-- Node8 -->
<g id="Node000008" class="node">
<title>Node8</title>
<g id="a_Node000008"><a xlink:href="EBodyPartType_8h.html" target="_top" xlink:title="EBodyPartType 열거형에 대한 Doxygen 주석을 제공합니다.">
<polygon fill="white" stroke="#666666" points="441.5,-74 343.5,-74 343.5,-55 441.5,-55 441.5,-74"/>
<text text-anchor="middle" x="392.5" y="-62" font-family="Malgun Gothic" font-size="10.00">EBodyPartType.h</text>
</a>
</g>
</g>
<!-- Node6&#45;&gt;Node8 -->
<g id="edge8_Node000006_Node000008" class="edge">
<title>Node6&#45;&gt;Node8</title>
<g id="a_edge8_Node000006_Node000008"><a xlink:title=" ">
<path fill="none" stroke="#63b8ff" d="M529.23,-115.49C501.86,-105.49 456.23,-88.8 425.28,-77.49"/>
<polygon fill="#63b8ff" stroke="#63b8ff" points="426.39,-74.16 415.79,-74.02 423.98,-80.74 426.39,-74.16"/>
</a>
</g>
</g>
<!-- Node9 -->
<g id="Node000009" class="node">
<title>Node9</title>
<g id="a_Node000009"><a xlink:href="ECharacterType_8h.html" target="_top" xlink:title="ECharacterType 열거형에 대한 Doxygen 주석을 제공합니다.">
<polygon fill="white" stroke="#666666" points="869,-19 768,-19 768,0 869,0 869,-19"/>
<text text-anchor="middle" x="818.5" y="-7" font-family="Malgun Gothic" font-size="10.00">ECharacterType.h</text>
</a>
</g>
</g>
<!-- Node6&#45;&gt;Node9 -->
<g id="edge9_Node000006_Node000009" class="edge">
<title>Node6&#45;&gt;Node9</title>
<g id="a_edge9_Node000006_Node000009"><a xlink:title=" ">
<path fill="none" stroke="#63b8ff" d="M619.04,-118.13C661.84,-112 717.32,-99.49 760.5,-74 779.91,-62.54 796.59,-42.52 807.02,-28.02"/>
<polygon fill="#63b8ff" stroke="#63b8ff" points="810.14,-29.65 812.93,-19.43 804.38,-25.68 810.14,-29.65"/>
</a>
</g>
</g>
<!-- Node10 -->
<g id="Node000010" class="node">
<title>Node10</title>
<g id="a_Node000010"><a xlink:href="UStatSystem_8h.html" target="_top" xlink:title="UStatSystem 선언에 대한 Doxygen 주석을 제공합니다.">
<polygon fill="white" stroke="#666666" points="752,-74 663,-74 663,-55 752,-55 752,-74"/>
<text text-anchor="middle" x="707.5" y="-62" font-family="Malgun Gothic" font-size="10.00">UStatSystem.h</text>
</a>
</g>
</g>
<!-- Node6&#45;&gt;Node10 -->
<g id="edge10_Node000006_Node000010" class="edge">
<title>Node6&#45;&gt;Node10</title>
<g id="a_edge10_Node000006_Node000010"><a xlink:title=" ">
<path fill="none" stroke="#63b8ff" d="M575.04,-115.49C601.44,-105.53 645.38,-88.95 675.35,-77.63"/>
<polygon fill="#63b8ff" stroke="#63b8ff" points="676.81,-80.82 684.93,-74.02 674.34,-74.27 676.81,-80.82"/>
</a>
</g>
</g>
<!-- Node12 -->
<g id="Node000012" class="node">
<title>Node12</title>
<g id="a_Node000012"><a xlink:title=" ">
<polygon fill="#e0e0e0" stroke="#999999" points="645,-74 460,-74 460,-55 645,-55 645,-74"/>
<text text-anchor="middle" x="552.5" y="-62" font-family="Malgun Gothic" font-size="10.00">ALatteGameCharacter.generated.h</text>
</a>
</g>
</g>
<!-- Node6&#45;&gt;Node12 -->
<g id="edge15_Node000006_Node000012" class="edge">
<title>Node6&#45;&gt;Node12</title>
<g id="a_edge15_Node000006_Node000012"><a xlink:title=" ">
<path fill="none" stroke="#63b8ff" d="M552.5,-115.37C552.5,-107.25 552.5,-94.81 552.5,-84.39"/>
<polygon fill="#63b8ff" stroke="#63b8ff" points="556,-84.17 552.5,-74.17 549,-84.17 556,-84.17"/>
</a>
</g>
</g>
<!-- Node10&#45;&gt;Node3 -->
<g id="edge11_Node000010_Node000003" class="edge">
<title>Node10&#45;&gt;Node3</title>
<g id="a_edge11_Node000010_Node000003"><a xlink:title=" ">
<path fill="none" stroke="#63b8ff" d="M675.21,-54.98C640.88,-45.93 586.44,-31.58 548.73,-21.64"/>
<polygon fill="#63b8ff" stroke="#63b8ff" points="549.61,-18.25 539.05,-19.08 547.82,-25.02 549.61,-18.25"/>
</a>
</g>
</g>
<!-- Node10&#45;&gt;Node4 -->
<g id="edge13_Node000010_Node000004" class="edge">
<title>Node10&#45;&gt;Node4</title>
<g id="a_edge13_Node000010_Node000004"><a xlink:title=" ">
<path fill="none" stroke="#63b8ff" d="M662.73,-56.32C659.61,-55.86 656.51,-55.42 653.5,-55 556.43,-41.58 444.82,-28.58 369.17,-20.13"/>
<polygon fill="#63b8ff" stroke="#63b8ff" points="369.53,-16.65 359.2,-19.02 368.75,-23.61 369.53,-16.65"/>
</a>
</g>
</g>
<!-- Node10&#45;&gt;Node9 -->
<g id="edge12_Node000010_Node000009" class="edge">
<title>Node10&#45;&gt;Node9</title>
<g id="a_edge12_Node000010_Node000009"><a xlink:title=" ">
<path fill="none" stroke="#63b8ff" d="M725.33,-54.98C743.11,-46.5 770.65,-33.35 791.18,-23.54"/>
<polygon fill="#63b8ff" stroke="#63b8ff" points="792.83,-26.64 800.34,-19.17 789.81,-20.32 792.83,-26.64"/>
</a>
</g>
</g>
<!-- Node11 -->
<g id="Node000011" class="node">
<title>Node11</title>
<g id="a_Node000011"><a xlink:title=" ">
<polygon fill="#e0e0e0" stroke="#999999" points="749.5,-19 607.5,-19 607.5,0 749.5,0 749.5,-19"/>
<text text-anchor="middle" x="678.5" y="-7" font-family="Malgun Gothic" font-size="10.00">UStatSystem.generated.h</text>
</a>
</g>
</g>
<!-- Node10&#45;&gt;Node11 -->
<g id="edge14_Node000010_Node000011" class="edge">
<title>Node10&#45;&gt;Node11</title>
<g id="a_edge14_Node000010_Node000011"><a xlink:title=" ">
<path fill="none" stroke="#63b8ff" d="M702.71,-54.75C698.74,-47.49 692.97,-36.95 688.07,-27.98"/>
<polygon fill="#63b8ff" stroke="#63b8ff" points="691.07,-26.18 683.2,-19.09 684.93,-29.54 691.07,-26.18"/>
</a>
</g>
</g>
<!-- Node15&#45;&gt;Node3 -->
<g id="edge19_Node000015_Node000003" class="edge">
<title>Node15&#45;&gt;Node3</title>
<g id="a_edge19_Node000015_Node000003"><a xlink:title=" ">
<path fill="none" stroke="#63b8ff" d="M780.71,-115.29C780.56,-100.53 777.96,-70.66 760.5,-55 745.81,-41.82 630.85,-25.69 560.72,-16.92"/>
<polygon fill="#63b8ff" stroke="#63b8ff" points="561.07,-13.44 550.72,-15.68 560.21,-20.38 561.07,-13.44"/>
</a>
</g>
</g>
<!-- Node16 -->
<g id="Node000016" class="node">
<title>Node16</title>
<g id="a_Node000016"><a xlink:title=" ">
<polygon fill="#e0e0e0" stroke="#999999" points="1146,-74 1047,-74 1047,-55 1146,-55 1146,-74"/>
<text text-anchor="middle" x="1096.5" y="-62" font-family="Malgun Gothic" font-size="10.00">UObject/Object.h</text>
</a>
</g>
</g>
<!-- Node15&#45;&gt;Node16 -->
<g id="edge20_Node000015_Node000016" class="edge">
<title>Node15&#45;&gt;Node16</title>
<g id="a_edge20_Node000015_Node000016"><a xlink:title=" ">
<path fill="none" stroke="#63b8ff" d="M825.5,-115.45C835.07,-113.64 845.12,-111.75 854.5,-110 917.82,-98.19 990.5,-84.85 1039.55,-75.89"/>
<polygon fill="#63b8ff" stroke="#63b8ff" points="1040.43,-79.28 1049.64,-74.04 1039.18,-72.4 1040.43,-79.28"/>
</a>
</g>
</g>
<!-- Node17 -->
<g id="Node000017" class="node">
<title>Node17</title>
<g id="a_Node000017"><a xlink:title=" ">
<polygon fill="#e0e0e0" stroke="#999999" points="1028.5,-74 846.5,-74 846.5,-55 1028.5,-55 1028.5,-74"/>
<text text-anchor="middle" x="937.5" y="-62" font-family="Malgun Gothic" font-size="10.00">UEaseFunctionLibrary.generated.h</text>
</a>
</g>
</g>
<!-- Node15&#45;&gt;Node17 -->
<g id="edge21_Node000015_Node000017" class="edge">
<title>Node15&#45;&gt;Node17</title>
<g id="a_edge21_Node000015_Node000017"><a xlink:title=" ">
<path fill="none" stroke="#63b8ff" d="M803.33,-115.49C830.07,-105.53 874.58,-88.95 904.94,-77.63"/>
<polygon fill="#63b8ff" stroke="#63b8ff" points="906.49,-80.79 914.64,-74.02 904.05,-74.23 906.49,-80.79"/>
</a>
</g>
</g>
</g>
</svg>
