<?xml version="1.0" encoding="UTF-8" standalone="no"?>
<!DOCTYPE svg PUBLIC "-//W3C//DTD SVG 1.1//EN"
 "http://www.w3.org/Graphics/SVG/1.1/DTD/svg11.dtd">
<!-- Generated by graphviz version 2.43.0 (0)
 -->
<!-- Title: Source/LatteLibrary/Character/Private/UFlySystem.cpp Pages: 1 -->
<svg width="1358pt" height="214pt"
 viewBox="0.00 0.00 1358.00 214.00" xmlns="http://www.w3.org/2000/svg" xmlns:xlink="http://www.w3.org/1999/xlink">
<g id="graph0" class="graph" transform="scale(1 1) rotate(0) translate(4 210)">
<title>Source/LatteLibrary/Character/Private/UFlySystem.cpp</title>
<!-- Node1 -->
<g id="Node000001" class="node">
<title>Node1</title>
<g id="a_Node000001"><a xlink:title="UFlySystem 구현에 대한 Doxygen 주석을 제공합니다.">
<polygon fill="#999999" stroke="#666666" points="913,-206 726,-206 726,-176 913,-176 913,-206"/>
<text text-anchor="start" x="734" y="-194" font-family="Malgun Gothic" font-size="10.00">Source/LatteLibrary</text>
<text text-anchor="middle" x="819.5" y="-183" font-family="Malgun Gothic" font-size="10.00">/Character/Private/UFlySystem.cpp</text>
</a>
</g>
</g>
<!-- Node2 -->
<g id="Node000002" class="node">
<title>Node2</title>
<g id="a_Node000002"><a xlink:href="UFlySystem_8h.html" target="_top" xlink:title="UFlySystem 선언에 대한 Doxygen 주석을 제공합니다.">
<polygon fill="white" stroke="#666666" points="111,-74 26,-74 26,-55 111,-55 111,-74"/>
<text text-anchor="middle" x="68.5" y="-62" font-family="Malgun Gothic" font-size="10.00">UFlySystem.h</text>
</a>
</g>
</g>
<!-- Node1&#45;&gt;Node2 -->
<g id="edge1_Node000001_Node000002" class="edge">
<title>Node1&#45;&gt;Node2</title>
<g id="a_edge1_Node000001_Node000002"><a xlink:title=" ">
<path fill="none" stroke="#63b8ff" d="M725.74,-177.19C656.94,-167.58 561.29,-153.75 477.5,-140 349.18,-118.94 198.91,-90.62 121.13,-75.7"/>
<polygon fill="#63b8ff" stroke="#63b8ff" points="121.58,-72.22 111.1,-73.77 120.26,-79.09 121.58,-72.22"/>
</a>
</g>
</g>
<!-- Node6 -->
<g id="Node000006" class="node">
<title>Node6</title>
<g id="a_Node000006"><a xlink:href="AGameCharacter_8h.html" target="_top" xlink:title="LatteLibrary 전반에서 사용하는 기반 캐릭터 클래스를 선언합니다.">
<polygon fill="white" stroke="#666666" points="594.5,-134.5 486.5,-134.5 486.5,-115.5 594.5,-115.5 594.5,-134.5"/>
<text text-anchor="middle" x="540.5" y="-122.5" font-family="Malgun Gothic" font-size="10.00">AGameCharacter.h</text>
</a>
</g>
</g>
<!-- Node1&#45;&gt;Node6 -->
<g id="edge5_Node000001_Node000006" class="edge">
<title>Node1&#45;&gt;Node6</title>
<g id="a_edge5_Node000001_Node000006"><a xlink:title=" ">
<path fill="none" stroke="#63b8ff" d="M758.27,-175.95C706.86,-164.16 634.49,-147.56 587.54,-136.79"/>
<polygon fill="#63b8ff" stroke="#63b8ff" points="588.16,-133.34 577.63,-134.52 586.59,-140.16 588.16,-133.34"/>
</a>
</g>
</g>
<!-- Node13 -->
<g id="Node000013" class="node">
<title>Node13</title>
<g id="a_Node000013"><a xlink:href="FEaseHelper_8h.html" target="_top" xlink:title="FEaseHelper 선언에 대한 Doxygen 주석을 제공합니다.">
<polygon fill="white" stroke="#666666" points="925.5,-134.5 839.5,-134.5 839.5,-115.5 925.5,-115.5 925.5,-134.5"/>
<text text-anchor="middle" x="882.5" y="-122.5" font-family="Malgun Gothic" font-size="10.00">FEaseHelper.h</text>
</a>
</g>
</g>
<!-- Node1&#45;&gt;Node13 -->
<g id="edge16_Node000001_Node000013" class="edge">
<title>Node1&#45;&gt;Node13</title>
<g id="a_edge16_Node000001_Node000013"><a xlink:title=" ">
<path fill="none" stroke="#63b8ff" d="M833.48,-175.8C843.3,-165.82 856.46,-152.46 866.67,-142.09"/>
<polygon fill="#63b8ff" stroke="#63b8ff" points="869.27,-144.43 873.79,-134.84 864.28,-139.52 869.27,-144.43"/>
</a>
</g>
</g>
<!-- Node14 -->
<g id="Node000014" class="node">
<title>Node14</title>
<g id="a_Node000014"><a xlink:title=" ">
<polygon fill="#e0e0e0" stroke="#999999" points="1129,-134.5 944,-134.5 944,-115.5 1129,-115.5 1129,-134.5"/>
<text text-anchor="middle" x="1036.5" y="-122.5" font-family="Malgun Gothic" font-size="10.00">Components/CapsuleComponent.h</text>
</a>
</g>
</g>
<!-- Node1&#45;&gt;Node14 -->
<g id="edge17_Node000001_Node000014" class="edge">
<title>Node1&#45;&gt;Node14</title>
<g id="a_edge17_Node000001_Node000014"><a xlink:title=" ">
<path fill="none" stroke="#63b8ff" d="M867.12,-175.95C906.35,-164.38 961.28,-148.18 997.83,-137.41"/>
<polygon fill="#63b8ff" stroke="#63b8ff" points="999.02,-140.7 1007.62,-134.52 997.04,-133.99 999.02,-140.7"/>
</a>
</g>
</g>
<!-- Node15 -->
<g id="Node000015" class="node">
<title>Node15</title>
<g id="a_Node000015"><a xlink:href="UEaseFunctionLibrary_8h.html" target="_top" xlink:title="UEaseFunctionLibrary 선언에 대한 Doxygen 주석을 제공합니다.">
<polygon fill="white" stroke="#666666" points="821.5,-134.5 691.5,-134.5 691.5,-115.5 821.5,-115.5 821.5,-134.5"/>
<text text-anchor="middle" x="756.5" y="-122.5" font-family="Malgun Gothic" font-size="10.00">UEaseFunctionLibrary.h</text>
</a>
</g>
</g>
<!-- Node1&#45;&gt;Node15 -->
<g id="edge18_Node000001_Node000015" class="edge">
<title>Node1&#45;&gt;Node15</title>
<g id="a_edge18_Node000001_Node000015"><a xlink:title=" ">
<path fill="none" stroke="#63b8ff" d="M805.52,-175.8C795.7,-165.82 782.54,-152.46 772.33,-142.09"/>
<polygon fill="#63b8ff" stroke="#63b8ff" points="774.72,-139.52 765.21,-134.84 769.73,-144.43 774.72,-139.52"/>
</a>
</g>
</g>
<!-- Node18 -->
<g id="Node000018" class="node">
<title>Node18</title>
<g id="a_Node000018"><a xlink:title=" ">
<polygon fill="#e0e0e0" stroke="#999999" points="1350,-140 1147,-140 1147,-110 1350,-110 1350,-140"/>
<text text-anchor="start" x="1155" y="-128" font-family="Malgun Gothic" font-size="10.00">GameFramework/CharacterMovement</text>
<text text-anchor="middle" x="1248.5" y="-117" font-family="Malgun Gothic" font-size="10.00">Component.h</text>
</a>
</g>
</g>
<!-- Node1&#45;&gt;Node18 -->
<g id="edge22_Node000001_Node000018" class="edge">
<title>Node1&#45;&gt;Node18</title>
<g id="a_edge22_Node000001_Node000018"><a xlink:title=" ">
<path fill="none" stroke="#63b8ff" d="M913.12,-176.03C981.26,-165.87 1073.57,-152.1 1144.1,-141.57"/>
<polygon fill="#63b8ff" stroke="#63b8ff" points="1144.97,-144.98 1154.34,-140.05 1143.94,-138.06 1144.97,-144.98"/>
</a>
</g>
</g>
<!-- Node3 -->
<g id="Node000003" class="node">
<title>Node3</title>
<g id="a_Node000003"><a xlink:title=" ">
<polygon fill="#e0e0e0" stroke="#999999" points="532.5,-19 444.5,-19 444.5,0 532.5,0 532.5,-19"/>
<text text-anchor="middle" x="488.5" y="-7" font-family="Malgun Gothic" font-size="10.00">CoreMinimal.h</text>
</a>
</g>
</g>
<!-- Node2&#45;&gt;Node3 -->
<g id="edge2_Node000002_Node000003" class="edge">
<title>Node2&#45;&gt;Node3</title>
<g id="a_edge2_Node000002_Node000003"><a xlink:title=" ">
<path fill="none" stroke="#63b8ff" d="M111.12,-57.02C115.97,-56.32 120.84,-55.63 125.5,-55 234.94,-40.13 363.25,-24.93 434.26,-16.7"/>
<polygon fill="#63b8ff" stroke="#63b8ff" points="434.78,-20.17 444.31,-15.54 433.97,-13.21 434.78,-20.17"/>
</a>
</g>
</g>
<!-- Node4 -->
<g id="Node000004" class="node">
<title>Node4</title>
<g id="a_Node000004"><a xlink:title=" ">
<polygon fill="#e0e0e0" stroke="#999999" points="360.5,-19 188.5,-19 188.5,0 360.5,0 360.5,-19"/>
<text text-anchor="middle" x="274.5" y="-7" font-family="Malgun Gothic" font-size="10.00">Components/ActorComponent.h</text>
</a>
</g>
</g>
<!-- Node2&#45;&gt;Node4 -->
<g id="edge3_Node000002_Node000004" class="edge">
<title>Node2&#45;&gt;Node4</title>
<g id="a_edge3_Node000002_Node000004"><a xlink:title=" ">
<path fill="none" stroke="#63b8ff" d="M101.6,-54.98C136.78,-45.93 192.57,-31.58 231.22,-21.64"/>
<polygon fill="#63b8ff" stroke="#63b8ff" points="232.33,-24.96 241.14,-19.08 230.59,-18.18 232.33,-24.96"/>
</a>
</g>
</g>
<!-- Node5 -->
<g id="Node000005" class="node">
<title>Node5</title>
<g id="a_Node000005"><a xlink:title=" ">
<polygon fill="#e0e0e0" stroke="#999999" points="137,-19 0,-19 0,0 137,0 137,-19"/>
<text text-anchor="middle" x="68.5" y="-7" font-family="Malgun Gothic" font-size="10.00">UFlySystem.generated.h</text>
</a>
</g>
</g>
<!-- Node2&#45;&gt;Node5 -->
<g id="edge4_Node000002_Node000005" class="edge">
<title>Node2&#45;&gt;Node5</title>
<g id="a_edge4_Node000002_Node000005"><a xlink:title=" ">
<path fill="none" stroke="#63b8ff" d="M68.5,-54.75C68.5,-47.8 68.5,-37.85 68.5,-29.13"/>
<polygon fill="#63b8ff" stroke="#63b8ff" points="72,-29.09 68.5,-19.09 65,-29.09 72,-29.09"/>
</a>
</g>
</g>
<!-- Node6&#45;&gt;Node3 -->
<g id="edge6_Node000006_Node000003" class="edge">
<title>Node6&#45;&gt;Node3</title>
<g id="a_edge6_Node000006_Node000003"><a xlink:title=" ">
<path fill="none" stroke="#63b8ff" d="M486.21,-120.82C385.69,-114.39 178.85,-98.31 157.5,-74 151.93,-67.65 151.94,-61.36 157.5,-55 166.52,-44.69 342.57,-25.35 434.16,-15.93"/>
<polygon fill="#63b8ff" stroke="#63b8ff" points="434.76,-19.39 444.35,-14.89 434.05,-12.43 434.76,-19.39"/>
</a>
</g>
</g>
<!-- Node7 -->
<g id="Node000007" class="node">
<title>Node7</title>
<g id="a_Node000007"><a xlink:title=" ">
<polygon fill="#e0e0e0" stroke="#999999" points="326,-74 167,-74 167,-55 326,-55 326,-74"/>
<text text-anchor="middle" x="246.5" y="-62" font-family="Malgun Gothic" font-size="10.00">GameFramework/Character.h</text>
</a>
</g>
</g>
<!-- Node6&#45;&gt;Node7 -->
<g id="edge7_Node000006_Node000007" class="edge">
<title>Node6&#45;&gt;Node7</title>
<g id="a_edge7_Node000006_Node000007"><a xlink:title=" ">
<path fill="none" stroke="#63b8ff" d="M497.75,-115.49C445.17,-105.03 355.92,-87.27 299.16,-75.98"/>
<polygon fill="#63b8ff" stroke="#63b8ff" points="299.79,-72.54 289.3,-74.02 298.43,-79.4 299.79,-72.54"/>
</a>
</g>
</g>
<!-- Node8 -->
<g id="Node000008" class="node">
<title>Node8</title>
<g id="a_Node000008"><a xlink:href="EBodyPartType_8h.html" target="_top" xlink:title="EBodyPartType 열거형에 대한 Doxygen 주석을 제공합니다.">
<polygon fill="white" stroke="#666666" points="441.5,-74 343.5,-74 343.5,-55 441.5,-55 441.5,-74"/>
<text text-anchor="middle" x="392.5" y="-62" font-family="Malgun Gothic" font-size="10.00">EBodyPartType.h</text>
</a>
</g>
</g>
<!-- Node6&#45;&gt;Node8 -->
<g id="edge8_Node000006_Node000008" class="edge">
<title>Node6&#45;&gt;Node8</title>
<g id="a_edge8_Node000006_Node000008"><a xlink:title=" ">
<path fill="none" stroke="#63b8ff" d="M518.98,-115.49C493.88,-105.57 452.18,-89.09 423.57,-77.78"/>
<polygon fill="#63b8ff" stroke="#63b8ff" points="424.63,-74.44 414.05,-74.02 422.06,-80.95 424.63,-74.44"/>
</a>
</g>
</g>
<!-- Node9 -->
<g id="Node000009" class="node">
<title>Node9</title>
<g id="a_Node000009"><a xlink:href="ECharacterType_8h.html" target="_top" xlink:title="ECharacterType 열거형에 대한 Doxygen 주석을 제공합니다.">
<polygon fill="white" stroke="#666666" points="845,-19 744,-19 744,0 845,0 845,-19"/>
<text text-anchor="middle" x="794.5" y="-7" font-family="Malgun Gothic" font-size="10.00">ECharacterType.h</text>
</a>
</g>
</g>
<!-- Node6&#45;&gt;Node9 -->
<g id="edge9_Node000006_Node000009" class="edge">
<title>Node6&#45;&gt;Node9</title>
<g id="a_edge9_Node000006_Node000009"><a xlink:title=" ">
<path fill="none" stroke="#63b8ff" d="M594.89,-118.66C636.14,-112.66 692.98,-100.1 736.5,-74 755.83,-62.41 772.53,-42.41 782.98,-27.95"/>
<polygon fill="#63b8ff" stroke="#63b8ff" points="786.09,-29.6 788.91,-19.39 780.34,-25.62 786.09,-29.6"/>
</a>
</g>
</g>
<!-- Node10 -->
<g id="Node000010" class="node">
<title>Node10</title>
<g id="a_Node000010"><a xlink:href="UStatSystem_8h.html" target="_top" xlink:title="UStatSystem 선언에 대한 Doxygen 주석을 제공합니다.">
<polygon fill="white" stroke="#666666" points="728,-74 639,-74 639,-55 728,-55 728,-74"/>
<text text-anchor="middle" x="683.5" y="-62" font-family="Malgun Gothic" font-size="10.00">UStatSystem.h</text>
</a>
</g>
</g>
<!-- Node6&#45;&gt;Node10 -->
<g id="edge10_Node000006_Node000010" class="edge">
<title>Node6&#45;&gt;Node10</title>
<g id="a_edge10_Node000006_Node000010"><a xlink:title=" ">
<path fill="none" stroke="#63b8ff" d="M561.29,-115.49C585.44,-105.62 625.48,-89.23 653.12,-77.93"/>
<polygon fill="#63b8ff" stroke="#63b8ff" points="654.75,-81.04 662.68,-74.02 652.1,-74.56 654.75,-81.04"/>
</a>
</g>
</g>
<!-- Node12 -->
<g id="Node000012" class="node">
<title>Node12</title>
<g id="a_Node000012"><a xlink:title=" ">
<polygon fill="#e0e0e0" stroke="#999999" points="621,-74 460,-74 460,-55 621,-55 621,-74"/>
<text text-anchor="middle" x="540.5" y="-62" font-family="Malgun Gothic" font-size="10.00">AGameCharacter.generated.h</text>
</a>
</g>
</g>
<!-- Node6&#45;&gt;Node12 -->
<g id="edge15_Node000006_Node000012" class="edge">
<title>Node6&#45;&gt;Node12</title>
<g id="a_edge15_Node000006_Node000012"><a xlink:title=" ">
<path fill="none" stroke="#63b8ff" d="M540.5,-115.37C540.5,-107.25 540.5,-94.81 540.5,-84.39"/>
<polygon fill="#63b8ff" stroke="#63b8ff" points="544,-84.17 540.5,-74.17 537,-84.17 544,-84.17"/>
</a>
</g>
</g>
<!-- Node10&#45;&gt;Node3 -->
<g id="edge11_Node000010_Node000003" class="edge">
<title>Node10&#45;&gt;Node3</title>
<g id="a_edge11_Node000010_Node000003"><a xlink:title=" ">
<path fill="none" stroke="#63b8ff" d="M652.17,-54.98C619.01,-45.97 566.5,-31.7 529.94,-21.76"/>
<polygon fill="#63b8ff" stroke="#63b8ff" points="530.64,-18.33 520.08,-19.08 528.81,-25.08 530.64,-18.33"/>
</a>
</g>
</g>
<!-- Node10&#45;&gt;Node4 -->
<g id="edge13_Node000010_Node000004" class="edge">
<title>Node10&#45;&gt;Node4</title>
<g id="a_edge13_Node000010_Node000004"><a xlink:title=" ">
<path fill="none" stroke="#63b8ff" d="M638.73,-56.34C635.61,-55.88 632.51,-55.43 629.5,-55 536.88,-41.91 430.38,-28.82 358.39,-20.26"/>
<polygon fill="#63b8ff" stroke="#63b8ff" points="358.36,-16.73 348.02,-19.03 357.54,-23.69 358.36,-16.73"/>
</a>
</g>
</g>
<!-- Node10&#45;&gt;Node9 -->
<g id="edge12_Node000010_Node000009" class="edge">
<title>Node10&#45;&gt;Node9</title>
<g id="a_edge12_Node000010_Node000009"><a xlink:title=" ">
<path fill="none" stroke="#63b8ff" d="M701.33,-54.98C719.11,-46.5 746.65,-33.35 767.18,-23.54"/>
<polygon fill="#63b8ff" stroke="#63b8ff" points="768.83,-26.64 776.34,-19.17 765.81,-20.32 768.83,-26.64"/>
</a>
</g>
</g>
<!-- Node11 -->
<g id="Node000011" class="node">
<title>Node11</title>
<g id="a_Node000011"><a xlink:title=" ">
<polygon fill="#e0e0e0" stroke="#999999" points="725.5,-19 583.5,-19 583.5,0 725.5,0 725.5,-19"/>
<text text-anchor="middle" x="654.5" y="-7" font-family="Malgun Gothic" font-size="10.00">UStatSystem.generated.h</text>
</a>
</g>
</g>
<!-- Node10&#45;&gt;Node11 -->
<g id="edge14_Node000010_Node000011" class="edge">
<title>Node10&#45;&gt;Node11</title>
<g id="a_edge14_Node000010_Node000011"><a xlink:title=" ">
<path fill="none" stroke="#63b8ff" d="M678.71,-54.75C674.74,-47.49 668.97,-36.95 664.07,-27.98"/>
<polygon fill="#63b8ff" stroke="#63b8ff" points="667.07,-26.18 659.2,-19.09 660.93,-29.54 667.07,-26.18"/>
</a>
</g>
</g>
<!-- Node15&#45;&gt;Node3 -->
<g id="edge19_Node000015_Node000003" class="edge">
<title>Node15&#45;&gt;Node3</title>
<g id="a_edge19_Node000015_Node000003"><a xlink:title=" ">
<path fill="none" stroke="#63b8ff" d="M756.7,-115.3C756.54,-100.55 753.92,-70.69 736.5,-55 722.28,-42.19 611.59,-26.1 542.98,-17.2"/>
<polygon fill="#63b8ff" stroke="#63b8ff" points="543.13,-13.69 532.77,-15.88 542.24,-20.63 543.13,-13.69"/>
</a>
</g>
</g>
<!-- Node16 -->
<g id="Node000016" class="node">
<title>Node16</title>
<g id="a_Node000016"><a xlink:title=" ">
<polygon fill="#e0e0e0" stroke="#999999" points="1122,-74 1023,-74 1023,-55 1122,-55 1122,-74"/>
<text text-anchor="middle" x="1072.5" y="-62" font-family="Malgun Gothic" font-size="10.00">UObject/Object.h</text>
</a>
</g>
</g>
<!-- Node15&#45;&gt;Node16 -->
<g id="edge20_Node000015_Node000016" class="edge">
<title>Node15&#45;&gt;Node16</title>
<g id="a_edge20_Node000015_Node000016"><a xlink:title=" ">
<path fill="none" stroke="#63b8ff" d="M801.5,-115.45C811.07,-113.64 821.12,-111.75 830.5,-110 893.82,-98.19 966.5,-84.85 1015.55,-75.89"/>
<polygon fill="#63b8ff" stroke="#63b8ff" points="1016.43,-79.28 1025.64,-74.04 1015.18,-72.4 1016.43,-79.28"/>
</a>
</g>
</g>
<!-- Node17 -->
<g id="Node000017" class="node">
<title>Node17</title>
<g id="a_Node000017"><a xlink:title=" ">
<polygon fill="#e0e0e0" stroke="#999999" points="1004.5,-74 822.5,-74 822.5,-55 1004.5,-55 1004.5,-74"/>
<text text-anchor="middle" x="913.5" y="-62" font-family="Malgun Gothic" font-size="10.00">UEaseFunctionLibrary.generated.h</text>
</a>
</g>
</g>
<!-- Node15&#45;&gt;Node17 -->
<g id="edge21_Node000015_Node000017" class="edge">
<title>Node15&#45;&gt;Node17</title>
<g id="a_edge21_Node000015_Node000017"><a xlink:title=" ">
<path fill="none" stroke="#63b8ff" d="M779.33,-115.49C806.07,-105.53 850.58,-88.95 880.94,-77.63"/>
<polygon fill="#63b8ff" stroke="#63b8ff" points="882.49,-80.79 890.64,-74.02 880.05,-74.23 882.49,-80.79"/>
</a>
</g>
</g>
</g>
</svg>
