<?xml version="1.0" encoding="UTF-8" standalone="no"?>
<!DOCTYPE svg PUBLIC "-//W3C//DTD SVG 1.1//EN"
 "http://www.w3.org/Graphics/SVG/1.1/DTD/svg11.dtd">
<!-- Generated by graphviz version 2.43.0 (0)
 -->
<!-- Title: Source/LatteLibrary/Manager/Public/UGameDataManager.h Pages: 1 -->
<svg width="1162pt" height="115pt"
 viewBox="0.00 0.00 1161.50 115.00" xmlns="http://www.w3.org/2000/svg" xmlns:xlink="http://www.w3.org/1999/xlink">
<g id="graph0" class="graph" transform="scale(1 1) rotate(0) translate(4 111)">
<title>Source/LatteLibrary/Manager/Public/UGameDataManager.h</title>
<!-- Node1 -->
<g id="Node000001" class="node">
<title>Node1</title>
<g id="a_Node000001"><a xlink:title="UGameDataManager 선언에 대한 Doxygen 주석을 제공합니다.">
<polygon fill="#999999" stroke="#666666" points="685.5,-107 476.5,-107 476.5,-77 685.5,-77 685.5,-107"/>
<text text-anchor="start" x="484.5" y="-95" font-family="Malgun Gothic" font-size="10.00">Source/LatteLibrary</text>
<text text-anchor="middle" x="581" y="-84" font-family="Malgun Gothic" font-size="10.00">/Manager/Public/UGameDataManager.h</text>
</a>
</g>
</g>
<!-- Node2 -->
<g id="Node000002" class="node">
<title>Node2</title>
<g id="a_Node000002"><a xlink:href="AGameCharacter_8cpp.html" target="_top" xlink:title="AGameCharacter 구현에 대한 Doxygen 주석을 제공합니다.">
<polygon fill="white" stroke="#666666" points="210,-35.5 0,-35.5 0,-5.5 210,-5.5 210,-35.5"/>
<text text-anchor="start" x="8" y="-23.5" font-family="Malgun Gothic" font-size="10.00">Source/LatteLibrary</text>
<text text-anchor="middle" x="105" y="-12.5" font-family="Malgun Gothic" font-size="10.00">/Character/Private/AGameCharacter.cpp</text>
</a>
</g>
</g>
<!-- Node1&#45;&gt;Node2 -->
<g id="edge1_Node000001_Node000002" class="edge">
<title>Node1&#45;&gt;Node2</title>
<g id="a_edge1_Node000001_Node000002"><a xlink:title=" ">
<path fill="none" stroke="#63b8ff" d="M465.97,-76.07C394.76,-66.59 301.47,-53.75 219,-41 207.99,-39.3 196.39,-37.42 184.98,-35.52"/>
<polygon fill="#63b8ff" stroke="#63b8ff" points="465.94,-79.6 476.32,-77.45 466.87,-72.66 465.94,-79.6"/>
</a>
</g>
</g>
<!-- Node3 -->
<g id="Node000003" class="node">
<title>Node3</title>
<g id="a_Node000003"><a xlink:href="UHitStopSystem_8cpp.html" target="_top" xlink:title="UHitStopSystem 구현에 대한 Doxygen 주석을 제공합니다.">
<polygon fill="white" stroke="#666666" points="379.5,-41 228.5,-41 228.5,0 379.5,0 379.5,-41"/>
<text text-anchor="start" x="236.5" y="-29" font-family="Malgun Gothic" font-size="10.00">Source/LatteLibrary</text>
<text text-anchor="start" x="236.5" y="-18" font-family="Malgun Gothic" font-size="10.00">/Character/Private/UHitStop</text>
<text text-anchor="middle" x="304" y="-7" font-family="Malgun Gothic" font-size="10.00">System.cpp</text>
</a>
</g>
</g>
<!-- Node1&#45;&gt;Node3 -->
<g id="edge2_Node000001_Node000003" class="edge">
<title>Node1&#45;&gt;Node3</title>
<g id="a_edge2_Node000001_Node000003"><a xlink:title=" ">
<path fill="none" stroke="#63b8ff" d="M515.13,-74.47C474.43,-64.26 422.06,-51.12 379.66,-40.48"/>
<polygon fill="#63b8ff" stroke="#63b8ff" points="514.39,-77.9 524.94,-76.94 516.1,-71.11 514.39,-77.9"/>
</a>
</g>
</g>
<!-- Node4 -->
<g id="Node000004" class="node">
<title>Node4</title>
<g id="a_Node000004"><a xlink:href="UKnockbackSystem_8cpp.html" target="_top" xlink:title="UKnockbackSystem 구현에 대한 Doxygen 주석을 제공합니다.">
<polygon fill="white" stroke="#666666" points="566,-41 398,-41 398,0 566,0 566,-41"/>
<text text-anchor="start" x="406" y="-29" font-family="Malgun Gothic" font-size="10.00">Source/LatteLibrary</text>
<text text-anchor="start" x="406" y="-18" font-family="Malgun Gothic" font-size="10.00">/Character/Private/UKnockback</text>
<text text-anchor="middle" x="482" y="-7" font-family="Malgun Gothic" font-size="10.00">System.cpp</text>
</a>
</g>
</g>
<!-- Node1&#45;&gt;Node4 -->
<g id="edge3_Node000001_Node000004" class="edge">
<title>Node1&#45;&gt;Node4</title>
<g id="a_edge3_Node000001_Node000004"><a xlink:title=" ">
<path fill="none" stroke="#63b8ff" d="M552.57,-71.04C539.17,-61.63 523.22,-50.44 509.88,-41.07"/>
<polygon fill="#63b8ff" stroke="#63b8ff" points="550.77,-74.05 560.97,-76.94 554.79,-68.33 550.77,-74.05"/>
</a>
</g>
</g>
<!-- Node5 -->
<g id="Node000005" class="node">
<title>Node5</title>
<g id="a_Node000005"><a xlink:href="UStatSystem_8cpp.html" target="_top" xlink:title="UStatSystem 구현에 대한 Doxygen 주석을 제공합니다.">
<polygon fill="white" stroke="#666666" points="775.5,-35.5 584.5,-35.5 584.5,-5.5 775.5,-5.5 775.5,-35.5"/>
<text text-anchor="start" x="592.5" y="-23.5" font-family="Malgun Gothic" font-size="10.00">Source/LatteLibrary</text>
<text text-anchor="middle" x="680" y="-12.5" font-family="Malgun Gothic" font-size="10.00">/Character/Private/UStatSystem.cpp</text>
</a>
</g>
</g>
<!-- Node1&#45;&gt;Node5 -->
<g id="edge4_Node000001_Node000005" class="edge">
<title>Node1&#45;&gt;Node5</title>
<g id="a_edge4_Node000001_Node000005"><a xlink:title=" ">
<path fill="none" stroke="#63b8ff" d="M609.57,-70.94C625.72,-59.6 645.51,-45.71 660,-35.54"/>
<polygon fill="#63b8ff" stroke="#63b8ff" points="607.21,-68.33 601.03,-76.94 611.23,-74.05 607.21,-68.33"/>
</a>
</g>
</g>
<!-- Node6 -->
<g id="Node000006" class="node">
<title>Node6</title>
<g id="a_Node000006"><a xlink:href="UGameDataManager_8cpp.html" target="_top" xlink:title="UGameDataManager 구현에 대한 Doxygen 주석을 제공합니다.">
<polygon fill="white" stroke="#666666" points="956.5,-41 793.5,-41 793.5,0 956.5,0 956.5,-41"/>
<text text-anchor="start" x="801.5" y="-29" font-family="Malgun Gothic" font-size="10.00">Source/LatteLibrary</text>
<text text-anchor="start" x="801.5" y="-18" font-family="Malgun Gothic" font-size="10.00">/Manager/Private/UGameData</text>
<text text-anchor="middle" x="875" y="-7" font-family="Malgun Gothic" font-size="10.00">Manager.cpp</text>
</a>
</g>
</g>
<!-- Node1&#45;&gt;Node6 -->
<g id="edge5_Node000001_Node000006" class="edge">
<title>Node1&#45;&gt;Node6</title>
<g id="a_edge5_Node000001_Node000006"><a xlink:title=" ">
<path fill="none" stroke="#63b8ff" d="M650.27,-74.62C693.12,-64.5 748.34,-51.44 793.31,-40.81"/>
<polygon fill="#63b8ff" stroke="#63b8ff" points="649.42,-71.23 640.5,-76.94 651.03,-78.04 649.42,-71.23"/>
</a>
</g>
</g>
<!-- Node7 -->
<g id="Node000007" class="node">
<title>Node7</title>
<g id="a_Node000007"><a xlink:href="ANetworkTesterActor_8cpp.html" target="_top" xlink:title="ANetworkTesterActor 구현에 대한 Doxygen 주석을 제공합니다.">
<polygon fill="white" stroke="#666666" points="1153.5,-41 974.5,-41 974.5,0 1153.5,0 1153.5,-41"/>
<text text-anchor="start" x="982.5" y="-29" font-family="Malgun Gothic" font-size="10.00">Source/LatteLibrary</text>
<text text-anchor="start" x="982.5" y="-18" font-family="Malgun Gothic" font-size="10.00">/Network/Private/ANetworkTester</text>
<text text-anchor="middle" x="1064" y="-7" font-family="Malgun Gothic" font-size="10.00">Actor.cpp</text>
</a>
</g>
</g>
<!-- Node1&#45;&gt;Node7 -->
<g id="edge6_Node000001_Node000007" class="edge">
<title>Node1&#45;&gt;Node7</title>
<g id="a_edge6_Node000001_Node000007"><a xlink:title=" ">
<path fill="none" stroke="#63b8ff" d="M696.02,-78.11C772.7,-69.02 875.61,-55.84 966,-41 968.74,-40.55 971.52,-40.08 974.32,-39.59"/>
<polygon fill="#63b8ff" stroke="#63b8ff" points="695.38,-74.66 685.86,-79.31 696.2,-81.62 695.38,-74.66"/>
</a>
</g>
</g>
</g>
</svg>
