<?xml version="1.0" encoding="UTF-8" standalone="no"?>
<!DOCTYPE svg PUBLIC "-//W3C//DTD SVG 1.1//EN"
 "http://www.w3.org/Graphics/SVG/1.1/DTD/svg11.dtd">
<!-- Generated by graphviz version 2.43.0 (0)
 -->
<!-- Title: Source/LatteLibrary/Manager/Private/UGameVFXManager.cpp Pages: 1 -->
<!--zoomable 203 -->

<svg id="main" version="1.1" xmlns="http://www.w3.org/2000/svg" xmlns:xlink="http://www.w3.org/1999/xlink" xml:space="preserve" onload="init(evt)">
<style type="text/css"><![CDATA[
.node, .edge {opacity: 0.7;}
.node.selected, .edge.selected {opacity: 1;}
.edge:hover path { stroke: red; }
.edge:hover polygon { stroke: red; fill: red; }
]]></style>

<defs>
  <circle id="rim" cx="0" cy="0" r="7"/>
  <circle id="rim2" cx="0" cy="0" r="3.5"/>
  <g id="zoomPlus">
    <use xlink:href="#rim" fill="#404040"><set attributeName="fill" to="#808080" begin="zoomplus.mouseover" end="zoomplus.mouseout"/></use>
    <path d="M-4,0h8M0,-4v8" fill="none" stroke="white" stroke-width="1.5" pointer-events="none"/>
  </g>
  <g id="zoomMin">
    <use xlink:href="#rim" fill="#404040"><set attributeName="fill" to="#808080" begin="zoomminus.mouseover" end="zoomminus.mouseout"/></use>
    <path d="M-4,0h8" fill="none" stroke="white" stroke-width="1.5" pointer-events="none"/>
  </g>
  <g id="arrowUp" transform="translate(30 24)">
    <use xlink:href="#rim"/>
    <path pointer-events="none" fill="none" stroke="white" stroke-width="1.5" d="M0,-3.0v7 M-2.5,-0.5L0,-3.0L2.5,-0.5"/>
  </g>
  <g id="arrowRight" transform="rotate(90) translate(36 -43)">
    <use xlink:href="#rim"/>
    <path pointer-events="none" fill="none" stroke="white" stroke-width="1.5" d="M0,-3.0v7 M-2.5,-0.5L0,-3.0L2.5,-0.5"/>
  </g>
  <g id="arrowDown" transform="rotate(180) translate(-30 -48)">
    <use xlink:href="#rim"/>
    <path pointer-events="none" fill="none" stroke="white" stroke-width="1.5" d="M0,-3.0v7 M-2.5,-0.5L0,-3.0L2.5,-0.5"/>
  </g>
  <g id="arrowLeft" transform="rotate(270) translate(-36 17)">
    <use xlink:href="#rim"/>
    <path pointer-events="none" fill="none" stroke="white" stroke-width="1.5" d="M0,-3.0v7 M-2.5,-0.5L0,-3.0L2.5,-0.5"/>
  </g>
  <g id="resetDef">
    <use xlink:href="#rim2" fill="#404040"><set attributeName="fill" to="#808080" begin="reset.mouseover" end="reset.mouseout"/></use>
  </g>
</defs>
<script type="application/ecmascript">
var viewWidth = 1651;
var viewHeight = 203;
var sectionId = 'dynsection-0';
</script>
<script type="application/ecmascript" xlink:href="svg.min.js"/>
<svg id="graph" class="graph">
<g id="viewport">
<title>Source/LatteLibrary/Manager/Private/UGameVFXManager.cpp</title>
<!-- Node1 -->
<g id="Node000001" class="node">
<title>Node1</title>
<g id="a_Node000001"><a xlink:title="UGameVFXManager 구현에 대한 Doxygen 주석을 제공합니다.">
<polygon fill="#999999" stroke="#666666" points="1096.53,-195 875.53,-195 875.53,-165 1096.53,-165 1096.53,-195"/>
<text text-anchor="start" x="883.53" y="-183" font-family="Malgun Gothic" font-size="10.00">Source/LatteLibrary</text>
<text text-anchor="middle" x="986.03" y="-172" font-family="Malgun Gothic" font-size="10.00">/Manager/Private/UGameVFXManager.cpp</text>
</a>
</g>
</g>
<!-- Node2 -->
<g id="Node000002" class="node">
<title>Node2</title>
<g id="a_Node000002"><a xlink:href="UGameVFXManager_8h.html" target="_top" xlink:title="UGameVFXManager 선언에 대한 Doxygen 주석을 제공합니다.">
<polygon fill="white" stroke="#666666" points="1093.03,-129 969.03,-129 969.03,-110 1093.03,-110 1093.03,-129"/>
<text text-anchor="middle" x="1031.03" y="-117" font-family="Malgun Gothic" font-size="10.00">UGameVFXManager.h</text>
</a>
</g>
</g>
<!-- Node1&#45;&gt;Node2 -->
<g id="edge1_Node000001_Node000002" class="edge">
<title>Node1&#45;&gt;Node2</title>
<g id="a_edge1_Node000001_Node000002"><a xlink:title=" ">
<path fill="none" stroke="#63b8ff" d="M996.92,-164.84C1003.32,-156.52 1011.44,-145.96 1018.16,-137.23"/>
<polygon fill="#63b8ff" stroke="#63b8ff" points="1020.96,-139.33 1024.29,-129.27 1015.41,-135.06 1020.96,-139.33"/>
</a>
</g>
</g>
<!-- Node5 -->
<g id="Node000005" class="node">
<title>Node5</title>
<g id="a_Node000005"><a xlink:href="EDamageType_8h.html" target="_top" xlink:title="EDamageType 열거형에 대한 Doxygen 주석을 제공합니다.">
<polygon fill="white" stroke="#666666" points="1642.53,-74 1547.53,-74 1547.53,-55 1642.53,-55 1642.53,-74"/>
<text text-anchor="middle" x="1595.03" y="-62" font-family="Malgun Gothic" font-size="10.00">EDamageType.h</text>
</a>
</g>
</g>
<!-- Node1&#45;&gt;Node5 -->
<g id="edge13_Node000001_Node000005" class="edge">
<title>Node1&#45;&gt;Node5</title>
<g id="a_edge13_Node000001_Node000005"><a xlink:title=" ">
<path fill="none" stroke="#63b8ff" d="M1019.71,-164.97C1042.96,-155.16 1074.52,-141.62 1102.03,-129 1119.55,-120.96 1122.46,-115.18 1141.03,-110 1308.52,-63.3 1360.2,-93.89 1537.29,-73.99"/>
<polygon fill="#63b8ff" stroke="#63b8ff" points="1537.94,-77.43 1547.47,-72.8 1537.13,-70.48 1537.94,-77.43"/>
</a>
</g>
</g>
<!-- Node7 -->
<g id="Node000007" class="node">
<title>Node7</title>
<g id="a_Node000007"><a xlink:href="UVFXDataAsset_8h.html" target="_top" xlink:title="UVFXDataAsset 데이터 자산에 대한 Doxygen 주석을 제공합니다.">
<polygon fill="white" stroke="#666666" points="992.53,-74 889.53,-74 889.53,-55 992.53,-55 992.53,-74"/>
<text text-anchor="middle" x="941.03" y="-62" font-family="Malgun Gothic" font-size="10.00">UVFXDataAsset.h</text>
</a>
</g>
</g>
<!-- Node1&#45;&gt;Node7 -->
<g id="edge22_Node000001_Node000007" class="edge">
<title>Node1&#45;&gt;Node7</title>
<g id="a_edge22_Node000001_Node000007"><a xlink:title=" ">
<path fill="none" stroke="#63b8ff" d="M977.78,-164.9C972.26,-155.06 965.1,-141.51 960.03,-129 954.08,-114.32 949.03,-97.06 945.64,-84.25"/>
<polygon fill="#63b8ff" stroke="#63b8ff" points="948.97,-83.13 943.1,-74.31 942.18,-84.86 948.97,-83.13"/>
</a>
</g>
</g>
<!-- Node12 -->
<g id="Node000012" class="node">
<title>Node12</title>
<g id="a_Node000012"><a xlink:href="GameLogging_8h.html" target="_top" xlink:title="GameLogging 선언에 대한 Doxygen 주석을 제공합니다.">
<polygon fill="white" stroke="#666666" points="263.53,-129 170.53,-129 170.53,-110 263.53,-110 263.53,-129"/>
<text text-anchor="middle" x="217.03" y="-117" font-family="Malgun Gothic" font-size="10.00">GameLogging.h</text>
</a>
</g>
</g>
<!-- Node1&#45;&gt;Node12 -->
<g id="edge14_Node000001_Node000012" class="edge">
<title>Node1&#45;&gt;Node12</title>
<g id="a_edge14_Node000001_Node000012"><a xlink:title=" ">
<path fill="none" stroke="#63b8ff" d="M875.44,-170.59C709.29,-157.95 401.21,-134.51 274.12,-124.84"/>
<polygon fill="#63b8ff" stroke="#63b8ff" points="274.08,-121.33 263.84,-124.06 273.55,-128.31 274.08,-121.33"/>
</a>
</g>
</g>
<!-- Node17 -->
<g id="Node000017" class="node">
<title>Node17</title>
<g id="a_Node000017"><a xlink:title=" ">
<polygon fill="#e0e0e0" stroke="#999999" points="1286.53,-129 1149.53,-129 1149.53,-110 1286.53,-110 1286.53,-129"/>
<text text-anchor="middle" x="1218.03" y="-117" font-family="Malgun Gothic" font-size="10.00">NiagaraFunctionLibrary.h</text>
</a>
</g>
</g>
<!-- Node1&#45;&gt;Node17 -->
<g id="edge23_Node000001_Node000017" class="edge">
<title>Node1&#45;&gt;Node17</title>
<g id="a_edge23_Node000001_Node000017"><a xlink:title=" ">
<path fill="none" stroke="#63b8ff" d="M1041.6,-164.99C1082.16,-154.76 1136.39,-141.09 1173.97,-131.61"/>
<polygon fill="#63b8ff" stroke="#63b8ff" points="1175.27,-134.89 1184.11,-129.05 1173.55,-128.1 1175.27,-134.89"/>
</a>
</g>
</g>
<!-- Node18 -->
<g id="Node000018" class="node">
<title>Node18</title>
<g id="a_Node000018"><a xlink:href="FComponentHelper_8h.html" target="_top" xlink:title="FComponentHelper 선언에 대한 Doxygen 주석을 제공합니다.">
<polygon fill="white" stroke="#666666" points="825.53,-129 706.53,-129 706.53,-110 825.53,-110 825.53,-129"/>
<text text-anchor="middle" x="766.03" y="-117" font-family="Malgun Gothic" font-size="10.00">FComponentHelper.h</text>
</a>
</g>
</g>
<!-- Node1&#45;&gt;Node18 -->
<g id="edge24_Node000001_Node000018" class="edge">
<title>Node1&#45;&gt;Node18</title>
<g id="a_edge24_Node000001_Node000018"><a xlink:title=" ">
<path fill="none" stroke="#63b8ff" d="M933.33,-164.99C895.04,-154.8 843.88,-141.2 808.26,-131.73"/>
<polygon fill="#63b8ff" stroke="#63b8ff" points="808.76,-128.24 798.2,-129.05 806.96,-135.01 808.76,-128.24"/>
</a>
</g>
</g>
<!-- Node3 -->
<g id="Node000003" class="node">
<title>Node3</title>
<g id="a_Node000003"><a xlink:title=" ">
<polygon fill="#e0e0e0" stroke="#999999" points="458.03,-19 370.03,-19 370.03,0 458.03,0 458.03,-19"/>
<text text-anchor="middle" x="414.03" y="-7" font-family="Malgun Gothic" font-size="10.00">CoreMinimal.h</text>
</a>
</g>
</g>
<!-- Node2&#45;&gt;Node3 -->
<g id="edge2_Node000002_Node000003" class="edge">
<title>Node2&#45;&gt;Node3</title>
<g id="a_edge2_Node000002_Node000003"><a xlink:title=" ">
<path fill="none" stroke="#63b8ff" d="M1001.66,-109.96C971.39,-101.12 922.84,-86.82 881.03,-74 854.29,-65.8 848.4,-60.77 821.03,-55 696.39,-28.72 546.81,-17.43 468.28,-13.02"/>
<polygon fill="#63b8ff" stroke="#63b8ff" points="468.32,-9.51 458.14,-12.46 467.94,-16.5 468.32,-9.51"/>
</a>
</g>
</g>
<!-- Node4 -->
<g id="Node000004" class="node">
<title>Node4</title>
<g id="a_Node000004"><a xlink:href="Macro_8h.html" target="_top" xlink:title="Manager 모듈에서 공통으로 사용하는 매크로 정의에 대한 Doxygen 주석을 제공합니다.">
<polygon fill="white" stroke="#666666" points="1105.03,-74 1049.03,-74 1049.03,-55 1105.03,-55 1105.03,-74"/>
<text text-anchor="middle" x="1077.03" y="-62" font-family="Malgun Gothic" font-size="10.00">Macro.h</text>
</a>
</g>
</g>
<!-- Node2&#45;&gt;Node4 -->
<g id="edge3_Node000002_Node000004" class="edge">
<title>Node2&#45;&gt;Node4</title>
<g id="a_edge3_Node000002_Node000004"><a xlink:title=" ">
<path fill="none" stroke="#63b8ff" d="M1038.62,-109.75C1045.19,-102.18 1054.85,-91.05 1062.84,-81.84"/>
<polygon fill="#63b8ff" stroke="#63b8ff" points="1065.66,-83.94 1069.57,-74.09 1060.38,-79.35 1065.66,-83.94"/>
</a>
</g>
</g>
<!-- Node2&#45;&gt;Node5 -->
<g id="edge4_Node000002_Node000005" class="edge">
<title>Node2&#45;&gt;Node5</title>
<g id="a_edge4_Node000002_Node000005"><a xlink:title=" ">
<path fill="none" stroke="#63b8ff" d="M1093.23,-111.4C1097.9,-110.91 1102.54,-110.44 1107.03,-110 1295.07,-91.63 1345.38,-96.03 1537.33,-74"/>
<polygon fill="#63b8ff" stroke="#63b8ff" points="1537.94,-77.45 1547.47,-72.83 1537.14,-70.5 1537.94,-77.45"/>
</a>
</g>
</g>
<!-- Node6 -->
<g id="Node000006" class="node">
<title>Node6</title>
<g id="a_Node000006"><a xlink:href="EVFXType_8h.html" target="_top" xlink:title="EVFXType 열거형에 대한 Doxygen 주석을 제공합니다.">
<polygon fill="white" stroke="#666666" points="1084.03,-19 1010.03,-19 1010.03,0 1084.03,0 1084.03,-19"/>
<text text-anchor="middle" x="1047.03" y="-7" font-family="Malgun Gothic" font-size="10.00">EVFXType.h</text>
</a>
</g>
</g>
<!-- Node2&#45;&gt;Node6 -->
<g id="edge5_Node000002_Node000006" class="edge">
<title>Node2&#45;&gt;Node6</title>
<g id="a_edge5_Node000002_Node000006"><a xlink:title=" ">
<path fill="none" stroke="#63b8ff" d="M1032.21,-109.87C1033.89,-97.64 1037.1,-74.6 1040.03,-55 1041.3,-46.48 1042.77,-37.06 1044.04,-29.09"/>
<polygon fill="#63b8ff" stroke="#63b8ff" points="1047.53,-29.45 1045.65,-19.03 1040.61,-28.35 1047.53,-29.45"/>
</a>
</g>
</g>
<!-- Node2&#45;&gt;Node7 -->
<g id="edge6_Node000002_Node000007" class="edge">
<title>Node2&#45;&gt;Node7</title>
<g id="a_edge6_Node000002_Node000007"><a xlink:title=" ">
<path fill="none" stroke="#63b8ff" d="M1016.57,-109.98C1002.61,-101.77 981.23,-89.18 964.78,-79.49"/>
<polygon fill="#63b8ff" stroke="#63b8ff" points="966.14,-76.23 955.75,-74.17 962.59,-82.26 966.14,-76.23"/>
</a>
</g>
</g>
<!-- Node10 -->
<g id="Node000010" class="node">
<title>Node10</title>
<g id="a_Node000010"><a xlink:title=" ">
<polygon fill="#e0e0e0" stroke="#999999" points="1335.03,-74 1123.03,-74 1123.03,-55 1335.03,-55 1335.03,-74"/>
<text text-anchor="middle" x="1229.03" y="-62" font-family="Malgun Gothic" font-size="10.00">Subsystems/GameInstanceSubsystem.h</text>
</a>
</g>
</g>
<!-- Node2&#45;&gt;Node10 -->
<g id="edge11_Node000002_Node000010" class="edge">
<title>Node2&#45;&gt;Node10</title>
<g id="a_edge11_Node000002_Node000010"><a xlink:title=" ">
<path fill="none" stroke="#63b8ff" d="M1062.84,-109.98C1096.51,-100.97 1149.82,-86.7 1186.95,-76.76"/>
<polygon fill="#63b8ff" stroke="#63b8ff" points="1188.21,-80.05 1196.97,-74.08 1186.4,-73.29 1188.21,-80.05"/>
</a>
</g>
</g>
<!-- Node11 -->
<g id="Node000011" class="node">
<title>Node11</title>
<g id="a_Node000011"><a xlink:title=" ">
<polygon fill="#e0e0e0" stroke="#999999" points="1529.03,-74 1353.03,-74 1353.03,-55 1529.03,-55 1529.03,-74"/>
<text text-anchor="middle" x="1441.03" y="-62" font-family="Malgun Gothic" font-size="10.00">UGameVFXManager.generated.h</text>
</a>
</g>
</g>
<!-- Node2&#45;&gt;Node11 -->
<g id="edge12_Node000002_Node000011" class="edge">
<title>Node2&#45;&gt;Node11</title>
<g id="a_edge12_Node000002_Node000011"><a xlink:title=" ">
<path fill="none" stroke="#63b8ff" d="M1093.3,-110.45C1166.08,-101.04 1286.53,-85.47 1364.83,-75.35"/>
<polygon fill="#63b8ff" stroke="#63b8ff" points="1365.64,-78.77 1375.11,-74.02 1364.74,-71.83 1365.64,-78.77"/>
</a>
</g>
</g>
<!-- Node7&#45;&gt;Node3 -->
<g id="edge7_Node000007_Node000003" class="edge">
<title>Node7&#45;&gt;Node3</title>
<g id="a_edge7_Node000007_Node000003"><a xlink:title=" ">
<path fill="none" stroke="#63b8ff" d="M889.52,-56.71C884.63,-56.11 879.74,-55.53 875.03,-55 728.19,-38.46 554.59,-22.73 468.34,-15.18"/>
<polygon fill="#63b8ff" stroke="#63b8ff" points="468.52,-11.68 458.26,-14.3 467.91,-18.65 468.52,-11.68"/>
</a>
</g>
</g>
<!-- Node7&#45;&gt;Node6 -->
<g id="edge8_Node000007_Node000006" class="edge">
<title>Node7&#45;&gt;Node6</title>
<g id="a_edge8_Node000007_Node000006"><a xlink:title=" ">
<path fill="none" stroke="#63b8ff" d="M958.06,-54.98C974.96,-46.54 1001.09,-33.47 1020.67,-23.68"/>
<polygon fill="#63b8ff" stroke="#63b8ff" points="1022.31,-26.77 1029.69,-19.17 1019.18,-20.51 1022.31,-26.77"/>
</a>
</g>
</g>
<!-- Node8 -->
<g id="Node000008" class="node">
<title>Node8</title>
<g id="a_Node000008"><a xlink:title=" ">
<polygon fill="#e0e0e0" stroke="#999999" points="818.03,-19 706.03,-19 706.03,0 818.03,0 818.03,-19"/>
<text text-anchor="middle" x="762.03" y="-7" font-family="Malgun Gothic" font-size="10.00">Engine/DataAsset.h</text>
</a>
</g>
</g>
<!-- Node7&#45;&gt;Node8 -->
<g id="edge9_Node000007_Node000008" class="edge">
<title>Node7&#45;&gt;Node8</title>
<g id="a_edge9_Node000007_Node000008"><a xlink:title=" ">
<path fill="none" stroke="#63b8ff" d="M912.27,-54.98C882.09,-46.05 834.45,-31.94 800.93,-22.02"/>
<polygon fill="#63b8ff" stroke="#63b8ff" points="801.6,-18.57 791.01,-19.08 799.61,-25.28 801.6,-18.57"/>
</a>
</g>
</g>
<!-- Node9 -->
<g id="Node000009" class="node">
<title>Node9</title>
<g id="a_Node000009"><a xlink:title=" ">
<polygon fill="#e0e0e0" stroke="#999999" points="991.53,-19 836.53,-19 836.53,0 991.53,0 991.53,-19"/>
<text text-anchor="middle" x="914.03" y="-7" font-family="Malgun Gothic" font-size="10.00">UVFXDataAsset.generated.h</text>
</a>
</g>
</g>
<!-- Node7&#45;&gt;Node9 -->
<g id="edge10_Node000007_Node000009" class="edge">
<title>Node7&#45;&gt;Node9</title>
<g id="a_edge10_Node000007_Node000009"><a xlink:title=" ">
<path fill="none" stroke="#63b8ff" d="M936.57,-54.75C932.91,-47.57 927.62,-37.18 923.08,-28.27"/>
<polygon fill="#63b8ff" stroke="#63b8ff" points="926.06,-26.41 918.4,-19.09 919.82,-29.59 926.06,-26.41"/>
</a>
</g>
</g>
<!-- Node12&#45;&gt;Node3 -->
<g id="edge15_Node000012_Node000003" class="edge">
<title>Node12&#45;&gt;Node3</title>
<g id="a_edge15_Node000012_Node000003"><a xlink:title=" ">
<path fill="none" stroke="#63b8ff" d="M170.4,-118.57C95.9,-117.16 -37,-107.5 10.03,-55 32.95,-29.41 254.84,-17 359.67,-12.53"/>
<polygon fill="#63b8ff" stroke="#63b8ff" points="359.9,-16.02 369.75,-12.11 359.61,-9.03 359.9,-16.02"/>
</a>
</g>
</g>
<!-- Node13 -->
<g id="Node000013" class="node">
<title>Node13</title>
<g id="a_Node000013"><a xlink:title=" ">
<polygon fill="#e0e0e0" stroke="#999999" points="336.53,-74 217.53,-74 217.53,-55 336.53,-55 336.53,-74"/>
<text text-anchor="middle" x="277.03" y="-62" font-family="Malgun Gothic" font-size="10.00">Logging/LogMacros.h</text>
</a>
</g>
</g>
<!-- Node12&#45;&gt;Node13 -->
<g id="edge16_Node000012_Node000013" class="edge">
<title>Node12&#45;&gt;Node13</title>
<g id="a_edge16_Node000012_Node000013"><a xlink:title=" ">
<path fill="none" stroke="#63b8ff" d="M226.67,-109.98C235.54,-102.15 248.9,-90.34 259.64,-80.86"/>
<polygon fill="#63b8ff" stroke="#63b8ff" points="262.04,-83.41 267.21,-74.17 257.4,-78.17 262.04,-83.41"/>
</a>
</g>
</g>
<!-- Node14 -->
<g id="Node000014" class="node">
<title>Node14</title>
<g id="a_Node000014"><a xlink:title=" ">
<polygon fill="#e0e0e0" stroke="#999999" points="449.53,-74 354.53,-74 354.53,-55 449.53,-55 449.53,-74"/>
<text text-anchor="middle" x="402.03" y="-62" font-family="Malgun Gothic" font-size="10.00">Engine/Engine.h</text>
</a>
</g>
</g>
<!-- Node12&#45;&gt;Node14 -->
<g id="edge17_Node000012_Node000014" class="edge">
<title>Node12&#45;&gt;Node14</title>
<g id="a_edge17_Node000012_Node000014"><a xlink:title=" ">
<path fill="none" stroke="#63b8ff" d="M246.75,-109.98C278.08,-101.01 327.6,-86.82 362.27,-76.89"/>
<polygon fill="#63b8ff" stroke="#63b8ff" points="363.42,-80.2 372.07,-74.08 361.49,-73.47 363.42,-80.2"/>
</a>
</g>
</g>
<!-- Node15 -->
<g id="Node000015" class="node">
<title>Node15</title>
<g id="a_Node000015"><a xlink:href="FLogWriter_8h.html" target="_top" xlink:title="FLogWriter 선언에 대한 Doxygen 주석을 제공합니다.">
<polygon fill="white" stroke="#666666" points="97.03,-74 19.03,-74 19.03,-55 97.03,-55 97.03,-74"/>
<text text-anchor="middle" x="58.03" y="-62" font-family="Malgun Gothic" font-size="10.00">FLogWriter.h</text>
</a>
</g>
</g>
<!-- Node12&#45;&gt;Node15 -->
<g id="edge18_Node000012_Node000015" class="edge">
<title>Node12&#45;&gt;Node15</title>
<g id="a_edge18_Node000012_Node000015"><a xlink:title=" ">
<path fill="none" stroke="#63b8ff" d="M191.48,-109.98C164.9,-101.13 123.09,-87.19 93.36,-77.28"/>
<polygon fill="#63b8ff" stroke="#63b8ff" points="94.37,-73.92 83.77,-74.08 92.15,-80.56 94.37,-73.92"/>
</a>
</g>
</g>
<!-- Node16 -->
<g id="Node000016" class="node">
<title>Node16</title>
<g id="a_Node000016"><a xlink:href="NetworkLog_8h.html" target="_top" xlink:title="NetworkLog 선언에 대한 Doxygen 주석을 제공합니다.">
<polygon fill="white" stroke="#666666" points="199.03,-74 115.03,-74 115.03,-55 199.03,-55 199.03,-74"/>
<text text-anchor="middle" x="157.03" y="-62" font-family="Malgun Gothic" font-size="10.00">NetworkLog.h</text>
</a>
</g>
</g>
<!-- Node12&#45;&gt;Node16 -->
<g id="edge20_Node000012_Node000016" class="edge">
<title>Node12&#45;&gt;Node16</title>
<g id="a_edge20_Node000012_Node000016"><a xlink:title=" ">
<path fill="none" stroke="#63b8ff" d="M207.39,-109.98C198.52,-102.15 185.15,-90.34 174.42,-80.86"/>
<polygon fill="#63b8ff" stroke="#63b8ff" points="176.66,-78.17 166.84,-74.17 172.02,-83.41 176.66,-78.17"/>
</a>
</g>
</g>
<!-- Node15&#45;&gt;Node3 -->
<g id="edge19_Node000015_Node000003" class="edge">
<title>Node15&#45;&gt;Node3</title>
<g id="a_edge19_Node000015_Node000003"><a xlink:title=" ">
<path fill="none" stroke="#63b8ff" d="M97.04,-56.48C100.08,-55.97 103.1,-55.47 106.03,-55 194.65,-40.75 297.97,-26.26 359.58,-17.83"/>
<polygon fill="#63b8ff" stroke="#63b8ff" points="360.41,-21.25 369.84,-16.43 359.46,-14.32 360.41,-21.25"/>
</a>
</g>
</g>
<!-- Node16&#45;&gt;Node3 -->
<g id="edge21_Node000016_Node000003" class="edge">
<title>Node16&#45;&gt;Node3</title>
<g id="a_edge21_Node000016_Node000003"><a xlink:title=" ">
<path fill="none" stroke="#63b8ff" d="M198.32,-54.98C242.96,-45.78 314.19,-31.09 362.48,-21.13"/>
<polygon fill="#63b8ff" stroke="#63b8ff" points="363.33,-24.53 372.41,-19.08 361.91,-17.67 363.33,-24.53"/>
</a>
</g>
</g>
<!-- Node18&#45;&gt;Node3 -->
<g id="edge25_Node000018_Node000003" class="edge">
<title>Node18&#45;&gt;Node3</title>
<g id="a_edge25_Node000018_Node000003"><a xlink:title=" ">
<path fill="none" stroke="#63b8ff" d="M777.89,-109.81C794.1,-96.91 819.51,-72.35 804.03,-55 782.07,-30.39 570.27,-17.55 468.33,-12.76"/>
<polygon fill="#63b8ff" stroke="#63b8ff" points="468.38,-9.25 458.23,-12.29 468.06,-16.25 468.38,-9.25"/>
</a>
</g>
</g>
<!-- Node19 -->
<g id="Node000019" class="node">
<title>Node19</title>
<g id="a_Node000019"><a xlink:title=" ">
<polygon fill="#e0e0e0" stroke="#999999" points="604.53,-74 467.53,-74 467.53,-55 604.53,-55 604.53,-74"/>
<text text-anchor="middle" x="536.03" y="-62" font-family="Malgun Gothic" font-size="10.00">GameFramework/Actor.h</text>
</a>
</g>
</g>
<!-- Node18&#45;&gt;Node19 -->
<g id="edge26_Node000018_Node000019" class="edge">
<title>Node18&#45;&gt;Node19</title>
<g id="a_edge26_Node000018_Node000019"><a xlink:title=" ">
<path fill="none" stroke="#63b8ff" d="M729.07,-109.98C689.46,-100.86 626.44,-86.33 583.25,-76.38"/>
<polygon fill="#63b8ff" stroke="#63b8ff" points="583.8,-72.92 573.27,-74.08 582.23,-79.74 583.8,-72.92"/>
</a>
</g>
</g>
<!-- Node20 -->
<g id="Node000020" class="node">
<title>Node20</title>
<g id="a_Node000020"><a xlink:title=" ">
<polygon fill="#e0e0e0" stroke="#999999" points="795.03,-74 623.03,-74 623.03,-55 795.03,-55 795.03,-74"/>
<text text-anchor="middle" x="709.03" y="-62" font-family="Malgun Gothic" font-size="10.00">Components/ActorComponent.h</text>
</a>
</g>
</g>
<!-- Node18&#45;&gt;Node20 -->
<g id="edge27_Node000018_Node000020" class="edge">
<title>Node18&#45;&gt;Node20</title>
<g id="a_edge27_Node000018_Node000020"><a xlink:title=" ">
<path fill="none" stroke="#63b8ff" d="M756.87,-109.98C748.53,-102.23 736,-90.58 725.85,-81.14"/>
<polygon fill="#63b8ff" stroke="#63b8ff" points="728.06,-78.42 718.35,-74.17 723.29,-83.54 728.06,-78.42"/>
</a>
</g>
</g>
</g>
</svg>

<g id="navigator" transform="translate(0 0)" fill="#404254">
  <rect fill="#f2f5e9" fill-opacity="0.5" stroke="#606060" stroke-width=".5" x="0" y="0" width="60" height="60"/>
  <use id="zoomplus" xlink:href="#zoomPlus" x="17" y="9" onmousedown="handleZoom(evt,'in')"/>
  <use id="zoomminus" xlink:href="#zoomMin" x="42" y="9" onmousedown="handleZoom(evt,'out')"/>
  <use id="reset" xlink:href="#resetDef" x="30" y="36" onmousedown="handleReset()"/>
   <use id="arrowup" xlink:href="#arrowUp" x="0" y="0" onmousedown="handlePan(0,-1)"/>
  <use id="arrowright" xlink:href="#arrowRight" x="0" y="0" onmousedown="handlePan(1,0)"/>
  <use id="arrowdown" xlink:href="#arrowDown" x="0" y="0" onmousedown="handlePan(0,1)"/>
  <use id="arrowleft" xlink:href="#arrowLeft" x="0" y="0" onmousedown="handlePan(-1,0)"/>
</g>
<svg viewBox="0 0 15 15" width="100%" height="30px" preserveAspectRatio="xMaxYMin meet">
 <g id="arrow_out" transform="scale(0.3 0.3)">
  <a xlink:href="UGameVFXManager_8cpp__incl_org.svg" target="_base">
   <rect id="button" ry="5" rx="5" y="6" x="6" height="38" width="38"
        fill="#f2f5e9" fill-opacity="0.5" stroke="#606060" stroke-width="1.0"/>
   <path id="arrow"
     d="M 11.500037,31.436501 C 11.940474,20.09759 22.043105,11.32322 32.158766,21.979434 L 37.068811,17.246167 C 37.068811,17.246167 37.088388,32 37.088388,32 L 22.160133,31.978069 C 22.160133,31.978069 26.997745,27.140456 26.997745,27.140456 C 18.528582,18.264221 13.291696,25.230495 11.500037,31.436501 z"
     style="fill:#404040;"/>
  </a>
 </g>
</svg>

<style type='text/css'>
<![CDATA[
[data-mouse-over-selected='false'] { opacity: 0.7; }
[data-mouse-over-selected='true']  { opacity: 1.0; }
]]>
</style>
<script type="application/ecmascript"><![CDATA[
document.addEventListener('DOMContentLoaded', (event) => {
  highlightEdges();
  highlightAdjacentNodes();
});
]]></script>
</svg>
