<?xml version="1.0" encoding="UTF-8" standalone="no"?>
<!DOCTYPE svg PUBLIC "-//W3C//DTD SVG 1.1//EN"
 "http://www.w3.org/Graphics/SVG/1.1/DTD/svg11.dtd">
<!-- Generated by graphviz version 2.43.0 (0)
 -->
<!-- Title: Source/LatteLibrary/Manager/Public/UGameDataManager.h Pages: 1 -->
<svg width="1390pt" height="148pt"
 viewBox="0.00 0.00 1389.50 148.00" xmlns="http://www.w3.org/2000/svg" xmlns:xlink="http://www.w3.org/1999/xlink">
<g id="graph0" class="graph" transform="scale(1 1) rotate(0) translate(4 144)">
<title>Source/LatteLibrary/Manager/Public/UGameDataManager.h</title>
<!-- Node1 -->
<g id="Node000001" class="node">
<title>Node1</title>
<g id="a_Node000001"><a xlink:title="UGameDataManager 선언에 대한 Doxygen 주석을 제공합니다.">
<polygon fill="#999999" stroke="#666666" points="851,-140 642,-140 642,-110 851,-110 851,-140"/>
<text text-anchor="start" x="650" y="-128" font-family="Malgun Gothic" font-size="10.00">Source/LatteLibrary</text>
<text text-anchor="middle" x="746.5" y="-117" font-family="Malgun Gothic" font-size="10.00">/Manager/Public/UGameDataManager.h</text>
</a>
</g>
</g>
<!-- Node2 -->
<g id="Node000002" class="node">
<title>Node2</title>
<g id="a_Node000002"><a xlink:title=" ">
<polygon fill="#e0e0e0" stroke="#999999" points="669.5,-19 581.5,-19 581.5,0 669.5,0 669.5,-19"/>
<text text-anchor="middle" x="625.5" y="-7" font-family="Malgun Gothic" font-size="10.00">CoreMinimal.h</text>
</a>
</g>
</g>
<!-- Node1&#45;&gt;Node2 -->
<g id="edge1_Node000001_Node000002" class="edge">
<title>Node1&#45;&gt;Node2</title>
<g id="a_edge1_Node000001_Node000002"><a xlink:title=" ">
<path fill="none" stroke="#63b8ff" d="M651.92,-109.91C632.2,-102.45 613.71,-91.13 601.5,-74 591.4,-59.83 600.93,-40.88 610.81,-27.38"/>
<polygon fill="#63b8ff" stroke="#63b8ff" points="613.67,-29.41 617.15,-19.4 608.19,-25.05 613.67,-29.41"/>
</a>
</g>
</g>
<!-- Node3 -->
<g id="Node000003" class="node">
<title>Node3</title>
<g id="a_Node000003"><a xlink:href="Macro_8h.html" target="_top" xlink:title="Manager 모듈에서 공통으로 사용하는 매크로 정의에 대한 Doxygen 주석을 제공합니다.">
<polygon fill="white" stroke="#666666" points="953.5,-74 897.5,-74 897.5,-55 953.5,-55 953.5,-74"/>
<text text-anchor="middle" x="925.5" y="-62" font-family="Malgun Gothic" font-size="10.00">Macro.h</text>
</a>
</g>
</g>
<!-- Node1&#45;&gt;Node3 -->
<g id="edge2_Node000001_Node000003" class="edge">
<title>Node1&#45;&gt;Node3</title>
<g id="a_edge2_Node000001_Node000003"><a xlink:title=" ">
<path fill="none" stroke="#63b8ff" d="M789.37,-109.99C820,-99.98 860.73,-86.67 889.63,-77.22"/>
<polygon fill="#63b8ff" stroke="#63b8ff" points="890.91,-80.49 899.33,-74.05 888.73,-73.83 890.91,-80.49"/>
</a>
</g>
</g>
<!-- Node4 -->
<g id="Node000004" class="node">
<title>Node4</title>
<g id="a_Node000004"><a xlink:href="FHitStopData_8h.html" target="_top" xlink:title="FHitStopData 구조체에 대한 Doxygen 주석을 제공합니다.">
<polygon fill="white" stroke="#666666" points="554,-74 463,-74 463,-55 554,-55 554,-74"/>
<text text-anchor="middle" x="508.5" y="-62" font-family="Malgun Gothic" font-size="10.00">FHitStopData.h</text>
</a>
</g>
</g>
<!-- Node1&#45;&gt;Node4 -->
<g id="edge3_Node000001_Node000004" class="edge">
<title>Node1&#45;&gt;Node4</title>
<g id="a_edge3_Node000001_Node000004"><a xlink:title=" ">
<path fill="none" stroke="#63b8ff" d="M689.49,-109.99C647.71,-99.72 591.77,-85.97 553.2,-76.49"/>
<polygon fill="#63b8ff" stroke="#63b8ff" points="553.85,-73.04 543.3,-74.05 552.17,-79.84 553.85,-73.04"/>
</a>
</g>
</g>
<!-- Node8 -->
<g id="Node000008" class="node">
<title>Node8</title>
<g id="a_Node000008"><a xlink:href="FKnockbackData_8h.html" target="_top" xlink:title="FKnockbackData 구조체에 대한 Doxygen 주석을 제공합니다.">
<polygon fill="white" stroke="#666666" points="444.5,-74 336.5,-74 336.5,-55 444.5,-55 444.5,-74"/>
<text text-anchor="middle" x="390.5" y="-62" font-family="Malgun Gothic" font-size="10.00">FKnockbackData.h</text>
</a>
</g>
</g>
<!-- Node1&#45;&gt;Node8 -->
<g id="edge8_Node000001_Node000008" class="edge">
<title>Node1&#45;&gt;Node8</title>
<g id="a_edge8_Node000001_Node000008"><a xlink:title=" ">
<path fill="none" stroke="#63b8ff" d="M661.23,-109.99C596.9,-99.42 510.16,-85.16 452.38,-75.67"/>
<polygon fill="#63b8ff" stroke="#63b8ff" points="452.73,-72.18 442.29,-74.01 451.59,-79.09 452.73,-72.18"/>
</a>
</g>
</g>
<!-- Node10 -->
<g id="Node000010" class="node">
<title>Node10</title>
<g id="a_Node000010"><a xlink:href="FCharacterInfoData_8h.html" target="_top" xlink:title="FCharacterInfoData 구조체에 대한 Doxygen 주석을 제공합니다.">
<polygon fill="white" stroke="#666666" points="879,-74 758,-74 758,-55 879,-55 879,-74"/>
<text text-anchor="middle" x="818.5" y="-62" font-family="Malgun Gothic" font-size="10.00">FCharacterInfoData.h</text>
</a>
</g>
</g>
<!-- Node1&#45;&gt;Node10 -->
<g id="edge13_Node000001_Node000010" class="edge">
<title>Node1&#45;&gt;Node10</title>
<g id="a_edge13_Node000001_Node000010"><a xlink:title=" ">
<path fill="none" stroke="#63b8ff" d="M763.93,-109.84C774.81,-101 788.8,-89.63 799.89,-80.62"/>
<polygon fill="#63b8ff" stroke="#63b8ff" points="802.16,-83.29 807.71,-74.27 797.74,-77.86 802.16,-83.29"/>
</a>
</g>
</g>
<!-- Node13 -->
<g id="Node000013" class="node">
<title>Node13</title>
<g id="a_Node000013"><a xlink:href="FCharacterAssetData_8h.html" target="_top" xlink:title="FCharacterAssetData 구조체에 대한 Doxygen 주석을 제공합니다.">
<polygon fill="white" stroke="#666666" points="740,-74 611,-74 611,-55 740,-55 740,-74"/>
<text text-anchor="middle" x="675.5" y="-62" font-family="Malgun Gothic" font-size="10.00">FCharacterAssetData.h</text>
</a>
</g>
</g>
<!-- Node1&#45;&gt;Node13 -->
<g id="edge18_Node000001_Node000013" class="edge">
<title>Node1&#45;&gt;Node13</title>
<g id="a_edge18_Node000001_Node000013"><a xlink:title=" ">
<path fill="none" stroke="#63b8ff" d="M729.31,-109.84C718.69,-101.09 705.06,-89.85 694.17,-80.88"/>
<polygon fill="#63b8ff" stroke="#63b8ff" points="696.08,-77.92 686.14,-74.27 691.63,-83.33 696.08,-77.92"/>
</a>
</g>
</g>
<!-- Node15 -->
<g id="Node000015" class="node">
<title>Node15</title>
<g id="a_Node000015"><a xlink:title=" ">
<polygon fill="#e0e0e0" stroke="#999999" points="1183.5,-74 971.5,-74 971.5,-55 1183.5,-55 1183.5,-74"/>
<text text-anchor="middle" x="1077.5" y="-62" font-family="Malgun Gothic" font-size="10.00">Subsystems/GameInstanceSubsystem.h</text>
</a>
</g>
</g>
<!-- Node1&#45;&gt;Node15 -->
<g id="edge23_Node000001_Node000015" class="edge">
<title>Node1&#45;&gt;Node15</title>
<g id="a_edge23_Node000001_Node000015"><a xlink:title=" ">
<path fill="none" stroke="#63b8ff" d="M825.78,-109.99C885.26,-99.48 965.34,-85.32 1019.06,-75.83"/>
<polygon fill="#63b8ff" stroke="#63b8ff" points="1019.86,-79.24 1029.1,-74.05 1018.65,-72.35 1019.86,-79.24"/>
</a>
</g>
</g>
<!-- Node16 -->
<g id="Node000016" class="node">
<title>Node16</title>
<g id="a_Node000016"><a xlink:title=" ">
<polygon fill="#e0e0e0" stroke="#999999" points="1381.5,-74 1201.5,-74 1201.5,-55 1381.5,-55 1381.5,-74"/>
<text text-anchor="middle" x="1291.5" y="-62" font-family="Malgun Gothic" font-size="10.00">UGameDataManager.generated.h</text>
</a>
</g>
</g>
<!-- Node1&#45;&gt;Node16 -->
<g id="edge24_Node000001_Node000016" class="edge">
<title>Node1&#45;&gt;Node16</title>
<g id="a_edge24_Node000001_Node000016"><a xlink:title=" ">
<path fill="none" stroke="#63b8ff" d="M851.26,-112.76C953.09,-101.82 1106.08,-85.4 1202.27,-75.08"/>
<polygon fill="#63b8ff" stroke="#63b8ff" points="1202.69,-78.55 1212.26,-74.01 1201.95,-71.59 1202.69,-78.55"/>
</a>
</g>
</g>
<!-- Node4&#45;&gt;Node2 -->
<g id="edge4_Node000004_Node000002" class="edge">
<title>Node4&#45;&gt;Node2</title>
<g id="a_edge4_Node000004_Node000002"><a xlink:title=" ">
<path fill="none" stroke="#63b8ff" d="M527.3,-54.98C546.12,-46.46 575.32,-33.23 597,-23.41"/>
<polygon fill="#63b8ff" stroke="#63b8ff" points="598.7,-26.48 606.36,-19.17 595.81,-20.11 598.7,-26.48"/>
</a>
</g>
</g>
<!-- Node5 -->
<g id="Node000005" class="node">
<title>Node5</title>
<g id="a_Node000005"><a xlink:href="EDamageType_8h.html" target="_top" xlink:title="EDamageType 열거형에 대한 Doxygen 주석을 제공합니다.">
<polygon fill="white" stroke="#666666" points="274,-19 179,-19 179,0 274,0 274,-19"/>
<text text-anchor="middle" x="226.5" y="-7" font-family="Malgun Gothic" font-size="10.00">EDamageType.h</text>
</a>
</g>
</g>
<!-- Node4&#45;&gt;Node5 -->
<g id="edge5_Node000004_Node000005" class="edge">
<title>Node4&#45;&gt;Node5</title>
<g id="a_edge5_Node000004_Node000005"><a xlink:title=" ">
<path fill="none" stroke="#63b8ff" d="M463.19,-54.98C413.9,-45.72 335.07,-30.9 282.07,-20.94"/>
<polygon fill="#63b8ff" stroke="#63b8ff" points="282.64,-17.49 272.16,-19.08 281.34,-24.37 282.64,-17.49"/>
</a>
</g>
</g>
<!-- Node6 -->
<g id="Node000006" class="node">
<title>Node6</title>
<g id="a_Node000006"><a xlink:title=" ">
<polygon fill="#e0e0e0" stroke="#999999" points="563.5,-19 453.5,-19 453.5,0 563.5,0 563.5,-19"/>
<text text-anchor="middle" x="508.5" y="-7" font-family="Malgun Gothic" font-size="10.00">Engine/DataTable.h</text>
</a>
</g>
</g>
<!-- Node4&#45;&gt;Node6 -->
<g id="edge6_Node000004_Node000006" class="edge">
<title>Node4&#45;&gt;Node6</title>
<g id="a_edge6_Node000004_Node000006"><a xlink:title=" ">
<path fill="none" stroke="#63b8ff" d="M508.5,-54.75C508.5,-47.8 508.5,-37.85 508.5,-29.13"/>
<polygon fill="#63b8ff" stroke="#63b8ff" points="512,-29.09 508.5,-19.09 505,-29.09 512,-29.09"/>
</a>
</g>
</g>
<!-- Node7 -->
<g id="Node000007" class="node">
<title>Node7</title>
<g id="a_Node000007"><a xlink:title=" ">
<polygon fill="#e0e0e0" stroke="#999999" points="435,-19 292,-19 292,0 435,0 435,-19"/>
<text text-anchor="middle" x="363.5" y="-7" font-family="Malgun Gothic" font-size="10.00">FHitStopData.generated.h</text>
</a>
</g>
</g>
<!-- Node4&#45;&gt;Node7 -->
<g id="edge7_Node000004_Node000007" class="edge">
<title>Node4&#45;&gt;Node7</title>
<g id="a_edge7_Node000004_Node000007"><a xlink:title=" ">
<path fill="none" stroke="#63b8ff" d="M485.2,-54.98C461.25,-46.23 423.72,-32.51 396.67,-22.62"/>
<polygon fill="#63b8ff" stroke="#63b8ff" points="397.81,-19.32 387.22,-19.17 395.41,-25.89 397.81,-19.32"/>
</a>
</g>
</g>
<!-- Node8&#45;&gt;Node2 -->
<g id="edge9_Node000008_Node000002" class="edge">
<title>Node8&#45;&gt;Node2</title>
<g id="a_edge9_Node000008_Node000002"><a xlink:title=" ">
<path fill="none" stroke="#63b8ff" d="M428.26,-54.98C468.82,-45.84 533.39,-31.27 577.53,-21.32"/>
<polygon fill="#63b8ff" stroke="#63b8ff" points="578.46,-24.7 587.45,-19.08 576.92,-17.87 578.46,-24.7"/>
</a>
</g>
</g>
<!-- Node8&#45;&gt;Node5 -->
<g id="edge10_Node000008_Node000005" class="edge">
<title>Node8&#45;&gt;Node5</title>
<g id="a_edge10_Node000008_Node000005"><a xlink:title=" ">
<path fill="none" stroke="#63b8ff" d="M364.15,-54.98C336.74,-46.13 293.61,-32.19 262.94,-22.28"/>
<polygon fill="#63b8ff" stroke="#63b8ff" points="263.65,-18.83 253.06,-19.08 261.5,-25.49 263.65,-18.83"/>
</a>
</g>
</g>
<!-- Node8&#45;&gt;Node6 -->
<g id="edge11_Node000008_Node000006" class="edge">
<title>Node8&#45;&gt;Node6</title>
<g id="a_edge11_Node000008_Node000006"><a xlink:title=" ">
<path fill="none" stroke="#63b8ff" d="M409.46,-54.98C428.53,-46.42 458.16,-33.11 480.05,-23.28"/>
<polygon fill="#63b8ff" stroke="#63b8ff" points="481.51,-26.46 489.2,-19.17 478.64,-20.07 481.51,-26.46"/>
</a>
</g>
</g>
<!-- Node9 -->
<g id="Node000009" class="node">
<title>Node9</title>
<g id="a_Node000009"><a xlink:title=" ">
<polygon fill="#e0e0e0" stroke="#999999" points="161,-19 0,-19 0,0 161,0 161,-19"/>
<text text-anchor="middle" x="80.5" y="-7" font-family="Malgun Gothic" font-size="10.00">FKnockbackData.generated.h</text>
</a>
</g>
</g>
<!-- Node8&#45;&gt;Node9 -->
<g id="edge12_Node000008_Node000009" class="edge">
<title>Node8&#45;&gt;Node9</title>
<g id="a_edge12_Node000008_Node000009"><a xlink:title=" ">
<path fill="none" stroke="#63b8ff" d="M340.69,-54.98C286.2,-45.67 198.87,-30.74 140.61,-20.78"/>
<polygon fill="#63b8ff" stroke="#63b8ff" points="140.89,-17.27 130.44,-19.04 139.71,-24.17 140.89,-17.27"/>
</a>
</g>
</g>
<!-- Node10&#45;&gt;Node2 -->
<g id="edge14_Node000010_Node000002" class="edge">
<title>Node10&#45;&gt;Node2</title>
<g id="a_edge14_Node000010_Node000002"><a xlink:title=" ">
<path fill="none" stroke="#63b8ff" d="M787.49,-54.98C754.67,-45.97 702.7,-31.7 666.51,-21.76"/>
<polygon fill="#63b8ff" stroke="#63b8ff" points="667.32,-18.36 656.75,-19.08 665.47,-25.11 667.32,-18.36"/>
</a>
</g>
</g>
<!-- Node10&#45;&gt;Node6 -->
<g id="edge16_Node000010_Node000006" class="edge">
<title>Node10&#45;&gt;Node6</title>
<g id="a_edge16_Node000010_Node000006"><a xlink:title=" ">
<path fill="none" stroke="#63b8ff" d="M768.69,-54.98C714.2,-45.67 626.87,-30.74 568.61,-20.78"/>
<polygon fill="#63b8ff" stroke="#63b8ff" points="568.89,-17.27 558.44,-19.04 567.71,-24.17 568.89,-17.27"/>
</a>
</g>
</g>
<!-- Node11 -->
<g id="Node000011" class="node">
<title>Node11</title>
<g id="a_Node000011"><a xlink:href="ECharacterType_8h.html" target="_top" xlink:title="ECharacterType 열거형에 대한 Doxygen 주석을 제공합니다.">
<polygon fill="white" stroke="#666666" points="989,-19 888,-19 888,0 989,0 989,-19"/>
<text text-anchor="middle" x="938.5" y="-7" font-family="Malgun Gothic" font-size="10.00">ECharacterType.h</text>
</a>
</g>
</g>
<!-- Node10&#45;&gt;Node11 -->
<g id="edge15_Node000010_Node000011" class="edge">
<title>Node10&#45;&gt;Node11</title>
<g id="a_edge15_Node000010_Node000011"><a xlink:title=" ">
<path fill="none" stroke="#63b8ff" d="M837.78,-54.98C857.17,-46.42 887.31,-33.11 909.57,-23.28"/>
<polygon fill="#63b8ff" stroke="#63b8ff" points="911.14,-26.41 918.87,-19.17 908.31,-20.01 911.14,-26.41"/>
</a>
</g>
</g>
<!-- Node12 -->
<g id="Node000012" class="node">
<title>Node12</title>
<g id="a_Node000012"><a xlink:title=" ">
<polygon fill="#e0e0e0" stroke="#999999" points="1180,-19 1007,-19 1007,0 1180,0 1180,-19"/>
<text text-anchor="middle" x="1093.5" y="-7" font-family="Malgun Gothic" font-size="10.00">FCharacterInfoData.generated.h</text>
</a>
</g>
</g>
<!-- Node10&#45;&gt;Node12 -->
<g id="edge17_Node000010_Node000012" class="edge">
<title>Node10&#45;&gt;Node12</title>
<g id="a_edge17_Node000010_Node000012"><a xlink:title=" ">
<path fill="none" stroke="#63b8ff" d="M862.68,-54.98C910.65,-45.74 987.31,-30.97 1038.98,-21.01"/>
<polygon fill="#63b8ff" stroke="#63b8ff" points="1039.81,-24.41 1048.97,-19.08 1038.49,-17.54 1039.81,-24.41"/>
</a>
</g>
</g>
<!-- Node13&#45;&gt;Node2 -->
<g id="edge19_Node000013_Node000002" class="edge">
<title>Node13&#45;&gt;Node2</title>
<g id="a_edge19_Node000013_Node000002"><a xlink:title=" ">
<path fill="none" stroke="#63b8ff" d="M667.24,-54.75C660.04,-47.11 649.39,-35.82 640.65,-26.56"/>
<polygon fill="#63b8ff" stroke="#63b8ff" points="643.01,-23.96 633.6,-19.09 637.92,-28.76 643.01,-23.96"/>
</a>
</g>
</g>
<!-- Node13&#45;&gt;Node6 -->
<g id="edge21_Node000013_Node000006" class="edge">
<title>Node13&#45;&gt;Node6</title>
<g id="a_edge21_Node000013_Node000006"><a xlink:title=" ">
<path fill="none" stroke="#63b8ff" d="M648.67,-54.98C620.63,-46.09 576.45,-32.07 545.2,-22.15"/>
<polygon fill="#63b8ff" stroke="#63b8ff" points="546.13,-18.77 535.54,-19.08 544.01,-25.44 546.13,-18.77"/>
</a>
</g>
</g>
<!-- Node13&#45;&gt;Node11 -->
<g id="edge20_Node000013_Node000011" class="edge">
<title>Node13&#45;&gt;Node11</title>
<g id="a_edge20_Node000013_Node000011"><a xlink:title=" ">
<path fill="none" stroke="#63b8ff" d="M717.76,-54.98C763.54,-45.76 836.64,-31.03 886.05,-21.07"/>
<polygon fill="#63b8ff" stroke="#63b8ff" points="886.8,-24.49 895.91,-19.08 885.42,-17.63 886.8,-24.49"/>
</a>
</g>
</g>
<!-- Node14 -->
<g id="Node000014" class="node">
<title>Node14</title>
<g id="a_Node000014"><a xlink:title=" ">
<polygon fill="#e0e0e0" stroke="#999999" points="869.5,-19 687.5,-19 687.5,0 869.5,0 869.5,-19"/>
<text text-anchor="middle" x="778.5" y="-7" font-family="Malgun Gothic" font-size="10.00">FCharacterAssetData.generated.h</text>
</a>
</g>
</g>
<!-- Node13&#45;&gt;Node14 -->
<g id="edge22_Node000013_Node000014" class="edge">
<title>Node13&#45;&gt;Node14</title>
<g id="a_edge22_Node000013_Node000014"><a xlink:title=" ">
<path fill="none" stroke="#63b8ff" d="M692.05,-54.98C708.39,-46.57 733.63,-33.59 752.63,-23.81"/>
<polygon fill="#63b8ff" stroke="#63b8ff" points="754.36,-26.86 761.65,-19.17 751.16,-20.63 754.36,-26.86"/>
</a>
</g>
</g>
</g>
</svg>
