<?xml version="1.0" encoding="UTF-8" standalone="no"?>
<!DOCTYPE svg PUBLIC "-//W3C//DTD SVG 1.1//EN"
 "http://www.w3.org/Graphics/SVG/1.1/DTD/svg11.dtd">
<!-- Generated by graphviz version 2.43.0 (0)
 -->
<!-- Title: Source/LatteLibrary/Manager/Private/UGameVFXManager.cpp Pages: 1 -->
<!--zoomable 203 -->

<svg id="main" version="1.1" xmlns="http://www.w3.org/2000/svg" xmlns:xlink="http://www.w3.org/1999/xlink" xml:space="preserve" onload="init(evt)">
<style type="text/css"><![CDATA[
.node, .edge {opacity: 0.7;}
.node.selected, .edge.selected {opacity: 1;}
.edge:hover path { stroke: red; }
.edge:hover polygon { stroke: red; fill: red; }
]]></style>

<defs>
  <circle id="rim" cx="0" cy="0" r="7"/>
  <circle id="rim2" cx="0" cy="0" r="3.5"/>
  <g id="zoomPlus">
    <use xlink:href="#rim" fill="#404040"><set attributeName="fill" to="#808080" begin="zoomplus.mouseover" end="zoomplus.mouseout"/></use>
    <path d="M-4,0h8M0,-4v8" fill="none" stroke="white" stroke-width="1.5" pointer-events="none"/>
  </g>
  <g id="zoomMin">
    <use xlink:href="#rim" fill="#404040"><set attributeName="fill" to="#808080" begin="zoomminus.mouseover" end="zoomminus.mouseout"/></use>
    <path d="M-4,0h8" fill="none" stroke="white" stroke-width="1.5" pointer-events="none"/>
  </g>
  <g id="arrowUp" transform="translate(30 24)">
    <use xlink:href="#rim"/>
    <path pointer-events="none" fill="none" stroke="white" stroke-width="1.5" d="M0,-3.0v7 M-2.5,-0.5L0,-3.0L2.5,-0.5"/>
  </g>
  <g id="arrowRight" transform="rotate(90) translate(36 -43)">
    <use xlink:href="#rim"/>
    <path pointer-events="none" fill="none" stroke="white" stroke-width="1.5" d="M0,-3.0v7 M-2.5,-0.5L0,-3.0L2.5,-0.5"/>
  </g>
  <g id="arrowDown" transform="rotate(180) translate(-30 -48)">
    <use xlink:href="#rim"/>
    <path pointer-events="none" fill="none" stroke="white" stroke-width="1.5" d="M0,-3.0v7 M-2.5,-0.5L0,-3.0L2.5,-0.5"/>
  </g>
  <g id="arrowLeft" transform="rotate(270) translate(-36 17)">
    <use xlink:href="#rim"/>
    <path pointer-events="none" fill="none" stroke="white" stroke-width="1.5" d="M0,-3.0v7 M-2.5,-0.5L0,-3.0L2.5,-0.5"/>
  </g>
  <g id="resetDef">
    <use xlink:href="#rim2" fill="#404040"><set attributeName="fill" to="#808080" begin="reset.mouseover" end="reset.mouseout"/></use>
  </g>
</defs>
<script type="application/ecmascript">
var viewWidth = 1535;
var viewHeight = 203;
var sectionId = 'dynsection-0';
</script>
<script type="application/ecmascript" xlink:href="svg.min.js"/>
<svg id="graph" class="graph">
<g id="viewport">
<title>Source/LatteLibrary/Manager/Private/UGameVFXManager.cpp</title>
<!-- Node1 -->
<g id="Node000001" class="node">
<title>Node1</title>
<g id="a_Node000001"><a xlink:title="UGameVFXManager 구현에 대한 Doxygen 주석을 제공합니다.">
<polygon fill="#999999" stroke="#666666" points="1116.5,-195 895.5,-195 895.5,-165 1116.5,-165 1116.5,-195"/>
<text text-anchor="start" x="903.5" y="-183" font-family="Malgun Gothic" font-size="10.00">Source/LatteLibrary</text>
<text text-anchor="middle" x="1006" y="-172" font-family="Malgun Gothic" font-size="10.00">/Manager/Private/UGameVFXManager.cpp</text>
</a>
</g>
</g>
<!-- Node2 -->
<g id="Node000002" class="node">
<title>Node2</title>
<g id="a_Node000002"><a xlink:href="UGameVFXManager_8h.html" target="_top" xlink:title="UGameVFXManager 선언에 대한 Doxygen 주석을 제공합니다.">
<polygon fill="white" stroke="#666666" points="1113,-129 989,-129 989,-110 1113,-110 1113,-129"/>
<text text-anchor="middle" x="1051" y="-117" font-family="Malgun Gothic" font-size="10.00">UGameVFXManager.h</text>
</a>
</g>
</g>
<!-- Node1&#45;&gt;Node2 -->
<g id="edge1_Node000001_Node000002" class="edge">
<title>Node1&#45;&gt;Node2</title>
<g id="a_edge1_Node000001_Node000002"><a xlink:title=" ">
<path fill="none" stroke="#63b8ff" d="M1016.89,-164.84C1023.29,-156.52 1031.42,-145.96 1038.13,-137.23"/>
<polygon fill="#63b8ff" stroke="#63b8ff" points="1040.93,-139.33 1044.26,-129.27 1035.39,-135.06 1040.93,-139.33"/>
</a>
</g>
</g>
<!-- Node6 -->
<g id="Node000006" class="node">
<title>Node6</title>
<g id="a_Node000006"><a xlink:href="UVFXDataAsset_8h.html" target="_top" xlink:title="UVFXDataAsset 데이터 자산에 대한 Doxygen 주석을 제공합니다.">
<polygon fill="white" stroke="#666666" points="1012.5,-74 909.5,-74 909.5,-55 1012.5,-55 1012.5,-74"/>
<text text-anchor="middle" x="961" y="-62" font-family="Malgun Gothic" font-size="10.00">UVFXDataAsset.h</text>
</a>
</g>
</g>
<!-- Node1&#45;&gt;Node6 -->
<g id="edge21_Node000001_Node000006" class="edge">
<title>Node1&#45;&gt;Node6</title>
<g id="a_edge21_Node000001_Node000006"><a xlink:title=" ">
<path fill="none" stroke="#63b8ff" d="M997.75,-164.9C992.23,-155.06 985.07,-141.51 980,-129 974.05,-114.32 969,-97.06 965.61,-84.25"/>
<polygon fill="#63b8ff" stroke="#63b8ff" points="968.94,-83.13 963.07,-74.31 962.16,-84.86 968.94,-83.13"/>
</a>
</g>
</g>
<!-- Node11 -->
<g id="Node000011" class="node">
<title>Node11</title>
<g id="a_Node000011"><a xlink:href="EDamageType_8h.html" target="_top" xlink:title="EDamageType 열거형에 대한 Doxygen 주석을 제공합니다.">
<polygon fill="white" stroke="#666666" points="1226.5,-129 1131.5,-129 1131.5,-110 1226.5,-110 1226.5,-129"/>
<text text-anchor="middle" x="1179" y="-117" font-family="Malgun Gothic" font-size="10.00">EDamageType.h</text>
</a>
</g>
</g>
<!-- Node1&#45;&gt;Node11 -->
<g id="edge12_Node000001_Node000011" class="edge">
<title>Node1&#45;&gt;Node11</title>
<g id="a_edge12_Node000001_Node000011"><a xlink:title=" ">
<path fill="none" stroke="#63b8ff" d="M1047.44,-164.99C1076.91,-155.02 1116.06,-141.78 1143.97,-132.35"/>
<polygon fill="#63b8ff" stroke="#63b8ff" points="1145.35,-135.57 1153.7,-129.05 1143.11,-128.94 1145.35,-135.57"/>
</a>
</g>
</g>
<!-- Node12 -->
<g id="Node000012" class="node">
<title>Node12</title>
<g id="a_Node000012"><a xlink:href="GameLogging_8h.html" target="_top" xlink:title="GameLogging 선언에 대한 Doxygen 주석을 제공합니다.">
<polygon fill="white" stroke="#666666" points="365.5,-129 272.5,-129 272.5,-110 365.5,-110 365.5,-129"/>
<text text-anchor="middle" x="319" y="-117" font-family="Malgun Gothic" font-size="10.00">GameLogging.h</text>
</a>
</g>
</g>
<!-- Node1&#45;&gt;Node12 -->
<g id="edge13_Node000001_Node000012" class="edge">
<title>Node1&#45;&gt;Node12</title>
<g id="a_edge13_Node000001_Node000012"><a xlink:title=" ">
<path fill="none" stroke="#63b8ff" d="M895.24,-169.57C747.1,-156.95 489.94,-135.06 376.07,-125.36"/>
<polygon fill="#63b8ff" stroke="#63b8ff" points="376.1,-121.85 365.84,-124.49 375.5,-128.82 376.1,-121.85"/>
</a>
</g>
</g>
<!-- Node17 -->
<g id="Node000017" class="node">
<title>Node17</title>
<g id="a_Node000017"><a xlink:title=" ">
<polygon fill="#e0e0e0" stroke="#999999" points="1381.5,-129 1244.5,-129 1244.5,-110 1381.5,-110 1381.5,-129"/>
<text text-anchor="middle" x="1313" y="-117" font-family="Malgun Gothic" font-size="10.00">NiagaraFunctionLibrary.h</text>
</a>
</g>
</g>
<!-- Node1&#45;&gt;Node17 -->
<g id="edge22_Node000001_Node000017" class="edge">
<title>Node1&#45;&gt;Node17</title>
<g id="a_edge22_Node000001_Node000017"><a xlink:title=" ">
<path fill="none" stroke="#63b8ff" d="M1079.53,-164.99C1134.47,-154.52 1208.35,-140.44 1258.17,-130.95"/>
<polygon fill="#63b8ff" stroke="#63b8ff" points="1258.94,-134.36 1268.11,-129.05 1257.63,-127.49 1258.94,-134.36"/>
</a>
</g>
</g>
<!-- Node18 -->
<g id="Node000018" class="node">
<title>Node18</title>
<g id="a_Node000018"><a xlink:href="FComponentHelper_8h.html" target="_top" xlink:title="FComponentHelper 선언에 대한 Doxygen 주석을 제공합니다.">
<polygon fill="white" stroke="#666666" points="854.5,-129 735.5,-129 735.5,-110 854.5,-110 854.5,-129"/>
<text text-anchor="middle" x="795" y="-117" font-family="Malgun Gothic" font-size="10.00">FComponentHelper.h</text>
</a>
</g>
</g>
<!-- Node1&#45;&gt;Node18 -->
<g id="edge23_Node000001_Node000018" class="edge">
<title>Node1&#45;&gt;Node18</title>
<g id="a_edge23_Node000001_Node000018"><a xlink:title=" ">
<path fill="none" stroke="#63b8ff" d="M955.46,-164.99C918.73,-154.8 869.67,-141.2 835.51,-131.73"/>
<polygon fill="#63b8ff" stroke="#63b8ff" points="836.42,-128.35 825.85,-129.05 834.55,-135.1 836.42,-128.35"/>
</a>
</g>
</g>
<!-- Node3 -->
<g id="Node000003" class="node">
<title>Node3</title>
<g id="a_Node000003"><a xlink:title=" ">
<polygon fill="#e0e0e0" stroke="#999999" points="681,-19 593,-19 593,0 681,0 681,-19"/>
<text text-anchor="middle" x="637" y="-7" font-family="Malgun Gothic" font-size="10.00">CoreMinimal.h</text>
</a>
</g>
</g>
<!-- Node2&#45;&gt;Node3 -->
<g id="edge2_Node000002_Node000003" class="edge">
<title>Node2&#45;&gt;Node3</title>
<g id="a_edge2_Node000002_Node000003"><a xlink:title=" ">
<path fill="none" stroke="#63b8ff" d="M1021.65,-109.92C991.38,-101.04 942.84,-86.72 901,-74 873.83,-65.74 867.45,-62.27 840,-55 789.9,-41.73 732.1,-29.34 691.02,-21.02"/>
<polygon fill="#63b8ff" stroke="#63b8ff" points="691.71,-17.59 681.22,-19.05 690.33,-24.45 691.71,-17.59"/>
</a>
</g>
</g>
<!-- Node4 -->
<g id="Node000004" class="node">
<title>Node4</title>
<g id="a_Node000004"><a xlink:href="Macro_8h.html" target="_top" xlink:title="Manager 모듈에서 공통으로 사용하는 매크로 정의에 대한 Doxygen 주석을 제공합니다.">
<polygon fill="white" stroke="#666666" points="1087,-74 1031,-74 1031,-55 1087,-55 1087,-74"/>
<text text-anchor="middle" x="1059" y="-62" font-family="Malgun Gothic" font-size="10.00">Macro.h</text>
</a>
</g>
</g>
<!-- Node2&#45;&gt;Node4 -->
<g id="edge3_Node000002_Node000004" class="edge">
<title>Node2&#45;&gt;Node4</title>
<g id="a_edge3_Node000002_Node000004"><a xlink:title=" ">
<path fill="none" stroke="#63b8ff" d="M1052.32,-109.75C1053.37,-102.8 1054.87,-92.85 1056.19,-84.13"/>
<polygon fill="#63b8ff" stroke="#63b8ff" points="1059.67,-84.5 1057.7,-74.09 1052.75,-83.45 1059.67,-84.5"/>
</a>
</g>
</g>
<!-- Node5 -->
<g id="Node000005" class="node">
<title>Node5</title>
<g id="a_Node000005"><a xlink:href="EVFXType_8h.html" target="_top" xlink:title="EVFXType 열거형에 대한 Doxygen 주석을 제공합니다.">
<polygon fill="white" stroke="#666666" points="1429,-19 1355,-19 1355,0 1429,0 1429,-19"/>
<text text-anchor="middle" x="1392" y="-7" font-family="Malgun Gothic" font-size="10.00">EVFXType.h</text>
</a>
</g>
</g>
<!-- Node2&#45;&gt;Node5 -->
<g id="edge4_Node000002_Node000005" class="edge">
<title>Node2&#45;&gt;Node5</title>
<g id="a_edge4_Node000002_Node000005"><a xlink:title=" ">
<path fill="none" stroke="#63b8ff" d="M1113.04,-111.07C1116.41,-110.7 1119.75,-110.34 1123,-110 1167.05,-105.4 1490.13,-106.7 1520,-74 1547.67,-43.71 1486.18,-26.06 1439.17,-17.35"/>
<polygon fill="#63b8ff" stroke="#63b8ff" points="1439.56,-13.87 1429.1,-15.58 1438.34,-20.76 1439.56,-13.87"/>
</a>
</g>
</g>
<!-- Node2&#45;&gt;Node6 -->
<g id="edge5_Node000002_Node000006" class="edge">
<title>Node2&#45;&gt;Node6</title>
<g id="a_edge5_Node000002_Node000006"><a xlink:title=" ">
<path fill="none" stroke="#63b8ff" d="M1036.54,-109.98C1022.58,-101.77 1001.21,-89.18 984.75,-79.49"/>
<polygon fill="#63b8ff" stroke="#63b8ff" points="986.12,-76.23 975.72,-74.17 982.56,-82.26 986.12,-76.23"/>
</a>
</g>
</g>
<!-- Node9 -->
<g id="Node000009" class="node">
<title>Node9</title>
<g id="a_Node000009"><a xlink:title=" ">
<polygon fill="#e0e0e0" stroke="#999999" points="1317,-74 1105,-74 1105,-55 1317,-55 1317,-74"/>
<text text-anchor="middle" x="1211" y="-62" font-family="Malgun Gothic" font-size="10.00">Subsystems/GameInstanceSubsystem.h</text>
</a>
</g>
</g>
<!-- Node2&#45;&gt;Node9 -->
<g id="edge10_Node000002_Node000009" class="edge">
<title>Node2&#45;&gt;Node9</title>
<g id="a_edge10_Node000002_Node000009"><a xlink:title=" ">
<path fill="none" stroke="#63b8ff" d="M1076.71,-109.98C1103.45,-101.13 1145.53,-87.19 1175.45,-77.28"/>
<polygon fill="#63b8ff" stroke="#63b8ff" points="1176.7,-80.55 1185.09,-74.08 1174.5,-73.9 1176.7,-80.55"/>
</a>
</g>
</g>
<!-- Node10 -->
<g id="Node000010" class="node">
<title>Node10</title>
<g id="a_Node000010"><a xlink:title=" ">
<polygon fill="#e0e0e0" stroke="#999999" points="1511,-74 1335,-74 1335,-55 1511,-55 1511,-74"/>
<text text-anchor="middle" x="1423" y="-62" font-family="Malgun Gothic" font-size="10.00">UGameVFXManager.generated.h</text>
</a>
</g>
</g>
<!-- Node2&#45;&gt;Node10 -->
<g id="edge11_Node000002_Node000010" class="edge">
<title>Node2&#45;&gt;Node10</title>
<g id="a_edge11_Node000002_Node000010"><a xlink:title=" ">
<path fill="none" stroke="#63b8ff" d="M1110.77,-109.98C1176.84,-100.57 1283.13,-85.43 1353.03,-75.47"/>
<polygon fill="#63b8ff" stroke="#63b8ff" points="1353.67,-78.91 1363.07,-74.04 1352.68,-71.98 1353.67,-78.91"/>
</a>
</g>
</g>
<!-- Node6&#45;&gt;Node3 -->
<g id="edge6_Node000006_Node000003" class="edge">
<title>Node6&#45;&gt;Node3</title>
<g id="a_edge6_Node000006_Node000003"><a xlink:title=" ">
<path fill="none" stroke="#63b8ff" d="M909.3,-55.04C849.68,-45.29 752.11,-29.33 691.38,-19.4"/>
<polygon fill="#63b8ff" stroke="#63b8ff" points="691.66,-15.89 681.23,-17.73 690.53,-22.8 691.66,-15.89"/>
</a>
</g>
</g>
<!-- Node6&#45;&gt;Node5 -->
<g id="edge7_Node000006_Node000005" class="edge">
<title>Node6&#45;&gt;Node5</title>
<g id="a_edge7_Node000006_Node000005"><a xlink:title=" ">
<path fill="none" stroke="#63b8ff" d="M1012.58,-56.24C1015.76,-55.82 1018.92,-55.4 1022,-55 1137.8,-39.97 1274.23,-24.01 1344.64,-15.91"/>
<polygon fill="#63b8ff" stroke="#63b8ff" points="1345.41,-19.34 1354.95,-14.72 1344.61,-12.39 1345.41,-19.34"/>
</a>
</g>
</g>
<!-- Node7 -->
<g id="Node000007" class="node">
<title>Node7</title>
<g id="a_Node000007"><a xlink:title=" ">
<polygon fill="#e0e0e0" stroke="#999999" points="941,-19 829,-19 829,0 941,0 941,-19"/>
<text text-anchor="middle" x="885" y="-7" font-family="Malgun Gothic" font-size="10.00">Engine/DataAsset.h</text>
</a>
</g>
</g>
<!-- Node6&#45;&gt;Node7 -->
<g id="edge8_Node000006_Node000007" class="edge">
<title>Node6&#45;&gt;Node7</title>
<g id="a_edge8_Node000006_Node000007"><a xlink:title=" ">
<path fill="none" stroke="#63b8ff" d="M948.79,-54.98C937.22,-46.92 919.62,-34.65 905.84,-25.03"/>
<polygon fill="#63b8ff" stroke="#63b8ff" points="907.64,-22.02 897.43,-19.17 903.63,-27.76 907.64,-22.02"/>
</a>
</g>
</g>
<!-- Node8 -->
<g id="Node000008" class="node">
<title>Node8</title>
<g id="a_Node000008"><a xlink:title=" ">
<polygon fill="#e0e0e0" stroke="#999999" points="1114.5,-19 959.5,-19 959.5,0 1114.5,0 1114.5,-19"/>
<text text-anchor="middle" x="1037" y="-7" font-family="Malgun Gothic" font-size="10.00">UVFXDataAsset.generated.h</text>
</a>
</g>
</g>
<!-- Node6&#45;&gt;Node8 -->
<g id="edge9_Node000006_Node000008" class="edge">
<title>Node6&#45;&gt;Node8</title>
<g id="a_edge9_Node000006_Node000008"><a xlink:title=" ">
<path fill="none" stroke="#63b8ff" d="M973.21,-54.98C984.78,-46.92 1002.38,-34.65 1016.16,-25.03"/>
<polygon fill="#63b8ff" stroke="#63b8ff" points="1018.37,-27.76 1024.57,-19.17 1014.36,-22.02 1018.37,-27.76"/>
</a>
</g>
</g>
<!-- Node12&#45;&gt;Node3 -->
<g id="edge14_Node000012_Node000003" class="edge">
<title>Node12&#45;&gt;Node3</title>
<g id="a_edge14_Node000012_Node000003"><a xlink:title=" ">
<path fill="none" stroke="#63b8ff" d="M324.81,-109.85C334.74,-95.83 356.39,-68.37 382,-55 445.63,-21.79 529.11,-12.7 582.91,-10.56"/>
<polygon fill="#63b8ff" stroke="#63b8ff" points="583.05,-14.05 592.93,-10.22 582.82,-7.06 583.05,-14.05"/>
</a>
</g>
</g>
<!-- Node13 -->
<g id="Node000013" class="node">
<title>Node13</title>
<g id="a_Node000013"><a xlink:title=" ">
<polygon fill="#e0e0e0" stroke="#999999" points="334.5,-74 215.5,-74 215.5,-55 334.5,-55 334.5,-74"/>
<text text-anchor="middle" x="275" y="-62" font-family="Malgun Gothic" font-size="10.00">Logging/LogMacros.h</text>
</a>
</g>
</g>
<!-- Node12&#45;&gt;Node13 -->
<g id="edge15_Node000012_Node000013" class="edge">
<title>Node12&#45;&gt;Node13</title>
<g id="a_edge15_Node000012_Node000013"><a xlink:title=" ">
<path fill="none" stroke="#63b8ff" d="M311.73,-109.75C305.46,-102.18 296.21,-91.05 288.57,-81.84"/>
<polygon fill="#63b8ff" stroke="#63b8ff" points="291.21,-79.55 282.13,-74.09 285.83,-84.02 291.21,-79.55"/>
</a>
</g>
</g>
<!-- Node14 -->
<g id="Node000014" class="node">
<title>Node14</title>
<g id="a_Node000014"><a xlink:title=" ">
<polygon fill="#e0e0e0" stroke="#999999" points="197.5,-74 102.5,-74 102.5,-55 197.5,-55 197.5,-74"/>
<text text-anchor="middle" x="150" y="-62" font-family="Malgun Gothic" font-size="10.00">Engine/Engine.h</text>
</a>
</g>
</g>
<!-- Node12&#45;&gt;Node14 -->
<g id="edge16_Node000012_Node000014" class="edge">
<title>Node12&#45;&gt;Node14</title>
<g id="a_edge16_Node000012_Node000014"><a xlink:title=" ">
<path fill="none" stroke="#63b8ff" d="M291.85,-109.98C263.47,-101.09 218.77,-87.07 187.14,-77.15"/>
<polygon fill="#63b8ff" stroke="#63b8ff" points="187.95,-73.73 177.37,-74.08 185.86,-80.41 187.95,-73.73"/>
</a>
</g>
</g>
<!-- Node15 -->
<g id="Node000015" class="node">
<title>Node15</title>
<g id="a_Node000015"><a xlink:href="FLogWriter_8h.html" target="_top" xlink:title="FLogWriter 선언에 대한 Doxygen 주석을 제공합니다.">
<polygon fill="white" stroke="#666666" points="469,-74 391,-74 391,-55 469,-55 469,-74"/>
<text text-anchor="middle" x="430" y="-62" font-family="Malgun Gothic" font-size="10.00">FLogWriter.h</text>
</a>
</g>
</g>
<!-- Node12&#45;&gt;Node15 -->
<g id="edge17_Node000012_Node000015" class="edge">
<title>Node12&#45;&gt;Node15</title>
<g id="a_edge17_Node000012_Node000015"><a xlink:title=" ">
<path fill="none" stroke="#63b8ff" d="M336.83,-109.98C354.61,-101.5 382.15,-88.35 402.68,-78.54"/>
<polygon fill="#63b8ff" stroke="#63b8ff" points="404.33,-81.64 411.84,-74.17 401.31,-75.32 404.33,-81.64"/>
</a>
</g>
</g>
<!-- Node16 -->
<g id="Node000016" class="node">
<title>Node16</title>
<g id="a_Node000016"><a xlink:href="NetworkLog_8h.html" target="_top" xlink:title="NetworkLog 선언에 대한 Doxygen 주석을 제공합니다.">
<polygon fill="white" stroke="#666666" points="84,-74 0,-74 0,-55 84,-55 84,-74"/>
<text text-anchor="middle" x="42" y="-62" font-family="Malgun Gothic" font-size="10.00">NetworkLog.h</text>
</a>
</g>
</g>
<!-- Node12&#45;&gt;Node16 -->
<g id="edge19_Node000012_Node000016" class="edge">
<title>Node12&#45;&gt;Node16</title>
<g id="a_edge19_Node000012_Node000016"><a xlink:title=" ">
<path fill="none" stroke="#63b8ff" d="M274.5,-109.98C225.32,-100.58 146.2,-85.44 94.16,-75.48"/>
<polygon fill="#63b8ff" stroke="#63b8ff" points="94.6,-72 84.12,-73.56 93.29,-78.88 94.6,-72"/>
</a>
</g>
</g>
<!-- Node15&#45;&gt;Node3 -->
<g id="edge18_Node000015_Node000003" class="edge">
<title>Node15&#45;&gt;Node3</title>
<g id="a_edge18_Node000015_Node000003"><a xlink:title=" ">
<path fill="none" stroke="#63b8ff" d="M463.26,-54.98C498.61,-45.93 554.67,-31.58 593.51,-21.64"/>
<polygon fill="#63b8ff" stroke="#63b8ff" points="594.66,-24.95 603.48,-19.08 592.93,-18.17 594.66,-24.95"/>
</a>
</g>
</g>
<!-- Node16&#45;&gt;Node3 -->
<g id="edge20_Node000016_Node000003" class="edge">
<title>Node16&#45;&gt;Node3</title>
<g id="a_edge20_Node000016_Node000003"><a xlink:title=" ">
<path fill="none" stroke="#63b8ff" d="M84.26,-56.18C87.21,-55.75 90.15,-55.35 93,-55 271.52,-32.86 484.41,-19.09 582.54,-13.44"/>
<polygon fill="#63b8ff" stroke="#63b8ff" points="583.02,-16.92 592.8,-12.86 582.62,-9.93 583.02,-16.92"/>
</a>
</g>
</g>
<!-- Node18&#45;&gt;Node3 -->
<g id="edge24_Node000018_Node000003" class="edge">
<title>Node18&#45;&gt;Node3</title>
<g id="a_edge24_Node000018_Node000003"><a xlink:title=" ">
<path fill="none" stroke="#63b8ff" d="M804.3,-109.99C817.25,-97.1 837.67,-72.31 824,-55 807.68,-34.34 740.45,-22.24 691.25,-16"/>
<polygon fill="#63b8ff" stroke="#63b8ff" points="691.41,-12.5 681.06,-14.76 690.56,-19.44 691.41,-12.5"/>
</a>
</g>
</g>
<!-- Node19 -->
<g id="Node000019" class="node">
<title>Node19</title>
<g id="a_Node000019"><a xlink:title=" ">
<polygon fill="#e0e0e0" stroke="#999999" points="814.5,-74 677.5,-74 677.5,-55 814.5,-55 814.5,-74"/>
<text text-anchor="middle" x="746" y="-62" font-family="Malgun Gothic" font-size="10.00">GameFramework/Actor.h</text>
</a>
</g>
</g>
<!-- Node18&#45;&gt;Node19 -->
<g id="edge25_Node000018_Node000019" class="edge">
<title>Node18&#45;&gt;Node19</title>
<g id="a_edge25_Node000018_Node000019"><a xlink:title=" ">
<path fill="none" stroke="#63b8ff" d="M786.91,-109.75C779.84,-102.11 769.41,-90.82 760.85,-81.56"/>
<polygon fill="#63b8ff" stroke="#63b8ff" points="763.3,-79.06 753.94,-74.09 758.16,-83.81 763.3,-79.06"/>
</a>
</g>
</g>
<!-- Node20 -->
<g id="Node000020" class="node">
<title>Node20</title>
<g id="a_Node000020"><a xlink:title=" ">
<polygon fill="#e0e0e0" stroke="#999999" points="659,-74 487,-74 487,-55 659,-55 659,-74"/>
<text text-anchor="middle" x="573" y="-62" font-family="Malgun Gothic" font-size="10.00">Components/ActorComponent.h</text>
</a>
</g>
</g>
<!-- Node18&#45;&gt;Node20 -->
<g id="edge26_Node000018_Node000020" class="edge">
<title>Node18&#45;&gt;Node20</title>
<g id="a_edge26_Node000018_Node000020"><a xlink:title=" ">
<path fill="none" stroke="#63b8ff" d="M759.33,-109.98C721.17,-100.87 660.53,-86.4 618.85,-76.45"/>
<polygon fill="#63b8ff" stroke="#63b8ff" points="619.49,-73 608.95,-74.08 617.86,-79.81 619.49,-73"/>
</a>
</g>
</g>
</g>
</svg>

<g id="navigator" transform="translate(0 0)" fill="#404254">
  <rect fill="#f2f5e9" fill-opacity="0.5" stroke="#606060" stroke-width=".5" x="0" y="0" width="60" height="60"/>
  <use id="zoomplus" xlink:href="#zoomPlus" x="17" y="9" onmousedown="handleZoom(evt,'in')"/>
  <use id="zoomminus" xlink:href="#zoomMin" x="42" y="9" onmousedown="handleZoom(evt,'out')"/>
  <use id="reset" xlink:href="#resetDef" x="30" y="36" onmousedown="handleReset()"/>
   <use id="arrowup" xlink:href="#arrowUp" x="0" y="0" onmousedown="handlePan(0,-1)"/>
  <use id="arrowright" xlink:href="#arrowRight" x="0" y="0" onmousedown="handlePan(1,0)"/>
  <use id="arrowdown" xlink:href="#arrowDown" x="0" y="0" onmousedown="handlePan(0,1)"/>
  <use id="arrowleft" xlink:href="#arrowLeft" x="0" y="0" onmousedown="handlePan(-1,0)"/>
</g>
<svg viewBox="0 0 15 15" width="100%" height="30px" preserveAspectRatio="xMaxYMin meet">
 <g id="arrow_out" transform="scale(0.3 0.3)">
  <a xlink:href="UGameVFXManager_8cpp__incl_org.svg" target="_base">
   <rect id="button" ry="5" rx="5" y="6" x="6" height="38" width="38"
        fill="#f2f5e9" fill-opacity="0.5" stroke="#606060" stroke-width="1.0"/>
   <path id="arrow"
     d="M 11.500037,31.436501 C 11.940474,20.09759 22.043105,11.32322 32.158766,21.979434 L 37.068811,17.246167 C 37.068811,17.246167 37.088388,32 37.088388,32 L 22.160133,31.978069 C 22.160133,31.978069 26.997745,27.140456 26.997745,27.140456 C 18.528582,18.264221 13.291696,25.230495 11.500037,31.436501 z"
     style="fill:#404040;"/>
  </a>
 </g>
</svg>

<style type='text/css'>
<![CDATA[
[data-mouse-over-selected='false'] { opacity: 0.7; }
[data-mouse-over-selected='true']  { opacity: 1.0; }
]]>
</style>
<script type="application/ecmascript"><![CDATA[
document.addEventListener('DOMContentLoaded', (event) => {
  highlightEdges();
  highlightAdjacentNodes();
});
]]></script>
</svg>
