<?xml version="1.0" encoding="UTF-8" standalone="no"?>
<!DOCTYPE svg PUBLIC "-//W3C//DTD SVG 1.1//EN"
 "http://www.w3.org/Graphics/SVG/1.1/DTD/svg11.dtd">
<!-- Generated by graphviz version 2.43.0 (0)
 -->
<!-- Title: Source/LatteLibrary/Common/Public/UGameDamageType.h Pages: 1 -->
<svg width="548pt" height="203pt"
 viewBox="0.00 0.00 548.00 203.00" xmlns="http://www.w3.org/2000/svg" xmlns:xlink="http://www.w3.org/1999/xlink">
<g id="graph0" class="graph" transform="scale(1 1) rotate(0) translate(4 199)">
<title>Source/LatteLibrary/Common/Public/UGameDamageType.h</title>
<!-- Node1 -->
<g id="Node000001" class="node">
<title>Node1</title>
<g id="a_Node000001"><a xlink:title="UGameDamageType 선언에 대한 Doxygen 주석을 제공합니다.">
<polygon fill="#999999" stroke="#666666" points="378.5,-195 201.5,-195 201.5,-154 378.5,-154 378.5,-195"/>
<text text-anchor="start" x="209.5" y="-183" font-family="Malgun Gothic" font-size="10.00">Source/LatteLibrary</text>
<text text-anchor="start" x="209.5" y="-172" font-family="Malgun Gothic" font-size="10.00">/Common/Public/UGameDamage</text>
<text text-anchor="middle" x="290" y="-161" font-family="Malgun Gothic" font-size="10.00">Type.h</text>
</a>
</g>
</g>
<!-- Node2 -->
<g id="Node000002" class="node">
<title>Node2</title>
<g id="a_Node000002"><a xlink:href="UGameFunctionLibrary_8h.html" target="_top" xlink:title="UGameFunctionLibrary 선언에 대한 Doxygen 주석을 제공합니다.">
<polygon fill="white" stroke="#666666" points="378.5,-118 201.5,-118 201.5,-77 378.5,-77 378.5,-118"/>
<text text-anchor="start" x="209.5" y="-106" font-family="Malgun Gothic" font-size="10.00">Source/LatteLibrary</text>
<text text-anchor="start" x="209.5" y="-95" font-family="Malgun Gothic" font-size="10.00">/Common/Public/UGameFunction</text>
<text text-anchor="middle" x="290" y="-84" font-family="Malgun Gothic" font-size="10.00">Library.h</text>
</a>
</g>
</g>
<!-- Node1&#45;&gt;Node2 -->
<g id="edge1_Node000001_Node000002" class="edge">
<title>Node1&#45;&gt;Node2</title>
<g id="a_edge1_Node000001_Node000002"><a xlink:title=" ">
<path fill="none" stroke="#63b8ff" d="M290,-143.69C290,-135.08 290,-125.9 290,-118.07"/>
<polygon fill="#63b8ff" stroke="#63b8ff" points="286.5,-143.79 290,-153.79 293.5,-143.79 286.5,-143.79"/>
</a>
</g>
</g>
<!-- Node3 -->
<g id="Node000003" class="node">
<title>Node3</title>
<g id="a_Node000003"><a xlink:href="UGameFunctionLibrary_8cpp.html" target="_top" xlink:title="UGameFunctionLibrary 구현에 대한 Doxygen 주석을 제공합니다.">
<polygon fill="white" stroke="#666666" points="182,-41 0,-41 0,0 182,0 182,-41"/>
<text text-anchor="start" x="8" y="-29" font-family="Malgun Gothic" font-size="10.00">Source/LatteLibrary</text>
<text text-anchor="start" x="8" y="-18" font-family="Malgun Gothic" font-size="10.00">/Common/Private/UGameFunction</text>
<text text-anchor="middle" x="91" y="-7" font-family="Malgun Gothic" font-size="10.00">Library.cpp</text>
</a>
</g>
</g>
<!-- Node2&#45;&gt;Node3 -->
<g id="edge2_Node000002_Node000003" class="edge">
<title>Node2&#45;&gt;Node3</title>
<g id="a_edge2_Node000002_Node000003"><a xlink:title=" ">
<path fill="none" stroke="#63b8ff" d="M228.72,-73.4C201.22,-63.04 169.13,-50.95 142.85,-41.04"/>
<polygon fill="#63b8ff" stroke="#63b8ff" points="227.64,-76.74 238.23,-76.99 230.11,-70.19 227.64,-76.74"/>
</a>
</g>
</g>
<!-- Node4 -->
<g id="Node000004" class="node">
<title>Node4</title>
<g id="a_Node000004"><a xlink:href="ANetworkTesterActor_8cpp.html" target="_top" xlink:title="ANetworkTesterActor 구현에 대한 Doxygen 주석을 제공합니다.">
<polygon fill="white" stroke="#666666" points="379.5,-35.5 200.5,-35.5 200.5,-5.5 379.5,-5.5 379.5,-35.5"/>
<text text-anchor="start" x="208.5" y="-23.5" font-family="Malgun Gothic" font-size="10.00">Source/YiSan/Network</text>
<text text-anchor="middle" x="290" y="-12.5" font-family="Malgun Gothic" font-size="10.00">/Private/ANetworkTesterActor.cpp</text>
</a>
</g>
</g>
<!-- Node2&#45;&gt;Node4 -->
<g id="edge3_Node000002_Node000004" class="edge">
<title>Node2&#45;&gt;Node4</title>
<g id="a_edge3_Node000002_Node000004"><a xlink:title=" ">
<path fill="none" stroke="#63b8ff" d="M290,-66.61C290,-56.01 290,-44.57 290,-35.86"/>
<polygon fill="#63b8ff" stroke="#63b8ff" points="286.5,-66.79 290,-76.79 293.5,-66.79 286.5,-66.79"/>
</a>
</g>
</g>
<!-- Node5 -->
<g id="Node000005" class="node">
<title>Node5</title>
<g id="a_Node000005"><a xlink:href="NetworkData_8cpp.html" target="_top" xlink:title="NetworkData 구조 구현에 대한 Doxygen 주석을 제공합니다.">
<polygon fill="white" stroke="#666666" points="540,-35.5 398,-35.5 398,-5.5 540,-5.5 540,-35.5"/>
<text text-anchor="start" x="406" y="-23.5" font-family="Malgun Gothic" font-size="10.00">Source/YiSan/Network</text>
<text text-anchor="middle" x="469" y="-12.5" font-family="Malgun Gothic" font-size="10.00">/Private/NetworkData.cpp</text>
</a>
</g>
</g>
<!-- Node2&#45;&gt;Node5 -->
<g id="edge4_Node000002_Node000005" class="edge">
<title>Node2&#45;&gt;Node5</title>
<g id="a_edge4_Node000002_Node000005"><a xlink:title=" ">
<path fill="none" stroke="#63b8ff" d="M345.87,-73.09C375.23,-60.79 410.22,-46.13 435.39,-35.58"/>
<polygon fill="#63b8ff" stroke="#63b8ff" points="344.43,-69.9 336.56,-76.99 347.14,-76.35 344.43,-69.9"/>
</a>
</g>
</g>
</g>
</svg>
