<?xml version="1.0" encoding="UTF-8" standalone="no"?>
<!DOCTYPE svg PUBLIC "-//W3C//DTD SVG 1.1//EN"
 "http://www.w3.org/Graphics/SVG/1.1/DTD/svg11.dtd">
<!-- Generated by graphviz version 2.43.0 (0)
 -->
<!-- Title: Source/LatteLibrary/Manager/Private/UGameSoundManager.cpp Pages: 1 -->
<svg width="1390pt" height="159pt"
 viewBox="0.00 0.00 1389.50 159.00" xmlns="http://www.w3.org/2000/svg" xmlns:xlink="http://www.w3.org/1999/xlink">
<g id="graph0" class="graph" transform="scale(1 1) rotate(0) translate(4 155)">
<title>Source/LatteLibrary/Manager/Private/UGameSoundManager.cpp</title>
<!-- Node1 -->
<g id="Node000001" class="node">
<title>Node1</title>
<g id="a_Node000001"><a xlink:title="UGameSoundManager 구현에 대한 Doxygen 주석을 제공합니다.">
<polygon fill="#999999" stroke="#666666" points="906,-151 736,-151 736,-110 906,-110 906,-151"/>
<text text-anchor="start" x="744" y="-139" font-family="Malgun Gothic" font-size="10.00">Source/LatteLibrary</text>
<text text-anchor="start" x="744" y="-128" font-family="Malgun Gothic" font-size="10.00">/Manager/Private/UGameSound</text>
<text text-anchor="middle" x="821" y="-117" font-family="Malgun Gothic" font-size="10.00">Manager.cpp</text>
</a>
</g>
</g>
<!-- Node2 -->
<g id="Node000002" class="node">
<title>Node2</title>
<g id="a_Node000002"><a xlink:href="UGameSoundManager_8h.html" target="_top" xlink:title="UGameSoundManager 선언에 대한 Doxygen 주석을 제공합니다.">
<polygon fill="white" stroke="#666666" points="543,-74 409,-74 409,-55 543,-55 543,-74"/>
<text text-anchor="middle" x="476" y="-62" font-family="Malgun Gothic" font-size="10.00">UGameSoundManager.h</text>
</a>
</g>
</g>
<!-- Node1&#45;&gt;Node2 -->
<g id="edge1_Node000001_Node000002" class="edge">
<title>Node1&#45;&gt;Node2</title>
<g id="a_edge1_Node000001_Node000002"><a xlink:title=" ">
<path fill="none" stroke="#63b8ff" d="M735.72,-113.68C672.23,-101.9 587.34,-86.15 532.17,-75.92"/>
<polygon fill="#63b8ff" stroke="#63b8ff" points="532.7,-72.46 522.23,-74.08 531.43,-79.34 532.7,-72.46"/>
</a>
</g>
</g>
<!-- Node8 -->
<g id="Node000008" class="node">
<title>Node8</title>
<g id="a_Node000008"><a xlink:href="USoundData_8h.html" target="_top" xlink:title="USoundData 데이터 자산에 대한 Doxygen 주석을 제공합니다.">
<polygon fill="white" stroke="#666666" points="716,-74 630,-74 630,-55 716,-55 716,-74"/>
<text text-anchor="middle" x="673" y="-62" font-family="Malgun Gothic" font-size="10.00">USoundData.h</text>
</a>
</g>
</g>
<!-- Node1&#45;&gt;Node8 -->
<g id="edge7_Node000001_Node000008" class="edge">
<title>Node1&#45;&gt;Node8</title>
<g id="a_edge7_Node000001_Node000008"><a xlink:title=" ">
<path fill="none" stroke="#63b8ff" d="M775.79,-109.95C751.87,-99.6 723.19,-87.2 702.21,-78.13"/>
<polygon fill="#63b8ff" stroke="#63b8ff" points="703.44,-74.85 692.87,-74.09 700.66,-81.27 703.44,-74.85"/>
</a>
</g>
</g>
<!-- Node11 -->
<g id="Node000011" class="node">
<title>Node11</title>
<g id="a_Node000011"><a xlink:title=" ">
<polygon fill="#e0e0e0" stroke="#999999" points="908,-74 734,-74 734,-55 908,-55 908,-74"/>
<text text-anchor="middle" x="821" y="-62" font-family="Malgun Gothic" font-size="10.00">Components/AudioComponent.h</text>
</a>
</g>
</g>
<!-- Node1&#45;&gt;Node11 -->
<g id="edge12_Node000001_Node000011" class="edge">
<title>Node1&#45;&gt;Node11</title>
<g id="a_edge12_Node000001_Node000011"><a xlink:title=" ">
<path fill="none" stroke="#63b8ff" d="M821,-109.95C821,-101.85 821,-92.5 821,-84.47"/>
<polygon fill="#63b8ff" stroke="#63b8ff" points="824.5,-84.26 821,-74.26 817.5,-84.26 824.5,-84.26"/>
</a>
</g>
</g>
<!-- Node12 -->
<g id="Node000012" class="node">
<title>Node12</title>
<g id="a_Node000012"><a xlink:title=" ">
<polygon fill="#e0e0e0" stroke="#999999" points="1072,-74 926,-74 926,-55 1072,-55 1072,-74"/>
<text text-anchor="middle" x="999" y="-62" font-family="Malgun Gothic" font-size="10.00">Kismet/GameplayStatics.h</text>
</a>
</g>
</g>
<!-- Node1&#45;&gt;Node12 -->
<g id="edge13_Node000001_Node000012" class="edge">
<title>Node1&#45;&gt;Node12</title>
<g id="a_edge13_Node000001_Node000012"><a xlink:title=" ">
<path fill="none" stroke="#63b8ff" d="M875.37,-109.95C904.8,-99.37 940.2,-86.64 965.57,-77.52"/>
<polygon fill="#63b8ff" stroke="#63b8ff" points="966.88,-80.77 975.1,-74.09 964.51,-74.18 966.88,-80.77"/>
</a>
</g>
</g>
<!-- Node13 -->
<g id="Node000013" class="node">
<title>Node13</title>
<g id="a_Node000013"><a xlink:href="FComponentHelper_8h.html" target="_top" xlink:title="FComponentHelper 선언에 대한 Doxygen 주석을 제공합니다.">
<polygon fill="white" stroke="#666666" points="1209.5,-74 1090.5,-74 1090.5,-55 1209.5,-55 1209.5,-74"/>
<text text-anchor="middle" x="1150" y="-62" font-family="Malgun Gothic" font-size="10.00">FComponentHelper.h</text>
</a>
</g>
</g>
<!-- Node1&#45;&gt;Node13 -->
<g id="edge14_Node000001_Node000013" class="edge">
<title>Node1&#45;&gt;Node13</title>
<g id="a_edge14_Node000001_Node000013"><a xlink:title=" ">
<path fill="none" stroke="#63b8ff" d="M906.15,-112.94C966.13,-101.27 1044.6,-86 1096.12,-75.98"/>
<polygon fill="#63b8ff" stroke="#63b8ff" points="1096.9,-79.4 1106.05,-74.05 1095.56,-72.52 1096.9,-79.4"/>
</a>
</g>
</g>
<!-- Node3 -->
<g id="Node000003" class="node">
<title>Node3</title>
<g id="a_Node000003"><a xlink:title=" ">
<polygon fill="#e0e0e0" stroke="#999999" points="728,-19 640,-19 640,0 728,0 728,-19"/>
<text text-anchor="middle" x="684" y="-7" font-family="Malgun Gothic" font-size="10.00">CoreMinimal.h</text>
</a>
</g>
</g>
<!-- Node2&#45;&gt;Node3 -->
<g id="edge2_Node000002_Node000003" class="edge">
<title>Node2&#45;&gt;Node3</title>
<g id="a_edge2_Node000002_Node000003"><a xlink:title=" ">
<path fill="none" stroke="#63b8ff" d="M509.42,-54.98C544.94,-45.93 601.27,-31.58 640.3,-21.64"/>
<polygon fill="#63b8ff" stroke="#63b8ff" points="641.49,-24.94 650.32,-19.08 639.76,-18.16 641.49,-24.94"/>
</a>
</g>
</g>
<!-- Node4 -->
<g id="Node000004" class="node">
<title>Node4</title>
<g id="a_Node000004"><a xlink:href="Macro_8h.html" target="_top" xlink:title="Manager 모듈에서 공통으로 사용하는 매크로 정의에 대한 Doxygen 주석을 제공합니다.">
<polygon fill="white" stroke="#666666" points="56,-19 0,-19 0,0 56,0 56,-19"/>
<text text-anchor="middle" x="28" y="-7" font-family="Malgun Gothic" font-size="10.00">Macro.h</text>
</a>
</g>
</g>
<!-- Node2&#45;&gt;Node4 -->
<g id="edge3_Node000002_Node000004" class="edge">
<title>Node2&#45;&gt;Node4</title>
<g id="a_edge3_Node000002_Node000004"><a xlink:title=" ">
<path fill="none" stroke="#63b8ff" d="M408.75,-58.67C329.23,-52.41 192.75,-39.94 66.45,-19.06"/>
<polygon fill="#63b8ff" stroke="#63b8ff" points="66.65,-15.54 56.21,-17.34 65.5,-22.45 66.65,-15.54"/>
</a>
</g>
</g>
<!-- Node5 -->
<g id="Node000005" class="node">
<title>Node5</title>
<g id="a_Node000005"><a xlink:href="EGameSoundType_8h.html" target="_top" xlink:title="EGameSoundType 열거형에 대한 Doxygen 주석을 제공합니다.">
<polygon fill="white" stroke="#666666" points="621.5,-19 508.5,-19 508.5,0 621.5,0 621.5,-19"/>
<text text-anchor="middle" x="565" y="-7" font-family="Malgun Gothic" font-size="10.00">EGameSoundType.h</text>
</a>
</g>
</g>
<!-- Node2&#45;&gt;Node5 -->
<g id="edge4_Node000002_Node000005" class="edge">
<title>Node2&#45;&gt;Node5</title>
<g id="a_edge4_Node000002_Node000005"><a xlink:title=" ">
<path fill="none" stroke="#63b8ff" d="M490.3,-54.98C504.1,-46.77 525.24,-34.18 541.51,-24.49"/>
<polygon fill="#63b8ff" stroke="#63b8ff" points="543.64,-27.29 550.44,-19.17 540.06,-21.28 543.64,-27.29"/>
</a>
</g>
</g>
<!-- Node6 -->
<g id="Node000006" class="node">
<title>Node6</title>
<g id="a_Node000006"><a xlink:title=" ">
<polygon fill="#e0e0e0" stroke="#999999" points="286,-19 74,-19 74,0 286,0 286,-19"/>
<text text-anchor="middle" x="180" y="-7" font-family="Malgun Gothic" font-size="10.00">Subsystems/GameInstanceSubsystem.h</text>
</a>
</g>
</g>
<!-- Node2&#45;&gt;Node6 -->
<g id="edge5_Node000002_Node000006" class="edge">
<title>Node2&#45;&gt;Node6</title>
<g id="a_edge5_Node000002_Node000006"><a xlink:title=" ">
<path fill="none" stroke="#63b8ff" d="M428.44,-54.98C376.6,-45.7 293.61,-30.84 237.99,-20.88"/>
<polygon fill="#63b8ff" stroke="#63b8ff" points="238.39,-17.4 227.93,-19.08 237.16,-24.29 238.39,-17.4"/>
</a>
</g>
</g>
<!-- Node7 -->
<g id="Node000007" class="node">
<title>Node7</title>
<g id="a_Node000007"><a xlink:title=" ">
<polygon fill="#e0e0e0" stroke="#999999" points="490.5,-19 303.5,-19 303.5,0 490.5,0 490.5,-19"/>
<text text-anchor="middle" x="397" y="-7" font-family="Malgun Gothic" font-size="10.00">UGameSoundManager.generated.h</text>
</a>
</g>
</g>
<!-- Node2&#45;&gt;Node7 -->
<g id="edge6_Node000002_Node000007" class="edge">
<title>Node2&#45;&gt;Node7</title>
<g id="a_edge6_Node000002_Node000007"><a xlink:title=" ">
<path fill="none" stroke="#63b8ff" d="M463.31,-54.98C451.17,-46.84 432.64,-34.41 418.25,-24.76"/>
<polygon fill="#63b8ff" stroke="#63b8ff" points="420.18,-21.84 409.92,-19.17 416.28,-27.65 420.18,-21.84"/>
</a>
</g>
</g>
<!-- Node8&#45;&gt;Node3 -->
<g id="edge8_Node000008_Node000003" class="edge">
<title>Node8&#45;&gt;Node3</title>
<g id="a_edge8_Node000008_Node000003"><a xlink:title=" ">
<path fill="none" stroke="#63b8ff" d="M674.82,-54.75C676.26,-47.8 678.32,-37.85 680.13,-29.13"/>
<polygon fill="#63b8ff" stroke="#63b8ff" points="683.61,-29.59 682.22,-19.09 676.76,-28.17 683.61,-29.59"/>
</a>
</g>
</g>
<!-- Node8&#45;&gt;Node5 -->
<g id="edge9_Node000008_Node000005" class="edge">
<title>Node8&#45;&gt;Node5</title>
<g id="a_edge9_Node000008_Node000005"><a xlink:title=" ">
<path fill="none" stroke="#63b8ff" d="M655.65,-54.98C638.43,-46.54 611.8,-33.47 591.85,-23.68"/>
<polygon fill="#63b8ff" stroke="#63b8ff" points="593.19,-20.43 582.67,-19.17 590.1,-26.72 593.19,-20.43"/>
</a>
</g>
</g>
<!-- Node9 -->
<g id="Node000009" class="node">
<title>Node9</title>
<g id="a_Node000009"><a xlink:title=" ">
<polygon fill="#e0e0e0" stroke="#999999" points="858,-19 746,-19 746,0 858,0 858,-19"/>
<text text-anchor="middle" x="802" y="-7" font-family="Malgun Gothic" font-size="10.00">Engine/DataAsset.h</text>
</a>
</g>
</g>
<!-- Node8&#45;&gt;Node9 -->
<g id="edge10_Node000008_Node000009" class="edge">
<title>Node8&#45;&gt;Node9</title>
<g id="a_edge10_Node000008_Node000009"><a xlink:title=" ">
<path fill="none" stroke="#63b8ff" d="M693.73,-54.98C714.76,-46.34 747.55,-32.87 771.54,-23.02"/>
<polygon fill="#63b8ff" stroke="#63b8ff" points="772.98,-26.21 780.9,-19.17 770.32,-19.73 772.98,-26.21"/>
</a>
</g>
</g>
<!-- Node10 -->
<g id="Node000010" class="node">
<title>Node10</title>
<g id="a_Node000010"><a xlink:title=" ">
<polygon fill="#e0e0e0" stroke="#999999" points="1015.5,-19 876.5,-19 876.5,0 1015.5,0 1015.5,-19"/>
<text text-anchor="middle" x="946" y="-7" font-family="Malgun Gothic" font-size="10.00">USoundData.generated.h</text>
</a>
</g>
</g>
<!-- Node8&#45;&gt;Node10 -->
<g id="edge11_Node000008_Node000010" class="edge">
<title>Node8&#45;&gt;Node10</title>
<g id="a_edge11_Node000008_Node000010"><a xlink:title=" ">
<path fill="none" stroke="#63b8ff" d="M716.26,-55.1C763.9,-45.85 840.57,-30.97 892.09,-20.97"/>
<polygon fill="#63b8ff" stroke="#63b8ff" points="892.89,-24.38 902.04,-19.03 891.56,-17.5 892.89,-24.38"/>
</a>
</g>
</g>
<!-- Node13&#45;&gt;Node3 -->
<g id="edge15_Node000013_Node000003" class="edge">
<title>Node13&#45;&gt;Node3</title>
<g id="a_edge15_Node000013_Node000003"><a xlink:title=" ">
<path fill="none" stroke="#63b8ff" d="M1090.17,-56.06C1087.07,-55.7 1084,-55.34 1081,-55 931.55,-37.98 891.12,-39.12 738.44,-19.13"/>
<polygon fill="#63b8ff" stroke="#63b8ff" points="738.59,-15.62 728.22,-17.78 737.68,-22.55 738.59,-15.62"/>
</a>
</g>
</g>
<!-- Node14 -->
<g id="Node000014" class="node">
<title>Node14</title>
<g id="a_Node000014"><a xlink:title=" ">
<polygon fill="#e0e0e0" stroke="#999999" points="1381.5,-19 1244.5,-19 1244.5,0 1381.5,0 1381.5,-19"/>
<text text-anchor="middle" x="1313" y="-7" font-family="Malgun Gothic" font-size="10.00">GameFramework/Actor.h</text>
</a>
</g>
</g>
<!-- Node13&#45;&gt;Node14 -->
<g id="edge16_Node000013_Node000014" class="edge">
<title>Node13&#45;&gt;Node14</title>
<g id="a_edge16_Node000013_Node000014"><a xlink:title=" ">
<path fill="none" stroke="#63b8ff" d="M1176.19,-54.98C1203.44,-46.13 1246.3,-32.19 1276.78,-22.28"/>
<polygon fill="#63b8ff" stroke="#63b8ff" points="1278.18,-25.5 1286.61,-19.08 1276.01,-18.85 1278.18,-25.5"/>
</a>
</g>
</g>
<!-- Node15 -->
<g id="Node000015" class="node">
<title>Node15</title>
<g id="a_Node000015"><a xlink:title=" ">
<polygon fill="#e0e0e0" stroke="#999999" points="1226,-19 1054,-19 1054,0 1226,0 1226,-19"/>
<text text-anchor="middle" x="1140" y="-7" font-family="Malgun Gothic" font-size="10.00">Components/ActorComponent.h</text>
</a>
</g>
</g>
<!-- Node13&#45;&gt;Node15 -->
<g id="edge17_Node000013_Node000015" class="edge">
<title>Node13&#45;&gt;Node15</title>
<g id="a_edge17_Node000013_Node000015"><a xlink:title=" ">
<path fill="none" stroke="#63b8ff" d="M1148.35,-54.75C1147.04,-47.8 1145.16,-37.85 1143.52,-29.13"/>
<polygon fill="#63b8ff" stroke="#63b8ff" points="1146.91,-28.27 1141.62,-19.09 1140.04,-29.56 1146.91,-28.27"/>
</a>
</g>
</g>
</g>
</svg>
