<?xml version="1.0" encoding="UTF-8" standalone="no"?>
<!DOCTYPE svg PUBLIC "-//W3C//DTD SVG 1.1//EN"
 "http://www.w3.org/Graphics/SVG/1.1/DTD/svg11.dtd">
<!-- Generated by graphviz version 2.43.0 (0)
 -->
<!-- Title: Source/LatteLibrary/Manager/Private/UGameDataManager.cpp Pages: 1 -->
<svg width="1966pt" height="214pt"
 viewBox="0.00 0.00 1965.50 214.00" xmlns="http://www.w3.org/2000/svg" xmlns:xlink="http://www.w3.org/1999/xlink">
<g id="graph0" class="graph" transform="scale(1 1) rotate(0) translate(4 210)">
<title>Source/LatteLibrary/Manager/Private/UGameDataManager.cpp</title>
<!-- Node1 -->
<g id="Node000001" class="node">
<title>Node1</title>
<g id="a_Node000001"><a xlink:title="UGameDataManager 구현에 대한 Doxygen 주석을 제공합니다.">
<polygon fill="#999999" stroke="#666666" points="1229,-206 1066,-206 1066,-165 1229,-165 1229,-206"/>
<text text-anchor="start" x="1074" y="-194" font-family="Malgun Gothic" font-size="10.00">Source/LatteLibrary</text>
<text text-anchor="start" x="1074" y="-183" font-family="Malgun Gothic" font-size="10.00">/Manager/Private/UGameData</text>
<text text-anchor="middle" x="1147.5" y="-172" font-family="Malgun Gothic" font-size="10.00">Manager.cpp</text>
</a>
</g>
</g>
<!-- Node2 -->
<g id="Node000002" class="node">
<title>Node2</title>
<g id="a_Node000002"><a xlink:href="UGameDataManager_8h.html" target="_top" xlink:title="UGameDataManager 선언에 대한 Doxygen 주석을 제공합니다.">
<polygon fill="white" stroke="#666666" points="673.5,-129 545.5,-129 545.5,-110 673.5,-110 673.5,-129"/>
<text text-anchor="middle" x="609.5" y="-117" font-family="Malgun Gothic" font-size="10.00">UGameDataManager.h</text>
</a>
</g>
</g>
<!-- Node1&#45;&gt;Node2 -->
<g id="edge1_Node000001_Node000002" class="edge">
<title>Node1&#45;&gt;Node2</title>
<g id="a_edge1_Node000001_Node000002"><a xlink:title=" ">
<path fill="none" stroke="#63b8ff" d="M1065.79,-174.78C961.92,-162.42 784.08,-141.27 683.85,-129.34"/>
<polygon fill="#63b8ff" stroke="#63b8ff" points="684.15,-125.86 673.8,-128.15 683.32,-132.81 684.15,-125.86"/>
</a>
</g>
</g>
<!-- Node14 -->
<g id="Node000014" class="node">
<title>Node14</title>
<g id="a_Node000014"><a xlink:href="FCharacterAssetData_8h.html" target="_top" xlink:title="FCharacterAssetData 구조체에 대한 Doxygen 주석을 제공합니다.">
<polygon fill="white" stroke="#666666" points="1048,-74 919,-74 919,-55 1048,-55 1048,-74"/>
<text text-anchor="middle" x="983.5" y="-62" font-family="Malgun Gothic" font-size="10.00">FCharacterAssetData.h</text>
</a>
</g>
</g>
<!-- Node1&#45;&gt;Node14 -->
<g id="edge34_Node000001_Node000014" class="edge">
<title>Node1&#45;&gt;Node14</title>
<g id="a_edge34_Node000001_Node000014"><a xlink:title=" ">
<path fill="none" stroke="#63b8ff" d="M1120.42,-164.85C1087.6,-141.04 1033.07,-101.47 1003.71,-80.16"/>
<polygon fill="#63b8ff" stroke="#63b8ff" points="1005.6,-77.22 995.46,-74.18 1001.49,-82.88 1005.6,-77.22"/>
</a>
</g>
</g>
<!-- Node18 -->
<g id="Node000018" class="node">
<title>Node18</title>
<g id="a_Node000018"><a xlink:href="GameLogging_8h.html" target="_top" xlink:title="GameLogging 선언에 대한 Doxygen 주석을 제공합니다.">
<polygon fill="white" stroke="#666666" points="1311,-129 1218,-129 1218,-110 1311,-110 1311,-129"/>
<text text-anchor="middle" x="1264.5" y="-117" font-family="Malgun Gothic" font-size="10.00">GameLogging.h</text>
</a>
</g>
</g>
<!-- Node1&#45;&gt;Node18 -->
<g id="edge26_Node000001_Node000018" class="edge">
<title>Node1&#45;&gt;Node18</title>
<g id="a_edge26_Node000001_Node000018"><a xlink:title=" ">
<path fill="none" stroke="#63b8ff" d="M1183.24,-164.95C1201.55,-154.93 1223.39,-142.99 1239.82,-134"/>
<polygon fill="#63b8ff" stroke="#63b8ff" points="1241.7,-136.96 1248.79,-129.09 1238.34,-130.82 1241.7,-136.96"/>
</a>
</g>
</g>
<!-- Node23 -->
<g id="Node000023" class="node">
<title>Node23</title>
<g id="a_Node000023"><a xlink:href="FComponentHelper_8h.html" target="_top" xlink:title="FComponentHelper 선언에 대한 Doxygen 주석을 제공합니다.">
<polygon fill="white" stroke="#666666" points="1709,-129 1590,-129 1590,-110 1709,-110 1709,-129"/>
<text text-anchor="middle" x="1649.5" y="-117" font-family="Malgun Gothic" font-size="10.00">FComponentHelper.h</text>
</a>
</g>
</g>
<!-- Node1&#45;&gt;Node23 -->
<g id="edge35_Node000001_Node000023" class="edge">
<title>Node1&#45;&gt;Node23</title>
<g id="a_edge35_Node000001_Node000023"><a xlink:title=" ">
<path fill="none" stroke="#63b8ff" d="M1229.27,-174.07C1326.75,-161.65 1487.96,-141.1 1579.78,-129.39"/>
<polygon fill="#63b8ff" stroke="#63b8ff" points="1580.33,-132.85 1589.81,-128.11 1579.45,-125.9 1580.33,-132.85"/>
</a>
</g>
</g>
<!-- Node3 -->
<g id="Node000003" class="node">
<title>Node3</title>
<g id="a_Node000003"><a xlink:title=" ">
<polygon fill="#e0e0e0" stroke="#999999" points="1180.5,-19 1092.5,-19 1092.5,0 1180.5,0 1180.5,-19"/>
<text text-anchor="middle" x="1136.5" y="-7" font-family="Malgun Gothic" font-size="10.00">CoreMinimal.h</text>
</a>
</g>
</g>
<!-- Node2&#45;&gt;Node3 -->
<g id="edge2_Node000002_Node000003" class="edge">
<title>Node2&#45;&gt;Node3</title>
<g id="a_edge2_Node000002_Node000003"><a xlink:title=" ">
<path fill="none" stroke="#63b8ff" d="M673.83,-116.55C780.45,-112.57 988.74,-101.46 1056.5,-74 1082.29,-63.55 1106.53,-42.05 1121.42,-26.97"/>
<polygon fill="#63b8ff" stroke="#63b8ff" points="1124.31,-29.02 1128.68,-19.37 1119.24,-24.18 1124.31,-29.02"/>
</a>
</g>
</g>
<!-- Node4 -->
<g id="Node000004" class="node">
<title>Node4</title>
<g id="a_Node000004"><a xlink:href="Macro_8h.html" target="_top" xlink:title="Manager 모듈에서 공통으로 사용하는 매크로 정의에 대한 Doxygen 주석을 제공합니다.">
<polygon fill="white" stroke="#666666" points="295.5,-74 239.5,-74 239.5,-55 295.5,-55 295.5,-74"/>
<text text-anchor="middle" x="267.5" y="-62" font-family="Malgun Gothic" font-size="10.00">Macro.h</text>
</a>
</g>
</g>
<!-- Node2&#45;&gt;Node4 -->
<g id="edge3_Node000002_Node000004" class="edge">
<title>Node2&#45;&gt;Node4</title>
<g id="a_edge3_Node000002_Node000004"><a xlink:title=" ">
<path fill="none" stroke="#63b8ff" d="M545.28,-110.67C485.62,-103.04 394.11,-90.46 305.66,-74.09"/>
<polygon fill="#63b8ff" stroke="#63b8ff" points="306.21,-70.63 295.73,-72.23 304.92,-77.51 306.21,-70.63"/>
</a>
</g>
</g>
<!-- Node5 -->
<g id="Node000005" class="node">
<title>Node5</title>
<g id="a_Node000005"><a xlink:href="FHitStopData_8h.html" target="_top" xlink:title="FHitStopData 구조체에 대한 Doxygen 주석을 제공합니다.">
<polygon fill="white" stroke="#666666" points="531,-74 440,-74 440,-55 531,-55 531,-74"/>
<text text-anchor="middle" x="485.5" y="-62" font-family="Malgun Gothic" font-size="10.00">FHitStopData.h</text>
</a>
</g>
</g>
<!-- Node2&#45;&gt;Node5 -->
<g id="edge4_Node000002_Node000005" class="edge">
<title>Node2&#45;&gt;Node5</title>
<g id="a_edge4_Node000002_Node000005"><a xlink:title=" ">
<path fill="none" stroke="#63b8ff" d="M589.58,-109.98C569.45,-101.38 538.12,-87.99 515.09,-78.15"/>
<polygon fill="#63b8ff" stroke="#63b8ff" points="516.36,-74.88 505.79,-74.17 513.6,-81.32 516.36,-74.88"/>
</a>
</g>
</g>
<!-- Node9 -->
<g id="Node000009" class="node">
<title>Node9</title>
<g id="a_Node000009"><a xlink:href="FKnockbackData_8h.html" target="_top" xlink:title="FKnockbackData 구조체에 대한 Doxygen 주석을 제공합니다.">
<polygon fill="white" stroke="#666666" points="421.5,-74 313.5,-74 313.5,-55 421.5,-55 421.5,-74"/>
<text text-anchor="middle" x="367.5" y="-62" font-family="Malgun Gothic" font-size="10.00">FKnockbackData.h</text>
</a>
</g>
</g>
<!-- Node2&#45;&gt;Node9 -->
<g id="edge9_Node000002_Node000009" class="edge">
<title>Node2&#45;&gt;Node9</title>
<g id="a_edge9_Node000002_Node000009"><a xlink:title=" ">
<path fill="none" stroke="#63b8ff" d="M570.62,-109.98C528.76,-100.82 462.07,-86.21 416.62,-76.26"/>
<polygon fill="#63b8ff" stroke="#63b8ff" points="417.2,-72.8 406.69,-74.08 415.71,-79.64 417.2,-72.8"/>
</a>
</g>
</g>
<!-- Node11 -->
<g id="Node000011" class="node">
<title>Node11</title>
<g id="a_Node000011"><a xlink:href="FCharacterInfoData_8h.html" target="_top" xlink:title="FCharacterInfoData 구조체에 대한 Doxygen 주석을 제공합니다.">
<polygon fill="white" stroke="#666666" points="670,-74 549,-74 549,-55 670,-55 670,-74"/>
<text text-anchor="middle" x="609.5" y="-62" font-family="Malgun Gothic" font-size="10.00">FCharacterInfoData.h</text>
</a>
</g>
</g>
<!-- Node2&#45;&gt;Node11 -->
<g id="edge14_Node000002_Node000011" class="edge">
<title>Node2&#45;&gt;Node11</title>
<g id="a_edge14_Node000002_Node000011"><a xlink:title=" ">
<path fill="none" stroke="#63b8ff" d="M609.5,-109.75C609.5,-102.8 609.5,-92.85 609.5,-84.13"/>
<polygon fill="#63b8ff" stroke="#63b8ff" points="613,-84.09 609.5,-74.09 606,-84.09 613,-84.09"/>
</a>
</g>
</g>
<!-- Node2&#45;&gt;Node14 -->
<g id="edge19_Node000002_Node000014" class="edge">
<title>Node2&#45;&gt;Node14</title>
<g id="a_edge19_Node000002_Node000014"><a xlink:title=" ">
<path fill="none" stroke="#63b8ff" d="M669.59,-109.98C736.01,-100.57 842.88,-85.43 913.16,-75.47"/>
<polygon fill="#63b8ff" stroke="#63b8ff" points="913.84,-78.91 923.25,-74.04 912.86,-71.98 913.84,-78.91"/>
</a>
</g>
</g>
<!-- Node16 -->
<g id="Node000016" class="node">
<title>Node16</title>
<g id="a_Node000016"><a xlink:title=" ">
<polygon fill="#e0e0e0" stroke="#999999" points="900.5,-74 688.5,-74 688.5,-55 900.5,-55 900.5,-74"/>
<text text-anchor="middle" x="794.5" y="-62" font-family="Malgun Gothic" font-size="10.00">Subsystems/GameInstanceSubsystem.h</text>
</a>
</g>
</g>
<!-- Node2&#45;&gt;Node16 -->
<g id="edge24_Node000002_Node000016" class="edge">
<title>Node2&#45;&gt;Node16</title>
<g id="a_edge24_Node000002_Node000016"><a xlink:title=" ">
<path fill="none" stroke="#63b8ff" d="M639.22,-109.98C670.55,-101.01 720.07,-86.82 754.74,-76.89"/>
<polygon fill="#63b8ff" stroke="#63b8ff" points="755.89,-80.2 764.54,-74.08 753.97,-73.47 755.89,-80.2"/>
</a>
</g>
</g>
<!-- Node17 -->
<g id="Node000017" class="node">
<title>Node17</title>
<g id="a_Node000017"><a xlink:title=" ">
<polygon fill="#e0e0e0" stroke="#999999" points="221.5,-74 41.5,-74 41.5,-55 221.5,-55 221.5,-74"/>
<text text-anchor="middle" x="131.5" y="-62" font-family="Malgun Gothic" font-size="10.00">UGameDataManager.generated.h</text>
</a>
</g>
</g>
<!-- Node2&#45;&gt;Node17 -->
<g id="edge25_Node000002_Node000017" class="edge">
<title>Node2&#45;&gt;Node17</title>
<g id="a_edge25_Node000002_Node000017"><a xlink:title=" ">
<path fill="none" stroke="#63b8ff" d="M545.03,-111.35C460.7,-102 312.62,-85.58 218.43,-75.14"/>
<polygon fill="#63b8ff" stroke="#63b8ff" points="218.68,-71.64 208.35,-74.02 217.91,-78.6 218.68,-71.64"/>
</a>
</g>
</g>
<!-- Node5&#45;&gt;Node3 -->
<g id="edge5_Node000005_Node000003" class="edge">
<title>Node5&#45;&gt;Node3</title>
<g id="a_edge5_Node000005_Node000003"><a xlink:title=" ">
<path fill="none" stroke="#63b8ff" d="M531.13,-56.02C533.96,-55.65 536.76,-55.31 539.5,-55 777.02,-28.5 840.99,-45.73 1082.16,-19.04"/>
<polygon fill="#63b8ff" stroke="#63b8ff" points="1082.75,-22.5 1092.3,-17.9 1081.97,-15.54 1082.75,-22.5"/>
</a>
</g>
</g>
<!-- Node6 -->
<g id="Node000006" class="node">
<title>Node6</title>
<g id="a_Node000006"><a xlink:href="EDamageType_8h.html" target="_top" xlink:title="EDamageType 열거형에 대한 Doxygen 주석을 제공합니다.">
<polygon fill="white" stroke="#666666" points="274,-19 179,-19 179,0 274,0 274,-19"/>
<text text-anchor="middle" x="226.5" y="-7" font-family="Malgun Gothic" font-size="10.00">EDamageType.h</text>
</a>
</g>
</g>
<!-- Node5&#45;&gt;Node6 -->
<g id="edge6_Node000005_Node000006" class="edge">
<title>Node5&#45;&gt;Node6</title>
<g id="a_edge6_Node000005_Node000006"><a xlink:title=" ">
<path fill="none" stroke="#63b8ff" d="M443.89,-54.98C398.9,-45.78 327.11,-31.09 278.45,-21.13"/>
<polygon fill="#63b8ff" stroke="#63b8ff" points="278.94,-17.66 268.44,-19.08 277.53,-24.52 278.94,-17.66"/>
</a>
</g>
</g>
<!-- Node7 -->
<g id="Node000007" class="node">
<title>Node7</title>
<g id="a_Node000007"><a xlink:title=" ">
<polygon fill="#e0e0e0" stroke="#999999" points="563.5,-19 453.5,-19 453.5,0 563.5,0 563.5,-19"/>
<text text-anchor="middle" x="508.5" y="-7" font-family="Malgun Gothic" font-size="10.00">Engine/DataTable.h</text>
</a>
</g>
</g>
<!-- Node5&#45;&gt;Node7 -->
<g id="edge7_Node000005_Node000007" class="edge">
<title>Node5&#45;&gt;Node7</title>
<g id="a_edge7_Node000005_Node000007"><a xlink:title=" ">
<path fill="none" stroke="#63b8ff" d="M489.3,-54.75C492.41,-47.57 496.92,-37.18 500.79,-28.27"/>
<polygon fill="#63b8ff" stroke="#63b8ff" points="504,-29.66 504.77,-19.09 497.58,-26.87 504,-29.66"/>
</a>
</g>
</g>
<!-- Node8 -->
<g id="Node000008" class="node">
<title>Node8</title>
<g id="a_Node000008"><a xlink:title=" ">
<polygon fill="#e0e0e0" stroke="#999999" points="435,-19 292,-19 292,0 435,0 435,-19"/>
<text text-anchor="middle" x="363.5" y="-7" font-family="Malgun Gothic" font-size="10.00">FHitStopData.generated.h</text>
</a>
</g>
</g>
<!-- Node5&#45;&gt;Node8 -->
<g id="edge8_Node000005_Node000008" class="edge">
<title>Node5&#45;&gt;Node8</title>
<g id="a_edge8_Node000005_Node000008"><a xlink:title=" ">
<path fill="none" stroke="#63b8ff" d="M465.9,-54.98C446.18,-46.42 415.55,-33.11 392.92,-23.28"/>
<polygon fill="#63b8ff" stroke="#63b8ff" points="394.02,-19.94 383.46,-19.17 391.24,-26.37 394.02,-19.94"/>
</a>
</g>
</g>
<!-- Node9&#45;&gt;Node3 -->
<g id="edge10_Node000009_Node000003" class="edge">
<title>Node9&#45;&gt;Node3</title>
<g id="a_edge10_Node000009_Node000003"><a xlink:title=" ">
<path fill="none" stroke="#63b8ff" d="M421.76,-55.9C424.72,-55.57 427.64,-55.27 430.5,-55 716.61,-27.85 792.8,-49.56 1082.35,-19"/>
<polygon fill="#63b8ff" stroke="#63b8ff" points="1082.73,-22.48 1092.3,-17.94 1081.98,-15.52 1082.73,-22.48"/>
</a>
</g>
</g>
<!-- Node9&#45;&gt;Node6 -->
<g id="edge11_Node000009_Node000006" class="edge">
<title>Node9&#45;&gt;Node6</title>
<g id="a_edge11_Node000009_Node000006"><a xlink:title=" ">
<path fill="none" stroke="#63b8ff" d="M344.85,-54.98C321.65,-46.27 285.38,-32.63 259.1,-22.75"/>
<polygon fill="#63b8ff" stroke="#63b8ff" points="260.16,-19.41 249.57,-19.17 257.7,-25.97 260.16,-19.41"/>
</a>
</g>
</g>
<!-- Node9&#45;&gt;Node7 -->
<g id="edge12_Node000009_Node000007" class="edge">
<title>Node9&#45;&gt;Node7</title>
<g id="a_edge12_Node000009_Node000007"><a xlink:title=" ">
<path fill="none" stroke="#63b8ff" d="M390.15,-54.98C413.35,-46.27 449.62,-32.63 475.9,-22.75"/>
<polygon fill="#63b8ff" stroke="#63b8ff" points="477.3,-25.97 485.43,-19.17 474.84,-19.41 477.3,-25.97"/>
</a>
</g>
</g>
<!-- Node10 -->
<g id="Node000010" class="node">
<title>Node10</title>
<g id="a_Node000010"><a xlink:title=" ">
<polygon fill="#e0e0e0" stroke="#999999" points="161,-19 0,-19 0,0 161,0 161,-19"/>
<text text-anchor="middle" x="80.5" y="-7" font-family="Malgun Gothic" font-size="10.00">FKnockbackData.generated.h</text>
</a>
</g>
</g>
<!-- Node9&#45;&gt;Node10 -->
<g id="edge13_Node000009_Node000010" class="edge">
<title>Node9&#45;&gt;Node10</title>
<g id="a_edge13_Node000009_Node000010"><a xlink:title=" ">
<path fill="none" stroke="#63b8ff" d="M321.39,-54.98C271.22,-45.72 190.99,-30.9 137.06,-20.94"/>
<polygon fill="#63b8ff" stroke="#63b8ff" points="137.44,-17.46 126.97,-19.08 136.17,-24.34 137.44,-17.46"/>
</a>
</g>
</g>
<!-- Node11&#45;&gt;Node3 -->
<g id="edge15_Node000011_Node000003" class="edge">
<title>Node11&#45;&gt;Node3</title>
<g id="a_edge15_Node000011_Node000003"><a xlink:title=" ">
<path fill="none" stroke="#63b8ff" d="M670.19,-56.01C673.34,-55.66 676.46,-55.32 679.5,-55 855.54,-36.47 902.92,-41.11 1082.25,-19.07"/>
<polygon fill="#63b8ff" stroke="#63b8ff" points="1082.79,-22.53 1092.29,-17.83 1081.93,-15.59 1082.79,-22.53"/>
</a>
</g>
</g>
<!-- Node11&#45;&gt;Node7 -->
<g id="edge17_Node000011_Node000007" class="edge">
<title>Node11&#45;&gt;Node7</title>
<g id="a_edge17_Node000011_Node000007"><a xlink:title=" ">
<path fill="none" stroke="#63b8ff" d="M593.27,-54.98C577.32,-46.61 552.72,-33.7 534.12,-23.95"/>
<polygon fill="#63b8ff" stroke="#63b8ff" points="535.5,-20.72 525.02,-19.17 532.25,-26.92 535.5,-20.72"/>
</a>
</g>
</g>
<!-- Node12 -->
<g id="Node000012" class="node">
<title>Node12</title>
<g id="a_Node000012"><a xlink:href="ECharacterType_8h.html" target="_top" xlink:title="ECharacterType 열거형에 대한 Doxygen 주석을 제공합니다.">
<polygon fill="white" stroke="#666666" points="874,-19 773,-19 773,0 874,0 874,-19"/>
<text text-anchor="middle" x="823.5" y="-7" font-family="Malgun Gothic" font-size="10.00">ECharacterType.h</text>
</a>
</g>
</g>
<!-- Node11&#45;&gt;Node12 -->
<g id="edge16_Node000011_Node000012" class="edge">
<title>Node11&#45;&gt;Node12</title>
<g id="a_edge16_Node000011_Node000012"><a xlink:title=" ">
<path fill="none" stroke="#63b8ff" d="M643.88,-54.98C680.59,-45.89 738.88,-31.46 779.05,-21.51"/>
<polygon fill="#63b8ff" stroke="#63b8ff" points="779.98,-24.88 788.85,-19.08 778.3,-18.09 779.98,-24.88"/>
</a>
</g>
</g>
<!-- Node13 -->
<g id="Node000013" class="node">
<title>Node13</title>
<g id="a_Node000013"><a xlink:title=" ">
<polygon fill="#e0e0e0" stroke="#999999" points="755,-19 582,-19 582,0 755,0 755,-19"/>
<text text-anchor="middle" x="668.5" y="-7" font-family="Malgun Gothic" font-size="10.00">FCharacterInfoData.generated.h</text>
</a>
</g>
</g>
<!-- Node11&#45;&gt;Node13 -->
<g id="edge18_Node000011_Node000013" class="edge">
<title>Node11&#45;&gt;Node13</title>
<g id="a_edge18_Node000011_Node000013"><a xlink:title=" ">
<path fill="none" stroke="#63b8ff" d="M618.98,-54.98C627.7,-47.15 640.84,-35.34 651.4,-25.86"/>
<polygon fill="#63b8ff" stroke="#63b8ff" points="653.75,-28.46 658.85,-19.17 649.07,-23.25 653.75,-28.46"/>
</a>
</g>
</g>
<!-- Node14&#45;&gt;Node3 -->
<g id="edge20_Node000014_Node000003" class="edge">
<title>Node14&#45;&gt;Node3</title>
<g id="a_edge20_Node000014_Node000003"><a xlink:title=" ">
<path fill="none" stroke="#63b8ff" d="M1008.08,-54.98C1033.55,-46.16 1073.54,-32.31 1102.13,-22.41"/>
<polygon fill="#63b8ff" stroke="#63b8ff" points="1103.42,-25.66 1111.73,-19.08 1101.13,-19.05 1103.42,-25.66"/>
</a>
</g>
</g>
<!-- Node14&#45;&gt;Node7 -->
<g id="edge22_Node000014_Node000007" class="edge">
<title>Node14&#45;&gt;Node7</title>
<g id="a_edge22_Node000014_Node000007"><a xlink:title=" ">
<path fill="none" stroke="#63b8ff" d="M918.93,-56.05C915.74,-55.69 912.58,-55.34 909.5,-55 763,-38.76 723.73,-36.99 573.69,-19.12"/>
<polygon fill="#63b8ff" stroke="#63b8ff" points="573.99,-15.63 563.65,-17.92 573.16,-22.58 573.99,-15.63"/>
</a>
</g>
</g>
<!-- Node14&#45;&gt;Node12 -->
<g id="edge21_Node000014_Node000012" class="edge">
<title>Node14&#45;&gt;Node12</title>
<g id="a_edge21_Node000014_Node000012"><a xlink:title=" ">
<path fill="none" stroke="#63b8ff" d="M957.79,-54.98C931.05,-46.13 888.97,-32.19 859.05,-22.28"/>
<polygon fill="#63b8ff" stroke="#63b8ff" points="860,-18.9 849.41,-19.08 857.8,-25.55 860,-18.9"/>
</a>
</g>
</g>
<!-- Node15 -->
<g id="Node000015" class="node">
<title>Node15</title>
<g id="a_Node000015"><a xlink:title=" ">
<polygon fill="#e0e0e0" stroke="#999999" points="1074.5,-19 892.5,-19 892.5,0 1074.5,0 1074.5,-19"/>
<text text-anchor="middle" x="983.5" y="-7" font-family="Malgun Gothic" font-size="10.00">FCharacterAssetData.generated.h</text>
</a>
</g>
</g>
<!-- Node14&#45;&gt;Node15 -->
<g id="edge23_Node000014_Node000015" class="edge">
<title>Node14&#45;&gt;Node15</title>
<g id="a_edge23_Node000014_Node000015"><a xlink:title=" ">
<path fill="none" stroke="#63b8ff" d="M983.5,-54.75C983.5,-47.8 983.5,-37.85 983.5,-29.13"/>
<polygon fill="#63b8ff" stroke="#63b8ff" points="987,-29.09 983.5,-19.09 980,-29.09 987,-29.09"/>
</a>
</g>
</g>
<!-- Node18&#45;&gt;Node3 -->
<g id="edge27_Node000018_Node000003" class="edge">
<title>Node18&#45;&gt;Node3</title>
<g id="a_edge27_Node000018_Node000003"><a xlink:title=" ">
<path fill="none" stroke="#63b8ff" d="M1218,-115.89C1188.57,-111.53 1152.59,-100.65 1133.5,-74 1124.27,-61.12 1126.34,-42.7 1129.94,-29.02"/>
<polygon fill="#63b8ff" stroke="#63b8ff" points="1133.34,-29.84 1132.96,-19.26 1126.66,-27.77 1133.34,-29.84"/>
</a>
</g>
</g>
<!-- Node19 -->
<g id="Node000019" class="node">
<title>Node19</title>
<g id="a_Node000019"><a xlink:title=" ">
<polygon fill="#e0e0e0" stroke="#999999" points="1262,-74 1143,-74 1143,-55 1262,-55 1262,-74"/>
<text text-anchor="middle" x="1202.5" y="-62" font-family="Malgun Gothic" font-size="10.00">Logging/LogMacros.h</text>
</a>
</g>
</g>
<!-- Node18&#45;&gt;Node19 -->
<g id="edge28_Node000018_Node000019" class="edge">
<title>Node18&#45;&gt;Node19</title>
<g id="a_edge28_Node000018_Node000019"><a xlink:title=" ">
<path fill="none" stroke="#63b8ff" d="M1254.54,-109.98C1245.37,-102.15 1231.56,-90.34 1220.47,-80.86"/>
<polygon fill="#63b8ff" stroke="#63b8ff" points="1222.52,-78.01 1212.64,-74.17 1217.97,-83.33 1222.52,-78.01"/>
</a>
</g>
</g>
<!-- Node20 -->
<g id="Node000020" class="node">
<title>Node20</title>
<g id="a_Node000020"><a xlink:title=" ">
<polygon fill="#e0e0e0" stroke="#999999" points="1375,-74 1280,-74 1280,-55 1375,-55 1375,-74"/>
<text text-anchor="middle" x="1327.5" y="-62" font-family="Malgun Gothic" font-size="10.00">Engine/Engine.h</text>
</a>
</g>
</g>
<!-- Node18&#45;&gt;Node20 -->
<g id="edge29_Node000018_Node000020" class="edge">
<title>Node18&#45;&gt;Node20</title>
<g id="a_edge29_Node000018_Node000020"><a xlink:title=" ">
<path fill="none" stroke="#63b8ff" d="M1274.62,-109.98C1283.94,-102.15 1297.97,-90.34 1309.24,-80.86"/>
<polygon fill="#63b8ff" stroke="#63b8ff" points="1311.79,-83.29 1317.19,-74.17 1307.29,-77.93 1311.79,-83.29"/>
</a>
</g>
</g>
<!-- Node21 -->
<g id="Node000021" class="node">
<title>Node21</title>
<g id="a_Node000021"><a xlink:href="FLogWriter_8h.html" target="_top" xlink:title="FLogWriter 선언에 대한 Doxygen 주석을 제공합니다.">
<polygon fill="white" stroke="#666666" points="1471.5,-74 1393.5,-74 1393.5,-55 1471.5,-55 1471.5,-74"/>
<text text-anchor="middle" x="1432.5" y="-62" font-family="Malgun Gothic" font-size="10.00">FLogWriter.h</text>
</a>
</g>
</g>
<!-- Node18&#45;&gt;Node21 -->
<g id="edge30_Node000018_Node000021" class="edge">
<title>Node18&#45;&gt;Node21</title>
<g id="a_edge30_Node000018_Node000021"><a xlink:title=" ">
<path fill="none" stroke="#63b8ff" d="M1291.49,-109.98C1319.7,-101.09 1364.14,-87.07 1395.58,-77.15"/>
<polygon fill="#63b8ff" stroke="#63b8ff" points="1396.81,-80.43 1405.3,-74.08 1394.71,-73.75 1396.81,-80.43"/>
</a>
</g>
</g>
<!-- Node22 -->
<g id="Node000022" class="node">
<title>Node22</title>
<g id="a_Node000022"><a xlink:href="NetworkLog_8h.html" target="_top" xlink:title="NetworkLog 선언에 대한 Doxygen 주석을 제공합니다.">
<polygon fill="white" stroke="#666666" points="1573.5,-74 1489.5,-74 1489.5,-55 1573.5,-55 1573.5,-74"/>
<text text-anchor="middle" x="1531.5" y="-62" font-family="Malgun Gothic" font-size="10.00">NetworkLog.h</text>
</a>
</g>
</g>
<!-- Node18&#45;&gt;Node22 -->
<g id="edge32_Node000018_Node000022" class="edge">
<title>Node18&#45;&gt;Node22</title>
<g id="a_edge32_Node000018_Node000022"><a xlink:title=" ">
<path fill="none" stroke="#63b8ff" d="M1307.4,-109.98C1354.15,-100.7 1428.97,-85.85 1479.15,-75.89"/>
<polygon fill="#63b8ff" stroke="#63b8ff" points="1480.02,-79.29 1489.15,-73.91 1478.66,-72.42 1480.02,-79.29"/>
</a>
</g>
</g>
<!-- Node21&#45;&gt;Node3 -->
<g id="edge31_Node000021_Node000003" class="edge">
<title>Node21&#45;&gt;Node3</title>
<g id="a_edge31_Node000021_Node000003"><a xlink:title=" ">
<path fill="none" stroke="#63b8ff" d="M1393.5,-56.52C1341.67,-47.24 1249.81,-30.79 1191.1,-20.28"/>
<polygon fill="#63b8ff" stroke="#63b8ff" points="1191.36,-16.77 1180.9,-18.45 1190.13,-23.66 1191.36,-16.77"/>
</a>
</g>
</g>
<!-- Node22&#45;&gt;Node3 -->
<g id="edge33_Node000022_Node000003" class="edge">
<title>Node22&#45;&gt;Node3</title>
<g id="a_edge33_Node000022_Node000003"><a xlink:title=" ">
<path fill="none" stroke="#63b8ff" d="M1489.49,-56.37C1486.45,-55.9 1483.43,-55.43 1480.5,-55 1378.22,-39.87 1258.41,-25.02 1190.58,-16.88"/>
<polygon fill="#63b8ff" stroke="#63b8ff" points="1190.9,-13.39 1180.56,-15.68 1190.07,-20.34 1190.9,-13.39"/>
</a>
</g>
</g>
<!-- Node23&#45;&gt;Node3 -->
<g id="edge36_Node000023_Node000003" class="edge">
<title>Node23&#45;&gt;Node3</title>
<g id="a_edge36_Node000023_Node000003"><a xlink:title=" ">
<path fill="none" stroke="#63b8ff" d="M1643.29,-109.63C1632.69,-95.3 1609.61,-67.4 1582.5,-55 1514,-23.67 1294.03,-14.27 1190.87,-11.56"/>
<polygon fill="#63b8ff" stroke="#63b8ff" points="1190.75,-8.05 1180.66,-11.3 1190.57,-15.05 1190.75,-8.05"/>
</a>
</g>
</g>
<!-- Node24 -->
<g id="Node000024" class="node">
<title>Node24</title>
<g id="a_Node000024"><a xlink:title=" ">
<polygon fill="#e0e0e0" stroke="#999999" points="1767,-74 1630,-74 1630,-55 1767,-55 1767,-74"/>
<text text-anchor="middle" x="1698.5" y="-62" font-family="Malgun Gothic" font-size="10.00">GameFramework/Actor.h</text>
</a>
</g>
</g>
<!-- Node23&#45;&gt;Node24 -->
<g id="edge37_Node000023_Node000024" class="edge">
<title>Node23&#45;&gt;Node24</title>
<g id="a_edge37_Node000023_Node000024"><a xlink:title=" ">
<path fill="none" stroke="#63b8ff" d="M1657.59,-109.75C1664.66,-102.11 1675.09,-90.82 1683.65,-81.56"/>
<polygon fill="#63b8ff" stroke="#63b8ff" points="1686.34,-83.81 1690.56,-74.09 1681.2,-79.06 1686.34,-83.81"/>
</a>
</g>
</g>
<!-- Node25 -->
<g id="Node000025" class="node">
<title>Node25</title>
<g id="a_Node000025"><a xlink:title=" ">
<polygon fill="#e0e0e0" stroke="#999999" points="1957.5,-74 1785.5,-74 1785.5,-55 1957.5,-55 1957.5,-74"/>
<text text-anchor="middle" x="1871.5" y="-62" font-family="Malgun Gothic" font-size="10.00">Components/ActorComponent.h</text>
</a>
</g>
</g>
<!-- Node23&#45;&gt;Node25 -->
<g id="edge38_Node000023_Node000025" class="edge">
<title>Node23&#45;&gt;Node25</title>
<g id="a_edge38_Node000023_Node000025"><a xlink:title=" ">
<path fill="none" stroke="#63b8ff" d="M1685.17,-109.98C1723.33,-100.87 1783.97,-86.4 1825.65,-76.45"/>
<polygon fill="#63b8ff" stroke="#63b8ff" points="1826.64,-79.81 1835.55,-74.08 1825.01,-73 1826.64,-79.81"/>
</a>
</g>
</g>
</g>
</svg>
