<?xml version="1.0" encoding="UTF-8" standalone="no"?>
<!DOCTYPE svg PUBLIC "-//W3C//DTD SVG 1.1//EN"
 "http://www.w3.org/Graphics/SVG/1.1/DTD/svg11.dtd">
<!-- Generated by graphviz version 2.43.0 (0)
 -->
<!-- Title: Source/YiSan/Voice/Public/UGoogleSpeechService.h Pages: 1 -->
<svg width="886pt" height="148pt"
 viewBox="0.00 0.00 885.60 148.00" xmlns="http://www.w3.org/2000/svg" xmlns:xlink="http://www.w3.org/1999/xlink">
<g id="graph0" class="graph" transform="scale(1 1) rotate(0) translate(4 144)">
<title>Source/YiSan/Voice/Public/UGoogleSpeechService.h</title>
<!-- Node1 -->
<g id="Node000001" class="node">
<title>Node1</title>
<g id="a_Node000001"><a xlink:title=" ">
<polygon fill="#999999" stroke="#666666" points="433.1,-140 259.1,-140 259.1,-110 433.1,-110 433.1,-140"/>
<text text-anchor="start" x="267.1" y="-128" font-family="Malgun Gothic" font-size="10.00">Source/YiSan/Voice</text>
<text text-anchor="middle" x="346.1" y="-117" font-family="Malgun Gothic" font-size="10.00">/Public/UGoogleSpeechService.h</text>
</a>
</g>
</g>
<!-- Node2 -->
<g id="Node000002" class="node">
<title>Node2</title>
<g id="a_Node000002"><a xlink:title=" ">
<polygon fill="#e0e0e0" stroke="#999999" points="277.1,-19 189.1,-19 189.1,0 277.1,0 277.1,-19"/>
<text text-anchor="middle" x="233.1" y="-7" font-family="Malgun Gothic" font-size="10.00">CoreMinimal.h</text>
</a>
</g>
</g>
<!-- Node1&#45;&gt;Node2 -->
<g id="edge1_Node000001_Node000002" class="edge">
<title>Node1&#45;&gt;Node2</title>
<g id="a_edge1_Node000001_Node000002"><a xlink:title=" ">
<path fill="none" stroke="#63b8ff" d="M259.05,-123.72C168.79,-121.37 36.43,-111.4 4.1,-74 -1.42,-67.61 -1.27,-61.52 4.1,-55 25.81,-28.67 118.15,-17.72 178.74,-13.31"/>
<polygon fill="#63b8ff" stroke="#63b8ff" points="179.18,-16.79 188.92,-12.61 178.7,-9.81 179.18,-16.79"/>
</a>
</g>
</g>
<!-- Node3 -->
<g id="Node000003" class="node">
<title>Node3</title>
<g id="a_Node000003"><a xlink:title=" ">
<polygon fill="#e0e0e0" stroke="#999999" points="154.6,-74 13.6,-74 13.6,-55 154.6,-55 154.6,-74"/>
<text text-anchor="middle" x="84.1" y="-62" font-family="Malgun Gothic" font-size="10.00">Interfaces/IHttpRequest.h</text>
</a>
</g>
</g>
<!-- Node1&#45;&gt;Node3 -->
<g id="edge2_Node000001_Node000003" class="edge">
<title>Node1&#45;&gt;Node3</title>
<g id="a_edge2_Node000001_Node000003"><a xlink:title=" ">
<path fill="none" stroke="#63b8ff" d="M283.35,-109.99C236.96,-99.63 174.73,-85.73 132.23,-76.25"/>
<polygon fill="#63b8ff" stroke="#63b8ff" points="132.93,-72.82 122.41,-74.05 131.41,-79.65 132.93,-72.82"/>
</a>
</g>
</g>
<!-- Node4 -->
<g id="Node000004" class="node">
<title>Node4</title>
<g id="a_Node000004"><a xlink:title=" ">
<polygon fill="#e0e0e0" stroke="#999999" points="321.6,-74 172.6,-74 172.6,-55 321.6,-55 321.6,-74"/>
<text text-anchor="middle" x="247.1" y="-62" font-family="Malgun Gothic" font-size="10.00">Interfaces/IHttpResponse.h</text>
</a>
</g>
</g>
<!-- Node1&#45;&gt;Node4 -->
<g id="edge3_Node000001_Node000004" class="edge">
<title>Node1&#45;&gt;Node4</title>
<g id="a_edge3_Node000001_Node000004"><a xlink:title=" ">
<path fill="none" stroke="#63b8ff" d="M322.39,-109.99C306.76,-100.75 286.37,-88.7 270.75,-79.47"/>
<polygon fill="#63b8ff" stroke="#63b8ff" points="272.11,-76.21 261.72,-74.14 268.55,-82.24 272.11,-76.21"/>
</a>
</g>
</g>
<!-- Node5 -->
<g id="Node000005" class="node">
<title>Node5</title>
<g id="a_Node000005"><a xlink:title=" ">
<polygon fill="#e0e0e0" stroke="#999999" points="551.1,-74 339.1,-74 339.1,-55 551.1,-55 551.1,-74"/>
<text text-anchor="middle" x="445.1" y="-62" font-family="Malgun Gothic" font-size="10.00">Subsystems/GameInstanceSubsystem.h</text>
</a>
</g>
</g>
<!-- Node1&#45;&gt;Node5 -->
<g id="edge4_Node000001_Node000005" class="edge">
<title>Node1&#45;&gt;Node5</title>
<g id="a_edge4_Node000001_Node000005"><a xlink:title=" ">
<path fill="none" stroke="#63b8ff" d="M369.82,-109.99C385.45,-100.75 405.84,-88.7 421.46,-79.47"/>
<polygon fill="#63b8ff" stroke="#63b8ff" points="423.66,-82.24 430.48,-74.14 420.09,-76.21 423.66,-82.24"/>
</a>
</g>
</g>
<!-- Node6 -->
<g id="Node000006" class="node">
<title>Node6</title>
<g id="a_Node000006"><a xlink:href="UVoiceSettings_8h.html" target="_top" xlink:title=" ">
<polygon fill="white" stroke="#666666" points="668.6,-74 569.6,-74 569.6,-55 668.6,-55 668.6,-74"/>
<text text-anchor="middle" x="619.1" y="-62" font-family="Malgun Gothic" font-size="10.00">UVoiceSettings.h</text>
</a>
</g>
</g>
<!-- Node1&#45;&gt;Node6 -->
<g id="edge5_Node000001_Node000006" class="edge">
<title>Node1&#45;&gt;Node6</title>
<g id="a_edge5_Node000001_Node000006"><a xlink:title=" ">
<path fill="none" stroke="#63b8ff" d="M411.49,-109.99C459.93,-99.61 524.95,-85.68 569.23,-76.19"/>
<polygon fill="#63b8ff" stroke="#63b8ff" points="570.14,-79.57 579.19,-74.05 568.68,-72.73 570.14,-79.57"/>
</a>
</g>
</g>
<!-- Node9 -->
<g id="Node000009" class="node">
<title>Node9</title>
<g id="a_Node000009"><a xlink:title=" ">
<polygon fill="#e0e0e0" stroke="#999999" points="877.6,-74 686.6,-74 686.6,-55 877.6,-55 877.6,-74"/>
<text text-anchor="middle" x="782.1" y="-62" font-family="Malgun Gothic" font-size="10.00">UGoogleSpeechService.generated.h</text>
</a>
</g>
</g>
<!-- Node1&#45;&gt;Node9 -->
<g id="edge9_Node000001_Node000009" class="edge">
<title>Node1&#45;&gt;Node9</title>
<g id="a_edge9_Node000001_Node000009"><a xlink:title=" ">
<path fill="none" stroke="#63b8ff" d="M433.29,-112.3C514.03,-101.47 632.77,-85.54 708.76,-75.34"/>
<polygon fill="#63b8ff" stroke="#63b8ff" points="709.28,-78.8 718.73,-74 708.35,-71.86 709.28,-78.8"/>
</a>
</g>
</g>
<!-- Node6&#45;&gt;Node2 -->
<g id="edge6_Node000006_Node000002" class="edge">
<title>Node6&#45;&gt;Node2</title>
<g id="a_edge6_Node000006_Node000002"><a xlink:title=" ">
<path fill="none" stroke="#63b8ff" d="M569.53,-56.33C566.34,-55.88 563.18,-55.43 560.1,-55 464.1,-41.55 352.16,-26.44 287.28,-17.74"/>
<polygon fill="#63b8ff" stroke="#63b8ff" points="287.66,-14.26 277.28,-16.4 286.73,-21.2 287.66,-14.26"/>
</a>
</g>
</g>
<!-- Node7 -->
<g id="Node000007" class="node">
<title>Node7</title>
<g id="a_Node000007"><a xlink:title=" ">
<polygon fill="#e0e0e0" stroke="#999999" points="610.1,-19 458.1,-19 458.1,0 610.1,0 610.1,-19"/>
<text text-anchor="middle" x="534.1" y="-7" font-family="Malgun Gothic" font-size="10.00">Engine/DeveloperSettings.h</text>
</a>
</g>
</g>
<!-- Node6&#45;&gt;Node7 -->
<g id="edge7_Node000006_Node000007" class="edge">
<title>Node6&#45;&gt;Node7</title>
<g id="a_edge7_Node000006_Node000007"><a xlink:title=" ">
<path fill="none" stroke="#63b8ff" d="M605.45,-54.98C592.27,-46.77 572.08,-34.18 556.53,-24.49"/>
<polygon fill="#63b8ff" stroke="#63b8ff" points="558.35,-21.49 548.01,-19.17 554.64,-27.43 558.35,-21.49"/>
</a>
</g>
</g>
<!-- Node8 -->
<g id="Node000008" class="node">
<title>Node8</title>
<g id="a_Node000008"><a xlink:title=" ">
<polygon fill="#e0e0e0" stroke="#999999" points="780.1,-19 628.1,-19 628.1,0 780.1,0 780.1,-19"/>
<text text-anchor="middle" x="704.1" y="-7" font-family="Malgun Gothic" font-size="10.00">UVoiceSettings.generated.h</text>
</a>
</g>
</g>
<!-- Node6&#45;&gt;Node8 -->
<g id="edge8_Node000006_Node000008" class="edge">
<title>Node6&#45;&gt;Node8</title>
<g id="a_edge8_Node000006_Node000008"><a xlink:title=" ">
<path fill="none" stroke="#63b8ff" d="M632.76,-54.98C645.94,-46.77 666.13,-34.18 681.67,-24.49"/>
<polygon fill="#63b8ff" stroke="#63b8ff" points="683.57,-27.43 690.2,-19.17 679.86,-21.49 683.57,-27.43"/>
</a>
</g>
</g>
</g>
</svg>
