<?xml version="1.0" encoding="UTF-8" standalone="no"?>
<!DOCTYPE svg PUBLIC "-//W3C//DTD SVG 1.1//EN"
 "http://www.w3.org/Graphics/SVG/1.1/DTD/svg11.dtd">
<!-- Generated by graphviz version 2.43.0 (0)
 -->
<!-- Title: Source/YiSan/Voice/Private/UGoogleSpeechService.cpp Pages: 1 -->
<svg width="1383pt" height="203pt"
 viewBox="0.00 0.00 1383.00 203.00" xmlns="http://www.w3.org/2000/svg" xmlns:xlink="http://www.w3.org/1999/xlink">
<g id="graph0" class="graph" transform="scale(1 1) rotate(0) translate(4 199)">
<title>Source/YiSan/Voice/Private/UGoogleSpeechService.cpp</title>
<!-- Node1 -->
<g id="Node000001" class="node">
<title>Node1</title>
<g id="a_Node000001"><a xlink:title=" ">
<polygon fill="#999999" stroke="#666666" points="718.5,-195 527.5,-195 527.5,-165 718.5,-165 718.5,-195"/>
<text text-anchor="start" x="535.5" y="-183" font-family="Malgun Gothic" font-size="10.00">Source/YiSan/Voice</text>
<text text-anchor="middle" x="623" y="-172" font-family="Malgun Gothic" font-size="10.00">/Private/UGoogleSpeechService.cpp</text>
</a>
</g>
</g>
<!-- Node2 -->
<g id="Node000002" class="node">
<title>Node2</title>
<g id="a_Node000002"><a xlink:href="UGoogleSpeechService_8h.html" target="_top" xlink:title=" ">
<polygon fill="white" stroke="#666666" points="419.5,-129 280.5,-129 280.5,-110 419.5,-110 419.5,-129"/>
<text text-anchor="middle" x="350" y="-117" font-family="Malgun Gothic" font-size="10.00">UGoogleSpeechService.h</text>
</a>
</g>
</g>
<!-- Node1&#45;&gt;Node2 -->
<g id="edge1_Node000001_Node000002" class="edge">
<title>Node1&#45;&gt;Node2</title>
<g id="a_edge1_Node000001_Node000002"><a xlink:title=" ">
<path fill="none" stroke="#63b8ff" d="M557.61,-164.99C509.17,-154.61 444.15,-140.68 399.87,-131.19"/>
<polygon fill="#63b8ff" stroke="#63b8ff" points="400.43,-127.73 389.92,-129.05 398.96,-134.57 400.43,-127.73"/>
</a>
</g>
</g>
<!-- Node4 -->
<g id="Node000004" class="node">
<title>Node4</title>
<g id="a_Node000004"><a xlink:title=" ">
<polygon fill="#e0e0e0" stroke="#999999" points="243.5,-74 102.5,-74 102.5,-55 243.5,-55 243.5,-74"/>
<text text-anchor="middle" x="173" y="-62" font-family="Malgun Gothic" font-size="10.00">Interfaces/IHttpRequest.h</text>
</a>
</g>
</g>
<!-- Node1&#45;&gt;Node4 -->
<g id="edge15_Node000001_Node000004" class="edge">
<title>Node1&#45;&gt;Node4</title>
<g id="a_edge15_Node000001_Node000004"><a xlink:title=" ">
<path fill="none" stroke="#63b8ff" d="M527.19,-176.35C455.06,-171.76 354.79,-159.78 272,-129 241.27,-117.58 210.14,-95.5 191.2,-80.63"/>
<polygon fill="#63b8ff" stroke="#63b8ff" points="193.16,-77.71 183.17,-74.18 188.78,-83.17 193.16,-77.71"/>
</a>
</g>
</g>
<!-- Node5 -->
<g id="Node000005" class="node">
<title>Node5</title>
<g id="a_Node000005"><a xlink:title=" ">
<polygon fill="#e0e0e0" stroke="#999999" points="1006.5,-74 857.5,-74 857.5,-55 1006.5,-55 1006.5,-74"/>
<text text-anchor="middle" x="932" y="-62" font-family="Malgun Gothic" font-size="10.00">Interfaces/IHttpResponse.h</text>
</a>
</g>
</g>
<!-- Node1&#45;&gt;Node5 -->
<g id="edge16_Node000001_Node000005" class="edge">
<title>Node1&#45;&gt;Node5</title>
<g id="a_edge16_Node000001_Node000005"><a xlink:title=" ">
<path fill="none" stroke="#63b8ff" d="M527.26,-165.59C481.83,-155.34 442.48,-138.05 468,-110 495.11,-80.21 774.76,-78.29 847.25,-73.93"/>
<polygon fill="#63b8ff" stroke="#63b8ff" points="847.64,-77.41 857.35,-73.17 847.11,-70.43 847.64,-77.41"/>
</a>
</g>
</g>
<!-- Node11 -->
<g id="Node000011" class="node">
<title>Node11</title>
<g id="a_Node000011"><a xlink:href="NetworkLog_8h.html" target="_top" xlink:title="NetworkLog 선언에 대한 Doxygen 주석을 제공합니다.">
<polygon fill="white" stroke="#666666" points="84,-74 0,-74 0,-55 84,-55 84,-74"/>
<text text-anchor="middle" x="42" y="-62" font-family="Malgun Gothic" font-size="10.00">NetworkLog.h</text>
</a>
</g>
</g>
<!-- Node1&#45;&gt;Node11 -->
<g id="edge11_Node000001_Node000011" class="edge">
<title>Node1&#45;&gt;Node11</title>
<g id="a_edge11_Node000001_Node000011"><a xlink:title=" ">
<path fill="none" stroke="#63b8ff" d="M527.42,-172.11C447.47,-165.09 330.8,-151.89 231,-129 173.79,-115.88 109.45,-92.28 72.53,-77.84"/>
<polygon fill="#63b8ff" stroke="#63b8ff" points="73.45,-74.44 62.87,-74.03 70.88,-80.96 73.45,-74.44"/>
</a>
</g>
</g>
<!-- Node12 -->
<g id="Node000012" class="node">
<title>Node12</title>
<g id="a_Node000012"><a xlink:title=" ">
<polygon fill="#e0e0e0" stroke="#999999" points="563.5,-129 476.5,-129 476.5,-110 563.5,-110 563.5,-129"/>
<text text-anchor="middle" x="520" y="-117" font-family="Malgun Gothic" font-size="10.00">Misc/Base64.h</text>
</a>
</g>
</g>
<!-- Node1&#45;&gt;Node12 -->
<g id="edge13_Node000001_Node000012" class="edge">
<title>Node1&#45;&gt;Node12</title>
<g id="a_edge13_Node000001_Node000012"><a xlink:title=" ">
<path fill="none" stroke="#63b8ff" d="M598.33,-164.99C581.91,-155.66 560.45,-143.47 544.14,-134.21"/>
<polygon fill="#63b8ff" stroke="#63b8ff" points="545.63,-131.03 535.21,-129.14 542.18,-137.12 545.63,-131.03"/>
</a>
</g>
</g>
<!-- Node13 -->
<g id="Node000013" class="node">
<title>Node13</title>
<g id="a_Node000013"><a xlink:title=" ">
<polygon fill="#e0e0e0" stroke="#999999" points="664.5,-129 581.5,-129 581.5,-110 664.5,-110 664.5,-129"/>
<text text-anchor="middle" x="623" y="-117" font-family="Malgun Gothic" font-size="10.00">HttpModule.h</text>
</a>
</g>
</g>
<!-- Node1&#45;&gt;Node13 -->
<g id="edge14_Node000001_Node000013" class="edge">
<title>Node1&#45;&gt;Node13</title>
<g id="a_edge14_Node000001_Node000013"><a xlink:title=" ">
<path fill="none" stroke="#63b8ff" d="M623,-164.84C623,-157.21 623,-147.7 623,-139.45"/>
<polygon fill="#63b8ff" stroke="#63b8ff" points="626.5,-139.27 623,-129.27 619.5,-139.27 626.5,-139.27"/>
</a>
</g>
</g>
<!-- Node14 -->
<g id="Node000014" class="node">
<title>Node14</title>
<g id="a_Node000014"><a xlink:title=" ">
<polygon fill="#e0e0e0" stroke="#999999" points="837.5,-129 682.5,-129 682.5,-110 837.5,-110 837.5,-129"/>
<text text-anchor="middle" x="760" y="-117" font-family="Malgun Gothic" font-size="10.00">Serialization/JsonSerializer.h</text>
</a>
</g>
</g>
<!-- Node1&#45;&gt;Node14 -->
<g id="edge17_Node000001_Node000014" class="edge">
<title>Node1&#45;&gt;Node14</title>
<g id="a_edge17_Node000001_Node000014"><a xlink:title=" ">
<path fill="none" stroke="#63b8ff" d="M655.81,-164.99C678.47,-155.31 708.35,-142.56 730.3,-133.18"/>
<polygon fill="#63b8ff" stroke="#63b8ff" points="731.95,-136.29 739.77,-129.14 729.2,-129.85 731.95,-136.29"/>
</a>
</g>
</g>
<!-- Node15 -->
<g id="Node000015" class="node">
<title>Node15</title>
<g id="a_Node000015"><a xlink:title=" ">
<polygon fill="#e0e0e0" stroke="#999999" points="994.5,-129 855.5,-129 855.5,-110 994.5,-110 994.5,-129"/>
<text text-anchor="middle" x="925" y="-117" font-family="Malgun Gothic" font-size="10.00">Serialization/JsonWriter.h</text>
</a>
</g>
</g>
<!-- Node1&#45;&gt;Node15 -->
<g id="edge18_Node000001_Node000015" class="edge">
<title>Node1&#45;&gt;Node15</title>
<g id="a_edge18_Node000001_Node000015"><a xlink:title=" ">
<path fill="none" stroke="#63b8ff" d="M695.34,-164.99C749.26,-154.54 821.75,-140.5 870.76,-131.01"/>
<polygon fill="#63b8ff" stroke="#63b8ff" points="871.69,-134.39 880.84,-129.05 870.36,-127.52 871.69,-134.39"/>
</a>
</g>
</g>
<!-- Node16 -->
<g id="Node000016" class="node">
<title>Node16</title>
<g id="a_Node000016"><a xlink:title=" ">
<polygon fill="#e0e0e0" stroke="#999999" points="1117,-129 1013,-129 1013,-110 1117,-110 1117,-129"/>
<text text-anchor="middle" x="1065" y="-117" font-family="Malgun Gothic" font-size="10.00">Dom/JsonObject.h</text>
</a>
</g>
</g>
<!-- Node1&#45;&gt;Node16 -->
<g id="edge19_Node000001_Node000016" class="edge">
<title>Node1&#45;&gt;Node16</title>
<g id="a_edge19_Node000001_Node000016"><a xlink:title=" ">
<path fill="none" stroke="#63b8ff" d="M718.54,-166.68C793.21,-156.99 899.9,-143.05 1002.81,-129.15"/>
<polygon fill="#63b8ff" stroke="#63b8ff" points="1003.32,-132.62 1012.76,-127.81 1002.38,-125.68 1003.32,-132.62"/>
</a>
</g>
</g>
<!-- Node17 -->
<g id="Node000017" class="node">
<title>Node17</title>
<g id="a_Node000017"><a xlink:title=" ">
<polygon fill="#e0e0e0" stroke="#999999" points="1224.5,-129 1135.5,-129 1135.5,-110 1224.5,-110 1224.5,-129"/>
<text text-anchor="middle" x="1180" y="-117" font-family="Malgun Gothic" font-size="10.00">Engine/World.h</text>
</a>
</g>
</g>
<!-- Node1&#45;&gt;Node17 -->
<g id="edge20_Node000001_Node000017" class="edge">
<title>Node1&#45;&gt;Node17</title>
<g id="a_edge20_Node000001_Node000017"><a xlink:title=" ">
<path fill="none" stroke="#63b8ff" d="M718.68,-171.13C817.73,-162.6 977.19,-147.83 1125.07,-129.05"/>
<polygon fill="#63b8ff" stroke="#63b8ff" points="1125.76,-132.49 1135.24,-127.75 1124.88,-125.54 1125.76,-132.49"/>
</a>
</g>
</g>
<!-- Node18 -->
<g id="Node000018" class="node">
<title>Node18</title>
<g id="a_Node000018"><a xlink:title=" ">
<polygon fill="#e0e0e0" stroke="#999999" points="1375,-129 1243,-129 1243,-110 1375,-110 1375,-129"/>
<text text-anchor="middle" x="1309" y="-117" font-family="Malgun Gothic" font-size="10.00">Engine/GameInstance.h</text>
</a>
</g>
</g>
<!-- Node1&#45;&gt;Node18 -->
<g id="edge21_Node000001_Node000018" class="edge">
<title>Node1&#45;&gt;Node18</title>
<g id="a_edge21_Node000001_Node000018"><a xlink:title=" ">
<path fill="none" stroke="#63b8ff" d="M718.59,-172.1C836.81,-163.37 1044.48,-147.34 1232.68,-129.1"/>
<polygon fill="#63b8ff" stroke="#63b8ff" points="1233.14,-132.57 1242.76,-128.12 1232.47,-125.61 1233.14,-132.57"/>
</a>
</g>
</g>
<!-- Node3 -->
<g id="Node000003" class="node">
<title>Node3</title>
<g id="a_Node000003"><a xlink:title=" ">
<polygon fill="#e0e0e0" stroke="#999999" points="256,-19 168,-19 168,0 256,0 256,-19"/>
<text text-anchor="middle" x="212" y="-7" font-family="Malgun Gothic" font-size="10.00">CoreMinimal.h</text>
</a>
</g>
</g>
<!-- Node2&#45;&gt;Node3 -->
<g id="edge2_Node000002_Node000003" class="edge">
<title>Node2&#45;&gt;Node3</title>
<g id="a_edge2_Node000002_Node000003"><a xlink:title=" ">
<path fill="none" stroke="#63b8ff" d="M338.4,-109.69C326.66,-100.75 308.01,-86.49 292,-74 271,-57.62 247.11,-38.6 230.94,-25.68"/>
<polygon fill="#63b8ff" stroke="#63b8ff" points="232.82,-22.7 222.82,-19.18 228.45,-28.16 232.82,-22.7"/>
</a>
</g>
</g>
<!-- Node2&#45;&gt;Node4 -->
<g id="edge3_Node000002_Node000004" class="edge">
<title>Node2&#45;&gt;Node4</title>
<g id="a_edge3_Node000002_Node000004"><a xlink:title=" ">
<path fill="none" stroke="#63b8ff" d="M321.56,-109.98C291.72,-101.05 244.62,-86.94 211.47,-77.02"/>
<polygon fill="#63b8ff" stroke="#63b8ff" points="212.24,-73.6 201.66,-74.08 210.24,-80.3 212.24,-73.6"/>
</a>
</g>
</g>
<!-- Node2&#45;&gt;Node5 -->
<g id="edge4_Node000002_Node000005" class="edge">
<title>Node2&#45;&gt;Node5</title>
<g id="a_edge4_Node000002_Node000005"><a xlink:title=" ">
<path fill="none" stroke="#63b8ff" d="M419.66,-111.37C424.52,-110.9 429.33,-110.44 434,-110 615.09,-92.98 663.01,-91.48 847.32,-74.15"/>
<polygon fill="#63b8ff" stroke="#63b8ff" points="847.72,-77.62 857.35,-73.2 847.06,-70.66 847.72,-77.62"/>
</a>
</g>
</g>
<!-- Node6 -->
<g id="Node000006" class="node">
<title>Node6</title>
<g id="a_Node000006"><a xlink:title=" ">
<polygon fill="#e0e0e0" stroke="#999999" points="630,-74 418,-74 418,-55 630,-55 630,-74"/>
<text text-anchor="middle" x="524" y="-62" font-family="Malgun Gothic" font-size="10.00">Subsystems/GameInstanceSubsystem.h</text>
</a>
</g>
</g>
<!-- Node2&#45;&gt;Node6 -->
<g id="edge5_Node000002_Node000006" class="edge">
<title>Node2&#45;&gt;Node6</title>
<g id="a_edge5_Node000002_Node000006"><a xlink:title=" ">
<path fill="none" stroke="#63b8ff" d="M377.96,-109.98C407.3,-101.05 453.6,-86.94 486.19,-77.02"/>
<polygon fill="#63b8ff" stroke="#63b8ff" points="487.28,-80.34 495.82,-74.08 485.24,-73.65 487.28,-80.34"/>
</a>
</g>
</g>
<!-- Node7 -->
<g id="Node000007" class="node">
<title>Node7</title>
<g id="a_Node000007"><a xlink:href="UVoiceSettings_8h.html" target="_top" xlink:title=" ">
<polygon fill="white" stroke="#666666" points="399.5,-74 300.5,-74 300.5,-55 399.5,-55 399.5,-74"/>
<text text-anchor="middle" x="350" y="-62" font-family="Malgun Gothic" font-size="10.00">UVoiceSettings.h</text>
</a>
</g>
</g>
<!-- Node2&#45;&gt;Node7 -->
<g id="edge6_Node000002_Node000007" class="edge">
<title>Node2&#45;&gt;Node7</title>
<g id="a_edge6_Node000002_Node000007"><a xlink:title=" ">
<path fill="none" stroke="#63b8ff" d="M350,-109.75C350,-102.8 350,-92.85 350,-84.13"/>
<polygon fill="#63b8ff" stroke="#63b8ff" points="353.5,-84.09 350,-74.09 346.5,-84.09 353.5,-84.09"/>
</a>
</g>
</g>
<!-- Node10 -->
<g id="Node000010" class="node">
<title>Node10</title>
<g id="a_Node000010"><a xlink:title=" ">
<polygon fill="#e0e0e0" stroke="#999999" points="839.5,-74 648.5,-74 648.5,-55 839.5,-55 839.5,-74"/>
<text text-anchor="middle" x="744" y="-62" font-family="Malgun Gothic" font-size="10.00">UGoogleSpeechService.generated.h</text>
</a>
</g>
</g>
<!-- Node2&#45;&gt;Node10 -->
<g id="edge10_Node000002_Node000010" class="edge">
<title>Node2&#45;&gt;Node10</title>
<g id="a_edge10_Node000002_Node000010"><a xlink:title=" ">
<path fill="none" stroke="#63b8ff" d="M413.3,-109.98C483.42,-100.55 596.32,-85.36 670.35,-75.41"/>
<polygon fill="#63b8ff" stroke="#63b8ff" points="671.08,-78.84 680.53,-74.04 670.15,-71.9 671.08,-78.84"/>
</a>
</g>
</g>
<!-- Node7&#45;&gt;Node3 -->
<g id="edge7_Node000007_Node000003" class="edge">
<title>Node7&#45;&gt;Node3</title>
<g id="a_edge7_Node000007_Node000003"><a xlink:title=" ">
<path fill="none" stroke="#63b8ff" d="M327.83,-54.98C305.23,-46.3 269.94,-32.75 244.25,-22.88"/>
<polygon fill="#63b8ff" stroke="#63b8ff" points="245.17,-19.49 234.58,-19.17 242.66,-26.02 245.17,-19.49"/>
</a>
</g>
</g>
<!-- Node8 -->
<g id="Node000008" class="node">
<title>Node8</title>
<g id="a_Node000008"><a xlink:title=" ">
<polygon fill="#e0e0e0" stroke="#999999" points="426,-19 274,-19 274,0 426,0 426,-19"/>
<text text-anchor="middle" x="350" y="-7" font-family="Malgun Gothic" font-size="10.00">Engine/DeveloperSettings.h</text>
</a>
</g>
</g>
<!-- Node7&#45;&gt;Node8 -->
<g id="edge8_Node000007_Node000008" class="edge">
<title>Node7&#45;&gt;Node8</title>
<g id="a_edge8_Node000007_Node000008"><a xlink:title=" ">
<path fill="none" stroke="#63b8ff" d="M350,-54.75C350,-47.8 350,-37.85 350,-29.13"/>
<polygon fill="#63b8ff" stroke="#63b8ff" points="353.5,-29.09 350,-19.09 346.5,-29.09 353.5,-29.09"/>
</a>
</g>
</g>
<!-- Node9 -->
<g id="Node000009" class="node">
<title>Node9</title>
<g id="a_Node000009"><a xlink:title=" ">
<polygon fill="#e0e0e0" stroke="#999999" points="596,-19 444,-19 444,0 596,0 596,-19"/>
<text text-anchor="middle" x="520" y="-7" font-family="Malgun Gothic" font-size="10.00">UVoiceSettings.generated.h</text>
</a>
</g>
</g>
<!-- Node7&#45;&gt;Node9 -->
<g id="edge9_Node000007_Node000009" class="edge">
<title>Node7&#45;&gt;Node9</title>
<g id="a_edge9_Node000007_Node000009"><a xlink:title=" ">
<path fill="none" stroke="#63b8ff" d="M377.31,-54.98C405.85,-46.09 450.83,-32.07 482.64,-22.15"/>
<polygon fill="#63b8ff" stroke="#63b8ff" points="483.97,-25.4 492.47,-19.08 481.88,-18.72 483.97,-25.4"/>
</a>
</g>
</g>
<!-- Node11&#45;&gt;Node3 -->
<g id="edge12_Node000011_Node000003" class="edge">
<title>Node11&#45;&gt;Node3</title>
<g id="a_edge12_Node000011_Node000003"><a xlink:title=" ">
<path fill="none" stroke="#63b8ff" d="M69.31,-54.98C97.85,-46.09 142.83,-32.07 174.64,-22.15"/>
<polygon fill="#63b8ff" stroke="#63b8ff" points="175.97,-25.4 184.47,-19.08 173.88,-18.72 175.97,-25.4"/>
</a>
</g>
</g>
</g>
</svg>
