<?xml version="1.0" encoding="UTF-8" standalone="no"?>
<!DOCTYPE svg PUBLIC "-//W3C//DTD SVG 1.1//EN"
 "http://www.w3.org/Graphics/SVG/1.1/DTD/svg11.dtd">
<!-- Generated by graphviz version 2.43.0 (0)
 -->
<!-- Title: Source/LatteLibrary/Character/Public/UHitStopSystem.h Pages: 1 -->
<!--zoomable 126 -->

<svg id="main" version="1.1" xmlns="http://www.w3.org/2000/svg" xmlns:xlink="http://www.w3.org/1999/xlink" xml:space="preserve" onload="init(evt)">
<style type="text/css"><![CDATA[
.node, .edge {opacity: 0.7;}
.node.selected, .edge.selected {opacity: 1;}
.edge:hover path { stroke: red; }
.edge:hover polygon { stroke: red; fill: red; }
]]></style>

<defs>
  <circle id="rim" cx="0" cy="0" r="7"/>
  <circle id="rim2" cx="0" cy="0" r="3.5"/>
  <g id="zoomPlus">
    <use xlink:href="#rim" fill="#404040"><set attributeName="fill" to="#808080" begin="zoomplus.mouseover" end="zoomplus.mouseout"/></use>
    <path d="M-4,0h8M0,-4v8" fill="none" stroke="white" stroke-width="1.5" pointer-events="none"/>
  </g>
  <g id="zoomMin">
    <use xlink:href="#rim" fill="#404040"><set attributeName="fill" to="#808080" begin="zoomminus.mouseover" end="zoomminus.mouseout"/></use>
    <path d="M-4,0h8" fill="none" stroke="white" stroke-width="1.5" pointer-events="none"/>
  </g>
  <g id="arrowUp" transform="translate(30 24)">
    <use xlink:href="#rim"/>
    <path pointer-events="none" fill="none" stroke="white" stroke-width="1.5" d="M0,-3.0v7 M-2.5,-0.5L0,-3.0L2.5,-0.5"/>
  </g>
  <g id="arrowRight" transform="rotate(90) translate(36 -43)">
    <use xlink:href="#rim"/>
    <path pointer-events="none" fill="none" stroke="white" stroke-width="1.5" d="M0,-3.0v7 M-2.5,-0.5L0,-3.0L2.5,-0.5"/>
  </g>
  <g id="arrowDown" transform="rotate(180) translate(-30 -48)">
    <use xlink:href="#rim"/>
    <path pointer-events="none" fill="none" stroke="white" stroke-width="1.5" d="M0,-3.0v7 M-2.5,-0.5L0,-3.0L2.5,-0.5"/>
  </g>
  <g id="arrowLeft" transform="rotate(270) translate(-36 17)">
    <use xlink:href="#rim"/>
    <path pointer-events="none" fill="none" stroke="white" stroke-width="1.5" d="M0,-3.0v7 M-2.5,-0.5L0,-3.0L2.5,-0.5"/>
  </g>
  <g id="resetDef">
    <use xlink:href="#rim2" fill="#404040"><set attributeName="fill" to="#808080" begin="reset.mouseover" end="reset.mouseout"/></use>
  </g>
</defs>
<script type="application/ecmascript">
var viewWidth = 767;
var viewHeight = 126;
var sectionId = 'dynsection-1';
</script>
<script type="application/ecmascript" xlink:href="svg.min.js"/>
<svg id="graph" class="graph">
<g id="viewport">
<title>Source/LatteLibrary/Character/Public/UHitStopSystem.h</title>
<!-- Node1 -->
<g id="Node000001" class="node">
<title>Node1</title>
<g id="a_Node000001"><a xlink:title="UHitStopSystem 선언에 대한 Doxygen 주석을 제공합니다.">
<polygon fill="#999999" stroke="#666666" points="457,-118 311,-118 311,-77 457,-77 457,-118"/>
<text text-anchor="start" x="319" y="-106" font-family="Malgun Gothic" font-size="10.00">Source/LatteLibrary</text>
<text text-anchor="start" x="319" y="-95" font-family="Malgun Gothic" font-size="10.00">/Character/Public/UHitStop</text>
<text text-anchor="middle" x="384" y="-84" font-family="Malgun Gothic" font-size="10.00">System.h</text>
</a>
</g>
</g>
<!-- Node2 -->
<g id="Node000002" class="node">
<title>Node2</title>
<g id="a_Node000002"><a xlink:href="AGameCharacter_8cpp.html" target="_top" xlink:title="AGameCharacter 구현에 대한 Doxygen 주석을 제공합니다.">
<polygon fill="white" stroke="#666666" points="210,-35.5 0,-35.5 0,-5.5 210,-5.5 210,-35.5"/>
<text text-anchor="start" x="8" y="-23.5" font-family="Malgun Gothic" font-size="10.00">Source/LatteLibrary</text>
<text text-anchor="middle" x="105" y="-12.5" font-family="Malgun Gothic" font-size="10.00">/Character/Private/AGameCharacter.cpp</text>
</a>
</g>
</g>
<!-- Node1&#45;&gt;Node2 -->
<g id="edge1_Node000001_Node000002" class="edge">
<title>Node1&#45;&gt;Node2</title>
<g id="a_edge1_Node000001_Node000002"><a xlink:title=" ">
<path fill="none" stroke="#63b8ff" d="M301.63,-74.36C254.96,-61.81 197.97,-46.49 157.39,-35.58"/>
<polygon fill="#63b8ff" stroke="#63b8ff" points="300.86,-77.77 311.42,-76.99 302.68,-71.01 300.86,-77.77"/>
</a>
</g>
</g>
<!-- Node3 -->
<g id="Node000003" class="node">
<title>Node3</title>
<g id="a_Node000003"><a xlink:href="APlayerActor_8cpp.html" target="_top" xlink:title="Provides Doxygen annotations for APlayerActor implementation.">
<polygon fill="white" stroke="#666666" points="373.5,-41 228.5,-41 228.5,0 373.5,0 373.5,-41"/>
<text text-anchor="start" x="236.5" y="-29" font-family="Malgun Gothic" font-size="10.00">Source/LatteLibrary</text>
<text text-anchor="start" x="236.5" y="-18" font-family="Malgun Gothic" font-size="10.00">/Character/Private/APlayer</text>
<text text-anchor="middle" x="301" y="-7" font-family="Malgun Gothic" font-size="10.00">Actor.cpp</text>
</a>
</g>
</g>
<!-- Node1&#45;&gt;Node3 -->
<g id="edge2_Node000001_Node000003" class="edge">
<title>Node1&#45;&gt;Node3</title>
<g id="a_edge2_Node000001_Node000003"><a xlink:title=" ">
<path fill="none" stroke="#63b8ff" d="M354.75,-70.07C344.19,-60.52 332.46,-49.93 322.66,-41.07"/>
<polygon fill="#63b8ff" stroke="#63b8ff" points="352.43,-72.69 362.19,-76.79 357.12,-67.49 352.43,-72.69"/>
</a>
</g>
</g>
<!-- Node4 -->
<g id="Node000004" class="node">
<title>Node4</title>
<g id="a_Node000004"><a xlink:href="UHitStopSystem_8cpp.html" target="_top" xlink:title="UHitStopSystem 구현에 대한 Doxygen 주석을 제공합니다.">
<polygon fill="white" stroke="#666666" points="542.5,-41 391.5,-41 391.5,0 542.5,0 542.5,-41"/>
<text text-anchor="start" x="399.5" y="-29" font-family="Malgun Gothic" font-size="10.00">Source/LatteLibrary</text>
<text text-anchor="start" x="399.5" y="-18" font-family="Malgun Gothic" font-size="10.00">/Character/Private/UHitStop</text>
<text text-anchor="middle" x="467" y="-7" font-family="Malgun Gothic" font-size="10.00">System.cpp</text>
</a>
</g>
</g>
<!-- Node1&#45;&gt;Node4 -->
<g id="edge3_Node000001_Node000004" class="edge">
<title>Node1&#45;&gt;Node4</title>
<g id="a_edge3_Node000001_Node000004"><a xlink:title=" ">
<path fill="none" stroke="#63b8ff" d="M413.25,-70.07C423.81,-60.52 435.54,-49.93 445.34,-41.07"/>
<polygon fill="#63b8ff" stroke="#63b8ff" points="410.88,-67.49 405.81,-76.79 415.57,-72.69 410.88,-67.49"/>
</a>
</g>
</g>
<!-- Node5 -->
<g id="Node000005" class="node">
<title>Node5</title>
<g id="a_Node000005"><a xlink:href="UVoiceSystem_8cpp.html" target="_top" xlink:title="Implementation of UVoiceSystem.">
<polygon fill="white" stroke="#666666" points="759,-35.5 561,-35.5 561,-5.5 759,-5.5 759,-35.5"/>
<text text-anchor="start" x="569" y="-23.5" font-family="Malgun Gothic" font-size="10.00">Source/LatteLibrary</text>
<text text-anchor="middle" x="660" y="-12.5" font-family="Malgun Gothic" font-size="10.00">/Character/Private/UVoiceSystem.cpp</text>
</a>
</g>
</g>
<!-- Node1&#45;&gt;Node5 -->
<g id="edge4_Node000001_Node000005" class="edge">
<title>Node1&#45;&gt;Node5</title>
<g id="a_edge4_Node000001_Node000005"><a xlink:title=" ">
<path fill="none" stroke="#63b8ff" d="M465.48,-74.36C511.65,-61.81 568.03,-46.49 608.18,-35.58"/>
<polygon fill="#63b8ff" stroke="#63b8ff" points="464.53,-70.99 455.8,-76.99 466.36,-77.75 464.53,-70.99"/>
</a>
</g>
</g>
</g>
</svg>

<g id="navigator" transform="translate(0 0)" fill="#404254">
  <rect fill="#f2f5e9" fill-opacity="0.5" stroke="#606060" stroke-width=".5" x="0" y="0" width="60" height="60"/>
  <use id="zoomplus" xlink:href="#zoomPlus" x="17" y="9" onmousedown="handleZoom(evt,'in')"/>
  <use id="zoomminus" xlink:href="#zoomMin" x="42" y="9" onmousedown="handleZoom(evt,'out')"/>
  <use id="reset" xlink:href="#resetDef" x="30" y="36" onmousedown="handleReset()"/>
   <use id="arrowup" xlink:href="#arrowUp" x="0" y="0" onmousedown="handlePan(0,-1)"/>
  <use id="arrowright" xlink:href="#arrowRight" x="0" y="0" onmousedown="handlePan(1,0)"/>
  <use id="arrowdown" xlink:href="#arrowDown" x="0" y="0" onmousedown="handlePan(0,1)"/>
  <use id="arrowleft" xlink:href="#arrowLeft" x="0" y="0" onmousedown="handlePan(-1,0)"/>
</g>
<svg viewBox="0 0 15 15" width="100%" height="30px" preserveAspectRatio="xMaxYMin meet">
 <g id="arrow_out" transform="scale(0.3 0.3)">
  <a xlink:href="UHitStopSystem_8h__dep__incl_org.svg" target="_base">
   <rect id="button" ry="5" rx="5" y="6" x="6" height="38" width="38"
        fill="#f2f5e9" fill-opacity="0.5" stroke="#606060" stroke-width="1.0"/>
   <path id="arrow"
     d="M 11.500037,31.436501 C 11.940474,20.09759 22.043105,11.32322 32.158766,21.979434 L 37.068811,17.246167 C 37.068811,17.246167 37.088388,32 37.088388,32 L 22.160133,31.978069 C 22.160133,31.978069 26.997745,27.140456 26.997745,27.140456 C 18.528582,18.264221 13.291696,25.230495 11.500037,31.436501 z"
     style="fill:#404040;"/>
  </a>
 </g>
</svg>

<style type='text/css'>
<![CDATA[
[data-mouse-over-selected='false'] { opacity: 0.7; }
[data-mouse-over-selected='true']  { opacity: 1.0; }
]]>
</style>
<script type="application/ecmascript"><![CDATA[
document.addEventListener('DOMContentLoaded', (event) => {
  highlightEdges();
  highlightAdjacentNodes();
});
]]></script>
</svg>
