<?xml version="1.0" encoding="UTF-8" standalone="no"?>
<!DOCTYPE svg PUBLIC "-//W3C//DTD SVG 1.1//EN"
 "http://www.w3.org/Graphics/SVG/1.1/DTD/svg11.dtd">
<!-- Generated by graphviz version 2.43.0 (0)
 -->
<!-- Title: Source/LatteLibrary/Character/Private/UHitStopSystem.cpp Pages: 1 -->
<!--zoomable 225 -->

<svg id="main" version="1.1" xmlns="http://www.w3.org/2000/svg" xmlns:xlink="http://www.w3.org/1999/xlink" xml:space="preserve" onload="init(evt)">
<style type="text/css"><![CDATA[
.node, .edge {opacity: 0.7;}
.node.selected, .edge.selected {opacity: 1;}
.edge:hover path { stroke: red; }
.edge:hover polygon { stroke: red; fill: red; }
]]></style>

<defs>
  <circle id="rim" cx="0" cy="0" r="7"/>
  <circle id="rim2" cx="0" cy="0" r="3.5"/>
  <g id="zoomPlus">
    <use xlink:href="#rim" fill="#404040"><set attributeName="fill" to="#808080" begin="zoomplus.mouseover" end="zoomplus.mouseout"/></use>
    <path d="M-4,0h8M0,-4v8" fill="none" stroke="white" stroke-width="1.5" pointer-events="none"/>
  </g>
  <g id="zoomMin">
    <use xlink:href="#rim" fill="#404040"><set attributeName="fill" to="#808080" begin="zoomminus.mouseover" end="zoomminus.mouseout"/></use>
    <path d="M-4,0h8" fill="none" stroke="white" stroke-width="1.5" pointer-events="none"/>
  </g>
  <g id="arrowUp" transform="translate(30 24)">
    <use xlink:href="#rim"/>
    <path pointer-events="none" fill="none" stroke="white" stroke-width="1.5" d="M0,-3.0v7 M-2.5,-0.5L0,-3.0L2.5,-0.5"/>
  </g>
  <g id="arrowRight" transform="rotate(90) translate(36 -43)">
    <use xlink:href="#rim"/>
    <path pointer-events="none" fill="none" stroke="white" stroke-width="1.5" d="M0,-3.0v7 M-2.5,-0.5L0,-3.0L2.5,-0.5"/>
  </g>
  <g id="arrowDown" transform="rotate(180) translate(-30 -48)">
    <use xlink:href="#rim"/>
    <path pointer-events="none" fill="none" stroke="white" stroke-width="1.5" d="M0,-3.0v7 M-2.5,-0.5L0,-3.0L2.5,-0.5"/>
  </g>
  <g id="arrowLeft" transform="rotate(270) translate(-36 17)">
    <use xlink:href="#rim"/>
    <path pointer-events="none" fill="none" stroke="white" stroke-width="1.5" d="M0,-3.0v7 M-2.5,-0.5L0,-3.0L2.5,-0.5"/>
  </g>
  <g id="resetDef">
    <use xlink:href="#rim2" fill="#404040"><set attributeName="fill" to="#808080" begin="reset.mouseover" end="reset.mouseout"/></use>
  </g>
</defs>
<script type="application/ecmascript">
var viewWidth = 2312;
var viewHeight = 225;
var sectionId = 'dynsection-0';
</script>
<script type="application/ecmascript" xlink:href="svg.min.js"/>
<svg id="graph" class="graph">
<g id="viewport">
<title>Source/LatteLibrary/Character/Private/UHitStopSystem.cpp</title>
<!-- Node1 -->
<g id="Node000001" class="node">
<title>Node1</title>
<g id="a_Node000001"><a xlink:title="UHitStopSystem 구현에 대한 Doxygen 주석을 제공합니다.">
<polygon fill="#999999" stroke="#666666" points="1498,-217 1347,-217 1347,-176 1498,-176 1498,-217"/>
<text text-anchor="start" x="1355" y="-205" font-family="Malgun Gothic" font-size="10.00">Source/LatteLibrary</text>
<text text-anchor="start" x="1355" y="-194" font-family="Malgun Gothic" font-size="10.00">/Character/Private/UHitStop</text>
<text text-anchor="middle" x="1422.5" y="-183" font-family="Malgun Gothic" font-size="10.00">System.cpp</text>
</a>
</g>
</g>
<!-- Node2 -->
<g id="Node000002" class="node">
<title>Node2</title>
<g id="a_Node000002"><a xlink:href="UHitStopSystem_8h.html" target="_top" xlink:title="UHitStopSystem 선언에 대한 Doxygen 주석을 제공합니다.">
<polygon fill="white" stroke="#666666" points="599.5,-134.5 493.5,-134.5 493.5,-115.5 599.5,-115.5 599.5,-134.5"/>
<text text-anchor="middle" x="546.5" y="-122.5" font-family="Malgun Gothic" font-size="10.00">UHitStopSystem.h</text>
</a>
</g>
</g>
<!-- Node1&#45;&gt;Node2 -->
<g id="edge1_Node000001_Node000002" class="edge">
<title>Node1&#45;&gt;Node2</title>
<g id="a_edge1_Node000001_Node000002"><a xlink:title=" ">
<path fill="none" stroke="#63b8ff" d="M1346.67,-189.48C1176.57,-175.99 767.14,-143.5 609.68,-131.01"/>
<polygon fill="#63b8ff" stroke="#63b8ff" points="609.92,-127.52 599.67,-130.22 609.37,-134.5 609.92,-127.52"/>
</a>
</g>
</g>
<!-- Node10 -->
<g id="Node000010" class="node">
<title>Node10</title>
<g id="a_Node000010"><a xlink:href="AGameCharacter_8h.html" target="_top" xlink:title="LatteLibrary 전반에서 사용하는 기반 캐릭터 클래스를 선언합니다.">
<polygon fill="white" stroke="#666666" points="1804.5,-134.5 1696.5,-134.5 1696.5,-115.5 1804.5,-115.5 1804.5,-134.5"/>
<text text-anchor="middle" x="1750.5" y="-122.5" font-family="Malgun Gothic" font-size="10.00">AGameCharacter.h</text>
</a>
</g>
</g>
<!-- Node1&#45;&gt;Node10 -->
<g id="edge10_Node000001_Node000010" class="edge">
<title>Node1&#45;&gt;Node10</title>
<g id="a_edge10_Node000001_Node000010"><a xlink:title=" ">
<path fill="none" stroke="#63b8ff" d="M1498.16,-179.47C1560.19,-166.32 1646.25,-148.09 1700.13,-136.67"/>
<polygon fill="#63b8ff" stroke="#63b8ff" points="1701.08,-140.05 1710.14,-134.55 1699.63,-133.2 1701.08,-140.05"/>
</a>
</g>
</g>
<!-- Node17 -->
<g id="Node000017" class="node">
<title>Node17</title>
<g id="a_Node000017"><a xlink:href="UBroadcastManger_8h.html" target="_top" xlink:title="UBroadcastManger 선언에 대한 Doxygen 주석을 제공합니다.">
<polygon fill="white" stroke="#666666" points="1481.5,-134.5 1363.5,-134.5 1363.5,-115.5 1481.5,-115.5 1481.5,-134.5"/>
<text text-anchor="middle" x="1422.5" y="-122.5" font-family="Malgun Gothic" font-size="10.00">UBroadcastManger.h</text>
</a>
</g>
</g>
<!-- Node1&#45;&gt;Node17 -->
<g id="edge21_Node000001_Node000017" class="edge">
<title>Node1&#45;&gt;Node17</title>
<g id="a_edge21_Node000001_Node000017"><a xlink:title=" ">
<path fill="none" stroke="#63b8ff" d="M1422.5,-175.77C1422.5,-166.08 1422.5,-154.46 1422.5,-144.88"/>
<polygon fill="#63b8ff" stroke="#63b8ff" points="1426,-144.82 1422.5,-134.82 1419,-144.82 1426,-144.82"/>
</a>
</g>
</g>
<!-- Node21 -->
<g id="Node000021" class="node">
<title>Node21</title>
<g id="a_Node000021"><a xlink:href="UGameDataManager_8h.html" target="_top" xlink:title="UGameDataManager 선언에 대한 Doxygen 주석을 제공합니다.">
<polygon fill="white" stroke="#666666" points="881.5,-134.5 753.5,-134.5 753.5,-115.5 881.5,-115.5 881.5,-134.5"/>
<text text-anchor="middle" x="817.5" y="-122.5" font-family="Malgun Gothic" font-size="10.00">UGameDataManager.h</text>
</a>
</g>
</g>
<!-- Node1&#45;&gt;Node21 -->
<g id="edge26_Node000001_Node000021" class="edge">
<title>Node1&#45;&gt;Node21</title>
<g id="a_edge26_Node000001_Node000021"><a xlink:title=" ">
<path fill="none" stroke="#63b8ff" d="M1346.79,-186.8C1230.15,-173.4 1007.85,-147.87 891.96,-134.55"/>
<polygon fill="#63b8ff" stroke="#63b8ff" points="892.1,-131.05 881.77,-133.38 891.3,-138 892.1,-131.05"/>
</a>
</g>
</g>
<!-- Node29 -->
<g id="Node000029" class="node">
<title>Node29</title>
<g id="a_Node000029"><a xlink:title=" ">
<polygon fill="#e0e0e0" stroke="#999999" points="2026,-140 1823,-140 1823,-110 2026,-110 2026,-140"/>
<text text-anchor="start" x="1831" y="-128" font-family="Malgun Gothic" font-size="10.00">GameFramework/CharacterMovement</text>
<text text-anchor="middle" x="1924.5" y="-117" font-family="Malgun Gothic" font-size="10.00">Component.h</text>
</a>
</g>
</g>
<!-- Node1&#45;&gt;Node29 -->
<g id="edge47_Node000001_Node000029" class="edge">
<title>Node1&#45;&gt;Node29</title>
<g id="a_edge47_Node000001_Node000029"><a xlink:title=" ">
<path fill="none" stroke="#63b8ff" d="M1498.2,-185.02C1581.79,-173.45 1717.2,-154.7 1812.95,-141.44"/>
<polygon fill="#63b8ff" stroke="#63b8ff" points="1813.54,-144.9 1822.96,-140.06 1812.58,-137.96 1813.54,-144.9"/>
</a>
</g>
</g>
<!-- Node3 -->
<g id="Node000003" class="node">
<title>Node3</title>
<g id="a_Node000003"><a xlink:title=" ">
<polygon fill="#e0e0e0" stroke="#999999" points="861.5,-19 773.5,-19 773.5,0 861.5,0 861.5,-19"/>
<text text-anchor="middle" x="817.5" y="-7" font-family="Malgun Gothic" font-size="10.00">CoreMinimal.h</text>
</a>
</g>
</g>
<!-- Node2&#45;&gt;Node3 -->
<g id="edge2_Node000002_Node000003" class="edge">
<title>Node2&#45;&gt;Node3</title>
<g id="a_edge2_Node000002_Node000003"><a xlink:title=" ">
<path fill="none" stroke="#63b8ff" d="M546.29,-115.3C546.45,-100.54 549.06,-70.67 566.5,-55 570.17,-51.7 690.89,-31.34 763.55,-19.34"/>
<polygon fill="#63b8ff" stroke="#63b8ff" points="764.17,-22.78 773.46,-17.7 763.03,-15.88 764.17,-22.78"/>
</a>
</g>
</g>
<!-- Node4 -->
<g id="Node000004" class="node">
<title>Node4</title>
<g id="a_Node000004"><a xlink:title=" ">
<polygon fill="#e0e0e0" stroke="#999999" points="1616.5,-19 1444.5,-19 1444.5,0 1616.5,0 1616.5,-19"/>
<text text-anchor="middle" x="1530.5" y="-7" font-family="Malgun Gothic" font-size="10.00">Components/ActorComponent.h</text>
</a>
</g>
</g>
<!-- Node2&#45;&gt;Node4 -->
<g id="edge3_Node000002_Node000004" class="edge">
<title>Node2&#45;&gt;Node4</title>
<g id="a_edge3_Node000002_Node000004"><a xlink:title=" ">
<path fill="none" stroke="#63b8ff" d="M599.68,-121.56C668.45,-117.21 791.3,-105.41 891.5,-74 909.52,-68.35 911.3,-60.01 929.5,-55 1021.79,-29.58 1289.2,-17.76 1434.24,-13.09"/>
<polygon fill="#63b8ff" stroke="#63b8ff" points="1434.58,-16.58 1444.46,-12.77 1434.36,-9.59 1434.58,-16.58"/>
</a>
</g>
</g>
<!-- Node5 -->
<g id="Node000005" class="node">
<title>Node5</title>
<g id="a_Node000005"><a xlink:href="FHitStopData_8h.html" target="_top" xlink:title="FHitStopData 구조체에 대한 Doxygen 주석을 제공합니다.">
<polygon fill="white" stroke="#666666" points="392,-74 301,-74 301,-55 392,-55 392,-74"/>
<text text-anchor="middle" x="346.5" y="-62" font-family="Malgun Gothic" font-size="10.00">FHitStopData.h</text>
</a>
</g>
</g>
<!-- Node2&#45;&gt;Node5 -->
<g id="edge4_Node000002_Node000005" class="edge">
<title>Node2&#45;&gt;Node5</title>
<g id="a_edge4_Node000002_Node000005"><a xlink:title=" ">
<path fill="none" stroke="#63b8ff" d="M517.42,-115.49C482.61,-105.31 424.18,-88.22 385.49,-76.9"/>
<polygon fill="#63b8ff" stroke="#63b8ff" points="386.2,-73.46 375.62,-74.02 384.23,-80.18 386.2,-73.46"/>
</a>
</g>
</g>
<!-- Node9 -->
<g id="Node000009" class="node">
<title>Node9</title>
<g id="a_Node000009"><a xlink:title=" ">
<polygon fill="#e0e0e0" stroke="#999999" points="282.5,-74 124.5,-74 124.5,-55 282.5,-55 282.5,-74"/>
<text text-anchor="middle" x="203.5" y="-62" font-family="Malgun Gothic" font-size="10.00">UHitStopSystem.generated.h</text>
</a>
</g>
</g>
<!-- Node2&#45;&gt;Node9 -->
<g id="edge9_Node000002_Node000009" class="edge">
<title>Node2&#45;&gt;Node9</title>
<g id="a_edge9_Node000002_Node000009"><a xlink:title=" ">
<path fill="none" stroke="#63b8ff" d="M496.62,-115.49C434.77,-104.94 329.43,-86.98 263.3,-75.7"/>
<polygon fill="#63b8ff" stroke="#63b8ff" points="263.88,-72.25 253.44,-74.02 262.7,-79.15 263.88,-72.25"/>
</a>
</g>
</g>
<!-- Node5&#45;&gt;Node3 -->
<g id="edge5_Node000005_Node000003" class="edge">
<title>Node5&#45;&gt;Node3</title>
<g id="a_edge5_Node000005_Node000003"><a xlink:title=" ">
<path fill="none" stroke="#63b8ff" d="M392.09,-56.26C395.27,-55.81 398.43,-55.39 401.5,-55 559.04,-35.03 601.97,-39.64 763.01,-19.12"/>
<polygon fill="#63b8ff" stroke="#63b8ff" points="763.81,-22.54 773.28,-17.8 762.92,-15.6 763.81,-22.54"/>
</a>
</g>
</g>
<!-- Node6 -->
<g id="Node000006" class="node">
<title>Node6</title>
<g id="a_Node000006"><a xlink:href="EDamageType_8h.html" target="_top" xlink:title="EDamageType 열거형에 대한 Doxygen 주석을 제공합니다.">
<polygon fill="white" stroke="#666666" points="256,-19 161,-19 161,0 256,0 256,-19"/>
<text text-anchor="middle" x="208.5" y="-7" font-family="Malgun Gothic" font-size="10.00">EDamageType.h</text>
</a>
</g>
</g>
<!-- Node5&#45;&gt;Node6 -->
<g id="edge6_Node000005_Node000006" class="edge">
<title>Node5&#45;&gt;Node6</title>
<g id="a_edge6_Node000005_Node000006"><a xlink:title=" ">
<path fill="none" stroke="#63b8ff" d="M324.33,-54.98C301.73,-46.3 266.44,-32.75 240.75,-22.88"/>
<polygon fill="#63b8ff" stroke="#63b8ff" points="241.67,-19.49 231.08,-19.17 239.16,-26.02 241.67,-19.49"/>
</a>
</g>
</g>
<!-- Node7 -->
<g id="Node000007" class="node">
<title>Node7</title>
<g id="a_Node000007"><a xlink:title=" ">
<polygon fill="#e0e0e0" stroke="#999999" points="563.5,-19 453.5,-19 453.5,0 563.5,0 563.5,-19"/>
<text text-anchor="middle" x="508.5" y="-7" font-family="Malgun Gothic" font-size="10.00">Engine/DataTable.h</text>
</a>
</g>
</g>
<!-- Node5&#45;&gt;Node7 -->
<g id="edge7_Node000005_Node000007" class="edge">
<title>Node5&#45;&gt;Node7</title>
<g id="a_edge7_Node000005_Node000007"><a xlink:title=" ">
<path fill="none" stroke="#63b8ff" d="M372.53,-54.98C399.61,-46.13 442.21,-32.19 472.51,-22.28"/>
<polygon fill="#63b8ff" stroke="#63b8ff" points="473.85,-25.52 482.27,-19.08 471.68,-18.87 473.85,-25.52"/>
</a>
</g>
</g>
<!-- Node8 -->
<g id="Node000008" class="node">
<title>Node8</title>
<g id="a_Node000008"><a xlink:title=" ">
<polygon fill="#e0e0e0" stroke="#999999" points="143,-19 0,-19 0,0 143,0 143,-19"/>
<text text-anchor="middle" x="71.5" y="-7" font-family="Malgun Gothic" font-size="10.00">FHitStopData.generated.h</text>
</a>
</g>
</g>
<!-- Node5&#45;&gt;Node8 -->
<g id="edge8_Node000005_Node000008" class="edge">
<title>Node5&#45;&gt;Node8</title>
<g id="a_edge8_Node000005_Node000008"><a xlink:title=" ">
<path fill="none" stroke="#63b8ff" d="M302.32,-54.98C254.35,-45.74 177.69,-30.97 126.02,-21.01"/>
<polygon fill="#63b8ff" stroke="#63b8ff" points="126.51,-17.54 116.03,-19.08 125.19,-24.41 126.51,-17.54"/>
</a>
</g>
</g>
<!-- Node10&#45;&gt;Node3 -->
<g id="edge11_Node000010_Node000003" class="edge">
<title>Node10&#45;&gt;Node3</title>
<g id="a_edge11_Node000010_Node000003"><a xlink:title=" ">
<path fill="none" stroke="#63b8ff" d="M1740.63,-115.49C1720.72,-98.54 1676.06,-61.61 1657.5,-55 1495.55,2.66 1060.75,-35.46 871.87,-18.94"/>
<polygon fill="#63b8ff" stroke="#63b8ff" points="871.98,-15.44 861.7,-17.97 871.32,-22.4 871.98,-15.44"/>
</a>
</g>
</g>
<!-- Node11 -->
<g id="Node000011" class="node">
<title>Node11</title>
<g id="a_Node000011"><a xlink:title=" ">
<polygon fill="#e0e0e0" stroke="#999999" points="2009,-74 1850,-74 1850,-55 2009,-55 2009,-74"/>
<text text-anchor="middle" x="1929.5" y="-62" font-family="Malgun Gothic" font-size="10.00">GameFramework/Character.h</text>
</a>
</g>
</g>
<!-- Node10&#45;&gt;Node11 -->
<g id="edge12_Node000010_Node000011" class="edge">
<title>Node10&#45;&gt;Node11</title>
<g id="a_edge12_Node000010_Node000011"><a xlink:title=" ">
<path fill="none" stroke="#63b8ff" d="M1776.53,-115.49C1807.42,-105.4 1859.08,-88.51 1893.72,-77.19"/>
<polygon fill="#63b8ff" stroke="#63b8ff" points="1895.02,-80.45 1903.44,-74.02 1892.85,-73.8 1895.02,-80.45"/>
</a>
</g>
</g>
<!-- Node12 -->
<g id="Node000012" class="node">
<title>Node12</title>
<g id="a_Node000012"><a xlink:href="EBodyPartType_8h.html" target="_top" xlink:title="EBodyPartType 열거형에 대한 Doxygen 주석을 제공합니다.">
<polygon fill="white" stroke="#666666" points="2124.5,-74 2026.5,-74 2026.5,-55 2124.5,-55 2124.5,-74"/>
<text text-anchor="middle" x="2075.5" y="-62" font-family="Malgun Gothic" font-size="10.00">EBodyPartType.h</text>
</a>
</g>
</g>
<!-- Node10&#45;&gt;Node12 -->
<g id="edge13_Node000010_Node000012" class="edge">
<title>Node10&#45;&gt;Node12</title>
<g id="a_edge13_Node000010_Node000012"><a xlink:title=" ">
<path fill="none" stroke="#63b8ff" d="M1788,-115.49C1796.69,-113.61 1805.9,-111.67 1814.5,-110 1883.59,-96.56 1963.42,-83.28 2016.41,-74.77"/>
<polygon fill="#63b8ff" stroke="#63b8ff" points="2016.99,-78.22 2026.31,-73.19 2015.88,-71.31 2016.99,-78.22"/>
</a>
</g>
</g>
<!-- Node13 -->
<g id="Node000013" class="node">
<title>Node13</title>
<g id="a_Node000013"><a xlink:href="ECharacterType_8h.html" target="_top" xlink:title="ECharacterType 열거형에 대한 Doxygen 주석을 제공합니다.">
<polygon fill="white" stroke="#666666" points="1263,-19 1162,-19 1162,0 1263,0 1263,-19"/>
<text text-anchor="middle" x="1212.5" y="-7" font-family="Malgun Gothic" font-size="10.00">ECharacterType.h</text>
</a>
</g>
</g>
<!-- Node10&#45;&gt;Node13 -->
<g id="edge14_Node000010_Node000013" class="edge">
<title>Node10&#45;&gt;Node13</title>
<g id="a_edge14_Node000010_Node000013"><a xlink:title=" ">
<path fill="none" stroke="#63b8ff" d="M1745.94,-115.35C1737.39,-100.11 1717.34,-68.77 1690.5,-55 1654.2,-36.38 1393.82,-20.21 1273.36,-13.64"/>
<polygon fill="#63b8ff" stroke="#63b8ff" points="1273.36,-10.13 1263.19,-13.09 1272.99,-17.12 1273.36,-10.13"/>
</a>
</g>
</g>
<!-- Node14 -->
<g id="Node000014" class="node">
<title>Node14</title>
<g id="a_Node000014"><a xlink:href="UStatSystem_8h.html" target="_top" xlink:title="UStatSystem 선언에 대한 Doxygen 주석을 제공합니다.">
<polygon fill="white" stroke="#666666" points="1832,-74 1743,-74 1743,-55 1832,-55 1832,-74"/>
<text text-anchor="middle" x="1787.5" y="-62" font-family="Malgun Gothic" font-size="10.00">UStatSystem.h</text>
</a>
</g>
</g>
<!-- Node10&#45;&gt;Node14 -->
<g id="edge15_Node000010_Node000014" class="edge">
<title>Node10&#45;&gt;Node14</title>
<g id="a_edge15_Node000010_Node000014"><a xlink:title=" ">
<path fill="none" stroke="#63b8ff" d="M1755.96,-115.37C1761.37,-106.81 1769.81,-93.47 1776.6,-82.74"/>
<polygon fill="#63b8ff" stroke="#63b8ff" points="1779.63,-84.49 1782.02,-74.17 1773.71,-80.75 1779.63,-84.49"/>
</a>
</g>
</g>
<!-- Node16 -->
<g id="Node000016" class="node">
<title>Node16</title>
<g id="a_Node000016"><a xlink:title=" ">
<polygon fill="#e0e0e0" stroke="#999999" points="2304,-74 2143,-74 2143,-55 2304,-55 2304,-74"/>
<text text-anchor="middle" x="2223.5" y="-62" font-family="Malgun Gothic" font-size="10.00">AGameCharacter.generated.h</text>
</a>
</g>
</g>
<!-- Node10&#45;&gt;Node16 -->
<g id="edge20_Node000010_Node000016" class="edge">
<title>Node10&#45;&gt;Node16</title>
<g id="a_edge20_Node000010_Node000016"><a xlink:title=" ">
<path fill="none" stroke="#63b8ff" d="M1786.25,-115.47C1795.42,-113.48 1805.3,-111.5 1814.5,-110 1873.71,-100.33 2031.32,-84.19 2132.7,-74.24"/>
<polygon fill="#63b8ff" stroke="#63b8ff" points="2133.32,-77.69 2142.94,-73.23 2132.64,-70.72 2133.32,-77.69"/>
</a>
</g>
</g>
<!-- Node14&#45;&gt;Node3 -->
<g id="edge16_Node000014_Node000003" class="edge">
<title>Node14&#45;&gt;Node3</title>
<g id="a_edge16_Node000014_Node000003"><a xlink:title=" ">
<path fill="none" stroke="#63b8ff" d="M1742.62,-59.16C1726.23,-57.68 1707.54,-56.12 1690.5,-55 1329.78,-31.29 1235.12,-55.5 871.7,-18.99"/>
<polygon fill="#63b8ff" stroke="#63b8ff" points="872,-15.5 861.7,-17.98 871.29,-22.47 872,-15.5"/>
</a>
</g>
</g>
<!-- Node14&#45;&gt;Node4 -->
<g id="edge18_Node000014_Node000004" class="edge">
<title>Node14&#45;&gt;Node4</title>
<g id="a_edge18_Node000014_Node000004"><a xlink:title=" ">
<path fill="none" stroke="#63b8ff" d="M1746.21,-54.98C1701.57,-45.78 1630.34,-31.09 1582.05,-21.13"/>
<polygon fill="#63b8ff" stroke="#63b8ff" points="1582.62,-17.67 1572.12,-19.08 1581.2,-24.53 1582.62,-17.67"/>
</a>
</g>
</g>
<!-- Node14&#45;&gt;Node13 -->
<g id="edge17_Node000014_Node000013" class="edge">
<title>Node14&#45;&gt;Node13</title>
<g id="a_edge17_Node000014_Node000013"><a xlink:title=" ">
<path fill="none" stroke="#63b8ff" d="M1742.76,-56.78C1737.95,-56.14 1733.13,-55.53 1728.5,-55 1564.32,-36.11 1369.9,-21.41 1273.3,-14.61"/>
<polygon fill="#63b8ff" stroke="#63b8ff" points="1273.35,-11.11 1263.13,-13.9 1272.86,-18.09 1273.35,-11.11"/>
</a>
</g>
</g>
<!-- Node15 -->
<g id="Node000015" class="node">
<title>Node15</title>
<g id="a_Node000015"><a xlink:title=" ">
<polygon fill="#e0e0e0" stroke="#999999" points="1858.5,-19 1716.5,-19 1716.5,0 1858.5,0 1858.5,-19"/>
<text text-anchor="middle" x="1787.5" y="-7" font-family="Malgun Gothic" font-size="10.00">UStatSystem.generated.h</text>
</a>
</g>
</g>
<!-- Node14&#45;&gt;Node15 -->
<g id="edge19_Node000014_Node000015" class="edge">
<title>Node14&#45;&gt;Node15</title>
<g id="a_edge19_Node000014_Node000015"><a xlink:title=" ">
<path fill="none" stroke="#63b8ff" d="M1787.5,-54.75C1787.5,-47.8 1787.5,-37.85 1787.5,-29.13"/>
<polygon fill="#63b8ff" stroke="#63b8ff" points="1791,-29.09 1787.5,-19.09 1784,-29.09 1791,-29.09"/>
</a>
</g>
</g>
<!-- Node17&#45;&gt;Node3 -->
<g id="edge22_Node000017_Node000003" class="edge">
<title>Node17&#45;&gt;Node3</title>
<g id="a_edge22_Node000017_Node000003"><a xlink:title=" ">
<path fill="none" stroke="#63b8ff" d="M1427.36,-115.49C1434.9,-101.01 1447.04,-71.57 1431.5,-55 1390.44,-11.22 967.58,-24.76 871.72,-18.75"/>
<polygon fill="#63b8ff" stroke="#63b8ff" points="871.96,-15.25 861.7,-17.91 871.38,-22.23 871.96,-15.25"/>
</a>
</g>
</g>
<!-- Node18 -->
<g id="Node000018" class="node">
<title>Node18</title>
<g id="a_Node000018"><a xlink:href="Macro_8h.html" target="_top" xlink:title="Manager 모듈에서 공통으로 사용하는 매크로 정의에 대한 Doxygen 주석을 제공합니다.">
<polygon fill="white" stroke="#666666" points="1422.5,-74 1366.5,-74 1366.5,-55 1422.5,-55 1422.5,-74"/>
<text text-anchor="middle" x="1394.5" y="-62" font-family="Malgun Gothic" font-size="10.00">Macro.h</text>
</a>
</g>
</g>
<!-- Node17&#45;&gt;Node18 -->
<g id="edge23_Node000017_Node000018" class="edge">
<title>Node17&#45;&gt;Node18</title>
<g id="a_edge23_Node000017_Node000018"><a xlink:title=" ">
<path fill="none" stroke="#63b8ff" d="M1418.37,-115.37C1414.36,-106.99 1408.15,-94.01 1403.06,-83.39"/>
<polygon fill="#63b8ff" stroke="#63b8ff" points="1406.12,-81.68 1398.65,-74.17 1399.81,-84.7 1406.12,-81.68"/>
</a>
</g>
</g>
<!-- Node19 -->
<g id="Node000019" class="node">
<title>Node19</title>
<g id="a_Node000019"><a xlink:title=" ">
<polygon fill="#e0e0e0" stroke="#999999" points="1348.5,-74 1136.5,-74 1136.5,-55 1348.5,-55 1348.5,-74"/>
<text text-anchor="middle" x="1242.5" y="-62" font-family="Malgun Gothic" font-size="10.00">Subsystems/GameInstanceSubsystem.h</text>
</a>
</g>
</g>
<!-- Node17&#45;&gt;Node19 -->
<g id="edge24_Node000017_Node000019" class="edge">
<title>Node17&#45;&gt;Node19</title>
<g id="a_edge24_Node000017_Node000019"><a xlink:title=" ">
<path fill="none" stroke="#63b8ff" d="M1396.33,-115.49C1365.27,-105.4 1313.31,-88.51 1278.48,-77.19"/>
<polygon fill="#63b8ff" stroke="#63b8ff" points="1279.3,-73.78 1268.71,-74.02 1277.13,-80.44 1279.3,-73.78"/>
</a>
</g>
</g>
<!-- Node20 -->
<g id="Node000020" class="node">
<title>Node20</title>
<g id="a_Node000020"><a xlink:title=" ">
<polygon fill="#e0e0e0" stroke="#999999" points="1648.5,-74 1478.5,-74 1478.5,-55 1648.5,-55 1648.5,-74"/>
<text text-anchor="middle" x="1563.5" y="-62" font-family="Malgun Gothic" font-size="10.00">UBroadcastManger.generated.h</text>
</a>
</g>
</g>
<!-- Node17&#45;&gt;Node20 -->
<g id="edge25_Node000017_Node000020" class="edge">
<title>Node17&#45;&gt;Node20</title>
<g id="a_edge25_Node000017_Node000020"><a xlink:title=" ">
<path fill="none" stroke="#63b8ff" d="M1443,-115.49C1466.81,-105.62 1506.29,-89.23 1533.54,-77.93"/>
<polygon fill="#63b8ff" stroke="#63b8ff" points="1535.08,-81.08 1542.97,-74.02 1532.39,-74.62 1535.08,-81.08"/>
</a>
</g>
</g>
<!-- Node21&#45;&gt;Node3 -->
<g id="edge27_Node000021_Node000003" class="edge">
<title>Node21&#45;&gt;Node3</title>
<g id="a_edge27_Node000021_Node000003"><a xlink:title=" ">
<path fill="none" stroke="#63b8ff" d="M795.26,-115.44C768.71,-103.83 729.64,-81.46 744.5,-55 752.61,-40.56 767.51,-30.26 781.75,-23.22"/>
<polygon fill="#63b8ff" stroke="#63b8ff" points="783.27,-26.38 790.93,-19.06 780.38,-20 783.27,-26.38"/>
</a>
</g>
</g>
<!-- Node21&#45;&gt;Node5 -->
<g id="edge29_Node000021_Node000005" class="edge">
<title>Node21&#45;&gt;Node5</title>
<g id="a_edge29_Node000021_Node000005"><a xlink:title=" ">
<path fill="none" stroke="#63b8ff" d="M753.28,-116.96C673.55,-108.07 533.17,-91.92 402.31,-74.07"/>
<polygon fill="#63b8ff" stroke="#63b8ff" points="402.48,-70.56 392.1,-72.67 401.53,-77.49 402.48,-70.56"/>
</a>
</g>
</g>
<!-- Node21&#45;&gt;Node18 -->
<g id="edge28_Node000021_Node000018" class="edge">
<title>Node21&#45;&gt;Node18</title>
<g id="a_edge28_Node000021_Node000018"><a xlink:title=" ">
<path fill="none" stroke="#63b8ff" d="M881.85,-120.83C981.54,-115.29 1179.4,-101.88 1356.29,-73.99"/>
<polygon fill="#63b8ff" stroke="#63b8ff" points="1356.97,-77.42 1366.29,-72.39 1355.87,-70.51 1356.97,-77.42"/>
</a>
</g>
</g>
<!-- Node21&#45;&gt;Node19 -->
<g id="edge45_Node000021_Node000019" class="edge">
<title>Node21&#45;&gt;Node19</title>
<g id="a_edge45_Node000021_Node000019"><a xlink:title=" ">
<path fill="none" stroke="#63b8ff" d="M879.3,-115.49C956.65,-104.85 1088.89,-86.64 1170.67,-75.39"/>
<polygon fill="#63b8ff" stroke="#63b8ff" points="1171.2,-78.85 1180.63,-74.02 1170.24,-71.91 1171.2,-78.85"/>
</a>
</g>
</g>
<!-- Node22 -->
<g id="Node000022" class="node">
<title>Node22</title>
<g id="a_Node000022"><a xlink:href="FKnockbackData_8h.html" target="_top" xlink:title="FKnockbackData 구조체에 대한 Doxygen 주석을 제공합니다.">
<polygon fill="white" stroke="#666666" points="518.5,-74 410.5,-74 410.5,-55 518.5,-55 518.5,-74"/>
<text text-anchor="middle" x="464.5" y="-62" font-family="Malgun Gothic" font-size="10.00">FKnockbackData.h</text>
</a>
</g>
</g>
<!-- Node21&#45;&gt;Node22 -->
<g id="edge30_Node000021_Node000022" class="edge">
<title>Node21&#45;&gt;Node22</title>
<g id="a_edge30_Node000021_Node000022"><a xlink:title=" ">
<path fill="none" stroke="#63b8ff" d="M766.17,-115.49C702.51,-104.94 594.1,-86.98 526.04,-75.7"/>
<polygon fill="#63b8ff" stroke="#63b8ff" points="526.33,-72.2 515.89,-74.02 525.18,-79.1 526.33,-72.2"/>
</a>
</g>
</g>
<!-- Node24 -->
<g id="Node000024" class="node">
<title>Node24</title>
<g id="a_Node000024"><a xlink:href="FCharacterInfoData_8h.html" target="_top" xlink:title="FCharacterInfoData 구조체에 대한 Doxygen 주석을 제공합니다.">
<polygon fill="white" stroke="#666666" points="696,-74 575,-74 575,-55 696,-55 696,-74"/>
<text text-anchor="middle" x="635.5" y="-62" font-family="Malgun Gothic" font-size="10.00">FCharacterInfoData.h</text>
</a>
</g>
</g>
<!-- Node21&#45;&gt;Node24 -->
<g id="edge35_Node000021_Node000024" class="edge">
<title>Node21&#45;&gt;Node24</title>
<g id="a_edge35_Node000021_Node000024"><a xlink:title=" ">
<path fill="none" stroke="#63b8ff" d="M791.04,-115.49C759.63,-105.4 707.1,-88.51 671.88,-77.19"/>
<polygon fill="#63b8ff" stroke="#63b8ff" points="672.59,-73.74 662,-74.02 670.45,-80.41 672.59,-73.74"/>
</a>
</g>
</g>
<!-- Node26 -->
<g id="Node000026" class="node">
<title>Node26</title>
<g id="a_Node000026"><a xlink:href="FCharacterAssetData_8h.html" target="_top" xlink:title="FCharacterAssetData 구조체에 대한 Doxygen 주석을 제공합니다.">
<polygon fill="white" stroke="#666666" points="882,-74 753,-74 753,-55 882,-55 882,-74"/>
<text text-anchor="middle" x="817.5" y="-62" font-family="Malgun Gothic" font-size="10.00">FCharacterAssetData.h</text>
</a>
</g>
</g>
<!-- Node21&#45;&gt;Node26 -->
<g id="edge40_Node000021_Node000026" class="edge">
<title>Node21&#45;&gt;Node26</title>
<g id="a_edge40_Node000021_Node000026"><a xlink:title=" ">
<path fill="none" stroke="#63b8ff" d="M817.5,-115.37C817.5,-107.25 817.5,-94.81 817.5,-84.39"/>
<polygon fill="#63b8ff" stroke="#63b8ff" points="821,-84.17 817.5,-74.17 814,-84.17 821,-84.17"/>
</a>
</g>
</g>
<!-- Node28 -->
<g id="Node000028" class="node">
<title>Node28</title>
<g id="a_Node000028"><a xlink:title=" ">
<polygon fill="#e0e0e0" stroke="#999999" points="1118.5,-74 938.5,-74 938.5,-55 1118.5,-55 1118.5,-74"/>
<text text-anchor="middle" x="1028.5" y="-62" font-family="Malgun Gothic" font-size="10.00">UGameDataManager.generated.h</text>
</a>
</g>
</g>
<!-- Node21&#45;&gt;Node28 -->
<g id="edge46_Node000021_Node000028" class="edge">
<title>Node21&#45;&gt;Node28</title>
<g id="a_edge46_Node000021_Node000028"><a xlink:title=" ">
<path fill="none" stroke="#63b8ff" d="M848.18,-115.49C885.06,-105.27 947.07,-88.08 987.89,-76.76"/>
<polygon fill="#63b8ff" stroke="#63b8ff" points="989.08,-80.06 997.78,-74.02 987.21,-73.32 989.08,-80.06"/>
</a>
</g>
</g>
<!-- Node22&#45;&gt;Node3 -->
<g id="edge31_Node000022_Node000003" class="edge">
<title>Node22&#45;&gt;Node3</title>
<g id="a_edge31_Node000022_Node000003"><a xlink:title=" ">
<path fill="none" stroke="#63b8ff" d="M518.72,-55.65C576.72,-47.22 671.67,-33.28 763.26,-19.18"/>
<polygon fill="#63b8ff" stroke="#63b8ff" points="763.91,-22.62 773.26,-17.64 762.84,-15.7 763.91,-22.62"/>
</a>
</g>
</g>
<!-- Node22&#45;&gt;Node6 -->
<g id="edge32_Node000022_Node000006" class="edge">
<title>Node22&#45;&gt;Node6</title>
<g id="a_edge32_Node000022_Node000006"><a xlink:title=" ">
<path fill="none" stroke="#63b8ff" d="M423.37,-54.98C378.9,-45.78 307.95,-31.09 259.85,-21.13"/>
<polygon fill="#63b8ff" stroke="#63b8ff" points="260.46,-17.68 249.95,-19.08 259.04,-24.54 260.46,-17.68"/>
</a>
</g>
</g>
<!-- Node22&#45;&gt;Node7 -->
<g id="edge33_Node000022_Node000007" class="edge">
<title>Node22&#45;&gt;Node7</title>
<g id="a_edge33_Node000022_Node000007"><a xlink:title=" ">
<path fill="none" stroke="#63b8ff" d="M471.77,-54.75C478.04,-47.18 487.29,-36.05 494.93,-26.84"/>
<polygon fill="#63b8ff" stroke="#63b8ff" points="497.67,-29.02 501.37,-19.09 492.29,-24.55 497.67,-29.02"/>
</a>
</g>
</g>
<!-- Node23 -->
<g id="Node000023" class="node">
<title>Node23</title>
<g id="a_Node000023"><a xlink:title=" ">
<polygon fill="#e0e0e0" stroke="#999999" points="435,-19 274,-19 274,0 435,0 435,-19"/>
<text text-anchor="middle" x="354.5" y="-7" font-family="Malgun Gothic" font-size="10.00">FKnockbackData.generated.h</text>
</a>
</g>
</g>
<!-- Node22&#45;&gt;Node23 -->
<g id="edge34_Node000022_Node000023" class="edge">
<title>Node22&#45;&gt;Node23</title>
<g id="a_edge34_Node000022_Node000023"><a xlink:title=" ">
<path fill="none" stroke="#63b8ff" d="M446.83,-54.98C429.21,-46.5 401.92,-33.35 381.57,-23.54"/>
<polygon fill="#63b8ff" stroke="#63b8ff" points="383.02,-20.36 372.49,-19.17 379.98,-26.66 383.02,-20.36"/>
</a>
</g>
</g>
<!-- Node24&#45;&gt;Node3 -->
<g id="edge36_Node000024_Node000003" class="edge">
<title>Node24&#45;&gt;Node3</title>
<g id="a_edge36_Node000024_Node000003"><a xlink:title=" ">
<path fill="none" stroke="#63b8ff" d="M664.74,-54.98C695.56,-46.01 744.28,-31.82 778.39,-21.89"/>
<polygon fill="#63b8ff" stroke="#63b8ff" points="779.41,-25.24 788.03,-19.08 777.45,-18.52 779.41,-25.24"/>
</a>
</g>
</g>
<!-- Node24&#45;&gt;Node7 -->
<g id="edge38_Node000024_Node000007" class="edge">
<title>Node24&#45;&gt;Node7</title>
<g id="a_edge38_Node000024_Node000007"><a xlink:title=" ">
<path fill="none" stroke="#63b8ff" d="M615.1,-54.98C594.48,-46.38 562.39,-32.99 538.81,-23.15"/>
<polygon fill="#63b8ff" stroke="#63b8ff" points="539.85,-19.79 529.28,-19.17 537.16,-26.25 539.85,-19.79"/>
</a>
</g>
</g>
<!-- Node24&#45;&gt;Node13 -->
<g id="edge37_Node000024_Node000013" class="edge">
<title>Node24&#45;&gt;Node13</title>
<g id="a_edge37_Node000024_Node000013"><a xlink:title=" ">
<path fill="none" stroke="#63b8ff" d="M696.16,-57.93C806.99,-47.75 1040.98,-26.25 1151.82,-16.07"/>
<polygon fill="#63b8ff" stroke="#63b8ff" points="1152.2,-19.55 1161.84,-15.15 1151.56,-12.58 1152.2,-19.55"/>
</a>
</g>
</g>
<!-- Node25 -->
<g id="Node000025" class="node">
<title>Node25</title>
<g id="a_Node000025"><a xlink:title=" ">
<polygon fill="#e0e0e0" stroke="#999999" points="755,-19 582,-19 582,0 755,0 755,-19"/>
<text text-anchor="middle" x="668.5" y="-7" font-family="Malgun Gothic" font-size="10.00">FCharacterInfoData.generated.h</text>
</a>
</g>
</g>
<!-- Node24&#45;&gt;Node25 -->
<g id="edge39_Node000024_Node000025" class="edge">
<title>Node24&#45;&gt;Node25</title>
<g id="a_edge39_Node000024_Node000025"><a xlink:title=" ">
<path fill="none" stroke="#63b8ff" d="M640.95,-54.75C645.51,-47.42 652.17,-36.73 657.79,-27.7"/>
<polygon fill="#63b8ff" stroke="#63b8ff" points="660.84,-29.43 663.15,-19.09 654.9,-25.73 660.84,-29.43"/>
</a>
</g>
</g>
<!-- Node26&#45;&gt;Node3 -->
<g id="edge41_Node000026_Node000003" class="edge">
<title>Node26&#45;&gt;Node3</title>
<g id="a_edge41_Node000026_Node000003"><a xlink:title=" ">
<path fill="none" stroke="#63b8ff" d="M817.5,-54.75C817.5,-47.8 817.5,-37.85 817.5,-29.13"/>
<polygon fill="#63b8ff" stroke="#63b8ff" points="821,-29.09 817.5,-19.09 814,-29.09 821,-29.09"/>
</a>
</g>
</g>
<!-- Node26&#45;&gt;Node7 -->
<g id="edge43_Node000026_Node000007" class="edge">
<title>Node26&#45;&gt;Node7</title>
<g id="a_edge43_Node000026_Node000007"><a xlink:title=" ">
<path fill="none" stroke="#63b8ff" d="M767.85,-54.98C713.54,-45.67 626.48,-30.74 568.41,-20.78"/>
<polygon fill="#63b8ff" stroke="#63b8ff" points="568.73,-17.28 558.28,-19.04 567.54,-24.18 568.73,-17.28"/>
</a>
</g>
</g>
<!-- Node26&#45;&gt;Node13 -->
<g id="edge42_Node000026_Node000013" class="edge">
<title>Node26&#45;&gt;Node13</title>
<g id="a_edge42_Node000026_Node000013"><a xlink:title=" ">
<path fill="none" stroke="#63b8ff" d="M880.96,-54.98C955.53,-44.98 1078.36,-28.5 1151.74,-18.65"/>
<polygon fill="#63b8ff" stroke="#63b8ff" points="1152.31,-22.11 1161.75,-17.31 1151.37,-15.17 1152.31,-22.11"/>
</a>
</g>
</g>
<!-- Node27 -->
<g id="Node000027" class="node">
<title>Node27</title>
<g id="a_Node000027"><a xlink:title=" ">
<polygon fill="#e0e0e0" stroke="#999999" points="1061.5,-19 879.5,-19 879.5,0 1061.5,0 1061.5,-19"/>
<text text-anchor="middle" x="970.5" y="-7" font-family="Malgun Gothic" font-size="10.00">FCharacterAssetData.generated.h</text>
</a>
</g>
</g>
<!-- Node26&#45;&gt;Node27 -->
<g id="edge44_Node000026_Node000027" class="edge">
<title>Node26&#45;&gt;Node27</title>
<g id="a_edge44_Node000026_Node000027"><a xlink:title=" ">
<path fill="none" stroke="#63b8ff" d="M842.08,-54.98C867.55,-46.16 907.54,-32.31 936.13,-22.41"/>
<polygon fill="#63b8ff" stroke="#63b8ff" points="937.42,-25.66 945.73,-19.08 935.13,-19.05 937.42,-25.66"/>
</a>
</g>
</g>
</g>
</svg>

<g id="navigator" transform="translate(0 0)" fill="#404254">
  <rect fill="#f2f5e9" fill-opacity="0.5" stroke="#606060" stroke-width=".5" x="0" y="0" width="60" height="60"/>
  <use id="zoomplus" xlink:href="#zoomPlus" x="17" y="9" onmousedown="handleZoom(evt,'in')"/>
  <use id="zoomminus" xlink:href="#zoomMin" x="42" y="9" onmousedown="handleZoom(evt,'out')"/>
  <use id="reset" xlink:href="#resetDef" x="30" y="36" onmousedown="handleReset()"/>
   <use id="arrowup" xlink:href="#arrowUp" x="0" y="0" onmousedown="handlePan(0,-1)"/>
  <use id="arrowright" xlink:href="#arrowRight" x="0" y="0" onmousedown="handlePan(1,0)"/>
  <use id="arrowdown" xlink:href="#arrowDown" x="0" y="0" onmousedown="handlePan(0,1)"/>
  <use id="arrowleft" xlink:href="#arrowLeft" x="0" y="0" onmousedown="handlePan(-1,0)"/>
</g>
<svg viewBox="0 0 15 15" width="100%" height="30px" preserveAspectRatio="xMaxYMin meet">
 <g id="arrow_out" transform="scale(0.3 0.3)">
  <a xlink:href="UHitStopSystem_8cpp__incl_org.svg" target="_base">
   <rect id="button" ry="5" rx="5" y="6" x="6" height="38" width="38"
        fill="#f2f5e9" fill-opacity="0.5" stroke="#606060" stroke-width="1.0"/>
   <path id="arrow"
     d="M 11.500037,31.436501 C 11.940474,20.09759 22.043105,11.32322 32.158766,21.979434 L 37.068811,17.246167 C 37.068811,17.246167 37.088388,32 37.088388,32 L 22.160133,31.978069 C 22.160133,31.978069 26.997745,27.140456 26.997745,27.140456 C 18.528582,18.264221 13.291696,25.230495 11.500037,31.436501 z"
     style="fill:#404040;"/>
  </a>
 </g>
</svg>

<style type='text/css'>
<![CDATA[
[data-mouse-over-selected='false'] { opacity: 0.7; }
[data-mouse-over-selected='true']  { opacity: 1.0; }
]]>
</style>
<script type="application/ecmascript"><![CDATA[
document.addEventListener('DOMContentLoaded', (event) => {
  highlightEdges();
  highlightAdjacentNodes();
});
]]></script>
</svg>
