<?xml version="1.0" encoding="UTF-8" standalone="no"?>
<!DOCTYPE svg PUBLIC "-//W3C//DTD SVG 1.1//EN"
 "http://www.w3.org/Graphics/SVG/1.1/DTD/svg11.dtd">
<!-- Generated by graphviz version 2.43.0 (0)
 -->
<!-- Title: Source/LatteLibrary/Character/Public/UHitStopSystem.h Pages: 1 -->
<svg width="521pt" height="159pt"
 viewBox="0.00 0.00 521.00 159.00" xmlns="http://www.w3.org/2000/svg" xmlns:xlink="http://www.w3.org/1999/xlink">
<g id="graph0" class="graph" transform="scale(1 1) rotate(0) translate(4 155)">
<title>Source/LatteLibrary/Character/Public/UHitStopSystem.h</title>
<!-- Node1 -->
<g id="Node000001" class="node">
<title>Node1</title>
<g id="a_Node000001"><a xlink:title="UHitStopSystem 선언에 대한 Doxygen 주석을 제공합니다.">
<polygon fill="#999999" stroke="#666666" points="289,-151 143,-151 143,-110 289,-110 289,-151"/>
<text text-anchor="start" x="151" y="-139" font-family="Malgun Gothic" font-size="10.00">Source/LatteLibrary</text>
<text text-anchor="start" x="151" y="-128" font-family="Malgun Gothic" font-size="10.00">/Character/Public/UHitStop</text>
<text text-anchor="middle" x="216" y="-117" font-family="Malgun Gothic" font-size="10.00">System.h</text>
</a>
</g>
</g>
<!-- Node2 -->
<g id="Node000002" class="node">
<title>Node2</title>
<g id="a_Node000002"><a xlink:title=" ">
<polygon fill="#e0e0e0" stroke="#999999" points="88,-19 0,-19 0,0 88,0 88,-19"/>
<text text-anchor="middle" x="44" y="-7" font-family="Malgun Gothic" font-size="10.00">CoreMinimal.h</text>
</a>
</g>
</g>
<!-- Node1&#45;&gt;Node2 -->
<g id="edge1_Node000001_Node000002" class="edge">
<title>Node1&#45;&gt;Node2</title>
<g id="a_edge1_Node000001_Node000002"><a xlink:title=" ">
<path fill="none" stroke="#63b8ff" d="M142.84,-124.55C107.75,-118.1 68.54,-104.06 46,-74 36.5,-61.33 37.03,-42.89 39.32,-29.14"/>
<polygon fill="#63b8ff" stroke="#63b8ff" points="42.76,-29.83 41.39,-19.32 35.91,-28.39 42.76,-29.83"/>
</a>
</g>
</g>
<!-- Node3 -->
<g id="Node000003" class="node">
<title>Node3</title>
<g id="a_Node000003"><a xlink:title=" ">
<polygon fill="#e0e0e0" stroke="#999999" points="227,-74 55,-74 55,-55 227,-55 227,-74"/>
<text text-anchor="middle" x="141" y="-62" font-family="Malgun Gothic" font-size="10.00">Components/ActorComponent.h</text>
</a>
</g>
</g>
<!-- Node1&#45;&gt;Node3 -->
<g id="edge2_Node000001_Node000003" class="edge">
<title>Node1&#45;&gt;Node3</title>
<g id="a_edge2_Node000001_Node000003"><a xlink:title=" ">
<path fill="none" stroke="#63b8ff" d="M193.09,-109.95C182.19,-100.65 169.33,-89.68 159.12,-80.96"/>
<polygon fill="#63b8ff" stroke="#63b8ff" points="161.15,-78.09 151.27,-74.26 156.6,-83.41 161.15,-78.09"/>
</a>
</g>
</g>
<!-- Node4 -->
<g id="Node000004" class="node">
<title>Node4</title>
<g id="a_Node000004"><a xlink:href="FHitStopData_8h.html" target="_top" xlink:title="FHitStopData 구조체에 대한 Doxygen 주석을 제공합니다.">
<polygon fill="white" stroke="#666666" points="336.5,-74 245.5,-74 245.5,-55 336.5,-55 336.5,-74"/>
<text text-anchor="middle" x="291" y="-62" font-family="Malgun Gothic" font-size="10.00">FHitStopData.h</text>
</a>
</g>
</g>
<!-- Node1&#45;&gt;Node4 -->
<g id="edge3_Node000001_Node000004" class="edge">
<title>Node1&#45;&gt;Node4</title>
<g id="a_edge3_Node000001_Node000004"><a xlink:title=" ">
<path fill="none" stroke="#63b8ff" d="M238.91,-109.95C249.81,-100.65 262.67,-89.68 272.88,-80.96"/>
<polygon fill="#63b8ff" stroke="#63b8ff" points="275.4,-83.41 280.73,-74.26 270.85,-78.09 275.4,-83.41"/>
</a>
</g>
</g>
<!-- Node8 -->
<g id="Node000008" class="node">
<title>Node8</title>
<g id="a_Node000008"><a xlink:title=" ">
<polygon fill="#e0e0e0" stroke="#999999" points="513,-74 355,-74 355,-55 513,-55 513,-74"/>
<text text-anchor="middle" x="434" y="-62" font-family="Malgun Gothic" font-size="10.00">UHitStopSystem.generated.h</text>
</a>
</g>
</g>
<!-- Node1&#45;&gt;Node8 -->
<g id="edge8_Node000001_Node000008" class="edge">
<title>Node1&#45;&gt;Node8</title>
<g id="a_edge8_Node000001_Node000008"><a xlink:title=" ">
<path fill="none" stroke="#63b8ff" d="M282.59,-109.95C319.54,-99.1 364.19,-86 395.39,-76.84"/>
<polygon fill="#63b8ff" stroke="#63b8ff" points="396.41,-80.18 405.02,-74.01 394.44,-73.47 396.41,-80.18"/>
</a>
</g>
</g>
<!-- Node4&#45;&gt;Node2 -->
<g id="edge4_Node000004_Node000002" class="edge">
<title>Node4&#45;&gt;Node2</title>
<g id="a_edge4_Node000004_Node000002"><a xlink:title=" ">
<path fill="none" stroke="#63b8ff" d="M251.32,-54.98C208.5,-45.8 140.24,-31.15 93.84,-21.19"/>
<polygon fill="#63b8ff" stroke="#63b8ff" points="94.51,-17.76 84,-19.08 93.04,-24.6 94.51,-17.76"/>
</a>
</g>
</g>
<!-- Node5 -->
<g id="Node000005" class="node">
<title>Node5</title>
<g id="a_Node000005"><a xlink:href="EDamageType_8h.html" target="_top" xlink:title="EDamageType 열거형에 대한 Doxygen 주석을 제공합니다.">
<polygon fill="white" stroke="#666666" points="217.5,-19 122.5,-19 122.5,0 217.5,0 217.5,-19"/>
<text text-anchor="middle" x="170" y="-7" font-family="Malgun Gothic" font-size="10.00">EDamageType.h</text>
</a>
</g>
</g>
<!-- Node4&#45;&gt;Node5 -->
<g id="edge5_Node000004_Node000005" class="edge">
<title>Node4&#45;&gt;Node5</title>
<g id="a_edge5_Node000004_Node000005"><a xlink:title=" ">
<path fill="none" stroke="#63b8ff" d="M271.56,-54.98C252.01,-46.42 221.62,-33.11 199.18,-23.28"/>
<polygon fill="#63b8ff" stroke="#63b8ff" points="200.36,-19.98 189.79,-19.17 197.55,-26.39 200.36,-19.98"/>
</a>
</g>
</g>
<!-- Node6 -->
<g id="Node000006" class="node">
<title>Node6</title>
<g id="a_Node000006"><a xlink:title=" ">
<polygon fill="#e0e0e0" stroke="#999999" points="346,-19 236,-19 236,0 346,0 346,-19"/>
<text text-anchor="middle" x="291" y="-7" font-family="Malgun Gothic" font-size="10.00">Engine/DataTable.h</text>
</a>
</g>
</g>
<!-- Node4&#45;&gt;Node6 -->
<g id="edge6_Node000004_Node000006" class="edge">
<title>Node4&#45;&gt;Node6</title>
<g id="a_edge6_Node000004_Node000006"><a xlink:title=" ">
<path fill="none" stroke="#63b8ff" d="M291,-54.75C291,-47.8 291,-37.85 291,-29.13"/>
<polygon fill="#63b8ff" stroke="#63b8ff" points="294.5,-29.09 291,-19.09 287.5,-29.09 294.5,-29.09"/>
</a>
</g>
</g>
<!-- Node7 -->
<g id="Node000007" class="node">
<title>Node7</title>
<g id="a_Node000007"><a xlink:title=" ">
<polygon fill="#e0e0e0" stroke="#999999" points="507.5,-19 364.5,-19 364.5,0 507.5,0 507.5,-19"/>
<text text-anchor="middle" x="436" y="-7" font-family="Malgun Gothic" font-size="10.00">FHitStopData.generated.h</text>
</a>
</g>
</g>
<!-- Node4&#45;&gt;Node7 -->
<g id="edge7_Node000004_Node000007" class="edge">
<title>Node4&#45;&gt;Node7</title>
<g id="a_edge7_Node000004_Node000007"><a xlink:title=" ">
<path fill="none" stroke="#63b8ff" d="M314.3,-54.98C338.25,-46.23 375.78,-32.51 402.83,-22.62"/>
<polygon fill="#63b8ff" stroke="#63b8ff" points="404.09,-25.89 412.28,-19.17 401.69,-19.32 404.09,-25.89"/>
</a>
</g>
</g>
</g>
</svg>
