<?xml version="1.0" encoding="UTF-8" standalone="no"?>
<!DOCTYPE svg PUBLIC "-//W3C//DTD SVG 1.1//EN"
 "http://www.w3.org/Graphics/SVG/1.1/DTD/svg11.dtd">
<!-- Generated by graphviz version 2.43.0 (0)
 -->
<!-- Title: Source/LatteLibrary/Character/Private/UHitStopSystem.cpp Pages: 1 -->
<!--zoomable 225 -->

<svg id="main" version="1.1" xmlns="http://www.w3.org/2000/svg" xmlns:xlink="http://www.w3.org/1999/xlink" xml:space="preserve" onload="init(evt)">
<style type="text/css"><![CDATA[
.node, .edge {opacity: 0.7;}
.node.selected, .edge.selected {opacity: 1;}
.edge:hover path { stroke: red; }
.edge:hover polygon { stroke: red; fill: red; }
]]></style>

<defs>
  <circle id="rim" cx="0" cy="0" r="7"/>
  <circle id="rim2" cx="0" cy="0" r="3.5"/>
  <g id="zoomPlus">
    <use xlink:href="#rim" fill="#404040"><set attributeName="fill" to="#808080" begin="zoomplus.mouseover" end="zoomplus.mouseout"/></use>
    <path d="M-4,0h8M0,-4v8" fill="none" stroke="white" stroke-width="1.5" pointer-events="none"/>
  </g>
  <g id="zoomMin">
    <use xlink:href="#rim" fill="#404040"><set attributeName="fill" to="#808080" begin="zoomminus.mouseover" end="zoomminus.mouseout"/></use>
    <path d="M-4,0h8" fill="none" stroke="white" stroke-width="1.5" pointer-events="none"/>
  </g>
  <g id="arrowUp" transform="translate(30 24)">
    <use xlink:href="#rim"/>
    <path pointer-events="none" fill="none" stroke="white" stroke-width="1.5" d="M0,-3.0v7 M-2.5,-0.5L0,-3.0L2.5,-0.5"/>
  </g>
  <g id="arrowRight" transform="rotate(90) translate(36 -43)">
    <use xlink:href="#rim"/>
    <path pointer-events="none" fill="none" stroke="white" stroke-width="1.5" d="M0,-3.0v7 M-2.5,-0.5L0,-3.0L2.5,-0.5"/>
  </g>
  <g id="arrowDown" transform="rotate(180) translate(-30 -48)">
    <use xlink:href="#rim"/>
    <path pointer-events="none" fill="none" stroke="white" stroke-width="1.5" d="M0,-3.0v7 M-2.5,-0.5L0,-3.0L2.5,-0.5"/>
  </g>
  <g id="arrowLeft" transform="rotate(270) translate(-36 17)">
    <use xlink:href="#rim"/>
    <path pointer-events="none" fill="none" stroke="white" stroke-width="1.5" d="M0,-3.0v7 M-2.5,-0.5L0,-3.0L2.5,-0.5"/>
  </g>
  <g id="resetDef">
    <use xlink:href="#rim2" fill="#404040"><set attributeName="fill" to="#808080" begin="reset.mouseover" end="reset.mouseout"/></use>
  </g>
</defs>
<script type="application/ecmascript">
var viewWidth = 2324;
var viewHeight = 225;
var sectionId = 'dynsection-0';
</script>
<script type="application/ecmascript" xlink:href="svg.min.js"/>
<svg id="graph" class="graph">
<g id="viewport">
<title>Source/LatteLibrary/Character/Private/UHitStopSystem.cpp</title>
<!-- Node1 -->
<g id="Node000001" class="node">
<title>Node1</title>
<g id="a_Node000001"><a xlink:title="UHitStopSystem 구현에 대한 Doxygen 주석을 제공합니다.">
<polygon fill="#999999" stroke="#666666" points="1579,-217 1428,-217 1428,-176 1579,-176 1579,-217"/>
<text text-anchor="start" x="1436" y="-205" font-family="Malgun Gothic" font-size="10.00">Source/LatteLibrary</text>
<text text-anchor="start" x="1436" y="-194" font-family="Malgun Gothic" font-size="10.00">/Character/Private/UHitStop</text>
<text text-anchor="middle" x="1503.5" y="-183" font-family="Malgun Gothic" font-size="10.00">System.cpp</text>
</a>
</g>
</g>
<!-- Node2 -->
<g id="Node000002" class="node">
<title>Node2</title>
<g id="a_Node000002"><a xlink:href="UHitStopSystem_8h.html" target="_top" xlink:title="UHitStopSystem 선언에 대한 Doxygen 주석을 제공합니다.">
<polygon fill="white" stroke="#666666" points="1556.5,-134.5 1450.5,-134.5 1450.5,-115.5 1556.5,-115.5 1556.5,-134.5"/>
<text text-anchor="middle" x="1503.5" y="-122.5" font-family="Malgun Gothic" font-size="10.00">UHitStopSystem.h</text>
</a>
</g>
</g>
<!-- Node1&#45;&gt;Node2 -->
<g id="edge1_Node000001_Node000002" class="edge">
<title>Node1&#45;&gt;Node2</title>
<g id="a_edge1_Node000001_Node000002"><a xlink:title=" ">
<path fill="none" stroke="#63b8ff" d="M1503.5,-175.77C1503.5,-166.08 1503.5,-154.46 1503.5,-144.88"/>
<polygon fill="#63b8ff" stroke="#63b8ff" points="1507,-144.82 1503.5,-134.82 1500,-144.82 1507,-144.82"/>
</a>
</g>
</g>
<!-- Node10 -->
<g id="Node000010" class="node">
<title>Node10</title>
<g id="a_Node000010"><a xlink:href="ALatteGameCharacter_8h.html" target="_top" xlink:title=" ">
<polygon fill="white" stroke="#666666" points="1767,-134.5 1634,-134.5 1634,-115.5 1767,-115.5 1767,-134.5"/>
<text text-anchor="middle" x="1700.5" y="-122.5" font-family="Malgun Gothic" font-size="10.00">ALatteGameCharacter.h</text>
</a>
</g>
</g>
<!-- Node1&#45;&gt;Node10 -->
<g id="edge10_Node000001_Node000010" class="edge">
<title>Node1&#45;&gt;Node10</title>
<g id="a_edge10_Node000001_Node000010"><a xlink:title=" ">
<path fill="none" stroke="#63b8ff" d="M1558.9,-175.96C1593.66,-163.69 1637.35,-148.28 1666.94,-137.84"/>
<polygon fill="#63b8ff" stroke="#63b8ff" points="1668.13,-141.13 1676.4,-134.5 1665.8,-134.53 1668.13,-141.13"/>
</a>
</g>
</g>
<!-- Node17 -->
<g id="Node000017" class="node">
<title>Node17</title>
<g id="a_Node000017"><a xlink:href="UBroadcastManger_8h.html" target="_top" xlink:title="UBroadcastManger 선언에 대한 Doxygen 주석을 제공합니다.">
<polygon fill="white" stroke="#666666" points="1152.5,-134.5 1034.5,-134.5 1034.5,-115.5 1152.5,-115.5 1152.5,-134.5"/>
<text text-anchor="middle" x="1093.5" y="-122.5" font-family="Malgun Gothic" font-size="10.00">UBroadcastManger.h</text>
</a>
</g>
</g>
<!-- Node1&#45;&gt;Node17 -->
<g id="edge21_Node000001_Node000017" class="edge">
<title>Node1&#45;&gt;Node17</title>
<g id="a_edge21_Node000001_Node000017"><a xlink:title=" ">
<path fill="none" stroke="#63b8ff" d="M1427.82,-182.67C1348.82,-169.28 1226.51,-148.55 1153.78,-136.22"/>
<polygon fill="#63b8ff" stroke="#63b8ff" points="1154.3,-132.76 1143.86,-134.54 1153.13,-139.66 1154.3,-132.76"/>
</a>
</g>
</g>
<!-- Node21 -->
<g id="Node000021" class="node">
<title>Node21</title>
<g id="a_Node000021"><a xlink:href="UGameDataManager_8h.html" target="_top" xlink:title="UGameDataManager 선언에 대한 Doxygen 주석을 제공합니다.">
<polygon fill="white" stroke="#666666" points="778.5,-134.5 650.5,-134.5 650.5,-115.5 778.5,-115.5 778.5,-134.5"/>
<text text-anchor="middle" x="714.5" y="-122.5" font-family="Malgun Gothic" font-size="10.00">UGameDataManager.h</text>
</a>
</g>
</g>
<!-- Node1&#45;&gt;Node21 -->
<g id="edge27_Node000001_Node000021" class="edge">
<title>Node1&#45;&gt;Node21</title>
<g id="a_edge27_Node000001_Node000021"><a xlink:title=" ">
<path fill="none" stroke="#63b8ff" d="M1427.85,-188.84C1276.65,-175.52 938.83,-145.76 788.78,-132.54"/>
<polygon fill="#63b8ff" stroke="#63b8ff" points="789.01,-129.05 778.74,-131.66 788.39,-136.02 789.01,-129.05"/>
</a>
</g>
</g>
<!-- Node29 -->
<g id="Node000029" class="node">
<title>Node29</title>
<g id="a_Node000029"><a xlink:title=" ">
<polygon fill="#e0e0e0" stroke="#999999" points="1988,-140 1785,-140 1785,-110 1988,-110 1988,-140"/>
<text text-anchor="start" x="1793" y="-128" font-family="Malgun Gothic" font-size="10.00">GameFramework/CharacterMovement</text>
<text text-anchor="middle" x="1886.5" y="-117" font-family="Malgun Gothic" font-size="10.00">Component.h</text>
</a>
</g>
</g>
<!-- Node1&#45;&gt;Node29 -->
<g id="edge48_Node000001_Node000029" class="edge">
<title>Node1&#45;&gt;Node29</title>
<g id="a_edge48_Node000001_Node000029"><a xlink:title=" ">
<path fill="none" stroke="#63b8ff" d="M1579.17,-181.77C1642.52,-170.27 1732.95,-153.86 1799.32,-141.82"/>
<polygon fill="#63b8ff" stroke="#63b8ff" points="1800.13,-145.23 1809.35,-140 1798.88,-138.34 1800.13,-145.23"/>
</a>
</g>
</g>
<!-- Node3 -->
<g id="Node000003" class="node">
<title>Node3</title>
<g id="a_Node000003"><a xlink:title=" ">
<polygon fill="#e0e0e0" stroke="#999999" points="1230.5,-19 1142.5,-19 1142.5,0 1230.5,0 1230.5,-19"/>
<text text-anchor="middle" x="1186.5" y="-7" font-family="Malgun Gothic" font-size="10.00">CoreMinimal.h</text>
</a>
</g>
</g>
<!-- Node2&#45;&gt;Node3 -->
<g id="edge2_Node000002_Node000003" class="edge">
<title>Node2&#45;&gt;Node3</title>
<g id="a_edge2_Node000002_Node000003"><a xlink:title=" ">
<path fill="none" stroke="#63b8ff" d="M1522.31,-115.47C1548.2,-102.62 1589.45,-77.41 1569.5,-55 1558.7,-42.87 1344.13,-23.56 1240.98,-14.92"/>
<polygon fill="#63b8ff" stroke="#63b8ff" points="1241.01,-11.41 1230.76,-14.07 1240.43,-18.39 1241.01,-11.41"/>
</a>
</g>
</g>
<!-- Node4 -->
<g id="Node000004" class="node">
<title>Node4</title>
<g id="a_Node000004"><a xlink:title=" ">
<polygon fill="#e0e0e0" stroke="#999999" points="1896.5,-19 1724.5,-19 1724.5,0 1896.5,0 1896.5,-19"/>
<text text-anchor="middle" x="1810.5" y="-7" font-family="Malgun Gothic" font-size="10.00">Components/ActorComponent.h</text>
</a>
</g>
</g>
<!-- Node2&#45;&gt;Node4 -->
<g id="edge3_Node000002_Node000004" class="edge">
<title>Node2&#45;&gt;Node4</title>
<g id="a_edge3_Node000002_Node000004"><a xlink:title=" ">
<path fill="none" stroke="#63b8ff" d="M1556.81,-117.8C1635.19,-108.24 1774.18,-89.37 1791.5,-74 1803.99,-62.91 1808.43,-43.97 1809.93,-29.66"/>
<polygon fill="#63b8ff" stroke="#63b8ff" points="1813.44,-29.61 1810.59,-19.41 1806.45,-29.16 1813.44,-29.61"/>
</a>
</g>
</g>
<!-- Node5 -->
<g id="Node000005" class="node">
<title>Node5</title>
<g id="a_Node000005"><a xlink:href="FHitStopData_8h.html" target="_top" xlink:title="FHitStopData 구조체에 대한 Doxygen 주석을 제공합니다.">
<polygon fill="white" stroke="#666666" points="1120,-74 1029,-74 1029,-55 1120,-55 1120,-74"/>
<text text-anchor="middle" x="1074.5" y="-62" font-family="Malgun Gothic" font-size="10.00">FHitStopData.h</text>
</a>
</g>
</g>
<!-- Node2&#45;&gt;Node5 -->
<g id="edge4_Node000002_Node000005" class="edge">
<title>Node2&#45;&gt;Node5</title>
<g id="a_edge4_Node000002_Node000005"><a xlink:title=" ">
<path fill="none" stroke="#63b8ff" d="M1450.47,-116.77C1368.9,-105.65 1213.41,-84.44 1130.25,-73.1"/>
<polygon fill="#63b8ff" stroke="#63b8ff" points="1130.61,-69.62 1120.23,-71.74 1129.66,-76.55 1130.61,-69.62"/>
</a>
</g>
</g>
<!-- Node9 -->
<g id="Node000009" class="node">
<title>Node9</title>
<g id="a_Node000009"><a xlink:title=" ">
<polygon fill="#e0e0e0" stroke="#999999" points="1560.5,-74 1402.5,-74 1402.5,-55 1560.5,-55 1560.5,-74"/>
<text text-anchor="middle" x="1481.5" y="-62" font-family="Malgun Gothic" font-size="10.00">UHitStopSystem.generated.h</text>
</a>
</g>
</g>
<!-- Node2&#45;&gt;Node9 -->
<g id="edge9_Node000002_Node000009" class="edge">
<title>Node2&#45;&gt;Node9</title>
<g id="a_edge9_Node000002_Node000009"><a xlink:title=" ">
<path fill="none" stroke="#63b8ff" d="M1500.25,-115.37C1497.13,-107.07 1492.32,-94.28 1488.35,-83.72"/>
<polygon fill="#63b8ff" stroke="#63b8ff" points="1491.56,-82.3 1484.76,-74.17 1485,-84.76 1491.56,-82.3"/>
</a>
</g>
</g>
<!-- Node5&#45;&gt;Node3 -->
<g id="edge5_Node000005_Node000003" class="edge">
<title>Node5&#45;&gt;Node3</title>
<g id="a_edge5_Node000005_Node000003"><a xlink:title=" ">
<path fill="none" stroke="#63b8ff" d="M1092.49,-54.98C1110.43,-46.5 1138.22,-33.35 1158.93,-23.54"/>
<polygon fill="#63b8ff" stroke="#63b8ff" points="1160.64,-26.61 1168.18,-19.17 1157.64,-20.28 1160.64,-26.61"/>
</a>
</g>
</g>
<!-- Node6 -->
<g id="Node000006" class="node">
<title>Node6</title>
<g id="a_Node000006"><a xlink:href="EDamageType_8h.html" target="_top" xlink:title="EDamageType 열거형에 대한 Doxygen 주석을 제공합니다.">
<polygon fill="white" stroke="#666666" points="963,-19 868,-19 868,0 963,0 963,-19"/>
<text text-anchor="middle" x="915.5" y="-7" font-family="Malgun Gothic" font-size="10.00">EDamageType.h</text>
</a>
</g>
</g>
<!-- Node5&#45;&gt;Node6 -->
<g id="edge6_Node000005_Node000006" class="edge">
<title>Node5&#45;&gt;Node6</title>
<g id="a_edge6_Node000005_Node000006"><a xlink:title=" ">
<path fill="none" stroke="#63b8ff" d="M1048.95,-54.98C1022.38,-46.13 980.56,-32.19 950.83,-22.28"/>
<polygon fill="#63b8ff" stroke="#63b8ff" points="951.84,-18.92 941.25,-19.08 949.63,-25.56 951.84,-18.92"/>
</a>
</g>
</g>
<!-- Node7 -->
<g id="Node000007" class="node">
<title>Node7</title>
<g id="a_Node000007"><a xlink:title=" ">
<polygon fill="#e0e0e0" stroke="#999999" points="498.5,-19 388.5,-19 388.5,0 498.5,0 498.5,-19"/>
<text text-anchor="middle" x="443.5" y="-7" font-family="Malgun Gothic" font-size="10.00">Engine/DataTable.h</text>
</a>
</g>
</g>
<!-- Node5&#45;&gt;Node7 -->
<g id="edge7_Node000005_Node000007" class="edge">
<title>Node5&#45;&gt;Node7</title>
<g id="a_edge7_Node000005_Node000007"><a xlink:title=" ">
<path fill="none" stroke="#63b8ff" d="M1028.63,-59.17C1013.61,-57.79 996.85,-56.29 981.5,-55 773.18,-37.49 720.52,-39.79 512.5,-19 511.39,-18.89 510.27,-18.77 509.14,-18.66"/>
<polygon fill="#63b8ff" stroke="#63b8ff" points="509.15,-15.14 498.84,-17.54 508.4,-22.1 509.15,-15.14"/>
</a>
</g>
</g>
<!-- Node8 -->
<g id="Node000008" class="node">
<title>Node8</title>
<g id="a_Node000008"><a xlink:title=" ">
<polygon fill="#e0e0e0" stroke="#999999" points="1124,-19 981,-19 981,0 1124,0 1124,-19"/>
<text text-anchor="middle" x="1052.5" y="-7" font-family="Malgun Gothic" font-size="10.00">FHitStopData.generated.h</text>
</a>
</g>
</g>
<!-- Node5&#45;&gt;Node8 -->
<g id="edge8_Node000005_Node000008" class="edge">
<title>Node5&#45;&gt;Node8</title>
<g id="a_edge8_Node000005_Node000008"><a xlink:title=" ">
<path fill="none" stroke="#63b8ff" d="M1070.87,-54.75C1067.92,-47.65 1063.67,-37.4 1059.99,-28.56"/>
<polygon fill="#63b8ff" stroke="#63b8ff" points="1063.13,-26.98 1056.07,-19.09 1056.67,-29.67 1063.13,-26.98"/>
</a>
</g>
</g>
<!-- Node10&#45;&gt;Node3 -->
<g id="edge11_Node000010_Node000003" class="edge">
<title>Node10&#45;&gt;Node3</title>
<g id="a_edge11_Node000010_Node000003"><a xlink:title=" ">
<path fill="none" stroke="#63b8ff" d="M1689.87,-115.43C1670.46,-100.31 1627.41,-69.16 1585.5,-55 1522.96,-33.88 1334.56,-19.65 1240.77,-13.68"/>
<polygon fill="#63b8ff" stroke="#63b8ff" points="1240.83,-10.18 1230.63,-13.04 1240.39,-17.16 1240.83,-10.18"/>
</a>
</g>
</g>
<!-- Node11 -->
<g id="Node000011" class="node">
<title>Node11</title>
<g id="a_Node000011"><a xlink:title=" ">
<polygon fill="#e0e0e0" stroke="#999999" points="1997,-74 1838,-74 1838,-55 1997,-55 1997,-74"/>
<text text-anchor="middle" x="1917.5" y="-62" font-family="Malgun Gothic" font-size="10.00">GameFramework/Character.h</text>
</a>
</g>
</g>
<!-- Node10&#45;&gt;Node11 -->
<g id="edge12_Node000010_Node000011" class="edge">
<title>Node10&#45;&gt;Node11</title>
<g id="a_edge12_Node000010_Node000011"><a xlink:title=" ">
<path fill="none" stroke="#63b8ff" d="M1732.05,-115.49C1770.06,-105.25 1834.02,-88 1876,-76.69"/>
<polygon fill="#63b8ff" stroke="#63b8ff" points="1877.16,-80 1885.91,-74.02 1875.34,-73.24 1877.16,-80"/>
</a>
</g>
</g>
<!-- Node12 -->
<g id="Node000012" class="node">
<title>Node12</title>
<g id="a_Node000012"><a xlink:href="EBodyPartType_8h.html" target="_top" xlink:title="EBodyPartType 열거형에 대한 Doxygen 주석을 제공합니다.">
<polygon fill="white" stroke="#666666" points="2112.5,-74 2014.5,-74 2014.5,-55 2112.5,-55 2112.5,-74"/>
<text text-anchor="middle" x="2063.5" y="-62" font-family="Malgun Gothic" font-size="10.00">EBodyPartType.h</text>
</a>
</g>
</g>
<!-- Node10&#45;&gt;Node12 -->
<g id="edge13_Node000010_Node000012" class="edge">
<title>Node10&#45;&gt;Node12</title>
<g id="a_edge13_Node000010_Node000012"><a xlink:title=" ">
<path fill="none" stroke="#63b8ff" d="M1745.47,-115.5C1755.66,-113.63 1766.45,-111.7 1776.5,-110 1819.14,-102.77 1933.53,-85.24 2004.35,-74.47"/>
<polygon fill="#63b8ff" stroke="#63b8ff" points="2005.1,-77.89 2014.46,-72.93 2004.05,-70.97 2005.1,-77.89"/>
</a>
</g>
</g>
<!-- Node13 -->
<g id="Node000013" class="node">
<title>Node13</title>
<g id="a_Node000013"><a xlink:href="ECharacterType_8h.html" target="_top" xlink:title="ECharacterType 열거형에 대한 Doxygen 주석을 제공합니다.">
<polygon fill="white" stroke="#666666" points="1448,-19 1347,-19 1347,0 1448,0 1448,-19"/>
<text text-anchor="middle" x="1397.5" y="-7" font-family="Malgun Gothic" font-size="10.00">ECharacterType.h</text>
</a>
</g>
</g>
<!-- Node10&#45;&gt;Node13 -->
<g id="edge14_Node000010_Node000013" class="edge">
<title>Node10&#45;&gt;Node13</title>
<g id="a_edge14_Node000010_Node000013"><a xlink:title=" ">
<path fill="none" stroke="#63b8ff" d="M1695.54,-115.11C1686.63,-100.06 1666.43,-69.78 1640.5,-55 1584.26,-22.94 1509.86,-13.22 1458.27,-10.63"/>
<polygon fill="#63b8ff" stroke="#63b8ff" points="1458.41,-7.14 1448.27,-10.21 1458.11,-14.13 1458.41,-7.14"/>
</a>
</g>
</g>
<!-- Node14 -->
<g id="Node000014" class="node">
<title>Node14</title>
<g id="a_Node000014"><a xlink:href="UStatSystem_8h.html" target="_top" xlink:title="UStatSystem 선언에 대한 Doxygen 주석을 제공합니다.">
<polygon fill="white" stroke="#666666" points="1782,-74 1693,-74 1693,-55 1782,-55 1782,-74"/>
<text text-anchor="middle" x="1737.5" y="-62" font-family="Malgun Gothic" font-size="10.00">UStatSystem.h</text>
</a>
</g>
</g>
<!-- Node10&#45;&gt;Node14 -->
<g id="edge15_Node000010_Node000014" class="edge">
<title>Node10&#45;&gt;Node14</title>
<g id="a_edge15_Node000010_Node000014"><a xlink:title=" ">
<path fill="none" stroke="#63b8ff" d="M1705.96,-115.37C1711.37,-106.81 1719.81,-93.47 1726.6,-82.74"/>
<polygon fill="#63b8ff" stroke="#63b8ff" points="1729.63,-84.49 1732.02,-74.17 1723.71,-80.75 1729.63,-84.49"/>
</a>
</g>
</g>
<!-- Node16 -->
<g id="Node000016" class="node">
<title>Node16</title>
<g id="a_Node000016"><a xlink:title=" ">
<polygon fill="#e0e0e0" stroke="#999999" points="2316,-74 2131,-74 2131,-55 2316,-55 2316,-74"/>
<text text-anchor="middle" x="2223.5" y="-62" font-family="Malgun Gothic" font-size="10.00">ALatteGameCharacter.generated.h</text>
</a>
</g>
</g>
<!-- Node10&#45;&gt;Node16 -->
<g id="edge20_Node000010_Node000016" class="edge">
<title>Node10&#45;&gt;Node16</title>
<g id="a_edge20_Node000010_Node000016"><a xlink:title=" ">
<path fill="none" stroke="#63b8ff" d="M1743.4,-115.45C1754.18,-113.49 1765.74,-111.52 1776.5,-110 1840.62,-100.92 2009.65,-84.89 2120.5,-74.76"/>
<polygon fill="#63b8ff" stroke="#63b8ff" points="2121.07,-78.22 2130.71,-73.82 2120.43,-71.25 2121.07,-78.22"/>
</a>
</g>
</g>
<!-- Node14&#45;&gt;Node3 -->
<g id="edge16_Node000014_Node000003" class="edge">
<title>Node14&#45;&gt;Node3</title>
<g id="a_edge16_Node000014_Node000003"><a xlink:title=" ">
<path fill="none" stroke="#63b8ff" d="M1692.88,-59.21C1592.61,-49.56 1349.75,-26.2 1240.88,-15.73"/>
<polygon fill="#63b8ff" stroke="#63b8ff" points="1241.06,-12.23 1230.77,-14.76 1240.39,-19.2 1241.06,-12.23"/>
</a>
</g>
</g>
<!-- Node14&#45;&gt;Node4 -->
<g id="edge18_Node000014_Node000004" class="edge">
<title>Node14&#45;&gt;Node4</title>
<g id="a_edge18_Node000014_Node000004"><a xlink:title=" ">
<path fill="none" stroke="#63b8ff" d="M1749.23,-54.98C1760.23,-47 1776.92,-34.88 1790.1,-25.31"/>
<polygon fill="#63b8ff" stroke="#63b8ff" points="1792.52,-27.88 1798.56,-19.17 1788.41,-22.21 1792.52,-27.88"/>
</a>
</g>
</g>
<!-- Node14&#45;&gt;Node13 -->
<g id="edge17_Node000014_Node000013" class="edge">
<title>Node14&#45;&gt;Node13</title>
<g id="a_edge17_Node000014_Node000013"><a xlink:title=" ">
<path fill="none" stroke="#63b8ff" d="M1692.7,-56.52C1632.58,-47.15 1525.6,-30.47 1458.26,-19.97"/>
<polygon fill="#63b8ff" stroke="#63b8ff" points="1458.64,-16.49 1448.22,-18.41 1457.56,-23.4 1458.64,-16.49"/>
</a>
</g>
</g>
<!-- Node15 -->
<g id="Node000015" class="node">
<title>Node15</title>
<g id="a_Node000015"><a xlink:title=" ">
<polygon fill="#e0e0e0" stroke="#999999" points="1706.5,-19 1564.5,-19 1564.5,0 1706.5,0 1706.5,-19"/>
<text text-anchor="middle" x="1635.5" y="-7" font-family="Malgun Gothic" font-size="10.00">UStatSystem.generated.h</text>
</a>
</g>
</g>
<!-- Node14&#45;&gt;Node15 -->
<g id="edge19_Node000014_Node000015" class="edge">
<title>Node14&#45;&gt;Node15</title>
<g id="a_edge19_Node000014_Node000015"><a xlink:title=" ">
<path fill="none" stroke="#63b8ff" d="M1721.11,-54.98C1704.93,-46.57 1679.93,-33.59 1661.12,-23.81"/>
<polygon fill="#63b8ff" stroke="#63b8ff" points="1662.67,-20.68 1652.19,-19.17 1659.45,-26.89 1662.67,-20.68"/>
</a>
</g>
</g>
<!-- Node17&#45;&gt;Node3 -->
<g id="edge22_Node000017_Node000003" class="edge">
<title>Node17&#45;&gt;Node3</title>
<g id="a_edge22_Node000017_Node000003"><a xlink:title=" ">
<path fill="none" stroke="#63b8ff" d="M1110.45,-115.47C1125.93,-106.89 1148.49,-92.34 1162.5,-74 1172.68,-60.69 1178.95,-42.57 1182.52,-29.1"/>
<polygon fill="#63b8ff" stroke="#63b8ff" points="1185.99,-29.62 1184.91,-19.08 1179.19,-27.99 1185.99,-29.62"/>
</a>
</g>
</g>
<!-- Node17&#45;&gt;Node6 -->
<g id="edge24_Node000017_Node000006" class="edge">
<title>Node17&#45;&gt;Node6</title>
<g id="a_edge24_Node000017_Node000006"><a xlink:title=" ">
<path fill="none" stroke="#63b8ff" d="M1080.12,-115.47C1049.71,-96.08 975.14,-48.53 937.7,-24.66"/>
<polygon fill="#63b8ff" stroke="#63b8ff" points="939.35,-21.56 929.03,-19.13 935.58,-27.46 939.35,-21.56"/>
</a>
</g>
</g>
<!-- Node18 -->
<g id="Node000018" class="node">
<title>Node18</title>
<g id="a_Node000018"><a xlink:href="Macro_8h.html" target="_top" xlink:title="Manager 모듈에서 공통으로 사용하는 매크로 정의에 대한 Doxygen 주석을 제공합니다.">
<polygon fill="white" stroke="#666666" points="742.5,-74 686.5,-74 686.5,-55 742.5,-55 742.5,-74"/>
<text text-anchor="middle" x="714.5" y="-62" font-family="Malgun Gothic" font-size="10.00">Macro.h</text>
</a>
</g>
</g>
<!-- Node17&#45;&gt;Node18 -->
<g id="edge23_Node000017_Node000018" class="edge">
<title>Node17&#45;&gt;Node18</title>
<g id="a_edge23_Node000017_Node000018"><a xlink:title=" ">
<path fill="none" stroke="#63b8ff" d="M1034.25,-116.81C968,-108.44 857.33,-93.48 752.82,-74.12"/>
<polygon fill="#63b8ff" stroke="#63b8ff" points="753.21,-70.63 742.73,-72.23 751.92,-77.51 753.21,-70.63"/>
</a>
</g>
</g>
<!-- Node19 -->
<g id="Node000019" class="node">
<title>Node19</title>
<g id="a_Node000019"><a xlink:title=" ">
<polygon fill="#e0e0e0" stroke="#999999" points="972.5,-74 760.5,-74 760.5,-55 972.5,-55 972.5,-74"/>
<text text-anchor="middle" x="866.5" y="-62" font-family="Malgun Gothic" font-size="10.00">Subsystems/GameInstanceSubsystem.h</text>
</a>
</g>
</g>
<!-- Node17&#45;&gt;Node19 -->
<g id="edge25_Node000017_Node000019" class="edge">
<title>Node17&#45;&gt;Node19</title>
<g id="a_edge25_Node000017_Node000019"><a xlink:title=" ">
<path fill="none" stroke="#63b8ff" d="M1060.49,-115.49C1020.56,-105.2 953.26,-87.86 909.36,-76.54"/>
<polygon fill="#63b8ff" stroke="#63b8ff" points="910.1,-73.12 899.55,-74.02 908.36,-79.9 910.1,-73.12"/>
</a>
</g>
</g>
<!-- Node20 -->
<g id="Node000020" class="node">
<title>Node20</title>
<g id="a_Node000020"><a xlink:title=" ">
<polygon fill="#e0e0e0" stroke="#999999" points="1384.5,-74 1214.5,-74 1214.5,-55 1384.5,-55 1384.5,-74"/>
<text text-anchor="middle" x="1299.5" y="-62" font-family="Malgun Gothic" font-size="10.00">UBroadcastManger.generated.h</text>
</a>
</g>
</g>
<!-- Node17&#45;&gt;Node20 -->
<g id="edge26_Node000017_Node000020" class="edge">
<title>Node17&#45;&gt;Node20</title>
<g id="a_edge26_Node000017_Node000020"><a xlink:title=" ">
<path fill="none" stroke="#63b8ff" d="M1123.45,-115.49C1159.46,-105.27 1220,-88.08 1259.85,-76.76"/>
<polygon fill="#63b8ff" stroke="#63b8ff" points="1260.85,-80.12 1269.51,-74.02 1258.93,-73.38 1260.85,-80.12"/>
</a>
</g>
</g>
<!-- Node21&#45;&gt;Node3 -->
<g id="edge28_Node000021_Node000003" class="edge">
<title>Node21&#45;&gt;Node3</title>
<g id="a_edge28_Node000021_Node000003"><a xlink:title=" ">
<path fill="none" stroke="#63b8ff" d="M778.82,-121.74C879.74,-117.29 1069.95,-104.97 1129.5,-74 1149.55,-63.57 1165.95,-43.02 1175.93,-28.11"/>
<polygon fill="#63b8ff" stroke="#63b8ff" points="1179.12,-29.61 1181.53,-19.3 1173.21,-25.86 1179.12,-29.61"/>
</a>
</g>
</g>
<!-- Node21&#45;&gt;Node5 -->
<g id="edge30_Node000021_Node000005" class="edge">
<title>Node21&#45;&gt;Node5</title>
<g id="a_edge30_Node000021_Node000005"><a xlink:title=" ">
<path fill="none" stroke="#63b8ff" d="M766.85,-115.49C833.99,-104.58 949.97,-85.74 1018.73,-74.56"/>
<polygon fill="#63b8ff" stroke="#63b8ff" points="1019.62,-77.96 1028.93,-72.9 1018.5,-71.05 1019.62,-77.96"/>
</a>
</g>
</g>
<!-- Node21&#45;&gt;Node18 -->
<g id="edge29_Node000021_Node000018" class="edge">
<title>Node21&#45;&gt;Node18</title>
<g id="a_edge29_Node000021_Node000018"><a xlink:title=" ">
<path fill="none" stroke="#63b8ff" d="M714.5,-115.37C714.5,-107.25 714.5,-94.81 714.5,-84.39"/>
<polygon fill="#63b8ff" stroke="#63b8ff" points="718,-84.17 714.5,-74.17 711,-84.17 718,-84.17"/>
</a>
</g>
</g>
<!-- Node21&#45;&gt;Node19 -->
<g id="edge46_Node000021_Node000019" class="edge">
<title>Node21&#45;&gt;Node19</title>
<g id="a_edge46_Node000021_Node000019"><a xlink:title=" ">
<path fill="none" stroke="#63b8ff" d="M736.6,-115.49C762.49,-105.53 805.58,-88.95 834.97,-77.63"/>
<polygon fill="#63b8ff" stroke="#63b8ff" points="836.3,-80.88 844.37,-74.02 833.78,-74.34 836.3,-80.88"/>
</a>
</g>
</g>
<!-- Node22 -->
<g id="Node000022" class="node">
<title>Node22</title>
<g id="a_Node000022"><a xlink:href="FKnockbackData_8h.html" target="_top" xlink:title="FKnockbackData 구조체에 대한 Doxygen 주석을 제공합니다.">
<polygon fill="white" stroke="#666666" points="182.5,-74 74.5,-74 74.5,-55 182.5,-55 182.5,-74"/>
<text text-anchor="middle" x="128.5" y="-62" font-family="Malgun Gothic" font-size="10.00">FKnockbackData.h</text>
</a>
</g>
</g>
<!-- Node21&#45;&gt;Node22 -->
<g id="edge31_Node000021_Node000022" class="edge">
<title>Node21&#45;&gt;Node22</title>
<g id="a_edge31_Node000021_Node000022"><a xlink:title=" ">
<path fill="none" stroke="#63b8ff" d="M650.41,-118.68C553.6,-110.46 364.04,-93.68 192.73,-74.1"/>
<polygon fill="#63b8ff" stroke="#63b8ff" points="193.11,-70.62 182.78,-72.96 192.31,-77.58 193.11,-70.62"/>
</a>
</g>
</g>
<!-- Node24 -->
<g id="Node000024" class="node">
<title>Node24</title>
<g id="a_Node000024"><a xlink:href="FCharacterInfoData_8h.html" target="_top" xlink:title="FCharacterInfoData 구조체에 대한 Doxygen 주석을 제공합니다.">
<polygon fill="white" stroke="#666666" points="668,-74 547,-74 547,-55 668,-55 668,-74"/>
<text text-anchor="middle" x="607.5" y="-62" font-family="Malgun Gothic" font-size="10.00">FCharacterInfoData.h</text>
</a>
</g>
</g>
<!-- Node21&#45;&gt;Node24 -->
<g id="edge36_Node000021_Node000024" class="edge">
<title>Node21&#45;&gt;Node24</title>
<g id="a_edge36_Node000021_Node000024"><a xlink:title=" ">
<path fill="none" stroke="#63b8ff" d="M698.71,-115.37C681.17,-105.78 652.62,-90.17 632.13,-78.97"/>
<polygon fill="#63b8ff" stroke="#63b8ff" points="633.81,-75.89 623.35,-74.17 630.45,-82.04 633.81,-75.89"/>
</a>
</g>
</g>
<!-- Node26 -->
<g id="Node000026" class="node">
<title>Node26</title>
<g id="a_Node000026"><a xlink:href="FCharacterAssetData_8h.html" target="_top" xlink:title="FCharacterAssetData 구조체에 대한 Doxygen 주석을 제공합니다.">
<polygon fill="white" stroke="#666666" points="330,-74 201,-74 201,-55 330,-55 330,-74"/>
<text text-anchor="middle" x="265.5" y="-62" font-family="Malgun Gothic" font-size="10.00">FCharacterAssetData.h</text>
</a>
</g>
</g>
<!-- Node21&#45;&gt;Node26 -->
<g id="edge41_Node000021_Node000026" class="edge">
<title>Node21&#45;&gt;Node26</title>
<g id="a_edge41_Node000021_Node000026"><a xlink:title=" ">
<path fill="none" stroke="#63b8ff" d="M650.17,-115.62C568.18,-104.94 426.73,-86.51 340.1,-75.22"/>
<polygon fill="#63b8ff" stroke="#63b8ff" points="340.44,-71.73 330.08,-73.91 339.54,-78.68 340.44,-71.73"/>
</a>
</g>
</g>
<!-- Node28 -->
<g id="Node000028" class="node">
<title>Node28</title>
<g id="a_Node000028"><a xlink:title=" ">
<polygon fill="#e0e0e0" stroke="#999999" points="528.5,-74 348.5,-74 348.5,-55 528.5,-55 528.5,-74"/>
<text text-anchor="middle" x="438.5" y="-62" font-family="Malgun Gothic" font-size="10.00">UGameDataManager.generated.h</text>
</a>
</g>
</g>
<!-- Node21&#45;&gt;Node28 -->
<g id="edge47_Node000021_Node000028" class="edge">
<title>Node21&#45;&gt;Node28</title>
<g id="a_edge47_Node000021_Node000028"><a xlink:title=" ">
<path fill="none" stroke="#63b8ff" d="M674.37,-115.49C625.21,-105.07 541.91,-87.42 488.6,-76.12"/>
<polygon fill="#63b8ff" stroke="#63b8ff" points="489.19,-72.67 478.68,-74.02 487.74,-79.51 489.19,-72.67"/>
</a>
</g>
</g>
<!-- Node22&#45;&gt;Node3 -->
<g id="edge32_Node000022_Node000003" class="edge">
<title>Node22&#45;&gt;Node3</title>
<g id="a_edge32_Node000022_Node000003"><a xlink:title=" ">
<path fill="none" stroke="#63b8ff" d="M182.76,-55.84C185.71,-55.53 188.64,-55.25 191.5,-55 605.56,-19.24 714.81,-59.59 1132.08,-19"/>
<polygon fill="#63b8ff" stroke="#63b8ff" points="1132.7,-22.46 1142.31,-18 1132.01,-15.49 1132.7,-22.46"/>
</a>
</g>
</g>
<!-- Node22&#45;&gt;Node6 -->
<g id="edge33_Node000022_Node000006" class="edge">
<title>Node22&#45;&gt;Node6</title>
<g id="a_edge33_Node000022_Node000006"><a xlink:title=" ">
<path fill="none" stroke="#63b8ff" d="M182.77,-55.92C185.72,-55.59 188.64,-55.28 191.5,-55 438.72,-30.76 734.8,-17.45 857.67,-12.62"/>
<polygon fill="#63b8ff" stroke="#63b8ff" points="858.11,-16.11 867.97,-12.22 857.84,-9.12 858.11,-16.11"/>
</a>
</g>
</g>
<!-- Node22&#45;&gt;Node7 -->
<g id="edge34_Node000022_Node000007" class="edge">
<title>Node22&#45;&gt;Node7</title>
<g id="a_edge34_Node000022_Node000007"><a xlink:title=" ">
<path fill="none" stroke="#63b8ff" d="M179.11,-54.98C234.6,-45.65 323.59,-30.67 382.79,-20.71"/>
<polygon fill="#63b8ff" stroke="#63b8ff" points="383.47,-24.15 392.75,-19.04 382.31,-17.25 383.47,-24.15"/>
</a>
</g>
</g>
<!-- Node23 -->
<g id="Node000023" class="node">
<title>Node23</title>
<g id="a_Node000023"><a xlink:title=" ">
<polygon fill="#e0e0e0" stroke="#999999" points="161,-19 0,-19 0,0 161,0 161,-19"/>
<text text-anchor="middle" x="80.5" y="-7" font-family="Malgun Gothic" font-size="10.00">FKnockbackData.generated.h</text>
</a>
</g>
</g>
<!-- Node22&#45;&gt;Node23 -->
<g id="edge35_Node000022_Node000023" class="edge">
<title>Node22&#45;&gt;Node23</title>
<g id="a_edge35_Node000022_Node000023"><a xlink:title=" ">
<path fill="none" stroke="#63b8ff" d="M120.57,-54.75C113.65,-47.11 103.43,-35.82 95.05,-26.56"/>
<polygon fill="#63b8ff" stroke="#63b8ff" points="97.59,-24.15 88.28,-19.09 92.4,-28.85 97.59,-24.15"/>
</a>
</g>
</g>
<!-- Node24&#45;&gt;Node3 -->
<g id="edge37_Node000024_Node000003" class="edge">
<title>Node24&#45;&gt;Node3</title>
<g id="a_edge37_Node000024_Node000003"><a xlink:title=" ">
<path fill="none" stroke="#63b8ff" d="M668.19,-55.97C671.34,-55.63 674.45,-55.3 677.5,-55 876.53,-35.07 929.93,-42.85 1132.23,-19.06"/>
<polygon fill="#63b8ff" stroke="#63b8ff" points="1132.77,-22.52 1142.29,-17.86 1131.95,-15.57 1132.77,-22.52"/>
</a>
</g>
</g>
<!-- Node24&#45;&gt;Node7 -->
<g id="edge39_Node000024_Node000007" class="edge">
<title>Node24&#45;&gt;Node7</title>
<g id="a_edge39_Node000024_Node000007"><a xlink:title=" ">
<path fill="none" stroke="#63b8ff" d="M581.15,-54.98C553.74,-46.13 510.61,-32.19 479.94,-22.28"/>
<polygon fill="#63b8ff" stroke="#63b8ff" points="480.65,-18.83 470.06,-19.08 478.5,-25.49 480.65,-18.83"/>
</a>
</g>
</g>
<!-- Node24&#45;&gt;Node13 -->
<g id="edge38_Node000024_Node000013" class="edge">
<title>Node24&#45;&gt;Node13</title>
<g id="a_edge38_Node000024_Node000013"><a xlink:title=" ">
<path fill="none" stroke="#63b8ff" d="M668.18,-55.91C671.33,-55.58 674.45,-55.28 677.5,-55 804.77,-43.35 1186.77,-21.99 1336.42,-13.81"/>
<polygon fill="#63b8ff" stroke="#63b8ff" points="1336.99,-17.28 1346.78,-13.24 1336.61,-10.29 1336.99,-17.28"/>
</a>
</g>
</g>
<!-- Node25 -->
<g id="Node000025" class="node">
<title>Node25</title>
<g id="a_Node000025"><a xlink:title=" ">
<polygon fill="#e0e0e0" stroke="#999999" points="694,-19 521,-19 521,0 694,0 694,-19"/>
<text text-anchor="middle" x="607.5" y="-7" font-family="Malgun Gothic" font-size="10.00">FCharacterInfoData.generated.h</text>
</a>
</g>
</g>
<!-- Node24&#45;&gt;Node25 -->
<g id="edge40_Node000024_Node000025" class="edge">
<title>Node24&#45;&gt;Node25</title>
<g id="a_edge40_Node000024_Node000025"><a xlink:title=" ">
<path fill="none" stroke="#63b8ff" d="M607.5,-54.75C607.5,-47.8 607.5,-37.85 607.5,-29.13"/>
<polygon fill="#63b8ff" stroke="#63b8ff" points="611,-29.09 607.5,-19.09 604,-29.09 611,-29.09"/>
</a>
</g>
</g>
<!-- Node26&#45;&gt;Node3 -->
<g id="edge42_Node000026_Node000003" class="edge">
<title>Node26&#45;&gt;Node3</title>
<g id="a_edge42_Node000026_Node000003"><a xlink:title=" ">
<path fill="none" stroke="#63b8ff" d="M330.05,-55.82C333.24,-55.52 336.41,-55.25 339.5,-55 688.36,-27.09 780.39,-54.51 1132.35,-18.99"/>
<polygon fill="#63b8ff" stroke="#63b8ff" points="1132.71,-22.47 1142.3,-17.97 1132,-15.51 1132.71,-22.47"/>
</a>
</g>
</g>
<!-- Node26&#45;&gt;Node7 -->
<g id="edge44_Node000026_Node000007" class="edge">
<title>Node26&#45;&gt;Node7</title>
<g id="a_edge44_Node000026_Node000007"><a xlink:title=" ">
<path fill="none" stroke="#63b8ff" d="M294.1,-54.98C324.11,-46.05 371.48,-31.94 404.82,-22.02"/>
<polygon fill="#63b8ff" stroke="#63b8ff" points="406.09,-25.29 414.68,-19.08 404.09,-18.58 406.09,-25.29"/>
</a>
</g>
</g>
<!-- Node26&#45;&gt;Node13 -->
<g id="edge43_Node000026_Node000013" class="edge">
<title>Node26&#45;&gt;Node13</title>
<g id="a_edge43_Node000026_Node000013"><a xlink:title=" ">
<path fill="none" stroke="#63b8ff" d="M330.05,-55.8C333.24,-55.51 336.41,-55.24 339.5,-55 738.63,-24.14 839.62,-37.75 1239.5,-19 1271.66,-17.49 1307.48,-15.58 1336.87,-13.96"/>
<polygon fill="#63b8ff" stroke="#63b8ff" points="1337.2,-17.44 1346.99,-13.39 1336.81,-10.46 1337.2,-17.44"/>
</a>
</g>
</g>
<!-- Node27 -->
<g id="Node000027" class="node">
<title>Node27</title>
<g id="a_Node000027"><a xlink:title=" ">
<polygon fill="#e0e0e0" stroke="#999999" points="361.5,-19 179.5,-19 179.5,0 361.5,0 361.5,-19"/>
<text text-anchor="middle" x="270.5" y="-7" font-family="Malgun Gothic" font-size="10.00">FCharacterAssetData.generated.h</text>
</a>
</g>
</g>
<!-- Node26&#45;&gt;Node27 -->
<g id="edge45_Node000026_Node000027" class="edge">
<title>Node26&#45;&gt;Node27</title>
<g id="a_edge45_Node000026_Node000027"><a xlink:title=" ">
<path fill="none" stroke="#63b8ff" d="M266.33,-54.75C266.98,-47.8 267.92,-37.85 268.74,-29.13"/>
<polygon fill="#63b8ff" stroke="#63b8ff" points="272.23,-29.37 269.69,-19.09 265.27,-28.72 272.23,-29.37"/>
</a>
</g>
</g>
</g>
</svg>

<g id="navigator" transform="translate(0 0)" fill="#404254">
  <rect fill="#f2f5e9" fill-opacity="0.5" stroke="#606060" stroke-width=".5" x="0" y="0" width="60" height="60"/>
  <use id="zoomplus" xlink:href="#zoomPlus" x="17" y="9" onmousedown="handleZoom(evt,'in')"/>
  <use id="zoomminus" xlink:href="#zoomMin" x="42" y="9" onmousedown="handleZoom(evt,'out')"/>
  <use id="reset" xlink:href="#resetDef" x="30" y="36" onmousedown="handleReset()"/>
   <use id="arrowup" xlink:href="#arrowUp" x="0" y="0" onmousedown="handlePan(0,-1)"/>
  <use id="arrowright" xlink:href="#arrowRight" x="0" y="0" onmousedown="handlePan(1,0)"/>
  <use id="arrowdown" xlink:href="#arrowDown" x="0" y="0" onmousedown="handlePan(0,1)"/>
  <use id="arrowleft" xlink:href="#arrowLeft" x="0" y="0" onmousedown="handlePan(-1,0)"/>
</g>
<svg viewBox="0 0 15 15" width="100%" height="30px" preserveAspectRatio="xMaxYMin meet">
 <g id="arrow_out" transform="scale(0.3 0.3)">
  <a xlink:href="UHitStopSystem_8cpp__incl_org.svg" target="_base">
   <rect id="button" ry="5" rx="5" y="6" x="6" height="38" width="38"
        fill="#f2f5e9" fill-opacity="0.5" stroke="#606060" stroke-width="1.0"/>
   <path id="arrow"
     d="M 11.500037,31.436501 C 11.940474,20.09759 22.043105,11.32322 32.158766,21.979434 L 37.068811,17.246167 C 37.068811,17.246167 37.088388,32 37.088388,32 L 22.160133,31.978069 C 22.160133,31.978069 26.997745,27.140456 26.997745,27.140456 C 18.528582,18.264221 13.291696,25.230495 11.500037,31.436501 z"
     style="fill:#404040;"/>
  </a>
 </g>
</svg>

<style type='text/css'>
<![CDATA[
[data-mouse-over-selected='false'] { opacity: 0.7; }
[data-mouse-over-selected='true']  { opacity: 1.0; }
]]>
</style>
<script type="application/ecmascript"><![CDATA[
document.addEventListener('DOMContentLoaded', (event) => {
  highlightEdges();
  highlightAdjacentNodes();
});
]]></script>
</svg>
