<?xml version="1.0" encoding="UTF-8" standalone="no"?>
<!DOCTYPE svg PUBLIC "-//W3C//DTD SVG 1.1//EN"
 "http://www.w3.org/Graphics/SVG/1.1/DTD/svg11.dtd">
<!-- Generated by graphviz version 2.43.0 (0)
 -->
<!-- Title: Source/YiSan/Network/Public/UHttpNetworkSystem.h Pages: 1 -->
<svg width="767pt" height="203pt"
 viewBox="0.00 0.00 766.59 203.00" xmlns="http://www.w3.org/2000/svg" xmlns:xlink="http://www.w3.org/1999/xlink">
<g id="graph0" class="graph" transform="scale(1 1) rotate(0) translate(4 199)">
<title>Source/YiSan/Network/Public/UHttpNetworkSystem.h</title>
<!-- Node1 -->
<g id="Node000001" class="node">
<title>Node1</title>
<g id="a_Node000001"><a xlink:title="UHttpNetworkSystem 선언에 대한 Doxygen 주석을 제공합니다.">
<polygon fill="#999999" stroke="#666666" points="335.59,-195 168.59,-195 168.59,-165 335.59,-165 335.59,-195"/>
<text text-anchor="start" x="176.59" y="-183" font-family="Malgun Gothic" font-size="10.00">Source/YiSan/Network</text>
<text text-anchor="middle" x="252.09" y="-172" font-family="Malgun Gothic" font-size="10.00">/Public/UHttpNetworkSystem.h</text>
</a>
</g>
</g>
<!-- Node2 -->
<g id="Node000002" class="node">
<title>Node2</title>
<g id="a_Node000002"><a xlink:title=" ">
<polygon fill="#e0e0e0" stroke="#999999" points="139.09,-19 51.09,-19 51.09,0 139.09,0 139.09,-19"/>
<text text-anchor="middle" x="95.09" y="-7" font-family="Malgun Gothic" font-size="10.00">CoreMinimal.h</text>
</a>
</g>
</g>
<!-- Node1&#45;&gt;Node2 -->
<g id="edge1_Node000001_Node000002" class="edge">
<title>Node1&#45;&gt;Node2</title>
<g id="a_edge1_Node000001_Node000002"><a xlink:title=" ">
<path fill="none" stroke="#63b8ff" d="M168.37,-168.13C111.15,-155.8 39.52,-129.6 4.09,-74 -11.13,-50.1 21.18,-32.71 51.42,-22.23"/>
<polygon fill="#63b8ff" stroke="#63b8ff" points="52.69,-25.5 61.11,-19.07 50.52,-18.84 52.69,-25.5"/>
</a>
</g>
</g>
<!-- Node3 -->
<g id="Node000003" class="node">
<title>Node3</title>
<g id="a_Node000003"><a xlink:href="NetworkData_8h.html" target="_top" xlink:title="NetworkData 구조체 선언에 대한 Doxygen 주석을 제공합니다.">
<polygon fill="white" stroke="#666666" points="252.09,-129 162.09,-129 162.09,-110 252.09,-110 252.09,-129"/>
<text text-anchor="middle" x="207.09" y="-117" font-family="Malgun Gothic" font-size="10.00">NetworkData.h</text>
</a>
</g>
</g>
<!-- Node1&#45;&gt;Node3 -->
<g id="edge2_Node000001_Node000003" class="edge">
<title>Node1&#45;&gt;Node3</title>
<g id="a_edge2_Node000001_Node000003"><a xlink:title=" ">
<path fill="none" stroke="#63b8ff" d="M241.2,-164.84C234.8,-156.52 226.68,-145.96 219.96,-137.23"/>
<polygon fill="#63b8ff" stroke="#63b8ff" points="222.71,-135.06 213.84,-129.27 217.16,-139.33 222.71,-135.06"/>
</a>
</g>
</g>
<!-- Node9 -->
<g id="Node000009" class="node">
<title>Node9</title>
<g id="a_Node000009"><a xlink:href="ENetworkLogType_8h.html" target="_top" xlink:title="ENetworkLogType 열거형에 대한 Doxygen 주석을 제공합니다.">
<polygon fill="white" stroke="#666666" points="126.59,-74 13.59,-74 13.59,-55 126.59,-55 126.59,-74"/>
<text text-anchor="middle" x="70.09" y="-62" font-family="Malgun Gothic" font-size="10.00">ENetworkLogType.h</text>
</a>
</g>
</g>
<!-- Node1&#45;&gt;Node9 -->
<g id="edge10_Node000001_Node000009" class="edge">
<title>Node1&#45;&gt;Node9</title>
<g id="a_edge10_Node000001_Node000009"><a xlink:title=" ">
<path fill="none" stroke="#63b8ff" d="M220.52,-164.89C200.66,-155.58 174.79,-142.61 153.09,-129 129.41,-114.14 104.15,-94.15 87.81,-80.6"/>
<polygon fill="#63b8ff" stroke="#63b8ff" points="90.04,-77.91 80.13,-74.16 85.54,-83.27 90.04,-77.91"/>
</a>
</g>
</g>
<!-- Node10 -->
<g id="Node000010" class="node">
<title>Node10</title>
<g id="a_Node000010"><a xlink:href="Macro_8h.html" target="_top" xlink:title="Manager 모듈에서 공통으로 사용하는 매크로 정의에 대한 Doxygen 주석을 제공합니다.">
<polygon fill="white" stroke="#666666" points="326.09,-129 270.09,-129 270.09,-110 326.09,-110 326.09,-129"/>
<text text-anchor="middle" x="298.09" y="-117" font-family="Malgun Gothic" font-size="10.00">Macro.h</text>
</a>
</g>
</g>
<!-- Node1&#45;&gt;Node10 -->
<g id="edge12_Node000001_Node000010" class="edge">
<title>Node1&#45;&gt;Node10</title>
<g id="a_edge12_Node000001_Node000010"><a xlink:title=" ">
<path fill="none" stroke="#63b8ff" d="M263.23,-164.84C269.77,-156.52 278.07,-145.96 284.94,-137.23"/>
<polygon fill="#63b8ff" stroke="#63b8ff" points="287.77,-139.29 291.2,-129.27 282.27,-134.96 287.77,-139.29"/>
</a>
</g>
</g>
<!-- Node11 -->
<g id="Node000011" class="node">
<title>Node11</title>
<g id="a_Node000011"><a xlink:title=" ">
<polygon fill="#e0e0e0" stroke="#999999" points="556.09,-129 344.09,-129 344.09,-110 556.09,-110 556.09,-129"/>
<text text-anchor="middle" x="450.09" y="-117" font-family="Malgun Gothic" font-size="10.00">Subsystems/GameInstanceSubsystem.h</text>
</a>
</g>
</g>
<!-- Node1&#45;&gt;Node11 -->
<g id="edge13_Node000001_Node000011" class="edge">
<title>Node1&#45;&gt;Node11</title>
<g id="a_edge13_Node000001_Node000011"><a xlink:title=" ">
<path fill="none" stroke="#63b8ff" d="M299.52,-164.99C333.69,-154.89 379.23,-141.44 411.25,-131.98"/>
<polygon fill="#63b8ff" stroke="#63b8ff" points="412.54,-135.24 421.14,-129.05 410.56,-128.53 412.54,-135.24"/>
</a>
</g>
</g>
<!-- Node12 -->
<g id="Node000012" class="node">
<title>Node12</title>
<g id="a_Node000012"><a xlink:title=" ">
<polygon fill="#e0e0e0" stroke="#999999" points="758.59,-129 573.59,-129 573.59,-110 758.59,-110 758.59,-129"/>
<text text-anchor="middle" x="666.09" y="-117" font-family="Malgun Gothic" font-size="10.00">UHttpNetworkSystem.generated.h</text>
</a>
</g>
</g>
<!-- Node1&#45;&gt;Node12 -->
<g id="edge14_Node000001_Node000012" class="edge">
<title>Node1&#45;&gt;Node12</title>
<g id="a_edge14_Node000001_Node000012"><a xlink:title=" ">
<path fill="none" stroke="#63b8ff" d="M335.87,-167.16C412.21,-156.37 523.71,-140.62 595.59,-130.46"/>
<polygon fill="#63b8ff" stroke="#63b8ff" points="596.49,-133.87 605.9,-129.01 595.51,-126.94 596.49,-133.87"/>
</a>
</g>
</g>
<!-- Node3&#45;&gt;Node2 -->
<g id="edge3_Node000003_Node000002" class="edge">
<title>Node3&#45;&gt;Node2</title>
<g id="a_edge3_Node000003_Node000002"><a xlink:title=" ">
<path fill="none" stroke="#63b8ff" d="M197.93,-109.66C178.96,-91.38 135.21,-49.18 111.34,-26.17"/>
<polygon fill="#63b8ff" stroke="#63b8ff" points="113.7,-23.58 104.07,-19.16 108.84,-28.62 113.7,-23.58"/>
</a>
</g>
</g>
<!-- Node4 -->
<g id="Node000004" class="node">
<title>Node4</title>
<g id="a_Node000004"><a xlink:href="UCustomNetworkSettings_8h.html" target="_top" xlink:title="UCustomNetworkSettings 선언에 대한 Doxygen 주석을 제공합니다.">
<polygon fill="white" stroke="#666666" points="335.09,-74 183.09,-74 183.09,-55 335.09,-55 335.09,-74"/>
<text text-anchor="middle" x="259.09" y="-62" font-family="Malgun Gothic" font-size="10.00">UCustomNetworkSettings.h</text>
</a>
</g>
</g>
<!-- Node3&#45;&gt;Node4 -->
<g id="edge4_Node000003_Node000004" class="edge">
<title>Node3&#45;&gt;Node4</title>
<g id="a_edge4_Node000003_Node000004"><a xlink:title=" ">
<path fill="none" stroke="#63b8ff" d="M215.68,-109.75C223.25,-102.03 234.47,-90.6 243.61,-81.28"/>
<polygon fill="#63b8ff" stroke="#63b8ff" points="246.16,-83.68 250.67,-74.09 241.16,-78.78 246.16,-83.68"/>
</a>
</g>
</g>
<!-- Node7 -->
<g id="Node000007" class="node">
<title>Node7</title>
<g id="a_Node000007"><a xlink:title=" ">
<polygon fill="#e0e0e0" stroke="#999999" points="499.09,-74 353.09,-74 353.09,-55 499.09,-55 499.09,-74"/>
<text text-anchor="middle" x="426.09" y="-62" font-family="Malgun Gothic" font-size="10.00">Templates/SharedPointer.h</text>
</a>
</g>
</g>
<!-- Node3&#45;&gt;Node7 -->
<g id="edge8_Node000003_Node000007" class="edge">
<title>Node3&#45;&gt;Node7</title>
<g id="a_edge8_Node000003_Node000007"><a xlink:title=" ">
<path fill="none" stroke="#63b8ff" d="M242.28,-109.98C279.92,-100.87 339.75,-86.4 380.87,-76.45"/>
<polygon fill="#63b8ff" stroke="#63b8ff" points="381.74,-79.84 390.63,-74.08 380.09,-73.03 381.74,-79.84"/>
</a>
</g>
</g>
<!-- Node8 -->
<g id="Node000008" class="node">
<title>Node8</title>
<g id="a_Node000008"><a xlink:title=" ">
<polygon fill="#e0e0e0" stroke="#999999" points="660.59,-74 517.59,-74 517.59,-55 660.59,-55 660.59,-74"/>
<text text-anchor="middle" x="589.09" y="-62" font-family="Malgun Gothic" font-size="10.00">NetworkData.generated.h</text>
</a>
</g>
</g>
<!-- Node3&#45;&gt;Node8 -->
<g id="edge9_Node000003_Node000008" class="edge">
<title>Node3&#45;&gt;Node8</title>
<g id="a_edge9_Node000003_Node000008"><a xlink:title=" ">
<path fill="none" stroke="#63b8ff" d="M252.16,-111.33C255.18,-110.87 258.18,-110.43 261.09,-110 347.36,-97.36 446.57,-84.07 513.09,-75.35"/>
<polygon fill="#63b8ff" stroke="#63b8ff" points="513.61,-78.81 523.07,-74.04 512.7,-71.87 513.61,-78.81"/>
</a>
</g>
</g>
<!-- Node4&#45;&gt;Node2 -->
<g id="edge5_Node000004_Node000002" class="edge">
<title>Node4&#45;&gt;Node2</title>
<g id="a_edge5_Node000004_Node000002"><a xlink:title=" ">
<path fill="none" stroke="#63b8ff" d="M232.74,-54.98C205.33,-46.13 162.2,-32.19 131.53,-22.28"/>
<polygon fill="#63b8ff" stroke="#63b8ff" points="132.24,-18.83 121.65,-19.08 130.09,-25.49 132.24,-18.83"/>
</a>
</g>
</g>
<!-- Node5 -->
<g id="Node000005" class="node">
<title>Node5</title>
<g id="a_Node000005"><a xlink:title=" ">
<polygon fill="#e0e0e0" stroke="#999999" points="322.09,-19 170.09,-19 170.09,0 322.09,0 322.09,-19"/>
<text text-anchor="middle" x="246.09" y="-7" font-family="Malgun Gothic" font-size="10.00">Engine/DeveloperSettings.h</text>
</a>
</g>
</g>
<!-- Node4&#45;&gt;Node5 -->
<g id="edge6_Node000004_Node000005" class="edge">
<title>Node4&#45;&gt;Node5</title>
<g id="a_edge6_Node000004_Node000005"><a xlink:title=" ">
<path fill="none" stroke="#63b8ff" d="M256.95,-54.75C255.22,-47.72 252.75,-37.62 250.59,-28.84"/>
<polygon fill="#63b8ff" stroke="#63b8ff" points="253.98,-27.97 248.2,-19.09 247.18,-29.63 253.98,-27.97"/>
</a>
</g>
</g>
<!-- Node6 -->
<g id="Node000006" class="node">
<title>Node6</title>
<g id="a_Node000006"><a xlink:title=" ">
<polygon fill="#e0e0e0" stroke="#999999" points="544.09,-19 340.09,-19 340.09,0 544.09,0 544.09,-19"/>
<text text-anchor="middle" x="442.09" y="-7" font-family="Malgun Gothic" font-size="10.00">UCustomNetworkSettings.generated.h</text>
</a>
</g>
</g>
<!-- Node4&#45;&gt;Node6 -->
<g id="edge7_Node000004_Node000006" class="edge">
<title>Node4&#45;&gt;Node6</title>
<g id="a_edge7_Node000004_Node000006"><a xlink:title=" ">
<path fill="none" stroke="#63b8ff" d="M288.5,-54.98C319.49,-46.01 368.47,-31.82 402.76,-21.89"/>
<polygon fill="#63b8ff" stroke="#63b8ff" points="403.83,-25.23 412.46,-19.08 401.88,-18.5 403.83,-25.23"/>
</a>
</g>
</g>
<!-- Node9&#45;&gt;Node2 -->
<g id="edge11_Node000009_Node000002" class="edge">
<title>Node9&#45;&gt;Node2</title>
<g id="a_edge11_Node000009_Node000002"><a xlink:title=" ">
<path fill="none" stroke="#63b8ff" d="M74.22,-54.75C77.61,-47.57 82.51,-37.18 86.71,-28.27"/>
<polygon fill="#63b8ff" stroke="#63b8ff" points="89.94,-29.63 91.04,-19.09 83.61,-26.64 89.94,-29.63"/>
</a>
</g>
</g>
</g>
</svg>
