<?xml version="1.0" encoding="UTF-8" standalone="no"?>
<!DOCTYPE svg PUBLIC "-//W3C//DTD SVG 1.1//EN"
 "http://www.w3.org/Graphics/SVG/1.1/DTD/svg11.dtd">
<!-- Generated by graphviz version 2.43.0 (0)
 -->
<!-- Title: Source/YiSan/Network/Private/UHttpNetworkSystem.cpp Pages: 1 -->
<svg width="1224pt" height="258pt"
 viewBox="0.00 0.00 1224.00 258.00" xmlns="http://www.w3.org/2000/svg" xmlns:xlink="http://www.w3.org/1999/xlink">
<g id="graph0" class="graph" transform="scale(1 1) rotate(0) translate(4 254)">
<title>Source/YiSan/Network/Private/UHttpNetworkSystem.cpp</title>
<!-- Node1 -->
<g id="Node000001" class="node">
<title>Node1</title>
<g id="a_Node000001"><a xlink:title="UHttpNetworkSystem 구현에 대한 Doxygen 주석을 제공합니다.">
<polygon fill="#999999" stroke="#666666" points="921.5,-250 737.5,-250 737.5,-220 921.5,-220 921.5,-250"/>
<text text-anchor="start" x="745.5" y="-238" font-family="Malgun Gothic" font-size="10.00">Source/YiSan/Network</text>
<text text-anchor="middle" x="829.5" y="-227" font-family="Malgun Gothic" font-size="10.00">/Private/UHttpNetworkSystem.cpp</text>
</a>
</g>
</g>
<!-- Node2 -->
<g id="Node000002" class="node">
<title>Node2</title>
<g id="a_Node000002"><a xlink:href="UHttpNetworkSystem_8h.html" target="_top" xlink:title="UHttpNetworkSystem 선언에 대한 Doxygen 주석을 제공합니다.">
<polygon fill="white" stroke="#666666" points="415.5,-184 283.5,-184 283.5,-165 415.5,-165 415.5,-184"/>
<text text-anchor="middle" x="349.5" y="-172" font-family="Malgun Gothic" font-size="10.00">UHttpNetworkSystem.h</text>
</a>
</g>
</g>
<!-- Node1&#45;&gt;Node2 -->
<g id="edge1_Node000001_Node000002" class="edge">
<title>Node1&#45;&gt;Node2</title>
<g id="a_edge1_Node000001_Node000002"><a xlink:title=" ">
<path fill="none" stroke="#63b8ff" d="M737.24,-222.76C646.69,-211.72 510.24,-195.09 425.68,-184.78"/>
<polygon fill="#63b8ff" stroke="#63b8ff" points="425.98,-181.3 415.63,-183.56 425.13,-188.24 425.98,-181.3"/>
</a>
</g>
</g>
<!-- Node10 -->
<g id="Node000010" class="node">
<title>Node10</title>
<g id="a_Node000010"><a xlink:href="ENetworkLogType_8h.html" target="_top" xlink:title="ENetworkLogType 열거형에 대한 Doxygen 주석을 제공합니다.">
<polygon fill="white" stroke="#666666" points="113,-129 0,-129 0,-110 113,-110 113,-129"/>
<text text-anchor="middle" x="56.5" y="-117" font-family="Malgun Gothic" font-size="10.00">ENetworkLogType.h</text>
</a>
</g>
</g>
<!-- Node1&#45;&gt;Node10 -->
<g id="edge18_Node000001_Node000010" class="edge">
<title>Node1&#45;&gt;Node10</title>
<g id="a_edge18_Node000001_Node000010"><a xlink:title=" ">
<path fill="none" stroke="#63b8ff" d="M737.42,-231.15C626.7,-226.48 435.63,-214.43 274.5,-184 207.8,-171.4 132.2,-147.02 89.85,-132.41"/>
<polygon fill="#63b8ff" stroke="#63b8ff" points="90.92,-129.08 80.32,-129.1 88.62,-135.69 90.92,-129.08"/>
</a>
</g>
</g>
<!-- Node14 -->
<g id="Node000014" class="node">
<title>Node14</title>
<g id="a_Node000014"><a xlink:href="NetworkLog_8h.html" target="_top" xlink:title="NetworkLog 선언에 대한 Doxygen 주석을 제공합니다.">
<polygon fill="white" stroke="#666666" points="836.5,-74 752.5,-74 752.5,-55 836.5,-55 836.5,-74"/>
<text text-anchor="middle" x="794.5" y="-62" font-family="Malgun Gothic" font-size="10.00">NetworkLog.h</text>
</a>
</g>
</g>
<!-- Node1&#45;&gt;Node14 -->
<g id="edge16_Node000001_Node000014" class="edge">
<title>Node1&#45;&gt;Node14</title>
<g id="a_edge16_Node000001_Node000014"><a xlink:title=" ">
<path fill="none" stroke="#63b8ff" d="M824.3,-219.72C820.84,-209.81 816.42,-196.23 813.5,-184 805.18,-149.17 799.47,-107.69 796.61,-84.19"/>
<polygon fill="#63b8ff" stroke="#63b8ff" points="800.08,-83.74 795.44,-74.21 793.13,-84.55 800.08,-83.74"/>
</a>
</g>
</g>
<!-- Node15 -->
<g id="Node000015" class="node">
<title>Node15</title>
<g id="a_Node000015"><a xlink:title=" ">
<polygon fill="#e0e0e0" stroke="#999999" points="906,-184 823,-184 823,-165 906,-165 906,-184"/>
<text text-anchor="middle" x="864.5" y="-172" font-family="Malgun Gothic" font-size="10.00">HttpModule.h</text>
</a>
</g>
</g>
<!-- Node1&#45;&gt;Node15 -->
<g id="edge19_Node000001_Node000015" class="edge">
<title>Node1&#45;&gt;Node15</title>
<g id="a_edge19_Node000001_Node000015"><a xlink:title=" ">
<path fill="none" stroke="#63b8ff" d="M837.97,-219.84C842.79,-211.78 848.87,-201.62 854,-193.06"/>
<polygon fill="#63b8ff" stroke="#63b8ff" points="857.12,-194.64 859.26,-184.27 851.12,-191.05 857.12,-194.64"/>
</a>
</g>
</g>
<!-- Node16 -->
<g id="Node000016" class="node">
<title>Node16</title>
<g id="a_Node000016"><a xlink:title=" ">
<polygon fill="#e0e0e0" stroke="#999999" points="1049,-184 924,-184 924,-165 1049,-165 1049,-184"/>
<text text-anchor="middle" x="986.5" y="-172" font-family="Malgun Gothic" font-size="10.00">JsonObjectConverter.h</text>
</a>
</g>
</g>
<!-- Node1&#45;&gt;Node16 -->
<g id="edge20_Node000001_Node000016" class="edge">
<title>Node1&#45;&gt;Node16</title>
<g id="a_edge20_Node000001_Node000016"><a xlink:title=" ">
<path fill="none" stroke="#63b8ff" d="M867.11,-219.99C893.53,-210.14 928.54,-197.1 953.81,-187.68"/>
<polygon fill="#63b8ff" stroke="#63b8ff" points="955.17,-190.91 963.31,-184.14 952.72,-184.35 955.17,-190.91"/>
</a>
</g>
</g>
<!-- Node17 -->
<g id="Node000017" class="node">
<title>Node17</title>
<g id="a_Node000017"><a xlink:title=" ">
<polygon fill="#e0e0e0" stroke="#999999" points="1216,-184 1067,-184 1067,-165 1216,-165 1216,-184"/>
<text text-anchor="middle" x="1141.5" y="-172" font-family="Malgun Gothic" font-size="10.00">Interfaces/IHttpResponse.h</text>
</a>
</g>
</g>
<!-- Node1&#45;&gt;Node17 -->
<g id="edge21_Node000001_Node000017" class="edge">
<title>Node1&#45;&gt;Node17</title>
<g id="a_edge21_Node000001_Node000017"><a xlink:title=" ">
<path fill="none" stroke="#63b8ff" d="M904.23,-219.99C960.06,-209.52 1035.15,-195.44 1085.78,-185.95"/>
<polygon fill="#63b8ff" stroke="#63b8ff" points="1086.7,-189.34 1095.88,-184.05 1085.41,-182.46 1086.7,-189.34"/>
</a>
</g>
</g>
<!-- Node3 -->
<g id="Node000003" class="node">
<title>Node3</title>
<g id="a_Node000003"><a xlink:title=" ">
<polygon fill="#e0e0e0" stroke="#999999" points="604.5,-19 516.5,-19 516.5,0 604.5,0 604.5,-19"/>
<text text-anchor="middle" x="560.5" y="-7" font-family="Malgun Gothic" font-size="10.00">CoreMinimal.h</text>
</a>
</g>
</g>
<!-- Node2&#45;&gt;Node3 -->
<g id="edge2_Node000002_Node000003" class="edge">
<title>Node2&#45;&gt;Node3</title>
<g id="a_edge2_Node000002_Node000003"><a xlink:title=" ">
<path fill="none" stroke="#63b8ff" d="M283.26,-166.6C235.1,-160.05 175.78,-148.29 160.5,-129 155.26,-122.38 155.31,-116.66 160.5,-110 202.79,-55.77 407.05,-26.89 506.23,-15.86"/>
<polygon fill="#63b8ff" stroke="#63b8ff" points="506.79,-19.32 516.35,-14.75 506.03,-12.36 506.79,-19.32"/>
</a>
</g>
</g>
<!-- Node4 -->
<g id="Node000004" class="node">
<title>Node4</title>
<g id="a_Node000004"><a xlink:href="NetworkData_8h.html" target="_top" xlink:title="NetworkData 구조체 선언에 대한 Doxygen 주석을 제공합니다.">
<polygon fill="white" stroke="#666666" points="766.5,-129 676.5,-129 676.5,-110 766.5,-110 766.5,-129"/>
<text text-anchor="middle" x="721.5" y="-117" font-family="Malgun Gothic" font-size="10.00">NetworkData.h</text>
</a>
</g>
</g>
<!-- Node2&#45;&gt;Node4 -->
<g id="edge3_Node000002_Node000004" class="edge">
<title>Node2&#45;&gt;Node4</title>
<g id="a_edge3_Node000002_Node000004"><a xlink:title=" ">
<path fill="none" stroke="#63b8ff" d="M412.09,-164.97C476.06,-156.2 578.26,-142.01 666.5,-129 666.6,-128.99 666.7,-128.97 666.8,-128.96"/>
<polygon fill="#63b8ff" stroke="#63b8ff" points="667.11,-132.45 676.48,-127.51 666.08,-125.52 667.11,-132.45"/>
</a>
</g>
</g>
<!-- Node2&#45;&gt;Node10 -->
<g id="edge11_Node000002_Node000010" class="edge">
<title>Node2&#45;&gt;Node10</title>
<g id="a_edge11_Node000002_Node000010"><a xlink:title=" ">
<path fill="none" stroke="#63b8ff" d="M302.42,-164.98C251.1,-155.7 168.96,-140.84 113.9,-130.88"/>
<polygon fill="#63b8ff" stroke="#63b8ff" points="114.41,-127.42 103.94,-129.08 113.16,-134.31 114.41,-127.42"/>
</a>
</g>
</g>
<!-- Node11 -->
<g id="Node000011" class="node">
<title>Node11</title>
<g id="a_Node000011"><a xlink:href="Macro_8h.html" target="_top" xlink:title="Manager 모듈에서 공통으로 사용하는 매크로 정의에 대한 Doxygen 주석을 제공합니다.">
<polygon fill="white" stroke="#666666" points="225.5,-129 169.5,-129 169.5,-110 225.5,-110 225.5,-129"/>
<text text-anchor="middle" x="197.5" y="-117" font-family="Malgun Gothic" font-size="10.00">Macro.h</text>
</a>
</g>
</g>
<!-- Node2&#45;&gt;Node11 -->
<g id="edge13_Node000002_Node000011" class="edge">
<title>Node2&#45;&gt;Node11</title>
<g id="a_edge13_Node000002_Node000011"><a xlink:title=" ">
<path fill="none" stroke="#63b8ff" d="M325.08,-164.98C299.78,-156.16 260.05,-142.31 231.64,-132.41"/>
<polygon fill="#63b8ff" stroke="#63b8ff" points="232.71,-129.07 222.11,-129.08 230.4,-135.68 232.71,-129.07"/>
</a>
</g>
</g>
<!-- Node12 -->
<g id="Node000012" class="node">
<title>Node12</title>
<g id="a_Node000012"><a xlink:title=" ">
<polygon fill="#e0e0e0" stroke="#999999" points="455.5,-129 243.5,-129 243.5,-110 455.5,-110 455.5,-129"/>
<text text-anchor="middle" x="349.5" y="-117" font-family="Malgun Gothic" font-size="10.00">Subsystems/GameInstanceSubsystem.h</text>
</a>
</g>
</g>
<!-- Node2&#45;&gt;Node12 -->
<g id="edge14_Node000002_Node000012" class="edge">
<title>Node2&#45;&gt;Node12</title>
<g id="a_edge14_Node000002_Node000012"><a xlink:title=" ">
<path fill="none" stroke="#63b8ff" d="M349.5,-164.75C349.5,-157.8 349.5,-147.85 349.5,-139.13"/>
<polygon fill="#63b8ff" stroke="#63b8ff" points="353,-139.09 349.5,-129.09 346,-139.09 353,-139.09"/>
</a>
</g>
</g>
<!-- Node13 -->
<g id="Node000013" class="node">
<title>Node13</title>
<g id="a_Node000013"><a xlink:title=" ">
<polygon fill="#e0e0e0" stroke="#999999" points="658,-129 473,-129 473,-110 658,-110 658,-129"/>
<text text-anchor="middle" x="565.5" y="-117" font-family="Malgun Gothic" font-size="10.00">UHttpNetworkSystem.generated.h</text>
</a>
</g>
</g>
<!-- Node2&#45;&gt;Node13 -->
<g id="edge15_Node000002_Node000013" class="edge">
<title>Node2&#45;&gt;Node13</title>
<g id="a_edge15_Node000002_Node000013"><a xlink:title=" ">
<path fill="none" stroke="#63b8ff" d="M384.2,-164.98C421.25,-155.89 480.09,-141.46 520.63,-131.51"/>
<polygon fill="#63b8ff" stroke="#63b8ff" points="521.65,-134.86 530.52,-129.08 519.98,-128.07 521.65,-134.86"/>
</a>
</g>
</g>
<!-- Node4&#45;&gt;Node3 -->
<g id="edge4_Node000004_Node000003" class="edge">
<title>Node4&#45;&gt;Node3</title>
<g id="a_edge4_Node000004_Node000003"><a xlink:title=" ">
<path fill="none" stroke="#63b8ff" d="M679.91,-110C643.29,-101.73 593.66,-88.34 579.5,-74 567.76,-62.11 563.23,-43.28 561.5,-29.21"/>
<polygon fill="#63b8ff" stroke="#63b8ff" points="564.98,-28.83 560.63,-19.17 558.01,-29.43 564.98,-28.83"/>
</a>
</g>
</g>
<!-- Node5 -->
<g id="Node000005" class="node">
<title>Node5</title>
<g id="a_Node000005"><a xlink:href="UCustomNetworkSettings_8h.html" target="_top" xlink:title="UCustomNetworkSettings 선언에 대한 Doxygen 주석을 제공합니다.">
<polygon fill="white" stroke="#666666" points="1006.5,-74 854.5,-74 854.5,-55 1006.5,-55 1006.5,-74"/>
<text text-anchor="middle" x="930.5" y="-62" font-family="Malgun Gothic" font-size="10.00">UCustomNetworkSettings.h</text>
</a>
</g>
</g>
<!-- Node4&#45;&gt;Node5 -->
<g id="edge5_Node000004_Node000005" class="edge">
<title>Node4&#45;&gt;Node5</title>
<g id="a_edge5_Node000004_Node000005"><a xlink:title=" ">
<path fill="none" stroke="#63b8ff" d="M755.08,-109.98C790.85,-100.91 847.62,-86.52 886.84,-76.57"/>
<polygon fill="#63b8ff" stroke="#63b8ff" points="887.82,-79.93 896.66,-74.08 886.1,-73.15 887.82,-79.93"/>
</a>
</g>
</g>
<!-- Node8 -->
<g id="Node000008" class="node">
<title>Node8</title>
<g id="a_Node000008"><a xlink:title=" ">
<polygon fill="#e0e0e0" stroke="#999999" points="734.5,-74 588.5,-74 588.5,-55 734.5,-55 734.5,-74"/>
<text text-anchor="middle" x="661.5" y="-62" font-family="Malgun Gothic" font-size="10.00">Templates/SharedPointer.h</text>
</a>
</g>
</g>
<!-- Node4&#45;&gt;Node8 -->
<g id="edge9_Node000004_Node000008" class="edge">
<title>Node4&#45;&gt;Node8</title>
<g id="a_edge9_Node000004_Node000008"><a xlink:title=" ">
<path fill="none" stroke="#63b8ff" d="M711.86,-109.98C702.99,-102.15 689.63,-90.34 678.89,-80.86"/>
<polygon fill="#63b8ff" stroke="#63b8ff" points="681.13,-78.17 671.32,-74.17 676.49,-83.41 681.13,-78.17"/>
</a>
</g>
</g>
<!-- Node9 -->
<g id="Node000009" class="node">
<title>Node9</title>
<g id="a_Node000009"><a xlink:title=" ">
<polygon fill="#e0e0e0" stroke="#999999" points="532,-74 389,-74 389,-55 532,-55 532,-74"/>
<text text-anchor="middle" x="460.5" y="-62" font-family="Malgun Gothic" font-size="10.00">NetworkData.generated.h</text>
</a>
</g>
</g>
<!-- Node4&#45;&gt;Node9 -->
<g id="edge10_Node000004_Node000009" class="edge">
<title>Node4&#45;&gt;Node9</title>
<g id="a_edge10_Node000004_Node000009"><a xlink:title=" ">
<path fill="none" stroke="#63b8ff" d="M679.57,-109.98C634.23,-100.78 561.89,-86.09 512.85,-76.13"/>
<polygon fill="#63b8ff" stroke="#63b8ff" points="513.26,-72.64 502.76,-74.08 511.87,-79.5 513.26,-72.64"/>
</a>
</g>
</g>
<!-- Node5&#45;&gt;Node3 -->
<g id="edge6_Node000005_Node000003" class="edge">
<title>Node5&#45;&gt;Node3</title>
<g id="a_edge6_Node000005_Node000003"><a xlink:title=" ">
<path fill="none" stroke="#63b8ff" d="M871.05,-54.98C800.33,-44.85 683.24,-28.08 614.84,-18.28"/>
<polygon fill="#63b8ff" stroke="#63b8ff" points="615.1,-14.79 604.71,-16.83 614.11,-21.71 615.1,-14.79"/>
</a>
</g>
</g>
<!-- Node6 -->
<g id="Node000006" class="node">
<title>Node6</title>
<g id="a_Node000006"><a xlink:title=" ">
<polygon fill="#e0e0e0" stroke="#999999" points="1104.5,-19 952.5,-19 952.5,0 1104.5,0 1104.5,-19"/>
<text text-anchor="middle" x="1028.5" y="-7" font-family="Malgun Gothic" font-size="10.00">Engine/DeveloperSettings.h</text>
</a>
</g>
</g>
<!-- Node5&#45;&gt;Node6 -->
<g id="edge7_Node000005_Node000006" class="edge">
<title>Node5&#45;&gt;Node6</title>
<g id="a_edge7_Node000005_Node000006"><a xlink:title=" ">
<path fill="none" stroke="#63b8ff" d="M946.25,-54.98C961.73,-46.61 985.59,-33.7 1003.64,-23.95"/>
<polygon fill="#63b8ff" stroke="#63b8ff" points="1005.34,-27.01 1012.47,-19.17 1002.01,-20.85 1005.34,-27.01"/>
</a>
</g>
</g>
<!-- Node7 -->
<g id="Node000007" class="node">
<title>Node7</title>
<g id="a_Node000007"><a xlink:title=" ">
<polygon fill="#e0e0e0" stroke="#999999" points="934.5,-19 730.5,-19 730.5,0 934.5,0 934.5,-19"/>
<text text-anchor="middle" x="832.5" y="-7" font-family="Malgun Gothic" font-size="10.00">UCustomNetworkSettings.generated.h</text>
</a>
</g>
</g>
<!-- Node5&#45;&gt;Node7 -->
<g id="edge8_Node000005_Node000007" class="edge">
<title>Node5&#45;&gt;Node7</title>
<g id="a_edge8_Node000005_Node000007"><a xlink:title=" ">
<path fill="none" stroke="#63b8ff" d="M914.75,-54.98C899.27,-46.61 875.41,-33.7 857.36,-23.95"/>
<polygon fill="#63b8ff" stroke="#63b8ff" points="858.99,-20.85 848.53,-19.17 855.66,-27.01 858.99,-20.85"/>
</a>
</g>
</g>
<!-- Node10&#45;&gt;Node3 -->
<g id="edge12_Node000010_Node000003" class="edge">
<title>Node10&#45;&gt;Node3</title>
<g id="a_edge12_Node000010_Node000003"><a xlink:title=" ">
<path fill="none" stroke="#63b8ff" d="M63.21,-109.64C74.63,-95.32 99.37,-67.43 127.5,-55 194.01,-25.61 405.21,-15.26 505.98,-11.93"/>
<polygon fill="#63b8ff" stroke="#63b8ff" points="506.37,-15.42 516.25,-11.61 506.14,-8.43 506.37,-15.42"/>
</a>
</g>
</g>
<!-- Node14&#45;&gt;Node3 -->
<g id="edge17_Node000014_Node000003" class="edge">
<title>Node14&#45;&gt;Node3</title>
<g id="a_edge17_Node000014_Node000003"><a xlink:title=" ">
<path fill="none" stroke="#63b8ff" d="M756.9,-54.98C716.51,-45.84 652.22,-31.27 608.27,-21.32"/>
<polygon fill="#63b8ff" stroke="#63b8ff" points="608.92,-17.88 598.39,-19.08 607.37,-24.7 608.92,-17.88"/>
</a>
</g>
</g>
</g>
</svg>
