<?xml version="1.0" encoding="UTF-8" standalone="no"?>
<!DOCTYPE svg PUBLIC "-//W3C//DTD SVG 1.1//EN"
 "http://www.w3.org/Graphics/SVG/1.1/DTD/svg11.dtd">
<!-- Generated by graphviz version 2.43.0 (0)
 -->
<!-- Title: Source/LatteLibrary/Character/Private/UKnockbackSystem.cpp Pages: 1 -->
<svg width="2353pt" height="225pt"
 viewBox="0.00 0.00 2352.95 225.00" xmlns="http://www.w3.org/2000/svg" xmlns:xlink="http://www.w3.org/1999/xlink">
<g id="graph0" class="graph" transform="scale(1 1) rotate(0) translate(4 221)">
<title>Source/LatteLibrary/Character/Private/UKnockbackSystem.cpp</title>
<!-- Node1 -->
<g id="Node000001" class="node">
<title>Node1</title>
<g id="a_Node000001"><a xlink:title="UKnockbackSystem 구현에 대한 Doxygen 주석을 제공합니다.">
<polygon fill="#999999" stroke="#666666" points="1611,-217 1443,-217 1443,-176 1611,-176 1611,-217"/>
<text text-anchor="start" x="1451" y="-205" font-family="Malgun Gothic" font-size="10.00">Source/LatteLibrary</text>
<text text-anchor="start" x="1451" y="-194" font-family="Malgun Gothic" font-size="10.00">/Character/Private/UKnockback</text>
<text text-anchor="middle" x="1527" y="-183" font-family="Malgun Gothic" font-size="10.00">System.cpp</text>
</a>
</g>
</g>
<!-- Node2 -->
<g id="Node000002" class="node">
<title>Node2</title>
<g id="a_Node000002"><a xlink:href="UKnockbackSystem_8h.html" target="_top" xlink:title="UKnockbackSystem 선언에 대한 Doxygen 주석을 제공합니다.">
<polygon fill="white" stroke="#666666" points="411.5,-134.5 288.5,-134.5 288.5,-115.5 411.5,-115.5 411.5,-134.5"/>
<text text-anchor="middle" x="350" y="-122.5" font-family="Malgun Gothic" font-size="10.00">UKnockbackSystem.h</text>
</a>
</g>
</g>
<!-- Node1&#45;&gt;Node2 -->
<g id="edge1_Node000001_Node000002" class="edge">
<title>Node1&#45;&gt;Node2</title>
<g id="a_edge1_Node000001_Node000002"><a xlink:title=" ">
<path fill="none" stroke="#63b8ff" d="M1442.92,-191.11C1273.67,-182.2 879.75,-161.02 549,-140 506.98,-137.33 459.99,-134.04 422.23,-131.32"/>
<polygon fill="#63b8ff" stroke="#63b8ff" points="422.06,-127.8 411.84,-130.57 421.56,-134.78 422.06,-127.8"/>
</a>
</g>
</g>
<!-- Node5 -->
<g id="Node000005" class="node">
<title>Node5</title>
<g id="a_Node000005"><a xlink:href="FKnockbackData_8h.html" target="_top" xlink:title="FKnockbackData 구조체에 대한 Doxygen 주석을 제공합니다.">
<polygon fill="white" stroke="#666666" points="1581,-74 1473,-74 1473,-55 1581,-55 1581,-74"/>
<text text-anchor="middle" x="1527" y="-62" font-family="Malgun Gothic" font-size="10.00">FKnockbackData.h</text>
</a>
</g>
</g>
<!-- Node1&#45;&gt;Node5 -->
<g id="edge42_Node000001_Node000005" class="edge">
<title>Node1&#45;&gt;Node5</title>
<g id="a_edge42_Node000001_Node000005"><a xlink:title=" ">
<path fill="none" stroke="#63b8ff" d="M1527,-175.76C1527,-150.86 1527,-108.38 1527,-84.06"/>
<polygon fill="#63b8ff" stroke="#63b8ff" points="1530.5,-84.01 1527,-74.01 1523.5,-84.01 1530.5,-84.01"/>
</a>
</g>
</g>
<!-- Node10 -->
<g id="Node000010" class="node">
<title>Node10</title>
<g id="a_Node000010"><a xlink:href="ALatteGameCharacter_8h.html" target="_top" xlink:title=" ">
<polygon fill="white" stroke="#666666" points="691.5,-134.5 558.5,-134.5 558.5,-115.5 691.5,-115.5 691.5,-134.5"/>
<text text-anchor="middle" x="625" y="-122.5" font-family="Malgun Gothic" font-size="10.00">ALatteGameCharacter.h</text>
</a>
</g>
</g>
<!-- Node1&#45;&gt;Node10 -->
<g id="edge10_Node000001_Node000010" class="edge">
<title>Node1&#45;&gt;Node10</title>
<g id="a_edge10_Node000001_Node000010"><a xlink:title=" ">
<path fill="none" stroke="#63b8ff" d="M1442.95,-189.02C1268.52,-175.58 869.48,-144.84 701.63,-131.9"/>
<polygon fill="#63b8ff" stroke="#63b8ff" points="701.87,-128.41 691.63,-131.13 701.34,-135.39 701.87,-128.41"/>
</a>
</g>
</g>
<!-- Node17 -->
<g id="Node000017" class="node">
<title>Node17</title>
<g id="a_Node000017"><a xlink:href="UGameDataManager_8h.html" target="_top" xlink:title="UGameDataManager 선언에 대한 Doxygen 주석을 제공합니다.">
<polygon fill="white" stroke="#666666" points="1499,-134.5 1371,-134.5 1371,-115.5 1499,-115.5 1499,-134.5"/>
<text text-anchor="middle" x="1435" y="-122.5" font-family="Malgun Gothic" font-size="10.00">UGameDataManager.h</text>
</a>
</g>
</g>
<!-- Node1&#45;&gt;Node17 -->
<g id="edge21_Node000001_Node000017" class="edge">
<title>Node1&#45;&gt;Node17</title>
<g id="a_edge21_Node000001_Node000017"><a xlink:title=" ">
<path fill="none" stroke="#63b8ff" d="M1500.88,-175.77C1486.24,-164.71 1468.27,-151.13 1454.8,-140.96"/>
<polygon fill="#63b8ff" stroke="#63b8ff" points="1456.76,-138.05 1446.68,-134.82 1452.54,-143.64 1456.76,-138.05"/>
</a>
</g>
</g>
<!-- Node27 -->
<g id="Node000027" class="node">
<title>Node27</title>
<g id="a_Node000027"><a xlink:title=" ">
<polygon fill="#e0e0e0" stroke="#999999" points="1651,-134.5 1555,-134.5 1555,-115.5 1651,-115.5 1651,-134.5"/>
<text text-anchor="middle" x="1603" y="-122.5" font-family="Malgun Gothic" font-size="10.00">TimerManager.h</text>
</a>
</g>
</g>
<!-- Node1&#45;&gt;Node27 -->
<g id="edge43_Node000001_Node000027" class="edge">
<title>Node1&#45;&gt;Node27</title>
<g id="a_edge43_Node000001_Node000027"><a xlink:title=" ">
<path fill="none" stroke="#63b8ff" d="M1548.58,-175.77C1560.33,-165.02 1574.67,-151.91 1585.68,-141.84"/>
<polygon fill="#63b8ff" stroke="#63b8ff" points="1588.34,-144.15 1593.36,-134.82 1583.61,-138.99 1588.34,-144.15"/>
</a>
</g>
</g>
<!-- Node28 -->
<g id="Node000028" class="node">
<title>Node28</title>
<g id="a_Node000028"><a xlink:href="UBroadcastManger_8h.html" target="_top" xlink:title="UBroadcastManger 선언에 대한 Doxygen 주석을 제공합니다.">
<polygon fill="white" stroke="#666666" points="1838,-134.5 1720,-134.5 1720,-115.5 1838,-115.5 1838,-134.5"/>
<text text-anchor="middle" x="1779" y="-122.5" font-family="Malgun Gothic" font-size="10.00">UBroadcastManger.h</text>
</a>
</g>
</g>
<!-- Node1&#45;&gt;Node28 -->
<g id="edge44_Node000001_Node000028" class="edge">
<title>Node1&#45;&gt;Node28</title>
<g id="a_edge44_Node000001_Node000028"><a xlink:title=" ">
<path fill="none" stroke="#63b8ff" d="M1597.87,-175.96C1643.3,-163.42 1700.65,-147.61 1738.51,-137.17"/>
<polygon fill="#63b8ff" stroke="#63b8ff" points="1739.46,-140.54 1748.17,-134.5 1737.6,-133.79 1739.46,-140.54"/>
</a>
</g>
</g>
<!-- Node30 -->
<g id="Node000030" class="node">
<title>Node30</title>
<g id="a_Node000030"><a xlink:title=" ">
<polygon fill="#e0e0e0" stroke="#999999" points="2059.5,-140 1856.5,-140 1856.5,-110 2059.5,-110 2059.5,-140"/>
<text text-anchor="start" x="1864.5" y="-128" font-family="Malgun Gothic" font-size="10.00">GameFramework/CharacterMovement</text>
<text text-anchor="middle" x="1958" y="-117" font-family="Malgun Gothic" font-size="10.00">Component.h</text>
</a>
</g>
</g>
<!-- Node1&#45;&gt;Node30 -->
<g id="edge50_Node000001_Node000030" class="edge">
<title>Node1&#45;&gt;Node30</title>
<g id="a_edge50_Node000001_Node000030"><a xlink:title=" ">
<path fill="none" stroke="#63b8ff" d="M1611.12,-181.93C1682.87,-170.37 1786.02,-153.73 1861.18,-141.61"/>
<polygon fill="#63b8ff" stroke="#63b8ff" points="1861.82,-145.05 1871.13,-140.01 1860.7,-138.14 1861.82,-145.05"/>
</a>
</g>
</g>
<!-- Node3 -->
<g id="Node000003" class="node">
<title>Node3</title>
<g id="a_Node000003"><a xlink:title=" ">
<polygon fill="#e0e0e0" stroke="#999999" points="1273,-19 1185,-19 1185,0 1273,0 1273,-19"/>
<text text-anchor="middle" x="1229" y="-7" font-family="Malgun Gothic" font-size="10.00">CoreMinimal.h</text>
</a>
</g>
</g>
<!-- Node2&#45;&gt;Node3 -->
<g id="edge2_Node000002_Node000003" class="edge">
<title>Node2&#45;&gt;Node3</title>
<g id="a_edge2_Node000002_Node000003"><a xlink:title=" ">
<path fill="none" stroke="#63b8ff" d="M354.15,-115.24C361.99,-99.81 380.59,-68.2 407,-55 481.12,-17.95 1053.47,-27.14 1174.53,-18.83"/>
<polygon fill="#63b8ff" stroke="#63b8ff" points="1175.13,-22.29 1184.8,-17.97 1174.55,-15.32 1175.13,-22.29"/>
</a>
</g>
</g>
<!-- Node4 -->
<g id="Node000004" class="node">
<title>Node4</title>
<g id="a_Node000004"><a xlink:title=" ">
<polygon fill="#e0e0e0" stroke="#999999" points="290,-19 118,-19 118,0 290,0 290,-19"/>
<text text-anchor="middle" x="204" y="-7" font-family="Malgun Gothic" font-size="10.00">Components/ActorComponent.h</text>
</a>
</g>
</g>
<!-- Node2&#45;&gt;Node4 -->
<g id="edge3_Node000002_Node000004" class="edge">
<title>Node2&#45;&gt;Node4</title>
<g id="a_edge3_Node000002_Node000004"><a xlink:title=" ">
<path fill="none" stroke="#63b8ff" d="M300.64,-115.42C274.28,-108.44 243.2,-95.98 223,-74 211.81,-61.82 207.19,-43.3 205.3,-29.39"/>
<polygon fill="#63b8ff" stroke="#63b8ff" points="208.74,-28.65 204.26,-19.04 201.78,-29.34 208.74,-28.65"/>
</a>
</g>
</g>
<!-- Node2&#45;&gt;Node5 -->
<g id="edge4_Node000002_Node000005" class="edge">
<title>Node2&#45;&gt;Node5</title>
<g id="a_edge4_Node000002_Node000005"><a xlink:title=" ">
<path fill="none" stroke="#63b8ff" d="M411.82,-119.16C451.09,-116.2 503.01,-112.52 549,-110 951.66,-87.91 1056.28,-108.46 1462.95,-73.89"/>
<polygon fill="#63b8ff" stroke="#63b8ff" points="1463.25,-77.38 1472.92,-73.04 1462.65,-70.41 1463.25,-77.38"/>
</a>
</g>
</g>
<!-- Node9 -->
<g id="Node000009" class="node">
<title>Node9</title>
<g id="a_Node000009"><a xlink:title=" ">
<polygon fill="#e0e0e0" stroke="#999999" points="176,-74 0,-74 0,-55 176,-55 176,-74"/>
<text text-anchor="middle" x="88" y="-62" font-family="Malgun Gothic" font-size="10.00">UKnockbackSystem.generated.h</text>
</a>
</g>
</g>
<!-- Node2&#45;&gt;Node9 -->
<g id="edge9_Node000002_Node000009" class="edge">
<title>Node2&#45;&gt;Node9</title>
<g id="a_edge9_Node000002_Node000009"><a xlink:title=" ">
<path fill="none" stroke="#63b8ff" d="M311.9,-115.49C265.43,-105.12 186.82,-87.57 136.19,-76.26"/>
<polygon fill="#63b8ff" stroke="#63b8ff" points="136.67,-72.78 126.14,-74.02 135.14,-79.61 136.67,-72.78"/>
</a>
</g>
</g>
<!-- Node5&#45;&gt;Node3 -->
<g id="edge5_Node000005_Node000003" class="edge">
<title>Node5&#45;&gt;Node3</title>
<g id="a_edge5_Node000005_Node000003"><a xlink:title=" ">
<path fill="none" stroke="#63b8ff" d="M1479.12,-54.98C1425.69,-45.48 1339.4,-30.13 1283.44,-20.18"/>
<polygon fill="#63b8ff" stroke="#63b8ff" points="1283.81,-16.69 1273.35,-18.39 1282.59,-23.59 1283.81,-16.69"/>
</a>
</g>
</g>
<!-- Node6 -->
<g id="Node000006" class="node">
<title>Node6</title>
<g id="a_Node000006"><a xlink:href="EDamageType_8h.html" target="_top" xlink:title="EDamageType 열거형에 대한 Doxygen 주석을 제공합니다.">
<polygon fill="white" stroke="#666666" points="1965.5,-19 1870.5,-19 1870.5,0 1965.5,0 1965.5,-19"/>
<text text-anchor="middle" x="1918" y="-7" font-family="Malgun Gothic" font-size="10.00">EDamageType.h</text>
</a>
</g>
</g>
<!-- Node5&#45;&gt;Node6 -->
<g id="edge6_Node000005_Node000006" class="edge">
<title>Node5&#45;&gt;Node6</title>
<g id="a_edge6_Node000005_Node000006"><a xlink:title=" ">
<path fill="none" stroke="#63b8ff" d="M1581.37,-56.13C1654.72,-46.19 1784.82,-28.55 1860,-18.36"/>
<polygon fill="#63b8ff" stroke="#63b8ff" points="1860.79,-21.79 1870.23,-16.98 1859.85,-14.85 1860.79,-21.79"/>
</a>
</g>
</g>
<!-- Node7 -->
<g id="Node000007" class="node">
<title>Node7</title>
<g id="a_Node000007"><a xlink:title=" ">
<polygon fill="#e0e0e0" stroke="#999999" points="1593,-19 1483,-19 1483,0 1593,0 1593,-19"/>
<text text-anchor="middle" x="1538" y="-7" font-family="Malgun Gothic" font-size="10.00">Engine/DataTable.h</text>
</a>
</g>
</g>
<!-- Node5&#45;&gt;Node7 -->
<g id="edge7_Node000005_Node000007" class="edge">
<title>Node5&#45;&gt;Node7</title>
<g id="a_edge7_Node000005_Node000007"><a xlink:title=" ">
<path fill="none" stroke="#63b8ff" d="M1528.82,-54.75C1530.26,-47.8 1532.32,-37.85 1534.13,-29.13"/>
<polygon fill="#63b8ff" stroke="#63b8ff" points="1537.61,-29.59 1536.22,-19.09 1530.76,-28.17 1537.61,-29.59"/>
</a>
</g>
</g>
<!-- Node8 -->
<g id="Node000008" class="node">
<title>Node8</title>
<g id="a_Node000008"><a xlink:title=" ">
<polygon fill="#e0e0e0" stroke="#999999" points="1772.5,-19 1611.5,-19 1611.5,0 1772.5,0 1772.5,-19"/>
<text text-anchor="middle" x="1692" y="-7" font-family="Malgun Gothic" font-size="10.00">FKnockbackData.generated.h</text>
</a>
</g>
</g>
<!-- Node5&#45;&gt;Node8 -->
<g id="edge8_Node000005_Node000008" class="edge">
<title>Node5&#45;&gt;Node8</title>
<g id="a_edge8_Node000005_Node000008"><a xlink:title=" ">
<path fill="none" stroke="#63b8ff" d="M1553.51,-54.98C1581.21,-46.09 1624.86,-32.07 1655.74,-22.15"/>
<polygon fill="#63b8ff" stroke="#63b8ff" points="1656.83,-25.47 1665.28,-19.08 1654.69,-18.81 1656.83,-25.47"/>
</a>
</g>
</g>
<!-- Node10&#45;&gt;Node3 -->
<g id="edge11_Node000010_Node000003" class="edge">
<title>Node10&#45;&gt;Node3</title>
<g id="a_edge11_Node000010_Node000003"><a xlink:title=" ">
<path fill="none" stroke="#63b8ff" d="M681.23,-115.49C737.61,-106.58 826.76,-91.47 903,-74 933.59,-66.99 940.39,-61.9 971,-55 990.52,-50.6 1105.26,-31.2 1174.98,-19.52"/>
<polygon fill="#63b8ff" stroke="#63b8ff" points="1175.64,-22.95 1184.93,-17.85 1174.49,-16.05 1175.64,-22.95"/>
</a>
</g>
</g>
<!-- Node11 -->
<g id="Node000011" class="node">
<title>Node11</title>
<g id="a_Node000011"><a xlink:title=" ">
<polygon fill="#e0e0e0" stroke="#999999" points="894.5,-74 735.5,-74 735.5,-55 894.5,-55 894.5,-74"/>
<text text-anchor="middle" x="815" y="-62" font-family="Malgun Gothic" font-size="10.00">GameFramework/Character.h</text>
</a>
</g>
</g>
<!-- Node10&#45;&gt;Node11 -->
<g id="edge12_Node000010_Node000011" class="edge">
<title>Node10&#45;&gt;Node11</title>
<g id="a_edge12_Node000010_Node000011"><a xlink:title=" ">
<path fill="none" stroke="#63b8ff" d="M652.63,-115.49C685.55,-105.36 740.73,-88.37 777.49,-77.05"/>
<polygon fill="#63b8ff" stroke="#63b8ff" points="778.81,-80.3 787.34,-74.02 776.75,-73.61 778.81,-80.3"/>
</a>
</g>
</g>
<!-- Node12 -->
<g id="Node000012" class="node">
<title>Node12</title>
<g id="a_Node000012"><a xlink:href="EBodyPartType_8h.html" target="_top" xlink:title="EBodyPartType 열거형에 대한 Doxygen 주석을 제공합니다.">
<polygon fill="white" stroke="#666666" points="514,-74 416,-74 416,-55 514,-55 514,-74"/>
<text text-anchor="middle" x="465" y="-62" font-family="Malgun Gothic" font-size="10.00">EBodyPartType.h</text>
</a>
</g>
</g>
<!-- Node10&#45;&gt;Node12 -->
<g id="edge13_Node000010_Node000012" class="edge">
<title>Node10&#45;&gt;Node12</title>
<g id="a_edge13_Node000010_Node000012"><a xlink:title=" ">
<path fill="none" stroke="#63b8ff" d="M601.73,-115.49C574.36,-105.49 528.73,-88.8 497.78,-77.49"/>
<polygon fill="#63b8ff" stroke="#63b8ff" points="498.89,-74.16 488.29,-74.02 496.48,-80.74 498.89,-74.16"/>
</a>
</g>
</g>
<!-- Node13 -->
<g id="Node000013" class="node">
<title>Node13</title>
<g id="a_Node000013"><a xlink:href="ECharacterType_8h.html" target="_top" xlink:title="ECharacterType 열거형에 대한 Doxygen 주석을 제공합니다.">
<polygon fill="white" stroke="#666666" points="773.5,-19 672.5,-19 672.5,0 773.5,0 773.5,-19"/>
<text text-anchor="middle" x="723" y="-7" font-family="Malgun Gothic" font-size="10.00">ECharacterType.h</text>
</a>
</g>
</g>
<!-- Node10&#45;&gt;Node13 -->
<g id="edge14_Node000010_Node000013" class="edge">
<title>Node10&#45;&gt;Node13</title>
<g id="a_edge14_Node000010_Node000013"><a xlink:title=" ">
<path fill="none" stroke="#63b8ff" d="M558.28,-123.34C478.68,-120.28 361.69,-107.14 407,-55 439.37,-17.75 579.69,-10.8 662.06,-10.01"/>
<polygon fill="#63b8ff" stroke="#63b8ff" points="662.32,-13.51 672.3,-9.94 662.27,-6.51 662.32,-13.51"/>
</a>
</g>
</g>
<!-- Node14 -->
<g id="Node000014" class="node">
<title>Node14</title>
<g id="a_Node000014"><a xlink:href="UStatSystem_8h.html" target="_top" xlink:title="UStatSystem 선언에 대한 Doxygen 주석을 제공합니다.">
<polygon fill="white" stroke="#666666" points="321.5,-74 232.5,-74 232.5,-55 321.5,-55 321.5,-74"/>
<text text-anchor="middle" x="277" y="-62" font-family="Malgun Gothic" font-size="10.00">UStatSystem.h</text>
</a>
</g>
</g>
<!-- Node10&#45;&gt;Node14 -->
<g id="edge15_Node000010_Node000014" class="edge">
<title>Node10&#45;&gt;Node14</title>
<g id="a_edge15_Node000010_Node000014"><a xlink:title=" ">
<path fill="none" stroke="#63b8ff" d="M574.4,-115.49C509.67,-104.61 398,-85.84 331.46,-74.66"/>
<polygon fill="#63b8ff" stroke="#63b8ff" points="332.03,-71.2 321.59,-73 330.87,-78.1 332.03,-71.2"/>
</a>
</g>
</g>
<!-- Node16 -->
<g id="Node000016" class="node">
<title>Node16</title>
<g id="a_Node000016"><a xlink:title=" ">
<polygon fill="#e0e0e0" stroke="#999999" points="717.5,-74 532.5,-74 532.5,-55 717.5,-55 717.5,-74"/>
<text text-anchor="middle" x="625" y="-62" font-family="Malgun Gothic" font-size="10.00">ALatteGameCharacter.generated.h</text>
</a>
</g>
</g>
<!-- Node10&#45;&gt;Node16 -->
<g id="edge20_Node000010_Node000016" class="edge">
<title>Node10&#45;&gt;Node16</title>
<g id="a_edge20_Node000010_Node000016"><a xlink:title=" ">
<path fill="none" stroke="#63b8ff" d="M625,-115.37C625,-107.25 625,-94.81 625,-84.39"/>
<polygon fill="#63b8ff" stroke="#63b8ff" points="628.5,-84.17 625,-74.17 621.5,-84.17 628.5,-84.17"/>
</a>
</g>
</g>
<!-- Node14&#45;&gt;Node3 -->
<g id="edge16_Node000014_Node000003" class="edge">
<title>Node14&#45;&gt;Node3</title>
<g id="a_edge16_Node000014_Node000003"><a xlink:title=" ">
<path fill="none" stroke="#63b8ff" d="M321.72,-56.58C326.53,-55.98 331.36,-55.43 336,-55 704.79,-20.62 802.51,-56.02 1174.83,-18.98"/>
<polygon fill="#63b8ff" stroke="#63b8ff" points="1175.2,-22.46 1184.8,-17.98 1174.5,-15.5 1175.2,-22.46"/>
</a>
</g>
</g>
<!-- Node14&#45;&gt;Node4 -->
<g id="edge18_Node000014_Node000004" class="edge">
<title>Node14&#45;&gt;Node4</title>
<g id="a_edge18_Node000014_Node000004"><a xlink:title=" ">
<path fill="none" stroke="#63b8ff" d="M265.27,-54.98C254.27,-47 237.58,-34.88 224.4,-25.31"/>
<polygon fill="#63b8ff" stroke="#63b8ff" points="226.09,-22.21 215.94,-19.17 221.98,-27.88 226.09,-22.21"/>
</a>
</g>
</g>
<!-- Node14&#45;&gt;Node13 -->
<g id="edge17_Node000014_Node000013" class="edge">
<title>Node14&#45;&gt;Node13</title>
<g id="a_edge17_Node000014_Node000013"><a xlink:title=" ">
<path fill="none" stroke="#63b8ff" d="M321.76,-56.91C326.56,-56.25 331.38,-55.6 336,-55 450.98,-40.11 585.52,-25.21 661.85,-16.98"/>
<polygon fill="#63b8ff" stroke="#63b8ff" points="662.66,-20.42 672.23,-15.87 661.91,-13.46 662.66,-20.42"/>
</a>
</g>
</g>
<!-- Node15 -->
<g id="Node000015" class="node">
<title>Node15</title>
<g id="a_Node000015"><a xlink:title=" ">
<polygon fill="#e0e0e0" stroke="#999999" points="450,-19 308,-19 308,0 450,0 450,-19"/>
<text text-anchor="middle" x="379" y="-7" font-family="Malgun Gothic" font-size="10.00">UStatSystem.generated.h</text>
</a>
</g>
</g>
<!-- Node14&#45;&gt;Node15 -->
<g id="edge19_Node000014_Node000015" class="edge">
<title>Node14&#45;&gt;Node15</title>
<g id="a_edge19_Node000014_Node000015"><a xlink:title=" ">
<path fill="none" stroke="#63b8ff" d="M293.39,-54.98C309.57,-46.57 334.57,-33.59 353.38,-23.81"/>
<polygon fill="#63b8ff" stroke="#63b8ff" points="355.05,-26.89 362.31,-19.17 351.83,-20.68 355.05,-26.89"/>
</a>
</g>
</g>
<!-- Node17&#45;&gt;Node3 -->
<g id="edge22_Node000017_Node000003" class="edge">
<title>Node17&#45;&gt;Node3</title>
<g id="a_edge22_Node000017_Node000003"><a xlink:title=" ">
<path fill="none" stroke="#63b8ff" d="M1370.87,-121.62C1251.44,-116.54 1004.68,-102.65 979,-74 973.36,-67.71 973.58,-61.47 979,-55 982.16,-51.23 1102.27,-31.11 1174.84,-19.26"/>
<polygon fill="#63b8ff" stroke="#63b8ff" points="1175.44,-22.71 1184.74,-17.64 1174.31,-15.8 1175.44,-22.71"/>
</a>
</g>
</g>
<!-- Node17&#45;&gt;Node5 -->
<g id="edge29_Node000017_Node000005" class="edge">
<title>Node17&#45;&gt;Node5</title>
<g id="a_edge29_Node000017_Node000005"><a xlink:title=" ">
<path fill="none" stroke="#63b8ff" d="M1448.57,-115.37C1463.39,-105.95 1487.33,-90.73 1504.86,-79.58"/>
<polygon fill="#63b8ff" stroke="#63b8ff" points="1506.81,-82.49 1513.37,-74.17 1503.05,-76.58 1506.81,-82.49"/>
</a>
</g>
</g>
<!-- Node18 -->
<g id="Node000018" class="node">
<title>Node18</title>
<g id="a_Node000018"><a xlink:href="Macro_8h.html" target="_top" xlink:title="Manager 모듈에서 공통으로 사용하는 매크로 정의에 대한 Doxygen 주석을 제공합니다.">
<polygon fill="white" stroke="#666666" points="1655,-74 1599,-74 1599,-55 1655,-55 1655,-74"/>
<text text-anchor="middle" x="1627" y="-62" font-family="Malgun Gothic" font-size="10.00">Macro.h</text>
</a>
</g>
</g>
<!-- Node17&#45;&gt;Node18 -->
<g id="edge23_Node000017_Node000018" class="edge">
<title>Node17&#45;&gt;Node18</title>
<g id="a_edge23_Node000017_Node000018"><a xlink:title=" ">
<path fill="none" stroke="#63b8ff" d="M1462.92,-115.49C1496.19,-105.36 1551.95,-88.37 1589.1,-77.05"/>
<polygon fill="#63b8ff" stroke="#63b8ff" points="1590.5,-80.28 1599.05,-74.02 1588.46,-73.58 1590.5,-80.28"/>
</a>
</g>
</g>
<!-- Node19 -->
<g id="Node000019" class="node">
<title>Node19</title>
<g id="a_Node000019"><a xlink:href="FHitStopData_8h.html" target="_top" xlink:title="FHitStopData 구조체에 대한 Doxygen 주석을 제공합니다.">
<polygon fill="white" stroke="#666666" points="2032.5,-74 1941.5,-74 1941.5,-55 2032.5,-55 2032.5,-74"/>
<text text-anchor="middle" x="1987" y="-62" font-family="Malgun Gothic" font-size="10.00">FHitStopData.h</text>
</a>
</g>
</g>
<!-- Node17&#45;&gt;Node19 -->
<g id="edge24_Node000017_Node000019" class="edge">
<title>Node17&#45;&gt;Node19</title>
<g id="a_edge24_Node000017_Node000019"><a xlink:title=" ">
<path fill="none" stroke="#63b8ff" d="M1499.24,-115.62C1514.55,-113.7 1530.85,-111.72 1546,-110 1684.36,-94.3 1847.46,-78.56 1931.19,-70.68"/>
<polygon fill="#63b8ff" stroke="#63b8ff" points="1931.62,-74.16 1941.25,-69.74 1930.97,-67.19 1931.62,-74.16"/>
</a>
</g>
</g>
<!-- Node21 -->
<g id="Node000021" class="node">
<title>Node21</title>
<g id="a_Node000021"><a xlink:href="FCharacterInfoData_8h.html" target="_top" xlink:title="FCharacterInfoData 구조체에 대한 Doxygen 주석을 제공합니다.">
<polygon fill="white" stroke="#666666" points="1454.5,-74 1333.5,-74 1333.5,-55 1454.5,-55 1454.5,-74"/>
<text text-anchor="middle" x="1394" y="-62" font-family="Malgun Gothic" font-size="10.00">FCharacterInfoData.h</text>
</a>
</g>
</g>
<!-- Node17&#45;&gt;Node21 -->
<g id="edge30_Node000017_Node000021" class="edge">
<title>Node17&#45;&gt;Node21</title>
<g id="a_edge30_Node000017_Node000021"><a xlink:title=" ">
<path fill="none" stroke="#63b8ff" d="M1428.95,-115.37C1422.89,-106.73 1413.41,-93.2 1405.86,-82.42"/>
<polygon fill="#63b8ff" stroke="#63b8ff" points="1408.68,-80.35 1400.07,-74.17 1402.95,-84.37 1408.68,-80.35"/>
</a>
</g>
</g>
<!-- Node23 -->
<g id="Node000023" class="node">
<title>Node23</title>
<g id="a_Node000023"><a xlink:href="FCharacterAssetData_8h.html" target="_top" xlink:title="FCharacterAssetData 구조체에 대한 Doxygen 주석을 제공합니다.">
<polygon fill="white" stroke="#666666" points="1315.5,-74 1186.5,-74 1186.5,-55 1315.5,-55 1315.5,-74"/>
<text text-anchor="middle" x="1251" y="-62" font-family="Malgun Gothic" font-size="10.00">FCharacterAssetData.h</text>
</a>
</g>
</g>
<!-- Node17&#45;&gt;Node23 -->
<g id="edge35_Node000017_Node000023" class="edge">
<title>Node17&#45;&gt;Node23</title>
<g id="a_edge35_Node000017_Node000023"><a xlink:title=" ">
<path fill="none" stroke="#63b8ff" d="M1408.24,-115.49C1376.36,-105.36 1322.93,-88.37 1287.32,-77.05"/>
<polygon fill="#63b8ff" stroke="#63b8ff" points="1288.38,-73.71 1277.79,-74.02 1286.26,-80.38 1288.38,-73.71"/>
</a>
</g>
</g>
<!-- Node25 -->
<g id="Node000025" class="node">
<title>Node25</title>
<g id="a_Node000025"><a xlink:title=" ">
<polygon fill="#e0e0e0" stroke="#999999" points="1885,-74 1673,-74 1673,-55 1885,-55 1885,-74"/>
<text text-anchor="middle" x="1779" y="-62" font-family="Malgun Gothic" font-size="10.00">Subsystems/GameInstanceSubsystem.h</text>
</a>
</g>
</g>
<!-- Node17&#45;&gt;Node25 -->
<g id="edge40_Node000017_Node000025" class="edge">
<title>Node17&#45;&gt;Node25</title>
<g id="a_edge40_Node000017_Node000025"><a xlink:title=" ">
<path fill="none" stroke="#63b8ff" d="M1485.02,-115.49C1547.06,-104.94 1652.71,-86.98 1719.03,-75.7"/>
<polygon fill="#63b8ff" stroke="#63b8ff" points="1719.65,-79.14 1728.92,-74.02 1718.47,-72.24 1719.65,-79.14"/>
</a>
</g>
</g>
<!-- Node26 -->
<g id="Node000026" class="node">
<title>Node26</title>
<g id="a_Node000026"><a xlink:title=" ">
<polygon fill="#e0e0e0" stroke="#999999" points="1168,-74 988,-74 988,-55 1168,-55 1168,-74"/>
<text text-anchor="middle" x="1078" y="-62" font-family="Malgun Gothic" font-size="10.00">UGameDataManager.generated.h</text>
</a>
</g>
</g>
<!-- Node17&#45;&gt;Node26 -->
<g id="edge41_Node000017_Node000026" class="edge">
<title>Node17&#45;&gt;Node26</title>
<g id="a_edge41_Node000017_Node000026"><a xlink:title=" ">
<path fill="none" stroke="#63b8ff" d="M1383.09,-115.49C1318.71,-104.94 1209.07,-86.98 1140.24,-75.7"/>
<polygon fill="#63b8ff" stroke="#63b8ff" points="1140.41,-72.18 1129.97,-74.02 1139.28,-79.09 1140.41,-72.18"/>
</a>
</g>
</g>
<!-- Node19&#45;&gt;Node3 -->
<g id="edge25_Node000019_Node000003" class="edge">
<title>Node19&#45;&gt;Node3</title>
<g id="a_edge25_Node000019_Node000003"><a xlink:title=" ">
<path fill="none" stroke="#63b8ff" d="M1941.19,-56.6C1936.4,-56 1931.61,-55.45 1927,-55 1644.62,-27.17 1569.22,-49.24 1283.46,-19.04"/>
<polygon fill="#63b8ff" stroke="#63b8ff" points="1283.52,-15.52 1273.2,-17.94 1282.77,-22.48 1283.52,-15.52"/>
</a>
</g>
</g>
<!-- Node19&#45;&gt;Node6 -->
<g id="edge26_Node000019_Node000006" class="edge">
<title>Node19&#45;&gt;Node6</title>
<g id="a_edge26_Node000019_Node000006"><a xlink:title=" ">
<path fill="none" stroke="#63b8ff" d="M1975.91,-54.98C1965.51,-47 1949.74,-34.88 1937.28,-25.31"/>
<polygon fill="#63b8ff" stroke="#63b8ff" points="1939.35,-22.49 1929.29,-19.17 1935.09,-28.04 1939.35,-22.49"/>
</a>
</g>
</g>
<!-- Node19&#45;&gt;Node7 -->
<g id="edge27_Node000019_Node000007" class="edge">
<title>Node19&#45;&gt;Node7</title>
<g id="a_edge27_Node000019_Node000007"><a xlink:title=" ">
<path fill="none" stroke="#63b8ff" d="M1941.48,-56.9C1936.6,-56.24 1931.7,-55.59 1927,-55 1786.05,-37.21 1747.96,-36.59 1603.29,-19.13"/>
<polygon fill="#63b8ff" stroke="#63b8ff" points="1603.5,-15.63 1593.15,-17.9 1602.65,-22.58 1603.5,-15.63"/>
</a>
</g>
</g>
<!-- Node20 -->
<g id="Node000020" class="node">
<title>Node20</title>
<g id="a_Node000020"><a xlink:title=" ">
<polygon fill="#e0e0e0" stroke="#999999" points="2126.5,-19 1983.5,-19 1983.5,0 2126.5,0 2126.5,-19"/>
<text text-anchor="middle" x="2055" y="-7" font-family="Malgun Gothic" font-size="10.00">FHitStopData.generated.h</text>
</a>
</g>
</g>
<!-- Node19&#45;&gt;Node20 -->
<g id="edge28_Node000019_Node000020" class="edge">
<title>Node19&#45;&gt;Node20</title>
<g id="a_edge28_Node000019_Node000020"><a xlink:title=" ">
<path fill="none" stroke="#63b8ff" d="M1997.93,-54.98C2008.08,-47.07 2023.42,-35.11 2035.65,-25.58"/>
<polygon fill="#63b8ff" stroke="#63b8ff" points="2038.14,-28.08 2043.88,-19.17 2033.84,-22.56 2038.14,-28.08"/>
</a>
</g>
</g>
<!-- Node21&#45;&gt;Node3 -->
<g id="edge31_Node000021_Node000003" class="edge">
<title>Node21&#45;&gt;Node3</title>
<g id="a_edge31_Node000021_Node000003"><a xlink:title=" ">
<path fill="none" stroke="#63b8ff" d="M1367.49,-54.98C1339.79,-46.09 1296.14,-32.07 1265.26,-22.15"/>
<polygon fill="#63b8ff" stroke="#63b8ff" points="1266.31,-18.81 1255.72,-19.08 1264.17,-25.47 1266.31,-18.81"/>
</a>
</g>
</g>
<!-- Node21&#45;&gt;Node7 -->
<g id="edge33_Node000021_Node000007" class="edge">
<title>Node21&#45;&gt;Node7</title>
<g id="a_edge33_Node000021_Node000007"><a xlink:title=" ">
<path fill="none" stroke="#63b8ff" d="M1417.14,-54.98C1440.82,-46.27 1477.87,-32.63 1504.71,-22.75"/>
<polygon fill="#63b8ff" stroke="#63b8ff" points="1506.27,-25.91 1514.44,-19.17 1503.85,-19.34 1506.27,-25.91"/>
</a>
</g>
</g>
<!-- Node21&#45;&gt;Node13 -->
<g id="edge32_Node000021_Node000013" class="edge">
<title>Node21&#45;&gt;Node13</title>
<g id="a_edge32_Node000021_Node000013"><a xlink:title=" ">
<path fill="none" stroke="#63b8ff" d="M1333.31,-55.95C1330.16,-55.62 1327.05,-55.3 1324,-55 1126.79,-35.74 892.44,-20.62 783.84,-14.06"/>
<polygon fill="#63b8ff" stroke="#63b8ff" points="783.92,-10.56 773.72,-13.45 783.5,-17.54 783.92,-10.56"/>
</a>
</g>
</g>
<!-- Node22 -->
<g id="Node000022" class="node">
<title>Node22</title>
<g id="a_Node000022"><a xlink:title=" ">
<polygon fill="#e0e0e0" stroke="#999999" points="1464.5,-19 1291.5,-19 1291.5,0 1464.5,0 1464.5,-19"/>
<text text-anchor="middle" x="1378" y="-7" font-family="Malgun Gothic" font-size="10.00">FCharacterInfoData.generated.h</text>
</a>
</g>
</g>
<!-- Node21&#45;&gt;Node22 -->
<g id="edge34_Node000021_Node000022" class="edge">
<title>Node21&#45;&gt;Node22</title>
<g id="a_edge34_Node000021_Node000022"><a xlink:title=" ">
<path fill="none" stroke="#63b8ff" d="M1391.36,-54.75C1389.24,-47.72 1386.19,-37.62 1383.54,-28.84"/>
<polygon fill="#63b8ff" stroke="#63b8ff" points="1386.83,-27.65 1380.59,-19.09 1380.13,-29.67 1386.83,-27.65"/>
</a>
</g>
</g>
<!-- Node23&#45;&gt;Node3 -->
<g id="edge36_Node000023_Node000003" class="edge">
<title>Node23&#45;&gt;Node3</title>
<g id="a_edge36_Node000023_Node000003"><a xlink:title=" ">
<path fill="none" stroke="#63b8ff" d="M1247.37,-54.75C1244.42,-47.65 1240.17,-37.4 1236.49,-28.56"/>
<polygon fill="#63b8ff" stroke="#63b8ff" points="1239.63,-26.98 1232.57,-19.09 1233.17,-29.67 1239.63,-26.98"/>
</a>
</g>
</g>
<!-- Node23&#45;&gt;Node7 -->
<g id="edge38_Node000023_Node000007" class="edge">
<title>Node23&#45;&gt;Node7</title>
<g id="a_edge38_Node000023_Node000007"><a xlink:title=" ">
<path fill="none" stroke="#63b8ff" d="M1297.11,-54.98C1347.28,-45.72 1427.51,-30.9 1481.44,-20.94"/>
<polygon fill="#63b8ff" stroke="#63b8ff" points="1482.33,-24.34 1491.53,-19.08 1481.06,-17.46 1482.33,-24.34"/>
</a>
</g>
</g>
<!-- Node23&#45;&gt;Node13 -->
<g id="edge37_Node000023_Node000013" class="edge">
<title>Node23&#45;&gt;Node13</title>
<g id="a_edge37_Node000023_Node000013"><a xlink:title=" ">
<path fill="none" stroke="#63b8ff" d="M1186.43,-56.02C1183.24,-55.67 1180.09,-55.33 1177,-55 1036.29,-40.02 870.84,-24.28 783.73,-16.13"/>
<polygon fill="#63b8ff" stroke="#63b8ff" points="784.04,-12.64 773.75,-15.2 783.38,-19.61 784.04,-12.64"/>
</a>
</g>
</g>
<!-- Node24 -->
<g id="Node000024" class="node">
<title>Node24</title>
<g id="a_Node000024"><a xlink:title=" ">
<polygon fill="#e0e0e0" stroke="#999999" points="1167,-19 985,-19 985,0 1167,0 1167,-19"/>
<text text-anchor="middle" x="1076" y="-7" font-family="Malgun Gothic" font-size="10.00">FCharacterAssetData.generated.h</text>
</a>
</g>
</g>
<!-- Node23&#45;&gt;Node24 -->
<g id="edge39_Node000023_Node000024" class="edge">
<title>Node23&#45;&gt;Node24</title>
<g id="a_edge39_Node000023_Node000024"><a xlink:title=" ">
<path fill="none" stroke="#63b8ff" d="M1222.88,-54.98C1193.38,-46.05 1146.81,-31.94 1114.03,-22.02"/>
<polygon fill="#63b8ff" stroke="#63b8ff" points="1114.92,-18.63 1104.34,-19.08 1112.89,-25.33 1114.92,-18.63"/>
</a>
</g>
</g>
<!-- Node28&#45;&gt;Node3 -->
<g id="edge45_Node000028_Node000003" class="edge">
<title>Node28&#45;&gt;Node3</title>
<g id="a_edge45_Node000028_Node000003"><a xlink:title=" ">
<path fill="none" stroke="#63b8ff" d="M1819.17,-115.43C1862.23,-104.53 1920.99,-83.63 1894,-55 1849,-7.28 1386.02,-24.94 1283.41,-18.76"/>
<polygon fill="#63b8ff" stroke="#63b8ff" points="1283.45,-15.25 1273.2,-17.93 1282.89,-22.22 1283.45,-15.25"/>
</a>
</g>
</g>
<!-- Node28&#45;&gt;Node6 -->
<g id="edge47_Node000028_Node000006" class="edge">
<title>Node28&#45;&gt;Node6</title>
<g id="a_edge47_Node000028_Node000006"><a xlink:title=" ">
<path fill="none" stroke="#63b8ff" d="M1816.64,-115.49C1826.48,-113.47 1837.11,-111.48 1847,-110 1889.27,-103.68 2201.22,-105.61 2230,-74 2286.08,-12.41 2563.31,-104.57 1975.69,-19.23"/>
<polygon fill="#63b8ff" stroke="#63b8ff" points="1976.05,-15.75 1965.65,-17.77 1975.04,-22.67 1976.05,-15.75"/>
</a>
</g>
</g>
<!-- Node28&#45;&gt;Node18 -->
<g id="edge46_Node000028_Node000018" class="edge">
<title>Node28&#45;&gt;Node18</title>
<g id="a_edge46_Node000028_Node000018"><a xlink:title=" ">
<path fill="none" stroke="#63b8ff" d="M1756.9,-115.49C1731.01,-105.53 1687.92,-88.95 1658.53,-77.63"/>
<polygon fill="#63b8ff" stroke="#63b8ff" points="1659.72,-74.34 1649.13,-74.02 1657.2,-80.88 1659.72,-74.34"/>
</a>
</g>
</g>
<!-- Node28&#45;&gt;Node25 -->
<g id="edge48_Node000028_Node000025" class="edge">
<title>Node28&#45;&gt;Node25</title>
<g id="a_edge48_Node000028_Node000025"><a xlink:title=" ">
<path fill="none" stroke="#63b8ff" d="M1779,-115.37C1779,-107.25 1779,-94.81 1779,-84.39"/>
<polygon fill="#63b8ff" stroke="#63b8ff" points="1782.5,-84.17 1779,-74.17 1775.5,-84.17 1782.5,-84.17"/>
</a>
</g>
</g>
<!-- Node29 -->
<g id="Node000029" class="node">
<title>Node29</title>
<g id="a_Node000029"><a xlink:title=" ">
<polygon fill="#e0e0e0" stroke="#999999" points="2221,-74 2051,-74 2051,-55 2221,-55 2221,-74"/>
<text text-anchor="middle" x="2136" y="-62" font-family="Malgun Gothic" font-size="10.00">UBroadcastManger.generated.h</text>
</a>
</g>
</g>
<!-- Node28&#45;&gt;Node29 -->
<g id="edge49_Node000028_Node000029" class="edge">
<title>Node28&#45;&gt;Node29</title>
<g id="a_edge49_Node000028_Node000029"><a xlink:title=" ">
<path fill="none" stroke="#63b8ff" d="M1818.85,-115.45C1828.07,-113.56 1837.87,-111.64 1847,-110 1920.88,-96.72 2005.84,-83.93 2064.42,-75.5"/>
<polygon fill="#63b8ff" stroke="#63b8ff" points="2065.28,-78.91 2074.68,-74.03 2064.29,-71.98 2065.28,-78.91"/>
</a>
</g>
</g>
</g>
</svg>
