<?xml version="1.0" encoding="UTF-8" standalone="no"?>
<!DOCTYPE svg PUBLIC "-//W3C//DTD SVG 1.1//EN"
 "http://www.w3.org/Graphics/SVG/1.1/DTD/svg11.dtd">
<!-- Generated by graphviz version 2.43.0 (0)
 -->
<!-- Title: Source/LatteLibrary/Character/Private/UKnockbackSystem.cpp Pages: 1 -->
<svg width="2231pt" height="225pt"
 viewBox="0.00 0.00 2231.00 225.00" xmlns="http://www.w3.org/2000/svg" xmlns:xlink="http://www.w3.org/1999/xlink">
<g id="graph0" class="graph" transform="scale(1 1) rotate(0) translate(4 221)">
<title>Source/LatteLibrary/Character/Private/UKnockbackSystem.cpp</title>
<!-- Node1 -->
<g id="Node000001" class="node">
<title>Node1</title>
<g id="a_Node000001"><a xlink:title="UKnockbackSystem 구현에 대한 Doxygen 주석을 제공합니다.">
<polygon fill="#999999" stroke="#666666" points="1360,-217 1192,-217 1192,-176 1360,-176 1360,-217"/>
<text text-anchor="start" x="1200" y="-205" font-family="Malgun Gothic" font-size="10.00">Source/LatteLibrary</text>
<text text-anchor="start" x="1200" y="-194" font-family="Malgun Gothic" font-size="10.00">/Character/Private/UKnockback</text>
<text text-anchor="middle" x="1276" y="-183" font-family="Malgun Gothic" font-size="10.00">System.cpp</text>
</a>
</g>
</g>
<!-- Node2 -->
<g id="Node000002" class="node">
<title>Node2</title>
<g id="a_Node000002"><a xlink:href="UKnockbackSystem_8h.html" target="_top" xlink:title="UKnockbackSystem 선언에 대한 Doxygen 주석을 제공합니다.">
<polygon fill="white" stroke="#666666" points="501.5,-134.5 378.5,-134.5 378.5,-115.5 501.5,-115.5 501.5,-134.5"/>
<text text-anchor="middle" x="440" y="-122.5" font-family="Malgun Gothic" font-size="10.00">UKnockbackSystem.h</text>
</a>
</g>
</g>
<!-- Node1&#45;&gt;Node2 -->
<g id="edge1_Node000001_Node000002" class="edge">
<title>Node1&#45;&gt;Node2</title>
<g id="a_edge1_Node000001_Node000002"><a xlink:title=" ">
<path fill="none" stroke="#63b8ff" d="M1191.63,-188.49C1027.09,-174.81 666.01,-144.79 511.95,-131.98"/>
<polygon fill="#63b8ff" stroke="#63b8ff" points="511.92,-128.47 501.67,-131.13 511.34,-135.44 511.92,-128.47"/>
</a>
</g>
</g>
<!-- Node5 -->
<g id="Node000005" class="node">
<title>Node5</title>
<g id="a_Node000005"><a xlink:href="FKnockbackData_8h.html" target="_top" xlink:title="FKnockbackData 구조체에 대한 Doxygen 주석을 제공합니다.">
<polygon fill="white" stroke="#666666" points="302,-74 194,-74 194,-55 302,-55 302,-74"/>
<text text-anchor="middle" x="248" y="-62" font-family="Malgun Gothic" font-size="10.00">FKnockbackData.h</text>
</a>
</g>
</g>
<!-- Node1&#45;&gt;Node5 -->
<g id="edge42_Node000001_Node000005" class="edge">
<title>Node1&#45;&gt;Node5</title>
<g id="a_edge42_Node000001_Node000005"><a xlink:title=" ">
<path fill="none" stroke="#63b8ff" d="M1191.87,-195.55C997.21,-194.83 520.82,-188.05 369,-140 328.93,-127.32 288.6,-98.52 266.1,-80.67"/>
<polygon fill="#63b8ff" stroke="#63b8ff" points="268.1,-77.78 258.13,-74.2 263.69,-83.22 268.1,-77.78"/>
</a>
</g>
</g>
<!-- Node10 -->
<g id="Node000010" class="node">
<title>Node10</title>
<g id="a_Node000010"><a xlink:href="AGameCharacter_8h.html" target="_top" xlink:title="LatteLibrary 전반에서 사용하는 기반 캐릭터 클래스를 선언합니다.">
<polygon fill="white" stroke="#666666" points="1730,-134.5 1622,-134.5 1622,-115.5 1730,-115.5 1730,-134.5"/>
<text text-anchor="middle" x="1676" y="-122.5" font-family="Malgun Gothic" font-size="10.00">AGameCharacter.h</text>
</a>
</g>
</g>
<!-- Node1&#45;&gt;Node10 -->
<g id="edge10_Node000001_Node000010" class="edge">
<title>Node1&#45;&gt;Node10</title>
<g id="a_edge10_Node000001_Node000010"><a xlink:title=" ">
<path fill="none" stroke="#63b8ff" d="M1360.34,-180.85C1437.3,-167.47 1549.07,-148.05 1616.9,-136.27"/>
<polygon fill="#63b8ff" stroke="#63b8ff" points="1617.74,-139.68 1626.99,-134.52 1616.54,-132.78 1617.74,-139.68"/>
</a>
</g>
</g>
<!-- Node17 -->
<g id="Node000017" class="node">
<title>Node17</title>
<g id="a_Node000017"><a xlink:href="UGameDataManager_8h.html" target="_top" xlink:title="UGameDataManager 선언에 대한 Doxygen 주석을 제공합니다.">
<polygon fill="white" stroke="#666666" points="947,-134.5 819,-134.5 819,-115.5 947,-115.5 947,-134.5"/>
<text text-anchor="middle" x="883" y="-122.5" font-family="Malgun Gothic" font-size="10.00">UGameDataManager.h</text>
</a>
</g>
</g>
<!-- Node1&#45;&gt;Node17 -->
<g id="edge21_Node000001_Node000017" class="edge">
<title>Node1&#45;&gt;Node17</title>
<g id="a_edge21_Node000001_Node000017"><a xlink:title=" ">
<path fill="none" stroke="#63b8ff" d="M1191.69,-180.59C1116.18,-167.24 1007.42,-148 941.19,-136.29"/>
<polygon fill="#63b8ff" stroke="#63b8ff" points="941.79,-132.84 931.34,-134.55 940.57,-139.74 941.79,-132.84"/>
</a>
</g>
</g>
<!-- Node27 -->
<g id="Node000027" class="node">
<title>Node27</title>
<g id="a_Node000027"><a xlink:title=" ">
<polygon fill="#e0e0e0" stroke="#999999" points="1844,-134.5 1748,-134.5 1748,-115.5 1844,-115.5 1844,-134.5"/>
<text text-anchor="middle" x="1796" y="-122.5" font-family="Malgun Gothic" font-size="10.00">TimerManager.h</text>
</a>
</g>
</g>
<!-- Node1&#45;&gt;Node27 -->
<g id="edge43_Node000001_Node000027" class="edge">
<title>Node1&#45;&gt;Node27</title>
<g id="a_edge43_Node000001_Node000027"><a xlink:title=" ">
<path fill="none" stroke="#63b8ff" d="M1360.1,-188.52C1453.23,-180.06 1607.58,-163.92 1739,-140 1744.01,-139.09 1749.23,-138 1754.4,-136.84"/>
<polygon fill="#63b8ff" stroke="#63b8ff" points="1755.26,-140.23 1764.19,-134.54 1753.66,-133.42 1755.26,-140.23"/>
</a>
</g>
</g>
<!-- Node28 -->
<g id="Node000028" class="node">
<title>Node28</title>
<g id="a_Node000028"><a xlink:href="UBroadcastManger_8h.html" target="_top" xlink:title="UBroadcastManger 선언에 대한 Doxygen 주석을 제공합니다.">
<polygon fill="white" stroke="#666666" points="1335,-134.5 1217,-134.5 1217,-115.5 1335,-115.5 1335,-134.5"/>
<text text-anchor="middle" x="1276" y="-122.5" font-family="Malgun Gothic" font-size="10.00">UBroadcastManger.h</text>
</a>
</g>
</g>
<!-- Node1&#45;&gt;Node28 -->
<g id="edge44_Node000001_Node000028" class="edge">
<title>Node1&#45;&gt;Node28</title>
<g id="a_edge44_Node000001_Node000028"><a xlink:title=" ">
<path fill="none" stroke="#63b8ff" d="M1276,-175.77C1276,-166.08 1276,-154.46 1276,-144.88"/>
<polygon fill="#63b8ff" stroke="#63b8ff" points="1279.5,-144.82 1276,-134.82 1272.5,-144.82 1279.5,-144.82"/>
</a>
</g>
</g>
<!-- Node30 -->
<g id="Node000030" class="node">
<title>Node30</title>
<g id="a_Node000030"><a xlink:title=" ">
<polygon fill="#e0e0e0" stroke="#999999" points="2065.5,-140 1862.5,-140 1862.5,-110 2065.5,-110 2065.5,-140"/>
<text text-anchor="start" x="1870.5" y="-128" font-family="Malgun Gothic" font-size="10.00">GameFramework/CharacterMovement</text>
<text text-anchor="middle" x="1964" y="-117" font-family="Malgun Gothic" font-size="10.00">Component.h</text>
</a>
</g>
</g>
<!-- Node1&#45;&gt;Node30 -->
<g id="edge49_Node000001_Node000030" class="edge">
<title>Node1&#45;&gt;Node30</title>
<g id="a_edge49_Node000001_Node000030"><a xlink:title=" ">
<path fill="none" stroke="#63b8ff" d="M1360.17,-188.19C1470.57,-178.42 1670.57,-160.13 1852.38,-140.05"/>
<polygon fill="#63b8ff" stroke="#63b8ff" points="1852.84,-143.52 1862.39,-138.94 1852.07,-136.56 1852.84,-143.52"/>
</a>
</g>
</g>
<!-- Node3 -->
<g id="Node000003" class="node">
<title>Node3</title>
<g id="a_Node000003"><a xlink:title=" ">
<polygon fill="#e0e0e0" stroke="#999999" points="872,-19 784,-19 784,0 872,0 872,-19"/>
<text text-anchor="middle" x="828" y="-7" font-family="Malgun Gothic" font-size="10.00">CoreMinimal.h</text>
</a>
</g>
</g>
<!-- Node2&#45;&gt;Node3 -->
<g id="edge2_Node000002_Node000003" class="edge">
<title>Node2&#45;&gt;Node3</title>
<g id="a_edge2_Node000002_Node000003"><a xlink:title=" ">
<path fill="none" stroke="#63b8ff" d="M439.55,-115.2C439.32,-100.28 441.25,-70.19 459,-55 510.55,-10.89 689.8,-27.14 773.78,-18.91"/>
<polygon fill="#63b8ff" stroke="#63b8ff" points="774.25,-22.38 783.78,-17.75 773.44,-15.43 774.25,-22.38"/>
</a>
</g>
</g>
<!-- Node4 -->
<g id="Node000004" class="node">
<title>Node4</title>
<g id="a_Node000004"><a xlink:title=" ">
<polygon fill="#e0e0e0" stroke="#999999" points="1891,-19 1719,-19 1719,0 1891,0 1891,-19"/>
<text text-anchor="middle" x="1805" y="-7" font-family="Malgun Gothic" font-size="10.00">Components/ActorComponent.h</text>
</a>
</g>
</g>
<!-- Node2&#45;&gt;Node4 -->
<g id="edge3_Node000002_Node000004" class="edge">
<title>Node2&#45;&gt;Node4</title>
<g id="a_edge3_Node000002_Node000004"><a xlink:title=" ">
<path fill="none" stroke="#63b8ff" d="M501.7,-119.19C564.19,-113.09 663.06,-100.06 745,-74 763.37,-68.16 765.31,-59.74 784,-55 871.96,-32.69 1471.39,-17.62 1708.63,-12.46"/>
<polygon fill="#63b8ff" stroke="#63b8ff" points="1709.05,-15.96 1718.97,-12.24 1708.89,-8.96 1709.05,-15.96"/>
</a>
</g>
</g>
<!-- Node2&#45;&gt;Node5 -->
<g id="edge4_Node000002_Node000005" class="edge">
<title>Node2&#45;&gt;Node5</title>
<g id="a_edge4_Node000002_Node000005"><a xlink:title=" ">
<path fill="none" stroke="#63b8ff" d="M412.08,-115.49C378.81,-105.36 323.05,-88.37 285.9,-77.05"/>
<polygon fill="#63b8ff" stroke="#63b8ff" points="286.54,-73.58 275.95,-74.02 284.5,-80.28 286.54,-73.58"/>
</a>
</g>
</g>
<!-- Node9 -->
<g id="Node000009" class="node">
<title>Node9</title>
<g id="a_Node000009"><a xlink:title=" ">
<polygon fill="#e0e0e0" stroke="#999999" points="176,-74 0,-74 0,-55 176,-55 176,-74"/>
<text text-anchor="middle" x="88" y="-62" font-family="Malgun Gothic" font-size="10.00">UKnockbackSystem.generated.h</text>
</a>
</g>
</g>
<!-- Node2&#45;&gt;Node9 -->
<g id="edge9_Node000002_Node000009" class="edge">
<title>Node2&#45;&gt;Node9</title>
<g id="a_edge9_Node000002_Node000009"><a xlink:title=" ">
<path fill="none" stroke="#63b8ff" d="M388.82,-115.49C325.34,-104.94 217.23,-86.98 149.37,-75.7"/>
<polygon fill="#63b8ff" stroke="#63b8ff" points="149.68,-72.2 139.25,-74.02 148.54,-79.11 149.68,-72.2"/>
</a>
</g>
</g>
<!-- Node5&#45;&gt;Node3 -->
<g id="edge5_Node000005_Node000003" class="edge">
<title>Node5&#45;&gt;Node3</title>
<g id="a_edge5_Node000005_Node000003"><a xlink:title=" ">
<path fill="none" stroke="#63b8ff" d="M302.27,-55.98C305.22,-55.63 308.15,-55.3 311,-55 513.37,-33.51 567.86,-43.08 773.56,-19.07"/>
<polygon fill="#63b8ff" stroke="#63b8ff" points="774.27,-22.51 783.79,-17.87 773.45,-15.56 774.27,-22.51"/>
</a>
</g>
</g>
<!-- Node6 -->
<g id="Node000006" class="node">
<title>Node6</title>
<g id="a_Node000006"><a xlink:href="EDamageType_8h.html" target="_top" xlink:title="EDamageType 열거형에 대한 Doxygen 주석을 제공합니다.">
<polygon fill="white" stroke="#666666" points="276.5,-19 181.5,-19 181.5,0 276.5,0 276.5,-19"/>
<text text-anchor="middle" x="229" y="-7" font-family="Malgun Gothic" font-size="10.00">EDamageType.h</text>
</a>
</g>
</g>
<!-- Node5&#45;&gt;Node6 -->
<g id="edge6_Node000005_Node000006" class="edge">
<title>Node5&#45;&gt;Node6</title>
<g id="a_edge6_Node000005_Node000006"><a xlink:title=" ">
<path fill="none" stroke="#63b8ff" d="M244.86,-54.75C242.32,-47.65 238.64,-37.4 235.47,-28.56"/>
<polygon fill="#63b8ff" stroke="#63b8ff" points="238.75,-27.32 232.08,-19.09 232.16,-29.68 238.75,-27.32"/>
</a>
</g>
</g>
<!-- Node7 -->
<g id="Node000007" class="node">
<title>Node7</title>
<g id="a_Node000007"><a xlink:title=" ">
<polygon fill="#e0e0e0" stroke="#999999" points="566,-19 456,-19 456,0 566,0 566,-19"/>
<text text-anchor="middle" x="511" y="-7" font-family="Malgun Gothic" font-size="10.00">Engine/DataTable.h</text>
</a>
</g>
</g>
<!-- Node5&#45;&gt;Node7 -->
<g id="edge7_Node000005_Node000007" class="edge">
<title>Node5&#45;&gt;Node7</title>
<g id="a_edge7_Node000005_Node000007"><a xlink:title=" ">
<path fill="none" stroke="#63b8ff" d="M290.26,-54.98C336.04,-45.76 409.14,-31.03 458.55,-21.07"/>
<polygon fill="#63b8ff" stroke="#63b8ff" points="459.3,-24.49 468.41,-19.08 457.92,-17.63 459.3,-24.49"/>
</a>
</g>
</g>
<!-- Node8 -->
<g id="Node000008" class="node">
<title>Node8</title>
<g id="a_Node000008"><a xlink:title=" ">
<polygon fill="#e0e0e0" stroke="#999999" points="163.5,-19 2.5,-19 2.5,0 163.5,0 163.5,-19"/>
<text text-anchor="middle" x="83" y="-7" font-family="Malgun Gothic" font-size="10.00">FKnockbackData.generated.h</text>
</a>
</g>
</g>
<!-- Node5&#45;&gt;Node8 -->
<g id="edge8_Node000005_Node000008" class="edge">
<title>Node5&#45;&gt;Node8</title>
<g id="a_edge8_Node000005_Node000008"><a xlink:title=" ">
<path fill="none" stroke="#63b8ff" d="M221.49,-54.98C193.79,-46.09 150.14,-32.07 119.26,-22.15"/>
<polygon fill="#63b8ff" stroke="#63b8ff" points="120.31,-18.81 109.72,-19.08 118.17,-25.47 120.31,-18.81"/>
</a>
</g>
</g>
<!-- Node10&#45;&gt;Node3 -->
<g id="edge11_Node000010_Node000003" class="edge">
<title>Node10&#45;&gt;Node3</title>
<g id="a_edge11_Node000010_Node000003"><a xlink:title=" ">
<path fill="none" stroke="#63b8ff" d="M1660.89,-115.23C1630.06,-97.41 1561.81,-58.36 1550,-55 1409.89,-15.11 1045.16,-33.95 882.61,-18.98"/>
<polygon fill="#63b8ff" stroke="#63b8ff" points="882.5,-15.45 872.2,-17.95 881.8,-22.42 882.5,-15.45"/>
</a>
</g>
</g>
<!-- Node11 -->
<g id="Node000011" class="node">
<title>Node11</title>
<g id="a_Node000011"><a xlink:title=" ">
<polygon fill="#e0e0e0" stroke="#999999" points="1755.5,-74 1596.5,-74 1596.5,-55 1755.5,-55 1755.5,-74"/>
<text text-anchor="middle" x="1676" y="-62" font-family="Malgun Gothic" font-size="10.00">GameFramework/Character.h</text>
</a>
</g>
</g>
<!-- Node10&#45;&gt;Node11 -->
<g id="edge12_Node000010_Node000011" class="edge">
<title>Node10&#45;&gt;Node11</title>
<g id="a_edge12_Node000010_Node000011"><a xlink:title=" ">
<path fill="none" stroke="#63b8ff" d="M1676,-115.37C1676,-107.25 1676,-94.81 1676,-84.39"/>
<polygon fill="#63b8ff" stroke="#63b8ff" points="1679.5,-84.17 1676,-74.17 1672.5,-84.17 1679.5,-84.17"/>
</a>
</g>
</g>
<!-- Node12 -->
<g id="Node000012" class="node">
<title>Node12</title>
<g id="a_Node000012"><a xlink:href="EBodyPartType_8h.html" target="_top" xlink:title="EBodyPartType 열거형에 대한 Doxygen 주석을 제공합니다.">
<polygon fill="white" stroke="#666666" points="1871,-74 1773,-74 1773,-55 1871,-55 1871,-74"/>
<text text-anchor="middle" x="1822" y="-62" font-family="Malgun Gothic" font-size="10.00">EBodyPartType.h</text>
</a>
</g>
</g>
<!-- Node10&#45;&gt;Node12 -->
<g id="edge13_Node000010_Node000012" class="edge">
<title>Node10&#45;&gt;Node12</title>
<g id="a_edge13_Node000010_Node000012"><a xlink:title=" ">
<path fill="none" stroke="#63b8ff" d="M1697.23,-115.49C1721.99,-105.57 1763.12,-89.09 1791.35,-77.78"/>
<polygon fill="#63b8ff" stroke="#63b8ff" points="1792.76,-80.99 1800.74,-74.02 1790.16,-74.49 1792.76,-80.99"/>
</a>
</g>
</g>
<!-- Node13 -->
<g id="Node000013" class="node">
<title>Node13</title>
<g id="a_Node000013"><a xlink:href="ECharacterType_8h.html" target="_top" xlink:title="ECharacterType 열거형에 대한 Doxygen 주석을 제공합니다.">
<polygon fill="white" stroke="#666666" points="1355.5,-19 1254.5,-19 1254.5,0 1355.5,0 1355.5,-19"/>
<text text-anchor="middle" x="1305" y="-7" font-family="Malgun Gothic" font-size="10.00">ECharacterType.h</text>
</a>
</g>
</g>
<!-- Node10&#45;&gt;Node13 -->
<g id="edge14_Node000010_Node000013" class="edge">
<title>Node10&#45;&gt;Node13</title>
<g id="a_edge14_Node000010_Node000013"><a xlink:title=" ">
<path fill="none" stroke="#63b8ff" d="M1711.19,-115.48C1720.22,-113.49 1729.94,-111.51 1739,-110 1810.39,-98.1 2109.65,-107.66 2060,-55 2036.29,-29.85 1540.84,-15.97 1365.69,-11.83"/>
<polygon fill="#63b8ff" stroke="#63b8ff" points="1365.69,-8.33 1355.61,-11.6 1365.52,-15.33 1365.69,-8.33"/>
</a>
</g>
</g>
<!-- Node14 -->
<g id="Node000014" class="node">
<title>Node14</title>
<g id="a_Node000014"><a xlink:href="UStatSystem_8h.html" target="_top" xlink:title="UStatSystem 선언에 대한 Doxygen 주석을 제공합니다.">
<polygon fill="white" stroke="#666666" points="2196.5,-74 2107.5,-74 2107.5,-55 2196.5,-55 2196.5,-74"/>
<text text-anchor="middle" x="2152" y="-62" font-family="Malgun Gothic" font-size="10.00">UStatSystem.h</text>
</a>
</g>
</g>
<!-- Node10&#45;&gt;Node14 -->
<g id="edge15_Node000010_Node000014" class="edge">
<title>Node10&#45;&gt;Node14</title>
<g id="a_edge15_Node000010_Node000014"><a xlink:title=" ">
<path fill="none" stroke="#63b8ff" d="M1710.85,-115.49C1719.97,-113.47 1729.82,-111.48 1739,-110 1895.12,-84.8 1936.03,-93.28 2093,-74 2094.3,-73.84 2095.62,-73.68 2096.94,-73.51"/>
<polygon fill="#63b8ff" stroke="#63b8ff" points="2097.79,-76.93 2107.25,-72.15 2096.88,-69.99 2097.79,-76.93"/>
</a>
</g>
</g>
<!-- Node16 -->
<g id="Node000016" class="node">
<title>Node16</title>
<g id="a_Node000016"><a xlink:title=" ">
<polygon fill="#e0e0e0" stroke="#999999" points="2050.5,-74 1889.5,-74 1889.5,-55 2050.5,-55 2050.5,-74"/>
<text text-anchor="middle" x="1970" y="-62" font-family="Malgun Gothic" font-size="10.00">AGameCharacter.generated.h</text>
</a>
</g>
</g>
<!-- Node10&#45;&gt;Node16 -->
<g id="edge20_Node000010_Node000016" class="edge">
<title>Node10&#45;&gt;Node16</title>
<g id="a_edge20_Node000010_Node000016"><a xlink:title=" ">
<path fill="none" stroke="#63b8ff" d="M1713.61,-115.46C1721.96,-113.61 1730.77,-111.71 1739,-110 1798.42,-97.68 1866.69,-84.67 1913.52,-75.92"/>
<polygon fill="#63b8ff" stroke="#63b8ff" points="1914.28,-79.34 1923.47,-74.06 1912.99,-72.46 1914.28,-79.34"/>
</a>
</g>
</g>
<!-- Node14&#45;&gt;Node3 -->
<g id="edge16_Node000014_Node000003" class="edge">
<title>Node14&#45;&gt;Node3</title>
<g id="a_edge16_Node000014_Node000003"><a xlink:title=" ">
<path fill="none" stroke="#63b8ff" d="M2107.12,-58.8C2092.15,-57.38 2075.37,-55.94 2060,-55 1540.06,-23.07 1404.61,-68.03 882.25,-18.97"/>
<polygon fill="#63b8ff" stroke="#63b8ff" points="882.48,-15.48 872.19,-18.02 881.82,-22.45 882.48,-15.48"/>
</a>
</g>
</g>
<!-- Node14&#45;&gt;Node4 -->
<g id="edge18_Node000014_Node000004" class="edge">
<title>Node14&#45;&gt;Node4</title>
<g id="a_edge18_Node000014_Node000004"><a xlink:title=" ">
<path fill="none" stroke="#63b8ff" d="M2107.35,-56.68C2047.24,-47.5 1939.88,-31.1 1870.59,-20.52"/>
<polygon fill="#63b8ff" stroke="#63b8ff" points="1871.07,-17.05 1860.66,-19 1870.01,-23.97 1871.07,-17.05"/>
</a>
</g>
</g>
<!-- Node14&#45;&gt;Node13 -->
<g id="edge17_Node000014_Node000013" class="edge">
<title>Node14&#45;&gt;Node13</title>
<g id="a_edge17_Node000014_Node000013"><a xlink:title=" ">
<path fill="none" stroke="#63b8ff" d="M2107.27,-56.64C2102.46,-56.03 2097.63,-55.46 2093,-55 1822.86,-27.96 1498.85,-16.12 1366.18,-12.15"/>
<polygon fill="#63b8ff" stroke="#63b8ff" points="1365.92,-8.64 1355.82,-11.84 1365.72,-15.64 1365.92,-8.64"/>
</a>
</g>
</g>
<!-- Node15 -->
<g id="Node000015" class="node">
<title>Node15</title>
<g id="a_Node000015"><a xlink:title=" ">
<polygon fill="#e0e0e0" stroke="#999999" points="2223,-19 2081,-19 2081,0 2223,0 2223,-19"/>
<text text-anchor="middle" x="2152" y="-7" font-family="Malgun Gothic" font-size="10.00">UStatSystem.generated.h</text>
</a>
</g>
</g>
<!-- Node14&#45;&gt;Node15 -->
<g id="edge19_Node000014_Node000015" class="edge">
<title>Node14&#45;&gt;Node15</title>
<g id="a_edge19_Node000014_Node000015"><a xlink:title=" ">
<path fill="none" stroke="#63b8ff" d="M2152,-54.75C2152,-47.8 2152,-37.85 2152,-29.13"/>
<polygon fill="#63b8ff" stroke="#63b8ff" points="2155.5,-29.09 2152,-19.09 2148.5,-29.09 2155.5,-29.09"/>
</a>
</g>
</g>
<!-- Node17&#45;&gt;Node3 -->
<g id="edge22_Node000017_Node000003" class="edge">
<title>Node17&#45;&gt;Node3</title>
<g id="a_edge22_Node000017_Node000003"><a xlink:title=" ">
<path fill="none" stroke="#63b8ff" d="M916.58,-115.41C953.02,-104.43 1003.34,-83.38 982,-55 975.44,-46.27 919.06,-31.53 876.4,-21.42"/>
<polygon fill="#63b8ff" stroke="#63b8ff" points="876.97,-17.96 866.44,-19.08 875.37,-24.77 876.97,-17.96"/>
</a>
</g>
</g>
<!-- Node17&#45;&gt;Node5 -->
<g id="edge29_Node000017_Node000005" class="edge">
<title>Node17&#45;&gt;Node5</title>
<g id="a_edge29_Node000017_Node000005"><a xlink:title=" ">
<path fill="none" stroke="#63b8ff" d="M818.99,-119.39C715.01,-111.68 502.66,-95.04 312.46,-74.12"/>
<polygon fill="#63b8ff" stroke="#63b8ff" points="312.6,-70.61 302.28,-72.99 311.83,-77.57 312.6,-70.61"/>
</a>
</g>
</g>
<!-- Node18 -->
<g id="Node000018" class="node">
<title>Node18</title>
<g id="a_Node000018"><a xlink:href="Macro_8h.html" target="_top" xlink:title="Manager 모듈에서 공통으로 사용하는 매크로 정의에 대한 Doxygen 주석을 제공합니다.">
<polygon fill="white" stroke="#666666" points="1085,-74 1029,-74 1029,-55 1085,-55 1085,-74"/>
<text text-anchor="middle" x="1057" y="-62" font-family="Malgun Gothic" font-size="10.00">Macro.h</text>
</a>
</g>
</g>
<!-- Node17&#45;&gt;Node18 -->
<g id="edge23_Node000017_Node000018" class="edge">
<title>Node17&#45;&gt;Node18</title>
<g id="a_edge23_Node000017_Node000018"><a xlink:title=" ">
<path fill="none" stroke="#63b8ff" d="M908.3,-115.49C938.2,-105.44 988.12,-88.66 1021.78,-77.34"/>
<polygon fill="#63b8ff" stroke="#63b8ff" points="1023.31,-80.52 1031.67,-74.02 1021.07,-73.89 1023.31,-80.52"/>
</a>
</g>
</g>
<!-- Node19 -->
<g id="Node000019" class="node">
<title>Node19</title>
<g id="a_Node000019"><a xlink:href="FHitStopData_8h.html" target="_top" xlink:title="FHitStopData 구조체에 대한 Doxygen 주석을 제공합니다.">
<polygon fill="white" stroke="#666666" points="411.5,-74 320.5,-74 320.5,-55 411.5,-55 411.5,-74"/>
<text text-anchor="middle" x="366" y="-62" font-family="Malgun Gothic" font-size="10.00">FHitStopData.h</text>
</a>
</g>
</g>
<!-- Node17&#45;&gt;Node19 -->
<g id="edge24_Node000017_Node000019" class="edge">
<title>Node17&#45;&gt;Node19</title>
<g id="a_edge24_Node000017_Node000019"><a xlink:title=" ">
<path fill="none" stroke="#63b8ff" d="M818.83,-116.74C716.68,-105.18 518.78,-82.79 422.01,-71.84"/>
<polygon fill="#63b8ff" stroke="#63b8ff" points="422.18,-68.33 411.85,-70.69 421.39,-75.29 422.18,-68.33"/>
</a>
</g>
</g>
<!-- Node21 -->
<g id="Node000021" class="node">
<title>Node21</title>
<g id="a_Node000021"><a xlink:href="FCharacterInfoData_8h.html" target="_top" xlink:title="FCharacterInfoData 구조체에 대한 Doxygen 주석을 제공합니다.">
<polygon fill="white" stroke="#666666" points="736.5,-74 615.5,-74 615.5,-55 736.5,-55 736.5,-74"/>
<text text-anchor="middle" x="676" y="-62" font-family="Malgun Gothic" font-size="10.00">FCharacterInfoData.h</text>
</a>
</g>
</g>
<!-- Node17&#45;&gt;Node21 -->
<g id="edge30_Node000017_Node000021" class="edge">
<title>Node17&#45;&gt;Node21</title>
<g id="a_edge30_Node000017_Node000021"><a xlink:title=" ">
<path fill="none" stroke="#63b8ff" d="M852.9,-115.49C816.72,-105.27 755.89,-88.08 715.84,-76.76"/>
<polygon fill="#63b8ff" stroke="#63b8ff" points="716.71,-73.37 706.14,-74.02 714.81,-80.1 716.71,-73.37"/>
</a>
</g>
</g>
<!-- Node23 -->
<g id="Node000023" class="node">
<title>Node23</title>
<g id="a_Node000023"><a xlink:href="FCharacterAssetData_8h.html" target="_top" xlink:title="FCharacterAssetData 구조체에 대한 Doxygen 주석을 제공합니다.">
<polygon fill="white" stroke="#666666" points="597.5,-74 468.5,-74 468.5,-55 597.5,-55 597.5,-74"/>
<text text-anchor="middle" x="533" y="-62" font-family="Malgun Gothic" font-size="10.00">FCharacterAssetData.h</text>
</a>
</g>
</g>
<!-- Node17&#45;&gt;Node23 -->
<g id="edge35_Node000017_Node000023" class="edge">
<title>Node17&#45;&gt;Node23</title>
<g id="a_edge35_Node000017_Node000023"><a xlink:title=" ">
<path fill="none" stroke="#63b8ff" d="M832.11,-115.49C768.99,-104.94 661.5,-86.98 594.02,-75.7"/>
<polygon fill="#63b8ff" stroke="#63b8ff" points="594.39,-72.21 583.95,-74.02 593.24,-79.12 594.39,-72.21"/>
</a>
</g>
</g>
<!-- Node25 -->
<g id="Node000025" class="node">
<title>Node25</title>
<g id="a_Node000025"><a xlink:title=" ">
<polygon fill="#e0e0e0" stroke="#999999" points="1315,-74 1103,-74 1103,-55 1315,-55 1315,-74"/>
<text text-anchor="middle" x="1209" y="-62" font-family="Malgun Gothic" font-size="10.00">Subsystems/GameInstanceSubsystem.h</text>
</a>
</g>
</g>
<!-- Node17&#45;&gt;Node25 -->
<g id="edge40_Node000017_Node000025" class="edge">
<title>Node17&#45;&gt;Node25</title>
<g id="a_edge40_Node000017_Node000025"><a xlink:title=" ">
<path fill="none" stroke="#63b8ff" d="M930.4,-115.49C988.95,-104.99 1088.49,-87.12 1151.39,-75.84"/>
<polygon fill="#63b8ff" stroke="#63b8ff" points="1152.32,-79.23 1161.54,-74.02 1151.08,-72.34 1152.32,-79.23"/>
</a>
</g>
</g>
<!-- Node26 -->
<g id="Node000026" class="node">
<title>Node26</title>
<g id="a_Node000026"><a xlink:title=" ">
<polygon fill="#e0e0e0" stroke="#999999" points="973,-74 793,-74 793,-55 973,-55 973,-74"/>
<text text-anchor="middle" x="883" y="-62" font-family="Malgun Gothic" font-size="10.00">UGameDataManager.generated.h</text>
</a>
</g>
</g>
<!-- Node17&#45;&gt;Node26 -->
<g id="edge41_Node000017_Node000026" class="edge">
<title>Node17&#45;&gt;Node26</title>
<g id="a_edge41_Node000017_Node000026"><a xlink:title=" ">
<path fill="none" stroke="#63b8ff" d="M883,-115.37C883,-107.25 883,-94.81 883,-84.39"/>
<polygon fill="#63b8ff" stroke="#63b8ff" points="886.5,-84.17 883,-74.17 879.5,-84.17 886.5,-84.17"/>
</a>
</g>
</g>
<!-- Node19&#45;&gt;Node3 -->
<g id="edge25_Node000019_Node000003" class="edge">
<title>Node19&#45;&gt;Node3</title>
<g id="a_edge25_Node000019_Node000003"><a xlink:title=" ">
<path fill="none" stroke="#63b8ff" d="M411.51,-56.87C416.4,-56.21 421.3,-55.58 426,-55 577.45,-36.47 618.64,-39.22 773.42,-19.14"/>
<polygon fill="#63b8ff" stroke="#63b8ff" points="774.32,-22.55 783.78,-17.78 773.41,-15.61 774.32,-22.55"/>
</a>
</g>
</g>
<!-- Node19&#45;&gt;Node6 -->
<g id="edge26_Node000019_Node000006" class="edge">
<title>Node19&#45;&gt;Node6</title>
<g id="a_edge26_Node000019_Node000006"><a xlink:title=" ">
<path fill="none" stroke="#63b8ff" d="M343.99,-54.98C321.55,-46.3 286.52,-32.75 261.01,-22.88"/>
<polygon fill="#63b8ff" stroke="#63b8ff" points="262,-19.51 251.41,-19.17 259.48,-26.04 262,-19.51"/>
</a>
</g>
</g>
<!-- Node19&#45;&gt;Node7 -->
<g id="edge27_Node000019_Node000007" class="edge">
<title>Node19&#45;&gt;Node7</title>
<g id="a_edge27_Node000019_Node000007"><a xlink:title=" ">
<path fill="none" stroke="#63b8ff" d="M389.3,-54.98C413.25,-46.23 450.78,-32.51 477.83,-22.62"/>
<polygon fill="#63b8ff" stroke="#63b8ff" points="479.09,-25.89 487.28,-19.17 476.69,-19.32 479.09,-25.89"/>
</a>
</g>
</g>
<!-- Node20 -->
<g id="Node000020" class="node">
<title>Node20</title>
<g id="a_Node000020"><a xlink:title=" ">
<polygon fill="#e0e0e0" stroke="#999999" points="437.5,-19 294.5,-19 294.5,0 437.5,0 437.5,-19"/>
<text text-anchor="middle" x="366" y="-7" font-family="Malgun Gothic" font-size="10.00">FHitStopData.generated.h</text>
</a>
</g>
</g>
<!-- Node19&#45;&gt;Node20 -->
<g id="edge28_Node000019_Node000020" class="edge">
<title>Node19&#45;&gt;Node20</title>
<g id="a_edge28_Node000019_Node000020"><a xlink:title=" ">
<path fill="none" stroke="#63b8ff" d="M366,-54.75C366,-47.8 366,-37.85 366,-29.13"/>
<polygon fill="#63b8ff" stroke="#63b8ff" points="369.5,-29.09 366,-19.09 362.5,-29.09 369.5,-29.09"/>
</a>
</g>
</g>
<!-- Node21&#45;&gt;Node3 -->
<g id="edge31_Node000021_Node000003" class="edge">
<title>Node21&#45;&gt;Node3</title>
<g id="a_edge31_Node000021_Node000003"><a xlink:title=" ">
<path fill="none" stroke="#63b8ff" d="M700.42,-54.98C725.72,-46.16 765.45,-32.31 793.86,-22.41"/>
<polygon fill="#63b8ff" stroke="#63b8ff" points="795.1,-25.68 803.39,-19.08 792.79,-19.07 795.1,-25.68"/>
</a>
</g>
</g>
<!-- Node21&#45;&gt;Node7 -->
<g id="edge33_Node000021_Node000007" class="edge">
<title>Node21&#45;&gt;Node7</title>
<g id="a_edge33_Node000021_Node000007"><a xlink:title=" ">
<path fill="none" stroke="#63b8ff" d="M649.49,-54.98C621.79,-46.09 578.14,-32.07 547.26,-22.15"/>
<polygon fill="#63b8ff" stroke="#63b8ff" points="548.31,-18.81 537.72,-19.08 546.17,-25.47 548.31,-18.81"/>
</a>
</g>
</g>
<!-- Node21&#45;&gt;Node13 -->
<g id="edge32_Node000021_Node000013" class="edge">
<title>Node21&#45;&gt;Node13</title>
<g id="a_edge32_Node000021_Node000013"><a xlink:title=" ">
<path fill="none" stroke="#63b8ff" d="M736.56,-56.46C741.45,-55.95 746.3,-55.45 751,-55 929.97,-37.67 1141.94,-21.99 1244.03,-14.74"/>
<polygon fill="#63b8ff" stroke="#63b8ff" points="1244.43,-18.22 1254.16,-14.03 1243.94,-11.24 1244.43,-18.22"/>
</a>
</g>
</g>
<!-- Node22 -->
<g id="Node000022" class="node">
<title>Node22</title>
<g id="a_Node000022"><a xlink:title=" ">
<polygon fill="#e0e0e0" stroke="#999999" points="1063.5,-19 890.5,-19 890.5,0 1063.5,0 1063.5,-19"/>
<text text-anchor="middle" x="977" y="-7" font-family="Malgun Gothic" font-size="10.00">FCharacterInfoData.generated.h</text>
</a>
</g>
</g>
<!-- Node21&#45;&gt;Node22 -->
<g id="edge34_Node000021_Node000022" class="edge">
<title>Node21&#45;&gt;Node22</title>
<g id="a_edge34_Node000021_Node000022"><a xlink:title=" ">
<path fill="none" stroke="#63b8ff" d="M724.36,-54.98C777.19,-45.68 861.82,-30.78 918.39,-20.82"/>
<polygon fill="#63b8ff" stroke="#63b8ff" points="919.02,-24.26 928.26,-19.08 917.8,-17.37 919.02,-24.26"/>
</a>
</g>
</g>
<!-- Node23&#45;&gt;Node3 -->
<g id="edge36_Node000023_Node000003" class="edge">
<title>Node23&#45;&gt;Node3</title>
<g id="a_edge36_Node000023_Node000003"><a xlink:title=" ">
<path fill="none" stroke="#63b8ff" d="M580.4,-54.98C633.14,-45.51 718.22,-30.22 773.63,-20.27"/>
<polygon fill="#63b8ff" stroke="#63b8ff" points="774.39,-23.69 783.62,-18.47 773.15,-16.8 774.39,-23.69"/>
</a>
</g>
</g>
<!-- Node23&#45;&gt;Node7 -->
<g id="edge38_Node000023_Node000007" class="edge">
<title>Node23&#45;&gt;Node7</title>
<g id="a_edge38_Node000023_Node000007"><a xlink:title=" ">
<path fill="none" stroke="#63b8ff" d="M529.37,-54.75C526.42,-47.65 522.17,-37.4 518.49,-28.56"/>
<polygon fill="#63b8ff" stroke="#63b8ff" points="521.63,-26.98 514.57,-19.09 515.17,-29.67 521.63,-26.98"/>
</a>
</g>
</g>
<!-- Node23&#45;&gt;Node13 -->
<g id="edge37_Node000023_Node000013" class="edge">
<title>Node23&#45;&gt;Node13</title>
<g id="a_edge37_Node000023_Node000013"><a xlink:title=" ">
<path fill="none" stroke="#63b8ff" d="M597.86,-55.77C600.61,-55.5 603.33,-55.24 606,-55 841.66,-33.79 1122.9,-19.12 1244.29,-13.29"/>
<polygon fill="#63b8ff" stroke="#63b8ff" points="1244.67,-16.78 1254.49,-12.81 1244.34,-9.79 1244.67,-16.78"/>
</a>
</g>
</g>
<!-- Node24 -->
<g id="Node000024" class="node">
<title>Node24</title>
<g id="a_Node000024"><a xlink:title=" ">
<polygon fill="#e0e0e0" stroke="#999999" points="766,-19 584,-19 584,0 766,0 766,-19"/>
<text text-anchor="middle" x="675" y="-7" font-family="Malgun Gothic" font-size="10.00">FCharacterAssetData.generated.h</text>
</a>
</g>
</g>
<!-- Node23&#45;&gt;Node24 -->
<g id="edge39_Node000023_Node000024" class="edge">
<title>Node23&#45;&gt;Node24</title>
<g id="a_edge39_Node000023_Node000024"><a xlink:title=" ">
<path fill="none" stroke="#63b8ff" d="M555.81,-54.98C579.17,-46.27 615.7,-32.63 642.17,-22.75"/>
<polygon fill="#63b8ff" stroke="#63b8ff" points="643.63,-25.95 651.77,-19.17 641.18,-19.39 643.63,-25.95"/>
</a>
</g>
</g>
<!-- Node28&#45;&gt;Node3 -->
<g id="edge45_Node000028_Node000003" class="edge">
<title>Node28&#45;&gt;Node3</title>
<g id="a_edge45_Node000028_Node000003"><a xlink:title=" ">
<path fill="none" stroke="#63b8ff" d="M1289.57,-115.38C1309.44,-101.75 1342.2,-74.74 1324,-55 1292.09,-20.4 963.11,-24.42 882.27,-18.77"/>
<polygon fill="#63b8ff" stroke="#63b8ff" points="882.49,-15.27 872.21,-17.85 881.85,-22.24 882.49,-15.27"/>
</a>
</g>
</g>
<!-- Node28&#45;&gt;Node18 -->
<g id="edge46_Node000028_Node000018" class="edge">
<title>Node28&#45;&gt;Node18</title>
<g id="a_edge46_Node000028_Node000018"><a xlink:title=" ">
<path fill="none" stroke="#63b8ff" d="M1244.16,-115.49C1204.59,-104.93 1137.16,-86.91 1094.96,-75.64"/>
<polygon fill="#63b8ff" stroke="#63b8ff" points="1095.62,-72.19 1085.06,-73 1093.82,-78.96 1095.62,-72.19"/>
</a>
</g>
</g>
<!-- Node28&#45;&gt;Node25 -->
<g id="edge47_Node000028_Node000025" class="edge">
<title>Node28&#45;&gt;Node25</title>
<g id="a_edge47_Node000028_Node000025"><a xlink:title=" ">
<path fill="none" stroke="#63b8ff" d="M1266.11,-115.37C1255.72,-106.3 1239.16,-91.84 1226.55,-80.82"/>
<polygon fill="#63b8ff" stroke="#63b8ff" points="1228.76,-78.11 1218.93,-74.17 1224.16,-83.38 1228.76,-78.11"/>
</a>
</g>
</g>
<!-- Node29 -->
<g id="Node000029" class="node">
<title>Node29</title>
<g id="a_Node000029"><a xlink:title=" ">
<polygon fill="#e0e0e0" stroke="#999999" points="1541,-74 1371,-74 1371,-55 1541,-55 1541,-74"/>
<text text-anchor="middle" x="1456" y="-62" font-family="Malgun Gothic" font-size="10.00">UBroadcastManger.generated.h</text>
</a>
</g>
</g>
<!-- Node28&#45;&gt;Node29 -->
<g id="edge48_Node000028_Node000029" class="edge">
<title>Node28&#45;&gt;Node29</title>
<g id="a_edge48_Node000028_Node000029"><a xlink:title=" ">
<path fill="none" stroke="#63b8ff" d="M1302.17,-115.49C1333.23,-105.4 1385.19,-88.51 1420.02,-77.19"/>
<polygon fill="#63b8ff" stroke="#63b8ff" points="1421.37,-80.44 1429.79,-74.02 1419.2,-73.78 1421.37,-80.44"/>
</a>
</g>
</g>
</g>
</svg>
