<?xml version="1.0" encoding="UTF-8" standalone="no"?>
<!DOCTYPE svg PUBLIC "-//W3C//DTD SVG 1.1//EN"
 "http://www.w3.org/Graphics/SVG/1.1/DTD/svg11.dtd">
<!-- Generated by graphviz version 2.43.0 (0)
 -->
<!-- Title: Source/YiSan/UI/Private/UMainWidget.cpp Pages: 1 -->
<svg width="1012pt" height="148pt"
 viewBox="0.00 0.00 1012.00 148.00" xmlns="http://www.w3.org/2000/svg" xmlns:xlink="http://www.w3.org/1999/xlink">
<g id="graph0" class="graph" transform="scale(1 1) rotate(0) translate(4 144)">
<title>Source/YiSan/UI/Private/UMainWidget.cpp</title>
<!-- Node1 -->
<g id="Node000001" class="node">
<title>Node1</title>
<g id="a_Node000001"><a xlink:title=" ">
<polygon fill="#999999" stroke="#666666" points="626.5,-140 495.5,-140 495.5,-110 626.5,-110 626.5,-140"/>
<text text-anchor="start" x="503.5" y="-128" font-family="Malgun Gothic" font-size="10.00">Source/YiSan/UI/Private</text>
<text text-anchor="middle" x="561" y="-117" font-family="Malgun Gothic" font-size="10.00">/UMainWidget.cpp</text>
</a>
</g>
</g>
<!-- Node2 -->
<g id="Node000002" class="node">
<title>Node2</title>
<g id="a_Node000002"><a xlink:href="UMainWidget_8h.html" target="_top" xlink:title=" ">
<polygon fill="white" stroke="#666666" points="358,-74 266,-74 266,-55 358,-55 358,-74"/>
<text text-anchor="middle" x="312" y="-62" font-family="Malgun Gothic" font-size="10.00">UMainWidget.h</text>
</a>
</g>
</g>
<!-- Node1&#45;&gt;Node2 -->
<g id="edge1_Node000001_Node000002" class="edge">
<title>Node1&#45;&gt;Node2</title>
<g id="a_edge1_Node000001_Node000002"><a xlink:title=" ">
<path fill="none" stroke="#63b8ff" d="M501.36,-109.99C457.46,-99.67 398.63,-85.85 358.25,-76.37"/>
<polygon fill="#63b8ff" stroke="#63b8ff" points="358.94,-72.93 348.41,-74.05 357.34,-79.75 358.94,-72.93"/>
</a>
</g>
</g>
<!-- Node6 -->
<g id="Node000006" class="node">
<title>Node6</title>
<g id="a_Node000006"><a xlink:href="UBroadcastManger_8h.html" target="_top" xlink:title="UBroadcastManger 선언에 대한 Doxygen 주석을 제공합니다.">
<polygon fill="white" stroke="#666666" points="544,-74 426,-74 426,-55 544,-55 544,-74"/>
<text text-anchor="middle" x="485" y="-62" font-family="Malgun Gothic" font-size="10.00">UBroadcastManger.h</text>
</a>
</g>
</g>
<!-- Node1&#45;&gt;Node6 -->
<g id="edge5_Node000001_Node000006" class="edge">
<title>Node1&#45;&gt;Node6</title>
<g id="a_edge5_Node000001_Node000006"><a xlink:title=" ">
<path fill="none" stroke="#63b8ff" d="M542.6,-109.84C531.12,-101 516.35,-89.63 504.64,-80.62"/>
<polygon fill="#63b8ff" stroke="#63b8ff" points="506.45,-77.59 496.39,-74.27 502.18,-83.14 506.45,-77.59"/>
</a>
</g>
</g>
<!-- Node11 -->
<g id="Node000011" class="node">
<title>Node11</title>
<g id="a_Node000011"><a xlink:title=" ">
<polygon fill="#e0e0e0" stroke="#999999" points="714,-74 562,-74 562,-55 714,-55 714,-74"/>
<text text-anchor="middle" x="638" y="-62" font-family="Malgun Gothic" font-size="10.00">Components/CanvasPanel.h</text>
</a>
</g>
</g>
<!-- Node1&#45;&gt;Node11 -->
<g id="edge11_Node000001_Node000011" class="edge">
<title>Node1&#45;&gt;Node11</title>
<g id="a_edge11_Node000001_Node000011"><a xlink:title=" ">
<path fill="none" stroke="#63b8ff" d="M579.64,-109.84C591.39,-100.91 606.53,-89.41 618.45,-80.35"/>
<polygon fill="#63b8ff" stroke="#63b8ff" points="620.62,-83.1 626.46,-74.27 616.38,-77.53 620.62,-83.1"/>
</a>
</g>
</g>
<!-- Node12 -->
<g id="Node000012" class="node">
<title>Node12</title>
<g id="a_Node000012"><a xlink:title=" ">
<polygon fill="#e0e0e0" stroke="#999999" points="901.5,-74 732.5,-74 732.5,-55 901.5,-55 901.5,-74"/>
<text text-anchor="middle" x="817" y="-62" font-family="Malgun Gothic" font-size="10.00">Components/EditableTextBox.h</text>
</a>
</g>
</g>
<!-- Node1&#45;&gt;Node12 -->
<g id="edge12_Node000001_Node000012" class="edge">
<title>Node1&#45;&gt;Node12</title>
<g id="a_edge12_Node000001_Node000012"><a xlink:title=" ">
<path fill="none" stroke="#63b8ff" d="M622.32,-109.99C667.55,-99.65 728.2,-85.79 769.71,-76.31"/>
<polygon fill="#63b8ff" stroke="#63b8ff" points="770.6,-79.69 779.57,-74.05 769.04,-72.87 770.6,-79.69"/>
</a>
</g>
</g>
<!-- Node3 -->
<g id="Node000003" class="node">
<title>Node3</title>
<g id="a_Node000003"><a xlink:title=" ">
<polygon fill="#e0e0e0" stroke="#999999" points="398,-19 310,-19 310,0 398,0 398,-19"/>
<text text-anchor="middle" x="354" y="-7" font-family="Malgun Gothic" font-size="10.00">CoreMinimal.h</text>
</a>
</g>
</g>
<!-- Node2&#45;&gt;Node3 -->
<g id="edge2_Node000002_Node000003" class="edge">
<title>Node2&#45;&gt;Node3</title>
<g id="a_edge2_Node000002_Node000003"><a xlink:title=" ">
<path fill="none" stroke="#63b8ff" d="M318.94,-54.75C324.87,-47.26 333.57,-36.28 340.82,-27.13"/>
<polygon fill="#63b8ff" stroke="#63b8ff" points="343.73,-29.1 347.19,-19.09 338.24,-24.75 343.73,-29.1"/>
</a>
</g>
</g>
<!-- Node4 -->
<g id="Node000004" class="node">
<title>Node4</title>
<g id="a_Node000004"><a xlink:title=" ">
<polygon fill="#e0e0e0" stroke="#999999" points="130,-19 0,-19 0,0 130,0 130,-19"/>
<text text-anchor="middle" x="65" y="-7" font-family="Malgun Gothic" font-size="10.00">Blueprint/UserWidget.h</text>
</a>
</g>
</g>
<!-- Node2&#45;&gt;Node4 -->
<g id="edge3_Node000002_Node000004" class="edge">
<title>Node2&#45;&gt;Node4</title>
<g id="a_edge3_Node000002_Node000004"><a xlink:title=" ">
<path fill="none" stroke="#63b8ff" d="M272.32,-54.98C229.5,-45.8 161.24,-31.15 114.84,-21.19"/>
<polygon fill="#63b8ff" stroke="#63b8ff" points="115.51,-17.76 105,-19.08 114.04,-24.6 115.51,-17.76"/>
</a>
</g>
</g>
<!-- Node5 -->
<g id="Node000005" class="node">
<title>Node5</title>
<g id="a_Node000005"><a xlink:title=" ">
<polygon fill="#e0e0e0" stroke="#999999" points="292,-19 148,-19 148,0 292,0 292,-19"/>
<text text-anchor="middle" x="220" y="-7" font-family="Malgun Gothic" font-size="10.00">UMainWidget.generated.h</text>
</a>
</g>
</g>
<!-- Node2&#45;&gt;Node5 -->
<g id="edge4_Node000002_Node000005" class="edge">
<title>Node2&#45;&gt;Node5</title>
<g id="a_edge4_Node000002_Node000005"><a xlink:title=" ">
<path fill="none" stroke="#63b8ff" d="M297.22,-54.98C282.82,-46.69 260.69,-33.94 243.81,-24.22"/>
<polygon fill="#63b8ff" stroke="#63b8ff" points="245.46,-21.13 235.05,-19.17 241.97,-27.19 245.46,-21.13"/>
</a>
</g>
</g>
<!-- Node6&#45;&gt;Node3 -->
<g id="edge6_Node000006_Node000003" class="edge">
<title>Node6&#45;&gt;Node3</title>
<g id="a_edge6_Node000006_Node000003"><a xlink:title=" ">
<path fill="none" stroke="#63b8ff" d="M463.95,-54.98C442.59,-46.34 409.3,-32.87 384.94,-23.02"/>
<polygon fill="#63b8ff" stroke="#63b8ff" points="386.01,-19.68 375.43,-19.17 383.39,-26.17 386.01,-19.68"/>
</a>
</g>
</g>
<!-- Node7 -->
<g id="Node000007" class="node">
<title>Node7</title>
<g id="a_Node000007"><a xlink:href="Macro_8h.html" target="_top" xlink:title="Manager 모듈에서 공통으로 사용하는 매크로 정의에 대한 Doxygen 주석을 제공합니다.">
<polygon fill="white" stroke="#666666" points="472,-19 416,-19 416,0 472,0 472,-19"/>
<text text-anchor="middle" x="444" y="-7" font-family="Malgun Gothic" font-size="10.00">Macro.h</text>
</a>
</g>
</g>
<!-- Node6&#45;&gt;Node7 -->
<g id="edge7_Node000006_Node000007" class="edge">
<title>Node6&#45;&gt;Node7</title>
<g id="a_edge7_Node000006_Node000007"><a xlink:title=" ">
<path fill="none" stroke="#63b8ff" d="M478.23,-54.75C472.44,-47.26 463.94,-36.28 456.86,-27.13"/>
<polygon fill="#63b8ff" stroke="#63b8ff" points="459.53,-24.86 450.64,-19.09 453.99,-29.14 459.53,-24.86"/>
</a>
</g>
</g>
<!-- Node8 -->
<g id="Node000008" class="node">
<title>Node8</title>
<g id="a_Node000008"><a xlink:href="EDamageType_8h.html" target="_top" xlink:title="EDamageType 열거형에 대한 Doxygen 주석을 제공합니다.">
<polygon fill="white" stroke="#666666" points="585.5,-19 490.5,-19 490.5,0 585.5,0 585.5,-19"/>
<text text-anchor="middle" x="538" y="-7" font-family="Malgun Gothic" font-size="10.00">EDamageType.h</text>
</a>
</g>
</g>
<!-- Node6&#45;&gt;Node8 -->
<g id="edge8_Node000006_Node000008" class="edge">
<title>Node6&#45;&gt;Node8</title>
<g id="a_edge8_Node000006_Node000008"><a xlink:title=" ">
<path fill="none" stroke="#63b8ff" d="M493.75,-54.75C501.47,-47.03 512.9,-35.6 522.22,-26.28"/>
<polygon fill="#63b8ff" stroke="#63b8ff" points="524.81,-28.64 529.41,-19.09 519.86,-23.69 524.81,-28.64"/>
</a>
</g>
</g>
<!-- Node9 -->
<g id="Node000009" class="node">
<title>Node9</title>
<g id="a_Node000009"><a xlink:title=" ">
<polygon fill="#e0e0e0" stroke="#999999" points="816,-19 604,-19 604,0 816,0 816,-19"/>
<text text-anchor="middle" x="710" y="-7" font-family="Malgun Gothic" font-size="10.00">Subsystems/GameInstanceSubsystem.h</text>
</a>
</g>
</g>
<!-- Node6&#45;&gt;Node9 -->
<g id="edge9_Node000006_Node000009" class="edge">
<title>Node6&#45;&gt;Node9</title>
<g id="a_edge9_Node000006_Node000009"><a xlink:title=" ">
<path fill="none" stroke="#63b8ff" d="M521.15,-54.98C559.91,-45.86 621.55,-31.33 663.8,-21.38"/>
<polygon fill="#63b8ff" stroke="#63b8ff" points="664.64,-24.78 673.57,-19.08 663.03,-17.97 664.64,-24.78"/>
</a>
</g>
</g>
<!-- Node10 -->
<g id="Node000010" class="node">
<title>Node10</title>
<g id="a_Node000010"><a xlink:title=" ">
<polygon fill="#e0e0e0" stroke="#999999" points="1004,-19 834,-19 834,0 1004,0 1004,-19"/>
<text text-anchor="middle" x="919" y="-7" font-family="Malgun Gothic" font-size="10.00">UBroadcastManger.generated.h</text>
</a>
</g>
</g>
<!-- Node6&#45;&gt;Node10 -->
<g id="edge10_Node000006_Node000010" class="edge">
<title>Node6&#45;&gt;Node10</title>
<g id="a_edge10_Node000006_Node000010"><a xlink:title=" ">
<path fill="none" stroke="#63b8ff" d="M544.34,-56.07C547.27,-55.71 550.17,-55.35 553,-55 651.14,-42.9 764.12,-29.2 838.28,-20.23"/>
<polygon fill="#63b8ff" stroke="#63b8ff" points="838.98,-23.68 848.49,-19 838.14,-16.73 838.98,-23.68"/>
</a>
</g>
</g>
</g>
</svg>
