<?xml version="1.0" encoding="UTF-8" standalone="no"?>
<!DOCTYPE svg PUBLIC "-//W3C//DTD SVG 1.1//EN"
 "http://www.w3.org/Graphics/SVG/1.1/DTD/svg11.dtd">
<!-- Generated by graphviz version 2.43.0 (0)
 -->
<!-- Title: Source/YiSan/UI/Private/UMainWdget.cpp Pages: 1 -->
<!--zoomable 269 -->

<svg id="main" version="1.1" xmlns="http://www.w3.org/2000/svg" xmlns:xlink="http://www.w3.org/1999/xlink" xml:space="preserve" onload="init(evt)">
<style type="text/css"><![CDATA[
.node, .edge {opacity: 0.7;}
.node.selected, .edge.selected {opacity: 1;}
.edge:hover path { stroke: red; }
.edge:hover polygon { stroke: red; fill: red; }
]]></style>

<defs>
  <circle id="rim" cx="0" cy="0" r="7"/>
  <circle id="rim2" cx="0" cy="0" r="3.5"/>
  <g id="zoomPlus">
    <use xlink:href="#rim" fill="#404040"><set attributeName="fill" to="#808080" begin="zoomplus.mouseover" end="zoomplus.mouseout"/></use>
    <path d="M-4,0h8M0,-4v8" fill="none" stroke="white" stroke-width="1.5" pointer-events="none"/>
  </g>
  <g id="zoomMin">
    <use xlink:href="#rim" fill="#404040"><set attributeName="fill" to="#808080" begin="zoomminus.mouseover" end="zoomminus.mouseout"/></use>
    <path d="M-4,0h8" fill="none" stroke="white" stroke-width="1.5" pointer-events="none"/>
  </g>
  <g id="arrowUp" transform="translate(30 24)">
    <use xlink:href="#rim"/>
    <path pointer-events="none" fill="none" stroke="white" stroke-width="1.5" d="M0,-3.0v7 M-2.5,-0.5L0,-3.0L2.5,-0.5"/>
  </g>
  <g id="arrowRight" transform="rotate(90) translate(36 -43)">
    <use xlink:href="#rim"/>
    <path pointer-events="none" fill="none" stroke="white" stroke-width="1.5" d="M0,-3.0v7 M-2.5,-0.5L0,-3.0L2.5,-0.5"/>
  </g>
  <g id="arrowDown" transform="rotate(180) translate(-30 -48)">
    <use xlink:href="#rim"/>
    <path pointer-events="none" fill="none" stroke="white" stroke-width="1.5" d="M0,-3.0v7 M-2.5,-0.5L0,-3.0L2.5,-0.5"/>
  </g>
  <g id="arrowLeft" transform="rotate(270) translate(-36 17)">
    <use xlink:href="#rim"/>
    <path pointer-events="none" fill="none" stroke="white" stroke-width="1.5" d="M0,-3.0v7 M-2.5,-0.5L0,-3.0L2.5,-0.5"/>
  </g>
  <g id="resetDef">
    <use xlink:href="#rim2" fill="#404040"><set attributeName="fill" to="#808080" begin="reset.mouseover" end="reset.mouseout"/></use>
  </g>
</defs>
<script type="application/ecmascript">
var viewWidth = 1881;
var viewHeight = 269;
var sectionId = 'dynsection-0';
</script>
<script type="application/ecmascript" xlink:href="svg.min.js"/>
<svg id="graph" class="graph">
<g id="viewport">
<title>Source/YiSan/UI/Private/UMainWdget.cpp</title>
<!-- Node1 -->
<g id="Node000001" class="node">
<title>Node1</title>
<g id="a_Node000001"><a xlink:title=" ">
<polygon fill="#999999" stroke="#666666" points="836.5,-261 705.5,-261 705.5,-231 836.5,-231 836.5,-261"/>
<text text-anchor="start" x="713.5" y="-249" font-family="Malgun Gothic" font-size="10.00">Source/YiSan/UI/Private</text>
<text text-anchor="middle" x="771" y="-238" font-family="Malgun Gothic" font-size="10.00">/UMainWdget.cpp</text>
</a>
</g>
</g>
<!-- Node2 -->
<g id="Node000002" class="node">
<title>Node2</title>
<g id="a_Node000002"><a xlink:href="UMainWdget_8h.html" target="_top" xlink:title=" ">
<polygon fill="white" stroke="#666666" points="313.5,-189.5 224.5,-189.5 224.5,-170.5 313.5,-170.5 313.5,-189.5"/>
<text text-anchor="middle" x="269" y="-177.5" font-family="Malgun Gothic" font-size="10.00">UMainWdget.h</text>
</a>
</g>
</g>
<!-- Node1&#45;&gt;Node2 -->
<g id="edge1_Node000001_Node000002" class="edge">
<title>Node1&#45;&gt;Node2</title>
<g id="a_edge1_Node000001_Node000002"><a xlink:title=" ">
<path fill="none" stroke="#63b8ff" d="M705.37,-236.63C605.34,-223.88 416.56,-199.81 323.57,-187.96"/>
<polygon fill="#63b8ff" stroke="#63b8ff" points="323.89,-184.47 313.53,-186.68 323,-191.41 323.89,-184.47"/>
</a>
</g>
</g>
<!-- Node6 -->
<g id="Node000006" class="node">
<title>Node6</title>
<g id="a_Node000006"><a xlink:href="YiSan_8h.html" target="_top" xlink:title=" ">
<polygon fill="white" stroke="#666666" points="733.5,-189.5 680.5,-189.5 680.5,-170.5 733.5,-170.5 733.5,-189.5"/>
<text text-anchor="middle" x="707" y="-177.5" font-family="Malgun Gothic" font-size="10.00">YiSan.h</text>
</a>
</g>
</g>
<!-- Node1&#45;&gt;Node6 -->
<g id="edge5_Node000001_Node000006" class="edge">
<title>Node1&#45;&gt;Node6</title>
<g id="a_edge5_Node000001_Node000006"><a xlink:title=" ">
<path fill="none" stroke="#63b8ff" d="M756.8,-230.8C746.82,-220.82 733.46,-207.46 723.09,-197.09"/>
<polygon fill="#63b8ff" stroke="#63b8ff" points="725.39,-194.44 715.84,-189.84 720.44,-199.39 725.39,-194.44"/>
</a>
</g>
</g>
<!-- Node7 -->
<g id="Node000007" class="node">
<title>Node7</title>
<g id="a_Node000007"><a xlink:href="GameLogging_8h.html" target="_top" xlink:title="GameLogging 선언에 대한 Doxygen 주석을 제공합니다.">
<polygon fill="white" stroke="#666666" points="665.5,-129 572.5,-129 572.5,-110 665.5,-110 665.5,-129"/>
<text text-anchor="middle" x="619" y="-117" font-family="Malgun Gothic" font-size="10.00">GameLogging.h</text>
</a>
</g>
</g>
<!-- Node1&#45;&gt;Node7 -->
<g id="edge7_Node000001_Node000007" class="edge">
<title>Node1&#45;&gt;Node7</title>
<g id="a_edge7_Node000001_Node000007"><a xlink:title=" ">
<path fill="none" stroke="#63b8ff" d="M732.22,-230.97C712.47,-222.56 688.92,-210.48 671,-195 652.42,-178.95 637.2,-154.86 628.14,-138.46"/>
<polygon fill="#63b8ff" stroke="#63b8ff" points="631.09,-136.56 623.31,-129.37 624.91,-139.85 631.09,-136.56"/>
</a>
</g>
</g>
<!-- Node12 -->
<g id="Node000012" class="node">
<title>Node12</title>
<g id="a_Node000012"><a xlink:title=" ">
<polygon fill="#e0e0e0" stroke="#999999" points="920.5,-189.5 751.5,-189.5 751.5,-170.5 920.5,-170.5 920.5,-189.5"/>
<text text-anchor="middle" x="836" y="-177.5" font-family="Malgun Gothic" font-size="10.00">Components/EditableTextBox.h</text>
</a>
</g>
</g>
<!-- Node1&#45;&gt;Node12 -->
<g id="edge15_Node000001_Node000012" class="edge">
<title>Node1&#45;&gt;Node12</title>
<g id="a_edge15_Node000001_Node000012"><a xlink:title=" ">
<path fill="none" stroke="#63b8ff" d="M785.43,-230.8C795.56,-220.82 809.13,-207.46 819.66,-197.09"/>
<polygon fill="#63b8ff" stroke="#63b8ff" points="822.35,-199.35 827.02,-189.84 817.44,-194.37 822.35,-199.35"/>
</a>
</g>
</g>
<!-- Node13 -->
<g id="Node000013" class="node">
<title>Node13</title>
<g id="a_Node000013"><a xlink:href="APlayerActor_8h.html" target="_top" xlink:title="APlayerActor 선언에 대한 Doxygen 주석을 제공합니다.">
<polygon fill="white" stroke="#666666" points="1063.5,-195 938.5,-195 938.5,-165 1063.5,-165 1063.5,-195"/>
<text text-anchor="start" x="946.5" y="-183" font-family="Malgun Gothic" font-size="10.00">LatteLibrary/Character</text>
<text text-anchor="middle" x="1001" y="-172" font-family="Malgun Gothic" font-size="10.00">/Public/APlayerActor.h</text>
</a>
</g>
</g>
<!-- Node1&#45;&gt;Node13 -->
<g id="edge16_Node000001_Node000013" class="edge">
<title>Node1&#45;&gt;Node13</title>
<g id="a_edge16_Node000001_Node000013"><a xlink:title=" ">
<path fill="none" stroke="#63b8ff" d="M821.47,-230.95C856.68,-221.16 903.81,-208.05 940.94,-197.71"/>
<polygon fill="#63b8ff" stroke="#63b8ff" points="941.95,-201.07 950.64,-195.01 940.07,-194.32 941.95,-201.07"/>
</a>
</g>
</g>
<!-- Node26 -->
<g id="Node000026" class="node">
<title>Node26</title>
<g id="a_Node000026"><a xlink:title=" ">
<polygon fill="#e0e0e0" stroke="#999999" points="1270.5,-195 1081.5,-195 1081.5,-165 1270.5,-165 1270.5,-195"/>
<text text-anchor="start" x="1089.5" y="-183" font-family="Malgun Gothic" font-size="10.00">LatteLibrary/Character</text>
<text text-anchor="middle" x="1176" y="-172" font-family="Malgun Gothic" font-size="10.00">/Public/UVoiceCaptureComponent.h</text>
</a>
</g>
</g>
<!-- Node1&#45;&gt;Node26 -->
<g id="edge34_Node000001_Node000026" class="edge">
<title>Node1&#45;&gt;Node26</title>
<g id="a_edge34_Node000001_Node000026"><a xlink:title=" ">
<path fill="none" stroke="#63b8ff" d="M836.52,-234.65C901.65,-224.35 1002.38,-208.44 1077.22,-196.61"/>
<polygon fill="#63b8ff" stroke="#63b8ff" points="1077.81,-200.06 1087.14,-195.04 1076.71,-193.15 1077.81,-200.06"/>
</a>
</g>
</g>
<!-- Node3 -->
<g id="Node000003" class="node">
<title>Node3</title>
<g id="a_Node000003"><a xlink:title=" ">
<polygon fill="#e0e0e0" stroke="#999999" points="887,-19 799,-19 799,0 887,0 887,-19"/>
<text text-anchor="middle" x="843" y="-7" font-family="Malgun Gothic" font-size="10.00">CoreMinimal.h</text>
</a>
</g>
</g>
<!-- Node2&#45;&gt;Node3 -->
<g id="edge2_Node000002_Node000003" class="edge">
<title>Node2&#45;&gt;Node3</title>
<g id="a_edge2_Node000002_Node000003"><a xlink:title=" ">
<path fill="none" stroke="#63b8ff" d="M274.24,-170.21C280.14,-160.27 289.94,-143.58 298,-129 316,-96.47 306.04,-75.58 337,-55 373.93,-30.45 665.19,-17.01 788.33,-12.37"/>
<polygon fill="#63b8ff" stroke="#63b8ff" points="788.8,-15.86 798.66,-11.99 788.54,-8.86 788.8,-15.86"/>
</a>
</g>
</g>
<!-- Node4 -->
<g id="Node000004" class="node">
<title>Node4</title>
<g id="a_Node000004"><a xlink:title=" ">
<polygon fill="#e0e0e0" stroke="#999999" points="130,-129 0,-129 0,-110 130,-110 130,-129"/>
<text text-anchor="middle" x="65" y="-117" font-family="Malgun Gothic" font-size="10.00">Blueprint/UserWidget.h</text>
</a>
</g>
</g>
<!-- Node2&#45;&gt;Node4 -->
<g id="edge3_Node000002_Node000004" class="edge">
<title>Node2&#45;&gt;Node4</title>
<g id="a_edge3_Node000002_Node000004"><a xlink:title=" ">
<path fill="none" stroke="#63b8ff" d="M239.34,-170.49C203.76,-160.29 143.98,-143.15 104.52,-131.83"/>
<polygon fill="#63b8ff" stroke="#63b8ff" points="105.28,-128.41 94.7,-129.02 103.35,-135.14 105.28,-128.41"/>
</a>
</g>
</g>
<!-- Node5 -->
<g id="Node000005" class="node">
<title>Node5</title>
<g id="a_Node000005"><a xlink:title=" ">
<polygon fill="#e0e0e0" stroke="#999999" points="289.5,-129 148.5,-129 148.5,-110 289.5,-110 289.5,-129"/>
<text text-anchor="middle" x="219" y="-117" font-family="Malgun Gothic" font-size="10.00">UMainWdget.generated.h</text>
</a>
</g>
</g>
<!-- Node2&#45;&gt;Node5 -->
<g id="edge4_Node000002_Node000005" class="edge">
<title>Node2&#45;&gt;Node5</title>
<g id="a_edge4_Node000002_Node000005"><a xlink:title=" ">
<path fill="none" stroke="#63b8ff" d="M261.62,-170.37C254.09,-161.55 242.21,-147.66 232.91,-136.77"/>
<polygon fill="#63b8ff" stroke="#63b8ff" points="235.57,-134.5 226.41,-129.17 230.24,-139.04 235.57,-134.5"/>
</a>
</g>
</g>
<!-- Node6&#45;&gt;Node3 -->
<g id="edge6_Node000006_Node000003" class="edge">
<title>Node6&#45;&gt;Node3</title>
<g id="a_edge6_Node000006_Node000003"><a xlink:title=" ">
<path fill="none" stroke="#63b8ff" d="M720.78,-170.39C745.23,-154.42 796.23,-117.8 824,-74 832.67,-60.33 837.54,-42.52 840.18,-29.24"/>
<polygon fill="#63b8ff" stroke="#63b8ff" points="843.64,-29.79 841.9,-19.34 836.74,-28.59 843.64,-29.79"/>
</a>
</g>
</g>
<!-- Node7&#45;&gt;Node3 -->
<g id="edge8_Node000007_Node000003" class="edge">
<title>Node7&#45;&gt;Node3</title>
<g id="a_edge8_Node000007_Node000003"><a xlink:title=" ">
<path fill="none" stroke="#63b8ff" d="M617.09,-109.84C614.65,-96.29 612.25,-70.08 626,-55 647.4,-31.52 731.56,-19.81 788.56,-14.46"/>
<polygon fill="#63b8ff" stroke="#63b8ff" points="789.22,-17.92 798.87,-13.54 788.59,-10.94 789.22,-17.92"/>
</a>
</g>
</g>
<!-- Node8 -->
<g id="Node000008" class="node">
<title>Node8</title>
<g id="a_Node000008"><a xlink:title=" ">
<polygon fill="#e0e0e0" stroke="#999999" points="465.5,-74 346.5,-74 346.5,-55 465.5,-55 465.5,-74"/>
<text text-anchor="middle" x="406" y="-62" font-family="Malgun Gothic" font-size="10.00">Logging/LogMacros.h</text>
</a>
</g>
</g>
<!-- Node7&#45;&gt;Node8 -->
<g id="edge9_Node000007_Node000008" class="edge">
<title>Node7&#45;&gt;Node8</title>
<g id="a_edge9_Node000007_Node000008"><a xlink:title=" ">
<path fill="none" stroke="#63b8ff" d="M584.78,-109.98C548.24,-100.89 490.22,-86.46 450.24,-76.51"/>
<polygon fill="#63b8ff" stroke="#63b8ff" points="451.04,-73.1 440.49,-74.08 449.35,-79.89 451.04,-73.1"/>
</a>
</g>
</g>
<!-- Node9 -->
<g id="Node000009" class="node">
<title>Node9</title>
<g id="a_Node000009"><a xlink:title=" ">
<polygon fill="#e0e0e0" stroke="#999999" points="578.5,-74 483.5,-74 483.5,-55 578.5,-55 578.5,-74"/>
<text text-anchor="middle" x="531" y="-62" font-family="Malgun Gothic" font-size="10.00">Engine/Engine.h</text>
</a>
</g>
</g>
<!-- Node7&#45;&gt;Node9 -->
<g id="edge10_Node000007_Node000009" class="edge">
<title>Node7&#45;&gt;Node9</title>
<g id="a_edge10_Node000007_Node000009"><a xlink:title=" ">
<path fill="none" stroke="#63b8ff" d="M604.86,-109.98C591.21,-101.77 570.31,-89.18 554.22,-79.49"/>
<polygon fill="#63b8ff" stroke="#63b8ff" points="555.77,-76.33 545.4,-74.17 552.16,-82.33 555.77,-76.33"/>
</a>
</g>
</g>
<!-- Node10 -->
<g id="Node000010" class="node">
<title>Node10</title>
<g id="a_Node000010"><a xlink:href="FLogWriter_8h.html" target="_top" xlink:title="FLogWriter 선언에 대한 Doxygen 주석을 제공합니다.">
<polygon fill="white" stroke="#666666" points="713,-74 635,-74 635,-55 713,-55 713,-74"/>
<text text-anchor="middle" x="674" y="-62" font-family="Malgun Gothic" font-size="10.00">FLogWriter.h</text>
</a>
</g>
</g>
<!-- Node7&#45;&gt;Node10 -->
<g id="edge11_Node000007_Node000010" class="edge">
<title>Node7&#45;&gt;Node10</title>
<g id="a_edge11_Node000007_Node000010"><a xlink:title=" ">
<path fill="none" stroke="#63b8ff" d="M628.08,-109.75C636.09,-102.03 647.96,-90.6 657.62,-81.28"/>
<polygon fill="#63b8ff" stroke="#63b8ff" points="660.31,-83.55 665.09,-74.09 655.46,-78.51 660.31,-83.55"/>
</a>
</g>
</g>
<!-- Node11 -->
<g id="Node000011" class="node">
<title>Node11</title>
<g id="a_Node000011"><a xlink:href="NetworkLog_8h.html" target="_top" xlink:title="NetworkLog 선언에 대한 Doxygen 주석을 제공합니다.">
<polygon fill="white" stroke="#666666" points="815,-74 731,-74 731,-55 815,-55 815,-74"/>
<text text-anchor="middle" x="773" y="-62" font-family="Malgun Gothic" font-size="10.00">NetworkLog.h</text>
</a>
</g>
</g>
<!-- Node7&#45;&gt;Node11 -->
<g id="edge13_Node000007_Node000011" class="edge">
<title>Node7&#45;&gt;Node11</title>
<g id="a_edge13_Node000007_Node000011"><a xlink:title=" ">
<path fill="none" stroke="#63b8ff" d="M643.74,-109.98C669.37,-101.16 709.63,-87.31 738.41,-77.41"/>
<polygon fill="#63b8ff" stroke="#63b8ff" points="739.75,-80.65 748.06,-74.08 737.47,-74.03 739.75,-80.65"/>
</a>
</g>
</g>
<!-- Node10&#45;&gt;Node3 -->
<g id="edge12_Node000010_Node000003" class="edge">
<title>Node10&#45;&gt;Node3</title>
<g id="a_edge12_Node000010_Node000003"><a xlink:title=" ">
<path fill="none" stroke="#63b8ff" d="M701.15,-54.98C729.53,-46.09 774.23,-32.07 805.86,-22.15"/>
<polygon fill="#63b8ff" stroke="#63b8ff" points="807.14,-25.41 815.63,-19.08 805.05,-18.73 807.14,-25.41"/>
</a>
</g>
</g>
<!-- Node11&#45;&gt;Node3 -->
<g id="edge14_Node000011_Node000003" class="edge">
<title>Node11&#45;&gt;Node3</title>
<g id="a_edge14_Node000011_Node000003"><a xlink:title=" ">
<path fill="none" stroke="#63b8ff" d="M784.25,-54.98C794.8,-47 810.8,-34.88 823.44,-25.31"/>
<polygon fill="#63b8ff" stroke="#63b8ff" points="825.69,-28 831.55,-19.17 821.46,-22.42 825.69,-28"/>
</a>
</g>
</g>
<!-- Node13&#45;&gt;Node3 -->
<g id="edge17_Node000013_Node000003" class="edge">
<title>Node13&#45;&gt;Node3</title>
<g id="a_edge17_Node000013_Node000003"><a xlink:title=" ">
<path fill="none" stroke="#63b8ff" d="M972.65,-164.89C956.61,-156.02 936.86,-143.52 922,-129 890.44,-98.18 864.5,-52.76 851.67,-28.06"/>
<polygon fill="#63b8ff" stroke="#63b8ff" points="854.78,-26.46 847.14,-19.13 848.54,-29.63 854.78,-26.46"/>
</a>
</g>
</g>
<!-- Node14 -->
<g id="Node000014" class="node">
<title>Node14</title>
<g id="a_Node000014"><a xlink:href="AGameCharacter_8h.html" target="_top" xlink:title="LatteLibrary 전반에서 사용하는 기반 캐릭터 클래스를 선언합니다.">
<polygon fill="white" stroke="#666666" points="1260,-129 1152,-129 1152,-110 1260,-110 1260,-129"/>
<text text-anchor="middle" x="1206" y="-117" font-family="Malgun Gothic" font-size="10.00">AGameCharacter.h</text>
</a>
</g>
</g>
<!-- Node13&#45;&gt;Node14 -->
<g id="edge18_Node000013_Node000014" class="edge">
<title>Node13&#45;&gt;Node14</title>
<g id="a_edge18_Node000013_Node000014"><a xlink:title=" ">
<path fill="none" stroke="#63b8ff" d="M1050.1,-164.99C1085.63,-154.85 1133.04,-141.32 1166.22,-131.85"/>
<polygon fill="#63b8ff" stroke="#63b8ff" points="1167.37,-135.16 1176.03,-129.05 1165.45,-128.43 1167.37,-135.16"/>
</a>
</g>
</g>
<!-- Node22 -->
<g id="Node000022" class="node">
<title>Node22</title>
<g id="a_Node000022"><a xlink:href="IControllable_8h.html" target="_top" xlink:title="IControllable 인터페이스 선언에 대한 Doxygen 주석을 제공합니다.">
<polygon fill="white" stroke="#666666" points="1588,-129 1500,-129 1500,-110 1588,-110 1588,-129"/>
<text text-anchor="middle" x="1544" y="-117" font-family="Malgun Gothic" font-size="10.00">IControllable.h</text>
</a>
</g>
</g>
<!-- Node13&#45;&gt;Node22 -->
<g id="edge29_Node000013_Node000022" class="edge">
<title>Node13&#45;&gt;Node22</title>
<g id="a_edge29_Node000013_Node000022"><a xlink:title=" ">
<path fill="none" stroke="#63b8ff" d="M1063.66,-166.29C1066.48,-165.83 1069.26,-165.4 1072,-165 1222.63,-143.11 1401.94,-129.62 1489.89,-123.82"/>
<polygon fill="#63b8ff" stroke="#63b8ff" points="1490.15,-127.31 1499.9,-123.17 1489.69,-120.33 1490.15,-127.31"/>
</a>
</g>
</g>
<!-- Node25 -->
<g id="Node000025" class="node">
<title>Node25</title>
<g id="a_Node000025"><a xlink:title=" ">
<polygon fill="#e0e0e0" stroke="#999999" points="1071,-129 931,-129 931,-110 1071,-110 1071,-129"/>
<text text-anchor="middle" x="1001" y="-117" font-family="Malgun Gothic" font-size="10.00">APlayerActor.generated.h</text>
</a>
</g>
</g>
<!-- Node13&#45;&gt;Node25 -->
<g id="edge33_Node000013_Node000025" class="edge">
<title>Node13&#45;&gt;Node25</title>
<g id="a_edge33_Node000013_Node000025"><a xlink:title=" ">
<path fill="none" stroke="#63b8ff" d="M1001,-164.84C1001,-157.21 1001,-147.7 1001,-139.45"/>
<polygon fill="#63b8ff" stroke="#63b8ff" points="1004.5,-139.27 1001,-129.27 997.5,-139.27 1004.5,-139.27"/>
</a>
</g>
</g>
<!-- Node14&#45;&gt;Node3 -->
<g id="edge19_Node000014_Node000003" class="edge">
<title>Node14&#45;&gt;Node3</title>
<g id="a_edge19_Node000014_Node000003"><a xlink:title=" ">
<path fill="none" stroke="#63b8ff" d="M1151.84,-116.21C1096.4,-112.34 1008.61,-101.95 938,-74 908.52,-62.33 878.81,-40.48 860.66,-25.71"/>
<polygon fill="#63b8ff" stroke="#63b8ff" points="862.65,-22.81 852.73,-19.1 858.17,-28.19 862.65,-22.81"/>
</a>
</g>
</g>
<!-- Node15 -->
<g id="Node000015" class="node">
<title>Node15</title>
<g id="a_Node000015"><a xlink:title=" ">
<polygon fill="#e0e0e0" stroke="#999999" points="1285.5,-74 1126.5,-74 1126.5,-55 1285.5,-55 1285.5,-74"/>
<text text-anchor="middle" x="1206" y="-62" font-family="Malgun Gothic" font-size="10.00">GameFramework/Character.h</text>
</a>
</g>
</g>
<!-- Node14&#45;&gt;Node15 -->
<g id="edge20_Node000014_Node000015" class="edge">
<title>Node14&#45;&gt;Node15</title>
<g id="a_edge20_Node000014_Node000015"><a xlink:title=" ">
<path fill="none" stroke="#63b8ff" d="M1206,-109.75C1206,-102.8 1206,-92.85 1206,-84.13"/>
<polygon fill="#63b8ff" stroke="#63b8ff" points="1209.5,-84.09 1206,-74.09 1202.5,-84.09 1209.5,-84.09"/>
</a>
</g>
</g>
<!-- Node16 -->
<g id="Node000016" class="node">
<title>Node16</title>
<g id="a_Node000016"><a xlink:href="EBodyPartType_8h.html" target="_top" xlink:title="EBodyPartType 열거형에 대한 Doxygen 주석을 제공합니다.">
<polygon fill="white" stroke="#666666" points="1401,-74 1303,-74 1303,-55 1401,-55 1401,-74"/>
<text text-anchor="middle" x="1352" y="-62" font-family="Malgun Gothic" font-size="10.00">EBodyPartType.h</text>
</a>
</g>
</g>
<!-- Node14&#45;&gt;Node16 -->
<g id="edge21_Node000014_Node000016" class="edge">
<title>Node14&#45;&gt;Node16</title>
<g id="a_edge21_Node000014_Node000016"><a xlink:title=" ">
<path fill="none" stroke="#63b8ff" d="M1229.46,-109.98C1253.58,-101.23 1291.37,-87.51 1318.6,-77.62"/>
<polygon fill="#63b8ff" stroke="#63b8ff" points="1319.91,-80.87 1328.12,-74.17 1317.52,-74.29 1319.91,-80.87"/>
</a>
</g>
</g>
<!-- Node17 -->
<g id="Node000017" class="node">
<title>Node17</title>
<g id="a_Node000017"><a xlink:href="ECharacterType_8h.html" target="_top" xlink:title="ECharacterType 열거형에 대한 Doxygen 주석을 제공합니다.">
<polygon fill="white" stroke="#666666" points="1666.5,-19 1565.5,-19 1565.5,0 1666.5,0 1666.5,-19"/>
<text text-anchor="middle" x="1616" y="-7" font-family="Malgun Gothic" font-size="10.00">ECharacterType.h</text>
</a>
</g>
</g>
<!-- Node14&#45;&gt;Node17 -->
<g id="edge22_Node000014_Node000017" class="edge">
<title>Node14&#45;&gt;Node17</title>
<g id="a_edge22_Node000014_Node000017"><a xlink:title=" ">
<path fill="none" stroke="#63b8ff" d="M1260.34,-115.97C1345.18,-111.29 1504.6,-99.36 1555,-74 1576.03,-63.42 1593.84,-42.58 1604.69,-27.66"/>
<polygon fill="#63b8ff" stroke="#63b8ff" points="1607.68,-29.49 1610.51,-19.28 1601.93,-25.5 1607.68,-29.49"/>
</a>
</g>
</g>
<!-- Node18 -->
<g id="Node000018" class="node">
<title>Node18</title>
<g id="a_Node000018"><a xlink:href="UStatSystem_8h.html" target="_top" xlink:title="UStatSystem 선언에 대한 Doxygen 주석을 제공합니다.">
<polygon fill="white" stroke="#666666" points="1546.5,-74 1457.5,-74 1457.5,-55 1546.5,-55 1546.5,-74"/>
<text text-anchor="middle" x="1502" y="-62" font-family="Malgun Gothic" font-size="10.00">UStatSystem.h</text>
</a>
</g>
</g>
<!-- Node14&#45;&gt;Node18 -->
<g id="edge23_Node000014_Node000018" class="edge">
<title>Node14&#45;&gt;Node18</title>
<g id="a_edge23_Node000014_Node000018"><a xlink:title=" ">
<path fill="none" stroke="#63b8ff" d="M1253.56,-109.98C1306.48,-100.51 1391.85,-85.22 1447.45,-75.27"/>
<polygon fill="#63b8ff" stroke="#63b8ff" points="1448.24,-78.68 1457.47,-73.47 1447.01,-71.79 1448.24,-78.68"/>
</a>
</g>
</g>
<!-- Node21 -->
<g id="Node000021" class="node">
<title>Node21</title>
<g id="a_Node000021"><a xlink:title=" ">
<polygon fill="#e0e0e0" stroke="#999999" points="1108.5,-74 947.5,-74 947.5,-55 1108.5,-55 1108.5,-74"/>
<text text-anchor="middle" x="1028" y="-62" font-family="Malgun Gothic" font-size="10.00">AGameCharacter.generated.h</text>
</a>
</g>
</g>
<!-- Node14&#45;&gt;Node21 -->
<g id="edge28_Node000014_Node000021" class="edge">
<title>Node14&#45;&gt;Node21</title>
<g id="a_edge28_Node000014_Node000021"><a xlink:title=" ">
<path fill="none" stroke="#63b8ff" d="M1177.4,-109.98C1147.39,-101.05 1100.02,-86.94 1066.68,-77.02"/>
<polygon fill="#63b8ff" stroke="#63b8ff" points="1067.41,-73.58 1056.82,-74.08 1065.41,-80.29 1067.41,-73.58"/>
</a>
</g>
</g>
<!-- Node18&#45;&gt;Node3 -->
<g id="edge24_Node000018_Node000003" class="edge">
<title>Node18&#45;&gt;Node3</title>
<g id="a_edge24_Node000018_Node000003"><a xlink:title=" ">
<path fill="none" stroke="#63b8ff" d="M1457.26,-56.72C1452.45,-56.09 1447.63,-55.5 1443,-55 1242.27,-33.12 1002.56,-18.91 897.2,-13.26"/>
<polygon fill="#63b8ff" stroke="#63b8ff" points="897.3,-9.76 887.13,-12.73 896.93,-16.75 897.3,-9.76"/>
</a>
</g>
</g>
<!-- Node18&#45;&gt;Node17 -->
<g id="edge25_Node000018_Node000017" class="edge">
<title>Node18&#45;&gt;Node17</title>
<g id="a_edge25_Node000018_Node000017"><a xlink:title=" ">
<path fill="none" stroke="#63b8ff" d="M1520.32,-54.98C1538.66,-46.46 1567.11,-33.23 1588.23,-23.41"/>
<polygon fill="#63b8ff" stroke="#63b8ff" points="1589.76,-26.56 1597.35,-19.17 1586.81,-20.21 1589.76,-26.56"/>
</a>
</g>
</g>
<!-- Node19 -->
<g id="Node000019" class="node">
<title>Node19</title>
<g id="a_Node000019"><a xlink:title=" ">
<polygon fill="#e0e0e0" stroke="#999999" points="1547,-19 1375,-19 1375,0 1547,0 1547,-19"/>
<text text-anchor="middle" x="1461" y="-7" font-family="Malgun Gothic" font-size="10.00">Components/ActorComponent.h</text>
</a>
</g>
</g>
<!-- Node18&#45;&gt;Node19 -->
<g id="edge26_Node000018_Node000019" class="edge">
<title>Node18&#45;&gt;Node19</title>
<g id="a_edge26_Node000018_Node000019"><a xlink:title=" ">
<path fill="none" stroke="#63b8ff" d="M1495.23,-54.75C1489.44,-47.26 1480.94,-36.28 1473.86,-27.13"/>
<polygon fill="#63b8ff" stroke="#63b8ff" points="1476.53,-24.86 1467.64,-19.09 1470.99,-29.14 1476.53,-24.86"/>
</a>
</g>
</g>
<!-- Node20 -->
<g id="Node000020" class="node">
<title>Node20</title>
<g id="a_Node000020"><a xlink:title=" ">
<polygon fill="#e0e0e0" stroke="#999999" points="1357,-19 1215,-19 1215,0 1357,0 1357,-19"/>
<text text-anchor="middle" x="1286" y="-7" font-family="Malgun Gothic" font-size="10.00">UStatSystem.generated.h</text>
</a>
</g>
</g>
<!-- Node18&#45;&gt;Node20 -->
<g id="edge27_Node000018_Node000020" class="edge">
<title>Node18&#45;&gt;Node20</title>
<g id="a_edge27_Node000018_Node000020"><a xlink:title=" ">
<path fill="none" stroke="#63b8ff" d="M1467.3,-54.98C1430.25,-45.89 1371.41,-31.46 1330.87,-21.51"/>
<polygon fill="#63b8ff" stroke="#63b8ff" points="1331.52,-18.07 1320.98,-19.08 1329.85,-24.86 1331.52,-18.07"/>
</a>
</g>
</g>
<!-- Node22&#45;&gt;Node3 -->
<g id="edge30_Node000022_Node000003" class="edge">
<title>Node22&#45;&gt;Node3</title>
<g id="a_edge30_Node000022_Node000003"><a xlink:title=" ">
<path fill="none" stroke="#63b8ff" d="M1525.16,-109.97C1505.75,-101.13 1474.65,-86.83 1448,-74 1430.99,-65.81 1428.19,-60.05 1410,-55 1314.55,-28.48 1020.4,-16.2 897.67,-12.12"/>
<polygon fill="#63b8ff" stroke="#63b8ff" points="897.49,-8.61 887.38,-11.79 897.26,-15.61 897.49,-8.61"/>
</a>
</g>
</g>
<!-- Node23 -->
<g id="Node000023" class="node">
<title>Node23</title>
<g id="a_Node000023"><a xlink:title=" ">
<polygon fill="#e0e0e0" stroke="#999999" points="1714.5,-74 1603.5,-74 1603.5,-55 1714.5,-55 1714.5,-74"/>
<text text-anchor="middle" x="1659" y="-62" font-family="Malgun Gothic" font-size="10.00">UObject/Interface.h</text>
</a>
</g>
</g>
<!-- Node22&#45;&gt;Node23 -->
<g id="edge31_Node000022_Node000023" class="edge">
<title>Node22&#45;&gt;Node23</title>
<g id="a_edge31_Node000022_Node000023"><a xlink:title=" ">
<path fill="none" stroke="#63b8ff" d="M1562.48,-109.98C1580.98,-101.46 1609.68,-88.23 1630.98,-78.41"/>
<polygon fill="#63b8ff" stroke="#63b8ff" points="1632.57,-81.53 1640.19,-74.17 1629.64,-75.18 1632.57,-81.53"/>
</a>
</g>
</g>
<!-- Node24 -->
<g id="Node000024" class="node">
<title>Node24</title>
<g id="a_Node000024"><a xlink:title=" ">
<polygon fill="#e0e0e0" stroke="#999999" points="1873,-74 1733,-74 1733,-55 1873,-55 1873,-74"/>
<text text-anchor="middle" x="1803" y="-62" font-family="Malgun Gothic" font-size="10.00">IControllable.generated.h</text>
</a>
</g>
</g>
<!-- Node22&#45;&gt;Node24 -->
<g id="edge32_Node000022_Node000024" class="edge">
<title>Node22&#45;&gt;Node24</title>
<g id="a_edge32_Node000022_Node000024"><a xlink:title=" ">
<path fill="none" stroke="#63b8ff" d="M1585.61,-109.98C1630.6,-100.78 1702.39,-86.09 1751.05,-76.13"/>
<polygon fill="#63b8ff" stroke="#63b8ff" points="1751.97,-79.52 1761.06,-74.08 1750.56,-72.66 1751.97,-79.52"/>
</a>
</g>
</g>
</g>
</svg>

<g id="navigator" transform="translate(0 0)" fill="#404254">
  <rect fill="#f2f5e9" fill-opacity="0.5" stroke="#606060" stroke-width=".5" x="0" y="0" width="60" height="60"/>
  <use id="zoomplus" xlink:href="#zoomPlus" x="17" y="9" onmousedown="handleZoom(evt,'in')"/>
  <use id="zoomminus" xlink:href="#zoomMin" x="42" y="9" onmousedown="handleZoom(evt,'out')"/>
  <use id="reset" xlink:href="#resetDef" x="30" y="36" onmousedown="handleReset()"/>
   <use id="arrowup" xlink:href="#arrowUp" x="0" y="0" onmousedown="handlePan(0,-1)"/>
  <use id="arrowright" xlink:href="#arrowRight" x="0" y="0" onmousedown="handlePan(1,0)"/>
  <use id="arrowdown" xlink:href="#arrowDown" x="0" y="0" onmousedown="handlePan(0,1)"/>
  <use id="arrowleft" xlink:href="#arrowLeft" x="0" y="0" onmousedown="handlePan(-1,0)"/>
</g>
<svg viewBox="0 0 15 15" width="100%" height="30px" preserveAspectRatio="xMaxYMin meet">
 <g id="arrow_out" transform="scale(0.3 0.3)">
  <a xlink:href="UMainWdget_8cpp__incl_org.svg" target="_base">
   <rect id="button" ry="5" rx="5" y="6" x="6" height="38" width="38"
        fill="#f2f5e9" fill-opacity="0.5" stroke="#606060" stroke-width="1.0"/>
   <path id="arrow"
     d="M 11.500037,31.436501 C 11.940474,20.09759 22.043105,11.32322 32.158766,21.979434 L 37.068811,17.246167 C 37.068811,17.246167 37.088388,32 37.088388,32 L 22.160133,31.978069 C 22.160133,31.978069 26.997745,27.140456 26.997745,27.140456 C 18.528582,18.264221 13.291696,25.230495 11.500037,31.436501 z"
     style="fill:#404040;"/>
  </a>
 </g>
</svg>

<style type='text/css'>
<![CDATA[
[data-mouse-over-selected='false'] { opacity: 0.7; }
[data-mouse-over-selected='true']  { opacity: 1.0; }
]]>
</style>
<script type="application/ecmascript"><![CDATA[
document.addEventListener('DOMContentLoaded', (event) => {
  highlightEdges();
  highlightAdjacentNodes();
});
]]></script>
</svg>
