<?xml version="1.0" encoding="UTF-8" standalone="no"?>
<!DOCTYPE svg PUBLIC "-//W3C//DTD SVG 1.1//EN"
 "http://www.w3.org/Graphics/SVG/1.1/DTD/svg11.dtd">
<!-- Generated by graphviz version 2.43.0 (0)
 -->
<!-- Title: Source/YiSan/UI/Private/UMainWdget.cpp Pages: 1 -->
<svg width="1817pt" height="280pt"
 viewBox="0.00 0.00 1817.02 280.00" xmlns="http://www.w3.org/2000/svg" xmlns:xlink="http://www.w3.org/1999/xlink">
<g id="graph0" class="graph" transform="scale(1 1) rotate(0) translate(4 276)">
<title>Source/YiSan/UI/Private/UMainWdget.cpp</title>
<!-- Node1 -->
<g id="Node000001" class="node">
<title>Node1</title>
<g id="a_Node000001"><a xlink:title=" ">
<polygon fill="#999999" stroke="#666666" points="545.52,-272 414.52,-272 414.52,-242 545.52,-242 545.52,-272"/>
<text text-anchor="start" x="422.52" y="-260" font-family="Malgun Gothic" font-size="10.00">Source/YiSan/UI/Private</text>
<text text-anchor="middle" x="480.02" y="-249" font-family="Malgun Gothic" font-size="10.00">/UMainWdget.cpp</text>
</a>
</g>
</g>
<!-- Node2 -->
<g id="Node000002" class="node">
<title>Node2</title>
<g id="a_Node000002"><a xlink:href="UMainWdget_8h.html" target="_top" xlink:title=" ">
<polygon fill="white" stroke="#666666" points="200.52,-200.5 111.52,-200.5 111.52,-181.5 200.52,-181.5 200.52,-200.5"/>
<text text-anchor="middle" x="156.02" y="-188.5" font-family="Malgun Gothic" font-size="10.00">UMainWdget.h</text>
</a>
</g>
</g>
<!-- Node1&#45;&gt;Node2 -->
<g id="edge1_Node000001_Node000002" class="edge">
<title>Node1&#45;&gt;Node2</title>
<g id="a_edge1_Node000001_Node000002"><a xlink:title=" ">
<path fill="none" stroke="#63b8ff" d="M414.46,-243.05C354.05,-231.12 265.53,-213.63 209.35,-202.53"/>
<polygon fill="#63b8ff" stroke="#63b8ff" points="209.74,-199.04 199.25,-200.54 208.38,-205.91 209.74,-199.04"/>
</a>
</g>
</g>
<!-- Node6 -->
<g id="Node000006" class="node">
<title>Node6</title>
<g id="a_Node000006"><a xlink:href="GameLogging_8h.html" target="_top" xlink:title="GameLogging 선언에 대한 Doxygen 주석을 제공합니다.">
<polygon fill="white" stroke="#666666" points="414.52,-140 321.52,-140 321.52,-121 414.52,-121 414.52,-140"/>
<text text-anchor="middle" x="368.02" y="-128" font-family="Malgun Gothic" font-size="10.00">GameLogging.h</text>
</a>
</g>
</g>
<!-- Node1&#45;&gt;Node6 -->
<g id="edge5_Node000001_Node000006" class="edge">
<title>Node1&#45;&gt;Node6</title>
<g id="a_edge5_Node000001_Node000006"><a xlink:title=" ">
<path fill="none" stroke="#63b8ff" d="M436.3,-241.87C418.29,-233.98 398.71,-222.36 386.02,-206 373.69,-190.09 369.65,-166.97 368.4,-150.71"/>
<polygon fill="#63b8ff" stroke="#63b8ff" points="371.88,-150.12 367.91,-140.29 364.89,-150.45 371.88,-150.12"/>
</a>
</g>
</g>
<!-- Node11 -->
<g id="Node000011" class="node">
<title>Node11</title>
<g id="a_Node000011"><a xlink:title=" ">
<polygon fill="#e0e0e0" stroke="#999999" points="564.52,-200.5 395.52,-200.5 395.52,-181.5 564.52,-181.5 564.52,-200.5"/>
<text text-anchor="middle" x="480.02" y="-188.5" font-family="Malgun Gothic" font-size="10.00">Components/EditableTextBox.h</text>
</a>
</g>
</g>
<!-- Node1&#45;&gt;Node11 -->
<g id="edge13_Node000001_Node000011" class="edge">
<title>Node1&#45;&gt;Node11</title>
<g id="a_edge13_Node000001_Node000011"><a xlink:title=" ">
<path fill="none" stroke="#63b8ff" d="M480.02,-241.8C480.02,-232.7 480.02,-220.79 480.02,-210.9"/>
<polygon fill="#63b8ff" stroke="#63b8ff" points="483.52,-210.84 480.02,-200.84 476.52,-210.84 483.52,-210.84"/>
</a>
</g>
</g>
<!-- Node12 -->
<g id="Node000012" class="node">
<title>Node12</title>
<g id="a_Node000012"><a xlink:href="APlayerActor_8h.html" target="_top" xlink:title="Declares the player&#45;controlled character actor.">
<polygon fill="white" stroke="#666666" points="707.52,-206 582.52,-206 582.52,-176 707.52,-176 707.52,-206"/>
<text text-anchor="start" x="590.52" y="-194" font-family="Malgun Gothic" font-size="10.00">LatteLibrary/Character</text>
<text text-anchor="middle" x="645.02" y="-183" font-family="Malgun Gothic" font-size="10.00">/Public/APlayerActor.h</text>
</a>
</g>
</g>
<!-- Node1&#45;&gt;Node12 -->
<g id="edge14_Node000001_Node000012" class="edge">
<title>Node1&#45;&gt;Node12</title>
<g id="a_edge14_Node000001_Node000012"><a xlink:title=" ">
<path fill="none" stroke="#63b8ff" d="M516.23,-241.95C540.74,-232.45 573.29,-219.82 599.54,-209.64"/>
<polygon fill="#63b8ff" stroke="#63b8ff" points="600.84,-212.89 608.9,-206.01 598.31,-206.37 600.84,-212.89"/>
</a>
</g>
</g>
<!-- Node25 -->
<g id="Node000025" class="node">
<title>Node25</title>
<g id="a_Node000025"><a xlink:href="UVoiceCaptureComponent_8h.html" target="_top" xlink:title=" ">
<polygon fill="white" stroke="#666666" points="1800.52,-85 1611.52,-85 1611.52,-55 1800.52,-55 1800.52,-85"/>
<text text-anchor="start" x="1619.52" y="-73" font-family="Malgun Gothic" font-size="10.00">LatteLibrary/Character</text>
<text text-anchor="middle" x="1706.02" y="-62" font-family="Malgun Gothic" font-size="10.00">/Public/UVoiceCaptureComponent.h</text>
</a>
</g>
</g>
<!-- Node1&#45;&gt;Node25 -->
<g id="edge32_Node000001_Node000025" class="edge">
<title>Node1&#45;&gt;Node25</title>
<g id="a_edge32_Node000001_Node000025"><a xlink:title=" ">
<path fill="none" stroke="#63b8ff" d="M545.53,-247.78C686.75,-229.87 1030.29,-185.28 1317.02,-140 1422.28,-123.38 1543.04,-101.52 1621.73,-86.9"/>
<polygon fill="#63b8ff" stroke="#63b8ff" points="1622.4,-90.34 1631.59,-85.07 1621.12,-83.45 1622.4,-90.34"/>
</a>
</g>
</g>
<!-- Node3 -->
<g id="Node000003" class="node">
<title>Node3</title>
<g id="a_Node000003"><a xlink:title=" ">
<polygon fill="#e0e0e0" stroke="#999999" points="645.02,-19 557.02,-19 557.02,0 645.02,0 645.02,-19"/>
<text text-anchor="middle" x="601.02" y="-7" font-family="Malgun Gothic" font-size="10.00">CoreMinimal.h</text>
</a>
</g>
</g>
<!-- Node2&#45;&gt;Node3 -->
<g id="edge2_Node000002_Node000003" class="edge">
<title>Node2&#45;&gt;Node3</title>
<g id="a_edge2_Node000002_Node000003"><a xlink:title=" ">
<path fill="none" stroke="#63b8ff" d="M111.23,-186.57C58.13,-180.53 -20.2,-164.18 5.02,-121 35.13,-69.45 65.04,-72.82 122.02,-55 200.02,-30.61 438.66,-17.5 546.78,-12.68"/>
<polygon fill="#63b8ff" stroke="#63b8ff" points="546.99,-16.18 556.82,-12.24 546.68,-9.19 546.99,-16.18"/>
</a>
</g>
</g>
<!-- Node4 -->
<g id="Node000004" class="node">
<title>Node4</title>
<g id="a_Node000004"><a xlink:title=" ">
<polygon fill="#e0e0e0" stroke="#999999" points="144.02,-140 14.02,-140 14.02,-121 144.02,-121 144.02,-140"/>
<text text-anchor="middle" x="79.02" y="-128" font-family="Malgun Gothic" font-size="10.00">Blueprint/UserWidget.h</text>
</a>
</g>
</g>
<!-- Node2&#45;&gt;Node4 -->
<g id="edge3_Node000002_Node000004" class="edge">
<title>Node2&#45;&gt;Node4</title>
<g id="a_edge3_Node000002_Node000004"><a xlink:title=" ">
<path fill="none" stroke="#63b8ff" d="M144.66,-181.37C132.61,-172.21 113.33,-157.56 98.77,-146.51"/>
<polygon fill="#63b8ff" stroke="#63b8ff" points="100.51,-143.43 90.43,-140.17 96.28,-149 100.51,-143.43"/>
</a>
</g>
</g>
<!-- Node5 -->
<g id="Node000005" class="node">
<title>Node5</title>
<g id="a_Node000005"><a xlink:title=" ">
<polygon fill="#e0e0e0" stroke="#999999" points="303.52,-140 162.52,-140 162.52,-121 303.52,-121 303.52,-140"/>
<text text-anchor="middle" x="233.02" y="-128" font-family="Malgun Gothic" font-size="10.00">UMainWdget.generated.h</text>
</a>
</g>
</g>
<!-- Node2&#45;&gt;Node5 -->
<g id="edge4_Node000002_Node000005" class="edge">
<title>Node2&#45;&gt;Node5</title>
<g id="a_edge4_Node000002_Node000005"><a xlink:title=" ">
<path fill="none" stroke="#63b8ff" d="M167.39,-181.37C179.44,-172.21 198.72,-157.56 213.27,-146.51"/>
<polygon fill="#63b8ff" stroke="#63b8ff" points="215.77,-149 221.62,-140.17 211.54,-143.43 215.77,-149"/>
</a>
</g>
</g>
<!-- Node6&#45;&gt;Node3 -->
<g id="edge6_Node000006_Node000003" class="edge">
<title>Node6&#45;&gt;Node3</title>
<g id="a_edge6_Node000006_Node000003"><a xlink:title=" ">
<path fill="none" stroke="#63b8ff" d="M321.51,-122.28C254.49,-111.66 138.07,-92.29 132.02,-85 123.51,-74.74 123.05,-64.86 132.02,-55 159.47,-24.83 428.91,-14.66 546.55,-11.64"/>
<polygon fill="#63b8ff" stroke="#63b8ff" points="546.86,-15.13 556.77,-11.38 546.69,-8.13 546.86,-15.13"/>
</a>
</g>
</g>
<!-- Node7 -->
<g id="Node000007" class="node">
<title>Node7</title>
<g id="a_Node000007"><a xlink:title=" ">
<polygon fill="#e0e0e0" stroke="#999999" points="470.52,-79.5 351.52,-79.5 351.52,-60.5 470.52,-60.5 470.52,-79.5"/>
<text text-anchor="middle" x="411.02" y="-67.5" font-family="Malgun Gothic" font-size="10.00">Logging/LogMacros.h</text>
</a>
</g>
</g>
<!-- Node6&#45;&gt;Node7 -->
<g id="edge7_Node000006_Node000007" class="edge">
<title>Node6&#45;&gt;Node7</title>
<g id="a_edge7_Node000006_Node000007"><a xlink:title=" ">
<path fill="none" stroke="#63b8ff" d="M374.37,-120.87C380.72,-112.23 390.66,-98.7 398.59,-87.92"/>
<polygon fill="#63b8ff" stroke="#63b8ff" points="401.55,-89.8 404.65,-79.67 395.91,-85.65 401.55,-89.8"/>
</a>
</g>
</g>
<!-- Node8 -->
<g id="Node000008" class="node">
<title>Node8</title>
<g id="a_Node000008"><a xlink:title=" ">
<polygon fill="#e0e0e0" stroke="#999999" points="236.52,-79.5 141.52,-79.5 141.52,-60.5 236.52,-60.5 236.52,-79.5"/>
<text text-anchor="middle" x="189.02" y="-67.5" font-family="Malgun Gothic" font-size="10.00">Engine/Engine.h</text>
</a>
</g>
</g>
<!-- Node6&#45;&gt;Node8 -->
<g id="edge8_Node000006_Node000008" class="edge">
<title>Node6&#45;&gt;Node8</title>
<g id="a_edge8_Node000006_Node000008"><a xlink:title=" ">
<path fill="none" stroke="#63b8ff" d="M342,-120.99C311.11,-110.9 259.44,-94.01 224.81,-82.69"/>
<polygon fill="#63b8ff" stroke="#63b8ff" points="225.68,-79.3 215.08,-79.52 223.5,-85.95 225.68,-79.3"/>
</a>
</g>
</g>
<!-- Node9 -->
<g id="Node000009" class="node">
<title>Node9</title>
<g id="a_Node000009"><a xlink:href="FLogWriter_8h.html" target="_top" xlink:title="FLogWriter 선언에 대한 Doxygen 주석을 제공합니다.">
<polygon fill="white" stroke="#666666" points="333.02,-79.5 255.02,-79.5 255.02,-60.5 333.02,-60.5 333.02,-79.5"/>
<text text-anchor="middle" x="294.02" y="-67.5" font-family="Malgun Gothic" font-size="10.00">FLogWriter.h</text>
</a>
</g>
</g>
<!-- Node6&#45;&gt;Node9 -->
<g id="edge9_Node000006_Node000009" class="edge">
<title>Node6&#45;&gt;Node9</title>
<g id="a_edge9_Node000006_Node000009"><a xlink:title=" ">
<path fill="none" stroke="#63b8ff" d="M357.1,-120.87C345.52,-111.71 326.99,-97.06 313.01,-86.01"/>
<polygon fill="#63b8ff" stroke="#63b8ff" points="315,-83.12 304.99,-79.67 310.66,-88.61 315,-83.12"/>
</a>
</g>
</g>
<!-- Node10 -->
<g id="Node000010" class="node">
<title>Node10</title>
<g id="a_Node000010"><a xlink:href="NetworkLog_8h.html" target="_top" xlink:title="NetworkLog 선언에 대한 Doxygen 주석을 제공합니다.">
<polygon fill="white" stroke="#666666" points="573.02,-79.5 489.02,-79.5 489.02,-60.5 573.02,-60.5 573.02,-79.5"/>
<text text-anchor="middle" x="531.02" y="-67.5" font-family="Malgun Gothic" font-size="10.00">NetworkLog.h</text>
</a>
</g>
</g>
<!-- Node6&#45;&gt;Node10 -->
<g id="edge11_Node000006_Node000010" class="edge">
<title>Node6&#45;&gt;Node10</title>
<g id="a_edge11_Node000006_Node000010"><a xlink:title=" ">
<path fill="none" stroke="#63b8ff" d="M391.73,-120.99C419.61,-110.99 466.1,-94.3 497.62,-82.99"/>
<polygon fill="#63b8ff" stroke="#63b8ff" points="499.06,-86.19 507.29,-79.52 496.7,-79.6 499.06,-86.19"/>
</a>
</g>
</g>
<!-- Node9&#45;&gt;Node3 -->
<g id="edge10_Node000009_Node000003" class="edge">
<title>Node9&#45;&gt;Node3</title>
<g id="a_edge10_Node000009_Node000003"><a xlink:title=" ">
<path fill="none" stroke="#63b8ff" d="M321.3,-60.46C328.03,-58.52 335.26,-56.56 342.02,-55 412.04,-38.83 493.94,-25.71 546.6,-18.01"/>
<polygon fill="#63b8ff" stroke="#63b8ff" points="547.33,-21.44 556.73,-16.55 546.33,-14.52 547.33,-21.44"/>
</a>
</g>
</g>
<!-- Node10&#45;&gt;Node3 -->
<g id="edge12_Node000010_Node000003" class="edge">
<title>Node10&#45;&gt;Node3</title>
<g id="a_edge12_Node000010_Node000003"><a xlink:title=" ">
<path fill="none" stroke="#63b8ff" d="M541.35,-60.37C552.21,-51.3 569.51,-36.84 582.69,-25.82"/>
<polygon fill="#63b8ff" stroke="#63b8ff" points="585.22,-28.27 590.65,-19.17 580.73,-22.89 585.22,-28.27"/>
</a>
</g>
</g>
<!-- Node12&#45;&gt;Node3 -->
<g id="edge15_Node000012_Node000003" class="edge">
<title>Node12&#45;&gt;Node3</title>
<g id="a_edge15_Node000012_Node000003"><a xlink:title=" ">
<path fill="none" stroke="#63b8ff" d="M641.57,-175.91C633.71,-143.85 614.48,-65.38 605.62,-29.26"/>
<polygon fill="#63b8ff" stroke="#63b8ff" points="608.92,-28.01 603.14,-19.13 602.12,-29.68 608.92,-28.01"/>
</a>
</g>
</g>
<!-- Node13 -->
<g id="Node000013" class="node">
<title>Node13</title>
<g id="a_Node000013"><a xlink:href="AGameCharacter_8h.html" target="_top" xlink:title="LatteLibrary 전반에서 사용하는 기반 캐릭터 클래스를 선언합니다.">
<polygon fill="white" stroke="#666666" points="980.02,-140 872.02,-140 872.02,-121 980.02,-121 980.02,-140"/>
<text text-anchor="middle" x="926.02" y="-128" font-family="Malgun Gothic" font-size="10.00">AGameCharacter.h</text>
</a>
</g>
</g>
<!-- Node12&#45;&gt;Node13 -->
<g id="edge16_Node000012_Node000013" class="edge">
<title>Node12&#45;&gt;Node13</title>
<g id="a_edge16_Node000012_Node000013"><a xlink:title=" ">
<path fill="none" stroke="#63b8ff" d="M707.74,-176.94C758.07,-166.47 827.85,-151.94 874.85,-142.15"/>
<polygon fill="#63b8ff" stroke="#63b8ff" points="875.73,-145.55 884.81,-140.08 874.3,-138.69 875.73,-145.55"/>
</a>
</g>
</g>
<!-- Node21 -->
<g id="Node000021" class="node">
<title>Node21</title>
<g id="a_Node000021"><a xlink:href="IControllable_8h.html" target="_top" xlink:title="IControllable 인터페이스 선언에 대한 Doxygen 주석을 제공합니다.">
<polygon fill="white" stroke="#666666" points="1308.02,-140 1220.02,-140 1220.02,-121 1308.02,-121 1308.02,-140"/>
<text text-anchor="middle" x="1264.02" y="-128" font-family="Malgun Gothic" font-size="10.00">IControllable.h</text>
</a>
</g>
</g>
<!-- Node12&#45;&gt;Node21 -->
<g id="edge27_Node000012_Node000021" class="edge">
<title>Node12&#45;&gt;Node21</title>
<g id="a_edge27_Node000012_Node000021"><a xlink:title=" ">
<path fill="none" stroke="#63b8ff" d="M707.78,-184.07C829.39,-172.58 1095.21,-147.45 1209.74,-136.63"/>
<polygon fill="#63b8ff" stroke="#63b8ff" points="1210.39,-140.08 1220.02,-135.66 1209.73,-133.12 1210.39,-140.08"/>
</a>
</g>
</g>
<!-- Node24 -->
<g id="Node000024" class="node">
<title>Node24</title>
<g id="a_Node000024"><a xlink:title=" ">
<polygon fill="#e0e0e0" stroke="#999999" points="573.02,-140 433.02,-140 433.02,-121 573.02,-121 573.02,-140"/>
<text text-anchor="middle" x="503.02" y="-128" font-family="Malgun Gothic" font-size="10.00">APlayerActor.generated.h</text>
</a>
</g>
</g>
<!-- Node12&#45;&gt;Node24 -->
<g id="edge31_Node000012_Node000024" class="edge">
<title>Node12&#45;&gt;Node24</title>
<g id="a_edge31_Node000012_Node000024"><a xlink:title=" ">
<path fill="none" stroke="#63b8ff" d="M611.01,-175.99C587.42,-166.27 556.28,-153.44 533.51,-144.06"/>
<polygon fill="#63b8ff" stroke="#63b8ff" points="534.57,-140.71 523.99,-140.14 531.91,-147.18 534.57,-140.71"/>
</a>
</g>
</g>
<!-- Node13&#45;&gt;Node3 -->
<g id="edge17_Node000013_Node000003" class="edge">
<title>Node13&#45;&gt;Node3</title>
<g id="a_edge17_Node000013_Node000003"><a xlink:title=" ">
<path fill="none" stroke="#63b8ff" d="M871.97,-125.23C804.36,-119.1 693.19,-106.14 658.02,-85 635.62,-71.54 618.9,-45.67 609.55,-28.25"/>
<polygon fill="#63b8ff" stroke="#63b8ff" points="612.56,-26.45 604.9,-19.12 606.32,-29.62 612.56,-26.45"/>
</a>
</g>
</g>
<!-- Node14 -->
<g id="Node000014" class="node">
<title>Node14</title>
<g id="a_Node000014"><a xlink:title=" ">
<polygon fill="#e0e0e0" stroke="#999999" points="1005.52,-79.5 846.52,-79.5 846.52,-60.5 1005.52,-60.5 1005.52,-79.5"/>
<text text-anchor="middle" x="926.02" y="-67.5" font-family="Malgun Gothic" font-size="10.00">GameFramework/Character.h</text>
</a>
</g>
</g>
<!-- Node13&#45;&gt;Node14 -->
<g id="edge18_Node000013_Node000014" class="edge">
<title>Node13&#45;&gt;Node14</title>
<g id="a_edge18_Node000013_Node000014"><a xlink:title=" ">
<path fill="none" stroke="#63b8ff" d="M926.02,-120.87C926.02,-112.75 926.02,-100.31 926.02,-89.89"/>
<polygon fill="#63b8ff" stroke="#63b8ff" points="929.52,-89.67 926.02,-79.67 922.52,-89.67 929.52,-89.67"/>
</a>
</g>
</g>
<!-- Node15 -->
<g id="Node000015" class="node">
<title>Node15</title>
<g id="a_Node000015"><a xlink:href="EBodyPartType_8h.html" target="_top" xlink:title="EBodyPartType 열거형에 대한 Doxygen 주석을 제공합니다.">
<polygon fill="white" stroke="#666666" points="1121.02,-79.5 1023.02,-79.5 1023.02,-60.5 1121.02,-60.5 1121.02,-79.5"/>
<text text-anchor="middle" x="1072.02" y="-67.5" font-family="Malgun Gothic" font-size="10.00">EBodyPartType.h</text>
</a>
</g>
</g>
<!-- Node13&#45;&gt;Node15 -->
<g id="edge19_Node000013_Node000015" class="edge">
<title>Node13&#45;&gt;Node15</title>
<g id="a_edge19_Node000013_Node000015"><a xlink:title=" ">
<path fill="none" stroke="#63b8ff" d="M947.25,-120.99C972.01,-111.07 1013.15,-94.59 1041.37,-83.28"/>
<polygon fill="#63b8ff" stroke="#63b8ff" points="1042.79,-86.49 1050.77,-79.52 1040.18,-79.99 1042.79,-86.49"/>
</a>
</g>
</g>
<!-- Node16 -->
<g id="Node000016" class="node">
<title>Node16</title>
<g id="a_Node000016"><a xlink:href="ECharacterType_8h.html" target="_top" xlink:title="ECharacterType 열거형에 대한 Doxygen 주석을 제공합니다.">
<polygon fill="white" stroke="#666666" points="1345.52,-19 1244.52,-19 1244.52,0 1345.52,0 1345.52,-19"/>
<text text-anchor="middle" x="1295.02" y="-7" font-family="Malgun Gothic" font-size="10.00">ECharacterType.h</text>
</a>
</g>
</g>
<!-- Node13&#45;&gt;Node16 -->
<g id="edge20_Node000013_Node000016" class="edge">
<title>Node13&#45;&gt;Node16</title>
<g id="a_edge20_Node000013_Node000016"><a xlink:title=" ">
<path fill="none" stroke="#63b8ff" d="M980.09,-129.72C1066.94,-128.94 1232.17,-122.41 1275.02,-85 1290.68,-71.33 1294.7,-46.86 1295.45,-29.7"/>
<polygon fill="#63b8ff" stroke="#63b8ff" points="1298.95,-29.25 1295.54,-19.22 1291.95,-29.19 1298.95,-29.25"/>
</a>
</g>
</g>
<!-- Node17 -->
<g id="Node000017" class="node">
<title>Node17</title>
<g id="a_Node000017"><a xlink:href="UStatSystem_8h.html" target="_top" xlink:title="UStatSystem 선언에 대한 Doxygen 주석을 제공합니다.">
<polygon fill="white" stroke="#666666" points="1266.52,-79.5 1177.52,-79.5 1177.52,-60.5 1266.52,-60.5 1266.52,-79.5"/>
<text text-anchor="middle" x="1222.02" y="-67.5" font-family="Malgun Gothic" font-size="10.00">UStatSystem.h</text>
</a>
</g>
</g>
<!-- Node13&#45;&gt;Node17 -->
<g id="edge21_Node000013_Node000017" class="edge">
<title>Node13&#45;&gt;Node17</title>
<g id="a_edge21_Node000013_Node000017"><a xlink:title=" ">
<path fill="none" stroke="#63b8ff" d="M969.06,-120.99C1022.01,-110.53 1111.86,-92.77 1169.01,-81.48"/>
<polygon fill="#63b8ff" stroke="#63b8ff" points="1169.8,-84.89 1178.93,-79.52 1168.44,-78.02 1169.8,-84.89"/>
</a>
</g>
</g>
<!-- Node20 -->
<g id="Node000020" class="node">
<title>Node20</title>
<g id="a_Node000020"><a xlink:title=" ">
<polygon fill="#e0e0e0" stroke="#999999" points="828.52,-79.5 667.52,-79.5 667.52,-60.5 828.52,-60.5 828.52,-79.5"/>
<text text-anchor="middle" x="748.02" y="-67.5" font-family="Malgun Gothic" font-size="10.00">AGameCharacter.generated.h</text>
</a>
</g>
</g>
<!-- Node13&#45;&gt;Node20 -->
<g id="edge26_Node000013_Node000020" class="edge">
<title>Node13&#45;&gt;Node20</title>
<g id="a_edge26_Node000013_Node000020"><a xlink:title=" ">
<path fill="none" stroke="#63b8ff" d="M900.14,-120.99C869.43,-110.9 818.05,-94.01 783.61,-82.69"/>
<polygon fill="#63b8ff" stroke="#63b8ff" points="784.53,-79.31 773.94,-79.52 782.34,-85.96 784.53,-79.31"/>
</a>
</g>
</g>
<!-- Node17&#45;&gt;Node3 -->
<g id="edge22_Node000017_Node000003" class="edge">
<title>Node17&#45;&gt;Node3</title>
<g id="a_edge22_Node000017_Node000003"><a xlink:title=" ">
<path fill="none" stroke="#63b8ff" d="M1190.05,-60.47C1181.34,-58.4 1171.86,-56.39 1163.02,-55 978.36,-25.96 756.43,-15.48 655.62,-12.03"/>
<polygon fill="#63b8ff" stroke="#63b8ff" points="655.49,-8.53 645.38,-11.69 655.25,-15.52 655.49,-8.53"/>
</a>
</g>
</g>
<!-- Node17&#45;&gt;Node16 -->
<g id="edge23_Node000017_Node000016" class="edge">
<title>Node17&#45;&gt;Node16</title>
<g id="a_edge23_Node000017_Node000016"><a xlink:title=" ">
<path fill="none" stroke="#63b8ff" d="M1232.79,-60.37C1244.22,-51.21 1262.5,-36.56 1276.3,-25.51"/>
<polygon fill="#63b8ff" stroke="#63b8ff" points="1278.59,-28.15 1284.21,-19.17 1274.22,-22.69 1278.59,-28.15"/>
</a>
</g>
</g>
<!-- Node18 -->
<g id="Node000018" class="node">
<title>Node18</title>
<g id="a_Node000018"><a xlink:title=" ">
<polygon fill="#e0e0e0" stroke="#999999" points="1561.02,-19 1389.02,-19 1389.02,0 1561.02,0 1561.02,-19"/>
<text text-anchor="middle" x="1475.02" y="-7" font-family="Malgun Gothic" font-size="10.00">Components/ActorComponent.h</text>
</a>
</g>
</g>
<!-- Node17&#45;&gt;Node18 -->
<g id="edge24_Node000017_Node000018" class="edge">
<title>Node17&#45;&gt;Node18</title>
<g id="a_edge24_Node000017_Node000018"><a xlink:title=" ">
<path fill="none" stroke="#63b8ff" d="M1258.81,-60.49C1303.59,-50.14 1379.28,-32.64 1428.18,-21.33"/>
<polygon fill="#63b8ff" stroke="#63b8ff" points="1429.24,-24.68 1438.19,-19.02 1427.66,-17.86 1429.24,-24.68"/>
</a>
</g>
</g>
<!-- Node19 -->
<g id="Node000019" class="node">
<title>Node19</title>
<g id="a_Node000019"><a xlink:title=" ">
<polygon fill="#e0e0e0" stroke="#999999" points="1226.02,-19 1084.02,-19 1084.02,0 1226.02,0 1226.02,-19"/>
<text text-anchor="middle" x="1155.02" y="-7" font-family="Malgun Gothic" font-size="10.00">UStatSystem.generated.h</text>
</a>
</g>
</g>
<!-- Node17&#45;&gt;Node19 -->
<g id="edge25_Node000017_Node000019" class="edge">
<title>Node17&#45;&gt;Node19</title>
<g id="a_edge25_Node000017_Node000019"><a xlink:title=" ">
<path fill="none" stroke="#63b8ff" d="M1212.14,-60.37C1201.75,-51.3 1185.19,-36.84 1172.57,-25.82"/>
<polygon fill="#63b8ff" stroke="#63b8ff" points="1174.78,-23.11 1164.95,-19.17 1170.18,-28.38 1174.78,-23.11"/>
</a>
</g>
</g>
<!-- Node21&#45;&gt;Node3 -->
<g id="edge28_Node000021_Node000003" class="edge">
<title>Node21&#45;&gt;Node3</title>
<g id="a_edge28_Node000021_Node000003"><a xlink:title=" ">
<path fill="none" stroke="#63b8ff" d="M1241.93,-120.99C1221.97,-112.91 1192.12,-99.82 1168.02,-85 1149.69,-73.73 1150.04,-62.9 1130.02,-55 1044.73,-21.32 772.4,-13.11 655.35,-11.13"/>
<polygon fill="#63b8ff" stroke="#63b8ff" points="655.24,-7.62 645.18,-10.96 655.12,-14.62 655.24,-7.62"/>
</a>
</g>
</g>
<!-- Node22 -->
<g id="Node000022" class="node">
<title>Node22</title>
<g id="a_Node000022"><a xlink:title=" ">
<polygon fill="#e0e0e0" stroke="#999999" points="1434.52,-79.5 1323.52,-79.5 1323.52,-60.5 1434.52,-60.5 1434.52,-79.5"/>
<text text-anchor="middle" x="1379.02" y="-67.5" font-family="Malgun Gothic" font-size="10.00">UObject/Interface.h</text>
</a>
</g>
</g>
<!-- Node21&#45;&gt;Node22 -->
<g id="edge29_Node000021_Node000022" class="edge">
<title>Node21&#45;&gt;Node22</title>
<g id="a_edge29_Node000021_Node000022"><a xlink:title=" ">
<path fill="none" stroke="#63b8ff" d="M1280.99,-120.87C1299.93,-111.23 1330.81,-95.53 1352.85,-84.31"/>
<polygon fill="#63b8ff" stroke="#63b8ff" points="1354.66,-87.32 1361.99,-79.67 1351.49,-81.08 1354.66,-87.32"/>
</a>
</g>
</g>
<!-- Node23 -->
<g id="Node000023" class="node">
<title>Node23</title>
<g id="a_Node000023"><a xlink:title=" ">
<polygon fill="#e0e0e0" stroke="#999999" points="1593.02,-79.5 1453.02,-79.5 1453.02,-60.5 1593.02,-60.5 1593.02,-79.5"/>
<text text-anchor="middle" x="1523.02" y="-67.5" font-family="Malgun Gothic" font-size="10.00">IControllable.generated.h</text>
</a>
</g>
</g>
<!-- Node21&#45;&gt;Node23 -->
<g id="edge30_Node000021_Node000023" class="edge">
<title>Node21&#45;&gt;Node23</title>
<g id="a_edge30_Node000021_Node000023"><a xlink:title=" ">
<path fill="none" stroke="#63b8ff" d="M1301.68,-120.99C1347.62,-110.62 1425.33,-93.07 1475.39,-81.76"/>
<polygon fill="#63b8ff" stroke="#63b8ff" points="1476.33,-85.13 1485.32,-79.52 1474.79,-78.31 1476.33,-85.13"/>
</a>
</g>
</g>
<!-- Node25&#45;&gt;Node3 -->
<g id="edge33_Node000025_Node000003" class="edge">
<title>Node25&#45;&gt;Node3</title>
<g id="a_edge33_Node000025_Node000003"><a xlink:title=" ">
<path fill="none" stroke="#63b8ff" d="M1611.4,-55.9C1608.24,-55.58 1605.11,-55.28 1602.02,-55 1241.62,-22.8 806.03,-13.55 655.37,-11.21"/>
<polygon fill="#63b8ff" stroke="#63b8ff" points="655.08,-7.71 645.02,-11.05 654.97,-14.7 655.08,-7.71"/>
</a>
</g>
</g>
<!-- Node25&#45;&gt;Node18 -->
<g id="edge34_Node000025_Node000018" class="edge">
<title>Node25&#45;&gt;Node18</title>
<g id="a_edge34_Node000025_Node000018"><a xlink:title=" ">
<path fill="none" stroke="#63b8ff" d="M1650.69,-54.99C1610.31,-44.76 1556.31,-31.09 1518.89,-21.61"/>
<polygon fill="#63b8ff" stroke="#63b8ff" points="1519.35,-18.12 1508.8,-19.05 1517.63,-24.9 1519.35,-18.12"/>
</a>
</g>
</g>
<!-- Node26 -->
<g id="Node000026" class="node">
<title>Node26</title>
<g id="a_Node000026"><a xlink:title=" ">
<polygon fill="#e0e0e0" stroke="#999999" points="1809.02,-19 1603.02,-19 1603.02,0 1809.02,0 1809.02,-19"/>
<text text-anchor="middle" x="1706.02" y="-7" font-family="Malgun Gothic" font-size="10.00">UVoiceCaptureComponent.generated.h</text>
</a>
</g>
</g>
<!-- Node25&#45;&gt;Node26 -->
<g id="edge35_Node000025_Node000026" class="edge">
<title>Node25&#45;&gt;Node26</title>
<g id="a_edge35_Node000025_Node000026"><a xlink:title=" ">
<path fill="none" stroke="#63b8ff" d="M1706.02,-54.84C1706.02,-47.21 1706.02,-37.7 1706.02,-29.45"/>
<polygon fill="#63b8ff" stroke="#63b8ff" points="1709.52,-29.27 1706.02,-19.27 1702.52,-29.27 1709.52,-29.27"/>
</a>
</g>
</g>
</g>
</svg>
