<?xml version="1.0" encoding="UTF-8" standalone="no"?>
<!DOCTYPE svg PUBLIC "-//W3C//DTD SVG 1.1//EN"
 "http://www.w3.org/Graphics/SVG/1.1/DTD/svg11.dtd">
<!-- Generated by graphviz version 2.43.0 (0)
 -->
<!-- Title: Source/YiSan/UI/Public/UMainWidget.h Pages: 1 -->
<svg width="406pt" height="93pt"
 viewBox="0.00 0.00 406.00 93.00" xmlns="http://www.w3.org/2000/svg" xmlns:xlink="http://www.w3.org/1999/xlink">
<g id="graph0" class="graph" transform="scale(1 1) rotate(0) translate(4 89)">
<title>Source/YiSan/UI/Public/UMainWidget.h</title>
<!-- Node1 -->
<g id="Node000001" class="node">
<title>Node1</title>
<g id="a_Node000001"><a xlink:title=" ">
<polygon fill="#999999" stroke="#666666" points="233.5,-85 108.5,-85 108.5,-55 233.5,-55 233.5,-85"/>
<text text-anchor="start" x="116.5" y="-73" font-family="Malgun Gothic" font-size="10.00">Source/YiSan/UI/Public</text>
<text text-anchor="middle" x="171" y="-62" font-family="Malgun Gothic" font-size="10.00">/UMainWidget.h</text>
</a>
</g>
</g>
<!-- Node2 -->
<g id="Node000002" class="node">
<title>Node2</title>
<g id="a_Node000002"><a xlink:title=" ">
<polygon fill="#e0e0e0" stroke="#999999" points="88,-19 0,-19 0,0 88,0 88,-19"/>
<text text-anchor="middle" x="44" y="-7" font-family="Malgun Gothic" font-size="10.00">CoreMinimal.h</text>
</a>
</g>
</g>
<!-- Node1&#45;&gt;Node2 -->
<g id="edge1_Node000001_Node000002" class="edge">
<title>Node1&#45;&gt;Node2</title>
<g id="a_edge1_Node000001_Node000002"><a xlink:title=" ">
<path fill="none" stroke="#63b8ff" d="M140.58,-54.99C119.77,-45.4 92.38,-32.79 72.09,-23.44"/>
<polygon fill="#63b8ff" stroke="#63b8ff" points="73.3,-20.14 62.76,-19.14 70.37,-26.5 73.3,-20.14"/>
</a>
</g>
</g>
<!-- Node3 -->
<g id="Node000003" class="node">
<title>Node3</title>
<g id="a_Node000003"><a xlink:title=" ">
<polygon fill="#e0e0e0" stroke="#999999" points="236,-19 106,-19 106,0 236,0 236,-19"/>
<text text-anchor="middle" x="171" y="-7" font-family="Malgun Gothic" font-size="10.00">Blueprint/UserWidget.h</text>
</a>
</g>
</g>
<!-- Node1&#45;&gt;Node3 -->
<g id="edge2_Node000001_Node000003" class="edge">
<title>Node1&#45;&gt;Node3</title>
<g id="a_edge2_Node000001_Node000003"><a xlink:title=" ">
<path fill="none" stroke="#63b8ff" d="M171,-54.84C171,-47.21 171,-37.7 171,-29.45"/>
<polygon fill="#63b8ff" stroke="#63b8ff" points="174.5,-29.27 171,-19.27 167.5,-29.27 174.5,-29.27"/>
</a>
</g>
</g>
<!-- Node4 -->
<g id="Node000004" class="node">
<title>Node4</title>
<g id="a_Node000004"><a xlink:title=" ">
<polygon fill="#e0e0e0" stroke="#999999" points="398,-19 254,-19 254,0 398,0 398,-19"/>
<text text-anchor="middle" x="326" y="-7" font-family="Malgun Gothic" font-size="10.00">UMainWidget.generated.h</text>
</a>
</g>
</g>
<!-- Node1&#45;&gt;Node4 -->
<g id="edge3_Node000001_Node000004" class="edge">
<title>Node1&#45;&gt;Node4</title>
<g id="a_edge3_Node000001_Node000004"><a xlink:title=" ">
<path fill="none" stroke="#63b8ff" d="M208.13,-54.99C234.22,-45.14 268.78,-32.1 293.73,-22.68"/>
<polygon fill="#63b8ff" stroke="#63b8ff" points="294.99,-25.94 303.11,-19.14 292.52,-19.4 294.99,-25.94"/>
</a>
</g>
</g>
</g>
</svg>
