<?xml version="1.0" encoding="UTF-8" standalone="no"?>
<!DOCTYPE svg PUBLIC "-//W3C//DTD SVG 1.1//EN"
 "http://www.w3.org/Graphics/SVG/1.1/DTD/svg11.dtd">
<!-- Generated by graphviz version 2.43.0 (0)
 -->
<!-- Title: Source/YiSan/UI/Private/UPlayerWidget.cpp Pages: 1 -->
<svg width="2169pt" height="214pt"
 viewBox="0.00 0.00 2169.00 214.00" xmlns="http://www.w3.org/2000/svg" xmlns:xlink="http://www.w3.org/1999/xlink">
<g id="graph0" class="graph" transform="scale(1 1) rotate(0) translate(4 210)">
<title>Source/YiSan/UI/Private/UPlayerWidget.cpp</title>
<!-- Node1 -->
<g id="Node000001" class="node">
<title>Node1</title>
<g id="a_Node000001"><a xlink:title="UPlayerWidget의 동작을 구현합니다.">
<polygon fill="#999999" stroke="#666666" points="1127.5,-206 996.5,-206 996.5,-176 1127.5,-176 1127.5,-206"/>
<text text-anchor="start" x="1004.5" y="-194" font-family="Malgun Gothic" font-size="10.00">Source/YiSan/UI/Private</text>
<text text-anchor="middle" x="1062" y="-183" font-family="Malgun Gothic" font-size="10.00">/UPlayerWidget.cpp</text>
</a>
</g>
</g>
<!-- Node2 -->
<g id="Node000002" class="node">
<title>Node2</title>
<g id="a_Node000002"><a xlink:href="UPlayerWidget_8h.html" target="_top" xlink:title="UPlayerWidget 클래스를 선언합니다.">
<polygon fill="white" stroke="#666666" points="326,-140 228,-140 228,-121 326,-121 326,-140"/>
<text text-anchor="middle" x="277" y="-128" font-family="Malgun Gothic" font-size="10.00">UPlayerWidget.h</text>
</a>
</g>
</g>
<!-- Node1&#45;&gt;Node2 -->
<g id="edge1_Node000001_Node000002" class="edge">
<title>Node1&#45;&gt;Node2</title>
<g id="a_edge1_Node000001_Node000002"><a xlink:title=" ">
<path fill="none" stroke="#63b8ff" d="M996.42,-185.11C846.51,-173.94 480.63,-146.67 336.63,-135.94"/>
<polygon fill="#63b8ff" stroke="#63b8ff" points="336.47,-132.42 326.24,-135.17 335.95,-139.4 336.47,-132.42"/>
</a>
</g>
</g>
<!-- Node5 -->
<g id="Node000005" class="node">
<title>Node5</title>
<g id="a_Node000005"><a xlink:title=" ">
<polygon fill="#e0e0e0" stroke="#999999" points="569,-79.5 423,-79.5 423,-60.5 569,-60.5 569,-79.5"/>
<text text-anchor="middle" x="496" y="-67.5" font-family="Malgun Gothic" font-size="10.00">Components/VerticalBox.h</text>
</a>
</g>
</g>
<!-- Node1&#45;&gt;Node5 -->
<g id="edge21_Node000001_Node000005" class="edge">
<title>Node1&#45;&gt;Node5</title>
<g id="a_edge21_Node000001_Node000005"><a xlink:title=" ">
<path fill="none" stroke="#63b8ff" d="M996.29,-182.43C930.13,-174.22 825.34,-159.61 736,-140 662.23,-123.81 577.71,-97.7 531.24,-82.67"/>
<polygon fill="#63b8ff" stroke="#63b8ff" points="532.24,-79.31 521.65,-79.55 530.08,-85.97 532.24,-79.31"/>
</a>
</g>
</g>
<!-- Node9 -->
<g id="Node000009" class="node">
<title>Node9</title>
<g id="a_Node000009"><a xlink:href="AYiSanPlayerState_8h.html" target="_top" xlink:title="AYiSanPlayerState 클래스를 선언합니다.">
<polygon fill="white" stroke="#666666" points="859.5,-140 744.5,-140 744.5,-121 859.5,-121 859.5,-140"/>
<text text-anchor="middle" x="802" y="-128" font-family="Malgun Gothic" font-size="10.00">AYiSanPlayerState.h</text>
</a>
</g>
</g>
<!-- Node1&#45;&gt;Node9 -->
<g id="edge10_Node000001_Node000009" class="edge">
<title>Node1&#45;&gt;Node9</title>
<g id="a_edge10_Node000001_Node000009"><a xlink:title=" ">
<path fill="none" stroke="#63b8ff" d="M999.72,-175.99C953.78,-165.65 892.19,-151.79 850.03,-142.31"/>
<polygon fill="#63b8ff" stroke="#63b8ff" points="850.54,-138.83 840.02,-140.05 849,-145.66 850.54,-138.83"/>
</a>
</g>
</g>
<!-- Node12 -->
<g id="Node000012" class="node">
<title>Node12</title>
<g id="a_Node000012"><a xlink:href="UYisanOnlineSystem_8h.html" target="_top" xlink:title="UYisanOnlineSystem 클래스를 선언합니다.">
<polygon fill="white" stroke="#666666" points="1126,-140 998,-140 998,-121 1126,-121 1126,-140"/>
<text text-anchor="middle" x="1062" y="-128" font-family="Malgun Gothic" font-size="10.00">UYisanOnlineSystem.h</text>
</a>
</g>
</g>
<!-- Node1&#45;&gt;Node12 -->
<g id="edge14_Node000001_Node000012" class="edge">
<title>Node1&#45;&gt;Node12</title>
<g id="a_edge14_Node000001_Node000012"><a xlink:title=" ">
<path fill="none" stroke="#63b8ff" d="M1062,-175.84C1062,-168.21 1062,-158.7 1062,-150.45"/>
<polygon fill="#63b8ff" stroke="#63b8ff" points="1065.5,-150.27 1062,-140.27 1058.5,-150.27 1065.5,-150.27"/>
</a>
</g>
</g>
<!-- Node17 -->
<g id="Node000017" class="node">
<title>Node17</title>
<g id="a_Node000017"><a xlink:title=" ">
<polygon fill="#e0e0e0" stroke="#999999" points="1276,-140 1144,-140 1144,-121 1276,-121 1276,-140"/>
<text text-anchor="middle" x="1210" y="-128" font-family="Malgun Gothic" font-size="10.00">Engine/GameInstance.h</text>
</a>
</g>
</g>
<!-- Node1&#45;&gt;Node17 -->
<g id="edge20_Node000001_Node000017" class="edge">
<title>Node1&#45;&gt;Node17</title>
<g id="a_edge20_Node000001_Node000017"><a xlink:title=" ">
<path fill="none" stroke="#63b8ff" d="M1097.45,-175.99C1122.14,-166.23 1154.78,-153.33 1178.55,-143.93"/>
<polygon fill="#63b8ff" stroke="#63b8ff" points="1180.13,-147.07 1188.14,-140.14 1177.56,-140.56 1180.13,-147.07"/>
</a>
</g>
</g>
<!-- Node18 -->
<g id="Node000018" class="node">
<title>Node18</title>
<g id="a_Node000018"><a xlink:title=" ">
<polygon fill="#e0e0e0" stroke="#999999" points="1422,-140 1294,-140 1294,-121 1422,-121 1422,-140"/>
<text text-anchor="middle" x="1358" y="-128" font-family="Malgun Gothic" font-size="10.00">Blueprint/WidgetTree.h</text>
</a>
</g>
</g>
<!-- Node1&#45;&gt;Node18 -->
<g id="edge22_Node000001_Node000018" class="edge">
<title>Node1&#45;&gt;Node18</title>
<g id="a_edge22_Node000001_Node000018"><a xlink:title=" ">
<path fill="none" stroke="#63b8ff" d="M1127.69,-177.02C1181.07,-166.47 1255.4,-151.78 1305.02,-141.97"/>
<polygon fill="#63b8ff" stroke="#63b8ff" points="1305.78,-145.39 1314.91,-140.02 1304.43,-138.52 1305.78,-145.39"/>
</a>
</g>
</g>
<!-- Node19 -->
<g id="Node000019" class="node">
<title>Node19</title>
<g id="a_Node000019"><a xlink:href="GameLogging_8h.html" target="_top" xlink:title="YiSan 전반에서 사용하는 공용 인터페이스를 선언합니다.">
<polygon fill="white" stroke="#666666" points="1898.5,-140 1805.5,-140 1805.5,-121 1898.5,-121 1898.5,-140"/>
<text text-anchor="middle" x="1852" y="-128" font-family="Malgun Gothic" font-size="10.00">GameLogging.h</text>
</a>
</g>
</g>
<!-- Node1&#45;&gt;Node19 -->
<g id="edge23_Node000001_Node000019" class="edge">
<title>Node1&#45;&gt;Node19</title>
<g id="a_edge23_Node000001_Node000019"><a xlink:title=" ">
<path fill="none" stroke="#63b8ff" d="M1127.66,-185.14C1279.37,-173.9 1652.17,-146.3 1795.02,-135.72"/>
<polygon fill="#63b8ff" stroke="#63b8ff" points="1795.59,-139.19 1805.31,-134.96 1795.07,-132.21 1795.59,-139.19"/>
</a>
</g>
</g>
<!-- Node3 -->
<g id="Node000003" class="node">
<title>Node3</title>
<g id="a_Node000003"><a xlink:title=" ">
<polygon fill="#e0e0e0" stroke="#999999" points="1050,-19 962,-19 962,0 1050,0 1050,-19"/>
<text text-anchor="middle" x="1006" y="-7" font-family="Malgun Gothic" font-size="10.00">CoreMinimal.h</text>
</a>
</g>
</g>
<!-- Node2&#45;&gt;Node3 -->
<g id="edge2_Node000002_Node000003" class="edge">
<title>Node2&#45;&gt;Node3</title>
<g id="a_edge2_Node000002_Node000003"><a xlink:title=" ">
<path fill="none" stroke="#63b8ff" d="M267.39,-120.62C252.1,-105.46 225.75,-74.35 244,-55 268.26,-29.29 781.6,-15.52 951.75,-11.65"/>
<polygon fill="#63b8ff" stroke="#63b8ff" points="952.06,-15.14 961.98,-11.42 951.9,-8.15 952.06,-15.14"/>
</a>
</g>
</g>
<!-- Node4 -->
<g id="Node000004" class="node">
<title>Node4</title>
<g id="a_Node000004"><a xlink:title=" ">
<polygon fill="#e0e0e0" stroke="#999999" points="130,-19 0,-19 0,0 130,0 130,-19"/>
<text text-anchor="middle" x="65" y="-7" font-family="Malgun Gothic" font-size="10.00">Blueprint/UserWidget.h</text>
</a>
</g>
</g>
<!-- Node2&#45;&gt;Node4 -->
<g id="edge3_Node000002_Node000004" class="edge">
<title>Node2&#45;&gt;Node4</title>
<g id="a_edge3_Node000002_Node000004"><a xlink:title=" ">
<path fill="none" stroke="#63b8ff" d="M227.95,-124.02C177.7,-117.43 104.17,-104.71 84,-85 69.26,-70.6 65.39,-46.47 64.64,-29.59"/>
<polygon fill="#63b8ff" stroke="#63b8ff" points="68.13,-29.23 64.52,-19.27 61.13,-29.31 68.13,-29.23"/>
</a>
</g>
</g>
<!-- Node2&#45;&gt;Node5 -->
<g id="edge4_Node000002_Node000005" class="edge">
<title>Node2&#45;&gt;Node5</title>
<g id="a_edge4_Node000002_Node000005"><a xlink:title=" ">
<path fill="none" stroke="#63b8ff" d="M308.84,-120.99C347.28,-110.73 412.03,-93.43 454.39,-82.12"/>
<polygon fill="#63b8ff" stroke="#63b8ff" points="455.36,-85.48 464.12,-79.52 453.55,-78.72 455.36,-85.48"/>
</a>
</g>
</g>
<!-- Node6 -->
<g id="Node000006" class="node">
<title>Node6</title>
<g id="a_Node000006"><a xlink:href="UPlayerListItem_8h.html" target="_top" xlink:title="UPlayerListItem 클래스를 선언합니다.">
<polygon fill="white" stroke="#666666" points="197,-79.5 93,-79.5 93,-60.5 197,-60.5 197,-79.5"/>
<text text-anchor="middle" x="145" y="-67.5" font-family="Malgun Gothic" font-size="10.00">UPlayerListItem.h</text>
</a>
</g>
</g>
<!-- Node2&#45;&gt;Node6 -->
<g id="edge5_Node000002_Node000006" class="edge">
<title>Node2&#45;&gt;Node6</title>
<g id="a_edge5_Node000002_Node000006"><a xlink:title=" ">
<path fill="none" stroke="#63b8ff" d="M257.81,-120.99C235.61,-111.16 198.88,-94.88 173.38,-83.58"/>
<polygon fill="#63b8ff" stroke="#63b8ff" points="174.78,-80.37 164.22,-79.52 171.94,-86.77 174.78,-80.37"/>
</a>
</g>
</g>
<!-- Node8 -->
<g id="Node000008" class="node">
<title>Node8</title>
<g id="a_Node000008"><a xlink:title=" ">
<polygon fill="#e0e0e0" stroke="#999999" points="404.5,-79.5 253.5,-79.5 253.5,-60.5 404.5,-60.5 404.5,-79.5"/>
<text text-anchor="middle" x="329" y="-67.5" font-family="Malgun Gothic" font-size="10.00">UPlayerWidget.generated.h</text>
</a>
</g>
</g>
<!-- Node2&#45;&gt;Node8 -->
<g id="edge9_Node000002_Node000008" class="edge">
<title>Node2&#45;&gt;Node8</title>
<g id="a_edge9_Node000002_Node000008"><a xlink:title=" ">
<path fill="none" stroke="#63b8ff" d="M284.67,-120.87C292.51,-112.05 304.86,-98.16 314.54,-87.27"/>
<polygon fill="#63b8ff" stroke="#63b8ff" points="317.27,-89.47 321.3,-79.67 312.04,-84.82 317.27,-89.47"/>
</a>
</g>
</g>
<!-- Node6&#45;&gt;Node3 -->
<g id="edge6_Node000006_Node000003" class="edge">
<title>Node6&#45;&gt;Node3</title>
<g id="a_edge6_Node000006_Node000003"><a xlink:title=" ">
<path fill="none" stroke="#63b8ff" d="M180.45,-60.44C190.29,-58.35 201.01,-56.33 211,-55 487.83,-18.11 822.85,-11.73 951.81,-10.68"/>
<polygon fill="#63b8ff" stroke="#63b8ff" points="951.85,-14.18 961.82,-10.61 951.8,-7.18 951.85,-14.18"/>
</a>
</g>
</g>
<!-- Node6&#45;&gt;Node4 -->
<g id="edge7_Node000006_Node000004" class="edge">
<title>Node6&#45;&gt;Node4</title>
<g id="a_edge7_Node000006_Node000004"><a xlink:title=" ">
<path fill="none" stroke="#63b8ff" d="M133.2,-60.37C120.55,-51.12 100.26,-36.28 85.09,-25.19"/>
<polygon fill="#63b8ff" stroke="#63b8ff" points="86.99,-22.24 76.85,-19.17 82.86,-27.9 86.99,-22.24"/>
</a>
</g>
</g>
<!-- Node7 -->
<g id="Node000007" class="node">
<title>Node7</title>
<g id="a_Node000007"><a xlink:title=" ">
<polygon fill="#e0e0e0" stroke="#999999" points="304,-19 148,-19 148,0 304,0 304,-19"/>
<text text-anchor="middle" x="226" y="-7" font-family="Malgun Gothic" font-size="10.00">UPlayerListItem.generated.h</text>
</a>
</g>
</g>
<!-- Node6&#45;&gt;Node7 -->
<g id="edge8_Node000006_Node000007" class="edge">
<title>Node6&#45;&gt;Node7</title>
<g id="a_edge8_Node000006_Node000007"><a xlink:title=" ">
<path fill="none" stroke="#63b8ff" d="M156.95,-60.37C169.75,-51.12 190.3,-36.28 205.65,-25.19"/>
<polygon fill="#63b8ff" stroke="#63b8ff" points="207.94,-27.86 214,-19.17 203.84,-22.18 207.94,-27.86"/>
</a>
</g>
</g>
<!-- Node9&#45;&gt;Node3 -->
<g id="edge11_Node000009_Node000003" class="edge">
<title>Node9&#45;&gt;Node3</title>
<g id="a_edge11_Node000009_Node000003"><a xlink:title=" ">
<path fill="none" stroke="#63b8ff" d="M744.27,-125.34C675.82,-118.3 575.76,-100.1 616,-55 637.96,-30.39 849.75,-17.55 951.7,-12.76"/>
<polygon fill="#63b8ff" stroke="#63b8ff" points="951.97,-16.25 961.8,-12.29 951.65,-9.25 951.97,-16.25"/>
</a>
</g>
</g>
<!-- Node10 -->
<g id="Node000010" class="node">
<title>Node10</title>
<g id="a_Node000010"><a xlink:title=" ">
<polygon fill="#e0e0e0" stroke="#999999" points="793.5,-79.5 624.5,-79.5 624.5,-60.5 793.5,-60.5 793.5,-79.5"/>
<text text-anchor="middle" x="709" y="-67.5" font-family="Malgun Gothic" font-size="10.00">GameFramework/PlayerState.h</text>
</a>
</g>
</g>
<!-- Node9&#45;&gt;Node10 -->
<g id="edge12_Node000009_Node000010" class="edge">
<title>Node9&#45;&gt;Node10</title>
<g id="a_edge12_Node000009_Node000010"><a xlink:title=" ">
<path fill="none" stroke="#63b8ff" d="M788.28,-120.87C773.3,-111.45 749.11,-96.23 731.38,-85.08"/>
<polygon fill="#63b8ff" stroke="#63b8ff" points="733.11,-82.03 722.78,-79.67 729.38,-87.95 733.11,-82.03"/>
</a>
</g>
</g>
<!-- Node11 -->
<g id="Node000011" class="node">
<title>Node11</title>
<g id="a_Node000011"><a xlink:title=" ">
<polygon fill="#e0e0e0" stroke="#999999" points="978.5,-79.5 811.5,-79.5 811.5,-60.5 978.5,-60.5 978.5,-79.5"/>
<text text-anchor="middle" x="895" y="-67.5" font-family="Malgun Gothic" font-size="10.00">AYiSanPlayerState.generated.h</text>
</a>
</g>
</g>
<!-- Node9&#45;&gt;Node11 -->
<g id="edge13_Node000009_Node000011" class="edge">
<title>Node9&#45;&gt;Node11</title>
<g id="a_edge13_Node000009_Node000011"><a xlink:title=" ">
<path fill="none" stroke="#63b8ff" d="M815.72,-120.87C830.7,-111.45 854.89,-96.23 872.62,-85.08"/>
<polygon fill="#63b8ff" stroke="#63b8ff" points="874.62,-87.95 881.22,-79.67 870.89,-82.03 874.62,-87.95"/>
</a>
</g>
</g>
<!-- Node12&#45;&gt;Node3 -->
<g id="edge15_Node000012_Node000003" class="edge">
<title>Node12&#45;&gt;Node3</title>
<g id="a_edge15_Node000012_Node000003"><a xlink:title=" ">
<path fill="none" stroke="#63b8ff" d="M1052.73,-120.83C1044.3,-112.43 1032.12,-98.96 1025,-85 1015.92,-67.2 1010.96,-44.75 1008.41,-29.17"/>
<polygon fill="#63b8ff" stroke="#63b8ff" points="1011.87,-28.59 1006.95,-19.2 1004.94,-29.6 1011.87,-28.59"/>
</a>
</g>
</g>
<!-- Node13 -->
<g id="Node000013" class="node">
<title>Node13</title>
<g id="a_Node000013"><a xlink:href="Macro_8h.html" target="_top" xlink:title="YiSan 전반에서 사용하는 공용 인터페이스를 선언합니다.">
<polygon fill="white" stroke="#666666" points="1090,-79.5 1034,-79.5 1034,-60.5 1090,-60.5 1090,-79.5"/>
<text text-anchor="middle" x="1062" y="-67.5" font-family="Malgun Gothic" font-size="10.00">Macro.h</text>
</a>
</g>
</g>
<!-- Node12&#45;&gt;Node13 -->
<g id="edge16_Node000012_Node000013" class="edge">
<title>Node12&#45;&gt;Node13</title>
<g id="a_edge16_Node000012_Node000013"><a xlink:title=" ">
<path fill="none" stroke="#63b8ff" d="M1062,-120.87C1062,-112.75 1062,-100.31 1062,-89.89"/>
<polygon fill="#63b8ff" stroke="#63b8ff" points="1065.5,-89.67 1062,-79.67 1058.5,-89.67 1065.5,-89.67"/>
</a>
</g>
</g>
<!-- Node14 -->
<g id="Node000014" class="node">
<title>Node14</title>
<g id="a_Node000014"><a xlink:title=" ">
<polygon fill="#e0e0e0" stroke="#999999" points="1245.5,-85 1108.5,-85 1108.5,-55 1245.5,-55 1245.5,-85"/>
<text text-anchor="start" x="1116.5" y="-73" font-family="Malgun Gothic" font-size="10.00">Interfaces/OnlineSession</text>
<text text-anchor="middle" x="1177" y="-62" font-family="Malgun Gothic" font-size="10.00">Interface.h</text>
</a>
</g>
</g>
<!-- Node12&#45;&gt;Node14 -->
<g id="edge17_Node000012_Node000014" class="edge">
<title>Node12&#45;&gt;Node14</title>
<g id="a_edge17_Node000012_Node000014"><a xlink:title=" ">
<path fill="none" stroke="#63b8ff" d="M1078.97,-120.87C1095.01,-112.71 1119.6,-100.2 1140.15,-89.75"/>
<polygon fill="#63b8ff" stroke="#63b8ff" points="1141.93,-92.77 1149.25,-85.11 1138.75,-86.53 1141.93,-92.77"/>
</a>
</g>
</g>
<!-- Node15 -->
<g id="Node000015" class="node">
<title>Node15</title>
<g id="a_Node000015"><a xlink:title=" ">
<polygon fill="#e0e0e0" stroke="#999999" points="1476,-79.5 1264,-79.5 1264,-60.5 1476,-60.5 1476,-79.5"/>
<text text-anchor="middle" x="1370" y="-67.5" font-family="Malgun Gothic" font-size="10.00">Subsystems/GameInstanceSubsystem.h</text>
</a>
</g>
</g>
<!-- Node12&#45;&gt;Node15 -->
<g id="edge18_Node000012_Node000015" class="edge">
<title>Node12&#45;&gt;Node15</title>
<g id="a_edge18_Node000012_Node000015"><a xlink:title=" ">
<path fill="none" stroke="#63b8ff" d="M1106.79,-120.99C1161.99,-110.51 1255.76,-92.7 1315.2,-81.41"/>
<polygon fill="#63b8ff" stroke="#63b8ff" points="1315.99,-84.82 1325.16,-79.52 1314.68,-77.94 1315.99,-84.82"/>
</a>
</g>
</g>
<!-- Node16 -->
<g id="Node000016" class="node">
<title>Node16</title>
<g id="a_Node000016"><a xlink:title=" ">
<polygon fill="#e0e0e0" stroke="#999999" points="1674,-79.5 1494,-79.5 1494,-60.5 1674,-60.5 1674,-79.5"/>
<text text-anchor="middle" x="1584" y="-67.5" font-family="Malgun Gothic" font-size="10.00">UYisanOnlineSystem.generated.h</text>
</a>
</g>
</g>
<!-- Node12&#45;&gt;Node16 -->
<g id="edge19_Node000012_Node000016" class="edge">
<title>Node12&#45;&gt;Node16</title>
<g id="a_edge19_Node000012_Node000016"><a xlink:title=" ">
<path fill="none" stroke="#63b8ff" d="M1126.09,-121.99C1129.1,-121.65 1132.08,-121.32 1135,-121 1290.44,-103.96 1329.78,-103.95 1485,-85 1495.18,-83.76 1505.94,-82.34 1516.47,-80.9"/>
<polygon fill="#63b8ff" stroke="#63b8ff" points="1517.04,-84.35 1526.46,-79.51 1516.08,-77.42 1517.04,-84.35"/>
</a>
</g>
</g>
<!-- Node19&#45;&gt;Node3 -->
<g id="edge24_Node000019_Node000003" class="edge">
<title>Node19&#45;&gt;Node3</title>
<g id="a_edge24_Node000019_Node000003"><a xlink:title=" ">
<path fill="none" stroke="#63b8ff" d="M1817.34,-120.96C1790.39,-113.55 1752.58,-101.42 1722,-85 1702.73,-74.66 1703.46,-62.72 1683,-55 1569.43,-12.17 1199.95,-9.46 1060.21,-10.03"/>
<polygon fill="#63b8ff" stroke="#63b8ff" points="1060.14,-6.53 1050.16,-10.08 1060.17,-13.53 1060.14,-6.53"/>
</a>
</g>
</g>
<!-- Node20 -->
<g id="Node000020" class="node">
<title>Node20</title>
<g id="a_Node000020"><a xlink:title=" ">
<polygon fill="#e0e0e0" stroke="#999999" points="1849.5,-79.5 1730.5,-79.5 1730.5,-60.5 1849.5,-60.5 1849.5,-79.5"/>
<text text-anchor="middle" x="1790" y="-67.5" font-family="Malgun Gothic" font-size="10.00">Logging/LogMacros.h</text>
</a>
</g>
</g>
<!-- Node19&#45;&gt;Node20 -->
<g id="edge25_Node000019_Node000020" class="edge">
<title>Node19&#45;&gt;Node20</title>
<g id="a_edge25_Node000019_Node000020"><a xlink:title=" ">
<path fill="none" stroke="#63b8ff" d="M1842.85,-120.87C1833.33,-111.88 1818.2,-97.61 1806.57,-86.64"/>
<polygon fill="#63b8ff" stroke="#63b8ff" points="1808.86,-83.98 1799.19,-79.67 1804.06,-89.08 1808.86,-83.98"/>
</a>
</g>
</g>
<!-- Node21 -->
<g id="Node000021" class="node">
<title>Node21</title>
<g id="a_Node000021"><a xlink:title=" ">
<polygon fill="#e0e0e0" stroke="#999999" points="1962.5,-79.5 1867.5,-79.5 1867.5,-60.5 1962.5,-60.5 1962.5,-79.5"/>
<text text-anchor="middle" x="1915" y="-67.5" font-family="Malgun Gothic" font-size="10.00">Engine/Engine.h</text>
</a>
</g>
</g>
<!-- Node19&#45;&gt;Node21 -->
<g id="edge26_Node000019_Node000021" class="edge">
<title>Node19&#45;&gt;Node21</title>
<g id="a_edge26_Node000019_Node000021"><a xlink:title=" ">
<path fill="none" stroke="#63b8ff" d="M1861.3,-120.87C1870.97,-111.88 1886.34,-97.61 1898.16,-86.64"/>
<polygon fill="#63b8ff" stroke="#63b8ff" points="1900.72,-89.04 1905.67,-79.67 1895.96,-83.91 1900.72,-89.04"/>
</a>
</g>
</g>
<!-- Node22 -->
<g id="Node000022" class="node">
<title>Node22</title>
<g id="a_Node000022"><a xlink:href="FLogWriter_8h.html" target="_top" xlink:title="FArchive 클래스를 선언합니다.">
<polygon fill="white" stroke="#666666" points="2059,-79.5 1981,-79.5 1981,-60.5 2059,-60.5 2059,-79.5"/>
<text text-anchor="middle" x="2020" y="-67.5" font-family="Malgun Gothic" font-size="10.00">FLogWriter.h</text>
</a>
</g>
</g>
<!-- Node19&#45;&gt;Node22 -->
<g id="edge27_Node000019_Node000022" class="edge">
<title>Node19&#45;&gt;Node22</title>
<g id="a_edge27_Node000019_Node000022"><a xlink:title=" ">
<path fill="none" stroke="#63b8ff" d="M1876.43,-120.99C1905.29,-110.94 1953.5,-94.16 1986,-82.84"/>
<polygon fill="#63b8ff" stroke="#63b8ff" points="1987.25,-86.11 1995.54,-79.52 1984.95,-79.5 1987.25,-86.11"/>
</a>
</g>
</g>
<!-- Node23 -->
<g id="Node000023" class="node">
<title>Node23</title>
<g id="a_Node000023"><a xlink:href="NetworkLog_8h.html" target="_top" xlink:title="YiSan 전반에서 사용하는 공용 인터페이스를 선언합니다.">
<polygon fill="white" stroke="#666666" points="2161,-79.5 2077,-79.5 2077,-60.5 2161,-60.5 2161,-79.5"/>
<text text-anchor="middle" x="2119" y="-67.5" font-family="Malgun Gothic" font-size="10.00">NetworkLog.h</text>
</a>
</g>
</g>
<!-- Node19&#45;&gt;Node23 -->
<g id="edge29_Node000019_Node000023" class="edge">
<title>Node19&#45;&gt;Node23</title>
<g id="a_edge29_Node000019_Node000023"><a xlink:title=" ">
<path fill="none" stroke="#63b8ff" d="M1897.7,-120.98C1941.55,-112.59 2009.55,-99.03 2068,-85 2071.65,-84.12 2075.44,-83.17 2079.23,-82.19"/>
<polygon fill="#63b8ff" stroke="#63b8ff" points="2080.39,-85.5 2089.15,-79.54 2078.59,-78.73 2080.39,-85.5"/>
</a>
</g>
</g>
<!-- Node22&#45;&gt;Node3 -->
<g id="edge28_Node000022_Node000003" class="edge">
<title>Node22&#45;&gt;Node3</title>
<g id="a_edge28_Node000022_Node000003"><a xlink:title=" ">
<path fill="none" stroke="#63b8ff" d="M1994.85,-60.45C1987.56,-58.3 1979.54,-56.25 1972,-55 1794.51,-25.46 1236.98,-14.19 1060.28,-11.3"/>
<polygon fill="#63b8ff" stroke="#63b8ff" points="1060.24,-7.8 1050.18,-11.14 1060.12,-14.8 1060.24,-7.8"/>
</a>
</g>
</g>
<!-- Node23&#45;&gt;Node3 -->
<g id="edge30_Node000023_Node000003" class="edge">
<title>Node23&#45;&gt;Node3</title>
<g id="a_edge30_Node000023_Node000003"><a xlink:title=" ">
<path fill="none" stroke="#63b8ff" d="M2092.25,-60.44C2084.5,-58.29 2075.98,-56.25 2068,-55 1870.71,-24.19 1248.06,-13.67 1060.19,-11.15"/>
<polygon fill="#63b8ff" stroke="#63b8ff" points="1060.05,-7.65 1050.01,-11.02 1059.96,-14.65 1060.05,-7.65"/>
</a>
</g>
</g>
</g>
</svg>
