<?xml version="1.0" encoding="UTF-8" standalone="no"?>
<!DOCTYPE svg PUBLIC "-//W3C//DTD SVG 1.1//EN"
 "http://www.w3.org/Graphics/SVG/1.1/DTD/svg11.dtd">
<!-- Generated by graphviz version 2.43.0 (0)
 -->
<!-- Title: Source/LatteLibrary/Character/Private/UStatSystem.cpp Pages: 1 -->
<svg width="1539pt" height="203pt"
 viewBox="0.00 0.00 1538.50 203.00" xmlns="http://www.w3.org/2000/svg" xmlns:xlink="http://www.w3.org/1999/xlink">
<g id="graph0" class="graph" transform="scale(1 1) rotate(0) translate(4 199)">
<title>Source/LatteLibrary/Character/Private/UStatSystem.cpp</title>
<!-- Node1 -->
<g id="Node000001" class="node">
<title>Node1</title>
<g id="a_Node000001"><a xlink:title="UStatSystem 구현에 대한 Doxygen 주석을 제공합니다.">
<polygon fill="#999999" stroke="#666666" points="535.5,-195 344.5,-195 344.5,-165 535.5,-165 535.5,-195"/>
<text text-anchor="start" x="352.5" y="-183" font-family="Malgun Gothic" font-size="10.00">Source/LatteLibrary</text>
<text text-anchor="middle" x="440" y="-172" font-family="Malgun Gothic" font-size="10.00">/Character/Private/UStatSystem.cpp</text>
</a>
</g>
</g>
<!-- Node2 -->
<g id="Node000002" class="node">
<title>Node2</title>
<g id="a_Node000002"><a xlink:href="UStatSystem_8h.html" target="_top" xlink:title="UStatSystem 선언에 대한 Doxygen 주석을 제공합니다.">
<polygon fill="white" stroke="#666666" points="361.5,-74 272.5,-74 272.5,-55 361.5,-55 361.5,-74"/>
<text text-anchor="middle" x="317" y="-62" font-family="Malgun Gothic" font-size="10.00">UStatSystem.h</text>
</a>
</g>
</g>
<!-- Node1&#45;&gt;Node2 -->
<g id="edge1_Node000001_Node000002" class="edge">
<title>Node1&#45;&gt;Node2</title>
<g id="a_edge1_Node000001_Node000002"><a xlink:title=" ">
<path fill="none" stroke="#63b8ff" d="M424.67,-164.85C401.63,-143.59 358.21,-103.52 334.14,-81.32"/>
<polygon fill="#63b8ff" stroke="#63b8ff" points="336.23,-78.48 326.5,-74.27 331.48,-83.62 336.23,-78.48"/>
</a>
</g>
</g>
<!-- Node7 -->
<g id="Node000007" class="node">
<title>Node7</title>
<g id="a_Node000007"><a xlink:href="FCharacterInfoData_8h.html" target="_top" xlink:title="FCharacterInfoData 구조체에 대한 Doxygen 주석을 제공합니다.">
<polygon fill="white" stroke="#666666" points="500.5,-74 379.5,-74 379.5,-55 500.5,-55 500.5,-74"/>
<text text-anchor="middle" x="440" y="-62" font-family="Malgun Gothic" font-size="10.00">FCharacterInfoData.h</text>
</a>
</g>
</g>
<!-- Node1&#45;&gt;Node7 -->
<g id="edge6_Node000001_Node000007" class="edge">
<title>Node1&#45;&gt;Node7</title>
<g id="a_edge6_Node000001_Node000007"><a xlink:title=" ">
<path fill="none" stroke="#63b8ff" d="M440,-164.63C440,-144.21 440,-106.81 440,-84.24"/>
<polygon fill="#63b8ff" stroke="#63b8ff" points="443.5,-84.23 440,-74.23 436.5,-84.23 443.5,-84.23"/>
</a>
</g>
</g>
<!-- Node10 -->
<g id="Node000010" class="node">
<title>Node10</title>
<g id="a_Node000010"><a xlink:href="UGameDataManager_8h.html" target="_top" xlink:title="UGameDataManager 선언에 대한 Doxygen 주석을 제공합니다.">
<polygon fill="white" stroke="#666666" points="847,-129 719,-129 719,-110 847,-110 847,-129"/>
<text text-anchor="middle" x="783" y="-117" font-family="Malgun Gothic" font-size="10.00">UGameDataManager.h</text>
</a>
</g>
</g>
<!-- Node1&#45;&gt;Node10 -->
<g id="edge11_Node000001_Node000010" class="edge">
<title>Node1&#45;&gt;Node10</title>
<g id="a_edge11_Node000001_Node000010"><a xlink:title=" ">
<path fill="none" stroke="#63b8ff" d="M522.16,-164.99C584.01,-154.44 667.37,-140.22 723.04,-130.73"/>
<polygon fill="#63b8ff" stroke="#63b8ff" points="723.83,-134.14 733.1,-129.01 722.65,-127.24 723.83,-134.14"/>
</a>
</g>
</g>
<!-- Node3 -->
<g id="Node000003" class="node">
<title>Node3</title>
<g id="a_Node000003"><a xlink:title=" ">
<polygon fill="#e0e0e0" stroke="#999999" points="749,-19 661,-19 661,0 749,0 749,-19"/>
<text text-anchor="middle" x="705" y="-7" font-family="Malgun Gothic" font-size="10.00">CoreMinimal.h</text>
</a>
</g>
</g>
<!-- Node2&#45;&gt;Node3 -->
<g id="edge2_Node000002_Node000003" class="edge">
<title>Node2&#45;&gt;Node3</title>
<g id="a_edge2_Node000002_Node000003"><a xlink:title=" ">
<path fill="none" stroke="#63b8ff" d="M361.52,-56.26C364.39,-55.82 367.23,-55.4 370,-55 491.46,-37.48 524.68,-36.81 650.76,-18.99"/>
<polygon fill="#63b8ff" stroke="#63b8ff" points="651.4,-22.43 660.81,-17.56 650.42,-15.5 651.4,-22.43"/>
</a>
</g>
</g>
<!-- Node4 -->
<g id="Node000004" class="node">
<title>Node4</title>
<g id="a_Node000004"><a xlink:href="ECharacterType_8h.html" target="_top" xlink:title="ECharacterType 열거형에 대한 Doxygen 주석을 제공합니다.">
<polygon fill="white" stroke="#666666" points="451.5,-19 350.5,-19 350.5,0 451.5,0 451.5,-19"/>
<text text-anchor="middle" x="401" y="-7" font-family="Malgun Gothic" font-size="10.00">ECharacterType.h</text>
</a>
</g>
</g>
<!-- Node2&#45;&gt;Node4 -->
<g id="edge3_Node000002_Node000004" class="edge">
<title>Node2&#45;&gt;Node4</title>
<g id="a_edge3_Node000002_Node000004"><a xlink:title=" ">
<path fill="none" stroke="#63b8ff" d="M330.5,-54.98C343.4,-46.84 363.1,-34.41 378.4,-24.76"/>
<polygon fill="#63b8ff" stroke="#63b8ff" points="380.67,-27.47 387.26,-19.17 376.93,-21.55 380.67,-27.47"/>
</a>
</g>
</g>
<!-- Node5 -->
<g id="Node000005" class="node">
<title>Node5</title>
<g id="a_Node000005"><a xlink:title=" ">
<polygon fill="#e0e0e0" stroke="#999999" points="172,-19 0,-19 0,0 172,0 172,-19"/>
<text text-anchor="middle" x="86" y="-7" font-family="Malgun Gothic" font-size="10.00">Components/ActorComponent.h</text>
</a>
</g>
</g>
<!-- Node2&#45;&gt;Node5 -->
<g id="edge4_Node000002_Node000005" class="edge">
<title>Node2&#45;&gt;Node5</title>
<g id="a_edge4_Node000002_Node000005"><a xlink:title=" ">
<path fill="none" stroke="#63b8ff" d="M279.89,-54.98C240.01,-45.84 176.54,-31.27 133.16,-21.32"/>
<polygon fill="#63b8ff" stroke="#63b8ff" points="133.93,-17.91 123.41,-19.08 132.37,-24.73 133.93,-17.91"/>
</a>
</g>
</g>
<!-- Node6 -->
<g id="Node000006" class="node">
<title>Node6</title>
<g id="a_Node000006"><a xlink:title=" ">
<polygon fill="#e0e0e0" stroke="#999999" points="332,-19 190,-19 190,0 332,0 332,-19"/>
<text text-anchor="middle" x="261" y="-7" font-family="Malgun Gothic" font-size="10.00">UStatSystem.generated.h</text>
</a>
</g>
</g>
<!-- Node2&#45;&gt;Node6 -->
<g id="edge5_Node000002_Node000006" class="edge">
<title>Node2&#45;&gt;Node6</title>
<g id="a_edge5_Node000002_Node000006"><a xlink:title=" ">
<path fill="none" stroke="#63b8ff" d="M308,-54.98C299.81,-47.23 287.49,-35.58 277.53,-26.14"/>
<polygon fill="#63b8ff" stroke="#63b8ff" points="279.83,-23.5 270.16,-19.17 275.02,-28.59 279.83,-23.5"/>
</a>
</g>
</g>
<!-- Node7&#45;&gt;Node3 -->
<g id="edge7_Node000007_Node000003" class="edge">
<title>Node7&#45;&gt;Node3</title>
<g id="a_edge7_Node000007_Node000003"><a xlink:title=" ">
<path fill="none" stroke="#63b8ff" d="M482.58,-54.98C528.7,-45.76 602.36,-31.03 652.16,-21.07"/>
<polygon fill="#63b8ff" stroke="#63b8ff" points="652.97,-24.48 662.09,-19.08 651.6,-17.61 652.97,-24.48"/>
</a>
</g>
</g>
<!-- Node7&#45;&gt;Node4 -->
<g id="edge8_Node000007_Node000004" class="edge">
<title>Node7&#45;&gt;Node4</title>
<g id="a_edge8_Node000007_Node000004"><a xlink:title=" ">
<path fill="none" stroke="#63b8ff" d="M433.56,-54.75C428.11,-47.34 420.14,-36.5 413.44,-27.41"/>
<polygon fill="#63b8ff" stroke="#63b8ff" points="416.07,-25.07 407.32,-19.09 410.43,-29.22 416.07,-25.07"/>
</a>
</g>
</g>
<!-- Node8 -->
<g id="Node000008" class="node">
<title>Node8</title>
<g id="a_Node000008"><a xlink:title=" ">
<polygon fill="#e0e0e0" stroke="#999999" points="1077,-19 967,-19 967,0 1077,0 1077,-19"/>
<text text-anchor="middle" x="1022" y="-7" font-family="Malgun Gothic" font-size="10.00">Engine/DataTable.h</text>
</a>
</g>
</g>
<!-- Node7&#45;&gt;Node8 -->
<g id="edge9_Node000007_Node000008" class="edge">
<title>Node7&#45;&gt;Node8</title>
<g id="a_edge9_Node000007_Node000008"><a xlink:title=" ">
<path fill="none" stroke="#63b8ff" d="M500.69,-55.98C503.84,-55.64 506.95,-55.31 510,-55 705.45,-35.29 757.65,-39.99 956.66,-19.09"/>
<polygon fill="#63b8ff" stroke="#63b8ff" points="957.29,-22.54 966.86,-18.01 956.55,-15.58 957.29,-22.54"/>
</a>
</g>
</g>
<!-- Node9 -->
<g id="Node000009" class="node">
<title>Node9</title>
<g id="a_Node000009"><a xlink:title=" ">
<polygon fill="#e0e0e0" stroke="#999999" points="642.5,-19 469.5,-19 469.5,0 642.5,0 642.5,-19"/>
<text text-anchor="middle" x="556" y="-7" font-family="Malgun Gothic" font-size="10.00">FCharacterInfoData.generated.h</text>
</a>
</g>
</g>
<!-- Node7&#45;&gt;Node9 -->
<g id="edge10_Node000007_Node000009" class="edge">
<title>Node7&#45;&gt;Node9</title>
<g id="a_edge10_Node000007_Node000009"><a xlink:title=" ">
<path fill="none" stroke="#63b8ff" d="M458.64,-54.98C477.3,-46.46 506.25,-33.23 527.74,-23.41"/>
<polygon fill="#63b8ff" stroke="#63b8ff" points="529.38,-26.51 537.02,-19.17 526.47,-20.14 529.38,-26.51"/>
</a>
</g>
</g>
<!-- Node10&#45;&gt;Node3 -->
<g id="edge12_Node000010_Node000003" class="edge">
<title>Node10&#45;&gt;Node3</title>
<g id="a_edge12_Node000010_Node000003"><a xlink:title=" ">
<path fill="none" stroke="#63b8ff" d="M775.31,-109.89C767.59,-101.1 755.52,-86.96 746,-74 734.98,-59 723.59,-41.13 715.61,-28.17"/>
<polygon fill="#63b8ff" stroke="#63b8ff" points="718.44,-26.07 710.25,-19.35 712.46,-29.71 718.44,-26.07"/>
</a>
</g>
</g>
<!-- Node10&#45;&gt;Node7 -->
<g id="edge24_Node000010_Node000007" class="edge">
<title>Node10&#45;&gt;Node7</title>
<g id="a_edge24_Node000010_Node000007"><a xlink:title=" ">
<path fill="none" stroke="#63b8ff" d="M727.89,-109.98C667.22,-100.61 569.76,-85.55 505.31,-75.59"/>
<polygon fill="#63b8ff" stroke="#63b8ff" points="505.67,-72.11 495.26,-74.04 504.6,-79.02 505.67,-72.11"/>
</a>
</g>
</g>
<!-- Node11 -->
<g id="Node000011" class="node">
<title>Node11</title>
<g id="a_Node000011"><a xlink:href="Macro_8h.html" target="_top" xlink:title="Manager 모듈에서 공통으로 사용하는 매크로 정의에 대한 Doxygen 주석을 제공합니다.">
<polygon fill="white" stroke="#666666" points="811,-74 755,-74 755,-55 811,-55 811,-74"/>
<text text-anchor="middle" x="783" y="-62" font-family="Malgun Gothic" font-size="10.00">Macro.h</text>
</a>
</g>
</g>
<!-- Node10&#45;&gt;Node11 -->
<g id="edge13_Node000010_Node000011" class="edge">
<title>Node10&#45;&gt;Node11</title>
<g id="a_edge13_Node000010_Node000011"><a xlink:title=" ">
<path fill="none" stroke="#63b8ff" d="M783,-109.75C783,-102.8 783,-92.85 783,-84.13"/>
<polygon fill="#63b8ff" stroke="#63b8ff" points="786.5,-84.09 783,-74.09 779.5,-84.09 786.5,-84.09"/>
</a>
</g>
</g>
<!-- Node12 -->
<g id="Node000012" class="node">
<title>Node12</title>
<g id="a_Node000012"><a xlink:href="FHitStopData_8h.html" target="_top" xlink:title="FHitStopData 구조체에 대한 Doxygen 주석을 제공합니다.">
<polygon fill="white" stroke="#666666" points="1067.5,-74 976.5,-74 976.5,-55 1067.5,-55 1067.5,-74"/>
<text text-anchor="middle" x="1022" y="-62" font-family="Malgun Gothic" font-size="10.00">FHitStopData.h</text>
</a>
</g>
</g>
<!-- Node10&#45;&gt;Node12 -->
<g id="edge14_Node000010_Node000012" class="edge">
<title>Node10&#45;&gt;Node12</title>
<g id="a_edge14_Node000010_Node000012"><a xlink:title=" ">
<path fill="none" stroke="#63b8ff" d="M821.4,-109.98C862.74,-100.82 928.6,-86.21 973.49,-76.26"/>
<polygon fill="#63b8ff" stroke="#63b8ff" points="974.29,-79.66 983.3,-74.08 972.78,-72.83 974.29,-79.66"/>
</a>
</g>
</g>
<!-- Node15 -->
<g id="Node000015" class="node">
<title>Node15</title>
<g id="a_Node000015"><a xlink:href="FKnockbackData_8h.html" target="_top" xlink:title="FKnockbackData 구조체에 대한 Doxygen 주석을 제공합니다.">
<polygon fill="white" stroke="#666666" points="1194,-74 1086,-74 1086,-55 1194,-55 1194,-74"/>
<text text-anchor="middle" x="1140" y="-62" font-family="Malgun Gothic" font-size="10.00">FKnockbackData.h</text>
</a>
</g>
</g>
<!-- Node10&#45;&gt;Node15 -->
<g id="edge19_Node000010_Node000015" class="edge">
<title>Node10&#45;&gt;Node15</title>
<g id="a_edge19_Node000010_Node000015"><a xlink:title=" ">
<path fill="none" stroke="#63b8ff" d="M840.36,-109.98C904.76,-100.42 1008.99,-84.95 1075.99,-75"/>
<polygon fill="#63b8ff" stroke="#63b8ff" points="1076.62,-78.45 1086,-73.52 1075.59,-71.52 1076.62,-78.45"/>
</a>
</g>
</g>
<!-- Node17 -->
<g id="Node000017" class="node">
<title>Node17</title>
<g id="a_Node000017"><a xlink:href="FCharacterAssetData_8h.html" target="_top" xlink:title="FCharacterAssetData 구조체에 대한 Doxygen 주석을 제공합니다.">
<polygon fill="white" stroke="#666666" points="958.5,-74 829.5,-74 829.5,-55 958.5,-55 958.5,-74"/>
<text text-anchor="middle" x="894" y="-62" font-family="Malgun Gothic" font-size="10.00">FCharacterAssetData.h</text>
</a>
</g>
</g>
<!-- Node10&#45;&gt;Node17 -->
<g id="edge25_Node000010_Node000017" class="edge">
<title>Node10&#45;&gt;Node17</title>
<g id="a_edge25_Node000010_Node000017"><a xlink:title=" ">
<path fill="none" stroke="#63b8ff" d="M800.83,-109.98C818.61,-101.5 846.15,-88.35 866.68,-78.54"/>
<polygon fill="#63b8ff" stroke="#63b8ff" points="868.33,-81.64 875.84,-74.17 865.31,-75.32 868.33,-81.64"/>
</a>
</g>
</g>
<!-- Node19 -->
<g id="Node000019" class="node">
<title>Node19</title>
<g id="a_Node000019"><a xlink:title=" ">
<polygon fill="#e0e0e0" stroke="#999999" points="1424,-74 1212,-74 1212,-55 1424,-55 1424,-74"/>
<text text-anchor="middle" x="1318" y="-62" font-family="Malgun Gothic" font-size="10.00">Subsystems/GameInstanceSubsystem.h</text>
</a>
</g>
</g>
<!-- Node10&#45;&gt;Node19 -->
<g id="edge30_Node000010_Node000019" class="edge">
<title>Node10&#45;&gt;Node19</title>
<g id="a_edge30_Node000010_Node000019"><a xlink:title=" ">
<path fill="none" stroke="#63b8ff" d="M847,-112.16C940.06,-102.94 1113.42,-85.77 1221.87,-75.02"/>
<polygon fill="#63b8ff" stroke="#63b8ff" points="1222.23,-78.5 1231.84,-74.04 1221.54,-71.54 1222.23,-78.5"/>
</a>
</g>
</g>
<!-- Node20 -->
<g id="Node000020" class="node">
<title>Node20</title>
<g id="a_Node000020"><a xlink:title=" ">
<polygon fill="#e0e0e0" stroke="#999999" points="699,-74 519,-74 519,-55 699,-55 699,-74"/>
<text text-anchor="middle" x="609" y="-62" font-family="Malgun Gothic" font-size="10.00">UGameDataManager.generated.h</text>
</a>
</g>
</g>
<!-- Node10&#45;&gt;Node20 -->
<g id="edge31_Node000010_Node000020" class="edge">
<title>Node10&#45;&gt;Node20</title>
<g id="a_edge31_Node000010_Node000020"><a xlink:title=" ">
<path fill="none" stroke="#63b8ff" d="M755.04,-109.98C725.7,-101.05 679.4,-86.94 646.81,-77.02"/>
<polygon fill="#63b8ff" stroke="#63b8ff" points="647.76,-73.65 637.18,-74.08 645.72,-80.34 647.76,-73.65"/>
</a>
</g>
</g>
<!-- Node12&#45;&gt;Node3 -->
<g id="edge15_Node000012_Node000003" class="edge">
<title>Node12&#45;&gt;Node3</title>
<g id="a_edge15_Node000012_Node000003"><a xlink:title=" ">
<path fill="none" stroke="#63b8ff" d="M976.24,-55.85C918.87,-46.26 820.62,-29.83 759.44,-19.6"/>
<polygon fill="#63b8ff" stroke="#63b8ff" points="759.65,-16.09 749.21,-17.89 758.49,-22.99 759.65,-16.09"/>
</a>
</g>
</g>
<!-- Node12&#45;&gt;Node8 -->
<g id="edge17_Node000012_Node000008" class="edge">
<title>Node12&#45;&gt;Node8</title>
<g id="a_edge17_Node000012_Node000008"><a xlink:title=" ">
<path fill="none" stroke="#63b8ff" d="M1022,-54.75C1022,-47.8 1022,-37.85 1022,-29.13"/>
<polygon fill="#63b8ff" stroke="#63b8ff" points="1025.5,-29.09 1022,-19.09 1018.5,-29.09 1025.5,-29.09"/>
</a>
</g>
</g>
<!-- Node13 -->
<g id="Node000013" class="node">
<title>Node13</title>
<g id="a_Node000013"><a xlink:href="EDamageType_8h.html" target="_top" xlink:title="EDamageType 열거형에 대한 Doxygen 주석을 제공합니다.">
<polygon fill="white" stroke="#666666" points="1351.5,-19 1256.5,-19 1256.5,0 1351.5,0 1351.5,-19"/>
<text text-anchor="middle" x="1304" y="-7" font-family="Malgun Gothic" font-size="10.00">EDamageType.h</text>
</a>
</g>
</g>
<!-- Node12&#45;&gt;Node13 -->
<g id="edge16_Node000012_Node000013" class="edge">
<title>Node12&#45;&gt;Node13</title>
<g id="a_edge16_Node000012_Node000013"><a xlink:title=" ">
<path fill="none" stroke="#63b8ff" d="M1067.31,-54.98C1116.6,-45.72 1195.43,-30.9 1248.43,-20.94"/>
<polygon fill="#63b8ff" stroke="#63b8ff" points="1249.16,-24.37 1258.34,-19.08 1247.86,-17.49 1249.16,-24.37"/>
</a>
</g>
</g>
<!-- Node14 -->
<g id="Node000014" class="node">
<title>Node14</title>
<g id="a_Node000014"><a xlink:title=" ">
<polygon fill="#e0e0e0" stroke="#999999" points="1238.5,-19 1095.5,-19 1095.5,0 1238.5,0 1238.5,-19"/>
<text text-anchor="middle" x="1167" y="-7" font-family="Malgun Gothic" font-size="10.00">FHitStopData.generated.h</text>
</a>
</g>
</g>
<!-- Node12&#45;&gt;Node14 -->
<g id="edge18_Node000012_Node000014" class="edge">
<title>Node12&#45;&gt;Node14</title>
<g id="a_edge18_Node000012_Node000014"><a xlink:title=" ">
<path fill="none" stroke="#63b8ff" d="M1045.3,-54.98C1069.25,-46.23 1106.78,-32.51 1133.83,-22.62"/>
<polygon fill="#63b8ff" stroke="#63b8ff" points="1135.09,-25.89 1143.28,-19.17 1132.69,-19.32 1135.09,-25.89"/>
</a>
</g>
</g>
<!-- Node15&#45;&gt;Node3 -->
<g id="edge20_Node000015_Node000003" class="edge">
<title>Node15&#45;&gt;Node3</title>
<g id="a_edge20_Node000015_Node000003"><a xlink:title=" ">
<path fill="none" stroke="#63b8ff" d="M1085.71,-56.1C1082.77,-55.72 1079.85,-55.35 1077,-55 938.58,-37.85 901.04,-38.27 759.17,-19.1"/>
<polygon fill="#63b8ff" stroke="#63b8ff" points="759.6,-15.63 749.22,-17.75 758.66,-22.57 759.6,-15.63"/>
</a>
</g>
</g>
<!-- Node15&#45;&gt;Node8 -->
<g id="edge22_Node000015_Node000008" class="edge">
<title>Node15&#45;&gt;Node8</title>
<g id="a_edge22_Node000015_Node000008"><a xlink:title=" ">
<path fill="none" stroke="#63b8ff" d="M1121.04,-54.98C1101.97,-46.42 1072.34,-33.11 1050.45,-23.28"/>
<polygon fill="#63b8ff" stroke="#63b8ff" points="1051.86,-20.07 1041.3,-19.17 1048.99,-26.46 1051.86,-20.07"/>
</a>
</g>
</g>
<!-- Node15&#45;&gt;Node13 -->
<g id="edge21_Node000015_Node000013" class="edge">
<title>Node15&#45;&gt;Node13</title>
<g id="a_edge21_Node000015_Node000013"><a xlink:title=" ">
<path fill="none" stroke="#63b8ff" d="M1166.35,-54.98C1193.76,-46.13 1236.89,-32.19 1267.56,-22.28"/>
<polygon fill="#63b8ff" stroke="#63b8ff" points="1269,-25.49 1277.44,-19.08 1266.85,-18.83 1269,-25.49"/>
</a>
</g>
</g>
<!-- Node16 -->
<g id="Node000016" class="node">
<title>Node16</title>
<g id="a_Node000016"><a xlink:title=" ">
<polygon fill="#e0e0e0" stroke="#999999" points="1530.5,-19 1369.5,-19 1369.5,0 1530.5,0 1530.5,-19"/>
<text text-anchor="middle" x="1450" y="-7" font-family="Malgun Gothic" font-size="10.00">FKnockbackData.generated.h</text>
</a>
</g>
</g>
<!-- Node15&#45;&gt;Node16 -->
<g id="edge23_Node000015_Node000016" class="edge">
<title>Node15&#45;&gt;Node16</title>
<g id="a_edge23_Node000015_Node000016"><a xlink:title=" ">
<path fill="none" stroke="#63b8ff" d="M1189.81,-54.98C1244.3,-45.67 1331.63,-30.74 1389.89,-20.78"/>
<polygon fill="#63b8ff" stroke="#63b8ff" points="1390.79,-24.17 1400.06,-19.04 1389.61,-17.27 1390.79,-24.17"/>
</a>
</g>
</g>
<!-- Node17&#45;&gt;Node3 -->
<g id="edge26_Node000017_Node000003" class="edge">
<title>Node17&#45;&gt;Node3</title>
<g id="a_edge26_Node000017_Node000003"><a xlink:title=" ">
<path fill="none" stroke="#63b8ff" d="M863.63,-54.98C831.63,-46.01 781.04,-31.82 745.62,-21.89"/>
<polygon fill="#63b8ff" stroke="#63b8ff" points="746.18,-18.41 735.6,-19.08 744.29,-25.15 746.18,-18.41"/>
</a>
</g>
</g>
<!-- Node17&#45;&gt;Node4 -->
<g id="edge27_Node000017_Node000004" class="edge">
<title>Node17&#45;&gt;Node4</title>
<g id="a_edge27_Node000017_Node000004"><a xlink:title=" ">
<path fill="none" stroke="#63b8ff" d="M829.43,-56.03C826.24,-55.68 823.09,-55.33 820,-55 663.4,-38.18 621.33,-38.45 461.69,-19.16"/>
<polygon fill="#63b8ff" stroke="#63b8ff" points="461.86,-15.66 451.51,-17.92 461.02,-22.61 461.86,-15.66"/>
</a>
</g>
</g>
<!-- Node17&#45;&gt;Node8 -->
<g id="edge28_Node000017_Node000008" class="edge">
<title>Node17&#45;&gt;Node8</title>
<g id="a_edge28_Node000017_Node000008"><a xlink:title=" ">
<path fill="none" stroke="#63b8ff" d="M914.57,-54.98C935.43,-46.34 967.97,-32.87 991.77,-23.02"/>
<polygon fill="#63b8ff" stroke="#63b8ff" points="993.16,-26.23 1001.06,-19.17 990.48,-19.76 993.16,-26.23"/>
</a>
</g>
</g>
<!-- Node18 -->
<g id="Node000018" class="node">
<title>Node18</title>
<g id="a_Node000018"><a xlink:title=" ">
<polygon fill="#e0e0e0" stroke="#999999" points="949,-19 767,-19 767,0 949,0 949,-19"/>
<text text-anchor="middle" x="858" y="-7" font-family="Malgun Gothic" font-size="10.00">FCharacterAssetData.generated.h</text>
</a>
</g>
</g>
<!-- Node17&#45;&gt;Node18 -->
<g id="edge29_Node000017_Node000018" class="edge">
<title>Node17&#45;&gt;Node18</title>
<g id="a_edge29_Node000017_Node000018"><a xlink:title=" ">
<path fill="none" stroke="#63b8ff" d="M888.06,-54.75C883.02,-47.34 875.66,-36.5 869.49,-27.41"/>
<polygon fill="#63b8ff" stroke="#63b8ff" points="872.35,-25.39 863.83,-19.09 866.56,-29.33 872.35,-25.39"/>
</a>
</g>
</g>
</g>
</svg>
