<?xml version="1.0" encoding="UTF-8" standalone="no"?>
<!DOCTYPE svg PUBLIC "-//W3C//DTD SVG 1.1//EN"
 "http://www.w3.org/Graphics/SVG/1.1/DTD/svg11.dtd">
<!-- Generated by graphviz version 2.43.0 (0)
 -->
<!-- Title: Source/LatteLibrary/Character/Public/UStatSystem.h Pages: 1 -->
<svg width="1162pt" height="258pt"
 viewBox="0.00 0.00 1162.48 258.00" xmlns="http://www.w3.org/2000/svg" xmlns:xlink="http://www.w3.org/1999/xlink">
<g id="graph0" class="graph" transform="scale(1 1) rotate(0) translate(4 254)">
<title>Source/LatteLibrary/Character/Public/UStatSystem.h</title>
<!-- Node1 -->
<g id="Node000001" class="node">
<title>Node1</title>
<g id="a_Node000001"><a xlink:title="UStatSystem 선언에 대한 Doxygen 주석을 제공합니다.">
<polygon fill="#999999" stroke="#666666" points="275.48,-250 100.48,-250 100.48,-220 275.48,-220 275.48,-250"/>
<text text-anchor="start" x="108.48" y="-238" font-family="Malgun Gothic" font-size="10.00">Source/LatteLibrary</text>
<text text-anchor="middle" x="187.98" y="-227" font-family="Malgun Gothic" font-size="10.00">/Character/Public/UStatSystem.h</text>
</a>
</g>
</g>
<!-- Node2 -->
<g id="Node000002" class="node">
<title>Node2</title>
<g id="a_Node000002"><a xlink:href="AGameCharacter_8cpp.html" target="_top" xlink:title="AGameCharacter 구현에 대한 Doxygen 주석을 제공합니다.">
<polygon fill="white" stroke="#666666" points="230.98,-112.5 20.98,-112.5 20.98,-82.5 230.98,-82.5 230.98,-112.5"/>
<text text-anchor="start" x="28.98" y="-100.5" font-family="Malgun Gothic" font-size="10.00">Source/LatteLibrary</text>
<text text-anchor="middle" x="125.98" y="-89.5" font-family="Malgun Gothic" font-size="10.00">/Character/Private/AGameCharacter.cpp</text>
</a>
</g>
</g>
<!-- Node1&#45;&gt;Node2 -->
<g id="edge1_Node000001_Node000002" class="edge">
<title>Node1&#45;&gt;Node2</title>
<g id="a_edge1_Node000001_Node000002"><a xlink:title=" ">
<path fill="none" stroke="#63b8ff" d="M165.25,-212.34C157.79,-204.11 150.11,-194.24 144.98,-184 133.26,-160.62 128.71,-130.06 126.99,-112.52"/>
<polygon fill="#63b8ff" stroke="#63b8ff" points="162.82,-214.85 172.25,-219.68 167.89,-210.03 162.82,-214.85"/>
</a>
</g>
</g>
<!-- Node3 -->
<g id="Node000003" class="node">
<title>Node3</title>
<g id="a_Node000003"><a xlink:href="APlayerActor_8cpp.html" target="_top" xlink:title="APlayerActor 구현에 대한 Doxygen 주석을 제공합니다.">
<polygon fill="white" stroke="#666666" points="337.48,-41 192.48,-41 192.48,0 337.48,0 337.48,-41"/>
<text text-anchor="start" x="200.48" y="-29" font-family="Malgun Gothic" font-size="10.00">Source/LatteLibrary</text>
<text text-anchor="start" x="200.48" y="-18" font-family="Malgun Gothic" font-size="10.00">/Character/Private/APlayer</text>
<text text-anchor="middle" x="264.98" y="-7" font-family="Malgun Gothic" font-size="10.00">Actor.cpp</text>
</a>
</g>
</g>
<!-- Node1&#45;&gt;Node3 -->
<g id="edge2_Node000001_Node000003" class="edge">
<title>Node1&#45;&gt;Node3</title>
<g id="a_edge2_Node000001_Node000003"><a xlink:title=" ">
<path fill="none" stroke="#63b8ff" d="M139.12,-216.17C72.29,-189.09 -34.38,-134.63 11.98,-77 34.28,-49.28 125.69,-34.62 192.24,-27.47"/>
<polygon fill="#63b8ff" stroke="#63b8ff" points="138.09,-219.52 148.67,-219.96 140.67,-213.02 138.09,-219.52"/>
</a>
</g>
</g>
<!-- Node4 -->
<g id="Node000004" class="node">
<title>Node4</title>
<g id="a_Node000004"><a xlink:href="UStatSystem_8cpp.html" target="_top" xlink:title="UStatSystem 구현에 대한 Doxygen 주석을 제공합니다.">
<polygon fill="white" stroke="#666666" points="345.48,-184 154.48,-184 154.48,-154 345.48,-154 345.48,-184"/>
<text text-anchor="start" x="162.48" y="-172" font-family="Malgun Gothic" font-size="10.00">Source/LatteLibrary</text>
<text text-anchor="middle" x="249.98" y="-161" font-family="Malgun Gothic" font-size="10.00">/Character/Private/UStatSystem.cpp</text>
</a>
</g>
</g>
<!-- Node1&#45;&gt;Node4 -->
<g id="edge3_Node000001_Node000004" class="edge">
<title>Node1&#45;&gt;Node4</title>
<g id="a_edge3_Node000001_Node000004"><a xlink:title=" ">
<path fill="none" stroke="#63b8ff" d="M208.93,-212.37C217.95,-203.06 228.23,-192.44 236.25,-184.16"/>
<polygon fill="#63b8ff" stroke="#63b8ff" points="206.18,-210.18 201.74,-219.8 211.21,-215.05 206.18,-210.18"/>
</a>
</g>
</g>
<!-- Node5 -->
<g id="Node000005" class="node">
<title>Node5</title>
<g id="a_Node000005"><a xlink:href="AGameCharacter_8h.html" target="_top" xlink:title="LatteLibrary 전반에서 사용하는 기반 캐릭터 클래스를 선언합니다.">
<polygon fill="white" stroke="#666666" points="599.98,-184 405.98,-184 405.98,-154 599.98,-154 599.98,-184"/>
<text text-anchor="start" x="413.98" y="-172" font-family="Malgun Gothic" font-size="10.00">Source/LatteLibrary</text>
<text text-anchor="middle" x="502.98" y="-161" font-family="Malgun Gothic" font-size="10.00">/Character/Public/AGameCharacter.h</text>
</a>
</g>
</g>
<!-- Node1&#45;&gt;Node5 -->
<g id="edge4_Node000001_Node000005" class="edge">
<title>Node1&#45;&gt;Node5</title>
<g id="a_edge4_Node000001_Node000005"><a xlink:title=" ">
<path fill="none" stroke="#63b8ff" d="M267.17,-217.91C318.54,-207.47 384.81,-194.01 434.01,-184.01"/>
<polygon fill="#63b8ff" stroke="#63b8ff" points="266.21,-214.53 257.1,-219.95 267.6,-221.39 266.21,-214.53"/>
</a>
</g>
</g>
<!-- Node5&#45;&gt;Node2 -->
<g id="edge5_Node000005_Node000002" class="edge">
<title>Node5&#45;&gt;Node2</title>
<g id="a_edge5_Node000005_Node000002"><a xlink:title=" ">
<path fill="none" stroke="#63b8ff" d="M416.51,-152.06C351.83,-140.14 264.21,-123.98 202.15,-112.54"/>
<polygon fill="#63b8ff" stroke="#63b8ff" points="416.22,-155.56 426.68,-153.94 417.48,-148.68 416.22,-155.56"/>
</a>
</g>
</g>
<!-- Node6 -->
<g id="Node000006" class="node">
<title>Node6</title>
<g id="a_Node000006"><a xlink:href="UCameraShakeSystem_8cpp.html" target="_top" xlink:title="UCameraShakeSystem 구현에 대한 Doxygen 주석을 제공합니다.">
<polygon fill="white" stroke="#666666" points="949.48,-118 796.48,-118 796.48,-77 949.48,-77 949.48,-118"/>
<text text-anchor="start" x="804.48" y="-106" font-family="Malgun Gothic" font-size="10.00">Source/LatteLibrary</text>
<text text-anchor="start" x="804.48" y="-95" font-family="Malgun Gothic" font-size="10.00">/Character/Private/UCamera</text>
<text text-anchor="middle" x="872.98" y="-84" font-family="Malgun Gothic" font-size="10.00">ShakeSystem.cpp</text>
</a>
</g>
</g>
<!-- Node5&#45;&gt;Node6 -->
<g id="edge6_Node000005_Node000006" class="edge">
<title>Node5&#45;&gt;Node6</title>
<g id="a_edge6_Node000005_Node000006"><a xlink:title=" ">
<path fill="none" stroke="#63b8ff" d="M600.01,-152.26C655.24,-142.98 725.63,-130.61 787.98,-118 790.65,-117.46 793.36,-116.9 796.1,-116.32"/>
<polygon fill="#63b8ff" stroke="#63b8ff" points="599.16,-148.85 589.88,-153.96 600.32,-155.76 599.16,-148.85"/>
</a>
</g>
</g>
<!-- Node7 -->
<g id="Node000007" class="node">
<title>Node7</title>
<g id="a_Node000007"><a xlink:href="UFlySystem_8cpp.html" target="_top" xlink:title="UFlySystem 구현에 대한 Doxygen 주석을 제공합니다.">
<polygon fill="white" stroke="#666666" points="1154.48,-112.5 967.48,-112.5 967.48,-82.5 1154.48,-82.5 1154.48,-112.5"/>
<text text-anchor="start" x="975.48" y="-100.5" font-family="Malgun Gothic" font-size="10.00">Source/LatteLibrary</text>
<text text-anchor="middle" x="1060.98" y="-89.5" font-family="Malgun Gothic" font-size="10.00">/Character/Private/UFlySystem.cpp</text>
</a>
</g>
</g>
<!-- Node5&#45;&gt;Node7 -->
<g id="edge7_Node000005_Node000007" class="edge">
<title>Node5&#45;&gt;Node7</title>
<g id="a_edge7_Node000005_Node000007"><a xlink:title=" ">
<path fill="none" stroke="#63b8ff" d="M610.45,-158.65C703.05,-150.02 840.17,-135.84 958.98,-118 969.58,-116.41 980.77,-114.5 991.7,-112.51"/>
<polygon fill="#63b8ff" stroke="#63b8ff" points="609.86,-155.19 600.23,-159.6 610.51,-162.16 609.86,-155.19"/>
</a>
</g>
</g>
<!-- Node8 -->
<g id="Node000008" class="node">
<title>Node8</title>
<g id="a_Node000008"><a xlink:href="UHitStopSystem_8cpp.html" target="_top" xlink:title="UHitStopSystem 구현에 대한 Doxygen 주석을 제공합니다.">
<polygon fill="white" stroke="#666666" points="400.48,-118 249.48,-118 249.48,-77 400.48,-77 400.48,-118"/>
<text text-anchor="start" x="257.48" y="-106" font-family="Malgun Gothic" font-size="10.00">Source/LatteLibrary</text>
<text text-anchor="start" x="257.48" y="-95" font-family="Malgun Gothic" font-size="10.00">/Character/Private/UHitStop</text>
<text text-anchor="middle" x="324.98" y="-84" font-family="Malgun Gothic" font-size="10.00">System.cpp</text>
</a>
</g>
</g>
<!-- Node5&#45;&gt;Node8 -->
<g id="edge8_Node000005_Node000008" class="edge">
<title>Node5&#45;&gt;Node8</title>
<g id="a_edge8_Node000005_Node000008"><a xlink:title=" ">
<path fill="none" stroke="#63b8ff" d="M457.63,-150.29C432.43,-140.46 401.03,-128.2 375.11,-118.07"/>
<polygon fill="#63b8ff" stroke="#63b8ff" points="456.37,-153.56 466.96,-153.94 458.91,-147.04 456.37,-153.56"/>
</a>
</g>
</g>
<!-- Node9 -->
<g id="Node000009" class="node">
<title>Node9</title>
<g id="a_Node000009"><a xlink:href="UKnockbackSystem_8cpp.html" target="_top" xlink:title="UKnockbackSystem 구현에 대한 Doxygen 주석을 제공합니다.">
<polygon fill="white" stroke="#666666" points="586.98,-118 418.98,-118 418.98,-77 586.98,-77 586.98,-118"/>
<text text-anchor="start" x="426.98" y="-106" font-family="Malgun Gothic" font-size="10.00">Source/LatteLibrary</text>
<text text-anchor="start" x="426.98" y="-95" font-family="Malgun Gothic" font-size="10.00">/Character/Private/UKnockback</text>
<text text-anchor="middle" x="502.98" y="-84" font-family="Malgun Gothic" font-size="10.00">System.cpp</text>
</a>
</g>
</g>
<!-- Node5&#45;&gt;Node9 -->
<g id="edge9_Node000005_Node000009" class="edge">
<title>Node5&#45;&gt;Node9</title>
<g id="a_edge9_Node000005_Node000009"><a xlink:title=" ">
<path fill="none" stroke="#63b8ff" d="M502.98,-143.91C502.98,-135.47 502.98,-126.1 502.98,-118.07"/>
<polygon fill="#63b8ff" stroke="#63b8ff" points="499.48,-143.94 502.98,-153.94 506.48,-143.94 499.48,-143.94"/>
</a>
</g>
</g>
<!-- Node10 -->
<g id="Node000010" class="node">
<title>Node10</title>
<g id="a_Node000010"><a xlink:href="APlayerActor_8h.html" target="_top" xlink:title="APlayerActor 선언에 대한 Doxygen 주석을 제공합니다.">
<polygon fill="white" stroke="#666666" points="778.48,-112.5 605.48,-112.5 605.48,-82.5 778.48,-82.5 778.48,-112.5"/>
<text text-anchor="start" x="613.48" y="-100.5" font-family="Malgun Gothic" font-size="10.00">Source/LatteLibrary</text>
<text text-anchor="middle" x="691.98" y="-89.5" font-family="Malgun Gothic" font-size="10.00">/Character/Public/APlayerActor.h</text>
</a>
</g>
</g>
<!-- Node5&#45;&gt;Node10 -->
<g id="edge10_Node000005_Node000010" class="edge">
<title>Node5&#45;&gt;Node10</title>
<g id="a_edge10_Node000005_Node000010"><a xlink:title=" ">
<path fill="none" stroke="#63b8ff" d="M550.8,-150.42C582.7,-138.68 624.08,-123.47 653.79,-112.54"/>
<polygon fill="#63b8ff" stroke="#63b8ff" points="549.4,-147.2 541.22,-153.94 551.82,-153.77 549.4,-147.2"/>
</a>
</g>
</g>
<!-- Node10&#45;&gt;Node3 -->
<g id="edge11_Node000010_Node000003" class="edge">
<title>Node10&#45;&gt;Node3</title>
<g id="a_edge11_Node000010_Node000003"><a xlink:title=" ">
<path fill="none" stroke="#63b8ff" d="M614.52,-80.53C608.25,-79.31 602.01,-78.12 595.98,-77 507.32,-60.57 404.89,-43.72 337.75,-32.97"/>
<polygon fill="#63b8ff" stroke="#63b8ff" points="613.89,-83.97 624.37,-82.47 615.24,-77.1 613.89,-83.97"/>
</a>
</g>
</g>
<!-- Node11 -->
<g id="Node000011" class="node">
<title>Node11</title>
<g id="a_Node000011"><a xlink:href="UMainWdget_8cpp.html" target="_top" xlink:title=" ">
<polygon fill="white" stroke="#666666" points="757.48,-35.5 626.48,-35.5 626.48,-5.5 757.48,-5.5 757.48,-35.5"/>
<text text-anchor="start" x="634.48" y="-23.5" font-family="Malgun Gothic" font-size="10.00">Source/YiSan/UI/Private</text>
<text text-anchor="middle" x="691.98" y="-12.5" font-family="Malgun Gothic" font-size="10.00">/UMainWdget.cpp</text>
</a>
</g>
</g>
<!-- Node10&#45;&gt;Node11 -->
<g id="edge12_Node000010_Node000011" class="edge">
<title>Node10&#45;&gt;Node11</title>
<g id="a_edge12_Node000010_Node000011"><a xlink:title=" ">
<path fill="none" stroke="#63b8ff" d="M691.98,-72.04C691.98,-59.95 691.98,-45.79 691.98,-35.54"/>
<polygon fill="#63b8ff" stroke="#63b8ff" points="688.48,-72.39 691.98,-82.39 695.48,-72.39 688.48,-72.39"/>
</a>
</g>
</g>
</g>
</svg>
