<?xml version="1.0" encoding="UTF-8" standalone="no"?>
<!DOCTYPE svg PUBLIC "-//W3C//DTD SVG 1.1//EN"
 "http://www.w3.org/Graphics/SVG/1.1/DTD/svg11.dtd">
<!-- Generated by graphviz version 2.43.0 (0)
 -->
<!-- Title: Source/LatteLibrary/Character/Public/UStatSystem.h Pages: 1 -->
<svg width="1163pt" height="258pt"
 viewBox="0.00 0.00 1162.79 258.00" xmlns="http://www.w3.org/2000/svg" xmlns:xlink="http://www.w3.org/1999/xlink">
<g id="graph0" class="graph" transform="scale(1 1) rotate(0) translate(4 254)">
<title>Source/LatteLibrary/Character/Public/UStatSystem.h</title>
<!-- Node1 -->
<g id="Node000001" class="node">
<title>Node1</title>
<g id="a_Node000001"><a xlink:title="UStatSystem 선언에 대한 Doxygen 주석을 제공합니다.">
<polygon fill="#999999" stroke="#666666" points="289.79,-250 114.79,-250 114.79,-220 289.79,-220 289.79,-250"/>
<text text-anchor="start" x="122.79" y="-238" font-family="Malgun Gothic" font-size="10.00">Source/LatteLibrary</text>
<text text-anchor="middle" x="202.29" y="-227" font-family="Malgun Gothic" font-size="10.00">/Character/Public/UStatSystem.h</text>
</a>
</g>
</g>
<!-- Node2 -->
<g id="Node000002" class="node">
<title>Node2</title>
<g id="a_Node000002"><a xlink:href="AGameCharacter_8cpp.html" target="_top" xlink:title="AGameCharacter 구현에 대한 Doxygen 주석을 제공합니다.">
<polygon fill="white" stroke="#666666" points="231.29,-112.5 21.29,-112.5 21.29,-82.5 231.29,-82.5 231.29,-112.5"/>
<text text-anchor="start" x="29.29" y="-100.5" font-family="Malgun Gothic" font-size="10.00">Source/LatteLibrary</text>
<text text-anchor="middle" x="126.29" y="-89.5" font-family="Malgun Gothic" font-size="10.00">/Character/Private/AGameCharacter.cpp</text>
</a>
</g>
</g>
<!-- Node1&#45;&gt;Node2 -->
<g id="edge1_Node000001_Node000002" class="edge">
<title>Node1&#45;&gt;Node2</title>
<g id="a_edge1_Node000001_Node000002"><a xlink:title=" ">
<path fill="none" stroke="#63b8ff" d="M135.4,-215.72C120.35,-208.36 106.22,-198.14 97.29,-184 82.9,-161.2 100.93,-130.44 114.32,-112.71"/>
<polygon fill="#63b8ff" stroke="#63b8ff" points="134.29,-219.06 144.85,-219.95 137.14,-212.67 134.29,-219.06"/>
</a>
</g>
</g>
<!-- Node3 -->
<g id="Node000003" class="node">
<title>Node3</title>
<g id="a_Node000003"><a xlink:href="APlayerActor_8cpp.html" target="_top" xlink:title="Provides Doxygen annotations for APlayerActor implementation.">
<polygon fill="white" stroke="#666666" points="337.79,-41 192.79,-41 192.79,0 337.79,0 337.79,-41"/>
<text text-anchor="start" x="200.79" y="-29" font-family="Malgun Gothic" font-size="10.00">Source/LatteLibrary</text>
<text text-anchor="start" x="200.79" y="-18" font-family="Malgun Gothic" font-size="10.00">/Character/Private/APlayer</text>
<text text-anchor="middle" x="265.29" y="-7" font-family="Malgun Gothic" font-size="10.00">Actor.cpp</text>
</a>
</g>
</g>
<!-- Node1&#45;&gt;Node3 -->
<g id="edge2_Node000001_Node000003" class="edge">
<title>Node1&#45;&gt;Node3</title>
<g id="a_edge2_Node000001_Node000003"><a xlink:title=" ">
<path fill="none" stroke="#63b8ff" d="M148.7,-216.38C77,-189.99 -35.87,-136.87 12.29,-77 34.59,-49.28 126,-34.62 192.55,-27.47"/>
<polygon fill="#63b8ff" stroke="#63b8ff" points="147.93,-219.82 158.52,-219.92 150.3,-213.23 147.93,-219.82"/>
</a>
</g>
</g>
<!-- Node4 -->
<g id="Node000004" class="node">
<title>Node4</title>
<g id="a_Node000004"><a xlink:href="UStatSystem_8cpp.html" target="_top" xlink:title="UStatSystem 구현에 대한 Doxygen 주석을 제공합니다.">
<polygon fill="white" stroke="#666666" points="297.79,-184 106.79,-184 106.79,-154 297.79,-154 297.79,-184"/>
<text text-anchor="start" x="114.79" y="-172" font-family="Malgun Gothic" font-size="10.00">Source/LatteLibrary</text>
<text text-anchor="middle" x="202.29" y="-161" font-family="Malgun Gothic" font-size="10.00">/Character/Private/UStatSystem.cpp</text>
</a>
</g>
</g>
<!-- Node1&#45;&gt;Node4 -->
<g id="edge3_Node000001_Node000004" class="edge">
<title>Node1&#45;&gt;Node4</title>
<g id="a_edge3_Node000001_Node000004"><a xlink:title=" ">
<path fill="none" stroke="#63b8ff" d="M202.29,-209.54C202.29,-200.96 202.29,-191.61 202.29,-184.16"/>
<polygon fill="#63b8ff" stroke="#63b8ff" points="198.79,-209.8 202.29,-219.8 205.79,-209.8 198.79,-209.8"/>
</a>
</g>
</g>
<!-- Node5 -->
<g id="Node000005" class="node">
<title>Node5</title>
<g id="a_Node000005"><a xlink:href="UVoiceSystem_8cpp.html" target="_top" xlink:title="Implementation of UVoiceSystem.">
<polygon fill="white" stroke="#666666" points="514.29,-184 316.29,-184 316.29,-154 514.29,-154 514.29,-184"/>
<text text-anchor="start" x="324.29" y="-172" font-family="Malgun Gothic" font-size="10.00">Source/LatteLibrary</text>
<text text-anchor="middle" x="415.29" y="-161" font-family="Malgun Gothic" font-size="10.00">/Character/Private/UVoiceSystem.cpp</text>
</a>
</g>
</g>
<!-- Node1&#45;&gt;Node5 -->
<g id="edge4_Node000001_Node000005" class="edge">
<title>Node1&#45;&gt;Node5</title>
<g id="a_edge4_Node000001_Node000005"><a xlink:title=" ">
<path fill="none" stroke="#63b8ff" d="M258.9,-216.99C293.18,-206.69 336.36,-193.72 368.65,-184.01"/>
<polygon fill="#63b8ff" stroke="#63b8ff" points="257.6,-213.73 249.03,-219.95 259.62,-220.43 257.6,-213.73"/>
</a>
</g>
</g>
<!-- Node6 -->
<g id="Node000006" class="node">
<title>Node6</title>
<g id="a_Node000006"><a xlink:href="AGameCharacter_8h.html" target="_top" xlink:title="LatteLibrary 전반에서 사용하는 기반 캐릭터 클래스를 선언합니다.">
<polygon fill="white" stroke="#666666" points="726.29,-184 532.29,-184 532.29,-154 726.29,-154 726.29,-184"/>
<text text-anchor="start" x="540.29" y="-172" font-family="Malgun Gothic" font-size="10.00">Source/LatteLibrary</text>
<text text-anchor="middle" x="629.29" y="-161" font-family="Malgun Gothic" font-size="10.00">/Character/Public/AGameCharacter.h</text>
</a>
</g>
</g>
<!-- Node1&#45;&gt;Node6 -->
<g id="edge5_Node000001_Node000006" class="edge">
<title>Node1&#45;&gt;Node6</title>
<g id="a_edge5_Node000001_Node000006"><a xlink:title=" ">
<path fill="none" stroke="#63b8ff" d="M300.25,-219.32C371.03,-208.71 466.05,-194.47 535.79,-184.01"/>
<polygon fill="#63b8ff" stroke="#63b8ff" points="299.36,-215.91 289.99,-220.86 300.4,-222.83 299.36,-215.91"/>
</a>
</g>
</g>
<!-- Node6&#45;&gt;Node2 -->
<g id="edge6_Node000006_Node000002" class="edge">
<title>Node6&#45;&gt;Node2</title>
<g id="a_edge6_Node000006_Node000002"><a xlink:title=" ">
<path fill="none" stroke="#63b8ff" d="M522.21,-153.87C396.32,-137.66 363.09,-136.09 241.29,-118 229.97,-116.32 218.05,-114.43 206.34,-112.51"/>
<polygon fill="#63b8ff" stroke="#63b8ff" points="521.88,-157.35 532.24,-155.17 522.78,-150.41 521.88,-157.35"/>
</a>
</g>
</g>
<!-- Node7 -->
<g id="Node000007" class="node">
<title>Node7</title>
<g id="a_Node000007"><a xlink:href="UCameraShakeSystem_8cpp.html" target="_top" xlink:title="UCameraShakeSystem 구현에 대한 Doxygen 주석을 제공합니다.">
<polygon fill="white" stroke="#666666" points="949.79,-118 796.79,-118 796.79,-77 949.79,-77 949.79,-118"/>
<text text-anchor="start" x="804.79" y="-106" font-family="Malgun Gothic" font-size="10.00">Source/LatteLibrary</text>
<text text-anchor="start" x="804.79" y="-95" font-family="Malgun Gothic" font-size="10.00">/Character/Private/UCamera</text>
<text text-anchor="middle" x="873.29" y="-84" font-family="Malgun Gothic" font-size="10.00">ShakeSystem.cpp</text>
</a>
</g>
</g>
<!-- Node6&#45;&gt;Node7 -->
<g id="edge7_Node000006_Node000007" class="edge">
<title>Node6&#45;&gt;Node7</title>
<g id="a_edge7_Node000006_Node000007"><a xlink:title=" ">
<path fill="none" stroke="#63b8ff" d="M688.73,-151.07C723.71,-141.11 768.09,-128.46 804.57,-118.07"/>
<polygon fill="#63b8ff" stroke="#63b8ff" points="687.32,-147.83 678.67,-153.94 689.24,-154.56 687.32,-147.83"/>
</a>
</g>
</g>
<!-- Node8 -->
<g id="Node000008" class="node">
<title>Node8</title>
<g id="a_Node000008"><a xlink:href="UFlySystem_8cpp.html" target="_top" xlink:title="UFlySystem 구현에 대한 Doxygen 주석을 제공합니다.">
<polygon fill="white" stroke="#666666" points="1154.79,-112.5 967.79,-112.5 967.79,-82.5 1154.79,-82.5 1154.79,-112.5"/>
<text text-anchor="start" x="975.79" y="-100.5" font-family="Malgun Gothic" font-size="10.00">Source/LatteLibrary</text>
<text text-anchor="middle" x="1061.29" y="-89.5" font-family="Malgun Gothic" font-size="10.00">/Character/Private/UFlySystem.cpp</text>
</a>
</g>
</g>
<!-- Node6&#45;&gt;Node8 -->
<g id="edge8_Node000006_Node000008" class="edge">
<title>Node6&#45;&gt;Node8</title>
<g id="a_edge8_Node000006_Node000008"><a xlink:title=" ">
<path fill="none" stroke="#63b8ff" d="M736.75,-152.79C801.35,-143.37 885.15,-130.7 959.29,-118 969.15,-116.31 979.53,-114.44 989.74,-112.54"/>
<polygon fill="#63b8ff" stroke="#63b8ff" points="735.95,-149.37 726.55,-154.27 736.95,-156.29 735.95,-149.37"/>
</a>
</g>
</g>
<!-- Node9 -->
<g id="Node000009" class="node">
<title>Node9</title>
<g id="a_Node000009"><a xlink:href="UHitStopSystem_8cpp.html" target="_top" xlink:title="UHitStopSystem 구현에 대한 Doxygen 주석을 제공합니다.">
<polygon fill="white" stroke="#666666" points="400.79,-118 249.79,-118 249.79,-77 400.79,-77 400.79,-118"/>
<text text-anchor="start" x="257.79" y="-106" font-family="Malgun Gothic" font-size="10.00">Source/LatteLibrary</text>
<text text-anchor="start" x="257.79" y="-95" font-family="Malgun Gothic" font-size="10.00">/Character/Private/UHitStop</text>
<text text-anchor="middle" x="325.29" y="-84" font-family="Malgun Gothic" font-size="10.00">System.cpp</text>
</a>
</g>
</g>
<!-- Node6&#45;&gt;Node9 -->
<g id="edge9_Node000006_Node000009" class="edge">
<title>Node6&#45;&gt;Node9</title>
<g id="a_edge9_Node000006_Node000009"><a xlink:title=" ">
<path fill="none" stroke="#63b8ff" d="M557.7,-151.67C514.91,-141.91 459.49,-129.26 410.29,-118 407.19,-117.29 404.03,-116.57 400.83,-115.83"/>
<polygon fill="#63b8ff" stroke="#63b8ff" points="556.93,-155.09 567.45,-153.9 558.48,-148.26 556.93,-155.09"/>
</a>
</g>
</g>
<!-- Node10 -->
<g id="Node000010" class="node">
<title>Node10</title>
<g id="a_Node000010"><a xlink:href="UKnockbackSystem_8cpp.html" target="_top" xlink:title="UKnockbackSystem 구현에 대한 Doxygen 주석을 제공합니다.">
<polygon fill="white" stroke="#666666" points="587.29,-118 419.29,-118 419.29,-77 587.29,-77 587.29,-118"/>
<text text-anchor="start" x="427.29" y="-106" font-family="Malgun Gothic" font-size="10.00">Source/LatteLibrary</text>
<text text-anchor="start" x="427.29" y="-95" font-family="Malgun Gothic" font-size="10.00">/Character/Private/UKnockback</text>
<text text-anchor="middle" x="503.29" y="-84" font-family="Malgun Gothic" font-size="10.00">System.cpp</text>
</a>
</g>
</g>
<!-- Node6&#45;&gt;Node10 -->
<g id="edge10_Node000006_Node000010" class="edge">
<title>Node6&#45;&gt;Node10</title>
<g id="a_edge10_Node000006_Node000010"><a xlink:title=" ">
<path fill="none" stroke="#63b8ff" d="M594.56,-148.85C577.21,-139.27 556.24,-127.71 538.77,-118.07"/>
<polygon fill="#63b8ff" stroke="#63b8ff" points="593.34,-152.17 603.79,-153.94 596.72,-146.04 593.34,-152.17"/>
</a>
</g>
</g>
<!-- Node11 -->
<g id="Node000011" class="node">
<title>Node11</title>
<g id="a_Node000011"><a xlink:href="APlayerActor_8h.html" target="_top" xlink:title="Declares the player&#45;controlled character actor.">
<polygon fill="white" stroke="#666666" points="778.79,-112.5 605.79,-112.5 605.79,-82.5 778.79,-82.5 778.79,-112.5"/>
<text text-anchor="start" x="613.79" y="-100.5" font-family="Malgun Gothic" font-size="10.00">Source/LatteLibrary</text>
<text text-anchor="middle" x="692.29" y="-89.5" font-family="Malgun Gothic" font-size="10.00">/Character/Public/APlayerActor.h</text>
</a>
</g>
</g>
<!-- Node6&#45;&gt;Node11 -->
<g id="edge11_Node000006_Node000011" class="edge">
<title>Node6&#45;&gt;Node11</title>
<g id="a_edge11_Node000006_Node000011"><a xlink:title=" ">
<path fill="none" stroke="#63b8ff" d="M648.91,-146.35C658.91,-135.33 670.77,-122.24 679.56,-112.54"/>
<polygon fill="#63b8ff" stroke="#63b8ff" points="646.16,-144.18 642.04,-153.94 651.35,-148.88 646.16,-144.18"/>
</a>
</g>
</g>
<!-- Node11&#45;&gt;Node3 -->
<g id="edge12_Node000011_Node000003" class="edge">
<title>Node11&#45;&gt;Node3</title>
<g id="a_edge12_Node000011_Node000003"><a xlink:title=" ">
<path fill="none" stroke="#63b8ff" d="M614.84,-80.53C608.57,-79.31 602.32,-78.12 596.29,-77 507.63,-60.57 405.21,-43.72 338.06,-32.97"/>
<polygon fill="#63b8ff" stroke="#63b8ff" points="614.2,-83.97 624.69,-82.47 615.55,-77.1 614.2,-83.97"/>
</a>
</g>
</g>
<!-- Node12 -->
<g id="Node000012" class="node">
<title>Node12</title>
<g id="a_Node000012"><a xlink:href="UYiSanVoiceConsoleSubsystem_8cpp.html" target="_top" xlink:title=" ">
<polygon fill="white" stroke="#666666" points="857.29,-41 693.29,-41 693.29,0 857.29,0 857.29,-41"/>
<text text-anchor="start" x="701.29" y="-29" font-family="Malgun Gothic" font-size="10.00">Source/LatteLibrary</text>
<text text-anchor="start" x="701.29" y="-18" font-family="Malgun Gothic" font-size="10.00">/Manager/Private/UYiSanVoice</text>
<text text-anchor="middle" x="775.29" y="-7" font-family="Malgun Gothic" font-size="10.00">ConsoleSubsystem.cpp</text>
</a>
</g>
</g>
<!-- Node11&#45;&gt;Node12 -->
<g id="edge13_Node000011_Node000012" class="edge">
<title>Node11&#45;&gt;Node12</title>
<g id="a_edge13_Node000011_Node000012"><a xlink:title=" ">
<path fill="none" stroke="#63b8ff" d="M715.66,-75.38C727.52,-64.66 741.85,-51.72 753.48,-41.2"/>
<polygon fill="#63b8ff" stroke="#63b8ff" points="712.97,-73.09 707.9,-82.39 717.67,-78.29 712.97,-73.09"/>
</a>
</g>
</g>
<!-- Node13 -->
<g id="Node000013" class="node">
<title>Node13</title>
<g id="a_Node000013"><a xlink:href="UMainWdget_8cpp.html" target="_top" xlink:title=" ">
<polygon fill="white" stroke="#666666" points="674.79,-35.5 543.79,-35.5 543.79,-5.5 674.79,-5.5 674.79,-35.5"/>
<text text-anchor="start" x="551.79" y="-23.5" font-family="Malgun Gothic" font-size="10.00">Source/YiSan/UI/Private</text>
<text text-anchor="middle" x="609.29" y="-12.5" font-family="Malgun Gothic" font-size="10.00">/UMainWdget.cpp</text>
</a>
</g>
</g>
<!-- Node11&#45;&gt;Node13 -->
<g id="edge14_Node000011_Node000013" class="edge">
<title>Node11&#45;&gt;Node13</title>
<g id="a_edge14_Node000011_Node000013"><a xlink:title=" ">
<path fill="none" stroke="#63b8ff" d="M669.24,-75.67C655.08,-62.88 637.33,-46.84 624.83,-35.54"/>
<polygon fill="#63b8ff" stroke="#63b8ff" points="666.91,-78.29 676.68,-82.39 671.6,-73.09 666.91,-78.29"/>
</a>
</g>
</g>
</g>
</svg>
