<?xml version="1.0" encoding="UTF-8" standalone="no"?>
<!DOCTYPE svg PUBLIC "-//W3C//DTD SVG 1.1//EN"
 "http://www.w3.org/Graphics/SVG/1.1/DTD/svg11.dtd">
<!-- Generated by graphviz version 2.43.0 (0)
 -->
<!-- Title: Source/LatteLibrary/Character/Public/UStatSystem.h Pages: 1 -->
<svg width="1162pt" height="258pt"
 viewBox="0.00 0.00 1162.47 258.00" xmlns="http://www.w3.org/2000/svg" xmlns:xlink="http://www.w3.org/1999/xlink">
<g id="graph0" class="graph" transform="scale(1 1) rotate(0) translate(4 254)">
<title>Source/LatteLibrary/Character/Public/UStatSystem.h</title>
<!-- Node1 -->
<g id="Node000001" class="node">
<title>Node1</title>
<g id="a_Node000001"><a xlink:title="UStatSystem 선언에 대한 Doxygen 주석을 제공합니다.">
<polygon fill="#999999" stroke="#666666" points="275.47,-250 100.47,-250 100.47,-220 275.47,-220 275.47,-250"/>
<text text-anchor="start" x="108.47" y="-238" font-family="Malgun Gothic" font-size="10.00">Source/LatteLibrary</text>
<text text-anchor="middle" x="187.97" y="-227" font-family="Malgun Gothic" font-size="10.00">/Character/Public/UStatSystem.h</text>
</a>
</g>
</g>
<!-- Node2 -->
<g id="Node000002" class="node">
<title>Node2</title>
<g id="a_Node000002"><a xlink:href="AGameCharacter_8cpp.html" target="_top" xlink:title="AGameCharacter 구현에 대한 Doxygen 주석을 제공합니다.">
<polygon fill="white" stroke="#666666" points="230.97,-112.5 20.97,-112.5 20.97,-82.5 230.97,-82.5 230.97,-112.5"/>
<text text-anchor="start" x="28.97" y="-100.5" font-family="Malgun Gothic" font-size="10.00">Source/LatteLibrary</text>
<text text-anchor="middle" x="125.97" y="-89.5" font-family="Malgun Gothic" font-size="10.00">/Character/Private/AGameCharacter.cpp</text>
</a>
</g>
</g>
<!-- Node1&#45;&gt;Node2 -->
<g id="edge1_Node000001_Node000002" class="edge">
<title>Node1&#45;&gt;Node2</title>
<g id="a_edge1_Node000001_Node000002"><a xlink:title=" ">
<path fill="none" stroke="#63b8ff" d="M165.24,-212.34C157.78,-204.11 150.1,-194.24 144.97,-184 133.25,-160.62 128.7,-130.06 126.98,-112.52"/>
<polygon fill="#63b8ff" stroke="#63b8ff" points="162.81,-214.85 172.24,-219.68 167.88,-210.03 162.81,-214.85"/>
</a>
</g>
</g>
<!-- Node3 -->
<g id="Node000003" class="node">
<title>Node3</title>
<g id="a_Node000003"><a xlink:href="APlayerActor_8cpp.html" target="_top" xlink:title="APlayerActor 구현에 대한 Doxygen 주석을 제공합니다.">
<polygon fill="white" stroke="#666666" points="336.47,-41 191.47,-41 191.47,0 336.47,0 336.47,-41"/>
<text text-anchor="start" x="199.47" y="-29" font-family="Malgun Gothic" font-size="10.00">Source/LatteLibrary</text>
<text text-anchor="start" x="199.47" y="-18" font-family="Malgun Gothic" font-size="10.00">/Character/Private/APlayer</text>
<text text-anchor="middle" x="263.97" y="-7" font-family="Malgun Gothic" font-size="10.00">Actor.cpp</text>
</a>
</g>
</g>
<!-- Node1&#45;&gt;Node3 -->
<g id="edge2_Node000001_Node000003" class="edge">
<title>Node1&#45;&gt;Node3</title>
<g id="a_edge2_Node000001_Node000003"><a xlink:title=" ">
<path fill="none" stroke="#63b8ff" d="M139.12,-216.17C72.29,-189.1 -34.36,-134.64 11.97,-77 34.14,-49.41 124.93,-34.74 191.2,-27.55"/>
<polygon fill="#63b8ff" stroke="#63b8ff" points="138.08,-219.53 148.67,-219.96 140.67,-213.02 138.08,-219.53"/>
</a>
</g>
</g>
<!-- Node4 -->
<g id="Node000004" class="node">
<title>Node4</title>
<g id="a_Node000004"><a xlink:href="UStatSystem_8cpp.html" target="_top" xlink:title="UStatSystem 구현에 대한 Doxygen 주석을 제공합니다.">
<polygon fill="white" stroke="#666666" points="345.47,-184 154.47,-184 154.47,-154 345.47,-154 345.47,-184"/>
<text text-anchor="start" x="162.47" y="-172" font-family="Malgun Gothic" font-size="10.00">Source/LatteLibrary</text>
<text text-anchor="middle" x="249.97" y="-161" font-family="Malgun Gothic" font-size="10.00">/Character/Private/UStatSystem.cpp</text>
</a>
</g>
</g>
<!-- Node1&#45;&gt;Node4 -->
<g id="edge3_Node000001_Node000004" class="edge">
<title>Node1&#45;&gt;Node4</title>
<g id="a_edge3_Node000001_Node000004"><a xlink:title=" ">
<path fill="none" stroke="#63b8ff" d="M208.92,-212.37C217.94,-203.06 228.23,-192.44 236.25,-184.16"/>
<polygon fill="#63b8ff" stroke="#63b8ff" points="206.17,-210.18 201.73,-219.8 211.2,-215.05 206.17,-210.18"/>
</a>
</g>
</g>
<!-- Node5 -->
<g id="Node000005" class="node">
<title>Node5</title>
<g id="a_Node000005"><a xlink:href="AGameCharacter_8h.html" target="_top" xlink:title="LatteLibrary 전반에서 사용하는 기반 캐릭터 클래스를 선언합니다.">
<polygon fill="white" stroke="#666666" points="599.97,-184 405.97,-184 405.97,-154 599.97,-154 599.97,-184"/>
<text text-anchor="start" x="413.97" y="-172" font-family="Malgun Gothic" font-size="10.00">Source/LatteLibrary</text>
<text text-anchor="middle" x="502.97" y="-161" font-family="Malgun Gothic" font-size="10.00">/Character/Public/AGameCharacter.h</text>
</a>
</g>
</g>
<!-- Node1&#45;&gt;Node5 -->
<g id="edge4_Node000001_Node000005" class="edge">
<title>Node1&#45;&gt;Node5</title>
<g id="a_edge4_Node000001_Node000005"><a xlink:title=" ">
<path fill="none" stroke="#63b8ff" d="M267.16,-217.91C318.53,-207.47 384.8,-194.01 434,-184.01"/>
<polygon fill="#63b8ff" stroke="#63b8ff" points="266.2,-214.53 257.09,-219.95 267.59,-221.39 266.2,-214.53"/>
</a>
</g>
</g>
<!-- Node5&#45;&gt;Node2 -->
<g id="edge5_Node000005_Node000002" class="edge">
<title>Node5&#45;&gt;Node2</title>
<g id="a_edge5_Node000005_Node000002"><a xlink:title=" ">
<path fill="none" stroke="#63b8ff" d="M416.5,-152.06C351.82,-140.14 264.2,-123.98 202.14,-112.54"/>
<polygon fill="#63b8ff" stroke="#63b8ff" points="416.21,-155.56 426.67,-153.94 417.48,-148.68 416.21,-155.56"/>
</a>
</g>
</g>
<!-- Node6 -->
<g id="Node000006" class="node">
<title>Node6</title>
<g id="a_Node000006"><a xlink:href="UCameraShakeSystem_8cpp.html" target="_top" xlink:title="UCameraShakeSystem 구현에 대한 Doxygen 주석을 제공합니다.">
<polygon fill="white" stroke="#666666" points="949.47,-118 796.47,-118 796.47,-77 949.47,-77 949.47,-118"/>
<text text-anchor="start" x="804.47" y="-106" font-family="Malgun Gothic" font-size="10.00">Source/LatteLibrary</text>
<text text-anchor="start" x="804.47" y="-95" font-family="Malgun Gothic" font-size="10.00">/Character/Private/UCamera</text>
<text text-anchor="middle" x="872.97" y="-84" font-family="Malgun Gothic" font-size="10.00">ShakeSystem.cpp</text>
</a>
</g>
</g>
<!-- Node5&#45;&gt;Node6 -->
<g id="edge6_Node000005_Node000006" class="edge">
<title>Node5&#45;&gt;Node6</title>
<g id="a_edge6_Node000005_Node000006"><a xlink:title=" ">
<path fill="none" stroke="#63b8ff" d="M600,-152.26C655.23,-142.98 725.62,-130.61 787.97,-118 790.64,-117.46 793.35,-116.9 796.09,-116.32"/>
<polygon fill="#63b8ff" stroke="#63b8ff" points="599.15,-148.85 589.87,-153.96 600.31,-155.76 599.15,-148.85"/>
</a>
</g>
</g>
<!-- Node7 -->
<g id="Node000007" class="node">
<title>Node7</title>
<g id="a_Node000007"><a xlink:href="UFlySystem_8cpp.html" target="_top" xlink:title="UFlySystem 구현에 대한 Doxygen 주석을 제공합니다.">
<polygon fill="white" stroke="#666666" points="1154.47,-112.5 967.47,-112.5 967.47,-82.5 1154.47,-82.5 1154.47,-112.5"/>
<text text-anchor="start" x="975.47" y="-100.5" font-family="Malgun Gothic" font-size="10.00">Source/LatteLibrary</text>
<text text-anchor="middle" x="1060.97" y="-89.5" font-family="Malgun Gothic" font-size="10.00">/Character/Private/UFlySystem.cpp</text>
</a>
</g>
</g>
<!-- Node5&#45;&gt;Node7 -->
<g id="edge7_Node000005_Node000007" class="edge">
<title>Node5&#45;&gt;Node7</title>
<g id="a_edge7_Node000005_Node000007"><a xlink:title=" ">
<path fill="none" stroke="#63b8ff" d="M610.44,-158.65C703.04,-150.02 840.16,-135.84 958.97,-118 969.57,-116.41 980.76,-114.5 991.69,-112.51"/>
<polygon fill="#63b8ff" stroke="#63b8ff" points="609.85,-155.19 600.22,-159.6 610.5,-162.16 609.85,-155.19"/>
</a>
</g>
</g>
<!-- Node8 -->
<g id="Node000008" class="node">
<title>Node8</title>
<g id="a_Node000008"><a xlink:href="UHitStopSystem_8cpp.html" target="_top" xlink:title="UHitStopSystem 구현에 대한 Doxygen 주석을 제공합니다.">
<polygon fill="white" stroke="#666666" points="400.47,-118 249.47,-118 249.47,-77 400.47,-77 400.47,-118"/>
<text text-anchor="start" x="257.47" y="-106" font-family="Malgun Gothic" font-size="10.00">Source/LatteLibrary</text>
<text text-anchor="start" x="257.47" y="-95" font-family="Malgun Gothic" font-size="10.00">/Character/Private/UHitStop</text>
<text text-anchor="middle" x="324.97" y="-84" font-family="Malgun Gothic" font-size="10.00">System.cpp</text>
</a>
</g>
</g>
<!-- Node5&#45;&gt;Node8 -->
<g id="edge8_Node000005_Node000008" class="edge">
<title>Node5&#45;&gt;Node8</title>
<g id="a_edge8_Node000005_Node000008"><a xlink:title=" ">
<path fill="none" stroke="#63b8ff" d="M457.62,-150.29C432.42,-140.46 401.02,-128.2 375.1,-118.07"/>
<polygon fill="#63b8ff" stroke="#63b8ff" points="456.36,-153.56 466.95,-153.94 458.9,-147.04 456.36,-153.56"/>
</a>
</g>
</g>
<!-- Node9 -->
<g id="Node000009" class="node">
<title>Node9</title>
<g id="a_Node000009"><a xlink:href="UKnockbackSystem_8cpp.html" target="_top" xlink:title="UKnockbackSystem 구현에 대한 Doxygen 주석을 제공합니다.">
<polygon fill="white" stroke="#666666" points="586.97,-118 418.97,-118 418.97,-77 586.97,-77 586.97,-118"/>
<text text-anchor="start" x="426.97" y="-106" font-family="Malgun Gothic" font-size="10.00">Source/LatteLibrary</text>
<text text-anchor="start" x="426.97" y="-95" font-family="Malgun Gothic" font-size="10.00">/Character/Private/UKnockback</text>
<text text-anchor="middle" x="502.97" y="-84" font-family="Malgun Gothic" font-size="10.00">System.cpp</text>
</a>
</g>
</g>
<!-- Node5&#45;&gt;Node9 -->
<g id="edge9_Node000005_Node000009" class="edge">
<title>Node5&#45;&gt;Node9</title>
<g id="a_edge9_Node000005_Node000009"><a xlink:title=" ">
<path fill="none" stroke="#63b8ff" d="M502.97,-143.91C502.97,-135.47 502.97,-126.1 502.97,-118.07"/>
<polygon fill="#63b8ff" stroke="#63b8ff" points="499.47,-143.94 502.97,-153.94 506.47,-143.94 499.47,-143.94"/>
</a>
</g>
</g>
<!-- Node10 -->
<g id="Node000010" class="node">
<title>Node10</title>
<g id="a_Node000010"><a xlink:href="APlayerActor_8h.html" target="_top" xlink:title="APlayerActor 선언에 대한 Doxygen 주석을 제공합니다.">
<polygon fill="white" stroke="#666666" points="778.47,-112.5 605.47,-112.5 605.47,-82.5 778.47,-82.5 778.47,-112.5"/>
<text text-anchor="start" x="613.47" y="-100.5" font-family="Malgun Gothic" font-size="10.00">Source/LatteLibrary</text>
<text text-anchor="middle" x="691.97" y="-89.5" font-family="Malgun Gothic" font-size="10.00">/Character/Public/APlayerActor.h</text>
</a>
</g>
</g>
<!-- Node5&#45;&gt;Node10 -->
<g id="edge10_Node000005_Node000010" class="edge">
<title>Node5&#45;&gt;Node10</title>
<g id="a_edge10_Node000005_Node000010"><a xlink:title=" ">
<path fill="none" stroke="#63b8ff" d="M550.79,-150.42C582.69,-138.68 624.07,-123.47 653.78,-112.54"/>
<polygon fill="#63b8ff" stroke="#63b8ff" points="549.39,-147.2 541.21,-153.94 551.81,-153.77 549.39,-147.2"/>
</a>
</g>
</g>
<!-- Node10&#45;&gt;Node3 -->
<g id="edge11_Node000010_Node000003" class="edge">
<title>Node10&#45;&gt;Node3</title>
<g id="a_edge11_Node000010_Node000003"><a xlink:title=" ">
<path fill="none" stroke="#63b8ff" d="M614.52,-80.53C608.24,-79.31 602,-78.12 595.97,-77 506.9,-60.51 403.98,-43.65 336.63,-32.9"/>
<polygon fill="#63b8ff" stroke="#63b8ff" points="613.88,-83.97 624.37,-82.46 615.23,-77.1 613.88,-83.97"/>
</a>
</g>
</g>
<!-- Node11 -->
<g id="Node000011" class="node">
<title>Node11</title>
<g id="a_Node000011"><a xlink:href="UYiSanVoiceConsoleSubsystem_8cpp.html" target="_top" xlink:title=" ">
<polygon fill="white" stroke="#666666" points="906.47,-35.5 675.47,-35.5 675.47,-5.5 906.47,-5.5 906.47,-35.5"/>
<text text-anchor="start" x="683.47" y="-23.5" font-family="Malgun Gothic" font-size="10.00">Source/YiSan/Environment</text>
<text text-anchor="middle" x="790.97" y="-12.5" font-family="Malgun Gothic" font-size="10.00">/Private/UYiSanVoiceConsoleSubsystem.cpp</text>
</a>
</g>
</g>
<!-- Node10&#45;&gt;Node11 -->
<g id="edge12_Node000010_Node000011" class="edge">
<title>Node10&#45;&gt;Node11</title>
<g id="a_edge12_Node000010_Node000011"><a xlink:title=" ">
<path fill="none" stroke="#63b8ff" d="M718.99,-76.03C735.95,-63.18 757.38,-46.94 772.43,-35.54"/>
<polygon fill="#63b8ff" stroke="#63b8ff" points="716.45,-73.56 710.59,-82.39 720.67,-79.14 716.45,-73.56"/>
</a>
</g>
</g>
<!-- Node12 -->
<g id="Node000012" class="node">
<title>Node12</title>
<g id="a_Node000012"><a xlink:href="UMainWdget_8cpp.html" target="_top" xlink:title=" ">
<polygon fill="white" stroke="#666666" points="657.47,-35.5 526.47,-35.5 526.47,-5.5 657.47,-5.5 657.47,-35.5"/>
<text text-anchor="start" x="534.47" y="-23.5" font-family="Malgun Gothic" font-size="10.00">Source/YiSan/UI/Private</text>
<text text-anchor="middle" x="591.97" y="-12.5" font-family="Malgun Gothic" font-size="10.00">/UMainWdget.cpp</text>
</a>
</g>
</g>
<!-- Node10&#45;&gt;Node12 -->
<g id="edge13_Node000010_Node000012" class="edge">
<title>Node10&#45;&gt;Node12</title>
<g id="a_edge13_Node000010_Node000012"><a xlink:title=" ">
<path fill="none" stroke="#63b8ff" d="M665.14,-76.38C647.93,-63.48 626.03,-47.05 610.69,-35.54"/>
<polygon fill="#63b8ff" stroke="#63b8ff" points="663.06,-79.19 673.16,-82.39 667.26,-73.59 663.06,-79.19"/>
</a>
</g>
</g>
</g>
</svg>
