<?xml version="1.0" encoding="UTF-8" standalone="no"?>
<!DOCTYPE svg PUBLIC "-//W3C//DTD SVG 1.1//EN"
 "http://www.w3.org/Graphics/SVG/1.1/DTD/svg11.dtd">
<!-- Generated by graphviz version 2.43.0 (0)
 -->
<!-- Title: Source/LatteLibrary/Character/Public/UStatSystem.h Pages: 1 -->
<svg width="1112pt" height="269pt"
 viewBox="0.00 0.00 1112.14 269.00" xmlns="http://www.w3.org/2000/svg" xmlns:xlink="http://www.w3.org/1999/xlink">
<g id="graph0" class="graph" transform="scale(1 1) rotate(0) translate(4 265)">
<title>Source/LatteLibrary/Character/Public/UStatSystem.h</title>
<!-- Node1 -->
<g id="Node000001" class="node">
<title>Node1</title>
<g id="a_Node000001"><a xlink:title="UStatSystem 선언에 대한 Doxygen 주석을 제공합니다.">
<polygon fill="#999999" stroke="#666666" points="255.14,-261 80.14,-261 80.14,-231 255.14,-231 255.14,-261"/>
<text text-anchor="start" x="88.14" y="-249" font-family="Malgun Gothic" font-size="10.00">Source/LatteLibrary</text>
<text text-anchor="middle" x="167.64" y="-238" font-family="Malgun Gothic" font-size="10.00">/Character/Public/UStatSystem.h</text>
</a>
</g>
</g>
<!-- Node2 -->
<g id="Node000002" class="node">
<title>Node2</title>
<g id="a_Node000002"><a xlink:href="ALatteGameCharacter_8cpp.html" target="_top" xlink:title=" ">
<polygon fill="white" stroke="#666666" points="189.64,-118 21.64,-118 21.64,-77 189.64,-77 189.64,-118"/>
<text text-anchor="start" x="29.64" y="-106" font-family="Malgun Gothic" font-size="10.00">Source/LatteLibrary</text>
<text text-anchor="start" x="29.64" y="-95" font-family="Malgun Gothic" font-size="10.00">/Character/Private/ALatteGame</text>
<text text-anchor="middle" x="105.64" y="-84" font-family="Malgun Gothic" font-size="10.00">Character.cpp</text>
</a>
</g>
</g>
<!-- Node1&#45;&gt;Node2 -->
<g id="edge1_Node000001_Node000002" class="edge">
<title>Node1&#45;&gt;Node2</title>
<g id="a_edge1_Node000001_Node000002"><a xlink:title=" ">
<path fill="none" stroke="#63b8ff" d="M144.78,-223.41C137.3,-215.19 129.64,-205.3 124.64,-195 112.62,-170.27 108.2,-138.48 106.58,-118.29"/>
<polygon fill="#63b8ff" stroke="#63b8ff" points="142.35,-225.93 151.79,-230.74 147.41,-221.09 142.35,-225.93"/>
</a>
</g>
</g>
<!-- Node3 -->
<g id="Node000003" class="node">
<title>Node3</title>
<g id="a_Node000003"><a xlink:href="ALattePlayerCharacter_8cpp.html" target="_top" xlink:title=" ">
<polygon fill="white" stroke="#666666" points="404.64,-41 234.64,-41 234.64,0 404.64,0 404.64,-41"/>
<text text-anchor="start" x="242.64" y="-29" font-family="Malgun Gothic" font-size="10.00">Source/LatteLibrary</text>
<text text-anchor="start" x="242.64" y="-18" font-family="Malgun Gothic" font-size="10.00">/Character/Private/ALattePlayer</text>
<text text-anchor="middle" x="319.64" y="-7" font-family="Malgun Gothic" font-size="10.00">Character.cpp</text>
</a>
</g>
</g>
<!-- Node1&#45;&gt;Node3 -->
<g id="edge2_Node000001_Node000003" class="edge">
<title>Node1&#45;&gt;Node3</title>
<g id="a_edge2_Node000001_Node000003"><a xlink:title=" ">
<path fill="none" stroke="#63b8ff" d="M127.25,-226.22C67.06,-195.73 -34.34,-133.23 12.64,-77 40.46,-43.7 153.75,-30.34 234.6,-25.01"/>
<polygon fill="#63b8ff" stroke="#63b8ff" points="126.02,-229.51 136.53,-230.83 129.13,-223.24 126.02,-229.51"/>
</a>
</g>
</g>
<!-- Node4 -->
<g id="Node000004" class="node">
<title>Node4</title>
<g id="a_Node000004"><a xlink:href="UStatSystem_8cpp.html" target="_top" xlink:title="UStatSystem 구현에 대한 Doxygen 주석을 제공합니다.">
<polygon fill="white" stroke="#666666" points="325.14,-189.5 134.14,-189.5 134.14,-159.5 325.14,-159.5 325.14,-189.5"/>
<text text-anchor="start" x="142.14" y="-177.5" font-family="Malgun Gothic" font-size="10.00">Source/LatteLibrary</text>
<text text-anchor="middle" x="229.64" y="-166.5" font-family="Malgun Gothic" font-size="10.00">/Character/Private/UStatSystem.cpp</text>
</a>
</g>
</g>
<!-- Node1&#45;&gt;Node4 -->
<g id="edge3_Node000001_Node000004" class="edge">
<title>Node1&#45;&gt;Node4</title>
<g id="a_edge3_Node000001_Node000004"><a xlink:title=" ">
<path fill="none" stroke="#63b8ff" d="M186.95,-223.35C196.78,-212.33 208.46,-199.24 217.11,-189.54"/>
<polygon fill="#63b8ff" stroke="#63b8ff" points="184.23,-221.14 180.18,-230.94 189.45,-225.8 184.23,-221.14"/>
</a>
</g>
</g>
<!-- Node5 -->
<g id="Node000005" class="node">
<title>Node5</title>
<g id="a_Node000005"><a xlink:href="ALatteGameCharacter_8h.html" target="_top" xlink:title=" ">
<polygon fill="white" stroke="#666666" points="543.14,-195 380.14,-195 380.14,-154 543.14,-154 543.14,-195"/>
<text text-anchor="start" x="388.14" y="-183" font-family="Malgun Gothic" font-size="10.00">Source/LatteLibrary</text>
<text text-anchor="start" x="388.14" y="-172" font-family="Malgun Gothic" font-size="10.00">/Character/Public/ALatteGame</text>
<text text-anchor="middle" x="461.64" y="-161" font-family="Malgun Gothic" font-size="10.00">Character.h</text>
</a>
</g>
</g>
<!-- Node1&#45;&gt;Node5 -->
<g id="edge4_Node000001_Node000005" class="edge">
<title>Node1&#45;&gt;Node5</title>
<g id="a_edge4_Node000001_Node000005"><a xlink:title=" ">
<path fill="none" stroke="#63b8ff" d="M236.91,-228.62C279.76,-218.5 334.97,-205.44 379.95,-194.81"/>
<polygon fill="#63b8ff" stroke="#63b8ff" points="236.06,-225.23 227.13,-230.94 237.67,-232.04 236.06,-225.23"/>
</a>
</g>
</g>
<!-- Node5&#45;&gt;Node2 -->
<g id="edge5_Node000005_Node000002" class="edge">
<title>Node5&#45;&gt;Node2</title>
<g id="a_edge5_Node000005_Node000002"><a xlink:title=" ">
<path fill="none" stroke="#63b8ff" d="M370.11,-154.22C314.47,-142.5 243.94,-127.64 189.71,-116.21"/>
<polygon fill="#63b8ff" stroke="#63b8ff" points="369.46,-157.66 379.96,-156.29 370.9,-150.81 369.46,-157.66"/>
</a>
</g>
</g>
<!-- Node6 -->
<g id="Node000006" class="node">
<title>Node6</title>
<g id="a_Node000006"><a xlink:href="UCameraShakeSystem_8cpp.html" target="_top" xlink:title="UCameraShakeSystem 구현에 대한 Doxygen 주석을 제공합니다.">
<polygon fill="white" stroke="#666666" points="899.14,-118 746.14,-118 746.14,-77 899.14,-77 899.14,-118"/>
<text text-anchor="start" x="754.14" y="-106" font-family="Malgun Gothic" font-size="10.00">Source/LatteLibrary</text>
<text text-anchor="start" x="754.14" y="-95" font-family="Malgun Gothic" font-size="10.00">/Character/Private/UCamera</text>
<text text-anchor="middle" x="822.64" y="-84" font-family="Malgun Gothic" font-size="10.00">ShakeSystem.cpp</text>
</a>
</g>
</g>
<!-- Node5&#45;&gt;Node6 -->
<g id="edge6_Node000005_Node000006" class="edge">
<title>Node5&#45;&gt;Node6</title>
<g id="a_edge6_Node000005_Node000006"><a xlink:title=" ">
<path fill="none" stroke="#63b8ff" d="M553.08,-155.61C606.64,-144.99 675.55,-131.09 736.64,-118 739.63,-117.36 742.68,-116.7 745.76,-116.03"/>
<polygon fill="#63b8ff" stroke="#63b8ff" points="552.4,-152.18 543.27,-157.56 553.75,-159.05 552.4,-152.18"/>
</a>
</g>
</g>
<!-- Node7 -->
<g id="Node000007" class="node">
<title>Node7</title>
<g id="a_Node000007"><a xlink:href="UFlySystem_8cpp.html" target="_top" xlink:title="UFlySystem 구현에 대한 Doxygen 주석을 제공합니다.">
<polygon fill="white" stroke="#666666" points="1104.14,-112.5 917.14,-112.5 917.14,-82.5 1104.14,-82.5 1104.14,-112.5"/>
<text text-anchor="start" x="925.14" y="-100.5" font-family="Malgun Gothic" font-size="10.00">Source/LatteLibrary</text>
<text text-anchor="middle" x="1010.64" y="-89.5" font-family="Malgun Gothic" font-size="10.00">/Character/Private/UFlySystem.cpp</text>
</a>
</g>
</g>
<!-- Node5&#45;&gt;Node7 -->
<g id="edge7_Node000005_Node000007" class="edge">
<title>Node5&#45;&gt;Node7</title>
<g id="a_edge7_Node000005_Node000007"><a xlink:title=" ">
<path fill="none" stroke="#63b8ff" d="M553.39,-163.88C643.92,-153.98 786.15,-137.29 908.64,-118 918.97,-116.37 929.85,-114.48 940.51,-112.53"/>
<polygon fill="#63b8ff" stroke="#63b8ff" points="552.99,-160.41 543.43,-164.97 553.75,-167.36 552.99,-160.41"/>
</a>
</g>
</g>
<!-- Node8 -->
<g id="Node000008" class="node">
<title>Node8</title>
<g id="a_Node000008"><a xlink:href="UHitStopSystem_8cpp.html" target="_top" xlink:title="UHitStopSystem 구현에 대한 Doxygen 주석을 제공합니다.">
<polygon fill="white" stroke="#666666" points="359.14,-118 208.14,-118 208.14,-77 359.14,-77 359.14,-118"/>
<text text-anchor="start" x="216.14" y="-106" font-family="Malgun Gothic" font-size="10.00">Source/LatteLibrary</text>
<text text-anchor="start" x="216.14" y="-95" font-family="Malgun Gothic" font-size="10.00">/Character/Private/UHitStop</text>
<text text-anchor="middle" x="283.64" y="-84" font-family="Malgun Gothic" font-size="10.00">System.cpp</text>
</a>
</g>
</g>
<!-- Node5&#45;&gt;Node8 -->
<g id="edge8_Node000005_Node000008" class="edge">
<title>Node5&#45;&gt;Node8</title>
<g id="a_edge8_Node000005_Node000008"><a xlink:title=" ">
<path fill="none" stroke="#63b8ff" d="M405.85,-150C381.47,-139.72 353.22,-127.82 330.02,-118.04"/>
<polygon fill="#63b8ff" stroke="#63b8ff" points="404.76,-153.33 415.33,-153.99 407.48,-146.88 404.76,-153.33"/>
</a>
</g>
</g>
<!-- Node9 -->
<g id="Node000009" class="node">
<title>Node9</title>
<g id="a_Node000009"><a xlink:href="UKnockbackSystem_8cpp.html" target="_top" xlink:title="UKnockbackSystem 구현에 대한 Doxygen 주석을 제공합니다.">
<polygon fill="white" stroke="#666666" points="545.64,-118 377.64,-118 377.64,-77 545.64,-77 545.64,-118"/>
<text text-anchor="start" x="385.64" y="-106" font-family="Malgun Gothic" font-size="10.00">Source/LatteLibrary</text>
<text text-anchor="start" x="385.64" y="-95" font-family="Malgun Gothic" font-size="10.00">/Character/Private/UKnockback</text>
<text text-anchor="middle" x="461.64" y="-84" font-family="Malgun Gothic" font-size="10.00">System.cpp</text>
</a>
</g>
</g>
<!-- Node5&#45;&gt;Node9 -->
<g id="edge9_Node000005_Node000009" class="edge">
<title>Node5&#45;&gt;Node9</title>
<g id="a_edge9_Node000005_Node000009"><a xlink:title=" ">
<path fill="none" stroke="#63b8ff" d="M461.64,-143.69C461.64,-135.08 461.64,-125.9 461.64,-118.07"/>
<polygon fill="#63b8ff" stroke="#63b8ff" points="458.14,-143.79 461.64,-153.79 465.14,-143.79 458.14,-143.79"/>
</a>
</g>
</g>
<!-- Node10 -->
<g id="Node000010" class="node">
<title>Node10</title>
<g id="a_Node000010"><a xlink:href="ALattePlayerCharacter_8h.html" target="_top" xlink:title=" ">
<polygon fill="white" stroke="#666666" points="727.64,-118 563.64,-118 563.64,-77 727.64,-77 727.64,-118"/>
<text text-anchor="start" x="571.64" y="-106" font-family="Malgun Gothic" font-size="10.00">Source/LatteLibrary</text>
<text text-anchor="start" x="571.64" y="-95" font-family="Malgun Gothic" font-size="10.00">/Character/Public/ALattePlayer</text>
<text text-anchor="middle" x="645.64" y="-84" font-family="Malgun Gothic" font-size="10.00">Character.h</text>
</a>
</g>
</g>
<!-- Node5&#45;&gt;Node10 -->
<g id="edge10_Node000005_Node000010" class="edge">
<title>Node5&#45;&gt;Node10</title>
<g id="a_edge10_Node000005_Node000010"><a xlink:title=" ">
<path fill="none" stroke="#63b8ff" d="M518.97,-150.13C544.24,-139.83 573.6,-127.86 597.69,-118.04"/>
<polygon fill="#63b8ff" stroke="#63b8ff" points="517.44,-146.97 509.5,-153.99 520.08,-153.46 517.44,-146.97"/>
</a>
</g>
</g>
<!-- Node10&#45;&gt;Node3 -->
<g id="edge11_Node000010_Node000003" class="edge">
<title>Node10&#45;&gt;Node3</title>
<g id="a_edge11_Node000010_Node000003"><a xlink:title=" ">
<path fill="none" stroke="#63b8ff" d="M553.53,-75.31C506.71,-64.54 450.18,-51.53 404.43,-41.01"/>
<polygon fill="#63b8ff" stroke="#63b8ff" points="552.84,-78.74 563.37,-77.57 554.41,-71.92 552.84,-78.74"/>
</a>
</g>
</g>
</g>
</svg>
