<?xml version="1.0" encoding="UTF-8" standalone="no"?>
<!DOCTYPE svg PUBLIC "-//W3C//DTD SVG 1.1//EN"
 "http://www.w3.org/Graphics/SVG/1.1/DTD/svg11.dtd">
<!-- Generated by graphviz version 2.43.0 (0)
 -->
<!-- Title: Source/YiSan/Voice/Public/UVoiceSettings.h Pages: 1 -->
<svg width="436pt" height="93pt"
 viewBox="0.00 0.00 436.00 93.00" xmlns="http://www.w3.org/2000/svg" xmlns:xlink="http://www.w3.org/1999/xlink">
<g id="graph0" class="graph" transform="scale(1 1) rotate(0) translate(4 89)">
<title>Source/YiSan/Voice/Public/UVoiceSettings.h</title>
<!-- Node1 -->
<g id="Node000001" class="node">
<title>Node1</title>
<g id="a_Node000001"><a xlink:title=" ">
<polygon fill="#999999" stroke="#666666" points="249,-85 115,-85 115,-55 249,-55 249,-85"/>
<text text-anchor="start" x="123" y="-73" font-family="Malgun Gothic" font-size="10.00">Source/YiSan/Voice</text>
<text text-anchor="middle" x="182" y="-62" font-family="Malgun Gothic" font-size="10.00">/Public/UVoiceSettings.h</text>
</a>
</g>
</g>
<!-- Node2 -->
<g id="Node000002" class="node">
<title>Node2</title>
<g id="a_Node000002"><a xlink:title=" ">
<polygon fill="#e0e0e0" stroke="#999999" points="88,-19 0,-19 0,0 88,0 88,-19"/>
<text text-anchor="middle" x="44" y="-7" font-family="Malgun Gothic" font-size="10.00">CoreMinimal.h</text>
</a>
</g>
</g>
<!-- Node1&#45;&gt;Node2 -->
<g id="edge1_Node000001_Node000002" class="edge">
<title>Node1&#45;&gt;Node2</title>
<g id="a_edge1_Node000001_Node000002"><a xlink:title=" ">
<path fill="none" stroke="#63b8ff" d="M148.95,-54.99C126.02,-45.27 95.76,-32.44 73.62,-23.06"/>
<polygon fill="#63b8ff" stroke="#63b8ff" points="74.95,-19.82 64.38,-19.14 72.22,-26.26 74.95,-19.82"/>
</a>
</g>
</g>
<!-- Node3 -->
<g id="Node000003" class="node">
<title>Node3</title>
<g id="a_Node000003"><a xlink:title=" ">
<polygon fill="#e0e0e0" stroke="#999999" points="258,-19 106,-19 106,0 258,0 258,-19"/>
<text text-anchor="middle" x="182" y="-7" font-family="Malgun Gothic" font-size="10.00">Engine/DeveloperSettings.h</text>
</a>
</g>
</g>
<!-- Node1&#45;&gt;Node3 -->
<g id="edge2_Node000001_Node000003" class="edge">
<title>Node1&#45;&gt;Node3</title>
<g id="a_edge2_Node000001_Node000003"><a xlink:title=" ">
<path fill="none" stroke="#63b8ff" d="M182,-54.84C182,-47.21 182,-37.7 182,-29.45"/>
<polygon fill="#63b8ff" stroke="#63b8ff" points="185.5,-29.27 182,-19.27 178.5,-29.27 185.5,-29.27"/>
</a>
</g>
</g>
<!-- Node4 -->
<g id="Node000004" class="node">
<title>Node4</title>
<g id="a_Node000004"><a xlink:title=" ">
<polygon fill="#e0e0e0" stroke="#999999" points="428,-19 276,-19 276,0 428,0 428,-19"/>
<text text-anchor="middle" x="352" y="-7" font-family="Malgun Gothic" font-size="10.00">UVoiceSettings.generated.h</text>
</a>
</g>
</g>
<!-- Node1&#45;&gt;Node4 -->
<g id="edge3_Node000001_Node000004" class="edge">
<title>Node1&#45;&gt;Node4</title>
<g id="a_edge3_Node000001_Node000004"><a xlink:title=" ">
<path fill="none" stroke="#63b8ff" d="M222.72,-54.99C251.59,-45.05 289.91,-31.86 317.33,-22.43"/>
<polygon fill="#63b8ff" stroke="#63b8ff" points="318.58,-25.7 326.89,-19.14 316.3,-19.08 318.58,-25.7"/>
</a>
</g>
</g>
</g>
</svg>
