<?xml version="1.0" encoding="UTF-8" standalone="no"?>
<!DOCTYPE svg PUBLIC "-//W3C//DTD SVG 1.1//EN"
 "http://www.w3.org/Graphics/SVG/1.1/DTD/svg11.dtd">
<!-- Generated by graphviz version 2.43.0 (0)
 -->
<!-- Title: Source/YiSan/Voice/Private/UVoiceFunctionLibrary.cpp Pages: 1 -->
<svg width="856pt" height="214pt"
 viewBox="0.00 0.00 856.37 214.00" xmlns="http://www.w3.org/2000/svg" xmlns:xlink="http://www.w3.org/1999/xlink">
<g id="graph0" class="graph" transform="scale(1 1) rotate(0) translate(4 210)">
<title>Source/YiSan/Voice/Private/UVoiceFunctionLibrary.cpp</title>
<!-- Node1 -->
<g id="Node000001" class="node">
<title>Node1</title>
<g id="a_Node000001"><a xlink:title=" ">
<polygon fill="#999999" stroke="#666666" points="375.87,-206 190.87,-206 190.87,-176 375.87,-176 375.87,-206"/>
<text text-anchor="start" x="198.87" y="-194" font-family="Malgun Gothic" font-size="10.00">Source/YiSan/Voice</text>
<text text-anchor="middle" x="283.37" y="-183" font-family="Malgun Gothic" font-size="10.00">/Private/UVoiceFunctionLibrary.cpp</text>
</a>
</g>
</g>
<!-- Node2 -->
<g id="Node000002" class="node">
<title>Node2</title>
<g id="a_Node000002"><a xlink:href="UVoiceFunctionLibrary_8h.html" target="_top" xlink:title=" ">
<polygon fill="white" stroke="#666666" points="245.87,-140 112.87,-140 112.87,-121 245.87,-121 245.87,-140"/>
<text text-anchor="middle" x="179.37" y="-128" font-family="Malgun Gothic" font-size="10.00">UVoiceFunctionLibrary.h</text>
</a>
</g>
</g>
<!-- Node1&#45;&gt;Node2 -->
<g id="edge1_Node000001_Node000002" class="edge">
<title>Node1&#45;&gt;Node2</title>
<g id="a_edge1_Node000001_Node000002"><a xlink:title=" ">
<path fill="none" stroke="#63b8ff" d="M258.46,-175.99C241.88,-166.66 220.21,-154.47 203.74,-145.21"/>
<polygon fill="#63b8ff" stroke="#63b8ff" points="205.16,-141.99 194.72,-140.14 201.72,-148.09 205.16,-141.99"/>
</a>
</g>
</g>
<!-- Node6 -->
<g id="Node000006" class="node">
<title>Node6</title>
<g id="a_Node000006"><a xlink:href="GameLogging_8h.html" target="_top" xlink:title="GameLogging 선언에 대한 Doxygen 주석을 제공합니다.">
<polygon fill="white" stroke="#666666" points="585.87,-140 492.87,-140 492.87,-121 585.87,-121 585.87,-140"/>
<text text-anchor="middle" x="539.37" y="-128" font-family="Malgun Gothic" font-size="10.00">GameLogging.h</text>
</a>
</g>
</g>
<!-- Node1&#45;&gt;Node6 -->
<g id="edge5_Node000001_Node000006" class="edge">
<title>Node1&#45;&gt;Node6</title>
<g id="a_edge5_Node000001_Node000006"><a xlink:title=" ">
<path fill="none" stroke="#63b8ff" d="M344.68,-175.99C389.92,-165.65 450.56,-151.79 492.08,-142.31"/>
<polygon fill="#63b8ff" stroke="#63b8ff" points="492.97,-145.69 501.93,-140.05 491.41,-138.87 492.97,-145.69"/>
</a>
</g>
</g>
<!-- Node3 -->
<g id="Node000003" class="node">
<title>Node3</title>
<g id="a_Node000003"><a xlink:title=" ">
<polygon fill="#e0e0e0" stroke="#999999" points="592.37,-19 504.37,-19 504.37,0 592.37,0 592.37,-19"/>
<text text-anchor="middle" x="548.37" y="-7" font-family="Malgun Gothic" font-size="10.00">CoreMinimal.h</text>
</a>
</g>
</g>
<!-- Node2&#45;&gt;Node3 -->
<g id="edge2_Node000002_Node000003" class="edge">
<title>Node2&#45;&gt;Node3</title>
<g id="a_edge2_Node000002_Node000003"><a xlink:title=" ">
<path fill="none" stroke="#63b8ff" d="M112.85,-122.23C51.24,-112.97 -25.94,-93.34 9.37,-55 41.76,-19.82 363.97,-12.45 494.19,-10.91"/>
<polygon fill="#63b8ff" stroke="#63b8ff" points="494.37,-14.41 504.33,-10.8 494.3,-7.41 494.37,-14.41"/>
</a>
</g>
</g>
<!-- Node4 -->
<g id="Node000004" class="node">
<title>Node4</title>
<g id="a_Node000004"><a xlink:title=" ">
<polygon fill="#e0e0e0" stroke="#999999" points="158.37,-85 18.37,-85 18.37,-55 158.37,-55 158.37,-85"/>
<text text-anchor="start" x="26.37" y="-73" font-family="Malgun Gothic" font-size="10.00">Kismet/BlueprintFunction</text>
<text text-anchor="middle" x="88.37" y="-62" font-family="Malgun Gothic" font-size="10.00">Library.h</text>
</a>
</g>
</g>
<!-- Node2&#45;&gt;Node4 -->
<g id="edge3_Node000002_Node000004" class="edge">
<title>Node2&#45;&gt;Node4</title>
<g id="a_edge3_Node000002_Node000004"><a xlink:title=" ">
<path fill="none" stroke="#63b8ff" d="M165.94,-120.87C153.59,-112.93 134.83,-100.87 118.85,-90.6"/>
<polygon fill="#63b8ff" stroke="#63b8ff" points="120.63,-87.58 110.32,-85.11 116.84,-93.47 120.63,-87.58"/>
</a>
</g>
</g>
<!-- Node5 -->
<g id="Node000005" class="node">
<title>Node5</title>
<g id="a_Node000005"><a xlink:title=" ">
<polygon fill="#e0e0e0" stroke="#999999" points="361.87,-79.5 176.87,-79.5 176.87,-60.5 361.87,-60.5 361.87,-79.5"/>
<text text-anchor="middle" x="269.37" y="-67.5" font-family="Malgun Gothic" font-size="10.00">UVoiceFunctionLibrary.generated.h</text>
</a>
</g>
</g>
<!-- Node2&#45;&gt;Node5 -->
<g id="edge4_Node000002_Node000005" class="edge">
<title>Node2&#45;&gt;Node5</title>
<g id="a_edge4_Node000002_Node000005"><a xlink:title=" ">
<path fill="none" stroke="#63b8ff" d="M192.65,-120.87C207,-111.54 230.12,-96.51 247.24,-85.38"/>
<polygon fill="#63b8ff" stroke="#63b8ff" points="249.55,-88.05 256.03,-79.67 245.74,-82.18 249.55,-88.05"/>
</a>
</g>
</g>
<!-- Node6&#45;&gt;Node3 -->
<g id="edge6_Node000006_Node000003" class="edge">
<title>Node6&#45;&gt;Node3</title>
<g id="a_edge6_Node000006_Node000003"><a xlink:title=" ">
<path fill="none" stroke="#63b8ff" d="M492.67,-121.35C445.42,-110.97 382.73,-90.06 408.37,-55 427.91,-28.28 463.64,-17.21 494.11,-12.8"/>
<polygon fill="#63b8ff" stroke="#63b8ff" points="494.72,-16.25 504.21,-11.54 493.85,-9.3 494.72,-16.25"/>
</a>
</g>
</g>
<!-- Node7 -->
<g id="Node000007" class="node">
<title>Node7</title>
<g id="a_Node000007"><a xlink:title=" ">
<polygon fill="#e0e0e0" stroke="#999999" points="536.87,-79.5 417.87,-79.5 417.87,-60.5 536.87,-60.5 536.87,-79.5"/>
<text text-anchor="middle" x="477.37" y="-67.5" font-family="Malgun Gothic" font-size="10.00">Logging/LogMacros.h</text>
</a>
</g>
</g>
<!-- Node6&#45;&gt;Node7 -->
<g id="edge7_Node000006_Node000007" class="edge">
<title>Node6&#45;&gt;Node7</title>
<g id="a_edge7_Node000006_Node000007"><a xlink:title=" ">
<path fill="none" stroke="#63b8ff" d="M530.22,-120.87C520.69,-111.88 505.57,-97.61 493.94,-86.64"/>
<polygon fill="#63b8ff" stroke="#63b8ff" points="496.23,-83.98 486.55,-79.67 491.42,-89.08 496.23,-83.98"/>
</a>
</g>
</g>
<!-- Node8 -->
<g id="Node000008" class="node">
<title>Node8</title>
<g id="a_Node000008"><a xlink:title=" ">
<polygon fill="#e0e0e0" stroke="#999999" points="649.87,-79.5 554.87,-79.5 554.87,-60.5 649.87,-60.5 649.87,-79.5"/>
<text text-anchor="middle" x="602.37" y="-67.5" font-family="Malgun Gothic" font-size="10.00">Engine/Engine.h</text>
</a>
</g>
</g>
<!-- Node6&#45;&gt;Node8 -->
<g id="edge8_Node000006_Node000008" class="edge">
<title>Node6&#45;&gt;Node8</title>
<g id="a_edge8_Node000006_Node000008"><a xlink:title=" ">
<path fill="none" stroke="#63b8ff" d="M548.66,-120.87C558.34,-111.88 573.71,-97.61 585.53,-86.64"/>
<polygon fill="#63b8ff" stroke="#63b8ff" points="588.09,-89.04 593.03,-79.67 583.32,-83.91 588.09,-89.04"/>
</a>
</g>
</g>
<!-- Node9 -->
<g id="Node000009" class="node">
<title>Node9</title>
<g id="a_Node000009"><a xlink:href="FLogWriter_8h.html" target="_top" xlink:title="FLogWriter 선언에 대한 Doxygen 주석을 제공합니다.">
<polygon fill="white" stroke="#666666" points="746.37,-79.5 668.37,-79.5 668.37,-60.5 746.37,-60.5 746.37,-79.5"/>
<text text-anchor="middle" x="707.37" y="-67.5" font-family="Malgun Gothic" font-size="10.00">FLogWriter.h</text>
</a>
</g>
</g>
<!-- Node6&#45;&gt;Node9 -->
<g id="edge9_Node000006_Node000009" class="edge">
<title>Node6&#45;&gt;Node9</title>
<g id="a_edge9_Node000006_Node000009"><a xlink:title=" ">
<path fill="none" stroke="#63b8ff" d="M563.79,-120.99C592.66,-110.94 640.86,-94.16 673.36,-82.84"/>
<polygon fill="#63b8ff" stroke="#63b8ff" points="674.61,-86.11 682.91,-79.52 672.31,-79.5 674.61,-86.11"/>
</a>
</g>
</g>
<!-- Node10 -->
<g id="Node000010" class="node">
<title>Node10</title>
<g id="a_Node000010"><a xlink:href="NetworkLog_8h.html" target="_top" xlink:title="NetworkLog 선언에 대한 Doxygen 주석을 제공합니다.">
<polygon fill="white" stroke="#666666" points="848.37,-79.5 764.37,-79.5 764.37,-60.5 848.37,-60.5 848.37,-79.5"/>
<text text-anchor="middle" x="806.37" y="-67.5" font-family="Malgun Gothic" font-size="10.00">NetworkLog.h</text>
</a>
</g>
</g>
<!-- Node6&#45;&gt;Node10 -->
<g id="edge11_Node000006_Node000010" class="edge">
<title>Node6&#45;&gt;Node10</title>
<g id="a_edge11_Node000006_Node000010"><a xlink:title=" ">
<path fill="none" stroke="#63b8ff" d="M585.07,-120.98C628.92,-112.59 696.91,-99.03 755.37,-85 759.02,-84.12 762.81,-83.17 766.59,-82.19"/>
<polygon fill="#63b8ff" stroke="#63b8ff" points="767.75,-85.5 776.52,-79.54 765.95,-78.73 767.75,-85.5"/>
</a>
</g>
</g>
<!-- Node9&#45;&gt;Node3 -->
<g id="edge10_Node000009_Node000003" class="edge">
<title>Node9&#45;&gt;Node3</title>
<g id="a_edge10_Node000009_Node000003"><a xlink:title=" ">
<path fill="none" stroke="#63b8ff" d="M684.25,-60.49C657.04,-50.49 611.7,-33.8 580.94,-22.49"/>
<polygon fill="#63b8ff" stroke="#63b8ff" points="582.11,-19.18 571.51,-19.02 579.69,-25.75 582.11,-19.18"/>
</a>
</g>
</g>
<!-- Node10&#45;&gt;Node3 -->
<g id="edge12_Node000010_Node000003" class="edge">
<title>Node10&#45;&gt;Node3</title>
<g id="a_edge12_Node000010_Node000003"><a xlink:title=" ">
<path fill="none" stroke="#63b8ff" d="M776.23,-60.43C769.39,-58.56 762.14,-56.66 755.37,-55 703.25,-42.25 643.27,-29.58 601.33,-21.03"/>
<polygon fill="#63b8ff" stroke="#63b8ff" points="601.84,-17.56 591.34,-19.01 600.45,-24.42 601.84,-17.56"/>
</a>
</g>
</g>
</g>
</svg>
