<?xml version="1.0" encoding="UTF-8" standalone="no"?>
<!DOCTYPE svg PUBLIC "-//W3C//DTD SVG 1.1//EN"
 "http://www.w3.org/Graphics/SVG/1.1/DTD/svg11.dtd">
<!-- Generated by graphviz version 2.43.0 (0)
 -->
<!-- Title: Source/YiSan/Voice/Public/UVoiceFunctionLibrary.h Pages: 1 -->
<svg width="458pt" height="104pt"
 viewBox="0.00 0.00 457.50 104.00" xmlns="http://www.w3.org/2000/svg" xmlns:xlink="http://www.w3.org/1999/xlink">
<g id="graph0" class="graph" transform="scale(1 1) rotate(0) translate(4 100)">
<title>Source/YiSan/Voice/Public/UVoiceFunctionLibrary.h</title>
<!-- Node1 -->
<g id="Node000001" class="node">
<title>Node1</title>
<g id="a_Node000001"><a xlink:title=" ">
<polygon fill="#999999" stroke="#666666" points="260,-96 92,-96 92,-66 260,-66 260,-96"/>
<text text-anchor="start" x="100" y="-84" font-family="Malgun Gothic" font-size="10.00">Source/YiSan/Voice</text>
<text text-anchor="middle" x="176" y="-73" font-family="Malgun Gothic" font-size="10.00">/Public/UVoiceFunctionLibrary.h</text>
</a>
</g>
</g>
<!-- Node2 -->
<g id="Node000002" class="node">
<title>Node2</title>
<g id="a_Node000002"><a xlink:title=" ">
<polygon fill="#e0e0e0" stroke="#999999" points="88,-24.5 0,-24.5 0,-5.5 88,-5.5 88,-24.5"/>
<text text-anchor="middle" x="44" y="-12.5" font-family="Malgun Gothic" font-size="10.00">CoreMinimal.h</text>
</a>
</g>
</g>
<!-- Node1&#45;&gt;Node2 -->
<g id="edge1_Node000001_Node000002" class="edge">
<title>Node1&#45;&gt;Node2</title>
<g id="a_edge1_Node000001_Node000002"><a xlink:title=" ">
<path fill="none" stroke="#63b8ff" d="M147.03,-65.95C124.29,-54.93 92.88,-39.7 70.73,-28.96"/>
<polygon fill="#63b8ff" stroke="#63b8ff" points="72.09,-25.73 61.57,-24.52 69.04,-32.03 72.09,-25.73"/>
</a>
</g>
</g>
<!-- Node3 -->
<g id="Node000003" class="node">
<title>Node3</title>
<g id="a_Node000003"><a xlink:title=" ">
<polygon fill="#e0e0e0" stroke="#999999" points="246,-30 106,-30 106,0 246,0 246,-30"/>
<text text-anchor="start" x="114" y="-18" font-family="Malgun Gothic" font-size="10.00">Kismet/BlueprintFunction</text>
<text text-anchor="middle" x="176" y="-7" font-family="Malgun Gothic" font-size="10.00">Library.h</text>
</a>
</g>
</g>
<!-- Node1&#45;&gt;Node3 -->
<g id="edge2_Node000001_Node000003" class="edge">
<title>Node1&#45;&gt;Node3</title>
<g id="a_edge2_Node000001_Node000003"><a xlink:title=" ">
<path fill="none" stroke="#63b8ff" d="M176,-65.8C176,-58.34 176,-48.99 176,-40.41"/>
<polygon fill="#63b8ff" stroke="#63b8ff" points="179.5,-40.16 176,-30.16 172.5,-40.16 179.5,-40.16"/>
</a>
</g>
</g>
<!-- Node4 -->
<g id="Node000004" class="node">
<title>Node4</title>
<g id="a_Node000004"><a xlink:title=" ">
<polygon fill="#e0e0e0" stroke="#999999" points="449.5,-24.5 264.5,-24.5 264.5,-5.5 449.5,-5.5 449.5,-24.5"/>
<text text-anchor="middle" x="357" y="-12.5" font-family="Malgun Gothic" font-size="10.00">UVoiceFunctionLibrary.generated.h</text>
</a>
</g>
</g>
<!-- Node1&#45;&gt;Node4 -->
<g id="edge3_Node000001_Node000004" class="edge">
<title>Node1&#45;&gt;Node4</title>
<g id="a_edge3_Node000001_Node000004"><a xlink:title=" ">
<path fill="none" stroke="#63b8ff" d="M215.72,-65.95C247.88,-54.58 292.7,-38.74 323.17,-27.96"/>
<polygon fill="#63b8ff" stroke="#63b8ff" points="324.65,-31.15 332.91,-24.52 322.32,-24.55 324.65,-31.15"/>
</a>
</g>
</g>
</g>
</svg>
