<?xml version="1.0" encoding="UTF-8" standalone="no"?>
<!DOCTYPE svg PUBLIC "-//W3C//DTD SVG 1.1//EN"
 "http://www.w3.org/Graphics/SVG/1.1/DTD/svg11.dtd">
<!-- Generated by graphviz version 2.43.0 (0)
 -->
<!-- Title: Source/YiSan/Voice/Public/UVoiceRecordSystem.h Pages: 1 -->
<svg width="596pt" height="93pt"
 viewBox="0.00 0.00 596.00 93.00" xmlns="http://www.w3.org/2000/svg" xmlns:xlink="http://www.w3.org/1999/xlink">
<g id="graph0" class="graph" transform="scale(1 1) rotate(0) translate(4 89)">
<title>Source/YiSan/Voice/Public/UVoiceRecordSystem.h</title>
<!-- Node1 -->
<g id="Node000001" class="node">
<title>Node1</title>
<g id="a_Node000001"><a xlink:title=" ">
<polygon fill="#999999" stroke="#666666" points="309.5,-85 144.5,-85 144.5,-55 309.5,-55 309.5,-85"/>
<text text-anchor="start" x="152.5" y="-73" font-family="Malgun Gothic" font-size="10.00">Source/YiSan/Voice</text>
<text text-anchor="middle" x="227" y="-62" font-family="Malgun Gothic" font-size="10.00">/Public/UVoiceRecordSystem.h</text>
</a>
</g>
</g>
<!-- Node2 -->
<g id="Node000002" class="node">
<title>Node2</title>
<g id="a_Node000002"><a xlink:title=" ">
<polygon fill="#e0e0e0" stroke="#999999" points="88,-19 0,-19 0,0 88,0 88,-19"/>
<text text-anchor="middle" x="44" y="-7" font-family="Malgun Gothic" font-size="10.00">CoreMinimal.h</text>
</a>
</g>
</g>
<!-- Node1&#45;&gt;Node2 -->
<g id="edge1_Node000001_Node000002" class="edge">
<title>Node1&#45;&gt;Node2</title>
<g id="a_edge1_Node000001_Node000002"><a xlink:title=" ">
<path fill="none" stroke="#63b8ff" d="M183.17,-54.99C151.86,-44.98 110.22,-31.67 80.67,-22.22"/>
<polygon fill="#63b8ff" stroke="#63b8ff" points="81.35,-18.76 70.76,-19.05 79.22,-25.43 81.35,-18.76"/>
</a>
</g>
</g>
<!-- Node3 -->
<g id="Node000003" class="node">
<title>Node3</title>
<g id="a_Node000003"><a xlink:title=" ">
<polygon fill="#e0e0e0" stroke="#999999" points="198,-19 106,-19 106,0 198,0 198,-19"/>
<text text-anchor="middle" x="152" y="-7" font-family="Malgun Gothic" font-size="10.00">AudioCapture.h</text>
</a>
</g>
</g>
<!-- Node1&#45;&gt;Node3 -->
<g id="edge2_Node000001_Node000003" class="edge">
<title>Node1&#45;&gt;Node3</title>
<g id="a_edge2_Node000001_Node000003"><a xlink:title=" ">
<path fill="none" stroke="#63b8ff" d="M208.84,-54.84C197.51,-46 182.94,-34.63 171.38,-25.62"/>
<polygon fill="#63b8ff" stroke="#63b8ff" points="173.28,-22.66 163.24,-19.27 168.97,-28.18 173.28,-22.66"/>
</a>
</g>
</g>
<!-- Node4 -->
<g id="Node000004" class="node">
<title>Node4</title>
<g id="a_Node000004"><a xlink:title=" ">
<polygon fill="#e0e0e0" stroke="#999999" points="388,-19 216,-19 216,0 388,0 388,-19"/>
<text text-anchor="middle" x="302" y="-7" font-family="Malgun Gothic" font-size="10.00">Components/ActorComponent.h</text>
</a>
</g>
</g>
<!-- Node1&#45;&gt;Node4 -->
<g id="edge3_Node000001_Node000004" class="edge">
<title>Node1&#45;&gt;Node4</title>
<g id="a_edge3_Node000001_Node000004"><a xlink:title=" ">
<path fill="none" stroke="#63b8ff" d="M245.16,-54.84C256.49,-46 271.06,-34.63 282.62,-25.62"/>
<polygon fill="#63b8ff" stroke="#63b8ff" points="285.03,-28.18 290.76,-19.27 280.72,-22.66 285.03,-28.18"/>
</a>
</g>
</g>
<!-- Node5 -->
<g id="Node000005" class="node">
<title>Node5</title>
<g id="a_Node000005"><a xlink:title=" ">
<polygon fill="#e0e0e0" stroke="#999999" points="588,-19 406,-19 406,0 588,0 588,-19"/>
<text text-anchor="middle" x="497" y="-7" font-family="Malgun Gothic" font-size="10.00">UVoiceRecordSystem.generated.h</text>
</a>
</g>
</g>
<!-- Node1&#45;&gt;Node5 -->
<g id="edge4_Node000001_Node000005" class="edge">
<title>Node1&#45;&gt;Node5</title>
<g id="a_edge4_Node000001_Node000005"><a xlink:title=" ">
<path fill="none" stroke="#63b8ff" d="M291.67,-54.99C339.58,-44.61 403.88,-30.68 447.68,-21.19"/>
<polygon fill="#63b8ff" stroke="#63b8ff" points="448.49,-24.59 457.52,-19.05 447.01,-17.75 448.49,-24.59"/>
</a>
</g>
</g>
</g>
</svg>
