<?xml version="1.0" encoding="UTF-8" standalone="no"?>
<!DOCTYPE svg PUBLIC "-//W3C//DTD SVG 1.1//EN"
 "http://www.w3.org/Graphics/SVG/1.1/DTD/svg11.dtd">
<!-- Generated by graphviz version 2.43.0 (0)
 -->
<!-- Title: Source/LatteLibrary/Character/Private/UVoiceSystem.cpp Pages: 1 -->
<svg width="1718pt" height="203pt"
 viewBox="0.00 0.00 1717.50 203.00" xmlns="http://www.w3.org/2000/svg" xmlns:xlink="http://www.w3.org/1999/xlink">
<g id="graph0" class="graph" transform="scale(1 1) rotate(0) translate(4 199)">
<title>Source/LatteLibrary/Character/Private/UVoiceSystem.cpp</title>
<!-- Node1 -->
<g id="Node000001" class="node">
<title>Node1</title>
<g id="a_Node000001"><a xlink:title="Implementation of UVoiceSystem.">
<polygon fill="#999999" stroke="#666666" points="1258,-195 1060,-195 1060,-165 1258,-165 1258,-195"/>
<text text-anchor="start" x="1068" y="-183" font-family="Malgun Gothic" font-size="10.00">Source/LatteLibrary</text>
<text text-anchor="middle" x="1159" y="-172" font-family="Malgun Gothic" font-size="10.00">/Character/Private/UVoiceSystem.cpp</text>
</a>
</g>
</g>
<!-- Node2 -->
<g id="Node000002" class="node">
<title>Node2</title>
<g id="a_Node000002"><a xlink:href="UVoiceSystem_8h.html" target="_top" xlink:title=" ">
<polygon fill="white" stroke="#666666" points="1062,-129 966,-129 966,-110 1062,-110 1062,-129"/>
<text text-anchor="middle" x="1014" y="-117" font-family="Malgun Gothic" font-size="10.00">UVoiceSystem.h</text>
</a>
</g>
</g>
<!-- Node1&#45;&gt;Node2 -->
<g id="edge1_Node000001_Node000002" class="edge">
<title>Node1&#45;&gt;Node2</title>
<g id="a_edge1_Node000001_Node000002"><a xlink:title=" ">
<path fill="none" stroke="#63b8ff" d="M1124.27,-164.99C1100.08,-155.23 1068.1,-142.33 1044.81,-132.93"/>
<polygon fill="#63b8ff" stroke="#63b8ff" points="1046,-129.63 1035.41,-129.14 1043.38,-136.13 1046,-129.63"/>
</a>
</g>
</g>
<!-- Node6 -->
<g id="Node000006" class="node">
<title>Node6</title>
<g id="a_Node000006"><a xlink:href="GameLogging_8h.html" target="_top" xlink:title="GameLogging 선언에 대한 Doxygen 주석을 제공합니다.">
<polygon fill="white" stroke="#666666" points="705.5,-129 612.5,-129 612.5,-110 705.5,-110 705.5,-129"/>
<text text-anchor="middle" x="659" y="-117" font-family="Malgun Gothic" font-size="10.00">GameLogging.h</text>
</a>
</g>
</g>
<!-- Node1&#45;&gt;Node6 -->
<g id="edge5_Node000001_Node000006" class="edge">
<title>Node1&#45;&gt;Node6</title>
<g id="a_edge5_Node000001_Node000006"><a xlink:title=" ">
<path fill="none" stroke="#63b8ff" d="M1059.92,-167.41C956.88,-155.35 799.2,-136.9 715.6,-127.12"/>
<polygon fill="#63b8ff" stroke="#63b8ff" points="715.87,-123.63 705.53,-125.94 715.06,-130.58 715.87,-123.63"/>
</a>
</g>
</g>
<!-- Node11 -->
<g id="Node000011" class="node">
<title>Node11</title>
<g id="a_Node000011"><a xlink:title=" ">
<polygon fill="#e0e0e0" stroke="#999999" points="1449.5,-129 1334.5,-129 1334.5,-110 1449.5,-110 1449.5,-129"/>
<text text-anchor="middle" x="1392" y="-117" font-family="Malgun Gothic" font-size="10.00">HAL/PlatformTime.h</text>
</a>
</g>
</g>
<!-- Node1&#45;&gt;Node11 -->
<g id="edge13_Node000001_Node000011" class="edge">
<title>Node1&#45;&gt;Node11</title>
<g id="a_edge13_Node000001_Node000011"><a xlink:title=" ">
<path fill="none" stroke="#63b8ff" d="M1214.81,-164.99C1255.54,-154.76 1310.01,-141.09 1347.75,-131.61"/>
<polygon fill="#63b8ff" stroke="#63b8ff" points="1349.09,-134.88 1357.93,-129.05 1347.38,-128.09 1349.09,-134.88"/>
</a>
</g>
</g>
<!-- Node12 -->
<g id="Node000012" class="node">
<title>Node12</title>
<g id="a_Node000012"><a xlink:title=" ">
<polygon fill="#e0e0e0" stroke="#999999" points="1542,-129 1468,-129 1468,-110 1542,-110 1542,-129"/>
<text text-anchor="middle" x="1505" y="-117" font-family="Malgun Gothic" font-size="10.00">Misc/Guid.h</text>
</a>
</g>
</g>
<!-- Node1&#45;&gt;Node12 -->
<g id="edge14_Node000001_Node000012" class="edge">
<title>Node1&#45;&gt;Node12</title>
<g id="a_edge14_Node000001_Node000012"><a xlink:title=" ">
<path fill="none" stroke="#63b8ff" d="M1245.71,-164.96C1303.2,-155.56 1380.58,-142.71 1457.93,-129.16"/>
<polygon fill="#63b8ff" stroke="#63b8ff" points="1458.61,-132.6 1467.85,-127.42 1457.4,-125.7 1458.61,-132.6"/>
</a>
</g>
</g>
<!-- Node13 -->
<g id="Node000013" class="node">
<title>Node13</title>
<g id="a_Node000013"><a xlink:href="UHitStopSystem_8h.html" target="_top" xlink:title="UHitStopSystem 선언에 대한 Doxygen 주석을 제공합니다.">
<polygon fill="white" stroke="#666666" points="349,-129 243,-129 243,-110 349,-110 349,-129"/>
<text text-anchor="middle" x="296" y="-117" font-family="Malgun Gothic" font-size="10.00">UHitStopSystem.h</text>
</a>
</g>
</g>
<!-- Node1&#45;&gt;Node13 -->
<g id="edge15_Node000001_Node000013" class="edge">
<title>Node1&#45;&gt;Node13</title>
<g id="a_edge15_Node000001_Node000013"><a xlink:title=" ">
<path fill="none" stroke="#63b8ff" d="M1059.58,-172.26C880.39,-160.11 508.07,-134.88 359.36,-124.8"/>
<polygon fill="#63b8ff" stroke="#63b8ff" points="359.26,-121.28 349.05,-124.1 358.79,-128.26 359.26,-121.28"/>
</a>
</g>
</g>
<!-- Node19 -->
<g id="Node000019" class="node">
<title>Node19</title>
<g id="a_Node000019"><a xlink:href="UStatSystem_8h.html" target="_top" xlink:title="UStatSystem 선언에 대한 Doxygen 주석을 제공합니다.">
<polygon fill="white" stroke="#666666" points="1203.5,-129 1114.5,-129 1114.5,-110 1203.5,-110 1203.5,-129"/>
<text text-anchor="middle" x="1159" y="-117" font-family="Malgun Gothic" font-size="10.00">UStatSystem.h</text>
</a>
</g>
</g>
<!-- Node1&#45;&gt;Node19 -->
<g id="edge24_Node000001_Node000019" class="edge">
<title>Node1&#45;&gt;Node19</title>
<g id="a_edge24_Node000001_Node000019"><a xlink:title=" ">
<path fill="none" stroke="#63b8ff" d="M1159,-164.84C1159,-157.21 1159,-147.7 1159,-139.45"/>
<polygon fill="#63b8ff" stroke="#63b8ff" points="1162.5,-139.27 1159,-129.27 1155.5,-139.27 1162.5,-139.27"/>
</a>
</g>
</g>
<!-- Node22 -->
<g id="Node000022" class="node">
<title>Node22</title>
<g id="a_Node000022"><a xlink:href="USightSystem_8h.html" target="_top" xlink:title="USightSystem 선언에 대한 Doxygen 주석을 제공합니다.">
<polygon fill="white" stroke="#666666" points="1316.5,-129 1221.5,-129 1221.5,-110 1316.5,-110 1316.5,-129"/>
<text text-anchor="middle" x="1269" y="-117" font-family="Malgun Gothic" font-size="10.00">USightSystem.h</text>
</a>
</g>
</g>
<!-- Node1&#45;&gt;Node22 -->
<g id="edge29_Node000001_Node000022" class="edge">
<title>Node1&#45;&gt;Node22</title>
<g id="a_edge29_Node000001_Node000022"><a xlink:title=" ">
<path fill="none" stroke="#63b8ff" d="M1185.35,-164.99C1203.05,-155.58 1226.23,-143.24 1243.71,-133.95"/>
<polygon fill="#63b8ff" stroke="#63b8ff" points="1245.57,-136.92 1252.76,-129.14 1242.28,-130.74 1245.57,-136.92"/>
</a>
</g>
</g>
<!-- Node3 -->
<g id="Node000003" class="node">
<title>Node3</title>
<g id="a_Node000003"><a xlink:title=" ">
<polygon fill="#e0e0e0" stroke="#999999" points="792,-19 704,-19 704,0 792,0 792,-19"/>
<text text-anchor="middle" x="748" y="-7" font-family="Malgun Gothic" font-size="10.00">CoreMinimal.h</text>
</a>
</g>
</g>
<!-- Node2&#45;&gt;Node3 -->
<g id="edge2_Node000002_Node000003" class="edge">
<title>Node2&#45;&gt;Node3</title>
<g id="a_edge2_Node000002_Node000003"><a xlink:title=" ">
<path fill="none" stroke="#63b8ff" d="M965.94,-110.94C930.12,-104.2 880.58,-92.48 840,-74 811.92,-61.21 783.23,-39.82 765.53,-25.44"/>
<polygon fill="#63b8ff" stroke="#63b8ff" points="767.7,-22.69 757.76,-19.01 763.23,-28.08 767.7,-22.69"/>
</a>
</g>
</g>
<!-- Node4 -->
<g id="Node000004" class="node">
<title>Node4</title>
<g id="a_Node000004"><a xlink:title=" ">
<polygon fill="#e0e0e0" stroke="#999999" points="1188,-74 1016,-74 1016,-55 1188,-55 1188,-74"/>
<text text-anchor="middle" x="1102" y="-62" font-family="Malgun Gothic" font-size="10.00">Components/ActorComponent.h</text>
</a>
</g>
</g>
<!-- Node2&#45;&gt;Node4 -->
<g id="edge3_Node000002_Node000004" class="edge">
<title>Node2&#45;&gt;Node4</title>
<g id="a_edge3_Node000002_Node000004"><a xlink:title=" ">
<path fill="none" stroke="#63b8ff" d="M1028.14,-109.98C1041.79,-101.77 1062.69,-89.18 1078.78,-79.49"/>
<polygon fill="#63b8ff" stroke="#63b8ff" points="1080.84,-82.33 1087.6,-74.17 1077.23,-76.33 1080.84,-82.33"/>
</a>
</g>
</g>
<!-- Node5 -->
<g id="Node000005" class="node">
<title>Node5</title>
<g id="a_Node000005"><a xlink:title=" ">
<polygon fill="#e0e0e0" stroke="#999999" points="997.5,-74 848.5,-74 848.5,-55 997.5,-55 997.5,-74"/>
<text text-anchor="middle" x="923" y="-62" font-family="Malgun Gothic" font-size="10.00">UVoiceSystem.generated.h</text>
</a>
</g>
</g>
<!-- Node2&#45;&gt;Node5 -->
<g id="edge4_Node000002_Node000005" class="edge">
<title>Node2&#45;&gt;Node5</title>
<g id="a_edge4_Node000002_Node000005"><a xlink:title=" ">
<path fill="none" stroke="#63b8ff" d="M999.38,-109.98C985.14,-101.69 963.25,-88.94 946.55,-79.22"/>
<polygon fill="#63b8ff" stroke="#63b8ff" points="948.29,-76.18 937.89,-74.17 944.77,-82.23 948.29,-76.18"/>
</a>
</g>
</g>
<!-- Node6&#45;&gt;Node3 -->
<g id="edge6_Node000006_Node000003" class="edge">
<title>Node6&#45;&gt;Node3</title>
<g id="a_edge6_Node000006_Node000003"><a xlink:title=" ">
<path fill="none" stroke="#63b8ff" d="M705.58,-110.86C727.19,-104.73 750.94,-93.73 764,-74 773.19,-60.12 766.63,-41.34 759.33,-27.81"/>
<polygon fill="#63b8ff" stroke="#63b8ff" points="762.23,-25.83 754.1,-19.03 756.21,-29.41 762.23,-25.83"/>
</a>
</g>
</g>
<!-- Node7 -->
<g id="Node000007" class="node">
<title>Node7</title>
<g id="a_Node000007"><a xlink:title=" ">
<polygon fill="#e0e0e0" stroke="#999999" points="539.5,-74 420.5,-74 420.5,-55 539.5,-55 539.5,-74"/>
<text text-anchor="middle" x="480" y="-62" font-family="Malgun Gothic" font-size="10.00">Logging/LogMacros.h</text>
</a>
</g>
</g>
<!-- Node6&#45;&gt;Node7 -->
<g id="edge7_Node000006_Node000007" class="edge">
<title>Node6&#45;&gt;Node7</title>
<g id="a_edge7_Node000006_Node000007"><a xlink:title=" ">
<path fill="none" stroke="#63b8ff" d="M630.24,-109.98C600.06,-101.05 552.43,-86.94 518.9,-77.02"/>
<polygon fill="#63b8ff" stroke="#63b8ff" points="519.57,-73.57 508.98,-74.08 517.58,-80.28 519.57,-73.57"/>
</a>
</g>
</g>
<!-- Node8 -->
<g id="Node000008" class="node">
<title>Node8</title>
<g id="a_Node000008"><a xlink:title=" ">
<polygon fill="#e0e0e0" stroke="#999999" points="652.5,-74 557.5,-74 557.5,-55 652.5,-55 652.5,-74"/>
<text text-anchor="middle" x="605" y="-62" font-family="Malgun Gothic" font-size="10.00">Engine/Engine.h</text>
</a>
</g>
</g>
<!-- Node6&#45;&gt;Node8 -->
<g id="edge8_Node000006_Node000008" class="edge">
<title>Node6&#45;&gt;Node8</title>
<g id="a_edge8_Node000006_Node000008"><a xlink:title=" ">
<path fill="none" stroke="#63b8ff" d="M650.08,-109.75C642.22,-102.03 630.57,-90.6 621.08,-81.28"/>
<polygon fill="#63b8ff" stroke="#63b8ff" points="623.34,-78.6 613.75,-74.09 618.44,-83.59 623.34,-78.6"/>
</a>
</g>
</g>
<!-- Node9 -->
<g id="Node000009" class="node">
<title>Node9</title>
<g id="a_Node000009"><a xlink:href="FLogWriter_8h.html" target="_top" xlink:title="FLogWriter 선언에 대한 Doxygen 주석을 제공합니다.">
<polygon fill="white" stroke="#666666" points="402,-74 324,-74 324,-55 402,-55 402,-74"/>
<text text-anchor="middle" x="363" y="-62" font-family="Malgun Gothic" font-size="10.00">FLogWriter.h</text>
</a>
</g>
</g>
<!-- Node6&#45;&gt;Node9 -->
<g id="edge9_Node000006_Node000009" class="edge">
<title>Node6&#45;&gt;Node9</title>
<g id="a_edge9_Node000006_Node000009"><a xlink:title=" ">
<path fill="none" stroke="#63b8ff" d="M612.42,-110.16C557.86,-100.39 467.86,-84.28 412.19,-74.31"/>
<polygon fill="#63b8ff" stroke="#63b8ff" points="412.67,-70.84 402.21,-72.52 411.44,-77.73 412.67,-70.84"/>
</a>
</g>
</g>
<!-- Node10 -->
<g id="Node000010" class="node">
<title>Node10</title>
<g id="a_Node000010"><a xlink:href="NetworkLog_8h.html" target="_top" xlink:title="NetworkLog 선언에 대한 Doxygen 주석을 제공합니다.">
<polygon fill="white" stroke="#666666" points="755,-74 671,-74 671,-55 755,-55 755,-74"/>
<text text-anchor="middle" x="713" y="-62" font-family="Malgun Gothic" font-size="10.00">NetworkLog.h</text>
</a>
</g>
</g>
<!-- Node6&#45;&gt;Node10 -->
<g id="edge11_Node000006_Node000010" class="edge">
<title>Node6&#45;&gt;Node10</title>
<g id="a_edge11_Node000006_Node000010"><a xlink:title=" ">
<path fill="none" stroke="#63b8ff" d="M667.92,-109.75C675.78,-102.03 687.43,-90.6 696.92,-81.28"/>
<polygon fill="#63b8ff" stroke="#63b8ff" points="699.56,-83.59 704.25,-74.09 694.66,-78.6 699.56,-83.59"/>
</a>
</g>
</g>
<!-- Node9&#45;&gt;Node3 -->
<g id="edge10_Node000009_Node000003" class="edge">
<title>Node9&#45;&gt;Node3</title>
<g id="a_edge10_Node000009_Node000003"><a xlink:title=" ">
<path fill="none" stroke="#63b8ff" d="M402.03,-56.58C405.4,-56.03 408.76,-55.5 412,-55 511.11,-39.85 627.13,-25.15 693.65,-17.02"/>
<polygon fill="#63b8ff" stroke="#63b8ff" points="694.39,-20.45 703.89,-15.77 693.54,-13.51 694.39,-20.45"/>
</a>
</g>
</g>
<!-- Node10&#45;&gt;Node3 -->
<g id="edge12_Node000010_Node000003" class="edge">
<title>Node10&#45;&gt;Node3</title>
<g id="a_edge12_Node000010_Node000003"><a xlink:title=" ">
<path fill="none" stroke="#63b8ff" d="M718.78,-54.75C723.62,-47.42 730.68,-36.73 736.64,-27.7"/>
<polygon fill="#63b8ff" stroke="#63b8ff" points="739.74,-29.36 742.33,-19.09 733.9,-25.5 739.74,-29.36"/>
</a>
</g>
</g>
<!-- Node13&#45;&gt;Node3 -->
<g id="edge16_Node000013_Node000003" class="edge">
<title>Node13&#45;&gt;Node3</title>
<g id="a_edge16_Node000013_Node000003"><a xlink:title=" ">
<path fill="none" stroke="#63b8ff" d="M295.79,-109.91C295.95,-95.98 298.51,-68.64 315,-55 343.62,-31.32 583.79,-17.76 693.6,-12.75"/>
<polygon fill="#63b8ff" stroke="#63b8ff" points="693.97,-16.23 703.81,-12.29 693.66,-9.24 693.97,-16.23"/>
</a>
</g>
</g>
<!-- Node13&#45;&gt;Node4 -->
<g id="edge17_Node000013_Node000004" class="edge">
<title>Node13&#45;&gt;Node4</title>
<g id="a_edge17_Node000013_Node000004"><a xlink:title=" ">
<path fill="none" stroke="#63b8ff" d="M349.1,-115.66C465.79,-109.32 753.56,-93.11 1005.71,-74.08"/>
<polygon fill="#63b8ff" stroke="#63b8ff" points="1006.09,-77.56 1015.79,-73.31 1005.56,-70.58 1006.09,-77.56"/>
</a>
</g>
</g>
<!-- Node14 -->
<g id="Node000014" class="node">
<title>Node14</title>
<g id="a_Node000014"><a xlink:href="FHitStopData_8h.html" target="_top" xlink:title="FHitStopData 구조체에 대한 Doxygen 주석을 제공합니다.">
<polygon fill="white" stroke="#666666" points="267.5,-74 176.5,-74 176.5,-55 267.5,-55 267.5,-74"/>
<text text-anchor="middle" x="222" y="-62" font-family="Malgun Gothic" font-size="10.00">FHitStopData.h</text>
</a>
</g>
</g>
<!-- Node13&#45;&gt;Node14 -->
<g id="edge18_Node000013_Node000014" class="edge">
<title>Node13&#45;&gt;Node14</title>
<g id="a_edge18_Node000013_Node000014"><a xlink:title=" ">
<path fill="none" stroke="#63b8ff" d="M284.11,-109.98C272.85,-101.92 255.71,-89.65 242.29,-80.03"/>
<polygon fill="#63b8ff" stroke="#63b8ff" points="244.27,-77.15 234.11,-74.17 240.2,-82.84 244.27,-77.15"/>
</a>
</g>
</g>
<!-- Node18 -->
<g id="Node000018" class="node">
<title>Node18</title>
<g id="a_Node000018"><a xlink:title=" ">
<polygon fill="#e0e0e0" stroke="#999999" points="158,-74 0,-74 0,-55 158,-55 158,-74"/>
<text text-anchor="middle" x="79" y="-62" font-family="Malgun Gothic" font-size="10.00">UHitStopSystem.generated.h</text>
</a>
</g>
</g>
<!-- Node13&#45;&gt;Node18 -->
<g id="edge23_Node000013_Node000018" class="edge">
<title>Node13&#45;&gt;Node18</title>
<g id="a_edge23_Node000013_Node000018"><a xlink:title=" ">
<path fill="none" stroke="#63b8ff" d="M261.14,-109.98C223.91,-100.89 164.8,-86.46 124.07,-76.51"/>
<polygon fill="#63b8ff" stroke="#63b8ff" points="124.68,-73.05 114.14,-74.08 123.02,-79.85 124.68,-73.05"/>
</a>
</g>
</g>
<!-- Node14&#45;&gt;Node3 -->
<g id="edge19_Node000014_Node000003" class="edge">
<title>Node14&#45;&gt;Node3</title>
<g id="a_edge19_Node000014_Node000003"><a xlink:title=" ">
<path fill="none" stroke="#63b8ff" d="M267.51,-56.83C272.4,-56.18 277.3,-55.56 282,-55 430.71,-37.38 606.76,-22.07 693.76,-14.87"/>
<polygon fill="#63b8ff" stroke="#63b8ff" points="694.24,-18.35 703.92,-14.04 693.66,-11.37 694.24,-18.35"/>
</a>
</g>
</g>
<!-- Node15 -->
<g id="Node000015" class="node">
<title>Node15</title>
<g id="a_Node000015"><a xlink:href="EDamageType_8h.html" target="_top" xlink:title="EDamageType 열거형에 대한 Doxygen 주석을 제공합니다.">
<polygon fill="white" stroke="#666666" points="269.5,-19 174.5,-19 174.5,0 269.5,0 269.5,-19"/>
<text text-anchor="middle" x="222" y="-7" font-family="Malgun Gothic" font-size="10.00">EDamageType.h</text>
</a>
</g>
</g>
<!-- Node14&#45;&gt;Node15 -->
<g id="edge20_Node000014_Node000015" class="edge">
<title>Node14&#45;&gt;Node15</title>
<g id="a_edge20_Node000014_Node000015"><a xlink:title=" ">
<path fill="none" stroke="#63b8ff" d="M222,-54.75C222,-47.8 222,-37.85 222,-29.13"/>
<polygon fill="#63b8ff" stroke="#63b8ff" points="225.5,-29.09 222,-19.09 218.5,-29.09 225.5,-29.09"/>
</a>
</g>
</g>
<!-- Node16 -->
<g id="Node000016" class="node">
<title>Node16</title>
<g id="a_Node000016"><a xlink:title=" ">
<polygon fill="#e0e0e0" stroke="#999999" points="398,-19 288,-19 288,0 398,0 398,-19"/>
<text text-anchor="middle" x="343" y="-7" font-family="Malgun Gothic" font-size="10.00">Engine/DataTable.h</text>
</a>
</g>
</g>
<!-- Node14&#45;&gt;Node16 -->
<g id="edge21_Node000014_Node000016" class="edge">
<title>Node14&#45;&gt;Node16</title>
<g id="a_edge21_Node000014_Node000016"><a xlink:title=" ">
<path fill="none" stroke="#63b8ff" d="M241.44,-54.98C260.99,-46.42 291.38,-33.11 313.82,-23.28"/>
<polygon fill="#63b8ff" stroke="#63b8ff" points="315.45,-26.39 323.21,-19.17 312.64,-19.98 315.45,-26.39"/>
</a>
</g>
</g>
<!-- Node17 -->
<g id="Node000017" class="node">
<title>Node17</title>
<g id="a_Node000017"><a xlink:title=" ">
<polygon fill="#e0e0e0" stroke="#999999" points="156.5,-19 13.5,-19 13.5,0 156.5,0 156.5,-19"/>
<text text-anchor="middle" x="85" y="-7" font-family="Malgun Gothic" font-size="10.00">FHitStopData.generated.h</text>
</a>
</g>
</g>
<!-- Node14&#45;&gt;Node17 -->
<g id="edge22_Node000014_Node000017" class="edge">
<title>Node14&#45;&gt;Node17</title>
<g id="a_edge22_Node000014_Node000017"><a xlink:title=" ">
<path fill="none" stroke="#63b8ff" d="M199.99,-54.98C177.55,-46.3 142.52,-32.75 117.01,-22.88"/>
<polygon fill="#63b8ff" stroke="#63b8ff" points="118,-19.51 107.41,-19.17 115.48,-26.04 118,-19.51"/>
</a>
</g>
</g>
<!-- Node19&#45;&gt;Node3 -->
<g id="edge25_Node000019_Node000003" class="edge">
<title>Node19&#45;&gt;Node3</title>
<g id="a_edge25_Node000019_Node000003"><a xlink:title=" ">
<path fill="none" stroke="#63b8ff" d="M1170.62,-109.99C1186.87,-97.11 1212.7,-72.33 1197,-55 1170.96,-26.25 916.44,-15.35 802.58,-11.89"/>
<polygon fill="#63b8ff" stroke="#63b8ff" points="802.43,-8.38 792.33,-11.59 802.23,-15.38 802.43,-8.38"/>
</a>
</g>
</g>
<!-- Node19&#45;&gt;Node4 -->
<g id="edge27_Node000019_Node000004" class="edge">
<title>Node19&#45;&gt;Node4</title>
<g id="a_edge27_Node000019_Node000004"><a xlink:title=" ">
<path fill="none" stroke="#63b8ff" d="M1149.84,-109.98C1141.5,-102.23 1128.97,-90.58 1118.82,-81.14"/>
<polygon fill="#63b8ff" stroke="#63b8ff" points="1121.03,-78.42 1111.32,-74.17 1116.26,-83.54 1121.03,-78.42"/>
</a>
</g>
</g>
<!-- Node20 -->
<g id="Node000020" class="node">
<title>Node20</title>
<g id="a_Node000020"><a xlink:href="ECharacterType_8h.html" target="_top" xlink:title="ECharacterType 열거형에 대한 Doxygen 주석을 제공합니다.">
<polygon fill="white" stroke="#666666" points="1345.5,-74 1244.5,-74 1244.5,-55 1345.5,-55 1345.5,-74"/>
<text text-anchor="middle" x="1295" y="-62" font-family="Malgun Gothic" font-size="10.00">ECharacterType.h</text>
</a>
</g>
</g>
<!-- Node19&#45;&gt;Node20 -->
<g id="edge26_Node000019_Node000020" class="edge">
<title>Node19&#45;&gt;Node20</title>
<g id="a_edge26_Node000019_Node000020"><a xlink:title=" ">
<path fill="none" stroke="#63b8ff" d="M1180.85,-109.98C1203.12,-101.3 1237.9,-87.75 1263.22,-77.88"/>
<polygon fill="#63b8ff" stroke="#63b8ff" points="1264.71,-81.06 1272.75,-74.17 1262.16,-74.54 1264.71,-81.06"/>
</a>
</g>
</g>
<!-- Node21 -->
<g id="Node000021" class="node">
<title>Node21</title>
<g id="a_Node000021"><a xlink:title=" ">
<polygon fill="#e0e0e0" stroke="#999999" points="1506,-74 1364,-74 1364,-55 1506,-55 1506,-74"/>
<text text-anchor="middle" x="1435" y="-62" font-family="Malgun Gothic" font-size="10.00">UStatSystem.generated.h</text>
</a>
</g>
</g>
<!-- Node19&#45;&gt;Node21 -->
<g id="edge28_Node000019_Node000021" class="edge">
<title>Node19&#45;&gt;Node21</title>
<g id="a_edge28_Node000019_Node000021"><a xlink:title=" ">
<path fill="none" stroke="#63b8ff" d="M1203.34,-109.98C1251.49,-100.74 1328.42,-85.97 1380.29,-76.01"/>
<polygon fill="#63b8ff" stroke="#63b8ff" points="1381.15,-79.41 1390.31,-74.08 1379.83,-72.53 1381.15,-79.41"/>
</a>
</g>
</g>
<!-- Node22&#45;&gt;Node3 -->
<g id="edge30_Node000022_Node000003" class="edge">
<title>Node22&#45;&gt;Node3</title>
<g id="a_edge30_Node000022_Node000003"><a xlink:title=" ">
<path fill="none" stroke="#63b8ff" d="M1316.54,-110.69C1387.14,-98.97 1511.81,-77.81 1515,-74 1520.41,-67.52 1520.8,-61.14 1515,-55 1490.55,-29.09 972.76,-15.44 802.05,-11.62"/>
<polygon fill="#63b8ff" stroke="#63b8ff" points="802.11,-8.12 792.03,-11.4 801.95,-15.12 802.11,-8.12"/>
</a>
</g>
</g>
<!-- Node22&#45;&gt;Node4 -->
<g id="edge31_Node000022_Node000004" class="edge">
<title>Node22&#45;&gt;Node4</title>
<g id="a_edge31_Node000022_Node000004"><a xlink:title=" ">
<path fill="none" stroke="#63b8ff" d="M1242.17,-109.98C1214.13,-101.09 1169.95,-87.07 1138.7,-77.15"/>
<polygon fill="#63b8ff" stroke="#63b8ff" points="1139.63,-73.77 1129.04,-74.08 1137.51,-80.44 1139.63,-73.77"/>
</a>
</g>
</g>
<!-- Node23 -->
<g id="Node000023" class="node">
<title>Node23</title>
<g id="a_Node000023"><a xlink:title=" ">
<polygon fill="#e0e0e0" stroke="#999999" points="1709.5,-74 1562.5,-74 1562.5,-55 1709.5,-55 1709.5,-74"/>
<text text-anchor="middle" x="1636" y="-62" font-family="Malgun Gothic" font-size="10.00">USightSystem.generated.h</text>
</a>
</g>
</g>
<!-- Node22&#45;&gt;Node23 -->
<g id="edge32_Node000022_Node000023" class="edge">
<title>Node22&#45;&gt;Node23</title>
<g id="a_edge32_Node000022_Node000023"><a xlink:title=" ">
<path fill="none" stroke="#63b8ff" d="M1316.58,-111.38C1319.77,-110.91 1322.93,-110.45 1326,-110 1408.3,-97.96 1502.94,-84.42 1565.79,-75.47"/>
<polygon fill="#63b8ff" stroke="#63b8ff" points="1566.57,-78.89 1575.98,-74.02 1565.58,-71.96 1566.57,-78.89"/>
</a>
</g>
</g>
</g>
</svg>
