<?xml version="1.0" encoding="UTF-8" standalone="no"?>
<!DOCTYPE svg PUBLIC "-//W3C//DTD SVG 1.1//EN"
 "http://www.w3.org/Graphics/SVG/1.1/DTD/svg11.dtd">
<!-- Generated by graphviz version 2.43.0 (0)
 -->
<!-- Title: Source/LatteLibrary/Character/Private/UVoiceCaptureComponent.cpp Pages: 1 -->
<!--zoomable 214 -->

<svg id="main" version="1.1" xmlns="http://www.w3.org/2000/svg" xmlns:xlink="http://www.w3.org/1999/xlink" xml:space="preserve" onload="init(evt)">
<style type="text/css"><![CDATA[
.node, .edge {opacity: 0.7;}
.node.selected, .edge.selected {opacity: 1;}
.edge:hover path { stroke: red; }
.edge:hover polygon { stroke: red; fill: red; }
]]></style>

<defs>
  <circle id="rim" cx="0" cy="0" r="7"/>
  <circle id="rim2" cx="0" cy="0" r="3.5"/>
  <g id="zoomPlus">
    <use xlink:href="#rim" fill="#404040"><set attributeName="fill" to="#808080" begin="zoomplus.mouseover" end="zoomplus.mouseout"/></use>
    <path d="M-4,0h8M0,-4v8" fill="none" stroke="white" stroke-width="1.5" pointer-events="none"/>
  </g>
  <g id="zoomMin">
    <use xlink:href="#rim" fill="#404040"><set attributeName="fill" to="#808080" begin="zoomminus.mouseover" end="zoomminus.mouseout"/></use>
    <path d="M-4,0h8" fill="none" stroke="white" stroke-width="1.5" pointer-events="none"/>
  </g>
  <g id="arrowUp" transform="translate(30 24)">
    <use xlink:href="#rim"/>
    <path pointer-events="none" fill="none" stroke="white" stroke-width="1.5" d="M0,-3.0v7 M-2.5,-0.5L0,-3.0L2.5,-0.5"/>
  </g>
  <g id="arrowRight" transform="rotate(90) translate(36 -43)">
    <use xlink:href="#rim"/>
    <path pointer-events="none" fill="none" stroke="white" stroke-width="1.5" d="M0,-3.0v7 M-2.5,-0.5L0,-3.0L2.5,-0.5"/>
  </g>
  <g id="arrowDown" transform="rotate(180) translate(-30 -48)">
    <use xlink:href="#rim"/>
    <path pointer-events="none" fill="none" stroke="white" stroke-width="1.5" d="M0,-3.0v7 M-2.5,-0.5L0,-3.0L2.5,-0.5"/>
  </g>
  <g id="arrowLeft" transform="rotate(270) translate(-36 17)">
    <use xlink:href="#rim"/>
    <path pointer-events="none" fill="none" stroke="white" stroke-width="1.5" d="M0,-3.0v7 M-2.5,-0.5L0,-3.0L2.5,-0.5"/>
  </g>
  <g id="resetDef">
    <use xlink:href="#rim2" fill="#404040"><set attributeName="fill" to="#808080" begin="reset.mouseover" end="reset.mouseout"/></use>
  </g>
</defs>
<script type="application/ecmascript">
var viewWidth = 2944;
var viewHeight = 214;
var sectionId = 'dynsection-0';
</script>
<script type="application/ecmascript" xlink:href="svg.min.js"/>
<svg id="graph" class="graph">
<g id="viewport">
<title>Source/LatteLibrary/Character/Private/UVoiceCaptureComponent.cpp</title>
<!-- Node1 -->
<g id="Node000001" class="node">
<title>Node1</title>
<g id="a_Node000001"><a xlink:title=" ">
<polygon fill="#999999" stroke="#666666" points="2287,-206 2108,-206 2108,-165 2287,-165 2287,-206"/>
<text text-anchor="start" x="2116" y="-194" font-family="Malgun Gothic" font-size="10.00">Source/LatteLibrary</text>
<text text-anchor="start" x="2116" y="-183" font-family="Malgun Gothic" font-size="10.00">/Character/Private/UVoiceCapture</text>
<text text-anchor="middle" x="2197.5" y="-172" font-family="Malgun Gothic" font-size="10.00">Component.cpp</text>
</a>
</g>
</g>
<!-- Node2 -->
<g id="Node000002" class="node">
<title>Node2</title>
<g id="a_Node000002"><a xlink:href="UVoiceCaptureComponent_8h.html" target="_top" xlink:title=" ">
<polygon fill="white" stroke="#666666" points="1707.5,-129 1553.5,-129 1553.5,-110 1707.5,-110 1707.5,-129"/>
<text text-anchor="middle" x="1630.5" y="-117" font-family="Malgun Gothic" font-size="10.00">UVoiceCaptureComponent.h</text>
</a>
</g>
</g>
<!-- Node1&#45;&gt;Node2 -->
<g id="edge1_Node000001_Node000002" class="edge">
<title>Node1&#45;&gt;Node2</title>
<g id="a_edge1_Node000001_Node000002"><a xlink:title=" ">
<path fill="none" stroke="#63b8ff" d="M2107.97,-174.39C2000.5,-162.26 1821.58,-142.07 1715.95,-130.15"/>
<polygon fill="#63b8ff" stroke="#63b8ff" points="1716.29,-126.66 1705.96,-129.02 1715.51,-133.62 1716.29,-126.66"/>
</a>
</g>
</g>
<!-- Node6 -->
<g id="Node000006" class="node">
<title>Node6</title>
<g id="a_Node000006"><a xlink:href="GameLogging_8h.html" target="_top" xlink:title="GameLogging 선언에 대한 Doxygen 주석을 제공합니다.">
<polygon fill="white" stroke="#666666" points="366,-129 273,-129 273,-110 366,-110 366,-129"/>
<text text-anchor="middle" x="319.5" y="-117" font-family="Malgun Gothic" font-size="10.00">GameLogging.h</text>
</a>
</g>
</g>
<!-- Node1&#45;&gt;Node6 -->
<g id="edge5_Node000001_Node000006" class="edge">
<title>Node1&#45;&gt;Node6</title>
<g id="a_edge5_Node000001_Node000006"><a xlink:title=" ">
<path fill="none" stroke="#63b8ff" d="M2107.87,-181.45C1779.07,-170.24 644.43,-131.57 376.51,-122.44"/>
<polygon fill="#63b8ff" stroke="#63b8ff" points="376.35,-118.94 366.24,-122.09 376.12,-125.93 376.35,-118.94"/>
</a>
</g>
</g>
<!-- Node11 -->
<g id="Node000011" class="node">
<title>Node11</title>
<g id="a_Node000011"><a xlink:href="GoogleSpeechService_8h.html" target="_top" xlink:title=" ">
<polygon fill="white" stroke="#666666" points="1201,-129 1070,-129 1070,-110 1201,-110 1201,-129"/>
<text text-anchor="middle" x="1135.5" y="-117" font-family="Malgun Gothic" font-size="10.00">GoogleSpeechService.h</text>
</a>
</g>
</g>
<!-- Node1&#45;&gt;Node11 -->
<g id="edge13_Node000001_Node000011" class="edge">
<title>Node1&#45;&gt;Node11</title>
<g id="a_edge13_Node000001_Node000011"><a xlink:title=" ">
<path fill="none" stroke="#63b8ff" d="M2107.87,-179.1C1902.86,-166.74 1402.75,-136.61 1211.55,-125.08"/>
<polygon fill="#63b8ff" stroke="#63b8ff" points="1211.5,-121.57 1201.31,-124.47 1211.08,-128.56 1211.5,-121.57"/>
</a>
</g>
</g>
<!-- Node19 -->
<g id="Node000019" class="node">
<title>Node19</title>
<g id="a_Node000019"><a xlink:title=" ">
<polygon fill="#e0e0e0" stroke="#999999" points="2039,-129 1872,-129 1872,-110 2039,-110 2039,-129"/>
<text text-anchor="middle" x="1955.5" y="-117" font-family="Malgun Gothic" font-size="10.00">Sound/SoundWaveProcedural.h</text>
</a>
</g>
</g>
<!-- Node1&#45;&gt;Node19 -->
<g id="edge23_Node000001_Node000019" class="edge">
<title>Node1&#45;&gt;Node19</title>
<g id="a_edge23_Node000001_Node000019"><a xlink:title=" ">
<path fill="none" stroke="#63b8ff" d="M2123.58,-164.95C2082.21,-154.01 2032.14,-140.77 1997.47,-131.6"/>
<polygon fill="#63b8ff" stroke="#63b8ff" points="1998.23,-128.18 1987.67,-129.01 1996.44,-134.95 1998.23,-128.18"/>
</a>
</g>
</g>
<!-- Node20 -->
<g id="Node000020" class="node">
<title>Node20</title>
<g id="a_Node000020"><a xlink:title=" ">
<polygon fill="#e0e0e0" stroke="#999999" points="2203.5,-129 2057.5,-129 2057.5,-110 2203.5,-110 2203.5,-129"/>
<text text-anchor="middle" x="2130.5" y="-117" font-family="Malgun Gothic" font-size="10.00">Kismet/GameplayStatics.h</text>
</a>
</g>
</g>
<!-- Node1&#45;&gt;Node20 -->
<g id="edge24_Node000001_Node000020" class="edge">
<title>Node1&#45;&gt;Node20</title>
<g id="a_edge24_Node000001_Node000020"><a xlink:title=" ">
<path fill="none" stroke="#63b8ff" d="M2177.03,-164.95C2167.39,-155.74 2156.04,-144.9 2146.96,-136.23"/>
<polygon fill="#63b8ff" stroke="#63b8ff" points="2149.32,-133.64 2139.67,-129.26 2144.48,-138.7 2149.32,-133.64"/>
</a>
</g>
</g>
<!-- Node21 -->
<g id="Node000021" class="node">
<title>Node21</title>
<g id="a_Node000021"><a xlink:href="UVoiceSystem_8h.html" target="_top" xlink:title=" ">
<polygon fill="white" stroke="#666666" points="1853.5,-129 1757.5,-129 1757.5,-110 1853.5,-110 1853.5,-129"/>
<text text-anchor="middle" x="1805.5" y="-117" font-family="Malgun Gothic" font-size="10.00">UVoiceSystem.h</text>
</a>
</g>
</g>
<!-- Node1&#45;&gt;Node21 -->
<g id="edge25_Node000001_Node000021" class="edge">
<title>Node1&#45;&gt;Node21</title>
<g id="a_edge25_Node000001_Node000021"><a xlink:title=" ">
<path fill="none" stroke="#63b8ff" d="M2107.57,-169.82C2032.58,-157.57 1927.95,-140.49 1863.57,-129.98"/>
<polygon fill="#63b8ff" stroke="#63b8ff" points="1864.03,-126.51 1853.6,-128.35 1862.9,-133.42 1864.03,-126.51"/>
</a>
</g>
</g>
<!-- Node23 -->
<g id="Node000023" class="node">
<title>Node23</title>
<g id="a_Node000023"><a xlink:title=" ">
<polygon fill="#e0e0e0" stroke="#999999" points="2309.5,-129 2221.5,-129 2221.5,-110 2309.5,-110 2309.5,-129"/>
<text text-anchor="middle" x="2265.5" y="-117" font-family="Malgun Gothic" font-size="10.00">VoiceModule.h</text>
</a>
</g>
</g>
<!-- Node1&#45;&gt;Node23 -->
<g id="edge29_Node000001_Node000023" class="edge">
<title>Node1&#45;&gt;Node23</title>
<g id="a_edge29_Node000001_Node000023"><a xlink:title=" ">
<path fill="none" stroke="#63b8ff" d="M2218.27,-164.95C2228.06,-155.74 2239.58,-144.9 2248.79,-136.23"/>
<polygon fill="#63b8ff" stroke="#63b8ff" points="2251.31,-138.66 2256.19,-129.26 2246.51,-133.57 2251.31,-138.66"/>
</a>
</g>
</g>
<!-- Node24 -->
<g id="Node000024" class="node">
<title>Node24</title>
<g id="a_Node000024"><a xlink:title=" ">
<polygon fill="#e0e0e0" stroke="#999999" points="2415,-129 2328,-129 2328,-110 2415,-110 2415,-129"/>
<text text-anchor="middle" x="2371.5" y="-117" font-family="Malgun Gothic" font-size="10.00">Misc/Base64.h</text>
</a>
</g>
</g>
<!-- Node1&#45;&gt;Node24 -->
<g id="edge30_Node000001_Node000024" class="edge">
<title>Node1&#45;&gt;Node24</title>
<g id="a_edge30_Node000001_Node000024"><a xlink:title=" ">
<path fill="none" stroke="#63b8ff" d="M2250.65,-164.95C2279.29,-154.42 2313.72,-141.75 2338.49,-132.64"/>
<polygon fill="#63b8ff" stroke="#63b8ff" points="2339.96,-135.83 2348.14,-129.09 2337.55,-129.26 2339.96,-135.83"/>
</a>
</g>
</g>
<!-- Node25 -->
<g id="Node000025" class="node">
<title>Node25</title>
<g id="a_Node000025"><a xlink:title=" ">
<polygon fill="#e0e0e0" stroke="#999999" points="2522,-129 2433,-129 2433,-110 2522,-110 2522,-129"/>
<text text-anchor="middle" x="2477.5" y="-117" font-family="Malgun Gothic" font-size="10.00">Engine/World.h</text>
</a>
</g>
</g>
<!-- Node1&#45;&gt;Node25 -->
<g id="edge31_Node000001_Node000025" class="edge">
<title>Node1&#45;&gt;Node25</title>
<g id="a_edge31_Node000001_Node000025"><a xlink:title=" ">
<path fill="none" stroke="#63b8ff" d="M2283.03,-164.95C2331.51,-153.87 2390.32,-140.43 2430.48,-131.25"/>
<polygon fill="#63b8ff" stroke="#63b8ff" points="2431.31,-134.65 2440.28,-129.01 2429.75,-127.82 2431.31,-134.65"/>
</a>
</g>
</g>
<!-- Node26 -->
<g id="Node000026" class="node">
<title>Node26</title>
<g id="a_Node000026"><a xlink:title=" ">
<polygon fill="#e0e0e0" stroke="#999999" points="2677,-129 2540,-129 2540,-110 2677,-110 2677,-129"/>
<text text-anchor="middle" x="2608.5" y="-117" font-family="Malgun Gothic" font-size="10.00">GameFramework/Actor.h</text>
</a>
</g>
</g>
<!-- Node1&#45;&gt;Node26 -->
<g id="edge32_Node000001_Node000026" class="edge">
<title>Node1&#45;&gt;Node26</title>
<g id="a_edge32_Node000001_Node000026"><a xlink:title=" ">
<path fill="none" stroke="#63b8ff" d="M2287.19,-170.53C2364.63,-158.47 2474.65,-141.34 2543.77,-130.58"/>
<polygon fill="#63b8ff" stroke="#63b8ff" points="2544.32,-134.04 2553.66,-129.04 2543.24,-127.12 2544.32,-134.04"/>
</a>
</g>
</g>
<!-- Node27 -->
<g id="Node000027" class="node">
<title>Node27</title>
<g id="a_Node000027"><a xlink:title=" ">
<polygon fill="#e0e0e0" stroke="#999999" points="2769.5,-129 2695.5,-129 2695.5,-110 2769.5,-110 2769.5,-129"/>
<text text-anchor="middle" x="2732.5" y="-117" font-family="Malgun Gothic" font-size="10.00">Misc/Guid.h</text>
</a>
</g>
</g>
<!-- Node1&#45;&gt;Node27 -->
<g id="edge33_Node000001_Node000027" class="edge">
<title>Node1&#45;&gt;Node27</title>
<g id="a_edge33_Node000001_Node000027"><a xlink:title=" ">
<path fill="none" stroke="#63b8ff" d="M2287.42,-176.19C2383.5,-166.88 2540.45,-150.44 2685.41,-129.07"/>
<polygon fill="#63b8ff" stroke="#63b8ff" points="2686,-132.52 2695.38,-127.59 2684.97,-125.6 2686,-132.52"/>
</a>
</g>
</g>
<!-- Node28 -->
<g id="Node000028" class="node">
<title>Node28</title>
<g id="a_Node000028"><a xlink:title=" ">
<polygon fill="#e0e0e0" stroke="#999999" points="2935.5,-129 2787.5,-129 2787.5,-110 2935.5,-110 2935.5,-129"/>
<text text-anchor="middle" x="2861.5" y="-117" font-family="Malgun Gothic" font-size="10.00">Modules/ModuleManager.h</text>
</a>
</g>
</g>
<!-- Node1&#45;&gt;Node28 -->
<g id="edge34_Node000001_Node000028" class="edge">
<title>Node1&#45;&gt;Node28</title>
<g id="a_edge34_Node000001_Node000028"><a xlink:title=" ">
<path fill="none" stroke="#63b8ff" d="M2287.1,-176.13C2399.11,-165.63 2597.05,-146.92 2777.1,-129.13"/>
<polygon fill="#63b8ff" stroke="#63b8ff" points="2777.68,-132.59 2787.29,-128.13 2776.99,-125.63 2777.68,-132.59"/>
</a>
</g>
</g>
<!-- Node3 -->
<g id="Node000003" class="node">
<title>Node3</title>
<g id="a_Node000003"><a xlink:title=" ">
<polygon fill="#e0e0e0" stroke="#999999" points="1277.5,-19 1189.5,-19 1189.5,0 1277.5,0 1277.5,-19"/>
<text text-anchor="middle" x="1233.5" y="-7" font-family="Malgun Gothic" font-size="10.00">CoreMinimal.h</text>
</a>
</g>
</g>
<!-- Node2&#45;&gt;Node3 -->
<g id="edge2_Node000002_Node000003" class="edge">
<title>Node2&#45;&gt;Node3</title>
<g id="a_edge2_Node000002_Node000003"><a xlink:title=" ">
<path fill="none" stroke="#63b8ff" d="M1553.43,-112.45C1473.53,-105.34 1354.52,-92.17 1312.5,-74 1287.15,-63.04 1263.19,-41.65 1248.45,-26.74"/>
<polygon fill="#63b8ff" stroke="#63b8ff" points="1250.7,-24.03 1241.25,-19.23 1245.64,-28.88 1250.7,-24.03"/>
</a>
</g>
</g>
<!-- Node4 -->
<g id="Node000004" class="node">
<title>Node4</title>
<g id="a_Node000004"><a xlink:title=" ">
<polygon fill="#e0e0e0" stroke="#999999" points="1907.5,-74 1735.5,-74 1735.5,-55 1907.5,-55 1907.5,-74"/>
<text text-anchor="middle" x="1821.5" y="-62" font-family="Malgun Gothic" font-size="10.00">Components/ActorComponent.h</text>
</a>
</g>
</g>
<!-- Node2&#45;&gt;Node4 -->
<g id="edge3_Node000002_Node000004" class="edge">
<title>Node2&#45;&gt;Node4</title>
<g id="a_edge3_Node000002_Node000004"><a xlink:title=" ">
<path fill="none" stroke="#63b8ff" d="M1661.19,-109.98C1693.67,-100.97 1745.1,-86.7 1780.91,-76.76"/>
<polygon fill="#63b8ff" stroke="#63b8ff" points="1781.87,-80.13 1790.57,-74.08 1780,-73.38 1781.87,-80.13"/>
</a>
</g>
</g>
<!-- Node5 -->
<g id="Node000005" class="node">
<title>Node5</title>
<g id="a_Node000005"><a xlink:title=" ">
<polygon fill="#e0e0e0" stroke="#999999" points="1717.5,-74 1511.5,-74 1511.5,-55 1717.5,-55 1717.5,-74"/>
<text text-anchor="middle" x="1614.5" y="-62" font-family="Malgun Gothic" font-size="10.00">UVoiceCaptureComponent.generated.h</text>
</a>
</g>
</g>
<!-- Node2&#45;&gt;Node5 -->
<g id="edge4_Node000002_Node000005" class="edge">
<title>Node2&#45;&gt;Node5</title>
<g id="a_edge4_Node000002_Node000005"><a xlink:title=" ">
<path fill="none" stroke="#63b8ff" d="M1627.86,-109.75C1625.74,-102.72 1622.69,-92.62 1620.04,-83.84"/>
<polygon fill="#63b8ff" stroke="#63b8ff" points="1623.33,-82.65 1617.09,-74.09 1616.63,-84.67 1623.33,-82.65"/>
</a>
</g>
</g>
<!-- Node6&#45;&gt;Node3 -->
<g id="edge6_Node000006_Node000003" class="edge">
<title>Node6&#45;&gt;Node3</title>
<g id="a_edge6_Node000006_Node000003"><a xlink:title=" ">
<path fill="none" stroke="#63b8ff" d="M324.83,-109.96C334.37,-95.58 355.85,-66.93 382.5,-55 454.91,-22.6 1003.32,-13.25 1179.31,-11.07"/>
<polygon fill="#63b8ff" stroke="#63b8ff" points="1179.42,-14.57 1189.38,-10.95 1179.34,-7.57 1179.42,-14.57"/>
</a>
</g>
</g>
<!-- Node7 -->
<g id="Node000007" class="node">
<title>Node7</title>
<g id="a_Node000007"><a xlink:title=" ">
<polygon fill="#e0e0e0" stroke="#999999" points="335,-74 216,-74 216,-55 335,-55 335,-74"/>
<text text-anchor="middle" x="275.5" y="-62" font-family="Malgun Gothic" font-size="10.00">Logging/LogMacros.h</text>
</a>
</g>
</g>
<!-- Node6&#45;&gt;Node7 -->
<g id="edge7_Node000006_Node000007" class="edge">
<title>Node6&#45;&gt;Node7</title>
<g id="a_edge7_Node000006_Node000007"><a xlink:title=" ">
<path fill="none" stroke="#63b8ff" d="M312.23,-109.75C305.96,-102.18 296.71,-91.05 289.07,-81.84"/>
<polygon fill="#63b8ff" stroke="#63b8ff" points="291.71,-79.55 282.63,-74.09 286.33,-84.02 291.71,-79.55"/>
</a>
</g>
</g>
<!-- Node8 -->
<g id="Node000008" class="node">
<title>Node8</title>
<g id="a_Node000008"><a xlink:title=" ">
<polygon fill="#e0e0e0" stroke="#999999" points="95,-74 0,-74 0,-55 95,-55 95,-74"/>
<text text-anchor="middle" x="47.5" y="-62" font-family="Malgun Gothic" font-size="10.00">Engine/Engine.h</text>
</a>
</g>
</g>
<!-- Node6&#45;&gt;Node8 -->
<g id="edge8_Node000006_Node000008" class="edge">
<title>Node6&#45;&gt;Node8</title>
<g id="a_edge8_Node000006_Node000008"><a xlink:title=" ">
<path fill="none" stroke="#63b8ff" d="M275.8,-109.98C228.35,-100.74 152.53,-85.97 101.42,-76.01"/>
<polygon fill="#63b8ff" stroke="#63b8ff" points="102.03,-72.56 91.54,-74.08 100.69,-79.43 102.03,-72.56"/>
</a>
</g>
</g>
<!-- Node9 -->
<g id="Node000009" class="node">
<title>Node9</title>
<g id="a_Node000009"><a xlink:href="FLogWriter_8h.html" target="_top" xlink:title="FLogWriter 선언에 대한 Doxygen 주석을 제공합니다.">
<polygon fill="white" stroke="#666666" points="469.5,-74 391.5,-74 391.5,-55 469.5,-55 469.5,-74"/>
<text text-anchor="middle" x="430.5" y="-62" font-family="Malgun Gothic" font-size="10.00">FLogWriter.h</text>
</a>
</g>
</g>
<!-- Node6&#45;&gt;Node9 -->
<g id="edge9_Node000006_Node000009" class="edge">
<title>Node6&#45;&gt;Node9</title>
<g id="a_edge9_Node000006_Node000009"><a xlink:title=" ">
<path fill="none" stroke="#63b8ff" d="M337.33,-109.98C355.11,-101.5 382.65,-88.35 403.18,-78.54"/>
<polygon fill="#63b8ff" stroke="#63b8ff" points="404.83,-81.64 412.34,-74.17 401.81,-75.32 404.83,-81.64"/>
</a>
</g>
</g>
<!-- Node10 -->
<g id="Node000010" class="node">
<title>Node10</title>
<g id="a_Node000010"><a xlink:href="NetworkLog_8h.html" target="_top" xlink:title="NetworkLog 선언에 대한 Doxygen 주석을 제공합니다.">
<polygon fill="white" stroke="#666666" points="197.5,-74 113.5,-74 113.5,-55 197.5,-55 197.5,-74"/>
<text text-anchor="middle" x="155.5" y="-62" font-family="Malgun Gothic" font-size="10.00">NetworkLog.h</text>
</a>
</g>
</g>
<!-- Node6&#45;&gt;Node10 -->
<g id="edge11_Node000006_Node000010" class="edge">
<title>Node6&#45;&gt;Node10</title>
<g id="a_edge11_Node000006_Node000010"><a xlink:title=" ">
<path fill="none" stroke="#63b8ff" d="M293.15,-109.98C265.74,-101.13 222.61,-87.19 191.94,-77.28"/>
<polygon fill="#63b8ff" stroke="#63b8ff" points="192.65,-73.83 182.06,-74.08 190.5,-80.49 192.65,-73.83"/>
</a>
</g>
</g>
<!-- Node9&#45;&gt;Node3 -->
<g id="edge10_Node000009_Node000003" class="edge">
<title>Node9&#45;&gt;Node3</title>
<g id="a_edge10_Node000009_Node000003"><a xlink:title=" ">
<path fill="none" stroke="#63b8ff" d="M469.74,-56.17C472.7,-55.73 475.64,-55.34 478.5,-55 739.79,-24.27 1054.57,-14.38 1179.05,-11.54"/>
<polygon fill="#63b8ff" stroke="#63b8ff" points="1179.17,-15.04 1189.09,-11.31 1179.01,-8.04 1179.17,-15.04"/>
</a>
</g>
</g>
<!-- Node10&#45;&gt;Node3 -->
<g id="edge12_Node000010_Node000003" class="edge">
<title>Node10&#45;&gt;Node3</title>
<g id="a_edge12_Node000010_Node000003"><a xlink:title=" ">
<path fill="none" stroke="#63b8ff" d="M197.75,-56.05C200.7,-55.66 203.64,-55.3 206.5,-55 576.95,-16.25 1025.96,-11.11 1179.22,-10.53"/>
<polygon fill="#63b8ff" stroke="#63b8ff" points="1179.33,-14.03 1189.32,-10.49 1179.3,-7.03 1179.33,-14.03"/>
</a>
</g>
</g>
<!-- Node11&#45;&gt;Node3 -->
<g id="edge14_Node000011_Node000003" class="edge">
<title>Node11&#45;&gt;Node3</title>
<g id="a_edge14_Node000011_Node000003"><a xlink:title=" ">
<path fill="none" stroke="#63b8ff" d="M1181.66,-110C1202.1,-103.69 1224.25,-92.78 1236.5,-74 1245.16,-60.72 1243.16,-42.36 1239.73,-28.79"/>
<polygon fill="#63b8ff" stroke="#63b8ff" points="1243.06,-27.72 1236.86,-19.13 1236.36,-29.72 1243.06,-27.72"/>
</a>
</g>
</g>
<!-- Node12 -->
<g id="Node000012" class="node">
<title>Node12</title>
<g id="a_Node000012"><a xlink:title=" ">
<polygon fill="#e0e0e0" stroke="#999999" points="629,-74 488,-74 488,-55 629,-55 629,-74"/>
<text text-anchor="middle" x="558.5" y="-62" font-family="Malgun Gothic" font-size="10.00">Interfaces/IHttpRequest.h</text>
</a>
</g>
</g>
<!-- Node11&#45;&gt;Node12 -->
<g id="edge15_Node000011_Node000012" class="edge">
<title>Node11&#45;&gt;Node12</title>
<g id="a_edge15_Node000011_Node000012"><a xlink:title=" ">
<path fill="none" stroke="#63b8ff" d="M1069.81,-113.01C976.46,-105.12 799.78,-89.89 639.19,-74.15"/>
<polygon fill="#63b8ff" stroke="#63b8ff" points="639.42,-70.66 629.13,-73.16 638.74,-77.62 639.42,-70.66"/>
</a>
</g>
</g>
<!-- Node13 -->
<g id="Node000013" class="node">
<title>Node13</title>
<g id="a_Node000013"><a xlink:title=" ">
<polygon fill="#e0e0e0" stroke="#999999" points="796,-74 647,-74 647,-55 796,-55 796,-74"/>
<text text-anchor="middle" x="721.5" y="-62" font-family="Malgun Gothic" font-size="10.00">Interfaces/IHttpResponse.h</text>
</a>
</g>
</g>
<!-- Node11&#45;&gt;Node13 -->
<g id="edge16_Node000011_Node000013" class="edge">
<title>Node11&#45;&gt;Node13</title>
<g id="a_edge16_Node000011_Node000013"><a xlink:title=" ">
<path fill="none" stroke="#63b8ff" d="M1069.9,-110.1C996.15,-100.66 876.52,-85.35 798.42,-75.35"/>
<polygon fill="#63b8ff" stroke="#63b8ff" points="798.53,-71.83 788.16,-74.03 797.64,-78.78 798.53,-71.83"/>
</a>
</g>
</g>
<!-- Node14 -->
<g id="Node000014" class="node">
<title>Node14</title>
<g id="a_Node000014"><a xlink:title=" ">
<polygon fill="#e0e0e0" stroke="#999999" points="1025.5,-74 813.5,-74 813.5,-55 1025.5,-55 1025.5,-74"/>
<text text-anchor="middle" x="919.5" y="-62" font-family="Malgun Gothic" font-size="10.00">Subsystems/GameInstanceSubsystem.h</text>
</a>
</g>
</g>
<!-- Node11&#45;&gt;Node14 -->
<g id="edge17_Node000011_Node000014" class="edge">
<title>Node11&#45;&gt;Node14</title>
<g id="a_edge17_Node000011_Node000014"><a xlink:title=" ">
<path fill="none" stroke="#63b8ff" d="M1100.8,-109.98C1063.75,-100.89 1004.91,-86.46 964.37,-76.51"/>
<polygon fill="#63b8ff" stroke="#63b8ff" points="965.02,-73.07 954.48,-74.08 963.35,-79.86 965.02,-73.07"/>
</a>
</g>
</g>
<!-- Node15 -->
<g id="Node000015" class="node">
<title>Node15</title>
<g id="a_Node000015"><a xlink:href="GoogleSpeechServiceSettings_8h.html" target="_top" xlink:title=" ">
<polygon fill="white" stroke="#666666" points="1493,-74 1322,-74 1322,-55 1493,-55 1493,-74"/>
<text text-anchor="middle" x="1407.5" y="-62" font-family="Malgun Gothic" font-size="10.00">GoogleSpeechServiceSettings.h</text>
</a>
</g>
</g>
<!-- Node11&#45;&gt;Node15 -->
<g id="edge18_Node000011_Node000015" class="edge">
<title>Node11&#45;&gt;Node15</title>
<g id="a_edge18_Node000011_Node000015"><a xlink:title=" ">
<path fill="none" stroke="#63b8ff" d="M1179.2,-109.98C1226.65,-100.74 1302.47,-85.97 1353.58,-76.01"/>
<polygon fill="#63b8ff" stroke="#63b8ff" points="1354.31,-79.43 1363.46,-74.08 1352.97,-72.56 1354.31,-79.43"/>
</a>
</g>
</g>
<!-- Node18 -->
<g id="Node000018" class="node">
<title>Node18</title>
<g id="a_Node000018"><a xlink:title=" ">
<polygon fill="#e0e0e0" stroke="#999999" points="1227.5,-74 1043.5,-74 1043.5,-55 1227.5,-55 1227.5,-74"/>
<text text-anchor="middle" x="1135.5" y="-62" font-family="Malgun Gothic" font-size="10.00">GoogleSpeechService.generated.h</text>
</a>
</g>
</g>
<!-- Node11&#45;&gt;Node18 -->
<g id="edge22_Node000011_Node000018" class="edge">
<title>Node11&#45;&gt;Node18</title>
<g id="a_edge22_Node000011_Node000018"><a xlink:title=" ">
<path fill="none" stroke="#63b8ff" d="M1135.5,-109.75C1135.5,-102.8 1135.5,-92.85 1135.5,-84.13"/>
<polygon fill="#63b8ff" stroke="#63b8ff" points="1139,-84.09 1135.5,-74.09 1132,-84.09 1139,-84.09"/>
</a>
</g>
</g>
<!-- Node15&#45;&gt;Node3 -->
<g id="edge19_Node000015_Node000003" class="edge">
<title>Node15&#45;&gt;Node3</title>
<g id="a_edge19_Node000015_Node000003"><a xlink:title=" ">
<path fill="none" stroke="#63b8ff" d="M1379.54,-54.98C1350.2,-46.05 1303.9,-31.94 1271.31,-22.02"/>
<polygon fill="#63b8ff" stroke="#63b8ff" points="1272.26,-18.65 1261.68,-19.08 1270.22,-25.34 1272.26,-18.65"/>
</a>
</g>
</g>
<!-- Node16 -->
<g id="Node000016" class="node">
<title>Node16</title>
<g id="a_Node000016"><a xlink:title=" ">
<polygon fill="#e0e0e0" stroke="#999999" points="1689.5,-19 1537.5,-19 1537.5,0 1689.5,0 1689.5,-19"/>
<text text-anchor="middle" x="1613.5" y="-7" font-family="Malgun Gothic" font-size="10.00">Engine/DeveloperSettings.h</text>
</a>
</g>
</g>
<!-- Node15&#45;&gt;Node16 -->
<g id="edge20_Node000015_Node000016" class="edge">
<title>Node15&#45;&gt;Node16</title>
<g id="a_edge20_Node000015_Node000016"><a xlink:title=" ">
<path fill="none" stroke="#63b8ff" d="M1440.6,-54.98C1475.78,-45.93 1531.57,-31.58 1570.22,-21.64"/>
<polygon fill="#63b8ff" stroke="#63b8ff" points="1571.33,-24.96 1580.14,-19.08 1569.59,-18.18 1571.33,-24.96"/>
</a>
</g>
</g>
<!-- Node17 -->
<g id="Node000017" class="node">
<title>Node17</title>
<g id="a_Node000017"><a xlink:title=" ">
<polygon fill="#e0e0e0" stroke="#999999" points="1519.5,-19 1295.5,-19 1295.5,0 1519.5,0 1519.5,-19"/>
<text text-anchor="middle" x="1407.5" y="-7" font-family="Malgun Gothic" font-size="10.00">GoogleSpeechServiceSettings.generated.h</text>
</a>
</g>
</g>
<!-- Node15&#45;&gt;Node17 -->
<g id="edge21_Node000015_Node000017" class="edge">
<title>Node15&#45;&gt;Node17</title>
<g id="a_edge21_Node000015_Node000017"><a xlink:title=" ">
<path fill="none" stroke="#63b8ff" d="M1407.5,-54.75C1407.5,-47.8 1407.5,-37.85 1407.5,-29.13"/>
<polygon fill="#63b8ff" stroke="#63b8ff" points="1411,-29.09 1407.5,-19.09 1404,-29.09 1411,-29.09"/>
</a>
</g>
</g>
<!-- Node21&#45;&gt;Node3 -->
<g id="edge26_Node000021_Node000003" class="edge">
<title>Node21&#45;&gt;Node3</title>
<g id="a_edge26_Node000021_Node000003"><a xlink:title=" ">
<path fill="none" stroke="#63b8ff" d="M1848.27,-109.96C1889.23,-99.97 1941.42,-81.39 1916.5,-55 1870.1,-5.87 1392.61,-25.03 1287.87,-18.75"/>
<polygon fill="#63b8ff" stroke="#63b8ff" points="1287.95,-15.25 1277.7,-17.93 1287.39,-22.23 1287.95,-15.25"/>
</a>
</g>
</g>
<!-- Node21&#45;&gt;Node4 -->
<g id="edge27_Node000021_Node000004" class="edge">
<title>Node21&#45;&gt;Node4</title>
<g id="a_edge27_Node000021_Node000004"><a xlink:title=" ">
<path fill="none" stroke="#63b8ff" d="M1808.14,-109.75C1810.26,-102.72 1813.31,-92.62 1815.96,-83.84"/>
<polygon fill="#63b8ff" stroke="#63b8ff" points="1819.37,-84.67 1818.91,-74.09 1812.67,-82.65 1819.37,-84.67"/>
</a>
</g>
</g>
<!-- Node22 -->
<g id="Node000022" class="node">
<title>Node22</title>
<g id="a_Node000022"><a xlink:title=" ">
<polygon fill="#e0e0e0" stroke="#999999" points="2112,-74 1963,-74 1963,-55 2112,-55 2112,-74"/>
<text text-anchor="middle" x="2037.5" y="-62" font-family="Malgun Gothic" font-size="10.00">UVoiceSystem.generated.h</text>
</a>
</g>
</g>
<!-- Node21&#45;&gt;Node22 -->
<g id="edge28_Node000021_Node000022" class="edge">
<title>Node21&#45;&gt;Node22</title>
<g id="a_edge28_Node000021_Node000022"><a xlink:title=" ">
<path fill="none" stroke="#63b8ff" d="M1842.77,-109.98C1882.82,-100.84 1946.57,-86.27 1990.14,-76.32"/>
<polygon fill="#63b8ff" stroke="#63b8ff" points="1990.96,-79.72 1999.93,-74.08 1989.4,-72.9 1990.96,-79.72"/>
</a>
</g>
</g>
</g>
</svg>

<g id="navigator" transform="translate(0 0)" fill="#404254">
  <rect fill="#f2f5e9" fill-opacity="0.5" stroke="#606060" stroke-width=".5" x="0" y="0" width="60" height="60"/>
  <use id="zoomplus" xlink:href="#zoomPlus" x="17" y="9" onmousedown="handleZoom(evt,'in')"/>
  <use id="zoomminus" xlink:href="#zoomMin" x="42" y="9" onmousedown="handleZoom(evt,'out')"/>
  <use id="reset" xlink:href="#resetDef" x="30" y="36" onmousedown="handleReset()"/>
   <use id="arrowup" xlink:href="#arrowUp" x="0" y="0" onmousedown="handlePan(0,-1)"/>
  <use id="arrowright" xlink:href="#arrowRight" x="0" y="0" onmousedown="handlePan(1,0)"/>
  <use id="arrowdown" xlink:href="#arrowDown" x="0" y="0" onmousedown="handlePan(0,1)"/>
  <use id="arrowleft" xlink:href="#arrowLeft" x="0" y="0" onmousedown="handlePan(-1,0)"/>
</g>
<svg viewBox="0 0 15 15" width="100%" height="30px" preserveAspectRatio="xMaxYMin meet">
 <g id="arrow_out" transform="scale(0.3 0.3)">
  <a xlink:href="UVoiceCaptureComponent_8cpp__incl_org.svg" target="_base">
   <rect id="button" ry="5" rx="5" y="6" x="6" height="38" width="38"
        fill="#f2f5e9" fill-opacity="0.5" stroke="#606060" stroke-width="1.0"/>
   <path id="arrow"
     d="M 11.500037,31.436501 C 11.940474,20.09759 22.043105,11.32322 32.158766,21.979434 L 37.068811,17.246167 C 37.068811,17.246167 37.088388,32 37.088388,32 L 22.160133,31.978069 C 22.160133,31.978069 26.997745,27.140456 26.997745,27.140456 C 18.528582,18.264221 13.291696,25.230495 11.500037,31.436501 z"
     style="fill:#404040;"/>
  </a>
 </g>
</svg>

<style type='text/css'>
<![CDATA[
[data-mouse-over-selected='false'] { opacity: 0.7; }
[data-mouse-over-selected='true']  { opacity: 1.0; }
]]>
</style>
<script type="application/ecmascript"><![CDATA[
document.addEventListener('DOMContentLoaded', (event) => {
  highlightEdges();
  highlightAdjacentNodes();
});
]]></script>
</svg>
