<?xml version="1.0" encoding="UTF-8" standalone="no"?>
<!DOCTYPE svg PUBLIC "-//W3C//DTD SVG 1.1//EN"
 "http://www.w3.org/Graphics/SVG/1.1/DTD/svg11.dtd">
<!-- Generated by graphviz version 2.43.0 (0)
 -->
<!-- Title: Source/YiSan/Voice/Private/UVoiceRecordSystem.cpp Pages: 1 -->
<!--zoomable 214 -->

<svg id="main" version="1.1" xmlns="http://www.w3.org/2000/svg" xmlns:xlink="http://www.w3.org/1999/xlink" xml:space="preserve" onload="init(evt)">
<style type="text/css"><![CDATA[
.node, .edge {opacity: 0.7;}
.node.selected, .edge.selected {opacity: 1;}
.edge:hover path { stroke: red; }
.edge:hover polygon { stroke: red; fill: red; }
]]></style>

<defs>
  <circle id="rim" cx="0" cy="0" r="7"/>
  <circle id="rim2" cx="0" cy="0" r="3.5"/>
  <g id="zoomPlus">
    <use xlink:href="#rim" fill="#404040"><set attributeName="fill" to="#808080" begin="zoomplus.mouseover" end="zoomplus.mouseout"/></use>
    <path d="M-4,0h8M0,-4v8" fill="none" stroke="white" stroke-width="1.5" pointer-events="none"/>
  </g>
  <g id="zoomMin">
    <use xlink:href="#rim" fill="#404040"><set attributeName="fill" to="#808080" begin="zoomminus.mouseover" end="zoomminus.mouseout"/></use>
    <path d="M-4,0h8" fill="none" stroke="white" stroke-width="1.5" pointer-events="none"/>
  </g>
  <g id="arrowUp" transform="translate(30 24)">
    <use xlink:href="#rim"/>
    <path pointer-events="none" fill="none" stroke="white" stroke-width="1.5" d="M0,-3.0v7 M-2.5,-0.5L0,-3.0L2.5,-0.5"/>
  </g>
  <g id="arrowRight" transform="rotate(90) translate(36 -43)">
    <use xlink:href="#rim"/>
    <path pointer-events="none" fill="none" stroke="white" stroke-width="1.5" d="M0,-3.0v7 M-2.5,-0.5L0,-3.0L2.5,-0.5"/>
  </g>
  <g id="arrowDown" transform="rotate(180) translate(-30 -48)">
    <use xlink:href="#rim"/>
    <path pointer-events="none" fill="none" stroke="white" stroke-width="1.5" d="M0,-3.0v7 M-2.5,-0.5L0,-3.0L2.5,-0.5"/>
  </g>
  <g id="arrowLeft" transform="rotate(270) translate(-36 17)">
    <use xlink:href="#rim"/>
    <path pointer-events="none" fill="none" stroke="white" stroke-width="1.5" d="M0,-3.0v7 M-2.5,-0.5L0,-3.0L2.5,-0.5"/>
  </g>
  <g id="resetDef">
    <use xlink:href="#rim2" fill="#404040"><set attributeName="fill" to="#808080" begin="reset.mouseover" end="reset.mouseout"/></use>
  </g>
</defs>
<script type="application/ecmascript">
var viewWidth = 1396;
var viewHeight = 214;
var sectionId = 'dynsection-0';
</script>
<script type="application/ecmascript" xlink:href="svg.min.js"/>
<svg id="graph" class="graph">
<g id="viewport">
<title>Source/YiSan/Voice/Private/UVoiceRecordSystem.cpp</title>
<!-- Node1 -->
<g id="Node000001" class="node">
<title>Node1</title>
<g id="a_Node000001"><a xlink:title=" ">
<polygon fill="#999999" stroke="#666666" points="719.24,-206 537.24,-206 537.24,-176 719.24,-176 719.24,-206"/>
<text text-anchor="start" x="545.24" y="-194" font-family="Malgun Gothic" font-size="10.00">Source/YiSan/Voice</text>
<text text-anchor="middle" x="628.24" y="-183" font-family="Malgun Gothic" font-size="10.00">/Private/UVoiceRecordSystem.cpp</text>
</a>
</g>
</g>
<!-- Node2 -->
<g id="Node000002" class="node">
<title>Node2</title>
<g id="a_Node000002"><a xlink:href="UVoiceRecordSystem_8h.html" target="_top" xlink:title=" ">
<polygon fill="white" stroke="#666666" points="281.24,-140 151.24,-140 151.24,-121 281.24,-121 281.24,-140"/>
<text text-anchor="middle" x="216.24" y="-128" font-family="Malgun Gothic" font-size="10.00">UVoiceRecordSystem.h</text>
</a>
</g>
</g>
<!-- Node1&#45;&gt;Node2 -->
<g id="edge1_Node000001_Node000002" class="edge">
<title>Node1&#45;&gt;Node2</title>
<g id="a_edge1_Node000001_Node000002"><a xlink:title=" ">
<path fill="none" stroke="#63b8ff" d="M537.06,-177.05C461.38,-166.31 355.33,-151.25 286.21,-141.43"/>
<polygon fill="#63b8ff" stroke="#63b8ff" points="286.68,-137.97 276.29,-140.03 285.7,-144.9 286.68,-137.97"/>
</a>
</g>
</g>
<!-- Node7 -->
<g id="Node000007" class="node">
<title>Node7</title>
<g id="a_Node000007"><a xlink:href="UVoiceFunctionLibrary_8h.html" target="_top" xlink:title=" ">
<polygon fill="white" stroke="#666666" points="694.74,-140 561.74,-140 561.74,-121 694.74,-121 694.74,-140"/>
<text text-anchor="middle" x="628.24" y="-128" font-family="Malgun Gothic" font-size="10.00">UVoiceFunctionLibrary.h</text>
</a>
</g>
</g>
<!-- Node1&#45;&gt;Node7 -->
<g id="edge6_Node000001_Node000007" class="edge">
<title>Node1&#45;&gt;Node7</title>
<g id="a_edge6_Node000001_Node000007"><a xlink:title=" ">
<path fill="none" stroke="#63b8ff" d="M628.24,-175.84C628.24,-168.21 628.24,-158.7 628.24,-150.45"/>
<polygon fill="#63b8ff" stroke="#63b8ff" points="631.74,-150.27 628.24,-140.27 624.74,-150.27 631.74,-150.27"/>
</a>
</g>
</g>
<!-- Node10 -->
<g id="Node000010" class="node">
<title>Node10</title>
<g id="a_Node000010"><a xlink:href="GameLogging_8h.html" target="_top" xlink:title="GameLogging 선언에 대한 Doxygen 주석을 제공합니다.">
<polygon fill="white" stroke="#666666" points="1125.74,-140 1032.74,-140 1032.74,-121 1125.74,-121 1125.74,-140"/>
<text text-anchor="middle" x="1079.24" y="-128" font-family="Malgun Gothic" font-size="10.00">GameLogging.h</text>
</a>
</g>
</g>
<!-- Node1&#45;&gt;Node10 -->
<g id="edge10_Node000001_Node000010" class="edge">
<title>Node1&#45;&gt;Node10</title>
<g id="a_edge10_Node000001_Node000010"><a xlink:title=" ">
<path fill="none" stroke="#63b8ff" d="M719.51,-178.16C810.1,-166.41 946.12,-148.77 1022.32,-138.88"/>
<polygon fill="#63b8ff" stroke="#63b8ff" points="1023.19,-142.3 1032.66,-137.54 1022.29,-135.36 1023.19,-142.3"/>
</a>
</g>
</g>
<!-- Node3 -->
<g id="Node000003" class="node">
<title>Node3</title>
<g id="a_Node000003"><a xlink:title=" ">
<polygon fill="#e0e0e0" stroke="#999999" points="973.24,-19 885.24,-19 885.24,0 973.24,0 973.24,-19"/>
<text text-anchor="middle" x="929.24" y="-7" font-family="Malgun Gothic" font-size="10.00">CoreMinimal.h</text>
</a>
</g>
</g>
<!-- Node2&#45;&gt;Node3 -->
<g id="edge2_Node000002_Node000003" class="edge">
<title>Node2&#45;&gt;Node3</title>
<g id="a_edge2_Node000002_Node000003"><a xlink:title=" ">
<path fill="none" stroke="#63b8ff" d="M150.99,-126.01C75.25,-119.73 -33.88,-102.36 11.24,-55 41.15,-23.61 682.16,-13.44 874.9,-11.09"/>
<polygon fill="#63b8ff" stroke="#63b8ff" points="875.12,-14.59 885.08,-10.97 875.04,-7.59 875.12,-14.59"/>
</a>
</g>
</g>
<!-- Node4 -->
<g id="Node000004" class="node">
<title>Node4</title>
<g id="a_Node000004"><a xlink:title=" ">
<polygon fill="#e0e0e0" stroke="#999999" points="112.24,-79.5 20.24,-79.5 20.24,-60.5 112.24,-60.5 112.24,-79.5"/>
<text text-anchor="middle" x="66.24" y="-67.5" font-family="Malgun Gothic" font-size="10.00">AudioCapture.h</text>
</a>
</g>
</g>
<!-- Node2&#45;&gt;Node4 -->
<g id="edge3_Node000002_Node000004" class="edge">
<title>Node2&#45;&gt;Node4</title>
<g id="a_edge3_Node000002_Node000004"><a xlink:title=" ">
<path fill="none" stroke="#63b8ff" d="M194.43,-120.99C168.99,-111.07 126.73,-94.59 97.74,-83.28"/>
<polygon fill="#63b8ff" stroke="#63b8ff" points="98.67,-79.89 88.08,-79.52 96.13,-86.41 98.67,-79.89"/>
</a>
</g>
</g>
<!-- Node5 -->
<g id="Node000005" class="node">
<title>Node5</title>
<g id="a_Node000005"><a xlink:title=" ">
<polygon fill="#e0e0e0" stroke="#999999" points="302.24,-79.5 130.24,-79.5 130.24,-60.5 302.24,-60.5 302.24,-79.5"/>
<text text-anchor="middle" x="216.24" y="-67.5" font-family="Malgun Gothic" font-size="10.00">Components/ActorComponent.h</text>
</a>
</g>
</g>
<!-- Node2&#45;&gt;Node5 -->
<g id="edge4_Node000002_Node000005" class="edge">
<title>Node2&#45;&gt;Node5</title>
<g id="a_edge4_Node000002_Node000005"><a xlink:title=" ">
<path fill="none" stroke="#63b8ff" d="M216.24,-120.87C216.24,-112.75 216.24,-100.31 216.24,-89.89"/>
<polygon fill="#63b8ff" stroke="#63b8ff" points="219.74,-89.67 216.24,-79.67 212.74,-89.67 219.74,-89.67"/>
</a>
</g>
</g>
<!-- Node6 -->
<g id="Node000006" class="node">
<title>Node6</title>
<g id="a_Node000006"><a xlink:title=" ">
<polygon fill="#e0e0e0" stroke="#999999" points="502.24,-79.5 320.24,-79.5 320.24,-60.5 502.24,-60.5 502.24,-79.5"/>
<text text-anchor="middle" x="411.24" y="-67.5" font-family="Malgun Gothic" font-size="10.00">UVoiceRecordSystem.generated.h</text>
</a>
</g>
</g>
<!-- Node2&#45;&gt;Node6 -->
<g id="edge5_Node000002_Node000006" class="edge">
<title>Node2&#45;&gt;Node6</title>
<g id="a_edge5_Node000002_Node000006"><a xlink:title=" ">
<path fill="none" stroke="#63b8ff" d="M244.6,-120.99C278.54,-110.81 335.5,-93.72 373.23,-82.4"/>
<polygon fill="#63b8ff" stroke="#63b8ff" points="374.28,-85.74 382.85,-79.52 372.27,-79.04 374.28,-85.74"/>
</a>
</g>
</g>
<!-- Node7&#45;&gt;Node3 -->
<g id="edge7_Node000007_Node000003" class="edge">
<title>Node7&#45;&gt;Node3</title>
<g id="a_edge7_Node000007_Node000003"><a xlink:title=" ">
<path fill="none" stroke="#63b8ff" d="M597.97,-120.92C580.4,-114.21 559.73,-102.94 549.24,-85 542.52,-73.49 540.38,-64.96 549.24,-55 570.51,-31.1 775.03,-17.97 874.91,-12.93"/>
<polygon fill="#63b8ff" stroke="#63b8ff" points="875.29,-16.42 885.1,-12.43 874.94,-9.43 875.29,-16.42"/>
</a>
</g>
</g>
<!-- Node8 -->
<g id="Node000008" class="node">
<title>Node8</title>
<g id="a_Node000008"><a xlink:title=" ">
<polygon fill="#e0e0e0" stroke="#999999" points="698.24,-85 558.24,-85 558.24,-55 698.24,-55 698.24,-85"/>
<text text-anchor="start" x="566.24" y="-73" font-family="Malgun Gothic" font-size="10.00">Kismet/BlueprintFunction</text>
<text text-anchor="middle" x="628.24" y="-62" font-family="Malgun Gothic" font-size="10.00">Library.h</text>
</a>
</g>
</g>
<!-- Node7&#45;&gt;Node8 -->
<g id="edge8_Node000007_Node000008" class="edge">
<title>Node7&#45;&gt;Node8</title>
<g id="a_edge8_Node000007_Node000008"><a xlink:title=" ">
<path fill="none" stroke="#63b8ff" d="M628.24,-120.87C628.24,-114.11 628.24,-104.35 628.24,-95.26"/>
<polygon fill="#63b8ff" stroke="#63b8ff" points="631.74,-95.11 628.24,-85.11 624.74,-95.11 631.74,-95.11"/>
</a>
</g>
</g>
<!-- Node9 -->
<g id="Node000009" class="node">
<title>Node9</title>
<g id="a_Node000009"><a xlink:title=" ">
<polygon fill="#e0e0e0" stroke="#999999" points="901.74,-79.5 716.74,-79.5 716.74,-60.5 901.74,-60.5 901.74,-79.5"/>
<text text-anchor="middle" x="809.24" y="-67.5" font-family="Malgun Gothic" font-size="10.00">UVoiceFunctionLibrary.generated.h</text>
</a>
</g>
</g>
<!-- Node7&#45;&gt;Node9 -->
<g id="edge9_Node000007_Node000009" class="edge">
<title>Node7&#45;&gt;Node9</title>
<g id="a_edge9_Node000007_Node000009"><a xlink:title=" ">
<path fill="none" stroke="#63b8ff" d="M654.56,-120.99C685.8,-110.9 738.04,-94.01 773.06,-82.69"/>
<polygon fill="#63b8ff" stroke="#63b8ff" points="774.45,-85.92 782.89,-79.52 772.3,-79.26 774.45,-85.92"/>
</a>
</g>
</g>
<!-- Node10&#45;&gt;Node3 -->
<g id="edge11_Node000010_Node000003" class="edge">
<title>Node10&#45;&gt;Node3</title>
<g id="a_edge11_Node000010_Node000003"><a xlink:title=" ">
<path fill="none" stroke="#63b8ff" d="M1032.6,-124.79C1004.45,-119.55 969.94,-108.45 948.24,-85 934.25,-69.87 930.22,-45.9 929.23,-29.25"/>
<polygon fill="#63b8ff" stroke="#63b8ff" points="932.73,-28.99 928.95,-19.09 925.73,-29.18 932.73,-28.99"/>
</a>
</g>
</g>
<!-- Node11 -->
<g id="Node000011" class="node">
<title>Node11</title>
<g id="a_Node000011"><a xlink:title=" ">
<polygon fill="#e0e0e0" stroke="#999999" points="1076.74,-79.5 957.74,-79.5 957.74,-60.5 1076.74,-60.5 1076.74,-79.5"/>
<text text-anchor="middle" x="1017.24" y="-67.5" font-family="Malgun Gothic" font-size="10.00">Logging/LogMacros.h</text>
</a>
</g>
</g>
<!-- Node10&#45;&gt;Node11 -->
<g id="edge12_Node000010_Node000011" class="edge">
<title>Node10&#45;&gt;Node11</title>
<g id="a_edge12_Node000010_Node000011"><a xlink:title=" ">
<path fill="none" stroke="#63b8ff" d="M1070.1,-120.87C1060.57,-111.88 1045.45,-97.61 1033.81,-86.64"/>
<polygon fill="#63b8ff" stroke="#63b8ff" points="1036.1,-83.98 1026.43,-79.67 1031.3,-89.08 1036.1,-83.98"/>
</a>
</g>
</g>
<!-- Node12 -->
<g id="Node000012" class="node">
<title>Node12</title>
<g id="a_Node000012"><a xlink:title=" ">
<polygon fill="#e0e0e0" stroke="#999999" points="1189.74,-79.5 1094.74,-79.5 1094.74,-60.5 1189.74,-60.5 1189.74,-79.5"/>
<text text-anchor="middle" x="1142.24" y="-67.5" font-family="Malgun Gothic" font-size="10.00">Engine/Engine.h</text>
</a>
</g>
</g>
<!-- Node10&#45;&gt;Node12 -->
<g id="edge13_Node000010_Node000012" class="edge">
<title>Node10&#45;&gt;Node12</title>
<g id="a_edge13_Node000010_Node000012"><a xlink:title=" ">
<path fill="none" stroke="#63b8ff" d="M1088.54,-120.87C1098.22,-111.88 1113.58,-97.61 1125.41,-86.64"/>
<polygon fill="#63b8ff" stroke="#63b8ff" points="1127.96,-89.04 1132.91,-79.67 1123.2,-83.91 1127.96,-89.04"/>
</a>
</g>
</g>
<!-- Node13 -->
<g id="Node000013" class="node">
<title>Node13</title>
<g id="a_Node000013"><a xlink:href="FLogWriter_8h.html" target="_top" xlink:title="FLogWriter 선언에 대한 Doxygen 주석을 제공합니다.">
<polygon fill="white" stroke="#666666" points="1286.24,-79.5 1208.24,-79.5 1208.24,-60.5 1286.24,-60.5 1286.24,-79.5"/>
<text text-anchor="middle" x="1247.24" y="-67.5" font-family="Malgun Gothic" font-size="10.00">FLogWriter.h</text>
</a>
</g>
</g>
<!-- Node10&#45;&gt;Node13 -->
<g id="edge14_Node000010_Node000013" class="edge">
<title>Node10&#45;&gt;Node13</title>
<g id="a_edge14_Node000010_Node000013"><a xlink:title=" ">
<path fill="none" stroke="#63b8ff" d="M1103.67,-120.99C1132.54,-110.94 1180.74,-94.16 1213.24,-82.84"/>
<polygon fill="#63b8ff" stroke="#63b8ff" points="1214.49,-86.11 1222.79,-79.52 1212.19,-79.5 1214.49,-86.11"/>
</a>
</g>
</g>
<!-- Node14 -->
<g id="Node000014" class="node">
<title>Node14</title>
<g id="a_Node000014"><a xlink:href="NetworkLog_8h.html" target="_top" xlink:title="NetworkLog 선언에 대한 Doxygen 주석을 제공합니다.">
<polygon fill="white" stroke="#666666" points="1388.24,-79.5 1304.24,-79.5 1304.24,-60.5 1388.24,-60.5 1388.24,-79.5"/>
<text text-anchor="middle" x="1346.24" y="-67.5" font-family="Malgun Gothic" font-size="10.00">NetworkLog.h</text>
</a>
</g>
</g>
<!-- Node10&#45;&gt;Node14 -->
<g id="edge16_Node000010_Node000014" class="edge">
<title>Node10&#45;&gt;Node14</title>
<g id="a_edge16_Node000010_Node000014"><a xlink:title=" ">
<path fill="none" stroke="#63b8ff" d="M1124.94,-120.98C1168.79,-112.59 1236.79,-99.03 1295.24,-85 1298.9,-84.12 1302.68,-83.17 1306.47,-82.19"/>
<polygon fill="#63b8ff" stroke="#63b8ff" points="1307.63,-85.5 1316.39,-79.54 1305.83,-78.73 1307.63,-85.5"/>
</a>
</g>
</g>
<!-- Node13&#45;&gt;Node3 -->
<g id="edge15_Node000013_Node000003" class="edge">
<title>Node13&#45;&gt;Node3</title>
<g id="a_edge15_Node000013_Node000003"><a xlink:title=" ">
<path fill="none" stroke="#63b8ff" d="M1219.4,-60.45C1212.52,-58.5 1205.15,-56.55 1198.24,-55 1124.49,-38.42 1038.06,-25.21 983.48,-17.61"/>
<polygon fill="#63b8ff" stroke="#63b8ff" points="983.72,-14.11 973.34,-16.22 982.77,-21.05 983.72,-14.11"/>
</a>
</g>
</g>
<!-- Node14&#45;&gt;Node3 -->
<g id="edge17_Node000014_Node000003" class="edge">
<title>Node14&#45;&gt;Node3</title>
<g id="a_edge17_Node000014_Node000003"><a xlink:title=" ">
<path fill="none" stroke="#63b8ff" d="M1318.09,-60.48C1310.71,-58.46 1302.72,-56.47 1295.24,-55 1185.7,-33.43 1055.53,-20.59 983.68,-14.6"/>
<polygon fill="#63b8ff" stroke="#63b8ff" points="983.77,-11.1 973.52,-13.77 983.2,-18.08 983.77,-11.1"/>
</a>
</g>
</g>
</g>
</svg>

<g id="navigator" transform="translate(0 0)" fill="#404254">
  <rect fill="#f2f5e9" fill-opacity="0.5" stroke="#606060" stroke-width=".5" x="0" y="0" width="60" height="60"/>
  <use id="zoomplus" xlink:href="#zoomPlus" x="17" y="9" onmousedown="handleZoom(evt,'in')"/>
  <use id="zoomminus" xlink:href="#zoomMin" x="42" y="9" onmousedown="handleZoom(evt,'out')"/>
  <use id="reset" xlink:href="#resetDef" x="30" y="36" onmousedown="handleReset()"/>
   <use id="arrowup" xlink:href="#arrowUp" x="0" y="0" onmousedown="handlePan(0,-1)"/>
  <use id="arrowright" xlink:href="#arrowRight" x="0" y="0" onmousedown="handlePan(1,0)"/>
  <use id="arrowdown" xlink:href="#arrowDown" x="0" y="0" onmousedown="handlePan(0,1)"/>
  <use id="arrowleft" xlink:href="#arrowLeft" x="0" y="0" onmousedown="handlePan(-1,0)"/>
</g>
<svg viewBox="0 0 15 15" width="100%" height="30px" preserveAspectRatio="xMaxYMin meet">
 <g id="arrow_out" transform="scale(0.3 0.3)">
  <a xlink:href="UVoiceRecordSystem_8cpp__incl_org.svg" target="_base">
   <rect id="button" ry="5" rx="5" y="6" x="6" height="38" width="38"
        fill="#f2f5e9" fill-opacity="0.5" stroke="#606060" stroke-width="1.0"/>
   <path id="arrow"
     d="M 11.500037,31.436501 C 11.940474,20.09759 22.043105,11.32322 32.158766,21.979434 L 37.068811,17.246167 C 37.068811,17.246167 37.088388,32 37.088388,32 L 22.160133,31.978069 C 22.160133,31.978069 26.997745,27.140456 26.997745,27.140456 C 18.528582,18.264221 13.291696,25.230495 11.500037,31.436501 z"
     style="fill:#404040;"/>
  </a>
 </g>
</svg>

<style type='text/css'>
<![CDATA[
[data-mouse-over-selected='false'] { opacity: 0.7; }
[data-mouse-over-selected='true']  { opacity: 1.0; }
]]>
</style>
<script type="application/ecmascript"><![CDATA[
document.addEventListener('DOMContentLoaded', (event) => {
  highlightEdges();
  highlightAdjacentNodes();
});
]]></script>
</svg>
