<?xml version="1.0" encoding="UTF-8" standalone="no"?>
<!DOCTYPE svg PUBLIC "-//W3C//DTD SVG 1.1//EN"
 "http://www.w3.org/Graphics/SVG/1.1/DTD/svg11.dtd">
<!-- Generated by graphviz version 2.43.0 (0)
 -->
<!-- Title: Source/YiSan/Network/Public/UWebSocketSystem.h Pages: 1 -->
<svg width="503pt" height="148pt"
 viewBox="0.00 0.00 502.99 148.00" xmlns="http://www.w3.org/2000/svg" xmlns:xlink="http://www.w3.org/1999/xlink">
<g id="graph0" class="graph" transform="scale(1 1) rotate(0) translate(4 144)">
<title>Source/YiSan/Network/Public/UWebSocketSystem.h</title>
<!-- Node1 -->
<g id="Node000001" class="node">
<title>Node1</title>
<g id="a_Node000001"><a xlink:title="UWebSocketSystem 선언에 대한 Doxygen 주석을 제공합니다.">
<polygon fill="#999999" stroke="#666666" points="222.99,-140 64.99,-140 64.99,-110 222.99,-110 222.99,-140"/>
<text text-anchor="start" x="72.99" y="-128" font-family="Malgun Gothic" font-size="10.00">Source/YiSan/Network</text>
<text text-anchor="middle" x="143.99" y="-117" font-family="Malgun Gothic" font-size="10.00">/Public/UWebSocketSystem.h</text>
</a>
</g>
</g>
<!-- Node2 -->
<g id="Node000002" class="node">
<title>Node2</title>
<g id="a_Node000002"><a xlink:title=" ">
<polygon fill="#e0e0e0" stroke="#999999" points="107.99,-19 19.99,-19 19.99,0 107.99,0 107.99,-19"/>
<text text-anchor="middle" x="63.99" y="-7" font-family="Malgun Gothic" font-size="10.00">CoreMinimal.h</text>
</a>
</g>
</g>
<!-- Node1&#45;&gt;Node2 -->
<g id="edge1_Node000001_Node000002" class="edge">
<title>Node1&#45;&gt;Node2</title>
<g id="a_edge1_Node000001_Node000002"><a xlink:title=" ">
<path fill="none" stroke="#63b8ff" d="M64.65,-113.44C41.28,-106.22 18.19,-94.15 3.99,-74 -9.39,-55.02 14.7,-36.02 36.23,-23.82"/>
<polygon fill="#63b8ff" stroke="#63b8ff" points="38.02,-26.84 45.18,-19.03 34.71,-20.67 38.02,-26.84"/>
</a>
</g>
</g>
<!-- Node3 -->
<g id="Node000003" class="node">
<title>Node3</title>
<g id="a_Node000003"><a xlink:href="Macro_8h.html" target="_top" xlink:title="Manager 모듈에서 공통으로 사용하는 매크로 정의에 대한 Doxygen 주석을 제공합니다.">
<polygon fill="white" stroke="#666666" points="68.99,-74 12.99,-74 12.99,-55 68.99,-55 68.99,-74"/>
<text text-anchor="middle" x="40.99" y="-62" font-family="Malgun Gothic" font-size="10.00">Macro.h</text>
</a>
</g>
</g>
<!-- Node1&#45;&gt;Node3 -->
<g id="edge2_Node000001_Node000003" class="edge">
<title>Node1&#45;&gt;Node3</title>
<g id="a_edge2_Node000001_Node000003"><a xlink:title=" ">
<path fill="none" stroke="#63b8ff" d="M119.32,-109.99C102.9,-100.66 81.44,-88.47 65.13,-79.21"/>
<polygon fill="#63b8ff" stroke="#63b8ff" points="66.63,-76.03 56.2,-74.14 63.17,-82.12 66.63,-76.03"/>
</a>
</g>
</g>
<!-- Node4 -->
<g id="Node000004" class="node">
<title>Node4</title>
<g id="a_Node000004"><a xlink:href="ENetworkLogType_8h.html" target="_top" xlink:title="ENetworkLogType 열거형에 대한 Doxygen 주석을 제공합니다.">
<polygon fill="white" stroke="#666666" points="200.49,-74 87.49,-74 87.49,-55 200.49,-55 200.49,-74"/>
<text text-anchor="middle" x="143.99" y="-62" font-family="Malgun Gothic" font-size="10.00">ENetworkLogType.h</text>
</a>
</g>
</g>
<!-- Node1&#45;&gt;Node4 -->
<g id="edge3_Node000001_Node000004" class="edge">
<title>Node1&#45;&gt;Node4</title>
<g id="a_edge3_Node000001_Node000004"><a xlink:title=" ">
<path fill="none" stroke="#63b8ff" d="M143.99,-109.84C143.99,-102.21 143.99,-92.7 143.99,-84.45"/>
<polygon fill="#63b8ff" stroke="#63b8ff" points="147.49,-84.27 143.99,-74.27 140.49,-84.27 147.49,-84.27"/>
</a>
</g>
</g>
<!-- Node5 -->
<g id="Node000005" class="node">
<title>Node5</title>
<g id="a_Node000005"><a xlink:title=" ">
<polygon fill="#e0e0e0" stroke="#999999" points="300.99,-74 218.99,-74 218.99,-55 300.99,-55 300.99,-74"/>
<text text-anchor="middle" x="259.99" y="-62" font-family="Malgun Gothic" font-size="10.00">IWebSocket.h</text>
</a>
</g>
</g>
<!-- Node1&#45;&gt;Node5 -->
<g id="edge5_Node000001_Node000005" class="edge">
<title>Node1&#45;&gt;Node5</title>
<g id="a_edge5_Node000001_Node000005"><a xlink:title=" ">
<path fill="none" stroke="#63b8ff" d="M171.78,-109.99C190.61,-100.49 215.34,-88.02 233.83,-78.69"/>
<polygon fill="#63b8ff" stroke="#63b8ff" points="235.51,-81.77 242.86,-74.14 232.35,-75.52 235.51,-81.77"/>
</a>
</g>
</g>
<!-- Node6 -->
<g id="Node000006" class="node">
<title>Node6</title>
<g id="a_Node000006"><a xlink:title=" ">
<polygon fill="#e0e0e0" stroke="#999999" points="494.99,-74 318.99,-74 318.99,-55 494.99,-55 494.99,-74"/>
<text text-anchor="middle" x="406.99" y="-62" font-family="Malgun Gothic" font-size="10.00">UWebSocketSystem.generated.h</text>
</a>
</g>
</g>
<!-- Node1&#45;&gt;Node6 -->
<g id="edge6_Node000001_Node000006" class="edge">
<title>Node1&#45;&gt;Node6</title>
<g id="a_edge6_Node000001_Node000006"><a xlink:title=" ">
<path fill="none" stroke="#63b8ff" d="M206.99,-109.99C253.55,-99.63 316.02,-85.73 358.68,-76.25"/>
<polygon fill="#63b8ff" stroke="#63b8ff" points="359.53,-79.64 368.54,-74.05 358.01,-72.81 359.53,-79.64"/>
</a>
</g>
</g>
<!-- Node4&#45;&gt;Node2 -->
<g id="edge4_Node000004_Node000002" class="edge">
<title>Node4&#45;&gt;Node2</title>
<g id="a_edge4_Node000004_Node000002"><a xlink:title=" ">
<path fill="none" stroke="#63b8ff" d="M131.14,-54.98C118.85,-46.84 100.08,-34.41 85.51,-24.76"/>
<polygon fill="#63b8ff" stroke="#63b8ff" points="87.35,-21.78 77.08,-19.17 83.48,-27.61 87.35,-21.78"/>
</a>
</g>
</g>
</g>
</svg>
