<?xml version="1.0" encoding="UTF-8" standalone="no"?>
<!DOCTYPE svg PUBLIC "-//W3C//DTD SVG 1.1//EN"
 "http://www.w3.org/Graphics/SVG/1.1/DTD/svg11.dtd">
<!-- Generated by graphviz version 2.43.0 (0)
 -->
<!-- Title: Source/LatteLibrary/Network/Private/UWebSocketSystem.cpp Pages: 1 -->
<svg width="702pt" height="214pt"
 viewBox="0.00 0.00 702.14 214.00" xmlns="http://www.w3.org/2000/svg" xmlns:xlink="http://www.w3.org/1999/xlink">
<g id="graph0" class="graph" transform="scale(1 1) rotate(0) translate(4 210)">
<title>Source/LatteLibrary/Network/Private/UWebSocketSystem.cpp</title>
<!-- Node1 -->
<g id="Node000001" class="node">
<title>Node1</title>
<g id="a_Node000001"><a xlink:title="UWebSocketSystem 구현에 대한 Doxygen 주석을 제공합니다.">
<polygon fill="#999999" stroke="#666666" points="560.14,-206 398.14,-206 398.14,-165 560.14,-165 560.14,-206"/>
<text text-anchor="start" x="406.14" y="-194" font-family="Malgun Gothic" font-size="10.00">Source/LatteLibrary</text>
<text text-anchor="start" x="406.14" y="-183" font-family="Malgun Gothic" font-size="10.00">/Network/Private/UWebSocket</text>
<text text-anchor="middle" x="479.14" y="-172" font-family="Malgun Gothic" font-size="10.00">System.cpp</text>
</a>
</g>
</g>
<!-- Node2 -->
<g id="Node000002" class="node">
<title>Node2</title>
<g id="a_Node000002"><a xlink:href="UWebSocketSystem_8h.html" target="_top" xlink:title="UWebSocketSystem 선언에 대한 Doxygen 주석을 제공합니다.">
<polygon fill="white" stroke="#666666" points="269.64,-129 146.64,-129 146.64,-110 269.64,-110 269.64,-129"/>
<text text-anchor="middle" x="208.14" y="-117" font-family="Malgun Gothic" font-size="10.00">UWebSocketSystem.h</text>
</a>
</g>
</g>
<!-- Node1&#45;&gt;Node2 -->
<g id="edge1_Node000001_Node000002" class="edge">
<title>Node1&#45;&gt;Node2</title>
<g id="a_edge1_Node000001_Node000002"><a xlink:title=" ">
<path fill="none" stroke="#63b8ff" d="M397.83,-165.3C350.79,-154.19 293.31,-140.61 254.04,-131.34"/>
<polygon fill="#63b8ff" stroke="#63b8ff" points="254.75,-127.91 244.22,-129.02 253.14,-134.72 254.75,-127.91"/>
</a>
</g>
</g>
<!-- Node5 -->
<g id="Node000005" class="node">
<title>Node5</title>
<g id="a_Node000005"><a xlink:href="ENetworkLogType_8h.html" target="_top" xlink:title="ENetworkLogType 열거형에 대한 Doxygen 주석을 제공합니다.">
<polygon fill="white" stroke="#666666" points="500.64,-74 387.64,-74 387.64,-55 500.64,-55 500.64,-74"/>
<text text-anchor="middle" x="444.14" y="-62" font-family="Malgun Gothic" font-size="10.00">ENetworkLogType.h</text>
</a>
</g>
</g>
<!-- Node1&#45;&gt;Node5 -->
<g id="edge10_Node000001_Node000005" class="edge">
<title>Node1&#45;&gt;Node5</title>
<g id="a_edge10_Node000001_Node000005"><a xlink:title=" ">
<path fill="none" stroke="#63b8ff" d="M473.36,-164.85C466.75,-142.37 456.01,-105.86 449.56,-83.91"/>
<polygon fill="#63b8ff" stroke="#63b8ff" points="452.87,-82.78 446.69,-74.18 446.16,-84.76 452.87,-82.78"/>
</a>
</g>
</g>
<!-- Node8 -->
<g id="Node000008" class="node">
<title>Node8</title>
<g id="a_Node000008"><a xlink:href="NetworkLog_8h.html" target="_top" xlink:title="NetworkLog 선언에 대한 Doxygen 주석을 제공합니다.">
<polygon fill="white" stroke="#666666" points="556.14,-129 472.14,-129 472.14,-110 556.14,-110 556.14,-129"/>
<text text-anchor="middle" x="514.14" y="-117" font-family="Malgun Gothic" font-size="10.00">NetworkLog.h</text>
</a>
</g>
</g>
<!-- Node1&#45;&gt;Node8 -->
<g id="edge8_Node000001_Node000008" class="edge">
<title>Node1&#45;&gt;Node8</title>
<g id="a_edge8_Node000001_Node000008"><a xlink:title=" ">
<path fill="none" stroke="#63b8ff" d="M489.83,-164.95C494.52,-156.39 499.97,-146.42 504.52,-138.1"/>
<polygon fill="#63b8ff" stroke="#63b8ff" points="507.62,-139.71 509.35,-129.26 501.48,-136.35 507.62,-139.71"/>
</a>
</g>
</g>
<!-- Node9 -->
<g id="Node000009" class="node">
<title>Node9</title>
<g id="a_Node000009"><a xlink:title=" ">
<polygon fill="#e0e0e0" stroke="#999999" points="694.14,-129 574.14,-129 574.14,-110 694.14,-110 694.14,-129"/>
<text text-anchor="middle" x="634.14" y="-117" font-family="Malgun Gothic" font-size="10.00">WebSocketsModule.h</text>
</a>
</g>
</g>
<!-- Node1&#45;&gt;Node9 -->
<g id="edge11_Node000001_Node000009" class="edge">
<title>Node1&#45;&gt;Node9</title>
<g id="a_edge11_Node000001_Node000009"><a xlink:title=" ">
<path fill="none" stroke="#63b8ff" d="M526.49,-164.95C551.66,-154.56 581.85,-142.09 603.85,-133.01"/>
<polygon fill="#63b8ff" stroke="#63b8ff" points="605.43,-136.14 613.33,-129.09 602.75,-129.67 605.43,-136.14"/>
</a>
</g>
</g>
<!-- Node3 -->
<g id="Node000003" class="node">
<title>Node3</title>
<g id="a_Node000003"><a xlink:title=" ">
<polygon fill="#e0e0e0" stroke="#999999" points="488.14,-19 400.14,-19 400.14,0 488.14,0 488.14,-19"/>
<text text-anchor="middle" x="444.14" y="-7" font-family="Malgun Gothic" font-size="10.00">CoreMinimal.h</text>
</a>
</g>
</g>
<!-- Node2&#45;&gt;Node3 -->
<g id="edge2_Node000002_Node000003" class="edge">
<title>Node2&#45;&gt;Node3</title>
<g id="a_edge2_Node000002_Node000003"><a xlink:title=" ">
<path fill="none" stroke="#63b8ff" d="M146.63,-117.45C74.04,-114.13 -31.83,-101.49 10.14,-55 35.16,-27.29 279.02,-15.87 389.83,-12.08"/>
<polygon fill="#63b8ff" stroke="#63b8ff" points="390.25,-15.57 400.13,-11.74 390.02,-8.57 390.25,-15.57"/>
</a>
</g>
</g>
<!-- Node4 -->
<g id="Node000004" class="node">
<title>Node4</title>
<g id="a_Node000004"><a xlink:href="Macro_8h.html" target="_top" xlink:title="Manager 모듈에서 공통으로 사용하는 매크로 정의에 대한 Doxygen 주석을 제공합니다.">
<polygon fill="white" stroke="#666666" points="75.14,-74 19.14,-74 19.14,-55 75.14,-55 75.14,-74"/>
<text text-anchor="middle" x="47.14" y="-62" font-family="Malgun Gothic" font-size="10.00">Macro.h</text>
</a>
</g>
</g>
<!-- Node2&#45;&gt;Node4 -->
<g id="edge3_Node000002_Node000004" class="edge">
<title>Node2&#45;&gt;Node4</title>
<g id="a_edge3_Node000002_Node000004"><a xlink:title=" ">
<path fill="none" stroke="#63b8ff" d="M182.27,-109.98C155.36,-101.13 113.02,-87.19 82.91,-77.28"/>
<polygon fill="#63b8ff" stroke="#63b8ff" points="83.81,-73.88 73.21,-74.08 81.62,-80.53 83.81,-73.88"/>
</a>
</g>
</g>
<!-- Node2&#45;&gt;Node5 -->
<g id="edge4_Node000002_Node000005" class="edge">
<title>Node2&#45;&gt;Node5</title>
<g id="a_edge4_Node000002_Node000005"><a xlink:title=" ">
<path fill="none" stroke="#63b8ff" d="M246.06,-109.98C286.8,-100.84 351.64,-86.27 395.96,-76.32"/>
<polygon fill="#63b8ff" stroke="#63b8ff" points="396.94,-79.69 405.93,-74.08 395.4,-72.86 396.94,-79.69"/>
</a>
</g>
</g>
<!-- Node6 -->
<g id="Node000006" class="node">
<title>Node6</title>
<g id="a_Node000006"><a xlink:title=" ">
<polygon fill="#e0e0e0" stroke="#999999" points="175.14,-74 93.14,-74 93.14,-55 175.14,-55 175.14,-74"/>
<text text-anchor="middle" x="134.14" y="-62" font-family="Malgun Gothic" font-size="10.00">IWebSocket.h</text>
</a>
</g>
</g>
<!-- Node2&#45;&gt;Node6 -->
<g id="edge6_Node000002_Node000006" class="edge">
<title>Node2&#45;&gt;Node6</title>
<g id="a_edge6_Node000002_Node000006"><a xlink:title=" ">
<path fill="none" stroke="#63b8ff" d="M196.25,-109.98C184.99,-101.92 167.86,-89.65 154.43,-80.03"/>
<polygon fill="#63b8ff" stroke="#63b8ff" points="156.42,-77.15 146.25,-74.17 152.34,-82.84 156.42,-77.15"/>
</a>
</g>
</g>
<!-- Node7 -->
<g id="Node000007" class="node">
<title>Node7</title>
<g id="a_Node000007"><a xlink:title=" ">
<polygon fill="#e0e0e0" stroke="#999999" points="369.14,-74 193.14,-74 193.14,-55 369.14,-55 369.14,-74"/>
<text text-anchor="middle" x="281.14" y="-62" font-family="Malgun Gothic" font-size="10.00">UWebSocketSystem.generated.h</text>
</a>
</g>
</g>
<!-- Node2&#45;&gt;Node7 -->
<g id="edge7_Node000002_Node000007" class="edge">
<title>Node2&#45;&gt;Node7</title>
<g id="a_edge7_Node000002_Node000007"><a xlink:title=" ">
<path fill="none" stroke="#63b8ff" d="M219.87,-109.98C230.87,-102 247.56,-89.88 260.75,-80.31"/>
<polygon fill="#63b8ff" stroke="#63b8ff" points="263.16,-82.88 269.2,-74.17 259.05,-77.21 263.16,-82.88"/>
</a>
</g>
</g>
<!-- Node5&#45;&gt;Node3 -->
<g id="edge5_Node000005_Node000003" class="edge">
<title>Node5&#45;&gt;Node3</title>
<g id="a_edge5_Node000005_Node000003"><a xlink:title=" ">
<path fill="none" stroke="#63b8ff" d="M444.14,-54.75C444.14,-47.8 444.14,-37.85 444.14,-29.13"/>
<polygon fill="#63b8ff" stroke="#63b8ff" points="447.64,-29.09 444.14,-19.09 440.64,-29.09 447.64,-29.09"/>
</a>
</g>
</g>
<!-- Node8&#45;&gt;Node3 -->
<g id="edge9_Node000008_Node000003" class="edge">
<title>Node8&#45;&gt;Node3</title>
<g id="a_edge9_Node000008_Node000003"><a xlink:title=" ">
<path fill="none" stroke="#63b8ff" d="M515.91,-109.59C517.99,-96.64 520.03,-72.25 510.14,-55 502.35,-41.39 488.5,-31.11 475.49,-23.87"/>
<polygon fill="#63b8ff" stroke="#63b8ff" points="476.76,-20.59 466.27,-19.14 473.57,-26.82 476.76,-20.59"/>
</a>
</g>
</g>
</g>
</svg>
