<?xml version="1.0" encoding="UTF-8" standalone="no"?>
<!DOCTYPE svg PUBLIC "-//W3C//DTD SVG 1.1//EN"
 "http://www.w3.org/Graphics/SVG/1.1/DTD/svg11.dtd">
<!-- Generated by graphviz version 2.43.0 (0)
 -->
<!-- Title: Source/YiSan/Network/Private/UWebSocketSystem.cpp Pages: 1 -->
<svg width="702pt" height="203pt"
 viewBox="0.00 0.00 702.14 203.00" xmlns="http://www.w3.org/2000/svg" xmlns:xlink="http://www.w3.org/1999/xlink">
<g id="graph0" class="graph" transform="scale(1 1) rotate(0) translate(4 199)">
<title>Source/YiSan/Network/Private/UWebSocketSystem.cpp</title>
<!-- Node1 -->
<g id="Node000001" class="node">
<title>Node1</title>
<g id="a_Node000001"><a xlink:title="UWebSocketSystem 구현에 대한 Doxygen 주석을 제공합니다.">
<polygon fill="#999999" stroke="#666666" points="566.64,-195 391.64,-195 391.64,-165 566.64,-165 566.64,-195"/>
<text text-anchor="start" x="399.64" y="-183" font-family="Malgun Gothic" font-size="10.00">Source/YiSan/Network</text>
<text text-anchor="middle" x="479.14" y="-172" font-family="Malgun Gothic" font-size="10.00">/Private/UWebSocketSystem.cpp</text>
</a>
</g>
</g>
<!-- Node2 -->
<g id="Node000002" class="node">
<title>Node2</title>
<g id="a_Node000002"><a xlink:href="UWebSocketSystem_8h.html" target="_top" xlink:title="UWebSocketSystem 선언에 대한 Doxygen 주석을 제공합니다.">
<polygon fill="white" stroke="#666666" points="269.64,-129 146.64,-129 146.64,-110 269.64,-110 269.64,-129"/>
<text text-anchor="middle" x="208.14" y="-117" font-family="Malgun Gothic" font-size="10.00">UWebSocketSystem.h</text>
</a>
</g>
</g>
<!-- Node1&#45;&gt;Node2 -->
<g id="edge1_Node000001_Node000002" class="edge">
<title>Node1&#45;&gt;Node2</title>
<g id="a_edge1_Node000001_Node000002"><a xlink:title=" ">
<path fill="none" stroke="#63b8ff" d="M414.23,-164.99C366.15,-154.61 301.61,-140.68 257.65,-131.19"/>
<polygon fill="#63b8ff" stroke="#63b8ff" points="258.28,-127.74 247.77,-129.05 256.8,-134.58 258.28,-127.74"/>
</a>
</g>
</g>
<!-- Node5 -->
<g id="Node000005" class="node">
<title>Node5</title>
<g id="a_Node000005"><a xlink:href="ENetworkLogType_8h.html" target="_top" xlink:title="ENetworkLogType 열거형에 대한 Doxygen 주석을 제공합니다.">
<polygon fill="white" stroke="#666666" points="500.64,-74 387.64,-74 387.64,-55 500.64,-55 500.64,-74"/>
<text text-anchor="middle" x="444.14" y="-62" font-family="Malgun Gothic" font-size="10.00">ENetworkLogType.h</text>
</a>
</g>
</g>
<!-- Node1&#45;&gt;Node5 -->
<g id="edge10_Node000001_Node000005" class="edge">
<title>Node1&#45;&gt;Node5</title>
<g id="a_edge10_Node000001_Node000005"><a xlink:title=" ">
<path fill="none" stroke="#63b8ff" d="M474.45,-164.58C471.22,-154.61 466.86,-141.01 463.14,-129 458.46,-113.87 453.32,-96.65 449.56,-83.96"/>
<polygon fill="#63b8ff" stroke="#63b8ff" points="452.86,-82.75 446.67,-74.14 446.14,-84.72 452.86,-82.75"/>
</a>
</g>
</g>
<!-- Node8 -->
<g id="Node000008" class="node">
<title>Node8</title>
<g id="a_Node000008"><a xlink:href="NetworkLog_8h.html" target="_top" xlink:title="NetworkLog 선언에 대한 Doxygen 주석을 제공합니다.">
<polygon fill="white" stroke="#666666" points="556.14,-129 472.14,-129 472.14,-110 556.14,-110 556.14,-129"/>
<text text-anchor="middle" x="514.14" y="-117" font-family="Malgun Gothic" font-size="10.00">NetworkLog.h</text>
</a>
</g>
</g>
<!-- Node1&#45;&gt;Node8 -->
<g id="edge8_Node000001_Node000008" class="edge">
<title>Node1&#45;&gt;Node8</title>
<g id="a_edge8_Node000001_Node000008"><a xlink:title=" ">
<path fill="none" stroke="#63b8ff" d="M487.61,-164.84C492.44,-156.78 498.52,-146.62 503.64,-138.06"/>
<polygon fill="#63b8ff" stroke="#63b8ff" points="506.77,-139.64 508.9,-129.27 500.76,-136.05 506.77,-139.64"/>
</a>
</g>
</g>
<!-- Node9 -->
<g id="Node000009" class="node">
<title>Node9</title>
<g id="a_Node000009"><a xlink:title=" ">
<polygon fill="#e0e0e0" stroke="#999999" points="694.14,-129 574.14,-129 574.14,-110 694.14,-110 694.14,-129"/>
<text text-anchor="middle" x="634.14" y="-117" font-family="Malgun Gothic" font-size="10.00">WebSocketsModule.h</text>
</a>
</g>
</g>
<!-- Node1&#45;&gt;Node9 -->
<g id="edge11_Node000001_Node000009" class="edge">
<title>Node1&#45;&gt;Node9</title>
<g id="a_edge11_Node000001_Node000009"><a xlink:title=" ">
<path fill="none" stroke="#63b8ff" d="M516.27,-164.99C542.36,-155.14 576.92,-142.1 601.87,-132.68"/>
<polygon fill="#63b8ff" stroke="#63b8ff" points="603.13,-135.94 611.25,-129.14 600.66,-129.4 603.13,-135.94"/>
</a>
</g>
</g>
<!-- Node3 -->
<g id="Node000003" class="node">
<title>Node3</title>
<g id="a_Node000003"><a xlink:title=" ">
<polygon fill="#e0e0e0" stroke="#999999" points="488.14,-19 400.14,-19 400.14,0 488.14,0 488.14,-19"/>
<text text-anchor="middle" x="444.14" y="-7" font-family="Malgun Gothic" font-size="10.00">CoreMinimal.h</text>
</a>
</g>
</g>
<!-- Node2&#45;&gt;Node3 -->
<g id="edge2_Node000002_Node000003" class="edge">
<title>Node2&#45;&gt;Node3</title>
<g id="a_edge2_Node000002_Node000003"><a xlink:title=" ">
<path fill="none" stroke="#63b8ff" d="M146.63,-117.45C74.04,-114.13 -31.83,-101.49 10.14,-55 35.16,-27.29 279.02,-15.87 389.83,-12.08"/>
<polygon fill="#63b8ff" stroke="#63b8ff" points="390.25,-15.57 400.13,-11.74 390.02,-8.57 390.25,-15.57"/>
</a>
</g>
</g>
<!-- Node4 -->
<g id="Node000004" class="node">
<title>Node4</title>
<g id="a_Node000004"><a xlink:href="Macro_8h.html" target="_top" xlink:title="Manager 모듈에서 공통으로 사용하는 매크로 정의에 대한 Doxygen 주석을 제공합니다.">
<polygon fill="white" stroke="#666666" points="75.14,-74 19.14,-74 19.14,-55 75.14,-55 75.14,-74"/>
<text text-anchor="middle" x="47.14" y="-62" font-family="Malgun Gothic" font-size="10.00">Macro.h</text>
</a>
</g>
</g>
<!-- Node2&#45;&gt;Node4 -->
<g id="edge3_Node000002_Node000004" class="edge">
<title>Node2&#45;&gt;Node4</title>
<g id="a_edge3_Node000002_Node000004"><a xlink:title=" ">
<path fill="none" stroke="#63b8ff" d="M182.27,-109.98C155.36,-101.13 113.02,-87.19 82.91,-77.28"/>
<polygon fill="#63b8ff" stroke="#63b8ff" points="83.81,-73.88 73.21,-74.08 81.62,-80.53 83.81,-73.88"/>
</a>
</g>
</g>
<!-- Node2&#45;&gt;Node5 -->
<g id="edge4_Node000002_Node000005" class="edge">
<title>Node2&#45;&gt;Node5</title>
<g id="a_edge4_Node000002_Node000005"><a xlink:title=" ">
<path fill="none" stroke="#63b8ff" d="M246.06,-109.98C286.8,-100.84 351.64,-86.27 395.96,-76.32"/>
<polygon fill="#63b8ff" stroke="#63b8ff" points="396.94,-79.69 405.93,-74.08 395.4,-72.86 396.94,-79.69"/>
</a>
</g>
</g>
<!-- Node6 -->
<g id="Node000006" class="node">
<title>Node6</title>
<g id="a_Node000006"><a xlink:title=" ">
<polygon fill="#e0e0e0" stroke="#999999" points="175.14,-74 93.14,-74 93.14,-55 175.14,-55 175.14,-74"/>
<text text-anchor="middle" x="134.14" y="-62" font-family="Malgun Gothic" font-size="10.00">IWebSocket.h</text>
</a>
</g>
</g>
<!-- Node2&#45;&gt;Node6 -->
<g id="edge6_Node000002_Node000006" class="edge">
<title>Node2&#45;&gt;Node6</title>
<g id="a_edge6_Node000002_Node000006"><a xlink:title=" ">
<path fill="none" stroke="#63b8ff" d="M196.25,-109.98C184.99,-101.92 167.86,-89.65 154.43,-80.03"/>
<polygon fill="#63b8ff" stroke="#63b8ff" points="156.42,-77.15 146.25,-74.17 152.34,-82.84 156.42,-77.15"/>
</a>
</g>
</g>
<!-- Node7 -->
<g id="Node000007" class="node">
<title>Node7</title>
<g id="a_Node000007"><a xlink:title=" ">
<polygon fill="#e0e0e0" stroke="#999999" points="369.14,-74 193.14,-74 193.14,-55 369.14,-55 369.14,-74"/>
<text text-anchor="middle" x="281.14" y="-62" font-family="Malgun Gothic" font-size="10.00">UWebSocketSystem.generated.h</text>
</a>
</g>
</g>
<!-- Node2&#45;&gt;Node7 -->
<g id="edge7_Node000002_Node000007" class="edge">
<title>Node2&#45;&gt;Node7</title>
<g id="a_edge7_Node000002_Node000007"><a xlink:title=" ">
<path fill="none" stroke="#63b8ff" d="M219.87,-109.98C230.87,-102 247.56,-89.88 260.75,-80.31"/>
<polygon fill="#63b8ff" stroke="#63b8ff" points="263.16,-82.88 269.2,-74.17 259.05,-77.21 263.16,-82.88"/>
</a>
</g>
</g>
<!-- Node5&#45;&gt;Node3 -->
<g id="edge5_Node000005_Node000003" class="edge">
<title>Node5&#45;&gt;Node3</title>
<g id="a_edge5_Node000005_Node000003"><a xlink:title=" ">
<path fill="none" stroke="#63b8ff" d="M444.14,-54.75C444.14,-47.8 444.14,-37.85 444.14,-29.13"/>
<polygon fill="#63b8ff" stroke="#63b8ff" points="447.64,-29.09 444.14,-19.09 440.64,-29.09 447.64,-29.09"/>
</a>
</g>
</g>
<!-- Node8&#45;&gt;Node3 -->
<g id="edge9_Node000008_Node000003" class="edge">
<title>Node8&#45;&gt;Node3</title>
<g id="a_edge9_Node000008_Node000003"><a xlink:title=" ">
<path fill="none" stroke="#63b8ff" d="M515.91,-109.59C517.99,-96.64 520.03,-72.25 510.14,-55 502.35,-41.39 488.5,-31.11 475.49,-23.87"/>
<polygon fill="#63b8ff" stroke="#63b8ff" points="476.76,-20.59 466.27,-19.14 473.57,-26.82 476.76,-20.59"/>
</a>
</g>
</g>
</g>
</svg>
