<?xml version="1.0" encoding="UTF-8" standalone="no"?>
<!DOCTYPE svg PUBLIC "-//W3C//DTD SVG 1.1//EN"
 "http://www.w3.org/Graphics/SVG/1.1/DTD/svg11.dtd">
<!-- Generated by graphviz version 2.43.0 (0)
 -->
<!-- Title: Source/LatteLibrary/Network/Public/UWebSocketSystem.h Pages: 1 -->
<svg width="503pt" height="159pt"
 viewBox="0.00 0.00 502.83 159.00" xmlns="http://www.w3.org/2000/svg" xmlns:xlink="http://www.w3.org/1999/xlink">
<g id="graph0" class="graph" transform="scale(1 1) rotate(0) translate(4 155)">
<title>Source/LatteLibrary/Network/Public/UWebSocketSystem.h</title>
<!-- Node1 -->
<g id="Node000001" class="node">
<title>Node1</title>
<g id="a_Node000001"><a xlink:title="UWebSocketSystem 선언에 대한 Doxygen 주석을 제공합니다.">
<polygon fill="#999999" stroke="#666666" points="222.33,-151 65.33,-151 65.33,-110 222.33,-110 222.33,-151"/>
<text text-anchor="start" x="73.33" y="-139" font-family="Malgun Gothic" font-size="10.00">Source/LatteLibrary</text>
<text text-anchor="start" x="73.33" y="-128" font-family="Malgun Gothic" font-size="10.00">/Network/Public/UWebSocket</text>
<text text-anchor="middle" x="143.83" y="-117" font-family="Malgun Gothic" font-size="10.00">System.h</text>
</a>
</g>
</g>
<!-- Node2 -->
<g id="Node000002" class="node">
<title>Node2</title>
<g id="a_Node000002"><a xlink:title=" ">
<polygon fill="#e0e0e0" stroke="#999999" points="107.83,-19 19.83,-19 19.83,0 107.83,0 107.83,-19"/>
<text text-anchor="middle" x="63.83" y="-7" font-family="Malgun Gothic" font-size="10.00">CoreMinimal.h</text>
</a>
</g>
</g>
<!-- Node1&#45;&gt;Node2 -->
<g id="edge1_Node000001_Node000002" class="edge">
<title>Node1&#45;&gt;Node2</title>
<g id="a_edge1_Node000001_Node000002"><a xlink:title=" ">
<path fill="none" stroke="#63b8ff" d="M65.02,-116.02C41.39,-107.89 18.01,-94.87 3.83,-74 -9.14,-54.9 14.54,-36.06 35.86,-23.92"/>
<polygon fill="#63b8ff" stroke="#63b8ff" points="37.59,-26.97 44.74,-19.15 34.28,-20.8 37.59,-26.97"/>
</a>
</g>
</g>
<!-- Node3 -->
<g id="Node000003" class="node">
<title>Node3</title>
<g id="a_Node000003"><a xlink:href="Macro_8h.html" target="_top" xlink:title="Manager 모듈에서 공통으로 사용하는 매크로 정의에 대한 Doxygen 주석을 제공합니다.">
<polygon fill="white" stroke="#666666" points="68.83,-74 12.83,-74 12.83,-55 68.83,-55 68.83,-74"/>
<text text-anchor="middle" x="40.83" y="-62" font-family="Malgun Gothic" font-size="10.00">Macro.h</text>
</a>
</g>
</g>
<!-- Node1&#45;&gt;Node3 -->
<g id="edge2_Node000001_Node000003" class="edge">
<title>Node1&#45;&gt;Node3</title>
<g id="a_edge2_Node000001_Node000003"><a xlink:title=" ">
<path fill="none" stroke="#63b8ff" d="M112.37,-109.95C96.55,-100.12 77.74,-88.43 63.38,-79.51"/>
<polygon fill="#63b8ff" stroke="#63b8ff" points="65,-76.4 54.66,-74.09 61.31,-82.34 65,-76.4"/>
</a>
</g>
</g>
<!-- Node4 -->
<g id="Node000004" class="node">
<title>Node4</title>
<g id="a_Node000004"><a xlink:href="ENetworkLogType_8h.html" target="_top" xlink:title="ENetworkLogType 열거형에 대한 Doxygen 주석을 제공합니다.">
<polygon fill="white" stroke="#666666" points="200.33,-74 87.33,-74 87.33,-55 200.33,-55 200.33,-74"/>
<text text-anchor="middle" x="143.83" y="-62" font-family="Malgun Gothic" font-size="10.00">ENetworkLogType.h</text>
</a>
</g>
</g>
<!-- Node1&#45;&gt;Node4 -->
<g id="edge3_Node000001_Node000004" class="edge">
<title>Node1&#45;&gt;Node4</title>
<g id="a_edge3_Node000001_Node000004"><a xlink:title=" ">
<path fill="none" stroke="#63b8ff" d="M143.83,-109.95C143.83,-101.85 143.83,-92.5 143.83,-84.47"/>
<polygon fill="#63b8ff" stroke="#63b8ff" points="147.33,-84.26 143.83,-74.26 140.33,-84.26 147.33,-84.26"/>
</a>
</g>
</g>
<!-- Node5 -->
<g id="Node000005" class="node">
<title>Node5</title>
<g id="a_Node000005"><a xlink:title=" ">
<polygon fill="#e0e0e0" stroke="#999999" points="300.83,-74 218.83,-74 218.83,-55 300.83,-55 300.83,-74"/>
<text text-anchor="middle" x="259.83" y="-62" font-family="Malgun Gothic" font-size="10.00">IWebSocket.h</text>
</a>
</g>
</g>
<!-- Node1&#45;&gt;Node5 -->
<g id="edge5_Node000001_Node000005" class="edge">
<title>Node1&#45;&gt;Node5</title>
<g id="a_edge5_Node000001_Node000005"><a xlink:title=" ">
<path fill="none" stroke="#63b8ff" d="M179.27,-109.95C197.42,-99.93 219.08,-87.99 235.36,-79"/>
<polygon fill="#63b8ff" stroke="#63b8ff" points="237.19,-81.99 244.26,-74.09 233.81,-75.86 237.19,-81.99"/>
</a>
</g>
</g>
<!-- Node6 -->
<g id="Node000006" class="node">
<title>Node6</title>
<g id="a_Node000006"><a xlink:title=" ">
<polygon fill="#e0e0e0" stroke="#999999" points="494.83,-74 318.83,-74 318.83,-55 494.83,-55 494.83,-74"/>
<text text-anchor="middle" x="406.83" y="-62" font-family="Malgun Gothic" font-size="10.00">UWebSocketSystem.generated.h</text>
</a>
</g>
</g>
<!-- Node1&#45;&gt;Node6 -->
<g id="edge6_Node000001_Node000006" class="edge">
<title>Node1&#45;&gt;Node6</title>
<g id="a_edge6_Node000001_Node000006"><a xlink:title=" ">
<path fill="none" stroke="#63b8ff" d="M222.38,-110.38C267.96,-99.29 323.72,-85.73 361.92,-76.43"/>
<polygon fill="#63b8ff" stroke="#63b8ff" points="362.84,-79.81 371.73,-74.04 361.18,-73.01 362.84,-79.81"/>
</a>
</g>
</g>
<!-- Node4&#45;&gt;Node2 -->
<g id="edge4_Node000004_Node000002" class="edge">
<title>Node4&#45;&gt;Node2</title>
<g id="a_edge4_Node000004_Node000002"><a xlink:title=" ">
<path fill="none" stroke="#63b8ff" d="M130.98,-54.98C118.69,-46.84 99.93,-34.41 85.36,-24.76"/>
<polygon fill="#63b8ff" stroke="#63b8ff" points="87.19,-21.78 76.92,-19.17 83.32,-27.61 87.19,-21.78"/>
</a>
</g>
</g>
</g>
</svg>
