<?xml version="1.0" encoding="UTF-8" standalone="no"?>
<!DOCTYPE svg PUBLIC "-//W3C//DTD SVG 1.1//EN"
 "http://www.w3.org/Graphics/SVG/1.1/DTD/svg11.dtd">
<!-- Generated by graphviz version 2.43.0 (0)
 -->
<!-- Title: Source/YiSan/Environment/Private/UYiSanVoiceConsoleSubsystem.cpp Pages: 1 -->
<svg width="1257pt" height="269pt"
 viewBox="0.00 0.00 1257.00 269.00" xmlns="http://www.w3.org/2000/svg" xmlns:xlink="http://www.w3.org/1999/xlink">
<g id="graph0" class="graph" transform="scale(1 1) rotate(0) translate(4 265)">
<title>Source/YiSan/Environment/Private/UYiSanVoiceConsoleSubsystem.cpp</title>
<!-- Node1 -->
<g id="Node000001" class="node">
<title>Node1</title>
<g id="a_Node000001"><a xlink:title=" ">
<polygon fill="#999999" stroke="#666666" points="613.5,-261 382.5,-261 382.5,-231 613.5,-231 613.5,-261"/>
<text text-anchor="start" x="390.5" y="-249" font-family="Malgun Gothic" font-size="10.00">Source/YiSan/Environment</text>
<text text-anchor="middle" x="498" y="-238" font-family="Malgun Gothic" font-size="10.00">/Private/UYiSanVoiceConsoleSubsystem.cpp</text>
</a>
</g>
</g>
<!-- Node2 -->
<g id="Node000002" class="node">
<title>Node2</title>
<g id="a_Node000002"><a xlink:title=" ">
<polygon fill="#e0e0e0" stroke="#999999" points="172,-189.5 0,-189.5 0,-170.5 172,-170.5 172,-189.5"/>
<text text-anchor="middle" x="86" y="-177.5" font-family="Malgun Gothic" font-size="10.00">YiSanVoiceConsoleSubsystem.h</text>
</a>
</g>
</g>
<!-- Node1&#45;&gt;Node2 -->
<g id="edge1_Node000001_Node000002" class="edge">
<title>Node1&#45;&gt;Node2</title>
<g id="a_edge1_Node000001_Node000002"><a xlink:title=" ">
<path fill="none" stroke="#63b8ff" d="M407.84,-230.99C330.19,-218.93 220.01,-201.82 150.8,-191.07"/>
<polygon fill="#63b8ff" stroke="#63b8ff" points="151.32,-187.6 140.9,-189.53 150.24,-194.52 151.32,-187.6"/>
</a>
</g>
</g>
<!-- Node3 -->
<g id="Node000003" class="node">
<title>Node3</title>
<g id="a_Node000003"><a xlink:href="YiSan_8h.html" target="_top" xlink:title=" ">
<polygon fill="white" stroke="#666666" points="62.5,-129 9.5,-129 9.5,-110 62.5,-110 62.5,-129"/>
<text text-anchor="middle" x="36" y="-117" font-family="Malgun Gothic" font-size="10.00">YiSan.h</text>
</a>
</g>
</g>
<!-- Node1&#45;&gt;Node3 -->
<g id="edge2_Node000001_Node000003" class="edge">
<title>Node1&#45;&gt;Node3</title>
<g id="a_edge2_Node000001_Node000003"><a xlink:title=" ">
<path fill="none" stroke="#63b8ff" d="M382.24,-237.07C330.55,-230.34 269.93,-217.92 219,-195 199.38,-186.17 200.06,-174.99 181,-165 146.27,-146.78 102.87,-134.7 72.64,-127.78"/>
<polygon fill="#63b8ff" stroke="#63b8ff" points="73.06,-124.29 62.54,-125.55 71.55,-131.12 73.06,-124.29"/>
</a>
</g>
</g>
<!-- Node5 -->
<g id="Node000005" class="node">
<title>Node5</title>
<g id="a_Node000005"><a xlink:title=" ">
<polygon fill="#e0e0e0" stroke="#999999" points="498,-189.5 372,-189.5 372,-170.5 498,-170.5 498,-189.5"/>
<text text-anchor="middle" x="435" y="-177.5" font-family="Malgun Gothic" font-size="10.00">Templates/UniquePtr.h</text>
</a>
</g>
</g>
<!-- Node1&#45;&gt;Node5 -->
<g id="edge4_Node000001_Node000005" class="edge">
<title>Node1&#45;&gt;Node5</title>
<g id="a_edge4_Node000001_Node000005"><a xlink:title=" ">
<path fill="none" stroke="#63b8ff" d="M484.02,-230.8C474.2,-220.82 461.04,-207.46 450.83,-197.09"/>
<polygon fill="#63b8ff" stroke="#63b8ff" points="453.22,-194.52 443.71,-189.84 448.23,-199.43 453.22,-194.52"/>
</a>
</g>
</g>
<!-- Node6 -->
<g id="Node000006" class="node">
<title>Node6</title>
<g id="a_Node000006"><a xlink:title=" ">
<polygon fill="#e0e0e0" stroke="#999999" points="605.5,-189.5 516.5,-189.5 516.5,-170.5 605.5,-170.5 605.5,-189.5"/>
<text text-anchor="middle" x="561" y="-177.5" font-family="Malgun Gothic" font-size="10.00">Engine/World.h</text>
</a>
</g>
</g>
<!-- Node1&#45;&gt;Node6 -->
<g id="edge5_Node000001_Node000006" class="edge">
<title>Node1&#45;&gt;Node6</title>
<g id="a_edge5_Node000001_Node000006"><a xlink:title=" ">
<path fill="none" stroke="#63b8ff" d="M511.98,-230.8C521.8,-220.82 534.96,-207.46 545.17,-197.09"/>
<polygon fill="#63b8ff" stroke="#63b8ff" points="547.77,-199.43 552.29,-189.84 542.78,-194.52 547.77,-199.43"/>
</a>
</g>
</g>
<!-- Node7 -->
<g id="Node000007" class="node">
<title>Node7</title>
<g id="a_Node000007"><a xlink:title=" ">
<polygon fill="#e0e0e0" stroke="#999999" points="704.5,-189.5 623.5,-189.5 623.5,-170.5 704.5,-170.5 704.5,-189.5"/>
<text text-anchor="middle" x="664" y="-177.5" font-family="Malgun Gothic" font-size="10.00">EngineUtils.h</text>
</a>
</g>
</g>
<!-- Node1&#45;&gt;Node7 -->
<g id="edge6_Node000001_Node000007" class="edge">
<title>Node1&#45;&gt;Node7</title>
<g id="a_edge6_Node000001_Node000007"><a xlink:title=" ">
<path fill="none" stroke="#63b8ff" d="M534.43,-230.95C563.67,-219.68 604.31,-204.01 632.24,-193.25"/>
<polygon fill="#63b8ff" stroke="#63b8ff" points="633.84,-196.38 641.91,-189.52 631.32,-189.85 633.84,-196.38"/>
</a>
</g>
</g>
<!-- Node8 -->
<g id="Node000008" class="node">
<title>Node8</title>
<g id="a_Node000008"><a xlink:href="APlayerActor_8h.html" target="_top" xlink:title="APlayerActor 선언에 대한 Doxygen 주석을 제공합니다.">
<polygon fill="white" stroke="#666666" points="353.5,-195 228.5,-195 228.5,-165 353.5,-165 353.5,-195"/>
<text text-anchor="start" x="236.5" y="-183" font-family="Malgun Gothic" font-size="10.00">LatteLibrary/Character</text>
<text text-anchor="middle" x="291" y="-172" font-family="Malgun Gothic" font-size="10.00">/Public/APlayerActor.h</text>
</a>
</g>
</g>
<!-- Node1&#45;&gt;Node8 -->
<g id="edge7_Node000001_Node000008" class="edge">
<title>Node1&#45;&gt;Node8</title>
<g id="a_edge7_Node000001_Node000008"><a xlink:title=" ">
<path fill="none" stroke="#63b8ff" d="M452.57,-230.95C421.16,-221.24 379.2,-208.27 345.91,-197.98"/>
<polygon fill="#63b8ff" stroke="#63b8ff" points="346.91,-194.62 336.32,-195.01 344.84,-201.31 346.91,-194.62"/>
</a>
</g>
</g>
<!-- Node21 -->
<g id="Node000021" class="node">
<title>Node21</title>
<g id="a_Node000021"><a xlink:title=" ">
<polygon fill="#e0e0e0" stroke="#999999" points="911.5,-195 722.5,-195 722.5,-165 911.5,-165 911.5,-195"/>
<text text-anchor="start" x="730.5" y="-183" font-family="Malgun Gothic" font-size="10.00">LatteLibrary/Character</text>
<text text-anchor="middle" x="817" y="-172" font-family="Malgun Gothic" font-size="10.00">/Public/UVoiceCaptureComponent.h</text>
</a>
</g>
</g>
<!-- Node1&#45;&gt;Node21 -->
<g id="edge25_Node000001_Node000021" class="edge">
<title>Node1&#45;&gt;Node21</title>
<g id="a_edge25_Node000001_Node000021"><a xlink:title=" ">
<path fill="none" stroke="#63b8ff" d="M568.01,-230.95C617.97,-220.93 685.26,-207.43 737.3,-196.99"/>
<polygon fill="#63b8ff" stroke="#63b8ff" points="738.04,-200.41 747.16,-195.01 736.66,-193.55 738.04,-200.41"/>
</a>
</g>
</g>
<!-- Node22 -->
<g id="Node000022" class="node">
<title>Node22</title>
<g id="a_Node000022"><a xlink:title=" ">
<polygon fill="#e0e0e0" stroke="#999999" points="1062,-189.5 930,-189.5 930,-170.5 1062,-170.5 1062,-189.5"/>
<text text-anchor="middle" x="996" y="-177.5" font-family="Malgun Gothic" font-size="10.00">HAL/IConsoleManager.h</text>
</a>
</g>
</g>
<!-- Node1&#45;&gt;Node22 -->
<g id="edge26_Node000001_Node000022" class="edge">
<title>Node1&#45;&gt;Node22</title>
<g id="a_edge26_Node000001_Node000022"><a xlink:title=" ">
<path fill="none" stroke="#63b8ff" d="M613.63,-233.44C698.81,-224.41 817.37,-210.78 921,-195 928.11,-193.92 935.58,-192.66 942.94,-191.36"/>
<polygon fill="#63b8ff" stroke="#63b8ff" points="943.64,-194.79 952.85,-189.56 942.39,-187.9 943.64,-194.79"/>
</a>
</g>
</g>
<!-- Node4 -->
<g id="Node000004" class="node">
<title>Node4</title>
<g id="a_Node000004"><a xlink:title=" ">
<polygon fill="#e0e0e0" stroke="#999999" points="435,-19 347,-19 347,0 435,0 435,-19"/>
<text text-anchor="middle" x="391" y="-7" font-family="Malgun Gothic" font-size="10.00">CoreMinimal.h</text>
</a>
</g>
</g>
<!-- Node3&#45;&gt;Node4 -->
<g id="edge3_Node000003_Node000004" class="edge">
<title>Node3&#45;&gt;Node4</title>
<g id="a_edge3_Node000003_Node000004"><a xlink:title=" ">
<path fill="none" stroke="#63b8ff" d="M34.43,-109.65C32.55,-95.86 31.28,-69.32 46,-55 86.25,-15.86 250.04,-10.1 336.67,-9.88"/>
<polygon fill="#63b8ff" stroke="#63b8ff" points="336.84,-13.38 346.84,-9.88 336.84,-6.38 336.84,-13.38"/>
</a>
</g>
</g>
<!-- Node8&#45;&gt;Node4 -->
<g id="edge8_Node000008_Node000004" class="edge">
<title>Node8&#45;&gt;Node4</title>
<g id="a_edge8_Node000008_Node000004"><a xlink:title=" ">
<path fill="none" stroke="#63b8ff" d="M309.28,-164.63C320.31,-155.31 334.09,-142.44 344,-129 367.01,-97.8 380.54,-53.81 386.78,-29.15"/>
<polygon fill="#63b8ff" stroke="#63b8ff" points="390.22,-29.83 389.15,-19.29 383.41,-28.2 390.22,-29.83"/>
</a>
</g>
</g>
<!-- Node9 -->
<g id="Node000009" class="node">
<title>Node9</title>
<g id="a_Node000009"><a xlink:href="AGameCharacter_8h.html" target="_top" xlink:title="LatteLibrary 전반에서 사용하는 기반 캐릭터 클래스를 선언합니다.">
<polygon fill="white" stroke="#666666" points="839,-129 731,-129 731,-110 839,-110 839,-129"/>
<text text-anchor="middle" x="785" y="-117" font-family="Malgun Gothic" font-size="10.00">AGameCharacter.h</text>
</a>
</g>
</g>
<!-- Node8&#45;&gt;Node9 -->
<g id="edge9_Node000008_Node000009" class="edge">
<title>Node8&#45;&gt;Node9</title>
<g id="a_edge9_Node000008_Node000009"><a xlink:title=" ">
<path fill="none" stroke="#63b8ff" d="M353.77,-166.46C356.89,-165.94 359.98,-165.45 363,-165 489.24,-146.11 637.92,-132.4 720.83,-125.52"/>
<polygon fill="#63b8ff" stroke="#63b8ff" points="721.17,-129 730.85,-124.69 720.6,-122.03 721.17,-129"/>
</a>
</g>
</g>
<!-- Node17 -->
<g id="Node000017" class="node">
<title>Node17</title>
<g id="a_Node000017"><a xlink:href="IControllable_8h.html" target="_top" xlink:title="IControllable 인터페이스 선언에 대한 Doxygen 주석을 제공합니다.">
<polygon fill="white" stroke="#666666" points="335,-129 247,-129 247,-110 335,-110 335,-129"/>
<text text-anchor="middle" x="291" y="-117" font-family="Malgun Gothic" font-size="10.00">IControllable.h</text>
</a>
</g>
</g>
<!-- Node8&#45;&gt;Node17 -->
<g id="edge20_Node000008_Node000017" class="edge">
<title>Node8&#45;&gt;Node17</title>
<g id="a_edge20_Node000008_Node000017"><a xlink:title=" ">
<path fill="none" stroke="#63b8ff" d="M291,-164.84C291,-157.21 291,-147.7 291,-139.45"/>
<polygon fill="#63b8ff" stroke="#63b8ff" points="294.5,-139.27 291,-129.27 287.5,-139.27 294.5,-139.27"/>
</a>
</g>
</g>
<!-- Node20 -->
<g id="Node000020" class="node">
<title>Node20</title>
<g id="a_Node000020"><a xlink:title=" ">
<polygon fill="#e0e0e0" stroke="#999999" points="229,-129 89,-129 89,-110 229,-110 229,-129"/>
<text text-anchor="middle" x="159" y="-117" font-family="Malgun Gothic" font-size="10.00">APlayerActor.generated.h</text>
</a>
</g>
</g>
<!-- Node8&#45;&gt;Node20 -->
<g id="edge24_Node000008_Node000020" class="edge">
<title>Node8&#45;&gt;Node20</title>
<g id="a_edge24_Node000008_Node000020"><a xlink:title=" ">
<path fill="none" stroke="#63b8ff" d="M259.38,-164.99C237.65,-155.36 209.03,-142.67 187.91,-133.31"/>
<polygon fill="#63b8ff" stroke="#63b8ff" points="189.05,-129.99 178.49,-129.14 186.22,-136.39 189.05,-129.99"/>
</a>
</g>
</g>
<!-- Node9&#45;&gt;Node4 -->
<g id="edge10_Node000009_Node000004" class="edge">
<title>Node9&#45;&gt;Node4</title>
<g id="a_edge10_Node000009_Node000004"><a xlink:title=" ">
<path fill="none" stroke="#63b8ff" d="M785.34,-109.96C785.37,-96.09 783.22,-68.83 767,-55 719.81,-14.75 537.85,-9.66 445.47,-9.76"/>
<polygon fill="#63b8ff" stroke="#63b8ff" points="445.19,-6.27 435.2,-9.8 445.22,-13.27 445.19,-6.27"/>
</a>
</g>
</g>
<!-- Node10 -->
<g id="Node000010" class="node">
<title>Node10</title>
<g id="a_Node000010"><a xlink:title=" ">
<polygon fill="#e0e0e0" stroke="#999999" points="757.5,-74 598.5,-74 598.5,-55 757.5,-55 757.5,-74"/>
<text text-anchor="middle" x="678" y="-62" font-family="Malgun Gothic" font-size="10.00">GameFramework/Character.h</text>
</a>
</g>
</g>
<!-- Node9&#45;&gt;Node10 -->
<g id="edge11_Node000009_Node000010" class="edge">
<title>Node9&#45;&gt;Node10</title>
<g id="a_edge11_Node000009_Node000010"><a xlink:title=" ">
<path fill="none" stroke="#63b8ff" d="M767.81,-109.98C750.75,-101.54 724.37,-88.47 704.6,-78.68"/>
<polygon fill="#63b8ff" stroke="#63b8ff" points="706.02,-75.47 695.5,-74.17 702.91,-81.75 706.02,-75.47"/>
</a>
</g>
</g>
<!-- Node11 -->
<g id="Node000011" class="node">
<title>Node11</title>
<g id="a_Node000011"><a xlink:href="EBodyPartType_8h.html" target="_top" xlink:title="EBodyPartType 열거형에 대한 Doxygen 주석을 제공합니다.">
<polygon fill="white" stroke="#666666" points="949,-74 851,-74 851,-55 949,-55 949,-74"/>
<text text-anchor="middle" x="900" y="-62" font-family="Malgun Gothic" font-size="10.00">EBodyPartType.h</text>
</a>
</g>
</g>
<!-- Node9&#45;&gt;Node11 -->
<g id="edge12_Node000009_Node000011" class="edge">
<title>Node9&#45;&gt;Node11</title>
<g id="a_edge12_Node000009_Node000011"><a xlink:title=" ">
<path fill="none" stroke="#63b8ff" d="M803.48,-109.98C821.98,-101.46 850.68,-88.23 871.98,-78.41"/>
<polygon fill="#63b8ff" stroke="#63b8ff" points="873.57,-81.53 881.19,-74.17 870.64,-75.18 873.57,-81.53"/>
</a>
</g>
</g>
<!-- Node12 -->
<g id="Node000012" class="node">
<title>Node12</title>
<g id="a_Node000012"><a xlink:href="ECharacterType_8h.html" target="_top" xlink:title="ECharacterType 열거형에 대한 Doxygen 주석을 제공합니다.">
<polygon fill="white" stroke="#666666" points="881.5,-19 780.5,-19 780.5,0 881.5,0 881.5,-19"/>
<text text-anchor="middle" x="831" y="-7" font-family="Malgun Gothic" font-size="10.00">ECharacterType.h</text>
</a>
</g>
</g>
<!-- Node9&#45;&gt;Node12 -->
<g id="edge13_Node000009_Node000012" class="edge">
<title>Node9&#45;&gt;Node12</title>
<g id="a_edge13_Node000009_Node000012"><a xlink:title=" ">
<path fill="none" stroke="#63b8ff" d="M788.76,-109.66C796.28,-92.01 813.29,-52.09 823.28,-28.64"/>
<polygon fill="#63b8ff" stroke="#63b8ff" points="826.61,-29.73 827.31,-19.16 820.17,-26.99 826.61,-29.73"/>
</a>
</g>
</g>
<!-- Node13 -->
<g id="Node000013" class="node">
<title>Node13</title>
<g id="a_Node000013"><a xlink:href="UStatSystem_8h.html" target="_top" xlink:title="UStatSystem 선언에 대한 Doxygen 주석을 제공합니다.">
<polygon fill="white" stroke="#666666" points="1056.5,-74 967.5,-74 967.5,-55 1056.5,-55 1056.5,-74"/>
<text text-anchor="middle" x="1012" y="-62" font-family="Malgun Gothic" font-size="10.00">UStatSystem.h</text>
</a>
</g>
</g>
<!-- Node9&#45;&gt;Node13 -->
<g id="edge14_Node000009_Node000013" class="edge">
<title>Node9&#45;&gt;Node13</title>
<g id="a_edge14_Node000009_Node000013"><a xlink:title=" ">
<path fill="none" stroke="#63b8ff" d="M821.47,-109.98C860.57,-100.86 922.77,-86.33 965.39,-76.38"/>
<polygon fill="#63b8ff" stroke="#63b8ff" points="966.3,-79.76 975.24,-74.08 964.71,-72.95 966.3,-79.76"/>
</a>
</g>
</g>
<!-- Node16 -->
<g id="Node000016" class="node">
<title>Node16</title>
<g id="a_Node000016"><a xlink:title=" ">
<polygon fill="#e0e0e0" stroke="#999999" points="580.5,-74 419.5,-74 419.5,-55 580.5,-55 580.5,-74"/>
<text text-anchor="middle" x="500" y="-62" font-family="Malgun Gothic" font-size="10.00">AGameCharacter.generated.h</text>
</a>
</g>
</g>
<!-- Node9&#45;&gt;Node16 -->
<g id="edge19_Node000009_Node000016" class="edge">
<title>Node9&#45;&gt;Node16</title>
<g id="a_edge19_Node000009_Node000016"><a xlink:title=" ">
<path fill="none" stroke="#63b8ff" d="M739.21,-109.98C689.39,-100.72 609.72,-85.9 556.16,-75.94"/>
<polygon fill="#63b8ff" stroke="#63b8ff" points="556.62,-72.47 546.15,-74.08 555.34,-79.35 556.62,-72.47"/>
</a>
</g>
</g>
<!-- Node13&#45;&gt;Node4 -->
<g id="edge15_Node000013_Node000004" class="edge">
<title>Node13&#45;&gt;Node4</title>
<g id="a_edge15_Node000013_Node000004"><a xlink:title=" ">
<path fill="none" stroke="#63b8ff" d="M967.25,-56.18C964.12,-55.75 961.02,-55.36 958,-55 770.47,-32.92 546.72,-18.99 445.5,-13.36"/>
<polygon fill="#63b8ff" stroke="#63b8ff" points="445.4,-9.85 435.23,-12.8 445.02,-16.84 445.4,-9.85"/>
</a>
</g>
</g>
<!-- Node13&#45;&gt;Node12 -->
<g id="edge16_Node000013_Node000012" class="edge">
<title>Node13&#45;&gt;Node12</title>
<g id="a_edge16_Node000013_Node000012"><a xlink:title=" ">
<path fill="none" stroke="#63b8ff" d="M982.92,-54.98C952.4,-46.05 904.24,-31.94 870.34,-22.02"/>
<polygon fill="#63b8ff" stroke="#63b8ff" points="870.89,-18.53 860.31,-19.08 868.92,-25.25 870.89,-18.53"/>
</a>
</g>
</g>
<!-- Node14 -->
<g id="Node000014" class="node">
<title>Node14</title>
<g id="a_Node000014"><a xlink:title=" ">
<polygon fill="#e0e0e0" stroke="#999999" points="1089,-19 917,-19 917,0 1089,0 1089,-19"/>
<text text-anchor="middle" x="1003" y="-7" font-family="Malgun Gothic" font-size="10.00">Components/ActorComponent.h</text>
</a>
</g>
</g>
<!-- Node13&#45;&gt;Node14 -->
<g id="edge17_Node000013_Node000014" class="edge">
<title>Node13&#45;&gt;Node14</title>
<g id="a_edge17_Node000013_Node000014"><a xlink:title=" ">
<path fill="none" stroke="#63b8ff" d="M1010.51,-54.75C1009.33,-47.8 1007.64,-37.85 1006.16,-29.13"/>
<polygon fill="#63b8ff" stroke="#63b8ff" points="1009.58,-28.36 1004.46,-19.09 1002.68,-29.53 1009.58,-28.36"/>
</a>
</g>
</g>
<!-- Node15 -->
<g id="Node000015" class="node">
<title>Node15</title>
<g id="a_Node000015"><a xlink:title=" ">
<polygon fill="#e0e0e0" stroke="#999999" points="1249,-19 1107,-19 1107,0 1249,0 1249,-19"/>
<text text-anchor="middle" x="1178" y="-7" font-family="Malgun Gothic" font-size="10.00">UStatSystem.generated.h</text>
</a>
</g>
</g>
<!-- Node13&#45;&gt;Node15 -->
<g id="edge18_Node000013_Node000015" class="edge">
<title>Node13&#45;&gt;Node15</title>
<g id="a_edge18_Node000013_Node000015"><a xlink:title=" ">
<path fill="none" stroke="#63b8ff" d="M1038.67,-54.98C1066.54,-46.09 1110.45,-32.07 1141.52,-22.15"/>
<polygon fill="#63b8ff" stroke="#63b8ff" points="1142.66,-25.46 1151.12,-19.08 1140.53,-18.79 1142.66,-25.46"/>
</a>
</g>
</g>
<!-- Node17&#45;&gt;Node4 -->
<g id="edge21_Node000017_Node000004" class="edge">
<title>Node17&#45;&gt;Node4</title>
<g id="a_edge21_Node000017_Node000004"><a xlink:title=" ">
<path fill="none" stroke="#63b8ff" d="M276,-109.94C256.67,-97.81 227.19,-74.88 242,-55 263.71,-25.86 303.77,-15.06 336.89,-11.37"/>
<polygon fill="#63b8ff" stroke="#63b8ff" points="337.28,-14.85 346.91,-10.44 336.63,-7.88 337.28,-14.85"/>
</a>
</g>
</g>
<!-- Node18 -->
<g id="Node000018" class="node">
<title>Node18</title>
<g id="a_Node000018"><a xlink:title=" ">
<polygon fill="#e0e0e0" stroke="#999999" points="362.5,-74 251.5,-74 251.5,-55 362.5,-55 362.5,-74"/>
<text text-anchor="middle" x="307" y="-62" font-family="Malgun Gothic" font-size="10.00">UObject/Interface.h</text>
</a>
</g>
</g>
<!-- Node17&#45;&gt;Node18 -->
<g id="edge22_Node000017_Node000018" class="edge">
<title>Node17&#45;&gt;Node18</title>
<g id="a_edge22_Node000017_Node000018"><a xlink:title=" ">
<path fill="none" stroke="#63b8ff" d="M293.64,-109.75C295.76,-102.72 298.81,-92.62 301.46,-83.84"/>
<polygon fill="#63b8ff" stroke="#63b8ff" points="304.87,-84.67 304.41,-74.09 298.17,-82.65 304.87,-84.67"/>
</a>
</g>
</g>
<!-- Node19 -->
<g id="Node000019" class="node">
<title>Node19</title>
<g id="a_Node000019"><a xlink:title=" ">
<polygon fill="#e0e0e0" stroke="#999999" points="195,-74 55,-74 55,-55 195,-55 195,-74"/>
<text text-anchor="middle" x="125" y="-62" font-family="Malgun Gothic" font-size="10.00">IControllable.generated.h</text>
</a>
</g>
</g>
<!-- Node17&#45;&gt;Node19 -->
<g id="edge23_Node000017_Node000019" class="edge">
<title>Node17&#45;&gt;Node19</title>
<g id="a_edge23_Node000017_Node000019"><a xlink:title=" ">
<path fill="none" stroke="#63b8ff" d="M264.33,-109.98C236.46,-101.09 192.55,-87.07 161.48,-77.15"/>
<polygon fill="#63b8ff" stroke="#63b8ff" points="162.47,-73.79 151.88,-74.08 160.34,-80.46 162.47,-73.79"/>
</a>
</g>
</g>
</g>
</svg>
