<?xml version="1.0" encoding="UTF-8" standalone="no"?>
<!DOCTYPE svg PUBLIC "-//W3C//DTD SVG 1.1//EN"
 "http://www.w3.org/Graphics/SVG/1.1/DTD/svg11.dtd">
<!-- Generated by graphviz version 2.43.0 (0)
 -->
<!-- Title: Source/LatteLibrary/Manager/Public/UYiSanVoiceConsoleSubsystem.h Pages: 1 -->
<svg width="870pt" height="104pt"
 viewBox="0.00 0.00 870.00 104.00" xmlns="http://www.w3.org/2000/svg" xmlns:xlink="http://www.w3.org/1999/xlink">
<g id="graph0" class="graph" transform="scale(1 1) rotate(0) translate(4 100)">
<title>Source/LatteLibrary/Manager/Public/UYiSanVoiceConsoleSubsystem.h</title>
<!-- Node1 -->
<g id="Node000001" class="node">
<title>Node1</title>
<g id="a_Node000001"><a xlink:title=" ">
<polygon fill="#999999" stroke="#666666" points="478,-96 320,-96 320,-55 478,-55 478,-96"/>
<text text-anchor="start" x="328" y="-84" font-family="Malgun Gothic" font-size="10.00">Source/LatteLibrary</text>
<text text-anchor="start" x="328" y="-73" font-family="Malgun Gothic" font-size="10.00">/Manager/Public/UYiSanVoice</text>
<text text-anchor="middle" x="399" y="-62" font-family="Malgun Gothic" font-size="10.00">ConsoleSubsystem.h</text>
</a>
</g>
</g>
<!-- Node2 -->
<g id="Node000002" class="node">
<title>Node2</title>
<g id="a_Node000002"><a xlink:title=" ">
<polygon fill="#e0e0e0" stroke="#999999" points="88,-19 0,-19 0,0 88,0 88,-19"/>
<text text-anchor="middle" x="44" y="-7" font-family="Malgun Gothic" font-size="10.00">CoreMinimal.h</text>
</a>
</g>
</g>
<!-- Node1&#45;&gt;Node2 -->
<g id="edge1_Node000001_Node000002" class="edge">
<title>Node1&#45;&gt;Node2</title>
<g id="a_edge1_Node000001_Node000002"><a xlink:title=" ">
<path fill="none" stroke="#63b8ff" d="M319.77,-60.22C252.36,-48.06 157.32,-30.93 98.25,-20.28"/>
<polygon fill="#63b8ff" stroke="#63b8ff" points="98.83,-16.83 88.37,-18.5 97.59,-23.72 98.83,-16.83"/>
</a>
</g>
</g>
<!-- Node3 -->
<g id="Node000003" class="node">
<title>Node3</title>
<g id="a_Node000003"><a xlink:title=" ">
<polygon fill="#e0e0e0" stroke="#999999" points="318,-19 106,-19 106,0 318,0 318,-19"/>
<text text-anchor="middle" x="212" y="-7" font-family="Malgun Gothic" font-size="10.00">Subsystems/GameInstanceSubsystem.h</text>
</a>
</g>
</g>
<!-- Node1&#45;&gt;Node3 -->
<g id="edge2_Node000001_Node000003" class="edge">
<title>Node1&#45;&gt;Node3</title>
<g id="a_edge2_Node000001_Node000003"><a xlink:title=" ">
<path fill="none" stroke="#63b8ff" d="M341.88,-54.95C310.83,-44.32 273.44,-31.53 246.77,-22.4"/>
<polygon fill="#63b8ff" stroke="#63b8ff" points="247.7,-19.02 237.1,-19.09 245.43,-25.64 247.7,-19.02"/>
</a>
</g>
</g>
<!-- Node4 -->
<g id="Node000004" class="node">
<title>Node4</title>
<g id="a_Node000004"><a xlink:title=" ">
<polygon fill="#e0e0e0" stroke="#999999" points="462,-19 336,-19 336,0 462,0 462,-19"/>
<text text-anchor="middle" x="399" y="-7" font-family="Malgun Gothic" font-size="10.00">Templates/UniquePtr.h</text>
</a>
</g>
</g>
<!-- Node1&#45;&gt;Node4 -->
<g id="edge3_Node000001_Node000004" class="edge">
<title>Node1&#45;&gt;Node4</title>
<g id="a_edge3_Node000001_Node000004"><a xlink:title=" ">
<path fill="none" stroke="#63b8ff" d="M399,-54.95C399,-46.85 399,-37.5 399,-29.47"/>
<polygon fill="#63b8ff" stroke="#63b8ff" points="402.5,-29.26 399,-19.26 395.5,-29.26 402.5,-29.26"/>
</a>
</g>
</g>
<!-- Node5 -->
<g id="Node000005" class="node">
<title>Node5</title>
<g id="a_Node000005"><a xlink:title=" ">
<polygon fill="#e0e0e0" stroke="#999999" points="612,-19 480,-19 480,0 612,0 612,-19"/>
<text text-anchor="middle" x="546" y="-7" font-family="Malgun Gothic" font-size="10.00">HAL/IConsoleManager.h</text>
</a>
</g>
</g>
<!-- Node1&#45;&gt;Node5 -->
<g id="edge4_Node000001_Node000005" class="edge">
<title>Node1&#45;&gt;Node5</title>
<g id="a_edge4_Node000001_Node000005"><a xlink:title=" ">
<path fill="none" stroke="#63b8ff" d="M443.9,-54.95C467.67,-44.6 496.15,-32.2 516.99,-23.13"/>
<polygon fill="#63b8ff" stroke="#63b8ff" points="518.49,-26.29 526.27,-19.09 515.7,-19.87 518.49,-26.29"/>
</a>
</g>
</g>
<!-- Node6 -->
<g id="Node000006" class="node">
<title>Node6</title>
<g id="a_Node000006"><a xlink:title=" ">
<polygon fill="#e0e0e0" stroke="#999999" points="862,-19 630,-19 630,0 862,0 862,-19"/>
<text text-anchor="middle" x="746" y="-7" font-family="Malgun Gothic" font-size="10.00">UYiSanVoiceConsoleSubsystem.generated.h</text>
</a>
</g>
</g>
<!-- Node1&#45;&gt;Node6 -->
<g id="edge5_Node000001_Node000006" class="edge">
<title>Node1&#45;&gt;Node6</title>
<g id="a_edge5_Node000001_Node000006"><a xlink:title=" ">
<path fill="none" stroke="#63b8ff" d="M478.17,-59.9C542.71,-47.99 632.26,-31.48 689.67,-20.89"/>
<polygon fill="#63b8ff" stroke="#63b8ff" points="690.45,-24.3 699.65,-19.05 689.18,-17.42 690.45,-24.3"/>
</a>
</g>
</g>
</g>
</svg>
