<?xml version="1.0" encoding="UTF-8" standalone="no"?>
<!DOCTYPE svg PUBLIC "-//W3C//DTD SVG 1.1//EN"
 "http://www.w3.org/Graphics/SVG/1.1/DTD/svg11.dtd">
<!-- Generated by graphviz version 2.43.0 (0)
 -->
<!-- Title: Source/LatteLibrary/Manager/Private/UYiSanVoiceConsoleSubsystem.cpp Pages: 1 -->
<svg width="2244pt" height="269pt"
 viewBox="0.00 0.00 2244.22 269.00" xmlns="http://www.w3.org/2000/svg" xmlns:xlink="http://www.w3.org/1999/xlink">
<g id="graph0" class="graph" transform="scale(1 1) rotate(0) translate(4 265)">
<title>Source/LatteLibrary/Manager/Private/UYiSanVoiceConsoleSubsystem.cpp</title>
<!-- Node1 -->
<g id="Node000001" class="node">
<title>Node1</title>
<g id="a_Node000001"><a xlink:title=" ">
<polygon fill="#999999" stroke="#666666" points="954.22,-261 790.22,-261 790.22,-220 954.22,-220 954.22,-261"/>
<text text-anchor="start" x="798.22" y="-249" font-family="Malgun Gothic" font-size="10.00">Source/LatteLibrary</text>
<text text-anchor="start" x="798.22" y="-238" font-family="Malgun Gothic" font-size="10.00">/Manager/Private/UYiSanVoice</text>
<text text-anchor="middle" x="872.22" y="-227" font-family="Malgun Gothic" font-size="10.00">ConsoleSubsystem.cpp</text>
</a>
</g>
</g>
<!-- Node2 -->
<g id="Node000002" class="node">
<title>Node2</title>
<g id="a_Node000002"><a xlink:href="UYiSanVoiceConsoleSubsystem_8h.html" target="_top" xlink:title=" ">
<polygon fill="white" stroke="#666666" points="552.72,-184 373.72,-184 373.72,-165 552.72,-165 552.72,-184"/>
<text text-anchor="middle" x="463.22" y="-172" font-family="Malgun Gothic" font-size="10.00">UYiSanVoiceConsoleSubsystem.h</text>
</a>
</g>
</g>
<!-- Node1&#45;&gt;Node2 -->
<g id="edge1_Node000001_Node000002" class="edge">
<title>Node1&#45;&gt;Node2</title>
<g id="a_edge1_Node000001_Node000002"><a xlink:title=" ">
<path fill="none" stroke="#63b8ff" d="M789.95,-226.63C712.69,-214.54 598.66,-196.69 527.77,-185.6"/>
<polygon fill="#63b8ff" stroke="#63b8ff" points="528.05,-182.1 517.63,-184.01 526.97,-189.02 528.05,-182.1"/>
</a>
</g>
</g>
<!-- Node5 -->
<g id="Node000005" class="node">
<title>Node5</title>
<g id="a_Node000005"><a xlink:title=" ">
<polygon fill="#e0e0e0" stroke="#999999" points="619.22,-129 493.22,-129 493.22,-110 619.22,-110 619.22,-129"/>
<text text-anchor="middle" x="556.22" y="-117" font-family="Malgun Gothic" font-size="10.00">Templates/UniquePtr.h</text>
</a>
</g>
</g>
<!-- Node1&#45;&gt;Node5 -->
<g id="edge19_Node000001_Node000005" class="edge">
<title>Node1&#45;&gt;Node5</title>
<g id="a_edge19_Node000001_Node000005"><a xlink:title=" ">
<path fill="none" stroke="#63b8ff" d="M820.4,-219.98C754.63,-195.22 643.18,-153.24 588.47,-132.64"/>
<polygon fill="#63b8ff" stroke="#63b8ff" points="589.53,-129.3 578.94,-129.05 587.06,-135.85 589.53,-129.3"/>
</a>
</g>
</g>
<!-- Node6 -->
<g id="Node000006" class="node">
<title>Node6</title>
<g id="a_Node000006"><a xlink:title=" ">
<polygon fill="#e0e0e0" stroke="#999999" points="769.22,-129 637.22,-129 637.22,-110 769.22,-110 769.22,-129"/>
<text text-anchor="middle" x="703.22" y="-117" font-family="Malgun Gothic" font-size="10.00">HAL/IConsoleManager.h</text>
</a>
</g>
</g>
<!-- Node1&#45;&gt;Node6 -->
<g id="edge40_Node000001_Node000006" class="edge">
<title>Node1&#45;&gt;Node6</title>
<g id="a_edge40_Node000001_Node000006"><a xlink:title=" ">
<path fill="none" stroke="#63b8ff" d="M844.32,-219.85C810.5,-196.04 754.31,-156.47 724.05,-135.16"/>
<polygon fill="#63b8ff" stroke="#63b8ff" points="725.74,-132.07 715.55,-129.18 721.71,-137.79 725.74,-132.07"/>
</a>
</g>
</g>
<!-- Node8 -->
<g id="Node000008" class="node">
<title>Node8</title>
<g id="a_Node000008"><a xlink:href="UVoiceCaptureComponent_8h.html" target="_top" xlink:title=" ">
<polygon fill="white" stroke="#666666" points="2073.22,-74 1919.22,-74 1919.22,-55 2073.22,-55 2073.22,-74"/>
<text text-anchor="middle" x="1996.22" y="-62" font-family="Malgun Gothic" font-size="10.00">UVoiceCaptureComponent.h</text>
</a>
</g>
</g>
<!-- Node1&#45;&gt;Node8 -->
<g id="edge7_Node000001_Node000008" class="edge">
<title>Node1&#45;&gt;Node8</title>
<g id="a_edge7_Node000001_Node000008"><a xlink:title=" ">
<path fill="none" stroke="#63b8ff" d="M954.42,-226.78C1168.09,-193.7 1737.77,-105.51 1931.04,-75.59"/>
<polygon fill="#63b8ff" stroke="#63b8ff" points="1931.7,-79.03 1941.04,-74.04 1930.63,-72.11 1931.7,-79.03"/>
</a>
</g>
</g>
<!-- Node11 -->
<g id="Node000011" class="node">
<title>Node11</title>
<g id="a_Node000011"><a xlink:href="GameLogging_8h.html" target="_top" xlink:title="GameLogging 선언에 대한 Doxygen 주석을 제공합니다.">
<polygon fill="white" stroke="#666666" points="880.72,-129 787.72,-129 787.72,-110 880.72,-110 880.72,-129"/>
<text text-anchor="middle" x="834.22" y="-117" font-family="Malgun Gothic" font-size="10.00">GameLogging.h</text>
</a>
</g>
</g>
<!-- Node1&#45;&gt;Node11 -->
<g id="edge11_Node000001_Node000011" class="edge">
<title>Node1&#45;&gt;Node11</title>
<g id="a_edge11_Node000001_Node000011"><a xlink:title=" ">
<path fill="none" stroke="#63b8ff" d="M865.95,-219.85C858.77,-197.37 847.11,-160.86 840.1,-138.91"/>
<polygon fill="#63b8ff" stroke="#63b8ff" points="843.37,-137.64 837,-129.18 836.7,-139.77 843.37,-137.64"/>
</a>
</g>
</g>
<!-- Node16 -->
<g id="Node000016" class="node">
<title>Node16</title>
<g id="a_Node000016"><a xlink:title=" ">
<polygon fill="#e0e0e0" stroke="#999999" points="1059.72,-184 970.72,-184 970.72,-165 1059.72,-165 1059.72,-184"/>
<text text-anchor="middle" x="1015.22" y="-172" font-family="Malgun Gothic" font-size="10.00">Engine/World.h</text>
</a>
</g>
</g>
<!-- Node1&#45;&gt;Node16 -->
<g id="edge20_Node000001_Node000016" class="edge">
<title>Node1&#45;&gt;Node16</title>
<g id="a_edge20_Node000001_Node000016"><a xlink:title=" ">
<path fill="none" stroke="#63b8ff" d="M915.91,-219.95C938.92,-209.65 966.48,-197.31 986.73,-188.25"/>
<polygon fill="#63b8ff" stroke="#63b8ff" points="988.33,-191.37 996.03,-184.09 985.47,-184.98 988.33,-191.37"/>
</a>
</g>
</g>
<!-- Node17 -->
<g id="Node000017" class="node">
<title>Node17</title>
<g id="a_Node000017"><a xlink:title=" ">
<polygon fill="#e0e0e0" stroke="#999999" points="1158.72,-184 1077.72,-184 1077.72,-165 1158.72,-165 1158.72,-184"/>
<text text-anchor="middle" x="1118.22" y="-172" font-family="Malgun Gothic" font-size="10.00">EngineUtils.h</text>
</a>
</g>
</g>
<!-- Node1&#45;&gt;Node17 -->
<g id="edge21_Node000001_Node000017" class="edge">
<title>Node1&#45;&gt;Node17</title>
<g id="a_edge21_Node000001_Node000017"><a xlink:title=" ">
<path fill="none" stroke="#63b8ff" d="M947.37,-219.95C989.42,-209.01 1040.32,-195.77 1075.57,-186.6"/>
<polygon fill="#63b8ff" stroke="#63b8ff" points="1076.73,-189.91 1085.52,-184.01 1074.96,-183.14 1076.73,-189.91"/>
</a>
</g>
</g>
<!-- Node18 -->
<g id="Node000018" class="node">
<title>Node18</title>
<g id="a_Node000018"><a xlink:href="APlayerActor_8h.html" target="_top" xlink:title="Declares the player&#45;controlled character actor.">
<polygon fill="white" stroke="#666666" points="953.22,-184 865.22,-184 865.22,-165 953.22,-165 953.22,-184"/>
<text text-anchor="middle" x="909.22" y="-172" font-family="Malgun Gothic" font-size="10.00">APlayerActor.h</text>
</a>
</g>
</g>
<!-- Node1&#45;&gt;Node18 -->
<g id="edge22_Node000001_Node000018" class="edge">
<title>Node1&#45;&gt;Node18</title>
<g id="a_edge22_Node000001_Node000018"><a xlink:title=" ">
<path fill="none" stroke="#63b8ff" d="M883.53,-219.95C888.48,-211.39 894.24,-201.42 899.05,-193.1"/>
<polygon fill="#63b8ff" stroke="#63b8ff" points="902.19,-194.67 904.16,-184.26 896.13,-191.17 902.19,-194.67"/>
</a>
</g>
</g>
<!-- Node3 -->
<g id="Node000003" class="node">
<title>Node3</title>
<g id="a_Node000003"><a xlink:title=" ">
<polygon fill="#e0e0e0" stroke="#999999" points="953.22,-19 865.22,-19 865.22,0 953.22,0 953.22,-19"/>
<text text-anchor="middle" x="909.22" y="-7" font-family="Malgun Gothic" font-size="10.00">CoreMinimal.h</text>
</a>
</g>
</g>
<!-- Node2&#45;&gt;Node3 -->
<g id="edge2_Node000002_Node000003" class="edge">
<title>Node2&#45;&gt;Node3</title>
<g id="a_edge2_Node000002_Node000003"><a xlink:title=" ">
<path fill="none" stroke="#63b8ff" d="M373.6,-171.16C247.04,-166.92 28.52,-155.77 4.22,-129 -1.45,-122.75 -1.32,-116.37 4.22,-110 60.41,-45.53 668.33,-18.96 855.02,-12.28"/>
<polygon fill="#63b8ff" stroke="#63b8ff" points="855.28,-15.77 865.15,-11.92 855.03,-8.78 855.28,-15.77"/>
</a>
</g>
</g>
<!-- Node4 -->
<g id="Node000004" class="node">
<title>Node4</title>
<g id="a_Node000004"><a xlink:title=" ">
<polygon fill="#e0e0e0" stroke="#999999" points="475.22,-129 263.22,-129 263.22,-110 475.22,-110 475.22,-129"/>
<text text-anchor="middle" x="369.22" y="-117" font-family="Malgun Gothic" font-size="10.00">Subsystems/GameInstanceSubsystem.h</text>
</a>
</g>
</g>
<!-- Node2&#45;&gt;Node4 -->
<g id="edge3_Node000002_Node000004" class="edge">
<title>Node2&#45;&gt;Node4</title>
<g id="a_edge3_Node000002_Node000004"><a xlink:title=" ">
<path fill="none" stroke="#63b8ff" d="M448.12,-164.98C433.41,-156.69 410.8,-143.94 393.55,-134.22"/>
<polygon fill="#63b8ff" stroke="#63b8ff" points="395.03,-131.03 384.6,-129.17 391.59,-137.13 395.03,-131.03"/>
</a>
</g>
</g>
<!-- Node2&#45;&gt;Node5 -->
<g id="edge4_Node000002_Node000005" class="edge">
<title>Node2&#45;&gt;Node5</title>
<g id="a_edge4_Node000002_Node000005"><a xlink:title=" ">
<path fill="none" stroke="#63b8ff" d="M478.17,-164.98C492.72,-156.69 515.09,-143.94 532.16,-134.22"/>
<polygon fill="#63b8ff" stroke="#63b8ff" points="534.06,-137.16 541.01,-129.17 530.59,-131.08 534.06,-137.16"/>
</a>
</g>
</g>
<!-- Node2&#45;&gt;Node6 -->
<g id="edge5_Node000002_Node000006" class="edge">
<title>Node2&#45;&gt;Node6</title>
<g id="a_edge5_Node000002_Node000006"><a xlink:title=" ">
<path fill="none" stroke="#63b8ff" d="M501.79,-164.98C543.3,-155.82 609.44,-141.21 654.52,-131.26"/>
<polygon fill="#63b8ff" stroke="#63b8ff" points="655.35,-134.66 664.36,-129.08 653.84,-127.82 655.35,-134.66"/>
</a>
</g>
</g>
<!-- Node7 -->
<g id="Node000007" class="node">
<title>Node7</title>
<g id="a_Node000007"><a xlink:title=" ">
<polygon fill="#e0e0e0" stroke="#999999" points="245.22,-129 13.22,-129 13.22,-110 245.22,-110 245.22,-129"/>
<text text-anchor="middle" x="129.22" y="-117" font-family="Malgun Gothic" font-size="10.00">UYiSanVoiceConsoleSubsystem.generated.h</text>
</a>
</g>
</g>
<!-- Node2&#45;&gt;Node7 -->
<g id="edge6_Node000002_Node000007" class="edge">
<title>Node2&#45;&gt;Node7</title>
<g id="a_edge6_Node000002_Node000007"><a xlink:title=" ">
<path fill="none" stroke="#63b8ff" d="M409.56,-164.98C350.61,-155.63 255.98,-140.61 193.21,-130.65"/>
<polygon fill="#63b8ff" stroke="#63b8ff" points="193.46,-127.15 183.03,-129.04 192.36,-134.06 193.46,-127.15"/>
</a>
</g>
</g>
<!-- Node8&#45;&gt;Node3 -->
<g id="edge8_Node000008_Node000003" class="edge">
<title>Node8&#45;&gt;Node3</title>
<g id="a_edge8_Node000008_Node000003"><a xlink:title=" ">
<path fill="none" stroke="#63b8ff" d="M1918.89,-55.66C1915.96,-55.42 1913.07,-55.2 1910.22,-55 1549.73,-29.19 1115.06,-15.96 964.05,-11.9"/>
<polygon fill="#63b8ff" stroke="#63b8ff" points="963.76,-8.39 953.68,-11.62 963.58,-15.38 963.76,-8.39"/>
</a>
</g>
</g>
<!-- Node9 -->
<g id="Node000009" class="node">
<title>Node9</title>
<g id="a_Node000009"><a xlink:title=" ">
<polygon fill="#e0e0e0" stroke="#999999" points="2012.22,-19 1840.22,-19 1840.22,0 2012.22,0 2012.22,-19"/>
<text text-anchor="middle" x="1926.22" y="-7" font-family="Malgun Gothic" font-size="10.00">Components/ActorComponent.h</text>
</a>
</g>
</g>
<!-- Node8&#45;&gt;Node9 -->
<g id="edge9_Node000008_Node000009" class="edge">
<title>Node8&#45;&gt;Node9</title>
<g id="a_edge9_Node000008_Node000009"><a xlink:title=" ">
<path fill="none" stroke="#63b8ff" d="M1984.98,-54.98C1974.43,-47 1958.42,-34.88 1945.78,-25.31"/>
<polygon fill="#63b8ff" stroke="#63b8ff" points="1947.76,-22.42 1937.68,-19.17 1943.54,-28 1947.76,-22.42"/>
</a>
</g>
</g>
<!-- Node10 -->
<g id="Node000010" class="node">
<title>Node10</title>
<g id="a_Node000010"><a xlink:title=" ">
<polygon fill="#e0e0e0" stroke="#999999" points="2236.22,-19 2030.22,-19 2030.22,0 2236.22,0 2236.22,-19"/>
<text text-anchor="middle" x="2133.22" y="-7" font-family="Malgun Gothic" font-size="10.00">UVoiceCaptureComponent.generated.h</text>
</a>
</g>
</g>
<!-- Node8&#45;&gt;Node10 -->
<g id="edge10_Node000008_Node000010" class="edge">
<title>Node8&#45;&gt;Node10</title>
<g id="a_edge10_Node000008_Node000010"><a xlink:title=" ">
<path fill="none" stroke="#63b8ff" d="M2018.24,-54.98C2040.67,-46.3 2075.71,-32.75 2101.21,-22.88"/>
<polygon fill="#63b8ff" stroke="#63b8ff" points="2102.75,-26.04 2110.81,-19.17 2100.22,-19.51 2102.75,-26.04"/>
</a>
</g>
</g>
<!-- Node11&#45;&gt;Node3 -->
<g id="edge12_Node000011_Node000003" class="edge">
<title>Node11&#45;&gt;Node3</title>
<g id="a_edge12_Node000011_Node000003"><a xlink:title=" ">
<path fill="none" stroke="#63b8ff" d="M821.97,-109.94C805.85,-97.62 781.04,-74.24 794.22,-55 808.03,-34.85 832.38,-23.82 855.13,-17.79"/>
<polygon fill="#63b8ff" stroke="#63b8ff" points="856.16,-21.14 865.09,-15.42 854.55,-14.33 856.16,-21.14"/>
</a>
</g>
</g>
<!-- Node12 -->
<g id="Node000012" class="node">
<title>Node12</title>
<g id="a_Node000012"><a xlink:title=" ">
<polygon fill="#e0e0e0" stroke="#999999" points="531.72,-74 412.72,-74 412.72,-55 531.72,-55 531.72,-74"/>
<text text-anchor="middle" x="472.22" y="-62" font-family="Malgun Gothic" font-size="10.00">Logging/LogMacros.h</text>
</a>
</g>
</g>
<!-- Node11&#45;&gt;Node12 -->
<g id="edge13_Node000011_Node000012" class="edge">
<title>Node11&#45;&gt;Node12</title>
<g id="a_edge13_Node000011_Node000012"><a xlink:title=" ">
<path fill="none" stroke="#63b8ff" d="M787.48,-111.38C784.35,-110.91 781.24,-110.45 778.22,-110 696.99,-97.93 603.57,-84.39 541.54,-75.45"/>
<polygon fill="#63b8ff" stroke="#63b8ff" points="541.87,-71.97 531.47,-74 540.87,-78.89 541.87,-71.97"/>
</a>
</g>
</g>
<!-- Node13 -->
<g id="Node000013" class="node">
<title>Node13</title>
<g id="a_Node000013"><a xlink:title=" ">
<polygon fill="#e0e0e0" stroke="#999999" points="644.72,-74 549.72,-74 549.72,-55 644.72,-55 644.72,-74"/>
<text text-anchor="middle" x="597.22" y="-62" font-family="Malgun Gothic" font-size="10.00">Engine/Engine.h</text>
</a>
</g>
</g>
<!-- Node11&#45;&gt;Node13 -->
<g id="edge14_Node000011_Node000013" class="edge">
<title>Node11&#45;&gt;Node13</title>
<g id="a_edge14_Node000011_Node000013"><a xlink:title=" ">
<path fill="none" stroke="#63b8ff" d="M796.15,-109.98C755.24,-100.84 690.12,-86.27 645.61,-76.32"/>
<polygon fill="#63b8ff" stroke="#63b8ff" points="646.12,-72.85 635.6,-74.08 644.6,-79.68 646.12,-72.85"/>
</a>
</g>
</g>
<!-- Node14 -->
<g id="Node000014" class="node">
<title>Node14</title>
<g id="a_Node000014"><a xlink:href="FLogWriter_8h.html" target="_top" xlink:title="FLogWriter 선언에 대한 Doxygen 주석을 제공합니다.">
<polygon fill="white" stroke="#666666" points="881.22,-74 803.22,-74 803.22,-55 881.22,-55 881.22,-74"/>
<text text-anchor="middle" x="842.22" y="-62" font-family="Malgun Gothic" font-size="10.00">FLogWriter.h</text>
</a>
</g>
</g>
<!-- Node11&#45;&gt;Node14 -->
<g id="edge15_Node000011_Node000014" class="edge">
<title>Node11&#45;&gt;Node14</title>
<g id="a_edge15_Node000011_Node000014"><a xlink:title=" ">
<path fill="none" stroke="#63b8ff" d="M835.55,-109.75C836.59,-102.8 838.1,-92.85 839.41,-84.13"/>
<polygon fill="#63b8ff" stroke="#63b8ff" points="842.9,-84.5 840.93,-74.09 835.98,-83.45 842.9,-84.5"/>
</a>
</g>
</g>
<!-- Node15 -->
<g id="Node000015" class="node">
<title>Node15</title>
<g id="a_Node000015"><a xlink:href="NetworkLog_8h.html" target="_top" xlink:title="NetworkLog 선언에 대한 Doxygen 주석을 제공합니다.">
<polygon fill="white" stroke="#666666" points="747.22,-74 663.22,-74 663.22,-55 747.22,-55 747.22,-74"/>
<text text-anchor="middle" x="705.22" y="-62" font-family="Malgun Gothic" font-size="10.00">NetworkLog.h</text>
</a>
</g>
</g>
<!-- Node11&#45;&gt;Node15 -->
<g id="edge17_Node000011_Node000015" class="edge">
<title>Node11&#45;&gt;Node15</title>
<g id="a_edge17_Node000011_Node000015"><a xlink:title=" ">
<path fill="none" stroke="#63b8ff" d="M813.5,-109.98C792.47,-101.34 759.68,-87.87 735.69,-78.02"/>
<polygon fill="#63b8ff" stroke="#63b8ff" points="736.91,-74.73 726.33,-74.17 734.25,-81.21 736.91,-74.73"/>
</a>
</g>
</g>
<!-- Node14&#45;&gt;Node3 -->
<g id="edge16_Node000014_Node000003" class="edge">
<title>Node14&#45;&gt;Node3</title>
<g id="a_edge16_Node000014_Node000003"><a xlink:title=" ">
<path fill="none" stroke="#63b8ff" d="M852.99,-54.98C862.99,-47.07 878.11,-35.11 890.16,-25.58"/>
<polygon fill="#63b8ff" stroke="#63b8ff" points="892.59,-28.12 898.26,-19.17 888.25,-22.63 892.59,-28.12"/>
</a>
</g>
</g>
<!-- Node15&#45;&gt;Node3 -->
<g id="edge18_Node000015_Node000003" class="edge">
<title>Node15&#45;&gt;Node3</title>
<g id="a_edge18_Node000015_Node000003"><a xlink:title=" ">
<path fill="none" stroke="#63b8ff" d="M738,-54.98C772.84,-45.93 828.09,-31.58 866.36,-21.64"/>
<polygon fill="#63b8ff" stroke="#63b8ff" points="867.39,-24.98 876.19,-19.08 865.63,-18.21 867.39,-24.98"/>
</a>
</g>
</g>
<!-- Node18&#45;&gt;Node3 -->
<g id="edge23_Node000018_Node000003" class="edge">
<title>Node18&#45;&gt;Node3</title>
<g id="a_edge23_Node000018_Node000003"><a xlink:title=" ">
<path fill="none" stroke="#63b8ff" d="M909.22,-164.74C909.22,-139.31 909.22,-65.08 909.22,-29.69"/>
<polygon fill="#63b8ff" stroke="#63b8ff" points="912.73,-29.31 909.22,-19.31 905.73,-29.31 912.73,-29.31"/>
</a>
</g>
</g>
<!-- Node19 -->
<g id="Node000019" class="node">
<title>Node19</title>
<g id="a_Node000019"><a xlink:href="AGameCharacter_8h.html" target="_top" xlink:title="LatteLibrary 전반에서 사용하는 기반 캐릭터 클래스를 선언합니다.">
<polygon fill="white" stroke="#666666" points="1474.22,-129 1366.22,-129 1366.22,-110 1474.22,-110 1474.22,-129"/>
<text text-anchor="middle" x="1420.22" y="-117" font-family="Malgun Gothic" font-size="10.00">AGameCharacter.h</text>
</a>
</g>
</g>
<!-- Node18&#45;&gt;Node19 -->
<g id="edge24_Node000018_Node000019" class="edge">
<title>Node18&#45;&gt;Node19</title>
<g id="a_edge24_Node000018_Node000019"><a xlink:title=" ">
<path fill="none" stroke="#63b8ff" d="M953.44,-166.2C956.41,-165.77 959.36,-165.37 962.22,-165 1102.27,-146.98 1267.26,-132.63 1355.99,-125.47"/>
<polygon fill="#63b8ff" stroke="#63b8ff" points="1356.48,-128.95 1366.17,-124.66 1355.92,-121.97 1356.48,-128.95"/>
</a>
</g>
</g>
<!-- Node26 -->
<g id="Node000026" class="node">
<title>Node26</title>
<g id="a_Node000026"><a xlink:href="IControllable_8h.html" target="_top" xlink:title="IControllable 인터페이스 선언에 대한 Doxygen 주석을 제공합니다.">
<polygon fill="white" stroke="#666666" points="1025.22,-129 937.22,-129 937.22,-110 1025.22,-110 1025.22,-129"/>
<text text-anchor="middle" x="981.22" y="-117" font-family="Malgun Gothic" font-size="10.00">IControllable.h</text>
</a>
</g>
</g>
<!-- Node18&#45;&gt;Node26 -->
<g id="edge35_Node000018_Node000026" class="edge">
<title>Node18&#45;&gt;Node26</title>
<g id="a_edge35_Node000018_Node000026"><a xlink:title=" ">
<path fill="none" stroke="#63b8ff" d="M920.79,-164.98C931.65,-157 948.11,-144.88 961.11,-135.31"/>
<polygon fill="#63b8ff" stroke="#63b8ff" points="963.47,-137.92 969.45,-129.17 959.32,-132.28 963.47,-137.92"/>
</a>
</g>
</g>
<!-- Node29 -->
<g id="Node000029" class="node">
<title>Node29</title>
<g id="a_Node000029"><a xlink:title=" ">
<polygon fill="#e0e0e0" stroke="#999999" points="1183.22,-129 1043.22,-129 1043.22,-110 1183.22,-110 1183.22,-129"/>
<text text-anchor="middle" x="1113.22" y="-117" font-family="Malgun Gothic" font-size="10.00">APlayerActor.generated.h</text>
</a>
</g>
</g>
<!-- Node18&#45;&gt;Node29 -->
<g id="edge39_Node000018_Node000029" class="edge">
<title>Node18&#45;&gt;Node29</title>
<g id="a_edge39_Node000018_Node000029"><a xlink:title=" ">
<path fill="none" stroke="#63b8ff" d="M942,-164.98C976.84,-155.93 1032.09,-141.58 1070.36,-131.64"/>
<polygon fill="#63b8ff" stroke="#63b8ff" points="1071.39,-134.98 1080.19,-129.08 1069.63,-128.21 1071.39,-134.98"/>
</a>
</g>
</g>
<!-- Node19&#45;&gt;Node3 -->
<g id="edge25_Node000019_Node000003" class="edge">
<title>Node19&#45;&gt;Node3</title>
<g id="a_edge25_Node000019_Node000003"><a xlink:title=" ">
<path fill="none" stroke="#63b8ff" d="M1402.26,-110C1372.29,-96.19 1309.88,-69.02 1254.22,-55 1153.4,-29.6 1032.16,-18.24 963.55,-13.52"/>
<polygon fill="#63b8ff" stroke="#63b8ff" points="963.63,-10.02 953.42,-12.84 963.16,-17 963.63,-10.02"/>
</a>
</g>
</g>
<!-- Node20 -->
<g id="Node000020" class="node">
<title>Node20</title>
<g id="a_Node000020"><a xlink:title=" ">
<polygon fill="#e0e0e0" stroke="#999999" points="1677.72,-74 1518.72,-74 1518.72,-55 1677.72,-55 1677.72,-74"/>
<text text-anchor="middle" x="1598.22" y="-62" font-family="Malgun Gothic" font-size="10.00">GameFramework/Character.h</text>
</a>
</g>
</g>
<!-- Node19&#45;&gt;Node20 -->
<g id="edge26_Node000019_Node000020" class="edge">
<title>Node19&#45;&gt;Node20</title>
<g id="a_edge26_Node000019_Node000020"><a xlink:title=" ">
<path fill="none" stroke="#63b8ff" d="M1448.82,-109.98C1478.84,-101.05 1526.2,-86.94 1559.54,-77.02"/>
<polygon fill="#63b8ff" stroke="#63b8ff" points="1560.82,-80.29 1569.4,-74.08 1558.82,-73.58 1560.82,-80.29"/>
</a>
</g>
</g>
<!-- Node21 -->
<g id="Node000021" class="node">
<title>Node21</title>
<g id="a_Node000021"><a xlink:href="EBodyPartType_8h.html" target="_top" xlink:title="EBodyPartType 열거형에 대한 Doxygen 주석을 제공합니다.">
<polygon fill="white" stroke="#666666" points="1793.22,-74 1695.22,-74 1695.22,-55 1793.22,-55 1793.22,-74"/>
<text text-anchor="middle" x="1744.22" y="-62" font-family="Malgun Gothic" font-size="10.00">EBodyPartType.h</text>
</a>
</g>
</g>
<!-- Node19&#45;&gt;Node21 -->
<g id="edge27_Node000019_Node000021" class="edge">
<title>Node19&#45;&gt;Node21</title>
<g id="a_edge27_Node000019_Node000021"><a xlink:title=" ">
<path fill="none" stroke="#63b8ff" d="M1472.28,-109.98C1530.37,-100.48 1624.16,-85.14 1685,-75.19"/>
<polygon fill="#63b8ff" stroke="#63b8ff" points="1685.91,-78.59 1695.22,-73.52 1684.78,-71.68 1685.91,-78.59"/>
</a>
</g>
</g>
<!-- Node22 -->
<g id="Node000022" class="node">
<title>Node22</title>
<g id="a_Node000022"><a xlink:href="ECharacterType_8h.html" target="_top" xlink:title="ECharacterType 열거형에 대한 Doxygen 주석을 제공합니다.">
<polygon fill="white" stroke="#666666" points="1511.72,-19 1410.72,-19 1410.72,0 1511.72,0 1511.72,-19"/>
<text text-anchor="middle" x="1461.22" y="-7" font-family="Malgun Gothic" font-size="10.00">ECharacterType.h</text>
</a>
</g>
</g>
<!-- Node19&#45;&gt;Node22 -->
<g id="edge28_Node000019_Node000022" class="edge">
<title>Node19&#45;&gt;Node22</title>
<g id="a_edge28_Node000019_Node000022"><a xlink:title=" ">
<path fill="none" stroke="#63b8ff" d="M1388.17,-109.98C1355.77,-99.72 1312.9,-80.64 1331.22,-55 1347.08,-32.81 1374.7,-21.57 1400.42,-15.92"/>
<polygon fill="#63b8ff" stroke="#63b8ff" points="1401.38,-19.29 1410.53,-13.95 1400.04,-12.42 1401.38,-19.29"/>
</a>
</g>
</g>
<!-- Node23 -->
<g id="Node000023" class="node">
<title>Node23</title>
<g id="a_Node000023"><a xlink:href="UStatSystem_8h.html" target="_top" xlink:title="UStatSystem 선언에 대한 Doxygen 주석을 제공합니다.">
<polygon fill="white" stroke="#666666" points="1900.72,-74 1811.72,-74 1811.72,-55 1900.72,-55 1900.72,-74"/>
<text text-anchor="middle" x="1856.22" y="-62" font-family="Malgun Gothic" font-size="10.00">UStatSystem.h</text>
</a>
</g>
</g>
<!-- Node19&#45;&gt;Node23 -->
<g id="edge29_Node000019_Node000023" class="edge">
<title>Node19&#45;&gt;Node23</title>
<g id="a_edge29_Node000019_Node000023"><a xlink:title=" ">
<path fill="none" stroke="#63b8ff" d="M1474.4,-112.88C1546.56,-105.24 1678.45,-90.75 1801.48,-74.05"/>
<polygon fill="#63b8ff" stroke="#63b8ff" points="1802.02,-77.51 1811.46,-72.69 1801.07,-70.57 1802.02,-77.51"/>
</a>
</g>
</g>
<!-- Node25 -->
<g id="Node000025" class="node">
<title>Node25</title>
<g id="a_Node000025"><a xlink:title=" ">
<polygon fill="#e0e0e0" stroke="#999999" points="1500.72,-74 1339.72,-74 1339.72,-55 1500.72,-55 1500.72,-74"/>
<text text-anchor="middle" x="1420.22" y="-62" font-family="Malgun Gothic" font-size="10.00">AGameCharacter.generated.h</text>
</a>
</g>
</g>
<!-- Node19&#45;&gt;Node25 -->
<g id="edge34_Node000019_Node000025" class="edge">
<title>Node19&#45;&gt;Node25</title>
<g id="a_edge34_Node000019_Node000025"><a xlink:title=" ">
<path fill="none" stroke="#63b8ff" d="M1420.22,-109.75C1420.22,-102.8 1420.22,-92.85 1420.22,-84.13"/>
<polygon fill="#63b8ff" stroke="#63b8ff" points="1423.73,-84.09 1420.22,-74.09 1416.73,-84.09 1423.73,-84.09"/>
</a>
</g>
</g>
<!-- Node23&#45;&gt;Node3 -->
<g id="edge30_Node000023_Node000003" class="edge">
<title>Node23&#45;&gt;Node3</title>
<g id="a_edge30_Node000023_Node000003"><a xlink:title=" ">
<path fill="none" stroke="#63b8ff" d="M1811.48,-56.08C1808.36,-55.68 1805.25,-55.31 1802.22,-55 1485.51,-22.28 1103.03,-13.42 963.5,-11.2"/>
<polygon fill="#63b8ff" stroke="#63b8ff" points="963.54,-7.7 953.49,-11.04 963.43,-14.7 963.54,-7.7"/>
</a>
</g>
</g>
<!-- Node23&#45;&gt;Node9 -->
<g id="edge32_Node000023_Node000009" class="edge">
<title>Node23&#45;&gt;Node9</title>
<g id="a_edge32_Node000023_Node000009"><a xlink:title=" ">
<path fill="none" stroke="#63b8ff" d="M1867.47,-54.98C1878.02,-47 1894.03,-34.88 1906.67,-25.31"/>
<polygon fill="#63b8ff" stroke="#63b8ff" points="1908.91,-28 1914.77,-19.17 1904.69,-22.42 1908.91,-28"/>
</a>
</g>
</g>
<!-- Node23&#45;&gt;Node22 -->
<g id="edge31_Node000023_Node000022" class="edge">
<title>Node23&#45;&gt;Node22</title>
<g id="a_edge31_Node000023_Node000022"><a xlink:title=" ">
<path fill="none" stroke="#63b8ff" d="M1811.45,-56.36C1808.33,-55.89 1805.23,-55.43 1802.22,-55 1704.28,-40.9 1590.23,-26.41 1521.98,-17.94"/>
<polygon fill="#63b8ff" stroke="#63b8ff" points="1522.19,-14.44 1511.84,-16.68 1521.33,-21.38 1522.19,-14.44"/>
</a>
</g>
</g>
<!-- Node24 -->
<g id="Node000024" class="node">
<title>Node24</title>
<g id="a_Node000024"><a xlink:title=" ">
<polygon fill="#e0e0e0" stroke="#999999" points="1822.22,-19 1680.22,-19 1680.22,0 1822.22,0 1822.22,-19"/>
<text text-anchor="middle" x="1751.22" y="-7" font-family="Malgun Gothic" font-size="10.00">UStatSystem.generated.h</text>
</a>
</g>
</g>
<!-- Node23&#45;&gt;Node24 -->
<g id="edge33_Node000023_Node000024" class="edge">
<title>Node23&#45;&gt;Node24</title>
<g id="a_edge33_Node000023_Node000024"><a xlink:title=" ">
<path fill="none" stroke="#63b8ff" d="M1839.35,-54.98C1822.62,-46.54 1796.73,-33.47 1777.33,-23.68"/>
<polygon fill="#63b8ff" stroke="#63b8ff" points="1778.91,-20.55 1768.4,-19.17 1775.75,-26.8 1778.91,-20.55"/>
</a>
</g>
</g>
<!-- Node26&#45;&gt;Node3 -->
<g id="edge36_Node000026_Node000003" class="edge">
<title>Node26&#45;&gt;Node3</title>
<g id="a_edge36_Node000026_Node000003"><a xlink:title=" ">
<path fill="none" stroke="#63b8ff" d="M975.33,-109.66C963.41,-91.77 936.23,-51 920.69,-27.69"/>
<polygon fill="#63b8ff" stroke="#63b8ff" points="923.46,-25.54 915,-19.16 917.63,-29.42 923.46,-25.54"/>
</a>
</g>
</g>
<!-- Node27 -->
<g id="Node000027" class="node">
<title>Node27</title>
<g id="a_Node000027"><a xlink:title=" ">
<polygon fill="#e0e0e0" stroke="#999999" points="1244.72,-74 1133.72,-74 1133.72,-55 1244.72,-55 1244.72,-74"/>
<text text-anchor="middle" x="1189.22" y="-62" font-family="Malgun Gothic" font-size="10.00">UObject/Interface.h</text>
</a>
</g>
</g>
<!-- Node26&#45;&gt;Node27 -->
<g id="edge37_Node000026_Node000027" class="edge">
<title>Node26&#45;&gt;Node27</title>
<g id="a_edge37_Node000026_Node000027"><a xlink:title=" ">
<path fill="none" stroke="#63b8ff" d="M1014.64,-109.98C1050.17,-100.93 1106.5,-86.58 1145.52,-76.64"/>
<polygon fill="#63b8ff" stroke="#63b8ff" points="1146.72,-79.94 1155.54,-74.08 1144.99,-73.16 1146.72,-79.94"/>
</a>
</g>
</g>
<!-- Node28 -->
<g id="Node000028" class="node">
<title>Node28</title>
<g id="a_Node000028"><a xlink:title=" ">
<polygon fill="#e0e0e0" stroke="#999999" points="1115.22,-74 975.22,-74 975.22,-55 1115.22,-55 1115.22,-74"/>
<text text-anchor="middle" x="1045.22" y="-62" font-family="Malgun Gothic" font-size="10.00">IControllable.generated.h</text>
</a>
</g>
</g>
<!-- Node26&#45;&gt;Node28 -->
<g id="edge38_Node000026_Node000028" class="edge">
<title>Node26&#45;&gt;Node28</title>
<g id="a_edge38_Node000026_Node000028"><a xlink:title=" ">
<path fill="none" stroke="#63b8ff" d="M991.51,-109.98C1001.06,-102.07 1015.5,-90.11 1027.01,-80.58"/>
<polygon fill="#63b8ff" stroke="#63b8ff" points="1029.29,-83.24 1034.76,-74.17 1024.82,-77.85 1029.29,-83.24"/>
</a>
</g>
</g>
</g>
</svg>
