<?xml version="1.0" encoding="UTF-8" standalone="no"?>
<!DOCTYPE svg PUBLIC "-//W3C//DTD SVG 1.1//EN"
 "http://www.w3.org/Graphics/SVG/1.1/DTD/svg11.dtd">
<!-- Generated by graphviz version 2.43.0 (0)
 -->
<!-- Title: Source/YiSan/YiSan.h Pages: 1 -->
<svg width="530pt" height="93pt"
 viewBox="0.00 0.00 530.00 93.00" xmlns="http://www.w3.org/2000/svg" xmlns:xlink="http://www.w3.org/1999/xlink">
<g id="graph0" class="graph" transform="scale(1 1) rotate(0) translate(4 89)">
<title>Source/YiSan/YiSan.h</title>
<!-- Node1 -->
<g id="Node000001" class="node">
<title>Node1</title>
<g id="a_Node000001"><a xlink:title=" ">
<polygon fill="#999999" stroke="#666666" points="367.5,-85 248.5,-85 248.5,-66 367.5,-66 367.5,-85"/>
<text text-anchor="middle" x="308" y="-73" font-family="Malgun Gothic" font-size="10.00">Source/YiSan/YiSan.h</text>
</a>
</g>
</g>
<!-- Node2 -->
<g id="Node000002" class="node">
<title>Node2</title>
<g id="a_Node000002"><a xlink:href="YiSanVoiceConsoleSubsystem_8cpp.html" target="_top" xlink:title=" ">
<polygon fill="white" stroke="#666666" points="224,-30 0,-30 0,0 224,0 224,-30"/>
<text text-anchor="start" x="8" y="-18" font-family="Malgun Gothic" font-size="10.00">Source/YiSan/Environment</text>
<text text-anchor="middle" x="112" y="-7" font-family="Malgun Gothic" font-size="10.00">/Private/YiSanVoiceConsoleSubsystem.cpp</text>
</a>
</g>
</g>
<!-- Node1&#45;&gt;Node2 -->
<g id="edge1_Node000001_Node000002" class="edge">
<title>Node1&#45;&gt;Node2</title>
<g id="a_edge1_Node000001_Node000002"><a xlink:title=" ">
<path fill="none" stroke="#63b8ff" d="M269.73,-63.08C238.08,-53.63 192.99,-40.17 159.12,-30.06"/>
<polygon fill="#63b8ff" stroke="#63b8ff" points="268.92,-66.49 279.5,-65.99 270.92,-59.78 268.92,-66.49"/>
</a>
</g>
</g>
<!-- Node3 -->
<g id="Node000003" class="node">
<title>Node3</title>
<g id="a_Node000003"><a xlink:href="UMainWdget_8cpp.html" target="_top" xlink:title=" ">
<polygon fill="white" stroke="#666666" points="373.5,-30 242.5,-30 242.5,0 373.5,0 373.5,-30"/>
<text text-anchor="start" x="250.5" y="-18" font-family="Malgun Gothic" font-size="10.00">Source/YiSan/UI/Private</text>
<text text-anchor="middle" x="308" y="-7" font-family="Malgun Gothic" font-size="10.00">/UMainWdget.cpp</text>
</a>
</g>
</g>
<!-- Node1&#45;&gt;Node3 -->
<g id="edge2_Node000001_Node000003" class="edge">
<title>Node1&#45;&gt;Node3</title>
<g id="a_edge2_Node000001_Node000003"><a xlink:title=" ">
<path fill="none" stroke="#63b8ff" d="M308,-55.65C308,-47.36 308,-37.78 308,-30.11"/>
<polygon fill="#63b8ff" stroke="#63b8ff" points="304.5,-55.87 308,-65.87 311.5,-55.87 304.5,-55.87"/>
</a>
</g>
</g>
<!-- Node4 -->
<g id="Node000004" class="node">
<title>Node4</title>
<g id="a_Node000004"><a xlink:href="YiSan_8cpp.html" target="_top" xlink:title=" ">
<polygon fill="white" stroke="#666666" points="522,-24.5 392,-24.5 392,-5.5 522,-5.5 522,-24.5"/>
<text text-anchor="middle" x="457" y="-12.5" font-family="Malgun Gothic" font-size="10.00">Source/YiSan/YiSan.cpp</text>
</a>
</g>
</g>
<!-- Node1&#45;&gt;Node4 -->
<g id="edge3_Node000001_Node000004" class="edge">
<title>Node1&#45;&gt;Node4</title>
<g id="a_edge3_Node000001_Node000004"><a xlink:title=" ">
<path fill="none" stroke="#63b8ff" d="M339.25,-62.23C368.05,-50.92 410.03,-34.44 435.31,-24.52"/>
<polygon fill="#63b8ff" stroke="#63b8ff" points="337.7,-59.08 329.67,-65.99 340.25,-65.6 337.7,-59.08"/>
</a>
</g>
</g>
</g>
</svg>
