<?xml version="1.0" encoding="UTF-8" standalone="no"?>
<!DOCTYPE svg PUBLIC "-//W3C//DTD SVG 1.1//EN"
 "http://www.w3.org/Graphics/SVG/1.1/DTD/svg11.dtd">
<!-- Generated by graphviz version 2.43.0 (0)
 -->
<!-- Title: Source/YiSan/Environment/Public/YiSanVoiceConsoleSubsystem.h Pages: 1 -->
<svg width="712pt" height="93pt"
 viewBox="0.00 0.00 712.00 93.00" xmlns="http://www.w3.org/2000/svg" xmlns:xlink="http://www.w3.org/1999/xlink">
<g id="graph0" class="graph" transform="scale(1 1) rotate(0) translate(4 89)">
<title>Source/YiSan/Environment/Public/YiSanVoiceConsoleSubsystem.h</title>
<!-- Node1 -->
<g id="Node000001" class="node">
<title>Node1</title>
<g id="a_Node000001"><a xlink:title=" ">
<polygon fill="#999999" stroke="#666666" points="408.5,-85 201.5,-85 201.5,-55 408.5,-55 408.5,-85"/>
<text text-anchor="start" x="209.5" y="-73" font-family="Malgun Gothic" font-size="10.00">Source/YiSan/Environment</text>
<text text-anchor="middle" x="305" y="-62" font-family="Malgun Gothic" font-size="10.00">/Public/YiSanVoiceConsoleSubsystem.h</text>
</a>
</g>
</g>
<!-- Node2 -->
<g id="Node000002" class="node">
<title>Node2</title>
<g id="a_Node000002"><a xlink:title=" ">
<polygon fill="#e0e0e0" stroke="#999999" points="88,-19 0,-19 0,0 88,0 88,-19"/>
<text text-anchor="middle" x="44" y="-7" font-family="Malgun Gothic" font-size="10.00">CoreMinimal.h</text>
</a>
</g>
</g>
<!-- Node1&#45;&gt;Node2 -->
<g id="edge1_Node000001_Node000002" class="edge">
<title>Node1&#45;&gt;Node2</title>
<g id="a_edge1_Node000001_Node000002"><a xlink:title=" ">
<path fill="none" stroke="#63b8ff" d="M242.48,-54.99C196.27,-44.63 134.28,-30.73 91.95,-21.25"/>
<polygon fill="#63b8ff" stroke="#63b8ff" points="92.69,-17.83 82.16,-19.05 91.15,-24.66 92.69,-17.83"/>
</a>
</g>
</g>
<!-- Node3 -->
<g id="Node000003" class="node">
<title>Node3</title>
<g id="a_Node000003"><a xlink:title=" ">
<polygon fill="#e0e0e0" stroke="#999999" points="318,-19 106,-19 106,0 318,0 318,-19"/>
<text text-anchor="middle" x="212" y="-7" font-family="Malgun Gothic" font-size="10.00">Subsystems/GameInstanceSubsystem.h</text>
</a>
</g>
</g>
<!-- Node1&#45;&gt;Node3 -->
<g id="edge2_Node000001_Node000003" class="edge">
<title>Node1&#45;&gt;Node3</title>
<g id="a_edge2_Node000001_Node000003"><a xlink:title=" ">
<path fill="none" stroke="#63b8ff" d="M282.49,-54.84C267.94,-45.68 249.07,-33.82 234.51,-24.66"/>
<polygon fill="#63b8ff" stroke="#63b8ff" points="235.99,-21.46 225.66,-19.09 232.26,-27.38 235.99,-21.46"/>
</a>
</g>
</g>
<!-- Node4 -->
<g id="Node000004" class="node">
<title>Node4</title>
<g id="a_Node000004"><a xlink:title=" ">
<polygon fill="#e0e0e0" stroke="#999999" points="462,-19 336,-19 336,0 462,0 462,-19"/>
<text text-anchor="middle" x="399" y="-7" font-family="Malgun Gothic" font-size="10.00">Templates/UniquePtr.h</text>
</a>
</g>
</g>
<!-- Node1&#45;&gt;Node4 -->
<g id="edge3_Node000001_Node000004" class="edge">
<title>Node1&#45;&gt;Node4</title>
<g id="a_edge3_Node000001_Node000004"><a xlink:title=" ">
<path fill="none" stroke="#63b8ff" d="M327.75,-54.84C342.6,-45.6 361.9,-33.59 376.66,-24.4"/>
<polygon fill="#63b8ff" stroke="#63b8ff" points="378.55,-27.35 385.19,-19.09 374.85,-21.41 378.55,-27.35"/>
</a>
</g>
</g>
<!-- Node5 -->
<g id="Node000005" class="node">
<title>Node5</title>
<g id="a_Node000005"><a xlink:title=" ">
<polygon fill="#e0e0e0" stroke="#999999" points="704,-19 480,-19 480,0 704,0 704,-19"/>
<text text-anchor="middle" x="592" y="-7" font-family="Malgun Gothic" font-size="10.00">YiSanVoiceConsoleSubsystem.generated.h</text>
</a>
</g>
</g>
<!-- Node1&#45;&gt;Node5 -->
<g id="edge4_Node000001_Node000005" class="edge">
<title>Node1&#45;&gt;Node5</title>
<g id="a_edge4_Node000001_Node000005"><a xlink:title=" ">
<path fill="none" stroke="#63b8ff" d="M373.74,-54.99C424.88,-44.56 493.59,-30.56 540.16,-21.07"/>
<polygon fill="#63b8ff" stroke="#63b8ff" points="540.94,-24.48 550.04,-19.05 539.54,-17.62 540.94,-24.48"/>
</a>
</g>
</g>
</g>
</svg>
