<?xml version="1.0" encoding="UTF-8" standalone="no"?>
<!DOCTYPE svg PUBLIC "-//W3C//DTD SVG 1.1//EN"
 "http://www.w3.org/Graphics/SVG/1.1/DTD/svg11.dtd">
<!-- Generated by graphviz version 2.43.0 (0)
 -->
<!-- Title: Source/YiSan/YiSan.cpp Pages: 1 -->
<svg width="245pt" height="137pt"
 viewBox="0.00 0.00 245.00 137.00" xmlns="http://www.w3.org/2000/svg" xmlns:xlink="http://www.w3.org/1999/xlink">
<g id="graph0" class="graph" transform="scale(1 1) rotate(0) translate(4 133)">
<title>Source/YiSan/YiSan.cpp</title>
<!-- Node1 -->
<g id="Node000001" class="node">
<title>Node1</title>
<g id="a_Node000001"><a xlink:title=" ">
<polygon fill="#999999" stroke="#666666" points="168,-129 38,-129 38,-110 168,-110 168,-129"/>
<text text-anchor="middle" x="103" y="-117" font-family="Malgun Gothic" font-size="10.00">Source/YiSan/YiSan.cpp</text>
</a>
</g>
</g>
<!-- Node2 -->
<g id="Node000002" class="node">
<title>Node2</title>
<g id="a_Node000002"><a xlink:href="YiSan_8h.html" target="_top" xlink:title=" ">
<polygon fill="white" stroke="#666666" points="70.5,-74 17.5,-74 17.5,-55 70.5,-55 70.5,-74"/>
<text text-anchor="middle" x="44" y="-62" font-family="Malgun Gothic" font-size="10.00">YiSan.h</text>
</a>
</g>
</g>
<!-- Node1&#45;&gt;Node2 -->
<g id="edge1_Node000001_Node000002" class="edge">
<title>Node1&#45;&gt;Node2</title>
<g id="a_edge1_Node000001_Node000002"><a xlink:title=" ">
<path fill="none" stroke="#63b8ff" d="M93.52,-109.98C84.8,-102.15 71.66,-90.34 61.1,-80.86"/>
<polygon fill="#63b8ff" stroke="#63b8ff" points="63.43,-78.25 53.65,-74.17 58.75,-83.46 63.43,-78.25"/>
</a>
</g>
</g>
<!-- Node4 -->
<g id="Node000004" class="node">
<title>Node4</title>
<g id="a_Node000004"><a xlink:title=" ">
<polygon fill="#e0e0e0" stroke="#999999" points="237,-74 89,-74 89,-55 237,-55 237,-74"/>
<text text-anchor="middle" x="163" y="-62" font-family="Malgun Gothic" font-size="10.00">Modules/ModuleManager.h</text>
</a>
</g>
</g>
<!-- Node1&#45;&gt;Node4 -->
<g id="edge3_Node000001_Node000004" class="edge">
<title>Node1&#45;&gt;Node4</title>
<g id="a_edge3_Node000001_Node000004"><a xlink:title=" ">
<path fill="none" stroke="#63b8ff" d="M112.64,-109.98C121.51,-102.15 134.87,-90.34 145.61,-80.86"/>
<polygon fill="#63b8ff" stroke="#63b8ff" points="148.01,-83.41 153.18,-74.17 143.37,-78.17 148.01,-83.41"/>
</a>
</g>
</g>
<!-- Node3 -->
<g id="Node000003" class="node">
<title>Node3</title>
<g id="a_Node000003"><a xlink:title=" ">
<polygon fill="#e0e0e0" stroke="#999999" points="88,-19 0,-19 0,0 88,0 88,-19"/>
<text text-anchor="middle" x="44" y="-7" font-family="Malgun Gothic" font-size="10.00">CoreMinimal.h</text>
</a>
</g>
</g>
<!-- Node2&#45;&gt;Node3 -->
<g id="edge2_Node000002_Node000003" class="edge">
<title>Node2&#45;&gt;Node3</title>
<g id="a_edge2_Node000002_Node000003"><a xlink:title=" ">
<path fill="none" stroke="#63b8ff" d="M44,-54.75C44,-47.8 44,-37.85 44,-29.13"/>
<polygon fill="#63b8ff" stroke="#63b8ff" points="47.5,-29.09 44,-19.09 40.5,-29.09 47.5,-29.09"/>
</a>
</g>
</g>
</g>
</svg>
