<?xml version="1.0" encoding="UTF-8" standalone="no"?>
<!DOCTYPE svg PUBLIC "-//W3C//DTD SVG 1.1//EN"
 "http://www.w3.org/Graphics/SVG/1.1/DTD/svg11.dtd">
<!-- Generated by graphviz version 2.43.0 (0)
 -->
<!-- Title: Source/YiSan/Environment/Private/YiSanVoiceConsoleSubsystem.cpp Pages: 1 -->
<!--zoomable 269 -->

<svg id="main" version="1.1" xmlns="http://www.w3.org/2000/svg" xmlns:xlink="http://www.w3.org/1999/xlink" xml:space="preserve" onload="init(evt)">
<style type="text/css"><![CDATA[
.node, .edge {opacity: 0.7;}
.node.selected, .edge.selected {opacity: 1;}
.edge:hover path { stroke: red; }
.edge:hover polygon { stroke: red; fill: red; }
]]></style>

<defs>
  <circle id="rim" cx="0" cy="0" r="7"/>
  <circle id="rim2" cx="0" cy="0" r="3.5"/>
  <g id="zoomPlus">
    <use xlink:href="#rim" fill="#404040"><set attributeName="fill" to="#808080" begin="zoomplus.mouseover" end="zoomplus.mouseout"/></use>
    <path d="M-4,0h8M0,-4v8" fill="none" stroke="white" stroke-width="1.5" pointer-events="none"/>
  </g>
  <g id="zoomMin">
    <use xlink:href="#rim" fill="#404040"><set attributeName="fill" to="#808080" begin="zoomminus.mouseover" end="zoomminus.mouseout"/></use>
    <path d="M-4,0h8" fill="none" stroke="white" stroke-width="1.5" pointer-events="none"/>
  </g>
  <g id="arrowUp" transform="translate(30 24)">
    <use xlink:href="#rim"/>
    <path pointer-events="none" fill="none" stroke="white" stroke-width="1.5" d="M0,-3.0v7 M-2.5,-0.5L0,-3.0L2.5,-0.5"/>
  </g>
  <g id="arrowRight" transform="rotate(90) translate(36 -43)">
    <use xlink:href="#rim"/>
    <path pointer-events="none" fill="none" stroke="white" stroke-width="1.5" d="M0,-3.0v7 M-2.5,-0.5L0,-3.0L2.5,-0.5"/>
  </g>
  <g id="arrowDown" transform="rotate(180) translate(-30 -48)">
    <use xlink:href="#rim"/>
    <path pointer-events="none" fill="none" stroke="white" stroke-width="1.5" d="M0,-3.0v7 M-2.5,-0.5L0,-3.0L2.5,-0.5"/>
  </g>
  <g id="arrowLeft" transform="rotate(270) translate(-36 17)">
    <use xlink:href="#rim"/>
    <path pointer-events="none" fill="none" stroke="white" stroke-width="1.5" d="M0,-3.0v7 M-2.5,-0.5L0,-3.0L2.5,-0.5"/>
  </g>
  <g id="resetDef">
    <use xlink:href="#rim2" fill="#404040"><set attributeName="fill" to="#808080" begin="reset.mouseover" end="reset.mouseout"/></use>
  </g>
</defs>
<script type="application/ecmascript">
var viewWidth = 1746;
var viewHeight = 269;
var sectionId = 'dynsection-0';
</script>
<script type="application/ecmascript" xlink:href="svg.min.js"/>
<svg id="graph" class="graph">
<g id="viewport">
<title>Source/YiSan/Environment/Private/YiSanVoiceConsoleSubsystem.cpp</title>
<!-- Node1 -->
<g id="Node000001" class="node">
<title>Node1</title>
<g id="a_Node000001"><a xlink:title=" ">
<polygon fill="#999999" stroke="#666666" points="1311.5,-261 1087.5,-261 1087.5,-231 1311.5,-231 1311.5,-261"/>
<text text-anchor="start" x="1095.5" y="-249" font-family="Malgun Gothic" font-size="10.00">Source/YiSan/Environment</text>
<text text-anchor="middle" x="1199.5" y="-238" font-family="Malgun Gothic" font-size="10.00">/Private/YiSanVoiceConsoleSubsystem.cpp</text>
</a>
</g>
</g>
<!-- Node2 -->
<g id="Node000002" class="node">
<title>Node2</title>
<g id="a_Node000002"><a xlink:href="YiSanVoiceConsoleSubsystem_8h.html" target="_top" xlink:title=" ">
<polygon fill="white" stroke="#666666" points="1135.5,-189.5 963.5,-189.5 963.5,-170.5 1135.5,-170.5 1135.5,-189.5"/>
<text text-anchor="middle" x="1049.5" y="-177.5" font-family="Malgun Gothic" font-size="10.00">YiSanVoiceConsoleSubsystem.h</text>
</a>
</g>
</g>
<!-- Node1&#45;&gt;Node2 -->
<g id="edge1_Node000001_Node000002" class="edge">
<title>Node1&#45;&gt;Node2</title>
<g id="a_edge1_Node000001_Node000002"><a xlink:title=" ">
<path fill="none" stroke="#63b8ff" d="M1166.58,-230.95C1140.39,-219.78 1104.08,-204.29 1078.87,-193.53"/>
<polygon fill="#63b8ff" stroke="#63b8ff" points="1080.03,-190.22 1069.46,-189.52 1077.29,-196.66 1080.03,-190.22"/>
</a>
</g>
</g>
<!-- Node5 -->
<g id="Node000005" class="node">
<title>Node5</title>
<g id="a_Node000005"><a xlink:title=" ">
<polygon fill="#e0e0e0" stroke="#999999" points="1541.5,-129 1415.5,-129 1415.5,-110 1541.5,-110 1541.5,-129"/>
<text text-anchor="middle" x="1478.5" y="-117" font-family="Malgun Gothic" font-size="10.00">Templates/UniquePtr.h</text>
</a>
</g>
</g>
<!-- Node1&#45;&gt;Node5 -->
<g id="edge8_Node000001_Node000005" class="edge">
<title>Node1&#45;&gt;Node5</title>
<g id="a_edge8_Node000001_Node000005"><a xlink:title=" ">
<path fill="none" stroke="#63b8ff" d="M1190.33,-230.78C1180.29,-213.23 1167.61,-183.47 1183.5,-165 1187.13,-160.78 1318.96,-142.15 1405.15,-130.38"/>
<polygon fill="#63b8ff" stroke="#63b8ff" points="1405.72,-133.83 1415.16,-129.01 1404.78,-126.9 1405.72,-133.83"/>
</a>
</g>
</g>
<!-- Node7 -->
<g id="Node000007" class="node">
<title>Node7</title>
<g id="a_Node000007"><a xlink:href="YiSan_8h.html" target="_top" xlink:title=" ">
<polygon fill="white" stroke="#666666" points="53,-129 0,-129 0,-110 53,-110 53,-129"/>
<text text-anchor="middle" x="26.5" y="-117" font-family="Malgun Gothic" font-size="10.00">YiSan.h</text>
</a>
</g>
</g>
<!-- Node1&#45;&gt;Node7 -->
<g id="edge6_Node000001_Node000007" class="edge">
<title>Node1&#45;&gt;Node7</title>
<g id="a_edge6_Node000001_Node000007"><a xlink:title=" ">
<path fill="none" stroke="#63b8ff" d="M1087.38,-241.81C880.15,-235.41 444.69,-219.49 295.5,-195 209.16,-180.83 110.79,-149.58 60.32,-132.4"/>
<polygon fill="#63b8ff" stroke="#63b8ff" points="61.18,-129 50.59,-129.06 58.91,-135.62 61.18,-129"/>
</a>
</g>
</g>
<!-- Node8 -->
<g id="Node000008" class="node">
<title>Node8</title>
<g id="a_Node000008"><a xlink:title=" ">
<polygon fill="#e0e0e0" stroke="#999999" points="1281,-189.5 1192,-189.5 1192,-170.5 1281,-170.5 1281,-189.5"/>
<text text-anchor="middle" x="1236.5" y="-177.5" font-family="Malgun Gothic" font-size="10.00">Engine/World.h</text>
</a>
</g>
</g>
<!-- Node1&#45;&gt;Node8 -->
<g id="edge9_Node000001_Node000008" class="edge">
<title>Node1&#45;&gt;Node8</title>
<g id="a_edge9_Node000001_Node000008"><a xlink:title=" ">
<path fill="none" stroke="#63b8ff" d="M1207.71,-230.8C1213.2,-221.31 1220.45,-208.76 1226.31,-198.63"/>
<polygon fill="#63b8ff" stroke="#63b8ff" points="1229.41,-200.25 1231.39,-189.84 1223.35,-196.75 1229.41,-200.25"/>
</a>
</g>
</g>
<!-- Node9 -->
<g id="Node000009" class="node">
<title>Node9</title>
<g id="a_Node000009"><a xlink:title=" ">
<polygon fill="#e0e0e0" stroke="#999999" points="1380,-189.5 1299,-189.5 1299,-170.5 1380,-170.5 1380,-189.5"/>
<text text-anchor="middle" x="1339.5" y="-177.5" font-family="Malgun Gothic" font-size="10.00">EngineUtils.h</text>
</a>
</g>
</g>
<!-- Node1&#45;&gt;Node9 -->
<g id="edge10_Node000001_Node000009" class="edge">
<title>Node1&#45;&gt;Node9</title>
<g id="a_edge10_Node000001_Node000009"><a xlink:title=" ">
<path fill="none" stroke="#63b8ff" d="M1230.22,-230.95C1254.45,-219.88 1287.96,-204.56 1311.46,-193.82"/>
<polygon fill="#63b8ff" stroke="#63b8ff" points="1313.23,-196.86 1320.87,-189.52 1310.32,-190.49 1313.23,-196.86"/>
</a>
</g>
</g>
<!-- Node10 -->
<g id="Node000010" class="node">
<title>Node10</title>
<g id="a_Node000010"><a xlink:href="APlayerActor_8h.html" target="_top" xlink:title="APlayerActor 선언에 대한 Doxygen 주석을 제공합니다.">
<polygon fill="white" stroke="#666666" points="430,-195 305,-195 305,-165 430,-165 430,-195"/>
<text text-anchor="start" x="313" y="-183" font-family="Malgun Gothic" font-size="10.00">LatteLibrary/Character</text>
<text text-anchor="middle" x="367.5" y="-172" font-family="Malgun Gothic" font-size="10.00">/Public/APlayerActor.h</text>
</a>
</g>
</g>
<!-- Node1&#45;&gt;Node10 -->
<g id="edge11_Node000001_Node000010" class="edge">
<title>Node1&#45;&gt;Node10</title>
<g id="a_edge11_Node000001_Node000010"><a xlink:title=" ">
<path fill="none" stroke="#63b8ff" d="M1087.29,-236.37C913.92,-223.03 585.76,-197.79 440.19,-186.59"/>
<polygon fill="#63b8ff" stroke="#63b8ff" points="440.27,-183.09 430.03,-185.81 439.73,-190.07 440.27,-183.09"/>
</a>
</g>
</g>
<!-- Node23 -->
<g id="Node000023" class="node">
<title>Node23</title>
<g id="a_Node000023"><a xlink:title=" ">
<polygon fill="#e0e0e0" stroke="#999999" points="1587,-195 1398,-195 1398,-165 1587,-165 1587,-195"/>
<text text-anchor="start" x="1406" y="-183" font-family="Malgun Gothic" font-size="10.00">LatteLibrary/Character</text>
<text text-anchor="middle" x="1492.5" y="-172" font-family="Malgun Gothic" font-size="10.00">/Public/UVoiceCaptureComponent.h</text>
</a>
</g>
</g>
<!-- Node1&#45;&gt;Node23 -->
<g id="edge29_Node000001_Node000023" class="edge">
<title>Node1&#45;&gt;Node23</title>
<g id="a_edge29_Node000001_Node000023"><a xlink:title=" ">
<path fill="none" stroke="#63b8ff" d="M1263.8,-230.95C1309.41,-220.99 1370.73,-207.6 1418.4,-197.19"/>
<polygon fill="#63b8ff" stroke="#63b8ff" points="1419.33,-200.57 1428.35,-195.01 1417.83,-193.73 1419.33,-200.57"/>
</a>
</g>
</g>
<!-- Node24 -->
<g id="Node000024" class="node">
<title>Node24</title>
<g id="a_Node000024"><a xlink:title=" ">
<polygon fill="#e0e0e0" stroke="#999999" points="1737.5,-189.5 1605.5,-189.5 1605.5,-170.5 1737.5,-170.5 1737.5,-189.5"/>
<text text-anchor="middle" x="1671.5" y="-177.5" font-family="Malgun Gothic" font-size="10.00">HAL/IConsoleManager.h</text>
</a>
</g>
</g>
<!-- Node1&#45;&gt;Node24 -->
<g id="edge30_Node000001_Node000024" class="edge">
<title>Node1&#45;&gt;Node24</title>
<g id="a_edge30_Node000001_Node000024"><a xlink:title=" ">
<path fill="none" stroke="#63b8ff" d="M1311.83,-232.65C1391.47,-223.46 1500.75,-209.95 1596.5,-195 1603.61,-193.89 1611.08,-192.62 1618.43,-191.31"/>
<polygon fill="#63b8ff" stroke="#63b8ff" points="1619.13,-194.74 1628.35,-189.51 1617.88,-187.85 1619.13,-194.74"/>
</a>
</g>
</g>
<!-- Node3 -->
<g id="Node000003" class="node">
<title>Node3</title>
<g id="a_Node000003"><a xlink:title=" ">
<polygon fill="#e0e0e0" stroke="#999999" points="430.5,-19 342.5,-19 342.5,0 430.5,0 430.5,-19"/>
<text text-anchor="middle" x="386.5" y="-7" font-family="Malgun Gothic" font-size="10.00">CoreMinimal.h</text>
</a>
</g>
</g>
<!-- Node2&#45;&gt;Node3 -->
<g id="edge2_Node000002_Node000003" class="edge">
<title>Node2&#45;&gt;Node3</title>
<g id="a_edge2_Node000002_Node000003"><a xlink:title=" ">
<path fill="none" stroke="#63b8ff" d="M1014.02,-170.43C989.27,-162.94 956.81,-149.92 934.5,-129 907.53,-103.71 927.19,-75.62 896.5,-55 859.32,-30.02 564.47,-16.79 440.8,-12.29"/>
<polygon fill="#63b8ff" stroke="#63b8ff" points="440.9,-8.79 430.78,-11.93 440.65,-15.79 440.9,-8.79"/>
</a>
</g>
</g>
<!-- Node4 -->
<g id="Node000004" class="node">
<title>Node4</title>
<g id="a_Node000004"><a xlink:title=" ">
<polygon fill="#e0e0e0" stroke="#999999" points="1155.5,-129 943.5,-129 943.5,-110 1155.5,-110 1155.5,-129"/>
<text text-anchor="middle" x="1049.5" y="-117" font-family="Malgun Gothic" font-size="10.00">Subsystems/GameInstanceSubsystem.h</text>
</a>
</g>
</g>
<!-- Node2&#45;&gt;Node4 -->
<g id="edge3_Node000002_Node000004" class="edge">
<title>Node2&#45;&gt;Node4</title>
<g id="a_edge3_Node000002_Node000004"><a xlink:title=" ">
<path fill="none" stroke="#63b8ff" d="M1049.5,-170.37C1049.5,-162.25 1049.5,-149.81 1049.5,-139.39"/>
<polygon fill="#63b8ff" stroke="#63b8ff" points="1053,-139.17 1049.5,-129.17 1046,-139.17 1053,-139.17"/>
</a>
</g>
</g>
<!-- Node2&#45;&gt;Node5 -->
<g id="edge4_Node000002_Node000005" class="edge">
<title>Node2&#45;&gt;Node5</title>
<g id="a_edge4_Node000002_Node000005"><a xlink:title=" ">
<path fill="none" stroke="#63b8ff" d="M1110.04,-170.48C1123.06,-168.66 1136.74,-166.76 1149.5,-165 1237.49,-152.89 1338.75,-139.24 1405.43,-130.28"/>
<polygon fill="#63b8ff" stroke="#63b8ff" points="1405.97,-133.74 1415.42,-128.94 1405.04,-126.81 1405.97,-133.74"/>
</a>
</g>
</g>
<!-- Node6 -->
<g id="Node000006" class="node">
<title>Node6</title>
<g id="a_Node000006"><a xlink:title=" ">
<polygon fill="#e0e0e0" stroke="#999999" points="1397.5,-129 1173.5,-129 1173.5,-110 1397.5,-110 1397.5,-129"/>
<text text-anchor="middle" x="1285.5" y="-117" font-family="Malgun Gothic" font-size="10.00">YiSanVoiceConsoleSubsystem.generated.h</text>
</a>
</g>
</g>
<!-- Node2&#45;&gt;Node6 -->
<g id="edge5_Node000002_Node000006" class="edge">
<title>Node2&#45;&gt;Node6</title>
<g id="a_edge5_Node000002_Node000006"><a xlink:title=" ">
<path fill="none" stroke="#63b8ff" d="M1083.82,-170.49C1125.41,-160.18 1195.6,-142.78 1241.23,-131.47"/>
<polygon fill="#63b8ff" stroke="#63b8ff" points="1242.28,-134.82 1251.14,-129.02 1240.59,-128.03 1242.28,-134.82"/>
</a>
</g>
</g>
<!-- Node7&#45;&gt;Node3 -->
<g id="edge7_Node000007_Node000003" class="edge">
<title>Node7&#45;&gt;Node3</title>
<g id="a_edge7_Node000007_Node000003"><a xlink:title=" ">
<path fill="none" stroke="#63b8ff" d="M22.53,-109.87C16.99,-96.36 9.03,-70.22 22.5,-55 42.68,-32.2 235.92,-18.63 332.34,-13.22"/>
<polygon fill="#63b8ff" stroke="#63b8ff" points="332.69,-16.71 342.48,-12.66 332.3,-9.72 332.69,-16.71"/>
</a>
</g>
</g>
<!-- Node10&#45;&gt;Node3 -->
<g id="edge12_Node000010_Node000003" class="edge">
<title>Node10&#45;&gt;Node3</title>
<g id="a_edge12_Node000010_Node000003"><a xlink:title=" ">
<path fill="none" stroke="#63b8ff" d="M369.09,-164.92C372.5,-134.65 380.54,-63.35 384.38,-29.27"/>
<polygon fill="#63b8ff" stroke="#63b8ff" points="387.87,-29.58 385.51,-19.25 380.91,-28.8 387.87,-29.58"/>
</a>
</g>
</g>
<!-- Node11 -->
<g id="Node000011" class="node">
<title>Node11</title>
<g id="a_Node000011"><a xlink:href="AGameCharacter_8h.html" target="_top" xlink:title="LatteLibrary 전반에서 사용하는 기반 캐릭터 클래스를 선언합니다.">
<polygon fill="white" stroke="#666666" points="746.5,-129 638.5,-129 638.5,-110 746.5,-110 746.5,-129"/>
<text text-anchor="middle" x="692.5" y="-117" font-family="Malgun Gothic" font-size="10.00">AGameCharacter.h</text>
</a>
</g>
</g>
<!-- Node10&#45;&gt;Node11 -->
<g id="edge13_Node000010_Node000011" class="edge">
<title>Node10&#45;&gt;Node11</title>
<g id="a_edge13_Node000010_Node000011"><a xlink:title=" ">
<path fill="none" stroke="#63b8ff" d="M430.16,-167.72C489.33,-157.07 577.31,-141.23 634.8,-130.89"/>
<polygon fill="#63b8ff" stroke="#63b8ff" points="635.59,-134.3 644.81,-129.08 634.35,-127.41 635.59,-134.3"/>
</a>
</g>
</g>
<!-- Node19 -->
<g id="Node000019" class="node">
<title>Node19</title>
<g id="a_Node000019"><a xlink:href="IControllable_8h.html" target="_top" xlink:title="IControllable 인터페이스 선언에 대한 Doxygen 주석을 제공합니다.">
<polygon fill="white" stroke="#666666" points="339.5,-129 251.5,-129 251.5,-110 339.5,-110 339.5,-129"/>
<text text-anchor="middle" x="295.5" y="-117" font-family="Malgun Gothic" font-size="10.00">IControllable.h</text>
</a>
</g>
</g>
<!-- Node10&#45;&gt;Node19 -->
<g id="edge24_Node000010_Node000019" class="edge">
<title>Node10&#45;&gt;Node19</title>
<g id="a_edge24_Node000010_Node000019"><a xlink:title=" ">
<path fill="none" stroke="#63b8ff" d="M350.07,-164.84C339.19,-156 325.2,-144.63 314.11,-135.62"/>
<polygon fill="#63b8ff" stroke="#63b8ff" points="316.26,-132.86 306.29,-129.27 311.84,-138.29 316.26,-132.86"/>
</a>
</g>
</g>
<!-- Node22 -->
<g id="Node000022" class="node">
<title>Node22</title>
<g id="a_Node000022"><a xlink:title=" ">
<polygon fill="#e0e0e0" stroke="#999999" points="233.5,-129 93.5,-129 93.5,-110 233.5,-110 233.5,-129"/>
<text text-anchor="middle" x="163.5" y="-117" font-family="Malgun Gothic" font-size="10.00">APlayerActor.generated.h</text>
</a>
</g>
</g>
<!-- Node10&#45;&gt;Node22 -->
<g id="edge28_Node000010_Node000022" class="edge">
<title>Node10&#45;&gt;Node22</title>
<g id="a_edge28_Node000010_Node000022"><a xlink:title=" ">
<path fill="none" stroke="#63b8ff" d="M318.64,-164.99C283.28,-154.85 236.1,-141.32 203.09,-131.85"/>
<polygon fill="#63b8ff" stroke="#63b8ff" points="203.91,-128.45 193.33,-129.05 201.98,-135.17 203.91,-128.45"/>
</a>
</g>
</g>
<!-- Node11&#45;&gt;Node3 -->
<g id="edge14_Node000011_Node000003" class="edge">
<title>Node11&#45;&gt;Node3</title>
<g id="a_edge14_Node000011_Node000003"><a xlink:title=" ">
<path fill="none" stroke="#63b8ff" d="M638.36,-114.86C570.35,-109.39 458.46,-97.14 424.5,-74 408.61,-63.17 398.31,-43.3 392.5,-28.66"/>
<polygon fill="#63b8ff" stroke="#63b8ff" points="395.74,-27.34 389.04,-19.13 389.16,-29.72 395.74,-27.34"/>
</a>
</g>
</g>
<!-- Node12 -->
<g id="Node000012" class="node">
<title>Node12</title>
<g id="a_Node000012"><a xlink:title=" ">
<polygon fill="#e0e0e0" stroke="#999999" points="772,-74 613,-74 613,-55 772,-55 772,-74"/>
<text text-anchor="middle" x="692.5" y="-62" font-family="Malgun Gothic" font-size="10.00">GameFramework/Character.h</text>
</a>
</g>
</g>
<!-- Node11&#45;&gt;Node12 -->
<g id="edge15_Node000011_Node000012" class="edge">
<title>Node11&#45;&gt;Node12</title>
<g id="a_edge15_Node000011_Node000012"><a xlink:title=" ">
<path fill="none" stroke="#63b8ff" d="M692.5,-109.75C692.5,-102.8 692.5,-92.85 692.5,-84.13"/>
<polygon fill="#63b8ff" stroke="#63b8ff" points="696,-84.09 692.5,-74.09 689,-84.09 696,-84.09"/>
</a>
</g>
</g>
<!-- Node13 -->
<g id="Node000013" class="node">
<title>Node13</title>
<g id="a_Node000013"><a xlink:href="EBodyPartType_8h.html" target="_top" xlink:title="EBodyPartType 열거형에 대한 Doxygen 주석을 제공합니다.">
<polygon fill="white" stroke="#666666" points="887.5,-74 789.5,-74 789.5,-55 887.5,-55 887.5,-74"/>
<text text-anchor="middle" x="838.5" y="-62" font-family="Malgun Gothic" font-size="10.00">EBodyPartType.h</text>
</a>
</g>
</g>
<!-- Node11&#45;&gt;Node13 -->
<g id="edge16_Node000011_Node000013" class="edge">
<title>Node11&#45;&gt;Node13</title>
<g id="a_edge16_Node000011_Node000013"><a xlink:title=" ">
<path fill="none" stroke="#63b8ff" d="M715.96,-109.98C740.08,-101.23 777.87,-87.51 805.1,-77.62"/>
<polygon fill="#63b8ff" stroke="#63b8ff" points="806.41,-80.87 814.62,-74.17 804.02,-74.29 806.41,-80.87"/>
</a>
</g>
</g>
<!-- Node14 -->
<g id="Node000014" class="node">
<title>Node14</title>
<g id="a_Node000014"><a xlink:href="ECharacterType_8h.html" target="_top" xlink:title="ECharacterType 열거형에 대한 Doxygen 주석을 제공합니다.">
<polygon fill="white" stroke="#666666" points="1173,-19 1072,-19 1072,0 1173,0 1173,-19"/>
<text text-anchor="middle" x="1122.5" y="-7" font-family="Malgun Gothic" font-size="10.00">ECharacterType.h</text>
</a>
</g>
</g>
<!-- Node11&#45;&gt;Node14 -->
<g id="edge17_Node000011_Node000014" class="edge">
<title>Node11&#45;&gt;Node14</title>
<g id="a_edge17_Node000011_Node000014"><a xlink:title=" ">
<path fill="none" stroke="#63b8ff" d="M746.63,-115.18C831.19,-109.4 990.36,-95.97 1042.5,-74 1068.15,-63.2 1092.41,-41.77 1107.35,-26.81"/>
<polygon fill="#63b8ff" stroke="#63b8ff" points="1110.21,-28.9 1114.64,-19.27 1105.18,-24.03 1110.21,-28.9"/>
</a>
</g>
</g>
<!-- Node15 -->
<g id="Node000015" class="node">
<title>Node15</title>
<g id="a_Node000015"><a xlink:href="UStatSystem_8h.html" target="_top" xlink:title="UStatSystem 선언에 대한 Doxygen 주석을 제공합니다.">
<polygon fill="white" stroke="#666666" points="1033,-74 944,-74 944,-55 1033,-55 1033,-74"/>
<text text-anchor="middle" x="988.5" y="-62" font-family="Malgun Gothic" font-size="10.00">UStatSystem.h</text>
</a>
</g>
</g>
<!-- Node11&#45;&gt;Node15 -->
<g id="edge18_Node000011_Node000015" class="edge">
<title>Node11&#45;&gt;Node15</title>
<g id="a_edge18_Node000011_Node000015"><a xlink:title=" ">
<path fill="none" stroke="#63b8ff" d="M740.06,-109.98C792.98,-100.51 878.35,-85.22 933.95,-75.27"/>
<polygon fill="#63b8ff" stroke="#63b8ff" points="934.74,-78.68 943.97,-73.47 933.51,-71.79 934.74,-78.68"/>
</a>
</g>
</g>
<!-- Node18 -->
<g id="Node000018" class="node">
<title>Node18</title>
<g id="a_Node000018"><a xlink:title=" ">
<polygon fill="#e0e0e0" stroke="#999999" points="595,-74 434,-74 434,-55 595,-55 595,-74"/>
<text text-anchor="middle" x="514.5" y="-62" font-family="Malgun Gothic" font-size="10.00">AGameCharacter.generated.h</text>
</a>
</g>
</g>
<!-- Node11&#45;&gt;Node18 -->
<g id="edge23_Node000011_Node000018" class="edge">
<title>Node11&#45;&gt;Node18</title>
<g id="a_edge23_Node000011_Node000018"><a xlink:title=" ">
<path fill="none" stroke="#63b8ff" d="M663.9,-109.98C633.89,-101.05 586.52,-86.94 553.18,-77.02"/>
<polygon fill="#63b8ff" stroke="#63b8ff" points="553.91,-73.58 543.32,-74.08 551.91,-80.29 553.91,-73.58"/>
</a>
</g>
</g>
<!-- Node15&#45;&gt;Node3 -->
<g id="edge19_Node000015_Node000003" class="edge">
<title>Node15&#45;&gt;Node3</title>
<g id="a_edge19_Node000015_Node000003"><a xlink:title=" ">
<path fill="none" stroke="#63b8ff" d="M943.76,-56.76C938.95,-56.12 934.13,-55.52 929.5,-55 751.08,-34.86 538.69,-20.12 440.81,-13.84"/>
<polygon fill="#63b8ff" stroke="#63b8ff" points="440.78,-10.34 430.58,-13.19 440.34,-17.32 440.78,-10.34"/>
</a>
</g>
</g>
<!-- Node15&#45;&gt;Node14 -->
<g id="edge20_Node000015_Node000014" class="edge">
<title>Node15&#45;&gt;Node14</title>
<g id="a_edge20_Node000015_Node000014"><a xlink:title=" ">
<path fill="none" stroke="#63b8ff" d="M1010.03,-54.98C1031.97,-46.3 1066.24,-32.75 1091.19,-22.88"/>
<polygon fill="#63b8ff" stroke="#63b8ff" points="1092.57,-26.1 1100.58,-19.17 1089.99,-19.59 1092.57,-26.1"/>
</a>
</g>
</g>
<!-- Node16 -->
<g id="Node000016" class="node">
<title>Node16</title>
<g id="a_Node000016"><a xlink:title=" ">
<polygon fill="#e0e0e0" stroke="#999999" points="1053.5,-19 881.5,-19 881.5,0 1053.5,0 1053.5,-19"/>
<text text-anchor="middle" x="967.5" y="-7" font-family="Malgun Gothic" font-size="10.00">Components/ActorComponent.h</text>
</a>
</g>
</g>
<!-- Node15&#45;&gt;Node16 -->
<g id="edge21_Node000015_Node000016" class="edge">
<title>Node15&#45;&gt;Node16</title>
<g id="a_edge21_Node000015_Node000016"><a xlink:title=" ">
<path fill="none" stroke="#63b8ff" d="M985.03,-54.75C982.22,-47.65 978.16,-37.4 974.65,-28.56"/>
<polygon fill="#63b8ff" stroke="#63b8ff" points="977.84,-27.1 970.9,-19.09 971.33,-29.68 977.84,-27.1"/>
</a>
</g>
</g>
<!-- Node17 -->
<g id="Node000017" class="node">
<title>Node17</title>
<g id="a_Node000017"><a xlink:title=" ">
<polygon fill="#e0e0e0" stroke="#999999" points="863.5,-19 721.5,-19 721.5,0 863.5,0 863.5,-19"/>
<text text-anchor="middle" x="792.5" y="-7" font-family="Malgun Gothic" font-size="10.00">UStatSystem.generated.h</text>
</a>
</g>
</g>
<!-- Node15&#45;&gt;Node17 -->
<g id="edge22_Node000015_Node000017" class="edge">
<title>Node15&#45;&gt;Node17</title>
<g id="a_edge22_Node000015_Node000017"><a xlink:title=" ">
<path fill="none" stroke="#63b8ff" d="M957.01,-54.98C923.68,-45.97 870.9,-31.7 834.15,-21.76"/>
<polygon fill="#63b8ff" stroke="#63b8ff" points="834.8,-18.31 824.24,-19.08 832.98,-25.07 834.8,-18.31"/>
</a>
</g>
</g>
<!-- Node19&#45;&gt;Node3 -->
<g id="edge25_Node000019_Node000003" class="edge">
<title>Node19&#45;&gt;Node3</title>
<g id="a_edge25_Node000019_Node000003"><a xlink:title=" ">
<path fill="none" stroke="#63b8ff" d="M302.95,-109.66C318.15,-91.61 352.98,-50.28 372.53,-27.08"/>
<polygon fill="#63b8ff" stroke="#63b8ff" points="375.44,-29.06 379.2,-19.16 370.08,-24.55 375.44,-29.06"/>
</a>
</g>
</g>
<!-- Node20 -->
<g id="Node000020" class="node">
<title>Node20</title>
<g id="a_Node000020"><a xlink:title=" ">
<polygon fill="#e0e0e0" stroke="#999999" points="301,-74 190,-74 190,-55 301,-55 301,-74"/>
<text text-anchor="middle" x="245.5" y="-62" font-family="Malgun Gothic" font-size="10.00">UObject/Interface.h</text>
</a>
</g>
</g>
<!-- Node19&#45;&gt;Node20 -->
<g id="edge26_Node000019_Node000020" class="edge">
<title>Node19&#45;&gt;Node20</title>
<g id="a_edge26_Node000019_Node000020"><a xlink:title=" ">
<path fill="none" stroke="#63b8ff" d="M287.24,-109.75C280.04,-102.11 269.39,-90.82 260.65,-81.56"/>
<polygon fill="#63b8ff" stroke="#63b8ff" points="263.01,-78.96 253.6,-74.09 257.92,-83.76 263.01,-78.96"/>
</a>
</g>
</g>
<!-- Node21 -->
<g id="Node000021" class="node">
<title>Node21</title>
<g id="a_Node000021"><a xlink:title=" ">
<polygon fill="#e0e0e0" stroke="#999999" points="171.5,-74 31.5,-74 31.5,-55 171.5,-55 171.5,-74"/>
<text text-anchor="middle" x="101.5" y="-62" font-family="Malgun Gothic" font-size="10.00">IControllable.generated.h</text>
</a>
</g>
</g>
<!-- Node19&#45;&gt;Node21 -->
<g id="edge27_Node000019_Node000021" class="edge">
<title>Node19&#45;&gt;Node21</title>
<g id="a_edge27_Node000019_Node000021"><a xlink:title=" ">
<path fill="none" stroke="#63b8ff" d="M264.33,-109.98C231.34,-100.97 179.1,-86.7 142.73,-76.76"/>
<polygon fill="#63b8ff" stroke="#63b8ff" points="143.48,-73.34 132.91,-74.08 141.64,-80.09 143.48,-73.34"/>
</a>
</g>
</g>
</g>
</svg>

<g id="navigator" transform="translate(0 0)" fill="#404254">
  <rect fill="#f2f5e9" fill-opacity="0.5" stroke="#606060" stroke-width=".5" x="0" y="0" width="60" height="60"/>
  <use id="zoomplus" xlink:href="#zoomPlus" x="17" y="9" onmousedown="handleZoom(evt,'in')"/>
  <use id="zoomminus" xlink:href="#zoomMin" x="42" y="9" onmousedown="handleZoom(evt,'out')"/>
  <use id="reset" xlink:href="#resetDef" x="30" y="36" onmousedown="handleReset()"/>
   <use id="arrowup" xlink:href="#arrowUp" x="0" y="0" onmousedown="handlePan(0,-1)"/>
  <use id="arrowright" xlink:href="#arrowRight" x="0" y="0" onmousedown="handlePan(1,0)"/>
  <use id="arrowdown" xlink:href="#arrowDown" x="0" y="0" onmousedown="handlePan(0,1)"/>
  <use id="arrowleft" xlink:href="#arrowLeft" x="0" y="0" onmousedown="handlePan(-1,0)"/>
</g>
<svg viewBox="0 0 15 15" width="100%" height="30px" preserveAspectRatio="xMaxYMin meet">
 <g id="arrow_out" transform="scale(0.3 0.3)">
  <a xlink:href="YiSanVoiceConsoleSubsystem_8cpp__incl_org.svg" target="_base">
   <rect id="button" ry="5" rx="5" y="6" x="6" height="38" width="38"
        fill="#f2f5e9" fill-opacity="0.5" stroke="#606060" stroke-width="1.0"/>
   <path id="arrow"
     d="M 11.500037,31.436501 C 11.940474,20.09759 22.043105,11.32322 32.158766,21.979434 L 37.068811,17.246167 C 37.068811,17.246167 37.088388,32 37.088388,32 L 22.160133,31.978069 C 22.160133,31.978069 26.997745,27.140456 26.997745,27.140456 C 18.528582,18.264221 13.291696,25.230495 11.500037,31.436501 z"
     style="fill:#404040;"/>
  </a>
 </g>
</svg>

<style type='text/css'>
<![CDATA[
[data-mouse-over-selected='false'] { opacity: 0.7; }
[data-mouse-over-selected='true']  { opacity: 1.0; }
]]>
</style>
<script type="application/ecmascript"><![CDATA[
document.addEventListener('DOMContentLoaded', (event) => {
  highlightEdges();
  highlightAdjacentNodes();
});
]]></script>
</svg>
