<?xml version="1.0" encoding="UTF-8" standalone="no"?>
<!DOCTYPE svg PUBLIC "-//W3C//DTD SVG 1.1//EN"
 "http://www.w3.org/Graphics/SVG/1.1/DTD/svg11.dtd">
<!-- Generated by graphviz version 2.43.0 (0)
 -->
<!-- Title: Source/YiSan/YiSan.h Pages: 1 -->
<svg width="537pt" height="93pt"
 viewBox="0.00 0.00 536.50 93.00" xmlns="http://www.w3.org/2000/svg" xmlns:xlink="http://www.w3.org/1999/xlink">
<g id="graph0" class="graph" transform="scale(1 1) rotate(0) translate(4 89)">
<title>Source/YiSan/YiSan.h</title>
<!-- Node1 -->
<g id="Node000001" class="node">
<title>Node1</title>
<g id="a_Node000001"><a xlink:title=" ">
<polygon fill="#999999" stroke="#666666" points="374,-85 255,-85 255,-66 374,-66 374,-85"/>
<text text-anchor="middle" x="314.5" y="-73" font-family="Malgun Gothic" font-size="10.00">Source/YiSan/YiSan.h</text>
</a>
</g>
</g>
<!-- Node2 -->
<g id="Node000002" class="node">
<title>Node2</title>
<g id="a_Node000002"><a xlink:href="UYiSanVoiceConsoleSubsystem_8cpp.html" target="_top" xlink:title=" ">
<polygon fill="white" stroke="#666666" points="231,-30 0,-30 0,0 231,0 231,-30"/>
<text text-anchor="start" x="8" y="-18" font-family="Malgun Gothic" font-size="10.00">Source/YiSan/Environment</text>
<text text-anchor="middle" x="115.5" y="-7" font-family="Malgun Gothic" font-size="10.00">/Private/UYiSanVoiceConsoleSubsystem.cpp</text>
</a>
</g>
</g>
<!-- Node1&#45;&gt;Node2 -->
<g id="edge1_Node000001_Node000002" class="edge">
<title>Node1&#45;&gt;Node2</title>
<g id="a_edge1_Node000001_Node000002"><a xlink:title=" ">
<path fill="none" stroke="#63b8ff" d="M275.64,-63.08C243.51,-53.63 197.73,-40.17 163.34,-30.06"/>
<polygon fill="#63b8ff" stroke="#63b8ff" points="274.98,-66.53 285.56,-65.99 276.96,-59.82 274.98,-66.53"/>
</a>
</g>
</g>
<!-- Node3 -->
<g id="Node000003" class="node">
<title>Node3</title>
<g id="a_Node000003"><a xlink:href="UMainWdget_8cpp.html" target="_top" xlink:title=" ">
<polygon fill="white" stroke="#666666" points="380,-30 249,-30 249,0 380,0 380,-30"/>
<text text-anchor="start" x="257" y="-18" font-family="Malgun Gothic" font-size="10.00">Source/YiSan/UI/Private</text>
<text text-anchor="middle" x="314.5" y="-7" font-family="Malgun Gothic" font-size="10.00">/UMainWdget.cpp</text>
</a>
</g>
</g>
<!-- Node1&#45;&gt;Node3 -->
<g id="edge2_Node000001_Node000003" class="edge">
<title>Node1&#45;&gt;Node3</title>
<g id="a_edge2_Node000001_Node000003"><a xlink:title=" ">
<path fill="none" stroke="#63b8ff" d="M314.5,-55.65C314.5,-47.36 314.5,-37.78 314.5,-30.11"/>
<polygon fill="#63b8ff" stroke="#63b8ff" points="311,-55.87 314.5,-65.87 318,-55.87 311,-55.87"/>
</a>
</g>
</g>
<!-- Node4 -->
<g id="Node000004" class="node">
<title>Node4</title>
<g id="a_Node000004"><a xlink:href="YiSan_8cpp.html" target="_top" xlink:title=" ">
<polygon fill="white" stroke="#666666" points="528.5,-24.5 398.5,-24.5 398.5,-5.5 528.5,-5.5 528.5,-24.5"/>
<text text-anchor="middle" x="463.5" y="-12.5" font-family="Malgun Gothic" font-size="10.00">Source/YiSan/YiSan.cpp</text>
</a>
</g>
</g>
<!-- Node1&#45;&gt;Node4 -->
<g id="edge3_Node000001_Node000004" class="edge">
<title>Node1&#45;&gt;Node4</title>
<g id="a_edge3_Node000001_Node000004"><a xlink:title=" ">
<path fill="none" stroke="#63b8ff" d="M345.75,-62.23C374.55,-50.92 416.53,-34.44 441.81,-24.52"/>
<polygon fill="#63b8ff" stroke="#63b8ff" points="344.2,-59.08 336.17,-65.99 346.75,-65.6 344.2,-59.08"/>
</a>
</g>
</g>
</g>
</svg>
