<?xml version="1.0" encoding="UTF-8" standalone="no"?>
<!DOCTYPE svg PUBLIC "-//W3C//DTD SVG 1.1//EN"
 "http://www.w3.org/Graphics/SVG/1.1/DTD/svg11.dtd">
<!-- Generated by graphviz version 2.43.0 (0)
 -->
<!-- Title: Source/YiSan/YiSan.h Pages: 1 -->
<svg width="288pt" height="93pt"
 viewBox="0.00 0.00 287.50 93.00" xmlns="http://www.w3.org/2000/svg" xmlns:xlink="http://www.w3.org/1999/xlink">
<g id="graph0" class="graph" transform="scale(1 1) rotate(0) translate(4 89)">
<title>Source/YiSan/YiSan.h</title>
<!-- Node1 -->
<g id="Node000001" class="node">
<title>Node1</title>
<g id="a_Node000001"><a xlink:title=" ">
<polygon fill="#999999" stroke="#666666" points="199,-85 80,-85 80,-66 199,-66 199,-85"/>
<text text-anchor="middle" x="139.5" y="-73" font-family="Malgun Gothic" font-size="10.00">Source/YiSan/YiSan.h</text>
</a>
</g>
</g>
<!-- Node2 -->
<g id="Node000002" class="node">
<title>Node2</title>
<g id="a_Node000002"><a xlink:href="UMainWdget_8cpp.html" target="_top" xlink:title=" ">
<polygon fill="white" stroke="#666666" points="131,-30 0,-30 0,0 131,0 131,-30"/>
<text text-anchor="start" x="8" y="-18" font-family="Malgun Gothic" font-size="10.00">Source/YiSan/UI/Private</text>
<text text-anchor="middle" x="65.5" y="-7" font-family="Malgun Gothic" font-size="10.00">/UMainWdget.cpp</text>
</a>
</g>
</g>
<!-- Node1&#45;&gt;Node2 -->
<g id="edge1_Node000001_Node000002" class="edge">
<title>Node1&#45;&gt;Node2</title>
<g id="a_edge1_Node000001_Node000002"><a xlink:title=" ">
<path fill="none" stroke="#63b8ff" d="M120.53,-59.5C109.08,-50.45 94.59,-39 83.35,-30.11"/>
<polygon fill="#63b8ff" stroke="#63b8ff" points="118.57,-62.41 128.58,-65.87 122.91,-56.92 118.57,-62.41"/>
</a>
</g>
</g>
<!-- Node3 -->
<g id="Node000003" class="node">
<title>Node3</title>
<g id="a_Node000003"><a xlink:href="YiSan_8cpp.html" target="_top" xlink:title=" ">
<polygon fill="white" stroke="#666666" points="279.5,-24.5 149.5,-24.5 149.5,-5.5 279.5,-5.5 279.5,-24.5"/>
<text text-anchor="middle" x="214.5" y="-12.5" font-family="Malgun Gothic" font-size="10.00">Source/YiSan/YiSan.cpp</text>
</a>
</g>
</g>
<!-- Node1&#45;&gt;Node3 -->
<g id="edge2_Node000001_Node000003" class="edge">
<title>Node1&#45;&gt;Node3</title>
<g id="a_edge2_Node000001_Node000003"><a xlink:title=" ">
<path fill="none" stroke="#63b8ff" d="M158.68,-59.54C172.85,-48.49 191.63,-33.84 203.39,-24.67"/>
<polygon fill="#63b8ff" stroke="#63b8ff" points="156.3,-56.96 150.57,-65.87 160.6,-62.48 156.3,-56.96"/>
</a>
</g>
</g>
</g>
</svg>
