<?xml version="1.0" encoding="UTF-8"?>
<svg version="1.1" xmlns="http://www.w3.org/2000/svg" width="662" height="630">
<path d="M0 0 C0.77495922 -0.00175304 1.54991845 -0.00350607 2.34836128 -0.00531223 C4.95455725 -0.00997756 7.56069755 -0.00750535 10.16689587 -0.00507832 C12.05054383 -0.00694602 13.93419141 -0.00924656 15.81783837 -0.01194364 C21.00162036 -0.01807307 26.18538624 -0.0179267 31.36917102 -0.01674926 C36.95688462 -0.01654555 42.54459301 -0.02206125 48.13230419 -0.02680683 C59.08251374 -0.0351202 70.0327179 -0.03786198 80.98293034 -0.03841921 C89.88196239 -0.03889404 98.78099266 -0.04094715 107.68002415 -0.04411983 C128.79412642 -0.05149446 149.90822759 -0.05764446 171.02233124 -0.05712128 C172.0353342 -0.05709791 172.0353342 -0.05709791 173.06880188 -0.05707407 C176.49172707 -0.05699096 179.91465225 -0.05689192 183.33757744 -0.05678936 C184.01738959 -0.05676942 184.69720174 -0.05674947 185.39761426 -0.05672892 C186.77236035 -0.05668848 188.14710644 -0.05664669 189.52185254 -0.05660353 C210.91112406 -0.05599076 232.30037973 -0.06349738 253.68964672 -0.07717609 C277.71728374 -0.09253573 301.74490885 -0.10112972 325.77255219 -0.10021287 C338.49584815 -0.09988059 351.21912623 -0.10264124 363.9424181 -0.11339092 C374.77465952 -0.12248409 385.60687496 -0.12468092 396.43911854 -0.1178815 C401.96711495 -0.11461032 407.49506147 -0.11458117 413.02305317 -0.12323475 C418.08297595 -0.13107423 423.14280908 -0.12969448 428.20272961 -0.12095062 C430.03380094 -0.11940999 431.86487889 -0.12125287 433.69594244 -0.12681069 C436.18487502 -0.13386532 438.67349265 -0.12858143 441.16241455 -0.12025452 C441.87315507 -0.1252227 442.58389559 -0.13019088 443.3161737 -0.13530961 C448.29658768 -0.10008766 452.50887644 0.80318428 457.26996899 2.12863445 C458.68527863 2.40647208 460.10170159 2.67881264 461.51996899 2.94113445 C473.87529794 5.71737475 485.44528337 12.04439926 494.26996899 21.12863445 C495.34217498 21.99672783 496.42433285 22.8528068 497.51996899 23.69113445 C498.42746899 24.49550945 499.33496899 25.29988445 500.26996899 26.12863445 C500.26996899 27.11863445 500.26996899 28.10863445 500.26996899 29.12863445 C500.82684399 29.31425945 501.38371899 29.49988445 501.95746899 29.69113445 C511.27094365 35.48059167 515.64154278 50.07971231 518.26996899 60.12863445 C518.60045494 61.18230788 518.9309409 62.2359813 519.27144158 63.32158422 C522.34989633 75.05870008 521.4153908 88.25209899 521.39695263 100.33627605 C521.39810787 102.01080309 521.39969808 103.68532987 521.40167987 105.35985613 C521.40581754 109.91450443 521.40380796 114.46913153 521.40069366 119.02377987 C521.39841705 123.95348783 521.40193027 128.88319233 521.40467358 133.81289959 C521.40910537 143.44947559 521.40816658 153.08604377 521.40526094 162.72262007 C521.40299775 170.55397834 521.40269834 178.38533442 521.40378475 186.21669292 C521.4040146 187.8918454 521.4040146 187.8918454 521.40424909 189.60083935 C521.40456883 191.86979695 521.40489305 194.13875456 521.40522169 196.40771216 C521.40806861 217.64884133 521.40480126 238.88996617 521.39942132 260.13109463 C521.39494908 278.35293298 521.3957342 296.57476497 521.40034008 314.7966032 C521.40569127 335.97684919 521.40779916 357.1570914 521.40472782 378.33733797 C521.40440928 380.59525935 521.4040949 382.85318073 521.40378475 385.1111021 C521.40363048 386.22195715 521.4034762 387.3328122 521.40331725 388.47732952 C521.4024541 396.30244906 521.40391053 404.12756619 521.40626431 411.95268536 C521.40906832 421.48360338 521.40831109 431.01451316 521.40298356 440.54543024 C521.40035546 445.40717686 521.39932651 450.26890973 521.40263271 455.13065624 C521.40561365 459.58132997 521.40397285 464.03197723 521.39865516 468.48264855 C521.39753873 470.09199217 521.39810501 471.70133803 521.40053095 473.31068021 C521.40357835 475.50032749 521.40044571 477.68988449 521.39581013 479.87952709 C521.39564777 481.09507227 521.39548542 482.31061746 521.39531815 483.56299734 C521.19848331 489.16209012 520.48331777 494.65445621 519.26996899 500.12863445 C519.11399242 500.83761883 518.95801586 501.5466032 518.79731274 502.27707195 C515.53862184 514.57809055 508.72838255 525.72455975 500.26996899 535.12863445 C499.6989143 535.76929852 499.12785961 536.40996258 498.53950024 537.0700407 C496.95746899 538.75363445 496.95746899 538.75363445 494.26996899 541.12863445 C493.27996899 541.12863445 492.28996899 541.12863445 491.26996899 541.12863445 C491.05598461 541.71644695 490.84200024 542.30425945 490.62153149 542.90988445 C487.80021203 547.54141466 481.92312374 549.61135401 477.26996899 552.12863445 C476.15428539 552.75705242 476.15428539 552.75705242 475.01606274 553.3981657 C470.91273668 555.61147491 467.00899059 556.80600633 462.43793774 557.6950407 C459.32831613 558.31696502 456.31543221 559.25013545 453.26996899 560.12863445 C449.0481229 561.17330023 444.9551107 561.26876621 440.63084888 561.25447559 C439.86572031 561.25592903 439.10059173 561.25738248 438.31227744 561.25887996 C435.73953046 561.26253943 433.16684276 561.25905375 430.59409618 561.2556181 C428.73448448 561.25676994 426.87487301 561.25835788 425.01526201 561.26034534 C419.89795712 561.26453008 414.78067081 561.26245179 409.66336584 561.25935912 C404.14724792 561.25710175 398.63113326 561.26058635 393.11501598 561.26333904 C382.30551085 561.26779227 371.49601265 561.2668222 360.68650724 561.2639264 C351.90236003 561.26167039 343.11821476 561.26136071 334.33406734 561.26245022 C333.08507794 561.26260345 331.83608853 561.26275668 330.54925095 561.26291456 C328.01213174 561.26323428 325.47501253 561.26355849 322.93789332 561.26388715 C299.80973175 561.2666593 276.68157381 561.26378152 253.55341308 561.25854455 C232.43939843 561.25380001 211.32538982 561.25422249 190.21137524 561.25900555 C166.49394929 561.2643604 142.77652627 561.26646486 119.05909956 561.26339328 C116.53056709 561.26307473 114.00203462 561.26276036 111.47350216 561.26245022 C109.60727145 561.2622188 109.60727145 561.2622188 107.70333911 561.26198272 C98.92909668 561.26111872 90.15485638 561.26257795 81.38061428 561.26492977 C70.68851906 561.26773258 59.99643118 561.26697936 49.3043368 561.26164903 C43.84736271 561.25901837 38.39040086 561.25799624 32.93342686 561.26129818 C27.93957687 561.26427421 22.94575051 561.26264641 17.95190267 561.25732063 C16.14372982 561.25620203 14.33555498 561.25677531 12.5273834 561.25919642 C10.07181759 561.26223256 7.61633293 561.25912253 5.16077137 561.25447559 C4.45702991 561.25681676 3.75328845 561.25915793 3.02822149 561.26157004 C-3.89773327 561.23533505 -10.12071745 560.13503321 -16.73003101 558.12863445 C-17.79479664 557.85277508 -18.85956226 557.5769157 -19.95659351 557.29269695 C-24.07886468 556.02102324 -27.7636762 554.3800908 -31.60503101 552.44113445 C-32.65557667 551.91157146 -32.65557667 551.91157146 -33.72734547 551.37131023 C-41.85860681 547.16584258 -48.00967737 542.24042547 -53.73003101 535.12863445 C-54.67878101 534.40675945 -55.62753101 533.68488445 -56.60503101 532.94113445 C-63.85079009 527.11464777 -67.73944884 517.69050423 -70.73003101 509.12863445 C-71.28690601 507.61269695 -71.28690601 507.61269695 -71.85503101 506.06613445 C-72.82865668 502.79753401 -73.56779177 499.5165396 -74.26518726 496.1794157 C-74.73571187 493.94710953 -74.73571187 493.94710953 -75.73003101 491.12863445 C-75.82442422 488.81214825 -75.85557803 486.49295577 -75.85587215 484.1745472 C-75.8573256 483.45919116 -75.85877904 482.74383513 -75.86027652 482.00680164 C-75.86394814 479.59137248 -75.86044472 477.17600597 -75.85701466 474.7605772 C-75.85816601 473.01874734 -75.85975363 471.27691771 -75.8617419 469.5350886 C-75.86593318 464.73425718 -75.86384543 459.93344553 -75.86075568 455.13261402 C-75.85850101 449.96079965 -75.86198152 444.78898878 -75.8647356 439.6171751 C-75.86919147 429.48017692 -75.86821767 419.34318613 -75.86532296 409.20618766 C-75.86306834 400.97114878 -75.86275666 392.73611198 -75.86384678 384.50107288 C-75.86400001 383.33085436 -75.86415324 382.16063583 -75.86431112 380.95495613 C-75.86463083 378.5779982 -75.86495505 376.20104026 -75.86528371 373.82408232 C-75.86813793 351.51495215 -75.86485232 329.20582608 -75.85948335 306.89669657 C-75.85501478 287.73531899 -75.85579179 268.57394747 -75.86040211 249.41257 C-75.86574788 227.18394816 -75.86786387 204.95532991 -75.86478984 182.72670752 C-75.86447128 180.35859843 -75.86415691 177.99048934 -75.86384678 175.62238026 C-75.8636925 174.45709211 -75.86353823 173.29180397 -75.86337928 172.09120406 C-75.86251417 163.86116124 -75.86397684 155.63112069 -75.86632633 147.40107822 C-75.86912453 137.37853114 -75.86838561 127.3559919 -75.86304559 117.33344572 C-75.86040894 112.21532426 -75.85940291 107.09721588 -75.86269474 101.97909451 C-75.86565841 97.30061447 -75.86406369 92.62215974 -75.85871719 87.94368202 C-75.85759332 86.24455514 -75.85818353 84.54542614 -75.86059298 82.84630059 C-75.86360158 80.54979616 -75.86054762 78.25338025 -75.85587215 75.95688057 C-75.8557098 74.67733039 -75.85554745 73.39778022 -75.85538018 72.07945579 C-75.73003101 69.12863445 -75.73003101 69.12863445 -74.73003101 67.12863445 C-74.60139931 65.77657235 -74.50120922 64.42172142 -74.41753101 63.06613445 C-73.98141816 58.69093773 -72.70717137 55.28780376 -70.76518726 51.3669157 C-69.63899643 49.05997867 -69.63899643 49.05997867 -68.82378101 46.2184782 C-63.30991006 30.64179275 -48.03926177 16.23430457 -33.66753101 8.75363445 C-29.1567749 6.63299327 -24.65342944 5.019773 -19.84721851 3.71457195 C-17.58340362 3.12995181 -17.58340362 3.12995181 -14.91753101 2.00363445 C-10.033495 0.05002005 -5.19657673 -0.01488041 0 0 Z " fill="#E1DED7" transform="translate(108.73003101348877,33.871365547180176)"/>
<path d="M0 0 C3.38481164 0.00534035 6.76948934 0.00003322 10.15429688 -0.00634766 C29.03461942 -0.01435002 47.78524649 0.22788805 66.46679688 3.19287109 C67.13731079 3.29819153 67.80782471 3.40351196 68.49865723 3.51202393 C87.92761863 6.61871428 111.47040652 11.36005433 124.44726562 27.43115234 C126.7645804 30.6933916 126.77202156 32.82088322 126.75195312 36.79443359 C126.74873047 37.91591797 126.74550781 39.03740234 126.7421875 40.19287109 C126.73380859 41.36849609 126.72542969 42.54412109 126.71679688 43.75537109 C126.71228516 44.93873047 126.70777344 46.12208984 126.703125 47.34130859 C126.69131154 50.27104616 126.67483945 53.20068382 126.65429688 56.13037109 C127.37383545 56.10418701 128.09337402 56.07800293 128.8347168 56.05102539 C159.51301369 55.08104802 159.51301369 55.08104802 172.66210938 66.25537109 C178.96857821 72.19087117 183.28966511 78.11934308 186.65429688 86.13037109 C187.13576172 87.23251953 187.13576172 87.23251953 187.62695312 88.35693359 C192.29513842 100.99360261 190.58376587 116.70766484 185.50585938 128.88427734 C178.27350914 143.57890803 165.62018303 154.39244764 150.40429688 160.13037109 C142.44514011 162.59647251 134.91415219 162.61879881 126.65429688 162.13037109 C126.64011719 162.73880859 126.6259375 163.34724609 126.61132812 163.97412109 C125.60058396 182.54995976 116.86281396 200.55929888 105.65429688 215.13037109 C107.19537109 215.85740234 107.19537109 215.85740234 108.76757812 216.59912109 C121.76028707 222.83455254 132.97375737 228.76929209 139.65429688 242.13037109 C140.69147104 253.15405074 139.01437773 260.37925244 132.37695312 269.13427734 C120.77146074 282.74190574 99.72038885 288.86982898 83.14550781 293.44140625 C81.44200841 293.912523 79.74222519 294.39723145 78.04589844 294.89355469 C71.06140824 296.89759133 64.08663446 298.18402002 56.90429688 299.25537109 C55.83953125 299.42423828 54.77476562 299.59310547 53.67773438 299.76708984 C37.88734894 302.17162096 22.13518535 302.34369994 6.19702148 302.37060547 C2.75479526 302.38026447 -0.6868204 302.41136233 -4.12890625 302.44287109 C-19.08841183 302.51438008 -33.56611066 301.43693341 -48.34570312 299.13037109 C-49.62614502 298.9315332 -50.90658691 298.73269531 -52.22583008 298.52783203 C-76.87757539 294.37492775 -107.58448157 287.34596627 -124.34570312 267.13037109 C-128.70514673 260.76216426 -131.37688735 254.59482258 -130.84960938 246.78662109 C-129.02313021 237.15866892 -123.20783743 230.6527025 -115.34570312 225.13037109 C-110.17540413 222.13188141 -104.77062244 219.62727104 -99.34570312 217.13037109 C-98.00901351 216.47045966 -96.67354439 215.80791061 -95.34570312 215.13037109 C-95.75820312 214.66630859 -96.17070313 214.20224609 -96.59570312 213.72412109 C-111.86574691 195.45460442 -117.45332119 171.82039913 -117.53857422 148.50732422 C-117.54675171 147.26079575 -117.5549292 146.01426727 -117.56335449 144.72996521 C-117.58807612 140.62385365 -117.60485027 136.51777846 -117.61914062 132.41162109 C-117.62450703 130.9915415 -117.62988455 129.57146195 -117.63527298 128.15138245 C-117.6568613 122.24402495 -117.67559807 116.33666998 -117.68689537 110.42928314 C-117.70314626 101.99128069 -117.73639752 93.55373754 -117.79329622 85.11590815 C-117.83204816 79.16492801 -117.85153361 73.21407055 -117.85681593 67.26296759 C-117.86045921 63.71575629 -117.8723721 60.1690373 -117.90491867 56.6219635 C-117.94070863 52.66564547 -117.93661504 48.70990213 -117.92919922 44.75341797 C-117.94560455 43.58850327 -117.96200989 42.42358856 -117.97891235 41.22337341 C-117.91126601 32.40121789 -115.61804088 27.24093437 -109.40820312 21.06787109 C-80.75682538 -1.60676764 -34.41595162 -0.06439369 0 0 Z " fill="#422C1A" transform="translate(216.345703125,227.86962890625)"/>
<path d="M0 0 C0.77495922 -0.00175304 1.54991845 -0.00350607 2.34836128 -0.00531223 C4.95455725 -0.00997756 7.56069755 -0.00750535 10.16689587 -0.00507832 C12.05054383 -0.00694602 13.93419141 -0.00924656 15.81783837 -0.01194364 C21.00162036 -0.01807307 26.18538624 -0.0179267 31.36917102 -0.01674926 C36.95688462 -0.01654555 42.54459301 -0.02206125 48.13230419 -0.02680683 C59.08251374 -0.0351202 70.0327179 -0.03786198 80.98293034 -0.03841921 C89.88196239 -0.03889404 98.78099266 -0.04094715 107.68002415 -0.04411983 C128.79412642 -0.05149446 149.90822759 -0.05764446 171.02233124 -0.05712128 C172.0353342 -0.05709791 172.0353342 -0.05709791 173.06880188 -0.05707407 C176.49172707 -0.05699096 179.91465225 -0.05689192 183.33757744 -0.05678936 C184.01738959 -0.05676942 184.69720174 -0.05674947 185.39761426 -0.05672892 C186.77236035 -0.05668848 188.14710644 -0.05664669 189.52185254 -0.05660353 C210.91112406 -0.05599076 232.30037973 -0.06349738 253.68964672 -0.07717609 C277.71728374 -0.09253573 301.74490885 -0.10112972 325.77255219 -0.10021287 C338.49584815 -0.09988059 351.21912623 -0.10264124 363.9424181 -0.11339092 C374.77465952 -0.12248409 385.60687496 -0.12468092 396.43911854 -0.1178815 C401.96711495 -0.11461032 407.49506147 -0.11458117 413.02305317 -0.12323475 C418.08297595 -0.13107423 423.14280908 -0.12969448 428.20272961 -0.12095062 C430.03380094 -0.11940999 431.86487889 -0.12125287 433.69594244 -0.12681069 C436.18487502 -0.13386532 438.67349265 -0.12858143 441.16241455 -0.12025452 C441.87315507 -0.1252227 442.58389559 -0.13019088 443.3161737 -0.13530961 C448.29658768 -0.10008766 452.50887644 0.80318428 457.26996899 2.12863445 C458.68527863 2.40647208 460.10170159 2.67881264 461.51996899 2.94113445 C473.87529794 5.71737475 485.44528337 12.04439926 494.26996899 21.12863445 C495.34217498 21.99672783 496.42433285 22.8528068 497.51996899 23.69113445 C498.42746899 24.49550945 499.33496899 25.29988445 500.26996899 26.12863445 C500.26996899 27.11863445 500.26996899 28.10863445 500.26996899 29.12863445 C500.82684399 29.31425945 501.38371899 29.49988445 501.95746899 29.69113445 C511.27094365 35.48059167 515.64154278 50.07971231 518.26996899 60.12863445 C518.60045494 61.18230788 518.9309409 62.2359813 519.27144158 63.32158422 C522.34989633 75.05870008 521.4153908 88.25209899 521.39695263 100.33627605 C521.39810787 102.01080309 521.39969808 103.68532987 521.40167987 105.35985613 C521.40581754 109.91450443 521.40380796 114.46913153 521.40069366 119.02377987 C521.39841705 123.95348783 521.40193027 128.88319233 521.40467358 133.81289959 C521.40910537 143.44947559 521.40816658 153.08604377 521.40526094 162.72262007 C521.40299775 170.55397834 521.40269834 178.38533442 521.40378475 186.21669292 C521.4040146 187.8918454 521.4040146 187.8918454 521.40424909 189.60083935 C521.40456883 191.86979695 521.40489305 194.13875456 521.40522169 196.40771216 C521.40806861 217.64884133 521.40480126 238.88996617 521.39942132 260.13109463 C521.39494908 278.35293298 521.3957342 296.57476497 521.40034008 314.7966032 C521.40569127 335.97684919 521.40779916 357.1570914 521.40472782 378.33733797 C521.40440928 380.59525935 521.4040949 382.85318073 521.40378475 385.1111021 C521.40363048 386.22195715 521.4034762 387.3328122 521.40331725 388.47732952 C521.4024541 396.30244906 521.40391053 404.12756619 521.40626431 411.95268536 C521.40906832 421.48360338 521.40831109 431.01451316 521.40298356 440.54543024 C521.40035546 445.40717686 521.39932651 450.26890973 521.40263271 455.13065624 C521.40561365 459.58132997 521.40397285 464.03197723 521.39865516 468.48264855 C521.39753873 470.09199217 521.39810501 471.70133803 521.40053095 473.31068021 C521.40357835 475.50032749 521.40044571 477.68988449 521.39581013 479.87952709 C521.39564777 481.09507227 521.39548542 482.31061746 521.39531815 483.56299734 C521.19848331 489.16209012 520.48331777 494.65445621 519.26996899 500.12863445 C519.11399242 500.83761883 518.95801586 501.5466032 518.79731274 502.27707195 C515.53862184 514.57809055 508.72838255 525.72455975 500.26996899 535.12863445 C499.6989143 535.76929852 499.12785961 536.40996258 498.53950024 537.0700407 C496.95746899 538.75363445 496.95746899 538.75363445 494.26996899 541.12863445 C493.27996899 541.12863445 492.28996899 541.12863445 491.26996899 541.12863445 C491.05598461 541.71644695 490.84200024 542.30425945 490.62153149 542.90988445 C487.80021203 547.54141466 481.92312374 549.61135401 477.26996899 552.12863445 C476.15428539 552.75705242 476.15428539 552.75705242 475.01606274 553.3981657 C470.91273668 555.61147491 467.00899059 556.80600633 462.43793774 557.6950407 C459.32831613 558.31696502 456.31543221 559.25013545 453.26996899 560.12863445 C449.0481229 561.17330023 444.9551107 561.26876621 440.63084888 561.25447559 C439.86572031 561.25592903 439.10059173 561.25738248 438.31227744 561.25887996 C435.73953046 561.26253943 433.16684276 561.25905375 430.59409618 561.2556181 C428.73448448 561.25676994 426.87487301 561.25835788 425.01526201 561.26034534 C419.89795712 561.26453008 414.78067081 561.26245179 409.66336584 561.25935912 C404.14724792 561.25710175 398.63113326 561.26058635 393.11501598 561.26333904 C382.30551085 561.26779227 371.49601265 561.2668222 360.68650724 561.2639264 C351.90236003 561.26167039 343.11821476 561.26136071 334.33406734 561.26245022 C333.08507794 561.26260345 331.83608853 561.26275668 330.54925095 561.26291456 C328.01213174 561.26323428 325.47501253 561.26355849 322.93789332 561.26388715 C299.80973175 561.2666593 276.68157381 561.26378152 253.55341308 561.25854455 C232.43939843 561.25380001 211.32538982 561.25422249 190.21137524 561.25900555 C166.49394929 561.2643604 142.77652627 561.26646486 119.05909956 561.26339328 C116.53056709 561.26307473 114.00203462 561.26276036 111.47350216 561.26245022 C109.60727145 561.2622188 109.60727145 561.2622188 107.70333911 561.26198272 C98.92909668 561.26111872 90.15485638 561.26257795 81.38061428 561.26492977 C70.68851906 561.26773258 59.99643118 561.26697936 49.3043368 561.26164903 C43.84736271 561.25901837 38.39040086 561.25799624 32.93342686 561.26129818 C27.93957687 561.26427421 22.94575051 561.26264641 17.95190267 561.25732063 C16.14372982 561.25620203 14.33555498 561.25677531 12.5273834 561.25919642 C10.07181759 561.26223256 7.61633293 561.25912253 5.16077137 561.25447559 C4.45702991 561.25681676 3.75328845 561.25915793 3.02822149 561.26157004 C-3.89773327 561.23533505 -10.12071745 560.13503321 -16.73003101 558.12863445 C-17.79479664 557.85277508 -18.85956226 557.5769157 -19.95659351 557.29269695 C-24.07886468 556.02102324 -27.7636762 554.3800908 -31.60503101 552.44113445 C-32.65557667 551.91157146 -32.65557667 551.91157146 -33.72734547 551.37131023 C-41.85860681 547.16584258 -48.00967737 542.24042547 -53.73003101 535.12863445 C-54.67878101 534.40675945 -55.62753101 533.68488445 -56.60503101 532.94113445 C-63.85079009 527.11464777 -67.73944884 517.69050423 -70.73003101 509.12863445 C-71.28690601 507.61269695 -71.28690601 507.61269695 -71.85503101 506.06613445 C-72.82865668 502.79753401 -73.56779177 499.5165396 -74.26518726 496.1794157 C-74.73571187 493.94710953 -74.73571187 493.94710953 -75.73003101 491.12863445 C-75.82442422 488.81214825 -75.85557803 486.49295577 -75.85587215 484.1745472 C-75.8573256 483.45919116 -75.85877904 482.74383513 -75.86027652 482.00680164 C-75.86394814 479.59137248 -75.86044472 477.17600597 -75.85701466 474.7605772 C-75.85816601 473.01874734 -75.85975363 471.27691771 -75.8617419 469.5350886 C-75.86593318 464.73425718 -75.86384543 459.93344553 -75.86075568 455.13261402 C-75.85850101 449.96079965 -75.86198152 444.78898878 -75.8647356 439.6171751 C-75.86919147 429.48017692 -75.86821767 419.34318613 -75.86532296 409.20618766 C-75.86306834 400.97114878 -75.86275666 392.73611198 -75.86384678 384.50107288 C-75.86400001 383.33085436 -75.86415324 382.16063583 -75.86431112 380.95495613 C-75.86463083 378.5779982 -75.86495505 376.20104026 -75.86528371 373.82408232 C-75.86813793 351.51495215 -75.86485232 329.20582608 -75.85948335 306.89669657 C-75.85501478 287.73531899 -75.85579179 268.57394747 -75.86040211 249.41257 C-75.86574788 227.18394816 -75.86786387 204.95532991 -75.86478984 182.72670752 C-75.86447128 180.35859843 -75.86415691 177.99048934 -75.86384678 175.62238026 C-75.8636925 174.45709211 -75.86353823 173.29180397 -75.86337928 172.09120406 C-75.86251417 163.86116124 -75.86397684 155.63112069 -75.86632633 147.40107822 C-75.86912453 137.37853114 -75.86838561 127.3559919 -75.86304559 117.33344572 C-75.86040894 112.21532426 -75.85940291 107.09721588 -75.86269474 101.97909451 C-75.86565841 97.30061447 -75.86406369 92.62215974 -75.85871719 87.94368202 C-75.85759332 86.24455514 -75.85818353 84.54542614 -75.86059298 82.84630059 C-75.86360158 80.54979616 -75.86054762 78.25338025 -75.85587215 75.95688057 C-75.8557098 74.67733039 -75.85554745 73.39778022 -75.85538018 72.07945579 C-75.73003101 69.12863445 -75.73003101 69.12863445 -74.73003101 67.12863445 C-74.60139931 65.77657235 -74.50120922 64.42172142 -74.41753101 63.06613445 C-73.98141816 58.69093773 -72.70717137 55.28780376 -70.76518726 51.3669157 C-69.63899643 49.05997867 -69.63899643 49.05997867 -68.82378101 46.2184782 C-63.30991006 30.64179275 -48.03926177 16.23430457 -33.66753101 8.75363445 C-29.1567749 6.63299327 -24.65342944 5.019773 -19.84721851 3.71457195 C-17.58340362 3.12995181 -17.58340362 3.12995181 -14.91753101 2.00363445 C-10.033495 0.05002005 -5.19657673 -0.01488041 0 0 Z M-37.73003101 42.12863445 C-38.59434742 42.97554852 -38.59434742 42.97554852 -39.47612476 43.83957195 C-51.13076996 56.25101229 -53.18199272 71.84284189 -53.11771107 88.02321148 C-53.12188816 89.73707214 -53.12736773 91.45093003 -53.13403088 93.16478282 C-53.14845539 97.85634031 -53.14425009 102.54772168 -53.13686407 107.23928869 C-53.13212717 112.30626684 -53.144647 117.37320718 -53.15488148 122.44017315 C-53.17206572 132.36067598 -53.1729101 142.28111546 -53.16766857 152.2016293 C-53.16362424 160.26810736 -53.16507357 168.33456672 -53.17041683 176.40104389 C-53.17116525 177.54990842 -53.17191368 178.69877296 -53.17268478 179.88245157 C-53.17421629 182.21654226 -53.17575464 184.55063295 -53.17729975 186.88472364 C-53.19102393 208.76794691 -53.18558811 230.65113442 -53.17411453 252.53435687 C-53.16418661 272.53752263 -53.17711537 292.54059584 -53.20104872 312.54374733 C-53.22545545 333.09794152 -53.23504345 353.65209264 -53.228396 374.20630103 C-53.22490672 385.73983883 -53.22711641 397.27330549 -53.24464703 408.80683231 C-53.25938883 418.62722236 -53.25997876 428.44749119 -53.24257611 438.26787891 C-53.23407928 443.27431635 -53.23188428 448.28053745 -53.24722767 453.28696346 C-53.26112441 457.87838982 -53.25624785 462.46941553 -53.23698843 467.06081901 C-53.23324329 468.71353398 -53.23610709 470.36628144 -53.24660008 472.01896735 C-53.35305569 490.08416001 -49.88010108 506.33816684 -37.03862476 519.8122282 C-36.27678883 520.57664227 -35.51495289 521.34105633 -34.73003101 522.12863445 C-34.10225758 522.77961102 -33.47448414 523.43058758 -32.82768726 524.1012907 C-23.8509913 532.73637878 -11.1046977 537.45501214 1.24215984 537.38869667 C2.01901795 537.39250234 2.79587606 537.39630801 3.59627533 537.40022901 C6.1970066 537.41052776 8.79751893 537.40664178 11.39826488 537.40278912 C13.28277661 537.40724247 15.16728646 537.41255683 17.05179358 537.41865784 C22.22895416 537.43283694 27.4060547 537.43450115 32.58323193 537.43406093 C38.167646 537.43570924 43.75203535 537.44877613 49.33643627 537.46025372 C61.54738294 537.4831029 73.75831223 537.49102442 85.96927738 537.49608016 C93.59598455 537.49933762 101.22268667 537.50586045 108.84939098 537.51308155 C129.97127899 537.53264827 151.09316302 537.54913304 172.21506023 537.55195808 C172.89046984 537.55205215 173.56587945 537.55214621 174.26175602 537.55224312 C176.99878975 537.55262159 179.73582349 537.55298559 182.47285722 537.5533461 C184.53283198 537.55361781 186.59280673 537.55389449 188.65278149 537.55417156 C189.33347785 537.55425958 190.01417421 537.55434761 190.71549774 537.5544383 C212.09176845 537.55734218 233.46794864 537.57942465 254.84418774 537.615695 C278.87154783 537.65646281 302.89883711 537.6800974 326.92624044 537.6804176 C339.64362323 537.68100187 352.36088953 537.68947484 365.0782423 537.71841526 C375.90880946 537.74294879 386.73921764 537.75019869 397.56980509 537.73516773 C403.09270507 537.72800673 408.61529128 537.7288217 414.13815594 537.75157833 C419.20160502 537.77224144 424.26450053 537.76949947 429.3279441 537.74870349 C431.15235456 537.74522259 432.97680555 537.75005871 434.8011629 537.76440793 C453.11366929 537.89907195 468.22667681 533.78236438 482.01996899 520.94113445 C494.83854971 507.38875304 497.88263518 491.64160646 497.77790356 473.66328716 C497.78252042 471.92407351 497.78887859 470.18486377 497.79681253 468.44566208 C497.81342093 463.69803072 497.80529836 458.95072338 497.79286766 454.20309126 C497.78378462 449.07077791 497.79780295 443.93851869 497.80878735 438.80621624 C497.82654211 428.76478776 497.82274625 418.7234791 497.81113678 408.68204599 C497.80209126 400.51930991 497.8008833 392.35660734 497.80523205 384.19386768 C497.80615145 382.44906613 497.80615145 382.44906613 497.80708942 380.66901605 C497.80836836 378.30576776 497.80966521 375.94251948 497.81097978 373.5792712 C497.82237654 351.43715914 497.8092858 329.29511341 497.78777832 307.15301222 C497.76990582 288.1654423 497.77301448 269.17797019 497.79145336 250.19040203 C497.81287197 228.1242037 497.82128047 206.05806343 497.80900431 183.99185616 C497.80773015 181.63776593 497.80647267 179.2836757 497.80523205 176.92958546 C497.80461495 175.77141842 497.80399784 174.61325138 497.80336204 173.41998838 C497.7999123 165.26915479 497.80572935 157.11835812 497.81515026 148.96753025 C497.8263825 139.03147234 497.82330427 129.09554079 497.80202729 119.15949731 C497.79153381 114.09265793 497.7873661 109.02602903 497.80062389 103.95919132 C497.81258865 99.316224 497.80591814 94.67366126 497.78471369 90.03073037 C497.78026492 88.35595422 497.78247485 86.68114352 497.79221684 85.00638979 C497.88419339 67.8733666 493.45335119 52.9340311 481.46137524 40.19113445 C466.13486171 25.76618054 448.10661021 22.6663578 427.92003918 22.7409544 C426.07245906 22.73677613 424.2248815 22.73129592 422.37730867 22.72463459 C417.32542339 22.71022587 412.2737019 22.7144104 407.22180784 22.7218014 C401.76358771 22.72654213 396.30540255 22.71401518 390.84719372 22.70378399 C380.16361959 22.68660813 369.48010431 22.68575351 358.79651996 22.69099689 C350.11033419 22.69504225 341.42416578 22.69359068 332.73798084 22.68824863 C331.50057573 22.68750021 330.26317062 22.68675179 328.98826838 22.68598069 C326.47427675 22.68444917 323.96028513 22.68291082 321.44629351 22.68136572 C298.55394908 22.66803592 275.66163147 22.6723556 252.76928832 22.68357627 C231.89570535 22.69367611 211.02220285 22.68532572 190.1486311 22.66208172 C166.67241778 22.63598153 143.19624559 22.62321814 119.7200163 22.63026947 C107.2989555 22.63375941 94.87796075 22.63154446 82.45691013 22.61401844 C71.88265678 22.59928294 61.30851599 22.59867868 50.73426481 22.61608935 C45.34301824 22.62459072 39.95197265 22.62676989 34.56073666 22.6114378 C29.61781966 22.59755513 24.67527513 22.60239986 19.73237947 22.62167703 C17.95186502 22.62542639 16.17132048 22.62254606 14.39083292 22.61206538 C-6.29201545 22.49905176 -22.69307614 27.11819978 -37.73003101 42.12863445 Z " fill="#463120" transform="translate(108.73003101348877,33.871365547180176)"/>
<path d="M0 0 C1.20916077 -0.00929787 1.20916077 -0.00929787 2.44274902 -0.01878357 C4.14394932 -0.02587499 5.84521912 -0.02271945 7.54638672 -0.01000977 C10.14810887 0.00386284 12.74623754 -0.03022623 15.34765625 -0.06835938 C17.00260505 -0.06931056 18.65755834 -0.06745176 20.3125 -0.0625 C21.08863647 -0.07575821 21.86477295 -0.08901642 22.66442871 -0.10267639 C26.41723611 -0.03802924 28.26735736 0.21700931 31.09863281 2.76074219 C32.70274775 5.6501605 33.41306813 7.83320784 33.921875 11.0859375 C34.08945312 12.10751953 34.25703125 13.12910156 34.4296875 14.18164062 C34.58695313 15.23673828 34.74421875 16.29183594 34.90625 17.37890625 C35.07898438 18.45333984 35.25171875 19.52777344 35.4296875 20.63476562 C35.85241026 23.27678286 36.26073434 25.92020299 36.65625 28.56640625 C37.4615918 28.88279053 38.26693359 29.1991748 39.09667969 29.52514648 C41.01757812 30.27978516 42.93847656 31.03442383 44.859375 31.7890625 C47.84882625 32.61992954 48.80245482 32.540487 51.65625 31.56640625 C54.59209148 29.4744851 57.44478422 27.32240889 60.25976562 25.07226562 C63.48926231 22.63165362 65.26355441 21.615339 69.38671875 21.1015625 C72.63399658 21.56324238 73.84601321 21.85046484 76.15625 24.06640625 C76.73761719 24.618125 77.31898438 25.16984375 77.91796875 25.73828125 C80.26410215 28.20567548 82.49477826 30.75174287 84.68359375 33.359375 C87.76167674 36.80317083 91.19917229 39.87350035 94.6171875 42.9765625 C97.19970146 46.25665207 97.59552941 48.41872263 97.65625 52.56640625 C96.65234375 54.9375 96.65234375 54.9375 95.09375 57.00390625 C94.5471875 57.76703125 94.000625 58.53015625 93.4375 59.31640625 C91.65625 61.56640625 91.65625 61.56640625 89.8125 63.56640625 C88.0589071 65.5431837 86.71699046 67.14057785 85.65625 69.56640625 C85.97571528 72.42029612 86.71285002 74.71002722 87.7890625 77.3671875 C88.65625 79.56640625 88.65625 79.56640625 88.65625 82.56640625 C89.46707031 82.67597656 90.27789063 82.78554688 91.11328125 82.8984375 C110.78893568 85.71578965 110.78893568 85.71578965 114.26708984 89.1628418 C116.13982175 92.40309585 116.12392932 95.35600848 116.125 99 C116.13261353 99.71495132 116.14022705 100.42990265 116.14807129 101.16651917 C116.15885226 102.67518633 116.1617335 104.183928 116.15722656 105.69262695 C116.15625434 107.99362377 116.19788529 110.2912815 116.2421875 112.59179688 C116.24739524 114.061191 116.25008268 115.53059665 116.25 117 C116.26639526 117.68348007 116.28279053 118.36696014 116.29968262 119.07115173 C116.24547618 122.84240055 115.73699889 124.46436588 113.37109375 127.45410156 C110.94828638 129.33918514 109.5597636 130.29538823 106.625 130.9296875 C105.89667969 131.09404297 105.16835938 131.25839844 104.41796875 131.42773438 C103.67160156 131.57662109 102.92523437 131.72550781 102.15625 131.87890625 C101.40988281 132.04712891 100.66351562 132.21535156 99.89453125 132.38867188 C96.09328993 133.21283482 92.5678294 133.77595515 88.65625 133.56640625 C88.52347656 134.25347656 88.39070312 134.94054687 88.25390625 135.6484375 C88.07730469 136.54949219 87.90070313 137.45054687 87.71875 138.37890625 C87.54472656 139.27222656 87.37070312 140.16554688 87.19140625 141.0859375 C86.65625 143.56640625 86.65625 143.56640625 85.65625 146.56640625 C86.52166714 148.27514416 86.52166714 148.27514416 87.9296875 149.9296875 C88.4246875 150.56970703 88.9196875 151.20972656 89.4296875 151.86914062 C90.48865025 153.19800973 91.54853108 154.52614779 92.609375 155.85351562 C95.58903615 159.70932066 97.4862905 162.51195855 97.65625 167.56640625 C95.98148248 171.92080181 92.72841213 174.35514952 89.234375 177.25390625 C87.12345703 179.1473357 85.20268418 181.06528396 83.265625 183.12890625 C82.66145752 183.76449463 82.05729004 184.40008301 81.43481445 185.05493164 C80.22341417 186.33733563 79.02608783 187.63320711 77.84448242 188.94311523 C74.96296479 191.96423891 73.35920512 193.41231213 69.19921875 194.32421875 C64.45887002 193.31029631 61.70040967 191.06526813 58.03125 188.00390625 C53.66938177 184.02425868 53.66938177 184.02425868 48.2578125 182.5390625 C47.39929688 182.87808594 46.54078125 183.21710938 45.65625 183.56640625 C44.05342462 184.09135276 42.44914444 184.61186974 40.84375 185.12890625 C39.44691707 185.60515108 38.05074109 186.08334725 36.65625 186.56640625 C36.50591309 187.5267981 36.50591309 187.5267981 36.35253906 188.5065918 C35.88641168 191.42517282 35.39659181 194.33929988 34.90625 197.25390625 C34.74898437 198.26130859 34.59171875 199.26871094 34.4296875 200.30664062 C34.17832031 201.77133789 34.17832031 201.77133789 33.921875 203.265625 C33.70192871 204.60886841 33.70192871 204.60886841 33.47753906 205.97924805 C32.40117007 209.36993835 31.30254992 211.16058232 28.65625 213.56640625 C25.74852873 214.06300109 23.43428979 214.24634129 20.53125 214.1953125 C19.74733887 214.19772446 18.96342773 214.20013641 18.15576172 214.20262146 C16.50157604 214.20164378 14.84735734 214.18826876 13.19335938 214.16333008 C10.66423179 214.12901455 8.13859837 214.14267274 5.609375 214.16210938 C3.99998516 214.15521067 2.39060432 214.14553806 0.78125 214.1328125 C0.0269873 214.13777237 -0.72727539 214.14273224 -1.50439453 214.14784241 C-5.02542434 214.0690332 -6.97986631 213.84749719 -9.80419922 211.66577148 C-11.4943634 209.36102651 -12.02889811 207.87397149 -12.46875 205.06640625 C-12.62859375 204.19628906 -12.7884375 203.32617188 -12.953125 202.4296875 C-13.34375 199.56640625 -13.34375 199.56640625 -13.484375 196.421875 C-13.72839513 193.12353622 -14.02615137 190.60804918 -15.34375 187.56640625 C-19.05679787 184.81620537 -22.7809031 183.28099845 -27.34375 182.56640625 C-32.39772826 183.8060613 -36.37424508 187.3429172 -40.43945312 190.46484375 C-44.20141042 193.20728836 -46.70017778 194.28974434 -51.34375 193.56640625 C-53.1875 192.52734375 -53.1875 192.52734375 -54.84375 190.94140625 C-55.83955078 189.9978125 -55.83955078 189.9978125 -56.85546875 189.03515625 C-57.67660156 188.22046875 -58.49773437 187.40578125 -59.34375 186.56640625 C-60.51664995 185.4307033 -61.68985153 184.29531182 -62.86328125 183.16015625 C-64.12911245 181.92211318 -65.39342437 180.68251491 -66.65625 179.44140625 C-67.26726562 178.84376465 -67.87828125 178.24612305 -68.5078125 177.63037109 C-76.33158223 169.81744362 -76.33158223 169.81744362 -76.359375 164.67578125 C-75.03558729 160.62295426 -72.78428904 158.06052065 -70.09375 154.81640625 C-66.39605268 150.18365527 -66.39605268 150.18365527 -65.31640625 144.5390625 C-66.11213 142.01865377 -67.06204393 139.87166558 -68.34375 137.56640625 C-68.67375 136.57640625 -69.00375 135.58640625 -69.34375 134.56640625 C-71.37045756 133.76256607 -71.37045756 133.76256607 -73.859375 133.35546875 C-74.78105469 133.16210938 -75.70273437 132.96875 -76.65234375 132.76953125 C-78.59676435 132.38736093 -80.54207257 132.00967642 -82.48828125 131.63671875 C-83.41511719 131.44078125 -84.34195312 131.24484375 -85.296875 131.04296875 C-86.14411133 130.87877441 -86.99134766 130.71458008 -87.86425781 130.54541016 C-91.35007906 129.16906679 -93.05442061 127.5295409 -95.34375 124.56640625 C-95.8329666 121.83966241 -96.02555281 119.74953528 -95.97265625 117.03515625 C-95.97506821 116.32161987 -95.97748016 115.6080835 -95.97996521 114.8729248 C-95.97898935 113.37014181 -95.96565765 111.86732171 -95.94067383 110.36474609 C-95.90634342 108.07264338 -95.92002762 105.78439653 -95.93945312 103.4921875 C-95.93255418 102.02732744 -95.92288133 100.56247728 -95.91015625 99.09765625 C-95.91511612 98.41731323 -95.92007599 97.73697021 -95.92518616 97.03601074 C-95.80899973 92.30993842 -94.71267304 89.86285047 -91.34375 86.56640625 C-88.4609375 85.45703125 -88.4609375 85.45703125 -85.21875 84.81640625 C-83.50751953 84.47416016 -83.50751953 84.47416016 -81.76171875 84.125 C-77.29933045 83.39571825 -72.85535734 82.86174849 -68.34375 82.56640625 C-68.22 81.72078125 -68.09625 80.87515625 -67.96875 80.00390625 C-67.34375 76.56640625 -67.34375 76.56640625 -65.96875 73.3515625 C-65.2891613 69.23580345 -65.36983063 68.86168373 -67.5546875 65.62890625 C-68.58708522 64.2576703 -69.64275957 62.90370864 -70.71875 61.56640625 C-76.15759272 54.70873499 -76.15759272 54.70873499 -76.9453125 49.875 C-76.22907774 45.93570883 -75.13431098 44.4618913 -72.34375 41.62890625 C-71.52519531 40.78070313 -70.70664062 39.9325 -69.86328125 39.05859375 C-69.03183594 38.23617187 -68.20039063 37.41375 -67.34375 36.56640625 C-66.60511719 35.82648438 -65.86648438 35.0865625 -65.10546875 34.32421875 C-63.76304366 32.98432176 -62.41568926 31.64933767 -61.0625 30.3203125 C-58.98373809 28.19903046 -57.18926978 25.89039412 -55.34375 23.56640625 C-51.74894927 21.16987243 -50.58764067 20.96085109 -46.34375 21.56640625 C-42.72707112 23.5890882 -39.53062159 26.20640361 -36.265625 28.74414062 C-32.09897249 31.91053871 -32.09897249 31.91053871 -27.0078125 32.47265625 C-25.22684088 31.86681253 -23.46252064 31.20971818 -21.71875 30.50390625 C-19.34375 29.56640625 -19.34375 29.56640625 -15.34375 29.56640625 C-15.27027344 28.24189453 -15.27027344 28.24189453 -15.1953125 26.890625 C-13.94193767 6.77179799 -13.94193767 6.77179799 -10.81567383 2.45776367 C-7.36227888 -0.18455244 -4.17857175 -0.026703 0 0 Z " fill="#432D1C" transform="translate(468.34375,335.43359375)"/>
<path d="M0 0 C1.22786224 0.4148616 2.45572449 0.82972321 3.72079468 1.25715637 C5.3520727 1.80542443 6.98339203 2.35356959 8.61474609 2.90161133 C9.42161362 3.17459297 10.22848114 3.44757462 11.05979919 3.72882843 C17.18142881 5.78133592 23.28490521 7.44659049 29.625 8.6875 C31.12196411 8.98865723 31.12196411 8.98865723 32.64916992 9.29589844 C39.8380362 10.69306171 47.04975769 11.81460217 54.3125 12.75 C55.20469238 12.86561279 56.09688477 12.98122559 57.01611328 13.1003418 C72.72768689 14.95613933 88.6309156 15.26439209 104.4375 15.3125 C105.30809052 15.31545074 106.17868103 15.31840149 107.07565308 15.32144165 C119.99747478 15.33125744 132.72588689 14.66928847 145.5625 13.1875 C146.28428436 13.10472809 147.00606873 13.02195618 147.74972534 12.93667603 C161.33697022 11.33878496 174.84426806 9.06627668 188.0625 5.5 C188.83787109 5.30019531 189.61324219 5.10039062 190.41210938 4.89453125 C194.02982129 3.93429326 197.45024549 2.8708984 200.87109375 1.34375 C204 0 204 0 207 0 C207.06997556 11.42362993 207.12305011 22.84720762 207.15543652 34.27100945 C207.17099215 39.57739794 207.19204231 44.88363819 207.22631836 50.18994141 C207.25927658 55.32525178 207.27692863 60.46042091 207.28463173 65.59582901 C207.29011061 67.54031722 207.30080605 69.48479902 207.31719017 71.42922592 C207.52866367 97.60342998 203.38999149 121.38299978 186 142 C185.34386719 142.81339844 184.68773437 143.62679687 184.01171875 144.46484375 C170.75865186 160.18923207 149.43124005 171.3999102 128.87557983 173.2868042 C121.8010612 173.66646631 114.73278859 173.66952548 107.65014648 173.59692383 C103.93982152 173.56252153 100.23187719 173.57635137 96.52148438 173.59570312 C67.79400992 173.57949645 45.25866746 167.09950087 24.25 146.75 C18.29853676 140.76529814 13.95609952 134.48671466 10 127 C9.44699219 125.98550781 8.89398438 124.97101563 8.32421875 123.92578125 C0.11686897 107.69437238 -0.57759897 91.04996765 -0.390625 73.2421875 C-0.38314285 71.11557555 -0.37745929 68.98895659 -0.37347412 66.86233521 C-0.35837298 61.32871672 -0.31922936 55.79553403 -0.2746582 50.26208496 C-0.23336612 44.59014782 -0.21539142 38.91813863 -0.1953125 33.24609375 C-0.1527165 22.1638735 -0.08465896 11.08197331 0 0 Z " fill="#BC9F7D" transform="translate(118,292)"/>
<path d="M0 0 C11.44818707 8.68068239 19.91320658 20.3780695 22.6875 34.62109375 C24.43620442 47.93310612 21.8720271 61.860435 13.6875 72.6875 C12.47692964 74.14069522 11.24828978 75.5790744 10 77 C9.47664062 77.61746094 8.95328125 78.23492187 8.4140625 78.87109375 C0.20724214 87.85856288 -11.27656128 93.52800692 -23.35546875 94.34765625 C-38.86984751 95.01617607 -51.07664989 91.43056935 -63 81 C-72.37049733 72.26506684 -78.63956397 60.62682701 -79.3359375 47.703125 C-79.65556443 31.89739775 -75.56064989 18.59049014 -64.74609375 6.65234375 C-46.81643032 -10.31465319 -20.94032295 -13.24458912 0 0 Z " fill="#E1DED7" transform="translate(507,400)"/>
<path d="M0 0 C0.96550781 0.63292969 1.93101562 1.26585937 2.92578125 1.91796875 C3.46662354 2.28180664 4.00746582 2.64564453 4.56469727 3.02050781 C35.45419753 23.6451497 76.47042737 26.66440676 112.62890625 20.87280273 C116.48529279 20.10371313 120.24345166 19.16089006 124 18 C124.70576172 17.78569336 125.41152344 17.57138672 126.13867188 17.35058594 C137.73709167 13.69213121 150.12041771 8.44340088 159.3125 0.375 C161.47963297 -1.33540387 162.50095313 -1.97860005 165.27734375 -2.09765625 C167.99279758 -1.64722552 170.40664618 -0.92432669 173 0 C173.98613281 0.34933594 174.97226562 0.69867188 175.98828125 1.05859375 C183.36980825 3.91928719 191.48860784 7.23291176 196 14 C195.91109225 17.37849434 195.15145472 18.81541455 193 21.4375 C159.89806903 49.71206603 105.18178871 48.59039501 64 48 C62.78159424 47.98912354 62.78159424 47.98912354 61.53857422 47.97802734 C31.04920244 47.58958577 -8.90767329 42.3195945 -33 22 C-35.37358694 18.43961959 -35.73959381 17.19103161 -35 13 C-29.3160467 5.54686919 -8.35665129 -5.6358811 0 0 Z " fill="#896849" transform="translate(141,462)"/>
<path d="M0 0 C7.35417216 4.10136524 12.41963217 10.01006222 15.3046875 17.92578125 C17.25040576 26.52847938 17.70884073 37.19898962 13.30859375 45.0859375 C12.87675781 45.71757812 12.44492187 46.34921875 12 47 C11.53722656 47.69351563 11.07445312 48.38703125 10.59765625 49.1015625 C5.18533556 56.16801543 -3.19779449 60.72872385 -12 62 C-21.49992378 62.81965396 -28.93445276 61.72595888 -36.703125 56.01171875 C-43.5001072 50.25813294 -47.58461725 44.83970866 -49 36 C-49.8534363 24.5415684 -48.71313862 16.1197604 -41.25 7.1875 C-29.9562054 -4.69407573 -14.73070346 -7.75441402 0 0 Z " fill="#422C1B" transform="translate(392,195)"/>
<path d="M0 0 C5.03352581 3.62086716 7.85244005 7.74502204 11 13 C11.928125 14.546875 11.928125 14.546875 12.875 16.125 C15.71204144 23.41296874 15.05755925 33.11153174 12.5 40.375 C8.39292866 49.03587676 1.80810928 55.29132241 -7 59 C-14.65418445 61.57367774 -25.3728518 61.33907817 -32.625 57.8125 C-41.67159944 52.38151472 -48.22287798 45.34414258 -51 35 C-51.82390036 26.29156478 -51.76504242 18.50899873 -47 11 C-46.55269531 10.29230469 -46.10539062 9.58460937 -45.64453125 8.85546875 C-34.85312631 -6.73854536 -16.18396152 -9.16528372 0 0 Z " fill="#412C1B" transform="translate(394,105)"/>
<path d="M0 0 C10.62502405 2.83462529 19.57070047 12.43769509 25.14453125 21.51953125 C29.72393151 30.85582791 29.87239572 43.48839216 26.77734375 53.38671875 C23.32822831 61.3452784 17.23886858 67.93757199 11.67578125 74.4921875 C4.71591047 82.74394064 -1.19695581 91.0375428 -1.0703125 102.1640625 C-0.62066262 107.03132526 1.2183566 111.12134985 3.83984375 115.19921875 C5.52429291 118.2472696 5.67425814 120.14449558 5.15234375 123.57421875 C3.58984375 125.51171875 3.58984375 125.51171875 1.15234375 126.57421875 C-5.11876643 126.95048536 -8.75687986 123.91562895 -13.4140625 119.953125 C-22.15500427 111.40860889 -26.90306077 101.15448857 -27.16015625 88.94921875 C-27.00002227 74.87198586 -19.39913719 65.44180967 -10.16015625 55.38671875 C-2.453901 46.98955786 1.78622043 39.0975797 1.609375 27.42578125 C0.67318018 21.58456573 -2.90141776 17.01041938 -6.5234375 12.4765625 C-8.43452946 9.7311295 -8.25618725 7.84246673 -7.84765625 4.57421875 C-6.17743927 0.84079257 -4.13369141 -0.25343985 0 0 Z " fill="#412B1A" transform="translate(252.84765625,87.42578125)"/>
<path d="M0 0 C10.10571645 2.70950369 18.96599715 11.65196249 24.08984375 20.49609375 C29.14942966 30.3743329 29.54077006 40.35962679 26.71875 51.078125 C23.44429458 60.6363065 17.44437935 68.28342814 10.53125 75.515625 C4.24957036 82.31617801 -1.09862735 90.86726795 -1.59375 100.328125 C-1.21547952 105.99377624 1.05508924 112.47696424 5.15625 116.578125 C5.7357202 122.83640315 5.7357202 122.83640315 3.59375 125.578125 C0.07591023 127.02134131 -2.38238758 126.96003775 -5.84375 125.578125 C-13.28404567 120.9608354 -18.39541901 115.03527403 -22.84375 107.578125 C-23.27816406 106.9284375 -23.71257812 106.27875 -24.16015625 105.609375 C-28.79257768 97.47439103 -28.4097992 85.30827737 -25.99609375 76.4765625 C-24.81168438 73.94714587 -23.50136894 71.82458181 -21.84375 69.578125 C-21.26238281 68.78792969 -20.68101562 67.99773437 -20.08203125 67.18359375 C-17.25364748 63.54054366 -14.2557439 60.05640964 -11.24609375 56.5625 C-3.10195442 47.04854216 1.64037386 39.43686094 1.578125 26.69140625 C0.89501285 21.65029156 -1.66736955 18.41142111 -4.84375 14.578125 C-7.79829545 10.94176136 -7.79829545 10.94176136 -8.21875 7.578125 C-7.56318276 2.33358705 -5.66148374 -0.33585073 0 0 Z " fill="#412C1B" transform="translate(193.84375,87.421875)"/>
<path d="M0 0 C3.80621585 -0.00966045 7.61187972 -0.04076967 11.41796875 -0.07226562 C38.98384988 -0.19140467 70.85172436 0.27321161 95.97265625 13.24023438 C96.63652344 13.57925781 97.30039062 13.91828125 97.984375 14.26757812 C100.7745148 15.8870299 101.85730821 16.87771196 102.84765625 19.99023438 C102.88890625 20.73273438 102.93015625 21.47523438 102.97265625 22.24023438 C98.310879 25.82621687 93.98005249 28.27379525 87.97265625 28.24023438 C83.92920545 27.24249976 80.04783542 25.95459135 76.109375 24.61132812 C69.84588552 22.48598373 63.49527949 21.2694535 56.97265625 20.24023438 C56.17408203 20.10343262 55.37550781 19.96663086 54.55273438 19.82568359 C20.01953692 14.13219918 -18.51363493 14.63373804 -53.02734375 20.24023438 C-54.4656958 20.47299072 -54.4656958 20.47299072 -55.93310547 20.71044922 C-64.10170417 22.08803136 -71.9362936 23.72021007 -79.71484375 26.61523438 C-85.03542449 28.52133805 -88.82023055 28.45274295 -94.02734375 26.24023438 C-97.57016028 24.45387752 -99.72033519 23.16126005 -101.02734375 19.24023438 C-89.56057796 6.71369356 -69.4810355 4.9476372 -53.52734375 2.55273438 C-52.74673584 2.43325439 -51.96612793 2.31377441 -51.16186523 2.19067383 C-34.2429232 -0.17062571 -17.04286086 0.0260064 0 0 Z " fill="#BEA07E" transform="translate(220.02734375,247.759765625)"/>
<path d="M0 0 C1.09777771 -0.00860046 2.19555542 -0.01720093 3.32659912 -0.02606201 C5.14145058 -0.03245193 5.14145058 -0.03245193 6.9929657 -0.03897095 C8.8979332 -0.05123718 8.8979332 -0.05123718 10.84138489 -0.06375122 C15.05945207 -0.08997403 19.2775292 -0.10527888 23.49565125 -0.11953735 C24.94735915 -0.12489689 26.39906699 -0.1302744 27.85077477 -0.13566971 C33.88914409 -0.15729863 39.92751074 -0.17603563 45.965909 -0.1872921 C54.62163521 -0.20353346 63.27691265 -0.23671493 71.93246967 -0.29369295 C78.01746356 -0.33238465 84.10233738 -0.35192382 90.18745106 -0.35721266 C93.82239938 -0.36086721 97.45686912 -0.37289813 101.09168434 -0.4053154 C105.14759156 -0.44096962 109.2025336 -0.43702726 113.2585907 -0.42959595 C114.46241898 -0.44600128 115.66624725 -0.46240662 116.90655518 -0.47930908 C125.96499736 -0.41119305 125.96499736 -0.41119305 129.06344604 2.5614624 C130.7467842 5.04602734 131.50439756 6.20133303 131.44487 9.15390015 C131.45776062 9.79327515 131.47065125 10.43265015 131.4839325 11.09140015 C130.41725658 14.40437004 128.78172016 16.4251562 125.81987 18.15390015 C121.65735201 18.92076179 117.52866637 18.83651263 113.30619812 18.8008728 C112.03578171 18.8096344 110.7653653 18.818396 109.45645142 18.8274231 C105.97900646 18.85018264 102.50230467 18.8413948 99.02484703 18.82552767 C95.38232322 18.81285093 91.73986218 18.82461368 88.09733582 18.8324585 C81.98080545 18.84154997 75.86457714 18.82958063 69.74809265 18.80575562 C62.68089037 18.7785449 55.61440933 18.78735945 48.54722452 18.81488764 C42.47484628 18.83759232 36.40268491 18.84077228 30.33027792 18.8276943 C26.70551834 18.81990709 23.08109755 18.81883759 19.45635986 18.83537674 C15.41498746 18.85252952 11.37485441 18.82874426 7.33354187 18.8008728 C6.13442673 18.81099396 4.93531158 18.82111511 3.69985962 18.83154297 C-4.38482654 18.72809729 -4.38482654 18.72809729 -8.39582825 15.83221436 C-10.6596461 12.43412572 -11.25308239 10.23923386 -11.18013 6.15390015 C-7.96688541 1.05702941 -5.82476378 0.03389087 0 0 Z " fill="#463221" transform="translate(435.1801300048828,202.84609985351563)"/>
<path d="M0 0 C1.29152985 -0.0071553 2.58305969 -0.01431061 3.91372681 -0.02168274 C7.44897283 -0.04017771 10.98346349 -0.02727192 14.51867795 -0.00759244 C18.22038207 0.00880813 21.92203887 -0.00002062 25.62376404 -0.00511169 C31.83865409 -0.00963055 38.05324296 0.00622535 44.26806641 0.03417969 C51.45222606 0.06624503 58.63584298 0.06620991 65.82004124 0.04896492 C72.73404401 0.03310028 79.64784789 0.03983197 86.56184196 0.05690193 C89.50318639 0.06377262 92.44437139 0.06273995 95.38571358 0.05535698 C99.49182408 0.0462719 103.5970962 0.07022844 107.703125 0.09765625 C108.9245369 0.09113037 110.14594879 0.08460449 111.40437317 0.07788086 C112.52172852 0.09060532 113.63908386 0.10332977 114.79029846 0.11643982 C116.24620817 0.1206502 116.24620817 0.1206502 117.73153019 0.12494564 C121.0358736 0.77946625 122.21208842 2.02843319 124.28686523 4.63110352 C125.43382461 8.22490956 125.60318824 9.89856603 124.09936523 13.38110352 C122.1659543 15.78119985 121.11196789 16.51713807 118.28686523 17.63110352 C115.79399967 17.88557911 115.79399967 17.88557911 112.94215393 17.89179993 C111.31660583 17.90242714 111.31660583 17.90242714 109.65821838 17.91326904 C107.88220497 17.90955292 107.88220497 17.90955292 106.0703125 17.90576172 C104.19416763 17.91342812 104.19416763 17.91342812 102.28012085 17.92124939 C98.8523656 17.93276949 95.42485213 17.93521871 91.99709439 17.93268609 C89.13425781 17.93161601 86.27144352 17.93650069 83.40861171 17.94129151 C76.65406402 17.95238479 69.89957193 17.95282511 63.14501953 17.94677734 C56.17968421 17.94073669 49.21455086 17.95305117 42.24924999 17.97434741 C36.26611277 17.99196724 30.2830398 17.99796418 24.29987758 17.99470967 C20.72770537 17.99289727 17.15567722 17.9955285 13.58352852 18.00942421 C9.59987597 18.024341 5.61648035 18.01502903 1.6328125 18.00341797 C0.45082779 18.01106171 -0.73115692 18.01870544 -1.94895935 18.02658081 C-3.03547791 18.0195665 -4.12199646 18.01255219 -5.24143982 18.00532532 C-6.653669 18.00557693 -6.653669 18.00557693 -8.09442806 18.00583363 C-11.24696886 17.55471325 -13.13328104 16.46667271 -15.71313477 14.63110352 C-17.77842012 11.68069586 -18.31983227 9.18461747 -17.71313477 5.63110352 C-13.3125793 -1.02446585 -7.40461435 -0.07099976 0 0 Z " fill="#432E1D" transform="translate(441.713134765625,111.368896484375)"/>
<path d="M0 0 C1.08936356 -0.00571014 2.17872711 -0.01142029 3.30110168 -0.01730347 C4.50165192 -0.01842133 5.70220215 -0.01953918 6.93913269 -0.02069092 C8.19935745 -0.02565582 9.45958221 -0.03062073 10.75799561 -0.03573608 C14.22091184 -0.04886803 17.68380867 -0.05530673 21.14674592 -0.05974674 C23.31001882 -0.06267654 25.4732864 -0.0667812 27.63655663 -0.07125092 C34.40419834 -0.08492872 41.17182793 -0.09459366 47.93948251 -0.09845281 C55.75292866 -0.10293266 63.56619979 -0.12047587 71.37959272 -0.1494534 C77.41788142 -0.17107043 83.4561209 -0.18115712 89.49444789 -0.18249393 C93.10131503 -0.18354206 96.70801771 -0.18945135 100.31484413 -0.20731354 C104.33945454 -0.22685641 108.36369885 -0.2225052 112.38835144 -0.21600342 C113.58282898 -0.2252182 114.77730652 -0.23443298 116.00798035 -0.243927 C117.65471489 -0.23557327 117.65471489 -0.23557327 119.3347168 -0.22705078 C120.2861749 -0.22851734 121.237633 -0.2299839 122.21792316 -0.2314949 C125.38771176 0.21509635 127.27724275 1.2759314 129.85783386 3.14044189 C131.38630047 6.19737512 131.09025831 8.77028737 130.85783386 12.14044189 C129.09768256 15.32547759 128.3589247 15.97341162 124.85783386 17.14044189 C123.10577909 17.23902461 121.35022149 17.27971414 119.59541321 17.28761292 C118.50467499 17.29476822 117.41393677 17.30192352 116.29014587 17.30929565 C115.09319092 17.31198456 113.89623596 17.31467346 112.66300964 17.31744385 C111.40263885 17.32401505 110.14226807 17.33058624 108.84370422 17.33735657 C104.66353117 17.35837494 100.48335784 17.36875528 96.30314636 17.37872314 C94.86350867 17.38277121 93.42387116 17.38688815 91.98423386 17.39107323 C85.22193827 17.4101182 78.45965356 17.42435198 71.69733632 17.4326852 C63.89233866 17.44246242 56.08762424 17.46879719 48.28272641 17.50918609 C42.24866498 17.53933972 36.21468481 17.55415325 30.1805495 17.55746621 C26.57699122 17.55981714 22.97373577 17.56878288 19.37025833 17.59392738 C15.35047286 17.62152475 11.33132128 17.61737937 7.31144714 17.6104126 C5.5220874 17.62962769 5.5220874 17.62962769 3.69657898 17.64923096 C-4.33154856 17.59838549 -4.33154856 17.59838549 -8.35411072 15.32591248 C-10.8841242 12.23357541 -11.21179482 10.10927657 -11.14216614 6.14044189 C-7.93924758 1.05995038 -5.80831635 0.01818088 0 0 Z " fill="#412C1B" transform="translate(435.1421661376953,293.85955810546875)"/>
<path d="M0 0 C24.75552486 0 24.75552486 0 34.05078125 8.80859375 C40.07121935 15.57706223 41.38737606 22.95360234 41.26953125 31.78125 C40.38971358 42.28805816 34.699548 52.03815945 26.796875 58.91796875 C18.0062239 65.14211857 11.03107421 66 0 66 C0 44.22 0 22.44 0 0 Z " fill="#E2DED7" transform="translate(344,304)"/>
<path d="M0 0 C1.28992355 -0.0087616 2.57984711 -0.01752319 3.90885925 -0.02655029 C7.44001776 -0.0493119 10.9704445 -0.04052109 14.50161552 -0.02465487 C18.20019348 -0.01197922 21.89870957 -0.02374058 25.59729004 -0.03158569 C31.80797554 -0.04067748 38.01836358 -0.02870698 44.22900391 -0.00488281 C51.4052656 0.02232794 58.580817 0.01351341 65.75706148 -0.01401484 C71.92285627 -0.0367186 78.08843745 -0.03989992 84.25426054 -0.02682149 C87.93490965 -0.0190338 91.6152251 -0.01796618 95.29585266 -0.03450394 C99.39948461 -0.05165501 103.50189578 -0.02787285 107.60546875 0 C109.43219368 -0.01518173 109.43219368 -0.01518173 111.29582214 -0.03067017 C120.45768901 0.08479493 120.45768901 0.08479493 123.59240723 2.9647522 C125.30273438 5.64697266 125.30273438 5.64697266 125.36523438 9.20947266 C124.20522955 12.96242944 123.3298457 14.23110698 120.30273438 16.64697266 C117.74739933 17.15313053 117.74739933 17.15313053 114.8061676 17.16163635 C113.68881226 17.17436081 112.57145691 17.18708527 111.42024231 17.20019531 C110.19883041 17.19366943 108.97741852 17.18714355 107.71899414 17.18041992 C105.78432785 17.19334328 105.78432785 17.19334328 103.81057739 17.20652771 C100.27533293 17.22903053 96.74053597 17.22608006 93.20524716 17.21720624 C90.25291688 17.21209588 87.30067066 17.21938933 84.34834903 17.22667831 C77.38279272 17.24368037 70.41745545 17.24010882 63.4519043 17.22338867 C56.2682968 17.20646794 49.08529698 17.22229991 41.90175587 17.25461155 C35.73175105 17.28131184 29.56193534 17.28858231 23.39187855 17.28009647 C19.70784231 17.27516828 16.02417167 17.27737632 12.34018135 17.29788399 C8.23169172 17.31965975 4.1243533 17.3008379 0.01586914 17.27807617 C-1.20351852 17.28976837 -2.42290619 17.30146057 -3.679245 17.31350708 C-12.85190514 17.20988892 -12.85190514 17.20988892 -15.95277405 14.29502869 C-17.69726562 11.64697266 -17.69726562 11.64697266 -18.32226562 8.64697266 C-17.67910768 5.55981451 -16.86962034 3.8627063 -14.56648254 1.69768143 C-10.2336565 -0.73785095 -4.82647719 -0.04011238 0 0 Z " fill="#402A18" transform="translate(441.697265625,141.35302734375)"/>
<path d="M0 0 C0.82321243 -0.00846954 1.64642487 -0.01693909 2.49458313 -0.02566528 C5.21334312 -0.04904791 7.93153773 -0.05005727 10.65039062 -0.04882812 C12.54081448 -0.05592816 14.43123618 -0.06362693 16.32165527 -0.07189941 C20.28269443 -0.08534655 24.24353425 -0.0869116 28.20458984 -0.08105469 C33.28260375 -0.07515369 38.35966319 -0.10576546 43.43749237 -0.14617157 C47.34085246 -0.17200782 51.24398135 -0.17492979 55.14741516 -0.17127991 C57.01974388 -0.17297451 58.89208289 -0.18264962 60.764328 -0.20042419 C63.38129817 -0.22253762 65.9963183 -0.21295261 68.61328125 -0.1953125 C69.38742874 -0.20857574 70.16157623 -0.22183899 70.95918274 -0.23550415 C74.77867485 -0.17562072 76.46765922 0.10742776 79.31872559 2.73571777 C80.80664062 5.41992188 80.80664062 5.41992188 80.80664062 8.98242188 C79.68452418 12.83969714 78.99670777 14.04389523 75.80664062 16.41992188 C72.98268078 16.82483272 70.5452059 16.98757327 67.72094727 16.96923828 C66.50316841 16.98457108 66.50316841 16.98457108 65.26078796 17.00021362 C62.57915701 17.02799664 59.89855457 17.02609354 57.21679688 17.02148438 C55.35118732 17.02925877 53.48558129 17.03792821 51.61997986 17.04745483 C47.71015954 17.06237711 43.80070042 17.06179866 39.89086914 17.05126953 C34.88226123 17.03967859 29.87513218 17.07354247 24.86676884 17.11995888 C21.0139452 17.14943449 17.16147774 17.15117713 13.30856133 17.14493942 C11.46217354 17.1459658 9.6157658 17.15644086 7.76948738 17.17656326 C5.18592602 17.20126577 2.60524437 17.18773538 0.02172852 17.16455078 C-1.1200737 17.18748199 -1.1200737 17.18748199 -2.28494263 17.21087646 C-5.1622579 17.15385453 -7.49075978 16.96606703 -9.80893135 15.16410446 C-12.42869564 12.23182413 -13.18852504 10.70514792 -13.25585938 6.73242188 C-11.06237428 -0.10609047 -6.47654515 -0.02451753 0 0 Z " fill="#3F2A19" transform="translate(437.193359375,233.580078125)"/>
<path d="M0 0 C150.81 0 301.62 0 457 0 C453.78527284 3.21472716 453.06303054 3.34929498 448.76192719 3.39880675 C447.68969537 3.3882715 447.68969537 3.3882715 446.59580231 3.37752342 C445.44977339 3.38406391 445.44977339 3.38406391 444.28059238 3.39073652 C441.69945806 3.40175624 439.11885088 3.39123979 436.53771973 3.38095093 C434.67698088 3.38440484 432.81624407 3.38916761 430.95551157 3.39513266 C425.82591645 3.40770892 420.69648779 3.40144229 415.56689191 3.39217401 C410.04126153 3.38541086 404.51566061 3.39585111 398.99003601 3.40411377 C388.15885472 3.41748262 377.32773564 3.41455936 366.49655187 3.40587585 C357.69706229 3.39911208 348.89759019 3.39817691 340.09809875 3.4014473 C338.84768347 3.401907 337.59726819 3.40236669 336.30896154 3.40284032 C333.76909633 3.40379946 331.22923112 3.4047721 328.68936592 3.4057581 C305.52999626 3.41407692 282.37065919 3.40543693 259.21129701 3.38973031 C238.05735037 3.37549287 216.90345789 3.37676672 195.74951172 3.39111328 C171.99770712 3.40716775 148.24592876 3.41349717 124.49411726 3.40427649 C121.96337859 3.4033208 119.43263992 3.40237769 116.90190125 3.4014473 C115.65659461 3.40098447 114.41128798 3.40052164 113.12824479 3.40004479 C104.33510768 3.39745002 95.54198973 3.40183638 86.74885559 3.40888596 C76.03900876 3.41728311 65.32922793 3.41505852 54.6193887 3.39904372 C49.15073965 3.3911369 43.68220081 3.38811029 38.21355247 3.39799118 C33.21359504 3.40688887 28.2138506 3.40208711 23.21391267 3.38605852 C21.39902368 3.38268972 19.58411694 3.38445145 17.76923925 3.39168589 C15.31396468 3.40072709 12.85943258 3.39153565 10.40419769 3.37752342 C9.68937648 3.38454692 8.97455527 3.39157042 8.23807281 3.39880675 C3.93696946 3.34929498 3.21472716 3.21472716 0 0 Z " fill="#7F746B" transform="translate(103,592)"/>
<path d="M0 0 C4.19572186 2.1752224 6.52619055 5.22473399 8.73828125 9.30859375 C10.46385387 15.00645771 10.63657375 20.93559895 8.36328125 26.49609375 C5.49283667 31.53958617 1.03417825 34.20547494 -4.26171875 36.30859375 C-10.0191729 37.60951469 -14.18561133 36.75016916 -19.19921875 33.68359375 C-22.84704688 30.89294078 -25.02223694 28.85336037 -26.26171875 24.30859375 C-27.26851363 16.38008407 -26.832039 10.64520805 -22.0625 4.11328125 C-16.07946894 -1.88272818 -7.94780227 -2.42963904 0 0 Z " fill="#E1DED7" transform="translate(384.26171875,206.69140625)"/>
<path d="M0 0 C5.70272898 4.77437775 8.23899979 9.21349812 9.0625 16.625 C8.4678364 22.37341482 6.3944093 26.5430907 2.3125 30.625 C-3.15188128 34.00771222 -7.5441662 34.66189137 -13.84375 33.85546875 C-18.91326882 32.61215322 -22.1531948 29.83438377 -25.1875 25.6875 C-27.83894505 19.94270239 -28.1191942 14.7125402 -26.125 8.625 C-23.51752777 3.76970688 -20.82726792 1.12390457 -16.0625 -1.625 C-10.0747812 -3.42131564 -5.52119036 -2.91685529 0 0 Z " fill="#E1DDD6" transform="translate(385.3125,116.75)"/>
<path d="M0 0 C0.33 0 0.66 0 1 0 C1 64.68 1 129.36 1 196 C0.01 195.34 -0.98 194.68 -2 194 C-2.37473011 191.66307926 -2.37473011 191.66307926 -2.3742218 188.67384338 C-2.38474327 186.97543808 -2.38474327 186.97543808 -2.39547729 185.24272156 C-2.38783356 183.99287979 -2.38018982 182.74303802 -2.37231445 181.45532227 C-2.37596512 180.14219055 -2.37961578 178.82905884 -2.38337708 177.47613525 C-2.39283122 173.85094774 -2.38329924 170.22602852 -2.37004495 166.60086179 C-2.35866814 162.7583168 -2.36284568 158.91578395 -2.36479187 155.07322693 C-2.36567809 148.56692208 -2.35456952 142.06072063 -2.33618164 135.55444336 C-2.31770197 128.98084119 -2.31024552 122.40736654 -2.31567383 115.83374023 C-2.3466876 77.17330994 -1.97204581 38.62073239 0 0 Z " fill="#605144" transform="translate(35,331)"/>
<path d="M0 0 C0.33 0 0.66 0 1 0 C1 27.39 1 54.78 1 83 C0.67 83 0.34 83 0 83 C-1.75900773 67.36526612 -2.31564316 51.9005158 -2.26074219 36.17138672 C-2.24985 32.44873378 -2.26079696 28.72654626 -2.2734375 25.00390625 C-2.27211852 22.61718644 -2.26956156 20.23046692 -2.265625 17.84375 C-2.26967346 16.74067505 -2.27372192 15.6376001 -2.27789307 14.50109863 C-2.24593494 9.28140733 -2.12096201 4.87378955 0 0 Z " fill="#554537" transform="translate(35,179)"/>
<path d="M0 0 C2.475 0.99 2.475 0.99 5 2 C3.02 2.99 3.02 2.99 1 4 C1 33.04 1 62.08 1 92 C0.67 92 0.34 92 0 92 C0 61.64 0 31.28 0 0 Z " fill="#CBAF8E" transform="translate(118,292)"/>
<path d="M0 0 C0.99 0.495 0.99 0.495 2 1 C2.16767195 5.92940328 2.32822547 10.85896749 2.48217773 15.78881836 C2.53555698 17.4659652 2.59088316 19.14305124 2.64819336 20.82006836 C2.73021822 23.23017266 2.80524581 25.64040861 2.87890625 28.05078125 C2.90594131 28.80087967 2.93297638 29.55097809 2.96083069 30.32380676 C3.05259138 33.52232554 3.02105583 35.93683252 2 39 C1.34 38.67 0.68 38.34 0 38 C0 25.46 0 12.92 0 0 Z " fill="#9F968C" transform="translate(33,278)"/>
<path d="M0 0 C0.66 0 1.32 0 2 0 C2.16806963 4.05653772 2.32857949 8.11329801 2.48217773 12.17041016 C2.53545245 13.54972319 2.59076982 14.92895893 2.64819336 16.30810547 C2.7305101 18.29372832 2.80480377 20.27967863 2.87890625 22.265625 C2.94960327 24.05661621 2.94960327 24.05661621 3.02172852 25.88378906 C3.00340898 28.51109936 2.7972382 30.51970337 2 33 C1.34 32.67 0.68 32.34 0 32 C0 21.44 0 10.88 0 0 Z " fill="#5F5042" transform="translate(33,150)"/>
<path d="M0 0 C0.71484375 1.578125 0.71484375 1.578125 1 4 C-0.05709499 6.38494456 -1.1317889 8.51234067 -2.4375 10.75 C-2.77587891 11.35199219 -3.11425781 11.95398438 -3.46289062 12.57421875 C-4.29768265 14.05568065 -5.14741494 15.52870608 -6 17 C-7.2421875 15.421875 -7.2421875 15.421875 -8 13 C-6.81301179 10.53058734 -5.64771477 8.49218517 -4.125 6.25 C-3.73441406 5.64800781 -3.34382813 5.04601562 -2.94140625 4.42578125 C-1.97520812 2.94113535 -0.98942212 1.46927061 0 0 Z " fill="#82786F" transform="translate(47,68)"/>
<path d="M0 0 C0.99 0.99 1.98 1.98 3 3 C-1.95 3 -6.9 3 -12 3 C-8.45250503 -0.54749497 -4.80638837 -0.34331345 0 0 Z " fill="#6B5E54" transform="translate(558,34)"/>
<path d="M0 0 C0.5775 0.350625 1.155 0.70125 1.75 1.0625 C4.35801776 2.14917407 5.39417629 1.93065133 8 1 C5.52216837 3.92300138 3.0148289 4.97340327 -0.5625 6.25 C-2.01849609 6.78367187 -2.01849609 6.78367187 -3.50390625 7.328125 C-6 8 -6 8 -8 7 C-5.35261084 5.5393715 -4.10551666 5 -1 5 C-0.67 3.35 -0.34 1.7 0 0 Z " fill="#ABA299" transform="translate(578,584)"/>
<path d="M0 0 C0.33 0 0.66 0 1 0 C1 1.65 1 3.3 1 5 C2.423125 5.433125 2.423125 5.433125 3.875 5.875 C7 7 7 7 9 9 C5.2397015 8.41892368 2.46964968 7.34800504 -0.8125 5.4375 C-1.60269531 4.98246094 -2.39289063 4.52742188 -3.20703125 4.05859375 C-3.79871094 3.70925781 -4.39039062 3.35992187 -5 3 C-4.360625 2.690625 -3.72125 2.38125 -3.0625 2.0625 C-1.06389179 1.1654837 -1.06389179 1.1654837 0 0 Z " fill="#2E1D11" transform="translate(114,505)"/>
<path d="M0 0 C2.4375 1.0625 2.4375 1.0625 5 3 C5.9375 6.5625 5.9375 6.5625 6 10 C5.34 10.66 4.68 11.32 4 12 C4 10.68 4 9.36 4 8 C3.34 7.67 2.68 7.34 2 7 C1.4375 5.125 1.4375 5.125 1 3 C0.67 2.01 0.34 1.02 0 0 Z " fill="#433427" transform="translate(561,142)"/>
<path d="M0 0 C-1.28716647 1.00578589 -2.57988658 2.00446798 -3.875 3 C-4.95394531 3.8353125 -4.95394531 3.8353125 -6.0546875 4.6875 C-8 6 -8 6 -10 6 C-9.6875 4.125 -9.6875 4.125 -9 2 C-3.42857143 -1.71428571 -3.42857143 -1.71428571 0 0 Z " fill="#C3A685" transform="translate(292,446)"/>
<path d="M0 0 C1.98 0 3.96 0 6 0 C6 0.66 6 1.32 6 2 C8.97 2.495 8.97 2.495 12 3 C12 3.33 12 3.66 12 4 C10.37509046 4.02698189 8.75005367 4.04638757 7.125 4.0625 C5.76761719 4.07990234 5.76761719 4.07990234 4.3828125 4.09765625 C2 4 2 4 0 3 C0 2.01 0 1.02 0 0 Z " fill="#C6A987" transform="translate(178,261)"/>
<path d="M0 0 C0.66 0 1.32 0 2 0 C2.125 6.625 2.125 6.625 1 10 C0.34 9.67 -0.32 9.34 -1 9 C-0.67 6.03 -0.34 3.06 0 0 Z " fill="#706357" transform="translate(34,307)"/>
<path d="M0 0 C0.66 0.33 1.32 0.66 2 1 C2.73075648 3.3140622 3.40138258 5.64828869 4 8 C1.11562221 6.70700306 -0.87219421 5.34058637 -3 3 C-2 1 -2 1 0 0 Z " fill="#322012" transform="translate(353,243)"/>
<path d="M0 0 C0.66 0.33 1.32 0.66 2 1 C0.91796875 2.48828125 0.91796875 2.48828125 -1 4 C-4.13671875 4.29296875 -4.13671875 4.29296875 -7.6875 4.1875 C-9.45673828 4.14689453 -9.45673828 4.14689453 -11.26171875 4.10546875 C-12.61716797 4.05326172 -12.61716797 4.05326172 -14 4 C-14 3.67 -14 3.34 -14 3 C-13.15695312 2.86722656 -12.31390625 2.73445312 -11.4453125 2.59765625 C-10.34960938 2.42105469 -9.25390625 2.24445313 -8.125 2.0625 C-6.48917969 1.80146484 -6.48917969 1.80146484 -4.8203125 1.53515625 C-2.06178454 1.14448841 -2.06178454 1.14448841 0 0 Z " fill="#2E1E12" transform="translate(385,148)"/>
<path d="M0 0 C2.97 0.495 2.97 0.495 6 1 C5.67 1.66 5.34 2.32 5 3 C4.34 2.67 3.68 2.34 3 2 C2.67 3.32 2.34 4.64 2 6 C1.01 5.34 0.02 4.68 -1 4 C-0.67 2.68 -0.34 1.36 0 0 Z " fill="#906D4E" transform="translate(307,461)"/>
<path d="M0 0 C0.66 0.33 1.32 0.66 2 1 C0.7934375 1.37125 0.7934375 1.37125 -0.4375 1.75 C-3.171081 2.72238859 -3.171081 2.72238859 -3.8125 5.125 C-3.874375 5.74375 -3.93625 6.3625 -4 7 C-5.32 7 -6.64 7 -8 7 C-6.88424427 3.65273281 -6.48655378 3.37920252 -3.5625 1.75 C-2.386875 1.1725 -1.21125 0.595 0 0 Z " fill="#C8AD8B" transform="translate(128,260)"/>
<path d="M0 0 C0.33 0 0.66 0 1 0 C1.0272415 1.41655793 1.04650467 2.83327045 1.0625 4.25 C1.07410156 5.03890625 1.08570313 5.8278125 1.09765625 6.640625 C1.00385306 8.90691002 0.63241063 10.8288895 0 13 C-0.66 12.67 -1.32 12.34 -2 12 C-1.85831863 10.56208484 -1.71148957 9.1246763 -1.5625 7.6875 C-1.48128906 6.88699219 -1.40007813 6.08648437 -1.31640625 5.26171875 C-1 3 -1 3 0 0 Z " fill="#524133" transform="translate(35,170)"/>
<path d="M0 0 C0.33 0.66 0.66 1.32 1 2 C-0.25 5.5625 -0.25 5.5625 -2 9 C-2.99 9.33 -3.98 9.66 -5 10 C-3.66511872 6.40608886 -2.03977277 3.24509304 0 0 Z " fill="#302014" transform="translate(602,537)"/>
<path d="M0 0 C0.33 0.99 0.66 1.98 1 3 C-1.31 5.31 -3.62 7.62 -6 10 C-6 6.41087588 -5.33563446 5.89142971 -3 3.3125 C-2.443125 2.68988281 -1.88625 2.06726563 -1.3125 1.42578125 C-0.879375 0.95527344 -0.44625 0.48476563 0 0 Z " fill="#E6E3DE" transform="translate(352,492)"/>
<path d="M0 0 C0 0.99 0 1.98 0 3 C-2.97 2.67 -5.94 2.34 -9 2 C-9 1.67 -9 1.34 -9 1 C-3.375 -1.125 -3.375 -1.125 0 0 Z " fill="#C2A584" transform="translate(289,266)"/>
<path d="M0 0 C2.0625 0.4375 2.0625 0.4375 4 1 C3.319375 1.61875 3.319375 1.61875 2.625 2.25 C0.94049626 4.06408095 0.00734029 5.75285627 -1 8 C-1.04241723 5.66705225 -1.04092937 3.33297433 -1 1 C-0.67 0.67 -0.34 0.34 0 0 Z " fill="#E9E6E0" transform="translate(505,521)"/>
<path d="M0 0 C0.99 0.99 1.98 1.98 3 3 C1.02 3.66 -0.96 4.32 -3 5 C-3.33 4.01 -3.66 3.02 -4 2 C-2.68 1.34 -1.36 0.68 0 0 Z " fill="#93704F" transform="translate(139,461)"/>
<path d="M0 0 C0.99 0.33 1.98 0.66 3 1 C-0.465 3.97 -0.465 3.97 -4 7 C-3.04065919 3.16263678 -2.76390737 2.40339772 0 0 Z " fill="#DBD7D1" transform="translate(444,405)"/>
<path d="M0 0 C0 4.38968456 -2.12805101 5.76905739 -5 9 C-5.33 8.01 -5.66 7.02 -6 6 C-2.83636364 1.41818182 -2.83636364 1.41818182 0 0 Z " fill="#E6E4DF" transform="translate(366,117)"/>
<path d="M0 0 C0.66 0 1.32 0 2 0 C3.32 2.31 4.64 4.62 6 7 C2.63279613 5.60667426 1.0140476 4.0210714 -1 1 C-0.67 0.67 -0.34 0.34 0 0 Z " fill="#4C341F" transform="translate(97,495)"/>
<path d="M0 0 C0.99 0.66 1.98 1.32 3 2 C2.01 2.99 1.02 3.98 0 5 C-1.32 4.34 -2.64 3.68 -4 3 C-2.68 2.01 -1.36 1.02 0 0 Z " fill="#362516" transform="translate(523,365)"/>
</svg>
