<?xml version="1.0" encoding="UTF-8" standalone="no"?>
<!DOCTYPE svg PUBLIC "-//W3C//DTD SVG 1.1//EN"
 "http://www.w3.org/Graphics/SVG/1.1/DTD/svg11.dtd">
<!-- Generated by graphviz version 2.43.0 (0)
 -->
<!-- Title: AQuestManagerActor::OnContactBuilding Pages: 1 -->
<svg width="632pt" height="110pt"
 viewBox="0.00 0.00 632.00 110.00" xmlns="http://www.w3.org/2000/svg" xmlns:xlink="http://www.w3.org/1999/xlink">
<g id="graph0" class="graph" transform="scale(1 1) rotate(0) translate(4 106)">
<title>AQuestManagerActor::OnContactBuilding</title>
<!-- Node1 -->
<g id="Node000001" class="node">
<title>Node1</title>
<g id="a_Node000001"><a xlink:title="클라이언트 또는 서버 권한에서 전달되는 접촉 이벤트 진입점입니다.">
<polygon fill="#999999" stroke="#666666" points="120,-54 0,-54 0,-24 120,-24 120,-54"/>
<text text-anchor="start" x="8" y="-42" font-family="Malgun Gothic" font-size="10.00">AQuestManagerActor</text>
<text text-anchor="middle" x="60" y="-31" font-family="Malgun Gothic" font-size="10.00">::OnContactBuilding</text>
</a>
</g>
</g>
<!-- Node2 -->
<g id="Node000002" class="node">
<title>Node2</title>
<g id="a_Node000002"><a xlink:href="classAQuestManagerActor.html#ab72d72d36b218a71364e941568c1b174" target="_top" xlink:title="접촉한 건물이 활성 퀘스트 목표와 일치하는지 검증합니다.">
<polygon fill="white" stroke="#666666" points="294,-78 174,-78 174,-48 294,-48 294,-78"/>
<text text-anchor="start" x="182" y="-66" font-family="Malgun Gothic" font-size="10.00">AQuestManagerActor</text>
<text text-anchor="middle" x="234" y="-55" font-family="Malgun Gothic" font-size="10.00">::ContactBuilding</text>
</a>
</g>
</g>
<!-- Node1&#45;&gt;Node2 -->
<g id="edge1_Node000001_Node000002" class="edge">
<title>Node1&#45;&gt;Node2</title>
<g id="a_edge1_Node000001_Node000002"><a xlink:title=" ">
<path fill="none" stroke="#63b8ff" d="M120.19,-47.26C134.33,-49.23 149.53,-51.35 164.06,-53.38"/>
<polygon fill="#63b8ff" stroke="#63b8ff" points="163.6,-56.85 173.99,-54.77 164.57,-49.92 163.6,-56.85"/>
</a>
</g>
</g>
<!-- Node6 -->
<g id="Node000006" class="node">
<title>Node6</title>
<g id="a_Node000006"><a xlink:href="classAQuestManagerActor.html#a7b28f816798a14f1874b8c2ba54491f1" target="_top" xlink:title=" ">
<polygon fill="white" stroke="#666666" points="312,-30 156,-30 156,0 312,0 312,-30"/>
<text text-anchor="start" x="164" y="-18" font-family="Malgun Gothic" font-size="10.00">AQuestManagerActor</text>
<text text-anchor="middle" x="234" y="-7" font-family="Malgun Gothic" font-size="10.00">::ServerRPC_ContactBuilding</text>
</a>
</g>
</g>
<!-- Node1&#45;&gt;Node6 -->
<g id="edge5_Node000001_Node000006" class="edge">
<title>Node1&#45;&gt;Node6</title>
<g id="a_edge5_Node000001_Node000006"><a xlink:title=" ">
<path fill="none" stroke="#63b8ff" d="M120.19,-30.74C128.43,-29.59 137.04,-28.39 145.67,-27.19"/>
<polygon fill="#63b8ff" stroke="#63b8ff" points="146.36,-30.62 155.78,-25.78 145.39,-23.69 146.36,-30.62"/>
</a>
</g>
</g>
<!-- Node3 -->
<g id="Node000003" class="node">
<title>Node3</title>
<g id="a_Node000003"><a xlink:href="classAQuestManagerActor.html#ad7cc1de3e613a1a68f7f3bcca0b22789" target="_top" xlink:title=" ">
<polygon fill="white" stroke="#666666" points="468,-102 348,-102 348,-72 468,-72 468,-102"/>
<text text-anchor="start" x="356" y="-90" font-family="Malgun Gothic" font-size="10.00">AQuestManagerActor</text>
<text text-anchor="middle" x="408" y="-79" font-family="Malgun Gothic" font-size="10.00">::HasActiveQuest</text>
</a>
</g>
</g>
<!-- Node2&#45;&gt;Node3 -->
<g id="edge2_Node000002_Node000003" class="edge">
<title>Node2&#45;&gt;Node3</title>
<g id="a_edge2_Node000002_Node000003"><a xlink:title=" ">
<path fill="none" stroke="#63b8ff" d="M294.19,-71.26C308.33,-73.23 323.53,-75.35 338.06,-77.38"/>
<polygon fill="#63b8ff" stroke="#63b8ff" points="337.6,-80.85 347.99,-78.77 338.57,-73.92 337.6,-80.85"/>
</a>
</g>
</g>
<!-- Node4 -->
<g id="Node000004" class="node">
<title>Node4</title>
<g id="a_Node000004"><a xlink:href="classAQuestManagerActor.html#a579b42b72172e4bfe4e461f70e52c187" target="_top" xlink:title="퀘스트 진행도를 갱신하고 클라이언트에 통지합니다.">
<polygon fill="white" stroke="#666666" points="468,-54 348,-54 348,-24 468,-24 468,-54"/>
<text text-anchor="start" x="356" y="-42" font-family="Malgun Gothic" font-size="10.00">AQuestManagerActor</text>
<text text-anchor="middle" x="408" y="-31" font-family="Malgun Gothic" font-size="10.00">::NextQuest</text>
</a>
</g>
</g>
<!-- Node2&#45;&gt;Node4 -->
<g id="edge3_Node000002_Node000004" class="edge">
<title>Node2&#45;&gt;Node4</title>
<g id="a_edge3_Node000002_Node000004"><a xlink:title=" ">
<path fill="none" stroke="#63b8ff" d="M294.19,-54.74C308.33,-52.77 323.53,-50.65 338.06,-48.62"/>
<polygon fill="#63b8ff" stroke="#63b8ff" points="338.57,-52.08 347.99,-47.23 337.6,-45.15 338.57,-52.08"/>
</a>
</g>
</g>
<!-- Node5 -->
<g id="Node000005" class="node">
<title>Node5</title>
<g id="a_Node000005"><a xlink:href="classAQuestManagerActor.html#a83693fe97f7b6375279f1446da6f969d" target="_top" xlink:title="퀘스트 목표 변경 사항을 UI 계층에 브로드캐스트합니다.">
<polygon fill="white" stroke="#666666" points="624,-54 504,-54 504,-24 624,-24 624,-54"/>
<text text-anchor="start" x="512" y="-42" font-family="Malgun Gothic" font-size="10.00">AQuestManagerActor</text>
<text text-anchor="middle" x="564" y="-31" font-family="Malgun Gothic" font-size="10.00">::SendUpdateQuest</text>
</a>
</g>
</g>
<!-- Node4&#45;&gt;Node5 -->
<g id="edge4_Node000004_Node000005" class="edge">
<title>Node4&#45;&gt;Node5</title>
<g id="a_edge4_Node000004_Node000005"><a xlink:title=" ">
<path fill="none" stroke="#63b8ff" d="M468.1,-39C476.42,-39 485.04,-39 493.53,-39"/>
<polygon fill="#63b8ff" stroke="#63b8ff" points="493.8,-42.5 503.8,-39 493.8,-35.5 493.8,-42.5"/>
</a>
</g>
</g>
</g>
</svg>
