<?xml version="1.0" encoding="UTF-8" standalone="no"?>
<!DOCTYPE svg PUBLIC "-//W3C//DTD SVG 1.1//EN"
 "http://www.w3.org/Graphics/SVG/1.1/DTD/svg11.dtd">
<!-- Generated by graphviz version 2.43.0 (0)
 -->
<!-- Title: UMainWidget Pages: 1 -->
<!--zoomable 517 -->

<svg id="main" version="1.1" xmlns="http://www.w3.org/2000/svg" xmlns:xlink="http://www.w3.org/1999/xlink" xml:space="preserve" onload="init(evt)">
<style type="text/css"><![CDATA[
.node, .edge {opacity: 0.7;}
.node.selected, .edge.selected {opacity: 1;}
.edge:hover path { stroke: red; }
.edge:hover polygon { stroke: red; fill: red; }
]]></style>

<defs>
  <circle id="rim" cx="0" cy="0" r="7"/>
  <circle id="rim2" cx="0" cy="0" r="3.5"/>
  <g id="zoomPlus">
    <use xlink:href="#rim" fill="#404040"><set attributeName="fill" to="#808080" begin="zoomplus.mouseover" end="zoomplus.mouseout"/></use>
    <path d="M-4,0h8M0,-4v8" fill="none" stroke="white" stroke-width="1.5" pointer-events="none"/>
  </g>
  <g id="zoomMin">
    <use xlink:href="#rim" fill="#404040"><set attributeName="fill" to="#808080" begin="zoomminus.mouseover" end="zoomminus.mouseout"/></use>
    <path d="M-4,0h8" fill="none" stroke="white" stroke-width="1.5" pointer-events="none"/>
  </g>
  <g id="arrowUp" transform="translate(30 24)">
    <use xlink:href="#rim"/>
    <path pointer-events="none" fill="none" stroke="white" stroke-width="1.5" d="M0,-3.0v7 M-2.5,-0.5L0,-3.0L2.5,-0.5"/>
  </g>
  <g id="arrowRight" transform="rotate(90) translate(36 -43)">
    <use xlink:href="#rim"/>
    <path pointer-events="none" fill="none" stroke="white" stroke-width="1.5" d="M0,-3.0v7 M-2.5,-0.5L0,-3.0L2.5,-0.5"/>
  </g>
  <g id="arrowDown" transform="rotate(180) translate(-30 -48)">
    <use xlink:href="#rim"/>
    <path pointer-events="none" fill="none" stroke="white" stroke-width="1.5" d="M0,-3.0v7 M-2.5,-0.5L0,-3.0L2.5,-0.5"/>
  </g>
  <g id="arrowLeft" transform="rotate(270) translate(-36 17)">
    <use xlink:href="#rim"/>
    <path pointer-events="none" fill="none" stroke="white" stroke-width="1.5" d="M0,-3.0v7 M-2.5,-0.5L0,-3.0L2.5,-0.5"/>
  </g>
  <g id="resetDef">
    <use xlink:href="#rim2" fill="#404040"><set attributeName="fill" to="#808080" begin="reset.mouseover" end="reset.mouseout"/></use>
  </g>
</defs>
<script type="application/ecmascript">
var viewWidth = 141;
var viewHeight = 517;
var sectionId = 'dynsection-0';
</script>
<script type="application/ecmascript" xlink:href="svg.min.js"/>
<svg id="graph" class="graph">
<g id="viewport">
<title>UMainWidget</title>
<!-- Node1 -->
<g id="Node000001" class="node">
<title>Node1</title>
<g id="a_Node000001"><a xlink:title=" ">
<polygon fill="#999999" stroke="transparent" points="133,-424 0,-424 0,0 133,0 133,-424"/>
<text text-anchor="start" x="33.5" y="-412" font-family="Malgun Gothic" font-size="10.00">UMainWidget</text>
<text text-anchor="start" x="4.5" y="-397" font-family="Malgun Gothic" font-size="10.00">+</text>
<text text-anchor="start" x="17.5" y="-397" font-family="Malgun Gothic" font-size="10.00">BGM_AudioComp</text>
<text text-anchor="start" x="4.5" y="-382" font-family="Malgun Gothic" font-size="10.00">+</text>
<text text-anchor="start" x="17.5" y="-382" font-family="Malgun Gothic" font-size="10.00">BGM_Sound</text>
<text text-anchor="start" x="4.5" y="-367" font-family="Malgun Gothic" font-size="10.00">+</text>
<text text-anchor="start" x="17.5" y="-367" font-family="Malgun Gothic" font-size="10.00">BroadcastManager</text>
<text text-anchor="start" x="4.5" y="-352" font-family="Malgun Gothic" font-size="10.00">+</text>
<text text-anchor="start" x="17.5" y="-352" font-family="Malgun Gothic" font-size="10.00">CurNearBuildingType</text>
<text text-anchor="start" x="4.5" y="-337" font-family="Malgun Gothic" font-size="10.00">+</text>
<text text-anchor="start" x="17.5" y="-337" font-family="Malgun Gothic" font-size="10.00">disapperani</text>
<text text-anchor="start" x="4.5" y="-322" font-family="Malgun Gothic" font-size="10.00">+</text>
<text text-anchor="start" x="17.5" y="-322" font-family="Malgun Gothic" font-size="10.00">EndingWidget</text>
<text text-anchor="start" x="4.5" y="-307" font-family="Malgun Gothic" font-size="10.00">+</text>
<text text-anchor="start" x="17.5" y="-307" font-family="Malgun Gothic" font-size="10.00">IntroStart</text>
<text text-anchor="start" x="4.5" y="-292" font-family="Malgun Gothic" font-size="10.00">+</text>
<text text-anchor="start" x="17.5" y="-292" font-family="Malgun Gothic" font-size="10.00">MegaPopupCtn</text>
<text text-anchor="start" x="4.5" y="-277" font-family="Malgun Gothic" font-size="10.00">+</text>
<text text-anchor="start" x="17.5" y="-277" font-family="Malgun Gothic" font-size="10.00">OutroStart</text>
<text text-anchor="start" x="4.5" y="-262" font-family="Malgun Gothic" font-size="10.00">+</text>
<text text-anchor="start" x="17.5" y="-262" font-family="Malgun Gothic" font-size="10.00">PendBuildingType</text>
<text text-anchor="start" x="4.5" y="-247" font-family="Malgun Gothic" font-size="10.00">+</text>
<text text-anchor="start" x="17.5" y="-247" font-family="Malgun Gothic" font-size="10.00">Slideani</text>
<text text-anchor="start" x="4.5" y="-232" font-family="Malgun Gothic" font-size="10.00">+</text>
<text text-anchor="start" x="17.5" y="-232" font-family="Malgun Gothic" font-size="10.00">SmallPopupCtn</text>
<text text-anchor="start" x="4.5" y="-217" font-family="Malgun Gothic" font-size="10.00">+</text>
<text text-anchor="start" x="17.5" y="-217" font-family="Malgun Gothic" font-size="10.00">UMainWidget()</text>
<text text-anchor="start" x="4.5" y="-202" font-family="Malgun Gothic" font-size="10.00">+</text>
<text text-anchor="start" x="17.5" y="-202" font-family="Malgun Gothic" font-size="10.00">AnimFinished()</text>
<text text-anchor="start" x="4.5" y="-187" font-family="Malgun Gothic" font-size="10.00">+</text>
<text text-anchor="start" x="17.5" y="-187" font-family="Malgun Gothic" font-size="10.00">EndAnim()</text>
<text text-anchor="start" x="4.5" y="-172" font-family="Malgun Gothic" font-size="10.00">+</text>
<text text-anchor="start" x="17.5" y="-172" font-family="Malgun Gothic" font-size="10.00">HideVoiceGuide()</text>
<text text-anchor="start" x="4.5" y="-157" font-family="Malgun Gothic" font-size="10.00">+</text>
<text text-anchor="start" x="17.5" y="-157" font-family="Malgun Gothic" font-size="10.00">ShowMegaPopup()</text>
<text text-anchor="start" x="4.5" y="-142" font-family="Malgun Gothic" font-size="10.00">+</text>
<text text-anchor="start" x="17.5" y="-142" font-family="Malgun Gothic" font-size="10.00">ShowVoiceGuide()</text>
<text text-anchor="start" x="4.5" y="-127" font-family="Malgun Gothic" font-size="10.00">+</text>
<text text-anchor="start" x="17.5" y="-127" font-family="Malgun Gothic" font-size="10.00">StartAnim()</text>
<text text-anchor="start" x="4.5" y="-112" font-family="Malgun Gothic" font-size="10.00">+</text>
<text text-anchor="start" x="17.5" y="-112" font-family="Malgun Gothic" font-size="10.00">UpdatePopup()</text>
<text text-anchor="start" x="4.5" y="-97" font-family="Malgun Gothic" font-size="10.00">#</text>
<text text-anchor="start" x="17.5" y="-97" font-family="Malgun Gothic" font-size="10.00">NativeConstruct()</text>
<text text-anchor="start" x="7" y="-82" font-family="Malgun Gothic" font-size="10.00">&#45;</text>
<text text-anchor="start" x="17.5" y="-82" font-family="Malgun Gothic" font-size="10.00">IsMegaPopupVisible()</text>
<text text-anchor="start" x="7" y="-67" font-family="Malgun Gothic" font-size="10.00">&#45;</text>
<text text-anchor="start" x="17.5" y="-67" font-family="Malgun Gothic" font-size="10.00">IsSmallPopupVisible()</text>
<text text-anchor="start" x="7" y="-52" font-family="Malgun Gothic" font-size="10.00">&#45;</text>
<text text-anchor="start" x="17.5" y="-52" font-family="Malgun Gothic" font-size="10.00">OnGameMessage()</text>
<text text-anchor="start" x="7" y="-37" font-family="Malgun Gothic" font-size="10.00">&#45;</text>
<text text-anchor="start" x="17.5" y="-37" font-family="Malgun Gothic" font-size="10.00">OnMegaPopupClosed()</text>
<text text-anchor="start" x="7" y="-22" font-family="Malgun Gothic" font-size="10.00">&#45;</text>
<text text-anchor="start" x="17.5" y="-22" font-family="Malgun Gothic" font-size="10.00">OnNearBuilding()</text>
<text text-anchor="start" x="7" y="-7" font-family="Malgun Gothic" font-size="10.00">&#45;</text>
<text text-anchor="start" x="17.5" y="-7" font-family="Malgun Gothic" font-size="10.00">PlayBGM()</text>
<polygon fill="#666666" stroke="#666666" points="0.5,-407 0.5,-407 133.5,-407 133.5,-407 0.5,-407"/>
<polygon fill="#666666" stroke="#666666" points="0.5,-227 0.5,-227 15.5,-227 15.5,-227 0.5,-227"/>
<polygon fill="#666666" stroke="#666666" points="15.5,-227 15.5,-227 133.5,-227 133.5,-227 15.5,-227"/>
<polygon fill="none" stroke="#666666" points="0,0 0,-424 133,-424 133,0 0,0"/>
</a>
</g>
</g>
<!-- Node2 -->
<g id="Node000002" class="node">
<title>Node2</title>
<g id="a_Node000002"><a xlink:title=" ">
<polygon fill="white" stroke="transparent" points="104,-509 29,-509 29,-460 104,-460 104,-509"/>
<text text-anchor="start" x="34.5" y="-496.5" font-family="Malgun Gothic" font-size="10.00">UUserWidget</text>
<text text-anchor="start" x="65" y="-481.5" font-family="Malgun Gothic" font-size="10.00"> </text>
<text text-anchor="start" x="65" y="-466.5" font-family="Malgun Gothic" font-size="10.00"> </text>
<polygon fill="#666666" stroke="#666666" points="29.5,-491.5 29.5,-491.5 104.5,-491.5 104.5,-491.5 29.5,-491.5"/>
<polygon fill="#666666" stroke="#666666" points="29.5,-476.5 29.5,-476.5 104.5,-476.5 104.5,-476.5 29.5,-476.5"/>
<polygon fill="none" stroke="#666666" points="29,-460 29,-509 104,-509 104,-460 29,-460"/>
</a>
</g>
</g>
<!-- Node2&#45;&gt;Node1 -->
<g id="edge1_Node000001_Node000002" class="edge">
<title>Node2&#45;&gt;Node1</title>
<g id="a_edge1_Node000001_Node000002"><a xlink:title=" ">
<path fill="none" stroke="#63b8ff" d="M66.5,-449.83C66.5,-442.15 66.5,-433.44 66.5,-424.01"/>
<polygon fill="none" stroke="#63b8ff" points="63,-449.97 66.5,-459.97 70,-449.97 63,-449.97"/>
</a>
</g>
</g>
</g>
</svg>

<g id="navigator" transform="translate(0 0)" fill="#404254">
  <rect fill="#f2f5e9" fill-opacity="0.5" stroke="#606060" stroke-width=".5" x="0" y="0" width="60" height="60"/>
  <use id="zoomplus" xlink:href="#zoomPlus" x="17" y="9" onmousedown="handleZoom(evt,'in')"/>
  <use id="zoomminus" xlink:href="#zoomMin" x="42" y="9" onmousedown="handleZoom(evt,'out')"/>
  <use id="reset" xlink:href="#resetDef" x="30" y="36" onmousedown="handleReset()"/>
   <use id="arrowup" xlink:href="#arrowUp" x="0" y="0" onmousedown="handlePan(0,-1)"/>
  <use id="arrowright" xlink:href="#arrowRight" x="0" y="0" onmousedown="handlePan(1,0)"/>
  <use id="arrowdown" xlink:href="#arrowDown" x="0" y="0" onmousedown="handlePan(0,1)"/>
  <use id="arrowleft" xlink:href="#arrowLeft" x="0" y="0" onmousedown="handlePan(-1,0)"/>
</g>
<svg viewBox="0 0 15 15" width="100%" height="30px" preserveAspectRatio="xMaxYMin meet">
 <g id="arrow_out" transform="scale(0.3 0.3)">
  <a xlink:href="classUMainWidget__inherit__graph_org.svg" target="_base">
   <rect id="button" ry="5" rx="5" y="6" x="6" height="38" width="38"
        fill="#f2f5e9" fill-opacity="0.5" stroke="#606060" stroke-width="1.0"/>
   <path id="arrow"
     d="M 11.500037,31.436501 C 11.940474,20.09759 22.043105,11.32322 32.158766,21.979434 L 37.068811,17.246167 C 37.068811,17.246167 37.088388,32 37.088388,32 L 22.160133,31.978069 C 22.160133,31.978069 26.997745,27.140456 26.997745,27.140456 C 18.528582,18.264221 13.291696,25.230495 11.500037,31.436501 z"
     style="fill:#404040;"/>
  </a>
 </g>
</svg>

<style type='text/css'>
<![CDATA[
[data-mouse-over-selected='false'] { opacity: 0.7; }
[data-mouse-over-selected='true']  { opacity: 1.0; }
]]>
</style>
<script type="application/ecmascript"><![CDATA[
document.addEventListener('DOMContentLoaded', (event) => {
  highlightEdges();
  highlightAdjacentNodes();
});
]]></script>
</svg>
