<?xml version="1.0" encoding="UTF-8" standalone="no"?>
<!DOCTYPE svg PUBLIC "-//W3C//DTD SVG 1.1//EN"
 "http://www.w3.org/Graphics/SVG/1.1/DTD/svg11.dtd">
<!-- Generated by graphviz version 2.43.0 (0)
 -->
<!-- Title: Source/LatteLibrary/Data/Public/FHitStopData.h Pages: 1 -->
<svg width="2428pt" height="192pt"
 viewBox="0.00 0.00 2427.50 192.00" xmlns="http://www.w3.org/2000/svg" xmlns:xlink="http://www.w3.org/1999/xlink">
<g id="graph0" class="graph" transform="scale(1 1) rotate(0) translate(4 188)">
<title>Source/LatteLibrary/Data/Public/FHitStopData.h</title>
<!-- Node1 -->
<g id="Node000001" class="node">
<title>Node1</title>
<g id="a_Node000001"><a xlink:title="FHitStopData 구조체에 대한 Doxygen 주석을 제공합니다.">
<polygon fill="#999999" stroke="#666666" points="774,-184 622,-184 622,-154 774,-154 774,-184"/>
<text text-anchor="start" x="630" y="-172" font-family="Malgun Gothic" font-size="10.00">Source/LatteLibrary</text>
<text text-anchor="middle" x="698" y="-161" font-family="Malgun Gothic" font-size="10.00">/Data/Public/FHitStopData.h</text>
</a>
</g>
</g>
<!-- Node2 -->
<g id="Node000002" class="node">
<title>Node2</title>
<g id="a_Node000002"><a xlink:href="UHitStopSystem_8h.html" target="_top" xlink:title="UHitStopSystem 클래스를 선언합니다.">
<polygon fill="white" stroke="#666666" points="434,-118 288,-118 288,-77 434,-77 434,-118"/>
<text text-anchor="start" x="296" y="-106" font-family="Malgun Gothic" font-size="10.00">Source/LatteLibrary</text>
<text text-anchor="start" x="296" y="-95" font-family="Malgun Gothic" font-size="10.00">/Character/Public/UHitStop</text>
<text text-anchor="middle" x="361" y="-84" font-family="Malgun Gothic" font-size="10.00">System.h</text>
</a>
</g>
</g>
<!-- Node1&#45;&gt;Node2 -->
<g id="edge1_Node000001_Node000002" class="edge">
<title>Node1&#45;&gt;Node2</title>
<g id="a_edge1_Node000001_Node000002"><a xlink:title=" ">
<path fill="none" stroke="#63b8ff" d="M619.92,-151.9C563.89,-140.34 488.91,-124.88 434.06,-113.57"/>
<polygon fill="#63b8ff" stroke="#63b8ff" points="619.3,-155.34 629.8,-153.94 620.72,-148.49 619.3,-155.34"/>
</a>
</g>
</g>
<!-- Node6 -->
<g id="Node000006" class="node">
<title>Node6</title>
<g id="a_Node000006"><a xlink:href="UGameDataManager_8h.html" target="_top" xlink:title="UGameDataManager 클래스를 선언합니다.">
<polygon fill="white" stroke="#666666" points="1325.5,-112.5 1116.5,-112.5 1116.5,-82.5 1325.5,-82.5 1325.5,-112.5"/>
<text text-anchor="start" x="1124.5" y="-100.5" font-family="Malgun Gothic" font-size="10.00">Source/LatteLibrary</text>
<text text-anchor="middle" x="1221" y="-89.5" font-family="Malgun Gothic" font-size="10.00">/Manager/Public/UGameDataManager.h</text>
</a>
</g>
</g>
<!-- Node1&#45;&gt;Node6 -->
<g id="edge5_Node000001_Node000006" class="edge">
<title>Node1&#45;&gt;Node6</title>
<g id="a_edge5_Node000001_Node000006"><a xlink:title=" ">
<path fill="none" stroke="#63b8ff" d="M784.06,-156.56C875.12,-144.46 1018.87,-125.36 1116.4,-112.4"/>
<polygon fill="#63b8ff" stroke="#63b8ff" points="783.5,-153.11 774.05,-157.89 784.42,-160.05 783.5,-153.11"/>
</a>
</g>
</g>
<!-- Node3 -->
<g id="Node000003" class="node">
<title>Node3</title>
<g id="a_Node000003"><a xlink:href="ALatteGameCharacter_8cpp.html" target="_top" xlink:title=" ">
<polygon fill="white" stroke="#666666" points="356,-41 188,-41 188,0 356,0 356,-41"/>
<text text-anchor="start" x="196" y="-29" font-family="Malgun Gothic" font-size="10.00">Source/LatteLibrary</text>
<text text-anchor="start" x="196" y="-18" font-family="Malgun Gothic" font-size="10.00">/Character/Private/ALatteGame</text>
<text text-anchor="middle" x="272" y="-7" font-family="Malgun Gothic" font-size="10.00">Character.cpp</text>
</a>
</g>
</g>
<!-- Node2&#45;&gt;Node3 -->
<g id="edge2_Node000002_Node000003" class="edge">
<title>Node2&#45;&gt;Node3</title>
<g id="a_edge2_Node000002_Node000003"><a xlink:title=" ">
<path fill="none" stroke="#63b8ff" d="M329.97,-70.35C318.55,-60.73 305.84,-50.01 295.23,-41.07"/>
<polygon fill="#63b8ff" stroke="#63b8ff" points="327.71,-73.03 337.62,-76.79 332.22,-67.67 327.71,-73.03"/>
</a>
</g>
</g>
<!-- Node4 -->
<g id="Node000004" class="node">
<title>Node4</title>
<g id="a_Node000004"><a xlink:href="ALattePlayerCharacter_8cpp.html" target="_top" xlink:title=" ">
<polygon fill="white" stroke="#666666" points="170,-41 0,-41 0,0 170,0 170,-41"/>
<text text-anchor="start" x="8" y="-29" font-family="Malgun Gothic" font-size="10.00">Source/LatteLibrary</text>
<text text-anchor="start" x="8" y="-18" font-family="Malgun Gothic" font-size="10.00">/Character/Private/ALattePlayer</text>
<text text-anchor="middle" x="85" y="-7" font-family="Malgun Gothic" font-size="10.00">Character.cpp</text>
</a>
</g>
</g>
<!-- Node2&#45;&gt;Node4 -->
<g id="edge3_Node000002_Node000004" class="edge">
<title>Node2&#45;&gt;Node4</title>
<g id="a_edge3_Node000002_Node000004"><a xlink:title=" ">
<path fill="none" stroke="#63b8ff" d="M279.48,-74.35C240.6,-63.78 194.48,-51.25 156.91,-41.04"/>
<polygon fill="#63b8ff" stroke="#63b8ff" points="278.64,-77.75 289.2,-76.99 280.47,-70.99 278.64,-77.75"/>
</a>
</g>
</g>
<!-- Node5 -->
<g id="Node000005" class="node">
<title>Node5</title>
<g id="a_Node000005"><a xlink:href="UHitStopSystem_8cpp.html" target="_top" xlink:title="UHitStopSystem의 동작을 구현합니다.">
<polygon fill="white" stroke="#666666" points="525.5,-41 374.5,-41 374.5,0 525.5,0 525.5,-41"/>
<text text-anchor="start" x="382.5" y="-29" font-family="Malgun Gothic" font-size="10.00">Source/LatteLibrary</text>
<text text-anchor="start" x="382.5" y="-18" font-family="Malgun Gothic" font-size="10.00">/Character/Private/UHitStop</text>
<text text-anchor="middle" x="450" y="-7" font-family="Malgun Gothic" font-size="10.00">System.cpp</text>
</a>
</g>
</g>
<!-- Node2&#45;&gt;Node5 -->
<g id="edge4_Node000002_Node000005" class="edge">
<title>Node2&#45;&gt;Node5</title>
<g id="a_edge4_Node000002_Node000005"><a xlink:title=" ">
<path fill="none" stroke="#63b8ff" d="M392.03,-70.35C403.45,-60.73 416.16,-50.01 426.77,-41.07"/>
<polygon fill="#63b8ff" stroke="#63b8ff" points="389.78,-67.67 384.38,-76.79 394.29,-73.03 389.78,-67.67"/>
</a>
</g>
</g>
<!-- Node6&#45;&gt;Node3 -->
<g id="edge6_Node000006_Node000003" class="edge">
<title>Node6&#45;&gt;Node3</title>
<g id="a_edge6_Node000006_Node000003"><a xlink:title=" ">
<path fill="none" stroke="#63b8ff" d="M1106.28,-94.23C941.54,-89.8 628.76,-77.02 365,-41 362.06,-40.6 359.07,-40.16 356.06,-39.68"/>
<polygon fill="#63b8ff" stroke="#63b8ff" points="1106.34,-97.73 1116.43,-94.5 1106.52,-90.73 1106.34,-97.73"/>
</a>
</g>
</g>
<!-- Node6&#45;&gt;Node5 -->
<g id="edge7_Node000006_Node000005" class="edge">
<title>Node6&#45;&gt;Node5</title>
<g id="a_edge7_Node000006_Node000005"><a xlink:title=" ">
<path fill="none" stroke="#63b8ff" d="M1106.18,-92.4C969.27,-86.32 733.84,-72.09 534,-41 531.34,-40.59 528.63,-40.13 525.91,-39.65"/>
<polygon fill="#63b8ff" stroke="#63b8ff" points="1106.13,-95.9 1116.27,-92.84 1106.43,-88.91 1106.13,-95.9"/>
</a>
</g>
</g>
<!-- Node7 -->
<g id="Node000007" class="node">
<title>Node7</title>
<g id="a_Node000007"><a xlink:href="UKnockbackSystem_8cpp.html" target="_top" xlink:title="FMath의 동작을 구현합니다.">
<polygon fill="white" stroke="#666666" points="1010,-41 842,-41 842,0 1010,0 1010,-41"/>
<text text-anchor="start" x="850" y="-29" font-family="Malgun Gothic" font-size="10.00">Source/LatteLibrary</text>
<text text-anchor="start" x="850" y="-18" font-family="Malgun Gothic" font-size="10.00">/Character/Private/UKnockback</text>
<text text-anchor="middle" x="926" y="-7" font-family="Malgun Gothic" font-size="10.00">System.cpp</text>
</a>
</g>
</g>
<!-- Node6&#45;&gt;Node7 -->
<g id="edge8_Node000006_Node000007" class="edge">
<title>Node6&#45;&gt;Node7</title>
<g id="a_edge8_Node000006_Node000007"><a xlink:title=" ">
<path fill="none" stroke="#63b8ff" d="M1155.88,-79.94C1110.71,-68.46 1050.37,-53.12 1002.84,-41.04"/>
<polygon fill="#63b8ff" stroke="#63b8ff" points="1155.3,-83.41 1165.86,-82.48 1157.03,-76.62 1155.3,-83.41"/>
</a>
</g>
</g>
<!-- Node8 -->
<g id="Node000008" class="node">
<title>Node8</title>
<g id="a_Node000008"><a xlink:href="UStatSystem_8cpp.html" target="_top" xlink:title="UStatSystem의 동작을 구현합니다.">
<polygon fill="white" stroke="#666666" points="1219.5,-35.5 1028.5,-35.5 1028.5,-5.5 1219.5,-5.5 1219.5,-35.5"/>
<text text-anchor="start" x="1036.5" y="-23.5" font-family="Malgun Gothic" font-size="10.00">Source/LatteLibrary</text>
<text text-anchor="middle" x="1124" y="-12.5" font-family="Malgun Gothic" font-size="10.00">/Character/Private/UStatSystem.cpp</text>
</a>
</g>
</g>
<!-- Node6&#45;&gt;Node8 -->
<g id="edge9_Node000006_Node000008" class="edge">
<title>Node6&#45;&gt;Node8</title>
<g id="a_edge9_Node000006_Node000008"><a xlink:title=" ">
<path fill="none" stroke="#63b8ff" d="M1194.52,-76.03C1177.9,-63.18 1156.91,-46.94 1142.16,-35.54"/>
<polygon fill="#63b8ff" stroke="#63b8ff" points="1192.7,-79.05 1202.76,-82.39 1196.98,-73.51 1192.7,-79.05"/>
</a>
</g>
</g>
<!-- Node9 -->
<g id="Node000009" class="node">
<title>Node9</title>
<g id="a_Node000009"><a xlink:href="UGameDataManager_8cpp.html" target="_top" xlink:title="UGameDataManager의 동작을 구현합니다.">
<polygon fill="white" stroke="#666666" points="1400.5,-41 1237.5,-41 1237.5,0 1400.5,0 1400.5,-41"/>
<text text-anchor="start" x="1245.5" y="-29" font-family="Malgun Gothic" font-size="10.00">Source/LatteLibrary</text>
<text text-anchor="start" x="1245.5" y="-18" font-family="Malgun Gothic" font-size="10.00">/Manager/Private/UGameData</text>
<text text-anchor="middle" x="1319" y="-7" font-family="Malgun Gothic" font-size="10.00">Manager.cpp</text>
</a>
</g>
</g>
<!-- Node6&#45;&gt;Node9 -->
<g id="edge10_Node000006_Node000009" class="edge">
<title>Node6&#45;&gt;Node9</title>
<g id="a_edge10_Node000006_Node000009"><a xlink:title=" ">
<path fill="none" stroke="#63b8ff" d="M1247.39,-76.31C1261.62,-65.41 1279.12,-52.02 1293.25,-41.2"/>
<polygon fill="#63b8ff" stroke="#63b8ff" points="1245.25,-73.54 1239.43,-82.39 1249.5,-79.09 1245.25,-73.54"/>
</a>
</g>
</g>
<!-- Node10 -->
<g id="Node000010" class="node">
<title>Node10</title>
<g id="a_Node000010"><a xlink:href="APlayerActor_8cpp.html" target="_top" xlink:title="APlayerActor 구현을 위한 Doxygen 주석을 제공합니다.">
<polygon fill="white" stroke="#666666" points="1559,-35.5 1419,-35.5 1419,-5.5 1559,-5.5 1559,-35.5"/>
<text text-anchor="start" x="1427" y="-23.5" font-family="Malgun Gothic" font-size="10.00">Source/YiSan/Character</text>
<text text-anchor="middle" x="1489" y="-12.5" font-family="Malgun Gothic" font-size="10.00">/Private/APlayerActor.cpp</text>
</a>
</g>
</g>
<!-- Node6&#45;&gt;Node10 -->
<g id="edge11_Node000006_Node000010" class="edge">
<title>Node6&#45;&gt;Node10</title>
<g id="a_edge11_Node000006_Node000010"><a xlink:title=" ">
<path fill="none" stroke="#63b8ff" d="M1280.93,-79.73C1328.4,-66.44 1393.94,-48.1 1438.7,-35.58"/>
<polygon fill="#63b8ff" stroke="#63b8ff" points="1279.78,-76.42 1271.09,-82.48 1281.67,-83.16 1279.78,-76.42"/>
</a>
</g>
</g>
<!-- Node11 -->
<g id="Node000011" class="node">
<title>Node11</title>
<g id="a_Node000011"><a xlink:href="UGPTContextSystem_8cpp.html" target="_top" xlink:title="UGPTContextSystem의 동작을 구현합니다.">
<polygon fill="white" stroke="#666666" points="1756.5,-35.5 1577.5,-35.5 1577.5,-5.5 1756.5,-5.5 1756.5,-35.5"/>
<text text-anchor="start" x="1585.5" y="-23.5" font-family="Malgun Gothic" font-size="10.00">Source/YiSan/Character</text>
<text text-anchor="middle" x="1667" y="-12.5" font-family="Malgun Gothic" font-size="10.00">/Private/UGPTContextSystem.cpp</text>
</a>
</g>
</g>
<!-- Node6&#45;&gt;Node11 -->
<g id="edge12_Node000006_Node000011" class="edge">
<title>Node6&#45;&gt;Node11</title>
<g id="a_edge12_Node000006_Node000011"><a xlink:title=" ">
<path fill="none" stroke="#63b8ff" d="M1324.69,-80.91C1393.74,-70.29 1486.43,-55.55 1568,-41 1577.57,-39.29 1587.65,-37.41 1597.55,-35.51"/>
<polygon fill="#63b8ff" stroke="#63b8ff" points="1324.03,-77.47 1314.67,-82.45 1325.09,-84.39 1324.03,-77.47"/>
</a>
</g>
</g>
<!-- Node12 -->
<g id="Node000012" class="node">
<title>Node12</title>
<g id="a_Node000012"><a xlink:href="ADasanActor_8cpp.html" target="_top" xlink:title="ADasanActor의 동작을 구현합니다.">
<polygon fill="white" stroke="#666666" points="1915,-35.5 1775,-35.5 1775,-5.5 1915,-5.5 1915,-35.5"/>
<text text-anchor="start" x="1783" y="-23.5" font-family="Malgun Gothic" font-size="10.00">Source/YiSan/NPC/Private</text>
<text text-anchor="middle" x="1845" y="-12.5" font-family="Malgun Gothic" font-size="10.00">/ADasanActor.cpp</text>
</a>
</g>
</g>
<!-- Node6&#45;&gt;Node12 -->
<g id="edge13_Node000006_Node000012" class="edge">
<title>Node6&#45;&gt;Node12</title>
<g id="a_edge13_Node000006_Node000012"><a xlink:title=" ">
<path fill="none" stroke="#63b8ff" d="M1335.76,-89.52C1446.49,-81.68 1618.56,-66.57 1766,-41 1774.63,-39.5 1783.71,-37.59 1792.52,-35.54"/>
<polygon fill="#63b8ff" stroke="#63b8ff" points="1335.3,-86.04 1325.57,-90.23 1335.79,-93.03 1335.3,-86.04"/>
</a>
</g>
</g>
<!-- Node13 -->
<g id="Node000013" class="node">
<title>Node13</title>
<g id="a_Node000013"><a xlink:href="UTourStateSystem_8cpp.html" target="_top" xlink:title="UTourStateSystem의 동작을 구현합니다.">
<polygon fill="white" stroke="#666666" points="2073,-35.5 1933,-35.5 1933,-5.5 2073,-5.5 2073,-35.5"/>
<text text-anchor="start" x="1941" y="-23.5" font-family="Malgun Gothic" font-size="10.00">Source/YiSan/NPC/Private</text>
<text text-anchor="middle" x="2003" y="-12.5" font-family="Malgun Gothic" font-size="10.00">/UTourStateSystem.cpp</text>
</a>
</g>
</g>
<!-- Node6&#45;&gt;Node13 -->
<g id="edge14_Node000006_Node000013" class="edge">
<title>Node6&#45;&gt;Node13</title>
<g id="a_edge14_Node000006_Node000013"><a xlink:title=" ">
<path fill="none" stroke="#63b8ff" d="M1335.85,-93.18C1475.61,-87.83 1718.4,-74.26 1924,-41 1932.93,-39.56 1942.33,-37.62 1951.4,-35.52"/>
<polygon fill="#63b8ff" stroke="#63b8ff" points="1335.42,-89.7 1325.56,-93.57 1335.68,-96.69 1335.42,-89.7"/>
</a>
</g>
</g>
<!-- Node14 -->
<g id="Node000014" class="node">
<title>Node14</title>
<g id="a_Node000014"><a xlink:href="ANetworkTesterActor_8cpp.html" target="_top" xlink:title="ANetworkTesterActor의 동작을 구현합니다.">
<polygon fill="white" stroke="#666666" points="2270.5,-35.5 2091.5,-35.5 2091.5,-5.5 2270.5,-5.5 2270.5,-35.5"/>
<text text-anchor="start" x="2099.5" y="-23.5" font-family="Malgun Gothic" font-size="10.00">Source/YiSan/Network</text>
<text text-anchor="middle" x="2181" y="-12.5" font-family="Malgun Gothic" font-size="10.00">/Private/ANetworkTesterActor.cpp</text>
</a>
</g>
</g>
<!-- Node6&#45;&gt;Node14 -->
<g id="edge15_Node000006_Node000014" class="edge">
<title>Node6&#45;&gt;Node14</title>
<g id="a_edge15_Node000006_Node000014"><a xlink:title=" ">
<path fill="none" stroke="#63b8ff" d="M1336,-93.84C1501.53,-88.93 1816.3,-75.58 2082,-41 2093.12,-39.55 2104.86,-37.61 2116.23,-35.51"/>
<polygon fill="#63b8ff" stroke="#63b8ff" points="1335.69,-90.35 1325.8,-94.14 1335.89,-97.34 1335.69,-90.35"/>
</a>
</g>
</g>
<!-- Node15 -->
<g id="Node000015" class="node">
<title>Node15</title>
<g id="a_Node000015"><a xlink:href="UMegaPopup_8cpp.html" target="_top" xlink:title="UMegaPopup의 동작을 구현합니다.">
<polygon fill="white" stroke="#666666" points="2419.5,-35.5 2288.5,-35.5 2288.5,-5.5 2419.5,-5.5 2419.5,-35.5"/>
<text text-anchor="start" x="2296.5" y="-23.5" font-family="Malgun Gothic" font-size="10.00">Source/YiSan/UI/Private</text>
<text text-anchor="middle" x="2354" y="-12.5" font-family="Malgun Gothic" font-size="10.00">/UMegaPopup.cpp</text>
</a>
</g>
</g>
<!-- Node6&#45;&gt;Node15 -->
<g id="edge16_Node000006_Node000015" class="edge">
<title>Node6&#45;&gt;Node15</title>
<g id="a_edge16_Node000006_Node000015"><a xlink:title=" ">
<path fill="none" stroke="#63b8ff" d="M1335.9,-93.46C1571.24,-86.74 2100.99,-68.97 2280,-41 2288.66,-39.65 2297.78,-37.69 2306.54,-35.54"/>
<polygon fill="#63b8ff" stroke="#63b8ff" points="1335.5,-89.97 1325.6,-93.75 1335.7,-96.97 1335.5,-89.97"/>
</a>
</g>
</g>
<!-- Node16 -->
<g id="Node000016" class="node">
<title>Node16</title>
<g id="a_Node000016"><a xlink:href="USmallPopup_8cpp.html" target="_top" xlink:title="USmallPopup의 동작을 구현합니다.">
<polygon fill="white" stroke="#666666" points="674.5,-35.5 543.5,-35.5 543.5,-5.5 674.5,-5.5 674.5,-35.5"/>
<text text-anchor="start" x="551.5" y="-23.5" font-family="Malgun Gothic" font-size="10.00">Source/YiSan/UI/Private</text>
<text text-anchor="middle" x="609" y="-12.5" font-family="Malgun Gothic" font-size="10.00">/USmallPopup.cpp</text>
</a>
</g>
</g>
<!-- Node6&#45;&gt;Node16 -->
<g id="edge17_Node000006_Node000016" class="edge">
<title>Node6&#45;&gt;Node16</title>
<g id="a_edge17_Node000006_Node000016"><a xlink:title=" ">
<path fill="none" stroke="#63b8ff" d="M1106.36,-89.84C996.94,-82.26 827.79,-67.38 683,-41 674.9,-39.52 666.38,-37.62 658.12,-35.58"/>
<polygon fill="#63b8ff" stroke="#63b8ff" points="1106.22,-93.33 1116.43,-90.52 1106.7,-86.35 1106.22,-93.33"/>
</a>
</g>
</g>
<!-- Node17 -->
<g id="Node000017" class="node">
<title>Node17</title>
<g id="a_Node000017"><a xlink:href="UStateWidget_8cpp.html" target="_top" xlink:title="UStateWidget의 동작을 구현합니다.">
<polygon fill="white" stroke="#666666" points="823.5,-35.5 692.5,-35.5 692.5,-5.5 823.5,-5.5 823.5,-35.5"/>
<text text-anchor="start" x="700.5" y="-23.5" font-family="Malgun Gothic" font-size="10.00">Source/YiSan/UI/Private</text>
<text text-anchor="middle" x="758" y="-12.5" font-family="Malgun Gothic" font-size="10.00">/UStateWidget.cpp</text>
</a>
</g>
</g>
<!-- Node6&#45;&gt;Node17 -->
<g id="edge18_Node000006_Node000017" class="edge">
<title>Node6&#45;&gt;Node17</title>
<g id="a_edge18_Node000006_Node000017"><a xlink:title=" ">
<path fill="none" stroke="#63b8ff" d="M1106.02,-83.49C1028.51,-73.88 924.14,-59.31 833,-41 825.22,-39.44 817.04,-37.56 809.06,-35.59"/>
<polygon fill="#63b8ff" stroke="#63b8ff" points="1105.95,-87.01 1116.3,-84.76 1106.8,-80.06 1105.95,-87.01"/>
</a>
</g>
</g>
</g>
</svg>
