<?xml version="1.0" encoding="UTF-8" standalone="no"?>
<!DOCTYPE svg PUBLIC "-//W3C//DTD SVG 1.1//EN"
 "http://www.w3.org/Graphics/SVG/1.1/DTD/svg11.dtd">
<!-- Generated by graphviz version 2.43.0 (0)
 -->
<!-- Title: 그래픽컬한 클래스 계통도 Pages: 1 -->
<svg width="269pt" height="693pt"
 viewBox="0.00 0.00 269.00 693.00" xmlns="http://www.w3.org/2000/svg" xmlns:xlink="http://www.w3.org/1999/xlink">
<g id="graph0" class="graph" transform="scale(1 1) rotate(0) translate(4 689)">
<title>그래픽컬한 클래스 계통도</title>
<!-- Node0 -->
<g id="Node000000" class="node">
<title>Node0</title>
<g id="a_Node000000"><a xlink:title=" ">
<polygon fill="#e0e0e0" stroke="#999999" points="81,-352 0,-352 0,-333 81,-333 81,-352"/>
<text text-anchor="middle" x="40.5" y="-340" font-family="Malgun Gothic" font-size="10.00">UUserWidget</text>
</a>
</g>
</g>
<!-- Node1 -->
<g id="Node000001" class="node">
<title>Node1</title>
<g id="a_Node000001"><a xlink:href="classUChatBoxWidget.html" target="_top" xlink:title="채팅 메시지 목록과 입력창을 포함하는 UI 위젯입니다.">
<polygon fill="white" stroke="#666666" points="239,-685 139,-685 139,-666 239,-666 239,-685"/>
<text text-anchor="middle" x="189" y="-673" font-family="Malgun Gothic" font-size="10.00">UChatBoxWidget</text>
</a>
</g>
</g>
<!-- Node0&#45;&gt;Node1 -->
<g id="edge53_Node000000_Node000001" class="edge">
<title>Node0&#45;&gt;Node1</title>
<g id="a_edge53_Node000000_Node000001"><a xlink:title=" ">
<path fill="none" stroke="#63b8ff" d="M43.59,-362.37C50.55,-424.71 74.88,-614.83 117,-657.5 122.99,-663.56 130.7,-667.69 138.83,-670.47"/>
<polygon fill="#63b8ff" stroke="#63b8ff" points="47.05,-361.84 42.49,-352.28 40.1,-362.6 47.05,-361.84"/>
</a>
</g>
</g>
<!-- Node2 -->
<g id="Node000002" class="node">
<title>Node2</title>
<g id="a_Node000002"><a xlink:href="classUChatEntryWidget.html" target="_top" xlink:title="채팅 목록에 표시되는 개별 채팅 메시지 항목 UI 위젯입니다.">
<polygon fill="white" stroke="#666666" points="242.5,-648 135.5,-648 135.5,-629 242.5,-629 242.5,-648"/>
<text text-anchor="middle" x="189" y="-636" font-family="Malgun Gothic" font-size="10.00">UChatEntryWidget</text>
</a>
</g>
</g>
<!-- Node0&#45;&gt;Node2 -->
<g id="edge54_Node000000_Node000002" class="edge">
<title>Node0&#45;&gt;Node2</title>
<g id="a_edge54_Node000000_Node000002"><a xlink:title=" ">
<path fill="none" stroke="#63b8ff" d="M44.25,-362.23C52.61,-419.42 79.47,-583.6 117,-620.5 122.17,-625.58 128.56,-629.29 135.36,-631.99"/>
<polygon fill="#63b8ff" stroke="#63b8ff" points="47.67,-361.41 42.79,-352.01 40.74,-362.4 47.67,-361.41"/>
</a>
</g>
</g>
<!-- Node3 -->
<g id="Node000003" class="node">
<title>Node3</title>
<g id="a_Node000003"><a xlink:href="classUChatUIWidget.html" target="_top" xlink:title="UChatBoxWidget을 포함하는 컨테이너 위젯입니다.">
<polygon fill="white" stroke="#666666" points="235,-611 143,-611 143,-592 235,-592 235,-611"/>
<text text-anchor="middle" x="189" y="-599" font-family="Malgun Gothic" font-size="10.00">UChatUIWidget</text>
</a>
</g>
</g>
<!-- Node0&#45;&gt;Node3 -->
<g id="edge55_Node000000_Node000003" class="edge">
<title>Node0&#45;&gt;Node3</title>
<g id="a_edge55_Node000000_Node000003"><a xlink:title=" ">
<path fill="none" stroke="#63b8ff" d="M41.58,-362.09C42.86,-407.89 52.7,-522.66 117,-583.5 124.11,-590.23 133.37,-594.54 142.84,-597.28"/>
<polygon fill="#63b8ff" stroke="#63b8ff" points="45.07,-361.95 41.4,-352.01 38.07,-362.07 45.07,-361.95"/>
</a>
</g>
</g>
<!-- Node4 -->
<g id="Node000004" class="node">
<title>Node4</title>
<g id="a_Node000004"><a xlink:href="classUDasanWidget.html" target="_top" xlink:title="다산(Dasan) NPC의 머리 위에 표시되어 현재 상태를 알려주는 UI 위젯입니다.">
<polygon fill="white" stroke="#666666" points="233.5,-574 144.5,-574 144.5,-555 233.5,-555 233.5,-574"/>
<text text-anchor="middle" x="189" y="-562" font-family="Malgun Gothic" font-size="10.00">UDasanWidget</text>
</a>
</g>
</g>
<!-- Node0&#45;&gt;Node4 -->
<g id="edge56_Node000000_Node000004" class="edge">
<title>Node0&#45;&gt;Node4</title>
<g id="a_edge56_Node000000_Node000004"><a xlink:title=" ">
<path fill="none" stroke="#63b8ff" d="M42.9,-362.38C46.86,-403.22 61.81,-496.88 117,-546.5 124.57,-553.3 134.34,-557.61 144.19,-560.32"/>
<polygon fill="#63b8ff" stroke="#63b8ff" points="46.38,-362.01 42.04,-352.34 39.4,-362.6 46.38,-362.01"/>
</a>
</g>
</g>
<!-- Node5 -->
<g id="Node000005" class="node">
<title>Node5</title>
<g id="a_Node000005"><a xlink:href="classUDialogWidget.html" target="_top" xlink:title="음성 및 텍스트 응답을 출력하는 다이얼로그 위젯입니다.">
<polygon fill="white" stroke="#666666" points="234,-537 144,-537 144,-518 234,-518 234,-537"/>
<text text-anchor="middle" x="189" y="-525" font-family="Malgun Gothic" font-size="10.00">UDialogWidget</text>
</a>
</g>
</g>
<!-- Node0&#45;&gt;Node5 -->
<g id="edge57_Node000000_Node000005" class="edge">
<title>Node0&#45;&gt;Node5</title>
<g id="a_edge57_Node000000_Node000005"><a xlink:title=" ">
<path fill="none" stroke="#63b8ff" d="M44.68,-362.12C51.44,-397.19 70.56,-470.6 117,-509.5 124.6,-515.87 134.17,-520.03 143.79,-522.73"/>
<polygon fill="#63b8ff" stroke="#63b8ff" points="48.11,-361.4 42.91,-352.17 41.22,-362.63 48.11,-361.4"/>
</a>
</g>
</g>
<!-- Node6 -->
<g id="Node000006" class="node">
<title>Node6</title>
<g id="a_Node000006"><a xlink:href="classUEndingWidget.html" target="_top" xlink:title="게임의 엔딩 시퀀스를 담당하는 UI 위젯입니다.">
<polygon fill="white" stroke="#666666" points="235,-500 143,-500 143,-481 235,-481 235,-500"/>
<text text-anchor="middle" x="189" y="-488" font-family="Malgun Gothic" font-size="10.00">UEndingWidget</text>
</a>
</g>
</g>
<!-- Node0&#45;&gt;Node6 -->
<g id="edge58_Node000000_Node000006" class="edge">
<title>Node0&#45;&gt;Node6</title>
<g id="a_edge58_Node000000_Node000006"><a xlink:title=" ">
<path fill="none" stroke="#63b8ff" d="M47.31,-361.74C56.97,-390.38 79.13,-443.92 117,-472.5 124.51,-478.17 133.61,-482.06 142.76,-484.74"/>
<polygon fill="#63b8ff" stroke="#63b8ff" points="50.6,-360.54 44.21,-352.09 43.93,-362.68 50.6,-360.54"/>
</a>
</g>
</g>
<!-- Node7 -->
<g id="Node000007" class="node">
<title>Node7</title>
<g id="a_Node000007"><a xlink:href="classULoadginCircle.html" target="_top" xlink:title="네트워크 대기 상태를 표시하는 로딩 서클 위젯입니다.">
<polygon fill="white" stroke="#666666" points="234,-463 144,-463 144,-444 234,-444 234,-463"/>
<text text-anchor="middle" x="189" y="-451" font-family="Malgun Gothic" font-size="10.00">ULoadginCircle</text>
</a>
</g>
</g>
<!-- Node0&#45;&gt;Node7 -->
<g id="edge59_Node000000_Node000007" class="edge">
<title>Node0&#45;&gt;Node7</title>
<g id="a_edge59_Node000000_Node000007"><a xlink:title=" ">
<path fill="none" stroke="#63b8ff" d="M51.45,-360.83C63.94,-382.07 87.37,-416.56 117,-435.5 125.04,-440.64 134.46,-444.31 143.76,-446.93"/>
<polygon fill="#63b8ff" stroke="#63b8ff" points="54.48,-359.07 46.5,-352.11 48.39,-362.53 54.48,-359.07"/>
</a>
</g>
</g>
<!-- Node8 -->
<g id="Node000008" class="node">
<title>Node8</title>
<g id="a_Node000008"><a xlink:href="classULoadingTransitionWidget.html" target="_top" xlink:title="레벨 전환 시 표시되는 전체 화면 로딩 위젯입니다.">
<polygon fill="white" stroke="#666666" points="261,-426 117,-426 117,-407 261,-407 261,-426"/>
<text text-anchor="middle" x="189" y="-414" font-family="Malgun Gothic" font-size="10.00">ULoadingTransitionWidget</text>
</a>
</g>
</g>
<!-- Node0&#45;&gt;Node8 -->
<g id="edge60_Node000000_Node000008" class="edge">
<title>Node0&#45;&gt;Node8</title>
<g id="a_edge60_Node000000_Node000008"><a xlink:title=" ">
<path fill="none" stroke="#63b8ff" d="M59.58,-359.11C74.11,-371.63 95.56,-388.32 117,-398.5 124.12,-401.88 131.96,-404.68 139.75,-406.98"/>
<polygon fill="#63b8ff" stroke="#63b8ff" points="61.69,-356.31 51.88,-352.31 57.06,-361.55 61.69,-356.31"/>
</a>
</g>
</g>
<!-- Node9 -->
<g id="Node000009" class="node">
<title>Node9</title>
<g id="a_Node000009"><a xlink:href="classULobbyWidget.html" target="_top" xlink:title="멀티플레이 로비 화면 위젯입니다.">
<polygon fill="white" stroke="#666666" points="233,-389 145,-389 145,-370 233,-370 233,-389"/>
<text text-anchor="middle" x="189" y="-377" font-family="Malgun Gothic" font-size="10.00">ULobbyWidget</text>
</a>
</g>
</g>
<!-- Node0&#45;&gt;Node9 -->
<g id="edge61_Node000000_Node000009" class="edge">
<title>Node0&#45;&gt;Node9</title>
<g id="a_edge61_Node000000_Node000009"><a xlink:title=" ">
<path fill="none" stroke="#63b8ff" d="M88.99,-354.49C108.8,-359.5 131.49,-365.23 150.15,-369.94"/>
<polygon fill="#63b8ff" stroke="#63b8ff" points="89.78,-351.08 79.23,-352.03 88.07,-357.87 89.78,-351.08"/>
</a>
</g>
</g>
<!-- Node10 -->
<g id="Node000010" class="node">
<title>Node10</title>
<g id="a_Node000010"><a xlink:href="classUMainWidget.html" target="_top" xlink:title=" ">
<polygon fill="white" stroke="#666666" points="230.5,-352 147.5,-352 147.5,-333 230.5,-333 230.5,-352"/>
<text text-anchor="middle" x="189" y="-340" font-family="Malgun Gothic" font-size="10.00">UMainWidget</text>
</a>
</g>
</g>
<!-- Node0&#45;&gt;Node10 -->
<g id="edge62_Node000000_Node000010" class="edge">
<title>Node0&#45;&gt;Node10</title>
<g id="a_edge62_Node000000_Node000010"><a xlink:title=" ">
<path fill="none" stroke="#63b8ff" d="M91.31,-342.5C109.55,-342.5 129.95,-342.5 147.3,-342.5"/>
<polygon fill="#63b8ff" stroke="#63b8ff" points="91.15,-339 81.15,-342.5 91.14,-346 91.15,-339"/>
</a>
</g>
</g>
<!-- Node11 -->
<g id="Node000011" class="node">
<title>Node11</title>
<g id="a_Node000011"><a xlink:href="classUMegaPopup.html" target="_top" xlink:title=" ">
<polygon fill="white" stroke="#666666" points="229.5,-315 148.5,-315 148.5,-296 229.5,-296 229.5,-315"/>
<text text-anchor="middle" x="189" y="-303" font-family="Malgun Gothic" font-size="10.00">UMegaPopup</text>
</a>
</g>
</g>
<!-- Node0&#45;&gt;Node11 -->
<g id="edge63_Node000000_Node000011" class="edge">
<title>Node0&#45;&gt;Node11</title>
<g id="a_edge63_Node000000_Node000011"><a xlink:title=" ">
<path fill="none" stroke="#63b8ff" d="M88.99,-330.51C108.8,-325.5 131.49,-319.77 150.15,-315.06"/>
<polygon fill="#63b8ff" stroke="#63b8ff" points="88.07,-327.13 79.23,-332.97 89.78,-333.92 88.07,-327.13"/>
</a>
</g>
</g>
<!-- Node12 -->
<g id="Node000012" class="node">
<title>Node12</title>
<g id="a_Node000012"><a xlink:href="classUPlayerHeadWidget.html" target="_top" xlink:title="플레이어 캐릭터의 머리 위에 표시되어 플레이어 이름과 아이콘을 보여주는 UI 위젯입니다.">
<polygon fill="white" stroke="#666666" points="246.5,-278 131.5,-278 131.5,-259 246.5,-259 246.5,-278"/>
<text text-anchor="middle" x="189" y="-266" font-family="Malgun Gothic" font-size="10.00">UPlayerHeadWidget</text>
</a>
</g>
</g>
<!-- Node0&#45;&gt;Node12 -->
<g id="edge64_Node000000_Node000012" class="edge">
<title>Node0&#45;&gt;Node12</title>
<g id="a_edge64_Node000000_Node000012"><a xlink:title=" ">
<path fill="none" stroke="#63b8ff" d="M59.67,-326.28C74.24,-314.03 95.71,-297.66 117,-287.5 124.95,-283.71 133.77,-280.58 142.41,-278.03"/>
<polygon fill="#63b8ff" stroke="#63b8ff" points="57.24,-323.75 51.94,-332.93 61.8,-329.06 57.24,-323.75"/>
</a>
</g>
</g>
<!-- Node13 -->
<g id="Node000013" class="node">
<title>Node13</title>
<g id="a_Node000013"><a xlink:href="classUPlayerListItem.html" target="_top" xlink:title="플레이어 목록에 표시되는 개별 플레이어 정보 항목 UI 위젯입니다.">
<polygon fill="white" stroke="#666666" points="236.5,-241 141.5,-241 141.5,-222 236.5,-222 236.5,-241"/>
<text text-anchor="middle" x="189" y="-229" font-family="Malgun Gothic" font-size="10.00">UPlayerListItem</text>
</a>
</g>
</g>
<!-- Node0&#45;&gt;Node13 -->
<g id="edge65_Node000000_Node000013" class="edge">
<title>Node0&#45;&gt;Node13</title>
<g id="a_edge65_Node000000_Node000013"><a xlink:title=" ">
<path fill="none" stroke="#63b8ff" d="M51.91,-323.83C64.57,-302.84 87.91,-269.25 117,-250.5 124.29,-245.8 132.72,-242.26 141.17,-239.58"/>
<polygon fill="#63b8ff" stroke="#63b8ff" points="48.72,-322.34 46.71,-332.75 54.77,-325.87 48.72,-322.34"/>
</a>
</g>
</g>
<!-- Node14 -->
<g id="Node000014" class="node">
<title>Node14</title>
<g id="a_Node000014"><a xlink:href="classUPlayerWidget.html" target="_top" xlink:title="현재 세션에 참여한 플레이어 목록을 표시하는 UI 위젯입니다.">
<polygon fill="white" stroke="#666666" points="233.5,-204 144.5,-204 144.5,-185 233.5,-185 233.5,-204"/>
<text text-anchor="middle" x="189" y="-192" font-family="Malgun Gothic" font-size="10.00">UPlayerWidget</text>
</a>
</g>
</g>
<!-- Node0&#45;&gt;Node14 -->
<g id="edge66_Node000000_Node000014" class="edge">
<title>Node0&#45;&gt;Node14</title>
<g id="a_edge66_Node000000_Node000014"><a xlink:title=" ">
<path fill="none" stroke="#63b8ff" d="M47.54,-323.05C57.4,-294.61 79.67,-241.96 117,-213.5 124.92,-207.47 134.6,-203.34 144.24,-200.53"/>
<polygon fill="#63b8ff" stroke="#63b8ff" points="44.18,-322.07 44.37,-332.67 50.83,-324.27 44.18,-322.07"/>
</a>
</g>
</g>
<!-- Node15 -->
<g id="Node000015" class="node">
<title>Node15</title>
<g id="a_Node000015"><a xlink:href="classUSessionInfoWidget.html" target="_top" xlink:title="검색된 멀티플레이어 세션 정보를 표시하고 참여 버튼을 제공하는 UI 위젯입니다.">
<polygon fill="white" stroke="#666666" points="246.5,-167 131.5,-167 131.5,-148 246.5,-148 246.5,-167"/>
<text text-anchor="middle" x="189" y="-155" font-family="Malgun Gothic" font-size="10.00">USessionInfoWidget</text>
</a>
</g>
</g>
<!-- Node0&#45;&gt;Node15 -->
<g id="edge67_Node000000_Node000015" class="edge">
<title>Node0&#45;&gt;Node15</title>
<g id="a_edge67_Node000000_Node000015"><a xlink:title=" ">
<path fill="none" stroke="#63b8ff" d="M44.77,-323.06C51.66,-288.29 71,-215.46 117,-176.5 121.58,-172.62 126.87,-169.53 132.45,-167.06"/>
<polygon fill="#63b8ff" stroke="#63b8ff" points="41.32,-322.45 42.95,-332.92 48.21,-323.72 41.32,-322.45"/>
</a>
</g>
</g>
<!-- Node16 -->
<g id="Node000016" class="node">
<title>Node16</title>
<g id="a_Node000016"><a xlink:href="classUSmallPopup.html" target="_top" xlink:title=" ">
<polygon fill="white" stroke="#666666" points="230,-130 148,-130 148,-111 230,-111 230,-130"/>
<text text-anchor="middle" x="189" y="-118" font-family="Malgun Gothic" font-size="10.00">USmallPopup</text>
</a>
</g>
</g>
<!-- Node0&#45;&gt;Node16 -->
<g id="edge68_Node000000_Node000016" class="edge">
<title>Node0&#45;&gt;Node16</title>
<g id="a_edge68_Node000000_Node000016"><a xlink:title=" ">
<path fill="none" stroke="#63b8ff" d="M42.98,-322.77C47.11,-282.24 62.34,-189.22 117,-139.5 125.5,-131.77 136.79,-127.13 147.87,-124.36"/>
<polygon fill="#63b8ff" stroke="#63b8ff" points="39.49,-322.46 42.09,-332.73 46.47,-323.09 39.49,-322.46"/>
</a>
</g>
</g>
<!-- Node17 -->
<g id="Node000017" class="node">
<title>Node17</title>
<g id="a_Node000017"><a xlink:href="classUStartWidget.html" target="_top" xlink:title="시작 버튼과 배경 영상을 제어하는 초기 진입 위젯입니다.">
<polygon fill="white" stroke="#666666" points="230,-93 148,-93 148,-74 230,-74 230,-93"/>
<text text-anchor="middle" x="189" y="-81" font-family="Malgun Gothic" font-size="10.00">UStartWidget</text>
</a>
</g>
</g>
<!-- Node0&#45;&gt;Node17 -->
<g id="edge69_Node000000_Node000017" class="edge">
<title>Node0&#45;&gt;Node17</title>
<g id="a_edge69_Node000000_Node000017"><a xlink:title=" ">
<path fill="none" stroke="#63b8ff" d="M41.68,-322.41C43.21,-276.51 53.6,-163.21 117,-102.5 125.39,-94.47 136.78,-89.75 147.99,-87"/>
<polygon fill="#63b8ff" stroke="#63b8ff" points="38.17,-322.48 41.45,-332.56 45.17,-322.64 38.17,-322.48"/>
</a>
</g>
</g>
<!-- Node18 -->
<g id="Node000018" class="node">
<title>Node18</title>
<g id="a_Node000018"><a xlink:href="classUStateWidget.html" target="_top" xlink:title=" ">
<polygon fill="white" stroke="#666666" points="231,-56 147,-56 147,-37 231,-37 231,-56"/>
<text text-anchor="middle" x="189" y="-44" font-family="Malgun Gothic" font-size="10.00">UStateWidget</text>
</a>
</g>
</g>
<!-- Node0&#45;&gt;Node18 -->
<g id="edge70_Node000000_Node000018" class="edge">
<title>Node0&#45;&gt;Node18</title>
<g id="a_edge70_Node000000_Node000018"><a xlink:title=" ">
<path fill="none" stroke="#63b8ff" d="M40.67,-322.5C39.73,-271.89 44.57,-137.6 117,-65.5 124.96,-57.58 135.83,-52.86 146.68,-50.07"/>
<polygon fill="#63b8ff" stroke="#63b8ff" points="37.18,-322.85 40.97,-332.74 44.18,-322.64 37.18,-322.85"/>
</a>
</g>
</g>
<!-- Node19 -->
<g id="Node000019" class="node">
<title>Node19</title>
<g id="a_Node000019"><a xlink:href="classUVoiceGuidePanel.html" target="_top" xlink:title="사용 가능한 음성 명령 예시를 보여주는 안내 UI 패널 위젯입니다.">
<polygon fill="white" stroke="#666666" points="241.5,-19 136.5,-19 136.5,0 241.5,0 241.5,-19"/>
<text text-anchor="middle" x="189" y="-7" font-family="Malgun Gothic" font-size="10.00">UVoiceGuidePanel</text>
</a>
</g>
</g>
<!-- Node0&#45;&gt;Node19 -->
<g id="edge71_Node000000_Node000019" class="edge">
<title>Node0&#45;&gt;Node19</title>
<g id="a_edge71_Node000000_Node000019"><a xlink:title=" ">
<path fill="none" stroke="#63b8ff" d="M43.62,-322.72C50.68,-260.64 75.27,-71.3 117,-28.5 122.34,-23.02 129.08,-19.06 136.27,-16.22"/>
<polygon fill="#63b8ff" stroke="#63b8ff" points="40.13,-322.44 42.51,-332.76 47.09,-323.21 40.13,-322.44"/>
</a>
</g>
</g>
</g>
</svg>
