<?xml version="1.0" encoding="UTF-8" standalone="no"?>
<!DOCTYPE svg PUBLIC "-//W3C//DTD SVG 1.1//EN"
 "http://www.w3.org/Graphics/SVG/1.1/DTD/svg11.dtd">
<!-- Generated by graphviz version 2.43.0 (0)
 -->
<!-- Title: Source/YiSan/UI/Public/ULoadingTransitionManager.h Pages: 1 -->
<svg width="618pt" height="93pt"
 viewBox="0.00 0.00 617.50 93.00" xmlns="http://www.w3.org/2000/svg" xmlns:xlink="http://www.w3.org/1999/xlink">
<g id="graph0" class="graph" transform="scale(1 1) rotate(0) translate(4 89)">
<title>Source/YiSan/UI/Public/ULoadingTransitionManager.h</title>
<!-- Node1 -->
<g id="Node000001" class="node">
<title>Node1</title>
<g id="a_Node000001"><a xlink:title="ULoadingTransitionManager 클래스를 선언합니다.">
<polygon fill="#999999" stroke="#666666" points="288,-85 124,-85 124,-55 288,-55 288,-85"/>
<text text-anchor="start" x="132" y="-73" font-family="Malgun Gothic" font-size="10.00">Source/YiSan/UI/Public</text>
<text text-anchor="middle" x="206" y="-62" font-family="Malgun Gothic" font-size="10.00">/ULoadingTransitionManager.h</text>
</a>
</g>
</g>
<!-- Node2 -->
<g id="Node000002" class="node">
<title>Node2</title>
<g id="a_Node000002"><a xlink:title=" ">
<polygon fill="#e0e0e0" stroke="#999999" points="88,-19 0,-19 0,0 88,0 88,-19"/>
<text text-anchor="middle" x="44" y="-7" font-family="Malgun Gothic" font-size="10.00">CoreMinimal.h</text>
</a>
</g>
</g>
<!-- Node1&#45;&gt;Node2 -->
<g id="edge1_Node000001_Node000002" class="edge">
<title>Node1&#45;&gt;Node2</title>
<g id="a_edge1_Node000001_Node000002"><a xlink:title=" ">
<path fill="none" stroke="#63b8ff" d="M167.2,-54.99C139.81,-45.1 103.48,-31.98 77.39,-22.56"/>
<polygon fill="#63b8ff" stroke="#63b8ff" points="78.52,-19.24 67.92,-19.14 76.14,-25.83 78.52,-19.24"/>
</a>
</g>
</g>
<!-- Node3 -->
<g id="Node000003" class="node">
<title>Node3</title>
<g id="a_Node000003"><a xlink:href="Macro_8h.html" target="_top" xlink:title="YiSan 전반에서 사용하는 공용 인터페이스를 선언합니다.">
<polygon fill="white" stroke="#666666" points="162,-19 106,-19 106,0 162,0 162,-19"/>
<text text-anchor="middle" x="134" y="-7" font-family="Malgun Gothic" font-size="10.00">Macro.h</text>
</a>
</g>
</g>
<!-- Node1&#45;&gt;Node3 -->
<g id="edge2_Node000001_Node000003" class="edge">
<title>Node1&#45;&gt;Node3</title>
<g id="a_edge2_Node000001_Node000003"><a xlink:title=" ">
<path fill="none" stroke="#63b8ff" d="M188.57,-54.84C177.69,-46 163.7,-34.63 152.61,-25.62"/>
<polygon fill="#63b8ff" stroke="#63b8ff" points="154.76,-22.86 144.79,-19.27 150.34,-28.29 154.76,-22.86"/>
</a>
</g>
</g>
<!-- Node4 -->
<g id="Node000004" class="node">
<title>Node4</title>
<g id="a_Node000004"><a xlink:title=" ">
<polygon fill="#e0e0e0" stroke="#999999" points="378,-19 180,-19 180,0 378,0 378,-19"/>
<text text-anchor="middle" x="279" y="-7" font-family="Malgun Gothic" font-size="10.00">Subsystems/LocalPlayerSubsystem.h</text>
</a>
</g>
</g>
<!-- Node1&#45;&gt;Node4 -->
<g id="edge3_Node000001_Node000004" class="edge">
<title>Node1&#45;&gt;Node4</title>
<g id="a_edge3_Node000001_Node000004"><a xlink:title=" ">
<path fill="none" stroke="#63b8ff" d="M223.67,-54.84C234.7,-46 248.89,-34.63 260.13,-25.62"/>
<polygon fill="#63b8ff" stroke="#63b8ff" points="262.45,-28.25 268.06,-19.27 258.07,-22.79 262.45,-28.25"/>
</a>
</g>
</g>
<!-- Node5 -->
<g id="Node000005" class="node">
<title>Node5</title>
<g id="a_Node000005"><a xlink:title=" ">
<polygon fill="#e0e0e0" stroke="#999999" points="609.5,-19 396.5,-19 396.5,0 609.5,0 609.5,-19"/>
<text text-anchor="middle" x="503" y="-7" font-family="Malgun Gothic" font-size="10.00">ULoadingTransitionManager.generated.h</text>
</a>
</g>
</g>
<!-- Node1&#45;&gt;Node5 -->
<g id="edge4_Node000001_Node000005" class="edge">
<title>Node1&#45;&gt;Node5</title>
<g id="a_edge4_Node000001_Node000005"><a xlink:title=" ">
<path fill="none" stroke="#63b8ff" d="M277.14,-54.99C330.17,-44.54 401.46,-30.5 449.66,-21.01"/>
<polygon fill="#63b8ff" stroke="#63b8ff" points="450.44,-24.42 459.57,-19.05 449.09,-17.55 450.44,-24.42"/>
</a>
</g>
</g>
</g>
</svg>
