<?xml version="1.0" encoding="UTF-8" standalone="no"?>
<!DOCTYPE svg PUBLIC "-//W3C//DTD SVG 1.1//EN"
 "http://www.w3.org/Graphics/SVG/1.1/DTD/svg11.dtd">
<!-- Generated by graphviz version 2.43.0 (0)
 -->
<!-- Title: Source/YiSan/Network/Public/UWebSocketSystem.h Pages: 1 -->
<svg width="709pt" height="148pt"
 viewBox="0.00 0.00 708.96 148.00" xmlns="http://www.w3.org/2000/svg" xmlns:xlink="http://www.w3.org/1999/xlink">
<g id="graph0" class="graph" transform="scale(1 1) rotate(0) translate(4 144)">
<title>Source/YiSan/Network/Public/UWebSocketSystem.h</title>
<!-- Node1 -->
<g id="Node000001" class="node">
<title>Node1</title>
<g id="a_Node000001"><a xlink:title="실시간 음성·텍스트 상호작용을 위한 WebSocket 서브시스템을 선언합니다.">
<polygon fill="#999999" stroke="#666666" points="418.96,-140 260.96,-140 260.96,-110 418.96,-110 418.96,-140"/>
<text text-anchor="start" x="268.96" y="-128" font-family="Malgun Gothic" font-size="10.00">Source/YiSan/Network</text>
<text text-anchor="middle" x="339.96" y="-117" font-family="Malgun Gothic" font-size="10.00">/Public/UWebSocketSystem.h</text>
</a>
</g>
</g>
<!-- Node2 -->
<g id="Node000002" class="node">
<title>Node2</title>
<g id="a_Node000002"><a xlink:title=" ">
<polygon fill="#e0e0e0" stroke="#999999" points="114.96,-19 26.96,-19 26.96,0 114.96,0 114.96,-19"/>
<text text-anchor="middle" x="70.96" y="-7" font-family="Malgun Gothic" font-size="10.00">CoreMinimal.h</text>
</a>
</g>
</g>
<!-- Node1&#45;&gt;Node2 -->
<g id="edge1_Node000001_Node000002" class="edge">
<title>Node1&#45;&gt;Node2</title>
<g id="a_edge1_Node000001_Node000002"><a xlink:title=" ">
<path fill="none" stroke="#63b8ff" d="M260.64,-123.62C172.21,-121.32 37.31,-111.53 4.96,-74 -11.24,-55.2 16.84,-35.72 41.24,-23.38"/>
<polygon fill="#63b8ff" stroke="#63b8ff" points="42.81,-26.51 50.3,-19.02 39.78,-20.2 42.81,-26.51"/>
</a>
</g>
</g>
<!-- Node3 -->
<g id="Node000003" class="node">
<title>Node3</title>
<g id="a_Node000003"><a xlink:title=" ">
<polygon fill="#e0e0e0" stroke="#999999" points="225.96,-74 13.96,-74 13.96,-55 225.96,-55 225.96,-74"/>
<text text-anchor="middle" x="119.96" y="-62" font-family="Malgun Gothic" font-size="10.00">Subsystems/GameInstanceSubsystem.h</text>
</a>
</g>
</g>
<!-- Node1&#45;&gt;Node3 -->
<g id="edge2_Node000001_Node000003" class="edge">
<title>Node1&#45;&gt;Node3</title>
<g id="a_edge2_Node000001_Node000003"><a xlink:title=" ">
<path fill="none" stroke="#63b8ff" d="M287.27,-109.99C248.97,-99.8 197.82,-86.2 162.2,-76.73"/>
<polygon fill="#63b8ff" stroke="#63b8ff" points="162.7,-73.24 152.13,-74.05 160.9,-80.01 162.7,-73.24"/>
</a>
</g>
</g>
<!-- Node4 -->
<g id="Node000004" class="node">
<title>Node4</title>
<g id="a_Node000004"><a xlink:href="FGPTContext_8h.html" target="_top" xlink:title="GPT 상호작용에 사용되는 공간 컨텍스트 구조체를 정의합니다.">
<polygon fill="white" stroke="#666666" points="332.46,-74 243.46,-74 243.46,-55 332.46,-55 332.46,-74"/>
<text text-anchor="middle" x="287.96" y="-62" font-family="Malgun Gothic" font-size="10.00">FGPTContext.h</text>
</a>
</g>
</g>
<!-- Node1&#45;&gt;Node4 -->
<g id="edge3_Node000001_Node000004" class="edge">
<title>Node1&#45;&gt;Node4</title>
<g id="a_edge3_Node000001_Node000004"><a xlink:title=" ">
<path fill="none" stroke="#63b8ff" d="M327.38,-109.84C319.91,-101.43 310.4,-90.74 302.6,-81.96"/>
<polygon fill="#63b8ff" stroke="#63b8ff" points="305.02,-79.41 295.76,-74.27 299.78,-84.07 305.02,-79.41"/>
</a>
</g>
</g>
<!-- Node6 -->
<g id="Node000006" class="node">
<title>Node6</title>
<g id="a_Node000006"><a xlink:title=" ">
<polygon fill="#e0e0e0" stroke="#999999" points="432.96,-74 350.96,-74 350.96,-55 432.96,-55 432.96,-74"/>
<text text-anchor="middle" x="391.96" y="-62" font-family="Malgun Gothic" font-size="10.00">IWebSocket.h</text>
</a>
</g>
</g>
<!-- Node1&#45;&gt;Node6 -->
<g id="edge6_Node000001_Node000006" class="edge">
<title>Node1&#45;&gt;Node6</title>
<g id="a_edge6_Node000001_Node000006"><a xlink:title=" ">
<path fill="none" stroke="#63b8ff" d="M352.55,-109.84C360.02,-101.43 369.53,-90.74 377.33,-81.96"/>
<polygon fill="#63b8ff" stroke="#63b8ff" points="380.15,-84.07 384.17,-74.27 374.91,-79.41 380.15,-84.07"/>
</a>
</g>
</g>
<!-- Node7 -->
<g id="Node000007" class="node">
<title>Node7</title>
<g id="a_Node000007"><a xlink:href="Macro_8h.html" target="_top" xlink:title="YiSan 전반에서 사용하는 공용 인터페이스를 선언합니다.">
<polygon fill="white" stroke="#666666" points="506.96,-74 450.96,-74 450.96,-55 506.96,-55 506.96,-74"/>
<text text-anchor="middle" x="478.96" y="-62" font-family="Malgun Gothic" font-size="10.00">Macro.h</text>
</a>
</g>
</g>
<!-- Node1&#45;&gt;Node7 -->
<g id="edge7_Node000001_Node000007" class="edge">
<title>Node1&#45;&gt;Node7</title>
<g id="a_edge7_Node000001_Node000007"><a xlink:title=" ">
<path fill="none" stroke="#63b8ff" d="M373.26,-109.99C396.35,-100.27 426.83,-87.44 449.13,-78.06"/>
<polygon fill="#63b8ff" stroke="#63b8ff" points="450.58,-81.24 458.44,-74.14 447.86,-74.79 450.58,-81.24"/>
</a>
</g>
</g>
<!-- Node8 -->
<g id="Node000008" class="node">
<title>Node8</title>
<g id="a_Node000008"><a xlink:title=" ">
<polygon fill="#e0e0e0" stroke="#999999" points="700.96,-74 524.96,-74 524.96,-55 700.96,-55 700.96,-74"/>
<text text-anchor="middle" x="612.96" y="-62" font-family="Malgun Gothic" font-size="10.00">UWebSocketSystem.generated.h</text>
</a>
</g>
</g>
<!-- Node1&#45;&gt;Node8 -->
<g id="edge8_Node000001_Node000008" class="edge">
<title>Node1&#45;&gt;Node8</title>
<g id="a_edge8_Node000001_Node000008"><a xlink:title=" ">
<path fill="none" stroke="#63b8ff" d="M405.36,-109.99C453.79,-99.61 518.81,-85.68 563.09,-76.19"/>
<polygon fill="#63b8ff" stroke="#63b8ff" points="564,-79.57 573.05,-74.05 562.54,-72.73 564,-79.57"/>
</a>
</g>
</g>
<!-- Node4&#45;&gt;Node2 -->
<g id="edge4_Node000004_Node000002" class="edge">
<title>Node4&#45;&gt;Node2</title>
<g id="a_edge4_Node000004_Node000002"><a xlink:title=" ">
<path fill="none" stroke="#63b8ff" d="M253.1,-54.98C215.88,-45.89 156.77,-31.46 116.04,-21.51"/>
<polygon fill="#63b8ff" stroke="#63b8ff" points="116.65,-18.05 106.1,-19.08 114.99,-24.85 116.65,-18.05"/>
</a>
</g>
</g>
<!-- Node5 -->
<g id="Node000005" class="node">
<title>Node5</title>
<g id="a_Node000005"><a xlink:title=" ">
<polygon fill="#e0e0e0" stroke="#999999" points="358.46,-19 217.46,-19 217.46,0 358.46,0 358.46,-19"/>
<text text-anchor="middle" x="287.96" y="-7" font-family="Malgun Gothic" font-size="10.00">FGPTContext.generated.h</text>
</a>
</g>
</g>
<!-- Node4&#45;&gt;Node5 -->
<g id="edge5_Node000004_Node000005" class="edge">
<title>Node4&#45;&gt;Node5</title>
<g id="a_edge5_Node000004_Node000005"><a xlink:title=" ">
<path fill="none" stroke="#63b8ff" d="M287.96,-54.75C287.96,-47.8 287.96,-37.85 287.96,-29.13"/>
<polygon fill="#63b8ff" stroke="#63b8ff" points="291.46,-29.09 287.96,-19.09 284.46,-29.09 291.46,-29.09"/>
</a>
</g>
</g>
</g>
</svg>
