<?xml version="1.0" encoding="UTF-8" standalone="no"?>
<!DOCTYPE svg PUBLIC "-//W3C//DTD SVG 1.1//EN"
 "http://www.w3.org/Graphics/SVG/1.1/DTD/svg11.dtd">
<!-- Generated by graphviz version 2.43.0 (0)
 -->
<!-- Title: Source/YiSan/Loading/Private/UYisanOnlineSystem.cpp Pages: 1 -->
<!--zoomable 214 -->

<svg id="main" version="1.1" xmlns="http://www.w3.org/2000/svg" xmlns:xlink="http://www.w3.org/1999/xlink" xml:space="preserve" onload="init(evt)">
<style type="text/css"><![CDATA[
.node, .edge {opacity: 0.7;}
.node.selected, .edge.selected {opacity: 1;}
.edge:hover path { stroke: red; }
.edge:hover polygon { stroke: red; fill: red; }
]]></style>

<defs>
  <circle id="rim" cx="0" cy="0" r="7"/>
  <circle id="rim2" cx="0" cy="0" r="3.5"/>
  <g id="zoomPlus">
    <use xlink:href="#rim" fill="#404040"><set attributeName="fill" to="#808080" begin="zoomplus.mouseover" end="zoomplus.mouseout"/></use>
    <path d="M-4,0h8M0,-4v8" fill="none" stroke="white" stroke-width="1.5" pointer-events="none"/>
  </g>
  <g id="zoomMin">
    <use xlink:href="#rim" fill="#404040"><set attributeName="fill" to="#808080" begin="zoomminus.mouseover" end="zoomminus.mouseout"/></use>
    <path d="M-4,0h8" fill="none" stroke="white" stroke-width="1.5" pointer-events="none"/>
  </g>
  <g id="arrowUp" transform="translate(30 24)">
    <use xlink:href="#rim"/>
    <path pointer-events="none" fill="none" stroke="white" stroke-width="1.5" d="M0,-3.0v7 M-2.5,-0.5L0,-3.0L2.5,-0.5"/>
  </g>
  <g id="arrowRight" transform="rotate(90) translate(36 -43)">
    <use xlink:href="#rim"/>
    <path pointer-events="none" fill="none" stroke="white" stroke-width="1.5" d="M0,-3.0v7 M-2.5,-0.5L0,-3.0L2.5,-0.5"/>
  </g>
  <g id="arrowDown" transform="rotate(180) translate(-30 -48)">
    <use xlink:href="#rim"/>
    <path pointer-events="none" fill="none" stroke="white" stroke-width="1.5" d="M0,-3.0v7 M-2.5,-0.5L0,-3.0L2.5,-0.5"/>
  </g>
  <g id="arrowLeft" transform="rotate(270) translate(-36 17)">
    <use xlink:href="#rim"/>
    <path pointer-events="none" fill="none" stroke="white" stroke-width="1.5" d="M0,-3.0v7 M-2.5,-0.5L0,-3.0L2.5,-0.5"/>
  </g>
  <g id="resetDef">
    <use xlink:href="#rim2" fill="#404040"><set attributeName="fill" to="#808080" begin="reset.mouseover" end="reset.mouseout"/></use>
  </g>
</defs>
<script type="application/ecmascript">
var viewWidth = 3403;
var viewHeight = 214;
var sectionId = 'dynsection-0';
</script>
<script type="application/ecmascript" xlink:href="svg.min.js"/>
<svg id="graph" class="graph">
<g id="viewport">
<title>Source/YiSan/Loading/Private/UYisanOnlineSystem.cpp</title>
<!-- Node1 -->
<g id="Node000001" class="node">
<title>Node1</title>
<g id="a_Node000001"><a xlink:title="UYisanOnlineSystem의 동작을 구현합니다.">
<polygon fill="#999999" stroke="#666666" points="2252,-206 2073,-206 2073,-176 2252,-176 2252,-206"/>
<text text-anchor="start" x="2081" y="-194" font-family="Malgun Gothic" font-size="10.00">Source/YiSan/Loading</text>
<text text-anchor="middle" x="2162.5" y="-183" font-family="Malgun Gothic" font-size="10.00">/Private/UYisanOnlineSystem.cpp</text>
</a>
</g>
</g>
<!-- Node2 -->
<g id="Node000002" class="node">
<title>Node2</title>
<g id="a_Node000002"><a xlink:href="UYisanOnlineSystem_8h.html" target="_top" xlink:title="UYisanOnlineSystem 클래스를 선언합니다.">
<polygon fill="white" stroke="#666666" points="1908.5,-140 1780.5,-140 1780.5,-121 1908.5,-121 1908.5,-140"/>
<text text-anchor="middle" x="1844.5" y="-128" font-family="Malgun Gothic" font-size="10.00">UYisanOnlineSystem.h</text>
</a>
</g>
</g>
<!-- Node1&#45;&gt;Node2 -->
<g id="edge1_Node000001_Node000002" class="edge">
<title>Node1&#45;&gt;Node2</title>
<g id="a_edge1_Node000001_Node000002"><a xlink:title=" ">
<path fill="none" stroke="#63b8ff" d="M2086.33,-175.99C2029.31,-165.5 1952.58,-151.38 1900.97,-141.89"/>
<polygon fill="#63b8ff" stroke="#63b8ff" points="1901.46,-138.42 1891,-140.05 1900.2,-145.31 1901.46,-138.42"/>
</a>
</g>
</g>
<!-- Node8 -->
<g id="Node000008" class="node">
<title>Node8</title>
<g id="a_Node000008"><a xlink:title=" ">
<polygon fill="#e0e0e0" stroke="#999999" points="2022.5,-140 1926.5,-140 1926.5,-121 2022.5,-121 2022.5,-140"/>
<text text-anchor="middle" x="1974.5" y="-128" font-family="Malgun Gothic" font-size="10.00">TimerManager.h</text>
</a>
</g>
</g>
<!-- Node1&#45;&gt;Node8 -->
<g id="edge7_Node000001_Node000008" class="edge">
<title>Node1&#45;&gt;Node8</title>
<g id="a_edge7_Node000001_Node000008"><a xlink:title=" ">
<path fill="none" stroke="#63b8ff" d="M2117.47,-175.99C2085.16,-165.94 2042.16,-152.55 2011.77,-143.1"/>
<polygon fill="#63b8ff" stroke="#63b8ff" points="2012.58,-139.68 2001.99,-140.05 2010.5,-146.37 2012.58,-139.68"/>
</a>
</g>
</g>
<!-- Node9 -->
<g id="Node000009" class="node">
<title>Node9</title>
<g id="a_Node000009"><a xlink:title=" ">
<polygon fill="#e0e0e0" stroke="#999999" points="2154.5,-140 2040.5,-140 2040.5,-121 2154.5,-121 2154.5,-140"/>
<text text-anchor="middle" x="2097.5" y="-128" font-family="Malgun Gothic" font-size="10.00">ContentStreaming.h</text>
</a>
</g>
</g>
<!-- Node1&#45;&gt;Node9 -->
<g id="edge8_Node000001_Node000009" class="edge">
<title>Node1&#45;&gt;Node9</title>
<g id="a_edge8_Node000001_Node000009"><a xlink:title=" ">
<path fill="none" stroke="#63b8ff" d="M2146.77,-175.84C2137.14,-167.17 2124.81,-156.08 2114.89,-147.15"/>
<polygon fill="#63b8ff" stroke="#63b8ff" points="2117.01,-144.35 2107.24,-140.27 2112.33,-149.56 2117.01,-144.35"/>
</a>
</g>
</g>
<!-- Node10 -->
<g id="Node000010" class="node">
<title>Node10</title>
<g id="a_Node000010"><a xlink:href="AYisanGameState_8h.html" target="_top" xlink:title="AYisanGameState 클래스를 선언합니다.">
<polygon fill="white" stroke="#666666" points="501,-140 388,-140 388,-121 501,-121 501,-140"/>
<text text-anchor="middle" x="444.5" y="-128" font-family="Malgun Gothic" font-size="10.00">AYisanGameState.h</text>
</a>
</g>
</g>
<!-- Node1&#45;&gt;Node10 -->
<g id="edge9_Node000001_Node000010" class="edge">
<title>Node1&#45;&gt;Node10</title>
<g id="a_edge9_Node000001_Node000010"><a xlink:title=" ">
<path fill="none" stroke="#63b8ff" d="M2072.85,-186.95C1768.5,-176.58 778.87,-142.89 511.57,-133.78"/>
<polygon fill="#63b8ff" stroke="#63b8ff" points="511.36,-130.27 501.24,-133.43 511.12,-137.27 511.36,-130.27"/>
</a>
</g>
</g>
<!-- Node17 -->
<g id="Node000017" class="node">
<title>Node17</title>
<g id="a_Node000017"><a xlink:href="GameLogging_8h.html" target="_top" xlink:title="YiSan 전반에서 사용하는 공용 인터페이스를 선언합니다.">
<polygon fill="white" stroke="#666666" points="1034,-140 941,-140 941,-121 1034,-121 1034,-140"/>
<text text-anchor="middle" x="987.5" y="-128" font-family="Malgun Gothic" font-size="10.00">GameLogging.h</text>
</a>
</g>
</g>
<!-- Node1&#45;&gt;Node17 -->
<g id="edge18_Node000001_Node000017" class="edge">
<title>Node1&#45;&gt;Node17</title>
<g id="a_edge18_Node000001_Node000017"><a xlink:title=" ">
<path fill="none" stroke="#63b8ff" d="M2072.74,-185.53C1842.01,-174.04 1233.14,-143.73 1044.23,-134.32"/>
<polygon fill="#63b8ff" stroke="#63b8ff" points="1044.39,-130.83 1034.23,-133.83 1044.04,-137.82 1044.39,-130.83"/>
</a>
</g>
</g>
<!-- Node19 -->
<g id="Node000019" class="node">
<title>Node19</title>
<g id="a_Node000019"><a xlink:title=" ">
<polygon fill="#e0e0e0" stroke="#999999" points="1146,-79.5 1051,-79.5 1051,-60.5 1146,-60.5 1146,-79.5"/>
<text text-anchor="middle" x="1098.5" y="-67.5" font-family="Malgun Gothic" font-size="10.00">Engine/Engine.h</text>
</a>
</g>
</g>
<!-- Node1&#45;&gt;Node19 -->
<g id="edge29_Node000001_Node000019" class="edge">
<title>Node1&#45;&gt;Node19</title>
<g id="a_edge29_Node000001_Node000019"><a xlink:title=" ">
<path fill="none" stroke="#63b8ff" d="M2072.97,-188.1C1932.36,-184.2 1651.43,-172.68 1415.5,-140 1315.56,-126.16 1200.27,-97.9 1140.04,-82.18"/>
<polygon fill="#63b8ff" stroke="#63b8ff" points="1140.72,-78.74 1130.16,-79.58 1138.94,-85.51 1140.72,-78.74"/>
</a>
</g>
</g>
<!-- Node22 -->
<g id="Node000022" class="node">
<title>Node22</title>
<g id="a_Node000022"><a xlink:title=" ">
<polygon fill="#e0e0e0" stroke="#999999" points="2282,-140 2173,-140 2173,-121 2282,-121 2282,-140"/>
<text text-anchor="middle" x="2227.5" y="-128" font-family="Malgun Gothic" font-size="10.00">Widgets/SWidget.h</text>
</a>
</g>
</g>
<!-- Node1&#45;&gt;Node22 -->
<g id="edge26_Node000001_Node000022" class="edge">
<title>Node1&#45;&gt;Node22</title>
<g id="a_edge26_Node000001_Node000022"><a xlink:title=" ">
<path fill="none" stroke="#63b8ff" d="M2178.23,-175.84C2187.86,-167.17 2200.19,-156.08 2210.11,-147.15"/>
<polygon fill="#63b8ff" stroke="#63b8ff" points="2212.67,-149.56 2217.76,-140.27 2207.99,-144.35 2212.67,-149.56"/>
</a>
</g>
</g>
<!-- Node23 -->
<g id="Node000023" class="node">
<title>Node23</title>
<g id="a_Node000023"><a xlink:title=" ">
<polygon fill="#e0e0e0" stroke="#999999" points="2491,-140 2300,-140 2300,-121 2491,-121 2491,-140"/>
<text text-anchor="middle" x="2395.5" y="-128" font-family="Malgun Gothic" font-size="10.00">GameFramework/PlayerController.h</text>
</a>
</g>
</g>
<!-- Node1&#45;&gt;Node23 -->
<g id="edge27_Node000001_Node000023" class="edge">
<title>Node1&#45;&gt;Node23</title>
<g id="a_edge27_Node000001_Node000023"><a xlink:title=" ">
<path fill="none" stroke="#63b8ff" d="M2218.31,-175.99C2259.04,-165.76 2313.51,-152.09 2351.25,-142.61"/>
<polygon fill="#63b8ff" stroke="#63b8ff" points="2352.59,-145.88 2361.43,-140.05 2350.88,-139.09 2352.59,-145.88"/>
</a>
</g>
</g>
<!-- Node24 -->
<g id="Node000024" class="node">
<title>Node24</title>
<g id="a_Node000024"><a xlink:title=" ">
<polygon fill="#e0e0e0" stroke="#999999" points="2598,-140 2509,-140 2509,-121 2598,-121 2598,-140"/>
<text text-anchor="middle" x="2553.5" y="-128" font-family="Malgun Gothic" font-size="10.00">Engine/World.h</text>
</a>
</g>
</g>
<!-- Node1&#45;&gt;Node24 -->
<g id="edge28_Node000001_Node000024" class="edge">
<title>Node1&#45;&gt;Node24</title>
<g id="a_edge28_Node000001_Node000024"><a xlink:title=" ">
<path fill="none" stroke="#63b8ff" d="M2252.21,-177.03C2317.89,-167.47 2409.47,-153.98 2498.92,-140.23"/>
<polygon fill="#63b8ff" stroke="#63b8ff" points="2499.62,-143.66 2508.97,-138.68 2498.56,-136.74 2499.62,-143.66"/>
</a>
</g>
</g>
<!-- Node25 -->
<g id="Node000025" class="node">
<title>Node25</title>
<g id="a_Node000025"><a xlink:title=" ">
<polygon fill="#e0e0e0" stroke="#999999" points="2779,-140 2616,-140 2616,-121 2779,-121 2779,-140"/>
<text text-anchor="middle" x="2697.5" y="-128" font-family="Malgun Gothic" font-size="10.00">Engine/GameViewportClient.h</text>
</a>
</g>
</g>
<!-- Node1&#45;&gt;Node25 -->
<g id="edge30_Node000001_Node000025" class="edge">
<title>Node1&#45;&gt;Node25</title>
<g id="a_edge30_Node000001_Node000025"><a xlink:title=" ">
<path fill="none" stroke="#63b8ff" d="M2252.05,-180.21C2351.41,-169.34 2510.72,-151.92 2609.47,-141.13"/>
<polygon fill="#63b8ff" stroke="#63b8ff" points="2609.86,-144.6 2619.42,-140.04 2609.1,-137.65 2609.86,-144.6"/>
</a>
</g>
</g>
<!-- Node26 -->
<g id="Node000026" class="node">
<title>Node26</title>
<g id="a_Node000026"><a xlink:title=" ">
<polygon fill="#e0e0e0" stroke="#999999" points="2908,-140 2797,-140 2797,-121 2908,-121 2908,-140"/>
<text text-anchor="middle" x="2852.5" y="-128" font-family="Malgun Gothic" font-size="10.00">OnlineSubsystem.h</text>
</a>
</g>
</g>
<!-- Node1&#45;&gt;Node26 -->
<g id="edge31_Node000001_Node000026" class="edge">
<title>Node1&#45;&gt;Node26</title>
<g id="a_edge31_Node000001_Node000026"><a xlink:title=" ">
<path fill="none" stroke="#63b8ff" d="M2252.05,-184.33C2371.6,-176.42 2590.19,-160.81 2786.46,-140.17"/>
<polygon fill="#63b8ff" stroke="#63b8ff" points="2787.1,-143.62 2796.67,-139.09 2786.36,-136.66 2787.1,-143.62"/>
</a>
</g>
</g>
<!-- Node27 -->
<g id="Node000027" class="node">
<title>Node27</title>
<g id="a_Node000027"><a xlink:title=" ">
<polygon fill="#e0e0e0" stroke="#999999" points="3060.5,-140 2926.5,-140 2926.5,-121 3060.5,-121 3060.5,-140"/>
<text text-anchor="middle" x="2993.5" y="-128" font-family="Malgun Gothic" font-size="10.00">OnlineSubsystemUtils.h</text>
</a>
</g>
</g>
<!-- Node1&#45;&gt;Node27 -->
<g id="edge32_Node000001_Node000027" class="edge">
<title>Node1&#45;&gt;Node27</title>
<g id="a_edge32_Node000001_Node000027"><a xlink:title=" ">
<path fill="none" stroke="#63b8ff" d="M2252.09,-185.38C2391.65,-177.9 2669.66,-161.81 2916.15,-140.08"/>
<polygon fill="#63b8ff" stroke="#63b8ff" points="2916.73,-143.54 2926.38,-139.17 2916.11,-136.57 2916.73,-143.54"/>
</a>
</g>
</g>
<!-- Node28 -->
<g id="Node000028" class="node">
<title>Node28</title>
<g id="a_Node000028"><a xlink:title=" ">
<polygon fill="#e0e0e0" stroke="#999999" points="3212.5,-140 3078.5,-140 3078.5,-121 3212.5,-121 3212.5,-140"/>
<text text-anchor="middle" x="3145.5" y="-128" font-family="Malgun Gothic" font-size="10.00">OnlineSessionSettings.h</text>
</a>
</g>
</g>
<!-- Node1&#45;&gt;Node28 -->
<g id="edge33_Node000001_Node000028" class="edge">
<title>Node1&#45;&gt;Node28</title>
<g id="a_edge33_Node000001_Node000028"><a xlink:title=" ">
<path fill="none" stroke="#63b8ff" d="M2252.09,-186.74C2413.16,-180.5 2762.54,-165.29 3067.99,-140.08"/>
<polygon fill="#63b8ff" stroke="#63b8ff" points="3068.71,-143.53 3078.38,-139.21 3068.13,-136.55 3068.71,-143.53"/>
</a>
</g>
</g>
<!-- Node29 -->
<g id="Node000029" class="node">
<title>Node29</title>
<g id="a_Node000029"><a xlink:href="UDialogManager_8h.html" target="_top" xlink:title="UDialogManager 클래스를 선언합니다.">
<polygon fill="white" stroke="#666666" points="1531,-140 1424,-140 1424,-121 1531,-121 1531,-140"/>
<text text-anchor="middle" x="1477.5" y="-128" font-family="Malgun Gothic" font-size="10.00">UDialogManager.h</text>
</a>
</g>
</g>
<!-- Node1&#45;&gt;Node29 -->
<g id="edge34_Node000001_Node000029" class="edge">
<title>Node1&#45;&gt;Node29</title>
<g id="a_edge34_Node000001_Node000029"><a xlink:title=" ">
<path fill="none" stroke="#63b8ff" d="M2072.95,-182.35C1932.38,-170.35 1663.39,-147.38 1540.98,-136.92"/>
<polygon fill="#63b8ff" stroke="#63b8ff" points="1541.27,-133.43 1531.01,-136.07 1540.67,-140.41 1541.27,-133.43"/>
</a>
</g>
</g>
<!-- Node32 -->
<g id="Node000032" class="node">
<title>Node32</title>
<g id="a_Node000032"><a xlink:href="ULoadingCircleManager_8h.html" target="_top" xlink:title="ULoadingCircleManager 클래스를 선언합니다.">
<polygon fill="white" stroke="#666666" points="1762,-140 1621,-140 1621,-121 1762,-121 1762,-140"/>
<text text-anchor="middle" x="1691.5" y="-128" font-family="Malgun Gothic" font-size="10.00">ULoadingCircleManager.h</text>
</a>
</g>
</g>
<!-- Node1&#45;&gt;Node32 -->
<g id="edge39_Node000001_Node000032" class="edge">
<title>Node1&#45;&gt;Node32</title>
<g id="a_edge39_Node000001_Node000032"><a xlink:title=" ">
<path fill="none" stroke="#63b8ff" d="M2072.8,-178.86C1985.34,-168 1853.65,-151.64 1770.17,-141.27"/>
<polygon fill="#63b8ff" stroke="#63b8ff" points="1770.58,-137.8 1760.23,-140.04 1769.72,-144.74 1770.58,-137.8"/>
</a>
</g>
</g>
<!-- Node34 -->
<g id="Node000034" class="node">
<title>Node34</title>
<g id="a_Node000034"><a xlink:title=" ">
<polygon fill="#e0e0e0" stroke="#999999" points="3394.5,-140 3230.5,-140 3230.5,-121 3394.5,-121 3394.5,-140"/>
<text text-anchor="middle" x="3312.5" y="-128" font-family="Malgun Gothic" font-size="10.00">Online/OnlineSessionNames.h</text>
</a>
</g>
</g>
<!-- Node1&#45;&gt;Node34 -->
<g id="edge44_Node000001_Node000034" class="edge">
<title>Node1&#45;&gt;Node34</title>
<g id="a_edge44_Node000001_Node000034"><a xlink:title=" ">
<path fill="none" stroke="#63b8ff" d="M2252.19,-187.16C2433.09,-181.12 2854.86,-165.5 3219.93,-140.08"/>
<polygon fill="#63b8ff" stroke="#63b8ff" points="3220.44,-143.55 3230.17,-139.36 3219.95,-136.57 3220.44,-143.55"/>
</a>
</g>
</g>
<!-- Node3 -->
<g id="Node000003" class="node">
<title>Node3</title>
<g id="a_Node000003"><a xlink:title=" ">
<polygon fill="#e0e0e0" stroke="#999999" points="1031.5,-19 943.5,-19 943.5,0 1031.5,0 1031.5,-19"/>
<text text-anchor="middle" x="987.5" y="-7" font-family="Malgun Gothic" font-size="10.00">CoreMinimal.h</text>
</a>
</g>
</g>
<!-- Node2&#45;&gt;Node3 -->
<g id="edge2_Node000002_Node000003" class="edge">
<title>Node2&#45;&gt;Node3</title>
<g id="a_edge2_Node000002_Node000003"><a xlink:title=" ">
<path fill="none" stroke="#63b8ff" d="M1856.29,-120.85C1875.11,-106.05 1907.97,-75.46 1888.5,-55 1859.21,-24.23 1232.15,-13.65 1041.8,-11.14"/>
<polygon fill="#63b8ff" stroke="#63b8ff" points="1041.79,-7.64 1031.75,-11.01 1041.7,-14.64 1041.79,-7.64"/>
</a>
</g>
</g>
<!-- Node4 -->
<g id="Node000004" class="node">
<title>Node4</title>
<g id="a_Node000004"><a xlink:href="Macro_8h.html" target="_top" xlink:title="YiSan 전반에서 사용하는 공용 인터페이스를 선언합니다.">
<polygon fill="white" stroke="#666666" points="1862.5,-79.5 1806.5,-79.5 1806.5,-60.5 1862.5,-60.5 1862.5,-79.5"/>
<text text-anchor="middle" x="1834.5" y="-67.5" font-family="Malgun Gothic" font-size="10.00">Macro.h</text>
</a>
</g>
</g>
<!-- Node2&#45;&gt;Node4 -->
<g id="edge3_Node000002_Node000004" class="edge">
<title>Node2&#45;&gt;Node4</title>
<g id="a_edge3_Node000002_Node000004"><a xlink:title=" ">
<path fill="none" stroke="#63b8ff" d="M1843.02,-120.87C1841.62,-112.66 1839.46,-100.04 1837.67,-89.55"/>
<polygon fill="#63b8ff" stroke="#63b8ff" points="1841.12,-88.93 1835.98,-79.67 1834.22,-90.11 1841.12,-88.93"/>
</a>
</g>
</g>
<!-- Node5 -->
<g id="Node000005" class="node">
<title>Node5</title>
<g id="a_Node000005"><a xlink:title=" ">
<polygon fill="#e0e0e0" stroke="#999999" points="2094,-85 1957,-85 1957,-55 2094,-55 2094,-85"/>
<text text-anchor="start" x="1965" y="-73" font-family="Malgun Gothic" font-size="10.00">Interfaces/OnlineSession</text>
<text text-anchor="middle" x="2025.5" y="-62" font-family="Malgun Gothic" font-size="10.00">Interface.h</text>
</a>
</g>
</g>
<!-- Node2&#45;&gt;Node5 -->
<g id="edge4_Node000002_Node000005" class="edge">
<title>Node2&#45;&gt;Node5</title>
<g id="a_edge4_Node000002_Node000005"><a xlink:title=" ">
<path fill="none" stroke="#63b8ff" d="M1870.82,-120.99C1897.32,-112.43 1938.96,-98.97 1972.36,-88.18"/>
<polygon fill="#63b8ff" stroke="#63b8ff" points="1973.55,-91.47 1981.98,-85.06 1971.39,-84.81 1973.55,-91.47"/>
</a>
</g>
</g>
<!-- Node6 -->
<g id="Node000006" class="node">
<title>Node6</title>
<g id="a_Node000006"><a xlink:title=" ">
<polygon fill="#e0e0e0" stroke="#999999" points="2324.5,-79.5 2112.5,-79.5 2112.5,-60.5 2324.5,-60.5 2324.5,-79.5"/>
<text text-anchor="middle" x="2218.5" y="-67.5" font-family="Malgun Gothic" font-size="10.00">Subsystems/GameInstanceSubsystem.h</text>
</a>
</g>
</g>
<!-- Node2&#45;&gt;Node6 -->
<g id="edge5_Node000002_Node000006" class="edge">
<title>Node2&#45;&gt;Node6</title>
<g id="a_edge5_Node000002_Node000006"><a xlink:title=" ">
<path fill="none" stroke="#63b8ff" d="M1898.88,-120.99C1966.47,-110.42 2081.67,-92.4 2153.74,-81.13"/>
<polygon fill="#63b8ff" stroke="#63b8ff" points="2154.71,-84.52 2164.05,-79.52 2153.63,-77.6 2154.71,-84.52"/>
</a>
</g>
</g>
<!-- Node7 -->
<g id="Node000007" class="node">
<title>Node7</title>
<g id="a_Node000007"><a xlink:title=" ">
<polygon fill="#e0e0e0" stroke="#999999" points="2522.5,-79.5 2342.5,-79.5 2342.5,-60.5 2522.5,-60.5 2522.5,-79.5"/>
<text text-anchor="middle" x="2432.5" y="-67.5" font-family="Malgun Gothic" font-size="10.00">UYisanOnlineSystem.generated.h</text>
</a>
</g>
</g>
<!-- Node2&#45;&gt;Node7 -->
<g id="edge6_Node000002_Node000007" class="edge">
<title>Node2&#45;&gt;Node7</title>
<g id="a_edge6_Node000002_Node000007"><a xlink:title=" ">
<path fill="none" stroke="#63b8ff" d="M1908.58,-121.93C1911.6,-121.61 1914.58,-121.3 1917.5,-121 2102.13,-102.27 2149.11,-106 2333.5,-85 2343.96,-83.81 2355.01,-82.4 2365.8,-80.94"/>
<polygon fill="#63b8ff" stroke="#63b8ff" points="2366.6,-84.36 2376.03,-79.52 2365.64,-77.42 2366.6,-84.36"/>
</a>
</g>
</g>
<!-- Node10&#45;&gt;Node3 -->
<g id="edge10_Node000010_Node000003" class="edge">
<title>Node10&#45;&gt;Node3</title>
<g id="a_edge10_Node000010_Node000003"><a xlink:title=" ">
<path fill="none" stroke="#63b8ff" d="M501.31,-122.06C538.77,-115.65 588.18,-104.3 628.5,-85 648.22,-75.56 647.33,-63.45 667.5,-55 755.52,-18.1 867.89,-10.6 933.37,-9.71"/>
<polygon fill="#63b8ff" stroke="#63b8ff" points="933.49,-13.21 943.46,-9.62 933.43,-6.21 933.49,-13.21"/>
</a>
</g>
</g>
<!-- Node11 -->
<g id="Node000011" class="node">
<title>Node11</title>
<g id="a_Node000011"><a xlink:href="AYiSanPlayerState_8h.html" target="_top" xlink:title="AYiSanPlayerState 클래스를 선언합니다.">
<polygon fill="white" stroke="#666666" points="298,-79.5 183,-79.5 183,-60.5 298,-60.5 298,-79.5"/>
<text text-anchor="middle" x="240.5" y="-67.5" font-family="Malgun Gothic" font-size="10.00">AYiSanPlayerState.h</text>
</a>
</g>
</g>
<!-- Node10&#45;&gt;Node11 -->
<g id="edge11_Node000010_Node000011" class="edge">
<title>Node10&#45;&gt;Node11</title>
<g id="a_edge11_Node000010_Node000011"><a xlink:title=" ">
<path fill="none" stroke="#63b8ff" d="M414.84,-120.99C379.26,-110.79 319.48,-93.65 280.02,-82.33"/>
<polygon fill="#63b8ff" stroke="#63b8ff" points="280.78,-78.91 270.2,-79.52 278.85,-85.64 280.78,-78.91"/>
</a>
</g>
</g>
<!-- Node14 -->
<g id="Node000014" class="node">
<title>Node14</title>
<g id="a_Node000014"><a xlink:href="EBuildingType_8h.html" target="_top" xlink:title="EBuildingType 클래스를 선언합니다.">
<polygon fill="white" stroke="#666666" points="410.5,-79.5 316.5,-79.5 316.5,-60.5 410.5,-60.5 410.5,-79.5"/>
<text text-anchor="middle" x="363.5" y="-67.5" font-family="Malgun Gothic" font-size="10.00">EBuildingType.h</text>
</a>
</g>
</g>
<!-- Node10&#45;&gt;Node14 -->
<g id="edge15_Node000010_Node000014" class="edge">
<title>Node10&#45;&gt;Node14</title>
<g id="a_edge15_Node000010_Node000014"><a xlink:title=" ">
<path fill="none" stroke="#63b8ff" d="M432.55,-120.87C419.75,-111.62 399.2,-96.78 383.85,-85.69"/>
<polygon fill="#63b8ff" stroke="#63b8ff" points="385.66,-82.68 375.5,-79.67 381.56,-88.36 385.66,-82.68"/>
</a>
</g>
</g>
<!-- Node15 -->
<g id="Node000015" class="node">
<title>Node15</title>
<g id="a_Node000015"><a xlink:title=" ">
<polygon fill="#e0e0e0" stroke="#999999" points="620,-79.5 429,-79.5 429,-60.5 620,-60.5 620,-79.5"/>
<text text-anchor="middle" x="524.5" y="-67.5" font-family="Malgun Gothic" font-size="10.00">GameFramework/GameStateBase.h</text>
</a>
</g>
</g>
<!-- Node10&#45;&gt;Node15 -->
<g id="edge16_Node000010_Node000015" class="edge">
<title>Node10&#45;&gt;Node15</title>
<g id="a_edge16_Node000010_Node000015"><a xlink:title=" ">
<path fill="none" stroke="#63b8ff" d="M456.3,-120.87C468.95,-111.62 489.24,-96.78 504.41,-85.69"/>
<polygon fill="#63b8ff" stroke="#63b8ff" points="506.64,-88.4 512.65,-79.67 502.51,-82.74 506.64,-88.4"/>
</a>
</g>
</g>
<!-- Node16 -->
<g id="Node000016" class="node">
<title>Node16</title>
<g id="a_Node000016"><a xlink:title=" ">
<polygon fill="#e0e0e0" stroke="#999999" points="165,-79.5 0,-79.5 0,-60.5 165,-60.5 165,-79.5"/>
<text text-anchor="middle" x="82.5" y="-67.5" font-family="Malgun Gothic" font-size="10.00">AYisanGameState.generated.h</text>
</a>
</g>
</g>
<!-- Node10&#45;&gt;Node16 -->
<g id="edge17_Node000010_Node000016" class="edge">
<title>Node10&#45;&gt;Node16</title>
<g id="a_edge17_Node000010_Node000016"><a xlink:title=" ">
<path fill="none" stroke="#63b8ff" d="M391.86,-120.99C326.45,-110.42 214.94,-92.4 145.18,-81.13"/>
<polygon fill="#63b8ff" stroke="#63b8ff" points="145.63,-77.66 135.2,-79.52 144.51,-84.57 145.63,-77.66"/>
</a>
</g>
</g>
<!-- Node11&#45;&gt;Node3 -->
<g id="edge12_Node000011_Node000003" class="edge">
<title>Node11&#45;&gt;Node3</title>
<g id="a_edge12_Node000011_Node000003"><a xlink:title=" ">
<path fill="none" stroke="#63b8ff" d="M276.85,-60.43C286.74,-58.37 297.49,-56.37 307.5,-55 538.77,-23.43 817.46,-14.09 933.11,-11.47"/>
<polygon fill="#63b8ff" stroke="#63b8ff" points="933.21,-14.97 943.13,-11.25 933.06,-7.97 933.21,-14.97"/>
</a>
</g>
</g>
<!-- Node12 -->
<g id="Node000012" class="node">
<title>Node12</title>
<g id="a_Node000012"><a xlink:title=" ">
<polygon fill="#e0e0e0" stroke="#999999" points="232,-19 63,-19 63,0 232,0 232,-19"/>
<text text-anchor="middle" x="147.5" y="-7" font-family="Malgun Gothic" font-size="10.00">GameFramework/PlayerState.h</text>
</a>
</g>
</g>
<!-- Node11&#45;&gt;Node12 -->
<g id="edge13_Node000011_Node000012" class="edge">
<title>Node11&#45;&gt;Node12</title>
<g id="a_edge13_Node000011_Node000012"><a xlink:title=" ">
<path fill="none" stroke="#63b8ff" d="M226.78,-60.37C211.8,-50.95 187.61,-35.73 169.88,-24.58"/>
<polygon fill="#63b8ff" stroke="#63b8ff" points="171.61,-21.53 161.28,-19.17 167.88,-27.45 171.61,-21.53"/>
</a>
</g>
</g>
<!-- Node13 -->
<g id="Node000013" class="node">
<title>Node13</title>
<g id="a_Node000013"><a xlink:title=" ">
<polygon fill="#e0e0e0" stroke="#999999" points="417,-19 250,-19 250,0 417,0 417,-19"/>
<text text-anchor="middle" x="333.5" y="-7" font-family="Malgun Gothic" font-size="10.00">AYiSanPlayerState.generated.h</text>
</a>
</g>
</g>
<!-- Node11&#45;&gt;Node13 -->
<g id="edge14_Node000011_Node000013" class="edge">
<title>Node11&#45;&gt;Node13</title>
<g id="a_edge14_Node000011_Node000013"><a xlink:title=" ">
<path fill="none" stroke="#63b8ff" d="M254.22,-60.37C269.2,-50.95 293.39,-35.73 311.12,-24.58"/>
<polygon fill="#63b8ff" stroke="#63b8ff" points="313.12,-27.45 319.72,-19.17 309.39,-21.53 313.12,-27.45"/>
</a>
</g>
</g>
<!-- Node17&#45;&gt;Node3 -->
<g id="edge19_Node000017_Node000003" class="edge">
<title>Node17&#45;&gt;Node3</title>
<g id="a_edge19_Node000017_Node000003"><a xlink:title=" ">
<path fill="none" stroke="#63b8ff" d="M991.61,-120.88C995.56,-112.09 1001.24,-97.94 1003.5,-85 1005.79,-71.86 1005.79,-68.14 1003.5,-55 1001.93,-46 998.7,-36.42 995.56,-28.46"/>
<polygon fill="#63b8ff" stroke="#63b8ff" points="998.73,-26.97 991.61,-19.12 992.28,-29.69 998.73,-26.97"/>
</a>
</g>
</g>
<!-- Node18 -->
<g id="Node000018" class="node">
<title>Node18</title>
<g id="a_Node000018"><a xlink:title=" ">
<polygon fill="#e0e0e0" stroke="#999999" points="796,-79.5 677,-79.5 677,-60.5 796,-60.5 796,-79.5"/>
<text text-anchor="middle" x="736.5" y="-67.5" font-family="Malgun Gothic" font-size="10.00">Logging/LogMacros.h</text>
</a>
</g>
</g>
<!-- Node17&#45;&gt;Node18 -->
<g id="edge20_Node000017_Node000018" class="edge">
<title>Node17&#45;&gt;Node18</title>
<g id="a_edge20_Node000017_Node000018"><a xlink:title=" ">
<path fill="none" stroke="#63b8ff" d="M951,-120.99C906.57,-110.64 831.49,-93.14 782.97,-81.83"/>
<polygon fill="#63b8ff" stroke="#63b8ff" points="783.58,-78.38 773.04,-79.52 781.99,-85.2 783.58,-78.38"/>
</a>
</g>
</g>
<!-- Node17&#45;&gt;Node19 -->
<g id="edge21_Node000017_Node000019" class="edge">
<title>Node17&#45;&gt;Node19</title>
<g id="a_edge21_Node000017_Node000019"><a xlink:title=" ">
<path fill="none" stroke="#63b8ff" d="M1003.88,-120.87C1022.08,-111.28 1051.7,-95.67 1072.95,-84.47"/>
<polygon fill="#63b8ff" stroke="#63b8ff" points="1074.84,-87.43 1082.05,-79.67 1071.58,-81.23 1074.84,-87.43"/>
</a>
</g>
</g>
<!-- Node20 -->
<g id="Node000020" class="node">
<title>Node20</title>
<g id="a_Node000020"><a xlink:href="FLogWriter_8h.html" target="_top" xlink:title="FArchive 클래스를 선언합니다.">
<polygon fill="white" stroke="#666666" points="892.5,-79.5 814.5,-79.5 814.5,-60.5 892.5,-60.5 892.5,-79.5"/>
<text text-anchor="middle" x="853.5" y="-67.5" font-family="Malgun Gothic" font-size="10.00">FLogWriter.h</text>
</a>
</g>
</g>
<!-- Node17&#45;&gt;Node20 -->
<g id="edge22_Node000017_Node000020" class="edge">
<title>Node17&#45;&gt;Node20</title>
<g id="a_edge22_Node000017_Node000020"><a xlink:title=" ">
<path fill="none" stroke="#63b8ff" d="M968.02,-120.99C945.49,-111.16 908.19,-94.88 882.31,-83.58"/>
<polygon fill="#63b8ff" stroke="#63b8ff" points="883.57,-80.31 873.01,-79.52 880.77,-86.73 883.57,-80.31"/>
</a>
</g>
</g>
<!-- Node21 -->
<g id="Node000021" class="node">
<title>Node21</title>
<g id="a_Node000021"><a xlink:href="NetworkLog_8h.html" target="_top" xlink:title="YiSan 전반에서 사용하는 공용 인터페이스를 선언합니다.">
<polygon fill="white" stroke="#666666" points="994.5,-79.5 910.5,-79.5 910.5,-60.5 994.5,-60.5 994.5,-79.5"/>
<text text-anchor="middle" x="952.5" y="-67.5" font-family="Malgun Gothic" font-size="10.00">NetworkLog.h</text>
</a>
</g>
</g>
<!-- Node17&#45;&gt;Node21 -->
<g id="edge24_Node000017_Node000021" class="edge">
<title>Node17&#45;&gt;Node21</title>
<g id="a_edge24_Node000017_Node000021"><a xlink:title=" ">
<path fill="none" stroke="#63b8ff" d="M982.34,-120.87C977.27,-112.4 969.4,-99.24 963.01,-88.57"/>
<polygon fill="#63b8ff" stroke="#63b8ff" points="965.82,-86.45 957.69,-79.67 959.82,-90.05 965.82,-86.45"/>
</a>
</g>
</g>
<!-- Node20&#45;&gt;Node3 -->
<g id="edge23_Node000020_Node000003" class="edge">
<title>Node20&#45;&gt;Node3</title>
<g id="a_edge23_Node000020_Node000003"><a xlink:title=" ">
<path fill="none" stroke="#63b8ff" d="M872.98,-60.49C895.51,-50.66 932.81,-34.38 958.69,-23.08"/>
<polygon fill="#63b8ff" stroke="#63b8ff" points="960.23,-26.23 967.99,-19.02 957.43,-19.81 960.23,-26.23"/>
</a>
</g>
</g>
<!-- Node21&#45;&gt;Node3 -->
<g id="edge25_Node000021_Node000003" class="edge">
<title>Node21&#45;&gt;Node3</title>
<g id="a_edge25_Node000021_Node000003"><a xlink:title=" ">
<path fill="none" stroke="#63b8ff" d="M957.66,-60.37C962.73,-51.9 970.6,-38.74 976.99,-28.07"/>
<polygon fill="#63b8ff" stroke="#63b8ff" points="980.18,-29.55 982.31,-19.17 974.18,-25.95 980.18,-29.55"/>
</a>
</g>
</g>
<!-- Node29&#45;&gt;Node3 -->
<g id="edge35_Node000029_Node000003" class="edge">
<title>Node29&#45;&gt;Node3</title>
<g id="a_edge35_Node000029_Node000003"><a xlink:title=" ">
<path fill="none" stroke="#63b8ff" d="M1450.74,-120.92C1428.24,-113.14 1395.65,-100.54 1369.5,-85 1351.3,-74.19 1351.96,-63.34 1332.5,-55 1281.41,-33.11 1125.42,-19.69 1041.8,-13.88"/>
<polygon fill="#63b8ff" stroke="#63b8ff" points="1041.94,-10.38 1031.73,-13.19 1041.47,-17.37 1041.94,-10.38"/>
</a>
</g>
</g>
<!-- Node29&#45;&gt;Node4 -->
<g id="edge36_Node000029_Node000004" class="edge">
<title>Node29&#45;&gt;Node4</title>
<g id="a_edge36_Node000029_Node000004"><a xlink:title=" ">
<path fill="none" stroke="#63b8ff" d="M1531.15,-125.72C1595.29,-120.37 1705.52,-108.48 1797.5,-85 1799.95,-84.38 1802.45,-83.64 1804.95,-82.84"/>
<polygon fill="#63b8ff" stroke="#63b8ff" points="1806.12,-86.14 1814.41,-79.53 1803.81,-79.53 1806.12,-86.14"/>
</a>
</g>
</g>
<!-- Node30 -->
<g id="Node000030" class="node">
<title>Node30</title>
<g id="a_Node000030"><a xlink:title=" ">
<polygon fill="#e0e0e0" stroke="#999999" points="1576.5,-79.5 1378.5,-79.5 1378.5,-60.5 1576.5,-60.5 1576.5,-79.5"/>
<text text-anchor="middle" x="1477.5" y="-67.5" font-family="Malgun Gothic" font-size="10.00">Subsystems/LocalPlayerSubsystem.h</text>
</a>
</g>
</g>
<!-- Node29&#45;&gt;Node30 -->
<g id="edge37_Node000029_Node000030" class="edge">
<title>Node29&#45;&gt;Node30</title>
<g id="a_edge37_Node000029_Node000030"><a xlink:title=" ">
<path fill="none" stroke="#63b8ff" d="M1477.5,-120.87C1477.5,-112.75 1477.5,-100.31 1477.5,-89.89"/>
<polygon fill="#63b8ff" stroke="#63b8ff" points="1481,-89.67 1477.5,-79.67 1474,-89.67 1481,-89.67"/>
</a>
</g>
</g>
<!-- Node31 -->
<g id="Node000031" class="node">
<title>Node31</title>
<g id="a_Node000031"><a xlink:title=" ">
<polygon fill="#e0e0e0" stroke="#999999" points="1323,-79.5 1164,-79.5 1164,-60.5 1323,-60.5 1323,-79.5"/>
<text text-anchor="middle" x="1243.5" y="-67.5" font-family="Malgun Gothic" font-size="10.00">UDialogManager.generated.h</text>
</a>
</g>
</g>
<!-- Node29&#45;&gt;Node31 -->
<g id="edge38_Node000029_Node000031" class="edge">
<title>Node29&#45;&gt;Node31</title>
<g id="a_edge38_Node000029_Node000031"><a xlink:title=" ">
<path fill="none" stroke="#63b8ff" d="M1443.47,-120.99C1402.23,-110.68 1332.64,-93.28 1287.39,-81.97"/>
<polygon fill="#63b8ff" stroke="#63b8ff" points="1288.12,-78.55 1277.57,-79.52 1286.42,-85.34 1288.12,-78.55"/>
</a>
</g>
</g>
<!-- Node32&#45;&gt;Node3 -->
<g id="edge40_Node000032_Node000003" class="edge">
<title>Node32&#45;&gt;Node3</title>
<g id="a_edge40_Node000032_Node000003"><a xlink:title=" ">
<path fill="none" stroke="#63b8ff" d="M1762.25,-121C1806.57,-114.05 1857.81,-102.49 1871.5,-85 1879.72,-74.5 1880.69,-64.66 1871.5,-55 1842.82,-24.84 1229.54,-13.86 1041.69,-11.19"/>
<polygon fill="#63b8ff" stroke="#63b8ff" points="1041.55,-7.69 1031.5,-11.05 1041.45,-14.69 1041.55,-7.69"/>
</a>
</g>
</g>
<!-- Node32&#45;&gt;Node4 -->
<g id="edge41_Node000032_Node000004" class="edge">
<title>Node32&#45;&gt;Node4</title>
<g id="a_edge41_Node000032_Node000004"><a xlink:title=" ">
<path fill="none" stroke="#63b8ff" d="M1712.29,-120.99C1736.44,-111.12 1776.48,-94.73 1804.12,-83.43"/>
<polygon fill="#63b8ff" stroke="#63b8ff" points="1805.75,-86.54 1813.68,-79.52 1803.1,-80.06 1805.75,-86.54"/>
</a>
</g>
</g>
<!-- Node32&#45;&gt;Node30 -->
<g id="edge42_Node000032_Node000030" class="edge">
<title>Node32&#45;&gt;Node30</title>
<g id="a_edge42_Node000032_Node000030"><a xlink:title=" ">
<path fill="none" stroke="#63b8ff" d="M1660.38,-120.99C1622.9,-110.75 1559.82,-93.5 1518.43,-82.19"/>
<polygon fill="#63b8ff" stroke="#63b8ff" points="1519.22,-78.78 1508.65,-79.52 1517.38,-85.53 1519.22,-78.78"/>
</a>
</g>
</g>
<!-- Node33 -->
<g id="Node000033" class="node">
<title>Node33</title>
<g id="a_Node000033"><a xlink:title=" ">
<polygon fill="#e0e0e0" stroke="#999999" points="1788.5,-79.5 1594.5,-79.5 1594.5,-60.5 1788.5,-60.5 1788.5,-79.5"/>
<text text-anchor="middle" x="1691.5" y="-67.5" font-family="Malgun Gothic" font-size="10.00">ULoadingCircleManager.generated.h</text>
</a>
</g>
</g>
<!-- Node32&#45;&gt;Node33 -->
<g id="edge43_Node000032_Node000033" class="edge">
<title>Node32&#45;&gt;Node33</title>
<g id="a_edge43_Node000032_Node000033"><a xlink:title=" ">
<path fill="none" stroke="#63b8ff" d="M1691.5,-120.87C1691.5,-112.75 1691.5,-100.31 1691.5,-89.89"/>
<polygon fill="#63b8ff" stroke="#63b8ff" points="1695,-89.67 1691.5,-79.67 1688,-89.67 1695,-89.67"/>
</a>
</g>
</g>
</g>
</svg>

<g id="navigator" transform="translate(0 0)" fill="#404254">
  <rect fill="#f2f5e9" fill-opacity="0.5" stroke="#606060" stroke-width=".5" x="0" y="0" width="60" height="60"/>
  <use id="zoomplus" xlink:href="#zoomPlus" x="17" y="9" onmousedown="handleZoom(evt,'in')"/>
  <use id="zoomminus" xlink:href="#zoomMin" x="42" y="9" onmousedown="handleZoom(evt,'out')"/>
  <use id="reset" xlink:href="#resetDef" x="30" y="36" onmousedown="handleReset()"/>
   <use id="arrowup" xlink:href="#arrowUp" x="0" y="0" onmousedown="handlePan(0,-1)"/>
  <use id="arrowright" xlink:href="#arrowRight" x="0" y="0" onmousedown="handlePan(1,0)"/>
  <use id="arrowdown" xlink:href="#arrowDown" x="0" y="0" onmousedown="handlePan(0,1)"/>
  <use id="arrowleft" xlink:href="#arrowLeft" x="0" y="0" onmousedown="handlePan(-1,0)"/>
</g>
<svg viewBox="0 0 15 15" width="100%" height="30px" preserveAspectRatio="xMaxYMin meet">
 <g id="arrow_out" transform="scale(0.3 0.3)">
  <a xlink:href="UYisanOnlineSystem_8cpp__incl_org.svg" target="_base">
   <rect id="button" ry="5" rx="5" y="6" x="6" height="38" width="38"
        fill="#f2f5e9" fill-opacity="0.5" stroke="#606060" stroke-width="1.0"/>
   <path id="arrow"
     d="M 11.500037,31.436501 C 11.940474,20.09759 22.043105,11.32322 32.158766,21.979434 L 37.068811,17.246167 C 37.068811,17.246167 37.088388,32 37.088388,32 L 22.160133,31.978069 C 22.160133,31.978069 26.997745,27.140456 26.997745,27.140456 C 18.528582,18.264221 13.291696,25.230495 11.500037,31.436501 z"
     style="fill:#404040;"/>
  </a>
 </g>
</svg>

<style type='text/css'>
<![CDATA[
[data-mouse-over-selected='false'] { opacity: 0.7; }
[data-mouse-over-selected='true']  { opacity: 1.0; }
]]>
</style>
<script type="application/ecmascript"><![CDATA[
document.addEventListener('DOMContentLoaded', (event) => {
  highlightEdges();
  highlightAdjacentNodes();
});
]]></script>
</svg>
